  0
SECTION
  2
HEADER
  9
$ACADVER
  1
AC1009
  9
$FILLMODE
 70
1
  9
$EXTMIN
 10
-1.0160
 20
-1.0160
 30
0.0000
  9
$EXTMAX
 10
68.7070
 20
53.4670
 30
0.0000
  0
ENDSEC
  0
SECTION
  2
TABLES
  0
TABLE
  2
LTYPE
 70
1
  0
LTYPE
  2
CONTINUOUS
 70
64
  3
Solid line
 72
65
 73
0
 40
0
  0
ENDTAB
  0
TABLE
  2
LAYER
 70
255
  0
LAYER
  2
1
 70
64
 62
22
  6
CONTINUOUS
  0
LAYER
  2
16
 70
64
 62
175
  6
CONTINUOUS
  0
LAYER
  2
17
 70
64
 62
82
  6
CONTINUOUS
  0
LAYER
  2
18
 70
64
 62
82
  6
CONTINUOUS
  0
LAYER
  2
19
 70
64
 62
53
  6
CONTINUOUS
  0
LAYER
  2
20
 70
64
 62
7
  6
CONTINUOUS
  0
LAYER
  2
21
 70
64
 62
253
  6
CONTINUOUS
  0
LAYER
  2
22
 70
64
 62
253
  6
CONTINUOUS
  0
LAYER
  2
23
 70
64
 62
7
  6
CONTINUOUS
  0
LAYER
  2
24
 70
64
 62
7
  6
CONTINUOUS
  0
LAYER
  2
25
 70
64
 62
253
  6
CONTINUOUS
  0
LAYER
  2
26
 70
64
 62
253
  6
CONTINUOUS
  0
LAYER
  2
27
 70
64
 62
253
  6
CONTINUOUS
  0
LAYER
  2
28
 70
64
 62
253
  6
CONTINUOUS
  0
LAYER
  2
39
 70
64
 62
22
  6
CONTINUOUS
  0
LAYER
  2
40
 70
64
 62
175
  6
CONTINUOUS
  0
LAYER
  2
41
 70
64
 62
22
  6
CONTINUOUS
  0
LAYER
  2
42
 70
64
 62
175
  6
CONTINUOUS
  0
LAYER
  2
43
 70
64
 62
82
  6
CONTINUOUS
  0
LAYER
  2
48
 70
64
 62
253
  6
CONTINUOUS
  0
LAYER
  2
49
 70
64
 62
253
  6
CONTINUOUS
  0
LAYER
  2
51
 70
64
 62
253
  6
CONTINUOUS
  0
LAYER
  2
52
 70
64
 62
253
  6
CONTINUOUS
  0
LAYER
  2
90
 70
64
 62
213
  6
CONTINUOUS
  0
LAYER
  2
100
 70
64
 62
253
  6
CONTINUOUS
  0
LAYER
  2
101
 70
64
 62
7
  6
CONTINUOUS
  0
LAYER
  2
102
 70
64
 62
178
  6
CONTINUOUS
  0
LAYER
  2
103
 70
64
 62
7
  6
CONTINUOUS
  0
LAYER
  2
104
 70
64
 62
253
  6
CONTINUOUS
  0
LAYER
  2
105
 70
64
 62
253
  6
CONTINUOUS
  0
LAYER
  2
106
 70
64
 62
253
  6
CONTINUOUS
  0
LAYER
  2
107
 70
64
 62
253
  6
CONTINUOUS
  0
LAYER
  2
108
 70
64
 62
253
  6
CONTINUOUS
  0
LAYER
  2
109
 70
64
 62
253
  6
CONTINUOUS
  0
LAYER
  2
110
 70
64
 62
253
  6
CONTINUOUS
  0
LAYER
  2
111
 70
64
 62
253
  6
CONTINUOUS
  0
LAYER
  2
112
 70
64
 62
7
  6
CONTINUOUS
  0
LAYER
  2
113
 70
64
 62
178
  6
CONTINUOUS
  0
LAYER
  2
114
 70
64
 62
7
  6
CONTINUOUS
  0
LAYER
  2
115
 70
64
 62
253
  6
CONTINUOUS
  0
LAYER
  2
116
 70
64
 62
175
  6
CONTINUOUS
  0
LAYER
  2
117
 70
64
 62
253
  6
CONTINUOUS
  0
LAYER
  2
118
 70
64
 62
2
  6
CONTINUOUS
  0
LAYER
  2
120
 70
64
 62
22
  6
CONTINUOUS
  0
LAYER
  2
121
 70
64
 62
253
  6
CONTINUOUS
  0
LAYER
  2
122
 70
64
 62
253
  6
CONTINUOUS
  0
LAYER
  2
123
 70
64
 62
253
  6
CONTINUOUS
  0
LAYER
  2
124
 70
64
 62
253
  6
CONTINUOUS
  0
LAYER
  2
125
 70
64
 62
253
  6
CONTINUOUS
  0
LAYER
  2
128
 70
64
 62
253
  6
CONTINUOUS
  0
LAYER
  2
129
 70
64
 62
253
  6
CONTINUOUS
  0
LAYER
  2
130
 70
64
 62
253
  6
CONTINUOUS
  0
LAYER
  2
131
 70
64
 62
253
  6
CONTINUOUS
  0
LAYER
  2
132
 70
64
 62
253
  6
CONTINUOUS
  0
LAYER
  2
144
 70
64
 62
253
  6
CONTINUOUS
  0
LAYER
  2
145
 70
64
 62
82
  6
CONTINUOUS
  0
LAYER
  2
146
 70
64
 62
140
  6
CONTINUOUS
  0
LAYER
  2
150
 70
64
 62
253
  6
CONTINUOUS
  0
LAYER
  2
151
 70
64
 62
253
  6
CONTINUOUS
  0
LAYER
  2
199
 70
64
 62
253
  6
CONTINUOUS
  0
LAYER
  2
200
 70
64
 62
253
  6
CONTINUOUS
  0
LAYER
  2
201
 70
64
 62
253
  6
CONTINUOUS
  0
LAYER
  2
202
 70
64
 62
253
  6
CONTINUOUS
  0
LAYER
  2
203
 70
64
 62
253
  6
CONTINUOUS
  0
LAYER
  2
204
 70
64
 62
253
  6
CONTINUOUS
  0
LAYER
  2
205
 70
64
 62
253
  6
CONTINUOUS
  0
LAYER
  2
206
 70
64
 62
253
  6
CONTINUOUS
  0
LAYER
  2
207
 70
64
 62
253
  6
CONTINUOUS
  0
LAYER
  2
208
 70
64
 62
253
  6
CONTINUOUS
  0
LAYER
  2
209
 70
64
 62
253
  6
CONTINUOUS
  0
LAYER
  2
210
 70
64
 62
253
  6
CONTINUOUS
  0
LAYER
  2
211
 70
64
 62
253
  6
CONTINUOUS
  0
LAYER
  2
212
 70
64
 62
253
  6
CONTINUOUS
  0
LAYER
  2
213
 70
64
 62
253
  6
CONTINUOUS
  0
LAYER
  2
214
 70
64
 62
253
  6
CONTINUOUS
  0
LAYER
  2
215
 70
64
 62
253
  6
CONTINUOUS
  0
LAYER
  2
216
 70
64
 62
253
  6
CONTINUOUS
  0
LAYER
  2
225
 70
64
 62
253
  6
CONTINUOUS
  0
LAYER
  2
226
 70
64
 62
253
  6
CONTINUOUS
  0
LAYER
  2
227
 70
64
 62
253
  6
CONTINUOUS
  0
LAYER
  2
228
 70
64
 62
253
  6
CONTINUOUS
  0
LAYER
  2
254
 70
64
 62
253
  6
CONTINUOUS
  0
LAYER
  2
255
 70
64
 62
253
  6
CONTINUOUS
  0
ENDTAB
  0
ENDSEC
  0
SECTION
  2
BLOCKS
  0
BLOCK
  8
0
  2
RECT
 70
64
 10
0.0000
 20
0.0000
 30
0.0000
  3
RECT
  0
SOLID
  8
0
 10
-0.5000
 20
-0.5000
 30
0.0000
 11
0.5000
 21
-0.5000
 31
0.0000
 12
-0.5000
 22
0.5000
 32
0.0000
 13
0.5000
 23
0.5000
 33
0.0000
  0
ENDBLK
  8
0
  0
BLOCK
  8
0
  2
PIE
 70
64
 10
0.0000
 20
0.0000
 30
0.0000
  3
PIE
  0
POLYLINE
  8
0
 66
1
 10
0.0000
 20
0.0000
 30
0.0000
 40
0.5000
 41
0.5000
 70
0
  0
VERTEX
  8
0
 10
0.0000
 20
-0.2500
 30
0.0000
 42
1.0000
  0
VERTEX
  8
0
 10
0.0000
 20
0.2500
 30
0.0000
 42
1.0000
  0
VERTEX
  8
0
 10
0.0000
 20
-0.2500
 30
0.0000
  0
SEQEND
  8
0
  0
ENDBLK
  8
0
  0
BLOCK
  8
0
  2
OCTAGONP
 70
64
 10
0.0000
 20
0.0000
 30
0.0000
  3
OCTAGONP
  0
POLYLINE
  8
0
 66
1
 10
0.0000
 20
0.0000
 30
0.0000
 40
0.5000
 41
0.5000
 70
0
  0
VERTEX
  8
0
 10
-0.2500
 20
-0.1036
 30
0.0000
  0
VERTEX
  8
0
 10
-0.2500
 20
0.1036
 30
0.0000
  0
VERTEX
  8
0
 10
-0.1036
 20
0.2500
 30
0.0000
  0
VERTEX
  8
0
 10
0.1036
 20
0.2500
 30
0.0000
  0
VERTEX
  8
0
 10
0.2500
 20
0.1036
 30
0.0000
  0
VERTEX
  8
0
 10
0.2500
 20
-0.1036
 30
0.0000
  0
VERTEX
  8
0
 10
0.1036
 20
-0.2500
 30
0.0000
  0
VERTEX
  8
0
 10
-0.1036
 20
-0.2500
 30
0.0000
  0
VERTEX
  8
0
 10
-0.2500
 20
-0.1036
 30
0.0000
  0
VERTEX
  8
0
 10
-0.2500
 20
0.1036
 30
0.0000
  0
SEQEND
  8
0
  0
ENDBLK
  8
0
  0
BLOCK
  8
0
  2
SQUAREP
 70
64
 10
0.0000
 20
0.0000
 30
0.0000
  3
SQUAREP
  0
SOLID
  8
0
 10
-0.5000
 20
-0.5000
 30
0.0000
 11
0.5000
 21
-0.5000
 31
0.0000
 12
-0.5000
 22
0.5000
 32
0.0000
 13
0.5000
 23
0.5000
 33
0.0000
  0
ENDBLK
  8
0
  0
BLOCK
  8
0
  2
ROUNDP
 70
64
 10
0.0000
 20
0.0000
 30
0.0000
  3
ROUNDP
  0
POLYLINE
  8
0
 66
1
 10
0.0000
 20
0.0000
 30
0.0000
 40
0.5000
 41
0.5000
 70
0
  0
VERTEX
  8
0
 10
0.0000
 20
-0.2500
 30
0.0000
 42
1.0000
  0
VERTEX
  8
0
 10
0.0000
 20
0.2500
 30
0.0000
 42
1.0000
  0
VERTEX
  8
0
 10
0.0000
 20
-0.2500
 30
0.0000
  0
SEQEND
  8
0
  0
ENDBLK
  8
0
  0
BLOCK
  8
0
  2
ANNULUSP
 70
64
 10
0.0000
 20
0.0000
 30
0.0000
  3
ANNULUSP
  0
POLYLINE
  8
0
 66
1
 10
0.0000
 20
0.0000
 30
0.0000
 40
0.5000
 41
0.5000
 70
0
  0
VERTEX
  8
0
 10
0.0000
 20
-0.2500
 30
0.0000
 42
1.0000
  0
VERTEX
  8
0
 10
0.0000
 20
0.2500
 30
0.0000
 42
1.0000
  0
VERTEX
  8
0
 10
0.0000
 20
-0.2500
 30
0.0000
  0
SEQEND
  8
0
  0
ENDBLK
  8
0
  0
BLOCK
  8
0
  2
THERMALP
 70
64
 10
0.0000
 20
0.0000
 30
0.0000
  3
THERMALP
  0
POLYLINE
  8
0
 66
1
 10
0.0000
 20
0.0000
 30
0.0000
 40
0.1000
 41
0.1000
 70
0
  0
VERTEX
  8
0
 10
-0.2379
 20
0.4500
 30
0.0000
  0
VERTEX
  8
0
 10
0.2379
 20
0.4500
 30
0.0000
  0
SEQEND
  8
0
  0
POLYLINE
  8
0
 66
1
 10
0.0000
 20
0.0000
 30
0.0000
 40
0.0500
 41
0.0500
 70
0
  0
VERTEX
  8
0
 10
0.2379
 20
0.4250
 30
0.0000
 42
1.0000
  0
VERTEX
  8
0
 10
0.2379
 20
0.4750
 30
0.0000
  0
SEQEND
  8
0
  0
POLYLINE
  8
0
 66
1
 10
0.0000
 20
0.0000
 30
0.0000
 40
0.0500
 41
0.0500
 70
0
  0
VERTEX
  8
0
 10
-0.2379
 20
0.4750
 30
0.0000
 42
1.0000
  0
VERTEX
  8
0
 10
-0.2379
 20
0.4250
 30
0.0000
  0
SEQEND
  8
0
  0
POLYLINE
  8
0
 66
1
 10
0.0000
 20
0.0000
 30
0.0000
 40
0.1000
 41
0.1000
 70
0
  0
VERTEX
  8
0
 10
0.4500
 20
0.2379
 30
0.0000
  0
VERTEX
  8
0
 10
0.4500
 20
-0.2379
 30
0.0000
  0
SEQEND
  8
0
  0
POLYLINE
  8
0
 66
1
 10
0.0000
 20
0.0000
 30
0.0000
 40
0.0500
 41
0.0500
 70
0
  0
VERTEX
  8
0
 10
0.4250
 20
-0.2379
 30
0.0000
 42
1.0000
  0
VERTEX
  8
0
 10
0.4750
 20
-0.2379
 30
0.0000
  0
SEQEND
  8
0
  0
POLYLINE
  8
0
 66
1
 10
0.0000
 20
0.0000
 30
0.0000
 40
0.0500
 41
0.0500
 70
0
  0
VERTEX
  8
0
 10
0.4750
 20
0.2379
 30
0.0000
 42
1.0000
  0
VERTEX
  8
0
 10
0.4250
 20
0.2379
 30
0.0000
  0
SEQEND
  8
0
  0
POLYLINE
  8
0
 66
1
 10
0.0000
 20
0.0000
 30
0.0000
 40
0.1000
 41
0.1000
 70
0
  0
VERTEX
  8
0
 10
0.2379
 20
-0.4500
 30
0.0000
  0
VERTEX
  8
0
 10
-0.2379
 20
-0.4500
 30
0.0000
  0
SEQEND
  8
0
  0
POLYLINE
  8
0
 66
1
 10
0.0000
 20
0.0000
 30
0.0000
 40
0.0500
 41
0.0500
 70
0
  0
VERTEX
  8
0
 10
-0.2379
 20
-0.4250
 30
0.0000
 42
1.0000
  0
VERTEX
  8
0
 10
-0.2379
 20
-0.4750
 30
0.0000
  0
SEQEND
  8
0
  0
POLYLINE
  8
0
 66
1
 10
0.0000
 20
0.0000
 30
0.0000
 40
0.0500
 41
0.0500
 70
0
  0
VERTEX
  8
0
 10
0.2379
 20
-0.4750
 30
0.0000
 42
1.0000
  0
VERTEX
  8
0
 10
0.2379
 20
-0.4250
 30
0.0000
  0
SEQEND
  8
0
  0
POLYLINE
  8
0
 66
1
 10
0.0000
 20
0.0000
 30
0.0000
 40
0.1000
 41
0.1000
 70
0
  0
VERTEX
  8
0
 10
-0.4500
 20
-0.2379
 30
0.0000
  0
VERTEX
  8
0
 10
-0.4500
 20
0.2379
 30
0.0000
  0
SEQEND
  8
0
  0
POLYLINE
  8
0
 66
1
 10
0.0000
 20
0.0000
 30
0.0000
 40
0.0500
 41
0.0500
 70
0
  0
VERTEX
  8
0
 10
-0.4250
 20
0.2379
 30
0.0000
 42
1.0000
  0
VERTEX
  8
0
 10
-0.4750
 20
0.2379
 30
0.0000
  0
SEQEND
  8
0
  0
POLYLINE
  8
0
 66
1
 10
0.0000
 20
0.0000
 30
0.0000
 40
0.0500
 41
0.0500
 70
0
  0
VERTEX
  8
0
 10
-0.4750
 20
-0.2379
 30
0.0000
 42
1.0000
  0
VERTEX
  8
0
 10
-0.4250
 20
-0.2379
 30
0.0000
  0
SEQEND
  8
0
  0
ENDBLK
  8
0
  0
BLOCK
  8
0
  2
OCTAGONV
 70
64
 10
0.0000
 20
0.0000
 30
0.0000
  3
OCTAGONV
  0
POLYLINE
  8
0
 66
1
 10
0.0000
 20
0.0000
 30
0.0000
 40
0.5000
 41
0.5000
 70
0
  0
VERTEX
  8
0
 10
-0.2500
 20
-0.1036
 30
0.0000
  0
VERTEX
  8
0
 10
-0.2500
 20
0.1036
 30
0.0000
  0
VERTEX
  8
0
 10
-0.1036
 20
0.2500
 30
0.0000
  0
VERTEX
  8
0
 10
0.1036
 20
0.2500
 30
0.0000
  0
VERTEX
  8
0
 10
0.2500
 20
0.1036
 30
0.0000
  0
VERTEX
  8
0
 10
0.2500
 20
-0.1036
 30
0.0000
  0
VERTEX
  8
0
 10
0.1036
 20
-0.2500
 30
0.0000
  0
VERTEX
  8
0
 10
-0.1036
 20
-0.2500
 30
0.0000
  0
VERTEX
  8
0
 10
-0.2500
 20
-0.1036
 30
0.0000
  0
VERTEX
  8
0
 10
-0.2500
 20
0.1036
 30
0.0000
  0
SEQEND
  8
0
  0
ENDBLK
  8
0
  0
BLOCK
  8
0
  2
SQUAREV
 70
64
 10
0.0000
 20
0.0000
 30
0.0000
  3
SQUAREV
  0
SOLID
  8
0
 10
-0.5000
 20
-0.5000
 30
0.0000
 11
0.5000
 21
-0.5000
 31
0.0000
 12
-0.5000
 22
0.5000
 32
0.0000
 13
0.5000
 23
0.5000
 33
0.0000
  0
ENDBLK
  8
0
  0
BLOCK
  8
0
  2
ROUNDV
 70
64
 10
0.0000
 20
0.0000
 30
0.0000
  3
ROUNDV
  0
POLYLINE
  8
0
 66
1
 10
0.0000
 20
0.0000
 30
0.0000
 40
0.5000
 41
0.5000
 70
0
  0
VERTEX
  8
0
 10
0.0000
 20
-0.2500
 30
0.0000
 42
1.0000
  0
VERTEX
  8
0
 10
0.0000
 20
0.2500
 30
0.0000
 42
1.0000
  0
VERTEX
  8
0
 10
0.0000
 20
-0.2500
 30
0.0000
  0
SEQEND
  8
0
  0
ENDBLK
  8
0
  0
BLOCK
  8
0
  2
ANNULUSV
 70
64
 10
0.0000
 20
0.0000
 30
0.0000
  3
ANNULUSV
  0
POLYLINE
  8
0
 66
1
 10
0.0000
 20
0.0000
 30
0.0000
 40
0.5000
 41
0.5000
 70
0
  0
VERTEX
  8
0
 10
0.0000
 20
-0.2500
 30
0.0000
 42
1.0000
  0
VERTEX
  8
0
 10
0.0000
 20
0.2500
 30
0.0000
 42
1.0000
  0
VERTEX
  8
0
 10
0.0000
 20
-0.2500
 30
0.0000
  0
SEQEND
  8
0
  0
ENDBLK
  8
0
  0
BLOCK
  8
0
  2
THERMALV
 70
64
 10
0.0000
 20
0.0000
 30
0.0000
  3
THERMALV
  0
POLYLINE
  8
0
 66
1
 10
0.0000
 20
0.0000
 30
0.0000
 40
0.1000
 41
0.1000
 70
0
  0
VERTEX
  8
0
 10
-0.2379
 20
0.4500
 30
0.0000
  0
VERTEX
  8
0
 10
0.2379
 20
0.4500
 30
0.0000
  0
SEQEND
  8
0
  0
POLYLINE
  8
0
 66
1
 10
0.0000
 20
0.0000
 30
0.0000
 40
0.0500
 41
0.0500
 70
0
  0
VERTEX
  8
0
 10
0.2379
 20
0.4250
 30
0.0000
 42
1.0000
  0
VERTEX
  8
0
 10
0.2379
 20
0.4750
 30
0.0000
  0
SEQEND
  8
0
  0
POLYLINE
  8
0
 66
1
 10
0.0000
 20
0.0000
 30
0.0000
 40
0.0500
 41
0.0500
 70
0
  0
VERTEX
  8
0
 10
-0.2379
 20
0.4750
 30
0.0000
 42
1.0000
  0
VERTEX
  8
0
 10
-0.2379
 20
0.4250
 30
0.0000
  0
SEQEND
  8
0
  0
POLYLINE
  8
0
 66
1
 10
0.0000
 20
0.0000
 30
0.0000
 40
0.1000
 41
0.1000
 70
0
  0
VERTEX
  8
0
 10
0.4500
 20
0.2379
 30
0.0000
  0
VERTEX
  8
0
 10
0.4500
 20
-0.2379
 30
0.0000
  0
SEQEND
  8
0
  0
POLYLINE
  8
0
 66
1
 10
0.0000
 20
0.0000
 30
0.0000
 40
0.0500
 41
0.0500
 70
0
  0
VERTEX
  8
0
 10
0.4250
 20
-0.2379
 30
0.0000
 42
1.0000
  0
VERTEX
  8
0
 10
0.4750
 20
-0.2379
 30
0.0000
  0
SEQEND
  8
0
  0
POLYLINE
  8
0
 66
1
 10
0.0000
 20
0.0000
 30
0.0000
 40
0.0500
 41
0.0500
 70
0
  0
VERTEX
  8
0
 10
0.4750
 20
0.2379
 30
0.0000
 42
1.0000
  0
VERTEX
  8
0
 10
0.4250
 20
0.2379
 30
0.0000
  0
SEQEND
  8
0
  0
POLYLINE
  8
0
 66
1
 10
0.0000
 20
0.0000
 30
0.0000
 40
0.1000
 41
0.1000
 70
0
  0
VERTEX
  8
0
 10
0.2379
 20
-0.4500
 30
0.0000
  0
VERTEX
  8
0
 10
-0.2379
 20
-0.4500
 30
0.0000
  0
SEQEND
  8
0
  0
POLYLINE
  8
0
 66
1
 10
0.0000
 20
0.0000
 30
0.0000
 40
0.0500
 41
0.0500
 70
0
  0
VERTEX
  8
0
 10
-0.2379
 20
-0.4250
 30
0.0000
 42
1.0000
  0
VERTEX
  8
0
 10
-0.2379
 20
-0.4750
 30
0.0000
  0
SEQEND
  8
0
  0
POLYLINE
  8
0
 66
1
 10
0.0000
 20
0.0000
 30
0.0000
 40
0.0500
 41
0.0500
 70
0
  0
VERTEX
  8
0
 10
0.2379
 20
-0.4750
 30
0.0000
 42
1.0000
  0
VERTEX
  8
0
 10
0.2379
 20
-0.4250
 30
0.0000
  0
SEQEND
  8
0
  0
POLYLINE
  8
0
 66
1
 10
0.0000
 20
0.0000
 30
0.0000
 40
0.1000
 41
0.1000
 70
0
  0
VERTEX
  8
0
 10
-0.4500
 20
-0.2379
 30
0.0000
  0
VERTEX
  8
0
 10
-0.4500
 20
0.2379
 30
0.0000
  0
SEQEND
  8
0
  0
POLYLINE
  8
0
 66
1
 10
0.0000
 20
0.0000
 30
0.0000
 40
0.0500
 41
0.0500
 70
0
  0
VERTEX
  8
0
 10
-0.4250
 20
0.2379
 30
0.0000
 42
1.0000
  0
VERTEX
  8
0
 10
-0.4750
 20
0.2379
 30
0.0000
  0
SEQEND
  8
0
  0
POLYLINE
  8
0
 66
1
 10
0.0000
 20
0.0000
 30
0.0000
 40
0.0500
 41
0.0500
 70
0
  0
VERTEX
  8
0
 10
-0.4750
 20
-0.2379
 30
0.0000
 42
1.0000
  0
VERTEX
  8
0
 10
-0.4250
 20
-0.2379
 30
0.0000
  0
SEQEND
  8
0
  0
ENDBLK
  8
0
  0
ENDSEC
  0
SECTION
  2
ENTITIES
  0
POINT
  8
23
 10
0.0000
 20
0.0000
 30
0.0000
  0
POLYLINE
  8
20
 66
1
 10
0.0000
 20
0.0000
 30
0.0000
 40
0.2540
 41
0.2540
 70
0
  0
VERTEX
  8
20
 10
66.0400
 20
53.3400
 30
0.0000
  0
VERTEX
  8
20
 10
68.5800
 20
50.8000
 30
0.0000
  0
SEQEND
  8
0
  0
POLYLINE
  8
20
 66
1
 10
0.0000
 20
0.0000
 30
0.0000
 40
0.1270
 41
0.1270
 70
0
  0
VERTEX
  8
20
 10
68.5351
 20
50.7551
 30
0.0000
 42
1.0000
  0
VERTEX
  8
20
 10
68.6249
 20
50.8449
 30
0.0000
  0
SEQEND
  8
0
  0
POLYLINE
  8
20
 66
1
 10
0.0000
 20
0.0000
 30
0.0000
 40
0.1270
 41
0.1270
 70
0
  0
VERTEX
  8
20
 10
66.0849
 20
53.3849
 30
0.0000
 42
1.0000
  0
VERTEX
  8
20
 10
65.9951
 20
53.2951
 30
0.0000
  0
SEQEND
  8
0
  0
POLYLINE
  8
20
 66
1
 10
0.0000
 20
0.0000
 30
0.0000
 40
0.2540
 41
0.2540
 70
0
  0
VERTEX
  8
20
 10
68.5800
 20
50.8000
 30
0.0000
  0
VERTEX
  8
20
 10
68.5800
 20
5.0800
 30
0.0000
  0
SEQEND
  8
0
  0
POLYLINE
  8
20
 66
1
 10
0.0000
 20
0.0000
 30
0.0000
 40
0.1270
 41
0.1270
 70
0
  0
VERTEX
  8
20
 10
68.5165
 20
5.0800
 30
0.0000
 42
1.0000
  0
VERTEX
  8
20
 10
68.6435
 20
5.0800
 30
0.0000
  0
SEQEND
  8
0
  0
POLYLINE
  8
20
 66
1
 10
0.0000
 20
0.0000
 30
0.0000
 40
0.1270
 41
0.1270
 70
0
  0
VERTEX
  8
20
 10
68.6435
 20
50.8000
 30
0.0000
 42
1.0000
  0
VERTEX
  8
20
 10
68.5165
 20
50.8000
 30
0.0000
  0
SEQEND
  8
0
  0
POLYLINE
  8
20
 66
1
 10
0.0000
 20
0.0000
 30
0.0000
 40
0.2540
 41
0.2540
 70
0
  0
VERTEX
  8
20
 10
68.5800
 20
5.0800
 30
0.0000
  0
VERTEX
  8
20
 10
66.0400
 20
2.5400
 30
0.0000
  0
SEQEND
  8
0
  0
POLYLINE
  8
20
 66
1
 10
0.0000
 20
0.0000
 30
0.0000
 40
0.1270
 41
0.1270
 70
0
  0
VERTEX
  8
20
 10
65.9951
 20
2.5849
 30
0.0000
 42
1.0000
  0
VERTEX
  8
20
 10
66.0849
 20
2.4951
 30
0.0000
  0
SEQEND
  8
0
  0
POLYLINE
  8
20
 66
1
 10
0.0000
 20
0.0000
 30
0.0000
 40
0.1270
 41
0.1270
 70
0
  0
VERTEX
  8
20
 10
68.6249
 20
5.0351
 30
0.0000
 42
1.0000
  0
VERTEX
  8
20
 10
68.5351
 20
5.1249
 30
0.0000
  0
SEQEND
  8
0
  0
POLYLINE
  8
20
 66
1
 10
0.0000
 20
0.0000
 30
0.0000
 40
0.2540
 41
0.2540
 70
0
  0
VERTEX
  8
20
 10
66.0400
 20
2.5400
 30
0.0000
  0
VERTEX
  8
20
 10
66.0400
 20
1.0000
 30
0.0000
  0
SEQEND
  8
0
  0
POLYLINE
  8
20
 66
1
 10
0.0000
 20
0.0000
 30
0.0000
 40
0.1270
 41
0.1270
 70
0
  0
VERTEX
  8
20
 10
65.9765
 20
1.0000
 30
0.0000
 42
1.0000
  0
VERTEX
  8
20
 10
66.1035
 20
1.0000
 30
0.0000
  0
SEQEND
  8
0
  0
POLYLINE
  8
20
 66
1
 10
0.0000
 20
0.0000
 30
0.0000
 40
0.1270
 41
0.1270
 70
0
  0
VERTEX
  8
20
 10
66.1035
 20
2.5400
 30
0.0000
 42
1.0000
  0
VERTEX
  8
20
 10
65.9765
 20
2.5400
 30
0.0000
  0
SEQEND
  8
0
  0
POLYLINE
  8
20
 66
1
 10
0.0000
 20
0.0000
 30
0.0000
 40
0.2540
 41
0.2540
 70
0
  0
VERTEX
  8
20
 10
65.0400
 20
0.0000
 30
0.0000
 42
0.4142
  0
VERTEX
  8
20
 10
66.0400
 20
1.0000
 30
0.0000
  0
SEQEND
  8
0
  0
POLYLINE
  8
20
 66
1
 10
0.0000
 20
0.0000
 30
0.0000
 40
0.1270
 41
0.1270
 70
0
  0
VERTEX
  8
20
 10
65.0400
 20
0.0635
 30
0.0000
 42
1.0000
  0
VERTEX
  8
20
 10
65.0400
 20
-0.0635
 30
0.0000
  0
SEQEND
  8
0
  0
POLYLINE
  8
20
 66
1
 10
0.0000
 20
0.0000
 30
0.0000
 40
0.1270
 41
0.1270
 70
0
  0
VERTEX
  8
20
 10
66.1035
 20
1.0000
 30
0.0000
 42
1.0000
  0
VERTEX
  8
20
 10
65.9765
 20
1.0000
 30
0.0000
  0
SEQEND
  8
0
  0
POLYLINE
  8
20
 66
1
 10
0.0000
 20
0.0000
 30
0.0000
 40
0.2540
 41
0.2540
 70
0
  0
VERTEX
  8
20
 10
65.0400
 20
0.0000
 30
0.0000
  0
VERTEX
  8
20
 10
7.4930
 20
0.0000
 30
0.0000
  0
SEQEND
  8
0
  0
POLYLINE
  8
20
 66
1
 10
0.0000
 20
0.0000
 30
0.0000
 40
0.1270
 41
0.1270
 70
0
  0
VERTEX
  8
20
 10
7.4930
 20
0.0635
 30
0.0000
 42
1.0000
  0
VERTEX
  8
20
 10
7.4930
 20
-0.0635
 30
0.0000
  0
SEQEND
  8
0
  0
POLYLINE
  8
20
 66
1
 10
0.0000
 20
0.0000
 30
0.0000
 40
0.1270
 41
0.1270
 70
0
  0
VERTEX
  8
20
 10
65.0400
 20
-0.0635
 30
0.0000
 42
1.0000
  0
VERTEX
  8
20
 10
65.0400
 20
0.0635
 30
0.0000
  0
SEQEND
  8
0
  0
POLYLINE
  8
20
 66
1
 10
0.0000
 20
0.0000
 30
0.0000
 40
0.2540
 41
0.2540
 70
0
  0
VERTEX
  8
20
 10
2.6670
 20
0.0000
 30
0.0000
  0
VERTEX
  8
20
 10
1.0000
 20
0.0000
 30
0.0000
  0
SEQEND
  8
0
  0
POLYLINE
  8
20
 66
1
 10
0.0000
 20
0.0000
 30
0.0000
 40
0.1270
 41
0.1270
 70
0
  0
VERTEX
  8
20
 10
1.0000
 20
0.0635
 30
0.0000
 42
1.0000
  0
VERTEX
  8
20
 10
1.0000
 20
-0.0635
 30
0.0000
  0
SEQEND
  8
0
  0
POLYLINE
  8
20
 66
1
 10
0.0000
 20
0.0000
 30
0.0000
 40
0.1270
 41
0.1270
 70
0
  0
VERTEX
  8
20
 10
2.6670
 20
-0.0635
 30
0.0000
 42
1.0000
  0
VERTEX
  8
20
 10
2.6670
 20
0.0635
 30
0.0000
  0
SEQEND
  8
0
  0
POLYLINE
  8
20
 66
1
 10
0.0000
 20
0.0000
 30
0.0000
 40
0.2540
 41
0.2540
 70
0
  0
VERTEX
  8
20
 10
0.0000
 20
1.0000
 30
0.0000
 42
0.4142
  0
VERTEX
  8
20
 10
1.0000
 20
0.0000
 30
0.0000
  0
SEQEND
  8
0
  0
POLYLINE
  8
20
 66
1
 10
0.0000
 20
0.0000
 30
0.0000
 40
0.1270
 41
0.1270
 70
0
  0
VERTEX
  8
20
 10
0.0635
 20
1.0000
 30
0.0000
 42
1.0000
  0
VERTEX
  8
20
 10
-0.0635
 20
1.0000
 30
0.0000
  0
SEQEND
  8
0
  0
POLYLINE
  8
20
 66
1
 10
0.0000
 20
0.0000
 30
0.0000
 40
0.1270
 41
0.1270
 70
0
  0
VERTEX
  8
20
 10
1.0000
 20
-0.0635
 30
0.0000
 42
1.0000
  0
VERTEX
  8
20
 10
1.0000
 20
0.0635
 30
0.0000
  0
SEQEND
  8
0
  0
POLYLINE
  8
20
 66
1
 10
0.0000
 20
0.0000
 30
0.0000
 40
0.2540
 41
0.2540
 70
0
  0
VERTEX
  8
20
 10
0.0000
 20
1.0000
 30
0.0000
  0
VERTEX
  8
20
 10
0.0000
 20
52.3400
 30
0.0000
  0
SEQEND
  8
0
  0
POLYLINE
  8
20
 66
1
 10
0.0000
 20
0.0000
 30
0.0000
 40
0.1270
 41
0.1270
 70
0
  0
VERTEX
  8
20
 10
0.0635
 20
52.3400
 30
0.0000
 42
1.0000
  0
VERTEX
  8
20
 10
-0.0635
 20
52.3400
 30
0.0000
  0
SEQEND
  8
0
  0
POLYLINE
  8
20
 66
1
 10
0.0000
 20
0.0000
 30
0.0000
 40
0.1270
 41
0.1270
 70
0
  0
VERTEX
  8
20
 10
-0.0635
 20
1.0000
 30
0.0000
 42
1.0000
  0
VERTEX
  8
20
 10
0.0635
 20
1.0000
 30
0.0000
  0
SEQEND
  8
0
  0
POLYLINE
  8
20
 66
1
 10
0.0000
 20
0.0000
 30
0.0000
 40
0.2540
 41
0.2540
 70
0
  0
VERTEX
  8
20
 10
1.0000
 20
53.3400
 30
0.0000
 42
0.4142
  0
VERTEX
  8
20
 10
0.0000
 20
52.3400
 30
0.0000
  0
SEQEND
  8
0
  0
POLYLINE
  8
20
 66
1
 10
0.0000
 20
0.0000
 30
0.0000
 40
0.1270
 41
0.1270
 70
0
  0
VERTEX
  8
20
 10
1.0000
 20
53.2765
 30
0.0000
 42
1.0000
  0
VERTEX
  8
20
 10
1.0000
 20
53.4035
 30
0.0000
  0
SEQEND
  8
0
  0
POLYLINE
  8
20
 66
1
 10
0.0000
 20
0.0000
 30
0.0000
 40
0.1270
 41
0.1270
 70
0
  0
VERTEX
  8
20
 10
-0.0635
 20
52.3400
 30
0.0000
 42
1.0000
  0
VERTEX
  8
20
 10
0.0635
 20
52.3400
 30
0.0000
  0
SEQEND
  8
0
  0
POLYLINE
  8
20
 66
1
 10
0.0000
 20
0.0000
 30
0.0000
 40
0.2540
 41
0.2540
 70
0
  0
VERTEX
  8
20
 10
1.0000
 20
53.3400
 30
0.0000
  0
VERTEX
  8
20
 10
66.0400
 20
53.3400
 30
0.0000
  0
SEQEND
  8
0
  0
POLYLINE
  8
20
 66
1
 10
0.0000
 20
0.0000
 30
0.0000
 40
0.1270
 41
0.1270
 70
0
  0
VERTEX
  8
20
 10
66.0400
 20
53.2765
 30
0.0000
 42
1.0000
  0
VERTEX
  8
20
 10
66.0400
 20
53.4035
 30
0.0000
  0
SEQEND
  8
0
  0
POLYLINE
  8
20
 66
1
 10
0.0000
 20
0.0000
 30
0.0000
 40
0.1270
 41
0.1270
 70
0
  0
VERTEX
  8
20
 10
1.0000
 20
53.4035
 30
0.0000
 42
1.0000
  0
VERTEX
  8
20
 10
1.0000
 20
53.2765
 30
0.0000
  0
SEQEND
  8
0
  0
POLYLINE
  8
20
 66
1
 10
0.0000
 20
0.0000
 30
0.0000
 40
0.2540
 41
0.2540
 70
0
  0
VERTEX
  8
20
 10
67.9631
 20
4.4631
 30
0.0000
  0
VERTEX
  8
20
 10
66.9109
 20
3.4109
 30
0.0000
  0
SEQEND
  8
0
  0
POLYLINE
  8
20
 66
1
 10
0.0000
 20
0.0000
 30
0.0000
 40
0.1270
 41
0.1270
 70
0
  0
VERTEX
  8
20
 10
66.8660
 20
3.4558
 30
0.0000
 42
1.0000
  0
VERTEX
  8
20
 10
66.9558
 20
3.3660
 30
0.0000
  0
SEQEND
  8
0
  0
POLYLINE
  8
20
 66
1
 10
0.0000
 20
0.0000
 30
0.0000
 40
0.1270
 41
0.1270
 70
0
  0
VERTEX
  8
20
 10
68.0080
 20
4.4182
 30
0.0000
 42
1.0000
  0
VERTEX
  8
20
 10
67.9182
 20
4.5080
 30
0.0000
  0
SEQEND
  8
0
  0
POLYLINE
  8
21
 66
1
 10
0.0000
 20
0.0000
 30
0.0000
 40
0.2540
 41
0.2540
 70
0
  0
VERTEX
  8
21
 10
26.6700
 20
3.8100
 30
0.0000
  0
VERTEX
  8
21
 10
29.2100
 20
3.8100
 30
0.0000
  0
SEQEND
  8
0
  0
POLYLINE
  8
21
 66
1
 10
0.0000
 20
0.0000
 30
0.0000
 40
0.1270
 41
0.1270
 70
0
  0
VERTEX
  8
21
 10
29.2100
 20
3.7465
 30
0.0000
 42
1.0000
  0
VERTEX
  8
21
 10
29.2100
 20
3.8735
 30
0.0000
  0
SEQEND
  8
0
  0
POLYLINE
  8
21
 66
1
 10
0.0000
 20
0.0000
 30
0.0000
 40
0.1270
 41
0.1270
 70
0
  0
VERTEX
  8
21
 10
26.6700
 20
3.8735
 30
0.0000
 42
1.0000
  0
VERTEX
  8
21
 10
26.6700
 20
3.7465
 30
0.0000
  0
SEQEND
  8
0
  0
POLYLINE
  8
21
 66
1
 10
0.0000
 20
0.0000
 30
0.0000
 40
0.2540
 41
0.2540
 70
0
  0
VERTEX
  8
21
 10
29.2100
 20
3.8100
 30
0.0000
  0
VERTEX
  8
21
 10
46.9900
 20
3.8100
 30
0.0000
  0
SEQEND
  8
0
  0
POLYLINE
  8
21
 66
1
 10
0.0000
 20
0.0000
 30
0.0000
 40
0.1270
 41
0.1270
 70
0
  0
VERTEX
  8
21
 10
46.9900
 20
3.7465
 30
0.0000
 42
1.0000
  0
VERTEX
  8
21
 10
46.9900
 20
3.8735
 30
0.0000
  0
SEQEND
  8
0
  0
POLYLINE
  8
21
 66
1
 10
0.0000
 20
0.0000
 30
0.0000
 40
0.1270
 41
0.1270
 70
0
  0
VERTEX
  8
21
 10
29.2100
 20
3.8735
 30
0.0000
 42
1.0000
  0
VERTEX
  8
21
 10
29.2100
 20
3.7465
 30
0.0000
  0
SEQEND
  8
0
  0
POLYLINE
  8
21
 66
1
 10
0.0000
 20
0.0000
 30
0.0000
 40
0.2540
 41
0.2540
 70
0
  0
VERTEX
  8
21
 10
46.9900
 20
3.8100
 30
0.0000
  0
VERTEX
  8
21
 10
46.9900
 20
1.2700
 30
0.0000
  0
SEQEND
  8
0
  0
POLYLINE
  8
21
 66
1
 10
0.0000
 20
0.0000
 30
0.0000
 40
0.1270
 41
0.1270
 70
0
  0
VERTEX
  8
21
 10
46.9265
 20
1.2700
 30
0.0000
 42
1.0000
  0
VERTEX
  8
21
 10
47.0535
 20
1.2700
 30
0.0000
  0
SEQEND
  8
0
  0
POLYLINE
  8
21
 66
1
 10
0.0000
 20
0.0000
 30
0.0000
 40
0.1270
 41
0.1270
 70
0
  0
VERTEX
  8
21
 10
47.0535
 20
3.8100
 30
0.0000
 42
1.0000
  0
VERTEX
  8
21
 10
46.9265
 20
3.8100
 30
0.0000
  0
SEQEND
  8
0
  0
POLYLINE
  8
21
 66
1
 10
0.0000
 20
0.0000
 30
0.0000
 40
0.2540
 41
0.2540
 70
0
  0
VERTEX
  8
21
 10
46.9900
 20
1.2700
 30
0.0000
  0
VERTEX
  8
21
 10
29.2100
 20
1.2700
 30
0.0000
  0
SEQEND
  8
0
  0
POLYLINE
  8
21
 66
1
 10
0.0000
 20
0.0000
 30
0.0000
 40
0.1270
 41
0.1270
 70
0
  0
VERTEX
  8
21
 10
29.2100
 20
1.3335
 30
0.0000
 42
1.0000
  0
VERTEX
  8
21
 10
29.2100
 20
1.2065
 30
0.0000
  0
SEQEND
  8
0
  0
POLYLINE
  8
21
 66
1
 10
0.0000
 20
0.0000
 30
0.0000
 40
0.1270
 41
0.1270
 70
0
  0
VERTEX
  8
21
 10
46.9900
 20
1.2065
 30
0.0000
 42
1.0000
  0
VERTEX
  8
21
 10
46.9900
 20
1.3335
 30
0.0000
  0
SEQEND
  8
0
  0
POLYLINE
  8
21
 66
1
 10
0.0000
 20
0.0000
 30
0.0000
 40
0.2540
 41
0.2540
 70
0
  0
VERTEX
  8
21
 10
29.2100
 20
3.8100
 30
0.0000
  0
VERTEX
  8
21
 10
29.2100
 20
1.2700
 30
0.0000
  0
SEQEND
  8
0
  0
POLYLINE
  8
21
 66
1
 10
0.0000
 20
0.0000
 30
0.0000
 40
0.1270
 41
0.1270
 70
0
  0
VERTEX
  8
21
 10
29.1465
 20
1.2700
 30
0.0000
 42
1.0000
  0
VERTEX
  8
21
 10
29.2735
 20
1.2700
 30
0.0000
  0
SEQEND
  8
0
  0
POLYLINE
  8
21
 66
1
 10
0.0000
 20
0.0000
 30
0.0000
 40
0.1270
 41
0.1270
 70
0
  0
VERTEX
  8
21
 10
29.2735
 20
3.8100
 30
0.0000
 42
1.0000
  0
VERTEX
  8
21
 10
29.1465
 20
3.8100
 30
0.0000
  0
SEQEND
  8
0
  0
POLYLINE
  8
21
 66
1
 10
0.0000
 20
0.0000
 30
0.0000
 40
0.2540
 41
0.2540
 70
0
  0
VERTEX
  8
21
 10
29.2100
 20
1.2700
 30
0.0000
  0
VERTEX
  8
21
 10
26.6700
 20
1.2700
 30
0.0000
  0
SEQEND
  8
0
  0
POLYLINE
  8
21
 66
1
 10
0.0000
 20
0.0000
 30
0.0000
 40
0.1270
 41
0.1270
 70
0
  0
VERTEX
  8
21
 10
26.6700
 20
1.3335
 30
0.0000
 42
1.0000
  0
VERTEX
  8
21
 10
26.6700
 20
1.2065
 30
0.0000
  0
SEQEND
  8
0
  0
POLYLINE
  8
21
 66
1
 10
0.0000
 20
0.0000
 30
0.0000
 40
0.1270
 41
0.1270
 70
0
  0
VERTEX
  8
21
 10
29.2100
 20
1.2065
 30
0.0000
 42
1.0000
  0
VERTEX
  8
21
 10
29.2100
 20
1.3335
 30
0.0000
  0
SEQEND
  8
0
  0
POLYLINE
  8
21
 66
1
 10
0.0000
 20
0.0000
 30
0.0000
 40
0.2540
 41
0.2540
 70
0
  0
VERTEX
  8
21
 10
26.6700
 20
1.2700
 30
0.0000
  0
VERTEX
  8
21
 10
26.6700
 20
3.8100
 30
0.0000
  0
SEQEND
  8
0
  0
POLYLINE
  8
21
 66
1
 10
0.0000
 20
0.0000
 30
0.0000
 40
0.1270
 41
0.1270
 70
0
  0
VERTEX
  8
21
 10
26.7335
 20
3.8100
 30
0.0000
 42
1.0000
  0
VERTEX
  8
21
 10
26.6065
 20
3.8100
 30
0.0000
  0
SEQEND
  8
0
  0
POLYLINE
  8
21
 66
1
 10
0.0000
 20
0.0000
 30
0.0000
 40
0.1270
 41
0.1270
 70
0
  0
VERTEX
  8
21
 10
26.6065
 20
1.2700
 30
0.0000
 42
1.0000
  0
VERTEX
  8
21
 10
26.7335
 20
1.2700
 30
0.0000
  0
SEQEND
  8
0
  0
POLYLINE
  8
21
 66
1
 10
0.0000
 20
0.0000
 30
0.0000
 40
0.2540
 41
0.2540
 70
0
  0
VERTEX
  8
21
 10
49.5300
 20
3.8100
 30
0.0000
  0
VERTEX
  8
21
 10
52.0700
 20
3.8100
 30
0.0000
  0
SEQEND
  8
0
  0
POLYLINE
  8
21
 66
1
 10
0.0000
 20
0.0000
 30
0.0000
 40
0.1270
 41
0.1270
 70
0
  0
VERTEX
  8
21
 10
52.0700
 20
3.7465
 30
0.0000
 42
1.0000
  0
VERTEX
  8
21
 10
52.0700
 20
3.8735
 30
0.0000
  0
SEQEND
  8
0
  0
POLYLINE
  8
21
 66
1
 10
0.0000
 20
0.0000
 30
0.0000
 40
0.1270
 41
0.1270
 70
0
  0
VERTEX
  8
21
 10
49.5300
 20
3.8735
 30
0.0000
 42
1.0000
  0
VERTEX
  8
21
 10
49.5300
 20
3.7465
 30
0.0000
  0
SEQEND
  8
0
  0
POLYLINE
  8
21
 66
1
 10
0.0000
 20
0.0000
 30
0.0000
 40
0.2540
 41
0.2540
 70
0
  0
VERTEX
  8
21
 10
52.0700
 20
3.8100
 30
0.0000
  0
VERTEX
  8
21
 10
64.7700
 20
3.8100
 30
0.0000
  0
SEQEND
  8
0
  0
POLYLINE
  8
21
 66
1
 10
0.0000
 20
0.0000
 30
0.0000
 40
0.1270
 41
0.1270
 70
0
  0
VERTEX
  8
21
 10
64.7700
 20
3.7465
 30
0.0000
 42
1.0000
  0
VERTEX
  8
21
 10
64.7700
 20
3.8735
 30
0.0000
  0
SEQEND
  8
0
  0
POLYLINE
  8
21
 66
1
 10
0.0000
 20
0.0000
 30
0.0000
 40
0.1270
 41
0.1270
 70
0
  0
VERTEX
  8
21
 10
52.0700
 20
3.8735
 30
0.0000
 42
1.0000
  0
VERTEX
  8
21
 10
52.0700
 20
3.7465
 30
0.0000
  0
SEQEND
  8
0
  0
POLYLINE
  8
21
 66
1
 10
0.0000
 20
0.0000
 30
0.0000
 40
0.2540
 41
0.2540
 70
0
  0
VERTEX
  8
21
 10
64.7700
 20
3.8100
 30
0.0000
  0
VERTEX
  8
21
 10
64.7700
 20
1.2700
 30
0.0000
  0
SEQEND
  8
0
  0
POLYLINE
  8
21
 66
1
 10
0.0000
 20
0.0000
 30
0.0000
 40
0.1270
 41
0.1270
 70
0
  0
VERTEX
  8
21
 10
64.7065
 20
1.2700
 30
0.0000
 42
1.0000
  0
VERTEX
  8
21
 10
64.8335
 20
1.2700
 30
0.0000
  0
SEQEND
  8
0
  0
POLYLINE
  8
21
 66
1
 10
0.0000
 20
0.0000
 30
0.0000
 40
0.1270
 41
0.1270
 70
0
  0
VERTEX
  8
21
 10
64.8335
 20
3.8100
 30
0.0000
 42
1.0000
  0
VERTEX
  8
21
 10
64.7065
 20
3.8100
 30
0.0000
  0
SEQEND
  8
0
  0
POLYLINE
  8
21
 66
1
 10
0.0000
 20
0.0000
 30
0.0000
 40
0.2540
 41
0.2540
 70
0
  0
VERTEX
  8
21
 10
64.7700
 20
1.2700
 30
0.0000
  0
VERTEX
  8
21
 10
52.0700
 20
1.2700
 30
0.0000
  0
SEQEND
  8
0
  0
POLYLINE
  8
21
 66
1
 10
0.0000
 20
0.0000
 30
0.0000
 40
0.1270
 41
0.1270
 70
0
  0
VERTEX
  8
21
 10
52.0700
 20
1.3335
 30
0.0000
 42
1.0000
  0
VERTEX
  8
21
 10
52.0700
 20
1.2065
 30
0.0000
  0
SEQEND
  8
0
  0
POLYLINE
  8
21
 66
1
 10
0.0000
 20
0.0000
 30
0.0000
 40
0.1270
 41
0.1270
 70
0
  0
VERTEX
  8
21
 10
64.7700
 20
1.2065
 30
0.0000
 42
1.0000
  0
VERTEX
  8
21
 10
64.7700
 20
1.3335
 30
0.0000
  0
SEQEND
  8
0
  0
POLYLINE
  8
21
 66
1
 10
0.0000
 20
0.0000
 30
0.0000
 40
0.2540
 41
0.2540
 70
0
  0
VERTEX
  8
21
 10
49.5300
 20
1.2700
 30
0.0000
  0
VERTEX
  8
21
 10
49.5300
 20
3.8100
 30
0.0000
  0
SEQEND
  8
0
  0
POLYLINE
  8
21
 66
1
 10
0.0000
 20
0.0000
 30
0.0000
 40
0.1270
 41
0.1270
 70
0
  0
VERTEX
  8
21
 10
49.5935
 20
3.8100
 30
0.0000
 42
1.0000
  0
VERTEX
  8
21
 10
49.4665
 20
3.8100
 30
0.0000
  0
SEQEND
  8
0
  0
POLYLINE
  8
21
 66
1
 10
0.0000
 20
0.0000
 30
0.0000
 40
0.1270
 41
0.1270
 70
0
  0
VERTEX
  8
21
 10
49.4665
 20
1.2700
 30
0.0000
 42
1.0000
  0
VERTEX
  8
21
 10
49.5935
 20
1.2700
 30
0.0000
  0
SEQEND
  8
0
  0
POLYLINE
  8
21
 66
1
 10
0.0000
 20
0.0000
 30
0.0000
 40
0.2540
 41
0.2540
 70
0
  0
VERTEX
  8
21
 10
52.0700
 20
3.8100
 30
0.0000
  0
VERTEX
  8
21
 10
52.0700
 20
1.2700
 30
0.0000
  0
SEQEND
  8
0
  0
POLYLINE
  8
21
 66
1
 10
0.0000
 20
0.0000
 30
0.0000
 40
0.1270
 41
0.1270
 70
0
  0
VERTEX
  8
21
 10
52.0065
 20
1.2700
 30
0.0000
 42
1.0000
  0
VERTEX
  8
21
 10
52.1335
 20
1.2700
 30
0.0000
  0
SEQEND
  8
0
  0
POLYLINE
  8
21
 66
1
 10
0.0000
 20
0.0000
 30
0.0000
 40
0.1270
 41
0.1270
 70
0
  0
VERTEX
  8
21
 10
52.1335
 20
3.8100
 30
0.0000
 42
1.0000
  0
VERTEX
  8
21
 10
52.0065
 20
3.8100
 30
0.0000
  0
SEQEND
  8
0
  0
POLYLINE
  8
21
 66
1
 10
0.0000
 20
0.0000
 30
0.0000
 40
0.2540
 41
0.2540
 70
0
  0
VERTEX
  8
21
 10
52.0700
 20
1.2700
 30
0.0000
  0
VERTEX
  8
21
 10
49.5300
 20
1.2700
 30
0.0000
  0
SEQEND
  8
0
  0
POLYLINE
  8
21
 66
1
 10
0.0000
 20
0.0000
 30
0.0000
 40
0.1270
 41
0.1270
 70
0
  0
VERTEX
  8
21
 10
49.5300
 20
1.3335
 30
0.0000
 42
1.0000
  0
VERTEX
  8
21
 10
49.5300
 20
1.2065
 30
0.0000
  0
SEQEND
  8
0
  0
POLYLINE
  8
21
 66
1
 10
0.0000
 20
0.0000
 30
0.0000
 40
0.1270
 41
0.1270
 70
0
  0
VERTEX
  8
21
 10
52.0700
 20
1.2065
 30
0.0000
 42
1.0000
  0
VERTEX
  8
21
 10
52.0700
 20
1.3335
 30
0.0000
  0
SEQEND
  8
0
  0
POLYLINE
  8
21
 66
1
 10
0.0000
 20
0.0000
 30
0.0000
 40
0.2540
 41
0.2540
 70
0
  0
VERTEX
  8
21
 10
64.7700
 20
49.5300
 30
0.0000
  0
VERTEX
  8
21
 10
62.2300
 20
49.5300
 30
0.0000
  0
SEQEND
  8
0
  0
POLYLINE
  8
21
 66
1
 10
0.0000
 20
0.0000
 30
0.0000
 40
0.1270
 41
0.1270
 70
0
  0
VERTEX
  8
21
 10
62.2300
 20
49.5935
 30
0.0000
 42
1.0000
  0
VERTEX
  8
21
 10
62.2300
 20
49.4665
 30
0.0000
  0
SEQEND
  8
0
  0
POLYLINE
  8
21
 66
1
 10
0.0000
 20
0.0000
 30
0.0000
 40
0.1270
 41
0.1270
 70
0
  0
VERTEX
  8
21
 10
64.7700
 20
49.4665
 30
0.0000
 42
1.0000
  0
VERTEX
  8
21
 10
64.7700
 20
49.5935
 30
0.0000
  0
SEQEND
  8
0
  0
POLYLINE
  8
21
 66
1
 10
0.0000
 20
0.0000
 30
0.0000
 40
0.2540
 41
0.2540
 70
0
  0
VERTEX
  8
21
 10
62.2300
 20
49.5300
 30
0.0000
  0
VERTEX
  8
21
 10
44.4500
 20
49.5300
 30
0.0000
  0
SEQEND
  8
0
  0
POLYLINE
  8
21
 66
1
 10
0.0000
 20
0.0000
 30
0.0000
 40
0.1270
 41
0.1270
 70
0
  0
VERTEX
  8
21
 10
44.4500
 20
49.5935
 30
0.0000
 42
1.0000
  0
VERTEX
  8
21
 10
44.4500
 20
49.4665
 30
0.0000
  0
SEQEND
  8
0
  0
POLYLINE
  8
21
 66
1
 10
0.0000
 20
0.0000
 30
0.0000
 40
0.1270
 41
0.1270
 70
0
  0
VERTEX
  8
21
 10
62.2300
 20
49.4665
 30
0.0000
 42
1.0000
  0
VERTEX
  8
21
 10
62.2300
 20
49.5935
 30
0.0000
  0
SEQEND
  8
0
  0
POLYLINE
  8
21
 66
1
 10
0.0000
 20
0.0000
 30
0.0000
 40
0.2540
 41
0.2540
 70
0
  0
VERTEX
  8
21
 10
44.4500
 20
49.5300
 30
0.0000
  0
VERTEX
  8
21
 10
44.4500
 20
52.0700
 30
0.0000
  0
SEQEND
  8
0
  0
POLYLINE
  8
21
 66
1
 10
0.0000
 20
0.0000
 30
0.0000
 40
0.1270
 41
0.1270
 70
0
  0
VERTEX
  8
21
 10
44.5135
 20
52.0700
 30
0.0000
 42
1.0000
  0
VERTEX
  8
21
 10
44.3865
 20
52.0700
 30
0.0000
  0
SEQEND
  8
0
  0
POLYLINE
  8
21
 66
1
 10
0.0000
 20
0.0000
 30
0.0000
 40
0.1270
 41
0.1270
 70
0
  0
VERTEX
  8
21
 10
44.3865
 20
49.5300
 30
0.0000
 42
1.0000
  0
VERTEX
  8
21
 10
44.5135
 20
49.5300
 30
0.0000
  0
SEQEND
  8
0
  0
POLYLINE
  8
21
 66
1
 10
0.0000
 20
0.0000
 30
0.0000
 40
0.2540
 41
0.2540
 70
0
  0
VERTEX
  8
21
 10
44.4500
 20
52.0700
 30
0.0000
  0
VERTEX
  8
21
 10
62.2300
 20
52.0700
 30
0.0000
  0
SEQEND
  8
0
  0
POLYLINE
  8
21
 66
1
 10
0.0000
 20
0.0000
 30
0.0000
 40
0.1270
 41
0.1270
 70
0
  0
VERTEX
  8
21
 10
62.2300
 20
52.0065
 30
0.0000
 42
1.0000
  0
VERTEX
  8
21
 10
62.2300
 20
52.1335
 30
0.0000
  0
SEQEND
  8
0
  0
POLYLINE
  8
21
 66
1
 10
0.0000
 20
0.0000
 30
0.0000
 40
0.1270
 41
0.1270
 70
0
  0
VERTEX
  8
21
 10
44.4500
 20
52.1335
 30
0.0000
 42
1.0000
  0
VERTEX
  8
21
 10
44.4500
 20
52.0065
 30
0.0000
  0
SEQEND
  8
0
  0
POLYLINE
  8
21
 66
1
 10
0.0000
 20
0.0000
 30
0.0000
 40
0.2540
 41
0.2540
 70
0
  0
VERTEX
  8
21
 10
64.7700
 20
52.0700
 30
0.0000
  0
VERTEX
  8
21
 10
64.7700
 20
49.5300
 30
0.0000
  0
SEQEND
  8
0
  0
POLYLINE
  8
21
 66
1
 10
0.0000
 20
0.0000
 30
0.0000
 40
0.1270
 41
0.1270
 70
0
  0
VERTEX
  8
21
 10
64.7065
 20
49.5300
 30
0.0000
 42
1.0000
  0
VERTEX
  8
21
 10
64.8335
 20
49.5300
 30
0.0000
  0
SEQEND
  8
0
  0
POLYLINE
  8
21
 66
1
 10
0.0000
 20
0.0000
 30
0.0000
 40
0.1270
 41
0.1270
 70
0
  0
VERTEX
  8
21
 10
64.8335
 20
52.0700
 30
0.0000
 42
1.0000
  0
VERTEX
  8
21
 10
64.7065
 20
52.0700
 30
0.0000
  0
SEQEND
  8
0
  0
POLYLINE
  8
21
 66
1
 10
0.0000
 20
0.0000
 30
0.0000
 40
0.2540
 41
0.2540
 70
0
  0
VERTEX
  8
21
 10
62.2300
 20
49.5300
 30
0.0000
  0
VERTEX
  8
21
 10
62.2300
 20
52.0700
 30
0.0000
  0
SEQEND
  8
0
  0
POLYLINE
  8
21
 66
1
 10
0.0000
 20
0.0000
 30
0.0000
 40
0.1270
 41
0.1270
 70
0
  0
VERTEX
  8
21
 10
62.2935
 20
52.0700
 30
0.0000
 42
1.0000
  0
VERTEX
  8
21
 10
62.1665
 20
52.0700
 30
0.0000
  0
SEQEND
  8
0
  0
POLYLINE
  8
21
 66
1
 10
0.0000
 20
0.0000
 30
0.0000
 40
0.1270
 41
0.1270
 70
0
  0
VERTEX
  8
21
 10
62.1665
 20
49.5300
 30
0.0000
 42
1.0000
  0
VERTEX
  8
21
 10
62.2935
 20
49.5300
 30
0.0000
  0
SEQEND
  8
0
  0
POLYLINE
  8
21
 66
1
 10
0.0000
 20
0.0000
 30
0.0000
 40
0.2540
 41
0.2540
 70
0
  0
VERTEX
  8
21
 10
62.2300
 20
52.0700
 30
0.0000
  0
VERTEX
  8
21
 10
64.7700
 20
52.0700
 30
0.0000
  0
SEQEND
  8
0
  0
POLYLINE
  8
21
 66
1
 10
0.0000
 20
0.0000
 30
0.0000
 40
0.1270
 41
0.1270
 70
0
  0
VERTEX
  8
21
 10
64.7700
 20
52.0065
 30
0.0000
 42
1.0000
  0
VERTEX
  8
21
 10
64.7700
 20
52.1335
 30
0.0000
  0
SEQEND
  8
0
  0
POLYLINE
  8
21
 66
1
 10
0.0000
 20
0.0000
 30
0.0000
 40
0.1270
 41
0.1270
 70
0
  0
VERTEX
  8
21
 10
62.2300
 20
52.1335
 30
0.0000
 42
1.0000
  0
VERTEX
  8
21
 10
62.2300
 20
52.0065
 30
0.0000
  0
SEQEND
  8
0
  0
POLYLINE
  8
21
 66
1
 10
0.0000
 20
0.0000
 30
0.0000
 40
0.2540
 41
0.2540
 70
0
  0
VERTEX
  8
21
 10
42.9260
 20
49.5300
 30
0.0000
  0
VERTEX
  8
21
 10
40.3860
 20
49.5300
 30
0.0000
  0
SEQEND
  8
0
  0
POLYLINE
  8
21
 66
1
 10
0.0000
 20
0.0000
 30
0.0000
 40
0.1270
 41
0.1270
 70
0
  0
VERTEX
  8
21
 10
40.3860
 20
49.5935
 30
0.0000
 42
1.0000
  0
VERTEX
  8
21
 10
40.3860
 20
49.4665
 30
0.0000
  0
SEQEND
  8
0
  0
POLYLINE
  8
21
 66
1
 10
0.0000
 20
0.0000
 30
0.0000
 40
0.1270
 41
0.1270
 70
0
  0
VERTEX
  8
21
 10
42.9260
 20
49.4665
 30
0.0000
 42
1.0000
  0
VERTEX
  8
21
 10
42.9260
 20
49.5935
 30
0.0000
  0
SEQEND
  8
0
  0
POLYLINE
  8
21
 66
1
 10
0.0000
 20
0.0000
 30
0.0000
 40
0.2540
 41
0.2540
 70
0
  0
VERTEX
  8
21
 10
40.3860
 20
49.5300
 30
0.0000
  0
VERTEX
  8
21
 10
17.5260
 20
49.5300
 30
0.0000
  0
SEQEND
  8
0
  0
POLYLINE
  8
21
 66
1
 10
0.0000
 20
0.0000
 30
0.0000
 40
0.1270
 41
0.1270
 70
0
  0
VERTEX
  8
21
 10
17.5260
 20
49.5935
 30
0.0000
 42
1.0000
  0
VERTEX
  8
21
 10
17.5260
 20
49.4665
 30
0.0000
  0
SEQEND
  8
0
  0
POLYLINE
  8
21
 66
1
 10
0.0000
 20
0.0000
 30
0.0000
 40
0.1270
 41
0.1270
 70
0
  0
VERTEX
  8
21
 10
40.3860
 20
49.4665
 30
0.0000
 42
1.0000
  0
VERTEX
  8
21
 10
40.3860
 20
49.5935
 30
0.0000
  0
SEQEND
  8
0
  0
POLYLINE
  8
21
 66
1
 10
0.0000
 20
0.0000
 30
0.0000
 40
0.2540
 41
0.2540
 70
0
  0
VERTEX
  8
21
 10
17.5260
 20
49.5300
 30
0.0000
  0
VERTEX
  8
21
 10
17.5260
 20
52.0700
 30
0.0000
  0
SEQEND
  8
0
  0
POLYLINE
  8
21
 66
1
 10
0.0000
 20
0.0000
 30
0.0000
 40
0.1270
 41
0.1270
 70
0
  0
VERTEX
  8
21
 10
17.5895
 20
52.0700
 30
0.0000
 42
1.0000
  0
VERTEX
  8
21
 10
17.4625
 20
52.0700
 30
0.0000
  0
SEQEND
  8
0
  0
POLYLINE
  8
21
 66
1
 10
0.0000
 20
0.0000
 30
0.0000
 40
0.1270
 41
0.1270
 70
0
  0
VERTEX
  8
21
 10
17.4625
 20
49.5300
 30
0.0000
 42
1.0000
  0
VERTEX
  8
21
 10
17.5895
 20
49.5300
 30
0.0000
  0
SEQEND
  8
0
  0
POLYLINE
  8
21
 66
1
 10
0.0000
 20
0.0000
 30
0.0000
 40
0.2540
 41
0.2540
 70
0
  0
VERTEX
  8
21
 10
17.5260
 20
52.0700
 30
0.0000
  0
VERTEX
  8
21
 10
40.3860
 20
52.0700
 30
0.0000
  0
SEQEND
  8
0
  0
POLYLINE
  8
21
 66
1
 10
0.0000
 20
0.0000
 30
0.0000
 40
0.1270
 41
0.1270
 70
0
  0
VERTEX
  8
21
 10
40.3860
 20
52.0065
 30
0.0000
 42
1.0000
  0
VERTEX
  8
21
 10
40.3860
 20
52.1335
 30
0.0000
  0
SEQEND
  8
0
  0
POLYLINE
  8
21
 66
1
 10
0.0000
 20
0.0000
 30
0.0000
 40
0.1270
 41
0.1270
 70
0
  0
VERTEX
  8
21
 10
17.5260
 20
52.1335
 30
0.0000
 42
1.0000
  0
VERTEX
  8
21
 10
17.5260
 20
52.0065
 30
0.0000
  0
SEQEND
  8
0
  0
POLYLINE
  8
21
 66
1
 10
0.0000
 20
0.0000
 30
0.0000
 40
0.2540
 41
0.2540
 70
0
  0
VERTEX
  8
21
 10
42.9260
 20
52.0700
 30
0.0000
  0
VERTEX
  8
21
 10
42.9260
 20
49.5300
 30
0.0000
  0
SEQEND
  8
0
  0
POLYLINE
  8
21
 66
1
 10
0.0000
 20
0.0000
 30
0.0000
 40
0.1270
 41
0.1270
 70
0
  0
VERTEX
  8
21
 10
42.8625
 20
49.5300
 30
0.0000
 42
1.0000
  0
VERTEX
  8
21
 10
42.9895
 20
49.5300
 30
0.0000
  0
SEQEND
  8
0
  0
POLYLINE
  8
21
 66
1
 10
0.0000
 20
0.0000
 30
0.0000
 40
0.1270
 41
0.1270
 70
0
  0
VERTEX
  8
21
 10
42.9895
 20
52.0700
 30
0.0000
 42
1.0000
  0
VERTEX
  8
21
 10
42.8625
 20
52.0700
 30
0.0000
  0
SEQEND
  8
0
  0
POLYLINE
  8
21
 66
1
 10
0.0000
 20
0.0000
 30
0.0000
 40
0.2540
 41
0.2540
 70
0
  0
VERTEX
  8
21
 10
40.3860
 20
49.5300
 30
0.0000
  0
VERTEX
  8
21
 10
40.3860
 20
52.0700
 30
0.0000
  0
SEQEND
  8
0
  0
POLYLINE
  8
21
 66
1
 10
0.0000
 20
0.0000
 30
0.0000
 40
0.1270
 41
0.1270
 70
0
  0
VERTEX
  8
21
 10
40.4495
 20
52.0700
 30
0.0000
 42
1.0000
  0
VERTEX
  8
21
 10
40.3225
 20
52.0700
 30
0.0000
  0
SEQEND
  8
0
  0
POLYLINE
  8
21
 66
1
 10
0.0000
 20
0.0000
 30
0.0000
 40
0.1270
 41
0.1270
 70
0
  0
VERTEX
  8
21
 10
40.3225
 20
49.5300
 30
0.0000
 42
1.0000
  0
VERTEX
  8
21
 10
40.4495
 20
49.5300
 30
0.0000
  0
SEQEND
  8
0
  0
POLYLINE
  8
21
 66
1
 10
0.0000
 20
0.0000
 30
0.0000
 40
0.2540
 41
0.2540
 70
0
  0
VERTEX
  8
21
 10
40.3860
 20
52.0700
 30
0.0000
  0
VERTEX
  8
21
 10
42.9260
 20
52.0700
 30
0.0000
  0
SEQEND
  8
0
  0
POLYLINE
  8
21
 66
1
 10
0.0000
 20
0.0000
 30
0.0000
 40
0.1270
 41
0.1270
 70
0
  0
VERTEX
  8
21
 10
42.9260
 20
52.0065
 30
0.0000
 42
1.0000
  0
VERTEX
  8
21
 10
42.9260
 20
52.1335
 30
0.0000
  0
SEQEND
  8
0
  0
POLYLINE
  8
21
 66
1
 10
0.0000
 20
0.0000
 30
0.0000
 40
0.1270
 41
0.1270
 70
0
  0
VERTEX
  8
21
 10
40.3860
 20
52.1335
 30
0.0000
 42
1.0000
  0
VERTEX
  8
21
 10
40.3860
 20
52.0065
 30
0.0000
  0
SEQEND
  8
0
  0
POLYLINE
  8
48
 66
1
 10
0.0000
 20
0.0000
 30
0.0000
 40
0.1270
 41
0.1270
 70
0
  0
VERTEX
  8
48
 10
68.5800
 20
26.7970
 30
0.0000
  0
VERTEX
  8
48
 10
0.0000
 20
26.7970
 30
0.0000
  0
SEQEND
  8
0
  0
POLYLINE
  8
48
 66
1
 10
0.0000
 20
0.0000
 30
0.0000
 40
0.0635
 41
0.0635
 70
0
  0
VERTEX
  8
48
 10
0.0000
 20
26.8287
 30
0.0000
 42
1.0000
  0
VERTEX
  8
48
 10
0.0000
 20
26.7653
 30
0.0000
  0
SEQEND
  8
0
  0
POLYLINE
  8
48
 66
1
 10
0.0000
 20
0.0000
 30
0.0000
 40
0.0635
 41
0.0635
 70
0
  0
VERTEX
  8
48
 10
68.5800
 20
26.7653
 30
0.0000
 42
1.0000
  0
VERTEX
  8
48
 10
68.5800
 20
26.8287
 30
0.0000
  0
SEQEND
  8
0
  0
POLYLINE
  8
21
 66
1
 10
0.0000
 20
0.0000
 30
0.0000
 40
0.2540
 41
0.2540
 70
0
  0
VERTEX
  8
21
 10
62.3570
 20
31.7500
 30
0.0000
  0
VERTEX
  8
21
 10
62.3570
 20
24.1300
 30
0.0000
  0
SEQEND
  8
0
  0
POLYLINE
  8
21
 66
1
 10
0.0000
 20
0.0000
 30
0.0000
 40
0.1270
 41
0.1270
 70
0
  0
VERTEX
  8
21
 10
62.2935
 20
24.1300
 30
0.0000
 42
1.0000
  0
VERTEX
  8
21
 10
62.4205
 20
24.1300
 30
0.0000
  0
SEQEND
  8
0
  0
POLYLINE
  8
21
 66
1
 10
0.0000
 20
0.0000
 30
0.0000
 40
0.1270
 41
0.1270
 70
0
  0
VERTEX
  8
21
 10
62.4205
 20
31.7500
 30
0.0000
 42
1.0000
  0
VERTEX
  8
21
 10
62.2935
 20
31.7500
 30
0.0000
  0
SEQEND
  8
0
  0
POLYLINE
  8
21
 66
1
 10
0.0000
 20
0.0000
 30
0.0000
 40
0.2540
 41
0.2540
 70
0
  0
VERTEX
  8
21
 10
62.3570
 20
24.1300
 30
0.0000
  0
VERTEX
  8
21
 10
67.4370
 20
24.1300
 30
0.0000
  0
SEQEND
  8
0
  0
POLYLINE
  8
21
 66
1
 10
0.0000
 20
0.0000
 30
0.0000
 40
0.1270
 41
0.1270
 70
0
  0
VERTEX
  8
21
 10
67.4370
 20
24.0665
 30
0.0000
 42
1.0000
  0
VERTEX
  8
21
 10
67.4370
 20
24.1935
 30
0.0000
  0
SEQEND
  8
0
  0
POLYLINE
  8
21
 66
1
 10
0.0000
 20
0.0000
 30
0.0000
 40
0.1270
 41
0.1270
 70
0
  0
VERTEX
  8
21
 10
62.3570
 20
24.1935
 30
0.0000
 42
1.0000
  0
VERTEX
  8
21
 10
62.3570
 20
24.0665
 30
0.0000
  0
SEQEND
  8
0
  0
POLYLINE
  8
21
 66
1
 10
0.0000
 20
0.0000
 30
0.0000
 40
0.2540
 41
0.2540
 70
0
  0
VERTEX
  8
21
 10
67.4370
 20
24.1300
 30
0.0000
  0
VERTEX
  8
21
 10
67.4370
 20
31.7500
 30
0.0000
  0
SEQEND
  8
0
  0
POLYLINE
  8
21
 66
1
 10
0.0000
 20
0.0000
 30
0.0000
 40
0.1270
 41
0.1270
 70
0
  0
VERTEX
  8
21
 10
67.5005
 20
31.7500
 30
0.0000
 42
1.0000
  0
VERTEX
  8
21
 10
67.3735
 20
31.7500
 30
0.0000
  0
SEQEND
  8
0
  0
POLYLINE
  8
21
 66
1
 10
0.0000
 20
0.0000
 30
0.0000
 40
0.1270
 41
0.1270
 70
0
  0
VERTEX
  8
21
 10
67.3735
 20
24.1300
 30
0.0000
 42
1.0000
  0
VERTEX
  8
21
 10
67.5005
 20
24.1300
 30
0.0000
  0
SEQEND
  8
0
  0
POLYLINE
  8
21
 66
1
 10
0.0000
 20
0.0000
 30
0.0000
 40
0.2540
 41
0.2540
 70
0
  0
VERTEX
  8
21
 10
67.4370
 20
31.7500
 30
0.0000
  0
VERTEX
  8
21
 10
62.3570
 20
31.7500
 30
0.0000
  0
SEQEND
  8
0
  0
POLYLINE
  8
21
 66
1
 10
0.0000
 20
0.0000
 30
0.0000
 40
0.1270
 41
0.1270
 70
0
  0
VERTEX
  8
21
 10
62.3570
 20
31.8135
 30
0.0000
 42
1.0000
  0
VERTEX
  8
21
 10
62.3570
 20
31.6865
 30
0.0000
  0
SEQEND
  8
0
  0
POLYLINE
  8
21
 66
1
 10
0.0000
 20
0.0000
 30
0.0000
 40
0.1270
 41
0.1270
 70
0
  0
VERTEX
  8
21
 10
67.4370
 20
31.6865
 30
0.0000
 42
1.0000
  0
VERTEX
  8
21
 10
67.4370
 20
31.8135
 30
0.0000
  0
SEQEND
  8
0
  0
POLYLINE
  8
20
 66
1
 10
0.0000
 20
0.0000
 30
0.0000
 40
0.2540
 41
0.2540
 70
0
  0
VERTEX
  8
20
 10
2.6670
 20
0.0000
 30
0.0000
  0
VERTEX
  8
20
 10
3.4290
 20
0.7620
 30
0.0000
  0
SEQEND
  8
0
  0
POLYLINE
  8
20
 66
1
 10
0.0000
 20
0.0000
 30
0.0000
 40
0.1270
 41
0.1270
 70
0
  0
VERTEX
  8
20
 10
3.4739
 20
0.7171
 30
0.0000
 42
1.0000
  0
VERTEX
  8
20
 10
3.3841
 20
0.8069
 30
0.0000
  0
SEQEND
  8
0
  0
POLYLINE
  8
20
 66
1
 10
0.0000
 20
0.0000
 30
0.0000
 40
0.1270
 41
0.1270
 70
0
  0
VERTEX
  8
20
 10
2.6221
 20
0.0449
 30
0.0000
 42
1.0000
  0
VERTEX
  8
20
 10
2.7119
 20
-0.0449
 30
0.0000
  0
SEQEND
  8
0
  0
POLYLINE
  8
20
 66
1
 10
0.0000
 20
0.0000
 30
0.0000
 40
0.2540
 41
0.2540
 70
0
  0
VERTEX
  8
20
 10
3.4290
 20
0.7620
 30
0.0000
  0
VERTEX
  8
20
 10
6.7310
 20
0.7620
 30
0.0000
  0
SEQEND
  8
0
  0
POLYLINE
  8
20
 66
1
 10
0.0000
 20
0.0000
 30
0.0000
 40
0.1270
 41
0.1270
 70
0
  0
VERTEX
  8
20
 10
6.7310
 20
0.6985
 30
0.0000
 42
1.0000
  0
VERTEX
  8
20
 10
6.7310
 20
0.8255
 30
0.0000
  0
SEQEND
  8
0
  0
POLYLINE
  8
20
 66
1
 10
0.0000
 20
0.0000
 30
0.0000
 40
0.1270
 41
0.1270
 70
0
  0
VERTEX
  8
20
 10
3.4290
 20
0.8255
 30
0.0000
 42
1.0000
  0
VERTEX
  8
20
 10
3.4290
 20
0.6985
 30
0.0000
  0
SEQEND
  8
0
  0
POLYLINE
  8
20
 66
1
 10
0.0000
 20
0.0000
 30
0.0000
 40
0.2540
 41
0.2540
 70
0
  0
VERTEX
  8
20
 10
6.7310
 20
0.7620
 30
0.0000
  0
VERTEX
  8
20
 10
7.4930
 20
0.0000
 30
0.0000
  0
SEQEND
  8
0
  0
POLYLINE
  8
20
 66
1
 10
0.0000
 20
0.0000
 30
0.0000
 40
0.1270
 41
0.1270
 70
0
  0
VERTEX
  8
20
 10
7.4481
 20
-0.0449
 30
0.0000
 42
1.0000
  0
VERTEX
  8
20
 10
7.5379
 20
0.0449
 30
0.0000
  0
SEQEND
  8
0
  0
POLYLINE
  8
20
 66
1
 10
0.0000
 20
0.0000
 30
0.0000
 40
0.1270
 41
0.1270
 70
0
  0
VERTEX
  8
20
 10
6.7759
 20
0.8069
 30
0.0000
 42
1.0000
  0
VERTEX
  8
20
 10
6.6861
 20
0.7171
 30
0.0000
  0
SEQEND
  8
0
  0
LINE
  8
49
 10
3.0480
 20
26.2890
 30
0.0000
 11
53.2130
 21
17.3990
 31
0.0000
  0
POLYLINE
  8
21
 66
1
 10
0.0000
 20
0.0000
 30
0.0000
 40
0.1524
 41
0.1524
 70
0
  0
VERTEX
  8
21
 10
35.1521
 20
0.3302
 30
0.0000
  0
VERTEX
  8
21
 10
35.1521
 20
0.9403
 30
0.0000
  0
SEQEND
  8
0
  0
POLYLINE
  8
21
 66
1
 10
0.0000
 20
0.0000
 30
0.0000
 40
0.0762
 41
0.0762
 70
0
  0
VERTEX
  8
21
 10
35.1902
 20
0.9403
 30
0.0000
 42
1.0000
  0
VERTEX
  8
21
 10
35.1140
 20
0.9403
 30
0.0000
  0
SEQEND
  8
0
  0
POLYLINE
  8
21
 66
1
 10
0.0000
 20
0.0000
 30
0.0000
 40
0.0762
 41
0.0762
 70
0
  0
VERTEX
  8
21
 10
35.1140
 20
0.3302
 30
0.0000
 42
1.0000
  0
VERTEX
  8
21
 10
35.1902
 20
0.3302
 30
0.0000
  0
SEQEND
  8
0
  0
POLYLINE
  8
21
 66
1
 10
0.0000
 20
0.0000
 30
0.0000
 40
0.1524
 41
0.1524
 70
0
  0
VERTEX
  8
21
 10
35.1521
 20
0.9403
 30
0.0000
  0
VERTEX
  8
21
 10
35.4572
 20
0.9403
 30
0.0000
  0
SEQEND
  8
0
  0
POLYLINE
  8
21
 66
1
 10
0.0000
 20
0.0000
 30
0.0000
 40
0.0762
 41
0.0762
 70
0
  0
VERTEX
  8
21
 10
35.4572
 20
0.9022
 30
0.0000
 42
1.0000
  0
VERTEX
  8
21
 10
35.4572
 20
0.9784
 30
0.0000
  0
SEQEND
  8
0
  0
POLYLINE
  8
21
 66
1
 10
0.0000
 20
0.0000
 30
0.0000
 40
0.0762
 41
0.0762
 70
0
  0
VERTEX
  8
21
 10
35.1521
 20
0.9784
 30
0.0000
 42
1.0000
  0
VERTEX
  8
21
 10
35.1521
 20
0.9022
 30
0.0000
  0
SEQEND
  8
0
  0
POLYLINE
  8
21
 66
1
 10
0.0000
 20
0.0000
 30
0.0000
 40
0.1524
 41
0.1524
 70
0
  0
VERTEX
  8
21
 10
35.4572
 20
0.9403
 30
0.0000
  0
VERTEX
  8
21
 10
35.5588
 20
0.8386
 30
0.0000
  0
SEQEND
  8
0
  0
POLYLINE
  8
21
 66
1
 10
0.0000
 20
0.0000
 30
0.0000
 40
0.0762
 41
0.0762
 70
0
  0
VERTEX
  8
21
 10
35.5319
 20
0.8117
 30
0.0000
 42
1.0000
  0
VERTEX
  8
21
 10
35.5858
 20
0.8656
 30
0.0000
  0
SEQEND
  8
0
  0
POLYLINE
  8
21
 66
1
 10
0.0000
 20
0.0000
 30
0.0000
 40
0.0762
 41
0.0762
 70
0
  0
VERTEX
  8
21
 10
35.4841
 20
0.9673
 30
0.0000
 42
1.0000
  0
VERTEX
  8
21
 10
35.4302
 20
0.9134
 30
0.0000
  0
SEQEND
  8
0
  0
POLYLINE
  8
21
 66
1
 10
0.0000
 20
0.0000
 30
0.0000
 40
0.1524
 41
0.1524
 70
0
  0
VERTEX
  8
21
 10
35.5588
 20
0.8386
 30
0.0000
  0
VERTEX
  8
21
 10
35.5588
 20
0.6353
 30
0.0000
  0
SEQEND
  8
0
  0
POLYLINE
  8
21
 66
1
 10
0.0000
 20
0.0000
 30
0.0000
 40
0.0762
 41
0.0762
 70
0
  0
VERTEX
  8
21
 10
35.5207
 20
0.6353
 30
0.0000
 42
1.0000
  0
VERTEX
  8
21
 10
35.5969
 20
0.6353
 30
0.0000
  0
SEQEND
  8
0
  0
POLYLINE
  8
21
 66
1
 10
0.0000
 20
0.0000
 30
0.0000
 40
0.0762
 41
0.0762
 70
0
  0
VERTEX
  8
21
 10
35.5969
 20
0.8386
 30
0.0000
 42
1.0000
  0
VERTEX
  8
21
 10
35.5207
 20
0.8386
 30
0.0000
  0
SEQEND
  8
0
  0
POLYLINE
  8
21
 66
1
 10
0.0000
 20
0.0000
 30
0.0000
 40
0.1524
 41
0.1524
 70
0
  0
VERTEX
  8
21
 10
35.5588
 20
0.6353
 30
0.0000
  0
VERTEX
  8
21
 10
35.4572
 20
0.5336
 30
0.0000
  0
SEQEND
  8
0
  0
POLYLINE
  8
21
 66
1
 10
0.0000
 20
0.0000
 30
0.0000
 40
0.0762
 41
0.0762
 70
0
  0
VERTEX
  8
21
 10
35.4302
 20
0.5605
 30
0.0000
 42
1.0000
  0
VERTEX
  8
21
 10
35.4841
 20
0.5066
 30
0.0000
  0
SEQEND
  8
0
  0
POLYLINE
  8
21
 66
1
 10
0.0000
 20
0.0000
 30
0.0000
 40
0.0762
 41
0.0762
 70
0
  0
VERTEX
  8
21
 10
35.5858
 20
0.6083
 30
0.0000
 42
1.0000
  0
VERTEX
  8
21
 10
35.5319
 20
0.6622
 30
0.0000
  0
SEQEND
  8
0
  0
POLYLINE
  8
21
 66
1
 10
0.0000
 20
0.0000
 30
0.0000
 40
0.1524
 41
0.1524
 70
0
  0
VERTEX
  8
21
 10
35.4572
 20
0.5336
 30
0.0000
  0
VERTEX
  8
21
 10
35.1521
 20
0.5336
 30
0.0000
  0
SEQEND
  8
0
  0
POLYLINE
  8
21
 66
1
 10
0.0000
 20
0.0000
 30
0.0000
 40
0.0762
 41
0.0762
 70
0
  0
VERTEX
  8
21
 10
35.1521
 20
0.5717
 30
0.0000
 42
1.0000
  0
VERTEX
  8
21
 10
35.1521
 20
0.4955
 30
0.0000
  0
SEQEND
  8
0
  0
POLYLINE
  8
21
 66
1
 10
0.0000
 20
0.0000
 30
0.0000
 40
0.0762
 41
0.0762
 70
0
  0
VERTEX
  8
21
 10
35.4572
 20
0.4955
 30
0.0000
 42
1.0000
  0
VERTEX
  8
21
 10
35.4572
 20
0.5717
 30
0.0000
  0
SEQEND
  8
0
  0
POLYLINE
  8
21
 66
1
 10
0.0000
 20
0.0000
 30
0.0000
 40
0.1524
 41
0.1524
 70
0
  0
VERTEX
  8
21
 10
36.1588
 20
0.9403
 30
0.0000
  0
VERTEX
  8
21
 10
35.9554
 20
0.9403
 30
0.0000
  0
SEQEND
  8
0
  0
POLYLINE
  8
21
 66
1
 10
0.0000
 20
0.0000
 30
0.0000
 40
0.0762
 41
0.0762
 70
0
  0
VERTEX
  8
21
 10
35.9554
 20
0.9784
 30
0.0000
 42
1.0000
  0
VERTEX
  8
21
 10
35.9554
 20
0.9022
 30
0.0000
  0
SEQEND
  8
0
  0
POLYLINE
  8
21
 66
1
 10
0.0000
 20
0.0000
 30
0.0000
 40
0.0762
 41
0.0762
 70
0
  0
VERTEX
  8
21
 10
36.1588
 20
0.9022
 30
0.0000
 42
1.0000
  0
VERTEX
  8
21
 10
36.1588
 20
0.9784
 30
0.0000
  0
SEQEND
  8
0
  0
POLYLINE
  8
21
 66
1
 10
0.0000
 20
0.0000
 30
0.0000
 40
0.1524
 41
0.1524
 70
0
  0
VERTEX
  8
21
 10
35.9554
 20
0.9403
 30
0.0000
  0
VERTEX
  8
21
 10
35.8537
 20
0.8386
 30
0.0000
  0
SEQEND
  8
0
  0
POLYLINE
  8
21
 66
1
 10
0.0000
 20
0.0000
 30
0.0000
 40
0.0762
 41
0.0762
 70
0
  0
VERTEX
  8
21
 10
35.8268
 20
0.8656
 30
0.0000
 42
1.0000
  0
VERTEX
  8
21
 10
35.8807
 20
0.8117
 30
0.0000
  0
SEQEND
  8
0
  0
POLYLINE
  8
21
 66
1
 10
0.0000
 20
0.0000
 30
0.0000
 40
0.0762
 41
0.0762
 70
0
  0
VERTEX
  8
21
 10
35.9824
 20
0.9134
 30
0.0000
 42
1.0000
  0
VERTEX
  8
21
 10
35.9285
 20
0.9673
 30
0.0000
  0
SEQEND
  8
0
  0
POLYLINE
  8
21
 66
1
 10
0.0000
 20
0.0000
 30
0.0000
 40
0.1524
 41
0.1524
 70
0
  0
VERTEX
  8
21
 10
35.8537
 20
0.8386
 30
0.0000
  0
VERTEX
  8
21
 10
35.8537
 20
0.4319
 30
0.0000
  0
SEQEND
  8
0
  0
POLYLINE
  8
21
 66
1
 10
0.0000
 20
0.0000
 30
0.0000
 40
0.0762
 41
0.0762
 70
0
  0
VERTEX
  8
21
 10
35.8156
 20
0.4319
 30
0.0000
 42
1.0000
  0
VERTEX
  8
21
 10
35.8918
 20
0.4319
 30
0.0000
  0
SEQEND
  8
0
  0
POLYLINE
  8
21
 66
1
 10
0.0000
 20
0.0000
 30
0.0000
 40
0.0762
 41
0.0762
 70
0
  0
VERTEX
  8
21
 10
35.8918
 20
0.8386
 30
0.0000
 42
1.0000
  0
VERTEX
  8
21
 10
35.8156
 20
0.8386
 30
0.0000
  0
SEQEND
  8
0
  0
POLYLINE
  8
21
 66
1
 10
0.0000
 20
0.0000
 30
0.0000
 40
0.1524
 41
0.1524
 70
0
  0
VERTEX
  8
21
 10
35.8537
 20
0.4319
 30
0.0000
  0
VERTEX
  8
21
 10
35.9554
 20
0.3302
 30
0.0000
  0
SEQEND
  8
0
  0
POLYLINE
  8
21
 66
1
 10
0.0000
 20
0.0000
 30
0.0000
 40
0.0762
 41
0.0762
 70
0
  0
VERTEX
  8
21
 10
35.9285
 20
0.3033
 30
0.0000
 42
1.0000
  0
VERTEX
  8
21
 10
35.9824
 20
0.3571
 30
0.0000
  0
SEQEND
  8
0
  0
POLYLINE
  8
21
 66
1
 10
0.0000
 20
0.0000
 30
0.0000
 40
0.0762
 41
0.0762
 70
0
  0
VERTEX
  8
21
 10
35.8807
 20
0.4588
 30
0.0000
 42
1.0000
  0
VERTEX
  8
21
 10
35.8268
 20
0.4049
 30
0.0000
  0
SEQEND
  8
0
  0
POLYLINE
  8
21
 66
1
 10
0.0000
 20
0.0000
 30
0.0000
 40
0.1524
 41
0.1524
 70
0
  0
VERTEX
  8
21
 10
35.9554
 20
0.3302
 30
0.0000
  0
VERTEX
  8
21
 10
36.1588
 20
0.3302
 30
0.0000
  0
SEQEND
  8
0
  0
POLYLINE
  8
21
 66
1
 10
0.0000
 20
0.0000
 30
0.0000
 40
0.0762
 41
0.0762
 70
0
  0
VERTEX
  8
21
 10
36.1588
 20
0.2921
 30
0.0000
 42
1.0000
  0
VERTEX
  8
21
 10
36.1588
 20
0.3683
 30
0.0000
  0
SEQEND
  8
0
  0
POLYLINE
  8
21
 66
1
 10
0.0000
 20
0.0000
 30
0.0000
 40
0.0762
 41
0.0762
 70
0
  0
VERTEX
  8
21
 10
35.9554
 20
0.3683
 30
0.0000
 42
1.0000
  0
VERTEX
  8
21
 10
35.9554
 20
0.2921
 30
0.0000
  0
SEQEND
  8
0
  0
POLYLINE
  8
21
 66
1
 10
0.0000
 20
0.0000
 30
0.0000
 40
0.1524
 41
0.1524
 70
0
  0
VERTEX
  8
21
 10
36.1588
 20
0.3302
 30
0.0000
  0
VERTEX
  8
21
 10
36.2605
 20
0.4319
 30
0.0000
  0
SEQEND
  8
0
  0
POLYLINE
  8
21
 66
1
 10
0.0000
 20
0.0000
 30
0.0000
 40
0.0762
 41
0.0762
 70
0
  0
VERTEX
  8
21
 10
36.2874
 20
0.4049
 30
0.0000
 42
1.0000
  0
VERTEX
  8
21
 10
36.2335
 20
0.4588
 30
0.0000
  0
SEQEND
  8
0
  0
POLYLINE
  8
21
 66
1
 10
0.0000
 20
0.0000
 30
0.0000
 40
0.0762
 41
0.0762
 70
0
  0
VERTEX
  8
21
 10
36.1319
 20
0.3571
 30
0.0000
 42
1.0000
  0
VERTEX
  8
21
 10
36.1857
 20
0.3033
 30
0.0000
  0
SEQEND
  8
0
  0
POLYLINE
  8
21
 66
1
 10
0.0000
 20
0.0000
 30
0.0000
 40
0.1524
 41
0.1524
 70
0
  0
VERTEX
  8
21
 10
36.2605
 20
0.4319
 30
0.0000
  0
VERTEX
  8
21
 10
36.2605
 20
0.8386
 30
0.0000
  0
SEQEND
  8
0
  0
POLYLINE
  8
21
 66
1
 10
0.0000
 20
0.0000
 30
0.0000
 40
0.0762
 41
0.0762
 70
0
  0
VERTEX
  8
21
 10
36.2986
 20
0.8386
 30
0.0000
 42
1.0000
  0
VERTEX
  8
21
 10
36.2224
 20
0.8386
 30
0.0000
  0
SEQEND
  8
0
  0
POLYLINE
  8
21
 66
1
 10
0.0000
 20
0.0000
 30
0.0000
 40
0.0762
 41
0.0762
 70
0
  0
VERTEX
  8
21
 10
36.2224
 20
0.4319
 30
0.0000
 42
1.0000
  0
VERTEX
  8
21
 10
36.2986
 20
0.4319
 30
0.0000
  0
SEQEND
  8
0
  0
POLYLINE
  8
21
 66
1
 10
0.0000
 20
0.0000
 30
0.0000
 40
0.1524
 41
0.1524
 70
0
  0
VERTEX
  8
21
 10
36.2605
 20
0.8386
 30
0.0000
  0
VERTEX
  8
21
 10
36.1588
 20
0.9403
 30
0.0000
  0
SEQEND
  8
0
  0
POLYLINE
  8
21
 66
1
 10
0.0000
 20
0.0000
 30
0.0000
 40
0.0762
 41
0.0762
 70
0
  0
VERTEX
  8
21
 10
36.1857
 20
0.9673
 30
0.0000
 42
1.0000
  0
VERTEX
  8
21
 10
36.1319
 20
0.9134
 30
0.0000
  0
SEQEND
  8
0
  0
POLYLINE
  8
21
 66
1
 10
0.0000
 20
0.0000
 30
0.0000
 40
0.0762
 41
0.0762
 70
0
  0
VERTEX
  8
21
 10
36.2335
 20
0.8117
 30
0.0000
 42
1.0000
  0
VERTEX
  8
21
 10
36.2874
 20
0.8656
 30
0.0000
  0
SEQEND
  8
0
  0
POLYLINE
  8
21
 66
1
 10
0.0000
 20
0.0000
 30
0.0000
 40
0.1524
 41
0.1524
 70
0
  0
VERTEX
  8
21
 10
36.5554
 20
0.9403
 30
0.0000
  0
VERTEX
  8
21
 10
36.5554
 20
0.3302
 30
0.0000
  0
SEQEND
  8
0
  0
POLYLINE
  8
21
 66
1
 10
0.0000
 20
0.0000
 30
0.0000
 40
0.0762
 41
0.0762
 70
0
  0
VERTEX
  8
21
 10
36.5173
 20
0.3302
 30
0.0000
 42
1.0000
  0
VERTEX
  8
21
 10
36.5935
 20
0.3302
 30
0.0000
  0
SEQEND
  8
0
  0
POLYLINE
  8
21
 66
1
 10
0.0000
 20
0.0000
 30
0.0000
 40
0.0762
 41
0.0762
 70
0
  0
VERTEX
  8
21
 10
36.5935
 20
0.9403
 30
0.0000
 42
1.0000
  0
VERTEX
  8
21
 10
36.5173
 20
0.9403
 30
0.0000
  0
SEQEND
  8
0
  0
POLYLINE
  8
21
 66
1
 10
0.0000
 20
0.0000
 30
0.0000
 40
0.1524
 41
0.1524
 70
0
  0
VERTEX
  8
21
 10
36.5554
 20
0.3302
 30
0.0000
  0
VERTEX
  8
21
 10
36.7587
 20
0.5336
 30
0.0000
  0
SEQEND
  8
0
  0
POLYLINE
  8
21
 66
1
 10
0.0000
 20
0.0000
 30
0.0000
 40
0.0762
 41
0.0762
 70
0
  0
VERTEX
  8
21
 10
36.7857
 20
0.5066
 30
0.0000
 42
1.0000
  0
VERTEX
  8
21
 10
36.7318
 20
0.5605
 30
0.0000
  0
SEQEND
  8
0
  0
POLYLINE
  8
21
 66
1
 10
0.0000
 20
0.0000
 30
0.0000
 40
0.0762
 41
0.0762
 70
0
  0
VERTEX
  8
21
 10
36.5284
 20
0.3571
 30
0.0000
 42
1.0000
  0
VERTEX
  8
21
 10
36.5823
 20
0.3033
 30
0.0000
  0
SEQEND
  8
0
  0
POLYLINE
  8
21
 66
1
 10
0.0000
 20
0.0000
 30
0.0000
 40
0.1524
 41
0.1524
 70
0
  0
VERTEX
  8
21
 10
36.7587
 20
0.5336
 30
0.0000
  0
VERTEX
  8
21
 10
36.9621
 20
0.3302
 30
0.0000
  0
SEQEND
  8
0
  0
POLYLINE
  8
21
 66
1
 10
0.0000
 20
0.0000
 30
0.0000
 40
0.0762
 41
0.0762
 70
0
  0
VERTEX
  8
21
 10
36.9352
 20
0.3033
 30
0.0000
 42
1.0000
  0
VERTEX
  8
21
 10
36.9891
 20
0.3571
 30
0.0000
  0
SEQEND
  8
0
  0
POLYLINE
  8
21
 66
1
 10
0.0000
 20
0.0000
 30
0.0000
 40
0.0762
 41
0.0762
 70
0
  0
VERTEX
  8
21
 10
36.7857
 20
0.5605
 30
0.0000
 42
1.0000
  0
VERTEX
  8
21
 10
36.7318
 20
0.5066
 30
0.0000
  0
SEQEND
  8
0
  0
POLYLINE
  8
21
 66
1
 10
0.0000
 20
0.0000
 30
0.0000
 40
0.1524
 41
0.1524
 70
0
  0
VERTEX
  8
21
 10
36.9621
 20
0.3302
 30
0.0000
  0
VERTEX
  8
21
 10
36.9621
 20
0.9403
 30
0.0000
  0
SEQEND
  8
0
  0
POLYLINE
  8
21
 66
1
 10
0.0000
 20
0.0000
 30
0.0000
 40
0.0762
 41
0.0762
 70
0
  0
VERTEX
  8
21
 10
37.0002
 20
0.9403
 30
0.0000
 42
1.0000
  0
VERTEX
  8
21
 10
36.9240
 20
0.9403
 30
0.0000
  0
SEQEND
  8
0
  0
POLYLINE
  8
21
 66
1
 10
0.0000
 20
0.0000
 30
0.0000
 40
0.0762
 41
0.0762
 70
0
  0
VERTEX
  8
21
 10
36.9240
 20
0.3302
 30
0.0000
 42
1.0000
  0
VERTEX
  8
21
 10
37.0002
 20
0.3302
 30
0.0000
  0
SEQEND
  8
0
  0
POLYLINE
  8
21
 66
1
 10
0.0000
 20
0.0000
 30
0.0000
 40
0.1524
 41
0.1524
 70
0
  0
VERTEX
  8
21
 10
37.6638
 20
0.9403
 30
0.0000
  0
VERTEX
  8
21
 10
37.2570
 20
0.9403
 30
0.0000
  0
SEQEND
  8
0
  0
POLYLINE
  8
21
 66
1
 10
0.0000
 20
0.0000
 30
0.0000
 40
0.0762
 41
0.0762
 70
0
  0
VERTEX
  8
21
 10
37.2570
 20
0.9784
 30
0.0000
 42
1.0000
  0
VERTEX
  8
21
 10
37.2570
 20
0.9022
 30
0.0000
  0
SEQEND
  8
0
  0
POLYLINE
  8
21
 66
1
 10
0.0000
 20
0.0000
 30
0.0000
 40
0.0762
 41
0.0762
 70
0
  0
VERTEX
  8
21
 10
37.6638
 20
0.9022
 30
0.0000
 42
1.0000
  0
VERTEX
  8
21
 10
37.6638
 20
0.9784
 30
0.0000
  0
SEQEND
  8
0
  0
POLYLINE
  8
21
 66
1
 10
0.0000
 20
0.0000
 30
0.0000
 40
0.1524
 41
0.1524
 70
0
  0
VERTEX
  8
21
 10
37.2570
 20
0.9403
 30
0.0000
  0
VERTEX
  8
21
 10
37.2570
 20
0.3302
 30
0.0000
  0
SEQEND
  8
0
  0
POLYLINE
  8
21
 66
1
 10
0.0000
 20
0.0000
 30
0.0000
 40
0.0762
 41
0.0762
 70
0
  0
VERTEX
  8
21
 10
37.2189
 20
0.3302
 30
0.0000
 42
1.0000
  0
VERTEX
  8
21
 10
37.2951
 20
0.3302
 30
0.0000
  0
SEQEND
  8
0
  0
POLYLINE
  8
21
 66
1
 10
0.0000
 20
0.0000
 30
0.0000
 40
0.0762
 41
0.0762
 70
0
  0
VERTEX
  8
21
 10
37.2951
 20
0.9403
 30
0.0000
 42
1.0000
  0
VERTEX
  8
21
 10
37.2189
 20
0.9403
 30
0.0000
  0
SEQEND
  8
0
  0
POLYLINE
  8
21
 66
1
 10
0.0000
 20
0.0000
 30
0.0000
 40
0.1524
 41
0.1524
 70
0
  0
VERTEX
  8
21
 10
37.2570
 20
0.3302
 30
0.0000
  0
VERTEX
  8
21
 10
37.6638
 20
0.3302
 30
0.0000
  0
SEQEND
  8
0
  0
POLYLINE
  8
21
 66
1
 10
0.0000
 20
0.0000
 30
0.0000
 40
0.0762
 41
0.0762
 70
0
  0
VERTEX
  8
21
 10
37.6638
 20
0.2921
 30
0.0000
 42
1.0000
  0
VERTEX
  8
21
 10
37.6638
 20
0.3683
 30
0.0000
  0
SEQEND
  8
0
  0
POLYLINE
  8
21
 66
1
 10
0.0000
 20
0.0000
 30
0.0000
 40
0.0762
 41
0.0762
 70
0
  0
VERTEX
  8
21
 10
37.2570
 20
0.3683
 30
0.0000
 42
1.0000
  0
VERTEX
  8
21
 10
37.2570
 20
0.2921
 30
0.0000
  0
SEQEND
  8
0
  0
POLYLINE
  8
21
 66
1
 10
0.0000
 20
0.0000
 30
0.0000
 40
0.1524
 41
0.1524
 70
0
  0
VERTEX
  8
21
 10
37.2570
 20
0.6353
 30
0.0000
  0
VERTEX
  8
21
 10
37.4604
 20
0.6353
 30
0.0000
  0
SEQEND
  8
0
  0
POLYLINE
  8
21
 66
1
 10
0.0000
 20
0.0000
 30
0.0000
 40
0.0762
 41
0.0762
 70
0
  0
VERTEX
  8
21
 10
37.4604
 20
0.5972
 30
0.0000
 42
1.0000
  0
VERTEX
  8
21
 10
37.4604
 20
0.6734
 30
0.0000
  0
SEQEND
  8
0
  0
POLYLINE
  8
21
 66
1
 10
0.0000
 20
0.0000
 30
0.0000
 40
0.0762
 41
0.0762
 70
0
  0
VERTEX
  8
21
 10
37.2570
 20
0.6734
 30
0.0000
 42
1.0000
  0
VERTEX
  8
21
 10
37.2570
 20
0.5972
 30
0.0000
  0
SEQEND
  8
0
  0
POLYLINE
  8
21
 66
1
 10
0.0000
 20
0.0000
 30
0.0000
 40
0.1524
 41
0.1524
 70
0
  0
VERTEX
  8
21
 10
37.9586
 20
0.3302
 30
0.0000
  0
VERTEX
  8
21
 10
37.9586
 20
0.9403
 30
0.0000
  0
SEQEND
  8
0
  0
POLYLINE
  8
21
 66
1
 10
0.0000
 20
0.0000
 30
0.0000
 40
0.0762
 41
0.0762
 70
0
  0
VERTEX
  8
21
 10
37.9967
 20
0.9403
 30
0.0000
 42
1.0000
  0
VERTEX
  8
21
 10
37.9205
 20
0.9403
 30
0.0000
  0
SEQEND
  8
0
  0
POLYLINE
  8
21
 66
1
 10
0.0000
 20
0.0000
 30
0.0000
 40
0.0762
 41
0.0762
 70
0
  0
VERTEX
  8
21
 10
37.9205
 20
0.3302
 30
0.0000
 42
1.0000
  0
VERTEX
  8
21
 10
37.9967
 20
0.3302
 30
0.0000
  0
SEQEND
  8
0
  0
POLYLINE
  8
21
 66
1
 10
0.0000
 20
0.0000
 30
0.0000
 40
0.1524
 41
0.1524
 70
0
  0
VERTEX
  8
21
 10
37.9586
 20
0.9403
 30
0.0000
  0
VERTEX
  8
21
 10
38.2637
 20
0.9403
 30
0.0000
  0
SEQEND
  8
0
  0
POLYLINE
  8
21
 66
1
 10
0.0000
 20
0.0000
 30
0.0000
 40
0.0762
 41
0.0762
 70
0
  0
VERTEX
  8
21
 10
38.2637
 20
0.9022
 30
0.0000
 42
1.0000
  0
VERTEX
  8
21
 10
38.2637
 20
0.9784
 30
0.0000
  0
SEQEND
  8
0
  0
POLYLINE
  8
21
 66
1
 10
0.0000
 20
0.0000
 30
0.0000
 40
0.0762
 41
0.0762
 70
0
  0
VERTEX
  8
21
 10
37.9586
 20
0.9784
 30
0.0000
 42
1.0000
  0
VERTEX
  8
21
 10
37.9586
 20
0.9022
 30
0.0000
  0
SEQEND
  8
0
  0
POLYLINE
  8
21
 66
1
 10
0.0000
 20
0.0000
 30
0.0000
 40
0.1524
 41
0.1524
 70
0
  0
VERTEX
  8
21
 10
38.2637
 20
0.9403
 30
0.0000
  0
VERTEX
  8
21
 10
38.3654
 20
0.8386
 30
0.0000
  0
SEQEND
  8
0
  0
POLYLINE
  8
21
 66
1
 10
0.0000
 20
0.0000
 30
0.0000
 40
0.0762
 41
0.0762
 70
0
  0
VERTEX
  8
21
 10
38.3385
 20
0.8117
 30
0.0000
 42
1.0000
  0
VERTEX
  8
21
 10
38.3923
 20
0.8656
 30
0.0000
  0
SEQEND
  8
0
  0
POLYLINE
  8
21
 66
1
 10
0.0000
 20
0.0000
 30
0.0000
 40
0.0762
 41
0.0762
 70
0
  0
VERTEX
  8
21
 10
38.2906
 20
0.9673
 30
0.0000
 42
1.0000
  0
VERTEX
  8
21
 10
38.2368
 20
0.9134
 30
0.0000
  0
SEQEND
  8
0
  0
POLYLINE
  8
21
 66
1
 10
0.0000
 20
0.0000
 30
0.0000
 40
0.1524
 41
0.1524
 70
0
  0
VERTEX
  8
21
 10
38.3654
 20
0.8386
 30
0.0000
  0
VERTEX
  8
21
 10
38.3654
 20
0.6353
 30
0.0000
  0
SEQEND
  8
0
  0
POLYLINE
  8
21
 66
1
 10
0.0000
 20
0.0000
 30
0.0000
 40
0.0762
 41
0.0762
 70
0
  0
VERTEX
  8
21
 10
38.3273
 20
0.6353
 30
0.0000
 42
1.0000
  0
VERTEX
  8
21
 10
38.4035
 20
0.6353
 30
0.0000
  0
SEQEND
  8
0
  0
POLYLINE
  8
21
 66
1
 10
0.0000
 20
0.0000
 30
0.0000
 40
0.0762
 41
0.0762
 70
0
  0
VERTEX
  8
21
 10
38.4035
 20
0.8386
 30
0.0000
 42
1.0000
  0
VERTEX
  8
21
 10
38.3273
 20
0.8386
 30
0.0000
  0
SEQEND
  8
0
  0
POLYLINE
  8
21
 66
1
 10
0.0000
 20
0.0000
 30
0.0000
 40
0.1524
 41
0.1524
 70
0
  0
VERTEX
  8
21
 10
38.3654
 20
0.6353
 30
0.0000
  0
VERTEX
  8
21
 10
38.2637
 20
0.5336
 30
0.0000
  0
SEQEND
  8
0
  0
POLYLINE
  8
21
 66
1
 10
0.0000
 20
0.0000
 30
0.0000
 40
0.0762
 41
0.0762
 70
0
  0
VERTEX
  8
21
 10
38.2368
 20
0.5605
 30
0.0000
 42
1.0000
  0
VERTEX
  8
21
 10
38.2907
 20
0.5066
 30
0.0000
  0
SEQEND
  8
0
  0
POLYLINE
  8
21
 66
1
 10
0.0000
 20
0.0000
 30
0.0000
 40
0.0762
 41
0.0762
 70
0
  0
VERTEX
  8
21
 10
38.3923
 20
0.6083
 30
0.0000
 42
1.0000
  0
VERTEX
  8
21
 10
38.3385
 20
0.6622
 30
0.0000
  0
SEQEND
  8
0
  0
POLYLINE
  8
21
 66
1
 10
0.0000
 20
0.0000
 30
0.0000
 40
0.1524
 41
0.1524
 70
0
  0
VERTEX
  8
21
 10
38.2637
 20
0.5336
 30
0.0000
  0
VERTEX
  8
21
 10
37.9586
 20
0.5336
 30
0.0000
  0
SEQEND
  8
0
  0
POLYLINE
  8
21
 66
1
 10
0.0000
 20
0.0000
 30
0.0000
 40
0.0762
 41
0.0762
 70
0
  0
VERTEX
  8
21
 10
37.9586
 20
0.5717
 30
0.0000
 42
1.0000
  0
VERTEX
  8
21
 10
37.9586
 20
0.4955
 30
0.0000
  0
SEQEND
  8
0
  0
POLYLINE
  8
21
 66
1
 10
0.0000
 20
0.0000
 30
0.0000
 40
0.0762
 41
0.0762
 70
0
  0
VERTEX
  8
21
 10
38.2637
 20
0.4955
 30
0.0000
 42
1.0000
  0
VERTEX
  8
21
 10
38.2637
 20
0.5717
 30
0.0000
  0
SEQEND
  8
0
  0
POLYLINE
  8
21
 66
1
 10
0.0000
 20
0.0000
 30
0.0000
 40
0.1524
 41
0.1524
 70
0
  0
VERTEX
  8
21
 10
38.1620
 20
0.5336
 30
0.0000
  0
VERTEX
  8
21
 10
38.3654
 20
0.3302
 30
0.0000
  0
SEQEND
  8
0
  0
POLYLINE
  8
21
 66
1
 10
0.0000
 20
0.0000
 30
0.0000
 40
0.0762
 41
0.0762
 70
0
  0
VERTEX
  8
21
 10
38.3385
 20
0.3033
 30
0.0000
 42
1.0000
  0
VERTEX
  8
21
 10
38.3923
 20
0.3571
 30
0.0000
  0
SEQEND
  8
0
  0
POLYLINE
  8
21
 66
1
 10
0.0000
 20
0.0000
 30
0.0000
 40
0.0762
 41
0.0762
 70
0
  0
VERTEX
  8
21
 10
38.1890
 20
0.5605
 30
0.0000
 42
1.0000
  0
VERTEX
  8
21
 10
38.1351
 20
0.5066
 30
0.0000
  0
SEQEND
  8
0
  0
POLYLINE
  8
21
 66
1
 10
0.0000
 20
0.0000
 30
0.0000
 40
0.1524
 41
0.1524
 70
0
  0
VERTEX
  8
21
 10
55.1213
 20
0.3302
 30
0.0000
  0
VERTEX
  8
21
 10
55.1213
 20
0.7369
 30
0.0000
  0
SEQEND
  8
0
  0
POLYLINE
  8
21
 66
1
 10
0.0000
 20
0.0000
 30
0.0000
 40
0.0762
 41
0.0762
 70
0
  0
VERTEX
  8
21
 10
55.1594
 20
0.7369
 30
0.0000
 42
1.0000
  0
VERTEX
  8
21
 10
55.0832
 20
0.7369
 30
0.0000
  0
SEQEND
  8
0
  0
POLYLINE
  8
21
 66
1
 10
0.0000
 20
0.0000
 30
0.0000
 40
0.0762
 41
0.0762
 70
0
  0
VERTEX
  8
21
 10
55.0832
 20
0.3302
 30
0.0000
 42
1.0000
  0
VERTEX
  8
21
 10
55.1594
 20
0.3302
 30
0.0000
  0
SEQEND
  8
0
  0
POLYLINE
  8
21
 66
1
 10
0.0000
 20
0.0000
 30
0.0000
 40
0.1524
 41
0.1524
 70
0
  0
VERTEX
  8
21
 10
55.1213
 20
0.7369
 30
0.0000
  0
VERTEX
  8
21
 10
55.3247
 20
0.9403
 30
0.0000
  0
SEQEND
  8
0
  0
POLYLINE
  8
21
 66
1
 10
0.0000
 20
0.0000
 30
0.0000
 40
0.0762
 41
0.0762
 70
0
  0
VERTEX
  8
21
 10
55.3516
 20
0.9134
 30
0.0000
 42
1.0000
  0
VERTEX
  8
21
 10
55.2977
 20
0.9673
 30
0.0000
  0
SEQEND
  8
0
  0
POLYLINE
  8
21
 66
1
 10
0.0000
 20
0.0000
 30
0.0000
 40
0.0762
 41
0.0762
 70
0
  0
VERTEX
  8
21
 10
55.0943
 20
0.7639
 30
0.0000
 42
1.0000
  0
VERTEX
  8
21
 10
55.1482
 20
0.7100
 30
0.0000
  0
SEQEND
  8
0
  0
POLYLINE
  8
21
 66
1
 10
0.0000
 20
0.0000
 30
0.0000
 40
0.1524
 41
0.1524
 70
0
  0
VERTEX
  8
21
 10
55.3247
 20
0.9403
 30
0.0000
  0
VERTEX
  8
21
 10
55.5280
 20
0.7369
 30
0.0000
  0
SEQEND
  8
0
  0
POLYLINE
  8
21
 66
1
 10
0.0000
 20
0.0000
 30
0.0000
 40
0.0762
 41
0.0762
 70
0
  0
VERTEX
  8
21
 10
55.5011
 20
0.7100
 30
0.0000
 42
1.0000
  0
VERTEX
  8
21
 10
55.5550
 20
0.7639
 30
0.0000
  0
SEQEND
  8
0
  0
POLYLINE
  8
21
 66
1
 10
0.0000
 20
0.0000
 30
0.0000
 40
0.0762
 41
0.0762
 70
0
  0
VERTEX
  8
21
 10
55.3516
 20
0.9673
 30
0.0000
 42
1.0000
  0
VERTEX
  8
21
 10
55.2977
 20
0.9134
 30
0.0000
  0
SEQEND
  8
0
  0
POLYLINE
  8
21
 66
1
 10
0.0000
 20
0.0000
 30
0.0000
 40
0.1524
 41
0.1524
 70
0
  0
VERTEX
  8
21
 10
55.5280
 20
0.7369
 30
0.0000
  0
VERTEX
  8
21
 10
55.5280
 20
0.3302
 30
0.0000
  0
SEQEND
  8
0
  0
POLYLINE
  8
21
 66
1
 10
0.0000
 20
0.0000
 30
0.0000
 40
0.0762
 41
0.0762
 70
0
  0
VERTEX
  8
21
 10
55.4899
 20
0.3302
 30
0.0000
 42
1.0000
  0
VERTEX
  8
21
 10
55.5661
 20
0.3302
 30
0.0000
  0
SEQEND
  8
0
  0
POLYLINE
  8
21
 66
1
 10
0.0000
 20
0.0000
 30
0.0000
 40
0.0762
 41
0.0762
 70
0
  0
VERTEX
  8
21
 10
55.5661
 20
0.7369
 30
0.0000
 42
1.0000
  0
VERTEX
  8
21
 10
55.4899
 20
0.7369
 30
0.0000
  0
SEQEND
  8
0
  0
POLYLINE
  8
21
 66
1
 10
0.0000
 20
0.0000
 30
0.0000
 40
0.1524
 41
0.1524
 70
0
  0
VERTEX
  8
21
 10
55.1213
 20
0.6353
 30
0.0000
  0
VERTEX
  8
21
 10
55.5280
 20
0.6353
 30
0.0000
  0
SEQEND
  8
0
  0
POLYLINE
  8
21
 66
1
 10
0.0000
 20
0.0000
 30
0.0000
 40
0.0762
 41
0.0762
 70
0
  0
VERTEX
  8
21
 10
55.5280
 20
0.5972
 30
0.0000
 42
1.0000
  0
VERTEX
  8
21
 10
55.5280
 20
0.6734
 30
0.0000
  0
SEQEND
  8
0
  0
POLYLINE
  8
21
 66
1
 10
0.0000
 20
0.0000
 30
0.0000
 40
0.0762
 41
0.0762
 70
0
  0
VERTEX
  8
21
 10
55.1213
 20
0.6734
 30
0.0000
 42
1.0000
  0
VERTEX
  8
21
 10
55.1213
 20
0.5972
 30
0.0000
  0
SEQEND
  8
0
  0
POLYLINE
  8
21
 66
1
 10
0.0000
 20
0.0000
 30
0.0000
 40
0.1524
 41
0.1524
 70
0
  0
VERTEX
  8
21
 10
55.8229
 20
0.3302
 30
0.0000
  0
VERTEX
  8
21
 10
55.8229
 20
0.9403
 30
0.0000
  0
SEQEND
  8
0
  0
POLYLINE
  8
21
 66
1
 10
0.0000
 20
0.0000
 30
0.0000
 40
0.0762
 41
0.0762
 70
0
  0
VERTEX
  8
21
 10
55.8610
 20
0.9403
 30
0.0000
 42
1.0000
  0
VERTEX
  8
21
 10
55.7848
 20
0.9403
 30
0.0000
  0
SEQEND
  8
0
  0
POLYLINE
  8
21
 66
1
 10
0.0000
 20
0.0000
 30
0.0000
 40
0.0762
 41
0.0762
 70
0
  0
VERTEX
  8
21
 10
55.7848
 20
0.3302
 30
0.0000
 42
1.0000
  0
VERTEX
  8
21
 10
55.8610
 20
0.3302
 30
0.0000
  0
SEQEND
  8
0
  0
POLYLINE
  8
21
 66
1
 10
0.0000
 20
0.0000
 30
0.0000
 40
0.1524
 41
0.1524
 70
0
  0
VERTEX
  8
21
 10
55.8229
 20
0.9403
 30
0.0000
  0
VERTEX
  8
21
 10
56.2297
 20
0.3302
 30
0.0000
  0
SEQEND
  8
0
  0
POLYLINE
  8
21
 66
1
 10
0.0000
 20
0.0000
 30
0.0000
 40
0.0762
 41
0.0762
 70
0
  0
VERTEX
  8
21
 10
56.1980
 20
0.3091
 30
0.0000
 42
1.0000
  0
VERTEX
  8
21
 10
56.2614
 20
0.3513
 30
0.0000
  0
SEQEND
  8
0
  0
POLYLINE
  8
21
 66
1
 10
0.0000
 20
0.0000
 30
0.0000
 40
0.0762
 41
0.0762
 70
0
  0
VERTEX
  8
21
 10
55.8546
 20
0.9615
 30
0.0000
 42
1.0000
  0
VERTEX
  8
21
 10
55.7912
 20
0.9192
 30
0.0000
  0
SEQEND
  8
0
  0
POLYLINE
  8
21
 66
1
 10
0.0000
 20
0.0000
 30
0.0000
 40
0.1524
 41
0.1524
 70
0
  0
VERTEX
  8
21
 10
56.2297
 20
0.3302
 30
0.0000
  0
VERTEX
  8
21
 10
56.2297
 20
0.9403
 30
0.0000
  0
SEQEND
  8
0
  0
POLYLINE
  8
21
 66
1
 10
0.0000
 20
0.0000
 30
0.0000
 40
0.0762
 41
0.0762
 70
0
  0
VERTEX
  8
21
 10
56.2678
 20
0.9403
 30
0.0000
 42
1.0000
  0
VERTEX
  8
21
 10
56.1916
 20
0.9403
 30
0.0000
  0
SEQEND
  8
0
  0
POLYLINE
  8
21
 66
1
 10
0.0000
 20
0.0000
 30
0.0000
 40
0.0762
 41
0.0762
 70
0
  0
VERTEX
  8
21
 10
56.1916
 20
0.3302
 30
0.0000
 42
1.0000
  0
VERTEX
  8
21
 10
56.2678
 20
0.3302
 30
0.0000
  0
SEQEND
  8
0
  0
POLYLINE
  8
21
 66
1
 10
0.0000
 20
0.0000
 30
0.0000
 40
0.1524
 41
0.1524
 70
0
  0
VERTEX
  8
21
 10
56.5246
 20
0.3302
 30
0.0000
  0
VERTEX
  8
21
 10
56.5246
 20
0.7369
 30
0.0000
  0
SEQEND
  8
0
  0
POLYLINE
  8
21
 66
1
 10
0.0000
 20
0.0000
 30
0.0000
 40
0.0762
 41
0.0762
 70
0
  0
VERTEX
  8
21
 10
56.5627
 20
0.7369
 30
0.0000
 42
1.0000
  0
VERTEX
  8
21
 10
56.4865
 20
0.7369
 30
0.0000
  0
SEQEND
  8
0
  0
POLYLINE
  8
21
 66
1
 10
0.0000
 20
0.0000
 30
0.0000
 40
0.0762
 41
0.0762
 70
0
  0
VERTEX
  8
21
 10
56.4865
 20
0.3302
 30
0.0000
 42
1.0000
  0
VERTEX
  8
21
 10
56.5627
 20
0.3302
 30
0.0000
  0
SEQEND
  8
0
  0
POLYLINE
  8
21
 66
1
 10
0.0000
 20
0.0000
 30
0.0000
 40
0.1524
 41
0.1524
 70
0
  0
VERTEX
  8
21
 10
56.5246
 20
0.7369
 30
0.0000
  0
VERTEX
  8
21
 10
56.7279
 20
0.9403
 30
0.0000
  0
SEQEND
  8
0
  0
POLYLINE
  8
21
 66
1
 10
0.0000
 20
0.0000
 30
0.0000
 40
0.0762
 41
0.0762
 70
0
  0
VERTEX
  8
21
 10
56.7549
 20
0.9134
 30
0.0000
 42
1.0000
  0
VERTEX
  8
21
 10
56.7010
 20
0.9673
 30
0.0000
  0
SEQEND
  8
0
  0
POLYLINE
  8
21
 66
1
 10
0.0000
 20
0.0000
 30
0.0000
 40
0.0762
 41
0.0762
 70
0
  0
VERTEX
  8
21
 10
56.4976
 20
0.7639
 30
0.0000
 42
1.0000
  0
VERTEX
  8
21
 10
56.5515
 20
0.7100
 30
0.0000
  0
SEQEND
  8
0
  0
POLYLINE
  8
21
 66
1
 10
0.0000
 20
0.0000
 30
0.0000
 40
0.1524
 41
0.1524
 70
0
  0
VERTEX
  8
21
 10
56.7279
 20
0.9403
 30
0.0000
  0
VERTEX
  8
21
 10
56.9313
 20
0.7369
 30
0.0000
  0
SEQEND
  8
0
  0
POLYLINE
  8
21
 66
1
 10
0.0000
 20
0.0000
 30
0.0000
 40
0.0762
 41
0.0762
 70
0
  0
VERTEX
  8
21
 10
56.9044
 20
0.7100
 30
0.0000
 42
1.0000
  0
VERTEX
  8
21
 10
56.9582
 20
0.7639
 30
0.0000
  0
SEQEND
  8
0
  0
POLYLINE
  8
21
 66
1
 10
0.0000
 20
0.0000
 30
0.0000
 40
0.0762
 41
0.0762
 70
0
  0
VERTEX
  8
21
 10
56.7549
 20
0.9673
 30
0.0000
 42
1.0000
  0
VERTEX
  8
21
 10
56.7010
 20
0.9134
 30
0.0000
  0
SEQEND
  8
0
  0
POLYLINE
  8
21
 66
1
 10
0.0000
 20
0.0000
 30
0.0000
 40
0.1524
 41
0.1524
 70
0
  0
VERTEX
  8
21
 10
56.9313
 20
0.7369
 30
0.0000
  0
VERTEX
  8
21
 10
56.9313
 20
0.3302
 30
0.0000
  0
SEQEND
  8
0
  0
POLYLINE
  8
21
 66
1
 10
0.0000
 20
0.0000
 30
0.0000
 40
0.0762
 41
0.0762
 70
0
  0
VERTEX
  8
21
 10
56.8932
 20
0.3302
 30
0.0000
 42
1.0000
  0
VERTEX
  8
21
 10
56.9694
 20
0.3302
 30
0.0000
  0
SEQEND
  8
0
  0
POLYLINE
  8
21
 66
1
 10
0.0000
 20
0.0000
 30
0.0000
 40
0.0762
 41
0.0762
 70
0
  0
VERTEX
  8
21
 10
56.9694
 20
0.7369
 30
0.0000
 42
1.0000
  0
VERTEX
  8
21
 10
56.8932
 20
0.7369
 30
0.0000
  0
SEQEND
  8
0
  0
POLYLINE
  8
21
 66
1
 10
0.0000
 20
0.0000
 30
0.0000
 40
0.1524
 41
0.1524
 70
0
  0
VERTEX
  8
21
 10
56.5246
 20
0.6353
 30
0.0000
  0
VERTEX
  8
21
 10
56.9313
 20
0.6353
 30
0.0000
  0
SEQEND
  8
0
  0
POLYLINE
  8
21
 66
1
 10
0.0000
 20
0.0000
 30
0.0000
 40
0.0762
 41
0.0762
 70
0
  0
VERTEX
  8
21
 10
56.9313
 20
0.5972
 30
0.0000
 42
1.0000
  0
VERTEX
  8
21
 10
56.9313
 20
0.6734
 30
0.0000
  0
SEQEND
  8
0
  0
POLYLINE
  8
21
 66
1
 10
0.0000
 20
0.0000
 30
0.0000
 40
0.0762
 41
0.0762
 70
0
  0
VERTEX
  8
21
 10
56.5246
 20
0.6734
 30
0.0000
 42
1.0000
  0
VERTEX
  8
21
 10
56.5246
 20
0.5972
 30
0.0000
  0
SEQEND
  8
0
  0
POLYLINE
  8
21
 66
1
 10
0.0000
 20
0.0000
 30
0.0000
 40
0.1524
 41
0.1524
 70
0
  0
VERTEX
  8
21
 10
57.2262
 20
0.9403
 30
0.0000
  0
VERTEX
  8
21
 10
57.2262
 20
0.3302
 30
0.0000
  0
SEQEND
  8
0
  0
POLYLINE
  8
21
 66
1
 10
0.0000
 20
0.0000
 30
0.0000
 40
0.0762
 41
0.0762
 70
0
  0
VERTEX
  8
21
 10
57.1881
 20
0.3302
 30
0.0000
 42
1.0000
  0
VERTEX
  8
21
 10
57.2643
 20
0.3302
 30
0.0000
  0
SEQEND
  8
0
  0
POLYLINE
  8
21
 66
1
 10
0.0000
 20
0.0000
 30
0.0000
 40
0.0762
 41
0.0762
 70
0
  0
VERTEX
  8
21
 10
57.2643
 20
0.9403
 30
0.0000
 42
1.0000
  0
VERTEX
  8
21
 10
57.1881
 20
0.9403
 30
0.0000
  0
SEQEND
  8
0
  0
POLYLINE
  8
21
 66
1
 10
0.0000
 20
0.0000
 30
0.0000
 40
0.1524
 41
0.1524
 70
0
  0
VERTEX
  8
21
 10
57.2262
 20
0.3302
 30
0.0000
  0
VERTEX
  8
21
 10
57.6329
 20
0.3302
 30
0.0000
  0
SEQEND
  8
0
  0
POLYLINE
  8
21
 66
1
 10
0.0000
 20
0.0000
 30
0.0000
 40
0.0762
 41
0.0762
 70
0
  0
VERTEX
  8
21
 10
57.6329
 20
0.2921
 30
0.0000
 42
1.0000
  0
VERTEX
  8
21
 10
57.6329
 20
0.3683
 30
0.0000
  0
SEQEND
  8
0
  0
POLYLINE
  8
21
 66
1
 10
0.0000
 20
0.0000
 30
0.0000
 40
0.0762
 41
0.0762
 70
0
  0
VERTEX
  8
21
 10
57.2262
 20
0.3683
 30
0.0000
 42
1.0000
  0
VERTEX
  8
21
 10
57.2262
 20
0.2921
 30
0.0000
  0
SEQEND
  8
0
  0
POLYLINE
  8
21
 66
1
 10
0.0000
 20
0.0000
 30
0.0000
 40
0.1524
 41
0.1524
 70
0
  0
VERTEX
  8
21
 10
58.2329
 20
0.9403
 30
0.0000
  0
VERTEX
  8
21
 10
58.0295
 20
0.9403
 30
0.0000
  0
SEQEND
  8
0
  0
POLYLINE
  8
21
 66
1
 10
0.0000
 20
0.0000
 30
0.0000
 40
0.0762
 41
0.0762
 70
0
  0
VERTEX
  8
21
 10
58.0295
 20
0.9784
 30
0.0000
 42
1.0000
  0
VERTEX
  8
21
 10
58.0295
 20
0.9022
 30
0.0000
  0
SEQEND
  8
0
  0
POLYLINE
  8
21
 66
1
 10
0.0000
 20
0.0000
 30
0.0000
 40
0.0762
 41
0.0762
 70
0
  0
VERTEX
  8
21
 10
58.2329
 20
0.9022
 30
0.0000
 42
1.0000
  0
VERTEX
  8
21
 10
58.2329
 20
0.9784
 30
0.0000
  0
SEQEND
  8
0
  0
POLYLINE
  8
21
 66
1
 10
0.0000
 20
0.0000
 30
0.0000
 40
0.1524
 41
0.1524
 70
0
  0
VERTEX
  8
21
 10
58.0295
 20
0.9403
 30
0.0000
  0
VERTEX
  8
21
 10
57.9278
 20
0.8386
 30
0.0000
  0
SEQEND
  8
0
  0
POLYLINE
  8
21
 66
1
 10
0.0000
 20
0.0000
 30
0.0000
 40
0.0762
 41
0.0762
 70
0
  0
VERTEX
  8
21
 10
57.9009
 20
0.8656
 30
0.0000
 42
1.0000
  0
VERTEX
  8
21
 10
57.9548
 20
0.8117
 30
0.0000
  0
SEQEND
  8
0
  0
POLYLINE
  8
21
 66
1
 10
0.0000
 20
0.0000
 30
0.0000
 40
0.0762
 41
0.0762
 70
0
  0
VERTEX
  8
21
 10
58.0565
 20
0.9134
 30
0.0000
 42
1.0000
  0
VERTEX
  8
21
 10
58.0026
 20
0.9673
 30
0.0000
  0
SEQEND
  8
0
  0
POLYLINE
  8
21
 66
1
 10
0.0000
 20
0.0000
 30
0.0000
 40
0.1524
 41
0.1524
 70
0
  0
VERTEX
  8
21
 10
57.9278
 20
0.8386
 30
0.0000
  0
VERTEX
  8
21
 10
57.9278
 20
0.4319
 30
0.0000
  0
SEQEND
  8
0
  0
POLYLINE
  8
21
 66
1
 10
0.0000
 20
0.0000
 30
0.0000
 40
0.0762
 41
0.0762
 70
0
  0
VERTEX
  8
21
 10
57.8897
 20
0.4319
 30
0.0000
 42
1.0000
  0
VERTEX
  8
21
 10
57.9659
 20
0.4319
 30
0.0000
  0
SEQEND
  8
0
  0
POLYLINE
  8
21
 66
1
 10
0.0000
 20
0.0000
 30
0.0000
 40
0.0762
 41
0.0762
 70
0
  0
VERTEX
  8
21
 10
57.9659
 20
0.8386
 30
0.0000
 42
1.0000
  0
VERTEX
  8
21
 10
57.8897
 20
0.8386
 30
0.0000
  0
SEQEND
  8
0
  0
POLYLINE
  8
21
 66
1
 10
0.0000
 20
0.0000
 30
0.0000
 40
0.1524
 41
0.1524
 70
0
  0
VERTEX
  8
21
 10
57.9278
 20
0.4319
 30
0.0000
  0
VERTEX
  8
21
 10
58.0295
 20
0.3302
 30
0.0000
  0
SEQEND
  8
0
  0
POLYLINE
  8
21
 66
1
 10
0.0000
 20
0.0000
 30
0.0000
 40
0.0762
 41
0.0762
 70
0
  0
VERTEX
  8
21
 10
58.0026
 20
0.3033
 30
0.0000
 42
1.0000
  0
VERTEX
  8
21
 10
58.0565
 20
0.3571
 30
0.0000
  0
SEQEND
  8
0
  0
POLYLINE
  8
21
 66
1
 10
0.0000
 20
0.0000
 30
0.0000
 40
0.0762
 41
0.0762
 70
0
  0
VERTEX
  8
21
 10
57.9548
 20
0.4588
 30
0.0000
 42
1.0000
  0
VERTEX
  8
21
 10
57.9009
 20
0.4049
 30
0.0000
  0
SEQEND
  8
0
  0
POLYLINE
  8
21
 66
1
 10
0.0000
 20
0.0000
 30
0.0000
 40
0.1524
 41
0.1524
 70
0
  0
VERTEX
  8
21
 10
58.0295
 20
0.3302
 30
0.0000
  0
VERTEX
  8
21
 10
58.2329
 20
0.3302
 30
0.0000
  0
SEQEND
  8
0
  0
POLYLINE
  8
21
 66
1
 10
0.0000
 20
0.0000
 30
0.0000
 40
0.0762
 41
0.0762
 70
0
  0
VERTEX
  8
21
 10
58.2329
 20
0.2921
 30
0.0000
 42
1.0000
  0
VERTEX
  8
21
 10
58.2329
 20
0.3683
 30
0.0000
  0
SEQEND
  8
0
  0
POLYLINE
  8
21
 66
1
 10
0.0000
 20
0.0000
 30
0.0000
 40
0.0762
 41
0.0762
 70
0
  0
VERTEX
  8
21
 10
58.0295
 20
0.3683
 30
0.0000
 42
1.0000
  0
VERTEX
  8
21
 10
58.0295
 20
0.2921
 30
0.0000
  0
SEQEND
  8
0
  0
POLYLINE
  8
21
 66
1
 10
0.0000
 20
0.0000
 30
0.0000
 40
0.1524
 41
0.1524
 70
0
  0
VERTEX
  8
21
 10
58.2329
 20
0.3302
 30
0.0000
  0
VERTEX
  8
21
 10
58.3346
 20
0.4319
 30
0.0000
  0
SEQEND
  8
0
  0
POLYLINE
  8
21
 66
1
 10
0.0000
 20
0.0000
 30
0.0000
 40
0.0762
 41
0.0762
 70
0
  0
VERTEX
  8
21
 10
58.3615
 20
0.4049
 30
0.0000
 42
1.0000
  0
VERTEX
  8
21
 10
58.3076
 20
0.4588
 30
0.0000
  0
SEQEND
  8
0
  0
POLYLINE
  8
21
 66
1
 10
0.0000
 20
0.0000
 30
0.0000
 40
0.0762
 41
0.0762
 70
0
  0
VERTEX
  8
21
 10
58.2060
 20
0.3571
 30
0.0000
 42
1.0000
  0
VERTEX
  8
21
 10
58.2598
 20
0.3033
 30
0.0000
  0
SEQEND
  8
0
  0
POLYLINE
  8
21
 66
1
 10
0.0000
 20
0.0000
 30
0.0000
 40
0.1524
 41
0.1524
 70
0
  0
VERTEX
  8
21
 10
58.3346
 20
0.4319
 30
0.0000
  0
VERTEX
  8
21
 10
58.3346
 20
0.8386
 30
0.0000
  0
SEQEND
  8
0
  0
POLYLINE
  8
21
 66
1
 10
0.0000
 20
0.0000
 30
0.0000
 40
0.0762
 41
0.0762
 70
0
  0
VERTEX
  8
21
 10
58.3727
 20
0.8386
 30
0.0000
 42
1.0000
  0
VERTEX
  8
21
 10
58.2965
 20
0.8386
 30
0.0000
  0
SEQEND
  8
0
  0
POLYLINE
  8
21
 66
1
 10
0.0000
 20
0.0000
 30
0.0000
 40
0.0762
 41
0.0762
 70
0
  0
VERTEX
  8
21
 10
58.2965
 20
0.4319
 30
0.0000
 42
1.0000
  0
VERTEX
  8
21
 10
58.3727
 20
0.4319
 30
0.0000
  0
SEQEND
  8
0
  0
POLYLINE
  8
21
 66
1
 10
0.0000
 20
0.0000
 30
0.0000
 40
0.1524
 41
0.1524
 70
0
  0
VERTEX
  8
21
 10
58.3346
 20
0.8386
 30
0.0000
  0
VERTEX
  8
21
 10
58.2329
 20
0.9403
 30
0.0000
  0
SEQEND
  8
0
  0
POLYLINE
  8
21
 66
1
 10
0.0000
 20
0.0000
 30
0.0000
 40
0.0762
 41
0.0762
 70
0
  0
VERTEX
  8
21
 10
58.2598
 20
0.9673
 30
0.0000
 42
1.0000
  0
VERTEX
  8
21
 10
58.2060
 20
0.9134
 30
0.0000
  0
SEQEND
  8
0
  0
POLYLINE
  8
21
 66
1
 10
0.0000
 20
0.0000
 30
0.0000
 40
0.0762
 41
0.0762
 70
0
  0
VERTEX
  8
21
 10
58.3076
 20
0.8117
 30
0.0000
 42
1.0000
  0
VERTEX
  8
21
 10
58.3615
 20
0.8656
 30
0.0000
  0
SEQEND
  8
0
  0
POLYLINE
  8
21
 66
1
 10
0.0000
 20
0.0000
 30
0.0000
 40
0.1524
 41
0.1524
 70
0
  0
VERTEX
  8
21
 10
59.0362
 20
0.8386
 30
0.0000
  0
VERTEX
  8
21
 10
58.9345
 20
0.9403
 30
0.0000
  0
SEQEND
  8
0
  0
POLYLINE
  8
21
 66
1
 10
0.0000
 20
0.0000
 30
0.0000
 40
0.0762
 41
0.0762
 70
0
  0
VERTEX
  8
21
 10
58.9615
 20
0.9673
 30
0.0000
 42
1.0000
  0
VERTEX
  8
21
 10
58.9076
 20
0.9134
 30
0.0000
  0
SEQEND
  8
0
  0
POLYLINE
  8
21
 66
1
 10
0.0000
 20
0.0000
 30
0.0000
 40
0.0762
 41
0.0762
 70
0
  0
VERTEX
  8
21
 10
59.0093
 20
0.8117
 30
0.0000
 42
1.0000
  0
VERTEX
  8
21
 10
59.0632
 20
0.8656
 30
0.0000
  0
SEQEND
  8
0
  0
POLYLINE
  8
21
 66
1
 10
0.0000
 20
0.0000
 30
0.0000
 40
0.1524
 41
0.1524
 70
0
  0
VERTEX
  8
21
 10
58.9345
 20
0.9403
 30
0.0000
  0
VERTEX
  8
21
 10
58.7312
 20
0.9403
 30
0.0000
  0
SEQEND
  8
0
  0
POLYLINE
  8
21
 66
1
 10
0.0000
 20
0.0000
 30
0.0000
 40
0.0762
 41
0.0762
 70
0
  0
VERTEX
  8
21
 10
58.7312
 20
0.9784
 30
0.0000
 42
1.0000
  0
VERTEX
  8
21
 10
58.7312
 20
0.9022
 30
0.0000
  0
SEQEND
  8
0
  0
POLYLINE
  8
21
 66
1
 10
0.0000
 20
0.0000
 30
0.0000
 40
0.0762
 41
0.0762
 70
0
  0
VERTEX
  8
21
 10
58.9345
 20
0.9022
 30
0.0000
 42
1.0000
  0
VERTEX
  8
21
 10
58.9345
 20
0.9784
 30
0.0000
  0
SEQEND
  8
0
  0
POLYLINE
  8
21
 66
1
 10
0.0000
 20
0.0000
 30
0.0000
 40
0.1524
 41
0.1524
 70
0
  0
VERTEX
  8
21
 10
58.7312
 20
0.9403
 30
0.0000
  0
VERTEX
  8
21
 10
58.6295
 20
0.8386
 30
0.0000
  0
SEQEND
  8
0
  0
POLYLINE
  8
21
 66
1
 10
0.0000
 20
0.0000
 30
0.0000
 40
0.0762
 41
0.0762
 70
0
  0
VERTEX
  8
21
 10
58.6025
 20
0.8656
 30
0.0000
 42
1.0000
  0
VERTEX
  8
21
 10
58.6564
 20
0.8117
 30
0.0000
  0
SEQEND
  8
0
  0
POLYLINE
  8
21
 66
1
 10
0.0000
 20
0.0000
 30
0.0000
 40
0.0762
 41
0.0762
 70
0
  0
VERTEX
  8
21
 10
58.7581
 20
0.9134
 30
0.0000
 42
1.0000
  0
VERTEX
  8
21
 10
58.7042
 20
0.9673
 30
0.0000
  0
SEQEND
  8
0
  0
POLYLINE
  8
21
 66
1
 10
0.0000
 20
0.0000
 30
0.0000
 40
0.1524
 41
0.1524
 70
0
  0
VERTEX
  8
21
 10
58.6295
 20
0.8386
 30
0.0000
  0
VERTEX
  8
21
 10
58.6295
 20
0.4319
 30
0.0000
  0
SEQEND
  8
0
  0
POLYLINE
  8
21
 66
1
 10
0.0000
 20
0.0000
 30
0.0000
 40
0.0762
 41
0.0762
 70
0
  0
VERTEX
  8
21
 10
58.5914
 20
0.4319
 30
0.0000
 42
1.0000
  0
VERTEX
  8
21
 10
58.6676
 20
0.4319
 30
0.0000
  0
SEQEND
  8
0
  0
POLYLINE
  8
21
 66
1
 10
0.0000
 20
0.0000
 30
0.0000
 40
0.0762
 41
0.0762
 70
0
  0
VERTEX
  8
21
 10
58.6676
 20
0.8386
 30
0.0000
 42
1.0000
  0
VERTEX
  8
21
 10
58.5914
 20
0.8386
 30
0.0000
  0
SEQEND
  8
0
  0
POLYLINE
  8
21
 66
1
 10
0.0000
 20
0.0000
 30
0.0000
 40
0.1524
 41
0.1524
 70
0
  0
VERTEX
  8
21
 10
58.6295
 20
0.4319
 30
0.0000
  0
VERTEX
  8
21
 10
58.7312
 20
0.3302
 30
0.0000
  0
SEQEND
  8
0
  0
POLYLINE
  8
21
 66
1
 10
0.0000
 20
0.0000
 30
0.0000
 40
0.0762
 41
0.0762
 70
0
  0
VERTEX
  8
21
 10
58.7042
 20
0.3033
 30
0.0000
 42
1.0000
  0
VERTEX
  8
21
 10
58.7581
 20
0.3571
 30
0.0000
  0
SEQEND
  8
0
  0
POLYLINE
  8
21
 66
1
 10
0.0000
 20
0.0000
 30
0.0000
 40
0.0762
 41
0.0762
 70
0
  0
VERTEX
  8
21
 10
58.6564
 20
0.4588
 30
0.0000
 42
1.0000
  0
VERTEX
  8
21
 10
58.6025
 20
0.4049
 30
0.0000
  0
SEQEND
  8
0
  0
POLYLINE
  8
21
 66
1
 10
0.0000
 20
0.0000
 30
0.0000
 40
0.1524
 41
0.1524
 70
0
  0
VERTEX
  8
21
 10
58.7312
 20
0.3302
 30
0.0000
  0
VERTEX
  8
21
 10
58.9345
 20
0.3302
 30
0.0000
  0
SEQEND
  8
0
  0
POLYLINE
  8
21
 66
1
 10
0.0000
 20
0.0000
 30
0.0000
 40
0.0762
 41
0.0762
 70
0
  0
VERTEX
  8
21
 10
58.9345
 20
0.2921
 30
0.0000
 42
1.0000
  0
VERTEX
  8
21
 10
58.9345
 20
0.3683
 30
0.0000
  0
SEQEND
  8
0
  0
POLYLINE
  8
21
 66
1
 10
0.0000
 20
0.0000
 30
0.0000
 40
0.0762
 41
0.0762
 70
0
  0
VERTEX
  8
21
 10
58.7312
 20
0.3683
 30
0.0000
 42
1.0000
  0
VERTEX
  8
21
 10
58.7312
 20
0.2921
 30
0.0000
  0
SEQEND
  8
0
  0
POLYLINE
  8
21
 66
1
 10
0.0000
 20
0.0000
 30
0.0000
 40
0.1524
 41
0.1524
 70
0
  0
VERTEX
  8
21
 10
58.9345
 20
0.3302
 30
0.0000
  0
VERTEX
  8
21
 10
59.0362
 20
0.4319
 30
0.0000
  0
SEQEND
  8
0
  0
POLYLINE
  8
21
 66
1
 10
0.0000
 20
0.0000
 30
0.0000
 40
0.0762
 41
0.0762
 70
0
  0
VERTEX
  8
21
 10
59.0632
 20
0.4049
 30
0.0000
 42
1.0000
  0
VERTEX
  8
21
 10
59.0093
 20
0.4588
 30
0.0000
  0
SEQEND
  8
0
  0
POLYLINE
  8
21
 66
1
 10
0.0000
 20
0.0000
 30
0.0000
 40
0.0762
 41
0.0762
 70
0
  0
VERTEX
  8
21
 10
58.9076
 20
0.3571
 30
0.0000
 42
1.0000
  0
VERTEX
  8
21
 10
58.9615
 20
0.3033
 30
0.0000
  0
SEQEND
  8
0
  0
POLYLINE
  8
21
 66
1
 10
0.0000
 20
0.0000
 30
0.0000
 40
0.1524
 41
0.1524
 70
0
  0
VERTEX
  8
21
 10
59.0362
 20
0.4319
 30
0.0000
  0
VERTEX
  8
21
 10
59.0362
 20
0.6353
 30
0.0000
  0
SEQEND
  8
0
  0
POLYLINE
  8
21
 66
1
 10
0.0000
 20
0.0000
 30
0.0000
 40
0.0762
 41
0.0762
 70
0
  0
VERTEX
  8
21
 10
59.0743
 20
0.6353
 30
0.0000
 42
1.0000
  0
VERTEX
  8
21
 10
58.9981
 20
0.6353
 30
0.0000
  0
SEQEND
  8
0
  0
POLYLINE
  8
21
 66
1
 10
0.0000
 20
0.0000
 30
0.0000
 40
0.0762
 41
0.0762
 70
0
  0
VERTEX
  8
21
 10
58.9981
 20
0.4319
 30
0.0000
 42
1.0000
  0
VERTEX
  8
21
 10
59.0743
 20
0.4319
 30
0.0000
  0
SEQEND
  8
0
  0
POLYLINE
  8
21
 66
1
 10
0.0000
 20
0.0000
 30
0.0000
 40
0.1524
 41
0.1524
 70
0
  0
VERTEX
  8
21
 10
59.0362
 20
0.6353
 30
0.0000
  0
VERTEX
  8
21
 10
58.8328
 20
0.6353
 30
0.0000
  0
SEQEND
  8
0
  0
POLYLINE
  8
21
 66
1
 10
0.0000
 20
0.0000
 30
0.0000
 40
0.0762
 41
0.0762
 70
0
  0
VERTEX
  8
21
 10
58.8328
 20
0.6734
 30
0.0000
 42
1.0000
  0
VERTEX
  8
21
 10
58.8328
 20
0.5972
 30
0.0000
  0
SEQEND
  8
0
  0
POLYLINE
  8
21
 66
1
 10
0.0000
 20
0.0000
 30
0.0000
 40
0.0762
 41
0.0762
 70
0
  0
VERTEX
  8
21
 10
59.0362
 20
0.5972
 30
0.0000
 42
1.0000
  0
VERTEX
  8
21
 10
59.0362
 20
0.6734
 30
0.0000
  0
SEQEND
  8
0
  0
POLYLINE
  8
21
 66
1
 10
0.0000
 20
0.0000
 30
0.0000
 40
0.1524
 41
0.1524
 70
0
  0
VERTEX
  8
21
 10
52.4643
 20
53.0103
 30
0.0000
  0
VERTEX
  8
21
 10
52.4643
 20
52.4002
 30
0.0000
  0
SEQEND
  8
0
  0
POLYLINE
  8
21
 66
1
 10
0.0000
 20
0.0000
 30
0.0000
 40
0.0762
 41
0.0762
 70
0
  0
VERTEX
  8
21
 10
52.4262
 20
52.4002
 30
0.0000
 42
1.0000
  0
VERTEX
  8
21
 10
52.5024
 20
52.4002
 30
0.0000
  0
SEQEND
  8
0
  0
POLYLINE
  8
21
 66
1
 10
0.0000
 20
0.0000
 30
0.0000
 40
0.0762
 41
0.0762
 70
0
  0
VERTEX
  8
21
 10
52.5024
 20
53.0103
 30
0.0000
 42
1.0000
  0
VERTEX
  8
21
 10
52.4262
 20
53.0103
 30
0.0000
  0
SEQEND
  8
0
  0
POLYLINE
  8
21
 66
1
 10
0.0000
 20
0.0000
 30
0.0000
 40
0.1524
 41
0.1524
 70
0
  0
VERTEX
  8
21
 10
52.4643
 20
52.4002
 30
0.0000
  0
VERTEX
  8
21
 10
52.7694
 20
52.4002
 30
0.0000
  0
SEQEND
  8
0
  0
POLYLINE
  8
21
 66
1
 10
0.0000
 20
0.0000
 30
0.0000
 40
0.0762
 41
0.0762
 70
0
  0
VERTEX
  8
21
 10
52.7694
 20
52.3621
 30
0.0000
 42
1.0000
  0
VERTEX
  8
21
 10
52.7694
 20
52.4383
 30
0.0000
  0
SEQEND
  8
0
  0
POLYLINE
  8
21
 66
1
 10
0.0000
 20
0.0000
 30
0.0000
 40
0.0762
 41
0.0762
 70
0
  0
VERTEX
  8
21
 10
52.4643
 20
52.4383
 30
0.0000
 42
1.0000
  0
VERTEX
  8
21
 10
52.4643
 20
52.3621
 30
0.0000
  0
SEQEND
  8
0
  0
POLYLINE
  8
21
 66
1
 10
0.0000
 20
0.0000
 30
0.0000
 40
0.1524
 41
0.1524
 70
0
  0
VERTEX
  8
21
 10
52.7694
 20
52.4002
 30
0.0000
  0
VERTEX
  8
21
 10
52.8711
 20
52.5019
 30
0.0000
  0
SEQEND
  8
0
  0
POLYLINE
  8
21
 66
1
 10
0.0000
 20
0.0000
 30
0.0000
 40
0.0762
 41
0.0762
 70
0
  0
VERTEX
  8
21
 10
52.8980
 20
52.4749
 30
0.0000
 42
1.0000
  0
VERTEX
  8
21
 10
52.8442
 20
52.5288
 30
0.0000
  0
SEQEND
  8
0
  0
POLYLINE
  8
21
 66
1
 10
0.0000
 20
0.0000
 30
0.0000
 40
0.0762
 41
0.0762
 70
0
  0
VERTEX
  8
21
 10
52.7425
 20
52.4271
 30
0.0000
 42
1.0000
  0
VERTEX
  8
21
 10
52.7963
 20
52.3733
 30
0.0000
  0
SEQEND
  8
0
  0
POLYLINE
  8
21
 66
1
 10
0.0000
 20
0.0000
 30
0.0000
 40
0.1524
 41
0.1524
 70
0
  0
VERTEX
  8
21
 10
52.8711
 20
52.5019
 30
0.0000
  0
VERTEX
  8
21
 10
52.8711
 20
52.9086
 30
0.0000
  0
SEQEND
  8
0
  0
POLYLINE
  8
21
 66
1
 10
0.0000
 20
0.0000
 30
0.0000
 40
0.0762
 41
0.0762
 70
0
  0
VERTEX
  8
21
 10
52.9092
 20
52.9086
 30
0.0000
 42
1.0000
  0
VERTEX
  8
21
 10
52.8330
 20
52.9086
 30
0.0000
  0
SEQEND
  8
0
  0
POLYLINE
  8
21
 66
1
 10
0.0000
 20
0.0000
 30
0.0000
 40
0.0762
 41
0.0762
 70
0
  0
VERTEX
  8
21
 10
52.8330
 20
52.5019
 30
0.0000
 42
1.0000
  0
VERTEX
  8
21
 10
52.9092
 20
52.5019
 30
0.0000
  0
SEQEND
  8
0
  0
POLYLINE
  8
21
 66
1
 10
0.0000
 20
0.0000
 30
0.0000
 40
0.1524
 41
0.1524
 70
0
  0
VERTEX
  8
21
 10
52.8711
 20
52.9086
 30
0.0000
  0
VERTEX
  8
21
 10
52.7694
 20
53.0103
 30
0.0000
  0
SEQEND
  8
0
  0
POLYLINE
  8
21
 66
1
 10
0.0000
 20
0.0000
 30
0.0000
 40
0.0762
 41
0.0762
 70
0
  0
VERTEX
  8
21
 10
52.7963
 20
53.0373
 30
0.0000
 42
1.0000
  0
VERTEX
  8
21
 10
52.7425
 20
52.9834
 30
0.0000
  0
SEQEND
  8
0
  0
POLYLINE
  8
21
 66
1
 10
0.0000
 20
0.0000
 30
0.0000
 40
0.0762
 41
0.0762
 70
0
  0
VERTEX
  8
21
 10
52.8442
 20
52.8817
 30
0.0000
 42
1.0000
  0
VERTEX
  8
21
 10
52.8980
 20
52.9356
 30
0.0000
  0
SEQEND
  8
0
  0
POLYLINE
  8
21
 66
1
 10
0.0000
 20
0.0000
 30
0.0000
 40
0.1524
 41
0.1524
 70
0
  0
VERTEX
  8
21
 10
52.7694
 20
53.0103
 30
0.0000
  0
VERTEX
  8
21
 10
52.4643
 20
53.0103
 30
0.0000
  0
SEQEND
  8
0
  0
POLYLINE
  8
21
 66
1
 10
0.0000
 20
0.0000
 30
0.0000
 40
0.0762
 41
0.0762
 70
0
  0
VERTEX
  8
21
 10
52.4643
 20
53.0484
 30
0.0000
 42
1.0000
  0
VERTEX
  8
21
 10
52.4643
 20
52.9722
 30
0.0000
  0
SEQEND
  8
0
  0
POLYLINE
  8
21
 66
1
 10
0.0000
 20
0.0000
 30
0.0000
 40
0.0762
 41
0.0762
 70
0
  0
VERTEX
  8
21
 10
52.7694
 20
52.9722
 30
0.0000
 42
1.0000
  0
VERTEX
  8
21
 10
52.7694
 20
53.0484
 30
0.0000
  0
SEQEND
  8
0
  0
POLYLINE
  8
21
 66
1
 10
0.0000
 20
0.0000
 30
0.0000
 40
0.1524
 41
0.1524
 70
0
  0
VERTEX
  8
21
 10
53.1660
 20
52.4002
 30
0.0000
  0
VERTEX
  8
21
 10
53.3694
 20
52.4002
 30
0.0000
  0
SEQEND
  8
0
  0
POLYLINE
  8
21
 66
1
 10
0.0000
 20
0.0000
 30
0.0000
 40
0.0762
 41
0.0762
 70
0
  0
VERTEX
  8
21
 10
53.3694
 20
52.3621
 30
0.0000
 42
1.0000
  0
VERTEX
  8
21
 10
53.3694
 20
52.4383
 30
0.0000
  0
SEQEND
  8
0
  0
POLYLINE
  8
21
 66
1
 10
0.0000
 20
0.0000
 30
0.0000
 40
0.0762
 41
0.0762
 70
0
  0
VERTEX
  8
21
 10
53.1660
 20
52.4383
 30
0.0000
 42
1.0000
  0
VERTEX
  8
21
 10
53.1660
 20
52.3621
 30
0.0000
  0
SEQEND
  8
0
  0
POLYLINE
  8
21
 66
1
 10
0.0000
 20
0.0000
 30
0.0000
 40
0.1524
 41
0.1524
 70
0
  0
VERTEX
  8
21
 10
53.2677
 20
52.4002
 30
0.0000
  0
VERTEX
  8
21
 10
53.2677
 20
53.0103
 30
0.0000
  0
SEQEND
  8
0
  0
POLYLINE
  8
21
 66
1
 10
0.0000
 20
0.0000
 30
0.0000
 40
0.0762
 41
0.0762
 70
0
  0
VERTEX
  8
21
 10
53.3058
 20
53.0103
 30
0.0000
 42
1.0000
  0
VERTEX
  8
21
 10
53.2296
 20
53.0103
 30
0.0000
  0
SEQEND
  8
0
  0
POLYLINE
  8
21
 66
1
 10
0.0000
 20
0.0000
 30
0.0000
 40
0.0762
 41
0.0762
 70
0
  0
VERTEX
  8
21
 10
53.2296
 20
52.4002
 30
0.0000
 42
1.0000
  0
VERTEX
  8
21
 10
53.3058
 20
52.4002
 30
0.0000
  0
SEQEND
  8
0
  0
POLYLINE
  8
21
 66
1
 10
0.0000
 20
0.0000
 30
0.0000
 40
0.1524
 41
0.1524
 70
0
  0
VERTEX
  8
21
 10
53.1660
 20
53.0103
 30
0.0000
  0
VERTEX
  8
21
 10
53.3694
 20
53.0103
 30
0.0000
  0
SEQEND
  8
0
  0
POLYLINE
  8
21
 66
1
 10
0.0000
 20
0.0000
 30
0.0000
 40
0.0762
 41
0.0762
 70
0
  0
VERTEX
  8
21
 10
53.3694
 20
52.9722
 30
0.0000
 42
1.0000
  0
VERTEX
  8
21
 10
53.3694
 20
53.0484
 30
0.0000
  0
SEQEND
  8
0
  0
POLYLINE
  8
21
 66
1
 10
0.0000
 20
0.0000
 30
0.0000
 40
0.0762
 41
0.0762
 70
0
  0
VERTEX
  8
21
 10
53.1660
 20
53.0484
 30
0.0000
 42
1.0000
  0
VERTEX
  8
21
 10
53.1660
 20
52.9722
 30
0.0000
  0
SEQEND
  8
0
  0
POLYLINE
  8
21
 66
1
 10
0.0000
 20
0.0000
 30
0.0000
 40
0.1524
 41
0.1524
 70
0
  0
VERTEX
  8
21
 10
54.0405
 20
52.9086
 30
0.0000
  0
VERTEX
  8
21
 10
53.9388
 20
53.0103
 30
0.0000
  0
SEQEND
  8
0
  0
POLYLINE
  8
21
 66
1
 10
0.0000
 20
0.0000
 30
0.0000
 40
0.0762
 41
0.0762
 70
0
  0
VERTEX
  8
21
 10
53.9657
 20
53.0373
 30
0.0000
 42
1.0000
  0
VERTEX
  8
21
 10
53.9119
 20
52.9834
 30
0.0000
  0
SEQEND
  8
0
  0
POLYLINE
  8
21
 66
1
 10
0.0000
 20
0.0000
 30
0.0000
 40
0.0762
 41
0.0762
 70
0
  0
VERTEX
  8
21
 10
54.0135
 20
52.8817
 30
0.0000
 42
1.0000
  0
VERTEX
  8
21
 10
54.0674
 20
52.9356
 30
0.0000
  0
SEQEND
  8
0
  0
POLYLINE
  8
21
 66
1
 10
0.0000
 20
0.0000
 30
0.0000
 40
0.1524
 41
0.1524
 70
0
  0
VERTEX
  8
21
 10
53.9388
 20
53.0103
 30
0.0000
  0
VERTEX
  8
21
 10
53.7354
 20
53.0103
 30
0.0000
  0
SEQEND
  8
0
  0
POLYLINE
  8
21
 66
1
 10
0.0000
 20
0.0000
 30
0.0000
 40
0.0762
 41
0.0762
 70
0
  0
VERTEX
  8
21
 10
53.7354
 20
53.0484
 30
0.0000
 42
1.0000
  0
VERTEX
  8
21
 10
53.7354
 20
52.9722
 30
0.0000
  0
SEQEND
  8
0
  0
POLYLINE
  8
21
 66
1
 10
0.0000
 20
0.0000
 30
0.0000
 40
0.0762
 41
0.0762
 70
0
  0
VERTEX
  8
21
 10
53.9388
 20
52.9722
 30
0.0000
 42
1.0000
  0
VERTEX
  8
21
 10
53.9388
 20
53.0484
 30
0.0000
  0
SEQEND
  8
0
  0
POLYLINE
  8
21
 66
1
 10
0.0000
 20
0.0000
 30
0.0000
 40
0.1524
 41
0.1524
 70
0
  0
VERTEX
  8
21
 10
53.7354
 20
53.0103
 30
0.0000
  0
VERTEX
  8
21
 10
53.6337
 20
52.9086
 30
0.0000
  0
SEQEND
  8
0
  0
POLYLINE
  8
21
 66
1
 10
0.0000
 20
0.0000
 30
0.0000
 40
0.0762
 41
0.0762
 70
0
  0
VERTEX
  8
21
 10
53.6068
 20
52.9356
 30
0.0000
 42
1.0000
  0
VERTEX
  8
21
 10
53.6607
 20
52.8817
 30
0.0000
  0
SEQEND
  8
0
  0
POLYLINE
  8
21
 66
1
 10
0.0000
 20
0.0000
 30
0.0000
 40
0.0762
 41
0.0762
 70
0
  0
VERTEX
  8
21
 10
53.7624
 20
52.9834
 30
0.0000
 42
1.0000
  0
VERTEX
  8
21
 10
53.7085
 20
53.0373
 30
0.0000
  0
SEQEND
  8
0
  0
POLYLINE
  8
21
 66
1
 10
0.0000
 20
0.0000
 30
0.0000
 40
0.1524
 41
0.1524
 70
0
  0
VERTEX
  8
21
 10
53.6337
 20
52.9086
 30
0.0000
  0
VERTEX
  8
21
 10
53.6337
 20
52.5019
 30
0.0000
  0
SEQEND
  8
0
  0
POLYLINE
  8
21
 66
1
 10
0.0000
 20
0.0000
 30
0.0000
 40
0.0762
 41
0.0762
 70
0
  0
VERTEX
  8
21
 10
53.5956
 20
52.5019
 30
0.0000
 42
1.0000
  0
VERTEX
  8
21
 10
53.6718
 20
52.5019
 30
0.0000
  0
SEQEND
  8
0
  0
POLYLINE
  8
21
 66
1
 10
0.0000
 20
0.0000
 30
0.0000
 40
0.0762
 41
0.0762
 70
0
  0
VERTEX
  8
21
 10
53.6718
 20
52.9086
 30
0.0000
 42
1.0000
  0
VERTEX
  8
21
 10
53.5956
 20
52.9086
 30
0.0000
  0
SEQEND
  8
0
  0
POLYLINE
  8
21
 66
1
 10
0.0000
 20
0.0000
 30
0.0000
 40
0.1524
 41
0.1524
 70
0
  0
VERTEX
  8
21
 10
53.6337
 20
52.5019
 30
0.0000
  0
VERTEX
  8
21
 10
53.7354
 20
52.4002
 30
0.0000
  0
SEQEND
  8
0
  0
POLYLINE
  8
21
 66
1
 10
0.0000
 20
0.0000
 30
0.0000
 40
0.0762
 41
0.0762
 70
0
  0
VERTEX
  8
21
 10
53.7085
 20
52.3733
 30
0.0000
 42
1.0000
  0
VERTEX
  8
21
 10
53.7624
 20
52.4271
 30
0.0000
  0
SEQEND
  8
0
  0
POLYLINE
  8
21
 66
1
 10
0.0000
 20
0.0000
 30
0.0000
 40
0.0762
 41
0.0762
 70
0
  0
VERTEX
  8
21
 10
53.6607
 20
52.5288
 30
0.0000
 42
1.0000
  0
VERTEX
  8
21
 10
53.6068
 20
52.4749
 30
0.0000
  0
SEQEND
  8
0
  0
POLYLINE
  8
21
 66
1
 10
0.0000
 20
0.0000
 30
0.0000
 40
0.1524
 41
0.1524
 70
0
  0
VERTEX
  8
21
 10
53.7354
 20
52.4002
 30
0.0000
  0
VERTEX
  8
21
 10
53.9388
 20
52.4002
 30
0.0000
  0
SEQEND
  8
0
  0
POLYLINE
  8
21
 66
1
 10
0.0000
 20
0.0000
 30
0.0000
 40
0.0762
 41
0.0762
 70
0
  0
VERTEX
  8
21
 10
53.9388
 20
52.3621
 30
0.0000
 42
1.0000
  0
VERTEX
  8
21
 10
53.9388
 20
52.4383
 30
0.0000
  0
SEQEND
  8
0
  0
POLYLINE
  8
21
 66
1
 10
0.0000
 20
0.0000
 30
0.0000
 40
0.0762
 41
0.0762
 70
0
  0
VERTEX
  8
21
 10
53.7354
 20
52.4383
 30
0.0000
 42
1.0000
  0
VERTEX
  8
21
 10
53.7354
 20
52.3621
 30
0.0000
  0
SEQEND
  8
0
  0
POLYLINE
  8
21
 66
1
 10
0.0000
 20
0.0000
 30
0.0000
 40
0.1524
 41
0.1524
 70
0
  0
VERTEX
  8
21
 10
53.9388
 20
52.4002
 30
0.0000
  0
VERTEX
  8
21
 10
54.0405
 20
52.5019
 30
0.0000
  0
SEQEND
  8
0
  0
POLYLINE
  8
21
 66
1
 10
0.0000
 20
0.0000
 30
0.0000
 40
0.0762
 41
0.0762
 70
0
  0
VERTEX
  8
21
 10
54.0674
 20
52.4749
 30
0.0000
 42
1.0000
  0
VERTEX
  8
21
 10
54.0135
 20
52.5288
 30
0.0000
  0
SEQEND
  8
0
  0
POLYLINE
  8
21
 66
1
 10
0.0000
 20
0.0000
 30
0.0000
 40
0.0762
 41
0.0762
 70
0
  0
VERTEX
  8
21
 10
53.9119
 20
52.4271
 30
0.0000
 42
1.0000
  0
VERTEX
  8
21
 10
53.9657
 20
52.3733
 30
0.0000
  0
SEQEND
  8
0
  0
POLYLINE
  8
21
 66
1
 10
0.0000
 20
0.0000
 30
0.0000
 40
0.1524
 41
0.1524
 70
0
  0
VERTEX
  8
21
 10
54.0405
 20
52.5019
 30
0.0000
  0
VERTEX
  8
21
 10
54.0405
 20
52.7053
 30
0.0000
  0
SEQEND
  8
0
  0
POLYLINE
  8
21
 66
1
 10
0.0000
 20
0.0000
 30
0.0000
 40
0.0762
 41
0.0762
 70
0
  0
VERTEX
  8
21
 10
54.0786
 20
52.7053
 30
0.0000
 42
1.0000
  0
VERTEX
  8
21
 10
54.0024
 20
52.7053
 30
0.0000
  0
SEQEND
  8
0
  0
POLYLINE
  8
21
 66
1
 10
0.0000
 20
0.0000
 30
0.0000
 40
0.0762
 41
0.0762
 70
0
  0
VERTEX
  8
21
 10
54.0024
 20
52.5019
 30
0.0000
 42
1.0000
  0
VERTEX
  8
21
 10
54.0786
 20
52.5019
 30
0.0000
  0
SEQEND
  8
0
  0
POLYLINE
  8
21
 66
1
 10
0.0000
 20
0.0000
 30
0.0000
 40
0.1524
 41
0.1524
 70
0
  0
VERTEX
  8
21
 10
54.0405
 20
52.7053
 30
0.0000
  0
VERTEX
  8
21
 10
53.8371
 20
52.7053
 30
0.0000
  0
SEQEND
  8
0
  0
POLYLINE
  8
21
 66
1
 10
0.0000
 20
0.0000
 30
0.0000
 40
0.0762
 41
0.0762
 70
0
  0
VERTEX
  8
21
 10
53.8371
 20
52.7434
 30
0.0000
 42
1.0000
  0
VERTEX
  8
21
 10
53.8371
 20
52.6672
 30
0.0000
  0
SEQEND
  8
0
  0
POLYLINE
  8
21
 66
1
 10
0.0000
 20
0.0000
 30
0.0000
 40
0.0762
 41
0.0762
 70
0
  0
VERTEX
  8
21
 10
54.0405
 20
52.6672
 30
0.0000
 42
1.0000
  0
VERTEX
  8
21
 10
54.0405
 20
52.7434
 30
0.0000
  0
SEQEND
  8
0
  0
POLYLINE
  8
21
 66
1
 10
0.0000
 20
0.0000
 30
0.0000
 40
0.1524
 41
0.1524
 70
0
  0
VERTEX
  8
21
 10
54.3354
 20
52.4002
 30
0.0000
  0
VERTEX
  8
21
 10
54.5388
 20
52.4002
 30
0.0000
  0
SEQEND
  8
0
  0
POLYLINE
  8
21
 66
1
 10
0.0000
 20
0.0000
 30
0.0000
 40
0.0762
 41
0.0762
 70
0
  0
VERTEX
  8
21
 10
54.5388
 20
52.3621
 30
0.0000
 42
1.0000
  0
VERTEX
  8
21
 10
54.5388
 20
52.4383
 30
0.0000
  0
SEQEND
  8
0
  0
POLYLINE
  8
21
 66
1
 10
0.0000
 20
0.0000
 30
0.0000
 40
0.0762
 41
0.0762
 70
0
  0
VERTEX
  8
21
 10
54.3354
 20
52.4383
 30
0.0000
 42
1.0000
  0
VERTEX
  8
21
 10
54.3354
 20
52.3621
 30
0.0000
  0
SEQEND
  8
0
  0
POLYLINE
  8
21
 66
1
 10
0.0000
 20
0.0000
 30
0.0000
 40
0.1524
 41
0.1524
 70
0
  0
VERTEX
  8
21
 10
54.4371
 20
52.4002
 30
0.0000
  0
VERTEX
  8
21
 10
54.4371
 20
53.0103
 30
0.0000
  0
SEQEND
  8
0
  0
POLYLINE
  8
21
 66
1
 10
0.0000
 20
0.0000
 30
0.0000
 40
0.0762
 41
0.0762
 70
0
  0
VERTEX
  8
21
 10
54.4752
 20
53.0103
 30
0.0000
 42
1.0000
  0
VERTEX
  8
21
 10
54.3990
 20
53.0103
 30
0.0000
  0
SEQEND
  8
0
  0
POLYLINE
  8
21
 66
1
 10
0.0000
 20
0.0000
 30
0.0000
 40
0.0762
 41
0.0762
 70
0
  0
VERTEX
  8
21
 10
54.3990
 20
52.4002
 30
0.0000
 42
1.0000
  0
VERTEX
  8
21
 10
54.4752
 20
52.4002
 30
0.0000
  0
SEQEND
  8
0
  0
POLYLINE
  8
21
 66
1
 10
0.0000
 20
0.0000
 30
0.0000
 40
0.1524
 41
0.1524
 70
0
  0
VERTEX
  8
21
 10
54.3354
 20
53.0103
 30
0.0000
  0
VERTEX
  8
21
 10
54.5388
 20
53.0103
 30
0.0000
  0
SEQEND
  8
0
  0
POLYLINE
  8
21
 66
1
 10
0.0000
 20
0.0000
 30
0.0000
 40
0.0762
 41
0.0762
 70
0
  0
VERTEX
  8
21
 10
54.5388
 20
52.9722
 30
0.0000
 42
1.0000
  0
VERTEX
  8
21
 10
54.5388
 20
53.0484
 30
0.0000
  0
SEQEND
  8
0
  0
POLYLINE
  8
21
 66
1
 10
0.0000
 20
0.0000
 30
0.0000
 40
0.0762
 41
0.0762
 70
0
  0
VERTEX
  8
21
 10
54.3354
 20
53.0484
 30
0.0000
 42
1.0000
  0
VERTEX
  8
21
 10
54.3354
 20
52.9722
 30
0.0000
  0
SEQEND
  8
0
  0
POLYLINE
  8
21
 66
1
 10
0.0000
 20
0.0000
 30
0.0000
 40
0.1524
 41
0.1524
 70
0
  0
VERTEX
  8
21
 10
55.0065
 20
52.4002
 30
0.0000
  0
VERTEX
  8
21
 10
55.0065
 20
53.0103
 30
0.0000
  0
SEQEND
  8
0
  0
POLYLINE
  8
21
 66
1
 10
0.0000
 20
0.0000
 30
0.0000
 40
0.0762
 41
0.0762
 70
0
  0
VERTEX
  8
21
 10
55.0446
 20
53.0103
 30
0.0000
 42
1.0000
  0
VERTEX
  8
21
 10
54.9684
 20
53.0103
 30
0.0000
  0
SEQEND
  8
0
  0
POLYLINE
  8
21
 66
1
 10
0.0000
 20
0.0000
 30
0.0000
 40
0.0762
 41
0.0762
 70
0
  0
VERTEX
  8
21
 10
54.9684
 20
52.4002
 30
0.0000
 42
1.0000
  0
VERTEX
  8
21
 10
55.0446
 20
52.4002
 30
0.0000
  0
SEQEND
  8
0
  0
POLYLINE
  8
21
 66
1
 10
0.0000
 20
0.0000
 30
0.0000
 40
0.1524
 41
0.1524
 70
0
  0
VERTEX
  8
21
 10
54.8031
 20
53.0103
 30
0.0000
  0
VERTEX
  8
21
 10
55.2099
 20
53.0103
 30
0.0000
  0
SEQEND
  8
0
  0
POLYLINE
  8
21
 66
1
 10
0.0000
 20
0.0000
 30
0.0000
 40
0.0762
 41
0.0762
 70
0
  0
VERTEX
  8
21
 10
55.2099
 20
52.9722
 30
0.0000
 42
1.0000
  0
VERTEX
  8
21
 10
55.2099
 20
53.0484
 30
0.0000
  0
SEQEND
  8
0
  0
POLYLINE
  8
21
 66
1
 10
0.0000
 20
0.0000
 30
0.0000
 40
0.0762
 41
0.0762
 70
0
  0
VERTEX
  8
21
 10
54.8031
 20
53.0484
 30
0.0000
 42
1.0000
  0
VERTEX
  8
21
 10
54.8031
 20
52.9722
 30
0.0000
  0
SEQEND
  8
0
  0
POLYLINE
  8
21
 66
1
 10
0.0000
 20
0.0000
 30
0.0000
 40
0.1524
 41
0.1524
 70
0
  0
VERTEX
  8
21
 10
55.5048
 20
52.4002
 30
0.0000
  0
VERTEX
  8
21
 10
55.5048
 20
52.8069
 30
0.0000
  0
SEQEND
  8
0
  0
POLYLINE
  8
21
 66
1
 10
0.0000
 20
0.0000
 30
0.0000
 40
0.0762
 41
0.0762
 70
0
  0
VERTEX
  8
21
 10
55.5429
 20
52.8069
 30
0.0000
 42
1.0000
  0
VERTEX
  8
21
 10
55.4667
 20
52.8069
 30
0.0000
  0
SEQEND
  8
0
  0
POLYLINE
  8
21
 66
1
 10
0.0000
 20
0.0000
 30
0.0000
 40
0.0762
 41
0.0762
 70
0
  0
VERTEX
  8
21
 10
55.4667
 20
52.4002
 30
0.0000
 42
1.0000
  0
VERTEX
  8
21
 10
55.5429
 20
52.4002
 30
0.0000
  0
SEQEND
  8
0
  0
POLYLINE
  8
21
 66
1
 10
0.0000
 20
0.0000
 30
0.0000
 40
0.1524
 41
0.1524
 70
0
  0
VERTEX
  8
21
 10
55.5048
 20
52.8069
 30
0.0000
  0
VERTEX
  8
21
 10
55.7081
 20
53.0103
 30
0.0000
  0
SEQEND
  8
0
  0
POLYLINE
  8
21
 66
1
 10
0.0000
 20
0.0000
 30
0.0000
 40
0.0762
 41
0.0762
 70
0
  0
VERTEX
  8
21
 10
55.7351
 20
52.9834
 30
0.0000
 42
1.0000
  0
VERTEX
  8
21
 10
55.6812
 20
53.0373
 30
0.0000
  0
SEQEND
  8
0
  0
POLYLINE
  8
21
 66
1
 10
0.0000
 20
0.0000
 30
0.0000
 40
0.0762
 41
0.0762
 70
0
  0
VERTEX
  8
21
 10
55.4778
 20
52.8339
 30
0.0000
 42
1.0000
  0
VERTEX
  8
21
 10
55.5317
 20
52.7800
 30
0.0000
  0
SEQEND
  8
0
  0
POLYLINE
  8
21
 66
1
 10
0.0000
 20
0.0000
 30
0.0000
 40
0.1524
 41
0.1524
 70
0
  0
VERTEX
  8
21
 10
55.7081
 20
53.0103
 30
0.0000
  0
VERTEX
  8
21
 10
55.9115
 20
52.8069
 30
0.0000
  0
SEQEND
  8
0
  0
POLYLINE
  8
21
 66
1
 10
0.0000
 20
0.0000
 30
0.0000
 40
0.0762
 41
0.0762
 70
0
  0
VERTEX
  8
21
 10
55.8846
 20
52.7800
 30
0.0000
 42
1.0000
  0
VERTEX
  8
21
 10
55.9385
 20
52.8339
 30
0.0000
  0
SEQEND
  8
0
  0
POLYLINE
  8
21
 66
1
 10
0.0000
 20
0.0000
 30
0.0000
 40
0.0762
 41
0.0762
 70
0
  0
VERTEX
  8
21
 10
55.7351
 20
53.0373
 30
0.0000
 42
1.0000
  0
VERTEX
  8
21
 10
55.6812
 20
52.9834
 30
0.0000
  0
SEQEND
  8
0
  0
POLYLINE
  8
21
 66
1
 10
0.0000
 20
0.0000
 30
0.0000
 40
0.1524
 41
0.1524
 70
0
  0
VERTEX
  8
21
 10
55.9115
 20
52.8069
 30
0.0000
  0
VERTEX
  8
21
 10
55.9115
 20
52.4002
 30
0.0000
  0
SEQEND
  8
0
  0
POLYLINE
  8
21
 66
1
 10
0.0000
 20
0.0000
 30
0.0000
 40
0.0762
 41
0.0762
 70
0
  0
VERTEX
  8
21
 10
55.8734
 20
52.4002
 30
0.0000
 42
1.0000
  0
VERTEX
  8
21
 10
55.9496
 20
52.4002
 30
0.0000
  0
SEQEND
  8
0
  0
POLYLINE
  8
21
 66
1
 10
0.0000
 20
0.0000
 30
0.0000
 40
0.0762
 41
0.0762
 70
0
  0
VERTEX
  8
21
 10
55.9496
 20
52.8069
 30
0.0000
 42
1.0000
  0
VERTEX
  8
21
 10
55.8734
 20
52.8069
 30
0.0000
  0
SEQEND
  8
0
  0
POLYLINE
  8
21
 66
1
 10
0.0000
 20
0.0000
 30
0.0000
 40
0.1524
 41
0.1524
 70
0
  0
VERTEX
  8
21
 10
55.5048
 20
52.7053
 30
0.0000
  0
VERTEX
  8
21
 10
55.9115
 20
52.7053
 30
0.0000
  0
SEQEND
  8
0
  0
POLYLINE
  8
21
 66
1
 10
0.0000
 20
0.0000
 30
0.0000
 40
0.0762
 41
0.0762
 70
0
  0
VERTEX
  8
21
 10
55.9115
 20
52.6672
 30
0.0000
 42
1.0000
  0
VERTEX
  8
21
 10
55.9115
 20
52.7434
 30
0.0000
  0
SEQEND
  8
0
  0
POLYLINE
  8
21
 66
1
 10
0.0000
 20
0.0000
 30
0.0000
 40
0.0762
 41
0.0762
 70
0
  0
VERTEX
  8
21
 10
55.5048
 20
52.7434
 30
0.0000
 42
1.0000
  0
VERTEX
  8
21
 10
55.5048
 20
52.6672
 30
0.0000
  0
SEQEND
  8
0
  0
POLYLINE
  8
21
 66
1
 10
0.0000
 20
0.0000
 30
0.0000
 40
0.1524
 41
0.1524
 70
0
  0
VERTEX
  8
21
 10
56.2064
 20
53.0103
 30
0.0000
  0
VERTEX
  8
21
 10
56.2064
 20
52.4002
 30
0.0000
  0
SEQEND
  8
0
  0
POLYLINE
  8
21
 66
1
 10
0.0000
 20
0.0000
 30
0.0000
 40
0.0762
 41
0.0762
 70
0
  0
VERTEX
  8
21
 10
56.1683
 20
52.4002
 30
0.0000
 42
1.0000
  0
VERTEX
  8
21
 10
56.2445
 20
52.4002
 30
0.0000
  0
SEQEND
  8
0
  0
POLYLINE
  8
21
 66
1
 10
0.0000
 20
0.0000
 30
0.0000
 40
0.0762
 41
0.0762
 70
0
  0
VERTEX
  8
21
 10
56.2445
 20
53.0103
 30
0.0000
 42
1.0000
  0
VERTEX
  8
21
 10
56.1683
 20
53.0103
 30
0.0000
  0
SEQEND
  8
0
  0
POLYLINE
  8
21
 66
1
 10
0.0000
 20
0.0000
 30
0.0000
 40
0.1524
 41
0.1524
 70
0
  0
VERTEX
  8
21
 10
56.2064
 20
52.4002
 30
0.0000
  0
VERTEX
  8
21
 10
56.6132
 20
52.4002
 30
0.0000
  0
SEQEND
  8
0
  0
POLYLINE
  8
21
 66
1
 10
0.0000
 20
0.0000
 30
0.0000
 40
0.0762
 41
0.0762
 70
0
  0
VERTEX
  8
21
 10
56.6132
 20
52.3621
 30
0.0000
 42
1.0000
  0
VERTEX
  8
21
 10
56.6132
 20
52.4383
 30
0.0000
  0
SEQEND
  8
0
  0
POLYLINE
  8
21
 66
1
 10
0.0000
 20
0.0000
 30
0.0000
 40
0.0762
 41
0.0762
 70
0
  0
VERTEX
  8
21
 10
56.2064
 20
52.4383
 30
0.0000
 42
1.0000
  0
VERTEX
  8
21
 10
56.2064
 20
52.3621
 30
0.0000
  0
SEQEND
  8
0
  0
POLYLINE
  8
21
 66
1
 10
0.0000
 20
0.0000
 30
0.0000
 40
0.1524
 41
0.1524
 70
0
  0
VERTEX
  8
21
 10
28.3343
 20
53.0103
 30
0.0000
  0
VERTEX
  8
21
 10
28.3343
 20
52.4002
 30
0.0000
  0
SEQEND
  8
0
  0
POLYLINE
  8
21
 66
1
 10
0.0000
 20
0.0000
 30
0.0000
 40
0.0762
 41
0.0762
 70
0
  0
VERTEX
  8
21
 10
28.2962
 20
52.4002
 30
0.0000
 42
1.0000
  0
VERTEX
  8
21
 10
28.3724
 20
52.4002
 30
0.0000
  0
SEQEND
  8
0
  0
POLYLINE
  8
21
 66
1
 10
0.0000
 20
0.0000
 30
0.0000
 40
0.0762
 41
0.0762
 70
0
  0
VERTEX
  8
21
 10
28.3724
 20
53.0103
 30
0.0000
 42
1.0000
  0
VERTEX
  8
21
 10
28.2962
 20
53.0103
 30
0.0000
  0
SEQEND
  8
0
  0
POLYLINE
  8
21
 66
1
 10
0.0000
 20
0.0000
 30
0.0000
 40
0.1524
 41
0.1524
 70
0
  0
VERTEX
  8
21
 10
28.3343
 20
52.4002
 30
0.0000
  0
VERTEX
  8
21
 10
28.6394
 20
52.4002
 30
0.0000
  0
SEQEND
  8
0
  0
POLYLINE
  8
21
 66
1
 10
0.0000
 20
0.0000
 30
0.0000
 40
0.0762
 41
0.0762
 70
0
  0
VERTEX
  8
21
 10
28.6394
 20
52.3621
 30
0.0000
 42
1.0000
  0
VERTEX
  8
21
 10
28.6394
 20
52.4383
 30
0.0000
  0
SEQEND
  8
0
  0
POLYLINE
  8
21
 66
1
 10
0.0000
 20
0.0000
 30
0.0000
 40
0.0762
 41
0.0762
 70
0
  0
VERTEX
  8
21
 10
28.3343
 20
52.4383
 30
0.0000
 42
1.0000
  0
VERTEX
  8
21
 10
28.3343
 20
52.3621
 30
0.0000
  0
SEQEND
  8
0
  0
POLYLINE
  8
21
 66
1
 10
0.0000
 20
0.0000
 30
0.0000
 40
0.1524
 41
0.1524
 70
0
  0
VERTEX
  8
21
 10
28.6394
 20
52.4002
 30
0.0000
  0
VERTEX
  8
21
 10
28.7411
 20
52.5019
 30
0.0000
  0
SEQEND
  8
0
  0
POLYLINE
  8
21
 66
1
 10
0.0000
 20
0.0000
 30
0.0000
 40
0.0762
 41
0.0762
 70
0
  0
VERTEX
  8
21
 10
28.7680
 20
52.4749
 30
0.0000
 42
1.0000
  0
VERTEX
  8
21
 10
28.7142
 20
52.5288
 30
0.0000
  0
SEQEND
  8
0
  0
POLYLINE
  8
21
 66
1
 10
0.0000
 20
0.0000
 30
0.0000
 40
0.0762
 41
0.0762
 70
0
  0
VERTEX
  8
21
 10
28.6125
 20
52.4271
 30
0.0000
 42
1.0000
  0
VERTEX
  8
21
 10
28.6663
 20
52.3733
 30
0.0000
  0
SEQEND
  8
0
  0
POLYLINE
  8
21
 66
1
 10
0.0000
 20
0.0000
 30
0.0000
 40
0.1524
 41
0.1524
 70
0
  0
VERTEX
  8
21
 10
28.7411
 20
52.5019
 30
0.0000
  0
VERTEX
  8
21
 10
28.7411
 20
52.9086
 30
0.0000
  0
SEQEND
  8
0
  0
POLYLINE
  8
21
 66
1
 10
0.0000
 20
0.0000
 30
0.0000
 40
0.0762
 41
0.0762
 70
0
  0
VERTEX
  8
21
 10
28.7792
 20
52.9086
 30
0.0000
 42
1.0000
  0
VERTEX
  8
21
 10
28.7030
 20
52.9086
 30
0.0000
  0
SEQEND
  8
0
  0
POLYLINE
  8
21
 66
1
 10
0.0000
 20
0.0000
 30
0.0000
 40
0.0762
 41
0.0762
 70
0
  0
VERTEX
  8
21
 10
28.7030
 20
52.5019
 30
0.0000
 42
1.0000
  0
VERTEX
  8
21
 10
28.7792
 20
52.5019
 30
0.0000
  0
SEQEND
  8
0
  0
POLYLINE
  8
21
 66
1
 10
0.0000
 20
0.0000
 30
0.0000
 40
0.1524
 41
0.1524
 70
0
  0
VERTEX
  8
21
 10
28.7411
 20
52.9086
 30
0.0000
  0
VERTEX
  8
21
 10
28.6394
 20
53.0103
 30
0.0000
  0
SEQEND
  8
0
  0
POLYLINE
  8
21
 66
1
 10
0.0000
 20
0.0000
 30
0.0000
 40
0.0762
 41
0.0762
 70
0
  0
VERTEX
  8
21
 10
28.6663
 20
53.0373
 30
0.0000
 42
1.0000
  0
VERTEX
  8
21
 10
28.6125
 20
52.9834
 30
0.0000
  0
SEQEND
  8
0
  0
POLYLINE
  8
21
 66
1
 10
0.0000
 20
0.0000
 30
0.0000
 40
0.0762
 41
0.0762
 70
0
  0
VERTEX
  8
21
 10
28.7142
 20
52.8817
 30
0.0000
 42
1.0000
  0
VERTEX
  8
21
 10
28.7680
 20
52.9356
 30
0.0000
  0
SEQEND
  8
0
  0
POLYLINE
  8
21
 66
1
 10
0.0000
 20
0.0000
 30
0.0000
 40
0.1524
 41
0.1524
 70
0
  0
VERTEX
  8
21
 10
28.6394
 20
53.0103
 30
0.0000
  0
VERTEX
  8
21
 10
28.3343
 20
53.0103
 30
0.0000
  0
SEQEND
  8
0
  0
POLYLINE
  8
21
 66
1
 10
0.0000
 20
0.0000
 30
0.0000
 40
0.0762
 41
0.0762
 70
0
  0
VERTEX
  8
21
 10
28.3343
 20
53.0484
 30
0.0000
 42
1.0000
  0
VERTEX
  8
21
 10
28.3343
 20
52.9722
 30
0.0000
  0
SEQEND
  8
0
  0
POLYLINE
  8
21
 66
1
 10
0.0000
 20
0.0000
 30
0.0000
 40
0.0762
 41
0.0762
 70
0
  0
VERTEX
  8
21
 10
28.6394
 20
52.9722
 30
0.0000
 42
1.0000
  0
VERTEX
  8
21
 10
28.6394
 20
53.0484
 30
0.0000
  0
SEQEND
  8
0
  0
POLYLINE
  8
21
 66
1
 10
0.0000
 20
0.0000
 30
0.0000
 40
0.1524
 41
0.1524
 70
0
  0
VERTEX
  8
21
 10
29.0360
 20
52.4002
 30
0.0000
  0
VERTEX
  8
21
 10
29.2394
 20
52.4002
 30
0.0000
  0
SEQEND
  8
0
  0
POLYLINE
  8
21
 66
1
 10
0.0000
 20
0.0000
 30
0.0000
 40
0.0762
 41
0.0762
 70
0
  0
VERTEX
  8
21
 10
29.2394
 20
52.3621
 30
0.0000
 42
1.0000
  0
VERTEX
  8
21
 10
29.2394
 20
52.4383
 30
0.0000
  0
SEQEND
  8
0
  0
POLYLINE
  8
21
 66
1
 10
0.0000
 20
0.0000
 30
0.0000
 40
0.0762
 41
0.0762
 70
0
  0
VERTEX
  8
21
 10
29.0360
 20
52.4383
 30
0.0000
 42
1.0000
  0
VERTEX
  8
21
 10
29.0360
 20
52.3621
 30
0.0000
  0
SEQEND
  8
0
  0
POLYLINE
  8
21
 66
1
 10
0.0000
 20
0.0000
 30
0.0000
 40
0.1524
 41
0.1524
 70
0
  0
VERTEX
  8
21
 10
29.1377
 20
52.4002
 30
0.0000
  0
VERTEX
  8
21
 10
29.1377
 20
53.0103
 30
0.0000
  0
SEQEND
  8
0
  0
POLYLINE
  8
21
 66
1
 10
0.0000
 20
0.0000
 30
0.0000
 40
0.0762
 41
0.0762
 70
0
  0
VERTEX
  8
21
 10
29.1758
 20
53.0103
 30
0.0000
 42
1.0000
  0
VERTEX
  8
21
 10
29.0996
 20
53.0103
 30
0.0000
  0
SEQEND
  8
0
  0
POLYLINE
  8
21
 66
1
 10
0.0000
 20
0.0000
 30
0.0000
 40
0.0762
 41
0.0762
 70
0
  0
VERTEX
  8
21
 10
29.0996
 20
52.4002
 30
0.0000
 42
1.0000
  0
VERTEX
  8
21
 10
29.1758
 20
52.4002
 30
0.0000
  0
SEQEND
  8
0
  0
POLYLINE
  8
21
 66
1
 10
0.0000
 20
0.0000
 30
0.0000
 40
0.1524
 41
0.1524
 70
0
  0
VERTEX
  8
21
 10
29.0360
 20
53.0103
 30
0.0000
  0
VERTEX
  8
21
 10
29.2394
 20
53.0103
 30
0.0000
  0
SEQEND
  8
0
  0
POLYLINE
  8
21
 66
1
 10
0.0000
 20
0.0000
 30
0.0000
 40
0.0762
 41
0.0762
 70
0
  0
VERTEX
  8
21
 10
29.2394
 20
52.9722
 30
0.0000
 42
1.0000
  0
VERTEX
  8
21
 10
29.2394
 20
53.0484
 30
0.0000
  0
SEQEND
  8
0
  0
POLYLINE
  8
21
 66
1
 10
0.0000
 20
0.0000
 30
0.0000
 40
0.0762
 41
0.0762
 70
0
  0
VERTEX
  8
21
 10
29.0360
 20
53.0484
 30
0.0000
 42
1.0000
  0
VERTEX
  8
21
 10
29.0360
 20
52.9722
 30
0.0000
  0
SEQEND
  8
0
  0
POLYLINE
  8
21
 66
1
 10
0.0000
 20
0.0000
 30
0.0000
 40
0.1524
 41
0.1524
 70
0
  0
VERTEX
  8
21
 10
29.9105
 20
52.9086
 30
0.0000
  0
VERTEX
  8
21
 10
29.8088
 20
53.0103
 30
0.0000
  0
SEQEND
  8
0
  0
POLYLINE
  8
21
 66
1
 10
0.0000
 20
0.0000
 30
0.0000
 40
0.0762
 41
0.0762
 70
0
  0
VERTEX
  8
21
 10
29.8357
 20
53.0373
 30
0.0000
 42
1.0000
  0
VERTEX
  8
21
 10
29.7819
 20
52.9834
 30
0.0000
  0
SEQEND
  8
0
  0
POLYLINE
  8
21
 66
1
 10
0.0000
 20
0.0000
 30
0.0000
 40
0.0762
 41
0.0762
 70
0
  0
VERTEX
  8
21
 10
29.8835
 20
52.8817
 30
0.0000
 42
1.0000
  0
VERTEX
  8
21
 10
29.9374
 20
52.9356
 30
0.0000
  0
SEQEND
  8
0
  0
POLYLINE
  8
21
 66
1
 10
0.0000
 20
0.0000
 30
0.0000
 40
0.1524
 41
0.1524
 70
0
  0
VERTEX
  8
21
 10
29.8088
 20
53.0103
 30
0.0000
  0
VERTEX
  8
21
 10
29.6054
 20
53.0103
 30
0.0000
  0
SEQEND
  8
0
  0
POLYLINE
  8
21
 66
1
 10
0.0000
 20
0.0000
 30
0.0000
 40
0.0762
 41
0.0762
 70
0
  0
VERTEX
  8
21
 10
29.6054
 20
53.0484
 30
0.0000
 42
1.0000
  0
VERTEX
  8
21
 10
29.6054
 20
52.9722
 30
0.0000
  0
SEQEND
  8
0
  0
POLYLINE
  8
21
 66
1
 10
0.0000
 20
0.0000
 30
0.0000
 40
0.0762
 41
0.0762
 70
0
  0
VERTEX
  8
21
 10
29.8088
 20
52.9722
 30
0.0000
 42
1.0000
  0
VERTEX
  8
21
 10
29.8088
 20
53.0484
 30
0.0000
  0
SEQEND
  8
0
  0
POLYLINE
  8
21
 66
1
 10
0.0000
 20
0.0000
 30
0.0000
 40
0.1524
 41
0.1524
 70
0
  0
VERTEX
  8
21
 10
29.6054
 20
53.0103
 30
0.0000
  0
VERTEX
  8
21
 10
29.5037
 20
52.9086
 30
0.0000
  0
SEQEND
  8
0
  0
POLYLINE
  8
21
 66
1
 10
0.0000
 20
0.0000
 30
0.0000
 40
0.0762
 41
0.0762
 70
0
  0
VERTEX
  8
21
 10
29.4768
 20
52.9356
 30
0.0000
 42
1.0000
  0
VERTEX
  8
21
 10
29.5307
 20
52.8817
 30
0.0000
  0
SEQEND
  8
0
  0
POLYLINE
  8
21
 66
1
 10
0.0000
 20
0.0000
 30
0.0000
 40
0.0762
 41
0.0762
 70
0
  0
VERTEX
  8
21
 10
29.6324
 20
52.9834
 30
0.0000
 42
1.0000
  0
VERTEX
  8
21
 10
29.5785
 20
53.0373
 30
0.0000
  0
SEQEND
  8
0
  0
POLYLINE
  8
21
 66
1
 10
0.0000
 20
0.0000
 30
0.0000
 40
0.1524
 41
0.1524
 70
0
  0
VERTEX
  8
21
 10
29.5037
 20
52.9086
 30
0.0000
  0
VERTEX
  8
21
 10
29.5037
 20
52.5019
 30
0.0000
  0
SEQEND
  8
0
  0
POLYLINE
  8
21
 66
1
 10
0.0000
 20
0.0000
 30
0.0000
 40
0.0762
 41
0.0762
 70
0
  0
VERTEX
  8
21
 10
29.4656
 20
52.5019
 30
0.0000
 42
1.0000
  0
VERTEX
  8
21
 10
29.5418
 20
52.5019
 30
0.0000
  0
SEQEND
  8
0
  0
POLYLINE
  8
21
 66
1
 10
0.0000
 20
0.0000
 30
0.0000
 40
0.0762
 41
0.0762
 70
0
  0
VERTEX
  8
21
 10
29.5418
 20
52.9086
 30
0.0000
 42
1.0000
  0
VERTEX
  8
21
 10
29.4656
 20
52.9086
 30
0.0000
  0
SEQEND
  8
0
  0
POLYLINE
  8
21
 66
1
 10
0.0000
 20
0.0000
 30
0.0000
 40
0.1524
 41
0.1524
 70
0
  0
VERTEX
  8
21
 10
29.5037
 20
52.5019
 30
0.0000
  0
VERTEX
  8
21
 10
29.6054
 20
52.4002
 30
0.0000
  0
SEQEND
  8
0
  0
POLYLINE
  8
21
 66
1
 10
0.0000
 20
0.0000
 30
0.0000
 40
0.0762
 41
0.0762
 70
0
  0
VERTEX
  8
21
 10
29.5785
 20
52.3733
 30
0.0000
 42
1.0000
  0
VERTEX
  8
21
 10
29.6324
 20
52.4271
 30
0.0000
  0
SEQEND
  8
0
  0
POLYLINE
  8
21
 66
1
 10
0.0000
 20
0.0000
 30
0.0000
 40
0.0762
 41
0.0762
 70
0
  0
VERTEX
  8
21
 10
29.5307
 20
52.5288
 30
0.0000
 42
1.0000
  0
VERTEX
  8
21
 10
29.4768
 20
52.4749
 30
0.0000
  0
SEQEND
  8
0
  0
POLYLINE
  8
21
 66
1
 10
0.0000
 20
0.0000
 30
0.0000
 40
0.1524
 41
0.1524
 70
0
  0
VERTEX
  8
21
 10
29.6054
 20
52.4002
 30
0.0000
  0
VERTEX
  8
21
 10
29.8088
 20
52.4002
 30
0.0000
  0
SEQEND
  8
0
  0
POLYLINE
  8
21
 66
1
 10
0.0000
 20
0.0000
 30
0.0000
 40
0.0762
 41
0.0762
 70
0
  0
VERTEX
  8
21
 10
29.8088
 20
52.3621
 30
0.0000
 42
1.0000
  0
VERTEX
  8
21
 10
29.8088
 20
52.4383
 30
0.0000
  0
SEQEND
  8
0
  0
POLYLINE
  8
21
 66
1
 10
0.0000
 20
0.0000
 30
0.0000
 40
0.0762
 41
0.0762
 70
0
  0
VERTEX
  8
21
 10
29.6054
 20
52.4383
 30
0.0000
 42
1.0000
  0
VERTEX
  8
21
 10
29.6054
 20
52.3621
 30
0.0000
  0
SEQEND
  8
0
  0
POLYLINE
  8
21
 66
1
 10
0.0000
 20
0.0000
 30
0.0000
 40
0.1524
 41
0.1524
 70
0
  0
VERTEX
  8
21
 10
29.8088
 20
52.4002
 30
0.0000
  0
VERTEX
  8
21
 10
29.9105
 20
52.5019
 30
0.0000
  0
SEQEND
  8
0
  0
POLYLINE
  8
21
 66
1
 10
0.0000
 20
0.0000
 30
0.0000
 40
0.0762
 41
0.0762
 70
0
  0
VERTEX
  8
21
 10
29.9374
 20
52.4749
 30
0.0000
 42
1.0000
  0
VERTEX
  8
21
 10
29.8835
 20
52.5288
 30
0.0000
  0
SEQEND
  8
0
  0
POLYLINE
  8
21
 66
1
 10
0.0000
 20
0.0000
 30
0.0000
 40
0.0762
 41
0.0762
 70
0
  0
VERTEX
  8
21
 10
29.7819
 20
52.4271
 30
0.0000
 42
1.0000
  0
VERTEX
  8
21
 10
29.8357
 20
52.3733
 30
0.0000
  0
SEQEND
  8
0
  0
POLYLINE
  8
21
 66
1
 10
0.0000
 20
0.0000
 30
0.0000
 40
0.1524
 41
0.1524
 70
0
  0
VERTEX
  8
21
 10
29.9105
 20
52.5019
 30
0.0000
  0
VERTEX
  8
21
 10
29.9105
 20
52.7053
 30
0.0000
  0
SEQEND
  8
0
  0
POLYLINE
  8
21
 66
1
 10
0.0000
 20
0.0000
 30
0.0000
 40
0.0762
 41
0.0762
 70
0
  0
VERTEX
  8
21
 10
29.9486
 20
52.7053
 30
0.0000
 42
1.0000
  0
VERTEX
  8
21
 10
29.8724
 20
52.7053
 30
0.0000
  0
SEQEND
  8
0
  0
POLYLINE
  8
21
 66
1
 10
0.0000
 20
0.0000
 30
0.0000
 40
0.0762
 41
0.0762
 70
0
  0
VERTEX
  8
21
 10
29.8724
 20
52.5019
 30
0.0000
 42
1.0000
  0
VERTEX
  8
21
 10
29.9486
 20
52.5019
 30
0.0000
  0
SEQEND
  8
0
  0
POLYLINE
  8
21
 66
1
 10
0.0000
 20
0.0000
 30
0.0000
 40
0.1524
 41
0.1524
 70
0
  0
VERTEX
  8
21
 10
29.9105
 20
52.7053
 30
0.0000
  0
VERTEX
  8
21
 10
29.7071
 20
52.7053
 30
0.0000
  0
SEQEND
  8
0
  0
POLYLINE
  8
21
 66
1
 10
0.0000
 20
0.0000
 30
0.0000
 40
0.0762
 41
0.0762
 70
0
  0
VERTEX
  8
21
 10
29.7071
 20
52.7434
 30
0.0000
 42
1.0000
  0
VERTEX
  8
21
 10
29.7071
 20
52.6672
 30
0.0000
  0
SEQEND
  8
0
  0
POLYLINE
  8
21
 66
1
 10
0.0000
 20
0.0000
 30
0.0000
 40
0.0762
 41
0.0762
 70
0
  0
VERTEX
  8
21
 10
29.9105
 20
52.6672
 30
0.0000
 42
1.0000
  0
VERTEX
  8
21
 10
29.9105
 20
52.7434
 30
0.0000
  0
SEQEND
  8
0
  0
POLYLINE
  8
21
 66
1
 10
0.0000
 20
0.0000
 30
0.0000
 40
0.1524
 41
0.1524
 70
0
  0
VERTEX
  8
21
 10
30.2054
 20
52.4002
 30
0.0000
  0
VERTEX
  8
21
 10
30.4088
 20
52.4002
 30
0.0000
  0
SEQEND
  8
0
  0
POLYLINE
  8
21
 66
1
 10
0.0000
 20
0.0000
 30
0.0000
 40
0.0762
 41
0.0762
 70
0
  0
VERTEX
  8
21
 10
30.4088
 20
52.3621
 30
0.0000
 42
1.0000
  0
VERTEX
  8
21
 10
30.4088
 20
52.4383
 30
0.0000
  0
SEQEND
  8
0
  0
POLYLINE
  8
21
 66
1
 10
0.0000
 20
0.0000
 30
0.0000
 40
0.0762
 41
0.0762
 70
0
  0
VERTEX
  8
21
 10
30.2054
 20
52.4383
 30
0.0000
 42
1.0000
  0
VERTEX
  8
21
 10
30.2054
 20
52.3621
 30
0.0000
  0
SEQEND
  8
0
  0
POLYLINE
  8
21
 66
1
 10
0.0000
 20
0.0000
 30
0.0000
 40
0.1524
 41
0.1524
 70
0
  0
VERTEX
  8
21
 10
30.3071
 20
52.4002
 30
0.0000
  0
VERTEX
  8
21
 10
30.3071
 20
53.0103
 30
0.0000
  0
SEQEND
  8
0
  0
POLYLINE
  8
21
 66
1
 10
0.0000
 20
0.0000
 30
0.0000
 40
0.0762
 41
0.0762
 70
0
  0
VERTEX
  8
21
 10
30.3452
 20
53.0103
 30
0.0000
 42
1.0000
  0
VERTEX
  8
21
 10
30.2690
 20
53.0103
 30
0.0000
  0
SEQEND
  8
0
  0
POLYLINE
  8
21
 66
1
 10
0.0000
 20
0.0000
 30
0.0000
 40
0.0762
 41
0.0762
 70
0
  0
VERTEX
  8
21
 10
30.2690
 20
52.4002
 30
0.0000
 42
1.0000
  0
VERTEX
  8
21
 10
30.3452
 20
52.4002
 30
0.0000
  0
SEQEND
  8
0
  0
POLYLINE
  8
21
 66
1
 10
0.0000
 20
0.0000
 30
0.0000
 40
0.1524
 41
0.1524
 70
0
  0
VERTEX
  8
21
 10
30.2054
 20
53.0103
 30
0.0000
  0
VERTEX
  8
21
 10
30.4088
 20
53.0103
 30
0.0000
  0
SEQEND
  8
0
  0
POLYLINE
  8
21
 66
1
 10
0.0000
 20
0.0000
 30
0.0000
 40
0.0762
 41
0.0762
 70
0
  0
VERTEX
  8
21
 10
30.4088
 20
52.9722
 30
0.0000
 42
1.0000
  0
VERTEX
  8
21
 10
30.4088
 20
53.0484
 30
0.0000
  0
SEQEND
  8
0
  0
POLYLINE
  8
21
 66
1
 10
0.0000
 20
0.0000
 30
0.0000
 40
0.0762
 41
0.0762
 70
0
  0
VERTEX
  8
21
 10
30.2054
 20
53.0484
 30
0.0000
 42
1.0000
  0
VERTEX
  8
21
 10
30.2054
 20
52.9722
 30
0.0000
  0
SEQEND
  8
0
  0
POLYLINE
  8
21
 66
1
 10
0.0000
 20
0.0000
 30
0.0000
 40
0.1524
 41
0.1524
 70
0
  0
VERTEX
  8
21
 10
30.8765
 20
52.4002
 30
0.0000
  0
VERTEX
  8
21
 10
30.8765
 20
53.0103
 30
0.0000
  0
SEQEND
  8
0
  0
POLYLINE
  8
21
 66
1
 10
0.0000
 20
0.0000
 30
0.0000
 40
0.0762
 41
0.0762
 70
0
  0
VERTEX
  8
21
 10
30.9146
 20
53.0103
 30
0.0000
 42
1.0000
  0
VERTEX
  8
21
 10
30.8384
 20
53.0103
 30
0.0000
  0
SEQEND
  8
0
  0
POLYLINE
  8
21
 66
1
 10
0.0000
 20
0.0000
 30
0.0000
 40
0.0762
 41
0.0762
 70
0
  0
VERTEX
  8
21
 10
30.8384
 20
52.4002
 30
0.0000
 42
1.0000
  0
VERTEX
  8
21
 10
30.9146
 20
52.4002
 30
0.0000
  0
SEQEND
  8
0
  0
POLYLINE
  8
21
 66
1
 10
0.0000
 20
0.0000
 30
0.0000
 40
0.1524
 41
0.1524
 70
0
  0
VERTEX
  8
21
 10
30.6731
 20
53.0103
 30
0.0000
  0
VERTEX
  8
21
 10
31.0799
 20
53.0103
 30
0.0000
  0
SEQEND
  8
0
  0
POLYLINE
  8
21
 66
1
 10
0.0000
 20
0.0000
 30
0.0000
 40
0.0762
 41
0.0762
 70
0
  0
VERTEX
  8
21
 10
31.0799
 20
52.9722
 30
0.0000
 42
1.0000
  0
VERTEX
  8
21
 10
31.0799
 20
53.0484
 30
0.0000
  0
SEQEND
  8
0
  0
POLYLINE
  8
21
 66
1
 10
0.0000
 20
0.0000
 30
0.0000
 40
0.0762
 41
0.0762
 70
0
  0
VERTEX
  8
21
 10
30.6731
 20
53.0484
 30
0.0000
 42
1.0000
  0
VERTEX
  8
21
 10
30.6731
 20
52.9722
 30
0.0000
  0
SEQEND
  8
0
  0
POLYLINE
  8
21
 66
1
 10
0.0000
 20
0.0000
 30
0.0000
 40
0.1524
 41
0.1524
 70
0
  0
VERTEX
  8
21
 10
31.3748
 20
52.4002
 30
0.0000
  0
VERTEX
  8
21
 10
31.3748
 20
52.8069
 30
0.0000
  0
SEQEND
  8
0
  0
POLYLINE
  8
21
 66
1
 10
0.0000
 20
0.0000
 30
0.0000
 40
0.0762
 41
0.0762
 70
0
  0
VERTEX
  8
21
 10
31.4129
 20
52.8069
 30
0.0000
 42
1.0000
  0
VERTEX
  8
21
 10
31.3367
 20
52.8069
 30
0.0000
  0
SEQEND
  8
0
  0
POLYLINE
  8
21
 66
1
 10
0.0000
 20
0.0000
 30
0.0000
 40
0.0762
 41
0.0762
 70
0
  0
VERTEX
  8
21
 10
31.3367
 20
52.4002
 30
0.0000
 42
1.0000
  0
VERTEX
  8
21
 10
31.4129
 20
52.4002
 30
0.0000
  0
SEQEND
  8
0
  0
POLYLINE
  8
21
 66
1
 10
0.0000
 20
0.0000
 30
0.0000
 40
0.1524
 41
0.1524
 70
0
  0
VERTEX
  8
21
 10
31.3748
 20
52.8069
 30
0.0000
  0
VERTEX
  8
21
 10
31.5781
 20
53.0103
 30
0.0000
  0
SEQEND
  8
0
  0
POLYLINE
  8
21
 66
1
 10
0.0000
 20
0.0000
 30
0.0000
 40
0.0762
 41
0.0762
 70
0
  0
VERTEX
  8
21
 10
31.6051
 20
52.9834
 30
0.0000
 42
1.0000
  0
VERTEX
  8
21
 10
31.5512
 20
53.0373
 30
0.0000
  0
SEQEND
  8
0
  0
POLYLINE
  8
21
 66
1
 10
0.0000
 20
0.0000
 30
0.0000
 40
0.0762
 41
0.0762
 70
0
  0
VERTEX
  8
21
 10
31.3478
 20
52.8339
 30
0.0000
 42
1.0000
  0
VERTEX
  8
21
 10
31.4017
 20
52.7800
 30
0.0000
  0
SEQEND
  8
0
  0
POLYLINE
  8
21
 66
1
 10
0.0000
 20
0.0000
 30
0.0000
 40
0.1524
 41
0.1524
 70
0
  0
VERTEX
  8
21
 10
31.5781
 20
53.0103
 30
0.0000
  0
VERTEX
  8
21
 10
31.7815
 20
52.8069
 30
0.0000
  0
SEQEND
  8
0
  0
POLYLINE
  8
21
 66
1
 10
0.0000
 20
0.0000
 30
0.0000
 40
0.0762
 41
0.0762
 70
0
  0
VERTEX
  8
21
 10
31.7546
 20
52.7800
 30
0.0000
 42
1.0000
  0
VERTEX
  8
21
 10
31.8085
 20
52.8339
 30
0.0000
  0
SEQEND
  8
0
  0
POLYLINE
  8
21
 66
1
 10
0.0000
 20
0.0000
 30
0.0000
 40
0.0762
 41
0.0762
 70
0
  0
VERTEX
  8
21
 10
31.6051
 20
53.0373
 30
0.0000
 42
1.0000
  0
VERTEX
  8
21
 10
31.5512
 20
52.9834
 30
0.0000
  0
SEQEND
  8
0
  0
POLYLINE
  8
21
 66
1
 10
0.0000
 20
0.0000
 30
0.0000
 40
0.1524
 41
0.1524
 70
0
  0
VERTEX
  8
21
 10
31.7815
 20
52.8069
 30
0.0000
  0
VERTEX
  8
21
 10
31.7815
 20
52.4002
 30
0.0000
  0
SEQEND
  8
0
  0
POLYLINE
  8
21
 66
1
 10
0.0000
 20
0.0000
 30
0.0000
 40
0.0762
 41
0.0762
 70
0
  0
VERTEX
  8
21
 10
31.7434
 20
52.4002
 30
0.0000
 42
1.0000
  0
VERTEX
  8
21
 10
31.8196
 20
52.4002
 30
0.0000
  0
SEQEND
  8
0
  0
POLYLINE
  8
21
 66
1
 10
0.0000
 20
0.0000
 30
0.0000
 40
0.0762
 41
0.0762
 70
0
  0
VERTEX
  8
21
 10
31.8196
 20
52.8069
 30
0.0000
 42
1.0000
  0
VERTEX
  8
21
 10
31.7434
 20
52.8069
 30
0.0000
  0
SEQEND
  8
0
  0
POLYLINE
  8
21
 66
1
 10
0.0000
 20
0.0000
 30
0.0000
 40
0.1524
 41
0.1524
 70
0
  0
VERTEX
  8
21
 10
31.3748
 20
52.7053
 30
0.0000
  0
VERTEX
  8
21
 10
31.7815
 20
52.7053
 30
0.0000
  0
SEQEND
  8
0
  0
POLYLINE
  8
21
 66
1
 10
0.0000
 20
0.0000
 30
0.0000
 40
0.0762
 41
0.0762
 70
0
  0
VERTEX
  8
21
 10
31.7815
 20
52.6672
 30
0.0000
 42
1.0000
  0
VERTEX
  8
21
 10
31.7815
 20
52.7434
 30
0.0000
  0
SEQEND
  8
0
  0
POLYLINE
  8
21
 66
1
 10
0.0000
 20
0.0000
 30
0.0000
 40
0.0762
 41
0.0762
 70
0
  0
VERTEX
  8
21
 10
31.3748
 20
52.7434
 30
0.0000
 42
1.0000
  0
VERTEX
  8
21
 10
31.3748
 20
52.6672
 30
0.0000
  0
SEQEND
  8
0
  0
POLYLINE
  8
21
 66
1
 10
0.0000
 20
0.0000
 30
0.0000
 40
0.1524
 41
0.1524
 70
0
  0
VERTEX
  8
21
 10
32.0764
 20
53.0103
 30
0.0000
  0
VERTEX
  8
21
 10
32.0764
 20
52.4002
 30
0.0000
  0
SEQEND
  8
0
  0
POLYLINE
  8
21
 66
1
 10
0.0000
 20
0.0000
 30
0.0000
 40
0.0762
 41
0.0762
 70
0
  0
VERTEX
  8
21
 10
32.0383
 20
52.4002
 30
0.0000
 42
1.0000
  0
VERTEX
  8
21
 10
32.1145
 20
52.4002
 30
0.0000
  0
SEQEND
  8
0
  0
POLYLINE
  8
21
 66
1
 10
0.0000
 20
0.0000
 30
0.0000
 40
0.0762
 41
0.0762
 70
0
  0
VERTEX
  8
21
 10
32.1145
 20
53.0103
 30
0.0000
 42
1.0000
  0
VERTEX
  8
21
 10
32.0383
 20
53.0103
 30
0.0000
  0
SEQEND
  8
0
  0
POLYLINE
  8
21
 66
1
 10
0.0000
 20
0.0000
 30
0.0000
 40
0.1524
 41
0.1524
 70
0
  0
VERTEX
  8
21
 10
32.0764
 20
52.4002
 30
0.0000
  0
VERTEX
  8
21
 10
32.4832
 20
52.4002
 30
0.0000
  0
SEQEND
  8
0
  0
POLYLINE
  8
21
 66
1
 10
0.0000
 20
0.0000
 30
0.0000
 40
0.0762
 41
0.0762
 70
0
  0
VERTEX
  8
21
 10
32.4832
 20
52.3621
 30
0.0000
 42
1.0000
  0
VERTEX
  8
21
 10
32.4832
 20
52.4383
 30
0.0000
  0
SEQEND
  8
0
  0
POLYLINE
  8
21
 66
1
 10
0.0000
 20
0.0000
 30
0.0000
 40
0.0762
 41
0.0762
 70
0
  0
VERTEX
  8
21
 10
32.0764
 20
52.4383
 30
0.0000
 42
1.0000
  0
VERTEX
  8
21
 10
32.0764
 20
52.3621
 30
0.0000
  0
SEQEND
  8
0
  0
POLYLINE
  8
21
 66
1
 10
0.0000
 20
0.0000
 30
0.0000
 40
0.1524
 41
0.1524
 70
0
  0
VERTEX
  8
21
 10
62.0268
 20
27.0807
 30
0.0000
  0
VERTEX
  8
21
 10
62.0268
 20
27.2841
 30
0.0000
  0
SEQEND
  8
0
  0
POLYLINE
  8
21
 66
1
 10
0.0000
 20
0.0000
 30
0.0000
 40
0.0762
 41
0.0762
 70
0
  0
VERTEX
  8
21
 10
62.0649
 20
27.2841
 30
0.0000
 42
1.0000
  0
VERTEX
  8
21
 10
61.9887
 20
27.2841
 30
0.0000
  0
SEQEND
  8
0
  0
POLYLINE
  8
21
 66
1
 10
0.0000
 20
0.0000
 30
0.0000
 40
0.0762
 41
0.0762
 70
0
  0
VERTEX
  8
21
 10
61.9887
 20
27.0807
 30
0.0000
 42
1.0000
  0
VERTEX
  8
21
 10
62.0649
 20
27.0807
 30
0.0000
  0
SEQEND
  8
0
  0
POLYLINE
  8
21
 66
1
 10
0.0000
 20
0.0000
 30
0.0000
 40
0.1524
 41
0.1524
 70
0
  0
VERTEX
  8
21
 10
62.0268
 20
27.1824
 30
0.0000
  0
VERTEX
  8
21
 10
61.4167
 20
27.1824
 30
0.0000
  0
SEQEND
  8
0
  0
POLYLINE
  8
21
 66
1
 10
0.0000
 20
0.0000
 30
0.0000
 40
0.0762
 41
0.0762
 70
0
  0
VERTEX
  8
21
 10
61.4167
 20
27.2205
 30
0.0000
 42
1.0000
  0
VERTEX
  8
21
 10
61.4167
 20
27.1443
 30
0.0000
  0
SEQEND
  8
0
  0
POLYLINE
  8
21
 66
1
 10
0.0000
 20
0.0000
 30
0.0000
 40
0.0762
 41
0.0762
 70
0
  0
VERTEX
  8
21
 10
62.0268
 20
27.1443
 30
0.0000
 42
1.0000
  0
VERTEX
  8
21
 10
62.0268
 20
27.2205
 30
0.0000
  0
SEQEND
  8
0
  0
POLYLINE
  8
21
 66
1
 10
0.0000
 20
0.0000
 30
0.0000
 40
0.1524
 41
0.1524
 70
0
  0
VERTEX
  8
21
 10
61.4167
 20
27.0807
 30
0.0000
  0
VERTEX
  8
21
 10
61.4167
 20
27.2841
 30
0.0000
  0
SEQEND
  8
0
  0
POLYLINE
  8
21
 66
1
 10
0.0000
 20
0.0000
 30
0.0000
 40
0.0762
 41
0.0762
 70
0
  0
VERTEX
  8
21
 10
61.4548
 20
27.2841
 30
0.0000
 42
1.0000
  0
VERTEX
  8
21
 10
61.3786
 20
27.2841
 30
0.0000
  0
SEQEND
  8
0
  0
POLYLINE
  8
21
 66
1
 10
0.0000
 20
0.0000
 30
0.0000
 40
0.0762
 41
0.0762
 70
0
  0
VERTEX
  8
21
 10
61.3786
 20
27.0807
 30
0.0000
 42
1.0000
  0
VERTEX
  8
21
 10
61.4548
 20
27.0807
 30
0.0000
  0
SEQEND
  8
0
  0
POLYLINE
  8
21
 66
1
 10
0.0000
 20
0.0000
 30
0.0000
 40
0.1524
 41
0.1524
 70
0
  0
VERTEX
  8
21
 10
61.5184
 20
27.9552
 30
0.0000
  0
VERTEX
  8
21
 10
61.4167
 20
27.8535
 30
0.0000
  0
SEQEND
  8
0
  0
POLYLINE
  8
21
 66
1
 10
0.0000
 20
0.0000
 30
0.0000
 40
0.0762
 41
0.0762
 70
0
  0
VERTEX
  8
21
 10
61.3897
 20
27.8804
 30
0.0000
 42
1.0000
  0
VERTEX
  8
21
 10
61.4436
 20
27.8266
 30
0.0000
  0
SEQEND
  8
0
  0
POLYLINE
  8
21
 66
1
 10
0.0000
 20
0.0000
 30
0.0000
 40
0.0762
 41
0.0762
 70
0
  0
VERTEX
  8
21
 10
61.5453
 20
27.9282
 30
0.0000
 42
1.0000
  0
VERTEX
  8
21
 10
61.4914
 20
27.9821
 30
0.0000
  0
SEQEND
  8
0
  0
POLYLINE
  8
21
 66
1
 10
0.0000
 20
0.0000
 30
0.0000
 40
0.1524
 41
0.1524
 70
0
  0
VERTEX
  8
21
 10
61.4167
 20
27.8535
 30
0.0000
  0
VERTEX
  8
21
 10
61.4167
 20
27.6501
 30
0.0000
  0
SEQEND
  8
0
  0
POLYLINE
  8
21
 66
1
 10
0.0000
 20
0.0000
 30
0.0000
 40
0.0762
 41
0.0762
 70
0
  0
VERTEX
  8
21
 10
61.3786
 20
27.6501
 30
0.0000
 42
1.0000
  0
VERTEX
  8
21
 10
61.4548
 20
27.6501
 30
0.0000
  0
SEQEND
  8
0
  0
POLYLINE
  8
21
 66
1
 10
0.0000
 20
0.0000
 30
0.0000
 40
0.0762
 41
0.0762
 70
0
  0
VERTEX
  8
21
 10
61.4548
 20
27.8535
 30
0.0000
 42
1.0000
  0
VERTEX
  8
21
 10
61.3786
 20
27.8535
 30
0.0000
  0
SEQEND
  8
0
  0
POLYLINE
  8
21
 66
1
 10
0.0000
 20
0.0000
 30
0.0000
 40
0.1524
 41
0.1524
 70
0
  0
VERTEX
  8
21
 10
61.4167
 20
27.6501
 30
0.0000
  0
VERTEX
  8
21
 10
61.5184
 20
27.5484
 30
0.0000
  0
SEQEND
  8
0
  0
POLYLINE
  8
21
 66
1
 10
0.0000
 20
0.0000
 30
0.0000
 40
0.0762
 41
0.0762
 70
0
  0
VERTEX
  8
21
 10
61.4914
 20
27.5215
 30
0.0000
 42
1.0000
  0
VERTEX
  8
21
 10
61.5453
 20
27.5754
 30
0.0000
  0
SEQEND
  8
0
  0
POLYLINE
  8
21
 66
1
 10
0.0000
 20
0.0000
 30
0.0000
 40
0.0762
 41
0.0762
 70
0
  0
VERTEX
  8
21
 10
61.4436
 20
27.6771
 30
0.0000
 42
1.0000
  0
VERTEX
  8
21
 10
61.3897
 20
27.6232
 30
0.0000
  0
SEQEND
  8
0
  0
POLYLINE
  8
21
 66
1
 10
0.0000
 20
0.0000
 30
0.0000
 40
0.1524
 41
0.1524
 70
0
  0
VERTEX
  8
21
 10
61.5184
 20
27.5484
 30
0.0000
  0
VERTEX
  8
21
 10
61.6201
 20
27.5484
 30
0.0000
  0
SEQEND
  8
0
  0
POLYLINE
  8
21
 66
1
 10
0.0000
 20
0.0000
 30
0.0000
 40
0.0762
 41
0.0762
 70
0
  0
VERTEX
  8
21
 10
61.6201
 20
27.5103
 30
0.0000
 42
1.0000
  0
VERTEX
  8
21
 10
61.6201
 20
27.5865
 30
0.0000
  0
SEQEND
  8
0
  0
POLYLINE
  8
21
 66
1
 10
0.0000
 20
0.0000
 30
0.0000
 40
0.0762
 41
0.0762
 70
0
  0
VERTEX
  8
21
 10
61.5184
 20
27.5865
 30
0.0000
 42
1.0000
  0
VERTEX
  8
21
 10
61.5184
 20
27.5103
 30
0.0000
  0
SEQEND
  8
0
  0
POLYLINE
  8
21
 66
1
 10
0.0000
 20
0.0000
 30
0.0000
 40
0.1524
 41
0.1524
 70
0
  0
VERTEX
  8
21
 10
61.6201
 20
27.5484
 30
0.0000
  0
VERTEX
  8
21
 10
61.7217
 20
27.6501
 30
0.0000
  0
SEQEND
  8
0
  0
POLYLINE
  8
21
 66
1
 10
0.0000
 20
0.0000
 30
0.0000
 40
0.0762
 41
0.0762
 70
0
  0
VERTEX
  8
21
 10
61.7487
 20
27.6232
 30
0.0000
 42
1.0000
  0
VERTEX
  8
21
 10
61.6948
 20
27.6771
 30
0.0000
  0
SEQEND
  8
0
  0
POLYLINE
  8
21
 66
1
 10
0.0000
 20
0.0000
 30
0.0000
 40
0.0762
 41
0.0762
 70
0
  0
VERTEX
  8
21
 10
61.5931
 20
27.5754
 30
0.0000
 42
1.0000
  0
VERTEX
  8
21
 10
61.6470
 20
27.5215
 30
0.0000
  0
SEQEND
  8
0
  0
POLYLINE
  8
21
 66
1
 10
0.0000
 20
0.0000
 30
0.0000
 40
0.1524
 41
0.1524
 70
0
  0
VERTEX
  8
21
 10
61.7217
 20
27.6501
 30
0.0000
  0
VERTEX
  8
21
 10
61.7217
 20
27.8535
 30
0.0000
  0
SEQEND
  8
0
  0
POLYLINE
  8
21
 66
1
 10
0.0000
 20
0.0000
 30
0.0000
 40
0.0762
 41
0.0762
 70
0
  0
VERTEX
  8
21
 10
61.7598
 20
27.8535
 30
0.0000
 42
1.0000
  0
VERTEX
  8
21
 10
61.6836
 20
27.8535
 30
0.0000
  0
SEQEND
  8
0
  0
POLYLINE
  8
21
 66
1
 10
0.0000
 20
0.0000
 30
0.0000
 40
0.0762
 41
0.0762
 70
0
  0
VERTEX
  8
21
 10
61.6836
 20
27.6501
 30
0.0000
 42
1.0000
  0
VERTEX
  8
21
 10
61.7598
 20
27.6501
 30
0.0000
  0
SEQEND
  8
0
  0
POLYLINE
  8
21
 66
1
 10
0.0000
 20
0.0000
 30
0.0000
 40
0.1524
 41
0.1524
 70
0
  0
VERTEX
  8
21
 10
61.7217
 20
27.8535
 30
0.0000
  0
VERTEX
  8
21
 10
61.8234
 20
27.9552
 30
0.0000
  0
SEQEND
  8
0
  0
POLYLINE
  8
21
 66
1
 10
0.0000
 20
0.0000
 30
0.0000
 40
0.0762
 41
0.0762
 70
0
  0
VERTEX
  8
21
 10
61.8504
 20
27.9282
 30
0.0000
 42
1.0000
  0
VERTEX
  8
21
 10
61.7965
 20
27.9821
 30
0.0000
  0
SEQEND
  8
0
  0
POLYLINE
  8
21
 66
1
 10
0.0000
 20
0.0000
 30
0.0000
 40
0.0762
 41
0.0762
 70
0
  0
VERTEX
  8
21
 10
61.6948
 20
27.8804
 30
0.0000
 42
1.0000
  0
VERTEX
  8
21
 10
61.7487
 20
27.8266
 30
0.0000
  0
SEQEND
  8
0
  0
POLYLINE
  8
21
 66
1
 10
0.0000
 20
0.0000
 30
0.0000
 40
0.1524
 41
0.1524
 70
0
  0
VERTEX
  8
21
 10
61.8234
 20
27.9552
 30
0.0000
  0
VERTEX
  8
21
 10
61.9251
 20
27.9552
 30
0.0000
  0
SEQEND
  8
0
  0
POLYLINE
  8
21
 66
1
 10
0.0000
 20
0.0000
 30
0.0000
 40
0.0762
 41
0.0762
 70
0
  0
VERTEX
  8
21
 10
61.9251
 20
27.9171
 30
0.0000
 42
1.0000
  0
VERTEX
  8
21
 10
61.9251
 20
27.9933
 30
0.0000
  0
SEQEND
  8
0
  0
POLYLINE
  8
21
 66
1
 10
0.0000
 20
0.0000
 30
0.0000
 40
0.0762
 41
0.0762
 70
0
  0
VERTEX
  8
21
 10
61.8234
 20
27.9933
 30
0.0000
 42
1.0000
  0
VERTEX
  8
21
 10
61.8234
 20
27.9171
 30
0.0000
  0
SEQEND
  8
0
  0
POLYLINE
  8
21
 66
1
 10
0.0000
 20
0.0000
 30
0.0000
 40
0.1524
 41
0.1524
 70
0
  0
VERTEX
  8
21
 10
61.9251
 20
27.9552
 30
0.0000
  0
VERTEX
  8
21
 10
62.0268
 20
27.8535
 30
0.0000
  0
SEQEND
  8
0
  0
POLYLINE
  8
21
 66
1
 10
0.0000
 20
0.0000
 30
0.0000
 40
0.0762
 41
0.0762
 70
0
  0
VERTEX
  8
21
 10
61.9999
 20
27.8266
 30
0.0000
 42
1.0000
  0
VERTEX
  8
21
 10
62.0537
 20
27.8804
 30
0.0000
  0
SEQEND
  8
0
  0
POLYLINE
  8
21
 66
1
 10
0.0000
 20
0.0000
 30
0.0000
 40
0.0762
 41
0.0762
 70
0
  0
VERTEX
  8
21
 10
61.9521
 20
27.9821
 30
0.0000
 42
1.0000
  0
VERTEX
  8
21
 10
61.8982
 20
27.9282
 30
0.0000
  0
SEQEND
  8
0
  0
POLYLINE
  8
21
 66
1
 10
0.0000
 20
0.0000
 30
0.0000
 40
0.1524
 41
0.1524
 70
0
  0
VERTEX
  8
21
 10
62.0268
 20
27.8535
 30
0.0000
  0
VERTEX
  8
21
 10
62.0268
 20
27.6501
 30
0.0000
  0
SEQEND
  8
0
  0
POLYLINE
  8
21
 66
1
 10
0.0000
 20
0.0000
 30
0.0000
 40
0.0762
 41
0.0762
 70
0
  0
VERTEX
  8
21
 10
61.9887
 20
27.6501
 30
0.0000
 42
1.0000
  0
VERTEX
  8
21
 10
62.0649
 20
27.6501
 30
0.0000
  0
SEQEND
  8
0
  0
POLYLINE
  8
21
 66
1
 10
0.0000
 20
0.0000
 30
0.0000
 40
0.0762
 41
0.0762
 70
0
  0
VERTEX
  8
21
 10
62.0649
 20
27.8535
 30
0.0000
 42
1.0000
  0
VERTEX
  8
21
 10
61.9887
 20
27.8535
 30
0.0000
  0
SEQEND
  8
0
  0
POLYLINE
  8
21
 66
1
 10
0.0000
 20
0.0000
 30
0.0000
 40
0.1524
 41
0.1524
 70
0
  0
VERTEX
  8
21
 10
62.0268
 20
27.6501
 30
0.0000
  0
VERTEX
  8
21
 10
61.9251
 20
27.5484
 30
0.0000
  0
SEQEND
  8
0
  0
POLYLINE
  8
21
 66
1
 10
0.0000
 20
0.0000
 30
0.0000
 40
0.0762
 41
0.0762
 70
0
  0
VERTEX
  8
21
 10
61.8982
 20
27.5754
 30
0.0000
 42
1.0000
  0
VERTEX
  8
21
 10
61.9521
 20
27.5215
 30
0.0000
  0
SEQEND
  8
0
  0
POLYLINE
  8
21
 66
1
 10
0.0000
 20
0.0000
 30
0.0000
 40
0.0762
 41
0.0762
 70
0
  0
VERTEX
  8
21
 10
62.0537
 20
27.6232
 30
0.0000
 42
1.0000
  0
VERTEX
  8
21
 10
61.9999
 20
27.6771
 30
0.0000
  0
SEQEND
  8
0
  0
POLYLINE
  8
21
 66
1
 10
0.0000
 20
0.0000
 30
0.0000
 40
0.1524
 41
0.1524
 70
0
  0
VERTEX
  8
21
 10
62.0268
 20
28.2501
 30
0.0000
  0
VERTEX
  8
21
 10
61.4167
 20
28.2501
 30
0.0000
  0
SEQEND
  8
0
  0
POLYLINE
  8
21
 66
1
 10
0.0000
 20
0.0000
 30
0.0000
 40
0.0762
 41
0.0762
 70
0
  0
VERTEX
  8
21
 10
61.4167
 20
28.2882
 30
0.0000
 42
1.0000
  0
VERTEX
  8
21
 10
61.4167
 20
28.2120
 30
0.0000
  0
SEQEND
  8
0
  0
POLYLINE
  8
21
 66
1
 10
0.0000
 20
0.0000
 30
0.0000
 40
0.0762
 41
0.0762
 70
0
  0
VERTEX
  8
21
 10
62.0268
 20
28.2120
 30
0.0000
 42
1.0000
  0
VERTEX
  8
21
 10
62.0268
 20
28.2882
 30
0.0000
  0
SEQEND
  8
0
  0
POLYLINE
  8
21
 66
1
 10
0.0000
 20
0.0000
 30
0.0000
 40
0.1524
 41
0.1524
 70
0
  0
VERTEX
  8
21
 10
61.4167
 20
28.2501
 30
0.0000
  0
VERTEX
  8
21
 10
61.4167
 20
28.5551
 30
0.0000
  0
SEQEND
  8
0
  0
POLYLINE
  8
21
 66
1
 10
0.0000
 20
0.0000
 30
0.0000
 40
0.0762
 41
0.0762
 70
0
  0
VERTEX
  8
21
 10
61.4548
 20
28.5551
 30
0.0000
 42
1.0000
  0
VERTEX
  8
21
 10
61.3786
 20
28.5551
 30
0.0000
  0
SEQEND
  8
0
  0
POLYLINE
  8
21
 66
1
 10
0.0000
 20
0.0000
 30
0.0000
 40
0.0762
 41
0.0762
 70
0
  0
VERTEX
  8
21
 10
61.3786
 20
28.2501
 30
0.0000
 42
1.0000
  0
VERTEX
  8
21
 10
61.4548
 20
28.2501
 30
0.0000
  0
SEQEND
  8
0
  0
POLYLINE
  8
21
 66
1
 10
0.0000
 20
0.0000
 30
0.0000
 40
0.1524
 41
0.1524
 70
0
  0
VERTEX
  8
21
 10
61.4167
 20
28.5551
 30
0.0000
  0
VERTEX
  8
21
 10
61.5184
 20
28.6568
 30
0.0000
  0
SEQEND
  8
0
  0
POLYLINE
  8
21
 66
1
 10
0.0000
 20
0.0000
 30
0.0000
 40
0.0762
 41
0.0762
 70
0
  0
VERTEX
  8
21
 10
61.5453
 20
28.6299
 30
0.0000
 42
1.0000
  0
VERTEX
  8
21
 10
61.4914
 20
28.6838
 30
0.0000
  0
SEQEND
  8
0
  0
POLYLINE
  8
21
 66
1
 10
0.0000
 20
0.0000
 30
0.0000
 40
0.0762
 41
0.0762
 70
0
  0
VERTEX
  8
21
 10
61.3897
 20
28.5821
 30
0.0000
 42
1.0000
  0
VERTEX
  8
21
 10
61.4436
 20
28.5282
 30
0.0000
  0
SEQEND
  8
0
  0
POLYLINE
  8
21
 66
1
 10
0.0000
 20
0.0000
 30
0.0000
 40
0.1524
 41
0.1524
 70
0
  0
VERTEX
  8
21
 10
61.5184
 20
28.6568
 30
0.0000
  0
VERTEX
  8
21
 10
61.7217
 20
28.6568
 30
0.0000
  0
SEQEND
  8
0
  0
POLYLINE
  8
21
 66
1
 10
0.0000
 20
0.0000
 30
0.0000
 40
0.0762
 41
0.0762
 70
0
  0
VERTEX
  8
21
 10
61.7217
 20
28.6187
 30
0.0000
 42
1.0000
  0
VERTEX
  8
21
 10
61.7217
 20
28.6949
 30
0.0000
  0
SEQEND
  8
0
  0
POLYLINE
  8
21
 66
1
 10
0.0000
 20
0.0000
 30
0.0000
 40
0.0762
 41
0.0762
 70
0
  0
VERTEX
  8
21
 10
61.5184
 20
28.6949
 30
0.0000
 42
1.0000
  0
VERTEX
  8
21
 10
61.5184
 20
28.6187
 30
0.0000
  0
SEQEND
  8
0
  0
POLYLINE
  8
21
 66
1
 10
0.0000
 20
0.0000
 30
0.0000
 40
0.1524
 41
0.1524
 70
0
  0
VERTEX
  8
21
 10
61.7217
 20
28.6568
 30
0.0000
  0
VERTEX
  8
21
 10
61.8234
 20
28.5551
 30
0.0000
  0
SEQEND
  8
0
  0
POLYLINE
  8
21
 66
1
 10
0.0000
 20
0.0000
 30
0.0000
 40
0.0762
 41
0.0762
 70
0
  0
VERTEX
  8
21
 10
61.7965
 20
28.5282
 30
0.0000
 42
1.0000
  0
VERTEX
  8
21
 10
61.8504
 20
28.5821
 30
0.0000
  0
SEQEND
  8
0
  0
POLYLINE
  8
21
 66
1
 10
0.0000
 20
0.0000
 30
0.0000
 40
0.0762
 41
0.0762
 70
0
  0
VERTEX
  8
21
 10
61.7487
 20
28.6838
 30
0.0000
 42
1.0000
  0
VERTEX
  8
21
 10
61.6948
 20
28.6299
 30
0.0000
  0
SEQEND
  8
0
  0
POLYLINE
  8
21
 66
1
 10
0.0000
 20
0.0000
 30
0.0000
 40
0.1524
 41
0.1524
 70
0
  0
VERTEX
  8
21
 10
61.8234
 20
28.5551
 30
0.0000
  0
VERTEX
  8
21
 10
61.8234
 20
28.2501
 30
0.0000
  0
SEQEND
  8
0
  0
POLYLINE
  8
21
 66
1
 10
0.0000
 20
0.0000
 30
0.0000
 40
0.0762
 41
0.0762
 70
0
  0
VERTEX
  8
21
 10
61.7853
 20
28.2501
 30
0.0000
 42
1.0000
  0
VERTEX
  8
21
 10
61.8615
 20
28.2501
 30
0.0000
  0
SEQEND
  8
0
  0
POLYLINE
  8
21
 66
1
 10
0.0000
 20
0.0000
 30
0.0000
 40
0.0762
 41
0.0762
 70
0
  0
VERTEX
  8
21
 10
61.8615
 20
28.5551
 30
0.0000
 42
1.0000
  0
VERTEX
  8
21
 10
61.7853
 20
28.5551
 30
0.0000
  0
SEQEND
  8
0
  0
CIRCLE
  8
20
 10
66.0400
 20
35.5600
 30
0.0000
 40
1.6000
  0
CIRCLE
  8
20
 10
66.0400
 20
7.6200
 30
0.0000
 40
1.6000
  0
CIRCLE
  8
20
 10
15.2400
 20
50.8000
 30
0.0000
 40
1.6000
  0
CIRCLE
  8
20
 10
13.9700
 20
2.5400
 30
0.0000
 40
1.6000
  0
CIRCLE
  8
20
 10
3.1000
 20
26.3000
 30
0.0000
 40
0.5500
  0
CIRCLE
  8
20
 10
5.7000
 20
25.8000
 30
0.0000
 40
0.5500
  0
CIRCLE
  8
20
 10
8.1000
 20
25.4270
 30
0.0000
 40
0.5500
  0
CIRCLE
  8
20
 10
10.6000
 20
25.0000
 30
0.0000
 40
0.5500
  0
CIRCLE
  8
20
 10
13.2000
 20
24.5270
 30
0.0000
 40
0.5500
  0
CIRCLE
  8
20
 10
15.6000
 20
24.1000
 30
0.0000
 40
0.5500
  0
CIRCLE
  8
20
 10
45.8000
 20
18.7000
 30
0.0000
 40
0.5500
  0
CIRCLE
  8
20
 10
48.3000
 20
18.3000
 30
0.0000
 40
0.5500
  0
CIRCLE
  8
20
 10
50.7000
 20
17.9000
 30
0.0000
 40
0.5500
  0
CIRCLE
  8
20
 10
53.2000
 20
17.4000
 30
0.0000
 40
0.5500
  0
CIRCLE
  8
20
 10
5.0000
 20
4.0000
 30
0.0000
 40
0.3250
  0
CIRCLE
  8
20
 10
5.0000
 20
1.2000
 30
0.0000
 40
0.3250
  0
CIRCLE
  8
20
 10
6.8580
 20
45.9740
 30
0.0000
 40
1.6250
  0
CIRCLE
  8
20
 10
6.8580
 20
34.5440
 30
0.0000
 40
1.6250
  0
CIRCLE
  8
20
 10
8.3820
 20
8.7630
 30
0.0000
 40
0.4600
  0
CIRCLE
  8
20
 10
10.2870
 20
8.6360
 30
0.0000
 40
0.4600
  0
CIRCLE
  8
20
 10
12.3190
 20
8.7630
 30
0.0000
 40
0.4600
  0
CIRCLE
  8
20
 10
14.3510
 20
8.6360
 30
0.0000
 40
0.4600
  0
CIRCLE
  8
20
 10
59.1820
 20
11.3030
 30
0.0000
 40
0.7500
  0
CIRCLE
  8
20
 10
59.3090
 20
21.2090
 30
0.0000
 40
0.7500
  0
CIRCLE
  8
20
 10
7.4930
 20
11.5570
 30
0.0000
 40
0.7500
  0
CIRCLE
  8
20
 10
7.7470
 20
5.9690
 30
0.0000
 40
0.7500
  0
CIRCLE
  8
20
 10
14.6050
 20
6.2230
 30
0.0000
 40
0.7500
  0
CIRCLE
  8
20
 10
14.7320
 20
11.4300
 30
0.0000
 40
0.7500
  0
CIRCLE
  8
20
 10
15.8750
 20
45.9740
 30
0.0000
 40
0.4500
  0
CIRCLE
  8
20
 10
15.8750
 20
43.3070
 30
0.0000
 40
0.4500
  0
CIRCLE
  8
20
 10
15.8750
 20
40.7670
 30
0.0000
 40
0.4500
  0
CIRCLE
  8
20
 10
15.8750
 20
38.2270
 30
0.0000
 40
0.4500
  0
CIRCLE
  8
20
 10
15.8750
 20
35.5600
 30
0.0000
 40
0.4500
  0
CIRCLE
  8
20
 10
13.2080
 20
44.5770
 30
0.0000
 40
0.4500
  0
CIRCLE
  8
20
 10
13.3350
 20
42.1640
 30
0.0000
 40
0.4500
  0
CIRCLE
  8
20
 10
13.2080
 20
39.6240
 30
0.0000
 40
0.4500
  0
CIRCLE
  8
20
 10
13.3350
 20
36.9570
 30
0.0000
 40
0.4500
  0
CIRCLE
  8
20
 10
13.3350
 20
34.4170
 30
0.0000
 40
0.4500
  0
CIRCLE
  8
20
 10
1.9050
 20
46.6090
 30
0.0000
 40
0.4500
  0
CIRCLE
  8
20
 10
3.5560
 20
44.0690
 30
0.0000
 40
0.4500
  0
CIRCLE
  8
20
 10
2.0320
 20
36.4490
 30
0.0000
 40
0.4500
  0
CIRCLE
  8
20
 10
3.6830
 20
33.7820
 30
0.0000
 40
0.4500
  0
CIRCLE
  8
20
 10
10.0330
 20
48.0060
 30
0.0000
 40
0.8000
  0
CIRCLE
  8
20
 10
10.0330
 20
32.3850
 30
0.0000
 40
0.8000
  0
INSERT
  8
17
  2
SQUAREP
 10
63.6270
 20
30.4800
 30
0.0000
 41
1.5240
 42
1.5240
 43
1.0000
 50
0.0000
  0
INSERT
  8
17
  2
SQUAREP
 10
63.6270
 20
30.4800
 30
0.0000
 41
1.5240
 42
1.5240
 43
1.0000
 50
0.0000
  0
INSERT
  8
17
  2
ROUNDP
 10
66.1670
 20
30.4800
 30
0.0000
 41
1.5240
 42
1.5240
 43
1.0000
 50
0.0000
  0
INSERT
  8
17
  2
ROUNDP
 10
66.1670
 20
30.4800
 30
0.0000
 41
1.5240
 42
1.5240
 43
1.0000
 50
0.0000
  0
INSERT
  8
17
  2
ROUNDP
 10
63.6270
 20
27.9400
 30
0.0000
 41
1.5240
 42
1.5240
 43
1.0000
 50
0.0000
  0
INSERT
  8
17
  2
ROUNDP
 10
63.6270
 20
27.9400
 30
0.0000
 41
1.5240
 42
1.5240
 43
1.0000
 50
0.0000
  0
INSERT
  8
17
  2
ROUNDP
 10
35.5600
 20
2.5400
 30
0.0000
 41
1.6764
 42
1.6764
 43
1.0000
 50
0.0000
  0
INSERT
  8
17
  2
ROUNDP
 10
35.5600
 20
2.5400
 30
0.0000
 41
1.6764
 42
1.6764
 43
1.0000
 50
0.0000
  0
INSERT
  8
17
  2
ROUNDP
 10
66.1670
 20
27.9400
 30
0.0000
 41
1.5240
 42
1.5240
 43
1.0000
 50
0.0000
  0
INSERT
  8
17
  2
ROUNDP
 10
66.1670
 20
27.9400
 30
0.0000
 41
1.5240
 42
1.5240
 43
1.0000
 50
0.0000
  0
INSERT
  8
17
  2
ROUNDP
 10
63.6270
 20
25.4000
 30
0.0000
 41
1.5240
 42
1.5240
 43
1.0000
 50
0.0000
  0
INSERT
  8
17
  2
ROUNDP
 10
63.6270
 20
25.4000
 30
0.0000
 41
1.5240
 42
1.5240
 43
1.0000
 50
0.0000
  0
INSERT
  8
17
  2
ROUNDP
 10
38.1000
 20
2.5400
 30
0.0000
 41
1.6764
 42
1.6764
 43
1.0000
 50
0.0000
  0
INSERT
  8
17
  2
ROUNDP
 10
38.1000
 20
2.5400
 30
0.0000
 41
1.6764
 42
1.6764
 43
1.0000
 50
0.0000
  0
INSERT
  8
17
  2
ROUNDP
 10
66.1670
 20
25.4000
 30
0.0000
 41
1.5240
 42
1.5240
 43
1.0000
 50
0.0000
  0
INSERT
  8
17
  2
ROUNDP
 10
66.1670
 20
25.4000
 30
0.0000
 41
1.5240
 42
1.5240
 43
1.0000
 50
0.0000
  0
INSERT
  8
17
  2
SQUAREP
 10
50.8000
 20
2.5400
 30
0.0000
 41
1.6764
 42
1.6764
 43
1.0000
 50
0.0000
  0
INSERT
  8
17
  2
SQUAREP
 10
50.8000
 20
2.5400
 30
0.0000
 41
1.6764
 42
1.6764
 43
1.0000
 50
0.0000
  0
INSERT
  8
17
  2
ROUNDP
 10
53.3400
 20
2.5400
 30
0.0000
 41
1.6764
 42
1.6764
 43
1.0000
 50
0.0000
  0
INSERT
  8
17
  2
ROUNDP
 10
53.3400
 20
2.5400
 30
0.0000
 41
1.6764
 42
1.6764
 43
1.0000
 50
0.0000
  0
INSERT
  8
17
  2
ROUNDP
 10
55.8800
 20
2.5400
 30
0.0000
 41
1.6764
 42
1.6764
 43
1.0000
 50
0.0000
  0
INSERT
  8
17
  2
ROUNDP
 10
55.8800
 20
2.5400
 30
0.0000
 41
1.6764
 42
1.6764
 43
1.0000
 50
0.0000
  0
INSERT
  8
17
  2
ROUNDP
 10
58.4200
 20
2.5400
 30
0.0000
 41
1.6764
 42
1.6764
 43
1.0000
 50
0.0000
  0
INSERT
  8
17
  2
ROUNDP
 10
58.4200
 20
2.5400
 30
0.0000
 41
1.6764
 42
1.6764
 43
1.0000
 50
0.0000
  0
INSERT
  8
17
  2
ROUNDP
 10
60.9600
 20
2.5400
 30
0.0000
 41
1.6764
 42
1.6764
 43
1.0000
 50
0.0000
  0
INSERT
  8
17
  2
ROUNDP
 10
60.9600
 20
2.5400
 30
0.0000
 41
1.6764
 42
1.6764
 43
1.0000
 50
0.0000
  0
INSERT
  8
17
  2
ROUNDP
 10
63.5000
 20
2.5400
 30
0.0000
 41
1.6764
 42
1.6764
 43
1.0000
 50
0.0000
  0
INSERT
  8
17
  2
ROUNDP
 10
63.5000
 20
2.5400
 30
0.0000
 41
1.6764
 42
1.6764
 43
1.0000
 50
0.0000
  0
INSERT
  8
17
  2
ROUNDP
 10
23.8760
 20
50.8000
 30
0.0000
 41
1.6764
 42
1.6764
 43
1.0000
 50
180.0000
  0
INSERT
  8
17
  2
ROUNDP
 10
23.8760
 20
50.8000
 30
0.0000
 41
1.6764
 42
1.6764
 43
1.0000
 50
180.0000
  0
INSERT
  8
17
  2
SQUAREP
 10
63.5000
 20
50.8000
 30
0.0000
 41
1.6764
 42
1.6764
 43
1.0000
 50
180.0000
  0
INSERT
  8
17
  2
SQUAREP
 10
63.5000
 20
50.8000
 30
0.0000
 41
1.6764
 42
1.6764
 43
1.0000
 50
180.0000
  0
INSERT
  8
17
  2
ROUNDP
 10
60.9600
 20
50.8000
 30
0.0000
 41
1.6764
 42
1.6764
 43
1.0000
 50
180.0000
  0
INSERT
  8
17
  2
ROUNDP
 10
60.9600
 20
50.8000
 30
0.0000
 41
1.6764
 42
1.6764
 43
1.0000
 50
180.0000
  0
INSERT
  8
17
  2
ROUNDP
 10
58.4200
 20
50.8000
 30
0.0000
 41
1.6764
 42
1.6764
 43
1.0000
 50
180.0000
  0
INSERT
  8
17
  2
ROUNDP
 10
58.4200
 20
50.8000
 30
0.0000
 41
1.6764
 42
1.6764
 43
1.0000
 50
180.0000
  0
INSERT
  8
17
  2
ROUNDP
 10
55.8800
 20
50.8000
 30
0.0000
 41
1.6764
 42
1.6764
 43
1.0000
 50
180.0000
  0
INSERT
  8
17
  2
ROUNDP
 10
55.8800
 20
50.8000
 30
0.0000
 41
1.6764
 42
1.6764
 43
1.0000
 50
180.0000
  0
INSERT
  8
17
  2
ROUNDP
 10
53.3400
 20
50.8000
 30
0.0000
 41
1.6764
 42
1.6764
 43
1.0000
 50
180.0000
  0
INSERT
  8
17
  2
ROUNDP
 10
53.3400
 20
50.8000
 30
0.0000
 41
1.6764
 42
1.6764
 43
1.0000
 50
180.0000
  0
INSERT
  8
17
  2
ROUNDP
 10
50.8000
 20
50.8000
 30
0.0000
 41
1.6764
 42
1.6764
 43
1.0000
 50
180.0000
  0
INSERT
  8
17
  2
ROUNDP
 10
50.8000
 20
50.8000
 30
0.0000
 41
1.6764
 42
1.6764
 43
1.0000
 50
180.0000
  0
INSERT
  8
17
  2
ROUNDP
 10
48.2600
 20
50.8000
 30
0.0000
 41
1.6764
 42
1.6764
 43
1.0000
 50
180.0000
  0
INSERT
  8
17
  2
ROUNDP
 10
48.2600
 20
50.8000
 30
0.0000
 41
1.6764
 42
1.6764
 43
1.0000
 50
180.0000
  0
INSERT
  8
17
  2
ROUNDP
 10
45.7200
 20
50.8000
 30
0.0000
 41
1.6764
 42
1.6764
 43
1.0000
 50
180.0000
  0
INSERT
  8
17
  2
ROUNDP
 10
45.7200
 20
50.8000
 30
0.0000
 41
1.6764
 42
1.6764
 43
1.0000
 50
180.0000
  0
INSERT
  8
17
  2
SQUAREP
 10
41.6560
 20
50.8000
 30
0.0000
 41
1.6764
 42
1.6764
 43
1.0000
 50
180.0000
  0
INSERT
  8
17
  2
SQUAREP
 10
41.6560
 20
50.8000
 30
0.0000
 41
1.6764
 42
1.6764
 43
1.0000
 50
180.0000
  0
INSERT
  8
17
  2
ROUNDP
 10
39.1160
 20
50.8000
 30
0.0000
 41
1.6764
 42
1.6764
 43
1.0000
 50
180.0000
  0
INSERT
  8
17
  2
ROUNDP
 10
39.1160
 20
50.8000
 30
0.0000
 41
1.6764
 42
1.6764
 43
1.0000
 50
180.0000
  0
INSERT
  8
17
  2
ROUNDP
 10
36.5760
 20
50.8000
 30
0.0000
 41
1.6764
 42
1.6764
 43
1.0000
 50
180.0000
  0
INSERT
  8
17
  2
ROUNDP
 10
36.5760
 20
50.8000
 30
0.0000
 41
1.6764
 42
1.6764
 43
1.0000
 50
180.0000
  0
INSERT
  8
17
  2
ROUNDP
 10
34.0360
 20
50.8000
 30
0.0000
 41
1.6764
 42
1.6764
 43
1.0000
 50
180.0000
  0
INSERT
  8
17
  2
ROUNDP
 10
34.0360
 20
50.8000
 30
0.0000
 41
1.6764
 42
1.6764
 43
1.0000
 50
180.0000
  0
INSERT
  8
17
  2
ROUNDP
 10
31.4960
 20
50.8000
 30
0.0000
 41
1.6764
 42
1.6764
 43
1.0000
 50
180.0000
  0
INSERT
  8
17
  2
ROUNDP
 10
31.4960
 20
50.8000
 30
0.0000
 41
1.6764
 42
1.6764
 43
1.0000
 50
180.0000
  0
INSERT
  8
17
  2
ROUNDP
 10
28.9560
 20
50.8000
 30
0.0000
 41
1.6764
 42
1.6764
 43
1.0000
 50
180.0000
  0
INSERT
  8
17
  2
ROUNDP
 10
28.9560
 20
50.8000
 30
0.0000
 41
1.6764
 42
1.6764
 43
1.0000
 50
180.0000
  0
INSERT
  8
17
  2
ROUNDP
 10
40.6400
 20
2.5400
 30
0.0000
 41
1.6764
 42
1.6764
 43
1.0000
 50
0.0000
  0
INSERT
  8
17
  2
ROUNDP
 10
40.6400
 20
2.5400
 30
0.0000
 41
1.6764
 42
1.6764
 43
1.0000
 50
0.0000
  0
INSERT
  8
17
  2
ROUNDP
 10
43.1800
 20
2.5400
 30
0.0000
 41
1.6764
 42
1.6764
 43
1.0000
 50
0.0000
  0
INSERT
  8
17
  2
ROUNDP
 10
43.1800
 20
2.5400
 30
0.0000
 41
1.6764
 42
1.6764
 43
1.0000
 50
0.0000
  0
INSERT
  8
17
  2
ROUNDP
 10
26.4160
 20
50.8000
 30
0.0000
 41
1.6764
 42
1.6764
 43
1.0000
 50
180.0000
  0
INSERT
  8
17
  2
ROUNDP
 10
26.4160
 20
50.8000
 30
0.0000
 41
1.6764
 42
1.6764
 43
1.0000
 50
180.0000
  0
INSERT
  8
17
  2
ROUNDP
 10
30.4800
 20
2.5400
 30
0.0000
 41
1.6764
 42
1.6764
 43
1.0000
 50
0.0000
  0
INSERT
  8
17
  2
ROUNDP
 10
30.4800
 20
2.5400
 30
0.0000
 41
1.6764
 42
1.6764
 43
1.0000
 50
0.0000
  0
INSERT
  8
17
  2
SQUAREP
 10
27.9400
 20
2.5400
 30
0.0000
 41
1.6764
 42
1.6764
 43
1.0000
 50
0.0000
  0
INSERT
  8
17
  2
SQUAREP
 10
27.9400
 20
2.5400
 30
0.0000
 41
1.6764
 42
1.6764
 43
1.0000
 50
0.0000
  0
INSERT
  8
17
  2
ROUNDP
 10
33.0200
 20
2.5400
 30
0.0000
 41
1.6764
 42
1.6764
 43
1.0000
 50
0.0000
  0
INSERT
  8
17
  2
ROUNDP
 10
33.0200
 20
2.5400
 30
0.0000
 41
1.6764
 42
1.6764
 43
1.0000
 50
0.0000
  0
INSERT
  8
17
  2
ROUNDP
 10
18.7960
 20
50.8000
 30
0.0000
 41
1.6764
 42
1.6764
 43
1.0000
 50
180.0000
  0
INSERT
  8
17
  2
ROUNDP
 10
18.7960
 20
50.8000
 30
0.0000
 41
1.6764
 42
1.6764
 43
1.0000
 50
180.0000
  0
INSERT
  8
17
  2
ROUNDP
 10
21.3360
 20
50.8000
 30
0.0000
 41
1.6764
 42
1.6764
 43
1.0000
 50
180.0000
  0
INSERT
  8
17
  2
ROUNDP
 10
21.3360
 20
50.8000
 30
0.0000
 41
1.6764
 42
1.6764
 43
1.0000
 50
180.0000
  0
INSERT
  8
17
  2
ROUNDP
 10
45.7200
 20
2.5400
 30
0.0000
 41
1.6764
 42
1.6764
 43
1.0000
 50
0.0000
  0
INSERT
  8
17
  2
ROUNDP
 10
45.7200
 20
2.5400
 30
0.0000
 41
1.6764
 42
1.6764
 43
1.0000
 50
0.0000
  0
ENDSEC
  0
EOF
