G75*
%MOIN*%
%OFA0B0*%
%FSLAX25Y25*%
%IPPOS*%
%LPD*%
%AMOC8*
5,1,8,0,0,1.08239X$1,22.5*
%
%ADD10C,0.00000*%
%ADD11R,0.03937X0.02756*%
%ADD12R,0.02362X0.02756*%
%ADD13R,0.02000X0.02000*%
%ADD14R,0.02362X0.00984*%
%ADD15R,0.02756X0.00984*%
%ADD16C,0.00001*%
%ADD17R,0.07874X0.03346*%
%ADD18R,0.06000X0.04000*%
%ADD19R,0.02500X0.03500*%
%ADD20R,0.04500X0.07000*%
%ADD21R,0.02756X0.01969*%
%ADD22C,0.08661*%
%ADD23R,0.05315X0.01575*%
%ADD24R,0.07480X0.07480*%
%ADD25C,0.02165*%
%ADD26C,0.01417*%
%ADD27C,0.10000*%
%ADD28C,0.00866*%
%ADD29R,0.05500X0.05000*%
%ADD30R,0.02559X0.00866*%
%ADD31R,0.00866X0.01969*%
%ADD32R,0.01260X0.01969*%
%ADD33R,0.02165X0.00866*%
%ADD34R,0.00866X0.02165*%
%ADD35R,0.05118X0.01654*%
%ADD36R,0.03543X0.02756*%
%ADD37R,0.03150X0.04331*%
%ADD38R,0.04000X0.06000*%
%ADD39R,0.07400X0.07400*%
%ADD40C,0.07400*%
%ADD41C,0.03150*%
%ADD42R,0.05118X0.04528*%
%ADD43R,0.04724X0.03543*%
%ADD44R,0.07087X0.05512*%
%ADD45R,0.04724X0.02362*%
D10*
X0165000Y0245000D02*
X0165000Y0375000D01*
X0385000Y0375000D01*
X0385000Y0245000D01*
X0165000Y0245000D01*
X0165925Y0267154D02*
X0165927Y0267233D01*
X0165933Y0267312D01*
X0165943Y0267391D01*
X0165957Y0267469D01*
X0165974Y0267546D01*
X0165996Y0267622D01*
X0166021Y0267697D01*
X0166051Y0267770D01*
X0166083Y0267842D01*
X0166120Y0267913D01*
X0166160Y0267981D01*
X0166203Y0268047D01*
X0166249Y0268111D01*
X0166299Y0268173D01*
X0166352Y0268232D01*
X0166407Y0268288D01*
X0166466Y0268342D01*
X0166527Y0268392D01*
X0166590Y0268440D01*
X0166656Y0268484D01*
X0166724Y0268525D01*
X0166794Y0268562D01*
X0166865Y0268596D01*
X0166939Y0268626D01*
X0167013Y0268652D01*
X0167089Y0268674D01*
X0167166Y0268693D01*
X0167244Y0268708D01*
X0167322Y0268719D01*
X0167401Y0268726D01*
X0167480Y0268729D01*
X0167559Y0268728D01*
X0167638Y0268723D01*
X0167717Y0268714D01*
X0167795Y0268701D01*
X0167872Y0268684D01*
X0167949Y0268664D01*
X0168024Y0268639D01*
X0168098Y0268611D01*
X0168171Y0268579D01*
X0168241Y0268544D01*
X0168310Y0268505D01*
X0168377Y0268462D01*
X0168442Y0268416D01*
X0168504Y0268368D01*
X0168564Y0268316D01*
X0168621Y0268261D01*
X0168675Y0268203D01*
X0168726Y0268143D01*
X0168774Y0268080D01*
X0168819Y0268015D01*
X0168861Y0267947D01*
X0168899Y0267878D01*
X0168933Y0267807D01*
X0168964Y0267734D01*
X0168992Y0267659D01*
X0169015Y0267584D01*
X0169035Y0267507D01*
X0169051Y0267430D01*
X0169063Y0267351D01*
X0169071Y0267273D01*
X0169075Y0267194D01*
X0169075Y0267114D01*
X0169071Y0267035D01*
X0169063Y0266957D01*
X0169051Y0266878D01*
X0169035Y0266801D01*
X0169015Y0266724D01*
X0168992Y0266649D01*
X0168964Y0266574D01*
X0168933Y0266501D01*
X0168899Y0266430D01*
X0168861Y0266361D01*
X0168819Y0266293D01*
X0168774Y0266228D01*
X0168726Y0266165D01*
X0168675Y0266105D01*
X0168621Y0266047D01*
X0168564Y0265992D01*
X0168504Y0265940D01*
X0168442Y0265892D01*
X0168377Y0265846D01*
X0168310Y0265803D01*
X0168241Y0265764D01*
X0168171Y0265729D01*
X0168098Y0265697D01*
X0168024Y0265669D01*
X0167949Y0265644D01*
X0167872Y0265624D01*
X0167795Y0265607D01*
X0167717Y0265594D01*
X0167638Y0265585D01*
X0167559Y0265580D01*
X0167480Y0265579D01*
X0167401Y0265582D01*
X0167322Y0265589D01*
X0167244Y0265600D01*
X0167166Y0265615D01*
X0167089Y0265634D01*
X0167013Y0265656D01*
X0166939Y0265682D01*
X0166865Y0265712D01*
X0166794Y0265746D01*
X0166724Y0265783D01*
X0166656Y0265824D01*
X0166590Y0265868D01*
X0166527Y0265916D01*
X0166466Y0265966D01*
X0166407Y0266020D01*
X0166352Y0266076D01*
X0166299Y0266135D01*
X0166249Y0266197D01*
X0166203Y0266261D01*
X0166160Y0266327D01*
X0166120Y0266395D01*
X0166083Y0266466D01*
X0166051Y0266538D01*
X0166021Y0266611D01*
X0165996Y0266686D01*
X0165974Y0266762D01*
X0165957Y0266839D01*
X0165943Y0266917D01*
X0165933Y0266996D01*
X0165927Y0267075D01*
X0165925Y0267154D01*
X0165925Y0273846D02*
X0165927Y0273925D01*
X0165933Y0274004D01*
X0165943Y0274083D01*
X0165957Y0274161D01*
X0165974Y0274238D01*
X0165996Y0274314D01*
X0166021Y0274389D01*
X0166051Y0274462D01*
X0166083Y0274534D01*
X0166120Y0274605D01*
X0166160Y0274673D01*
X0166203Y0274739D01*
X0166249Y0274803D01*
X0166299Y0274865D01*
X0166352Y0274924D01*
X0166407Y0274980D01*
X0166466Y0275034D01*
X0166527Y0275084D01*
X0166590Y0275132D01*
X0166656Y0275176D01*
X0166724Y0275217D01*
X0166794Y0275254D01*
X0166865Y0275288D01*
X0166939Y0275318D01*
X0167013Y0275344D01*
X0167089Y0275366D01*
X0167166Y0275385D01*
X0167244Y0275400D01*
X0167322Y0275411D01*
X0167401Y0275418D01*
X0167480Y0275421D01*
X0167559Y0275420D01*
X0167638Y0275415D01*
X0167717Y0275406D01*
X0167795Y0275393D01*
X0167872Y0275376D01*
X0167949Y0275356D01*
X0168024Y0275331D01*
X0168098Y0275303D01*
X0168171Y0275271D01*
X0168241Y0275236D01*
X0168310Y0275197D01*
X0168377Y0275154D01*
X0168442Y0275108D01*
X0168504Y0275060D01*
X0168564Y0275008D01*
X0168621Y0274953D01*
X0168675Y0274895D01*
X0168726Y0274835D01*
X0168774Y0274772D01*
X0168819Y0274707D01*
X0168861Y0274639D01*
X0168899Y0274570D01*
X0168933Y0274499D01*
X0168964Y0274426D01*
X0168992Y0274351D01*
X0169015Y0274276D01*
X0169035Y0274199D01*
X0169051Y0274122D01*
X0169063Y0274043D01*
X0169071Y0273965D01*
X0169075Y0273886D01*
X0169075Y0273806D01*
X0169071Y0273727D01*
X0169063Y0273649D01*
X0169051Y0273570D01*
X0169035Y0273493D01*
X0169015Y0273416D01*
X0168992Y0273341D01*
X0168964Y0273266D01*
X0168933Y0273193D01*
X0168899Y0273122D01*
X0168861Y0273053D01*
X0168819Y0272985D01*
X0168774Y0272920D01*
X0168726Y0272857D01*
X0168675Y0272797D01*
X0168621Y0272739D01*
X0168564Y0272684D01*
X0168504Y0272632D01*
X0168442Y0272584D01*
X0168377Y0272538D01*
X0168310Y0272495D01*
X0168241Y0272456D01*
X0168171Y0272421D01*
X0168098Y0272389D01*
X0168024Y0272361D01*
X0167949Y0272336D01*
X0167872Y0272316D01*
X0167795Y0272299D01*
X0167717Y0272286D01*
X0167638Y0272277D01*
X0167559Y0272272D01*
X0167480Y0272271D01*
X0167401Y0272274D01*
X0167322Y0272281D01*
X0167244Y0272292D01*
X0167166Y0272307D01*
X0167089Y0272326D01*
X0167013Y0272348D01*
X0166939Y0272374D01*
X0166865Y0272404D01*
X0166794Y0272438D01*
X0166724Y0272475D01*
X0166656Y0272516D01*
X0166590Y0272560D01*
X0166527Y0272608D01*
X0166466Y0272658D01*
X0166407Y0272712D01*
X0166352Y0272768D01*
X0166299Y0272827D01*
X0166249Y0272889D01*
X0166203Y0272953D01*
X0166160Y0273019D01*
X0166120Y0273087D01*
X0166083Y0273158D01*
X0166051Y0273230D01*
X0166021Y0273303D01*
X0165996Y0273378D01*
X0165974Y0273454D01*
X0165957Y0273531D01*
X0165943Y0273609D01*
X0165933Y0273688D01*
X0165927Y0273767D01*
X0165925Y0273846D01*
X0178090Y0302126D02*
X0178092Y0302191D01*
X0178098Y0302257D01*
X0178108Y0302321D01*
X0178121Y0302385D01*
X0178139Y0302448D01*
X0178160Y0302510D01*
X0178185Y0302570D01*
X0178214Y0302629D01*
X0178246Y0302686D01*
X0178282Y0302741D01*
X0178320Y0302794D01*
X0178362Y0302844D01*
X0178407Y0302892D01*
X0178455Y0302937D01*
X0178505Y0302979D01*
X0178558Y0303017D01*
X0178613Y0303053D01*
X0178670Y0303085D01*
X0178729Y0303114D01*
X0178789Y0303139D01*
X0178851Y0303160D01*
X0178914Y0303178D01*
X0178978Y0303191D01*
X0179042Y0303201D01*
X0179108Y0303207D01*
X0179173Y0303209D01*
X0179238Y0303207D01*
X0179304Y0303201D01*
X0179368Y0303191D01*
X0179432Y0303178D01*
X0179495Y0303160D01*
X0179557Y0303139D01*
X0179617Y0303114D01*
X0179676Y0303085D01*
X0179733Y0303053D01*
X0179788Y0303017D01*
X0179841Y0302979D01*
X0179891Y0302937D01*
X0179939Y0302892D01*
X0179984Y0302844D01*
X0180026Y0302794D01*
X0180064Y0302741D01*
X0180100Y0302686D01*
X0180132Y0302629D01*
X0180161Y0302570D01*
X0180186Y0302510D01*
X0180207Y0302448D01*
X0180225Y0302385D01*
X0180238Y0302321D01*
X0180248Y0302257D01*
X0180254Y0302191D01*
X0180256Y0302126D01*
X0180254Y0302061D01*
X0180248Y0301995D01*
X0180238Y0301931D01*
X0180225Y0301867D01*
X0180207Y0301804D01*
X0180186Y0301742D01*
X0180161Y0301682D01*
X0180132Y0301623D01*
X0180100Y0301566D01*
X0180064Y0301511D01*
X0180026Y0301458D01*
X0179984Y0301408D01*
X0179939Y0301360D01*
X0179891Y0301315D01*
X0179841Y0301273D01*
X0179788Y0301235D01*
X0179733Y0301199D01*
X0179676Y0301167D01*
X0179617Y0301138D01*
X0179557Y0301113D01*
X0179495Y0301092D01*
X0179432Y0301074D01*
X0179368Y0301061D01*
X0179304Y0301051D01*
X0179238Y0301045D01*
X0179173Y0301043D01*
X0179108Y0301045D01*
X0179042Y0301051D01*
X0178978Y0301061D01*
X0178914Y0301074D01*
X0178851Y0301092D01*
X0178789Y0301113D01*
X0178729Y0301138D01*
X0178670Y0301167D01*
X0178613Y0301199D01*
X0178558Y0301235D01*
X0178505Y0301273D01*
X0178455Y0301315D01*
X0178407Y0301360D01*
X0178362Y0301408D01*
X0178320Y0301458D01*
X0178282Y0301511D01*
X0178246Y0301566D01*
X0178214Y0301623D01*
X0178185Y0301682D01*
X0178160Y0301742D01*
X0178139Y0301804D01*
X0178121Y0301867D01*
X0178108Y0301931D01*
X0178098Y0301995D01*
X0178092Y0302061D01*
X0178090Y0302126D01*
X0178090Y0317874D02*
X0178092Y0317939D01*
X0178098Y0318005D01*
X0178108Y0318069D01*
X0178121Y0318133D01*
X0178139Y0318196D01*
X0178160Y0318258D01*
X0178185Y0318318D01*
X0178214Y0318377D01*
X0178246Y0318434D01*
X0178282Y0318489D01*
X0178320Y0318542D01*
X0178362Y0318592D01*
X0178407Y0318640D01*
X0178455Y0318685D01*
X0178505Y0318727D01*
X0178558Y0318765D01*
X0178613Y0318801D01*
X0178670Y0318833D01*
X0178729Y0318862D01*
X0178789Y0318887D01*
X0178851Y0318908D01*
X0178914Y0318926D01*
X0178978Y0318939D01*
X0179042Y0318949D01*
X0179108Y0318955D01*
X0179173Y0318957D01*
X0179238Y0318955D01*
X0179304Y0318949D01*
X0179368Y0318939D01*
X0179432Y0318926D01*
X0179495Y0318908D01*
X0179557Y0318887D01*
X0179617Y0318862D01*
X0179676Y0318833D01*
X0179733Y0318801D01*
X0179788Y0318765D01*
X0179841Y0318727D01*
X0179891Y0318685D01*
X0179939Y0318640D01*
X0179984Y0318592D01*
X0180026Y0318542D01*
X0180064Y0318489D01*
X0180100Y0318434D01*
X0180132Y0318377D01*
X0180161Y0318318D01*
X0180186Y0318258D01*
X0180207Y0318196D01*
X0180225Y0318133D01*
X0180238Y0318069D01*
X0180248Y0318005D01*
X0180254Y0317939D01*
X0180256Y0317874D01*
X0180254Y0317809D01*
X0180248Y0317743D01*
X0180238Y0317679D01*
X0180225Y0317615D01*
X0180207Y0317552D01*
X0180186Y0317490D01*
X0180161Y0317430D01*
X0180132Y0317371D01*
X0180100Y0317314D01*
X0180064Y0317259D01*
X0180026Y0317206D01*
X0179984Y0317156D01*
X0179939Y0317108D01*
X0179891Y0317063D01*
X0179841Y0317021D01*
X0179788Y0316983D01*
X0179733Y0316947D01*
X0179676Y0316915D01*
X0179617Y0316886D01*
X0179557Y0316861D01*
X0179495Y0316840D01*
X0179432Y0316822D01*
X0179368Y0316809D01*
X0179304Y0316799D01*
X0179238Y0316793D01*
X0179173Y0316791D01*
X0179108Y0316793D01*
X0179042Y0316799D01*
X0178978Y0316809D01*
X0178914Y0316822D01*
X0178851Y0316840D01*
X0178789Y0316861D01*
X0178729Y0316886D01*
X0178670Y0316915D01*
X0178613Y0316947D01*
X0178558Y0316983D01*
X0178505Y0317021D01*
X0178455Y0317063D01*
X0178407Y0317108D01*
X0178362Y0317156D01*
X0178320Y0317206D01*
X0178282Y0317259D01*
X0178246Y0317314D01*
X0178214Y0317371D01*
X0178185Y0317430D01*
X0178160Y0317490D01*
X0178139Y0317552D01*
X0178121Y0317615D01*
X0178108Y0317679D01*
X0178098Y0317743D01*
X0178092Y0317809D01*
X0178090Y0317874D01*
X0165925Y0345654D02*
X0165927Y0345733D01*
X0165933Y0345812D01*
X0165943Y0345891D01*
X0165957Y0345969D01*
X0165974Y0346046D01*
X0165996Y0346122D01*
X0166021Y0346197D01*
X0166051Y0346270D01*
X0166083Y0346342D01*
X0166120Y0346413D01*
X0166160Y0346481D01*
X0166203Y0346547D01*
X0166249Y0346611D01*
X0166299Y0346673D01*
X0166352Y0346732D01*
X0166407Y0346788D01*
X0166466Y0346842D01*
X0166527Y0346892D01*
X0166590Y0346940D01*
X0166656Y0346984D01*
X0166724Y0347025D01*
X0166794Y0347062D01*
X0166865Y0347096D01*
X0166939Y0347126D01*
X0167013Y0347152D01*
X0167089Y0347174D01*
X0167166Y0347193D01*
X0167244Y0347208D01*
X0167322Y0347219D01*
X0167401Y0347226D01*
X0167480Y0347229D01*
X0167559Y0347228D01*
X0167638Y0347223D01*
X0167717Y0347214D01*
X0167795Y0347201D01*
X0167872Y0347184D01*
X0167949Y0347164D01*
X0168024Y0347139D01*
X0168098Y0347111D01*
X0168171Y0347079D01*
X0168241Y0347044D01*
X0168310Y0347005D01*
X0168377Y0346962D01*
X0168442Y0346916D01*
X0168504Y0346868D01*
X0168564Y0346816D01*
X0168621Y0346761D01*
X0168675Y0346703D01*
X0168726Y0346643D01*
X0168774Y0346580D01*
X0168819Y0346515D01*
X0168861Y0346447D01*
X0168899Y0346378D01*
X0168933Y0346307D01*
X0168964Y0346234D01*
X0168992Y0346159D01*
X0169015Y0346084D01*
X0169035Y0346007D01*
X0169051Y0345930D01*
X0169063Y0345851D01*
X0169071Y0345773D01*
X0169075Y0345694D01*
X0169075Y0345614D01*
X0169071Y0345535D01*
X0169063Y0345457D01*
X0169051Y0345378D01*
X0169035Y0345301D01*
X0169015Y0345224D01*
X0168992Y0345149D01*
X0168964Y0345074D01*
X0168933Y0345001D01*
X0168899Y0344930D01*
X0168861Y0344861D01*
X0168819Y0344793D01*
X0168774Y0344728D01*
X0168726Y0344665D01*
X0168675Y0344605D01*
X0168621Y0344547D01*
X0168564Y0344492D01*
X0168504Y0344440D01*
X0168442Y0344392D01*
X0168377Y0344346D01*
X0168310Y0344303D01*
X0168241Y0344264D01*
X0168171Y0344229D01*
X0168098Y0344197D01*
X0168024Y0344169D01*
X0167949Y0344144D01*
X0167872Y0344124D01*
X0167795Y0344107D01*
X0167717Y0344094D01*
X0167638Y0344085D01*
X0167559Y0344080D01*
X0167480Y0344079D01*
X0167401Y0344082D01*
X0167322Y0344089D01*
X0167244Y0344100D01*
X0167166Y0344115D01*
X0167089Y0344134D01*
X0167013Y0344156D01*
X0166939Y0344182D01*
X0166865Y0344212D01*
X0166794Y0344246D01*
X0166724Y0344283D01*
X0166656Y0344324D01*
X0166590Y0344368D01*
X0166527Y0344416D01*
X0166466Y0344466D01*
X0166407Y0344520D01*
X0166352Y0344576D01*
X0166299Y0344635D01*
X0166249Y0344697D01*
X0166203Y0344761D01*
X0166160Y0344827D01*
X0166120Y0344895D01*
X0166083Y0344966D01*
X0166051Y0345038D01*
X0166021Y0345111D01*
X0165996Y0345186D01*
X0165974Y0345262D01*
X0165957Y0345339D01*
X0165943Y0345417D01*
X0165933Y0345496D01*
X0165927Y0345575D01*
X0165925Y0345654D01*
X0165925Y0352346D02*
X0165927Y0352425D01*
X0165933Y0352504D01*
X0165943Y0352583D01*
X0165957Y0352661D01*
X0165974Y0352738D01*
X0165996Y0352814D01*
X0166021Y0352889D01*
X0166051Y0352962D01*
X0166083Y0353034D01*
X0166120Y0353105D01*
X0166160Y0353173D01*
X0166203Y0353239D01*
X0166249Y0353303D01*
X0166299Y0353365D01*
X0166352Y0353424D01*
X0166407Y0353480D01*
X0166466Y0353534D01*
X0166527Y0353584D01*
X0166590Y0353632D01*
X0166656Y0353676D01*
X0166724Y0353717D01*
X0166794Y0353754D01*
X0166865Y0353788D01*
X0166939Y0353818D01*
X0167013Y0353844D01*
X0167089Y0353866D01*
X0167166Y0353885D01*
X0167244Y0353900D01*
X0167322Y0353911D01*
X0167401Y0353918D01*
X0167480Y0353921D01*
X0167559Y0353920D01*
X0167638Y0353915D01*
X0167717Y0353906D01*
X0167795Y0353893D01*
X0167872Y0353876D01*
X0167949Y0353856D01*
X0168024Y0353831D01*
X0168098Y0353803D01*
X0168171Y0353771D01*
X0168241Y0353736D01*
X0168310Y0353697D01*
X0168377Y0353654D01*
X0168442Y0353608D01*
X0168504Y0353560D01*
X0168564Y0353508D01*
X0168621Y0353453D01*
X0168675Y0353395D01*
X0168726Y0353335D01*
X0168774Y0353272D01*
X0168819Y0353207D01*
X0168861Y0353139D01*
X0168899Y0353070D01*
X0168933Y0352999D01*
X0168964Y0352926D01*
X0168992Y0352851D01*
X0169015Y0352776D01*
X0169035Y0352699D01*
X0169051Y0352622D01*
X0169063Y0352543D01*
X0169071Y0352465D01*
X0169075Y0352386D01*
X0169075Y0352306D01*
X0169071Y0352227D01*
X0169063Y0352149D01*
X0169051Y0352070D01*
X0169035Y0351993D01*
X0169015Y0351916D01*
X0168992Y0351841D01*
X0168964Y0351766D01*
X0168933Y0351693D01*
X0168899Y0351622D01*
X0168861Y0351553D01*
X0168819Y0351485D01*
X0168774Y0351420D01*
X0168726Y0351357D01*
X0168675Y0351297D01*
X0168621Y0351239D01*
X0168564Y0351184D01*
X0168504Y0351132D01*
X0168442Y0351084D01*
X0168377Y0351038D01*
X0168310Y0350995D01*
X0168241Y0350956D01*
X0168171Y0350921D01*
X0168098Y0350889D01*
X0168024Y0350861D01*
X0167949Y0350836D01*
X0167872Y0350816D01*
X0167795Y0350799D01*
X0167717Y0350786D01*
X0167638Y0350777D01*
X0167559Y0350772D01*
X0167480Y0350771D01*
X0167401Y0350774D01*
X0167322Y0350781D01*
X0167244Y0350792D01*
X0167166Y0350807D01*
X0167089Y0350826D01*
X0167013Y0350848D01*
X0166939Y0350874D01*
X0166865Y0350904D01*
X0166794Y0350938D01*
X0166724Y0350975D01*
X0166656Y0351016D01*
X0166590Y0351060D01*
X0166527Y0351108D01*
X0166466Y0351158D01*
X0166407Y0351212D01*
X0166352Y0351268D01*
X0166299Y0351327D01*
X0166249Y0351389D01*
X0166203Y0351453D01*
X0166160Y0351519D01*
X0166120Y0351587D01*
X0166083Y0351658D01*
X0166051Y0351730D01*
X0166021Y0351803D01*
X0165996Y0351878D01*
X0165974Y0351954D01*
X0165957Y0352031D01*
X0165943Y0352109D01*
X0165933Y0352188D01*
X0165927Y0352267D01*
X0165925Y0352346D01*
X0218122Y0279453D02*
X0218122Y0277642D01*
X0218909Y0278429D01*
X0218909Y0279453D01*
X0218122Y0279453D01*
X0379425Y0269346D02*
X0379427Y0269425D01*
X0379433Y0269504D01*
X0379443Y0269583D01*
X0379457Y0269661D01*
X0379474Y0269738D01*
X0379496Y0269814D01*
X0379521Y0269889D01*
X0379551Y0269962D01*
X0379583Y0270034D01*
X0379620Y0270105D01*
X0379660Y0270173D01*
X0379703Y0270239D01*
X0379749Y0270303D01*
X0379799Y0270365D01*
X0379852Y0270424D01*
X0379907Y0270480D01*
X0379966Y0270534D01*
X0380027Y0270584D01*
X0380090Y0270632D01*
X0380156Y0270676D01*
X0380224Y0270717D01*
X0380294Y0270754D01*
X0380365Y0270788D01*
X0380439Y0270818D01*
X0380513Y0270844D01*
X0380589Y0270866D01*
X0380666Y0270885D01*
X0380744Y0270900D01*
X0380822Y0270911D01*
X0380901Y0270918D01*
X0380980Y0270921D01*
X0381059Y0270920D01*
X0381138Y0270915D01*
X0381217Y0270906D01*
X0381295Y0270893D01*
X0381372Y0270876D01*
X0381449Y0270856D01*
X0381524Y0270831D01*
X0381598Y0270803D01*
X0381671Y0270771D01*
X0381741Y0270736D01*
X0381810Y0270697D01*
X0381877Y0270654D01*
X0381942Y0270608D01*
X0382004Y0270560D01*
X0382064Y0270508D01*
X0382121Y0270453D01*
X0382175Y0270395D01*
X0382226Y0270335D01*
X0382274Y0270272D01*
X0382319Y0270207D01*
X0382361Y0270139D01*
X0382399Y0270070D01*
X0382433Y0269999D01*
X0382464Y0269926D01*
X0382492Y0269851D01*
X0382515Y0269776D01*
X0382535Y0269699D01*
X0382551Y0269622D01*
X0382563Y0269543D01*
X0382571Y0269465D01*
X0382575Y0269386D01*
X0382575Y0269306D01*
X0382571Y0269227D01*
X0382563Y0269149D01*
X0382551Y0269070D01*
X0382535Y0268993D01*
X0382515Y0268916D01*
X0382492Y0268841D01*
X0382464Y0268766D01*
X0382433Y0268693D01*
X0382399Y0268622D01*
X0382361Y0268553D01*
X0382319Y0268485D01*
X0382274Y0268420D01*
X0382226Y0268357D01*
X0382175Y0268297D01*
X0382121Y0268239D01*
X0382064Y0268184D01*
X0382004Y0268132D01*
X0381942Y0268084D01*
X0381877Y0268038D01*
X0381810Y0267995D01*
X0381741Y0267956D01*
X0381671Y0267921D01*
X0381598Y0267889D01*
X0381524Y0267861D01*
X0381449Y0267836D01*
X0381372Y0267816D01*
X0381295Y0267799D01*
X0381217Y0267786D01*
X0381138Y0267777D01*
X0381059Y0267772D01*
X0380980Y0267771D01*
X0380901Y0267774D01*
X0380822Y0267781D01*
X0380744Y0267792D01*
X0380666Y0267807D01*
X0380589Y0267826D01*
X0380513Y0267848D01*
X0380439Y0267874D01*
X0380365Y0267904D01*
X0380294Y0267938D01*
X0380224Y0267975D01*
X0380156Y0268016D01*
X0380090Y0268060D01*
X0380027Y0268108D01*
X0379966Y0268158D01*
X0379907Y0268212D01*
X0379852Y0268268D01*
X0379799Y0268327D01*
X0379749Y0268389D01*
X0379703Y0268453D01*
X0379660Y0268519D01*
X0379620Y0268587D01*
X0379583Y0268658D01*
X0379551Y0268730D01*
X0379521Y0268803D01*
X0379496Y0268878D01*
X0379474Y0268954D01*
X0379457Y0269031D01*
X0379443Y0269109D01*
X0379433Y0269188D01*
X0379427Y0269267D01*
X0379425Y0269346D01*
X0379425Y0262654D02*
X0379427Y0262733D01*
X0379433Y0262812D01*
X0379443Y0262891D01*
X0379457Y0262969D01*
X0379474Y0263046D01*
X0379496Y0263122D01*
X0379521Y0263197D01*
X0379551Y0263270D01*
X0379583Y0263342D01*
X0379620Y0263413D01*
X0379660Y0263481D01*
X0379703Y0263547D01*
X0379749Y0263611D01*
X0379799Y0263673D01*
X0379852Y0263732D01*
X0379907Y0263788D01*
X0379966Y0263842D01*
X0380027Y0263892D01*
X0380090Y0263940D01*
X0380156Y0263984D01*
X0380224Y0264025D01*
X0380294Y0264062D01*
X0380365Y0264096D01*
X0380439Y0264126D01*
X0380513Y0264152D01*
X0380589Y0264174D01*
X0380666Y0264193D01*
X0380744Y0264208D01*
X0380822Y0264219D01*
X0380901Y0264226D01*
X0380980Y0264229D01*
X0381059Y0264228D01*
X0381138Y0264223D01*
X0381217Y0264214D01*
X0381295Y0264201D01*
X0381372Y0264184D01*
X0381449Y0264164D01*
X0381524Y0264139D01*
X0381598Y0264111D01*
X0381671Y0264079D01*
X0381741Y0264044D01*
X0381810Y0264005D01*
X0381877Y0263962D01*
X0381942Y0263916D01*
X0382004Y0263868D01*
X0382064Y0263816D01*
X0382121Y0263761D01*
X0382175Y0263703D01*
X0382226Y0263643D01*
X0382274Y0263580D01*
X0382319Y0263515D01*
X0382361Y0263447D01*
X0382399Y0263378D01*
X0382433Y0263307D01*
X0382464Y0263234D01*
X0382492Y0263159D01*
X0382515Y0263084D01*
X0382535Y0263007D01*
X0382551Y0262930D01*
X0382563Y0262851D01*
X0382571Y0262773D01*
X0382575Y0262694D01*
X0382575Y0262614D01*
X0382571Y0262535D01*
X0382563Y0262457D01*
X0382551Y0262378D01*
X0382535Y0262301D01*
X0382515Y0262224D01*
X0382492Y0262149D01*
X0382464Y0262074D01*
X0382433Y0262001D01*
X0382399Y0261930D01*
X0382361Y0261861D01*
X0382319Y0261793D01*
X0382274Y0261728D01*
X0382226Y0261665D01*
X0382175Y0261605D01*
X0382121Y0261547D01*
X0382064Y0261492D01*
X0382004Y0261440D01*
X0381942Y0261392D01*
X0381877Y0261346D01*
X0381810Y0261303D01*
X0381741Y0261264D01*
X0381671Y0261229D01*
X0381598Y0261197D01*
X0381524Y0261169D01*
X0381449Y0261144D01*
X0381372Y0261124D01*
X0381295Y0261107D01*
X0381217Y0261094D01*
X0381138Y0261085D01*
X0381059Y0261080D01*
X0380980Y0261079D01*
X0380901Y0261082D01*
X0380822Y0261089D01*
X0380744Y0261100D01*
X0380666Y0261115D01*
X0380589Y0261134D01*
X0380513Y0261156D01*
X0380439Y0261182D01*
X0380365Y0261212D01*
X0380294Y0261246D01*
X0380224Y0261283D01*
X0380156Y0261324D01*
X0380090Y0261368D01*
X0380027Y0261416D01*
X0379966Y0261466D01*
X0379907Y0261520D01*
X0379852Y0261576D01*
X0379799Y0261635D01*
X0379749Y0261697D01*
X0379703Y0261761D01*
X0379660Y0261827D01*
X0379620Y0261895D01*
X0379583Y0261966D01*
X0379551Y0262038D01*
X0379521Y0262111D01*
X0379496Y0262186D01*
X0379474Y0262262D01*
X0379457Y0262339D01*
X0379443Y0262417D01*
X0379433Y0262496D01*
X0379427Y0262575D01*
X0379425Y0262654D01*
D11*
X0189547Y0312637D03*
D12*
X0196240Y0312637D03*
X0196240Y0304763D03*
X0188760Y0304763D03*
D13*
X0188500Y0298500D03*
X0191500Y0298500D03*
X0202000Y0295500D03*
X0202000Y0292500D03*
X0206000Y0292500D03*
X0206000Y0295500D03*
X0208500Y0284000D03*
X0208500Y0281000D03*
X0212500Y0281000D03*
X0212500Y0284000D03*
X0212000Y0276500D03*
X0209000Y0276500D03*
X0204000Y0276500D03*
X0201000Y0276500D03*
X0202000Y0281000D03*
X0199000Y0281000D03*
X0196000Y0276500D03*
X0193000Y0276500D03*
X0190000Y0271000D03*
X0187000Y0271000D03*
X0212500Y0272000D03*
X0212500Y0269000D03*
X0212500Y0264000D03*
X0212500Y0261000D03*
X0216500Y0261000D03*
X0216500Y0264000D03*
X0217000Y0274500D03*
X0220000Y0274500D03*
X0256500Y0291000D03*
X0259500Y0291000D03*
X0259500Y0295000D03*
X0256500Y0295000D03*
X0256500Y0299000D03*
X0259500Y0299000D03*
X0259500Y0305000D03*
X0256500Y0305000D03*
X0256500Y0309000D03*
X0259500Y0309000D03*
X0277500Y0333500D03*
X0280500Y0333500D03*
X0285500Y0333500D03*
X0288500Y0333500D03*
X0295500Y0339000D03*
X0295500Y0342000D03*
X0275500Y0343000D03*
X0275500Y0346000D03*
X0239000Y0382500D03*
X0236000Y0382500D03*
X0236000Y0386500D03*
X0239000Y0386500D03*
X0239000Y0390500D03*
X0236000Y0390500D03*
X0236000Y0394500D03*
X0239000Y0394500D03*
X0244000Y0394500D03*
X0247000Y0394500D03*
X0252000Y0394500D03*
X0255000Y0394500D03*
X0216500Y0385000D03*
X0216500Y0382000D03*
X0212000Y0383500D03*
X0209000Y0383500D03*
X0204000Y0383500D03*
X0201000Y0383500D03*
X0200500Y0390000D03*
X0200500Y0393000D03*
X0189000Y0395500D03*
X0186000Y0395500D03*
X0185500Y0389000D03*
X0185500Y0386000D03*
X0186000Y0381500D03*
X0189000Y0381500D03*
X0214500Y0390000D03*
X0214500Y0393000D03*
X0188000Y0355000D03*
X0188000Y0352000D03*
X0179102Y0352035D03*
X0179102Y0355035D03*
X0187000Y0336000D03*
X0190000Y0336000D03*
X0190000Y0332000D03*
X0187000Y0332000D03*
X0279000Y0276000D03*
X0279000Y0273000D03*
X0301000Y0276500D03*
X0304000Y0276500D03*
X0317500Y0289000D03*
X0320500Y0289000D03*
X0365500Y0271000D03*
X0365500Y0268000D03*
X0369500Y0268000D03*
X0369500Y0271000D03*
D14*
X0216547Y0278547D03*
D15*
X0216744Y0280516D03*
X0216744Y0282484D03*
X0216744Y0284453D03*
X0222256Y0284453D03*
X0222256Y0282484D03*
X0222256Y0280516D03*
X0222256Y0278547D03*
D16*
X0218909Y0278555D02*
X0218122Y0278555D01*
X0218122Y0278554D02*
X0218909Y0278554D01*
X0218909Y0278553D02*
X0218122Y0278553D01*
X0218122Y0278552D02*
X0218909Y0278552D01*
X0218909Y0278551D02*
X0218122Y0278551D01*
X0218122Y0278550D02*
X0218909Y0278550D01*
X0218909Y0278549D02*
X0218122Y0278549D01*
X0218122Y0278548D02*
X0218909Y0278548D01*
X0218909Y0278547D02*
X0218122Y0278547D01*
X0218122Y0278546D02*
X0218909Y0278546D01*
X0218909Y0278545D02*
X0218122Y0278545D01*
X0218122Y0278544D02*
X0218909Y0278544D01*
X0218909Y0278543D02*
X0218122Y0278543D01*
X0218122Y0278542D02*
X0218909Y0278542D01*
X0218909Y0278541D02*
X0218122Y0278541D01*
X0218122Y0278540D02*
X0218909Y0278540D01*
X0218909Y0278539D02*
X0218122Y0278539D01*
X0218122Y0278538D02*
X0218909Y0278538D01*
X0218909Y0278537D02*
X0218122Y0278537D01*
X0218122Y0278536D02*
X0218909Y0278536D01*
X0218909Y0278535D02*
X0218122Y0278535D01*
X0218122Y0278534D02*
X0218909Y0278534D01*
X0218909Y0278533D02*
X0218122Y0278533D01*
X0218122Y0278532D02*
X0218909Y0278532D01*
X0218909Y0278531D02*
X0218122Y0278531D01*
X0218909Y0278531D01*
X0218909Y0278530D02*
X0218122Y0278530D01*
X0218122Y0278529D02*
X0218909Y0278529D01*
X0218909Y0278528D02*
X0218122Y0278528D01*
X0218122Y0278527D02*
X0218909Y0278527D01*
X0218909Y0278526D02*
X0218122Y0278526D01*
X0218122Y0278525D02*
X0218909Y0278525D01*
X0218909Y0278524D02*
X0218122Y0278524D01*
X0218122Y0278523D02*
X0218909Y0278523D01*
X0218909Y0278522D02*
X0218122Y0278522D01*
X0218122Y0278521D02*
X0218909Y0278521D01*
X0218909Y0278520D02*
X0218122Y0278520D01*
X0218122Y0278519D02*
X0218909Y0278519D01*
X0218909Y0278518D02*
X0218122Y0278518D01*
X0218122Y0278517D02*
X0218909Y0278517D01*
X0218909Y0278516D02*
X0218122Y0278516D01*
X0218122Y0278515D02*
X0218909Y0278515D01*
X0218909Y0278514D02*
X0218122Y0278514D01*
X0218122Y0278513D02*
X0218909Y0278513D01*
X0218909Y0278512D02*
X0218122Y0278512D01*
X0218122Y0278511D02*
X0218909Y0278511D01*
X0218909Y0278510D02*
X0218122Y0278510D01*
X0218122Y0278509D02*
X0218909Y0278509D01*
X0218909Y0278508D02*
X0218122Y0278508D01*
X0218122Y0278507D02*
X0218909Y0278507D01*
X0218909Y0278506D02*
X0218122Y0278506D01*
X0218122Y0278505D02*
X0218909Y0278505D01*
X0218909Y0278504D02*
X0218122Y0278504D01*
X0218122Y0278503D02*
X0218909Y0278503D01*
X0218909Y0278502D02*
X0218122Y0278502D01*
X0218122Y0278501D02*
X0218909Y0278501D01*
X0218909Y0278500D02*
X0218122Y0278500D01*
X0218122Y0278499D02*
X0218909Y0278499D01*
X0218909Y0278498D02*
X0218122Y0278498D01*
X0218122Y0278497D02*
X0218909Y0278497D01*
X0218909Y0278496D02*
X0218122Y0278496D01*
X0218122Y0278495D02*
X0218909Y0278495D01*
X0218909Y0278494D02*
X0218122Y0278494D01*
X0218122Y0278493D02*
X0218909Y0278493D01*
X0218909Y0278492D02*
X0218122Y0278492D01*
X0218122Y0278491D02*
X0218909Y0278491D01*
X0218909Y0278490D02*
X0218122Y0278490D01*
X0218122Y0278489D02*
X0218909Y0278489D01*
X0218909Y0278488D02*
X0218122Y0278488D01*
X0218122Y0278487D02*
X0218909Y0278487D01*
X0218909Y0278486D02*
X0218122Y0278486D01*
X0218122Y0278485D02*
X0218909Y0278485D01*
X0218909Y0278484D02*
X0218122Y0278484D01*
X0218122Y0278483D02*
X0218909Y0278483D01*
X0218909Y0278482D02*
X0218122Y0278482D01*
X0218122Y0278481D02*
X0218909Y0278481D01*
X0218909Y0278480D02*
X0218122Y0278480D01*
X0218122Y0278479D02*
X0218909Y0278479D01*
X0218909Y0278478D02*
X0218122Y0278478D01*
X0218122Y0278477D02*
X0218909Y0278477D01*
X0218909Y0278476D02*
X0218122Y0278476D01*
X0218122Y0278475D02*
X0218909Y0278475D01*
X0218909Y0278474D02*
X0218122Y0278474D01*
X0218122Y0278473D02*
X0218909Y0278473D01*
X0218909Y0278472D02*
X0218122Y0278472D01*
X0218122Y0278471D02*
X0218909Y0278471D01*
X0218909Y0278470D02*
X0218122Y0278470D01*
X0218122Y0278469D02*
X0218909Y0278469D01*
X0218122Y0278469D01*
X0218122Y0278468D02*
X0218909Y0278468D01*
X0218909Y0278467D02*
X0218122Y0278467D01*
X0218122Y0278466D02*
X0218909Y0278466D01*
X0218909Y0278465D02*
X0218122Y0278465D01*
X0218122Y0278464D02*
X0218909Y0278464D01*
X0218909Y0278463D02*
X0218122Y0278463D01*
X0218122Y0278462D02*
X0218909Y0278462D01*
X0218909Y0278461D02*
X0218122Y0278461D01*
X0218122Y0278460D02*
X0218909Y0278460D01*
X0218909Y0278459D02*
X0218122Y0278459D01*
X0218122Y0278458D02*
X0218909Y0278458D01*
X0218909Y0278457D02*
X0218122Y0278457D01*
X0218122Y0278456D02*
X0218909Y0278456D01*
X0218909Y0278455D02*
X0218122Y0278455D01*
X0218122Y0278454D02*
X0218909Y0278454D01*
X0218909Y0278453D02*
X0218122Y0278453D01*
X0218122Y0278452D02*
X0218909Y0278452D01*
X0218909Y0278451D02*
X0218122Y0278451D01*
X0218122Y0278450D02*
X0218909Y0278450D01*
X0218909Y0278449D02*
X0218122Y0278449D01*
X0218122Y0278448D02*
X0218909Y0278448D01*
X0218909Y0278447D02*
X0218122Y0278447D01*
X0218122Y0278446D02*
X0218909Y0278446D01*
X0218909Y0278445D02*
X0218122Y0278445D01*
X0218122Y0278444D02*
X0218909Y0278444D01*
X0218909Y0278443D02*
X0218122Y0278443D01*
X0218122Y0278442D02*
X0218909Y0278442D01*
X0218909Y0278441D02*
X0218122Y0278441D01*
X0218122Y0278440D02*
X0218909Y0278440D01*
X0218909Y0278439D02*
X0218122Y0278439D01*
X0218122Y0278438D02*
X0218909Y0278438D01*
X0218909Y0278437D02*
X0218122Y0278437D01*
X0218122Y0278436D02*
X0218909Y0278436D01*
X0218909Y0278435D02*
X0218122Y0278435D01*
X0218122Y0278434D02*
X0218909Y0278434D01*
X0218909Y0278433D02*
X0218122Y0278433D01*
X0218122Y0278432D02*
X0218909Y0278432D01*
X0218909Y0278431D02*
X0218122Y0278431D01*
X0218122Y0278430D02*
X0218909Y0278430D01*
X0218909Y0278429D02*
X0218122Y0278429D01*
X0218122Y0278428D02*
X0218908Y0278428D01*
X0218907Y0278427D02*
X0218122Y0278427D01*
X0218122Y0278426D02*
X0218906Y0278426D01*
X0218906Y0278425D02*
X0218122Y0278425D01*
X0218122Y0278424D02*
X0218905Y0278424D01*
X0218904Y0278423D02*
X0218122Y0278423D01*
X0218122Y0278422D02*
X0218903Y0278422D01*
X0218902Y0278421D02*
X0218122Y0278421D01*
X0218122Y0278420D02*
X0218901Y0278420D01*
X0218900Y0278419D02*
X0218122Y0278419D01*
X0218122Y0278418D02*
X0218899Y0278418D01*
X0218898Y0278417D02*
X0218122Y0278417D01*
X0218122Y0278416D02*
X0218897Y0278416D01*
X0218896Y0278415D02*
X0218122Y0278415D01*
X0218122Y0278414D02*
X0218895Y0278414D01*
X0218894Y0278413D02*
X0218122Y0278413D01*
X0218122Y0278412D02*
X0218893Y0278412D01*
X0218892Y0278411D02*
X0218122Y0278411D01*
X0218122Y0278410D02*
X0218891Y0278410D01*
X0218890Y0278409D02*
X0218122Y0278409D01*
X0218122Y0278408D02*
X0218889Y0278408D01*
X0218888Y0278407D02*
X0218122Y0278407D01*
X0218122Y0278406D02*
X0218887Y0278406D01*
X0218886Y0278406D02*
X0218122Y0278406D01*
X0218122Y0278405D02*
X0218885Y0278405D01*
X0218884Y0278404D02*
X0218122Y0278404D01*
X0218122Y0278403D02*
X0218883Y0278403D01*
X0218882Y0278402D02*
X0218122Y0278402D01*
X0218122Y0278401D02*
X0218881Y0278401D01*
X0218880Y0278400D02*
X0218122Y0278400D01*
X0218122Y0278399D02*
X0218879Y0278399D01*
X0218878Y0278398D02*
X0218122Y0278398D01*
X0218122Y0278397D02*
X0218877Y0278397D01*
X0218876Y0278396D02*
X0218122Y0278396D01*
X0218122Y0278395D02*
X0218875Y0278395D01*
X0218874Y0278394D02*
X0218122Y0278394D01*
X0218122Y0278393D02*
X0218873Y0278393D01*
X0218872Y0278392D02*
X0218122Y0278392D01*
X0218122Y0278391D02*
X0218871Y0278391D01*
X0218870Y0278390D02*
X0218122Y0278390D01*
X0218122Y0278389D02*
X0218869Y0278389D01*
X0218868Y0278388D02*
X0218122Y0278388D01*
X0218122Y0278387D02*
X0218867Y0278387D01*
X0218866Y0278386D02*
X0218122Y0278386D01*
X0218122Y0278385D02*
X0218865Y0278385D01*
X0218864Y0278384D02*
X0218122Y0278384D01*
X0218122Y0278383D02*
X0218863Y0278383D01*
X0218862Y0278382D02*
X0218122Y0278382D01*
X0218122Y0278381D02*
X0218861Y0278381D01*
X0218860Y0278380D02*
X0218122Y0278380D01*
X0218122Y0278379D02*
X0218859Y0278379D01*
X0218858Y0278378D02*
X0218122Y0278378D01*
X0218122Y0278377D02*
X0218857Y0278377D01*
X0218856Y0278376D02*
X0218122Y0278376D01*
X0218122Y0278375D02*
X0218855Y0278375D01*
X0218854Y0278374D02*
X0218122Y0278374D01*
X0218122Y0278373D02*
X0218853Y0278373D01*
X0218852Y0278372D02*
X0218122Y0278372D01*
X0218122Y0278371D02*
X0218851Y0278371D01*
X0218850Y0278370D02*
X0218122Y0278370D01*
X0218122Y0278369D02*
X0218849Y0278369D01*
X0218848Y0278368D02*
X0218122Y0278368D01*
X0218122Y0278367D02*
X0218847Y0278367D01*
X0218846Y0278366D02*
X0218122Y0278366D01*
X0218122Y0278365D02*
X0218845Y0278365D01*
X0218844Y0278364D02*
X0218122Y0278364D01*
X0218122Y0278363D02*
X0218844Y0278363D01*
X0218843Y0278362D02*
X0218122Y0278362D01*
X0218122Y0278361D02*
X0218842Y0278361D01*
X0218841Y0278360D02*
X0218122Y0278360D01*
X0218122Y0278359D02*
X0218840Y0278359D01*
X0218839Y0278358D02*
X0218122Y0278358D01*
X0218122Y0278357D02*
X0218838Y0278357D01*
X0218837Y0278356D02*
X0218122Y0278356D01*
X0218122Y0278355D02*
X0218836Y0278355D01*
X0218835Y0278354D02*
X0218122Y0278354D01*
X0218122Y0278353D02*
X0218834Y0278353D01*
X0218833Y0278352D02*
X0218122Y0278352D01*
X0218122Y0278351D02*
X0218832Y0278351D01*
X0218831Y0278350D02*
X0218122Y0278350D01*
X0218122Y0278349D02*
X0218830Y0278349D01*
X0218829Y0278348D02*
X0218122Y0278348D01*
X0218122Y0278347D02*
X0218828Y0278347D01*
X0218827Y0278346D02*
X0218122Y0278346D01*
X0218122Y0278345D02*
X0218826Y0278345D01*
X0218825Y0278344D02*
X0218122Y0278344D01*
X0218824Y0278344D01*
X0218823Y0278343D02*
X0218122Y0278343D01*
X0218122Y0278342D02*
X0218822Y0278342D01*
X0218821Y0278341D02*
X0218122Y0278341D01*
X0218122Y0278340D02*
X0218820Y0278340D01*
X0218819Y0278339D02*
X0218122Y0278339D01*
X0218122Y0278338D02*
X0218818Y0278338D01*
X0218817Y0278337D02*
X0218122Y0278337D01*
X0218122Y0278336D02*
X0218816Y0278336D01*
X0218815Y0278335D02*
X0218122Y0278335D01*
X0218122Y0278334D02*
X0218814Y0278334D01*
X0218813Y0278333D02*
X0218122Y0278333D01*
X0218122Y0278332D02*
X0218812Y0278332D01*
X0218811Y0278331D02*
X0218122Y0278331D01*
X0218122Y0278330D02*
X0218810Y0278330D01*
X0218809Y0278329D02*
X0218122Y0278329D01*
X0218122Y0278328D02*
X0218808Y0278328D01*
X0218807Y0278327D02*
X0218122Y0278327D01*
X0218122Y0278326D02*
X0218806Y0278326D01*
X0218805Y0278325D02*
X0218122Y0278325D01*
X0218122Y0278324D02*
X0218804Y0278324D01*
X0218803Y0278323D02*
X0218122Y0278323D01*
X0218122Y0278322D02*
X0218802Y0278322D01*
X0218801Y0278321D02*
X0218122Y0278321D01*
X0218122Y0278320D02*
X0218800Y0278320D01*
X0218799Y0278319D02*
X0218122Y0278319D01*
X0218122Y0278318D02*
X0218798Y0278318D01*
X0218797Y0278317D02*
X0218122Y0278317D01*
X0218122Y0278316D02*
X0218796Y0278316D01*
X0218795Y0278315D02*
X0218122Y0278315D01*
X0218122Y0278314D02*
X0218794Y0278314D01*
X0218793Y0278313D02*
X0218122Y0278313D01*
X0218122Y0278312D02*
X0218792Y0278312D01*
X0218791Y0278311D02*
X0218122Y0278311D01*
X0218122Y0278310D02*
X0218790Y0278310D01*
X0218789Y0278309D02*
X0218122Y0278309D01*
X0218122Y0278308D02*
X0218788Y0278308D01*
X0218787Y0278307D02*
X0218122Y0278307D01*
X0218122Y0278306D02*
X0218786Y0278306D01*
X0218785Y0278305D02*
X0218122Y0278305D01*
X0218122Y0278304D02*
X0218784Y0278304D01*
X0218783Y0278303D02*
X0218122Y0278303D01*
X0218122Y0278302D02*
X0218782Y0278302D01*
X0218781Y0278301D02*
X0218122Y0278301D01*
X0218122Y0278300D02*
X0218781Y0278300D01*
X0218780Y0278299D02*
X0218122Y0278299D01*
X0218122Y0278298D02*
X0218779Y0278298D01*
X0218778Y0278297D02*
X0218122Y0278297D01*
X0218122Y0278296D02*
X0218777Y0278296D01*
X0218776Y0278295D02*
X0218122Y0278295D01*
X0218122Y0278294D02*
X0218775Y0278294D01*
X0218774Y0278293D02*
X0218122Y0278293D01*
X0218122Y0278292D02*
X0218773Y0278292D01*
X0218772Y0278291D02*
X0218122Y0278291D01*
X0218122Y0278290D02*
X0218771Y0278290D01*
X0218770Y0278289D02*
X0218122Y0278289D01*
X0218122Y0278288D02*
X0218769Y0278288D01*
X0218768Y0278287D02*
X0218122Y0278287D01*
X0218122Y0278286D02*
X0218767Y0278286D01*
X0218766Y0278285D02*
X0218122Y0278285D01*
X0218122Y0278284D02*
X0218765Y0278284D01*
X0218764Y0278283D02*
X0218122Y0278283D01*
X0218122Y0278282D02*
X0218763Y0278282D01*
X0218762Y0278281D02*
X0218122Y0278281D01*
X0218761Y0278281D01*
X0218760Y0278280D02*
X0218122Y0278280D01*
X0218122Y0278279D02*
X0218759Y0278279D01*
X0218758Y0278278D02*
X0218122Y0278278D01*
X0218122Y0278277D02*
X0218757Y0278277D01*
X0218756Y0278276D02*
X0218122Y0278276D01*
X0218122Y0278275D02*
X0218755Y0278275D01*
X0218754Y0278274D02*
X0218122Y0278274D01*
X0218122Y0278273D02*
X0218753Y0278273D01*
X0218752Y0278272D02*
X0218122Y0278272D01*
X0218122Y0278271D02*
X0218751Y0278271D01*
X0218750Y0278270D02*
X0218122Y0278270D01*
X0218122Y0278269D02*
X0218749Y0278269D01*
X0218748Y0278268D02*
X0218122Y0278268D01*
X0218122Y0278267D02*
X0218747Y0278267D01*
X0218746Y0278266D02*
X0218122Y0278266D01*
X0218122Y0278265D02*
X0218745Y0278265D01*
X0218744Y0278264D02*
X0218122Y0278264D01*
X0218122Y0278263D02*
X0218743Y0278263D01*
X0218742Y0278262D02*
X0218122Y0278262D01*
X0218122Y0278261D02*
X0218741Y0278261D01*
X0218740Y0278260D02*
X0218122Y0278260D01*
X0218122Y0278259D02*
X0218739Y0278259D01*
X0218738Y0278258D02*
X0218122Y0278258D01*
X0218122Y0278257D02*
X0218737Y0278257D01*
X0218736Y0278256D02*
X0218122Y0278256D01*
X0218122Y0278255D02*
X0218735Y0278255D01*
X0218734Y0278254D02*
X0218122Y0278254D01*
X0218122Y0278253D02*
X0218733Y0278253D01*
X0218732Y0278252D02*
X0218122Y0278252D01*
X0218122Y0278251D02*
X0218731Y0278251D01*
X0218730Y0278250D02*
X0218122Y0278250D01*
X0218122Y0278249D02*
X0218729Y0278249D01*
X0218728Y0278248D02*
X0218122Y0278248D01*
X0218122Y0278247D02*
X0218727Y0278247D01*
X0218726Y0278246D02*
X0218122Y0278246D01*
X0218122Y0278245D02*
X0218725Y0278245D01*
X0218724Y0278244D02*
X0218122Y0278244D01*
X0218122Y0278243D02*
X0218723Y0278243D01*
X0218722Y0278242D02*
X0218122Y0278242D01*
X0218122Y0278241D02*
X0218721Y0278241D01*
X0218720Y0278240D02*
X0218122Y0278240D01*
X0218122Y0278239D02*
X0218719Y0278239D01*
X0218719Y0278238D02*
X0218122Y0278238D01*
X0218122Y0278237D02*
X0218718Y0278237D01*
X0218717Y0278236D02*
X0218122Y0278236D01*
X0218122Y0278235D02*
X0218716Y0278235D01*
X0218715Y0278234D02*
X0218122Y0278234D01*
X0218122Y0278233D02*
X0218714Y0278233D01*
X0218713Y0278232D02*
X0218122Y0278232D01*
X0218122Y0278231D02*
X0218712Y0278231D01*
X0218711Y0278230D02*
X0218122Y0278230D01*
X0218122Y0278229D02*
X0218710Y0278229D01*
X0218709Y0278228D02*
X0218122Y0278228D01*
X0218122Y0278227D02*
X0218708Y0278227D01*
X0218707Y0278226D02*
X0218122Y0278226D01*
X0218122Y0278225D02*
X0218706Y0278225D01*
X0218705Y0278224D02*
X0218122Y0278224D01*
X0218122Y0278223D02*
X0218704Y0278223D01*
X0218703Y0278222D02*
X0218122Y0278222D01*
X0218122Y0278221D02*
X0218702Y0278221D01*
X0218701Y0278220D02*
X0218122Y0278220D01*
X0218122Y0278219D02*
X0218700Y0278219D01*
X0218699Y0278219D02*
X0218122Y0278219D01*
X0218122Y0278218D02*
X0218698Y0278218D01*
X0218697Y0278217D02*
X0218122Y0278217D01*
X0218122Y0278216D02*
X0218696Y0278216D01*
X0218695Y0278215D02*
X0218122Y0278215D01*
X0218122Y0278214D02*
X0218694Y0278214D01*
X0218693Y0278213D02*
X0218122Y0278213D01*
X0218122Y0278212D02*
X0218692Y0278212D01*
X0218691Y0278211D02*
X0218122Y0278211D01*
X0218122Y0278210D02*
X0218690Y0278210D01*
X0218689Y0278209D02*
X0218122Y0278209D01*
X0218122Y0278208D02*
X0218688Y0278208D01*
X0218687Y0278207D02*
X0218122Y0278207D01*
X0218122Y0278206D02*
X0218686Y0278206D01*
X0218685Y0278205D02*
X0218122Y0278205D01*
X0218122Y0278204D02*
X0218684Y0278204D01*
X0218683Y0278203D02*
X0218122Y0278203D01*
X0218122Y0278202D02*
X0218682Y0278202D01*
X0218681Y0278201D02*
X0218122Y0278201D01*
X0218122Y0278200D02*
X0218680Y0278200D01*
X0218679Y0278199D02*
X0218122Y0278199D01*
X0218122Y0278198D02*
X0218678Y0278198D01*
X0218677Y0278197D02*
X0218122Y0278197D01*
X0218122Y0278196D02*
X0218676Y0278196D01*
X0218675Y0278195D02*
X0218122Y0278195D01*
X0218122Y0278194D02*
X0218674Y0278194D01*
X0218673Y0278193D02*
X0218122Y0278193D01*
X0218122Y0278192D02*
X0218672Y0278192D01*
X0218671Y0278191D02*
X0218122Y0278191D01*
X0218122Y0278190D02*
X0218670Y0278190D01*
X0218669Y0278189D02*
X0218122Y0278189D01*
X0218122Y0278188D02*
X0218668Y0278188D01*
X0218667Y0278187D02*
X0218122Y0278187D01*
X0218122Y0278186D02*
X0218666Y0278186D01*
X0218665Y0278185D02*
X0218122Y0278185D01*
X0218122Y0278184D02*
X0218664Y0278184D01*
X0218663Y0278183D02*
X0218122Y0278183D01*
X0218122Y0278182D02*
X0218662Y0278182D01*
X0218661Y0278181D02*
X0218122Y0278181D01*
X0218122Y0278180D02*
X0218660Y0278180D01*
X0218659Y0278179D02*
X0218122Y0278179D01*
X0218122Y0278178D02*
X0218658Y0278178D01*
X0218657Y0278177D02*
X0218122Y0278177D01*
X0218122Y0278176D02*
X0218656Y0278176D01*
X0218656Y0278175D02*
X0218122Y0278175D01*
X0218122Y0278174D02*
X0218655Y0278174D01*
X0218654Y0278173D02*
X0218122Y0278173D01*
X0218122Y0278172D02*
X0218653Y0278172D01*
X0218652Y0278171D02*
X0218122Y0278171D01*
X0218122Y0278170D02*
X0218651Y0278170D01*
X0218650Y0278169D02*
X0218122Y0278169D01*
X0218122Y0278168D02*
X0218649Y0278168D01*
X0218648Y0278167D02*
X0218122Y0278167D01*
X0218122Y0278166D02*
X0218647Y0278166D01*
X0218646Y0278165D02*
X0218122Y0278165D01*
X0218122Y0278164D02*
X0218645Y0278164D01*
X0218644Y0278163D02*
X0218122Y0278163D01*
X0218122Y0278162D02*
X0218643Y0278162D01*
X0218642Y0278161D02*
X0218122Y0278161D01*
X0218122Y0278160D02*
X0218641Y0278160D01*
X0218640Y0278159D02*
X0218122Y0278159D01*
X0218122Y0278158D02*
X0218639Y0278158D01*
X0218638Y0278157D02*
X0218122Y0278157D01*
X0218122Y0278156D02*
X0218637Y0278156D01*
X0218636Y0278156D02*
X0218122Y0278156D01*
X0218122Y0278155D02*
X0218635Y0278155D01*
X0218634Y0278154D02*
X0218122Y0278154D01*
X0218122Y0278153D02*
X0218633Y0278153D01*
X0218632Y0278152D02*
X0218122Y0278152D01*
X0218122Y0278151D02*
X0218631Y0278151D01*
X0218630Y0278150D02*
X0218122Y0278150D01*
X0218122Y0278149D02*
X0218629Y0278149D01*
X0218628Y0278148D02*
X0218122Y0278148D01*
X0218122Y0278147D02*
X0218627Y0278147D01*
X0218626Y0278146D02*
X0218122Y0278146D01*
X0218122Y0278145D02*
X0218625Y0278145D01*
X0218624Y0278144D02*
X0218122Y0278144D01*
X0218122Y0278143D02*
X0218623Y0278143D01*
X0218622Y0278142D02*
X0218122Y0278142D01*
X0218122Y0278141D02*
X0218621Y0278141D01*
X0218620Y0278140D02*
X0218122Y0278140D01*
X0218122Y0278139D02*
X0218619Y0278139D01*
X0218618Y0278138D02*
X0218122Y0278138D01*
X0218122Y0278137D02*
X0218617Y0278137D01*
X0218616Y0278136D02*
X0218122Y0278136D01*
X0218122Y0278135D02*
X0218615Y0278135D01*
X0218614Y0278134D02*
X0218122Y0278134D01*
X0218122Y0278133D02*
X0218613Y0278133D01*
X0218612Y0278132D02*
X0218122Y0278132D01*
X0218122Y0278131D02*
X0218611Y0278131D01*
X0218610Y0278130D02*
X0218122Y0278130D01*
X0218122Y0278129D02*
X0218609Y0278129D01*
X0218608Y0278128D02*
X0218122Y0278128D01*
X0218122Y0278127D02*
X0218607Y0278127D01*
X0218606Y0278126D02*
X0218122Y0278126D01*
X0218122Y0278125D02*
X0218605Y0278125D01*
X0218604Y0278124D02*
X0218122Y0278124D01*
X0218122Y0278123D02*
X0218603Y0278123D01*
X0218602Y0278122D02*
X0218122Y0278122D01*
X0218122Y0278121D02*
X0218601Y0278121D01*
X0218600Y0278120D02*
X0218122Y0278120D01*
X0218122Y0278119D02*
X0218599Y0278119D01*
X0218598Y0278118D02*
X0218122Y0278118D01*
X0218122Y0278117D02*
X0218597Y0278117D01*
X0218596Y0278116D02*
X0218122Y0278116D01*
X0218122Y0278115D02*
X0218595Y0278115D01*
X0218594Y0278114D02*
X0218122Y0278114D01*
X0218122Y0278113D02*
X0218594Y0278113D01*
X0218593Y0278112D02*
X0218122Y0278112D01*
X0218122Y0278111D02*
X0218592Y0278111D01*
X0218591Y0278110D02*
X0218122Y0278110D01*
X0218122Y0278109D02*
X0218590Y0278109D01*
X0218589Y0278108D02*
X0218122Y0278108D01*
X0218122Y0278107D02*
X0218588Y0278107D01*
X0218587Y0278106D02*
X0218122Y0278106D01*
X0218122Y0278105D02*
X0218586Y0278105D01*
X0218585Y0278104D02*
X0218122Y0278104D01*
X0218122Y0278103D02*
X0218584Y0278103D01*
X0218583Y0278102D02*
X0218122Y0278102D01*
X0218122Y0278101D02*
X0218582Y0278101D01*
X0218581Y0278100D02*
X0218122Y0278100D01*
X0218122Y0278099D02*
X0218580Y0278099D01*
X0218579Y0278098D02*
X0218122Y0278098D01*
X0218122Y0278097D02*
X0218578Y0278097D01*
X0218577Y0278096D02*
X0218122Y0278096D01*
X0218122Y0278095D02*
X0218576Y0278095D01*
X0218575Y0278094D02*
X0218122Y0278094D01*
X0218574Y0278094D01*
X0218573Y0278093D02*
X0218122Y0278093D01*
X0218122Y0278092D02*
X0218572Y0278092D01*
X0218571Y0278091D02*
X0218122Y0278091D01*
X0218122Y0278090D02*
X0218570Y0278090D01*
X0218569Y0278089D02*
X0218122Y0278089D01*
X0218122Y0278088D02*
X0218568Y0278088D01*
X0218567Y0278087D02*
X0218122Y0278087D01*
X0218122Y0278086D02*
X0218566Y0278086D01*
X0218565Y0278085D02*
X0218122Y0278085D01*
X0218122Y0278084D02*
X0218564Y0278084D01*
X0218563Y0278083D02*
X0218122Y0278083D01*
X0218122Y0278082D02*
X0218562Y0278082D01*
X0218561Y0278081D02*
X0218122Y0278081D01*
X0218122Y0278080D02*
X0218560Y0278080D01*
X0218559Y0278079D02*
X0218122Y0278079D01*
X0218122Y0278078D02*
X0218558Y0278078D01*
X0218557Y0278077D02*
X0218122Y0278077D01*
X0218122Y0278076D02*
X0218556Y0278076D01*
X0218555Y0278075D02*
X0218122Y0278075D01*
X0218122Y0278074D02*
X0218554Y0278074D01*
X0218553Y0278073D02*
X0218122Y0278073D01*
X0218122Y0278072D02*
X0218552Y0278072D01*
X0218551Y0278071D02*
X0218122Y0278071D01*
X0218122Y0278070D02*
X0218550Y0278070D01*
X0218549Y0278069D02*
X0218122Y0278069D01*
X0218122Y0278068D02*
X0218548Y0278068D01*
X0218547Y0278067D02*
X0218122Y0278067D01*
X0218122Y0278066D02*
X0218546Y0278066D01*
X0218545Y0278065D02*
X0218122Y0278065D01*
X0218122Y0278064D02*
X0218544Y0278064D01*
X0218543Y0278063D02*
X0218122Y0278063D01*
X0218122Y0278062D02*
X0218542Y0278062D01*
X0218541Y0278061D02*
X0218122Y0278061D01*
X0218122Y0278060D02*
X0218540Y0278060D01*
X0218539Y0278059D02*
X0218122Y0278059D01*
X0218122Y0278058D02*
X0218538Y0278058D01*
X0218537Y0278057D02*
X0218122Y0278057D01*
X0218122Y0278056D02*
X0218536Y0278056D01*
X0218535Y0278055D02*
X0218122Y0278055D01*
X0218122Y0278054D02*
X0218534Y0278054D01*
X0218533Y0278053D02*
X0218122Y0278053D01*
X0218122Y0278052D02*
X0218532Y0278052D01*
X0218531Y0278051D02*
X0218122Y0278051D01*
X0218122Y0278050D02*
X0218531Y0278050D01*
X0218530Y0278049D02*
X0218122Y0278049D01*
X0218122Y0278048D02*
X0218529Y0278048D01*
X0218528Y0278047D02*
X0218122Y0278047D01*
X0218122Y0278046D02*
X0218527Y0278046D01*
X0218526Y0278045D02*
X0218122Y0278045D01*
X0218122Y0278044D02*
X0218525Y0278044D01*
X0218524Y0278043D02*
X0218122Y0278043D01*
X0218122Y0278042D02*
X0218523Y0278042D01*
X0218522Y0278041D02*
X0218122Y0278041D01*
X0218122Y0278040D02*
X0218521Y0278040D01*
X0218520Y0278039D02*
X0218122Y0278039D01*
X0218122Y0278038D02*
X0218519Y0278038D01*
X0218518Y0278037D02*
X0218122Y0278037D01*
X0218122Y0278036D02*
X0218517Y0278036D01*
X0218516Y0278035D02*
X0218122Y0278035D01*
X0218122Y0278034D02*
X0218515Y0278034D01*
X0218514Y0278033D02*
X0218122Y0278033D01*
X0218122Y0278032D02*
X0218513Y0278032D01*
X0218512Y0278031D02*
X0218122Y0278031D01*
X0218511Y0278031D01*
X0218510Y0278030D02*
X0218122Y0278030D01*
X0218122Y0278029D02*
X0218509Y0278029D01*
X0218508Y0278028D02*
X0218122Y0278028D01*
X0218122Y0278027D02*
X0218507Y0278027D01*
X0218506Y0278026D02*
X0218122Y0278026D01*
X0218122Y0278025D02*
X0218505Y0278025D01*
X0218504Y0278024D02*
X0218122Y0278024D01*
X0218122Y0278023D02*
X0218503Y0278023D01*
X0218502Y0278022D02*
X0218122Y0278022D01*
X0218122Y0278021D02*
X0218501Y0278021D01*
X0218500Y0278020D02*
X0218122Y0278020D01*
X0218122Y0278019D02*
X0218499Y0278019D01*
X0218498Y0278018D02*
X0218122Y0278018D01*
X0218122Y0278017D02*
X0218497Y0278017D01*
X0218496Y0278016D02*
X0218122Y0278016D01*
X0218122Y0278015D02*
X0218495Y0278015D01*
X0218494Y0278014D02*
X0218122Y0278014D01*
X0218122Y0278013D02*
X0218493Y0278013D01*
X0218492Y0278012D02*
X0218122Y0278012D01*
X0218122Y0278011D02*
X0218491Y0278011D01*
X0218490Y0278010D02*
X0218122Y0278010D01*
X0218122Y0278009D02*
X0218489Y0278009D01*
X0218488Y0278008D02*
X0218122Y0278008D01*
X0218122Y0278007D02*
X0218487Y0278007D01*
X0218486Y0278006D02*
X0218122Y0278006D01*
X0218122Y0278005D02*
X0218485Y0278005D01*
X0218484Y0278004D02*
X0218122Y0278004D01*
X0218122Y0278003D02*
X0218483Y0278003D01*
X0218482Y0278002D02*
X0218122Y0278002D01*
X0218122Y0278001D02*
X0218481Y0278001D01*
X0218480Y0278000D02*
X0218122Y0278000D01*
X0218122Y0277999D02*
X0218479Y0277999D01*
X0218478Y0277998D02*
X0218122Y0277998D01*
X0218122Y0277997D02*
X0218477Y0277997D01*
X0218476Y0277996D02*
X0218122Y0277996D01*
X0218122Y0277995D02*
X0218475Y0277995D01*
X0218474Y0277994D02*
X0218122Y0277994D01*
X0218122Y0277993D02*
X0218473Y0277993D01*
X0218472Y0277992D02*
X0218122Y0277992D01*
X0218122Y0277991D02*
X0218471Y0277991D01*
X0218470Y0277990D02*
X0218122Y0277990D01*
X0218122Y0277989D02*
X0218469Y0277989D01*
X0218469Y0277988D02*
X0218122Y0277988D01*
X0218122Y0277987D02*
X0218468Y0277987D01*
X0218467Y0277986D02*
X0218122Y0277986D01*
X0218122Y0277985D02*
X0218466Y0277985D01*
X0218465Y0277984D02*
X0218122Y0277984D01*
X0218122Y0277983D02*
X0218464Y0277983D01*
X0218463Y0277982D02*
X0218122Y0277982D01*
X0218122Y0277981D02*
X0218462Y0277981D01*
X0218461Y0277980D02*
X0218122Y0277980D01*
X0218122Y0277979D02*
X0218460Y0277979D01*
X0218459Y0277978D02*
X0218122Y0277978D01*
X0218122Y0277977D02*
X0218458Y0277977D01*
X0218457Y0277976D02*
X0218122Y0277976D01*
X0218122Y0277975D02*
X0218456Y0277975D01*
X0218455Y0277974D02*
X0218122Y0277974D01*
X0218122Y0277973D02*
X0218454Y0277973D01*
X0218453Y0277972D02*
X0218122Y0277972D01*
X0218122Y0277971D02*
X0218452Y0277971D01*
X0218451Y0277970D02*
X0218122Y0277970D01*
X0218122Y0277969D02*
X0218450Y0277969D01*
X0218449Y0277969D02*
X0218122Y0277969D01*
X0218122Y0277968D02*
X0218448Y0277968D01*
X0218447Y0277967D02*
X0218122Y0277967D01*
X0218122Y0277966D02*
X0218446Y0277966D01*
X0218445Y0277965D02*
X0218122Y0277965D01*
X0218122Y0277964D02*
X0218444Y0277964D01*
X0218443Y0277963D02*
X0218122Y0277963D01*
X0218122Y0277962D02*
X0218442Y0277962D01*
X0218441Y0277961D02*
X0218122Y0277961D01*
X0218122Y0277960D02*
X0218440Y0277960D01*
X0218439Y0277959D02*
X0218122Y0277959D01*
X0218122Y0277958D02*
X0218438Y0277958D01*
X0218437Y0277957D02*
X0218122Y0277957D01*
X0218122Y0277956D02*
X0218436Y0277956D01*
X0218435Y0277955D02*
X0218122Y0277955D01*
X0218122Y0277954D02*
X0218434Y0277954D01*
X0218433Y0277953D02*
X0218122Y0277953D01*
X0218122Y0277952D02*
X0218432Y0277952D01*
X0218431Y0277951D02*
X0218122Y0277951D01*
X0218122Y0277950D02*
X0218430Y0277950D01*
X0218429Y0277949D02*
X0218122Y0277949D01*
X0218122Y0277948D02*
X0218428Y0277948D01*
X0218427Y0277947D02*
X0218122Y0277947D01*
X0218122Y0277946D02*
X0218426Y0277946D01*
X0218425Y0277945D02*
X0218122Y0277945D01*
X0218122Y0277944D02*
X0218424Y0277944D01*
X0218423Y0277943D02*
X0218122Y0277943D01*
X0218122Y0277942D02*
X0218422Y0277942D01*
X0218421Y0277941D02*
X0218122Y0277941D01*
X0218122Y0277940D02*
X0218420Y0277940D01*
X0218419Y0277939D02*
X0218122Y0277939D01*
X0218122Y0277938D02*
X0218418Y0277938D01*
X0218417Y0277937D02*
X0218122Y0277937D01*
X0218122Y0277936D02*
X0218416Y0277936D01*
X0218415Y0277935D02*
X0218122Y0277935D01*
X0218122Y0277934D02*
X0218414Y0277934D01*
X0218413Y0277933D02*
X0218122Y0277933D01*
X0218122Y0277932D02*
X0218412Y0277932D01*
X0218411Y0277931D02*
X0218122Y0277931D01*
X0218122Y0277930D02*
X0218410Y0277930D01*
X0218409Y0277929D02*
X0218122Y0277929D01*
X0218122Y0277928D02*
X0218408Y0277928D01*
X0218407Y0277927D02*
X0218122Y0277927D01*
X0218122Y0277926D02*
X0218406Y0277926D01*
X0218406Y0277925D02*
X0218122Y0277925D01*
X0218122Y0277924D02*
X0218405Y0277924D01*
X0218404Y0277923D02*
X0218122Y0277923D01*
X0218122Y0277922D02*
X0218403Y0277922D01*
X0218402Y0277921D02*
X0218122Y0277921D01*
X0218122Y0277920D02*
X0218401Y0277920D01*
X0218400Y0277919D02*
X0218122Y0277919D01*
X0218122Y0277918D02*
X0218399Y0277918D01*
X0218398Y0277917D02*
X0218122Y0277917D01*
X0218122Y0277916D02*
X0218397Y0277916D01*
X0218396Y0277915D02*
X0218122Y0277915D01*
X0218122Y0277914D02*
X0218395Y0277914D01*
X0218394Y0277913D02*
X0218122Y0277913D01*
X0218122Y0277912D02*
X0218393Y0277912D01*
X0218392Y0277911D02*
X0218122Y0277911D01*
X0218122Y0277910D02*
X0218391Y0277910D01*
X0218390Y0277909D02*
X0218122Y0277909D01*
X0218122Y0277908D02*
X0218389Y0277908D01*
X0218388Y0277907D02*
X0218122Y0277907D01*
X0218122Y0277906D02*
X0218387Y0277906D01*
X0218386Y0277906D02*
X0218122Y0277906D01*
X0218122Y0277905D02*
X0218385Y0277905D01*
X0218384Y0277904D02*
X0218122Y0277904D01*
X0218122Y0277903D02*
X0218383Y0277903D01*
X0218382Y0277902D02*
X0218122Y0277902D01*
X0218122Y0277901D02*
X0218381Y0277901D01*
X0218380Y0277900D02*
X0218122Y0277900D01*
X0218122Y0277899D02*
X0218379Y0277899D01*
X0218378Y0277898D02*
X0218122Y0277898D01*
X0218122Y0277897D02*
X0218377Y0277897D01*
X0218376Y0277896D02*
X0218122Y0277896D01*
X0218122Y0277895D02*
X0218375Y0277895D01*
X0218374Y0277894D02*
X0218122Y0277894D01*
X0218122Y0277893D02*
X0218373Y0277893D01*
X0218372Y0277892D02*
X0218122Y0277892D01*
X0218122Y0277891D02*
X0218371Y0277891D01*
X0218370Y0277890D02*
X0218122Y0277890D01*
X0218122Y0277889D02*
X0218369Y0277889D01*
X0218368Y0277888D02*
X0218122Y0277888D01*
X0218122Y0277887D02*
X0218367Y0277887D01*
X0218366Y0277886D02*
X0218122Y0277886D01*
X0218122Y0277885D02*
X0218365Y0277885D01*
X0218364Y0277884D02*
X0218122Y0277884D01*
X0218122Y0277883D02*
X0218363Y0277883D01*
X0218362Y0277882D02*
X0218122Y0277882D01*
X0218122Y0277881D02*
X0218361Y0277881D01*
X0218360Y0277880D02*
X0218122Y0277880D01*
X0218122Y0277879D02*
X0218359Y0277879D01*
X0218358Y0277878D02*
X0218122Y0277878D01*
X0218122Y0277877D02*
X0218357Y0277877D01*
X0218356Y0277876D02*
X0218122Y0277876D01*
X0218122Y0277875D02*
X0218355Y0277875D01*
X0218354Y0277874D02*
X0218122Y0277874D01*
X0218122Y0277873D02*
X0218353Y0277873D01*
X0218352Y0277872D02*
X0218122Y0277872D01*
X0218122Y0277871D02*
X0218351Y0277871D01*
X0218350Y0277870D02*
X0218122Y0277870D01*
X0218122Y0277869D02*
X0218349Y0277869D01*
X0218348Y0277868D02*
X0218122Y0277868D01*
X0218122Y0277867D02*
X0218347Y0277867D01*
X0218346Y0277866D02*
X0218122Y0277866D01*
X0218122Y0277865D02*
X0218345Y0277865D01*
X0218344Y0277864D02*
X0218122Y0277864D01*
X0218122Y0277863D02*
X0218344Y0277863D01*
X0218343Y0277862D02*
X0218122Y0277862D01*
X0218122Y0277861D02*
X0218342Y0277861D01*
X0218341Y0277860D02*
X0218122Y0277860D01*
X0218122Y0277859D02*
X0218340Y0277859D01*
X0218339Y0277858D02*
X0218122Y0277858D01*
X0218122Y0277857D02*
X0218338Y0277857D01*
X0218337Y0277856D02*
X0218122Y0277856D01*
X0218122Y0277855D02*
X0218336Y0277855D01*
X0218335Y0277854D02*
X0218122Y0277854D01*
X0218122Y0277853D02*
X0218334Y0277853D01*
X0218333Y0277852D02*
X0218122Y0277852D01*
X0218122Y0277851D02*
X0218332Y0277851D01*
X0218331Y0277850D02*
X0218122Y0277850D01*
X0218122Y0277849D02*
X0218330Y0277849D01*
X0218329Y0277848D02*
X0218122Y0277848D01*
X0218122Y0277847D02*
X0218328Y0277847D01*
X0218327Y0277846D02*
X0218122Y0277846D01*
X0218122Y0277845D02*
X0218326Y0277845D01*
X0218325Y0277844D02*
X0218122Y0277844D01*
X0218324Y0277844D01*
X0218323Y0277843D02*
X0218122Y0277843D01*
X0218122Y0277842D02*
X0218322Y0277842D01*
X0218321Y0277841D02*
X0218122Y0277841D01*
X0218122Y0277840D02*
X0218320Y0277840D01*
X0218319Y0277839D02*
X0218122Y0277839D01*
X0218122Y0277838D02*
X0218318Y0277838D01*
X0218317Y0277837D02*
X0218122Y0277837D01*
X0218122Y0277836D02*
X0218316Y0277836D01*
X0218315Y0277835D02*
X0218122Y0277835D01*
X0218122Y0277834D02*
X0218314Y0277834D01*
X0218313Y0277833D02*
X0218122Y0277833D01*
X0218122Y0277832D02*
X0218312Y0277832D01*
X0218311Y0277831D02*
X0218122Y0277831D01*
X0218122Y0277830D02*
X0218310Y0277830D01*
X0218309Y0277829D02*
X0218122Y0277829D01*
X0218122Y0277828D02*
X0218308Y0277828D01*
X0218307Y0277827D02*
X0218122Y0277827D01*
X0218122Y0277826D02*
X0218306Y0277826D01*
X0218305Y0277825D02*
X0218122Y0277825D01*
X0218122Y0277824D02*
X0218304Y0277824D01*
X0218303Y0277823D02*
X0218122Y0277823D01*
X0218122Y0277822D02*
X0218302Y0277822D01*
X0218301Y0277821D02*
X0218122Y0277821D01*
X0218122Y0277820D02*
X0218300Y0277820D01*
X0218299Y0277819D02*
X0218122Y0277819D01*
X0218122Y0277818D02*
X0218298Y0277818D01*
X0218297Y0277817D02*
X0218122Y0277817D01*
X0218122Y0277816D02*
X0218296Y0277816D01*
X0218295Y0277815D02*
X0218122Y0277815D01*
X0218122Y0277814D02*
X0218294Y0277814D01*
X0218293Y0277813D02*
X0218122Y0277813D01*
X0218122Y0277812D02*
X0218292Y0277812D01*
X0218291Y0277811D02*
X0218122Y0277811D01*
X0218122Y0277810D02*
X0218290Y0277810D01*
X0218289Y0277809D02*
X0218122Y0277809D01*
X0218122Y0277808D02*
X0218288Y0277808D01*
X0218287Y0277807D02*
X0218122Y0277807D01*
X0218122Y0277806D02*
X0218286Y0277806D01*
X0218285Y0277805D02*
X0218122Y0277805D01*
X0218122Y0277804D02*
X0218284Y0277804D01*
X0218283Y0277803D02*
X0218122Y0277803D01*
X0218122Y0277802D02*
X0218282Y0277802D01*
X0218281Y0277801D02*
X0218122Y0277801D01*
X0218122Y0277800D02*
X0218281Y0277800D01*
X0218280Y0277799D02*
X0218122Y0277799D01*
X0218122Y0277798D02*
X0218279Y0277798D01*
X0218278Y0277797D02*
X0218122Y0277797D01*
X0218122Y0277796D02*
X0218277Y0277796D01*
X0218276Y0277795D02*
X0218122Y0277795D01*
X0218122Y0277794D02*
X0218275Y0277794D01*
X0218274Y0277793D02*
X0218122Y0277793D01*
X0218122Y0277792D02*
X0218273Y0277792D01*
X0218272Y0277791D02*
X0218122Y0277791D01*
X0218122Y0277790D02*
X0218271Y0277790D01*
X0218270Y0277789D02*
X0218122Y0277789D01*
X0218122Y0277788D02*
X0218269Y0277788D01*
X0218268Y0277787D02*
X0218122Y0277787D01*
X0218122Y0277786D02*
X0218267Y0277786D01*
X0218266Y0277785D02*
X0218122Y0277785D01*
X0218122Y0277784D02*
X0218265Y0277784D01*
X0218264Y0277783D02*
X0218122Y0277783D01*
X0218122Y0277782D02*
X0218263Y0277782D01*
X0218262Y0277781D02*
X0218122Y0277781D01*
X0218261Y0277781D01*
X0218260Y0277780D02*
X0218122Y0277780D01*
X0218122Y0277779D02*
X0218259Y0277779D01*
X0218258Y0277778D02*
X0218122Y0277778D01*
X0218122Y0277777D02*
X0218257Y0277777D01*
X0218256Y0277776D02*
X0218122Y0277776D01*
X0218122Y0277775D02*
X0218255Y0277775D01*
X0218254Y0277774D02*
X0218122Y0277774D01*
X0218122Y0277773D02*
X0218253Y0277773D01*
X0218252Y0277772D02*
X0218122Y0277772D01*
X0218122Y0277771D02*
X0218251Y0277771D01*
X0218250Y0277770D02*
X0218122Y0277770D01*
X0218122Y0277769D02*
X0218249Y0277769D01*
X0218248Y0277768D02*
X0218122Y0277768D01*
X0218122Y0277767D02*
X0218247Y0277767D01*
X0218246Y0277766D02*
X0218122Y0277766D01*
X0218122Y0277765D02*
X0218245Y0277765D01*
X0218244Y0277764D02*
X0218122Y0277764D01*
X0218122Y0277763D02*
X0218243Y0277763D01*
X0218242Y0277762D02*
X0218122Y0277762D01*
X0218122Y0277761D02*
X0218241Y0277761D01*
X0218240Y0277760D02*
X0218122Y0277760D01*
X0218122Y0277759D02*
X0218239Y0277759D01*
X0218238Y0277758D02*
X0218122Y0277758D01*
X0218122Y0277757D02*
X0218237Y0277757D01*
X0218236Y0277756D02*
X0218122Y0277756D01*
X0218122Y0277755D02*
X0218235Y0277755D01*
X0218234Y0277754D02*
X0218122Y0277754D01*
X0218122Y0277753D02*
X0218233Y0277753D01*
X0218232Y0277752D02*
X0218122Y0277752D01*
X0218122Y0277751D02*
X0218231Y0277751D01*
X0218230Y0277750D02*
X0218122Y0277750D01*
X0218122Y0277749D02*
X0218229Y0277749D01*
X0218228Y0277748D02*
X0218122Y0277748D01*
X0218122Y0277747D02*
X0218227Y0277747D01*
X0218226Y0277746D02*
X0218122Y0277746D01*
X0218122Y0277745D02*
X0218225Y0277745D01*
X0218224Y0277744D02*
X0218122Y0277744D01*
X0218122Y0277743D02*
X0218223Y0277743D01*
X0218222Y0277742D02*
X0218122Y0277742D01*
X0218122Y0277741D02*
X0218221Y0277741D01*
X0218220Y0277740D02*
X0218122Y0277740D01*
X0218122Y0277739D02*
X0218219Y0277739D01*
X0218219Y0277738D02*
X0218122Y0277738D01*
X0218122Y0277737D02*
X0218218Y0277737D01*
X0218217Y0277736D02*
X0218122Y0277736D01*
X0218122Y0277735D02*
X0218216Y0277735D01*
X0218215Y0277734D02*
X0218122Y0277734D01*
X0218122Y0277733D02*
X0218214Y0277733D01*
X0218213Y0277732D02*
X0218122Y0277732D01*
X0218122Y0277731D02*
X0218212Y0277731D01*
X0218211Y0277730D02*
X0218122Y0277730D01*
X0218122Y0277729D02*
X0218210Y0277729D01*
X0218209Y0277728D02*
X0218122Y0277728D01*
X0218122Y0277727D02*
X0218208Y0277727D01*
X0218207Y0277726D02*
X0218122Y0277726D01*
X0218122Y0277725D02*
X0218206Y0277725D01*
X0218205Y0277724D02*
X0218122Y0277724D01*
X0218122Y0277723D02*
X0218204Y0277723D01*
X0218203Y0277722D02*
X0218122Y0277722D01*
X0218122Y0277721D02*
X0218202Y0277721D01*
X0218201Y0277720D02*
X0218122Y0277720D01*
X0218122Y0277719D02*
X0218200Y0277719D01*
X0218199Y0277719D02*
X0218122Y0277719D01*
X0218122Y0277718D02*
X0218198Y0277718D01*
X0218197Y0277717D02*
X0218122Y0277717D01*
X0218122Y0277716D02*
X0218196Y0277716D01*
X0218195Y0277715D02*
X0218122Y0277715D01*
X0218122Y0277714D02*
X0218194Y0277714D01*
X0218193Y0277713D02*
X0218122Y0277713D01*
X0218122Y0277712D02*
X0218192Y0277712D01*
X0218191Y0277711D02*
X0218122Y0277711D01*
X0218122Y0277710D02*
X0218190Y0277710D01*
X0218189Y0277709D02*
X0218122Y0277709D01*
X0218122Y0277708D02*
X0218188Y0277708D01*
X0218187Y0277707D02*
X0218122Y0277707D01*
X0218122Y0277706D02*
X0218186Y0277706D01*
X0218185Y0277705D02*
X0218122Y0277705D01*
X0218122Y0277704D02*
X0218184Y0277704D01*
X0218183Y0277703D02*
X0218122Y0277703D01*
X0218122Y0277702D02*
X0218182Y0277702D01*
X0218181Y0277701D02*
X0218122Y0277701D01*
X0218122Y0277700D02*
X0218180Y0277700D01*
X0218179Y0277699D02*
X0218122Y0277699D01*
X0218122Y0277698D02*
X0218178Y0277698D01*
X0218177Y0277697D02*
X0218122Y0277697D01*
X0218122Y0277696D02*
X0218176Y0277696D01*
X0218175Y0277695D02*
X0218122Y0277695D01*
X0218122Y0277694D02*
X0218174Y0277694D01*
X0218173Y0277693D02*
X0218122Y0277693D01*
X0218122Y0277692D02*
X0218172Y0277692D01*
X0218171Y0277691D02*
X0218122Y0277691D01*
X0218122Y0277690D02*
X0218170Y0277690D01*
X0218169Y0277689D02*
X0218122Y0277689D01*
X0218122Y0277688D02*
X0218168Y0277688D01*
X0218167Y0277687D02*
X0218122Y0277687D01*
X0218122Y0277686D02*
X0218166Y0277686D01*
X0218165Y0277685D02*
X0218122Y0277685D01*
X0218122Y0277684D02*
X0218164Y0277684D01*
X0218163Y0277683D02*
X0218122Y0277683D01*
X0218122Y0277682D02*
X0218162Y0277682D01*
X0218161Y0277681D02*
X0218122Y0277681D01*
X0218122Y0277680D02*
X0218160Y0277680D01*
X0218159Y0277679D02*
X0218122Y0277679D01*
X0218122Y0277678D02*
X0218158Y0277678D01*
X0218157Y0277677D02*
X0218122Y0277677D01*
X0218122Y0277676D02*
X0218156Y0277676D01*
X0218156Y0277675D02*
X0218122Y0277675D01*
X0218122Y0277674D02*
X0218155Y0277674D01*
X0218154Y0277673D02*
X0218122Y0277673D01*
X0218122Y0277672D02*
X0218153Y0277672D01*
X0218152Y0277671D02*
X0218122Y0277671D01*
X0218122Y0277670D02*
X0218151Y0277670D01*
X0218150Y0277669D02*
X0218122Y0277669D01*
X0218122Y0277668D02*
X0218149Y0277668D01*
X0218148Y0277667D02*
X0218122Y0277667D01*
X0218122Y0277666D02*
X0218147Y0277666D01*
X0218146Y0277665D02*
X0218122Y0277665D01*
X0218122Y0277664D02*
X0218145Y0277664D01*
X0218144Y0277663D02*
X0218122Y0277663D01*
X0218122Y0277662D02*
X0218143Y0277662D01*
X0218142Y0277661D02*
X0218122Y0277661D01*
X0218122Y0277660D02*
X0218141Y0277660D01*
X0218140Y0277659D02*
X0218122Y0277659D01*
X0218122Y0277658D02*
X0218139Y0277658D01*
X0218138Y0277657D02*
X0218122Y0277657D01*
X0218122Y0277656D02*
X0218137Y0277656D01*
X0218136Y0277656D02*
X0218122Y0277656D01*
X0218122Y0277655D02*
X0218135Y0277655D01*
X0218134Y0277654D02*
X0218122Y0277654D01*
X0218122Y0277653D02*
X0218133Y0277653D01*
X0218132Y0277652D02*
X0218122Y0277652D01*
X0218122Y0277651D02*
X0218131Y0277651D01*
X0218130Y0277650D02*
X0218122Y0277650D01*
X0218122Y0277649D02*
X0218129Y0277649D01*
X0218128Y0277648D02*
X0218122Y0277648D01*
X0218122Y0277647D02*
X0218127Y0277647D01*
X0218126Y0277646D02*
X0218122Y0277646D01*
X0218122Y0277645D02*
X0218125Y0277645D01*
X0218124Y0277644D02*
X0218122Y0277644D01*
X0218122Y0277643D02*
X0218123Y0277643D01*
X0218122Y0278556D02*
X0218909Y0278556D01*
X0218909Y0278557D02*
X0218122Y0278557D01*
X0218122Y0278558D02*
X0218909Y0278558D01*
X0218909Y0278559D02*
X0218122Y0278559D01*
X0218122Y0278560D02*
X0218909Y0278560D01*
X0218909Y0278561D02*
X0218122Y0278561D01*
X0218122Y0278562D02*
X0218909Y0278562D01*
X0218909Y0278563D02*
X0218122Y0278563D01*
X0218122Y0278564D02*
X0218909Y0278564D01*
X0218909Y0278565D02*
X0218122Y0278565D01*
X0218122Y0278566D02*
X0218909Y0278566D01*
X0218909Y0278567D02*
X0218122Y0278567D01*
X0218122Y0278568D02*
X0218909Y0278568D01*
X0218909Y0278569D02*
X0218122Y0278569D01*
X0218122Y0278570D02*
X0218909Y0278570D01*
X0218909Y0278571D02*
X0218122Y0278571D01*
X0218122Y0278572D02*
X0218909Y0278572D01*
X0218909Y0278573D02*
X0218122Y0278573D01*
X0218122Y0278574D02*
X0218909Y0278574D01*
X0218909Y0278575D02*
X0218122Y0278575D01*
X0218122Y0278576D02*
X0218909Y0278576D01*
X0218909Y0278577D02*
X0218122Y0278577D01*
X0218122Y0278578D02*
X0218909Y0278578D01*
X0218909Y0278579D02*
X0218122Y0278579D01*
X0218122Y0278580D02*
X0218909Y0278580D01*
X0218909Y0278581D02*
X0218122Y0278581D01*
X0218122Y0278582D02*
X0218909Y0278582D01*
X0218909Y0278583D02*
X0218122Y0278583D01*
X0218122Y0278584D02*
X0218909Y0278584D01*
X0218909Y0278585D02*
X0218122Y0278585D01*
X0218122Y0278586D02*
X0218909Y0278586D01*
X0218909Y0278587D02*
X0218122Y0278587D01*
X0218122Y0278588D02*
X0218909Y0278588D01*
X0218909Y0278589D02*
X0218122Y0278589D01*
X0218122Y0278590D02*
X0218909Y0278590D01*
X0218909Y0278591D02*
X0218122Y0278591D01*
X0218122Y0278592D02*
X0218909Y0278592D01*
X0218909Y0278593D02*
X0218122Y0278593D01*
X0218122Y0278594D02*
X0218909Y0278594D01*
X0218122Y0278594D01*
X0218122Y0278595D02*
X0218909Y0278595D01*
X0218909Y0278596D02*
X0218122Y0278596D01*
X0218122Y0278597D02*
X0218909Y0278597D01*
X0218909Y0278598D02*
X0218122Y0278598D01*
X0218122Y0278599D02*
X0218909Y0278599D01*
X0218909Y0278600D02*
X0218122Y0278600D01*
X0218122Y0278601D02*
X0218909Y0278601D01*
X0218909Y0278602D02*
X0218122Y0278602D01*
X0218122Y0278603D02*
X0218909Y0278603D01*
X0218909Y0278604D02*
X0218122Y0278604D01*
X0218122Y0278605D02*
X0218909Y0278605D01*
X0218909Y0278606D02*
X0218122Y0278606D01*
X0218122Y0278607D02*
X0218909Y0278607D01*
X0218909Y0278608D02*
X0218122Y0278608D01*
X0218122Y0278609D02*
X0218909Y0278609D01*
X0218909Y0278610D02*
X0218122Y0278610D01*
X0218122Y0278611D02*
X0218909Y0278611D01*
X0218909Y0278612D02*
X0218122Y0278612D01*
X0218122Y0278613D02*
X0218909Y0278613D01*
X0218909Y0278614D02*
X0218122Y0278614D01*
X0218122Y0278615D02*
X0218909Y0278615D01*
X0218909Y0278616D02*
X0218122Y0278616D01*
X0218122Y0278617D02*
X0218909Y0278617D01*
X0218909Y0278618D02*
X0218122Y0278618D01*
X0218122Y0278619D02*
X0218909Y0278619D01*
X0218909Y0278620D02*
X0218122Y0278620D01*
X0218122Y0278621D02*
X0218909Y0278621D01*
X0218909Y0278622D02*
X0218122Y0278622D01*
X0218122Y0278623D02*
X0218909Y0278623D01*
X0218909Y0278624D02*
X0218122Y0278624D01*
X0218122Y0278625D02*
X0218909Y0278625D01*
X0218909Y0278626D02*
X0218122Y0278626D01*
X0218122Y0278627D02*
X0218909Y0278627D01*
X0218909Y0278628D02*
X0218122Y0278628D01*
X0218122Y0278629D02*
X0218909Y0278629D01*
X0218909Y0278630D02*
X0218122Y0278630D01*
X0218122Y0278631D02*
X0218909Y0278631D01*
X0218909Y0278632D02*
X0218122Y0278632D01*
X0218122Y0278633D02*
X0218909Y0278633D01*
X0218909Y0278634D02*
X0218122Y0278634D01*
X0218122Y0278635D02*
X0218909Y0278635D01*
X0218909Y0278636D02*
X0218122Y0278636D01*
X0218122Y0278637D02*
X0218909Y0278637D01*
X0218909Y0278638D02*
X0218122Y0278638D01*
X0218122Y0278639D02*
X0218909Y0278639D01*
X0218909Y0278640D02*
X0218122Y0278640D01*
X0218122Y0278641D02*
X0218909Y0278641D01*
X0218909Y0278642D02*
X0218122Y0278642D01*
X0218122Y0278643D02*
X0218909Y0278643D01*
X0218909Y0278644D02*
X0218122Y0278644D01*
X0218122Y0278645D02*
X0218909Y0278645D01*
X0218909Y0278646D02*
X0218122Y0278646D01*
X0218122Y0278647D02*
X0218909Y0278647D01*
X0218909Y0278648D02*
X0218122Y0278648D01*
X0218122Y0278649D02*
X0218909Y0278649D01*
X0218909Y0278650D02*
X0218122Y0278650D01*
X0218122Y0278651D02*
X0218909Y0278651D01*
X0218909Y0278652D02*
X0218122Y0278652D01*
X0218122Y0278653D02*
X0218909Y0278653D01*
X0218909Y0278654D02*
X0218122Y0278654D01*
X0218122Y0278655D02*
X0218909Y0278655D01*
X0218909Y0278656D02*
X0218122Y0278656D01*
X0218909Y0278656D01*
X0218909Y0278657D02*
X0218122Y0278657D01*
X0218122Y0278658D02*
X0218909Y0278658D01*
X0218909Y0278659D02*
X0218122Y0278659D01*
X0218122Y0278660D02*
X0218909Y0278660D01*
X0218909Y0278661D02*
X0218122Y0278661D01*
X0218122Y0278662D02*
X0218909Y0278662D01*
X0218909Y0278663D02*
X0218122Y0278663D01*
X0218122Y0278664D02*
X0218909Y0278664D01*
X0218909Y0278665D02*
X0218122Y0278665D01*
X0218122Y0278666D02*
X0218909Y0278666D01*
X0218909Y0278667D02*
X0218122Y0278667D01*
X0218122Y0278668D02*
X0218909Y0278668D01*
X0218909Y0278669D02*
X0218122Y0278669D01*
X0218122Y0278670D02*
X0218909Y0278670D01*
X0218909Y0278671D02*
X0218122Y0278671D01*
X0218122Y0278672D02*
X0218909Y0278672D01*
X0218909Y0278673D02*
X0218122Y0278673D01*
X0218122Y0278674D02*
X0218909Y0278674D01*
X0218909Y0278675D02*
X0218122Y0278675D01*
X0218122Y0278676D02*
X0218909Y0278676D01*
X0218909Y0278677D02*
X0218122Y0278677D01*
X0218122Y0278678D02*
X0218909Y0278678D01*
X0218909Y0278679D02*
X0218122Y0278679D01*
X0218122Y0278680D02*
X0218909Y0278680D01*
X0218909Y0278681D02*
X0218122Y0278681D01*
X0218122Y0278682D02*
X0218909Y0278682D01*
X0218909Y0278683D02*
X0218122Y0278683D01*
X0218122Y0278684D02*
X0218909Y0278684D01*
X0218909Y0278685D02*
X0218122Y0278685D01*
X0218122Y0278686D02*
X0218909Y0278686D01*
X0218909Y0278687D02*
X0218122Y0278687D01*
X0218122Y0278688D02*
X0218909Y0278688D01*
X0218909Y0278689D02*
X0218122Y0278689D01*
X0218122Y0278690D02*
X0218909Y0278690D01*
X0218909Y0278691D02*
X0218122Y0278691D01*
X0218122Y0278692D02*
X0218909Y0278692D01*
X0218909Y0278693D02*
X0218122Y0278693D01*
X0218122Y0278694D02*
X0218909Y0278694D01*
X0218909Y0278695D02*
X0218122Y0278695D01*
X0218122Y0278696D02*
X0218909Y0278696D01*
X0218909Y0278697D02*
X0218122Y0278697D01*
X0218122Y0278698D02*
X0218909Y0278698D01*
X0218909Y0278699D02*
X0218122Y0278699D01*
X0218122Y0278700D02*
X0218909Y0278700D01*
X0218909Y0278701D02*
X0218122Y0278701D01*
X0218122Y0278702D02*
X0218909Y0278702D01*
X0218909Y0278703D02*
X0218122Y0278703D01*
X0218122Y0278704D02*
X0218909Y0278704D01*
X0218909Y0278705D02*
X0218122Y0278705D01*
X0218122Y0278706D02*
X0218909Y0278706D01*
X0218909Y0278707D02*
X0218122Y0278707D01*
X0218122Y0278708D02*
X0218909Y0278708D01*
X0218909Y0278709D02*
X0218122Y0278709D01*
X0218122Y0278710D02*
X0218909Y0278710D01*
X0218909Y0278711D02*
X0218122Y0278711D01*
X0218122Y0278712D02*
X0218909Y0278712D01*
X0218909Y0278713D02*
X0218122Y0278713D01*
X0218122Y0278714D02*
X0218909Y0278714D01*
X0218909Y0278715D02*
X0218122Y0278715D01*
X0218122Y0278716D02*
X0218909Y0278716D01*
X0218909Y0278717D02*
X0218122Y0278717D01*
X0218122Y0278718D02*
X0218909Y0278718D01*
X0218909Y0278719D02*
X0218122Y0278719D01*
X0218909Y0278719D01*
X0218909Y0278720D02*
X0218122Y0278720D01*
X0218122Y0278721D02*
X0218909Y0278721D01*
X0218909Y0278722D02*
X0218122Y0278722D01*
X0218122Y0278723D02*
X0218909Y0278723D01*
X0218909Y0278724D02*
X0218122Y0278724D01*
X0218122Y0278725D02*
X0218909Y0278725D01*
X0218909Y0278726D02*
X0218122Y0278726D01*
X0218122Y0278727D02*
X0218909Y0278727D01*
X0218909Y0278728D02*
X0218122Y0278728D01*
X0218122Y0278729D02*
X0218909Y0278729D01*
X0218909Y0278730D02*
X0218122Y0278730D01*
X0218122Y0278731D02*
X0218909Y0278731D01*
X0218909Y0278732D02*
X0218122Y0278732D01*
X0218122Y0278733D02*
X0218909Y0278733D01*
X0218909Y0278734D02*
X0218122Y0278734D01*
X0218122Y0278735D02*
X0218909Y0278735D01*
X0218909Y0278736D02*
X0218122Y0278736D01*
X0218122Y0278737D02*
X0218909Y0278737D01*
X0218909Y0278738D02*
X0218122Y0278738D01*
X0218122Y0278739D02*
X0218909Y0278739D01*
X0218909Y0278740D02*
X0218122Y0278740D01*
X0218122Y0278741D02*
X0218909Y0278741D01*
X0218909Y0278742D02*
X0218122Y0278742D01*
X0218122Y0278743D02*
X0218909Y0278743D01*
X0218909Y0278744D02*
X0218122Y0278744D01*
X0218122Y0278745D02*
X0218909Y0278745D01*
X0218909Y0278746D02*
X0218122Y0278746D01*
X0218122Y0278747D02*
X0218909Y0278747D01*
X0218909Y0278748D02*
X0218122Y0278748D01*
X0218122Y0278749D02*
X0218909Y0278749D01*
X0218909Y0278750D02*
X0218122Y0278750D01*
X0218122Y0278751D02*
X0218909Y0278751D01*
X0218909Y0278752D02*
X0218122Y0278752D01*
X0218122Y0278753D02*
X0218909Y0278753D01*
X0218909Y0278754D02*
X0218122Y0278754D01*
X0218122Y0278755D02*
X0218909Y0278755D01*
X0218909Y0278756D02*
X0218122Y0278756D01*
X0218122Y0278757D02*
X0218909Y0278757D01*
X0218909Y0278758D02*
X0218122Y0278758D01*
X0218122Y0278759D02*
X0218909Y0278759D01*
X0218909Y0278760D02*
X0218122Y0278760D01*
X0218122Y0278761D02*
X0218909Y0278761D01*
X0218909Y0278762D02*
X0218122Y0278762D01*
X0218122Y0278763D02*
X0218909Y0278763D01*
X0218909Y0278764D02*
X0218122Y0278764D01*
X0218122Y0278765D02*
X0218909Y0278765D01*
X0218909Y0278766D02*
X0218122Y0278766D01*
X0218122Y0278767D02*
X0218909Y0278767D01*
X0218909Y0278768D02*
X0218122Y0278768D01*
X0218122Y0278769D02*
X0218909Y0278769D01*
X0218909Y0278770D02*
X0218122Y0278770D01*
X0218122Y0278771D02*
X0218909Y0278771D01*
X0218909Y0278772D02*
X0218122Y0278772D01*
X0218122Y0278773D02*
X0218909Y0278773D01*
X0218909Y0278774D02*
X0218122Y0278774D01*
X0218122Y0278775D02*
X0218909Y0278775D01*
X0218909Y0278776D02*
X0218122Y0278776D01*
X0218122Y0278777D02*
X0218909Y0278777D01*
X0218909Y0278778D02*
X0218122Y0278778D01*
X0218122Y0278779D02*
X0218909Y0278779D01*
X0218909Y0278780D02*
X0218122Y0278780D01*
X0218122Y0278781D02*
X0218909Y0278781D01*
X0218122Y0278781D01*
X0218122Y0278782D02*
X0218909Y0278782D01*
X0218909Y0278783D02*
X0218122Y0278783D01*
X0218122Y0278784D02*
X0218909Y0278784D01*
X0218909Y0278785D02*
X0218122Y0278785D01*
X0218122Y0278786D02*
X0218909Y0278786D01*
X0218909Y0278787D02*
X0218122Y0278787D01*
X0218122Y0278788D02*
X0218909Y0278788D01*
X0218909Y0278789D02*
X0218122Y0278789D01*
X0218122Y0278790D02*
X0218909Y0278790D01*
X0218909Y0278791D02*
X0218122Y0278791D01*
X0218122Y0278792D02*
X0218909Y0278792D01*
X0218909Y0278793D02*
X0218122Y0278793D01*
X0218122Y0278794D02*
X0218909Y0278794D01*
X0218909Y0278795D02*
X0218122Y0278795D01*
X0218122Y0278796D02*
X0218909Y0278796D01*
X0218909Y0278797D02*
X0218122Y0278797D01*
X0218122Y0278798D02*
X0218909Y0278798D01*
X0218909Y0278799D02*
X0218122Y0278799D01*
X0218122Y0278800D02*
X0218909Y0278800D01*
X0218909Y0278801D02*
X0218122Y0278801D01*
X0218122Y0278802D02*
X0218909Y0278802D01*
X0218909Y0278803D02*
X0218122Y0278803D01*
X0218122Y0278804D02*
X0218909Y0278804D01*
X0218909Y0278805D02*
X0218122Y0278805D01*
X0218122Y0278806D02*
X0218909Y0278806D01*
X0218909Y0278807D02*
X0218122Y0278807D01*
X0218122Y0278808D02*
X0218909Y0278808D01*
X0218909Y0278809D02*
X0218122Y0278809D01*
X0218122Y0278810D02*
X0218909Y0278810D01*
X0218909Y0278811D02*
X0218122Y0278811D01*
X0218122Y0278812D02*
X0218909Y0278812D01*
X0218909Y0278813D02*
X0218122Y0278813D01*
X0218122Y0278814D02*
X0218909Y0278814D01*
X0218909Y0278815D02*
X0218122Y0278815D01*
X0218122Y0278816D02*
X0218909Y0278816D01*
X0218909Y0278817D02*
X0218122Y0278817D01*
X0218122Y0278818D02*
X0218909Y0278818D01*
X0218909Y0278819D02*
X0218122Y0278819D01*
X0218122Y0278820D02*
X0218909Y0278820D01*
X0218909Y0278821D02*
X0218122Y0278821D01*
X0218122Y0278822D02*
X0218909Y0278822D01*
X0218909Y0278823D02*
X0218122Y0278823D01*
X0218122Y0278824D02*
X0218909Y0278824D01*
X0218909Y0278825D02*
X0218122Y0278825D01*
X0218122Y0278826D02*
X0218909Y0278826D01*
X0218909Y0278827D02*
X0218122Y0278827D01*
X0218122Y0278828D02*
X0218909Y0278828D01*
X0218909Y0278829D02*
X0218122Y0278829D01*
X0218122Y0278830D02*
X0218909Y0278830D01*
X0218909Y0278831D02*
X0218122Y0278831D01*
X0218122Y0278832D02*
X0218909Y0278832D01*
X0218909Y0278833D02*
X0218122Y0278833D01*
X0218122Y0278834D02*
X0218909Y0278834D01*
X0218909Y0278835D02*
X0218122Y0278835D01*
X0218122Y0278836D02*
X0218909Y0278836D01*
X0218909Y0278837D02*
X0218122Y0278837D01*
X0218122Y0278838D02*
X0218909Y0278838D01*
X0218909Y0278839D02*
X0218122Y0278839D01*
X0218122Y0278840D02*
X0218909Y0278840D01*
X0218909Y0278841D02*
X0218122Y0278841D01*
X0218122Y0278842D02*
X0218909Y0278842D01*
X0218909Y0278843D02*
X0218122Y0278843D01*
X0218122Y0278844D02*
X0218909Y0278844D01*
X0218122Y0278844D01*
X0218122Y0278845D02*
X0218909Y0278845D01*
X0218909Y0278846D02*
X0218122Y0278846D01*
X0218122Y0278847D02*
X0218909Y0278847D01*
X0218909Y0278848D02*
X0218122Y0278848D01*
X0218122Y0278849D02*
X0218909Y0278849D01*
X0218909Y0278850D02*
X0218122Y0278850D01*
X0218122Y0278851D02*
X0218909Y0278851D01*
X0218909Y0278852D02*
X0218122Y0278852D01*
X0218122Y0278853D02*
X0218909Y0278853D01*
X0218909Y0278854D02*
X0218122Y0278854D01*
X0218122Y0278855D02*
X0218909Y0278855D01*
X0218909Y0278856D02*
X0218122Y0278856D01*
X0218122Y0278857D02*
X0218909Y0278857D01*
X0218909Y0278858D02*
X0218122Y0278858D01*
X0218122Y0278859D02*
X0218909Y0278859D01*
X0218909Y0278860D02*
X0218122Y0278860D01*
X0218122Y0278861D02*
X0218909Y0278861D01*
X0218909Y0278862D02*
X0218122Y0278862D01*
X0218122Y0278863D02*
X0218909Y0278863D01*
X0218909Y0278864D02*
X0218122Y0278864D01*
X0218122Y0278865D02*
X0218909Y0278865D01*
X0218909Y0278866D02*
X0218122Y0278866D01*
X0218122Y0278867D02*
X0218909Y0278867D01*
X0218909Y0278868D02*
X0218122Y0278868D01*
X0218122Y0278869D02*
X0218909Y0278869D01*
X0218909Y0278870D02*
X0218122Y0278870D01*
X0218122Y0278871D02*
X0218909Y0278871D01*
X0218909Y0278872D02*
X0218122Y0278872D01*
X0218122Y0278873D02*
X0218909Y0278873D01*
X0218909Y0278874D02*
X0218122Y0278874D01*
X0218122Y0278875D02*
X0218909Y0278875D01*
X0218909Y0278876D02*
X0218122Y0278876D01*
X0218122Y0278877D02*
X0218909Y0278877D01*
X0218909Y0278878D02*
X0218122Y0278878D01*
X0218122Y0278879D02*
X0218909Y0278879D01*
X0218909Y0278880D02*
X0218122Y0278880D01*
X0218122Y0278881D02*
X0218909Y0278881D01*
X0218909Y0278882D02*
X0218122Y0278882D01*
X0218122Y0278883D02*
X0218909Y0278883D01*
X0218909Y0278884D02*
X0218122Y0278884D01*
X0218122Y0278885D02*
X0218909Y0278885D01*
X0218909Y0278886D02*
X0218122Y0278886D01*
X0218122Y0278887D02*
X0218909Y0278887D01*
X0218909Y0278888D02*
X0218122Y0278888D01*
X0218122Y0278889D02*
X0218909Y0278889D01*
X0218909Y0278890D02*
X0218122Y0278890D01*
X0218122Y0278891D02*
X0218909Y0278891D01*
X0218909Y0278892D02*
X0218122Y0278892D01*
X0218122Y0278893D02*
X0218909Y0278893D01*
X0218909Y0278894D02*
X0218122Y0278894D01*
X0218122Y0278895D02*
X0218909Y0278895D01*
X0218909Y0278896D02*
X0218122Y0278896D01*
X0218122Y0278897D02*
X0218909Y0278897D01*
X0218909Y0278898D02*
X0218122Y0278898D01*
X0218122Y0278899D02*
X0218909Y0278899D01*
X0218909Y0278900D02*
X0218122Y0278900D01*
X0218122Y0278901D02*
X0218909Y0278901D01*
X0218909Y0278902D02*
X0218122Y0278902D01*
X0218122Y0278903D02*
X0218909Y0278903D01*
X0218909Y0278904D02*
X0218122Y0278904D01*
X0218122Y0278905D02*
X0218909Y0278905D01*
X0218909Y0278906D02*
X0218122Y0278906D01*
X0218909Y0278906D01*
X0218909Y0278907D02*
X0218122Y0278907D01*
X0218122Y0278908D02*
X0218909Y0278908D01*
X0218909Y0278909D02*
X0218122Y0278909D01*
X0218122Y0278910D02*
X0218909Y0278910D01*
X0218909Y0278911D02*
X0218122Y0278911D01*
X0218122Y0278912D02*
X0218909Y0278912D01*
X0218909Y0278913D02*
X0218122Y0278913D01*
X0218122Y0278914D02*
X0218909Y0278914D01*
X0218909Y0278915D02*
X0218122Y0278915D01*
X0218122Y0278916D02*
X0218909Y0278916D01*
X0218909Y0278917D02*
X0218122Y0278917D01*
X0218122Y0278918D02*
X0218909Y0278918D01*
X0218909Y0278919D02*
X0218122Y0278919D01*
X0218122Y0278920D02*
X0218909Y0278920D01*
X0218909Y0278921D02*
X0218122Y0278921D01*
X0218122Y0278922D02*
X0218909Y0278922D01*
X0218909Y0278923D02*
X0218122Y0278923D01*
X0218122Y0278924D02*
X0218909Y0278924D01*
X0218909Y0278925D02*
X0218122Y0278925D01*
X0218122Y0278926D02*
X0218909Y0278926D01*
X0218909Y0278927D02*
X0218122Y0278927D01*
X0218122Y0278928D02*
X0218909Y0278928D01*
X0218909Y0278929D02*
X0218122Y0278929D01*
X0218122Y0278930D02*
X0218909Y0278930D01*
X0218909Y0278931D02*
X0218122Y0278931D01*
X0218122Y0278932D02*
X0218909Y0278932D01*
X0218909Y0278933D02*
X0218122Y0278933D01*
X0218122Y0278934D02*
X0218909Y0278934D01*
X0218909Y0278935D02*
X0218122Y0278935D01*
X0218122Y0278936D02*
X0218909Y0278936D01*
X0218909Y0278937D02*
X0218122Y0278937D01*
X0218122Y0278938D02*
X0218909Y0278938D01*
X0218909Y0278939D02*
X0218122Y0278939D01*
X0218122Y0278940D02*
X0218909Y0278940D01*
X0218909Y0278941D02*
X0218122Y0278941D01*
X0218122Y0278942D02*
X0218909Y0278942D01*
X0218909Y0278943D02*
X0218122Y0278943D01*
X0218122Y0278944D02*
X0218909Y0278944D01*
X0218909Y0278945D02*
X0218122Y0278945D01*
X0218122Y0278946D02*
X0218909Y0278946D01*
X0218909Y0278947D02*
X0218122Y0278947D01*
X0218122Y0278948D02*
X0218909Y0278948D01*
X0218909Y0278949D02*
X0218122Y0278949D01*
X0218122Y0278950D02*
X0218909Y0278950D01*
X0218909Y0278951D02*
X0218122Y0278951D01*
X0218122Y0278952D02*
X0218909Y0278952D01*
X0218909Y0278953D02*
X0218122Y0278953D01*
X0218122Y0278954D02*
X0218909Y0278954D01*
X0218909Y0278955D02*
X0218122Y0278955D01*
X0218122Y0278956D02*
X0218909Y0278956D01*
X0218909Y0278957D02*
X0218122Y0278957D01*
X0218122Y0278958D02*
X0218909Y0278958D01*
X0218909Y0278959D02*
X0218122Y0278959D01*
X0218122Y0278960D02*
X0218909Y0278960D01*
X0218909Y0278961D02*
X0218122Y0278961D01*
X0218122Y0278962D02*
X0218909Y0278962D01*
X0218909Y0278963D02*
X0218122Y0278963D01*
X0218122Y0278964D02*
X0218909Y0278964D01*
X0218909Y0278965D02*
X0218122Y0278965D01*
X0218122Y0278966D02*
X0218909Y0278966D01*
X0218909Y0278967D02*
X0218122Y0278967D01*
X0218122Y0278968D02*
X0218909Y0278968D01*
X0218909Y0278969D02*
X0218122Y0278969D01*
X0218909Y0278969D01*
X0218909Y0278970D02*
X0218122Y0278970D01*
X0218122Y0278971D02*
X0218909Y0278971D01*
X0218909Y0278972D02*
X0218122Y0278972D01*
X0218122Y0278973D02*
X0218909Y0278973D01*
X0218909Y0278974D02*
X0218122Y0278974D01*
X0218122Y0278975D02*
X0218909Y0278975D01*
X0218909Y0278976D02*
X0218122Y0278976D01*
X0218122Y0278977D02*
X0218909Y0278977D01*
X0218909Y0278978D02*
X0218122Y0278978D01*
X0218122Y0278979D02*
X0218909Y0278979D01*
X0218909Y0278980D02*
X0218122Y0278980D01*
X0218122Y0278981D02*
X0218909Y0278981D01*
X0218909Y0278982D02*
X0218122Y0278982D01*
X0218122Y0278983D02*
X0218909Y0278983D01*
X0218909Y0278984D02*
X0218122Y0278984D01*
X0218122Y0278985D02*
X0218909Y0278985D01*
X0218909Y0278986D02*
X0218122Y0278986D01*
X0218122Y0278987D02*
X0218909Y0278987D01*
X0218909Y0278988D02*
X0218122Y0278988D01*
X0218122Y0278989D02*
X0218909Y0278989D01*
X0218909Y0278990D02*
X0218122Y0278990D01*
X0218122Y0278991D02*
X0218909Y0278991D01*
X0218909Y0278992D02*
X0218122Y0278992D01*
X0218122Y0278993D02*
X0218909Y0278993D01*
X0218909Y0278994D02*
X0218122Y0278994D01*
X0218122Y0278995D02*
X0218909Y0278995D01*
X0218909Y0278996D02*
X0218122Y0278996D01*
X0218122Y0278997D02*
X0218909Y0278997D01*
X0218909Y0278998D02*
X0218122Y0278998D01*
X0218122Y0278999D02*
X0218909Y0278999D01*
X0218909Y0279000D02*
X0218122Y0279000D01*
X0218122Y0279001D02*
X0218909Y0279001D01*
X0218909Y0279002D02*
X0218122Y0279002D01*
X0218122Y0279003D02*
X0218909Y0279003D01*
X0218909Y0279004D02*
X0218122Y0279004D01*
X0218122Y0279005D02*
X0218909Y0279005D01*
X0218909Y0279006D02*
X0218122Y0279006D01*
X0218122Y0279007D02*
X0218909Y0279007D01*
X0218909Y0279008D02*
X0218122Y0279008D01*
X0218122Y0279009D02*
X0218909Y0279009D01*
X0218909Y0279010D02*
X0218122Y0279010D01*
X0218122Y0279011D02*
X0218909Y0279011D01*
X0218909Y0279012D02*
X0218122Y0279012D01*
X0218122Y0279013D02*
X0218909Y0279013D01*
X0218909Y0279014D02*
X0218122Y0279014D01*
X0218122Y0279015D02*
X0218909Y0279015D01*
X0218909Y0279016D02*
X0218122Y0279016D01*
X0218122Y0279017D02*
X0218909Y0279017D01*
X0218909Y0279018D02*
X0218122Y0279018D01*
X0218122Y0279019D02*
X0218909Y0279019D01*
X0218909Y0279020D02*
X0218122Y0279020D01*
X0218122Y0279021D02*
X0218909Y0279021D01*
X0218909Y0279022D02*
X0218122Y0279022D01*
X0218122Y0279023D02*
X0218909Y0279023D01*
X0218909Y0279024D02*
X0218122Y0279024D01*
X0218122Y0279025D02*
X0218909Y0279025D01*
X0218909Y0279026D02*
X0218122Y0279026D01*
X0218122Y0279027D02*
X0218909Y0279027D01*
X0218909Y0279028D02*
X0218122Y0279028D01*
X0218122Y0279029D02*
X0218909Y0279029D01*
X0218909Y0279030D02*
X0218122Y0279030D01*
X0218122Y0279031D02*
X0218909Y0279031D01*
X0218122Y0279031D01*
X0218122Y0279032D02*
X0218909Y0279032D01*
X0218909Y0279033D02*
X0218122Y0279033D01*
X0218122Y0279034D02*
X0218909Y0279034D01*
X0218909Y0279035D02*
X0218122Y0279035D01*
X0218122Y0279036D02*
X0218909Y0279036D01*
X0218909Y0279037D02*
X0218122Y0279037D01*
X0218122Y0279038D02*
X0218909Y0279038D01*
X0218909Y0279039D02*
X0218122Y0279039D01*
X0218122Y0279040D02*
X0218909Y0279040D01*
X0218909Y0279041D02*
X0218122Y0279041D01*
X0218122Y0279042D02*
X0218909Y0279042D01*
X0218909Y0279043D02*
X0218122Y0279043D01*
X0218122Y0279044D02*
X0218909Y0279044D01*
X0218909Y0279045D02*
X0218122Y0279045D01*
X0218122Y0279046D02*
X0218909Y0279046D01*
X0218909Y0279047D02*
X0218122Y0279047D01*
X0218122Y0279048D02*
X0218909Y0279048D01*
X0218909Y0279049D02*
X0218122Y0279049D01*
X0218122Y0279050D02*
X0218909Y0279050D01*
X0218909Y0279051D02*
X0218122Y0279051D01*
X0218122Y0279052D02*
X0218909Y0279052D01*
X0218909Y0279053D02*
X0218122Y0279053D01*
X0218122Y0279054D02*
X0218909Y0279054D01*
X0218909Y0279055D02*
X0218122Y0279055D01*
X0218122Y0279056D02*
X0218909Y0279056D01*
X0218909Y0279057D02*
X0218122Y0279057D01*
X0218122Y0279058D02*
X0218909Y0279058D01*
X0218909Y0279059D02*
X0218122Y0279059D01*
X0218122Y0279060D02*
X0218909Y0279060D01*
X0218909Y0279061D02*
X0218122Y0279061D01*
X0218122Y0279062D02*
X0218909Y0279062D01*
X0218909Y0279063D02*
X0218122Y0279063D01*
X0218122Y0279064D02*
X0218909Y0279064D01*
X0218909Y0279065D02*
X0218122Y0279065D01*
X0218122Y0279066D02*
X0218909Y0279066D01*
X0218909Y0279067D02*
X0218122Y0279067D01*
X0218122Y0279068D02*
X0218909Y0279068D01*
X0218909Y0279069D02*
X0218122Y0279069D01*
X0218122Y0279070D02*
X0218909Y0279070D01*
X0218909Y0279071D02*
X0218122Y0279071D01*
X0218122Y0279072D02*
X0218909Y0279072D01*
X0218909Y0279073D02*
X0218122Y0279073D01*
X0218122Y0279074D02*
X0218909Y0279074D01*
X0218909Y0279075D02*
X0218122Y0279075D01*
X0218122Y0279076D02*
X0218909Y0279076D01*
X0218909Y0279077D02*
X0218122Y0279077D01*
X0218122Y0279078D02*
X0218909Y0279078D01*
X0218909Y0279079D02*
X0218122Y0279079D01*
X0218122Y0279080D02*
X0218909Y0279080D01*
X0218909Y0279081D02*
X0218122Y0279081D01*
X0218122Y0279082D02*
X0218909Y0279082D01*
X0218909Y0279083D02*
X0218122Y0279083D01*
X0218122Y0279084D02*
X0218909Y0279084D01*
X0218909Y0279085D02*
X0218122Y0279085D01*
X0218122Y0279086D02*
X0218909Y0279086D01*
X0218909Y0279087D02*
X0218122Y0279087D01*
X0218122Y0279088D02*
X0218909Y0279088D01*
X0218909Y0279089D02*
X0218122Y0279089D01*
X0218122Y0279090D02*
X0218909Y0279090D01*
X0218909Y0279091D02*
X0218122Y0279091D01*
X0218122Y0279092D02*
X0218909Y0279092D01*
X0218909Y0279093D02*
X0218122Y0279093D01*
X0218122Y0279094D02*
X0218909Y0279094D01*
X0218122Y0279094D01*
X0218122Y0279095D02*
X0218909Y0279095D01*
X0218909Y0279096D02*
X0218122Y0279096D01*
X0218122Y0279097D02*
X0218909Y0279097D01*
X0218909Y0279098D02*
X0218122Y0279098D01*
X0218122Y0279099D02*
X0218909Y0279099D01*
X0218909Y0279100D02*
X0218122Y0279100D01*
X0218122Y0279101D02*
X0218909Y0279101D01*
X0218909Y0279102D02*
X0218122Y0279102D01*
X0218122Y0279103D02*
X0218909Y0279103D01*
X0218909Y0279104D02*
X0218122Y0279104D01*
X0218122Y0279105D02*
X0218909Y0279105D01*
X0218909Y0279106D02*
X0218122Y0279106D01*
X0218122Y0279107D02*
X0218909Y0279107D01*
X0218909Y0279108D02*
X0218122Y0279108D01*
X0218122Y0279109D02*
X0218909Y0279109D01*
X0218909Y0279110D02*
X0218122Y0279110D01*
X0218122Y0279111D02*
X0218909Y0279111D01*
X0218909Y0279112D02*
X0218122Y0279112D01*
X0218122Y0279113D02*
X0218909Y0279113D01*
X0218909Y0279114D02*
X0218122Y0279114D01*
X0218122Y0279115D02*
X0218909Y0279115D01*
X0218909Y0279116D02*
X0218122Y0279116D01*
X0218122Y0279117D02*
X0218909Y0279117D01*
X0218909Y0279118D02*
X0218122Y0279118D01*
X0218122Y0279119D02*
X0218909Y0279119D01*
X0218909Y0279120D02*
X0218122Y0279120D01*
X0218122Y0279121D02*
X0218909Y0279121D01*
X0218909Y0279122D02*
X0218122Y0279122D01*
X0218122Y0279123D02*
X0218909Y0279123D01*
X0218909Y0279124D02*
X0218122Y0279124D01*
X0218122Y0279125D02*
X0218909Y0279125D01*
X0218909Y0279126D02*
X0218122Y0279126D01*
X0218122Y0279127D02*
X0218909Y0279127D01*
X0218909Y0279128D02*
X0218122Y0279128D01*
X0218122Y0279129D02*
X0218909Y0279129D01*
X0218909Y0279130D02*
X0218122Y0279130D01*
X0218122Y0279131D02*
X0218909Y0279131D01*
X0218909Y0279132D02*
X0218122Y0279132D01*
X0218122Y0279133D02*
X0218909Y0279133D01*
X0218909Y0279134D02*
X0218122Y0279134D01*
X0218122Y0279135D02*
X0218909Y0279135D01*
X0218909Y0279136D02*
X0218122Y0279136D01*
X0218122Y0279137D02*
X0218909Y0279137D01*
X0218909Y0279138D02*
X0218122Y0279138D01*
X0218122Y0279139D02*
X0218909Y0279139D01*
X0218909Y0279140D02*
X0218122Y0279140D01*
X0218122Y0279141D02*
X0218909Y0279141D01*
X0218909Y0279142D02*
X0218122Y0279142D01*
X0218122Y0279143D02*
X0218909Y0279143D01*
X0218909Y0279144D02*
X0218122Y0279144D01*
X0218122Y0279145D02*
X0218909Y0279145D01*
X0218909Y0279146D02*
X0218122Y0279146D01*
X0218122Y0279147D02*
X0218909Y0279147D01*
X0218909Y0279148D02*
X0218122Y0279148D01*
X0218122Y0279149D02*
X0218909Y0279149D01*
X0218909Y0279150D02*
X0218122Y0279150D01*
X0218122Y0279151D02*
X0218909Y0279151D01*
X0218909Y0279152D02*
X0218122Y0279152D01*
X0218122Y0279153D02*
X0218909Y0279153D01*
X0218909Y0279154D02*
X0218122Y0279154D01*
X0218122Y0279155D02*
X0218909Y0279155D01*
X0218909Y0279156D02*
X0218122Y0279156D01*
X0218909Y0279156D01*
X0218909Y0279157D02*
X0218122Y0279157D01*
X0218122Y0279158D02*
X0218909Y0279158D01*
X0218909Y0279159D02*
X0218122Y0279159D01*
X0218122Y0279160D02*
X0218909Y0279160D01*
X0218909Y0279161D02*
X0218122Y0279161D01*
X0218122Y0279162D02*
X0218909Y0279162D01*
X0218909Y0279163D02*
X0218122Y0279163D01*
X0218122Y0279164D02*
X0218909Y0279164D01*
X0218909Y0279165D02*
X0218122Y0279165D01*
X0218122Y0279166D02*
X0218909Y0279166D01*
X0218909Y0279167D02*
X0218122Y0279167D01*
X0218122Y0279168D02*
X0218909Y0279168D01*
X0218909Y0279169D02*
X0218122Y0279169D01*
X0218122Y0279170D02*
X0218909Y0279170D01*
X0218909Y0279171D02*
X0218122Y0279171D01*
X0218122Y0279172D02*
X0218909Y0279172D01*
X0218909Y0279173D02*
X0218122Y0279173D01*
X0218122Y0279174D02*
X0218909Y0279174D01*
X0218909Y0279175D02*
X0218122Y0279175D01*
X0218122Y0279176D02*
X0218909Y0279176D01*
X0218909Y0279177D02*
X0218122Y0279177D01*
X0218122Y0279178D02*
X0218909Y0279178D01*
X0218909Y0279179D02*
X0218122Y0279179D01*
X0218122Y0279180D02*
X0218909Y0279180D01*
X0218909Y0279181D02*
X0218122Y0279181D01*
X0218122Y0279182D02*
X0218909Y0279182D01*
X0218909Y0279183D02*
X0218122Y0279183D01*
X0218122Y0279184D02*
X0218909Y0279184D01*
X0218909Y0279185D02*
X0218122Y0279185D01*
X0218122Y0279186D02*
X0218909Y0279186D01*
X0218909Y0279187D02*
X0218122Y0279187D01*
X0218122Y0279188D02*
X0218909Y0279188D01*
X0218909Y0279189D02*
X0218122Y0279189D01*
X0218122Y0279190D02*
X0218909Y0279190D01*
X0218909Y0279191D02*
X0218122Y0279191D01*
X0218122Y0279192D02*
X0218909Y0279192D01*
X0218909Y0279193D02*
X0218122Y0279193D01*
X0218122Y0279194D02*
X0218909Y0279194D01*
X0218909Y0279195D02*
X0218122Y0279195D01*
X0218122Y0279196D02*
X0218909Y0279196D01*
X0218909Y0279197D02*
X0218122Y0279197D01*
X0218122Y0279198D02*
X0218909Y0279198D01*
X0218909Y0279199D02*
X0218122Y0279199D01*
X0218122Y0279200D02*
X0218909Y0279200D01*
X0218909Y0279201D02*
X0218122Y0279201D01*
X0218122Y0279202D02*
X0218909Y0279202D01*
X0218909Y0279203D02*
X0218122Y0279203D01*
X0218122Y0279204D02*
X0218909Y0279204D01*
X0218909Y0279205D02*
X0218122Y0279205D01*
X0218122Y0279206D02*
X0218909Y0279206D01*
X0218909Y0279207D02*
X0218122Y0279207D01*
X0218122Y0279208D02*
X0218909Y0279208D01*
X0218909Y0279209D02*
X0218122Y0279209D01*
X0218122Y0279210D02*
X0218909Y0279210D01*
X0218909Y0279211D02*
X0218122Y0279211D01*
X0218122Y0279212D02*
X0218909Y0279212D01*
X0218909Y0279213D02*
X0218122Y0279213D01*
X0218122Y0279214D02*
X0218909Y0279214D01*
X0218909Y0279215D02*
X0218122Y0279215D01*
X0218122Y0279216D02*
X0218909Y0279216D01*
X0218909Y0279217D02*
X0218122Y0279217D01*
X0218122Y0279218D02*
X0218909Y0279218D01*
X0218909Y0279219D02*
X0218122Y0279219D01*
X0218909Y0279219D01*
X0218909Y0279220D02*
X0218122Y0279220D01*
X0218122Y0279221D02*
X0218909Y0279221D01*
X0218909Y0279222D02*
X0218122Y0279222D01*
X0218122Y0279223D02*
X0218909Y0279223D01*
X0218909Y0279224D02*
X0218122Y0279224D01*
X0218122Y0279225D02*
X0218909Y0279225D01*
X0218909Y0279226D02*
X0218122Y0279226D01*
X0218122Y0279227D02*
X0218909Y0279227D01*
X0218909Y0279228D02*
X0218122Y0279228D01*
X0218122Y0279229D02*
X0218909Y0279229D01*
X0218909Y0279230D02*
X0218122Y0279230D01*
X0218122Y0279231D02*
X0218909Y0279231D01*
X0218909Y0279232D02*
X0218122Y0279232D01*
X0218122Y0279233D02*
X0218909Y0279233D01*
X0218909Y0279234D02*
X0218122Y0279234D01*
X0218122Y0279235D02*
X0218909Y0279235D01*
X0218909Y0279236D02*
X0218122Y0279236D01*
X0218122Y0279237D02*
X0218909Y0279237D01*
X0218909Y0279238D02*
X0218122Y0279238D01*
X0218122Y0279239D02*
X0218909Y0279239D01*
X0218909Y0279240D02*
X0218122Y0279240D01*
X0218122Y0279241D02*
X0218909Y0279241D01*
X0218909Y0279242D02*
X0218122Y0279242D01*
X0218122Y0279243D02*
X0218909Y0279243D01*
X0218909Y0279244D02*
X0218122Y0279244D01*
X0218122Y0279245D02*
X0218909Y0279245D01*
X0218909Y0279246D02*
X0218122Y0279246D01*
X0218122Y0279247D02*
X0218909Y0279247D01*
X0218909Y0279248D02*
X0218122Y0279248D01*
X0218122Y0279249D02*
X0218909Y0279249D01*
X0218909Y0279250D02*
X0218122Y0279250D01*
X0218122Y0279251D02*
X0218909Y0279251D01*
X0218909Y0279252D02*
X0218122Y0279252D01*
X0218122Y0279253D02*
X0218909Y0279253D01*
X0218909Y0279254D02*
X0218122Y0279254D01*
X0218122Y0279255D02*
X0218909Y0279255D01*
X0218909Y0279256D02*
X0218122Y0279256D01*
X0218122Y0279257D02*
X0218909Y0279257D01*
X0218909Y0279258D02*
X0218122Y0279258D01*
X0218122Y0279259D02*
X0218909Y0279259D01*
X0218909Y0279260D02*
X0218122Y0279260D01*
X0218122Y0279261D02*
X0218909Y0279261D01*
X0218909Y0279262D02*
X0218122Y0279262D01*
X0218122Y0279263D02*
X0218909Y0279263D01*
X0218909Y0279264D02*
X0218122Y0279264D01*
X0218122Y0279265D02*
X0218909Y0279265D01*
X0218909Y0279266D02*
X0218122Y0279266D01*
X0218122Y0279267D02*
X0218909Y0279267D01*
X0218909Y0279268D02*
X0218122Y0279268D01*
X0218122Y0279269D02*
X0218909Y0279269D01*
X0218909Y0279270D02*
X0218122Y0279270D01*
X0218122Y0279271D02*
X0218909Y0279271D01*
X0218909Y0279272D02*
X0218122Y0279272D01*
X0218122Y0279273D02*
X0218909Y0279273D01*
X0218909Y0279274D02*
X0218122Y0279274D01*
X0218122Y0279275D02*
X0218909Y0279275D01*
X0218909Y0279276D02*
X0218122Y0279276D01*
X0218122Y0279277D02*
X0218909Y0279277D01*
X0218909Y0279278D02*
X0218122Y0279278D01*
X0218122Y0279279D02*
X0218909Y0279279D01*
X0218909Y0279280D02*
X0218122Y0279280D01*
X0218122Y0279281D02*
X0218909Y0279281D01*
X0218122Y0279281D01*
X0218122Y0279282D02*
X0218909Y0279282D01*
X0218909Y0279283D02*
X0218122Y0279283D01*
X0218122Y0279284D02*
X0218909Y0279284D01*
X0218909Y0279285D02*
X0218122Y0279285D01*
X0218122Y0279286D02*
X0218909Y0279286D01*
X0218909Y0279287D02*
X0218122Y0279287D01*
X0218122Y0279288D02*
X0218909Y0279288D01*
X0218909Y0279289D02*
X0218122Y0279289D01*
X0218122Y0279290D02*
X0218909Y0279290D01*
X0218909Y0279291D02*
X0218122Y0279291D01*
X0218122Y0279292D02*
X0218909Y0279292D01*
X0218909Y0279293D02*
X0218122Y0279293D01*
X0218122Y0279294D02*
X0218909Y0279294D01*
X0218909Y0279295D02*
X0218122Y0279295D01*
X0218122Y0279296D02*
X0218909Y0279296D01*
X0218909Y0279297D02*
X0218122Y0279297D01*
X0218122Y0279298D02*
X0218909Y0279298D01*
X0218909Y0279299D02*
X0218122Y0279299D01*
X0218122Y0279300D02*
X0218909Y0279300D01*
X0218909Y0279301D02*
X0218122Y0279301D01*
X0218122Y0279302D02*
X0218909Y0279302D01*
X0218909Y0279303D02*
X0218122Y0279303D01*
X0218122Y0279304D02*
X0218909Y0279304D01*
X0218909Y0279305D02*
X0218122Y0279305D01*
X0218122Y0279306D02*
X0218909Y0279306D01*
X0218909Y0279307D02*
X0218122Y0279307D01*
X0218122Y0279308D02*
X0218909Y0279308D01*
X0218909Y0279309D02*
X0218122Y0279309D01*
X0218122Y0279310D02*
X0218909Y0279310D01*
X0218909Y0279311D02*
X0218122Y0279311D01*
X0218122Y0279312D02*
X0218909Y0279312D01*
X0218909Y0279313D02*
X0218122Y0279313D01*
X0218122Y0279314D02*
X0218909Y0279314D01*
X0218909Y0279315D02*
X0218122Y0279315D01*
X0218122Y0279316D02*
X0218909Y0279316D01*
X0218909Y0279317D02*
X0218122Y0279317D01*
X0218122Y0279318D02*
X0218909Y0279318D01*
X0218909Y0279319D02*
X0218122Y0279319D01*
X0218122Y0279320D02*
X0218909Y0279320D01*
X0218909Y0279321D02*
X0218122Y0279321D01*
X0218122Y0279322D02*
X0218909Y0279322D01*
X0218909Y0279323D02*
X0218122Y0279323D01*
X0218122Y0279324D02*
X0218909Y0279324D01*
X0218909Y0279325D02*
X0218122Y0279325D01*
X0218122Y0279326D02*
X0218909Y0279326D01*
X0218909Y0279327D02*
X0218122Y0279327D01*
X0218122Y0279328D02*
X0218909Y0279328D01*
X0218909Y0279329D02*
X0218122Y0279329D01*
X0218122Y0279330D02*
X0218909Y0279330D01*
X0218909Y0279331D02*
X0218122Y0279331D01*
X0218122Y0279332D02*
X0218909Y0279332D01*
X0218909Y0279333D02*
X0218122Y0279333D01*
X0218122Y0279334D02*
X0218909Y0279334D01*
X0218909Y0279335D02*
X0218122Y0279335D01*
X0218122Y0279336D02*
X0218909Y0279336D01*
X0218909Y0279337D02*
X0218122Y0279337D01*
X0218122Y0279338D02*
X0218909Y0279338D01*
X0218909Y0279339D02*
X0218122Y0279339D01*
X0218122Y0279340D02*
X0218909Y0279340D01*
X0218909Y0279341D02*
X0218122Y0279341D01*
X0218122Y0279342D02*
X0218909Y0279342D01*
X0218909Y0279343D02*
X0218122Y0279343D01*
X0218122Y0279344D02*
X0218909Y0279344D01*
X0218122Y0279344D01*
X0218122Y0279345D02*
X0218909Y0279345D01*
X0218909Y0279346D02*
X0218122Y0279346D01*
X0218122Y0279347D02*
X0218909Y0279347D01*
X0218909Y0279348D02*
X0218122Y0279348D01*
X0218122Y0279349D02*
X0218909Y0279349D01*
X0218909Y0279350D02*
X0218122Y0279350D01*
X0218122Y0279351D02*
X0218909Y0279351D01*
X0218909Y0279352D02*
X0218122Y0279352D01*
X0218122Y0279353D02*
X0218909Y0279353D01*
X0218909Y0279354D02*
X0218122Y0279354D01*
X0218122Y0279355D02*
X0218909Y0279355D01*
X0218909Y0279356D02*
X0218122Y0279356D01*
X0218122Y0279357D02*
X0218909Y0279357D01*
X0218909Y0279358D02*
X0218122Y0279358D01*
X0218122Y0279359D02*
X0218909Y0279359D01*
X0218909Y0279360D02*
X0218122Y0279360D01*
X0218122Y0279361D02*
X0218909Y0279361D01*
X0218909Y0279362D02*
X0218122Y0279362D01*
X0218122Y0279363D02*
X0218909Y0279363D01*
X0218909Y0279364D02*
X0218122Y0279364D01*
X0218122Y0279365D02*
X0218909Y0279365D01*
X0218909Y0279366D02*
X0218122Y0279366D01*
X0218122Y0279367D02*
X0218909Y0279367D01*
X0218909Y0279368D02*
X0218122Y0279368D01*
X0218122Y0279369D02*
X0218909Y0279369D01*
X0218909Y0279370D02*
X0218122Y0279370D01*
X0218122Y0279371D02*
X0218909Y0279371D01*
X0218909Y0279372D02*
X0218122Y0279372D01*
X0218122Y0279373D02*
X0218909Y0279373D01*
X0218909Y0279374D02*
X0218122Y0279374D01*
X0218122Y0279375D02*
X0218909Y0279375D01*
X0218909Y0279376D02*
X0218122Y0279376D01*
X0218122Y0279377D02*
X0218909Y0279377D01*
X0218909Y0279378D02*
X0218122Y0279378D01*
X0218122Y0279379D02*
X0218909Y0279379D01*
X0218909Y0279380D02*
X0218122Y0279380D01*
X0218122Y0279381D02*
X0218909Y0279381D01*
X0218909Y0279382D02*
X0218122Y0279382D01*
X0218122Y0279383D02*
X0218909Y0279383D01*
X0218909Y0279384D02*
X0218122Y0279384D01*
X0218122Y0279385D02*
X0218909Y0279385D01*
X0218909Y0279386D02*
X0218122Y0279386D01*
X0218122Y0279387D02*
X0218909Y0279387D01*
X0218909Y0279388D02*
X0218122Y0279388D01*
X0218122Y0279389D02*
X0218909Y0279389D01*
X0218909Y0279390D02*
X0218122Y0279390D01*
X0218122Y0279391D02*
X0218909Y0279391D01*
X0218909Y0279392D02*
X0218122Y0279392D01*
X0218122Y0279393D02*
X0218909Y0279393D01*
X0218909Y0279394D02*
X0218122Y0279394D01*
X0218122Y0279395D02*
X0218909Y0279395D01*
X0218909Y0279396D02*
X0218122Y0279396D01*
X0218122Y0279397D02*
X0218909Y0279397D01*
X0218909Y0279398D02*
X0218122Y0279398D01*
X0218122Y0279399D02*
X0218909Y0279399D01*
X0218909Y0279400D02*
X0218122Y0279400D01*
X0218122Y0279401D02*
X0218909Y0279401D01*
X0218909Y0279402D02*
X0218122Y0279402D01*
X0218122Y0279403D02*
X0218909Y0279403D01*
X0218909Y0279404D02*
X0218122Y0279404D01*
X0218122Y0279405D02*
X0218909Y0279405D01*
X0218909Y0279406D02*
X0218122Y0279406D01*
X0218909Y0279406D01*
X0218909Y0279407D02*
X0218122Y0279407D01*
X0218122Y0279408D02*
X0218909Y0279408D01*
X0218909Y0279409D02*
X0218122Y0279409D01*
X0218122Y0279410D02*
X0218909Y0279410D01*
X0218909Y0279411D02*
X0218122Y0279411D01*
X0218122Y0279412D02*
X0218909Y0279412D01*
X0218909Y0279413D02*
X0218122Y0279413D01*
X0218122Y0279414D02*
X0218909Y0279414D01*
X0218909Y0279415D02*
X0218122Y0279415D01*
X0218122Y0279416D02*
X0218909Y0279416D01*
X0218909Y0279417D02*
X0218122Y0279417D01*
X0218122Y0279418D02*
X0218909Y0279418D01*
X0218909Y0279419D02*
X0218122Y0279419D01*
X0218122Y0279420D02*
X0218909Y0279420D01*
X0218909Y0279421D02*
X0218122Y0279421D01*
X0218122Y0279422D02*
X0218909Y0279422D01*
X0218909Y0279423D02*
X0218122Y0279423D01*
X0218122Y0279424D02*
X0218909Y0279424D01*
X0218909Y0279425D02*
X0218122Y0279425D01*
X0218122Y0279426D02*
X0218909Y0279426D01*
X0218909Y0279427D02*
X0218122Y0279427D01*
X0218122Y0279428D02*
X0218909Y0279428D01*
X0218909Y0279429D02*
X0218122Y0279429D01*
X0218122Y0279430D02*
X0218909Y0279430D01*
X0218909Y0279431D02*
X0218122Y0279431D01*
X0218122Y0279432D02*
X0218909Y0279432D01*
X0218909Y0279433D02*
X0218122Y0279433D01*
X0218122Y0279434D02*
X0218909Y0279434D01*
X0218909Y0279435D02*
X0218122Y0279435D01*
X0218122Y0279436D02*
X0218909Y0279436D01*
X0218909Y0279437D02*
X0218122Y0279437D01*
X0218122Y0279438D02*
X0218909Y0279438D01*
X0218909Y0279439D02*
X0218122Y0279439D01*
X0218122Y0279440D02*
X0218909Y0279440D01*
X0218909Y0279441D02*
X0218122Y0279441D01*
X0218122Y0279442D02*
X0218909Y0279442D01*
X0218909Y0279443D02*
X0218122Y0279443D01*
X0218122Y0279444D02*
X0218909Y0279444D01*
X0218909Y0279445D02*
X0218122Y0279445D01*
X0218122Y0279446D02*
X0218909Y0279446D01*
X0218909Y0279447D02*
X0218122Y0279447D01*
X0218122Y0279448D02*
X0218909Y0279448D01*
X0218909Y0279449D02*
X0218122Y0279449D01*
X0218122Y0279450D02*
X0218909Y0279450D01*
X0218909Y0279451D02*
X0218122Y0279451D01*
X0218122Y0279452D02*
X0218909Y0279452D01*
D17*
X0229000Y0285252D03*
X0229000Y0291748D03*
D18*
X0220000Y0290000D03*
X0220000Y0297000D03*
X0212000Y0297000D03*
X0212000Y0290000D03*
X0222500Y0269000D03*
X0222500Y0262000D03*
D19*
X0204000Y0287500D03*
X0199000Y0287500D03*
X0184465Y0257362D03*
X0179465Y0257362D03*
X0181965Y0334732D03*
X0176965Y0334732D03*
X0179500Y0360000D03*
X0184500Y0360000D03*
D20*
X0189000Y0325500D03*
X0201000Y0325500D03*
D21*
X0171701Y0334083D03*
X0167370Y0334083D03*
X0167835Y0362500D03*
X0172165Y0362500D03*
X0172165Y0286000D03*
X0167835Y0286000D03*
X0167370Y0256953D03*
X0171701Y0256953D03*
D22*
X0241500Y0270500D03*
D23*
X0181240Y0304882D03*
X0181240Y0307441D03*
X0181240Y0310000D03*
X0181240Y0312559D03*
X0181240Y0315118D03*
D24*
X0170709Y0314724D03*
X0170709Y0305276D03*
X0170709Y0294449D03*
X0170709Y0325551D03*
D25*
X0179173Y0317874D03*
X0179173Y0302126D03*
D26*
X0263617Y0301672D02*
X0267713Y0301672D01*
X0263617Y0301672D02*
X0263617Y0302028D01*
X0267713Y0302028D01*
X0267713Y0301672D01*
X0267713Y0298523D02*
X0263617Y0298523D01*
X0263617Y0298879D01*
X0267713Y0298879D01*
X0267713Y0298523D01*
X0267713Y0295373D02*
X0263617Y0295373D01*
X0263617Y0295729D01*
X0267713Y0295729D01*
X0267713Y0295373D01*
X0267713Y0292224D02*
X0263617Y0292224D01*
X0263617Y0292580D01*
X0267713Y0292580D01*
X0267713Y0292224D01*
X0267713Y0289074D02*
X0263617Y0289074D01*
X0263617Y0289430D01*
X0267713Y0289430D01*
X0267713Y0289074D01*
X0272574Y0280117D02*
X0272930Y0280117D01*
X0272574Y0280117D02*
X0272574Y0284213D01*
X0272930Y0284213D01*
X0272930Y0280117D01*
X0272930Y0281533D02*
X0272574Y0281533D01*
X0272574Y0282949D02*
X0272930Y0282949D01*
X0275724Y0280117D02*
X0276080Y0280117D01*
X0275724Y0280117D02*
X0275724Y0284213D01*
X0276080Y0284213D01*
X0276080Y0280117D01*
X0276080Y0281533D02*
X0275724Y0281533D01*
X0275724Y0282949D02*
X0276080Y0282949D01*
X0278873Y0280117D02*
X0279229Y0280117D01*
X0278873Y0280117D02*
X0278873Y0284213D01*
X0279229Y0284213D01*
X0279229Y0280117D01*
X0279229Y0281533D02*
X0278873Y0281533D01*
X0278873Y0282949D02*
X0279229Y0282949D01*
X0282023Y0280117D02*
X0282379Y0280117D01*
X0282023Y0280117D02*
X0282023Y0284213D01*
X0282379Y0284213D01*
X0282379Y0280117D01*
X0282379Y0281533D02*
X0282023Y0281533D01*
X0282023Y0282949D02*
X0282379Y0282949D01*
X0285172Y0280117D02*
X0285528Y0280117D01*
X0285172Y0280117D02*
X0285172Y0284213D01*
X0285528Y0284213D01*
X0285528Y0280117D01*
X0285528Y0281533D02*
X0285172Y0281533D01*
X0285172Y0282949D02*
X0285528Y0282949D01*
X0288322Y0280117D02*
X0288678Y0280117D01*
X0288322Y0280117D02*
X0288322Y0284213D01*
X0288678Y0284213D01*
X0288678Y0280117D01*
X0288678Y0281533D02*
X0288322Y0281533D01*
X0288322Y0282949D02*
X0288678Y0282949D01*
X0291472Y0280117D02*
X0291828Y0280117D01*
X0291472Y0280117D02*
X0291472Y0284213D01*
X0291828Y0284213D01*
X0291828Y0280117D01*
X0291828Y0281533D02*
X0291472Y0281533D01*
X0291472Y0282949D02*
X0291828Y0282949D01*
X0294621Y0280117D02*
X0294977Y0280117D01*
X0294621Y0280117D02*
X0294621Y0284213D01*
X0294977Y0284213D01*
X0294977Y0280117D01*
X0294977Y0281533D02*
X0294621Y0281533D01*
X0294621Y0282949D02*
X0294977Y0282949D01*
X0297771Y0280117D02*
X0298127Y0280117D01*
X0297771Y0280117D02*
X0297771Y0284213D01*
X0298127Y0284213D01*
X0298127Y0280117D01*
X0298127Y0281533D02*
X0297771Y0281533D01*
X0297771Y0282949D02*
X0298127Y0282949D01*
X0300920Y0280117D02*
X0301276Y0280117D01*
X0300920Y0280117D02*
X0300920Y0284213D01*
X0301276Y0284213D01*
X0301276Y0280117D01*
X0301276Y0281533D02*
X0300920Y0281533D01*
X0300920Y0282949D02*
X0301276Y0282949D01*
X0304070Y0280117D02*
X0304426Y0280117D01*
X0304070Y0280117D02*
X0304070Y0284213D01*
X0304426Y0284213D01*
X0304426Y0280117D01*
X0304426Y0281533D02*
X0304070Y0281533D01*
X0304070Y0282949D02*
X0304426Y0282949D01*
X0309287Y0289074D02*
X0313383Y0289074D01*
X0309287Y0289074D02*
X0309287Y0289430D01*
X0313383Y0289430D01*
X0313383Y0289074D01*
X0313383Y0292224D02*
X0309287Y0292224D01*
X0309287Y0292580D01*
X0313383Y0292580D01*
X0313383Y0292224D01*
X0313383Y0295373D02*
X0309287Y0295373D01*
X0309287Y0295729D01*
X0313383Y0295729D01*
X0313383Y0295373D01*
X0313383Y0298523D02*
X0309287Y0298523D01*
X0309287Y0298879D01*
X0313383Y0298879D01*
X0313383Y0298523D01*
X0313383Y0301672D02*
X0309287Y0301672D01*
X0309287Y0302028D01*
X0313383Y0302028D01*
X0313383Y0301672D01*
X0313383Y0304822D02*
X0309287Y0304822D01*
X0309287Y0305178D01*
X0313383Y0305178D01*
X0313383Y0304822D01*
X0313383Y0307972D02*
X0309287Y0307972D01*
X0309287Y0308328D01*
X0313383Y0308328D01*
X0313383Y0307972D01*
X0313383Y0311121D02*
X0309287Y0311121D01*
X0309287Y0311477D01*
X0313383Y0311477D01*
X0313383Y0311121D01*
X0313383Y0314271D02*
X0309287Y0314271D01*
X0309287Y0314627D01*
X0313383Y0314627D01*
X0313383Y0314271D01*
X0313383Y0317420D02*
X0309287Y0317420D01*
X0309287Y0317776D01*
X0313383Y0317776D01*
X0313383Y0317420D01*
X0313383Y0320570D02*
X0309287Y0320570D01*
X0309287Y0320926D01*
X0313383Y0320926D01*
X0313383Y0320570D01*
X0304426Y0325787D02*
X0304070Y0325787D01*
X0304070Y0329883D01*
X0304426Y0329883D01*
X0304426Y0325787D01*
X0304426Y0327203D02*
X0304070Y0327203D01*
X0304070Y0328619D02*
X0304426Y0328619D01*
X0301276Y0325787D02*
X0300920Y0325787D01*
X0300920Y0329883D01*
X0301276Y0329883D01*
X0301276Y0325787D01*
X0301276Y0327203D02*
X0300920Y0327203D01*
X0300920Y0328619D02*
X0301276Y0328619D01*
X0298127Y0325787D02*
X0297771Y0325787D01*
X0297771Y0329883D01*
X0298127Y0329883D01*
X0298127Y0325787D01*
X0298127Y0327203D02*
X0297771Y0327203D01*
X0297771Y0328619D02*
X0298127Y0328619D01*
X0294977Y0325787D02*
X0294621Y0325787D01*
X0294621Y0329883D01*
X0294977Y0329883D01*
X0294977Y0325787D01*
X0294977Y0327203D02*
X0294621Y0327203D01*
X0294621Y0328619D02*
X0294977Y0328619D01*
X0291828Y0325787D02*
X0291472Y0325787D01*
X0291472Y0329883D01*
X0291828Y0329883D01*
X0291828Y0325787D01*
X0291828Y0327203D02*
X0291472Y0327203D01*
X0291472Y0328619D02*
X0291828Y0328619D01*
X0288678Y0325787D02*
X0288322Y0325787D01*
X0288322Y0329883D01*
X0288678Y0329883D01*
X0288678Y0325787D01*
X0288678Y0327203D02*
X0288322Y0327203D01*
X0288322Y0328619D02*
X0288678Y0328619D01*
X0285528Y0325787D02*
X0285172Y0325787D01*
X0285172Y0329883D01*
X0285528Y0329883D01*
X0285528Y0325787D01*
X0285528Y0327203D02*
X0285172Y0327203D01*
X0285172Y0328619D02*
X0285528Y0328619D01*
X0282379Y0325787D02*
X0282023Y0325787D01*
X0282023Y0329883D01*
X0282379Y0329883D01*
X0282379Y0325787D01*
X0282379Y0327203D02*
X0282023Y0327203D01*
X0282023Y0328619D02*
X0282379Y0328619D01*
X0279229Y0325787D02*
X0278873Y0325787D01*
X0278873Y0329883D01*
X0279229Y0329883D01*
X0279229Y0325787D01*
X0279229Y0327203D02*
X0278873Y0327203D01*
X0278873Y0328619D02*
X0279229Y0328619D01*
X0276080Y0325787D02*
X0275724Y0325787D01*
X0275724Y0329883D01*
X0276080Y0329883D01*
X0276080Y0325787D01*
X0276080Y0327203D02*
X0275724Y0327203D01*
X0275724Y0328619D02*
X0276080Y0328619D01*
X0272930Y0325787D02*
X0272574Y0325787D01*
X0272574Y0329883D01*
X0272930Y0329883D01*
X0272930Y0325787D01*
X0272930Y0327203D02*
X0272574Y0327203D01*
X0272574Y0328619D02*
X0272930Y0328619D01*
X0267713Y0320570D02*
X0263617Y0320570D01*
X0263617Y0320926D01*
X0267713Y0320926D01*
X0267713Y0320570D01*
X0267713Y0317420D02*
X0263617Y0317420D01*
X0263617Y0317776D01*
X0267713Y0317776D01*
X0267713Y0317420D01*
X0267713Y0314271D02*
X0263617Y0314271D01*
X0263617Y0314627D01*
X0267713Y0314627D01*
X0267713Y0314271D01*
X0267713Y0311121D02*
X0263617Y0311121D01*
X0263617Y0311477D01*
X0267713Y0311477D01*
X0267713Y0311121D01*
X0267713Y0307972D02*
X0263617Y0307972D01*
X0263617Y0308328D01*
X0267713Y0308328D01*
X0267713Y0307972D01*
X0267713Y0304822D02*
X0263617Y0304822D01*
X0263617Y0305178D01*
X0267713Y0305178D01*
X0267713Y0304822D01*
D27*
X0286000Y0305000D02*
X0286002Y0305099D01*
X0286008Y0305199D01*
X0286018Y0305298D01*
X0286032Y0305396D01*
X0286049Y0305494D01*
X0286071Y0305591D01*
X0286096Y0305687D01*
X0286125Y0305782D01*
X0286158Y0305876D01*
X0286195Y0305968D01*
X0286235Y0306059D01*
X0286279Y0306148D01*
X0286327Y0306236D01*
X0286378Y0306321D01*
X0286432Y0306404D01*
X0286489Y0306486D01*
X0286550Y0306564D01*
X0286614Y0306641D01*
X0286680Y0306714D01*
X0286750Y0306785D01*
X0286822Y0306853D01*
X0286897Y0306919D01*
X0286975Y0306981D01*
X0287055Y0307040D01*
X0287137Y0307096D01*
X0287221Y0307148D01*
X0287308Y0307197D01*
X0287396Y0307243D01*
X0287486Y0307285D01*
X0287578Y0307324D01*
X0287671Y0307359D01*
X0287765Y0307390D01*
X0287861Y0307417D01*
X0287958Y0307440D01*
X0288055Y0307460D01*
X0288153Y0307476D01*
X0288252Y0307488D01*
X0288351Y0307496D01*
X0288450Y0307500D01*
X0288550Y0307500D01*
X0288649Y0307496D01*
X0288748Y0307488D01*
X0288847Y0307476D01*
X0288945Y0307460D01*
X0289042Y0307440D01*
X0289139Y0307417D01*
X0289235Y0307390D01*
X0289329Y0307359D01*
X0289422Y0307324D01*
X0289514Y0307285D01*
X0289604Y0307243D01*
X0289692Y0307197D01*
X0289779Y0307148D01*
X0289863Y0307096D01*
X0289945Y0307040D01*
X0290025Y0306981D01*
X0290103Y0306919D01*
X0290178Y0306853D01*
X0290250Y0306785D01*
X0290320Y0306714D01*
X0290386Y0306641D01*
X0290450Y0306564D01*
X0290511Y0306486D01*
X0290568Y0306404D01*
X0290622Y0306321D01*
X0290673Y0306236D01*
X0290721Y0306148D01*
X0290765Y0306059D01*
X0290805Y0305968D01*
X0290842Y0305876D01*
X0290875Y0305782D01*
X0290904Y0305687D01*
X0290929Y0305591D01*
X0290951Y0305494D01*
X0290968Y0305396D01*
X0290982Y0305298D01*
X0290992Y0305199D01*
X0290998Y0305099D01*
X0291000Y0305000D01*
X0290998Y0304901D01*
X0290992Y0304801D01*
X0290982Y0304702D01*
X0290968Y0304604D01*
X0290951Y0304506D01*
X0290929Y0304409D01*
X0290904Y0304313D01*
X0290875Y0304218D01*
X0290842Y0304124D01*
X0290805Y0304032D01*
X0290765Y0303941D01*
X0290721Y0303852D01*
X0290673Y0303764D01*
X0290622Y0303679D01*
X0290568Y0303596D01*
X0290511Y0303514D01*
X0290450Y0303436D01*
X0290386Y0303359D01*
X0290320Y0303286D01*
X0290250Y0303215D01*
X0290178Y0303147D01*
X0290103Y0303081D01*
X0290025Y0303019D01*
X0289945Y0302960D01*
X0289863Y0302904D01*
X0289779Y0302852D01*
X0289692Y0302803D01*
X0289604Y0302757D01*
X0289514Y0302715D01*
X0289422Y0302676D01*
X0289329Y0302641D01*
X0289235Y0302610D01*
X0289139Y0302583D01*
X0289042Y0302560D01*
X0288945Y0302540D01*
X0288847Y0302524D01*
X0288748Y0302512D01*
X0288649Y0302504D01*
X0288550Y0302500D01*
X0288450Y0302500D01*
X0288351Y0302504D01*
X0288252Y0302512D01*
X0288153Y0302524D01*
X0288055Y0302540D01*
X0287958Y0302560D01*
X0287861Y0302583D01*
X0287765Y0302610D01*
X0287671Y0302641D01*
X0287578Y0302676D01*
X0287486Y0302715D01*
X0287396Y0302757D01*
X0287308Y0302803D01*
X0287221Y0302852D01*
X0287137Y0302904D01*
X0287055Y0302960D01*
X0286975Y0303019D01*
X0286897Y0303081D01*
X0286822Y0303147D01*
X0286750Y0303215D01*
X0286680Y0303286D01*
X0286614Y0303359D01*
X0286550Y0303436D01*
X0286489Y0303514D01*
X0286432Y0303596D01*
X0286378Y0303679D01*
X0286327Y0303764D01*
X0286279Y0303852D01*
X0286235Y0303941D01*
X0286195Y0304032D01*
X0286158Y0304124D01*
X0286125Y0304218D01*
X0286096Y0304313D01*
X0286071Y0304409D01*
X0286049Y0304506D01*
X0286032Y0304604D01*
X0286018Y0304702D01*
X0286008Y0304801D01*
X0286002Y0304901D01*
X0286000Y0305000D01*
D28*
X0276649Y0304892D02*
X0274563Y0304892D01*
X0274563Y0305108D01*
X0276649Y0305108D01*
X0276649Y0304892D01*
X0276649Y0302923D02*
X0274563Y0302923D01*
X0274563Y0303139D01*
X0276649Y0303139D01*
X0276649Y0302923D01*
X0276649Y0300955D02*
X0274563Y0300955D01*
X0274563Y0301171D01*
X0276649Y0301171D01*
X0276649Y0300955D01*
X0276649Y0298986D02*
X0274563Y0298986D01*
X0274563Y0299202D01*
X0276649Y0299202D01*
X0276649Y0298986D01*
X0276649Y0297018D02*
X0274563Y0297018D01*
X0274563Y0297234D01*
X0276649Y0297234D01*
X0276649Y0297018D01*
X0276649Y0295049D02*
X0274563Y0295049D01*
X0274563Y0295265D01*
X0276649Y0295265D01*
X0276649Y0295049D01*
X0278765Y0293149D02*
X0278765Y0291063D01*
X0278549Y0291063D01*
X0278549Y0293149D01*
X0278765Y0293149D01*
X0278765Y0291928D02*
X0278549Y0291928D01*
X0278549Y0292793D02*
X0278765Y0292793D01*
X0280734Y0293149D02*
X0280734Y0291063D01*
X0280518Y0291063D01*
X0280518Y0293149D01*
X0280734Y0293149D01*
X0280734Y0291928D02*
X0280518Y0291928D01*
X0280518Y0292793D02*
X0280734Y0292793D01*
X0282702Y0293149D02*
X0282702Y0291063D01*
X0282486Y0291063D01*
X0282486Y0293149D01*
X0282702Y0293149D01*
X0282702Y0291928D02*
X0282486Y0291928D01*
X0282486Y0292793D02*
X0282702Y0292793D01*
X0284671Y0293149D02*
X0284671Y0291063D01*
X0284455Y0291063D01*
X0284455Y0293149D01*
X0284671Y0293149D01*
X0284671Y0291928D02*
X0284455Y0291928D01*
X0284455Y0292793D02*
X0284671Y0292793D01*
X0286639Y0293149D02*
X0286639Y0291063D01*
X0286423Y0291063D01*
X0286423Y0293149D01*
X0286639Y0293149D01*
X0286639Y0291928D02*
X0286423Y0291928D01*
X0286423Y0292793D02*
X0286639Y0292793D01*
X0288608Y0293149D02*
X0288608Y0291063D01*
X0288392Y0291063D01*
X0288392Y0293149D01*
X0288608Y0293149D01*
X0288608Y0291928D02*
X0288392Y0291928D01*
X0288392Y0292793D02*
X0288608Y0292793D01*
X0290577Y0293149D02*
X0290577Y0291063D01*
X0290361Y0291063D01*
X0290361Y0293149D01*
X0290577Y0293149D01*
X0290577Y0291928D02*
X0290361Y0291928D01*
X0290361Y0292793D02*
X0290577Y0292793D01*
X0292545Y0293149D02*
X0292545Y0291063D01*
X0292329Y0291063D01*
X0292329Y0293149D01*
X0292545Y0293149D01*
X0292545Y0291928D02*
X0292329Y0291928D01*
X0292329Y0292793D02*
X0292545Y0292793D01*
X0294514Y0293149D02*
X0294514Y0291063D01*
X0294298Y0291063D01*
X0294298Y0293149D01*
X0294514Y0293149D01*
X0294514Y0291928D02*
X0294298Y0291928D01*
X0294298Y0292793D02*
X0294514Y0292793D01*
X0296482Y0293149D02*
X0296482Y0291063D01*
X0296266Y0291063D01*
X0296266Y0293149D01*
X0296482Y0293149D01*
X0296482Y0291928D02*
X0296266Y0291928D01*
X0296266Y0292793D02*
X0296482Y0292793D01*
X0298451Y0293149D02*
X0298451Y0291063D01*
X0298235Y0291063D01*
X0298235Y0293149D01*
X0298451Y0293149D01*
X0298451Y0291928D02*
X0298235Y0291928D01*
X0298235Y0292793D02*
X0298451Y0292793D01*
X0300351Y0295265D02*
X0302437Y0295265D01*
X0302437Y0295049D01*
X0300351Y0295049D01*
X0300351Y0295265D01*
X0300351Y0297234D02*
X0302437Y0297234D01*
X0302437Y0297018D01*
X0300351Y0297018D01*
X0300351Y0297234D01*
X0300351Y0299202D02*
X0302437Y0299202D01*
X0302437Y0298986D01*
X0300351Y0298986D01*
X0300351Y0299202D01*
X0300351Y0301171D02*
X0302437Y0301171D01*
X0302437Y0300955D01*
X0300351Y0300955D01*
X0300351Y0301171D01*
X0300351Y0303139D02*
X0302437Y0303139D01*
X0302437Y0302923D01*
X0300351Y0302923D01*
X0300351Y0303139D01*
X0300351Y0305108D02*
X0302437Y0305108D01*
X0302437Y0304892D01*
X0300351Y0304892D01*
X0300351Y0305108D01*
X0300351Y0307077D02*
X0302437Y0307077D01*
X0302437Y0306861D01*
X0300351Y0306861D01*
X0300351Y0307077D01*
X0300351Y0309045D02*
X0302437Y0309045D01*
X0302437Y0308829D01*
X0300351Y0308829D01*
X0300351Y0309045D01*
X0300351Y0311014D02*
X0302437Y0311014D01*
X0302437Y0310798D01*
X0300351Y0310798D01*
X0300351Y0311014D01*
X0300351Y0312982D02*
X0302437Y0312982D01*
X0302437Y0312766D01*
X0300351Y0312766D01*
X0300351Y0312982D01*
X0300351Y0314951D02*
X0302437Y0314951D01*
X0302437Y0314735D01*
X0300351Y0314735D01*
X0300351Y0314951D01*
X0298235Y0316851D02*
X0298235Y0318937D01*
X0298451Y0318937D01*
X0298451Y0316851D01*
X0298235Y0316851D01*
X0298235Y0317716D02*
X0298451Y0317716D01*
X0298451Y0318581D02*
X0298235Y0318581D01*
X0296266Y0318937D02*
X0296266Y0316851D01*
X0296266Y0318937D02*
X0296482Y0318937D01*
X0296482Y0316851D01*
X0296266Y0316851D01*
X0296266Y0317716D02*
X0296482Y0317716D01*
X0296482Y0318581D02*
X0296266Y0318581D01*
X0294298Y0318937D02*
X0294298Y0316851D01*
X0294298Y0318937D02*
X0294514Y0318937D01*
X0294514Y0316851D01*
X0294298Y0316851D01*
X0294298Y0317716D02*
X0294514Y0317716D01*
X0294514Y0318581D02*
X0294298Y0318581D01*
X0292329Y0318937D02*
X0292329Y0316851D01*
X0292329Y0318937D02*
X0292545Y0318937D01*
X0292545Y0316851D01*
X0292329Y0316851D01*
X0292329Y0317716D02*
X0292545Y0317716D01*
X0292545Y0318581D02*
X0292329Y0318581D01*
X0290361Y0318937D02*
X0290361Y0316851D01*
X0290361Y0318937D02*
X0290577Y0318937D01*
X0290577Y0316851D01*
X0290361Y0316851D01*
X0290361Y0317716D02*
X0290577Y0317716D01*
X0290577Y0318581D02*
X0290361Y0318581D01*
X0288392Y0318937D02*
X0288392Y0316851D01*
X0288392Y0318937D02*
X0288608Y0318937D01*
X0288608Y0316851D01*
X0288392Y0316851D01*
X0288392Y0317716D02*
X0288608Y0317716D01*
X0288608Y0318581D02*
X0288392Y0318581D01*
X0286423Y0318937D02*
X0286423Y0316851D01*
X0286423Y0318937D02*
X0286639Y0318937D01*
X0286639Y0316851D01*
X0286423Y0316851D01*
X0286423Y0317716D02*
X0286639Y0317716D01*
X0286639Y0318581D02*
X0286423Y0318581D01*
X0284455Y0318937D02*
X0284455Y0316851D01*
X0284455Y0318937D02*
X0284671Y0318937D01*
X0284671Y0316851D01*
X0284455Y0316851D01*
X0284455Y0317716D02*
X0284671Y0317716D01*
X0284671Y0318581D02*
X0284455Y0318581D01*
X0282486Y0318937D02*
X0282486Y0316851D01*
X0282486Y0318937D02*
X0282702Y0318937D01*
X0282702Y0316851D01*
X0282486Y0316851D01*
X0282486Y0317716D02*
X0282702Y0317716D01*
X0282702Y0318581D02*
X0282486Y0318581D01*
X0280518Y0318937D02*
X0280518Y0316851D01*
X0280518Y0318937D02*
X0280734Y0318937D01*
X0280734Y0316851D01*
X0280518Y0316851D01*
X0280518Y0317716D02*
X0280734Y0317716D01*
X0280734Y0318581D02*
X0280518Y0318581D01*
X0278549Y0318937D02*
X0278549Y0316851D01*
X0278549Y0318937D02*
X0278765Y0318937D01*
X0278765Y0316851D01*
X0278549Y0316851D01*
X0278549Y0317716D02*
X0278765Y0317716D01*
X0278765Y0318581D02*
X0278549Y0318581D01*
X0276649Y0314735D02*
X0274563Y0314735D01*
X0274563Y0314951D01*
X0276649Y0314951D01*
X0276649Y0314735D01*
X0276649Y0312766D02*
X0274563Y0312766D01*
X0274563Y0312982D01*
X0276649Y0312982D01*
X0276649Y0312766D01*
X0276649Y0310798D02*
X0274563Y0310798D01*
X0274563Y0311014D01*
X0276649Y0311014D01*
X0276649Y0310798D01*
X0276649Y0308829D02*
X0274563Y0308829D01*
X0274563Y0309045D01*
X0276649Y0309045D01*
X0276649Y0308829D01*
X0276649Y0306861D02*
X0274563Y0306861D01*
X0274563Y0307077D01*
X0276649Y0307077D01*
X0276649Y0306861D01*
D29*
X0281000Y0339000D03*
X0290000Y0339000D03*
X0290000Y0346000D03*
X0281000Y0346000D03*
D30*
X0209567Y0391287D03*
X0196248Y0388500D03*
X0189752Y0388500D03*
D31*
X0189850Y0385547D03*
X0191425Y0385547D03*
X0193000Y0385547D03*
X0194575Y0385547D03*
X0196150Y0385547D03*
X0196150Y0391453D03*
X0194575Y0391453D03*
X0193000Y0391453D03*
X0191425Y0391453D03*
D32*
X0189654Y0391453D03*
D33*
X0205236Y0391287D03*
X0205236Y0389713D03*
X0209764Y0389713D03*
D34*
X0209075Y0387449D03*
X0207500Y0387449D03*
X0205925Y0387449D03*
X0205925Y0393551D03*
X0207500Y0393551D03*
X0209075Y0393551D03*
D35*
X0221374Y0391839D03*
X0221374Y0389280D03*
X0221374Y0386720D03*
X0221374Y0384161D03*
X0230626Y0384161D03*
X0230626Y0386720D03*
X0230626Y0389280D03*
X0230626Y0391839D03*
D36*
X0244260Y0387000D03*
X0251740Y0389559D03*
X0251740Y0384441D03*
D37*
X0183500Y0349831D03*
X0179760Y0341169D03*
X0187240Y0341169D03*
D38*
X0247000Y0315000D03*
X0254000Y0315000D03*
X0190000Y0265000D03*
X0183000Y0265000D03*
D39*
X0170000Y0250000D03*
X0170000Y0370000D03*
D40*
X0180000Y0370000D03*
X0190000Y0370000D03*
X0200000Y0370000D03*
X0210000Y0370000D03*
X0220000Y0370000D03*
X0230000Y0370000D03*
X0240000Y0370000D03*
X0250000Y0370000D03*
X0260000Y0370000D03*
X0270000Y0370000D03*
X0280000Y0370000D03*
X0290000Y0370000D03*
X0300000Y0370000D03*
X0310000Y0370000D03*
X0320000Y0370000D03*
X0330000Y0370000D03*
X0340000Y0370000D03*
X0350000Y0370000D03*
X0360000Y0370000D03*
X0370000Y0370000D03*
X0380000Y0370000D03*
X0380000Y0250000D03*
X0370000Y0250000D03*
X0360000Y0250000D03*
X0350000Y0250000D03*
X0340000Y0250000D03*
X0330000Y0250000D03*
X0320000Y0250000D03*
X0310000Y0250000D03*
X0300000Y0250000D03*
X0290000Y0250000D03*
X0280000Y0250000D03*
X0270000Y0250000D03*
X0260000Y0250000D03*
X0250000Y0250000D03*
X0240000Y0250000D03*
X0230000Y0250000D03*
X0220000Y0250000D03*
X0210000Y0250000D03*
X0200000Y0250000D03*
X0190000Y0250000D03*
X0180000Y0250000D03*
D41*
X0167500Y0267154D03*
X0167500Y0273846D03*
X0167500Y0345654D03*
X0167500Y0352346D03*
X0381000Y0269346D03*
X0381000Y0262654D03*
D42*
X0374898Y0259406D03*
X0374898Y0272594D03*
X0173602Y0277094D03*
X0173602Y0263906D03*
X0173602Y0342406D03*
X0173602Y0355594D03*
D43*
X0167500Y0358055D03*
X0167500Y0339945D03*
X0167500Y0279555D03*
X0167500Y0261445D03*
X0381000Y0256945D03*
X0381000Y0275055D03*
D44*
X0190000Y0282185D03*
X0190000Y0292815D03*
D45*
X0196882Y0271240D03*
X0196882Y0267500D03*
X0196882Y0263760D03*
X0207118Y0263760D03*
X0207118Y0267500D03*
X0207118Y0271240D03*
M02*
