%
M48
M72
T01C0.01181
T02C0.02165
T03C0.03150
T04C0.04000
%
T01
X175500Y247000
X185000Y247000
X195000Y247000
X195000Y255000
X190500Y257000
X187300Y257000
X179000Y262500
X179000Y265500
X183000Y268500
X186500Y271000
X182500Y273500
X177500Y273500
X172500Y274500
X172500Y282500
X168000Y283500
X167500Y288500
X178500Y282500
X184500Y282500
X196000Y281000
X199000Y285000
X197000Y287500
X199000Y290000
X202000Y290500
X204000Y292500
X206000Y290500
X204500Y296000
X202000Y298000
X208000Y297000
X212000Y299500
X216000Y297000
X220500Y299500
X223500Y297000
X225000Y305000
X215000Y305000
X205000Y305000
X193000Y298500
X192000Y312500
X189500Y314500
X187000Y312500
X185000Y315000
X195000Y325000
X198500Y325500
X201000Y329500
X204000Y325500
X201000Y321500
X192500Y334500
X188000Y345000
X190000Y347000
X191000Y351500
X193000Y353500
X194000Y351000
X179500Y344000
X179500Y338500
X167500Y336500
X167500Y331500
X177500Y352000
X168000Y361000
X168000Y364000
X175000Y365000
X186000Y362000
X195000Y367000
X210000Y359500
X224500Y365500
X225000Y373000
X215000Y373000
X206500Y382000
X211500Y386500
X216500Y390000
X213000Y395500
X205000Y393500
X198000Y394500
X201000Y387000
X187500Y388500
X189000Y398500
X189000Y379000
X235000Y373000
X236000Y379000
X241000Y390500
X255000Y372500
X250500Y364000
X257000Y360000
X260000Y353500
X263500Y353500
X265000Y349500
X263000Y345500
X260000Y345500
X258500Y339000
X263500Y335000
X266500Y335000
X272500Y331000
X276000Y331000
X280500Y335500
X282500Y333500
X283500Y339000
X281000Y341500
X277500Y339000
X275500Y341500
X268500Y345000
X258000Y331000
X258500Y325000
X262500Y320500
X262500Y317500
X262500Y314500
X262500Y311500
X249500Y315500
X247000Y318500
X244500Y315500
X247000Y311500
X248500Y325000
X250000Y331000
X250000Y342500
X250000Y345500
X281000Y357500
X289000Y359000
X288500Y354000
X286500Y346000
X290000Y343500
X293500Y346000
X298500Y345000
X297000Y342000
X292000Y333500
X295000Y330500
X301000Y331000
X305000Y334000
X308500Y331000
X308500Y328000
X310500Y326000
X315500Y325000
X325000Y325000
X325000Y335000
X327500Y340000
X327500Y343125
X330000Y345000
X335000Y345100
X338750Y347500
X345000Y348000
X350000Y348125
X355000Y348125
X361250Y348750
X361250Y355000
X365000Y357500
X370000Y357500
X375000Y357500
X380000Y357500
X382500Y360000
X375000Y365000
X375000Y372500
X365000Y372500
X361500Y364500
X355000Y372500
X351000Y364500
X345000Y372500
X335000Y372500
X333500Y365000
X328000Y359500
X318500Y355000
X315500Y351500
X313000Y350000
X315500Y348500
X310500Y352000
X316000Y359000
X315000Y372500
X325000Y372500
X338500Y357000
X345000Y342500
X350000Y340625
X355000Y340625
X361250Y341250
X361250Y335000
X361250Y330000
X361250Y325000
X361250Y320000
X361250Y315000
X361250Y310000
X361250Y305000
X361250Y300000
X361250Y295000
X361250Y290000
X361250Y285000
X361250Y280000
X361250Y275000
X365000Y275000
X365000Y265000
X355000Y265000
X345000Y265000
X345000Y275000
X335000Y275000
X325000Y285000
X318500Y285000
X314500Y292500
X314500Y295500
X318500Y295000
X325000Y295000
X325000Y305000
X335000Y305000
X345000Y305000
X355000Y305000
X355000Y295000
X345000Y295000
X355000Y285000
X380000Y275625
X382500Y255000
X375000Y255000
X375000Y247000
X365000Y247000
X355000Y247000
X355000Y255000
X345000Y247000
X335500Y247000
X335000Y255000
X325000Y247000
X315000Y247000
X305000Y247000
X295000Y247000
X295500Y256000
X294000Y269000
X292000Y271500
X290000Y269500
X288000Y267500
X280500Y270000
X279051Y279000
X275500Y279000
X277000Y286000
X275500Y293500
X281000Y297500
X281000Y302500
X281000Y307500
X281000Y312500
X286000Y312500
X291000Y312500
X291000Y307500
X286000Y307500
X286000Y302500
X291000Y302500
X291000Y297500
X286000Y297500
X296000Y297500
X296000Y302500
X296000Y307500
X296000Y312500
X309500Y317500
X314500Y311000
X325000Y315000
X335000Y325000
X345000Y325000
X345000Y335000
X340625Y338750
X335000Y337500
X330000Y337500
X355000Y335000
X355000Y325000
X355000Y315000
X345000Y315000
X298000Y277500
X296000Y275500
X294000Y273500
X297500Y272500
X308000Y272000
X311000Y272000
X265000Y247000
X255000Y247000
X245000Y247000
X241500Y261500
X234000Y261500
X226000Y261500
X216500Y259500
X211500Y259500
X204000Y258500
X201000Y263500
X201000Y269500
X202000Y272500
X195500Y268000
X173500Y259500
X168000Y259000
X168000Y255500
X222500Y285500
X235000Y295000
X250500Y280500
X253500Y280500
X249500Y261500
X297000Y359000
X295000Y365000
X295000Y372500
X305000Y372500
X285000Y372500
X275000Y372500
X265500Y373000
T02
X179173Y317874
X179173Y302126
T03
X167500Y273846
X167500Y267154
X167500Y345654
X167500Y352346
X381000Y269346
X381000Y262654
T04
X170000Y250000
X180000Y250000
X190000Y250000
X200000Y250000
X210000Y250000
X220000Y250000
X230000Y250000
X240000Y250000
X250000Y250000
X260000Y250000
X270000Y250000
X280000Y250000
X290000Y250000
X300000Y250000
X310000Y250000
X320000Y250000
X330000Y250000
X340000Y250000
X350000Y250000
X360000Y250000
X370000Y250000
X380000Y250000
X380000Y370000
X370000Y370000
X360000Y370000
X350000Y370000
X340000Y370000
X330000Y370000
X320000Y370000
X310000Y370000
X300000Y370000
X290000Y370000
X280000Y370000
X270000Y370000
X260000Y370000
X250000Y370000
X240000Y370000
X230000Y370000
X220000Y370000
X210000Y370000
X200000Y370000
X190000Y370000
X180000Y370000
X170000Y370000
M30
