%
M48
M72
T01C0.0118
T02C0.0217
T03C0.0315
T04C0.0400
%
T01
X17550Y24700
X18500Y24700
X19500Y24700
X19500Y25500
X19050Y25700
X18730Y25700
X17900Y26250
X17900Y26550
X18300Y26850
X18650Y27100
X18250Y27350
X17750Y27350
X17250Y27450
X17250Y28250
X16800Y28350
X16750Y28850
X17850Y28250
X18450Y28250
X19600Y28100
X19900Y28500
X19700Y28750
X19900Y29000
X20200Y29050
X20400Y29250
X20600Y29050
X20450Y29600
X20200Y29800
X20800Y29700
X21200Y29950
X21600Y29700
X22050Y29950
X22350Y29700
X22500Y30500
X23150Y30950
X23700Y31250
X24200Y31000
X24650Y30450
X24900Y30700
X25000Y30200
X26250Y31150
X26250Y31450
X26250Y31750
X26250Y32050
X25950Y32550
X25400Y32450
X25400Y32150
X25400Y31850
X25400Y31550
X24600Y31700
X24400Y31900
X24600Y32100
X24400Y32350
X23800Y32300
X22950Y32000
X22950Y31700
X22400Y32400
X21550Y32100
X20750Y31750
X20300Y31950
X20100Y32350
X19850Y31950
X20100Y31550
X20750Y31250
X21300Y31250
X21500Y30500
X20500Y30500
X19300Y29850
X19200Y31250
X18950Y31400
X18700Y31250
X18500Y31500
X19500Y32500
X19150Y33200
X20200Y33850
X20750Y33650
X21150Y33700
X21550Y33650
X21600Y34350
X22250Y34250
X22650Y33600
X22350Y33350
X22850Y33250
X23700Y33750
X24000Y33750
X24300Y33850
X24600Y33850
X24600Y34250
X24600Y34550
X24050Y34300
X23900Y34550
X23600Y34550
X23300Y34550
X23400Y35350
X23700Y35350
X25600Y35350
X25700Y35600
X25700Y36000
X25800Y34950
X26200Y34800
X26150Y34500
X25400Y34250
X25400Y33850
X24250Y33550
X24050Y33300
X26600Y33050
X26600Y32750
X27250Y33100
X27600Y33100
X28050Y33550
X28250Y33350
X28350Y33900
X28100Y34150
X27750Y33900
X27550Y34150
X28650Y34600
X29000Y34350
X29350Y34600
X29850Y34500
X29700Y34200
X29200Y33350
X29500Y33050
X30100Y33100
X30500Y33400
X30850Y33100
X30850Y32800
X31050Y32600
X31550Y32500
X32500Y32500
X32500Y33500
X32750Y34000
X32750Y34313
X33000Y34500
X33500Y34510
X33875Y34750
X34500Y34800
X35000Y34813
X35500Y34813
X36125Y34875
X36125Y35500
X36500Y35750
X37000Y35750
X37500Y35750
X38000Y35750
X38250Y36000
X37500Y36500
X37500Y37250
X36500Y37250
X36150Y36450
X35500Y37250
X35100Y36450
X34500Y37250
X33500Y37250
X33350Y36500
X32800Y35950
X31850Y35500
X31550Y35150
X31300Y35000
X31550Y34850
X31050Y35200
X31600Y35900
X31500Y37250
X32500Y37250
X33850Y35700
X34500Y34250
X35000Y34063
X35500Y34063
X36125Y34125
X36125Y33500
X36125Y33000
X36125Y32500
X36125Y32000
X36125Y31500
X36125Y31000
X36125Y30500
X36125Y30000
X36125Y29500
X36125Y29000
X36125Y28500
X36125Y28000
X36125Y27500
X36500Y27500
X36500Y26500
X35500Y26500
X34500Y26500
X34500Y27500
X33500Y27500
X32500Y28500
X31850Y28500
X31450Y29250
X31450Y29550
X31850Y29500
X32500Y29500
X32500Y30500
X33500Y30500
X34500Y30500
X35500Y30500
X35500Y29500
X34500Y29500
X35500Y28500
X38000Y27563
X38250Y25500
X37500Y25500
X37500Y24700
X36500Y24700
X35500Y24700
X35500Y25500
X34500Y24700
X33550Y24700
X33500Y25500
X32500Y24700
X31500Y24700
X30500Y24700
X29500Y24700
X29450Y25550
X29400Y26900
X29200Y27150
X29000Y26950
X28800Y26750
X28050Y27000
X27905Y27900
X27550Y27900
X27700Y28600
X27550Y29350
X28100Y29750
X28100Y30250
X28100Y30750
X28100Y31250
X28600Y31250
X29100Y31250
X29100Y30750
X28600Y30750
X28600Y30250
X29100Y30250
X29100Y29750
X28600Y29750
X29600Y29750
X29600Y30250
X29600Y30750
X29600Y31250
X30950Y31750
X31450Y31100
X32500Y31500
X33500Y32500
X34500Y32500
X34500Y33500
X34063Y33875
X33500Y33750
X33000Y33750
X35500Y33500
X35500Y32500
X35500Y31500
X34500Y31500
X29800Y27750
X29600Y27550
X29400Y27350
X29750Y27250
X30800Y27200
X31100Y27200
X26500Y24700
X25500Y24700
X24500Y24700
X24150Y26150
X23400Y26150
X22600Y26150
X21650Y25950
X21150Y25950
X20400Y25850
X20100Y26350
X20100Y26950
X20200Y27250
X19550Y26800
X17350Y25950
X16800Y25900
X16800Y25550
X22250Y28550
X23500Y29500
X25050Y28050
X25350Y28050
X24950Y26150
X16750Y33150
X16750Y33650
X17950Y33850
X17950Y34400
X18800Y34500
X19000Y34700
X19054Y34350
X19350Y35050
X19100Y35150
X19300Y35350
X19750Y35250
X20400Y34550
X21000Y35350
X18600Y36200
X17500Y36500
X16800Y36400
X16800Y36100
X17750Y35200
X21500Y37300
X22500Y37300
X23500Y37300
X25500Y37250
X26550Y37300
X27500Y37250
X28500Y37250
X29500Y37250
X29500Y36500
X29700Y35900
X28900Y35900
X28850Y35400
X28100Y35800
X27100Y35500
X30500Y37250
T02
X17917Y31787
X17917Y30213
T03
X16750Y27385
X16750Y26715
X16750Y34565
X16750Y35235
X38100Y26935
X38100Y26265
T04
X17000Y25000
X18000Y25000
X19000Y25000
X20000Y25000
X21000Y25000
X22000Y25000
X23000Y25000
X24000Y25000
X25000Y25000
X26000Y25000
X27000Y25000
X28000Y25000
X29000Y25000
X30000Y25000
X31000Y25000
X32000Y25000
X33000Y25000
X34000Y25000
X35000Y25000
X36000Y25000
X37000Y25000
X38000Y25000
X38000Y37000
X37000Y37000
X36000Y37000
X35000Y37000
X34000Y37000
X33000Y37000
X32000Y37000
X31000Y37000
X30000Y37000
X29000Y37000
X28000Y37000
X27000Y37000
X26000Y37000
X25000Y37000
X24000Y37000
X23000Y37000
X22000Y37000
X21000Y37000
X20000Y37000
X19000Y37000
X18000Y37000
X17000Y37000
M30
