G75*
%MOIN*%
%OFA0B0*%
%FSLAX24Y24*%
%IPPOS*%
%LPD*%
%AMOC8*
5,1,8,0,0,1.08239X$1,22.5*
%
%ADD10C,0.0000*%
%ADD11R,0.0394X0.0276*%
%ADD12R,0.0236X0.0276*%
%ADD13R,0.0200X0.0200*%
%ADD14R,0.0236X0.0098*%
%ADD15R,0.0276X0.0098*%
%ADD16C,0.0001*%
%ADD17R,0.0787X0.0335*%
%ADD18R,0.0600X0.0400*%
%ADD19R,0.0250X0.0350*%
%ADD20R,0.0450X0.0700*%
%ADD21R,0.0276X0.0197*%
%ADD22C,0.0866*%
%ADD23R,0.0531X0.0157*%
%ADD24R,0.0748X0.0748*%
%ADD25C,0.0217*%
%ADD26C,0.0142*%
%ADD27C,0.1000*%
%ADD28C,0.0087*%
%ADD29R,0.0550X0.0500*%
%ADD30R,0.0087X0.0256*%
%ADD31R,0.0197X0.0087*%
%ADD32R,0.0197X0.0126*%
%ADD33R,0.0087X0.0217*%
%ADD34R,0.0217X0.0087*%
%ADD35R,0.0165X0.0512*%
%ADD36R,0.0276X0.0354*%
%ADD37R,0.0315X0.0433*%
%ADD38R,0.0740X0.0740*%
%ADD39C,0.0740*%
%ADD40C,0.0315*%
%ADD41R,0.0512X0.0453*%
%ADD42R,0.0472X0.0354*%
%ADD43R,0.0709X0.0551*%
%ADD44R,0.0400X0.0600*%
%ADD45R,0.0472X0.0236*%
D10*
X016500Y024500D02*
X016500Y037500D01*
X038500Y037500D01*
X038500Y024500D01*
X016500Y024500D01*
X016593Y026715D02*
X016595Y026740D01*
X016601Y026764D01*
X016610Y026786D01*
X016623Y026807D01*
X016639Y026826D01*
X016658Y026842D01*
X016679Y026855D01*
X016701Y026864D01*
X016725Y026870D01*
X016750Y026872D01*
X016775Y026870D01*
X016799Y026864D01*
X016821Y026855D01*
X016842Y026842D01*
X016861Y026826D01*
X016877Y026807D01*
X016890Y026786D01*
X016899Y026764D01*
X016905Y026740D01*
X016907Y026715D01*
X016905Y026690D01*
X016899Y026666D01*
X016890Y026644D01*
X016877Y026623D01*
X016861Y026604D01*
X016842Y026588D01*
X016821Y026575D01*
X016799Y026566D01*
X016775Y026560D01*
X016750Y026558D01*
X016725Y026560D01*
X016701Y026566D01*
X016679Y026575D01*
X016658Y026588D01*
X016639Y026604D01*
X016623Y026623D01*
X016610Y026644D01*
X016601Y026666D01*
X016595Y026690D01*
X016593Y026715D01*
X016593Y027385D02*
X016595Y027410D01*
X016601Y027434D01*
X016610Y027456D01*
X016623Y027477D01*
X016639Y027496D01*
X016658Y027512D01*
X016679Y027525D01*
X016701Y027534D01*
X016725Y027540D01*
X016750Y027542D01*
X016775Y027540D01*
X016799Y027534D01*
X016821Y027525D01*
X016842Y027512D01*
X016861Y027496D01*
X016877Y027477D01*
X016890Y027456D01*
X016899Y027434D01*
X016905Y027410D01*
X016907Y027385D01*
X016905Y027360D01*
X016899Y027336D01*
X016890Y027314D01*
X016877Y027293D01*
X016861Y027274D01*
X016842Y027258D01*
X016821Y027245D01*
X016799Y027236D01*
X016775Y027230D01*
X016750Y027228D01*
X016725Y027230D01*
X016701Y027236D01*
X016679Y027245D01*
X016658Y027258D01*
X016639Y027274D01*
X016623Y027293D01*
X016610Y027314D01*
X016601Y027336D01*
X016595Y027360D01*
X016593Y027385D01*
X017809Y030213D02*
X017811Y030233D01*
X017817Y030253D01*
X017826Y030271D01*
X017839Y030288D01*
X017854Y030301D01*
X017872Y030311D01*
X017892Y030318D01*
X017912Y030321D01*
X017932Y030320D01*
X017952Y030315D01*
X017971Y030307D01*
X017988Y030295D01*
X018002Y030280D01*
X018013Y030262D01*
X018021Y030243D01*
X018025Y030223D01*
X018025Y030203D01*
X018021Y030183D01*
X018013Y030164D01*
X018002Y030146D01*
X017988Y030131D01*
X017971Y030119D01*
X017952Y030111D01*
X017932Y030106D01*
X017912Y030105D01*
X017892Y030108D01*
X017872Y030115D01*
X017854Y030125D01*
X017839Y030138D01*
X017826Y030155D01*
X017817Y030173D01*
X017811Y030193D01*
X017809Y030213D01*
X017809Y031787D02*
X017811Y031807D01*
X017817Y031827D01*
X017826Y031845D01*
X017839Y031862D01*
X017854Y031875D01*
X017872Y031885D01*
X017892Y031892D01*
X017912Y031895D01*
X017932Y031894D01*
X017952Y031889D01*
X017971Y031881D01*
X017988Y031869D01*
X018002Y031854D01*
X018013Y031836D01*
X018021Y031817D01*
X018025Y031797D01*
X018025Y031777D01*
X018021Y031757D01*
X018013Y031738D01*
X018002Y031720D01*
X017988Y031705D01*
X017971Y031693D01*
X017952Y031685D01*
X017932Y031680D01*
X017912Y031679D01*
X017892Y031682D01*
X017872Y031689D01*
X017854Y031699D01*
X017839Y031712D01*
X017826Y031729D01*
X017817Y031747D01*
X017811Y031767D01*
X017809Y031787D01*
X016593Y034565D02*
X016595Y034590D01*
X016601Y034614D01*
X016610Y034636D01*
X016623Y034657D01*
X016639Y034676D01*
X016658Y034692D01*
X016679Y034705D01*
X016701Y034714D01*
X016725Y034720D01*
X016750Y034722D01*
X016775Y034720D01*
X016799Y034714D01*
X016821Y034705D01*
X016842Y034692D01*
X016861Y034676D01*
X016877Y034657D01*
X016890Y034636D01*
X016899Y034614D01*
X016905Y034590D01*
X016907Y034565D01*
X016905Y034540D01*
X016899Y034516D01*
X016890Y034494D01*
X016877Y034473D01*
X016861Y034454D01*
X016842Y034438D01*
X016821Y034425D01*
X016799Y034416D01*
X016775Y034410D01*
X016750Y034408D01*
X016725Y034410D01*
X016701Y034416D01*
X016679Y034425D01*
X016658Y034438D01*
X016639Y034454D01*
X016623Y034473D01*
X016610Y034494D01*
X016601Y034516D01*
X016595Y034540D01*
X016593Y034565D01*
X016593Y035235D02*
X016595Y035260D01*
X016601Y035284D01*
X016610Y035306D01*
X016623Y035327D01*
X016639Y035346D01*
X016658Y035362D01*
X016679Y035375D01*
X016701Y035384D01*
X016725Y035390D01*
X016750Y035392D01*
X016775Y035390D01*
X016799Y035384D01*
X016821Y035375D01*
X016842Y035362D01*
X016861Y035346D01*
X016877Y035327D01*
X016890Y035306D01*
X016899Y035284D01*
X016905Y035260D01*
X016907Y035235D01*
X016905Y035210D01*
X016899Y035186D01*
X016890Y035164D01*
X016877Y035143D01*
X016861Y035124D01*
X016842Y035108D01*
X016821Y035095D01*
X016799Y035086D01*
X016775Y035080D01*
X016750Y035078D01*
X016725Y035080D01*
X016701Y035086D01*
X016679Y035095D01*
X016658Y035108D01*
X016639Y035124D01*
X016623Y035143D01*
X016610Y035164D01*
X016601Y035186D01*
X016595Y035210D01*
X016593Y035235D01*
X021812Y027945D02*
X021812Y027764D01*
X021891Y027843D01*
X021891Y027945D01*
X021812Y027945D01*
X037943Y026935D02*
X037945Y026960D01*
X037951Y026984D01*
X037960Y027006D01*
X037973Y027027D01*
X037989Y027046D01*
X038008Y027062D01*
X038029Y027075D01*
X038051Y027084D01*
X038075Y027090D01*
X038100Y027092D01*
X038125Y027090D01*
X038149Y027084D01*
X038171Y027075D01*
X038192Y027062D01*
X038211Y027046D01*
X038227Y027027D01*
X038240Y027006D01*
X038249Y026984D01*
X038255Y026960D01*
X038257Y026935D01*
X038255Y026910D01*
X038249Y026886D01*
X038240Y026864D01*
X038227Y026843D01*
X038211Y026824D01*
X038192Y026808D01*
X038171Y026795D01*
X038149Y026786D01*
X038125Y026780D01*
X038100Y026778D01*
X038075Y026780D01*
X038051Y026786D01*
X038029Y026795D01*
X038008Y026808D01*
X037989Y026824D01*
X037973Y026843D01*
X037960Y026864D01*
X037951Y026886D01*
X037945Y026910D01*
X037943Y026935D01*
X037943Y026265D02*
X037945Y026290D01*
X037951Y026314D01*
X037960Y026336D01*
X037973Y026357D01*
X037989Y026376D01*
X038008Y026392D01*
X038029Y026405D01*
X038051Y026414D01*
X038075Y026420D01*
X038100Y026422D01*
X038125Y026420D01*
X038149Y026414D01*
X038171Y026405D01*
X038192Y026392D01*
X038211Y026376D01*
X038227Y026357D01*
X038240Y026336D01*
X038249Y026314D01*
X038255Y026290D01*
X038257Y026265D01*
X038255Y026240D01*
X038249Y026216D01*
X038240Y026194D01*
X038227Y026173D01*
X038211Y026154D01*
X038192Y026138D01*
X038171Y026125D01*
X038149Y026116D01*
X038125Y026110D01*
X038100Y026108D01*
X038075Y026110D01*
X038051Y026116D01*
X038029Y026125D01*
X038008Y026138D01*
X037989Y026154D01*
X037973Y026173D01*
X037960Y026194D01*
X037951Y026216D01*
X037945Y026240D01*
X037943Y026265D01*
D11*
X018955Y031264D03*
D12*
X019624Y031264D03*
X019624Y030476D03*
X018876Y030476D03*
D13*
X018850Y029850D03*
X019150Y029850D03*
X020200Y029550D03*
X020200Y029250D03*
X020600Y029250D03*
X020600Y029550D03*
X020850Y028400D03*
X020850Y028100D03*
X021250Y028100D03*
X021250Y028400D03*
X021200Y027650D03*
X020900Y027650D03*
X020400Y027650D03*
X020100Y027650D03*
X020200Y028100D03*
X019900Y028100D03*
X019600Y027650D03*
X019300Y027650D03*
X019000Y027100D03*
X018700Y027100D03*
X021250Y027200D03*
X021250Y026900D03*
X021250Y026400D03*
X021250Y026100D03*
X021650Y026100D03*
X021650Y026400D03*
X021700Y027450D03*
X022000Y027450D03*
X025650Y029100D03*
X025950Y029100D03*
X025950Y029500D03*
X025650Y029500D03*
X025650Y029900D03*
X025950Y029900D03*
X025950Y030500D03*
X025650Y030500D03*
X025650Y030900D03*
X025950Y030900D03*
X024400Y031100D03*
X024400Y031400D03*
X023950Y031050D03*
X023650Y031050D03*
X023000Y031100D03*
X023000Y031400D03*
X021200Y031250D03*
X020900Y031250D03*
X020750Y033200D03*
X020750Y033500D03*
X021150Y033500D03*
X021150Y033200D03*
X021550Y033200D03*
X021550Y033500D03*
X022000Y033150D03*
X022300Y033150D03*
X022350Y033550D03*
X022350Y033850D03*
X022350Y034350D03*
X022350Y034650D03*
X023000Y034700D03*
X023300Y034700D03*
X023300Y033300D03*
X023000Y033300D03*
X020600Y034000D03*
X020600Y034300D03*
X020200Y034300D03*
X020200Y034000D03*
X019000Y033600D03*
X018700Y033600D03*
X018700Y033200D03*
X019000Y033200D03*
X018800Y035200D03*
X018800Y035500D03*
X017910Y035504D03*
X017910Y035204D03*
X027550Y034600D03*
X027550Y034300D03*
X027750Y033350D03*
X028050Y033350D03*
X028550Y033350D03*
X028850Y033350D03*
X029550Y033900D03*
X029550Y034200D03*
X031750Y028900D03*
X032050Y028900D03*
X030400Y027650D03*
X030100Y027650D03*
X027900Y027600D03*
X027900Y027300D03*
X036550Y027100D03*
X036550Y026800D03*
X036950Y026800D03*
X036950Y027100D03*
D14*
X021655Y027855D03*
D15*
X021674Y028052D03*
X021674Y028248D03*
X021674Y028445D03*
X022226Y028445D03*
X022226Y028248D03*
X022226Y028052D03*
X022226Y027855D03*
D16*
X021891Y027856D02*
X021812Y027856D01*
X021812Y027857D02*
X021891Y027857D01*
X021891Y027858D02*
X021812Y027858D01*
X021812Y027859D02*
X021891Y027859D01*
X021891Y027860D02*
X021812Y027860D01*
X021812Y027861D02*
X021891Y027861D01*
X021891Y027862D02*
X021812Y027862D01*
X021812Y027863D02*
X021891Y027863D01*
X021891Y027864D02*
X021812Y027864D01*
X021812Y027865D02*
X021891Y027865D01*
X021891Y027866D02*
X021812Y027866D01*
X021812Y027867D02*
X021891Y027867D01*
X021891Y027868D02*
X021812Y027868D01*
X021812Y027869D02*
X021891Y027869D01*
X021891Y027870D02*
X021812Y027870D01*
X021812Y027871D02*
X021891Y027871D01*
X021891Y027872D02*
X021812Y027872D01*
X021812Y027873D02*
X021891Y027873D01*
X021891Y027874D02*
X021812Y027874D01*
X021812Y027875D02*
X021891Y027875D01*
X021891Y027876D02*
X021812Y027876D01*
X021812Y027877D02*
X021891Y027877D01*
X021891Y027878D02*
X021812Y027878D01*
X021812Y027879D02*
X021891Y027879D01*
X021891Y027880D02*
X021812Y027880D01*
X021812Y027881D02*
X021891Y027881D01*
X021891Y027882D02*
X021812Y027882D01*
X021812Y027883D02*
X021891Y027883D01*
X021891Y027884D02*
X021812Y027884D01*
X021812Y027885D02*
X021891Y027885D01*
X021891Y027886D02*
X021812Y027886D01*
X021812Y027887D02*
X021891Y027887D01*
X021891Y027888D02*
X021812Y027888D01*
X021812Y027889D02*
X021891Y027889D01*
X021891Y027890D02*
X021812Y027890D01*
X021812Y027891D02*
X021891Y027891D01*
X021891Y027892D02*
X021812Y027892D01*
X021812Y027893D02*
X021891Y027893D01*
X021891Y027894D02*
X021812Y027894D01*
X021812Y027895D02*
X021891Y027895D01*
X021891Y027896D02*
X021812Y027896D01*
X021812Y027897D02*
X021891Y027897D01*
X021891Y027898D02*
X021812Y027898D01*
X021812Y027899D02*
X021891Y027899D01*
X021891Y027900D02*
X021812Y027900D01*
X021812Y027901D02*
X021891Y027901D01*
X021891Y027902D02*
X021812Y027902D01*
X021812Y027903D02*
X021891Y027903D01*
X021891Y027904D02*
X021812Y027904D01*
X021812Y027905D02*
X021891Y027905D01*
X021891Y027906D02*
X021812Y027906D01*
X021812Y027907D02*
X021891Y027907D01*
X021891Y027908D02*
X021812Y027908D01*
X021812Y027909D02*
X021891Y027909D01*
X021891Y027910D02*
X021812Y027910D01*
X021812Y027911D02*
X021891Y027911D01*
X021891Y027912D02*
X021812Y027912D01*
X021812Y027913D02*
X021891Y027913D01*
X021891Y027914D02*
X021812Y027914D01*
X021812Y027915D02*
X021891Y027915D01*
X021891Y027916D02*
X021812Y027916D01*
X021812Y027917D02*
X021891Y027917D01*
X021891Y027918D02*
X021812Y027918D01*
X021812Y027919D02*
X021891Y027919D01*
X021891Y027920D02*
X021812Y027920D01*
X021812Y027921D02*
X021891Y027921D01*
X021891Y027922D02*
X021812Y027922D01*
X021812Y027923D02*
X021891Y027923D01*
X021891Y027924D02*
X021812Y027924D01*
X021812Y027925D02*
X021891Y027925D01*
X021891Y027926D02*
X021812Y027926D01*
X021812Y027927D02*
X021891Y027927D01*
X021891Y027928D02*
X021812Y027928D01*
X021812Y027929D02*
X021891Y027929D01*
X021891Y027930D02*
X021812Y027930D01*
X021812Y027931D02*
X021891Y027931D01*
X021891Y027932D02*
X021812Y027932D01*
X021812Y027933D02*
X021891Y027933D01*
X021891Y027934D02*
X021812Y027934D01*
X021812Y027935D02*
X021891Y027935D01*
X021891Y027936D02*
X021812Y027936D01*
X021812Y027937D02*
X021891Y027937D01*
X021891Y027938D02*
X021812Y027938D01*
X021812Y027939D02*
X021891Y027939D01*
X021891Y027940D02*
X021812Y027940D01*
X021812Y027941D02*
X021891Y027941D01*
X021891Y027942D02*
X021812Y027942D01*
X021812Y027943D02*
X021891Y027943D01*
X021891Y027944D02*
X021812Y027944D01*
X021812Y027945D02*
X021891Y027945D01*
X021891Y027855D02*
X021812Y027855D01*
X021812Y027854D02*
X021891Y027854D01*
X021891Y027853D02*
X021812Y027853D01*
X021812Y027852D02*
X021891Y027852D01*
X021891Y027851D02*
X021812Y027851D01*
X021812Y027850D02*
X021891Y027850D01*
X021891Y027849D02*
X021812Y027849D01*
X021812Y027848D02*
X021891Y027848D01*
X021891Y027847D02*
X021812Y027847D01*
X021812Y027846D02*
X021891Y027846D01*
X021891Y027845D02*
X021812Y027845D01*
X021812Y027844D02*
X021891Y027844D01*
X021891Y027843D02*
X021812Y027843D01*
X021812Y027842D02*
X021890Y027842D01*
X021889Y027841D02*
X021812Y027841D01*
X021812Y027840D02*
X021888Y027840D01*
X021887Y027839D02*
X021812Y027839D01*
X021812Y027838D02*
X021886Y027838D01*
X021885Y027837D02*
X021812Y027837D01*
X021812Y027836D02*
X021884Y027836D01*
X021883Y027835D02*
X021812Y027835D01*
X021812Y027834D02*
X021882Y027834D01*
X021881Y027833D02*
X021812Y027833D01*
X021812Y027832D02*
X021880Y027832D01*
X021879Y027831D02*
X021812Y027831D01*
X021812Y027830D02*
X021878Y027830D01*
X021877Y027829D02*
X021812Y027829D01*
X021812Y027828D02*
X021876Y027828D01*
X021875Y027827D02*
X021812Y027827D01*
X021812Y027826D02*
X021874Y027826D01*
X021873Y027825D02*
X021812Y027825D01*
X021812Y027824D02*
X021872Y027824D01*
X021871Y027823D02*
X021812Y027823D01*
X021812Y027822D02*
X021870Y027822D01*
X021869Y027821D02*
X021812Y027821D01*
X021812Y027820D02*
X021868Y027820D01*
X021867Y027819D02*
X021812Y027819D01*
X021812Y027818D02*
X021866Y027818D01*
X021865Y027817D02*
X021812Y027817D01*
X021812Y027816D02*
X021864Y027816D01*
X021863Y027815D02*
X021812Y027815D01*
X021812Y027814D02*
X021862Y027814D01*
X021861Y027813D02*
X021812Y027813D01*
X021812Y027812D02*
X021860Y027812D01*
X021859Y027811D02*
X021812Y027811D01*
X021812Y027810D02*
X021858Y027810D01*
X021857Y027809D02*
X021812Y027809D01*
X021812Y027808D02*
X021856Y027808D01*
X021855Y027807D02*
X021812Y027807D01*
X021812Y027806D02*
X021854Y027806D01*
X021853Y027805D02*
X021812Y027805D01*
X021812Y027804D02*
X021852Y027804D01*
X021851Y027803D02*
X021812Y027803D01*
X021812Y027802D02*
X021850Y027802D01*
X021849Y027801D02*
X021812Y027801D01*
X021812Y027800D02*
X021848Y027800D01*
X021847Y027799D02*
X021812Y027799D01*
X021812Y027798D02*
X021846Y027798D01*
X021845Y027797D02*
X021812Y027797D01*
X021812Y027796D02*
X021844Y027796D01*
X021843Y027795D02*
X021812Y027795D01*
X021812Y027794D02*
X021842Y027794D01*
X021841Y027793D02*
X021812Y027793D01*
X021812Y027792D02*
X021840Y027792D01*
X021839Y027791D02*
X021812Y027791D01*
X021812Y027790D02*
X021838Y027790D01*
X021837Y027789D02*
X021812Y027789D01*
X021812Y027788D02*
X021836Y027788D01*
X021835Y027787D02*
X021812Y027787D01*
X021812Y027786D02*
X021834Y027786D01*
X021833Y027785D02*
X021812Y027785D01*
X021812Y027784D02*
X021832Y027784D01*
X021831Y027783D02*
X021812Y027783D01*
X021812Y027782D02*
X021830Y027782D01*
X021829Y027781D02*
X021812Y027781D01*
X021812Y027780D02*
X021828Y027780D01*
X021827Y027779D02*
X021812Y027779D01*
X021812Y027778D02*
X021826Y027778D01*
X021825Y027777D02*
X021812Y027777D01*
X021812Y027776D02*
X021824Y027776D01*
X021823Y027775D02*
X021812Y027775D01*
X021812Y027774D02*
X021822Y027774D01*
X021821Y027773D02*
X021812Y027773D01*
X021812Y027772D02*
X021820Y027772D01*
X021819Y027771D02*
X021812Y027771D01*
X021812Y027770D02*
X021818Y027770D01*
X021817Y027769D02*
X021812Y027769D01*
X021812Y027768D02*
X021816Y027768D01*
X021815Y027767D02*
X021812Y027767D01*
X021812Y027766D02*
X021814Y027766D01*
X021813Y027765D02*
X021812Y027765D01*
D17*
X022900Y028525D03*
X022900Y029175D03*
D18*
X022000Y029000D03*
X022000Y029700D03*
X021200Y029700D03*
X021200Y029000D03*
X022250Y026900D03*
X022250Y026200D03*
X025000Y030450D03*
X025000Y031150D03*
D19*
X020400Y028750D03*
X019900Y028750D03*
X018446Y025736D03*
X017946Y025736D03*
X017696Y033473D03*
X018196Y033473D03*
X017950Y036000D03*
X018450Y036000D03*
D20*
X018900Y031950D03*
X020100Y031950D03*
D21*
X017170Y033408D03*
X016737Y033408D03*
X016783Y036250D03*
X017217Y036250D03*
X017217Y028600D03*
X016783Y028600D03*
X016737Y025695D03*
X017170Y025695D03*
D22*
X024150Y027050D03*
D23*
X018124Y030488D03*
X018124Y030744D03*
X018124Y031000D03*
X018124Y031256D03*
X018124Y031512D03*
D24*
X017071Y031472D03*
X017071Y030528D03*
X017071Y029445D03*
X017071Y032555D03*
D25*
X017917Y031787D03*
X017917Y030213D03*
D26*
X026363Y030168D02*
X026771Y030168D01*
X026363Y030168D02*
X026363Y030202D01*
X026771Y030202D01*
X026771Y030168D01*
X026771Y029853D02*
X026363Y029853D01*
X026363Y029887D01*
X026771Y029887D01*
X026771Y029853D01*
X026771Y029538D02*
X026363Y029538D01*
X026363Y029572D01*
X026771Y029572D01*
X026771Y029538D01*
X026771Y029223D02*
X026363Y029223D01*
X026363Y029257D01*
X026771Y029257D01*
X026771Y029223D01*
X026771Y028908D02*
X026363Y028908D01*
X026363Y028942D01*
X026771Y028942D01*
X026771Y028908D01*
X027258Y028013D02*
X027292Y028013D01*
X027258Y028013D02*
X027258Y028421D01*
X027292Y028421D01*
X027292Y028013D01*
X027292Y028154D02*
X027258Y028154D01*
X027258Y028295D02*
X027292Y028295D01*
X027573Y028013D02*
X027607Y028013D01*
X027573Y028013D02*
X027573Y028421D01*
X027607Y028421D01*
X027607Y028013D01*
X027607Y028154D02*
X027573Y028154D01*
X027573Y028295D02*
X027607Y028295D01*
X027888Y028013D02*
X027922Y028013D01*
X027888Y028013D02*
X027888Y028421D01*
X027922Y028421D01*
X027922Y028013D01*
X027922Y028154D02*
X027888Y028154D01*
X027888Y028295D02*
X027922Y028295D01*
X028203Y028013D02*
X028237Y028013D01*
X028203Y028013D02*
X028203Y028421D01*
X028237Y028421D01*
X028237Y028013D01*
X028237Y028154D02*
X028203Y028154D01*
X028203Y028295D02*
X028237Y028295D01*
X028518Y028013D02*
X028552Y028013D01*
X028518Y028013D02*
X028518Y028421D01*
X028552Y028421D01*
X028552Y028013D01*
X028552Y028154D02*
X028518Y028154D01*
X028518Y028295D02*
X028552Y028295D01*
X028833Y028013D02*
X028867Y028013D01*
X028833Y028013D02*
X028833Y028421D01*
X028867Y028421D01*
X028867Y028013D01*
X028867Y028154D02*
X028833Y028154D01*
X028833Y028295D02*
X028867Y028295D01*
X029148Y028013D02*
X029182Y028013D01*
X029148Y028013D02*
X029148Y028421D01*
X029182Y028421D01*
X029182Y028013D01*
X029182Y028154D02*
X029148Y028154D01*
X029148Y028295D02*
X029182Y028295D01*
X029463Y028013D02*
X029497Y028013D01*
X029463Y028013D02*
X029463Y028421D01*
X029497Y028421D01*
X029497Y028013D01*
X029497Y028154D02*
X029463Y028154D01*
X029463Y028295D02*
X029497Y028295D01*
X029778Y028013D02*
X029812Y028013D01*
X029778Y028013D02*
X029778Y028421D01*
X029812Y028421D01*
X029812Y028013D01*
X029812Y028154D02*
X029778Y028154D01*
X029778Y028295D02*
X029812Y028295D01*
X030093Y028013D02*
X030127Y028013D01*
X030093Y028013D02*
X030093Y028421D01*
X030127Y028421D01*
X030127Y028013D01*
X030127Y028154D02*
X030093Y028154D01*
X030093Y028295D02*
X030127Y028295D01*
X030408Y028013D02*
X030442Y028013D01*
X030408Y028013D02*
X030408Y028421D01*
X030442Y028421D01*
X030442Y028013D01*
X030442Y028154D02*
X030408Y028154D01*
X030408Y028295D02*
X030442Y028295D01*
X030929Y028908D02*
X031337Y028908D01*
X030929Y028908D02*
X030929Y028942D01*
X031337Y028942D01*
X031337Y028908D01*
X031337Y029223D02*
X030929Y029223D01*
X030929Y029257D01*
X031337Y029257D01*
X031337Y029223D01*
X031337Y029538D02*
X030929Y029538D01*
X030929Y029572D01*
X031337Y029572D01*
X031337Y029538D01*
X031337Y029853D02*
X030929Y029853D01*
X030929Y029887D01*
X031337Y029887D01*
X031337Y029853D01*
X031337Y030168D02*
X030929Y030168D01*
X030929Y030202D01*
X031337Y030202D01*
X031337Y030168D01*
X031337Y030483D02*
X030929Y030483D01*
X030929Y030517D01*
X031337Y030517D01*
X031337Y030483D01*
X031337Y030798D02*
X030929Y030798D01*
X030929Y030832D01*
X031337Y030832D01*
X031337Y030798D01*
X031337Y031113D02*
X030929Y031113D01*
X030929Y031147D01*
X031337Y031147D01*
X031337Y031113D01*
X031337Y031428D02*
X030929Y031428D01*
X030929Y031462D01*
X031337Y031462D01*
X031337Y031428D01*
X031337Y031743D02*
X030929Y031743D01*
X030929Y031777D01*
X031337Y031777D01*
X031337Y031743D01*
X031337Y032058D02*
X030929Y032058D01*
X030929Y032092D01*
X031337Y032092D01*
X031337Y032058D01*
X030442Y032579D02*
X030408Y032579D01*
X030408Y032987D01*
X030442Y032987D01*
X030442Y032579D01*
X030442Y032720D02*
X030408Y032720D01*
X030408Y032861D02*
X030442Y032861D01*
X030127Y032579D02*
X030093Y032579D01*
X030093Y032987D01*
X030127Y032987D01*
X030127Y032579D01*
X030127Y032720D02*
X030093Y032720D01*
X030093Y032861D02*
X030127Y032861D01*
X029812Y032579D02*
X029778Y032579D01*
X029778Y032987D01*
X029812Y032987D01*
X029812Y032579D01*
X029812Y032720D02*
X029778Y032720D01*
X029778Y032861D02*
X029812Y032861D01*
X029497Y032579D02*
X029463Y032579D01*
X029463Y032987D01*
X029497Y032987D01*
X029497Y032579D01*
X029497Y032720D02*
X029463Y032720D01*
X029463Y032861D02*
X029497Y032861D01*
X029182Y032579D02*
X029148Y032579D01*
X029148Y032987D01*
X029182Y032987D01*
X029182Y032579D01*
X029182Y032720D02*
X029148Y032720D01*
X029148Y032861D02*
X029182Y032861D01*
X028867Y032579D02*
X028833Y032579D01*
X028833Y032987D01*
X028867Y032987D01*
X028867Y032579D01*
X028867Y032720D02*
X028833Y032720D01*
X028833Y032861D02*
X028867Y032861D01*
X028552Y032579D02*
X028518Y032579D01*
X028518Y032987D01*
X028552Y032987D01*
X028552Y032579D01*
X028552Y032720D02*
X028518Y032720D01*
X028518Y032861D02*
X028552Y032861D01*
X028237Y032579D02*
X028203Y032579D01*
X028203Y032987D01*
X028237Y032987D01*
X028237Y032579D01*
X028237Y032720D02*
X028203Y032720D01*
X028203Y032861D02*
X028237Y032861D01*
X027922Y032579D02*
X027888Y032579D01*
X027888Y032987D01*
X027922Y032987D01*
X027922Y032579D01*
X027922Y032720D02*
X027888Y032720D01*
X027888Y032861D02*
X027922Y032861D01*
X027607Y032579D02*
X027573Y032579D01*
X027573Y032987D01*
X027607Y032987D01*
X027607Y032579D01*
X027607Y032720D02*
X027573Y032720D01*
X027573Y032861D02*
X027607Y032861D01*
X027292Y032579D02*
X027258Y032579D01*
X027258Y032987D01*
X027292Y032987D01*
X027292Y032579D01*
X027292Y032720D02*
X027258Y032720D01*
X027258Y032861D02*
X027292Y032861D01*
X026771Y032058D02*
X026363Y032058D01*
X026363Y032092D01*
X026771Y032092D01*
X026771Y032058D01*
X026771Y031743D02*
X026363Y031743D01*
X026363Y031777D01*
X026771Y031777D01*
X026771Y031743D01*
X026771Y031428D02*
X026363Y031428D01*
X026363Y031462D01*
X026771Y031462D01*
X026771Y031428D01*
X026771Y031113D02*
X026363Y031113D01*
X026363Y031147D01*
X026771Y031147D01*
X026771Y031113D01*
X026771Y030798D02*
X026363Y030798D01*
X026363Y030832D01*
X026771Y030832D01*
X026771Y030798D01*
X026771Y030483D02*
X026363Y030483D01*
X026363Y030517D01*
X026771Y030517D01*
X026771Y030483D01*
D27*
X028600Y030500D02*
X028602Y030531D01*
X028608Y030562D01*
X028618Y030592D01*
X028631Y030620D01*
X028648Y030647D01*
X028668Y030671D01*
X028691Y030693D01*
X028716Y030711D01*
X028744Y030726D01*
X028773Y030738D01*
X028803Y030746D01*
X028834Y030750D01*
X028866Y030750D01*
X028897Y030746D01*
X028927Y030738D01*
X028956Y030726D01*
X028984Y030711D01*
X029009Y030693D01*
X029032Y030671D01*
X029052Y030647D01*
X029069Y030620D01*
X029082Y030592D01*
X029092Y030562D01*
X029098Y030531D01*
X029100Y030500D01*
X029098Y030469D01*
X029092Y030438D01*
X029082Y030408D01*
X029069Y030380D01*
X029052Y030353D01*
X029032Y030329D01*
X029009Y030307D01*
X028984Y030289D01*
X028956Y030274D01*
X028927Y030262D01*
X028897Y030254D01*
X028866Y030250D01*
X028834Y030250D01*
X028803Y030254D01*
X028773Y030262D01*
X028744Y030274D01*
X028716Y030289D01*
X028691Y030307D01*
X028668Y030329D01*
X028648Y030353D01*
X028631Y030380D01*
X028618Y030408D01*
X028608Y030438D01*
X028602Y030469D01*
X028600Y030500D01*
D28*
X027665Y030489D02*
X027457Y030489D01*
X027457Y030511D01*
X027665Y030511D01*
X027665Y030489D01*
X027665Y030292D02*
X027457Y030292D01*
X027457Y030314D01*
X027665Y030314D01*
X027665Y030292D01*
X027665Y030095D02*
X027457Y030095D01*
X027457Y030117D01*
X027665Y030117D01*
X027665Y030095D01*
X027665Y029898D02*
X027457Y029898D01*
X027457Y029920D01*
X027665Y029920D01*
X027665Y029898D01*
X027665Y029702D02*
X027457Y029702D01*
X027457Y029724D01*
X027665Y029724D01*
X027665Y029702D01*
X027665Y029505D02*
X027457Y029505D01*
X027457Y029527D01*
X027665Y029527D01*
X027665Y029505D01*
X027877Y029315D02*
X027877Y029107D01*
X027855Y029107D01*
X027855Y029315D01*
X027877Y029315D01*
X027877Y029193D02*
X027855Y029193D01*
X027855Y029279D02*
X027877Y029279D01*
X028074Y029315D02*
X028074Y029107D01*
X028052Y029107D01*
X028052Y029315D01*
X028074Y029315D01*
X028074Y029193D02*
X028052Y029193D01*
X028052Y029279D02*
X028074Y029279D01*
X028270Y029315D02*
X028270Y029107D01*
X028248Y029107D01*
X028248Y029315D01*
X028270Y029315D01*
X028270Y029193D02*
X028248Y029193D01*
X028248Y029279D02*
X028270Y029279D01*
X028467Y029315D02*
X028467Y029107D01*
X028445Y029107D01*
X028445Y029315D01*
X028467Y029315D01*
X028467Y029193D02*
X028445Y029193D01*
X028445Y029279D02*
X028467Y029279D01*
X028664Y029315D02*
X028664Y029107D01*
X028642Y029107D01*
X028642Y029315D01*
X028664Y029315D01*
X028664Y029193D02*
X028642Y029193D01*
X028642Y029279D02*
X028664Y029279D01*
X028861Y029315D02*
X028861Y029107D01*
X028839Y029107D01*
X028839Y029315D01*
X028861Y029315D01*
X028861Y029193D02*
X028839Y029193D01*
X028839Y029279D02*
X028861Y029279D01*
X029058Y029315D02*
X029058Y029107D01*
X029036Y029107D01*
X029036Y029315D01*
X029058Y029315D01*
X029058Y029193D02*
X029036Y029193D01*
X029036Y029279D02*
X029058Y029279D01*
X029255Y029315D02*
X029255Y029107D01*
X029233Y029107D01*
X029233Y029315D01*
X029255Y029315D01*
X029255Y029193D02*
X029233Y029193D01*
X029233Y029279D02*
X029255Y029279D01*
X029452Y029315D02*
X029452Y029107D01*
X029430Y029107D01*
X029430Y029315D01*
X029452Y029315D01*
X029452Y029193D02*
X029430Y029193D01*
X029430Y029279D02*
X029452Y029279D01*
X029648Y029315D02*
X029648Y029107D01*
X029626Y029107D01*
X029626Y029315D01*
X029648Y029315D01*
X029648Y029193D02*
X029626Y029193D01*
X029626Y029279D02*
X029648Y029279D01*
X029845Y029315D02*
X029845Y029107D01*
X029823Y029107D01*
X029823Y029315D01*
X029845Y029315D01*
X029845Y029193D02*
X029823Y029193D01*
X029823Y029279D02*
X029845Y029279D01*
X030035Y029527D02*
X030243Y029527D01*
X030243Y029505D01*
X030035Y029505D01*
X030035Y029527D01*
X030035Y029724D02*
X030243Y029724D01*
X030243Y029702D01*
X030035Y029702D01*
X030035Y029724D01*
X030035Y029920D02*
X030243Y029920D01*
X030243Y029898D01*
X030035Y029898D01*
X030035Y029920D01*
X030035Y030117D02*
X030243Y030117D01*
X030243Y030095D01*
X030035Y030095D01*
X030035Y030117D01*
X030035Y030314D02*
X030243Y030314D01*
X030243Y030292D01*
X030035Y030292D01*
X030035Y030314D01*
X030035Y030511D02*
X030243Y030511D01*
X030243Y030489D01*
X030035Y030489D01*
X030035Y030511D01*
X030035Y030708D02*
X030243Y030708D01*
X030243Y030686D01*
X030035Y030686D01*
X030035Y030708D01*
X030035Y030905D02*
X030243Y030905D01*
X030243Y030883D01*
X030035Y030883D01*
X030035Y030905D01*
X030035Y031102D02*
X030243Y031102D01*
X030243Y031080D01*
X030035Y031080D01*
X030035Y031102D01*
X030035Y031298D02*
X030243Y031298D01*
X030243Y031276D01*
X030035Y031276D01*
X030035Y031298D01*
X030035Y031495D02*
X030243Y031495D01*
X030243Y031473D01*
X030035Y031473D01*
X030035Y031495D01*
X029823Y031685D02*
X029823Y031893D01*
X029845Y031893D01*
X029845Y031685D01*
X029823Y031685D01*
X029823Y031771D02*
X029845Y031771D01*
X029845Y031857D02*
X029823Y031857D01*
X029626Y031893D02*
X029626Y031685D01*
X029626Y031893D02*
X029648Y031893D01*
X029648Y031685D01*
X029626Y031685D01*
X029626Y031771D02*
X029648Y031771D01*
X029648Y031857D02*
X029626Y031857D01*
X029430Y031893D02*
X029430Y031685D01*
X029430Y031893D02*
X029452Y031893D01*
X029452Y031685D01*
X029430Y031685D01*
X029430Y031771D02*
X029452Y031771D01*
X029452Y031857D02*
X029430Y031857D01*
X029233Y031893D02*
X029233Y031685D01*
X029233Y031893D02*
X029255Y031893D01*
X029255Y031685D01*
X029233Y031685D01*
X029233Y031771D02*
X029255Y031771D01*
X029255Y031857D02*
X029233Y031857D01*
X029036Y031893D02*
X029036Y031685D01*
X029036Y031893D02*
X029058Y031893D01*
X029058Y031685D01*
X029036Y031685D01*
X029036Y031771D02*
X029058Y031771D01*
X029058Y031857D02*
X029036Y031857D01*
X028839Y031893D02*
X028839Y031685D01*
X028839Y031893D02*
X028861Y031893D01*
X028861Y031685D01*
X028839Y031685D01*
X028839Y031771D02*
X028861Y031771D01*
X028861Y031857D02*
X028839Y031857D01*
X028642Y031893D02*
X028642Y031685D01*
X028642Y031893D02*
X028664Y031893D01*
X028664Y031685D01*
X028642Y031685D01*
X028642Y031771D02*
X028664Y031771D01*
X028664Y031857D02*
X028642Y031857D01*
X028445Y031893D02*
X028445Y031685D01*
X028445Y031893D02*
X028467Y031893D01*
X028467Y031685D01*
X028445Y031685D01*
X028445Y031771D02*
X028467Y031771D01*
X028467Y031857D02*
X028445Y031857D01*
X028248Y031893D02*
X028248Y031685D01*
X028248Y031893D02*
X028270Y031893D01*
X028270Y031685D01*
X028248Y031685D01*
X028248Y031771D02*
X028270Y031771D01*
X028270Y031857D02*
X028248Y031857D01*
X028052Y031893D02*
X028052Y031685D01*
X028052Y031893D02*
X028074Y031893D01*
X028074Y031685D01*
X028052Y031685D01*
X028052Y031771D02*
X028074Y031771D01*
X028074Y031857D02*
X028052Y031857D01*
X027855Y031893D02*
X027855Y031685D01*
X027855Y031893D02*
X027877Y031893D01*
X027877Y031685D01*
X027855Y031685D01*
X027855Y031771D02*
X027877Y031771D01*
X027877Y031857D02*
X027855Y031857D01*
X027665Y031473D02*
X027457Y031473D01*
X027457Y031495D01*
X027665Y031495D01*
X027665Y031473D01*
X027665Y031276D02*
X027457Y031276D01*
X027457Y031298D01*
X027665Y031298D01*
X027665Y031276D01*
X027665Y031080D02*
X027457Y031080D01*
X027457Y031102D01*
X027665Y031102D01*
X027665Y031080D01*
X027665Y030883D02*
X027457Y030883D01*
X027457Y030905D01*
X027665Y030905D01*
X027665Y030883D01*
X027665Y030686D02*
X027457Y030686D01*
X027457Y030708D01*
X027665Y030708D01*
X027665Y030686D01*
D29*
X028100Y033900D03*
X029000Y033900D03*
X029000Y034600D03*
X028100Y034600D03*
D30*
X023700Y032125D03*
X023700Y031475D03*
X023129Y033793D03*
D31*
X023405Y032115D03*
X023405Y031957D03*
X023405Y031800D03*
X023405Y031643D03*
X023995Y031643D03*
X023995Y031800D03*
X023995Y031957D03*
X023995Y032115D03*
X023995Y031485D03*
D32*
X023405Y031465D03*
D33*
X022971Y033774D03*
X022971Y034226D03*
X023129Y034226D03*
D34*
X023355Y034157D03*
X023355Y034000D03*
X023355Y033843D03*
X022745Y033843D03*
X022745Y034000D03*
X022745Y034157D03*
D35*
X021784Y032663D03*
X021528Y032663D03*
X021272Y032663D03*
X021016Y032663D03*
X021016Y031737D03*
X021272Y031737D03*
X021528Y031737D03*
X021784Y031737D03*
D36*
X021350Y034026D03*
X021094Y034774D03*
X021606Y034774D03*
D37*
X018724Y034117D03*
X017976Y034117D03*
X018350Y034983D03*
D38*
X017000Y037000D03*
X017000Y025000D03*
D39*
X018000Y025000D03*
X019000Y025000D03*
X020000Y025000D03*
X021000Y025000D03*
X022000Y025000D03*
X023000Y025000D03*
X024000Y025000D03*
X025000Y025000D03*
X026000Y025000D03*
X027000Y025000D03*
X028000Y025000D03*
X029000Y025000D03*
X030000Y025000D03*
X031000Y025000D03*
X032000Y025000D03*
X033000Y025000D03*
X034000Y025000D03*
X035000Y025000D03*
X036000Y025000D03*
X037000Y025000D03*
X038000Y025000D03*
X038000Y037000D03*
X037000Y037000D03*
X036000Y037000D03*
X035000Y037000D03*
X034000Y037000D03*
X033000Y037000D03*
X032000Y037000D03*
X031000Y037000D03*
X030000Y037000D03*
X029000Y037000D03*
X028000Y037000D03*
X027000Y037000D03*
X026000Y037000D03*
X025000Y037000D03*
X024000Y037000D03*
X023000Y037000D03*
X022000Y037000D03*
X021000Y037000D03*
X020000Y037000D03*
X019000Y037000D03*
X018000Y037000D03*
D40*
X016750Y035235D03*
X016750Y034565D03*
X016750Y027385D03*
X016750Y026715D03*
X038100Y026935D03*
X038100Y026265D03*
D41*
X037490Y025941D03*
X037490Y027259D03*
X017360Y027709D03*
X017360Y026391D03*
X017360Y034241D03*
X017360Y035559D03*
D42*
X016750Y035806D03*
X016750Y033994D03*
X016750Y027956D03*
X016750Y026144D03*
X038100Y025694D03*
X038100Y027506D03*
D43*
X019000Y028219D03*
X019000Y029281D03*
D44*
X019000Y026500D03*
X018300Y026500D03*
D45*
X019688Y026376D03*
X019688Y026750D03*
X019688Y027124D03*
X020712Y027124D03*
X020712Y026750D03*
X020712Y026376D03*
M02*
