%
M48
M72
T01C0.0118
T02C0.0150
T03C0.0217
T04C0.0315
T05C0.0400
%
T01
X17550Y24700
X17630Y25480
X17590Y25910
X17180Y25980
X16800Y25900
X17850Y26250
X17900Y26560
X18300Y26850
X18650Y27100
X18310Y27350
X18040Y27350
X17750Y27350
X17250Y27450
X17250Y28250
X16800Y28350
X16750Y28850
X17850Y28250
X18450Y28250
X19600Y28100
X19900Y28500
X19700Y28750
X19900Y29000
X20200Y29050
X20400Y29250
X20600Y29050
X20800Y29700
X20200Y29800
X20140Y30260
X19310Y29850
X19980Y31030
X20060Y31660
X19810Y32100
X20030Y32530
X19830Y32790
X19150Y32800
X19230Y33430
X20200Y33850
X20450Y33650
X20700Y33270
X20910Y33740
X21600Y34350
X22250Y34450
X22500Y34550
X23050Y34550
X23650Y34300
X23880Y34150
X24000Y33850
X24370Y33820
X24360Y34080
X24620Y34160
X24640Y34430
X25430Y34430
X25550Y33930
X26190Y33050
X26600Y33050
X26600Y32750
X26510Y32330
X26300Y32100
X26310Y31820
X26300Y31500
X26250Y31150
X25500Y31200
X24890Y30420
X25310Y30060
X25230Y29320
X23940Y30080
X24050Y30450
X24150Y31300
X23700Y31250
X23100Y30850
X22600Y30260
X22350Y29700
X21600Y29700
X21400Y30260
X21600Y31060
X22250Y31750
X22250Y32200
X22800Y32000
X22950Y31700
X23150Y32250
X23450Y32250
X23700Y31950
X23960Y32420
X23400Y32800
X23510Y33040
X23750Y33450
X23530Y33710
X22800Y33850
X22400Y33500
X22080Y33470
X21910Y33690
X22390Y32990
X22160Y32810
X22800Y33200
X21530Y32110
X20750Y31750
X19200Y31250
X18700Y31250
X18500Y31500
X16750Y33150
X16750Y33650
X17950Y33850
X17950Y34400
X18930Y34600
X19054Y34350
X19350Y34680
X19450Y35020
X19780Y35130
X19150Y35200
X20230Y35770
X20230Y36270
X20500Y37250
X19500Y37250
X18500Y37250
X18600Y36200
X17500Y36500
X16800Y36400
X16800Y36100
X17750Y35200
X20400Y34550
X21000Y35350
X22600Y35350
X23100Y35350
X23400Y35350
X23700Y35350
X24500Y37250
X25500Y37250
X26500Y37250
X26740Y36490
X27530Y36590
X27500Y37240
X28500Y37250
X29500Y37250
X29500Y36500
X29700Y35900
X28900Y35900
X28850Y35400
X28650Y34600
X29010Y34330
X29350Y34600
X29840Y34620
X29700Y34200
X29200Y33350
X29500Y33050
X30100Y33100
X30500Y33400
X30850Y33100
X30850Y32800
X31050Y32600
X31550Y32500
X32540Y32500
X33500Y32500
X32500Y33500
X32750Y34000
X32750Y34313
X33000Y34500
X33500Y34510
X33875Y34750
X34500Y34800
X35000Y34813
X35500Y34813
X36125Y34875
X36125Y35500
X36500Y35750
X37000Y35750
X37500Y35750
X38000Y35750
X38250Y36000
X37500Y36500
X37500Y37250
X36500Y37250
X35500Y37250
X35720Y36310
X34750Y36420
X34130Y35670
X33350Y36500
X32730Y36370
X31880Y36380
X31270Y35730
X31050Y35200
X31300Y35000
X31550Y35150
X31550Y34850
X31850Y35380
X32310Y35410
X33000Y33750
X33500Y33750
X34063Y33875
X34500Y33500
X34500Y32500
X35500Y32500
X36125Y32500
X36125Y32000
X36125Y31500
X36125Y31000
X36125Y30500
X36125Y30000
X36125Y29500
X36125Y29000
X36125Y28500
X36125Y28000
X36125Y27500
X36500Y27500
X35530Y27920
X34580Y27670
X35530Y26790
X36500Y26500
X36900Y25630
X37500Y25500
X38250Y25500
X37500Y24700
X36500Y24700
X35500Y24700
X35500Y25500
X36100Y25620
X34500Y26500
X33500Y25500
X33550Y24700
X32500Y24700
X31500Y24700
X30500Y24700
X30500Y25370
X29700Y25650
X29350Y25560
X29500Y24700
X27310Y25510
X25750Y25970
X24150Y26150
X23400Y26150
X22600Y26150
X21650Y25950
X21150Y25950
X20400Y25850
X20460Y25550
X20100Y26350
X20100Y26950
X20200Y27250
X19550Y26800
X19050Y25700
X18730Y25700
X19500Y25500
X19500Y24700
X18500Y24700
X22250Y28550
X23440Y29440
X25050Y28050
X25350Y28050
X27550Y27900
X27905Y27900
X27700Y28600
X27550Y29350
X28100Y29750
X28100Y30250
X28100Y30750
X28100Y31250
X28600Y31250
X29100Y31250
X29100Y30750
X28600Y30750
X28600Y30250
X29100Y30250
X29100Y29750
X28600Y29750
X29600Y29750
X29600Y30250
X29600Y30750
X29600Y31250
X30950Y31750
X31450Y31100
X32540Y31500
X32520Y30500
X33500Y30500
X34500Y30500
X35500Y30500
X35500Y29500
X34840Y28650
X33950Y28360
X33500Y27500
X32500Y28500
X31850Y28500
X31450Y29250
X31450Y29550
X31850Y29500
X32500Y29500
X34120Y29380
X34500Y31500
X35500Y31500
X36125Y33000
X36125Y33500
X35500Y33500
X35500Y34063
X35000Y34063
X34500Y34250
X36125Y34125
X32500Y37250
X31500Y37250
X30500Y37250
X28100Y35820
X27100Y35500
X25990Y34950
X25760Y35510
X25700Y36000
X27550Y34150
X27750Y33900
X28080Y34170
X28350Y33900
X28250Y33350
X27600Y33050
X27420Y33280
X26000Y32250
X25000Y32100
X29800Y27750
X29600Y27550
X29400Y27350
X29200Y27150
X29000Y26950
X28800Y26750
X29400Y26900
X29750Y27250
X30850Y27200
X31150Y27200
X32040Y26610
X34500Y24700
X37650Y26660
X38000Y27563
X28050Y27000
X33500Y37260
X34500Y37260
X22500Y37300
X21500Y37300
T02
X25000Y34060
T03
X17917Y31787
X17917Y30213
T04
X16750Y27385
X16750Y26715
X16750Y34565
X16750Y35235
X38100Y26935
X38100Y26265
T05
X17000Y25000
X18000Y25000
X19000Y25000
X20000Y25000
X21000Y25000
X22000Y25000
X23000Y25000
X24000Y25000
X25000Y25000
X26000Y25000
X27000Y25000
X28000Y25000
X29000Y25000
X30000Y25000
X31000Y25000
X32000Y25000
X33000Y25000
X34000Y25000
X35000Y25000
X36000Y25000
X37000Y25000
X38000Y25000
X38000Y37000
X37000Y37000
X36000Y37000
X35000Y37000
X34000Y37000
X33000Y37000
X32000Y37000
X31000Y37000
X30000Y37000
X29000Y37000
X28000Y37000
X27000Y37000
X26000Y37000
X25000Y37000
X24000Y37000
X23000Y37000
X22000Y37000
X21000Y37000
X20000Y37000
X19000Y37000
X18000Y37000
X17000Y37000
M30
