G75*
%MOIN*%
%OFA0B0*%
%FSLAX24Y24*%
%IPPOS*%
%LPD*%
%AMOC8*
5,1,8,0,0,1.08239X$1,22.5*
%
%ADD10C,0.0000*%
%ADD11R,0.0200X0.0200*%
%ADD12C,0.0866*%
%ADD13C,0.0394*%
%ADD14C,0.0217*%
%ADD15R,0.0740X0.0740*%
%ADD16C,0.0740*%
%ADD17C,0.0315*%
D10*
X016500Y024500D02*
X016500Y037500D01*
X038500Y037500D01*
X038500Y024500D01*
X016500Y024500D01*
X016593Y026715D02*
X016595Y026740D01*
X016601Y026764D01*
X016610Y026786D01*
X016623Y026807D01*
X016639Y026826D01*
X016658Y026842D01*
X016679Y026855D01*
X016701Y026864D01*
X016725Y026870D01*
X016750Y026872D01*
X016775Y026870D01*
X016799Y026864D01*
X016821Y026855D01*
X016842Y026842D01*
X016861Y026826D01*
X016877Y026807D01*
X016890Y026786D01*
X016899Y026764D01*
X016905Y026740D01*
X016907Y026715D01*
X016905Y026690D01*
X016899Y026666D01*
X016890Y026644D01*
X016877Y026623D01*
X016861Y026604D01*
X016842Y026588D01*
X016821Y026575D01*
X016799Y026566D01*
X016775Y026560D01*
X016750Y026558D01*
X016725Y026560D01*
X016701Y026566D01*
X016679Y026575D01*
X016658Y026588D01*
X016639Y026604D01*
X016623Y026623D01*
X016610Y026644D01*
X016601Y026666D01*
X016595Y026690D01*
X016593Y026715D01*
X016593Y027385D02*
X016595Y027410D01*
X016601Y027434D01*
X016610Y027456D01*
X016623Y027477D01*
X016639Y027496D01*
X016658Y027512D01*
X016679Y027525D01*
X016701Y027534D01*
X016725Y027540D01*
X016750Y027542D01*
X016775Y027540D01*
X016799Y027534D01*
X016821Y027525D01*
X016842Y027512D01*
X016861Y027496D01*
X016877Y027477D01*
X016890Y027456D01*
X016899Y027434D01*
X016905Y027410D01*
X016907Y027385D01*
X016905Y027360D01*
X016899Y027336D01*
X016890Y027314D01*
X016877Y027293D01*
X016861Y027274D01*
X016842Y027258D01*
X016821Y027245D01*
X016799Y027236D01*
X016775Y027230D01*
X016750Y027228D01*
X016725Y027230D01*
X016701Y027236D01*
X016679Y027245D01*
X016658Y027258D01*
X016639Y027274D01*
X016623Y027293D01*
X016610Y027314D01*
X016601Y027336D01*
X016595Y027360D01*
X016593Y027385D01*
X017809Y030213D02*
X017811Y030233D01*
X017817Y030253D01*
X017826Y030271D01*
X017839Y030288D01*
X017854Y030301D01*
X017872Y030311D01*
X017892Y030318D01*
X017912Y030321D01*
X017932Y030320D01*
X017952Y030315D01*
X017971Y030307D01*
X017988Y030295D01*
X018002Y030280D01*
X018013Y030262D01*
X018021Y030243D01*
X018025Y030223D01*
X018025Y030203D01*
X018021Y030183D01*
X018013Y030164D01*
X018002Y030146D01*
X017988Y030131D01*
X017971Y030119D01*
X017952Y030111D01*
X017932Y030106D01*
X017912Y030105D01*
X017892Y030108D01*
X017872Y030115D01*
X017854Y030125D01*
X017839Y030138D01*
X017826Y030155D01*
X017817Y030173D01*
X017811Y030193D01*
X017809Y030213D01*
X017809Y031787D02*
X017811Y031807D01*
X017817Y031827D01*
X017826Y031845D01*
X017839Y031862D01*
X017854Y031875D01*
X017872Y031885D01*
X017892Y031892D01*
X017912Y031895D01*
X017932Y031894D01*
X017952Y031889D01*
X017971Y031881D01*
X017988Y031869D01*
X018002Y031854D01*
X018013Y031836D01*
X018021Y031817D01*
X018025Y031797D01*
X018025Y031777D01*
X018021Y031757D01*
X018013Y031738D01*
X018002Y031720D01*
X017988Y031705D01*
X017971Y031693D01*
X017952Y031685D01*
X017932Y031680D01*
X017912Y031679D01*
X017892Y031682D01*
X017872Y031689D01*
X017854Y031699D01*
X017839Y031712D01*
X017826Y031729D01*
X017817Y031747D01*
X017811Y031767D01*
X017809Y031787D01*
X016593Y034565D02*
X016595Y034590D01*
X016601Y034614D01*
X016610Y034636D01*
X016623Y034657D01*
X016639Y034676D01*
X016658Y034692D01*
X016679Y034705D01*
X016701Y034714D01*
X016725Y034720D01*
X016750Y034722D01*
X016775Y034720D01*
X016799Y034714D01*
X016821Y034705D01*
X016842Y034692D01*
X016861Y034676D01*
X016877Y034657D01*
X016890Y034636D01*
X016899Y034614D01*
X016905Y034590D01*
X016907Y034565D01*
X016905Y034540D01*
X016899Y034516D01*
X016890Y034494D01*
X016877Y034473D01*
X016861Y034454D01*
X016842Y034438D01*
X016821Y034425D01*
X016799Y034416D01*
X016775Y034410D01*
X016750Y034408D01*
X016725Y034410D01*
X016701Y034416D01*
X016679Y034425D01*
X016658Y034438D01*
X016639Y034454D01*
X016623Y034473D01*
X016610Y034494D01*
X016601Y034516D01*
X016595Y034540D01*
X016593Y034565D01*
X016593Y035235D02*
X016595Y035260D01*
X016601Y035284D01*
X016610Y035306D01*
X016623Y035327D01*
X016639Y035346D01*
X016658Y035362D01*
X016679Y035375D01*
X016701Y035384D01*
X016725Y035390D01*
X016750Y035392D01*
X016775Y035390D01*
X016799Y035384D01*
X016821Y035375D01*
X016842Y035362D01*
X016861Y035346D01*
X016877Y035327D01*
X016890Y035306D01*
X016899Y035284D01*
X016905Y035260D01*
X016907Y035235D01*
X016905Y035210D01*
X016899Y035186D01*
X016890Y035164D01*
X016877Y035143D01*
X016861Y035124D01*
X016842Y035108D01*
X016821Y035095D01*
X016799Y035086D01*
X016775Y035080D01*
X016750Y035078D01*
X016725Y035080D01*
X016701Y035086D01*
X016679Y035095D01*
X016658Y035108D01*
X016639Y035124D01*
X016623Y035143D01*
X016610Y035164D01*
X016601Y035186D01*
X016595Y035210D01*
X016593Y035235D01*
X037943Y026935D02*
X037945Y026960D01*
X037951Y026984D01*
X037960Y027006D01*
X037973Y027027D01*
X037989Y027046D01*
X038008Y027062D01*
X038029Y027075D01*
X038051Y027084D01*
X038075Y027090D01*
X038100Y027092D01*
X038125Y027090D01*
X038149Y027084D01*
X038171Y027075D01*
X038192Y027062D01*
X038211Y027046D01*
X038227Y027027D01*
X038240Y027006D01*
X038249Y026984D01*
X038255Y026960D01*
X038257Y026935D01*
X038255Y026910D01*
X038249Y026886D01*
X038240Y026864D01*
X038227Y026843D01*
X038211Y026824D01*
X038192Y026808D01*
X038171Y026795D01*
X038149Y026786D01*
X038125Y026780D01*
X038100Y026778D01*
X038075Y026780D01*
X038051Y026786D01*
X038029Y026795D01*
X038008Y026808D01*
X037989Y026824D01*
X037973Y026843D01*
X037960Y026864D01*
X037951Y026886D01*
X037945Y026910D01*
X037943Y026935D01*
X037943Y026265D02*
X037945Y026290D01*
X037951Y026314D01*
X037960Y026336D01*
X037973Y026357D01*
X037989Y026376D01*
X038008Y026392D01*
X038029Y026405D01*
X038051Y026414D01*
X038075Y026420D01*
X038100Y026422D01*
X038125Y026420D01*
X038149Y026414D01*
X038171Y026405D01*
X038192Y026392D01*
X038211Y026376D01*
X038227Y026357D01*
X038240Y026336D01*
X038249Y026314D01*
X038255Y026290D01*
X038257Y026265D01*
X038255Y026240D01*
X038249Y026216D01*
X038240Y026194D01*
X038227Y026173D01*
X038211Y026154D01*
X038192Y026138D01*
X038171Y026125D01*
X038149Y026116D01*
X038125Y026110D01*
X038100Y026108D01*
X038075Y026110D01*
X038051Y026116D01*
X038029Y026125D01*
X038008Y026138D01*
X037989Y026154D01*
X037973Y026173D01*
X037960Y026194D01*
X037951Y026216D01*
X037945Y026240D01*
X037943Y026265D01*
D11*
X036000Y034225D03*
X036000Y034525D03*
X035650Y034525D03*
X035350Y034525D03*
X035000Y034525D03*
X035000Y034225D03*
X034650Y034525D03*
X034350Y034525D03*
D12*
X035000Y035500D03*
X034900Y026000D03*
D13*
X033617Y027063D02*
X033225Y027063D01*
X032437Y026275D02*
X032437Y025883D01*
X031649Y025883D02*
X031649Y026275D01*
X030862Y026275D02*
X030862Y025883D01*
X030074Y025883D02*
X030074Y026275D01*
X029287Y026275D02*
X029287Y025883D01*
X028500Y025883D02*
X028500Y026275D01*
X027712Y026275D02*
X027712Y025883D01*
X026925Y025883D02*
X026925Y026275D01*
X026137Y026275D02*
X026137Y025883D01*
X025350Y025883D02*
X025350Y026275D01*
X024563Y026275D02*
X024563Y025883D01*
X023775Y025883D02*
X023775Y026275D01*
X022988Y026275D02*
X022988Y025883D01*
X022200Y025883D02*
X022200Y026275D01*
X021413Y026275D02*
X021413Y025883D01*
X020626Y025883D02*
X020626Y026275D01*
X019838Y026275D02*
X019838Y025883D01*
X019051Y025883D02*
X019051Y026275D01*
X018263Y026275D02*
X018263Y025883D01*
X017475Y027063D02*
X017083Y027063D01*
X017083Y027850D02*
X017475Y027850D01*
X017475Y028638D02*
X017083Y028638D01*
X017083Y029425D02*
X017475Y029425D01*
X017475Y030213D02*
X017083Y030213D01*
X017083Y031000D02*
X017475Y031000D01*
X017475Y031787D02*
X017083Y031787D01*
X017083Y032575D02*
X017475Y032575D01*
X017475Y033362D02*
X017083Y033362D01*
X017083Y034150D02*
X017475Y034150D01*
X017475Y034937D02*
X017083Y034937D01*
X018263Y035725D02*
X018263Y036117D01*
X019051Y036117D02*
X019051Y035725D01*
X019838Y035725D02*
X019838Y036117D01*
X020626Y036117D02*
X020626Y035725D01*
X021413Y035725D02*
X021413Y036117D01*
X022200Y036117D02*
X022200Y035725D01*
X022988Y035725D02*
X022988Y036117D01*
X023775Y036117D02*
X023775Y035725D01*
X024563Y035725D02*
X024563Y036117D01*
X025350Y036117D02*
X025350Y035725D01*
X026137Y035725D02*
X026137Y036117D01*
X026925Y036117D02*
X026925Y035725D01*
X027712Y035725D02*
X027712Y036117D01*
X028500Y036117D02*
X028500Y035725D01*
X029287Y035725D02*
X029287Y036117D01*
X030074Y036117D02*
X030074Y035725D01*
X030862Y035725D02*
X030862Y036117D01*
X031649Y036117D02*
X031649Y035725D01*
X032437Y035725D02*
X032437Y036117D01*
X033225Y034937D02*
X033617Y034937D01*
X033617Y034150D02*
X033225Y034150D01*
X033225Y033362D02*
X033617Y033362D01*
X033617Y032575D02*
X033225Y032575D01*
X033225Y031787D02*
X033617Y031787D01*
X033617Y031000D02*
X033225Y031000D01*
X033225Y030213D02*
X033617Y030213D01*
X033617Y029425D02*
X033225Y029425D01*
X033225Y028638D02*
X033617Y028638D01*
X033617Y027850D02*
X033225Y027850D01*
D14*
X017917Y030213D03*
X017917Y031787D03*
D15*
X017000Y037000D03*
X017000Y025000D03*
D16*
X018000Y025000D03*
X019000Y025000D03*
X020000Y025000D03*
X021000Y025000D03*
X022000Y025000D03*
X023000Y025000D03*
X024000Y025000D03*
X025000Y025000D03*
X026000Y025000D03*
X027000Y025000D03*
X028000Y025000D03*
X029000Y025000D03*
X030000Y025000D03*
X031000Y025000D03*
X032000Y025000D03*
X033000Y025000D03*
X034000Y025000D03*
X035000Y025000D03*
X036000Y025000D03*
X037000Y025000D03*
X038000Y025000D03*
X038000Y037000D03*
X037000Y037000D03*
X036000Y037000D03*
X035000Y037000D03*
X034000Y037000D03*
X033000Y037000D03*
X032000Y037000D03*
X031000Y037000D03*
X030000Y037000D03*
X029000Y037000D03*
X028000Y037000D03*
X027000Y037000D03*
X026000Y037000D03*
X025000Y037000D03*
X024000Y037000D03*
X023000Y037000D03*
X022000Y037000D03*
X021000Y037000D03*
X020000Y037000D03*
X019000Y037000D03*
X018000Y037000D03*
D17*
X016750Y035235D03*
X016750Y034565D03*
X016750Y027385D03*
X016750Y026715D03*
X038100Y026935D03*
X038100Y026265D03*
M02*
