G75*
%MOIN*%
%OFA0B0*%
%FSLAX24Y24*%
%IPPOS*%
%LPD*%
%AMOC8*
5,1,8,0,0,1.08239X$1,22.5*
%
%ADD10C,0.0000*%
%ADD11R,0.0200X0.0200*%
%ADD12C,0.0400*%
%ADD13C,0.0394*%
%ADD14R,0.0740X0.0740*%
%ADD15C,0.0740*%
%ADD16C,0.0197*%
%ADD17R,0.0197X0.0197*%
%ADD18C,0.0100*%
%ADD19C,0.0197*%
%ADD20C,0.0080*%
%ADD21C,0.0260*%
%ADD22C,0.0200*%
%ADD23C,0.0300*%
%ADD24C,0.0400*%
%ADD25C,0.0500*%
%ADD26C,0.0229*%
%ADD27C,0.0145*%
%ADD28C,0.0150*%
D10*
X016500Y024500D02*
X016500Y037500D01*
X038500Y037500D01*
X038500Y024500D01*
X016500Y024500D01*
X016593Y026715D02*
X016595Y026740D01*
X016601Y026764D01*
X016610Y026786D01*
X016623Y026807D01*
X016639Y026826D01*
X016658Y026842D01*
X016679Y026855D01*
X016701Y026864D01*
X016725Y026870D01*
X016750Y026872D01*
X016775Y026870D01*
X016799Y026864D01*
X016821Y026855D01*
X016842Y026842D01*
X016861Y026826D01*
X016877Y026807D01*
X016890Y026786D01*
X016899Y026764D01*
X016905Y026740D01*
X016907Y026715D01*
X016905Y026690D01*
X016899Y026666D01*
X016890Y026644D01*
X016877Y026623D01*
X016861Y026604D01*
X016842Y026588D01*
X016821Y026575D01*
X016799Y026566D01*
X016775Y026560D01*
X016750Y026558D01*
X016725Y026560D01*
X016701Y026566D01*
X016679Y026575D01*
X016658Y026588D01*
X016639Y026604D01*
X016623Y026623D01*
X016610Y026644D01*
X016601Y026666D01*
X016595Y026690D01*
X016593Y026715D01*
X016593Y027385D02*
X016595Y027410D01*
X016601Y027434D01*
X016610Y027456D01*
X016623Y027477D01*
X016639Y027496D01*
X016658Y027512D01*
X016679Y027525D01*
X016701Y027534D01*
X016725Y027540D01*
X016750Y027542D01*
X016775Y027540D01*
X016799Y027534D01*
X016821Y027525D01*
X016842Y027512D01*
X016861Y027496D01*
X016877Y027477D01*
X016890Y027456D01*
X016899Y027434D01*
X016905Y027410D01*
X016907Y027385D01*
X016905Y027360D01*
X016899Y027336D01*
X016890Y027314D01*
X016877Y027293D01*
X016861Y027274D01*
X016842Y027258D01*
X016821Y027245D01*
X016799Y027236D01*
X016775Y027230D01*
X016750Y027228D01*
X016725Y027230D01*
X016701Y027236D01*
X016679Y027245D01*
X016658Y027258D01*
X016639Y027274D01*
X016623Y027293D01*
X016610Y027314D01*
X016601Y027336D01*
X016595Y027360D01*
X016593Y027385D01*
X017809Y030213D02*
X017811Y030233D01*
X017817Y030253D01*
X017826Y030271D01*
X017839Y030288D01*
X017854Y030301D01*
X017872Y030311D01*
X017892Y030318D01*
X017912Y030321D01*
X017932Y030320D01*
X017952Y030315D01*
X017971Y030307D01*
X017988Y030295D01*
X018002Y030280D01*
X018013Y030262D01*
X018021Y030243D01*
X018025Y030223D01*
X018025Y030203D01*
X018021Y030183D01*
X018013Y030164D01*
X018002Y030146D01*
X017988Y030131D01*
X017971Y030119D01*
X017952Y030111D01*
X017932Y030106D01*
X017912Y030105D01*
X017892Y030108D01*
X017872Y030115D01*
X017854Y030125D01*
X017839Y030138D01*
X017826Y030155D01*
X017817Y030173D01*
X017811Y030193D01*
X017809Y030213D01*
X017809Y031787D02*
X017811Y031807D01*
X017817Y031827D01*
X017826Y031845D01*
X017839Y031862D01*
X017854Y031875D01*
X017872Y031885D01*
X017892Y031892D01*
X017912Y031895D01*
X017932Y031894D01*
X017952Y031889D01*
X017971Y031881D01*
X017988Y031869D01*
X018002Y031854D01*
X018013Y031836D01*
X018021Y031817D01*
X018025Y031797D01*
X018025Y031777D01*
X018021Y031757D01*
X018013Y031738D01*
X018002Y031720D01*
X017988Y031705D01*
X017971Y031693D01*
X017952Y031685D01*
X017932Y031680D01*
X017912Y031679D01*
X017892Y031682D01*
X017872Y031689D01*
X017854Y031699D01*
X017839Y031712D01*
X017826Y031729D01*
X017817Y031747D01*
X017811Y031767D01*
X017809Y031787D01*
X016593Y034565D02*
X016595Y034590D01*
X016601Y034614D01*
X016610Y034636D01*
X016623Y034657D01*
X016639Y034676D01*
X016658Y034692D01*
X016679Y034705D01*
X016701Y034714D01*
X016725Y034720D01*
X016750Y034722D01*
X016775Y034720D01*
X016799Y034714D01*
X016821Y034705D01*
X016842Y034692D01*
X016861Y034676D01*
X016877Y034657D01*
X016890Y034636D01*
X016899Y034614D01*
X016905Y034590D01*
X016907Y034565D01*
X016905Y034540D01*
X016899Y034516D01*
X016890Y034494D01*
X016877Y034473D01*
X016861Y034454D01*
X016842Y034438D01*
X016821Y034425D01*
X016799Y034416D01*
X016775Y034410D01*
X016750Y034408D01*
X016725Y034410D01*
X016701Y034416D01*
X016679Y034425D01*
X016658Y034438D01*
X016639Y034454D01*
X016623Y034473D01*
X016610Y034494D01*
X016601Y034516D01*
X016595Y034540D01*
X016593Y034565D01*
X016593Y035235D02*
X016595Y035260D01*
X016601Y035284D01*
X016610Y035306D01*
X016623Y035327D01*
X016639Y035346D01*
X016658Y035362D01*
X016679Y035375D01*
X016701Y035384D01*
X016725Y035390D01*
X016750Y035392D01*
X016775Y035390D01*
X016799Y035384D01*
X016821Y035375D01*
X016842Y035362D01*
X016861Y035346D01*
X016877Y035327D01*
X016890Y035306D01*
X016899Y035284D01*
X016905Y035260D01*
X016907Y035235D01*
X016905Y035210D01*
X016899Y035186D01*
X016890Y035164D01*
X016877Y035143D01*
X016861Y035124D01*
X016842Y035108D01*
X016821Y035095D01*
X016799Y035086D01*
X016775Y035080D01*
X016750Y035078D01*
X016725Y035080D01*
X016701Y035086D01*
X016679Y035095D01*
X016658Y035108D01*
X016639Y035124D01*
X016623Y035143D01*
X016610Y035164D01*
X016601Y035186D01*
X016595Y035210D01*
X016593Y035235D01*
X037943Y026935D02*
X037945Y026960D01*
X037951Y026984D01*
X037960Y027006D01*
X037973Y027027D01*
X037989Y027046D01*
X038008Y027062D01*
X038029Y027075D01*
X038051Y027084D01*
X038075Y027090D01*
X038100Y027092D01*
X038125Y027090D01*
X038149Y027084D01*
X038171Y027075D01*
X038192Y027062D01*
X038211Y027046D01*
X038227Y027027D01*
X038240Y027006D01*
X038249Y026984D01*
X038255Y026960D01*
X038257Y026935D01*
X038255Y026910D01*
X038249Y026886D01*
X038240Y026864D01*
X038227Y026843D01*
X038211Y026824D01*
X038192Y026808D01*
X038171Y026795D01*
X038149Y026786D01*
X038125Y026780D01*
X038100Y026778D01*
X038075Y026780D01*
X038051Y026786D01*
X038029Y026795D01*
X038008Y026808D01*
X037989Y026824D01*
X037973Y026843D01*
X037960Y026864D01*
X037951Y026886D01*
X037945Y026910D01*
X037943Y026935D01*
X037943Y026265D02*
X037945Y026290D01*
X037951Y026314D01*
X037960Y026336D01*
X037973Y026357D01*
X037989Y026376D01*
X038008Y026392D01*
X038029Y026405D01*
X038051Y026414D01*
X038075Y026420D01*
X038100Y026422D01*
X038125Y026420D01*
X038149Y026414D01*
X038171Y026405D01*
X038192Y026392D01*
X038211Y026376D01*
X038227Y026357D01*
X038240Y026336D01*
X038249Y026314D01*
X038255Y026290D01*
X038257Y026265D01*
X038255Y026240D01*
X038249Y026216D01*
X038240Y026194D01*
X038227Y026173D01*
X038211Y026154D01*
X038192Y026138D01*
X038171Y026125D01*
X038149Y026116D01*
X038125Y026110D01*
X038100Y026108D01*
X038075Y026110D01*
X038051Y026116D01*
X038029Y026125D01*
X038008Y026138D01*
X037989Y026154D01*
X037973Y026173D01*
X037960Y026194D01*
X037951Y026216D01*
X037945Y026240D01*
X037943Y026265D01*
D11*
X036000Y034225D03*
X036000Y034525D03*
X035650Y034525D03*
X035350Y034525D03*
X035000Y034525D03*
X035000Y034225D03*
X034650Y034525D03*
X034350Y034525D03*
D12*
X035000Y035500D03*
X034900Y026000D03*
D13*
X033617Y027063D02*
X033225Y027063D01*
X032437Y026275D02*
X032437Y025883D01*
X031649Y025883D02*
X031649Y026275D01*
X030862Y026275D02*
X030862Y025883D01*
X030074Y025883D02*
X030074Y026275D01*
X029287Y026275D02*
X029287Y025883D01*
X028500Y025883D02*
X028500Y026275D01*
X027712Y026275D02*
X027712Y025883D01*
X026925Y025883D02*
X026925Y026275D01*
X026137Y026275D02*
X026137Y025883D01*
X025350Y025883D02*
X025350Y026275D01*
X024563Y026275D02*
X024563Y025883D01*
X023775Y025883D02*
X023775Y026275D01*
X022988Y026275D02*
X022988Y025883D01*
X022200Y025883D02*
X022200Y026275D01*
X021413Y026275D02*
X021413Y025883D01*
X020626Y025883D02*
X020626Y026275D01*
X019838Y026275D02*
X019838Y025883D01*
X019051Y025883D02*
X019051Y026275D01*
X018263Y026275D02*
X018263Y025883D01*
X017475Y027063D02*
X017083Y027063D01*
X017083Y027850D02*
X017475Y027850D01*
X017475Y028638D02*
X017083Y028638D01*
X017083Y029425D02*
X017475Y029425D01*
X017475Y030213D02*
X017083Y030213D01*
X017083Y031000D02*
X017475Y031000D01*
X017475Y031787D02*
X017083Y031787D01*
X017083Y032575D02*
X017475Y032575D01*
X017475Y033362D02*
X017083Y033362D01*
X017083Y034150D02*
X017475Y034150D01*
X017475Y034937D02*
X017083Y034937D01*
X018263Y035725D02*
X018263Y036117D01*
X019051Y036117D02*
X019051Y035725D01*
X019838Y035725D02*
X019838Y036117D01*
X020626Y036117D02*
X020626Y035725D01*
X021413Y035725D02*
X021413Y036117D01*
X022200Y036117D02*
X022200Y035725D01*
X022988Y035725D02*
X022988Y036117D01*
X023775Y036117D02*
X023775Y035725D01*
X024563Y035725D02*
X024563Y036117D01*
X025350Y036117D02*
X025350Y035725D01*
X026137Y035725D02*
X026137Y036117D01*
X026925Y036117D02*
X026925Y035725D01*
X027712Y035725D02*
X027712Y036117D01*
X028500Y036117D02*
X028500Y035725D01*
X029287Y035725D02*
X029287Y036117D01*
X030074Y036117D02*
X030074Y035725D01*
X030862Y035725D02*
X030862Y036117D01*
X031649Y036117D02*
X031649Y035725D01*
X032437Y035725D02*
X032437Y036117D01*
X033225Y034937D02*
X033617Y034937D01*
X033617Y034150D02*
X033225Y034150D01*
X033225Y033362D02*
X033617Y033362D01*
X033617Y032575D02*
X033225Y032575D01*
X033225Y031787D02*
X033617Y031787D01*
X033617Y031000D02*
X033225Y031000D01*
X033225Y030213D02*
X033617Y030213D01*
X033617Y029425D02*
X033225Y029425D01*
X033225Y028638D02*
X033617Y028638D01*
X033617Y027850D02*
X033225Y027850D01*
D14*
X017000Y025000D03*
X017000Y037000D03*
D15*
X018000Y037000D03*
X019000Y037000D03*
X020000Y037000D03*
X021000Y037000D03*
X022000Y037000D03*
X023000Y037000D03*
X024000Y037000D03*
X025000Y037000D03*
X026000Y037000D03*
X027000Y037000D03*
X028000Y037000D03*
X029000Y037000D03*
X030000Y037000D03*
X031000Y037000D03*
X032000Y037000D03*
X033000Y037000D03*
X034000Y037000D03*
X035000Y037000D03*
X036000Y037000D03*
X037000Y037000D03*
X038000Y037000D03*
X038000Y025000D03*
X037000Y025000D03*
X036000Y025000D03*
X035000Y025000D03*
X034000Y025000D03*
X033000Y025000D03*
X032000Y025000D03*
X031000Y025000D03*
X030000Y025000D03*
X029000Y025000D03*
X028000Y025000D03*
X027000Y025000D03*
X026000Y025000D03*
X025000Y025000D03*
X024000Y025000D03*
X023000Y025000D03*
X022000Y025000D03*
X021000Y025000D03*
X020000Y025000D03*
X019000Y025000D03*
X018000Y025000D03*
D16*
X036583Y029964D02*
X037961Y029964D01*
X037961Y029975D02*
X037961Y030829D01*
X037961Y030830D02*
X036921Y030830D01*
X036921Y031814D01*
X037961Y031814D01*
X037961Y032681D01*
X036921Y032681D01*
X036921Y033665D01*
X037961Y033665D01*
X037961Y035220D01*
X037953Y035220D02*
X036327Y035220D01*
X035988Y034531D02*
X037862Y034531D01*
D17*
X036327Y035220D03*
X035957Y034531D03*
D18*
X035879Y034741D02*
X035870Y034741D01*
X035868Y034739D01*
X035813Y034739D01*
X035808Y034735D01*
X035504Y034735D01*
X035500Y034731D01*
X035496Y034735D01*
X034504Y034735D01*
X034500Y034731D01*
X034496Y034735D01*
X034470Y034735D01*
X034398Y034765D01*
X034190Y034765D01*
X034087Y034778D01*
X033869Y034686D01*
X033727Y034497D01*
X033719Y034440D01*
X033679Y034456D01*
X033163Y034456D01*
X033050Y034410D01*
X032964Y034323D01*
X032917Y034211D01*
X032917Y034089D01*
X032964Y033976D01*
X033050Y033889D01*
X033163Y033843D01*
X033679Y033843D01*
X033792Y033889D01*
X033811Y033909D01*
X033817Y033910D01*
X033847Y033910D01*
X033863Y033916D01*
X033944Y033928D01*
X033944Y033928D01*
X034120Y034066D01*
X034203Y034273D01*
X034202Y034283D01*
X034207Y034285D01*
X034398Y034285D01*
X034470Y034315D01*
X034496Y034315D01*
X034500Y034319D01*
X034504Y034315D01*
X035496Y034315D01*
X035500Y034319D01*
X035504Y034315D01*
X035879Y034315D01*
X035879Y034294D01*
X035909Y034264D01*
X036273Y034264D01*
X036273Y027715D01*
X036302Y027686D01*
X038352Y027686D01*
X038352Y027116D01*
X038273Y027194D01*
X038161Y027241D01*
X038039Y027241D01*
X037927Y027194D01*
X037841Y027108D01*
X037794Y026995D01*
X037794Y026874D01*
X037841Y026761D01*
X037927Y026675D01*
X038039Y026629D01*
X038161Y026629D01*
X038273Y026675D01*
X038352Y026754D01*
X038352Y026446D01*
X038273Y026525D01*
X038161Y026571D01*
X038039Y026571D01*
X037927Y026525D01*
X037841Y026439D01*
X037794Y026326D01*
X037794Y026205D01*
X037841Y026092D01*
X037927Y026006D01*
X038039Y025959D01*
X038161Y025959D01*
X038273Y026006D01*
X038352Y026084D01*
X038352Y024648D01*
X037327Y024648D01*
X037407Y024728D01*
X037480Y024905D01*
X037480Y025095D01*
X037407Y025272D01*
X037272Y025407D01*
X037095Y025480D01*
X036905Y025480D01*
X036815Y025443D01*
X036785Y025473D01*
X036785Y025918D01*
X036235Y026468D01*
X036235Y027068D01*
X034095Y029208D01*
X033988Y029315D01*
X033904Y029315D01*
X033925Y029364D01*
X033925Y029486D01*
X033878Y029599D01*
X033792Y029685D01*
X033679Y029732D01*
X033163Y029732D01*
X033050Y029685D01*
X032964Y029599D01*
X032917Y029486D01*
X032917Y029364D01*
X032964Y029251D01*
X033050Y029165D01*
X033163Y029118D01*
X033470Y029118D01*
X033531Y029057D01*
X033560Y029028D01*
X033477Y028945D01*
X033163Y028945D01*
X033050Y028898D01*
X032964Y028812D01*
X032917Y028699D01*
X032917Y028577D01*
X032964Y028464D01*
X033050Y028378D01*
X033163Y028331D01*
X033679Y028331D01*
X033792Y028378D01*
X033878Y028464D01*
X033923Y028574D01*
X035665Y026832D01*
X035665Y026232D01*
X035772Y026125D01*
X036215Y025682D01*
X036215Y025478D01*
X036213Y025476D01*
X036213Y025471D01*
X036185Y025443D01*
X036095Y025480D01*
X035905Y025480D01*
X035728Y025407D01*
X035593Y025272D01*
X035520Y025095D01*
X035520Y024905D01*
X035593Y024728D01*
X035673Y024648D01*
X035327Y024648D01*
X035407Y024728D01*
X035480Y024905D01*
X035480Y025095D01*
X035407Y025272D01*
X035272Y025407D01*
X035095Y025480D01*
X035082Y025480D01*
X035212Y025534D01*
X035366Y025688D01*
X035450Y025891D01*
X035450Y026109D01*
X035366Y026312D01*
X035212Y026466D01*
X035009Y026550D01*
X034791Y026550D01*
X034588Y026466D01*
X034434Y026312D01*
X034350Y026109D01*
X034350Y025891D01*
X034434Y025688D01*
X034588Y025534D01*
X034791Y025450D01*
X034832Y025450D01*
X034728Y025407D01*
X034593Y025272D01*
X034520Y025095D01*
X034520Y024905D01*
X034593Y024728D01*
X034673Y024648D01*
X033327Y024648D01*
X033407Y024728D01*
X033480Y024905D01*
X033480Y025095D01*
X033407Y025272D01*
X033272Y025407D01*
X033150Y025457D01*
X033150Y026512D01*
X033062Y026600D01*
X032750Y026912D01*
X032662Y027000D01*
X031388Y027000D01*
X031413Y027024D01*
X031460Y027138D01*
X031460Y027262D01*
X031413Y027376D01*
X031326Y027463D01*
X031212Y027510D01*
X031129Y027510D01*
X031129Y029309D01*
X031138Y029300D01*
X031183Y029255D01*
X031205Y029218D01*
X031215Y029215D01*
X031242Y029180D01*
X031242Y029164D01*
X031293Y029113D01*
X031322Y029074D01*
X031332Y029073D01*
X031364Y029042D01*
X031536Y029042D01*
X031658Y029164D01*
X031658Y029336D01*
X031595Y029400D01*
X031658Y029464D01*
X031658Y029636D01*
X031625Y029669D01*
X031624Y029681D01*
X031624Y029681D01*
X031586Y029708D01*
X031536Y029758D01*
X031518Y029758D01*
X031500Y029772D01*
X031500Y030638D01*
X031800Y030938D01*
X031800Y031262D01*
X031750Y031312D01*
X031750Y031388D01*
X032288Y030850D01*
X032954Y030850D01*
X032964Y030826D01*
X033050Y030740D01*
X033163Y030693D01*
X033679Y030693D01*
X033792Y030740D01*
X033878Y030826D01*
X033925Y030939D01*
X033925Y031061D01*
X033878Y031174D01*
X033792Y031260D01*
X033679Y031307D01*
X033163Y031307D01*
X033050Y031260D01*
X032964Y031174D01*
X032954Y031150D01*
X032412Y031150D01*
X031900Y031662D01*
X031900Y032662D01*
X031812Y032750D01*
X031462Y033100D01*
X031081Y033100D01*
X031058Y033148D01*
X031058Y033186D01*
X031022Y033222D01*
X031011Y033246D01*
X031011Y033246D01*
X031011Y033246D01*
X030992Y033253D01*
X030945Y033300D01*
X031312Y033300D01*
X033912Y035900D01*
X034622Y035900D01*
X034534Y035812D01*
X034450Y035609D01*
X034450Y035391D01*
X034534Y035188D01*
X034688Y035034D01*
X034891Y034950D01*
X035109Y034950D01*
X035312Y035034D01*
X035466Y035188D01*
X035550Y035391D01*
X035550Y035609D01*
X035466Y035812D01*
X035378Y035900D01*
X036112Y035900D01*
X036783Y036570D01*
X036905Y036520D01*
X037095Y036520D01*
X037272Y036593D01*
X037407Y036728D01*
X037480Y036905D01*
X037480Y037095D01*
X037407Y037272D01*
X037327Y037352D01*
X038352Y037352D01*
X038352Y035660D01*
X036302Y035660D01*
X036273Y035630D01*
X036273Y034798D01*
X035909Y034798D01*
X035879Y034768D01*
X035879Y034741D01*
X035879Y034744D02*
X034448Y034744D01*
X034087Y034778D02*
X034087Y034778D01*
X034007Y034744D02*
X032756Y034744D01*
X032658Y034646D02*
X033839Y034646D01*
X033869Y034686D02*
X033869Y034686D01*
X033764Y034547D02*
X032559Y034547D01*
X032461Y034449D02*
X033144Y034449D01*
X032990Y034350D02*
X032362Y034350D01*
X032264Y034252D02*
X032934Y034252D01*
X032917Y034153D02*
X032165Y034153D01*
X032067Y034055D02*
X032931Y034055D01*
X032984Y033956D02*
X031968Y033956D01*
X031870Y033858D02*
X033127Y033858D01*
X033714Y033858D02*
X036273Y033858D01*
X036273Y033956D02*
X033980Y033956D01*
X034106Y034055D02*
X036273Y034055D01*
X036273Y034153D02*
X034155Y034153D01*
X034120Y034066D02*
X034120Y034066D01*
X034120Y034066D01*
X034195Y034252D02*
X036273Y034252D01*
X036273Y033759D02*
X031771Y033759D01*
X031673Y033661D02*
X036273Y033661D01*
X036273Y033562D02*
X031574Y033562D01*
X031476Y033464D02*
X036273Y033464D01*
X036273Y033365D02*
X031377Y033365D01*
X031493Y033070D02*
X036273Y033070D01*
X036273Y033168D02*
X031058Y033168D01*
X030978Y033267D02*
X036273Y033267D01*
X036273Y032971D02*
X031591Y032971D01*
X031690Y032873D02*
X036273Y032873D01*
X036273Y032774D02*
X031788Y032774D01*
X031887Y032676D02*
X036273Y032676D01*
X036273Y032577D02*
X031900Y032577D01*
X031900Y032479D02*
X036273Y032479D01*
X036273Y032380D02*
X031900Y032380D01*
X031900Y032282D02*
X036273Y032282D01*
X036273Y032183D02*
X031900Y032183D01*
X031900Y032085D02*
X033139Y032085D01*
X033163Y032094D02*
X033050Y032048D01*
X032964Y031961D01*
X032917Y031848D01*
X032917Y031726D01*
X032964Y031614D01*
X033050Y031527D01*
X033163Y031481D01*
X033679Y031481D01*
X033792Y031527D01*
X033878Y031614D01*
X033925Y031726D01*
X033925Y031848D01*
X033878Y031961D01*
X033792Y032048D01*
X033679Y032094D01*
X033163Y032094D01*
X032989Y031986D02*
X031900Y031986D01*
X031900Y031888D02*
X032933Y031888D01*
X032917Y031789D02*
X031900Y031789D01*
X031900Y031691D02*
X032932Y031691D01*
X032985Y031592D02*
X031970Y031592D01*
X032069Y031494D02*
X033132Y031494D01*
X033138Y031297D02*
X032266Y031297D01*
X032167Y031395D02*
X036273Y031395D01*
X036273Y031297D02*
X033704Y031297D01*
X033854Y031198D02*
X036273Y031198D01*
X036273Y031100D02*
X033909Y031100D01*
X033925Y031001D02*
X036273Y031001D01*
X036273Y030903D02*
X033909Y030903D01*
X033856Y030804D02*
X036273Y030804D01*
X036273Y030706D02*
X033709Y030706D01*
X033133Y030706D02*
X031568Y030706D01*
X031500Y030607D02*
X036273Y030607D01*
X036273Y030509D02*
X031500Y030509D01*
X031500Y030410D02*
X036273Y030410D01*
X036273Y030312D02*
X031500Y030312D01*
X031500Y030213D02*
X036273Y030213D01*
X036273Y030115D02*
X031500Y030115D01*
X031500Y030016D02*
X036273Y030016D01*
X036273Y029918D02*
X031500Y029918D01*
X031500Y029819D02*
X036273Y029819D01*
X036273Y029721D02*
X033707Y029721D01*
X033855Y029622D02*
X036273Y029622D01*
X036273Y029524D02*
X033909Y029524D01*
X033925Y029425D02*
X036273Y029425D01*
X036273Y029327D02*
X033909Y029327D01*
X034075Y029228D02*
X036273Y029228D01*
X036273Y029130D02*
X034174Y029130D01*
X034272Y029031D02*
X036273Y029031D01*
X036273Y028933D02*
X034371Y028933D01*
X034469Y028834D02*
X036273Y028834D01*
X036273Y028736D02*
X034568Y028736D01*
X034666Y028637D02*
X036273Y028637D01*
X036273Y028539D02*
X034765Y028539D01*
X034863Y028440D02*
X036273Y028440D01*
X036273Y028342D02*
X034962Y028342D01*
X035060Y028243D02*
X036273Y028243D01*
X036273Y028145D02*
X035159Y028145D01*
X035257Y028046D02*
X036273Y028046D01*
X036273Y027948D02*
X035356Y027948D01*
X035454Y027849D02*
X036273Y027849D01*
X036273Y027751D02*
X035553Y027751D01*
X035651Y027652D02*
X038352Y027652D01*
X038352Y027554D02*
X035750Y027554D01*
X035848Y027455D02*
X038352Y027455D01*
X038352Y027357D02*
X035947Y027357D01*
X036045Y027258D02*
X038352Y027258D01*
X038352Y027160D02*
X038308Y027160D01*
X037892Y027160D02*
X036144Y027160D01*
X036235Y027061D02*
X037821Y027061D01*
X037794Y026963D02*
X036235Y026963D01*
X036235Y026864D02*
X037798Y026864D01*
X037839Y026766D02*
X036235Y026766D01*
X036235Y026667D02*
X037947Y026667D01*
X038033Y026569D02*
X036235Y026569D01*
X036235Y026470D02*
X037872Y026470D01*
X037813Y026372D02*
X036332Y026372D01*
X036430Y026273D02*
X037794Y026273D01*
X037807Y026175D02*
X036529Y026175D01*
X036627Y026076D02*
X037857Y026076D01*
X037996Y025978D02*
X036726Y025978D01*
X036785Y025879D02*
X038352Y025879D01*
X038352Y025781D02*
X036785Y025781D01*
X036785Y025682D02*
X038352Y025682D01*
X038352Y025584D02*
X036785Y025584D01*
X036785Y025485D02*
X038352Y025485D01*
X038352Y025387D02*
X037292Y025387D01*
X037391Y025288D02*
X038352Y025288D01*
X038352Y025190D02*
X037441Y025190D01*
X037480Y025091D02*
X038352Y025091D01*
X038352Y024993D02*
X037480Y024993D01*
X037476Y024894D02*
X038352Y024894D01*
X038352Y024796D02*
X037435Y024796D01*
X037376Y024697D02*
X038352Y024697D01*
X038352Y025978D02*
X038204Y025978D01*
X038343Y026076D02*
X038352Y026076D01*
X038328Y026470D02*
X038352Y026470D01*
X038352Y026569D02*
X038167Y026569D01*
X038253Y026667D02*
X038352Y026667D01*
X036557Y025185D02*
X036500Y025242D01*
X036443Y025185D01*
X036480Y025095D01*
X036480Y024905D01*
X036407Y024728D01*
X036327Y024648D01*
X036673Y024648D01*
X036593Y024728D01*
X036520Y024905D01*
X036520Y025095D01*
X036557Y025185D01*
X036552Y025190D02*
X036448Y025190D01*
X036480Y025091D02*
X036520Y025091D01*
X036520Y024993D02*
X036480Y024993D01*
X036476Y024894D02*
X036524Y024894D01*
X036565Y024796D02*
X036435Y024796D01*
X036376Y024697D02*
X036624Y024697D01*
X036215Y025485D02*
X035094Y025485D01*
X035261Y025584D02*
X036215Y025584D01*
X036215Y025682D02*
X035360Y025682D01*
X035404Y025781D02*
X036116Y025781D01*
X036018Y025879D02*
X035445Y025879D01*
X035450Y025978D02*
X035919Y025978D01*
X035821Y026076D02*
X035450Y026076D01*
X035423Y026175D02*
X035722Y026175D01*
X035665Y026273D02*
X035382Y026273D01*
X035306Y026372D02*
X035665Y026372D01*
X035665Y026470D02*
X035203Y026470D01*
X035665Y026569D02*
X033094Y026569D01*
X033150Y026470D02*
X034597Y026470D01*
X034494Y026372D02*
X033150Y026372D01*
X033150Y026273D02*
X034418Y026273D01*
X034377Y026175D02*
X033150Y026175D01*
X033150Y026076D02*
X034350Y026076D01*
X034350Y025978D02*
X033150Y025978D01*
X033150Y025879D02*
X034355Y025879D01*
X034396Y025781D02*
X033150Y025781D01*
X033150Y025682D02*
X034440Y025682D01*
X034539Y025584D02*
X033150Y025584D01*
X033150Y025485D02*
X034706Y025485D01*
X034708Y025387D02*
X033292Y025387D01*
X033391Y025288D02*
X034609Y025288D01*
X034559Y025190D02*
X033441Y025190D01*
X033480Y025091D02*
X034520Y025091D01*
X034520Y024993D02*
X033480Y024993D01*
X033476Y024894D02*
X034524Y024894D01*
X034565Y024796D02*
X033435Y024796D01*
X033376Y024697D02*
X034624Y024697D01*
X035376Y024697D02*
X035624Y024697D01*
X035565Y024796D02*
X035435Y024796D01*
X035476Y024894D02*
X035524Y024894D01*
X035520Y024993D02*
X035480Y024993D01*
X035480Y025091D02*
X035520Y025091D01*
X035559Y025190D02*
X035441Y025190D01*
X035391Y025288D02*
X035609Y025288D01*
X035708Y025387D02*
X035292Y025387D01*
X035665Y026667D02*
X032995Y026667D01*
X032897Y026766D02*
X033140Y026766D01*
X033163Y026756D02*
X033679Y026756D01*
X033792Y026803D01*
X033878Y026889D01*
X033925Y027002D01*
X033925Y027124D01*
X033878Y027237D01*
X033792Y027323D01*
X033679Y027370D01*
X033163Y027370D01*
X033050Y027323D01*
X032964Y027237D01*
X032917Y027124D01*
X032917Y027002D01*
X032964Y026889D01*
X033050Y026803D01*
X033163Y026756D01*
X032989Y026864D02*
X032798Y026864D01*
X032700Y026963D02*
X032934Y026963D01*
X032917Y027061D02*
X031428Y027061D01*
X031460Y027160D02*
X032932Y027160D01*
X032985Y027258D02*
X031460Y027258D01*
X031421Y027357D02*
X033131Y027357D01*
X033711Y027357D02*
X035140Y027357D01*
X035042Y027455D02*
X031333Y027455D01*
X031129Y027554D02*
X034943Y027554D01*
X034845Y027652D02*
X031129Y027652D01*
X031129Y027751D02*
X034746Y027751D01*
X034648Y027849D02*
X031129Y027849D01*
X031129Y027948D02*
X034549Y027948D01*
X034451Y028046D02*
X031129Y028046D01*
X031129Y028145D02*
X034352Y028145D01*
X034254Y028243D02*
X031129Y028243D01*
X031129Y028342D02*
X033137Y028342D01*
X032988Y028440D02*
X031129Y028440D01*
X031129Y028539D02*
X032933Y028539D01*
X032917Y028637D02*
X031129Y028637D01*
X031129Y028736D02*
X032932Y028736D01*
X032986Y028834D02*
X031129Y028834D01*
X031129Y028933D02*
X033134Y028933D01*
X033136Y029130D02*
X031624Y029130D01*
X031658Y029228D02*
X032987Y029228D01*
X032933Y029327D02*
X031658Y029327D01*
X031620Y029425D02*
X032917Y029425D01*
X032933Y029524D02*
X031658Y029524D01*
X031658Y029622D02*
X032987Y029622D01*
X033135Y029721D02*
X031574Y029721D01*
X031624Y029681D02*
X031624Y029681D01*
X031199Y029228D02*
X031129Y029228D01*
X031129Y029130D02*
X031276Y029130D01*
X031322Y029074D02*
X031322Y029074D01*
X031322Y029074D01*
X031129Y029031D02*
X033557Y029031D01*
X033909Y028539D02*
X033958Y028539D01*
X034057Y028440D02*
X033854Y028440D01*
X033704Y028342D02*
X034155Y028342D01*
X033857Y027258D02*
X035239Y027258D01*
X035337Y027160D02*
X033910Y027160D01*
X033925Y027061D02*
X035436Y027061D01*
X035534Y026963D02*
X033908Y026963D01*
X033853Y026864D02*
X035633Y026864D01*
X035665Y026766D02*
X033701Y026766D01*
X032850Y026388D02*
X032850Y025457D01*
X032728Y025407D01*
X032593Y025272D01*
X032520Y025095D01*
X032520Y024905D01*
X032593Y024728D01*
X032673Y024648D01*
X032327Y024648D01*
X032407Y024728D01*
X032480Y024905D01*
X032480Y025095D01*
X032407Y025272D01*
X032272Y025407D01*
X032095Y025480D01*
X031905Y025480D01*
X031728Y025407D01*
X031593Y025272D01*
X031520Y025095D01*
X031520Y024905D01*
X031593Y024728D01*
X031673Y024648D01*
X031327Y024648D01*
X031407Y024728D01*
X031480Y024905D01*
X031480Y025095D01*
X031407Y025272D01*
X031400Y025279D01*
X031400Y025697D01*
X031475Y025622D01*
X031588Y025575D01*
X031710Y025575D01*
X031823Y025622D01*
X031909Y025708D01*
X031956Y025821D01*
X031956Y026337D01*
X031909Y026449D01*
X031823Y026536D01*
X031710Y026582D01*
X031588Y026582D01*
X031475Y026536D01*
X031400Y026460D01*
X031400Y026562D01*
X031262Y026700D01*
X032538Y026700D01*
X032850Y026388D01*
X032850Y026372D02*
X032729Y026372D01*
X032743Y026337D02*
X032697Y026449D01*
X032610Y026536D01*
X032498Y026582D01*
X032376Y026582D01*
X032263Y026536D01*
X032176Y026449D01*
X032130Y026337D01*
X032130Y025821D01*
X032176Y025708D01*
X032263Y025622D01*
X032376Y025575D01*
X032498Y025575D01*
X032610Y025622D01*
X032697Y025708D01*
X032743Y025821D01*
X032743Y026337D01*
X032743Y026273D02*
X032850Y026273D01*
X032850Y026175D02*
X032743Y026175D01*
X032743Y026076D02*
X032850Y026076D01*
X032850Y025978D02*
X032743Y025978D01*
X032743Y025879D02*
X032850Y025879D01*
X032850Y025781D02*
X032727Y025781D01*
X032671Y025682D02*
X032850Y025682D01*
X032850Y025584D02*
X032518Y025584D01*
X032355Y025584D02*
X031731Y025584D01*
X031568Y025584D02*
X031400Y025584D01*
X031400Y025682D02*
X031415Y025682D01*
X031400Y025485D02*
X032850Y025485D01*
X032708Y025387D02*
X032292Y025387D01*
X032391Y025288D02*
X032609Y025288D01*
X032559Y025190D02*
X032441Y025190D01*
X032480Y025091D02*
X032520Y025091D01*
X032520Y024993D02*
X032480Y024993D01*
X032476Y024894D02*
X032524Y024894D01*
X032565Y024796D02*
X032435Y024796D01*
X032376Y024697D02*
X032624Y024697D01*
X031624Y024697D02*
X031376Y024697D01*
X031435Y024796D02*
X031565Y024796D01*
X031524Y024894D02*
X031476Y024894D01*
X031480Y024993D02*
X031520Y024993D01*
X031520Y025091D02*
X031480Y025091D01*
X031441Y025190D02*
X031559Y025190D01*
X031609Y025288D02*
X031400Y025288D01*
X031400Y025387D02*
X031708Y025387D01*
X031883Y025682D02*
X032203Y025682D01*
X032146Y025781D02*
X031939Y025781D01*
X031956Y025879D02*
X032130Y025879D01*
X032130Y025978D02*
X031956Y025978D01*
X031956Y026076D02*
X032130Y026076D01*
X032130Y026175D02*
X031956Y026175D01*
X031956Y026273D02*
X032130Y026273D01*
X032144Y026372D02*
X031942Y026372D01*
X031889Y026470D02*
X032197Y026470D01*
X032342Y026569D02*
X031744Y026569D01*
X031555Y026569D02*
X031394Y026569D01*
X031400Y026470D02*
X031410Y026470D01*
X031295Y026667D02*
X032571Y026667D01*
X032531Y026569D02*
X032669Y026569D01*
X032676Y026470D02*
X032768Y026470D01*
X031100Y025686D02*
X031100Y025478D01*
X031095Y025480D01*
X030905Y025480D01*
X030728Y025407D01*
X030593Y025272D01*
X030520Y025095D01*
X030520Y024905D01*
X030593Y024728D01*
X030673Y024648D01*
X030327Y024648D01*
X030407Y024728D01*
X030480Y024905D01*
X030480Y025095D01*
X030407Y025272D01*
X030345Y025333D01*
X030600Y025588D01*
X030600Y025712D01*
X030602Y025708D01*
X030688Y025622D01*
X030801Y025575D01*
X030923Y025575D01*
X031036Y025622D01*
X031100Y025686D01*
X031100Y025682D02*
X031096Y025682D01*
X031100Y025584D02*
X030943Y025584D01*
X030780Y025584D02*
X030596Y025584D01*
X030600Y025682D02*
X030628Y025682D01*
X030497Y025485D02*
X031100Y025485D01*
X030708Y025387D02*
X030399Y025387D01*
X030391Y025288D02*
X030609Y025288D01*
X030559Y025190D02*
X030441Y025190D01*
X030480Y025091D02*
X030520Y025091D01*
X030520Y024993D02*
X030480Y024993D01*
X030476Y024894D02*
X030524Y024894D01*
X030565Y024796D02*
X030435Y024796D01*
X030376Y024697D02*
X030624Y024697D01*
X029673Y024648D02*
X029327Y024648D01*
X029407Y024728D01*
X029480Y024905D01*
X029480Y025095D01*
X029407Y025272D01*
X029272Y025407D01*
X029095Y025480D01*
X028905Y025480D01*
X028728Y025407D01*
X028593Y025272D01*
X028520Y025095D01*
X028520Y024905D01*
X028593Y024728D01*
X028673Y024648D01*
X028327Y024648D01*
X028407Y024728D01*
X028480Y024905D01*
X028480Y025095D01*
X028459Y025147D01*
X029000Y025688D01*
X029000Y026568D01*
X029008Y026617D01*
X029002Y026625D01*
X029004Y026659D01*
X029008Y026664D01*
X029008Y026742D01*
X029086Y026742D01*
X029208Y026864D01*
X029850Y026864D01*
X029850Y026862D02*
X029638Y026650D01*
X029550Y026562D01*
X029550Y025861D01*
X029538Y025836D01*
X029541Y025827D01*
X029519Y025764D01*
X029492Y025736D01*
X029492Y025685D01*
X029483Y025660D01*
X029492Y025642D01*
X029492Y025564D01*
X029614Y025442D01*
X029786Y025442D01*
X029908Y025564D01*
X029908Y025619D01*
X030013Y025575D01*
X030135Y025575D01*
X030182Y025594D01*
X030068Y025480D01*
X029905Y025480D01*
X029728Y025407D01*
X029593Y025272D01*
X029520Y025095D01*
X029520Y024905D01*
X029593Y024728D01*
X029673Y024648D01*
X029624Y024697D02*
X029376Y024697D01*
X029435Y024796D02*
X029565Y024796D01*
X029524Y024894D02*
X029476Y024894D01*
X029480Y024993D02*
X029520Y024993D01*
X029520Y025091D02*
X029480Y025091D01*
X029441Y025190D02*
X029559Y025190D01*
X029609Y025288D02*
X029391Y025288D01*
X029292Y025387D02*
X029708Y025387D01*
X029830Y025485D02*
X030073Y025485D01*
X029993Y025584D02*
X029908Y025584D01*
X030156Y025584D02*
X030171Y025584D01*
X029570Y025485D02*
X028797Y025485D01*
X028708Y025387D02*
X028699Y025387D01*
X028609Y025288D02*
X028600Y025288D01*
X028559Y025190D02*
X028502Y025190D01*
X028520Y025091D02*
X028480Y025091D01*
X028480Y024993D02*
X028520Y024993D01*
X028524Y024894D02*
X028476Y024894D01*
X028435Y024796D02*
X028565Y024796D01*
X028624Y024697D02*
X028376Y024697D01*
X027573Y025485D02*
X027197Y025485D01*
X027164Y025452D02*
X027312Y025600D01*
X027400Y025688D01*
X027400Y026838D01*
X027612Y027050D01*
X028088Y027050D01*
X028138Y027000D01*
X028388Y027000D01*
X028138Y026750D01*
X028138Y026750D01*
X028050Y026662D01*
X028050Y025712D01*
X027988Y025650D01*
X027914Y025650D01*
X027972Y025708D01*
X028019Y025821D01*
X028019Y026337D01*
X027972Y026449D01*
X027886Y026536D01*
X027773Y026582D01*
X027651Y026582D01*
X027538Y026536D01*
X027452Y026449D01*
X027405Y026337D01*
X027405Y025821D01*
X027452Y025708D01*
X027538Y025622D01*
X027651Y025575D01*
X027663Y025575D01*
X027650Y025562D01*
X027383Y025295D01*
X027272Y025407D01*
X027164Y025452D01*
X027292Y025387D02*
X027474Y025387D01*
X027631Y025584D02*
X027296Y025584D01*
X027394Y025682D02*
X027478Y025682D01*
X027422Y025781D02*
X027400Y025781D01*
X027400Y025879D02*
X027405Y025879D01*
X027400Y025978D02*
X027405Y025978D01*
X027400Y026076D02*
X027405Y026076D01*
X027400Y026175D02*
X027405Y026175D01*
X027400Y026273D02*
X027405Y026273D01*
X027400Y026372D02*
X027420Y026372D01*
X027400Y026470D02*
X027473Y026470D01*
X027400Y026569D02*
X027618Y026569D01*
X027807Y026569D02*
X028050Y026569D01*
X028055Y026667D02*
X027400Y026667D01*
X027400Y026766D02*
X028153Y026766D01*
X028252Y026864D02*
X027426Y026864D01*
X027525Y026963D02*
X028350Y026963D01*
X028050Y026470D02*
X027952Y026470D01*
X028005Y026372D02*
X028050Y026372D01*
X028050Y026273D02*
X028019Y026273D01*
X028019Y026175D02*
X028050Y026175D01*
X028050Y026076D02*
X028019Y026076D01*
X028019Y025978D02*
X028050Y025978D01*
X028050Y025879D02*
X028019Y025879D01*
X028002Y025781D02*
X028050Y025781D01*
X028020Y025682D02*
X027946Y025682D01*
X028896Y025584D02*
X029492Y025584D01*
X029483Y025660D02*
X029483Y025660D01*
X029490Y025682D02*
X028994Y025682D01*
X029000Y025781D02*
X029525Y025781D01*
X029550Y025879D02*
X029000Y025879D01*
X029000Y025978D02*
X029550Y025978D01*
X029550Y026076D02*
X029000Y026076D01*
X029000Y026175D02*
X029550Y026175D01*
X029550Y026273D02*
X029000Y026273D01*
X029000Y026372D02*
X029550Y026372D01*
X029550Y026470D02*
X029000Y026470D01*
X029000Y026569D02*
X029556Y026569D01*
X029655Y026667D02*
X029008Y026667D01*
X029110Y026766D02*
X029753Y026766D01*
X029850Y026862D02*
X029850Y027542D01*
X029808Y027542D01*
X029808Y027464D01*
X029686Y027342D01*
X029608Y027342D01*
X029608Y027264D01*
X029486Y027142D01*
X029408Y027142D01*
X029408Y027064D01*
X029286Y026942D01*
X029208Y026942D01*
X029208Y026864D01*
X029307Y026963D02*
X029850Y026963D01*
X029850Y027061D02*
X029406Y027061D01*
X029504Y027160D02*
X029850Y027160D01*
X029850Y027258D02*
X029603Y027258D01*
X029701Y027357D02*
X029850Y027357D01*
X029850Y027455D02*
X029800Y027455D01*
X029655Y027900D02*
X029438Y027900D01*
X029388Y027850D01*
X028114Y027850D01*
X028114Y027986D01*
X028058Y028042D01*
X028052Y028061D01*
X028027Y028072D01*
X027991Y028108D01*
X027953Y028108D01*
X027892Y028138D01*
X027888Y028146D01*
X027862Y028156D01*
X027650Y028367D01*
X027650Y028938D01*
X027812Y029100D01*
X027900Y029188D01*
X027900Y029512D01*
X027812Y029600D01*
X027800Y029612D01*
X027800Y030062D01*
X027712Y030150D01*
X026850Y031012D01*
X026762Y031100D01*
X026458Y031100D01*
X026458Y031102D01*
X026465Y031115D01*
X026488Y031163D01*
X026496Y031167D01*
X026506Y031193D01*
X026525Y031213D01*
X026712Y031400D01*
X029838Y031400D01*
X029850Y031388D01*
X029850Y027958D01*
X029714Y027958D01*
X029655Y027900D01*
X029703Y027948D02*
X028114Y027948D01*
X028057Y028046D02*
X029850Y028046D01*
X029850Y028145D02*
X027889Y028145D01*
X027774Y028243D02*
X029850Y028243D01*
X029850Y028342D02*
X027676Y028342D01*
X027650Y028440D02*
X029850Y028440D01*
X029850Y028539D02*
X027650Y028539D01*
X027650Y028637D02*
X029850Y028637D01*
X029850Y028736D02*
X027650Y028736D01*
X027650Y028834D02*
X029850Y028834D01*
X029850Y028933D02*
X027650Y028933D01*
X027743Y029031D02*
X029850Y029031D01*
X029850Y029130D02*
X027842Y029130D01*
X027900Y029228D02*
X029850Y029228D01*
X029850Y029327D02*
X027900Y029327D01*
X027900Y029425D02*
X029850Y029425D01*
X029850Y029524D02*
X027889Y029524D01*
X027800Y029622D02*
X029850Y029622D01*
X029850Y029721D02*
X027800Y029721D01*
X027800Y029819D02*
X029850Y029819D01*
X029850Y029918D02*
X027800Y029918D01*
X027800Y030016D02*
X029850Y030016D01*
X029850Y030115D02*
X027748Y030115D01*
X027712Y030150D02*
X027712Y030150D01*
X027649Y030213D02*
X029850Y030213D01*
X029850Y030312D02*
X027551Y030312D01*
X027452Y030410D02*
X029850Y030410D01*
X029850Y030509D02*
X027354Y030509D01*
X027255Y030607D02*
X029850Y030607D01*
X029850Y030706D02*
X027157Y030706D01*
X027058Y030804D02*
X029850Y030804D01*
X029850Y030903D02*
X026960Y030903D01*
X026861Y031001D02*
X029850Y031001D01*
X029850Y031100D02*
X026763Y031100D01*
X026609Y031297D02*
X029850Y031297D01*
X029843Y031395D02*
X026707Y031395D01*
X026510Y031198D02*
X029850Y031198D01*
X031666Y030804D02*
X032986Y030804D01*
X032988Y031198D02*
X032364Y031198D01*
X032137Y031001D02*
X031800Y031001D01*
X031800Y031100D02*
X032038Y031100D01*
X031940Y031198D02*
X031800Y031198D01*
X031766Y031297D02*
X031841Y031297D01*
X031765Y030903D02*
X032235Y030903D01*
X033710Y031494D02*
X036273Y031494D01*
X036273Y031592D02*
X033856Y031592D01*
X033910Y031691D02*
X036273Y031691D01*
X036273Y031789D02*
X033925Y031789D01*
X033908Y031888D02*
X036273Y031888D01*
X036273Y031986D02*
X033853Y031986D01*
X033702Y032085D02*
X036273Y032085D01*
X034203Y034273D02*
X034203Y034273D01*
X033720Y034449D02*
X033698Y034449D01*
X033727Y034497D02*
X033727Y034497D01*
X033052Y035040D02*
X034683Y035040D01*
X034584Y035138D02*
X033150Y035138D01*
X033249Y035237D02*
X034514Y035237D01*
X034473Y035335D02*
X033347Y035335D01*
X033446Y035434D02*
X034450Y035434D01*
X034450Y035532D02*
X033544Y035532D01*
X033643Y035631D02*
X034459Y035631D01*
X034500Y035729D02*
X033741Y035729D01*
X033840Y035828D02*
X034550Y035828D01*
X034562Y036350D02*
X034783Y036570D01*
X034905Y036520D01*
X035095Y036520D01*
X035272Y036593D01*
X035407Y036728D01*
X035480Y036905D01*
X035480Y037095D01*
X035407Y037272D01*
X035327Y037352D01*
X035673Y037352D01*
X035593Y037272D01*
X035520Y037095D01*
X035520Y036905D01*
X035570Y036783D01*
X035138Y036350D01*
X034562Y036350D01*
X034631Y036419D02*
X035206Y036419D01*
X035305Y036517D02*
X034729Y036517D01*
X034502Y036714D02*
X034393Y036714D01*
X034407Y036728D02*
X034272Y036593D01*
X034095Y036520D01*
X033932Y036520D01*
X033912Y036500D01*
X034288Y036500D01*
X034570Y036783D01*
X034520Y036905D01*
X034520Y037095D01*
X034593Y037272D01*
X034673Y037352D01*
X034327Y037352D01*
X034407Y037272D01*
X034480Y037095D01*
X034480Y036905D01*
X034407Y036728D01*
X034442Y036813D02*
X034558Y036813D01*
X034520Y036911D02*
X034480Y036911D01*
X034480Y037010D02*
X034520Y037010D01*
X034525Y037108D02*
X034475Y037108D01*
X034434Y037207D02*
X034566Y037207D01*
X034626Y037305D02*
X034374Y037305D01*
X033673Y037352D02*
X033593Y037272D01*
X033520Y037095D01*
X033520Y036905D01*
X033593Y036728D01*
X033655Y036667D01*
X032250Y035262D01*
X032250Y036188D01*
X032692Y036630D01*
X032728Y036593D01*
X032905Y036520D01*
X033095Y036520D01*
X033272Y036593D01*
X033407Y036728D01*
X033480Y036905D01*
X033480Y037095D01*
X033407Y037272D01*
X033327Y037352D01*
X033673Y037352D01*
X033626Y037305D02*
X033374Y037305D01*
X033434Y037207D02*
X033566Y037207D01*
X033525Y037108D02*
X033475Y037108D01*
X033480Y037010D02*
X033520Y037010D01*
X033520Y036911D02*
X033480Y036911D01*
X033442Y036813D02*
X033558Y036813D01*
X033607Y036714D02*
X033393Y036714D01*
X033294Y036616D02*
X033603Y036616D01*
X033505Y036517D02*
X032579Y036517D01*
X032481Y036419D02*
X033406Y036419D01*
X033308Y036320D02*
X032382Y036320D01*
X032284Y036222D02*
X033209Y036222D01*
X033111Y036123D02*
X032250Y036123D01*
X032250Y036025D02*
X033012Y036025D01*
X032914Y035926D02*
X032250Y035926D01*
X032250Y035828D02*
X032815Y035828D01*
X032717Y035729D02*
X032250Y035729D01*
X032250Y035631D02*
X032618Y035631D01*
X032520Y035532D02*
X032250Y035532D01*
X032250Y035434D02*
X032421Y035434D01*
X032323Y035335D02*
X032250Y035335D01*
X031950Y035335D02*
X031660Y035335D01*
X031672Y035322D02*
X031636Y035358D01*
X031598Y035358D01*
X031537Y035388D01*
X031533Y035396D01*
X031507Y035406D01*
X031487Y035425D01*
X031362Y035550D01*
X030658Y035550D01*
X030381Y035827D01*
X030381Y036179D01*
X030335Y036292D01*
X030248Y036378D01*
X030135Y036425D01*
X030013Y036425D01*
X029901Y036378D01*
X029814Y036292D01*
X029768Y036179D01*
X029768Y035663D01*
X029814Y035551D01*
X029901Y035464D01*
X030013Y035418D01*
X030135Y035418D01*
X030248Y035464D01*
X030284Y035500D01*
X030434Y035350D01*
X029058Y035350D01*
X029058Y035399D01*
X029067Y035418D01*
X029058Y035439D01*
X029058Y035486D01*
X029028Y035516D01*
X029003Y035583D01*
X029005Y035592D01*
X029000Y035602D01*
X029000Y035615D01*
X029027Y035551D01*
X029113Y035464D01*
X029226Y035418D01*
X029348Y035418D01*
X029461Y035464D01*
X029547Y035551D01*
X029594Y035663D01*
X029594Y036179D01*
X029547Y036292D01*
X029461Y036378D01*
X029348Y036425D01*
X029226Y036425D01*
X029113Y036378D01*
X029027Y036292D01*
X028980Y036179D01*
X028980Y035663D01*
X028988Y035645D01*
X028972Y035661D01*
X028961Y035689D01*
X028952Y035693D01*
X028948Y035702D01*
X028924Y035709D01*
X028912Y035721D01*
X028906Y035727D01*
X028806Y035827D01*
X028806Y036179D01*
X028760Y036292D01*
X028673Y036378D01*
X028561Y036425D01*
X028439Y036425D01*
X028326Y036378D01*
X028239Y036292D01*
X028193Y036179D01*
X028193Y035663D01*
X028239Y035551D01*
X028326Y035464D01*
X028439Y035418D01*
X028561Y035418D01*
X028642Y035451D01*
X028642Y035432D01*
X028633Y035402D01*
X028642Y035385D01*
X028642Y035350D01*
X027245Y035350D01*
X027308Y035414D01*
X027308Y035586D01*
X027253Y035642D01*
X027246Y035661D01*
X027232Y035668D01*
X027232Y036179D01*
X027185Y036292D01*
X027099Y036378D01*
X026986Y036425D01*
X026864Y036425D01*
X026751Y036378D01*
X026742Y036370D01*
X026395Y036717D01*
X026407Y036728D01*
X026480Y036905D01*
X026480Y037095D01*
X026407Y037272D01*
X026327Y037352D01*
X026673Y037352D01*
X026593Y037272D01*
X026520Y037095D01*
X026520Y036905D01*
X026593Y036728D01*
X026728Y036593D01*
X026905Y036520D01*
X027095Y036520D01*
X027272Y036593D01*
X027407Y036728D01*
X027480Y036905D01*
X027480Y037095D01*
X027407Y037272D01*
X027327Y037352D01*
X028673Y037352D01*
X028593Y037272D01*
X028520Y037095D01*
X028520Y036905D01*
X028593Y036728D01*
X028728Y036593D01*
X028905Y036520D01*
X029095Y036520D01*
X029272Y036593D01*
X029407Y036728D01*
X029480Y036905D01*
X029480Y037095D01*
X029407Y037272D01*
X029327Y037352D01*
X029673Y037352D01*
X029593Y037272D01*
X029520Y037095D01*
X029520Y036905D01*
X029593Y036728D01*
X029728Y036593D01*
X029905Y036520D01*
X030095Y036520D01*
X030272Y036593D01*
X030407Y036728D01*
X030480Y036905D01*
X030480Y037095D01*
X030407Y037272D01*
X030327Y037352D01*
X030673Y037352D01*
X030593Y037272D01*
X030520Y037095D01*
X030520Y036905D01*
X030593Y036728D01*
X030728Y036593D01*
X030905Y036520D01*
X031095Y036520D01*
X031272Y036593D01*
X031407Y036728D01*
X031480Y036905D01*
X031480Y037095D01*
X031407Y037272D01*
X031327Y037352D01*
X031673Y037352D01*
X031593Y037272D01*
X031520Y037095D01*
X031520Y036905D01*
X031593Y036728D01*
X031728Y036593D01*
X031905Y036520D01*
X032095Y036520D01*
X032202Y036564D01*
X031950Y036312D01*
X031950Y035162D01*
X031741Y034953D01*
X031695Y035000D01*
X031758Y035064D01*
X031758Y035236D01*
X031703Y035292D01*
X031696Y035311D01*
X031672Y035322D01*
X031696Y035311D02*
X031696Y035311D01*
X031696Y035311D01*
X031758Y035237D02*
X031950Y035237D01*
X031926Y035138D02*
X031758Y035138D01*
X031734Y035040D02*
X031827Y035040D01*
X031950Y035434D02*
X031479Y035434D01*
X031380Y035532D02*
X031950Y035532D01*
X031950Y035631D02*
X030577Y035631D01*
X030479Y035729D02*
X031950Y035729D01*
X031950Y035828D02*
X030381Y035828D01*
X030381Y035926D02*
X031950Y035926D01*
X031950Y036025D02*
X030381Y036025D01*
X030381Y036123D02*
X031950Y036123D01*
X031950Y036222D02*
X030364Y036222D01*
X030306Y036320D02*
X031958Y036320D01*
X032056Y036419D02*
X030151Y036419D01*
X029998Y036419D02*
X029364Y036419D01*
X029210Y036419D02*
X028576Y036419D01*
X028423Y036419D02*
X027789Y036419D01*
X027773Y036425D02*
X027886Y036378D01*
X027972Y036292D01*
X028019Y036179D01*
X028019Y035663D01*
X027972Y035551D01*
X027886Y035464D01*
X027773Y035418D01*
X027651Y035418D01*
X027538Y035464D01*
X027452Y035551D01*
X027405Y035663D01*
X027405Y036179D01*
X027452Y036292D01*
X027538Y036378D01*
X027651Y036425D01*
X027773Y036425D01*
X027636Y036419D02*
X027001Y036419D01*
X026848Y036419D02*
X026694Y036419D01*
X026595Y036517D02*
X032155Y036517D01*
X032436Y036798D02*
X032480Y036905D01*
X032480Y037095D01*
X032407Y037272D01*
X032327Y037352D01*
X032673Y037352D01*
X032593Y037272D01*
X032520Y037095D01*
X032520Y036905D01*
X032527Y036889D01*
X032436Y036798D01*
X032442Y036813D02*
X032450Y036813D01*
X032480Y036911D02*
X032520Y036911D01*
X032520Y037010D02*
X032480Y037010D01*
X032475Y037108D02*
X032525Y037108D01*
X032566Y037207D02*
X032434Y037207D01*
X032374Y037305D02*
X032626Y037305D01*
X031626Y037305D02*
X031374Y037305D01*
X031434Y037207D02*
X031566Y037207D01*
X031525Y037108D02*
X031475Y037108D01*
X031480Y037010D02*
X031520Y037010D01*
X031520Y036911D02*
X031480Y036911D01*
X031442Y036813D02*
X031558Y036813D01*
X031607Y036714D02*
X031393Y036714D01*
X031294Y036616D02*
X031706Y036616D01*
X032678Y036616D02*
X032706Y036616D01*
X033929Y036517D02*
X034305Y036517D01*
X034294Y036616D02*
X034403Y036616D01*
X035294Y036616D02*
X035403Y036616D01*
X035393Y036714D02*
X035502Y036714D01*
X035558Y036813D02*
X035442Y036813D01*
X035480Y036911D02*
X035520Y036911D01*
X035520Y037010D02*
X035480Y037010D01*
X035475Y037108D02*
X035525Y037108D01*
X035566Y037207D02*
X035434Y037207D01*
X035374Y037305D02*
X035626Y037305D01*
X036327Y037352D02*
X036673Y037352D01*
X036593Y037272D01*
X036520Y037095D01*
X036520Y036905D01*
X036570Y036783D01*
X035988Y036200D01*
X035412Y036200D01*
X035783Y036570D01*
X035905Y036520D01*
X036095Y036520D01*
X036272Y036593D01*
X036407Y036728D01*
X036480Y036905D01*
X036480Y037095D01*
X036407Y037272D01*
X036327Y037352D01*
X036374Y037305D02*
X036626Y037305D01*
X036566Y037207D02*
X036434Y037207D01*
X036475Y037108D02*
X036525Y037108D01*
X036520Y037010D02*
X036480Y037010D01*
X036480Y036911D02*
X036520Y036911D01*
X036558Y036813D02*
X036442Y036813D01*
X036393Y036714D02*
X036502Y036714D01*
X036403Y036616D02*
X036294Y036616D01*
X036305Y036517D02*
X035729Y036517D01*
X035631Y036419D02*
X036206Y036419D01*
X036108Y036320D02*
X035532Y036320D01*
X035434Y036222D02*
X036009Y036222D01*
X036237Y036025D02*
X038352Y036025D01*
X038352Y036123D02*
X036335Y036123D01*
X036434Y036222D02*
X038352Y036222D01*
X038352Y036320D02*
X036532Y036320D01*
X036631Y036419D02*
X038352Y036419D01*
X038352Y036517D02*
X036729Y036517D01*
X037294Y036616D02*
X038352Y036616D01*
X038352Y036714D02*
X037393Y036714D01*
X037442Y036813D02*
X038352Y036813D01*
X038352Y036911D02*
X037480Y036911D01*
X037480Y037010D02*
X038352Y037010D01*
X038352Y037108D02*
X037475Y037108D01*
X037434Y037207D02*
X038352Y037207D01*
X038352Y037305D02*
X037374Y037305D01*
X038352Y035926D02*
X036138Y035926D01*
X036273Y035631D02*
X035541Y035631D01*
X035550Y035532D02*
X036273Y035532D01*
X036273Y035434D02*
X035550Y035434D01*
X035527Y035335D02*
X036273Y035335D01*
X036273Y035237D02*
X035486Y035237D01*
X035416Y035138D02*
X036273Y035138D01*
X036273Y035040D02*
X035317Y035040D01*
X036273Y034941D02*
X032953Y034941D01*
X032855Y034843D02*
X036273Y034843D01*
X035500Y035729D02*
X038352Y035729D01*
X038352Y035828D02*
X035450Y035828D01*
X031435Y034647D02*
X030988Y034200D01*
X030188Y034200D01*
X030100Y034112D01*
X029538Y033550D01*
X029295Y033550D01*
X029286Y033558D01*
X029114Y033558D01*
X028992Y033436D01*
X028992Y033264D01*
X029097Y033159D01*
X029088Y033150D01*
X027828Y033150D01*
X027825Y033153D01*
X027815Y033152D01*
X027749Y033200D01*
X027735Y033209D01*
X027686Y033258D01*
X027628Y033258D01*
X027628Y033335D01*
X027629Y033339D01*
X027628Y033340D01*
X027628Y033366D01*
X027584Y033411D01*
X027563Y033444D01*
X027535Y033488D01*
X027536Y033498D01*
X027530Y033505D01*
X027530Y033722D01*
X026470Y034782D01*
X026470Y034948D01*
X026668Y034750D01*
X030788Y034750D01*
X030838Y034700D01*
X031088Y034700D01*
X031138Y034650D01*
X031368Y034650D01*
X031417Y034642D01*
X031425Y034648D01*
X031435Y034647D01*
X031433Y034646D02*
X031422Y034646D01*
X031395Y034646D02*
X026607Y034646D01*
X026508Y034744D02*
X030794Y034744D01*
X031138Y034350D02*
X026902Y034350D01*
X026804Y034449D02*
X031236Y034449D01*
X031335Y034547D02*
X026705Y034547D01*
X026575Y034843D02*
X026470Y034843D01*
X026470Y034941D02*
X026477Y034941D01*
X027001Y034252D02*
X031039Y034252D01*
X030141Y034153D02*
X027099Y034153D01*
X027198Y034055D02*
X030042Y034055D01*
X029944Y033956D02*
X027296Y033956D01*
X027395Y033858D02*
X029845Y033858D01*
X029747Y033759D02*
X027493Y033759D01*
X027530Y033661D02*
X029648Y033661D01*
X029550Y033562D02*
X027530Y033562D01*
X027551Y033464D02*
X029019Y033464D01*
X028992Y033365D02*
X027628Y033365D01*
X027628Y033267D02*
X028992Y033267D01*
X029087Y033168D02*
X027793Y033168D01*
X026750Y033323D02*
X026750Y033368D01*
X026038Y034080D01*
X025310Y034080D01*
X025310Y032960D01*
X026172Y032960D01*
X026224Y033013D01*
X026290Y033040D01*
X026290Y033112D01*
X026337Y033226D01*
X026424Y033313D01*
X026538Y033360D01*
X026662Y033360D01*
X026750Y033323D01*
X026750Y033365D02*
X025310Y033365D01*
X025310Y033267D02*
X026378Y033267D01*
X026313Y033168D02*
X025310Y033168D01*
X025310Y033070D02*
X026290Y033070D01*
X026183Y032971D02*
X025310Y032971D01*
X025310Y033464D02*
X026654Y033464D01*
X026556Y033562D02*
X025310Y033562D01*
X025310Y033661D02*
X026457Y033661D01*
X026359Y033759D02*
X025310Y033759D01*
X025310Y033858D02*
X026260Y033858D01*
X026162Y033956D02*
X025310Y033956D01*
X025310Y034055D02*
X026063Y034055D01*
X025575Y035400D02*
X025262Y035400D01*
X025100Y035562D01*
X025100Y036312D01*
X025012Y036400D01*
X024883Y036529D01*
X024905Y036520D01*
X025095Y036520D01*
X025217Y036570D01*
X025350Y036438D01*
X025350Y036438D01*
X025438Y036350D01*
X025935Y036350D01*
X025877Y036292D01*
X025831Y036179D01*
X025831Y035718D01*
X025674Y035718D01*
X025552Y035596D01*
X025552Y035424D01*
X025575Y035400D01*
X025552Y035434D02*
X025229Y035434D01*
X025130Y035532D02*
X025552Y035532D01*
X025586Y035631D02*
X025100Y035631D01*
X025100Y035729D02*
X025831Y035729D01*
X025831Y035828D02*
X025100Y035828D01*
X025100Y035926D02*
X025831Y035926D01*
X025831Y036025D02*
X025100Y036025D01*
X025100Y036123D02*
X025831Y036123D01*
X025848Y036222D02*
X025100Y036222D01*
X025092Y036320D02*
X025905Y036320D01*
X025671Y036650D02*
X025562Y036650D01*
X025430Y036783D01*
X025480Y036905D01*
X025480Y037095D01*
X025407Y037272D01*
X025327Y037352D01*
X025673Y037352D01*
X025593Y037272D01*
X025520Y037095D01*
X025520Y036905D01*
X025593Y036728D01*
X025671Y036650D01*
X025607Y036714D02*
X025498Y036714D01*
X025442Y036813D02*
X025558Y036813D01*
X025520Y036911D02*
X025480Y036911D01*
X025480Y037010D02*
X025520Y037010D01*
X025525Y037108D02*
X025475Y037108D01*
X025434Y037207D02*
X025566Y037207D01*
X025626Y037305D02*
X025374Y037305D01*
X024673Y037352D02*
X024593Y037272D01*
X024520Y037095D01*
X024520Y036905D01*
X024593Y036728D01*
X024711Y036610D01*
X024289Y036610D01*
X024407Y036728D01*
X024480Y036905D01*
X024480Y037095D01*
X024407Y037272D01*
X024327Y037352D01*
X024673Y037352D01*
X024626Y037305D02*
X024374Y037305D01*
X024434Y037207D02*
X024566Y037207D01*
X024525Y037108D02*
X024475Y037108D01*
X024480Y037010D02*
X024520Y037010D01*
X024520Y036911D02*
X024480Y036911D01*
X024442Y036813D02*
X024558Y036813D01*
X024607Y036714D02*
X024393Y036714D01*
X024294Y036616D02*
X024706Y036616D01*
X024895Y036517D02*
X025271Y036517D01*
X025369Y036419D02*
X024994Y036419D01*
X025012Y036400D02*
X025012Y036400D01*
X026398Y036714D02*
X026607Y036714D01*
X026558Y036813D02*
X026442Y036813D01*
X026480Y036911D02*
X026520Y036911D01*
X026520Y037010D02*
X026480Y037010D01*
X026475Y037108D02*
X026525Y037108D01*
X026566Y037207D02*
X026434Y037207D01*
X026374Y037305D02*
X026626Y037305D01*
X027374Y037305D02*
X028626Y037305D01*
X028566Y037207D02*
X027434Y037207D01*
X027475Y037108D02*
X028525Y037108D01*
X028520Y037010D02*
X027480Y037010D01*
X027480Y036911D02*
X028520Y036911D01*
X028558Y036813D02*
X027442Y036813D01*
X027393Y036714D02*
X028607Y036714D01*
X028706Y036616D02*
X027294Y036616D01*
X027157Y036320D02*
X027480Y036320D01*
X027423Y036222D02*
X027214Y036222D01*
X027232Y036123D02*
X027405Y036123D01*
X027405Y036025D02*
X027232Y036025D01*
X027232Y035926D02*
X027405Y035926D01*
X027405Y035828D02*
X027232Y035828D01*
X027232Y035729D02*
X027405Y035729D01*
X027419Y035631D02*
X027264Y035631D01*
X027246Y035661D02*
X027246Y035661D01*
X027246Y035661D01*
X027308Y035532D02*
X027471Y035532D01*
X027613Y035434D02*
X027308Y035434D01*
X027812Y035434D02*
X028400Y035434D01*
X028258Y035532D02*
X027954Y035532D01*
X028005Y035631D02*
X028206Y035631D01*
X028193Y035729D02*
X028019Y035729D01*
X028019Y035828D02*
X028193Y035828D01*
X028193Y035926D02*
X028019Y035926D01*
X028019Y036025D02*
X028193Y036025D01*
X028193Y036123D02*
X028019Y036123D01*
X028001Y036222D02*
X028210Y036222D01*
X028268Y036320D02*
X027944Y036320D01*
X028732Y036320D02*
X029055Y036320D01*
X028998Y036222D02*
X028789Y036222D01*
X028806Y036123D02*
X028980Y036123D01*
X028980Y036025D02*
X028806Y036025D01*
X028806Y035926D02*
X028980Y035926D01*
X028980Y035828D02*
X028806Y035828D01*
X028904Y035729D02*
X028980Y035729D01*
X028912Y035721D02*
X028912Y035721D01*
X028906Y035727D02*
X028906Y035727D01*
X029022Y035532D02*
X029045Y035532D01*
X029061Y035434D02*
X029187Y035434D01*
X029067Y035418D02*
X029067Y035418D01*
X029067Y035418D01*
X029387Y035434D02*
X029975Y035434D01*
X029833Y035532D02*
X029529Y035532D01*
X029580Y035631D02*
X029781Y035631D01*
X029768Y035729D02*
X029594Y035729D01*
X029594Y035828D02*
X029768Y035828D01*
X029768Y035926D02*
X029594Y035926D01*
X029594Y036025D02*
X029768Y036025D01*
X029768Y036123D02*
X029594Y036123D01*
X029576Y036222D02*
X029785Y036222D01*
X029842Y036320D02*
X029519Y036320D01*
X029706Y036616D02*
X029294Y036616D01*
X029393Y036714D02*
X029607Y036714D01*
X029558Y036813D02*
X029442Y036813D01*
X029480Y036911D02*
X029520Y036911D01*
X029520Y037010D02*
X029480Y037010D01*
X029475Y037108D02*
X029525Y037108D01*
X029566Y037207D02*
X029434Y037207D01*
X029374Y037305D02*
X029626Y037305D01*
X030374Y037305D02*
X030626Y037305D01*
X030566Y037207D02*
X030434Y037207D01*
X030475Y037108D02*
X030525Y037108D01*
X030520Y037010D02*
X030480Y037010D01*
X030480Y036911D02*
X030520Y036911D01*
X030558Y036813D02*
X030442Y036813D01*
X030393Y036714D02*
X030607Y036714D01*
X030706Y036616D02*
X030294Y036616D01*
X030350Y035434D02*
X030174Y035434D01*
X028642Y035434D02*
X028599Y035434D01*
X028633Y035402D02*
X028633Y035402D01*
X028633Y035402D01*
X026706Y036616D02*
X026497Y036616D01*
X023533Y036310D02*
X023515Y036292D01*
X023468Y036179D01*
X023468Y035663D01*
X023478Y035640D01*
X023463Y035625D01*
X023443Y035606D01*
X023417Y035596D01*
X023413Y035588D01*
X023365Y035565D01*
X023352Y035558D01*
X023314Y035558D01*
X023278Y035522D01*
X023254Y035511D01*
X023251Y035502D01*
X023230Y035515D01*
X023221Y035524D01*
X023248Y035551D01*
X023295Y035663D01*
X023295Y036179D01*
X023248Y036292D01*
X023162Y036378D01*
X023049Y036425D01*
X022927Y036425D01*
X022814Y036378D01*
X022728Y036292D01*
X022681Y036179D01*
X022681Y035663D01*
X022728Y035551D01*
X022814Y035464D01*
X022838Y035454D01*
X022838Y035400D01*
X022873Y035365D01*
X022892Y035313D01*
X022892Y035264D01*
X022895Y035260D01*
X021207Y035260D01*
X021210Y035263D01*
X021210Y035493D01*
X021239Y035464D01*
X021352Y035418D01*
X021474Y035418D01*
X021587Y035464D01*
X021673Y035551D01*
X021720Y035663D01*
X021720Y036179D01*
X021673Y036292D01*
X021587Y036378D01*
X021474Y036425D01*
X021352Y036425D01*
X021239Y036378D01*
X021210Y036349D01*
X021210Y036567D01*
X021272Y036593D01*
X021407Y036728D01*
X021480Y036905D01*
X021480Y037095D01*
X021407Y037272D01*
X021327Y037352D01*
X021673Y037352D01*
X021593Y037272D01*
X021520Y037095D01*
X021520Y036905D01*
X021593Y036728D01*
X021728Y036593D01*
X021905Y036520D01*
X022095Y036520D01*
X022272Y036593D01*
X022407Y036728D01*
X022480Y036905D01*
X022480Y037095D01*
X022407Y037272D01*
X022327Y037352D01*
X022673Y037352D01*
X022593Y037272D01*
X022520Y037095D01*
X022520Y036905D01*
X022593Y036728D01*
X022728Y036593D01*
X022905Y036520D01*
X023095Y036520D01*
X023217Y036570D01*
X023390Y036398D01*
X023390Y036398D01*
X023478Y036310D01*
X023533Y036310D01*
X023468Y036320D02*
X023220Y036320D01*
X023277Y036222D02*
X023486Y036222D01*
X023468Y036123D02*
X023295Y036123D01*
X023295Y036025D02*
X023468Y036025D01*
X023468Y035926D02*
X023295Y035926D01*
X023295Y035828D02*
X023468Y035828D01*
X023468Y035729D02*
X023295Y035729D01*
X023281Y035631D02*
X023468Y035631D01*
X023365Y035565D02*
X023365Y035565D01*
X023287Y035532D02*
X023229Y035532D01*
X022884Y035335D02*
X021210Y035335D01*
X021210Y035434D02*
X021313Y035434D01*
X021513Y035434D02*
X022101Y035434D01*
X022139Y035418D02*
X022261Y035418D01*
X022374Y035464D01*
X022461Y035551D01*
X022507Y035663D01*
X022507Y036179D01*
X022461Y036292D01*
X022374Y036378D01*
X022261Y036425D01*
X022139Y036425D01*
X022027Y036378D01*
X021940Y036292D01*
X021894Y036179D01*
X021894Y035663D01*
X021940Y035551D01*
X022027Y035464D01*
X022139Y035418D01*
X022300Y035434D02*
X022838Y035434D01*
X022746Y035532D02*
X022442Y035532D01*
X022494Y035631D02*
X022695Y035631D01*
X022681Y035729D02*
X022507Y035729D01*
X022507Y035828D02*
X022681Y035828D01*
X022681Y035926D02*
X022507Y035926D01*
X022507Y036025D02*
X022681Y036025D01*
X022681Y036123D02*
X022507Y036123D01*
X022490Y036222D02*
X022699Y036222D01*
X022756Y036320D02*
X022432Y036320D01*
X022277Y036419D02*
X022911Y036419D01*
X023064Y036419D02*
X023369Y036419D01*
X023271Y036517D02*
X021210Y036517D01*
X021210Y036419D02*
X021336Y036419D01*
X021490Y036419D02*
X022124Y036419D01*
X021968Y036320D02*
X021645Y036320D01*
X021702Y036222D02*
X021911Y036222D01*
X021894Y036123D02*
X021720Y036123D01*
X021720Y036025D02*
X021894Y036025D01*
X021894Y035926D02*
X021720Y035926D01*
X021720Y035828D02*
X021894Y035828D01*
X021894Y035729D02*
X021720Y035729D01*
X021706Y035631D02*
X021907Y035631D01*
X021959Y035532D02*
X021655Y035532D01*
X020790Y035460D02*
X020790Y035263D01*
X020793Y035260D01*
X020138Y035260D01*
X020024Y035213D01*
X019988Y035177D01*
X019988Y035216D01*
X019970Y035235D01*
X019970Y035236D01*
X019927Y035278D01*
X019927Y035278D01*
X019866Y035338D01*
X019865Y035338D01*
X019844Y035359D01*
X019842Y035369D01*
X019801Y035401D01*
X019785Y035418D01*
X019899Y035418D01*
X020012Y035464D01*
X020098Y035551D01*
X020145Y035663D01*
X020145Y036179D01*
X020098Y036292D01*
X020012Y036378D01*
X019899Y036425D01*
X019777Y036425D01*
X019664Y036378D01*
X019600Y036314D01*
X019600Y036612D01*
X019430Y036783D01*
X019480Y036905D01*
X019480Y037095D01*
X019407Y037272D01*
X019327Y037352D01*
X019673Y037352D01*
X019593Y037272D01*
X019520Y037095D01*
X019520Y036905D01*
X019593Y036728D01*
X019728Y036593D01*
X019905Y036520D01*
X020095Y036520D01*
X020272Y036593D01*
X020407Y036728D01*
X020480Y036905D01*
X020480Y037095D01*
X020407Y037272D01*
X020327Y037352D01*
X020673Y037352D01*
X020593Y037272D01*
X020520Y037095D01*
X020520Y036905D01*
X020593Y036728D01*
X020728Y036593D01*
X020790Y036567D01*
X020790Y036382D01*
X020687Y036425D01*
X020565Y036425D01*
X020452Y036378D01*
X020365Y036292D01*
X020319Y036179D01*
X020319Y035663D01*
X020365Y035551D01*
X020452Y035464D01*
X020565Y035418D01*
X020687Y035418D01*
X020790Y035460D01*
X020790Y035434D02*
X020725Y035434D01*
X020790Y035335D02*
X019870Y035335D01*
X019938Y035434D02*
X020526Y035434D01*
X020384Y035532D02*
X020080Y035532D01*
X020131Y035631D02*
X020332Y035631D01*
X020319Y035729D02*
X020145Y035729D01*
X020145Y035828D02*
X020319Y035828D01*
X020319Y035926D02*
X020145Y035926D01*
X020145Y036025D02*
X020319Y036025D01*
X020319Y036123D02*
X020145Y036123D01*
X020127Y036222D02*
X020336Y036222D01*
X020394Y036320D02*
X020070Y036320D01*
X019915Y036419D02*
X020549Y036419D01*
X020702Y036419D02*
X020790Y036419D01*
X020790Y036517D02*
X019600Y036517D01*
X019600Y036419D02*
X019762Y036419D01*
X019606Y036320D02*
X019600Y036320D01*
X019597Y036616D02*
X019706Y036616D01*
X019607Y036714D02*
X019498Y036714D01*
X019442Y036813D02*
X019558Y036813D01*
X019520Y036911D02*
X019480Y036911D01*
X019480Y037010D02*
X019520Y037010D01*
X019525Y037108D02*
X019475Y037108D01*
X019434Y037207D02*
X019566Y037207D01*
X019626Y037305D02*
X019374Y037305D01*
X018673Y037352D02*
X018593Y037272D01*
X018520Y037095D01*
X018520Y036905D01*
X018593Y036728D01*
X018728Y036593D01*
X018905Y036520D01*
X019095Y036520D01*
X019217Y036570D01*
X019300Y036488D01*
X019300Y036303D01*
X019225Y036378D01*
X019112Y036425D01*
X018990Y036425D01*
X018877Y036378D01*
X018797Y036298D01*
X018686Y036408D01*
X018514Y036408D01*
X018460Y036355D01*
X018437Y036378D01*
X018324Y036425D01*
X018202Y036425D01*
X018090Y036378D01*
X018003Y036292D01*
X017957Y036179D01*
X017957Y035663D01*
X018003Y035551D01*
X018090Y035464D01*
X018202Y035418D01*
X018324Y035418D01*
X018437Y035464D01*
X018524Y035551D01*
X018570Y035663D01*
X018570Y035949D01*
X018583Y035954D01*
X018587Y035962D01*
X018648Y035992D01*
X018686Y035992D01*
X018722Y036028D01*
X018744Y036038D01*
X018744Y035663D01*
X018791Y035551D01*
X018877Y035464D01*
X018901Y035454D01*
X018901Y035397D01*
X018893Y035387D01*
X018895Y035377D01*
X018890Y035369D01*
X018901Y035327D01*
X018901Y035237D01*
X018933Y035205D01*
X018942Y035173D01*
X018942Y035114D01*
X018963Y035092D01*
X018964Y035090D01*
X018964Y035087D01*
X018974Y035081D01*
X019064Y034992D01*
X019236Y034992D01*
X019358Y035114D01*
X019358Y035286D01*
X019326Y035319D01*
X019324Y035330D01*
X019289Y035356D01*
X019287Y035358D01*
X019236Y035408D01*
X019219Y035408D01*
X019201Y035422D01*
X019201Y035454D01*
X019225Y035464D01*
X019300Y035540D01*
X019300Y035478D01*
X019551Y035227D01*
X019552Y035226D01*
X019552Y035225D01*
X019559Y035218D01*
X019572Y035117D01*
X019572Y035044D01*
X019694Y034922D01*
X019733Y034922D01*
X019558Y034747D01*
X019558Y034766D01*
X019497Y034827D01*
X019490Y034847D01*
X019469Y034856D01*
X019436Y034888D01*
X019393Y034888D01*
X019327Y034917D01*
X019323Y034925D01*
X019314Y034928D01*
X019292Y034950D01*
X019251Y034950D01*
X019222Y034962D01*
X019213Y034959D01*
X019204Y034962D01*
X019182Y034950D01*
X017872Y034950D01*
X017754Y035068D01*
X017736Y035111D01*
X017650Y035197D01*
X017537Y035244D01*
X017056Y035244D01*
X017056Y035295D01*
X017009Y035408D01*
X016923Y035494D01*
X016811Y035541D01*
X016689Y035541D01*
X016648Y035524D01*
X016648Y037352D01*
X017673Y037352D01*
X017593Y037272D01*
X017520Y037095D01*
X017520Y036905D01*
X017593Y036728D01*
X017728Y036593D01*
X017905Y036520D01*
X018095Y036520D01*
X018272Y036593D01*
X018407Y036728D01*
X018480Y036905D01*
X018480Y037095D01*
X018407Y037272D01*
X018327Y037352D01*
X018673Y037352D01*
X018626Y037305D02*
X018374Y037305D01*
X018434Y037207D02*
X018566Y037207D01*
X018525Y037108D02*
X018475Y037108D01*
X018480Y037010D02*
X018520Y037010D01*
X018520Y036911D02*
X018480Y036911D01*
X018442Y036813D02*
X018558Y036813D01*
X018607Y036714D02*
X018393Y036714D01*
X018294Y036616D02*
X018706Y036616D01*
X018775Y036320D02*
X018819Y036320D01*
X018974Y036419D02*
X018340Y036419D01*
X018187Y036419D02*
X016648Y036419D01*
X016648Y036517D02*
X019271Y036517D01*
X019300Y036419D02*
X019127Y036419D01*
X019283Y036320D02*
X019300Y036320D01*
X019051Y035921D02*
X019050Y035920D01*
X018744Y035926D02*
X018570Y035926D01*
X018570Y035828D02*
X018744Y035828D01*
X018744Y035729D02*
X018570Y035729D01*
X018557Y035631D02*
X018758Y035631D01*
X018809Y035532D02*
X018505Y035532D01*
X018363Y035434D02*
X018901Y035434D01*
X018899Y035335D02*
X017040Y035335D01*
X016984Y035434D02*
X018164Y035434D01*
X018022Y035532D02*
X016831Y035532D01*
X016669Y035532D02*
X016648Y035532D01*
X016648Y035631D02*
X017970Y035631D01*
X017957Y035729D02*
X016648Y035729D01*
X016648Y035828D02*
X017957Y035828D01*
X017957Y035926D02*
X016648Y035926D01*
X016648Y036025D02*
X017957Y036025D01*
X017957Y036123D02*
X016648Y036123D01*
X016648Y036222D02*
X017974Y036222D01*
X018031Y036320D02*
X016648Y036320D01*
X016648Y036616D02*
X017706Y036616D01*
X017607Y036714D02*
X016648Y036714D01*
X016648Y036813D02*
X017558Y036813D01*
X017520Y036911D02*
X016648Y036911D01*
X016648Y037010D02*
X017520Y037010D01*
X017525Y037108D02*
X016648Y037108D01*
X016648Y037207D02*
X017566Y037207D01*
X017626Y037305D02*
X016648Y037305D01*
X018263Y035921D02*
X018300Y035958D01*
X018719Y036025D02*
X018744Y036025D01*
X019292Y035532D02*
X019300Y035532D01*
X019344Y035434D02*
X019201Y035434D01*
X019318Y035335D02*
X019443Y035335D01*
X019324Y035330D02*
X019324Y035330D01*
X019324Y035330D01*
X019358Y035237D02*
X019541Y035237D01*
X019569Y035138D02*
X019358Y035138D01*
X019284Y035040D02*
X019576Y035040D01*
X019674Y034941D02*
X019301Y034941D01*
X019490Y034847D02*
X019490Y034847D01*
X019490Y034847D01*
X019491Y034843D02*
X019654Y034843D01*
X019970Y035236D02*
X019970Y035236D01*
X019970Y035236D01*
X019969Y035237D02*
X020082Y035237D01*
X020192Y034503D02*
X020192Y034464D01*
X020314Y034342D01*
X020486Y034342D01*
X020519Y034375D01*
X020531Y034376D01*
X020531Y034376D01*
X020549Y034401D01*
X020558Y034414D01*
X020608Y034464D01*
X020608Y034482D01*
X020622Y034500D01*
X021988Y034500D01*
X021994Y034493D01*
X022004Y034467D01*
X022012Y034463D01*
X022042Y034402D01*
X022042Y034364D01*
X022078Y034328D01*
X022086Y034311D01*
X022089Y034304D01*
X022108Y034297D01*
X022164Y034242D01*
X022336Y034242D01*
X022458Y034364D01*
X022458Y034536D01*
X022403Y034592D01*
X022396Y034611D01*
X022372Y034622D01*
X022355Y034640D01*
X022843Y034640D01*
X022413Y034210D01*
X021083Y034210D01*
X020823Y033950D01*
X020700Y033827D01*
X020700Y033353D01*
X020940Y033113D01*
X020940Y031960D01*
X020663Y031960D01*
X020650Y031947D01*
X020650Y033468D01*
X020658Y033517D01*
X020652Y033525D01*
X020654Y033559D01*
X020658Y033564D01*
X020658Y033645D01*
X020659Y033656D01*
X020661Y033702D01*
X020658Y033705D01*
X020658Y033736D01*
X020536Y033858D01*
X020364Y033858D01*
X020242Y033736D01*
X020242Y033564D01*
X020291Y033515D01*
X020348Y033435D01*
X020347Y033425D01*
X020350Y033422D01*
X020350Y032772D01*
X020270Y032852D01*
X020182Y032940D01*
X020041Y032940D01*
X020016Y032952D01*
X020007Y032949D01*
X019944Y032971D01*
X020350Y032971D01*
X020350Y032873D02*
X020250Y032873D01*
X020348Y032774D02*
X020350Y032774D01*
X020350Y033070D02*
X018758Y033070D01*
X018856Y033168D02*
X020350Y033168D01*
X020350Y033267D02*
X018955Y033267D01*
X019053Y033365D02*
X020350Y033365D01*
X020327Y033464D02*
X019152Y033464D01*
X019250Y033562D02*
X020243Y033562D01*
X020242Y033661D02*
X019349Y033661D01*
X019447Y033759D02*
X020264Y033759D01*
X020363Y033858D02*
X019546Y033858D01*
X019644Y033956D02*
X020829Y033956D01*
X020731Y033858D02*
X020537Y033858D01*
X020636Y033759D02*
X020700Y033759D01*
X020661Y033702D02*
X020661Y033702D01*
X020661Y033702D01*
X020659Y033661D02*
X020700Y033661D01*
X020700Y033562D02*
X020657Y033562D01*
X020650Y033464D02*
X020700Y033464D01*
X020700Y033365D02*
X020650Y033365D01*
X020650Y033267D02*
X020786Y033267D01*
X020885Y033168D02*
X020650Y033168D01*
X020650Y033070D02*
X020940Y033070D01*
X020940Y032971D02*
X020650Y032971D01*
X020650Y032873D02*
X020940Y032873D01*
X020940Y032774D02*
X020650Y032774D01*
X020650Y032676D02*
X020940Y032676D01*
X020940Y032577D02*
X020650Y032577D01*
X020650Y032479D02*
X020940Y032479D01*
X020940Y032380D02*
X020650Y032380D01*
X020650Y032282D02*
X020940Y032282D01*
X020940Y032183D02*
X020650Y032183D01*
X020650Y032085D02*
X020940Y032085D01*
X020940Y031986D02*
X020650Y031986D01*
X020200Y031986D02*
X018350Y031986D01*
X018350Y031888D02*
X020200Y031888D01*
X020200Y031789D02*
X018350Y031789D01*
X018350Y031691D02*
X020200Y031691D01*
X020200Y031592D02*
X018350Y031592D01*
X018350Y031494D02*
X020214Y031494D01*
X020200Y031508D02*
X020288Y031420D01*
X020508Y031200D01*
X022338Y031200D01*
X022550Y030988D01*
X022550Y030988D01*
X022638Y030900D01*
X023138Y030900D01*
X023688Y030350D01*
X023822Y030350D01*
X023825Y030347D01*
X023835Y030348D01*
X023915Y030291D01*
X023964Y030242D01*
X024136Y030242D01*
X024258Y030364D01*
X024258Y030500D01*
X024988Y030500D01*
X025738Y029750D01*
X026288Y029750D01*
X026450Y029588D01*
X026450Y028262D01*
X025988Y027800D01*
X025609Y027800D01*
X025655Y027846D01*
X025710Y027978D01*
X025710Y028122D01*
X025655Y028254D01*
X025554Y028355D01*
X025422Y028410D01*
X021049Y028410D01*
X020710Y028749D01*
X020710Y028863D01*
X020810Y028963D01*
X020810Y029137D01*
X020610Y029337D01*
X020487Y029460D01*
X020478Y029460D01*
X020276Y029663D01*
X020162Y029710D01*
X019028Y029710D01*
X018660Y030078D01*
X018660Y030462D01*
X018613Y030576D01*
X018350Y030838D01*
X018350Y032662D01*
X020192Y034503D01*
X020207Y034449D02*
X020137Y034449D01*
X020038Y034350D02*
X020305Y034350D01*
X020495Y034350D02*
X022055Y034350D01*
X022019Y034449D02*
X020593Y034449D01*
X020531Y034376D02*
X020531Y034376D01*
X020928Y034055D02*
X019743Y034055D01*
X019841Y034153D02*
X021026Y034153D01*
X021257Y033790D02*
X021120Y033653D01*
X021120Y033527D01*
X021360Y033287D01*
X021360Y031960D01*
X022300Y031960D01*
X022300Y032812D01*
X022585Y033097D01*
X022588Y033100D01*
X022592Y033204D01*
X022592Y033286D01*
X022714Y033408D01*
X022850Y033408D01*
X022850Y033642D01*
X022714Y033642D01*
X022592Y033764D01*
X022592Y033795D01*
X022587Y033790D01*
X021257Y033790D01*
X021226Y033759D02*
X022596Y033759D01*
X022695Y033661D02*
X021128Y033661D01*
X021120Y033562D02*
X022850Y033562D01*
X022850Y033464D02*
X021183Y033464D01*
X021282Y033365D02*
X022670Y033365D01*
X022592Y033267D02*
X021360Y033267D01*
X021360Y033168D02*
X022590Y033168D01*
X022557Y033070D02*
X021360Y033070D01*
X021360Y032971D02*
X022459Y032971D01*
X022360Y032873D02*
X021360Y032873D01*
X021360Y032774D02*
X022300Y032774D01*
X022300Y032676D02*
X021360Y032676D01*
X021360Y032577D02*
X022300Y032577D01*
X022300Y032479D02*
X021360Y032479D01*
X021360Y032380D02*
X022300Y032380D01*
X022300Y032282D02*
X021360Y032282D01*
X021360Y032183D02*
X022300Y032183D01*
X022300Y032085D02*
X021360Y032085D01*
X021360Y031986D02*
X022300Y031986D01*
X023150Y031986D02*
X024060Y031986D01*
X024060Y031888D02*
X023150Y031888D01*
X023150Y031882D02*
X023150Y032042D01*
X023236Y032042D01*
X023300Y032105D01*
X023364Y032042D01*
X023536Y032042D01*
X023658Y032164D01*
X023658Y032242D01*
X023667Y032260D01*
X023667Y032260D01*
X023667Y032260D01*
X023658Y032285D01*
X023658Y032336D01*
X023631Y032364D01*
X023609Y032427D01*
X023612Y032436D01*
X023600Y032461D01*
X023600Y032488D01*
X023750Y032638D01*
X023750Y033012D01*
X023718Y033044D01*
X023718Y033126D01*
X023596Y033248D01*
X023450Y033248D01*
X023450Y033502D01*
X023522Y033502D01*
X023540Y033493D01*
X023540Y033493D01*
X023540Y033493D01*
X023565Y033502D01*
X023616Y033502D01*
X023644Y033529D01*
X023707Y033551D01*
X023716Y033548D01*
X023741Y033560D01*
X023778Y033560D01*
X023838Y033500D01*
X024038Y033500D01*
X024060Y033478D01*
X024060Y031748D01*
X024438Y031370D01*
X025375Y031370D01*
X025292Y031286D01*
X025292Y031221D01*
X025262Y031250D01*
X024112Y031250D01*
X024050Y031312D01*
X024050Y031412D01*
X023962Y031500D01*
X023812Y031650D01*
X023688Y031650D01*
X023161Y031650D01*
X023161Y031658D01*
X023158Y031705D01*
X023158Y031786D01*
X023154Y031791D01*
X023152Y031825D01*
X023158Y031833D01*
X023150Y031882D01*
X023156Y031789D02*
X024060Y031789D01*
X024117Y031691D02*
X023159Y031691D01*
X023279Y032085D02*
X023321Y032085D01*
X023579Y032085D02*
X024060Y032085D01*
X024060Y032183D02*
X023658Y032183D01*
X023660Y032282D02*
X024060Y032282D01*
X024060Y032380D02*
X023625Y032380D01*
X023600Y032479D02*
X024060Y032479D01*
X024060Y032577D02*
X023689Y032577D01*
X023750Y032676D02*
X024060Y032676D01*
X024060Y032774D02*
X023750Y032774D01*
X023750Y032873D02*
X024060Y032873D01*
X024060Y032971D02*
X023750Y032971D01*
X023718Y033070D02*
X024060Y033070D01*
X024060Y033168D02*
X023677Y033168D01*
X023450Y033267D02*
X024060Y033267D01*
X024060Y033365D02*
X023450Y033365D01*
X023450Y033464D02*
X024060Y033464D01*
X022750Y034547D02*
X022448Y034547D01*
X022396Y034611D02*
X022396Y034611D01*
X022396Y034611D01*
X022458Y034449D02*
X022652Y034449D01*
X022553Y034350D02*
X022445Y034350D01*
X022455Y034252D02*
X022346Y034252D01*
X022154Y034252D02*
X019940Y034252D01*
X018821Y034414D02*
X017289Y032882D01*
X017021Y032882D01*
X016908Y032835D01*
X016822Y032749D01*
X016775Y032636D01*
X016775Y032514D01*
X016802Y032450D01*
X016648Y032450D01*
X016648Y034276D01*
X016689Y034259D01*
X016796Y034259D01*
X016775Y034211D01*
X016775Y034089D01*
X016822Y033976D01*
X016908Y033889D01*
X017021Y033843D01*
X017537Y033843D01*
X017650Y033889D01*
X017736Y033976D01*
X017783Y034089D01*
X017783Y034211D01*
X017736Y034323D01*
X017736Y034324D01*
X017862Y034450D01*
X018719Y034450D01*
X018744Y034438D01*
X018753Y034441D01*
X018816Y034419D01*
X018821Y034414D01*
X018757Y034350D02*
X017762Y034350D01*
X017766Y034252D02*
X018659Y034252D01*
X018560Y034153D02*
X017783Y034153D01*
X017769Y034055D02*
X018462Y034055D01*
X018363Y033956D02*
X017716Y033956D01*
X017573Y033858D02*
X018265Y033858D01*
X018166Y033759D02*
X016648Y033759D01*
X016648Y033661D02*
X018068Y033661D01*
X017969Y033562D02*
X016648Y033562D01*
X016648Y033464D02*
X017871Y033464D01*
X017772Y033365D02*
X016648Y033365D01*
X016648Y033267D02*
X017674Y033267D01*
X017575Y033168D02*
X016648Y033168D01*
X016648Y033070D02*
X017477Y033070D01*
X017378Y032971D02*
X016648Y032971D01*
X016648Y032873D02*
X016999Y032873D01*
X016848Y032774D02*
X016648Y032774D01*
X016648Y032676D02*
X016792Y032676D01*
X016775Y032577D02*
X016648Y032577D01*
X016648Y032479D02*
X016790Y032479D01*
X016648Y033858D02*
X016986Y033858D01*
X016842Y033956D02*
X016648Y033956D01*
X016648Y034055D02*
X016790Y034055D01*
X016775Y034153D02*
X016648Y034153D01*
X016648Y034252D02*
X016792Y034252D01*
X017861Y034449D02*
X018722Y034449D01*
X019016Y035040D02*
X017783Y035040D01*
X017709Y035138D02*
X018942Y035138D01*
X018901Y035237D02*
X017555Y035237D01*
X020294Y036616D02*
X020706Y036616D01*
X020607Y036714D02*
X020393Y036714D01*
X020442Y036813D02*
X020558Y036813D01*
X020520Y036911D02*
X020480Y036911D01*
X020480Y037010D02*
X020520Y037010D01*
X020525Y037108D02*
X020475Y037108D01*
X020434Y037207D02*
X020566Y037207D01*
X020626Y037305D02*
X020374Y037305D01*
X021374Y037305D02*
X021626Y037305D01*
X021566Y037207D02*
X021434Y037207D01*
X021475Y037108D02*
X021525Y037108D01*
X021520Y037010D02*
X021480Y037010D01*
X021480Y036911D02*
X021520Y036911D01*
X021558Y036813D02*
X021442Y036813D01*
X021393Y036714D02*
X021607Y036714D01*
X021706Y036616D02*
X021294Y036616D01*
X022294Y036616D02*
X022706Y036616D01*
X022607Y036714D02*
X022393Y036714D01*
X022442Y036813D02*
X022558Y036813D01*
X022520Y036911D02*
X022480Y036911D01*
X022480Y037010D02*
X022520Y037010D01*
X022525Y037108D02*
X022475Y037108D01*
X022434Y037207D02*
X022566Y037207D01*
X022626Y037305D02*
X022374Y037305D01*
X019916Y032998D02*
X019865Y032998D01*
X019840Y033007D01*
X019840Y033007D01*
X019840Y033007D01*
X019822Y032998D01*
X019744Y032998D01*
X019622Y032876D01*
X019622Y032704D01*
X019744Y032582D01*
X019822Y032582D01*
X019840Y032573D01*
X019865Y032582D01*
X019916Y032582D01*
X019944Y032609D01*
X020007Y032631D01*
X020016Y032628D01*
X020041Y032640D01*
X020058Y032640D01*
X020200Y032498D01*
X020200Y031508D01*
X020313Y031395D02*
X018350Y031395D01*
X018350Y031297D02*
X020411Y031297D01*
X020200Y032085D02*
X018350Y032085D01*
X018350Y032183D02*
X020200Y032183D01*
X020200Y032282D02*
X018350Y032282D01*
X018350Y032380D02*
X020200Y032380D01*
X020200Y032479D02*
X018350Y032479D01*
X018350Y032577D02*
X019831Y032577D01*
X019840Y032573D02*
X019840Y032573D01*
X019852Y032577D02*
X020121Y032577D01*
X019944Y032971D02*
X019916Y032998D01*
X019716Y032971D02*
X018659Y032971D01*
X018561Y032873D02*
X019622Y032873D01*
X019622Y032774D02*
X018462Y032774D01*
X018364Y032676D02*
X019650Y032676D01*
X018350Y031198D02*
X022340Y031198D01*
X022438Y031100D02*
X018350Y031100D01*
X018350Y031001D02*
X022537Y031001D01*
X022635Y030903D02*
X018350Y030903D01*
X018384Y030804D02*
X023234Y030804D01*
X023332Y030706D02*
X018483Y030706D01*
X018581Y030607D02*
X023431Y030607D01*
X023529Y030509D02*
X018641Y030509D01*
X018660Y030410D02*
X023628Y030410D01*
X023885Y030312D02*
X018660Y030312D01*
X018660Y030213D02*
X025275Y030213D01*
X025373Y030115D02*
X018660Y030115D01*
X018722Y030016D02*
X025472Y030016D01*
X025570Y029918D02*
X018821Y029918D01*
X018919Y029819D02*
X025669Y029819D01*
X026317Y029721D02*
X019018Y029721D01*
X018179Y028933D02*
X017566Y028933D01*
X017537Y028945D02*
X017021Y028945D01*
X016908Y028898D01*
X016822Y028812D01*
X016775Y028699D01*
X016775Y028577D01*
X016822Y028464D01*
X016908Y028378D01*
X017021Y028331D01*
X017537Y028331D01*
X017650Y028378D01*
X017736Y028464D01*
X017783Y028577D01*
X017783Y028699D01*
X017736Y028812D01*
X017650Y028898D01*
X017537Y028945D01*
X017714Y028834D02*
X018278Y028834D01*
X018376Y028736D02*
X017768Y028736D01*
X017783Y028637D02*
X018475Y028637D01*
X018537Y028574D02*
X018624Y028487D01*
X018738Y028440D01*
X017712Y028440D01*
X017767Y028539D02*
X018573Y028539D01*
X018537Y028574D02*
X017209Y029903D01*
X017101Y029903D01*
X017093Y029906D01*
X017021Y029906D01*
X016908Y029952D01*
X016822Y030039D01*
X016775Y030152D01*
X016775Y030274D01*
X016822Y030386D01*
X016908Y030473D01*
X016969Y030498D01*
X016969Y030715D01*
X016908Y030740D01*
X016822Y030826D01*
X016775Y030939D01*
X016775Y031061D01*
X016792Y031100D01*
X016648Y031100D01*
X016648Y027674D01*
X016689Y027691D01*
X016811Y027691D01*
X016818Y027688D01*
X016775Y027789D01*
X016775Y027911D01*
X016822Y028024D01*
X016908Y028111D01*
X017021Y028157D01*
X017537Y028157D01*
X017650Y028111D01*
X017710Y028050D01*
X020391Y028050D01*
X020146Y028295D01*
X020069Y028372D01*
X019987Y028290D01*
X019813Y028290D01*
X019663Y028440D01*
X018738Y028440D01*
X018081Y029031D02*
X016648Y029031D01*
X016648Y028933D02*
X016992Y028933D01*
X016845Y028834D02*
X016648Y028834D01*
X016648Y028736D02*
X016791Y028736D01*
X016775Y028637D02*
X016648Y028637D01*
X016648Y028539D02*
X016791Y028539D01*
X016846Y028440D02*
X016648Y028440D01*
X016648Y028342D02*
X016996Y028342D01*
X016991Y028145D02*
X016648Y028145D01*
X016648Y028243D02*
X020198Y028243D01*
X020146Y028295D02*
X020146Y028295D01*
X020099Y028342D02*
X020038Y028342D01*
X019762Y028342D02*
X017563Y028342D01*
X017568Y028145D02*
X020296Y028145D01*
X020822Y028637D02*
X026450Y028637D01*
X026450Y028539D02*
X020921Y028539D01*
X021019Y028440D02*
X026450Y028440D01*
X026450Y028342D02*
X025568Y028342D01*
X025660Y028243D02*
X026431Y028243D01*
X026332Y028145D02*
X025701Y028145D01*
X025710Y028046D02*
X026234Y028046D01*
X026135Y027948D02*
X025697Y027948D01*
X025656Y027849D02*
X026037Y027849D01*
X026450Y028736D02*
X020724Y028736D01*
X020710Y028834D02*
X026450Y028834D01*
X026450Y028933D02*
X020779Y028933D01*
X020810Y029031D02*
X026450Y029031D01*
X026450Y029130D02*
X020810Y029130D01*
X020719Y029228D02*
X026450Y029228D01*
X026450Y029327D02*
X020620Y029327D01*
X020522Y029425D02*
X026450Y029425D01*
X026450Y029524D02*
X020415Y029524D01*
X020316Y029622D02*
X026416Y029622D01*
X025176Y030312D02*
X024206Y030312D01*
X024258Y030410D02*
X025078Y030410D01*
X025302Y031297D02*
X024066Y031297D01*
X024050Y031395D02*
X024413Y031395D01*
X024314Y031494D02*
X023969Y031494D01*
X023870Y031592D02*
X024216Y031592D01*
X026208Y032303D02*
X026208Y032336D01*
X026205Y032340D01*
X026362Y032340D01*
X026476Y032387D01*
X026500Y032412D01*
X026737Y032174D01*
X026762Y032150D01*
X026522Y032150D01*
X026508Y032168D01*
X026508Y032186D01*
X026458Y032236D01*
X026431Y032274D01*
X026419Y032275D01*
X026386Y032308D01*
X026214Y032308D01*
X026208Y032303D01*
X026413Y032282D02*
X026630Y032282D01*
X026532Y032380D02*
X026458Y032380D01*
X026431Y032274D02*
X026431Y032274D01*
X026431Y032274D01*
X026508Y032183D02*
X026729Y032183D01*
X026737Y032174D02*
X026737Y032174D01*
X026465Y031115D02*
X026465Y031115D01*
X027500Y028093D02*
X027650Y027943D01*
X027659Y027917D01*
X027667Y027913D01*
X027697Y027852D01*
X027697Y027850D01*
X027462Y027850D01*
X027500Y027888D01*
X027500Y028093D01*
X027500Y028046D02*
X027547Y028046D01*
X027500Y027948D02*
X027645Y027948D01*
X028052Y028061D02*
X028052Y028061D01*
X028052Y028061D01*
X025878Y026450D02*
X025877Y026449D01*
X025831Y026337D01*
X025831Y025821D01*
X025877Y025708D01*
X025885Y025700D01*
X025602Y025700D01*
X025610Y025708D01*
X025657Y025821D01*
X025657Y026337D01*
X025610Y026449D01*
X025610Y026450D01*
X025878Y026450D01*
X025845Y026372D02*
X025642Y026372D01*
X025657Y026273D02*
X025831Y026273D01*
X025831Y026175D02*
X025657Y026175D01*
X025657Y026076D02*
X025831Y026076D01*
X025831Y025978D02*
X025657Y025978D01*
X025657Y025879D02*
X025831Y025879D01*
X025847Y025781D02*
X025640Y025781D01*
X025350Y026079D02*
X024271Y025000D01*
X024000Y025000D01*
X023984Y025500D02*
X023750Y025500D01*
X023250Y025000D01*
X023000Y025000D01*
X023196Y025500D02*
X022750Y025500D01*
X022250Y025000D01*
X022000Y025000D01*
X021750Y025500D02*
X022409Y025500D01*
X022988Y026079D01*
X023295Y026076D02*
X023468Y026076D01*
X023468Y025998D02*
X023295Y025824D01*
X023295Y026337D01*
X023248Y026449D01*
X023247Y026450D01*
X023516Y026450D01*
X023515Y026449D01*
X023468Y026337D01*
X023468Y025998D01*
X023448Y025978D02*
X023295Y025978D01*
X023295Y025879D02*
X023349Y025879D01*
X023295Y026175D02*
X023468Y026175D01*
X023468Y026273D02*
X023295Y026273D01*
X023280Y026372D02*
X023483Y026372D01*
X023775Y026079D02*
X023196Y025500D01*
X022681Y025998D02*
X022507Y025824D01*
X022507Y026337D01*
X022461Y026449D01*
X022460Y026450D01*
X022728Y026450D01*
X022728Y026449D01*
X022681Y026337D01*
X022681Y025998D01*
X022660Y025978D02*
X022507Y025978D01*
X022507Y026076D02*
X022681Y026076D01*
X022681Y026175D02*
X022507Y026175D01*
X022507Y026273D02*
X022681Y026273D01*
X022695Y026372D02*
X022493Y026372D01*
X022200Y026079D02*
X022079Y026079D01*
X021550Y025550D01*
X020800Y025550D01*
X020250Y025000D01*
X020000Y025000D01*
X019559Y025190D02*
X018652Y025190D01*
X018650Y025188D02*
X018812Y025350D01*
X019262Y025350D01*
X019350Y025438D01*
X019512Y025600D01*
X019599Y025687D01*
X019664Y025622D01*
X019777Y025575D01*
X019899Y025575D01*
X020012Y025622D01*
X020098Y025708D01*
X020145Y025821D01*
X020145Y026138D01*
X020152Y026142D01*
X020186Y026142D01*
X020225Y026180D01*
X020252Y026195D01*
X020252Y026195D01*
X020252Y026195D01*
X020258Y026213D01*
X020308Y026264D01*
X020308Y026436D01*
X020295Y026450D01*
X020366Y026450D01*
X020365Y026449D01*
X020319Y026337D01*
X020319Y026058D01*
X020314Y026058D01*
X020277Y026021D01*
X020251Y026009D01*
X020245Y025990D01*
X020192Y025936D01*
X020192Y025764D01*
X020314Y025642D01*
X020432Y025642D01*
X020452Y025622D01*
X020565Y025575D01*
X020599Y025575D01*
X020351Y025328D01*
X020272Y025407D01*
X020095Y025480D01*
X019905Y025480D01*
X019728Y025407D01*
X019593Y025272D01*
X019520Y025095D01*
X019520Y024905D01*
X019593Y024728D01*
X019673Y024648D01*
X018327Y024648D01*
X018407Y024728D01*
X018480Y024905D01*
X018480Y025095D01*
X018478Y025100D01*
X018562Y025100D01*
X018650Y025188D01*
X018750Y025288D02*
X019609Y025288D01*
X019708Y025387D02*
X019299Y025387D01*
X019397Y025485D02*
X020509Y025485D01*
X020544Y025584D02*
X019920Y025584D01*
X019757Y025584D02*
X019496Y025584D01*
X019594Y025682D02*
X019604Y025682D01*
X020072Y025682D02*
X020273Y025682D01*
X020192Y025781D02*
X020128Y025781D01*
X020145Y025879D02*
X020192Y025879D01*
X020233Y025978D02*
X020145Y025978D01*
X020145Y026076D02*
X020319Y026076D01*
X020251Y026009D02*
X020251Y026009D01*
X020251Y026009D01*
X020219Y026175D02*
X020319Y026175D01*
X020308Y026273D02*
X020319Y026273D01*
X020308Y026372D02*
X020333Y026372D01*
X020885Y026450D02*
X021941Y026450D01*
X021940Y026449D01*
X021894Y026337D01*
X021894Y026120D01*
X021484Y025710D01*
X020887Y025710D01*
X020932Y025821D01*
X020932Y026337D01*
X020886Y026449D01*
X020885Y026450D01*
X020918Y026372D02*
X021908Y026372D01*
X021894Y026273D02*
X020932Y026273D01*
X020932Y026175D02*
X021894Y026175D01*
X021850Y026076D02*
X020932Y026076D01*
X020932Y025978D02*
X021751Y025978D01*
X021653Y025879D02*
X020932Y025879D01*
X020916Y025781D02*
X021554Y025781D01*
X021750Y025500D02*
X021250Y025000D01*
X021000Y025000D01*
X020410Y025387D02*
X020292Y025387D01*
X019520Y025091D02*
X018480Y025091D01*
X018480Y024993D02*
X019520Y024993D01*
X019524Y024894D02*
X018476Y024894D01*
X018435Y024796D02*
X019565Y024796D01*
X019624Y024697D02*
X018376Y024697D01*
X017673Y024648D02*
X017480Y024648D01*
X017480Y025268D01*
X017540Y025328D01*
X017540Y026318D01*
X017694Y026472D01*
X017747Y026418D01*
X017754Y026399D01*
X017761Y026396D01*
X017778Y026388D01*
X017814Y026352D01*
X017852Y026352D01*
X017913Y026322D01*
X017917Y026314D01*
X017943Y026304D01*
X017957Y026291D01*
X017957Y025821D01*
X018003Y025708D01*
X018090Y025622D01*
X018202Y025575D01*
X018324Y025575D01*
X018437Y025622D01*
X018524Y025708D01*
X018570Y025821D01*
X018570Y026337D01*
X018524Y026449D01*
X018437Y026536D01*
X018324Y026582D01*
X018202Y026582D01*
X018134Y026554D01*
X018108Y026608D01*
X018108Y026646D01*
X018072Y026682D01*
X018061Y026706D01*
X018061Y026706D01*
X018061Y026706D01*
X018042Y026713D01*
X017988Y026766D01*
X018222Y027000D01*
X018462Y027000D01*
X018612Y027150D01*
X019338Y027150D01*
X019738Y026750D01*
X019638Y026750D01*
X019319Y026431D01*
X019311Y026449D01*
X019225Y026536D01*
X019112Y026582D01*
X018990Y026582D01*
X018877Y026536D01*
X018791Y026449D01*
X018744Y026337D01*
X018744Y025821D01*
X018791Y025708D01*
X018842Y025657D01*
X018842Y025650D01*
X018688Y025650D01*
X018438Y025400D01*
X018279Y025400D01*
X018272Y025407D01*
X018095Y025480D01*
X017905Y025480D01*
X017728Y025407D01*
X017593Y025272D01*
X017520Y025095D01*
X017520Y024905D01*
X017593Y024728D01*
X017673Y024648D01*
X017624Y024697D02*
X017480Y024697D01*
X017480Y024796D02*
X017565Y024796D01*
X017524Y024894D02*
X017480Y024894D01*
X017480Y024993D02*
X017520Y024993D01*
X017520Y025091D02*
X017480Y025091D01*
X017480Y025190D02*
X017559Y025190D01*
X017609Y025288D02*
X017500Y025288D01*
X017540Y025387D02*
X017708Y025387D01*
X017540Y025485D02*
X018523Y025485D01*
X018621Y025584D02*
X018345Y025584D01*
X018182Y025584D02*
X017540Y025584D01*
X017540Y025682D02*
X018029Y025682D01*
X017973Y025781D02*
X017540Y025781D01*
X017540Y025879D02*
X017957Y025879D01*
X017957Y025978D02*
X017540Y025978D01*
X017540Y026076D02*
X017957Y026076D01*
X017957Y026175D02*
X017540Y026175D01*
X017540Y026273D02*
X017957Y026273D01*
X017794Y026372D02*
X017594Y026372D01*
X017692Y026470D02*
X017695Y026470D01*
X017465Y026667D02*
X017056Y026667D01*
X017056Y026655D02*
X017056Y026756D01*
X017537Y026756D01*
X017566Y026768D01*
X017240Y026442D01*
X017240Y026318D01*
X017240Y025480D01*
X016648Y025480D01*
X016648Y026426D01*
X016689Y026409D01*
X016811Y026409D01*
X016923Y026456D01*
X017009Y026542D01*
X017056Y026655D01*
X017020Y026569D02*
X017366Y026569D01*
X017268Y026470D02*
X016937Y026470D01*
X016648Y026372D02*
X017240Y026372D01*
X017240Y026273D02*
X016648Y026273D01*
X016648Y026175D02*
X017240Y026175D01*
X017240Y026076D02*
X016648Y026076D01*
X016648Y025978D02*
X017240Y025978D01*
X017240Y025879D02*
X016648Y025879D01*
X016648Y025781D02*
X017240Y025781D01*
X017240Y025682D02*
X016648Y025682D01*
X016648Y025584D02*
X017240Y025584D01*
X017240Y025485D02*
X016648Y025485D01*
X018127Y026569D02*
X018169Y026569D01*
X018088Y026667D02*
X019555Y026667D01*
X019456Y026569D02*
X019145Y026569D01*
X019290Y026470D02*
X019358Y026470D01*
X018956Y026569D02*
X018358Y026569D01*
X018503Y026470D02*
X018811Y026470D01*
X018758Y026372D02*
X018556Y026372D01*
X018570Y026273D02*
X018744Y026273D01*
X018744Y026175D02*
X018570Y026175D01*
X018570Y026076D02*
X018744Y026076D01*
X018744Y025978D02*
X018570Y025978D01*
X018570Y025879D02*
X018744Y025879D01*
X018761Y025781D02*
X018554Y025781D01*
X018497Y025682D02*
X018817Y025682D01*
X017989Y026766D02*
X019722Y026766D01*
X019624Y026864D02*
X018086Y026864D01*
X018185Y026963D02*
X019525Y026963D01*
X019427Y027061D02*
X018523Y027061D01*
X018102Y027300D02*
X018098Y027300D01*
X017771Y026973D01*
X017783Y027002D01*
X017783Y027124D01*
X017776Y027142D01*
X017836Y027142D01*
X017892Y027197D01*
X017911Y027204D01*
X017922Y027228D01*
X017958Y027264D01*
X017958Y027302D01*
X017965Y027315D01*
X017965Y027315D01*
X017988Y027363D01*
X017996Y027367D01*
X018006Y027393D01*
X018025Y027413D01*
X018062Y027450D01*
X018115Y027450D01*
X018102Y027436D01*
X018102Y027300D01*
X018102Y027357D02*
X017985Y027357D01*
X017953Y027258D02*
X018056Y027258D01*
X017957Y027160D02*
X017854Y027160D01*
X017859Y027061D02*
X017783Y027061D01*
X017563Y026766D02*
X017560Y026766D01*
X017258Y027370D02*
X017056Y027370D01*
X017056Y027445D01*
X017014Y027547D01*
X017021Y027544D01*
X017431Y027544D01*
X017258Y027370D01*
X017343Y027455D02*
X017052Y027455D01*
X016792Y027751D02*
X016648Y027751D01*
X016648Y027849D02*
X016775Y027849D01*
X016790Y027948D02*
X016648Y027948D01*
X016648Y028046D02*
X016844Y028046D01*
X016648Y029130D02*
X017982Y029130D01*
X017884Y029228D02*
X016648Y029228D01*
X016648Y029327D02*
X017785Y029327D01*
X017687Y029425D02*
X016648Y029425D01*
X016648Y029524D02*
X017588Y029524D01*
X017490Y029622D02*
X016648Y029622D01*
X016648Y029721D02*
X017391Y029721D01*
X017293Y029819D02*
X016648Y029819D01*
X016648Y029918D02*
X016993Y029918D01*
X016845Y030016D02*
X016648Y030016D01*
X016648Y030115D02*
X016791Y030115D01*
X016775Y030213D02*
X016648Y030213D01*
X016648Y030312D02*
X016791Y030312D01*
X016846Y030410D02*
X016648Y030410D01*
X016648Y030509D02*
X016969Y030509D01*
X016969Y030607D02*
X016648Y030607D01*
X016648Y030706D02*
X016969Y030706D01*
X016844Y030804D02*
X016648Y030804D01*
X016648Y030903D02*
X016791Y030903D01*
X016775Y031001D02*
X016648Y031001D01*
X016648Y031100D02*
X016791Y031100D01*
X022507Y025879D02*
X022562Y025879D01*
X023984Y025500D02*
X024563Y026079D01*
X024256Y026076D02*
X024082Y026076D01*
X024082Y025978D02*
X024235Y025978D01*
X024256Y025998D02*
X024082Y025824D01*
X024082Y026337D01*
X024035Y026449D01*
X024035Y026450D01*
X024303Y026450D01*
X024302Y026449D01*
X024256Y026337D01*
X024256Y025998D01*
X024137Y025879D02*
X024082Y025879D01*
X024082Y026175D02*
X024256Y026175D01*
X024256Y026273D02*
X024082Y026273D01*
X024068Y026372D02*
X024270Y026372D01*
D19*
X024150Y026150D03*
X023400Y026150D03*
X022600Y026150D03*
X021650Y025950D03*
X021150Y025950D03*
X020400Y025850D03*
X020460Y025550D03*
X020100Y026350D03*
X020100Y026950D03*
X020200Y027250D03*
X019550Y026800D03*
X018650Y027100D03*
X018310Y027350D03*
X018040Y027350D03*
X017750Y027350D03*
X017250Y027450D03*
X018300Y026850D03*
X017900Y026560D03*
X017850Y026250D03*
X017590Y025910D03*
X017180Y025980D03*
X016800Y025900D03*
X017630Y025480D03*
X017550Y024700D03*
X018500Y024700D03*
X019500Y024700D03*
X019500Y025500D03*
X019050Y025700D03*
X018730Y025700D03*
X019600Y028100D03*
X019900Y028500D03*
X019700Y028750D03*
X019900Y029000D03*
X020200Y029050D03*
X020400Y029250D03*
X020600Y029050D03*
X020800Y029700D03*
X020200Y029800D03*
X020140Y030260D03*
X019310Y029850D03*
X019980Y031030D03*
X020060Y031660D03*
X019810Y032100D03*
X020030Y032530D03*
X019830Y032790D03*
X019150Y032800D03*
X019230Y033430D03*
X020200Y033850D03*
X020450Y033650D03*
X020700Y033270D03*
X020910Y033740D03*
X021600Y034350D03*
X022250Y034450D03*
X022500Y034550D03*
X023050Y034550D03*
X023650Y034300D03*
X023880Y034150D03*
X024000Y033850D03*
X024370Y033820D03*
X024360Y034080D03*
X024620Y034160D03*
X024640Y034430D03*
X025430Y034430D03*
X025550Y033930D03*
X026190Y033050D03*
X026600Y033050D03*
X026600Y032750D03*
X026510Y032330D03*
X026300Y032100D03*
X026310Y031820D03*
X026300Y031500D03*
X026250Y031150D03*
X025500Y031200D03*
X024890Y030420D03*
X025310Y030060D03*
X025230Y029320D03*
X023940Y030080D03*
X024050Y030450D03*
X024150Y031300D03*
X023700Y031250D03*
X023100Y030850D03*
X022600Y030260D03*
X022350Y029700D03*
X021600Y029700D03*
X021400Y030260D03*
X021600Y031060D03*
X022250Y031750D03*
X022250Y032200D03*
X022800Y032000D03*
X022950Y031700D03*
X023150Y032250D03*
X023450Y032250D03*
X023700Y031950D03*
X023960Y032420D03*
X023400Y032800D03*
X023510Y033040D03*
X023750Y033450D03*
X023530Y033710D03*
X022800Y033850D03*
X022400Y033500D03*
X022080Y033470D03*
X021910Y033690D03*
X022390Y032990D03*
X022160Y032810D03*
X022800Y033200D03*
X021530Y032110D03*
X020750Y031750D03*
X019200Y031250D03*
X018700Y031250D03*
X018500Y031500D03*
X016750Y033150D03*
X016750Y033650D03*
X017950Y033850D03*
X017950Y034400D03*
X018930Y034600D03*
X019054Y034350D03*
X019350Y034680D03*
X019450Y035020D03*
X019780Y035130D03*
X019150Y035200D03*
X020230Y035770D03*
X020230Y036270D03*
X020500Y037250D03*
X019500Y037250D03*
X018500Y037250D03*
X018600Y036200D03*
X017500Y036500D03*
X016800Y036400D03*
X016800Y036100D03*
X017750Y035200D03*
X020400Y034550D03*
X021000Y035350D03*
X022600Y035350D03*
X023100Y035350D03*
X023400Y035350D03*
X023700Y035350D03*
X024500Y037250D03*
X025500Y037250D03*
X026500Y037250D03*
X026740Y036490D03*
X027530Y036590D03*
X027500Y037240D03*
X028500Y037250D03*
X029500Y037250D03*
X029500Y036500D03*
X029700Y035900D03*
X028900Y035900D03*
X028850Y035400D03*
X028650Y034600D03*
X029010Y034330D03*
X029350Y034600D03*
X029840Y034620D03*
X029700Y034200D03*
X029200Y033350D03*
X029500Y033050D03*
X030100Y033100D03*
X030500Y033400D03*
X030850Y033100D03*
X030850Y032800D03*
X031050Y032600D03*
X031550Y032500D03*
X032540Y032500D03*
X033500Y032500D03*
X032500Y033500D03*
X032750Y034000D03*
X032750Y034313D03*
X033000Y034500D03*
X033500Y034510D03*
X033875Y034750D03*
X034500Y034800D03*
X035000Y034813D03*
X035500Y034813D03*
X036125Y034875D03*
X036125Y035500D03*
X036500Y035750D03*
X037000Y035750D03*
X037500Y035750D03*
X038000Y035750D03*
X038250Y036000D03*
X037500Y036500D03*
X037500Y037250D03*
X036500Y037250D03*
X035500Y037250D03*
X035720Y036310D03*
X034750Y036420D03*
X034130Y035670D03*
X033350Y036500D03*
X032730Y036370D03*
X031880Y036380D03*
X031270Y035730D03*
X031050Y035200D03*
X031300Y035000D03*
X031550Y035150D03*
X031550Y034850D03*
X031850Y035380D03*
X032310Y035410D03*
X033000Y033750D03*
X033500Y033750D03*
X034063Y033875D03*
X034500Y033500D03*
X034500Y032500D03*
X035500Y032500D03*
X036125Y032500D03*
X036125Y032000D03*
X036125Y031500D03*
X036125Y031000D03*
X036125Y030500D03*
X036125Y030000D03*
X036125Y029500D03*
X036125Y029000D03*
X036125Y028500D03*
X036125Y028000D03*
X036125Y027500D03*
X036500Y027500D03*
X035530Y027920D03*
X034580Y027670D03*
X035530Y026790D03*
X036500Y026500D03*
X036900Y025630D03*
X037500Y025500D03*
X038250Y025500D03*
X037500Y024700D03*
X036500Y024700D03*
X035500Y024700D03*
X035500Y025500D03*
X036100Y025620D03*
X034500Y026500D03*
X033500Y025500D03*
X033550Y024700D03*
X032500Y024700D03*
X031500Y024700D03*
X030500Y024700D03*
X030500Y025370D03*
X029700Y025650D03*
X029350Y025560D03*
X029500Y024700D03*
X027310Y025510D03*
X025750Y025970D03*
X028050Y027000D03*
X028800Y026750D03*
X029000Y026950D03*
X029200Y027150D03*
X029400Y027350D03*
X029600Y027550D03*
X029800Y027750D03*
X029750Y027250D03*
X029400Y026900D03*
X030850Y027200D03*
X031150Y027200D03*
X032040Y026610D03*
X033500Y027500D03*
X033950Y028360D03*
X034840Y028650D03*
X034120Y029380D03*
X034500Y030500D03*
X035500Y030500D03*
X035500Y029500D03*
X033500Y030500D03*
X032520Y030500D03*
X032500Y029500D03*
X031850Y029500D03*
X031450Y029550D03*
X031450Y029250D03*
X031850Y028500D03*
X032500Y028500D03*
X029600Y029750D03*
X029600Y030250D03*
X029600Y030750D03*
X029600Y031250D03*
X029100Y031250D03*
X028600Y031250D03*
X028600Y030750D03*
X029100Y030750D03*
X029100Y030250D03*
X028600Y030250D03*
X028600Y029750D03*
X029100Y029750D03*
X028100Y029750D03*
X028100Y030250D03*
X028100Y030750D03*
X028100Y031250D03*
X027550Y029350D03*
X027700Y028600D03*
X027550Y027900D03*
X027905Y027900D03*
X025350Y028050D03*
X025050Y028050D03*
X023440Y029440D03*
X022250Y028550D03*
X018450Y028250D03*
X017850Y028250D03*
X017250Y028250D03*
X016800Y028350D03*
X016750Y028850D03*
X025000Y032100D03*
X026000Y032250D03*
X027420Y033280D03*
X027600Y033050D03*
X028250Y033350D03*
X028350Y033900D03*
X028080Y034170D03*
X027750Y033900D03*
X027550Y034150D03*
X027100Y035500D03*
X028100Y035820D03*
X025990Y034950D03*
X025760Y035510D03*
X025700Y036000D03*
X022500Y037300D03*
X021500Y037300D03*
X030500Y037250D03*
X031500Y037250D03*
X032500Y037250D03*
X033500Y037260D03*
X034500Y037260D03*
X034500Y034250D03*
X035000Y034063D03*
X035500Y034063D03*
X036125Y034125D03*
X036125Y033500D03*
X036125Y033000D03*
X035500Y033500D03*
X035500Y031500D03*
X034500Y031500D03*
X032540Y031500D03*
X031450Y031100D03*
X030950Y031750D03*
X038000Y027563D03*
X037650Y026660D03*
X034500Y024700D03*
D20*
X033000Y025000D02*
X033000Y026450D01*
X032600Y026850D01*
X030550Y026850D01*
X030450Y026950D01*
X030450Y031600D01*
X030050Y032000D01*
X026446Y032000D01*
X026285Y032044D01*
X026300Y032100D01*
X026347Y032135D01*
X026446Y032000D01*
X026400Y032000D01*
X026300Y032100D01*
X026340Y031850D02*
X026310Y031820D01*
X026340Y031850D02*
X030000Y031850D01*
X030300Y031550D01*
X030300Y026900D01*
X030550Y026650D01*
X031100Y026650D01*
X031250Y026500D01*
X031250Y025250D01*
X031000Y025000D01*
X030450Y025650D02*
X030000Y025200D01*
X030000Y025000D01*
X029755Y025669D02*
X029700Y025650D01*
X029645Y025669D01*
X029700Y025827D01*
X029755Y025669D01*
X029700Y025650D02*
X029700Y025827D01*
X029700Y026500D01*
X030000Y026800D01*
X030000Y031450D01*
X029900Y031550D01*
X026650Y031550D01*
X026375Y031275D01*
X026303Y031125D01*
X026250Y031150D01*
X026225Y031203D01*
X026375Y031275D01*
X026250Y031150D01*
X026050Y031050D02*
X026050Y031520D01*
X025770Y031800D01*
X024730Y031800D01*
X024620Y031910D01*
X024620Y033983D01*
X024565Y034141D01*
X024620Y034160D01*
X024675Y034141D01*
X024620Y033983D01*
X024620Y034160D01*
X024415Y034099D02*
X024360Y034080D01*
X024305Y034099D01*
X024360Y034257D01*
X024415Y034099D01*
X024360Y034080D02*
X024360Y034257D01*
X024360Y034480D01*
X024520Y034640D01*
X026180Y034640D01*
X027210Y033610D01*
X027210Y033160D01*
X027370Y033000D01*
X027430Y033000D01*
X027566Y033097D01*
X027600Y033050D01*
X027597Y032992D01*
X027430Y033000D01*
X027550Y033000D01*
X027600Y033050D01*
X027603Y032992D01*
X027770Y033000D01*
X027634Y033097D01*
X027600Y033050D01*
X027650Y033000D01*
X027770Y033000D01*
X029150Y033000D01*
X029400Y033250D01*
X029650Y033250D01*
X030300Y033900D01*
X031100Y033900D01*
X034000Y036800D01*
X034000Y037000D01*
X033750Y036350D02*
X031150Y033750D01*
X030350Y033750D01*
X029675Y033075D01*
X029527Y032998D01*
X029500Y033050D01*
X029511Y033107D01*
X029675Y033075D01*
X029650Y033050D01*
X029500Y033050D01*
X029600Y033400D02*
X029250Y033400D01*
X029200Y033350D01*
X029600Y033400D02*
X030250Y034050D01*
X031050Y034050D01*
X032100Y035100D01*
X032100Y036250D01*
X032850Y037000D01*
X033000Y037000D01*
X033750Y036350D02*
X034350Y036350D01*
X035000Y037000D01*
X035200Y036200D02*
X033800Y036200D01*
X031200Y033600D01*
X030400Y033600D01*
X030100Y033300D01*
X030100Y033277D01*
X030155Y033119D01*
X030100Y033100D01*
X030045Y033119D01*
X030100Y033277D01*
X030100Y033100D01*
X030450Y032850D02*
X031450Y031850D01*
X031450Y031100D01*
X031600Y031250D02*
X031600Y031900D01*
X031075Y032425D01*
X030998Y032573D01*
X031050Y032600D01*
X031107Y032589D01*
X031075Y032425D01*
X031050Y032450D01*
X031050Y032600D01*
X030850Y032800D02*
X031350Y032800D01*
X031485Y032665D01*
X031594Y032538D01*
X031550Y032500D01*
X031492Y032498D01*
X031485Y032665D01*
X031550Y032600D01*
X031550Y032500D01*
X031750Y032600D02*
X031750Y031600D01*
X032350Y031000D01*
X033421Y031000D01*
X031650Y031000D02*
X031650Y031200D01*
X031600Y031250D01*
X031650Y031000D02*
X031350Y030700D01*
X031350Y029696D01*
X031485Y029597D01*
X031450Y029550D01*
X031394Y029535D01*
X031350Y029696D01*
X031350Y029650D01*
X031450Y029550D01*
X031464Y029307D02*
X031450Y029250D01*
X031403Y029215D01*
X031302Y029348D01*
X031464Y029307D01*
X031450Y029250D02*
X031400Y029250D01*
X031302Y029348D01*
X031200Y029450D01*
X031200Y031900D01*
X030400Y032700D01*
X027150Y032700D01*
X026900Y032950D01*
X026900Y033430D01*
X026100Y034230D01*
X025310Y034230D01*
X025110Y034430D01*
X024817Y034430D01*
X024659Y034375D01*
X024640Y034430D01*
X024659Y034485D01*
X024817Y034430D01*
X024640Y034430D01*
X024100Y034250D02*
X024100Y034050D01*
X024330Y033820D01*
X024370Y033820D01*
X024315Y033801D01*
X024370Y033643D01*
X024425Y033801D01*
X024370Y033820D01*
X024370Y033643D01*
X024370Y031930D01*
X024640Y031660D01*
X025680Y031660D01*
X025900Y031440D01*
X025900Y031000D01*
X026100Y030800D01*
X026650Y030800D01*
X027500Y029950D01*
X027500Y029400D01*
X027550Y029350D01*
X027750Y029250D02*
X027750Y029450D01*
X027650Y029550D01*
X027650Y030000D01*
X026700Y030950D01*
X026150Y030950D01*
X026050Y031050D01*
X025750Y030950D02*
X025750Y031370D01*
X025600Y031520D01*
X024500Y031520D01*
X024210Y031810D01*
X024210Y033540D01*
X024100Y033650D01*
X023900Y033650D01*
X023840Y033710D01*
X023707Y033710D01*
X023549Y033655D01*
X023530Y033710D01*
X023549Y033765D01*
X023707Y033710D01*
X023530Y033710D01*
X023300Y033850D02*
X023300Y033000D01*
X022950Y032650D01*
X022950Y032150D01*
X023000Y032100D01*
X023000Y031870D01*
X023008Y031703D01*
X022950Y031700D01*
X022903Y031734D01*
X023000Y031870D01*
X023000Y031800D01*
X022950Y031750D01*
X022950Y031700D01*
X022850Y031500D02*
X023750Y031500D01*
X023900Y031350D01*
X023900Y031250D01*
X024050Y031100D01*
X025200Y031100D01*
X025950Y030350D01*
X026500Y030350D01*
X027050Y029800D01*
X027050Y028050D01*
X026200Y027200D01*
X020550Y027200D01*
X020300Y027450D01*
X018456Y027450D01*
X018357Y027315D01*
X018310Y027350D01*
X018295Y027406D01*
X018456Y027450D01*
X018410Y027450D01*
X018310Y027350D01*
X018400Y027150D02*
X018160Y027150D01*
X017390Y026380D01*
X017390Y025390D01*
X017000Y025000D01*
X018000Y025000D02*
X018250Y025250D01*
X018500Y025250D01*
X018750Y025500D01*
X019200Y025500D01*
X019450Y025750D01*
X019450Y026350D01*
X019700Y026600D01*
X026400Y026600D01*
X027350Y027550D01*
X029600Y027550D01*
X029450Y027700D02*
X027300Y027700D01*
X026350Y026750D01*
X019950Y026750D01*
X019400Y027300D01*
X018550Y027300D01*
X018400Y027150D01*
X018000Y027600D02*
X017875Y027475D01*
X017803Y027325D01*
X017750Y027350D01*
X017725Y027403D01*
X017875Y027475D01*
X017750Y027350D01*
X018000Y027600D02*
X020400Y027600D01*
X020650Y027350D01*
X026150Y027350D01*
X026900Y028100D01*
X026900Y029750D01*
X026450Y030200D01*
X025900Y030200D01*
X025150Y030950D01*
X024000Y030950D01*
X023700Y031250D01*
X023300Y031350D02*
X023850Y030800D01*
X025100Y030800D01*
X025850Y030050D01*
X026400Y030050D01*
X026750Y029700D01*
X026750Y028150D01*
X026100Y027500D01*
X020700Y027500D01*
X020450Y027750D01*
X017850Y027750D01*
X017279Y027179D01*
X017279Y027063D01*
X017900Y026560D02*
X017875Y026507D01*
X018025Y026435D01*
X017953Y026585D01*
X017900Y026560D01*
X018025Y026435D01*
X018263Y026197D01*
X018263Y026079D01*
X018972Y026000D02*
X019050Y026078D01*
X019051Y026079D01*
X019051Y025901D01*
X019050Y025877D02*
X019105Y025719D01*
X019050Y025700D01*
X018995Y025719D01*
X019050Y025877D01*
X019050Y026078D01*
X019050Y025877D02*
X019050Y025700D01*
X019838Y026079D02*
X019980Y026220D01*
X020046Y026373D01*
X020100Y026350D01*
X020127Y026298D01*
X019980Y026220D01*
X020100Y026341D01*
X020100Y026350D01*
X020374Y025902D02*
X020400Y025850D01*
X020453Y025825D01*
X020524Y025977D01*
X020374Y025902D01*
X020400Y025853D02*
X020400Y025850D01*
X020400Y025853D02*
X020524Y025977D01*
X020626Y026079D01*
X020270Y026900D02*
X020103Y026892D01*
X020100Y026950D01*
X020134Y026997D01*
X020270Y026900D01*
X026300Y026900D01*
X027350Y027950D01*
X027350Y029900D01*
X026600Y030650D01*
X026050Y030650D01*
X025750Y030950D01*
X025500Y031000D02*
X026000Y030500D01*
X026550Y030500D01*
X027200Y029850D01*
X027200Y028000D01*
X026250Y027050D01*
X020400Y027050D01*
X020325Y027125D01*
X020175Y027197D01*
X020200Y027250D01*
X020253Y027275D01*
X020325Y027125D01*
X020200Y027250D01*
X020100Y026950D02*
X020150Y026900D01*
X020270Y026900D01*
X020750Y027650D02*
X026050Y027650D01*
X026600Y028200D01*
X026600Y029650D01*
X026350Y029900D01*
X025800Y029900D01*
X025050Y030650D01*
X023800Y030650D01*
X023250Y031200D01*
X022750Y031200D01*
X022450Y031500D01*
X020650Y031500D01*
X020500Y031650D01*
X020500Y033480D01*
X020403Y033616D01*
X020450Y033650D01*
X020508Y033647D01*
X020500Y033480D01*
X020500Y033600D01*
X020450Y033650D01*
X020447Y034515D02*
X020400Y034550D01*
X020385Y034606D01*
X020546Y034650D01*
X020447Y034515D01*
X020400Y034550D02*
X020500Y034650D01*
X020546Y034650D01*
X022050Y034650D01*
X022125Y034575D01*
X022275Y034503D01*
X022250Y034450D01*
X022197Y034425D01*
X022125Y034575D01*
X022250Y034450D01*
X022800Y033950D02*
X022800Y033850D01*
X022800Y033950D02*
X023350Y034500D01*
X023850Y034500D01*
X024100Y034250D01*
X023880Y034150D02*
X023830Y034100D01*
X023350Y034100D01*
X023150Y033900D01*
X023150Y033050D01*
X022800Y032700D01*
X022800Y032000D01*
X022600Y031750D02*
X022850Y031500D01*
X022800Y031350D02*
X022450Y031700D01*
X022450Y032750D01*
X022735Y033035D01*
X022742Y033202D01*
X022800Y033200D01*
X022844Y033162D01*
X022735Y033035D01*
X022800Y033100D01*
X022800Y033200D01*
X023000Y033100D02*
X022600Y032700D01*
X022600Y031750D01*
X022400Y031350D02*
X020570Y031350D01*
X020350Y031570D01*
X020350Y032560D01*
X020120Y032790D01*
X020007Y032790D01*
X019849Y032735D01*
X019830Y032790D01*
X019849Y032845D01*
X020007Y032790D01*
X019830Y032790D01*
X018200Y032650D02*
X018200Y030800D01*
X017800Y030800D01*
X017800Y031150D01*
X017700Y031250D01*
X017646Y031250D01*
X017644Y031252D01*
X017535Y031297D01*
X017346Y031297D01*
X017339Y031300D01*
X017219Y031300D01*
X017212Y031297D01*
X017023Y031297D01*
X016914Y031252D01*
X016912Y031250D01*
X016638Y031250D01*
X016638Y032300D01*
X016970Y032300D01*
X017023Y032278D01*
X017535Y032278D01*
X017588Y032300D01*
X017650Y032300D01*
X017950Y032650D01*
X018200Y032650D01*
X018200Y032586D02*
X017895Y032586D01*
X017827Y032507D02*
X018200Y032507D01*
X018200Y032429D02*
X017760Y032429D01*
X017693Y032350D02*
X018200Y032350D01*
X018200Y032272D02*
X016638Y032272D01*
X016638Y032193D02*
X018200Y032193D01*
X018200Y032115D02*
X016638Y032115D01*
X016638Y032036D02*
X018200Y032036D01*
X018200Y031958D02*
X018096Y031958D01*
X018126Y031927D02*
X018057Y031997D01*
X017966Y032034D01*
X017868Y032034D01*
X017778Y031997D01*
X017708Y031927D01*
X017671Y031836D01*
X017671Y031738D01*
X017708Y031648D01*
X017778Y031578D01*
X017868Y031541D01*
X017966Y031541D01*
X018057Y031578D01*
X018126Y031648D01*
X018164Y031738D01*
X018164Y031836D01*
X018126Y031927D01*
X018146Y031879D02*
X018200Y031879D01*
X018200Y031801D02*
X018164Y031801D01*
X018157Y031722D02*
X018200Y031722D01*
X018200Y031644D02*
X018122Y031644D01*
X018200Y031565D02*
X018025Y031565D01*
X018200Y031487D02*
X016638Y031487D01*
X016638Y031565D02*
X017810Y031565D01*
X017712Y031644D02*
X016638Y031644D01*
X016638Y031722D02*
X017677Y031722D01*
X017671Y031801D02*
X016638Y031801D01*
X016638Y031879D02*
X017688Y031879D01*
X017739Y031958D02*
X016638Y031958D01*
X016638Y031408D02*
X018200Y031408D01*
X018200Y031330D02*
X016638Y031330D01*
X016638Y031251D02*
X016913Y031251D01*
X017645Y031251D02*
X018200Y031251D01*
X018200Y031173D02*
X017777Y031173D01*
X017800Y031094D02*
X018200Y031094D01*
X018200Y031016D02*
X017800Y031016D01*
X017800Y030937D02*
X018200Y030937D01*
X018200Y030859D02*
X017800Y030859D01*
X017700Y027900D02*
X020500Y027900D01*
X020750Y027650D01*
X017700Y027900D02*
X017650Y027850D01*
X017279Y027850D01*
X022400Y031350D02*
X022700Y031050D01*
X023200Y031050D01*
X023750Y030500D01*
X023880Y030500D01*
X024047Y030508D01*
X024050Y030450D01*
X024016Y030403D01*
X023880Y030500D01*
X024000Y030500D01*
X024050Y030450D01*
X023300Y031350D02*
X022800Y031350D01*
X023150Y032250D02*
X023095Y032269D01*
X023150Y032427D01*
X023205Y032269D01*
X023150Y032250D01*
X023150Y032427D01*
X023150Y032550D01*
X023275Y032675D01*
X023347Y032825D01*
X023400Y032800D01*
X023425Y032747D01*
X023275Y032675D01*
X023400Y032800D01*
X023600Y032700D02*
X023450Y032550D01*
X023450Y032427D01*
X023505Y032269D01*
X023450Y032250D01*
X023395Y032269D01*
X023450Y032427D01*
X023450Y032250D01*
X023600Y032700D02*
X023600Y032950D01*
X023510Y033040D01*
X023000Y033100D02*
X023000Y033950D01*
X023350Y034300D01*
X023473Y034300D01*
X023631Y034355D01*
X023650Y034300D01*
X023631Y034245D01*
X023473Y034300D01*
X023650Y034300D01*
X023854Y033950D02*
X023400Y033950D01*
X023300Y033850D01*
X023854Y033950D02*
X024015Y033906D01*
X024000Y033850D01*
X023953Y033815D01*
X023854Y033950D01*
X023900Y033950D01*
X024000Y033850D01*
X025449Y034375D02*
X025430Y034430D01*
X025449Y034485D01*
X025607Y034430D01*
X025449Y034375D01*
X025430Y034430D02*
X025607Y034430D01*
X026150Y034430D01*
X027050Y033530D01*
X027050Y033000D01*
X027200Y032850D01*
X030450Y032850D01*
X030825Y033047D02*
X030850Y033100D01*
X030903Y033125D01*
X030975Y032975D01*
X030825Y033047D01*
X030850Y033100D02*
X030975Y032975D01*
X031000Y032950D01*
X031400Y032950D01*
X031750Y032600D01*
X031250Y033450D02*
X033850Y036050D01*
X036050Y036050D01*
X037000Y037000D01*
X036000Y037000D02*
X035200Y036200D01*
X031575Y035203D02*
X031550Y035150D01*
X031497Y035125D01*
X031425Y035275D01*
X031575Y035203D01*
X031550Y035150D02*
X031425Y035275D01*
X031300Y035400D01*
X030596Y035400D01*
X030074Y035921D01*
X031050Y035200D02*
X026900Y035200D01*
X026600Y035500D01*
X026600Y036300D01*
X026000Y036900D01*
X026000Y037000D01*
X026200Y036500D02*
X025500Y036500D01*
X025000Y037000D01*
X024740Y036460D02*
X024950Y036250D01*
X024950Y035500D01*
X025200Y035250D01*
X026170Y035250D01*
X026320Y035100D01*
X026320Y034720D01*
X027380Y033660D01*
X027380Y033453D01*
X027469Y033311D01*
X027420Y033280D01*
X027362Y033286D01*
X027380Y033453D01*
X027380Y033320D01*
X027420Y033280D01*
X026055Y032231D02*
X026000Y032250D01*
X025945Y032231D01*
X026000Y032073D01*
X026055Y032231D01*
X026000Y032250D02*
X026000Y032073D01*
X026000Y031800D01*
X026175Y031625D01*
X026325Y031553D01*
X026300Y031500D01*
X026338Y031456D01*
X026465Y031565D01*
X026298Y031558D01*
X026300Y031500D01*
X026247Y031475D01*
X026175Y031625D01*
X026300Y031500D01*
X026400Y031500D01*
X026465Y031565D01*
X026600Y031700D01*
X029950Y031700D01*
X030150Y031500D01*
X030150Y026800D01*
X030450Y026500D01*
X030450Y025650D01*
X028850Y025750D02*
X028100Y025000D01*
X028000Y025000D01*
X028050Y025500D02*
X027800Y025500D01*
X027300Y025000D01*
X027000Y025000D01*
X026550Y025550D02*
X026000Y025000D01*
X025550Y025550D02*
X025000Y025000D01*
X025550Y025550D02*
X026300Y025550D01*
X026500Y025750D01*
X026500Y026500D01*
X027350Y027350D01*
X029400Y027350D01*
X029200Y027150D02*
X028200Y027150D01*
X028150Y027200D01*
X027550Y027200D01*
X027250Y026900D01*
X027250Y025750D01*
X027050Y025550D01*
X026550Y025550D01*
X028050Y025500D02*
X028200Y025650D01*
X028200Y026600D01*
X028550Y026950D01*
X029000Y026950D01*
X028858Y026747D02*
X028800Y026750D01*
X028753Y026716D01*
X028850Y026580D01*
X028858Y026747D01*
X028850Y026700D02*
X028800Y026750D01*
X028850Y026700D02*
X028850Y026580D01*
X028850Y025750D01*
X029450Y027700D02*
X029500Y027750D01*
X029800Y027750D01*
X027930Y027953D02*
X027905Y027900D01*
X027852Y027875D01*
X027780Y028025D01*
X027930Y027953D01*
X027905Y027900D02*
X027780Y028025D01*
X027500Y028305D01*
X027500Y029000D01*
X027750Y029250D01*
X025500Y031000D02*
X025500Y031023D01*
X025445Y031181D01*
X025500Y031200D01*
X025555Y031181D01*
X025500Y031023D01*
X025500Y031200D01*
X026730Y034900D02*
X026230Y035400D01*
X025899Y035400D01*
X025741Y035455D01*
X025760Y035510D01*
X025809Y035541D01*
X025899Y035400D01*
X025870Y035400D01*
X025760Y035510D01*
X026460Y035420D02*
X026830Y035050D01*
X030900Y035050D01*
X030950Y035000D01*
X031300Y035000D01*
X031150Y034850D02*
X031200Y034800D01*
X031380Y034800D01*
X031516Y034897D01*
X031550Y034850D01*
X031547Y034792D01*
X031380Y034800D01*
X031500Y034800D01*
X031550Y034850D01*
X031150Y034850D02*
X030900Y034850D01*
X030850Y034900D01*
X026730Y034900D01*
X026460Y035420D02*
X026460Y036240D01*
X026200Y036500D01*
X026925Y035921D02*
X026925Y035675D01*
X026975Y035625D01*
X027125Y035553D01*
X027100Y035500D01*
X027047Y035475D01*
X026975Y035625D01*
X027100Y035500D01*
X028500Y035921D02*
X028844Y035577D01*
X028904Y035421D01*
X028850Y035400D01*
X028794Y035417D01*
X028844Y035577D01*
X028850Y035571D01*
X028850Y035400D01*
X030503Y033458D02*
X030500Y033400D01*
X030534Y033353D01*
X030670Y033450D01*
X030503Y033458D01*
X030550Y033450D02*
X030500Y033400D01*
X030550Y033450D02*
X030670Y033450D01*
X031250Y033450D01*
X024563Y035563D02*
X024350Y035350D01*
X023877Y035350D01*
X023719Y035295D01*
X023700Y035350D01*
X023719Y035405D01*
X023877Y035350D01*
X023700Y035350D01*
X023525Y035475D02*
X023453Y035325D01*
X023400Y035350D01*
X023375Y035403D01*
X023525Y035475D01*
X023400Y035350D01*
X023525Y035475D02*
X023775Y035725D01*
X023775Y035921D01*
X023540Y036460D02*
X024740Y036460D01*
X024563Y035921D02*
X024563Y035563D01*
X023540Y036460D02*
X023000Y037000D01*
X022988Y035921D02*
X022988Y035487D01*
X023130Y035400D01*
X023100Y035350D01*
X023045Y035330D01*
X022988Y035487D01*
X022988Y035462D01*
X023100Y035350D01*
X019821Y035172D02*
X019780Y035130D01*
X019722Y035123D01*
X019701Y035289D01*
X019821Y035172D01*
X019780Y035210D02*
X019780Y035130D01*
X019780Y035210D02*
X019701Y035289D01*
X019450Y035540D01*
X019450Y036550D01*
X019000Y037000D01*
X018600Y036200D02*
X018547Y036225D01*
X018475Y036075D01*
X018625Y036147D01*
X018600Y036200D01*
X018475Y036075D01*
X018358Y035958D01*
X018300Y035958D01*
X018263Y035921D02*
X018300Y035885D01*
X019051Y035921D02*
X019051Y035347D01*
X019185Y035247D01*
X019150Y035200D01*
X019094Y035185D01*
X019051Y035347D01*
X019051Y035299D01*
X019150Y035200D01*
X019220Y034800D02*
X019373Y034734D01*
X019350Y034680D01*
X019298Y034652D01*
X019220Y034800D01*
X019230Y034800D01*
X019350Y034680D01*
X019220Y034800D02*
X017810Y034800D01*
X017673Y034937D01*
X017279Y034937D01*
X017800Y034600D02*
X017350Y034150D01*
X017279Y034150D01*
X017279Y034279D01*
X017800Y034600D02*
X018753Y034600D01*
X018911Y034655D01*
X018930Y034600D01*
X018911Y034545D01*
X018753Y034600D01*
X018930Y034600D01*
D21*
X033250Y034150D02*
X033421Y034150D01*
X033421Y034150D01*
X033800Y034150D01*
X033825Y034155D01*
X033848Y034164D01*
X033871Y034176D01*
X033891Y034191D01*
X033909Y034209D01*
X033924Y034229D01*
X033936Y034251D01*
X033945Y034275D01*
X033950Y034300D01*
X033952Y034325D01*
X033950Y034350D01*
X033955Y034376D01*
X033963Y034401D01*
X033974Y034425D01*
X033989Y034447D01*
X034006Y034467D01*
X034026Y034484D01*
X034048Y034499D01*
X034071Y034511D01*
X034096Y034520D01*
X034122Y034525D01*
X034149Y034527D01*
X034175Y034525D01*
X034350Y034525D01*
D22*
X034650Y034525D02*
X035000Y034525D01*
X035350Y034525D01*
X035650Y034525D02*
X036000Y034525D01*
X035951Y034525D01*
X035954Y034526D01*
X035956Y034528D01*
X035957Y034531D01*
X030950Y031750D02*
X030940Y031760D01*
X030819Y031760D01*
X023050Y034550D02*
X022500Y034000D01*
X021170Y034000D01*
X020910Y033740D01*
X020910Y033440D01*
X021150Y033200D01*
X021150Y031750D01*
X020750Y031750D01*
X021150Y031750D02*
X022250Y031750D01*
X020400Y029250D02*
X020325Y029175D01*
X020200Y029050D01*
X020350Y029050D01*
X020600Y029050D01*
X020400Y029250D01*
X019900Y029000D02*
X019900Y028500D01*
X019700Y028700D01*
X019700Y028750D01*
X019700Y028800D01*
X019900Y029000D01*
X017279Y032575D02*
X019054Y034350D01*
X021000Y035350D02*
X021000Y037000D01*
D23*
X017337Y031787D02*
X017279Y031787D01*
D24*
X017617Y031450D01*
X017690Y031450D01*
X017950Y031190D01*
X017950Y030800D01*
X018350Y030400D01*
X018350Y029950D01*
X018900Y029400D01*
X020100Y029400D01*
X020325Y029175D01*
X019700Y028750D02*
X018800Y028750D01*
X017337Y030213D01*
X017279Y030213D01*
X017163Y030213D01*
X017279Y030213D02*
X017279Y031000D01*
X017337Y031787D02*
X018000Y032450D01*
X018000Y032750D01*
X020200Y034950D01*
X025990Y034950D01*
X025000Y034060D02*
X025000Y032700D01*
X025050Y032650D01*
X026300Y032650D01*
X026400Y032750D01*
X026600Y032750D01*
X027000Y032350D01*
X030228Y032350D01*
X030819Y031760D01*
X030828Y031750D01*
X030819Y031760D02*
X030819Y027219D01*
X030831Y027219D01*
X030850Y027200D01*
X031150Y027200D01*
X025000Y032100D02*
X025000Y032700D01*
X026600Y032750D02*
X026600Y033050D01*
D25*
X020350Y029050D02*
X020350Y028600D01*
X020900Y028050D01*
X025050Y028050D01*
X025350Y028050D01*
D26*
X025000Y034060D03*
D27*
X033421Y029425D02*
X033714Y029132D01*
X033912Y029132D01*
X036053Y026992D01*
X036053Y026392D01*
X036603Y025842D01*
X036603Y025398D01*
X037000Y025000D01*
X036398Y025398D02*
X036000Y025000D01*
X036398Y025398D02*
X036398Y025403D01*
X036398Y025758D01*
X035848Y026308D01*
X035848Y026908D01*
X033838Y028918D01*
X033708Y028918D01*
X033428Y028638D01*
X036395Y025400D02*
X036398Y025403D01*
D28*
X033428Y028638D02*
X033421Y028638D01*
M02*
