G75*
%MOIN*%
%OFA0B0*%
%FSLAX25Y25*%
%IPPOS*%
%LPD*%
%AMOC8*
5,1,8,0,0,1.08239X$1,22.5*
%
%ADD10C,0.00000*%
%ADD11R,0.03937X0.02756*%
%ADD12R,0.02362X0.02756*%
%ADD13R,0.02000X0.02000*%
%ADD14R,0.02362X0.00984*%
%ADD15R,0.02756X0.00984*%
%ADD16R,0.07874X0.03346*%
%ADD17R,0.06000X0.04000*%
%ADD18R,0.02500X0.03500*%
%ADD19R,0.04500X0.07000*%
%ADD20R,0.02756X0.01969*%
%ADD21R,0.05315X0.01575*%
%ADD22R,0.07480X0.07480*%
%ADD23C,0.01417*%
%ADD24C,0.05000*%
%ADD25C,0.00866*%
%ADD26R,0.05500X0.05000*%
%ADD27R,0.00866X0.02559*%
%ADD28R,0.01969X0.00866*%
%ADD29R,0.01969X0.01260*%
%ADD30R,0.00866X0.02165*%
%ADD31R,0.02165X0.00866*%
%ADD32R,0.01654X0.05118*%
%ADD33R,0.02756X0.03543*%
%ADD34R,0.03150X0.04331*%
%ADD35R,0.05118X0.04528*%
%ADD36R,0.04724X0.03543*%
%ADD37R,0.07087X0.05512*%
%ADD38R,0.04000X0.06000*%
%ADD39R,0.04724X0.02362*%
D10*
X0165000Y0245000D02*
X0165000Y0375000D01*
X0385000Y0375000D01*
X0385000Y0245000D01*
X0165000Y0245000D01*
X0165925Y0267154D02*
X0165927Y0267233D01*
X0165933Y0267312D01*
X0165943Y0267391D01*
X0165957Y0267469D01*
X0165974Y0267546D01*
X0165996Y0267622D01*
X0166021Y0267697D01*
X0166051Y0267770D01*
X0166083Y0267842D01*
X0166120Y0267913D01*
X0166160Y0267981D01*
X0166203Y0268047D01*
X0166249Y0268111D01*
X0166299Y0268173D01*
X0166352Y0268232D01*
X0166407Y0268288D01*
X0166466Y0268342D01*
X0166527Y0268392D01*
X0166590Y0268440D01*
X0166656Y0268484D01*
X0166724Y0268525D01*
X0166794Y0268562D01*
X0166865Y0268596D01*
X0166939Y0268626D01*
X0167013Y0268652D01*
X0167089Y0268674D01*
X0167166Y0268693D01*
X0167244Y0268708D01*
X0167322Y0268719D01*
X0167401Y0268726D01*
X0167480Y0268729D01*
X0167559Y0268728D01*
X0167638Y0268723D01*
X0167717Y0268714D01*
X0167795Y0268701D01*
X0167872Y0268684D01*
X0167949Y0268664D01*
X0168024Y0268639D01*
X0168098Y0268611D01*
X0168171Y0268579D01*
X0168241Y0268544D01*
X0168310Y0268505D01*
X0168377Y0268462D01*
X0168442Y0268416D01*
X0168504Y0268368D01*
X0168564Y0268316D01*
X0168621Y0268261D01*
X0168675Y0268203D01*
X0168726Y0268143D01*
X0168774Y0268080D01*
X0168819Y0268015D01*
X0168861Y0267947D01*
X0168899Y0267878D01*
X0168933Y0267807D01*
X0168964Y0267734D01*
X0168992Y0267659D01*
X0169015Y0267584D01*
X0169035Y0267507D01*
X0169051Y0267430D01*
X0169063Y0267351D01*
X0169071Y0267273D01*
X0169075Y0267194D01*
X0169075Y0267114D01*
X0169071Y0267035D01*
X0169063Y0266957D01*
X0169051Y0266878D01*
X0169035Y0266801D01*
X0169015Y0266724D01*
X0168992Y0266649D01*
X0168964Y0266574D01*
X0168933Y0266501D01*
X0168899Y0266430D01*
X0168861Y0266361D01*
X0168819Y0266293D01*
X0168774Y0266228D01*
X0168726Y0266165D01*
X0168675Y0266105D01*
X0168621Y0266047D01*
X0168564Y0265992D01*
X0168504Y0265940D01*
X0168442Y0265892D01*
X0168377Y0265846D01*
X0168310Y0265803D01*
X0168241Y0265764D01*
X0168171Y0265729D01*
X0168098Y0265697D01*
X0168024Y0265669D01*
X0167949Y0265644D01*
X0167872Y0265624D01*
X0167795Y0265607D01*
X0167717Y0265594D01*
X0167638Y0265585D01*
X0167559Y0265580D01*
X0167480Y0265579D01*
X0167401Y0265582D01*
X0167322Y0265589D01*
X0167244Y0265600D01*
X0167166Y0265615D01*
X0167089Y0265634D01*
X0167013Y0265656D01*
X0166939Y0265682D01*
X0166865Y0265712D01*
X0166794Y0265746D01*
X0166724Y0265783D01*
X0166656Y0265824D01*
X0166590Y0265868D01*
X0166527Y0265916D01*
X0166466Y0265966D01*
X0166407Y0266020D01*
X0166352Y0266076D01*
X0166299Y0266135D01*
X0166249Y0266197D01*
X0166203Y0266261D01*
X0166160Y0266327D01*
X0166120Y0266395D01*
X0166083Y0266466D01*
X0166051Y0266538D01*
X0166021Y0266611D01*
X0165996Y0266686D01*
X0165974Y0266762D01*
X0165957Y0266839D01*
X0165943Y0266917D01*
X0165933Y0266996D01*
X0165927Y0267075D01*
X0165925Y0267154D01*
X0165925Y0273846D02*
X0165927Y0273925D01*
X0165933Y0274004D01*
X0165943Y0274083D01*
X0165957Y0274161D01*
X0165974Y0274238D01*
X0165996Y0274314D01*
X0166021Y0274389D01*
X0166051Y0274462D01*
X0166083Y0274534D01*
X0166120Y0274605D01*
X0166160Y0274673D01*
X0166203Y0274739D01*
X0166249Y0274803D01*
X0166299Y0274865D01*
X0166352Y0274924D01*
X0166407Y0274980D01*
X0166466Y0275034D01*
X0166527Y0275084D01*
X0166590Y0275132D01*
X0166656Y0275176D01*
X0166724Y0275217D01*
X0166794Y0275254D01*
X0166865Y0275288D01*
X0166939Y0275318D01*
X0167013Y0275344D01*
X0167089Y0275366D01*
X0167166Y0275385D01*
X0167244Y0275400D01*
X0167322Y0275411D01*
X0167401Y0275418D01*
X0167480Y0275421D01*
X0167559Y0275420D01*
X0167638Y0275415D01*
X0167717Y0275406D01*
X0167795Y0275393D01*
X0167872Y0275376D01*
X0167949Y0275356D01*
X0168024Y0275331D01*
X0168098Y0275303D01*
X0168171Y0275271D01*
X0168241Y0275236D01*
X0168310Y0275197D01*
X0168377Y0275154D01*
X0168442Y0275108D01*
X0168504Y0275060D01*
X0168564Y0275008D01*
X0168621Y0274953D01*
X0168675Y0274895D01*
X0168726Y0274835D01*
X0168774Y0274772D01*
X0168819Y0274707D01*
X0168861Y0274639D01*
X0168899Y0274570D01*
X0168933Y0274499D01*
X0168964Y0274426D01*
X0168992Y0274351D01*
X0169015Y0274276D01*
X0169035Y0274199D01*
X0169051Y0274122D01*
X0169063Y0274043D01*
X0169071Y0273965D01*
X0169075Y0273886D01*
X0169075Y0273806D01*
X0169071Y0273727D01*
X0169063Y0273649D01*
X0169051Y0273570D01*
X0169035Y0273493D01*
X0169015Y0273416D01*
X0168992Y0273341D01*
X0168964Y0273266D01*
X0168933Y0273193D01*
X0168899Y0273122D01*
X0168861Y0273053D01*
X0168819Y0272985D01*
X0168774Y0272920D01*
X0168726Y0272857D01*
X0168675Y0272797D01*
X0168621Y0272739D01*
X0168564Y0272684D01*
X0168504Y0272632D01*
X0168442Y0272584D01*
X0168377Y0272538D01*
X0168310Y0272495D01*
X0168241Y0272456D01*
X0168171Y0272421D01*
X0168098Y0272389D01*
X0168024Y0272361D01*
X0167949Y0272336D01*
X0167872Y0272316D01*
X0167795Y0272299D01*
X0167717Y0272286D01*
X0167638Y0272277D01*
X0167559Y0272272D01*
X0167480Y0272271D01*
X0167401Y0272274D01*
X0167322Y0272281D01*
X0167244Y0272292D01*
X0167166Y0272307D01*
X0167089Y0272326D01*
X0167013Y0272348D01*
X0166939Y0272374D01*
X0166865Y0272404D01*
X0166794Y0272438D01*
X0166724Y0272475D01*
X0166656Y0272516D01*
X0166590Y0272560D01*
X0166527Y0272608D01*
X0166466Y0272658D01*
X0166407Y0272712D01*
X0166352Y0272768D01*
X0166299Y0272827D01*
X0166249Y0272889D01*
X0166203Y0272953D01*
X0166160Y0273019D01*
X0166120Y0273087D01*
X0166083Y0273158D01*
X0166051Y0273230D01*
X0166021Y0273303D01*
X0165996Y0273378D01*
X0165974Y0273454D01*
X0165957Y0273531D01*
X0165943Y0273609D01*
X0165933Y0273688D01*
X0165927Y0273767D01*
X0165925Y0273846D01*
X0178090Y0302126D02*
X0178092Y0302191D01*
X0178098Y0302257D01*
X0178108Y0302321D01*
X0178121Y0302385D01*
X0178139Y0302448D01*
X0178160Y0302510D01*
X0178185Y0302570D01*
X0178214Y0302629D01*
X0178246Y0302686D01*
X0178282Y0302741D01*
X0178320Y0302794D01*
X0178362Y0302844D01*
X0178407Y0302892D01*
X0178455Y0302937D01*
X0178505Y0302979D01*
X0178558Y0303017D01*
X0178613Y0303053D01*
X0178670Y0303085D01*
X0178729Y0303114D01*
X0178789Y0303139D01*
X0178851Y0303160D01*
X0178914Y0303178D01*
X0178978Y0303191D01*
X0179042Y0303201D01*
X0179108Y0303207D01*
X0179173Y0303209D01*
X0179238Y0303207D01*
X0179304Y0303201D01*
X0179368Y0303191D01*
X0179432Y0303178D01*
X0179495Y0303160D01*
X0179557Y0303139D01*
X0179617Y0303114D01*
X0179676Y0303085D01*
X0179733Y0303053D01*
X0179788Y0303017D01*
X0179841Y0302979D01*
X0179891Y0302937D01*
X0179939Y0302892D01*
X0179984Y0302844D01*
X0180026Y0302794D01*
X0180064Y0302741D01*
X0180100Y0302686D01*
X0180132Y0302629D01*
X0180161Y0302570D01*
X0180186Y0302510D01*
X0180207Y0302448D01*
X0180225Y0302385D01*
X0180238Y0302321D01*
X0180248Y0302257D01*
X0180254Y0302191D01*
X0180256Y0302126D01*
X0180254Y0302061D01*
X0180248Y0301995D01*
X0180238Y0301931D01*
X0180225Y0301867D01*
X0180207Y0301804D01*
X0180186Y0301742D01*
X0180161Y0301682D01*
X0180132Y0301623D01*
X0180100Y0301566D01*
X0180064Y0301511D01*
X0180026Y0301458D01*
X0179984Y0301408D01*
X0179939Y0301360D01*
X0179891Y0301315D01*
X0179841Y0301273D01*
X0179788Y0301235D01*
X0179733Y0301199D01*
X0179676Y0301167D01*
X0179617Y0301138D01*
X0179557Y0301113D01*
X0179495Y0301092D01*
X0179432Y0301074D01*
X0179368Y0301061D01*
X0179304Y0301051D01*
X0179238Y0301045D01*
X0179173Y0301043D01*
X0179108Y0301045D01*
X0179042Y0301051D01*
X0178978Y0301061D01*
X0178914Y0301074D01*
X0178851Y0301092D01*
X0178789Y0301113D01*
X0178729Y0301138D01*
X0178670Y0301167D01*
X0178613Y0301199D01*
X0178558Y0301235D01*
X0178505Y0301273D01*
X0178455Y0301315D01*
X0178407Y0301360D01*
X0178362Y0301408D01*
X0178320Y0301458D01*
X0178282Y0301511D01*
X0178246Y0301566D01*
X0178214Y0301623D01*
X0178185Y0301682D01*
X0178160Y0301742D01*
X0178139Y0301804D01*
X0178121Y0301867D01*
X0178108Y0301931D01*
X0178098Y0301995D01*
X0178092Y0302061D01*
X0178090Y0302126D01*
X0178090Y0317874D02*
X0178092Y0317939D01*
X0178098Y0318005D01*
X0178108Y0318069D01*
X0178121Y0318133D01*
X0178139Y0318196D01*
X0178160Y0318258D01*
X0178185Y0318318D01*
X0178214Y0318377D01*
X0178246Y0318434D01*
X0178282Y0318489D01*
X0178320Y0318542D01*
X0178362Y0318592D01*
X0178407Y0318640D01*
X0178455Y0318685D01*
X0178505Y0318727D01*
X0178558Y0318765D01*
X0178613Y0318801D01*
X0178670Y0318833D01*
X0178729Y0318862D01*
X0178789Y0318887D01*
X0178851Y0318908D01*
X0178914Y0318926D01*
X0178978Y0318939D01*
X0179042Y0318949D01*
X0179108Y0318955D01*
X0179173Y0318957D01*
X0179238Y0318955D01*
X0179304Y0318949D01*
X0179368Y0318939D01*
X0179432Y0318926D01*
X0179495Y0318908D01*
X0179557Y0318887D01*
X0179617Y0318862D01*
X0179676Y0318833D01*
X0179733Y0318801D01*
X0179788Y0318765D01*
X0179841Y0318727D01*
X0179891Y0318685D01*
X0179939Y0318640D01*
X0179984Y0318592D01*
X0180026Y0318542D01*
X0180064Y0318489D01*
X0180100Y0318434D01*
X0180132Y0318377D01*
X0180161Y0318318D01*
X0180186Y0318258D01*
X0180207Y0318196D01*
X0180225Y0318133D01*
X0180238Y0318069D01*
X0180248Y0318005D01*
X0180254Y0317939D01*
X0180256Y0317874D01*
X0180254Y0317809D01*
X0180248Y0317743D01*
X0180238Y0317679D01*
X0180225Y0317615D01*
X0180207Y0317552D01*
X0180186Y0317490D01*
X0180161Y0317430D01*
X0180132Y0317371D01*
X0180100Y0317314D01*
X0180064Y0317259D01*
X0180026Y0317206D01*
X0179984Y0317156D01*
X0179939Y0317108D01*
X0179891Y0317063D01*
X0179841Y0317021D01*
X0179788Y0316983D01*
X0179733Y0316947D01*
X0179676Y0316915D01*
X0179617Y0316886D01*
X0179557Y0316861D01*
X0179495Y0316840D01*
X0179432Y0316822D01*
X0179368Y0316809D01*
X0179304Y0316799D01*
X0179238Y0316793D01*
X0179173Y0316791D01*
X0179108Y0316793D01*
X0179042Y0316799D01*
X0178978Y0316809D01*
X0178914Y0316822D01*
X0178851Y0316840D01*
X0178789Y0316861D01*
X0178729Y0316886D01*
X0178670Y0316915D01*
X0178613Y0316947D01*
X0178558Y0316983D01*
X0178505Y0317021D01*
X0178455Y0317063D01*
X0178407Y0317108D01*
X0178362Y0317156D01*
X0178320Y0317206D01*
X0178282Y0317259D01*
X0178246Y0317314D01*
X0178214Y0317371D01*
X0178185Y0317430D01*
X0178160Y0317490D01*
X0178139Y0317552D01*
X0178121Y0317615D01*
X0178108Y0317679D01*
X0178098Y0317743D01*
X0178092Y0317809D01*
X0178090Y0317874D01*
X0165925Y0345654D02*
X0165927Y0345733D01*
X0165933Y0345812D01*
X0165943Y0345891D01*
X0165957Y0345969D01*
X0165974Y0346046D01*
X0165996Y0346122D01*
X0166021Y0346197D01*
X0166051Y0346270D01*
X0166083Y0346342D01*
X0166120Y0346413D01*
X0166160Y0346481D01*
X0166203Y0346547D01*
X0166249Y0346611D01*
X0166299Y0346673D01*
X0166352Y0346732D01*
X0166407Y0346788D01*
X0166466Y0346842D01*
X0166527Y0346892D01*
X0166590Y0346940D01*
X0166656Y0346984D01*
X0166724Y0347025D01*
X0166794Y0347062D01*
X0166865Y0347096D01*
X0166939Y0347126D01*
X0167013Y0347152D01*
X0167089Y0347174D01*
X0167166Y0347193D01*
X0167244Y0347208D01*
X0167322Y0347219D01*
X0167401Y0347226D01*
X0167480Y0347229D01*
X0167559Y0347228D01*
X0167638Y0347223D01*
X0167717Y0347214D01*
X0167795Y0347201D01*
X0167872Y0347184D01*
X0167949Y0347164D01*
X0168024Y0347139D01*
X0168098Y0347111D01*
X0168171Y0347079D01*
X0168241Y0347044D01*
X0168310Y0347005D01*
X0168377Y0346962D01*
X0168442Y0346916D01*
X0168504Y0346868D01*
X0168564Y0346816D01*
X0168621Y0346761D01*
X0168675Y0346703D01*
X0168726Y0346643D01*
X0168774Y0346580D01*
X0168819Y0346515D01*
X0168861Y0346447D01*
X0168899Y0346378D01*
X0168933Y0346307D01*
X0168964Y0346234D01*
X0168992Y0346159D01*
X0169015Y0346084D01*
X0169035Y0346007D01*
X0169051Y0345930D01*
X0169063Y0345851D01*
X0169071Y0345773D01*
X0169075Y0345694D01*
X0169075Y0345614D01*
X0169071Y0345535D01*
X0169063Y0345457D01*
X0169051Y0345378D01*
X0169035Y0345301D01*
X0169015Y0345224D01*
X0168992Y0345149D01*
X0168964Y0345074D01*
X0168933Y0345001D01*
X0168899Y0344930D01*
X0168861Y0344861D01*
X0168819Y0344793D01*
X0168774Y0344728D01*
X0168726Y0344665D01*
X0168675Y0344605D01*
X0168621Y0344547D01*
X0168564Y0344492D01*
X0168504Y0344440D01*
X0168442Y0344392D01*
X0168377Y0344346D01*
X0168310Y0344303D01*
X0168241Y0344264D01*
X0168171Y0344229D01*
X0168098Y0344197D01*
X0168024Y0344169D01*
X0167949Y0344144D01*
X0167872Y0344124D01*
X0167795Y0344107D01*
X0167717Y0344094D01*
X0167638Y0344085D01*
X0167559Y0344080D01*
X0167480Y0344079D01*
X0167401Y0344082D01*
X0167322Y0344089D01*
X0167244Y0344100D01*
X0167166Y0344115D01*
X0167089Y0344134D01*
X0167013Y0344156D01*
X0166939Y0344182D01*
X0166865Y0344212D01*
X0166794Y0344246D01*
X0166724Y0344283D01*
X0166656Y0344324D01*
X0166590Y0344368D01*
X0166527Y0344416D01*
X0166466Y0344466D01*
X0166407Y0344520D01*
X0166352Y0344576D01*
X0166299Y0344635D01*
X0166249Y0344697D01*
X0166203Y0344761D01*
X0166160Y0344827D01*
X0166120Y0344895D01*
X0166083Y0344966D01*
X0166051Y0345038D01*
X0166021Y0345111D01*
X0165996Y0345186D01*
X0165974Y0345262D01*
X0165957Y0345339D01*
X0165943Y0345417D01*
X0165933Y0345496D01*
X0165927Y0345575D01*
X0165925Y0345654D01*
X0165925Y0352346D02*
X0165927Y0352425D01*
X0165933Y0352504D01*
X0165943Y0352583D01*
X0165957Y0352661D01*
X0165974Y0352738D01*
X0165996Y0352814D01*
X0166021Y0352889D01*
X0166051Y0352962D01*
X0166083Y0353034D01*
X0166120Y0353105D01*
X0166160Y0353173D01*
X0166203Y0353239D01*
X0166249Y0353303D01*
X0166299Y0353365D01*
X0166352Y0353424D01*
X0166407Y0353480D01*
X0166466Y0353534D01*
X0166527Y0353584D01*
X0166590Y0353632D01*
X0166656Y0353676D01*
X0166724Y0353717D01*
X0166794Y0353754D01*
X0166865Y0353788D01*
X0166939Y0353818D01*
X0167013Y0353844D01*
X0167089Y0353866D01*
X0167166Y0353885D01*
X0167244Y0353900D01*
X0167322Y0353911D01*
X0167401Y0353918D01*
X0167480Y0353921D01*
X0167559Y0353920D01*
X0167638Y0353915D01*
X0167717Y0353906D01*
X0167795Y0353893D01*
X0167872Y0353876D01*
X0167949Y0353856D01*
X0168024Y0353831D01*
X0168098Y0353803D01*
X0168171Y0353771D01*
X0168241Y0353736D01*
X0168310Y0353697D01*
X0168377Y0353654D01*
X0168442Y0353608D01*
X0168504Y0353560D01*
X0168564Y0353508D01*
X0168621Y0353453D01*
X0168675Y0353395D01*
X0168726Y0353335D01*
X0168774Y0353272D01*
X0168819Y0353207D01*
X0168861Y0353139D01*
X0168899Y0353070D01*
X0168933Y0352999D01*
X0168964Y0352926D01*
X0168992Y0352851D01*
X0169015Y0352776D01*
X0169035Y0352699D01*
X0169051Y0352622D01*
X0169063Y0352543D01*
X0169071Y0352465D01*
X0169075Y0352386D01*
X0169075Y0352306D01*
X0169071Y0352227D01*
X0169063Y0352149D01*
X0169051Y0352070D01*
X0169035Y0351993D01*
X0169015Y0351916D01*
X0168992Y0351841D01*
X0168964Y0351766D01*
X0168933Y0351693D01*
X0168899Y0351622D01*
X0168861Y0351553D01*
X0168819Y0351485D01*
X0168774Y0351420D01*
X0168726Y0351357D01*
X0168675Y0351297D01*
X0168621Y0351239D01*
X0168564Y0351184D01*
X0168504Y0351132D01*
X0168442Y0351084D01*
X0168377Y0351038D01*
X0168310Y0350995D01*
X0168241Y0350956D01*
X0168171Y0350921D01*
X0168098Y0350889D01*
X0168024Y0350861D01*
X0167949Y0350836D01*
X0167872Y0350816D01*
X0167795Y0350799D01*
X0167717Y0350786D01*
X0167638Y0350777D01*
X0167559Y0350772D01*
X0167480Y0350771D01*
X0167401Y0350774D01*
X0167322Y0350781D01*
X0167244Y0350792D01*
X0167166Y0350807D01*
X0167089Y0350826D01*
X0167013Y0350848D01*
X0166939Y0350874D01*
X0166865Y0350904D01*
X0166794Y0350938D01*
X0166724Y0350975D01*
X0166656Y0351016D01*
X0166590Y0351060D01*
X0166527Y0351108D01*
X0166466Y0351158D01*
X0166407Y0351212D01*
X0166352Y0351268D01*
X0166299Y0351327D01*
X0166249Y0351389D01*
X0166203Y0351453D01*
X0166160Y0351519D01*
X0166120Y0351587D01*
X0166083Y0351658D01*
X0166051Y0351730D01*
X0166021Y0351803D01*
X0165996Y0351878D01*
X0165974Y0351954D01*
X0165957Y0352031D01*
X0165943Y0352109D01*
X0165933Y0352188D01*
X0165927Y0352267D01*
X0165925Y0352346D01*
X0379425Y0269346D02*
X0379427Y0269425D01*
X0379433Y0269504D01*
X0379443Y0269583D01*
X0379457Y0269661D01*
X0379474Y0269738D01*
X0379496Y0269814D01*
X0379521Y0269889D01*
X0379551Y0269962D01*
X0379583Y0270034D01*
X0379620Y0270105D01*
X0379660Y0270173D01*
X0379703Y0270239D01*
X0379749Y0270303D01*
X0379799Y0270365D01*
X0379852Y0270424D01*
X0379907Y0270480D01*
X0379966Y0270534D01*
X0380027Y0270584D01*
X0380090Y0270632D01*
X0380156Y0270676D01*
X0380224Y0270717D01*
X0380294Y0270754D01*
X0380365Y0270788D01*
X0380439Y0270818D01*
X0380513Y0270844D01*
X0380589Y0270866D01*
X0380666Y0270885D01*
X0380744Y0270900D01*
X0380822Y0270911D01*
X0380901Y0270918D01*
X0380980Y0270921D01*
X0381059Y0270920D01*
X0381138Y0270915D01*
X0381217Y0270906D01*
X0381295Y0270893D01*
X0381372Y0270876D01*
X0381449Y0270856D01*
X0381524Y0270831D01*
X0381598Y0270803D01*
X0381671Y0270771D01*
X0381741Y0270736D01*
X0381810Y0270697D01*
X0381877Y0270654D01*
X0381942Y0270608D01*
X0382004Y0270560D01*
X0382064Y0270508D01*
X0382121Y0270453D01*
X0382175Y0270395D01*
X0382226Y0270335D01*
X0382274Y0270272D01*
X0382319Y0270207D01*
X0382361Y0270139D01*
X0382399Y0270070D01*
X0382433Y0269999D01*
X0382464Y0269926D01*
X0382492Y0269851D01*
X0382515Y0269776D01*
X0382535Y0269699D01*
X0382551Y0269622D01*
X0382563Y0269543D01*
X0382571Y0269465D01*
X0382575Y0269386D01*
X0382575Y0269306D01*
X0382571Y0269227D01*
X0382563Y0269149D01*
X0382551Y0269070D01*
X0382535Y0268993D01*
X0382515Y0268916D01*
X0382492Y0268841D01*
X0382464Y0268766D01*
X0382433Y0268693D01*
X0382399Y0268622D01*
X0382361Y0268553D01*
X0382319Y0268485D01*
X0382274Y0268420D01*
X0382226Y0268357D01*
X0382175Y0268297D01*
X0382121Y0268239D01*
X0382064Y0268184D01*
X0382004Y0268132D01*
X0381942Y0268084D01*
X0381877Y0268038D01*
X0381810Y0267995D01*
X0381741Y0267956D01*
X0381671Y0267921D01*
X0381598Y0267889D01*
X0381524Y0267861D01*
X0381449Y0267836D01*
X0381372Y0267816D01*
X0381295Y0267799D01*
X0381217Y0267786D01*
X0381138Y0267777D01*
X0381059Y0267772D01*
X0380980Y0267771D01*
X0380901Y0267774D01*
X0380822Y0267781D01*
X0380744Y0267792D01*
X0380666Y0267807D01*
X0380589Y0267826D01*
X0380513Y0267848D01*
X0380439Y0267874D01*
X0380365Y0267904D01*
X0380294Y0267938D01*
X0380224Y0267975D01*
X0380156Y0268016D01*
X0380090Y0268060D01*
X0380027Y0268108D01*
X0379966Y0268158D01*
X0379907Y0268212D01*
X0379852Y0268268D01*
X0379799Y0268327D01*
X0379749Y0268389D01*
X0379703Y0268453D01*
X0379660Y0268519D01*
X0379620Y0268587D01*
X0379583Y0268658D01*
X0379551Y0268730D01*
X0379521Y0268803D01*
X0379496Y0268878D01*
X0379474Y0268954D01*
X0379457Y0269031D01*
X0379443Y0269109D01*
X0379433Y0269188D01*
X0379427Y0269267D01*
X0379425Y0269346D01*
X0379425Y0262654D02*
X0379427Y0262733D01*
X0379433Y0262812D01*
X0379443Y0262891D01*
X0379457Y0262969D01*
X0379474Y0263046D01*
X0379496Y0263122D01*
X0379521Y0263197D01*
X0379551Y0263270D01*
X0379583Y0263342D01*
X0379620Y0263413D01*
X0379660Y0263481D01*
X0379703Y0263547D01*
X0379749Y0263611D01*
X0379799Y0263673D01*
X0379852Y0263732D01*
X0379907Y0263788D01*
X0379966Y0263842D01*
X0380027Y0263892D01*
X0380090Y0263940D01*
X0380156Y0263984D01*
X0380224Y0264025D01*
X0380294Y0264062D01*
X0380365Y0264096D01*
X0380439Y0264126D01*
X0380513Y0264152D01*
X0380589Y0264174D01*
X0380666Y0264193D01*
X0380744Y0264208D01*
X0380822Y0264219D01*
X0380901Y0264226D01*
X0380980Y0264229D01*
X0381059Y0264228D01*
X0381138Y0264223D01*
X0381217Y0264214D01*
X0381295Y0264201D01*
X0381372Y0264184D01*
X0381449Y0264164D01*
X0381524Y0264139D01*
X0381598Y0264111D01*
X0381671Y0264079D01*
X0381741Y0264044D01*
X0381810Y0264005D01*
X0381877Y0263962D01*
X0381942Y0263916D01*
X0382004Y0263868D01*
X0382064Y0263816D01*
X0382121Y0263761D01*
X0382175Y0263703D01*
X0382226Y0263643D01*
X0382274Y0263580D01*
X0382319Y0263515D01*
X0382361Y0263447D01*
X0382399Y0263378D01*
X0382433Y0263307D01*
X0382464Y0263234D01*
X0382492Y0263159D01*
X0382515Y0263084D01*
X0382535Y0263007D01*
X0382551Y0262930D01*
X0382563Y0262851D01*
X0382571Y0262773D01*
X0382575Y0262694D01*
X0382575Y0262614D01*
X0382571Y0262535D01*
X0382563Y0262457D01*
X0382551Y0262378D01*
X0382535Y0262301D01*
X0382515Y0262224D01*
X0382492Y0262149D01*
X0382464Y0262074D01*
X0382433Y0262001D01*
X0382399Y0261930D01*
X0382361Y0261861D01*
X0382319Y0261793D01*
X0382274Y0261728D01*
X0382226Y0261665D01*
X0382175Y0261605D01*
X0382121Y0261547D01*
X0382064Y0261492D01*
X0382004Y0261440D01*
X0381942Y0261392D01*
X0381877Y0261346D01*
X0381810Y0261303D01*
X0381741Y0261264D01*
X0381671Y0261229D01*
X0381598Y0261197D01*
X0381524Y0261169D01*
X0381449Y0261144D01*
X0381372Y0261124D01*
X0381295Y0261107D01*
X0381217Y0261094D01*
X0381138Y0261085D01*
X0381059Y0261080D01*
X0380980Y0261079D01*
X0380901Y0261082D01*
X0380822Y0261089D01*
X0380744Y0261100D01*
X0380666Y0261115D01*
X0380589Y0261134D01*
X0380513Y0261156D01*
X0380439Y0261182D01*
X0380365Y0261212D01*
X0380294Y0261246D01*
X0380224Y0261283D01*
X0380156Y0261324D01*
X0380090Y0261368D01*
X0380027Y0261416D01*
X0379966Y0261466D01*
X0379907Y0261520D01*
X0379852Y0261576D01*
X0379799Y0261635D01*
X0379749Y0261697D01*
X0379703Y0261761D01*
X0379660Y0261827D01*
X0379620Y0261895D01*
X0379583Y0261966D01*
X0379551Y0262038D01*
X0379521Y0262111D01*
X0379496Y0262186D01*
X0379474Y0262262D01*
X0379457Y0262339D01*
X0379443Y0262417D01*
X0379433Y0262496D01*
X0379427Y0262575D01*
X0379425Y0262654D01*
D11*
X0189547Y0312637D03*
D12*
X0196240Y0312637D03*
X0196240Y0304763D03*
X0188760Y0304763D03*
D13*
X0188500Y0298500D03*
X0191500Y0298500D03*
X0202000Y0295500D03*
X0202000Y0292500D03*
X0206000Y0292500D03*
X0206000Y0295500D03*
X0208500Y0284000D03*
X0208500Y0281000D03*
X0212500Y0281000D03*
X0212500Y0284000D03*
X0212000Y0276500D03*
X0209000Y0276500D03*
X0204000Y0276500D03*
X0201000Y0276500D03*
X0202000Y0281000D03*
X0199000Y0281000D03*
X0196000Y0276500D03*
X0193000Y0276500D03*
X0190000Y0271000D03*
X0187000Y0271000D03*
X0212500Y0272000D03*
X0212500Y0269000D03*
X0212500Y0264000D03*
X0212500Y0261000D03*
X0216500Y0261000D03*
X0216500Y0264000D03*
X0217000Y0274500D03*
X0220000Y0274500D03*
X0256500Y0291000D03*
X0259500Y0291000D03*
X0259500Y0295000D03*
X0256500Y0295000D03*
X0256500Y0299000D03*
X0259500Y0299000D03*
X0259500Y0305000D03*
X0256500Y0305000D03*
X0256500Y0309000D03*
X0259500Y0309000D03*
X0244000Y0311000D03*
X0244000Y0314000D03*
X0239500Y0310500D03*
X0236500Y0310500D03*
X0230000Y0311000D03*
X0230000Y0314000D03*
X0212000Y0312500D03*
X0209000Y0312500D03*
X0207500Y0332000D03*
X0207500Y0335000D03*
X0211500Y0335000D03*
X0211500Y0332000D03*
X0215500Y0332000D03*
X0215500Y0335000D03*
X0219500Y0335000D03*
X0219500Y0332000D03*
X0223500Y0335500D03*
X0223500Y0338500D03*
X0223500Y0343500D03*
X0223500Y0346500D03*
X0230000Y0347000D03*
X0233000Y0347000D03*
X0233000Y0333000D03*
X0230000Y0333000D03*
X0206000Y0340000D03*
X0206000Y0343000D03*
X0202000Y0343000D03*
X0202000Y0340000D03*
X0190000Y0336000D03*
X0187000Y0336000D03*
X0187000Y0332000D03*
X0190000Y0332000D03*
X0188000Y0352000D03*
X0188000Y0355000D03*
X0179102Y0355035D03*
X0179102Y0352035D03*
X0275500Y0346000D03*
X0275500Y0343000D03*
X0277500Y0333500D03*
X0280500Y0333500D03*
X0285500Y0333500D03*
X0288500Y0333500D03*
X0295500Y0339000D03*
X0295500Y0342000D03*
X0317500Y0289000D03*
X0320500Y0289000D03*
X0304000Y0276500D03*
X0301000Y0276500D03*
X0279000Y0276000D03*
X0279000Y0273000D03*
X0365500Y0271000D03*
X0365500Y0268000D03*
X0369500Y0268000D03*
X0369500Y0271000D03*
D14*
X0216547Y0278547D03*
D15*
X0216744Y0280516D03*
X0216744Y0282484D03*
X0216744Y0284453D03*
X0222256Y0284453D03*
X0222256Y0282484D03*
X0222256Y0280516D03*
X0222256Y0278547D03*
D16*
X0229000Y0285252D03*
X0229000Y0291748D03*
D17*
X0220000Y0290000D03*
X0220000Y0297000D03*
X0212000Y0297000D03*
X0212000Y0290000D03*
X0222500Y0269000D03*
X0222500Y0262000D03*
X0250000Y0304500D03*
X0250000Y0311500D03*
D18*
X0204000Y0287500D03*
X0199000Y0287500D03*
X0184465Y0257362D03*
X0179465Y0257362D03*
X0181965Y0334732D03*
X0176965Y0334732D03*
X0179500Y0360000D03*
X0184500Y0360000D03*
D19*
X0189000Y0319500D03*
X0201000Y0319500D03*
D20*
X0171701Y0334083D03*
X0167370Y0334083D03*
X0167835Y0362500D03*
X0172165Y0362500D03*
X0172165Y0286000D03*
X0167835Y0286000D03*
X0167370Y0256953D03*
X0171701Y0256953D03*
D21*
X0181240Y0304882D03*
X0181240Y0307441D03*
X0181240Y0310000D03*
X0181240Y0312559D03*
X0181240Y0315118D03*
D22*
X0170709Y0314724D03*
X0170709Y0305276D03*
X0170709Y0294449D03*
X0170709Y0325551D03*
D23*
X0263617Y0320570D02*
X0267713Y0320570D01*
X0263617Y0320570D02*
X0263617Y0320926D01*
X0267713Y0320926D01*
X0267713Y0320570D01*
X0267713Y0317420D02*
X0263617Y0317420D01*
X0263617Y0317776D01*
X0267713Y0317776D01*
X0267713Y0317420D01*
X0267713Y0314271D02*
X0263617Y0314271D01*
X0263617Y0314627D01*
X0267713Y0314627D01*
X0267713Y0314271D01*
X0267713Y0311121D02*
X0263617Y0311121D01*
X0263617Y0311477D01*
X0267713Y0311477D01*
X0267713Y0311121D01*
X0267713Y0307972D02*
X0263617Y0307972D01*
X0263617Y0308328D01*
X0267713Y0308328D01*
X0267713Y0307972D01*
X0267713Y0304822D02*
X0263617Y0304822D01*
X0263617Y0305178D01*
X0267713Y0305178D01*
X0267713Y0304822D01*
X0267713Y0301672D02*
X0263617Y0301672D01*
X0263617Y0302028D01*
X0267713Y0302028D01*
X0267713Y0301672D01*
X0267713Y0298523D02*
X0263617Y0298523D01*
X0263617Y0298879D01*
X0267713Y0298879D01*
X0267713Y0298523D01*
X0267713Y0295373D02*
X0263617Y0295373D01*
X0263617Y0295729D01*
X0267713Y0295729D01*
X0267713Y0295373D01*
X0267713Y0292224D02*
X0263617Y0292224D01*
X0263617Y0292580D01*
X0267713Y0292580D01*
X0267713Y0292224D01*
X0267713Y0289074D02*
X0263617Y0289074D01*
X0263617Y0289430D01*
X0267713Y0289430D01*
X0267713Y0289074D01*
X0272574Y0280117D02*
X0272930Y0280117D01*
X0272574Y0280117D02*
X0272574Y0284213D01*
X0272930Y0284213D01*
X0272930Y0280117D01*
X0272930Y0281533D02*
X0272574Y0281533D01*
X0272574Y0282949D02*
X0272930Y0282949D01*
X0275724Y0280117D02*
X0276080Y0280117D01*
X0275724Y0280117D02*
X0275724Y0284213D01*
X0276080Y0284213D01*
X0276080Y0280117D01*
X0276080Y0281533D02*
X0275724Y0281533D01*
X0275724Y0282949D02*
X0276080Y0282949D01*
X0278873Y0280117D02*
X0279229Y0280117D01*
X0278873Y0280117D02*
X0278873Y0284213D01*
X0279229Y0284213D01*
X0279229Y0280117D01*
X0279229Y0281533D02*
X0278873Y0281533D01*
X0278873Y0282949D02*
X0279229Y0282949D01*
X0282023Y0280117D02*
X0282379Y0280117D01*
X0282023Y0280117D02*
X0282023Y0284213D01*
X0282379Y0284213D01*
X0282379Y0280117D01*
X0282379Y0281533D02*
X0282023Y0281533D01*
X0282023Y0282949D02*
X0282379Y0282949D01*
X0285172Y0280117D02*
X0285528Y0280117D01*
X0285172Y0280117D02*
X0285172Y0284213D01*
X0285528Y0284213D01*
X0285528Y0280117D01*
X0285528Y0281533D02*
X0285172Y0281533D01*
X0285172Y0282949D02*
X0285528Y0282949D01*
X0288322Y0280117D02*
X0288678Y0280117D01*
X0288322Y0280117D02*
X0288322Y0284213D01*
X0288678Y0284213D01*
X0288678Y0280117D01*
X0288678Y0281533D02*
X0288322Y0281533D01*
X0288322Y0282949D02*
X0288678Y0282949D01*
X0291472Y0280117D02*
X0291828Y0280117D01*
X0291472Y0280117D02*
X0291472Y0284213D01*
X0291828Y0284213D01*
X0291828Y0280117D01*
X0291828Y0281533D02*
X0291472Y0281533D01*
X0291472Y0282949D02*
X0291828Y0282949D01*
X0294621Y0280117D02*
X0294977Y0280117D01*
X0294621Y0280117D02*
X0294621Y0284213D01*
X0294977Y0284213D01*
X0294977Y0280117D01*
X0294977Y0281533D02*
X0294621Y0281533D01*
X0294621Y0282949D02*
X0294977Y0282949D01*
X0297771Y0280117D02*
X0298127Y0280117D01*
X0297771Y0280117D02*
X0297771Y0284213D01*
X0298127Y0284213D01*
X0298127Y0280117D01*
X0298127Y0281533D02*
X0297771Y0281533D01*
X0297771Y0282949D02*
X0298127Y0282949D01*
X0300920Y0280117D02*
X0301276Y0280117D01*
X0300920Y0280117D02*
X0300920Y0284213D01*
X0301276Y0284213D01*
X0301276Y0280117D01*
X0301276Y0281533D02*
X0300920Y0281533D01*
X0300920Y0282949D02*
X0301276Y0282949D01*
X0304070Y0280117D02*
X0304426Y0280117D01*
X0304070Y0280117D02*
X0304070Y0284213D01*
X0304426Y0284213D01*
X0304426Y0280117D01*
X0304426Y0281533D02*
X0304070Y0281533D01*
X0304070Y0282949D02*
X0304426Y0282949D01*
X0309287Y0289074D02*
X0313383Y0289074D01*
X0309287Y0289074D02*
X0309287Y0289430D01*
X0313383Y0289430D01*
X0313383Y0289074D01*
X0313383Y0292224D02*
X0309287Y0292224D01*
X0309287Y0292580D01*
X0313383Y0292580D01*
X0313383Y0292224D01*
X0313383Y0295373D02*
X0309287Y0295373D01*
X0309287Y0295729D01*
X0313383Y0295729D01*
X0313383Y0295373D01*
X0313383Y0298523D02*
X0309287Y0298523D01*
X0309287Y0298879D01*
X0313383Y0298879D01*
X0313383Y0298523D01*
X0313383Y0301672D02*
X0309287Y0301672D01*
X0309287Y0302028D01*
X0313383Y0302028D01*
X0313383Y0301672D01*
X0313383Y0304822D02*
X0309287Y0304822D01*
X0309287Y0305178D01*
X0313383Y0305178D01*
X0313383Y0304822D01*
X0313383Y0307972D02*
X0309287Y0307972D01*
X0309287Y0308328D01*
X0313383Y0308328D01*
X0313383Y0307972D01*
X0313383Y0311121D02*
X0309287Y0311121D01*
X0309287Y0311477D01*
X0313383Y0311477D01*
X0313383Y0311121D01*
X0313383Y0314271D02*
X0309287Y0314271D01*
X0309287Y0314627D01*
X0313383Y0314627D01*
X0313383Y0314271D01*
X0313383Y0317420D02*
X0309287Y0317420D01*
X0309287Y0317776D01*
X0313383Y0317776D01*
X0313383Y0317420D01*
X0313383Y0320570D02*
X0309287Y0320570D01*
X0309287Y0320926D01*
X0313383Y0320926D01*
X0313383Y0320570D01*
X0304426Y0325787D02*
X0304070Y0325787D01*
X0304070Y0329883D01*
X0304426Y0329883D01*
X0304426Y0325787D01*
X0304426Y0327203D02*
X0304070Y0327203D01*
X0304070Y0328619D02*
X0304426Y0328619D01*
X0301276Y0325787D02*
X0300920Y0325787D01*
X0300920Y0329883D01*
X0301276Y0329883D01*
X0301276Y0325787D01*
X0301276Y0327203D02*
X0300920Y0327203D01*
X0300920Y0328619D02*
X0301276Y0328619D01*
X0298127Y0325787D02*
X0297771Y0325787D01*
X0297771Y0329883D01*
X0298127Y0329883D01*
X0298127Y0325787D01*
X0298127Y0327203D02*
X0297771Y0327203D01*
X0297771Y0328619D02*
X0298127Y0328619D01*
X0294977Y0325787D02*
X0294621Y0325787D01*
X0294621Y0329883D01*
X0294977Y0329883D01*
X0294977Y0325787D01*
X0294977Y0327203D02*
X0294621Y0327203D01*
X0294621Y0328619D02*
X0294977Y0328619D01*
X0291828Y0325787D02*
X0291472Y0325787D01*
X0291472Y0329883D01*
X0291828Y0329883D01*
X0291828Y0325787D01*
X0291828Y0327203D02*
X0291472Y0327203D01*
X0291472Y0328619D02*
X0291828Y0328619D01*
X0288678Y0325787D02*
X0288322Y0325787D01*
X0288322Y0329883D01*
X0288678Y0329883D01*
X0288678Y0325787D01*
X0288678Y0327203D02*
X0288322Y0327203D01*
X0288322Y0328619D02*
X0288678Y0328619D01*
X0285528Y0325787D02*
X0285172Y0325787D01*
X0285172Y0329883D01*
X0285528Y0329883D01*
X0285528Y0325787D01*
X0285528Y0327203D02*
X0285172Y0327203D01*
X0285172Y0328619D02*
X0285528Y0328619D01*
X0282379Y0325787D02*
X0282023Y0325787D01*
X0282023Y0329883D01*
X0282379Y0329883D01*
X0282379Y0325787D01*
X0282379Y0327203D02*
X0282023Y0327203D01*
X0282023Y0328619D02*
X0282379Y0328619D01*
X0279229Y0325787D02*
X0278873Y0325787D01*
X0278873Y0329883D01*
X0279229Y0329883D01*
X0279229Y0325787D01*
X0279229Y0327203D02*
X0278873Y0327203D01*
X0278873Y0328619D02*
X0279229Y0328619D01*
X0276080Y0325787D02*
X0275724Y0325787D01*
X0275724Y0329883D01*
X0276080Y0329883D01*
X0276080Y0325787D01*
X0276080Y0327203D02*
X0275724Y0327203D01*
X0275724Y0328619D02*
X0276080Y0328619D01*
X0272930Y0325787D02*
X0272574Y0325787D01*
X0272574Y0329883D01*
X0272930Y0329883D01*
X0272930Y0325787D01*
X0272930Y0327203D02*
X0272574Y0327203D01*
X0272574Y0328619D02*
X0272930Y0328619D01*
D24*
X0286000Y0305000D02*
X0286002Y0305099D01*
X0286008Y0305199D01*
X0286018Y0305298D01*
X0286032Y0305396D01*
X0286049Y0305494D01*
X0286071Y0305591D01*
X0286096Y0305687D01*
X0286125Y0305782D01*
X0286158Y0305876D01*
X0286195Y0305968D01*
X0286235Y0306059D01*
X0286279Y0306148D01*
X0286327Y0306236D01*
X0286378Y0306321D01*
X0286432Y0306404D01*
X0286489Y0306486D01*
X0286550Y0306564D01*
X0286614Y0306641D01*
X0286680Y0306714D01*
X0286750Y0306785D01*
X0286822Y0306853D01*
X0286897Y0306919D01*
X0286975Y0306981D01*
X0287055Y0307040D01*
X0287137Y0307096D01*
X0287221Y0307148D01*
X0287308Y0307197D01*
X0287396Y0307243D01*
X0287486Y0307285D01*
X0287578Y0307324D01*
X0287671Y0307359D01*
X0287765Y0307390D01*
X0287861Y0307417D01*
X0287958Y0307440D01*
X0288055Y0307460D01*
X0288153Y0307476D01*
X0288252Y0307488D01*
X0288351Y0307496D01*
X0288450Y0307500D01*
X0288550Y0307500D01*
X0288649Y0307496D01*
X0288748Y0307488D01*
X0288847Y0307476D01*
X0288945Y0307460D01*
X0289042Y0307440D01*
X0289139Y0307417D01*
X0289235Y0307390D01*
X0289329Y0307359D01*
X0289422Y0307324D01*
X0289514Y0307285D01*
X0289604Y0307243D01*
X0289692Y0307197D01*
X0289779Y0307148D01*
X0289863Y0307096D01*
X0289945Y0307040D01*
X0290025Y0306981D01*
X0290103Y0306919D01*
X0290178Y0306853D01*
X0290250Y0306785D01*
X0290320Y0306714D01*
X0290386Y0306641D01*
X0290450Y0306564D01*
X0290511Y0306486D01*
X0290568Y0306404D01*
X0290622Y0306321D01*
X0290673Y0306236D01*
X0290721Y0306148D01*
X0290765Y0306059D01*
X0290805Y0305968D01*
X0290842Y0305876D01*
X0290875Y0305782D01*
X0290904Y0305687D01*
X0290929Y0305591D01*
X0290951Y0305494D01*
X0290968Y0305396D01*
X0290982Y0305298D01*
X0290992Y0305199D01*
X0290998Y0305099D01*
X0291000Y0305000D01*
X0290998Y0304901D01*
X0290992Y0304801D01*
X0290982Y0304702D01*
X0290968Y0304604D01*
X0290951Y0304506D01*
X0290929Y0304409D01*
X0290904Y0304313D01*
X0290875Y0304218D01*
X0290842Y0304124D01*
X0290805Y0304032D01*
X0290765Y0303941D01*
X0290721Y0303852D01*
X0290673Y0303764D01*
X0290622Y0303679D01*
X0290568Y0303596D01*
X0290511Y0303514D01*
X0290450Y0303436D01*
X0290386Y0303359D01*
X0290320Y0303286D01*
X0290250Y0303215D01*
X0290178Y0303147D01*
X0290103Y0303081D01*
X0290025Y0303019D01*
X0289945Y0302960D01*
X0289863Y0302904D01*
X0289779Y0302852D01*
X0289692Y0302803D01*
X0289604Y0302757D01*
X0289514Y0302715D01*
X0289422Y0302676D01*
X0289329Y0302641D01*
X0289235Y0302610D01*
X0289139Y0302583D01*
X0289042Y0302560D01*
X0288945Y0302540D01*
X0288847Y0302524D01*
X0288748Y0302512D01*
X0288649Y0302504D01*
X0288550Y0302500D01*
X0288450Y0302500D01*
X0288351Y0302504D01*
X0288252Y0302512D01*
X0288153Y0302524D01*
X0288055Y0302540D01*
X0287958Y0302560D01*
X0287861Y0302583D01*
X0287765Y0302610D01*
X0287671Y0302641D01*
X0287578Y0302676D01*
X0287486Y0302715D01*
X0287396Y0302757D01*
X0287308Y0302803D01*
X0287221Y0302852D01*
X0287137Y0302904D01*
X0287055Y0302960D01*
X0286975Y0303019D01*
X0286897Y0303081D01*
X0286822Y0303147D01*
X0286750Y0303215D01*
X0286680Y0303286D01*
X0286614Y0303359D01*
X0286550Y0303436D01*
X0286489Y0303514D01*
X0286432Y0303596D01*
X0286378Y0303679D01*
X0286327Y0303764D01*
X0286279Y0303852D01*
X0286235Y0303941D01*
X0286195Y0304032D01*
X0286158Y0304124D01*
X0286125Y0304218D01*
X0286096Y0304313D01*
X0286071Y0304409D01*
X0286049Y0304506D01*
X0286032Y0304604D01*
X0286018Y0304702D01*
X0286008Y0304801D01*
X0286002Y0304901D01*
X0286000Y0305000D01*
D25*
X0276649Y0304892D02*
X0274563Y0304892D01*
X0274563Y0305108D01*
X0276649Y0305108D01*
X0276649Y0304892D01*
X0276649Y0302923D02*
X0274563Y0302923D01*
X0274563Y0303139D01*
X0276649Y0303139D01*
X0276649Y0302923D01*
X0276649Y0300955D02*
X0274563Y0300955D01*
X0274563Y0301171D01*
X0276649Y0301171D01*
X0276649Y0300955D01*
X0276649Y0298986D02*
X0274563Y0298986D01*
X0274563Y0299202D01*
X0276649Y0299202D01*
X0276649Y0298986D01*
X0276649Y0297018D02*
X0274563Y0297018D01*
X0274563Y0297234D01*
X0276649Y0297234D01*
X0276649Y0297018D01*
X0276649Y0295049D02*
X0274563Y0295049D01*
X0274563Y0295265D01*
X0276649Y0295265D01*
X0276649Y0295049D01*
X0278765Y0293149D02*
X0278765Y0291063D01*
X0278549Y0291063D01*
X0278549Y0293149D01*
X0278765Y0293149D01*
X0278765Y0291928D02*
X0278549Y0291928D01*
X0278549Y0292793D02*
X0278765Y0292793D01*
X0280734Y0293149D02*
X0280734Y0291063D01*
X0280518Y0291063D01*
X0280518Y0293149D01*
X0280734Y0293149D01*
X0280734Y0291928D02*
X0280518Y0291928D01*
X0280518Y0292793D02*
X0280734Y0292793D01*
X0282702Y0293149D02*
X0282702Y0291063D01*
X0282486Y0291063D01*
X0282486Y0293149D01*
X0282702Y0293149D01*
X0282702Y0291928D02*
X0282486Y0291928D01*
X0282486Y0292793D02*
X0282702Y0292793D01*
X0284671Y0293149D02*
X0284671Y0291063D01*
X0284455Y0291063D01*
X0284455Y0293149D01*
X0284671Y0293149D01*
X0284671Y0291928D02*
X0284455Y0291928D01*
X0284455Y0292793D02*
X0284671Y0292793D01*
X0286639Y0293149D02*
X0286639Y0291063D01*
X0286423Y0291063D01*
X0286423Y0293149D01*
X0286639Y0293149D01*
X0286639Y0291928D02*
X0286423Y0291928D01*
X0286423Y0292793D02*
X0286639Y0292793D01*
X0288608Y0293149D02*
X0288608Y0291063D01*
X0288392Y0291063D01*
X0288392Y0293149D01*
X0288608Y0293149D01*
X0288608Y0291928D02*
X0288392Y0291928D01*
X0288392Y0292793D02*
X0288608Y0292793D01*
X0290577Y0293149D02*
X0290577Y0291063D01*
X0290361Y0291063D01*
X0290361Y0293149D01*
X0290577Y0293149D01*
X0290577Y0291928D02*
X0290361Y0291928D01*
X0290361Y0292793D02*
X0290577Y0292793D01*
X0292545Y0293149D02*
X0292545Y0291063D01*
X0292329Y0291063D01*
X0292329Y0293149D01*
X0292545Y0293149D01*
X0292545Y0291928D02*
X0292329Y0291928D01*
X0292329Y0292793D02*
X0292545Y0292793D01*
X0294514Y0293149D02*
X0294514Y0291063D01*
X0294298Y0291063D01*
X0294298Y0293149D01*
X0294514Y0293149D01*
X0294514Y0291928D02*
X0294298Y0291928D01*
X0294298Y0292793D02*
X0294514Y0292793D01*
X0296482Y0293149D02*
X0296482Y0291063D01*
X0296266Y0291063D01*
X0296266Y0293149D01*
X0296482Y0293149D01*
X0296482Y0291928D02*
X0296266Y0291928D01*
X0296266Y0292793D02*
X0296482Y0292793D01*
X0298451Y0293149D02*
X0298451Y0291063D01*
X0298235Y0291063D01*
X0298235Y0293149D01*
X0298451Y0293149D01*
X0298451Y0291928D02*
X0298235Y0291928D01*
X0298235Y0292793D02*
X0298451Y0292793D01*
X0300351Y0295265D02*
X0302437Y0295265D01*
X0302437Y0295049D01*
X0300351Y0295049D01*
X0300351Y0295265D01*
X0300351Y0297234D02*
X0302437Y0297234D01*
X0302437Y0297018D01*
X0300351Y0297018D01*
X0300351Y0297234D01*
X0300351Y0299202D02*
X0302437Y0299202D01*
X0302437Y0298986D01*
X0300351Y0298986D01*
X0300351Y0299202D01*
X0300351Y0301171D02*
X0302437Y0301171D01*
X0302437Y0300955D01*
X0300351Y0300955D01*
X0300351Y0301171D01*
X0300351Y0303139D02*
X0302437Y0303139D01*
X0302437Y0302923D01*
X0300351Y0302923D01*
X0300351Y0303139D01*
X0300351Y0305108D02*
X0302437Y0305108D01*
X0302437Y0304892D01*
X0300351Y0304892D01*
X0300351Y0305108D01*
X0300351Y0307077D02*
X0302437Y0307077D01*
X0302437Y0306861D01*
X0300351Y0306861D01*
X0300351Y0307077D01*
X0300351Y0309045D02*
X0302437Y0309045D01*
X0302437Y0308829D01*
X0300351Y0308829D01*
X0300351Y0309045D01*
X0300351Y0311014D02*
X0302437Y0311014D01*
X0302437Y0310798D01*
X0300351Y0310798D01*
X0300351Y0311014D01*
X0300351Y0312982D02*
X0302437Y0312982D01*
X0302437Y0312766D01*
X0300351Y0312766D01*
X0300351Y0312982D01*
X0300351Y0314951D02*
X0302437Y0314951D01*
X0302437Y0314735D01*
X0300351Y0314735D01*
X0300351Y0314951D01*
X0298235Y0316851D02*
X0298235Y0318937D01*
X0298451Y0318937D01*
X0298451Y0316851D01*
X0298235Y0316851D01*
X0298235Y0317716D02*
X0298451Y0317716D01*
X0298451Y0318581D02*
X0298235Y0318581D01*
X0296266Y0318937D02*
X0296266Y0316851D01*
X0296266Y0318937D02*
X0296482Y0318937D01*
X0296482Y0316851D01*
X0296266Y0316851D01*
X0296266Y0317716D02*
X0296482Y0317716D01*
X0296482Y0318581D02*
X0296266Y0318581D01*
X0294298Y0318937D02*
X0294298Y0316851D01*
X0294298Y0318937D02*
X0294514Y0318937D01*
X0294514Y0316851D01*
X0294298Y0316851D01*
X0294298Y0317716D02*
X0294514Y0317716D01*
X0294514Y0318581D02*
X0294298Y0318581D01*
X0292329Y0318937D02*
X0292329Y0316851D01*
X0292329Y0318937D02*
X0292545Y0318937D01*
X0292545Y0316851D01*
X0292329Y0316851D01*
X0292329Y0317716D02*
X0292545Y0317716D01*
X0292545Y0318581D02*
X0292329Y0318581D01*
X0290361Y0318937D02*
X0290361Y0316851D01*
X0290361Y0318937D02*
X0290577Y0318937D01*
X0290577Y0316851D01*
X0290361Y0316851D01*
X0290361Y0317716D02*
X0290577Y0317716D01*
X0290577Y0318581D02*
X0290361Y0318581D01*
X0288392Y0318937D02*
X0288392Y0316851D01*
X0288392Y0318937D02*
X0288608Y0318937D01*
X0288608Y0316851D01*
X0288392Y0316851D01*
X0288392Y0317716D02*
X0288608Y0317716D01*
X0288608Y0318581D02*
X0288392Y0318581D01*
X0286423Y0318937D02*
X0286423Y0316851D01*
X0286423Y0318937D02*
X0286639Y0318937D01*
X0286639Y0316851D01*
X0286423Y0316851D01*
X0286423Y0317716D02*
X0286639Y0317716D01*
X0286639Y0318581D02*
X0286423Y0318581D01*
X0284455Y0318937D02*
X0284455Y0316851D01*
X0284455Y0318937D02*
X0284671Y0318937D01*
X0284671Y0316851D01*
X0284455Y0316851D01*
X0284455Y0317716D02*
X0284671Y0317716D01*
X0284671Y0318581D02*
X0284455Y0318581D01*
X0282486Y0318937D02*
X0282486Y0316851D01*
X0282486Y0318937D02*
X0282702Y0318937D01*
X0282702Y0316851D01*
X0282486Y0316851D01*
X0282486Y0317716D02*
X0282702Y0317716D01*
X0282702Y0318581D02*
X0282486Y0318581D01*
X0280518Y0318937D02*
X0280518Y0316851D01*
X0280518Y0318937D02*
X0280734Y0318937D01*
X0280734Y0316851D01*
X0280518Y0316851D01*
X0280518Y0317716D02*
X0280734Y0317716D01*
X0280734Y0318581D02*
X0280518Y0318581D01*
X0278549Y0318937D02*
X0278549Y0316851D01*
X0278549Y0318937D02*
X0278765Y0318937D01*
X0278765Y0316851D01*
X0278549Y0316851D01*
X0278549Y0317716D02*
X0278765Y0317716D01*
X0278765Y0318581D02*
X0278549Y0318581D01*
X0276649Y0314735D02*
X0274563Y0314735D01*
X0274563Y0314951D01*
X0276649Y0314951D01*
X0276649Y0314735D01*
X0276649Y0312766D02*
X0274563Y0312766D01*
X0274563Y0312982D01*
X0276649Y0312982D01*
X0276649Y0312766D01*
X0276649Y0310798D02*
X0274563Y0310798D01*
X0274563Y0311014D01*
X0276649Y0311014D01*
X0276649Y0310798D01*
X0276649Y0308829D02*
X0274563Y0308829D01*
X0274563Y0309045D01*
X0276649Y0309045D01*
X0276649Y0308829D01*
X0276649Y0306861D02*
X0274563Y0306861D01*
X0274563Y0307077D01*
X0276649Y0307077D01*
X0276649Y0306861D01*
D26*
X0281000Y0339000D03*
X0290000Y0339000D03*
X0290000Y0346000D03*
X0281000Y0346000D03*
D27*
X0237000Y0321248D03*
X0237000Y0314752D03*
X0231287Y0337933D03*
D28*
X0234047Y0321150D03*
X0234047Y0319575D03*
X0234047Y0318000D03*
X0234047Y0316425D03*
X0239953Y0316425D03*
X0239953Y0314850D03*
X0239953Y0318000D03*
X0239953Y0319575D03*
X0239953Y0321150D03*
D29*
X0234047Y0314654D03*
D30*
X0229713Y0337736D03*
X0229713Y0342264D03*
X0231287Y0342264D03*
D31*
X0233551Y0341575D03*
X0233551Y0340000D03*
X0233551Y0338425D03*
X0227449Y0338425D03*
X0227449Y0340000D03*
X0227449Y0341575D03*
D32*
X0217839Y0326626D03*
X0215280Y0326626D03*
X0212720Y0326626D03*
X0210161Y0326626D03*
X0210161Y0317374D03*
X0212720Y0317374D03*
X0215280Y0317374D03*
X0217839Y0317374D03*
D33*
X0213500Y0340260D03*
X0210941Y0347740D03*
X0216059Y0347740D03*
D34*
X0187240Y0341169D03*
X0179760Y0341169D03*
X0183500Y0349831D03*
D35*
X0173602Y0355594D03*
X0173602Y0342406D03*
X0173602Y0277094D03*
X0173602Y0263906D03*
X0374898Y0259406D03*
X0374898Y0272594D03*
D36*
X0381000Y0275055D03*
X0381000Y0256945D03*
X0167500Y0261445D03*
X0167500Y0279555D03*
X0167500Y0339945D03*
X0167500Y0358055D03*
D37*
X0190000Y0292815D03*
X0190000Y0282185D03*
D38*
X0190000Y0265000D03*
X0183000Y0265000D03*
D39*
X0196882Y0263760D03*
X0196882Y0267500D03*
X0196882Y0271240D03*
X0207118Y0271240D03*
X0207118Y0267500D03*
X0207118Y0263760D03*
M02*
