%
M48
M72
T01C0.0118
T02C0.0217
T03C0.0315
T04C0.0400
T05C0.1260
%
T01
X17500Y25500
X19250Y26200
X19600Y26550
X19900Y26200
X19500Y27500
X19650Y28000
X19950Y28000
X19500Y28500
X20400Y29000
X20700Y29300
X20900Y29600
X21600Y29100
X21850Y29450
X22100Y29100
X21850Y28700
X21600Y28300
X22100Y28300
X22150Y27850
X21450Y27450
X21050Y27550
X20500Y27500
X18550Y27550
X18550Y28050
X18200Y28500
X17900Y28300
X17900Y28700
X18500Y29000
X18600Y29400
X18800Y29650
X19000Y29400
X19150Y29650
X19300Y30200
X19000Y30250
X19600Y30050
X19400Y30850
X19600Y31080
X19800Y30850
X20200Y31050
X20000Y31250
X20400Y31250
X19900Y31850
X20050Y32100
X19600Y32030
X19600Y31670
X18370Y31560
X18370Y31860
X18380Y32160
X19400Y32950
X19500Y33500
X19350Y34050
X18850Y34550
X18050Y34250
X18650Y33700
X19960Y32920
X19960Y32660
X20470Y33100
X21000Y32800
X21300Y33800
X21400Y34100
X20750Y34750
X20050Y34950
X20850Y35650
X20500Y36500
X21500Y36500
X22200Y34900
X23800Y34850
X23750Y34150
X24300Y34350
X25500Y34500
X25500Y35500
X25850Y35450
X26650Y35450
X27450Y35450
X28200Y35450
X29000Y35450
X29800Y35450
X30600Y35450
X30500Y34500
X29500Y34500
X29500Y33500
X29500Y32500
X30500Y32500
X30500Y33500
X31500Y33500
X31500Y32500
X32500Y32500
X32500Y33500
X33500Y33500
X33500Y32500
X34500Y32500
X34500Y33500
X35500Y33500
X35500Y32500
X36500Y32500
X36500Y33500
X36500Y34500
X35500Y34500
X34500Y34500
X34500Y35450
X33750Y35450
X32950Y35450
X32500Y35500
X32150Y35450
X32500Y34500
X31500Y34500
X33500Y34500
X35300Y35450
X36500Y35500
X37500Y35500
X38500Y35500
X39500Y35500
X39900Y34750
X39500Y34510
X39000Y34500
X38750Y34300
X38750Y34000
X39000Y33750
X39500Y33750
X40050Y33900
X40500Y34225
X41025Y34075
X41550Y34075
X42125Y34125
X42125Y34875
X42125Y35500
X42500Y35750
X43000Y35750
X43500Y35750
X44000Y35750
X44250Y36000
X44250Y36500
X43500Y36500
X41500Y34800
X41000Y34800
X40500Y34800
X40500Y35500
X38500Y34500
X37500Y34500
X37500Y33500
X37500Y32500
X38500Y32500
X38500Y33500
X38850Y31800
X38850Y31000
X38500Y30500
X37500Y30500
X37500Y29500
X38500Y29500
X38500Y28500
X37500Y28500
X36500Y28500
X35500Y28500
X34500Y28500
X34500Y29500
X35500Y29500
X36500Y29500
X36500Y30500
X35500Y30500
X34500Y30500
X33500Y30500
X32500Y30500
X31500Y29500
X31500Y28500
X32500Y28500
X33500Y29500
X30500Y29500
X29500Y29500
X29500Y28500
X30500Y28500
X28500Y28500
X27500Y28500
X26500Y28500
X26500Y29500
X27500Y29500
X28500Y29500
X28500Y30500
X27500Y30500
X25500Y30500
X24500Y30500
X24500Y29500
X23500Y29500
X23700Y28650
X25500Y28500
X23850Y27050
X24000Y26800
X24250Y26600
X25050Y26600
X25800Y26600
X26600Y26600
X27500Y26500
X28500Y26500
X29500Y26500
X31000Y26500
X32500Y26500
X35000Y26900
X36500Y26500
X36500Y25500
X37500Y25500
X38500Y25500
X39500Y25500
X40500Y26500
X41500Y26500
X41500Y25500
X42500Y26500
X42500Y27500
X42125Y27500
X42125Y28000
X42125Y28500
X42125Y29000
X42125Y29500
X42125Y30000
X42125Y30500
X42125Y31000
X42125Y31500
X42125Y32000
X42125Y32500
X42125Y33000
X42125Y33500
X41500Y33500
X41500Y32500
X40500Y32500
X40500Y33500
X40500Y31500
X41500Y31500
X41500Y30500
X40500Y30500
X40500Y29500
X41500Y29500
X41500Y28500
X40500Y27500
X43500Y25500
X44250Y25500
X44250Y26000
X44250Y26500
X44250Y27000
X44000Y27500
X37800Y31500
X30500Y30500
X29500Y30500
X28500Y32500
X28500Y33500
X27500Y33500
X27500Y32500
X26500Y33500
X26500Y34500
X27500Y34500
X28500Y34500
X25500Y32500
X24500Y32500
X24500Y33500
X23300Y32200
X22750Y31790
X21800Y31100
X21300Y31000
X21350Y31350
X20900Y30400
X18550Y30730
X17800Y30500
X16700Y28800
X17500Y27500
X24500Y25500
X25500Y25500
X22200Y33350
X24300Y35400
X25000Y35450
X23500Y36500
X18500Y36500
X17150Y34650
X16700Y33200
T02
X17917Y31787
X17917Y30213
T03
X16850Y34315
X16850Y34985
T04
X17000Y25000
X18000Y25000
X19000Y25000
X20000Y25000
X21000Y25000
X22000Y25000
X23000Y25000
X24000Y25000
X25000Y25000
X26000Y25000
X27000Y25000
X28000Y25000
X29000Y25000
X30000Y25000
X31000Y25000
X32000Y25000
X33000Y25000
X34000Y25000
X35000Y25000
X36000Y25000
X37000Y25000
X38000Y25000
X39000Y25000
X40000Y25000
X41000Y25000
X42000Y25000
X43000Y25000
X44000Y25000
X44000Y37000
X43000Y37000
X42000Y37000
X41000Y37000
X40000Y37000
X39000Y37000
X38000Y37000
X37000Y37000
X36000Y37000
X35000Y37000
X34000Y37000
X33000Y37000
X32000Y37000
X31000Y37000
X30000Y37000
X29000Y37000
X28000Y37000
X27000Y37000
X26000Y37000
X25000Y37000
X24000Y37000
X23000Y37000
X22000Y37000
X21000Y37000
X20000Y37000
X19000Y37000
X18000Y37000
X17000Y37000
T05
X19000Y35700
X43335Y26862
M30
