G75*
%MOIN*%
%OFA0B0*%
%FSLAX24Y24*%
%IPPOS*%
%LPD*%
%AMOC8*
5,1,8,0,0,1.08239X$1,22.5*
%
%ADD10C,0.0000*%
%ADD11R,0.1083X0.1083*%
%ADD12R,0.0276X0.0098*%
%ADD13R,0.0098X0.0276*%
%ADD14R,0.0276X0.0394*%
%ADD15R,0.0276X0.0236*%
%ADD16R,0.0200X0.0200*%
%ADD17R,0.0098X0.0236*%
%ADD18C,0.0001*%
%ADD19R,0.0787X0.0335*%
%ADD20R,0.0400X0.0600*%
%ADD21R,0.0250X0.0350*%
%ADD22R,0.0700X0.0450*%
%ADD23R,0.0551X0.0709*%
%ADD24R,0.0600X0.0400*%
%ADD25R,0.1400X0.0700*%
%ADD26R,0.0394X0.0157*%
%ADD27R,0.0276X0.0197*%
%ADD28R,0.0350X0.0250*%
%ADD29C,0.0400*%
%ADD30C,0.0394*%
%ADD31C,0.0197*%
%ADD32R,0.0531X0.0157*%
%ADD33R,0.0748X0.0748*%
%ADD34R,0.0740X0.0740*%
%ADD35C,0.0740*%
%ADD36R,0.0512X0.0453*%
%ADD37R,0.0472X0.0354*%
%ADD38C,0.0197*%
%ADD39R,0.0197X0.0197*%
%ADD40C,0.0100*%
%ADD41C,0.0080*%
%ADD42C,0.0180*%
%ADD43C,0.0200*%
%ADD44C,0.0240*%
%ADD45C,0.0260*%
%ADD46C,0.0145*%
%ADD47C,0.0300*%
%ADD48C,0.0500*%
%ADD49C,0.0400*%
%ADD50C,0.0150*%
D10*
X016500Y024500D02*
X016500Y037500D01*
X044500Y037500D01*
X044500Y024500D01*
X016500Y024500D01*
X019956Y028637D02*
X019956Y028883D01*
X020005Y028932D01*
X020054Y028932D01*
X020054Y028637D01*
X019956Y028637D01*
X017809Y030213D02*
X017811Y030233D01*
X017817Y030253D01*
X017826Y030271D01*
X017839Y030288D01*
X017854Y030301D01*
X017872Y030311D01*
X017892Y030318D01*
X017912Y030321D01*
X017932Y030320D01*
X017952Y030315D01*
X017971Y030307D01*
X017988Y030295D01*
X018002Y030280D01*
X018013Y030262D01*
X018021Y030243D01*
X018025Y030223D01*
X018025Y030203D01*
X018021Y030183D01*
X018013Y030164D01*
X018002Y030146D01*
X017988Y030131D01*
X017971Y030119D01*
X017952Y030111D01*
X017932Y030106D01*
X017912Y030105D01*
X017892Y030108D01*
X017872Y030115D01*
X017854Y030125D01*
X017839Y030138D01*
X017826Y030155D01*
X017817Y030173D01*
X017811Y030193D01*
X017809Y030213D01*
X017809Y031787D02*
X017811Y031807D01*
X017817Y031827D01*
X017826Y031845D01*
X017839Y031862D01*
X017854Y031875D01*
X017872Y031885D01*
X017892Y031892D01*
X017912Y031895D01*
X017932Y031894D01*
X017952Y031889D01*
X017971Y031881D01*
X017988Y031869D01*
X018002Y031854D01*
X018013Y031836D01*
X018021Y031817D01*
X018025Y031797D01*
X018025Y031777D01*
X018021Y031757D01*
X018013Y031738D01*
X018002Y031720D01*
X017988Y031705D01*
X017971Y031693D01*
X017952Y031685D01*
X017932Y031680D01*
X017912Y031679D01*
X017892Y031682D01*
X017872Y031689D01*
X017854Y031699D01*
X017839Y031712D01*
X017826Y031729D01*
X017817Y031747D01*
X017811Y031767D01*
X017809Y031787D01*
X016693Y034315D02*
X016695Y034340D01*
X016701Y034364D01*
X016710Y034386D01*
X016723Y034407D01*
X016739Y034426D01*
X016758Y034442D01*
X016779Y034455D01*
X016801Y034464D01*
X016825Y034470D01*
X016850Y034472D01*
X016875Y034470D01*
X016899Y034464D01*
X016921Y034455D01*
X016942Y034442D01*
X016961Y034426D01*
X016977Y034407D01*
X016990Y034386D01*
X016999Y034364D01*
X017005Y034340D01*
X017007Y034315D01*
X017005Y034290D01*
X016999Y034266D01*
X016990Y034244D01*
X016977Y034223D01*
X016961Y034204D01*
X016942Y034188D01*
X016921Y034175D01*
X016899Y034166D01*
X016875Y034160D01*
X016850Y034158D01*
X016825Y034160D01*
X016801Y034166D01*
X016779Y034175D01*
X016758Y034188D01*
X016739Y034204D01*
X016723Y034223D01*
X016710Y034244D01*
X016701Y034266D01*
X016695Y034290D01*
X016693Y034315D01*
X016693Y034985D02*
X016695Y035010D01*
X016701Y035034D01*
X016710Y035056D01*
X016723Y035077D01*
X016739Y035096D01*
X016758Y035112D01*
X016779Y035125D01*
X016801Y035134D01*
X016825Y035140D01*
X016850Y035142D01*
X016875Y035140D01*
X016899Y035134D01*
X016921Y035125D01*
X016942Y035112D01*
X016961Y035096D01*
X016977Y035077D01*
X016990Y035056D01*
X016999Y035034D01*
X017005Y035010D01*
X017007Y034985D01*
X017005Y034960D01*
X016999Y034936D01*
X016990Y034914D01*
X016977Y034893D01*
X016961Y034874D01*
X016942Y034858D01*
X016921Y034845D01*
X016899Y034836D01*
X016875Y034830D01*
X016850Y034828D01*
X016825Y034830D01*
X016801Y034836D01*
X016779Y034845D01*
X016758Y034858D01*
X016739Y034874D01*
X016723Y034893D01*
X016710Y034914D01*
X016701Y034936D01*
X016695Y034960D01*
X016693Y034985D01*
X018370Y035700D02*
X018372Y035750D01*
X018378Y035800D01*
X018388Y035849D01*
X018402Y035897D01*
X018419Y035944D01*
X018440Y035989D01*
X018465Y036033D01*
X018493Y036074D01*
X018525Y036113D01*
X018559Y036150D01*
X018596Y036184D01*
X018636Y036214D01*
X018678Y036241D01*
X018722Y036265D01*
X018768Y036286D01*
X018815Y036302D01*
X018863Y036315D01*
X018913Y036324D01*
X018962Y036329D01*
X019013Y036330D01*
X019063Y036327D01*
X019112Y036320D01*
X019161Y036309D01*
X019209Y036294D01*
X019255Y036276D01*
X019300Y036254D01*
X019343Y036228D01*
X019384Y036199D01*
X019423Y036167D01*
X019459Y036132D01*
X019491Y036094D01*
X019521Y036054D01*
X019548Y036011D01*
X019571Y035967D01*
X019590Y035921D01*
X019606Y035873D01*
X019618Y035824D01*
X019626Y035775D01*
X019630Y035725D01*
X019630Y035675D01*
X019626Y035625D01*
X019618Y035576D01*
X019606Y035527D01*
X019590Y035479D01*
X019571Y035433D01*
X019548Y035389D01*
X019521Y035346D01*
X019491Y035306D01*
X019459Y035268D01*
X019423Y035233D01*
X019384Y035201D01*
X019343Y035172D01*
X019300Y035146D01*
X019255Y035124D01*
X019209Y035106D01*
X019161Y035091D01*
X019112Y035080D01*
X019063Y035073D01*
X019013Y035070D01*
X018962Y035071D01*
X018913Y035076D01*
X018863Y035085D01*
X018815Y035098D01*
X018768Y035114D01*
X018722Y035135D01*
X018678Y035159D01*
X018636Y035186D01*
X018596Y035216D01*
X018559Y035250D01*
X018525Y035287D01*
X018493Y035326D01*
X018465Y035367D01*
X018440Y035411D01*
X018419Y035456D01*
X018402Y035503D01*
X018388Y035551D01*
X018378Y035600D01*
X018372Y035650D01*
X018370Y035700D01*
X042705Y026862D02*
X042707Y026912D01*
X042713Y026962D01*
X042723Y027011D01*
X042737Y027059D01*
X042754Y027106D01*
X042775Y027151D01*
X042800Y027195D01*
X042828Y027236D01*
X042860Y027275D01*
X042894Y027312D01*
X042931Y027346D01*
X042971Y027376D01*
X043013Y027403D01*
X043057Y027427D01*
X043103Y027448D01*
X043150Y027464D01*
X043198Y027477D01*
X043248Y027486D01*
X043297Y027491D01*
X043348Y027492D01*
X043398Y027489D01*
X043447Y027482D01*
X043496Y027471D01*
X043544Y027456D01*
X043590Y027438D01*
X043635Y027416D01*
X043678Y027390D01*
X043719Y027361D01*
X043758Y027329D01*
X043794Y027294D01*
X043826Y027256D01*
X043856Y027216D01*
X043883Y027173D01*
X043906Y027129D01*
X043925Y027083D01*
X043941Y027035D01*
X043953Y026986D01*
X043961Y026937D01*
X043965Y026887D01*
X043965Y026837D01*
X043961Y026787D01*
X043953Y026738D01*
X043941Y026689D01*
X043925Y026641D01*
X043906Y026595D01*
X043883Y026551D01*
X043856Y026508D01*
X043826Y026468D01*
X043794Y026430D01*
X043758Y026395D01*
X043719Y026363D01*
X043678Y026334D01*
X043635Y026308D01*
X043590Y026286D01*
X043544Y026268D01*
X043496Y026253D01*
X043447Y026242D01*
X043398Y026235D01*
X043348Y026232D01*
X043297Y026233D01*
X043248Y026238D01*
X043198Y026247D01*
X043150Y026260D01*
X043103Y026276D01*
X043057Y026297D01*
X043013Y026321D01*
X042971Y026348D01*
X042931Y026378D01*
X042894Y026412D01*
X042860Y026449D01*
X042828Y026488D01*
X042800Y026529D01*
X042775Y026573D01*
X042754Y026618D01*
X042737Y026665D01*
X042723Y026713D01*
X042713Y026762D01*
X042707Y026812D01*
X042705Y026862D01*
D11*
X021000Y032800D03*
D12*
X020232Y032702D03*
X020232Y032898D03*
X020232Y033095D03*
X020232Y033292D03*
X020232Y032505D03*
X020232Y032308D03*
X021768Y032308D03*
X021768Y032505D03*
X021768Y032702D03*
X021768Y032898D03*
X021768Y033095D03*
X021768Y033292D03*
D13*
X021492Y033568D03*
X021295Y033568D03*
X021098Y033568D03*
X020902Y033568D03*
X020705Y033568D03*
X020508Y033568D03*
X020508Y032032D03*
X020705Y032032D03*
X020902Y032032D03*
X021098Y032032D03*
X021295Y032032D03*
X021492Y032032D03*
X020595Y029326D03*
X020398Y029326D03*
X020202Y029326D03*
X020005Y029326D03*
X020202Y028774D03*
X020398Y028774D03*
X020595Y028774D03*
D14*
X019594Y030825D03*
D15*
X018806Y030746D03*
X018806Y031494D03*
X019594Y031494D03*
D16*
X020200Y031550D03*
X020200Y031250D03*
X020600Y031250D03*
X020600Y031550D03*
X021050Y031550D03*
X021350Y031550D03*
X021350Y031200D03*
X021050Y031200D03*
X021800Y031250D03*
X021800Y031550D03*
X022200Y032900D03*
X022200Y033200D03*
X022100Y034150D03*
X022100Y034450D03*
X021700Y034450D03*
X021700Y034150D03*
X021750Y034900D03*
X022050Y034900D03*
X022050Y035300D03*
X021750Y035300D03*
X021250Y035500D03*
X020950Y035500D03*
X020950Y035100D03*
X021250Y035100D03*
X021250Y035900D03*
X020950Y035900D03*
X020450Y035100D03*
X020150Y035100D03*
X019700Y032750D03*
X019700Y032450D03*
X019200Y030200D03*
X019200Y029900D03*
X018800Y029900D03*
X018800Y030200D03*
X018800Y029400D03*
X018800Y029100D03*
X019600Y029100D03*
X019600Y028800D03*
X019800Y028300D03*
X019800Y028000D03*
X020250Y027950D03*
X020550Y027950D03*
X020550Y028350D03*
X020250Y028350D03*
X021050Y027700D03*
X021350Y027700D03*
X021850Y027700D03*
X022150Y027700D03*
X040350Y034525D03*
X040650Y034525D03*
X040900Y034525D03*
X041150Y034525D03*
X041450Y034525D03*
X041700Y034525D03*
X041700Y034225D03*
X040900Y034225D03*
D17*
X020005Y028755D03*
D18*
X019956Y028755D02*
X020054Y028755D01*
X020054Y028756D02*
X019956Y028756D01*
X019956Y028757D02*
X020054Y028757D01*
X020054Y028758D02*
X019956Y028758D01*
X019956Y028759D02*
X020054Y028759D01*
X020054Y028760D02*
X019956Y028760D01*
X019956Y028761D02*
X020054Y028761D01*
X020054Y028762D02*
X019956Y028762D01*
X019956Y028763D02*
X020054Y028763D01*
X020054Y028764D02*
X019956Y028764D01*
X019956Y028765D02*
X020054Y028765D01*
X020054Y028766D02*
X019956Y028766D01*
X019956Y028767D02*
X020054Y028767D01*
X020054Y028768D02*
X019956Y028768D01*
X019956Y028769D02*
X020054Y028769D01*
X020054Y028770D02*
X019956Y028770D01*
X019956Y028771D02*
X020054Y028771D01*
X020054Y028772D02*
X019956Y028772D01*
X019956Y028773D02*
X020054Y028773D01*
X020054Y028774D02*
X019956Y028774D01*
X019956Y028775D02*
X020054Y028775D01*
X020054Y028776D02*
X019956Y028776D01*
X019956Y028777D02*
X020054Y028777D01*
X020054Y028778D02*
X019956Y028778D01*
X019956Y028779D02*
X020054Y028779D01*
X020054Y028780D02*
X019956Y028780D01*
X019956Y028781D02*
X020054Y028781D01*
X020054Y028782D02*
X019956Y028782D01*
X019956Y028783D02*
X020054Y028783D01*
X020054Y028784D02*
X019956Y028784D01*
X019956Y028785D02*
X020054Y028785D01*
X020054Y028786D02*
X019956Y028786D01*
X019956Y028787D02*
X020054Y028787D01*
X020054Y028788D02*
X019956Y028788D01*
X019956Y028789D02*
X020054Y028789D01*
X020054Y028790D02*
X019956Y028790D01*
X019956Y028791D02*
X020054Y028791D01*
X020054Y028792D02*
X019956Y028792D01*
X019956Y028793D02*
X020054Y028793D01*
X020054Y028794D02*
X019956Y028794D01*
X019956Y028795D02*
X020054Y028795D01*
X020054Y028796D02*
X019956Y028796D01*
X019956Y028797D02*
X020054Y028797D01*
X020054Y028798D02*
X019956Y028798D01*
X019956Y028799D02*
X020054Y028799D01*
X020054Y028800D02*
X019956Y028800D01*
X019956Y028801D02*
X020054Y028801D01*
X020054Y028802D02*
X019956Y028802D01*
X019956Y028803D02*
X020054Y028803D01*
X020054Y028804D02*
X019956Y028804D01*
X019956Y028805D02*
X020054Y028805D01*
X020054Y028806D02*
X019956Y028806D01*
X019956Y028807D02*
X020054Y028807D01*
X020054Y028808D02*
X019956Y028808D01*
X019956Y028809D02*
X020054Y028809D01*
X020054Y028810D02*
X019956Y028810D01*
X019956Y028811D02*
X020054Y028811D01*
X020054Y028812D02*
X019956Y028812D01*
X019956Y028813D02*
X020054Y028813D01*
X020054Y028814D02*
X019956Y028814D01*
X019956Y028815D02*
X020054Y028815D01*
X020054Y028816D02*
X019956Y028816D01*
X019956Y028817D02*
X020054Y028817D01*
X020054Y028818D02*
X019956Y028818D01*
X019956Y028819D02*
X020054Y028819D01*
X020054Y028820D02*
X019956Y028820D01*
X019956Y028821D02*
X020054Y028821D01*
X020054Y028822D02*
X019956Y028822D01*
X019956Y028823D02*
X020054Y028823D01*
X020054Y028824D02*
X019956Y028824D01*
X019956Y028825D02*
X020054Y028825D01*
X020054Y028826D02*
X019956Y028826D01*
X019956Y028827D02*
X020054Y028827D01*
X020054Y028828D02*
X019956Y028828D01*
X019956Y028829D02*
X020054Y028829D01*
X020054Y028830D02*
X019956Y028830D01*
X019956Y028831D02*
X020054Y028831D01*
X020054Y028832D02*
X019956Y028832D01*
X019956Y028833D02*
X020054Y028833D01*
X020054Y028834D02*
X019956Y028834D01*
X019956Y028835D02*
X020054Y028835D01*
X020054Y028836D02*
X019956Y028836D01*
X019956Y028837D02*
X020054Y028837D01*
X020054Y028838D02*
X019956Y028838D01*
X019956Y028839D02*
X020054Y028839D01*
X020054Y028840D02*
X019956Y028840D01*
X019956Y028841D02*
X020054Y028841D01*
X020054Y028842D02*
X019956Y028842D01*
X019956Y028843D02*
X020054Y028843D01*
X020054Y028844D02*
X019956Y028844D01*
X019956Y028845D02*
X020054Y028845D01*
X020054Y028846D02*
X019956Y028846D01*
X019956Y028847D02*
X020054Y028847D01*
X020054Y028848D02*
X019956Y028848D01*
X019956Y028849D02*
X020054Y028849D01*
X020054Y028850D02*
X019956Y028850D01*
X019956Y028851D02*
X020054Y028851D01*
X020054Y028852D02*
X019956Y028852D01*
X019956Y028853D02*
X020054Y028853D01*
X020054Y028854D02*
X019956Y028854D01*
X019956Y028855D02*
X020054Y028855D01*
X020054Y028856D02*
X019956Y028856D01*
X019956Y028857D02*
X020054Y028857D01*
X020054Y028858D02*
X019956Y028858D01*
X019956Y028859D02*
X020054Y028859D01*
X020054Y028860D02*
X019956Y028860D01*
X019956Y028861D02*
X020054Y028861D01*
X020054Y028862D02*
X019956Y028862D01*
X019956Y028863D02*
X020054Y028863D01*
X020054Y028864D02*
X019956Y028864D01*
X019956Y028865D02*
X020054Y028865D01*
X020054Y028866D02*
X019956Y028866D01*
X019956Y028867D02*
X020054Y028867D01*
X020054Y028868D02*
X019956Y028868D01*
X019956Y028869D02*
X020054Y028869D01*
X020054Y028870D02*
X019956Y028870D01*
X019956Y028871D02*
X020054Y028871D01*
X020054Y028872D02*
X019956Y028872D01*
X019956Y028873D02*
X020054Y028873D01*
X020054Y028874D02*
X019956Y028874D01*
X019956Y028875D02*
X020054Y028875D01*
X020054Y028876D02*
X019956Y028876D01*
X019956Y028877D02*
X020054Y028877D01*
X020054Y028878D02*
X019956Y028878D01*
X019956Y028879D02*
X020054Y028879D01*
X020054Y028880D02*
X019956Y028880D01*
X019956Y028881D02*
X020054Y028881D01*
X020054Y028882D02*
X019956Y028882D01*
X019956Y028883D02*
X020054Y028883D01*
X020054Y028884D02*
X019957Y028884D01*
X019958Y028885D02*
X020054Y028885D01*
X020054Y028886D02*
X019959Y028886D01*
X019960Y028887D02*
X020054Y028887D01*
X020054Y028888D02*
X019961Y028888D01*
X019962Y028889D02*
X020054Y028889D01*
X020054Y028890D02*
X019963Y028890D01*
X019964Y028891D02*
X020054Y028891D01*
X020054Y028892D02*
X019965Y028892D01*
X019966Y028893D02*
X020054Y028893D01*
X020054Y028894D02*
X019967Y028894D01*
X019968Y028895D02*
X020054Y028895D01*
X020054Y028896D02*
X019969Y028896D01*
X019970Y028897D02*
X020054Y028897D01*
X020054Y028898D02*
X019971Y028898D01*
X019972Y028899D02*
X020054Y028899D01*
X020054Y028900D02*
X019973Y028900D01*
X019973Y028901D02*
X020054Y028901D01*
X020054Y028902D02*
X019974Y028902D01*
X019975Y028903D02*
X020054Y028903D01*
X020054Y028904D02*
X019976Y028904D01*
X019977Y028905D02*
X020054Y028905D01*
X020054Y028906D02*
X019978Y028906D01*
X019979Y028907D02*
X020054Y028907D01*
X020054Y028908D02*
X019980Y028908D01*
X019981Y028909D02*
X020054Y028909D01*
X020054Y028910D02*
X019982Y028910D01*
X019983Y028911D02*
X020054Y028911D01*
X020054Y028912D02*
X019984Y028912D01*
X019985Y028913D02*
X020054Y028913D01*
X020054Y028914D02*
X019986Y028914D01*
X019987Y028915D02*
X020054Y028915D01*
X020054Y028916D02*
X019988Y028916D01*
X019989Y028917D02*
X020054Y028917D01*
X020054Y028918D02*
X019990Y028918D01*
X019991Y028919D02*
X020054Y028919D01*
X020054Y028920D02*
X019992Y028920D01*
X019993Y028921D02*
X020054Y028921D01*
X020054Y028922D02*
X019994Y028922D01*
X019995Y028923D02*
X020054Y028923D01*
X020054Y028924D02*
X019996Y028924D01*
X019997Y028925D02*
X020054Y028925D01*
X020054Y028926D02*
X019998Y028926D01*
X019999Y028927D02*
X020054Y028927D01*
X020054Y028928D02*
X020000Y028928D01*
X020001Y028929D02*
X020054Y028929D01*
X020054Y028930D02*
X020002Y028930D01*
X020003Y028931D02*
X020054Y028931D01*
X020054Y028932D02*
X020004Y028932D01*
X019956Y028754D02*
X020054Y028754D01*
X020054Y028753D02*
X019956Y028753D01*
X019956Y028752D02*
X020054Y028752D01*
X020054Y028751D02*
X019956Y028751D01*
X019956Y028750D02*
X020054Y028750D01*
X020054Y028749D02*
X019956Y028749D01*
X019956Y028748D02*
X020054Y028748D01*
X020054Y028747D02*
X019956Y028747D01*
X019956Y028746D02*
X020054Y028746D01*
X020054Y028745D02*
X019956Y028745D01*
X019956Y028744D02*
X020054Y028744D01*
X020054Y028743D02*
X019956Y028743D01*
X019956Y028742D02*
X020054Y028742D01*
X020054Y028741D02*
X019956Y028741D01*
X019956Y028740D02*
X020054Y028740D01*
X020054Y028739D02*
X019956Y028739D01*
X019956Y028738D02*
X020054Y028738D01*
X020054Y028737D02*
X019956Y028737D01*
X019956Y028736D02*
X020054Y028736D01*
X020054Y028735D02*
X019956Y028735D01*
X019956Y028734D02*
X020054Y028734D01*
X020054Y028733D02*
X019956Y028733D01*
X019956Y028732D02*
X020054Y028732D01*
X020054Y028731D02*
X019956Y028731D01*
X019956Y028730D02*
X020054Y028730D01*
X020054Y028729D02*
X019956Y028729D01*
X019956Y028728D02*
X020054Y028728D01*
X020054Y028727D02*
X019956Y028727D01*
X019956Y028726D02*
X020054Y028726D01*
X020054Y028725D02*
X019956Y028725D01*
X019956Y028724D02*
X020054Y028724D01*
X020054Y028723D02*
X019956Y028723D01*
X019956Y028722D02*
X020054Y028722D01*
X020054Y028721D02*
X019956Y028721D01*
X019956Y028720D02*
X020054Y028720D01*
X020054Y028719D02*
X019956Y028719D01*
X019956Y028718D02*
X020054Y028718D01*
X020054Y028717D02*
X019956Y028717D01*
X019956Y028716D02*
X020054Y028716D01*
X020054Y028715D02*
X019956Y028715D01*
X019956Y028714D02*
X020054Y028714D01*
X020054Y028713D02*
X019956Y028713D01*
X019956Y028712D02*
X020054Y028712D01*
X020054Y028711D02*
X019956Y028711D01*
X019956Y028710D02*
X020054Y028710D01*
X020054Y028709D02*
X019956Y028709D01*
X019956Y028708D02*
X020054Y028708D01*
X020054Y028707D02*
X019956Y028707D01*
X019956Y028706D02*
X020054Y028706D01*
X020054Y028705D02*
X019956Y028705D01*
X019956Y028704D02*
X020054Y028704D01*
X020054Y028703D02*
X019956Y028703D01*
X019956Y028702D02*
X020054Y028702D01*
X020054Y028701D02*
X019956Y028701D01*
X019956Y028700D02*
X020054Y028700D01*
X020054Y028699D02*
X019956Y028699D01*
X019956Y028698D02*
X020054Y028698D01*
X020054Y028697D02*
X019956Y028697D01*
X019956Y028696D02*
X020054Y028696D01*
X020054Y028695D02*
X019956Y028695D01*
X019956Y028694D02*
X020054Y028694D01*
X020054Y028693D02*
X019956Y028693D01*
X019956Y028692D02*
X020054Y028692D01*
X020054Y028691D02*
X019956Y028691D01*
X019956Y028690D02*
X020054Y028690D01*
X020054Y028689D02*
X019956Y028689D01*
X019956Y028688D02*
X020054Y028688D01*
X020054Y028687D02*
X019956Y028687D01*
X019956Y028686D02*
X020054Y028686D01*
X020054Y028685D02*
X019956Y028685D01*
X019956Y028684D02*
X020054Y028684D01*
X020054Y028683D02*
X019956Y028683D01*
X019956Y028682D02*
X020054Y028682D01*
X020054Y028681D02*
X019956Y028681D01*
X019956Y028680D02*
X020054Y028680D01*
X020054Y028679D02*
X019956Y028679D01*
X019956Y028678D02*
X020054Y028678D01*
X020054Y028677D02*
X019956Y028677D01*
X019956Y028676D02*
X020054Y028676D01*
X020054Y028675D02*
X019956Y028675D01*
X019956Y028674D02*
X020054Y028674D01*
X020054Y028673D02*
X019956Y028673D01*
X019956Y028672D02*
X020054Y028672D01*
X020054Y028671D02*
X019956Y028671D01*
X019956Y028670D02*
X020054Y028670D01*
X020054Y028669D02*
X019956Y028669D01*
X019956Y028668D02*
X020054Y028668D01*
X020054Y028667D02*
X019956Y028667D01*
X019956Y028666D02*
X020054Y028666D01*
X020054Y028665D02*
X019956Y028665D01*
X019956Y028664D02*
X020054Y028664D01*
X020054Y028663D02*
X019956Y028663D01*
X019956Y028662D02*
X020054Y028662D01*
X020054Y028661D02*
X019956Y028661D01*
X019956Y028660D02*
X020054Y028660D01*
X020054Y028659D02*
X019956Y028659D01*
X019956Y028658D02*
X020054Y028658D01*
X020054Y028657D02*
X019956Y028657D01*
X019956Y028656D02*
X020054Y028656D01*
X020054Y028655D02*
X019956Y028655D01*
X019956Y028654D02*
X020054Y028654D01*
X020054Y028653D02*
X019956Y028653D01*
X019956Y028652D02*
X020054Y028652D01*
X020054Y028651D02*
X019956Y028651D01*
X019956Y028650D02*
X020054Y028650D01*
X020054Y028649D02*
X019956Y028649D01*
X019956Y028648D02*
X020054Y028648D01*
X020054Y028647D02*
X019956Y028647D01*
X019956Y028646D02*
X020054Y028646D01*
X020054Y028645D02*
X019956Y028645D01*
X019956Y028644D02*
X020054Y028644D01*
X020054Y028643D02*
X019956Y028643D01*
X019956Y028642D02*
X020054Y028642D01*
X020054Y028641D02*
X019956Y028641D01*
X019956Y028640D02*
X020054Y028640D01*
X020054Y028639D02*
X019956Y028639D01*
X019956Y028638D02*
X020054Y028638D01*
X020054Y028637D02*
X019956Y028637D01*
D19*
X021600Y029925D03*
X021600Y030575D03*
D20*
X020750Y029950D03*
X020050Y029950D03*
X021150Y029100D03*
X021850Y029100D03*
X021850Y028300D03*
X021150Y028300D03*
D21*
X021450Y027250D03*
X021950Y027250D03*
D22*
X019050Y032500D03*
X019050Y033700D03*
D23*
X018519Y026150D03*
X019581Y026150D03*
D24*
X018550Y027800D03*
X018550Y028500D03*
D25*
X017346Y028125D03*
X017346Y026125D03*
D26*
X020317Y034144D03*
X020317Y034400D03*
X020317Y034656D03*
X021183Y034656D03*
X021183Y034144D03*
D27*
X017317Y033200D03*
X016883Y033200D03*
X016883Y028800D03*
X017317Y028800D03*
D28*
X018150Y033250D03*
X018150Y033750D03*
D29*
X021500Y026000D03*
X040900Y026000D03*
X041500Y035525D03*
D30*
X039617Y034937D02*
X039225Y034937D01*
X039225Y034150D02*
X039617Y034150D01*
X039617Y033362D02*
X039225Y033362D01*
X039225Y032575D02*
X039617Y032575D01*
X039617Y031787D02*
X039225Y031787D01*
X039225Y031000D02*
X039617Y031000D01*
X039617Y030213D02*
X039225Y030213D01*
X039225Y029425D02*
X039617Y029425D01*
X039617Y028638D02*
X039225Y028638D01*
X039225Y027850D02*
X039617Y027850D01*
X039617Y027063D02*
X039225Y027063D01*
X038437Y026275D02*
X038437Y025883D01*
X037649Y025883D02*
X037649Y026275D01*
X036862Y026275D02*
X036862Y025883D01*
X036074Y025883D02*
X036074Y026275D01*
X035287Y026275D02*
X035287Y025883D01*
X034500Y025883D02*
X034500Y026275D01*
X033712Y026275D02*
X033712Y025883D01*
X032925Y025883D02*
X032925Y026275D01*
X032137Y026275D02*
X032137Y025883D01*
X031350Y025883D02*
X031350Y026275D01*
X030563Y026275D02*
X030563Y025883D01*
X029775Y025883D02*
X029775Y026275D01*
X028988Y026275D02*
X028988Y025883D01*
X028200Y025883D02*
X028200Y026275D01*
X027413Y026275D02*
X027413Y025883D01*
X026626Y025883D02*
X026626Y026275D01*
X025838Y026275D02*
X025838Y025883D01*
X025051Y025883D02*
X025051Y026275D01*
X024263Y026275D02*
X024263Y025883D01*
X023475Y027063D02*
X023083Y027063D01*
X023083Y027850D02*
X023475Y027850D01*
X023475Y028638D02*
X023083Y028638D01*
X023083Y029425D02*
X023475Y029425D01*
X023475Y030213D02*
X023083Y030213D01*
X023083Y031000D02*
X023475Y031000D01*
X023475Y031787D02*
X023083Y031787D01*
X023083Y032575D02*
X023475Y032575D01*
X023475Y033362D02*
X023083Y033362D01*
X023083Y034150D02*
X023475Y034150D01*
X023475Y034937D02*
X023083Y034937D01*
X024263Y035725D02*
X024263Y036117D01*
X025051Y036117D02*
X025051Y035725D01*
X025838Y035725D02*
X025838Y036117D01*
X026626Y036117D02*
X026626Y035725D01*
X027413Y035725D02*
X027413Y036117D01*
X028200Y036117D02*
X028200Y035725D01*
X028988Y035725D02*
X028988Y036117D01*
X029775Y036117D02*
X029775Y035725D01*
X030563Y035725D02*
X030563Y036117D01*
X031350Y036117D02*
X031350Y035725D01*
X032137Y035725D02*
X032137Y036117D01*
X032925Y036117D02*
X032925Y035725D01*
X033712Y035725D02*
X033712Y036117D01*
X034500Y036117D02*
X034500Y035725D01*
X035287Y035725D02*
X035287Y036117D01*
X036074Y036117D02*
X036074Y035725D01*
X036862Y035725D02*
X036862Y036117D01*
X037649Y036117D02*
X037649Y035725D01*
X038437Y035725D02*
X038437Y036117D01*
D31*
X038500Y035500D03*
X037500Y035500D03*
X037500Y034500D03*
X038500Y034500D03*
X038750Y034300D03*
X038750Y034000D03*
X039000Y033750D03*
X039500Y033750D03*
X040050Y033900D03*
X040500Y034225D03*
X041025Y034075D03*
X041550Y034075D03*
X042125Y034125D03*
X042125Y034875D03*
X042125Y035500D03*
X042500Y035750D03*
X043000Y035750D03*
X043500Y035750D03*
X044000Y035750D03*
X044250Y036000D03*
X044250Y036500D03*
X043500Y036500D03*
X041500Y034800D03*
X041000Y034800D03*
X040500Y034800D03*
X039900Y034750D03*
X039500Y034510D03*
X039000Y034500D03*
X038500Y033500D03*
X038500Y032500D03*
X037500Y032500D03*
X037500Y033500D03*
X036500Y033500D03*
X036500Y032500D03*
X035500Y032500D03*
X035500Y033500D03*
X034500Y033500D03*
X034500Y032500D03*
X033500Y032500D03*
X033500Y033500D03*
X032500Y033500D03*
X032500Y032500D03*
X031500Y032500D03*
X031500Y033500D03*
X031500Y034500D03*
X032500Y034500D03*
X033500Y034500D03*
X033750Y035450D03*
X034500Y035450D03*
X035300Y035450D03*
X036500Y035500D03*
X036500Y034500D03*
X035500Y034500D03*
X034500Y034500D03*
X032950Y035450D03*
X032500Y035500D03*
X032150Y035450D03*
X030600Y035450D03*
X029800Y035450D03*
X029000Y035450D03*
X028200Y035450D03*
X027450Y035450D03*
X026650Y035450D03*
X025850Y035450D03*
X025500Y035500D03*
X025000Y035450D03*
X024300Y035400D03*
X023800Y034850D03*
X023750Y034150D03*
X024300Y034350D03*
X025500Y034500D03*
X026500Y034500D03*
X027500Y034500D03*
X028500Y034500D03*
X028500Y033500D03*
X028500Y032500D03*
X027500Y032500D03*
X027500Y033500D03*
X026500Y033500D03*
X025500Y032500D03*
X024500Y032500D03*
X024500Y033500D03*
X023300Y032200D03*
X022750Y031790D03*
X022150Y031900D03*
X022150Y031600D03*
X022150Y032200D03*
X022150Y032500D03*
X022200Y033350D03*
X021300Y033800D03*
X021400Y034100D03*
X020750Y034750D03*
X020050Y034950D03*
X020850Y035650D03*
X020500Y036500D03*
X021500Y036500D03*
X022200Y034900D03*
X023500Y036500D03*
X019800Y034000D03*
X019700Y033750D03*
X019800Y033500D03*
X019700Y033250D03*
X019500Y033500D03*
X019400Y032950D03*
X019960Y032920D03*
X019960Y032660D03*
X020050Y032100D03*
X019900Y031850D03*
X019600Y032030D03*
X019600Y031670D03*
X020000Y031250D03*
X020200Y031050D03*
X020400Y031250D03*
X019800Y030850D03*
X019600Y031080D03*
X019400Y030850D03*
X019300Y030200D03*
X019000Y030250D03*
X019150Y029650D03*
X019000Y029400D03*
X018800Y029650D03*
X018600Y029400D03*
X018500Y029000D03*
X018200Y028500D03*
X017900Y028300D03*
X017900Y028700D03*
X018550Y028050D03*
X018550Y027550D03*
X019500Y027500D03*
X019650Y028000D03*
X019950Y028000D03*
X019500Y028500D03*
X020400Y029000D03*
X020700Y029300D03*
X020900Y029600D03*
X021600Y029100D03*
X021850Y029450D03*
X022100Y029100D03*
X021850Y028700D03*
X021600Y028300D03*
X022100Y028300D03*
X022150Y027850D03*
X021450Y027450D03*
X021050Y027550D03*
X020500Y027500D03*
X019600Y026550D03*
X019900Y026200D03*
X019250Y026200D03*
X017500Y025500D03*
X017500Y027500D03*
X016700Y028800D03*
X017800Y030500D03*
X018550Y030730D03*
X019600Y030050D03*
X020900Y030400D03*
X021300Y031000D03*
X021350Y031350D03*
X021800Y031100D03*
X021000Y032800D03*
X020470Y033100D03*
X019350Y034050D03*
X018850Y034550D03*
X018050Y034250D03*
X018650Y033700D03*
X017150Y034650D03*
X016700Y033200D03*
X018380Y032160D03*
X018370Y031860D03*
X018370Y031560D03*
X023500Y029500D03*
X024500Y029500D03*
X024500Y030500D03*
X025500Y030500D03*
X026500Y029500D03*
X027500Y029500D03*
X028500Y029500D03*
X028500Y028500D03*
X027500Y028500D03*
X026500Y028500D03*
X025500Y028500D03*
X023700Y028650D03*
X023850Y027050D03*
X024000Y026800D03*
X024250Y026600D03*
X025050Y026600D03*
X025800Y026600D03*
X026600Y026600D03*
X027500Y026500D03*
X028500Y026500D03*
X029500Y026500D03*
X031000Y026500D03*
X032500Y026500D03*
X035000Y026900D03*
X036500Y026500D03*
X036500Y025500D03*
X037500Y025500D03*
X038500Y025500D03*
X039500Y025500D03*
X040500Y026500D03*
X041500Y026500D03*
X041500Y025500D03*
X042500Y026500D03*
X042500Y027500D03*
X042125Y027500D03*
X042125Y028000D03*
X042125Y028500D03*
X042125Y029000D03*
X042125Y029500D03*
X042125Y030000D03*
X042125Y030500D03*
X042125Y031000D03*
X042125Y031500D03*
X042125Y032000D03*
X042125Y032500D03*
X042125Y033000D03*
X042125Y033500D03*
X041500Y033500D03*
X041500Y032500D03*
X040500Y032500D03*
X040500Y033500D03*
X040500Y031500D03*
X041500Y031500D03*
X041500Y030500D03*
X040500Y030500D03*
X040500Y029500D03*
X041500Y029500D03*
X041500Y028500D03*
X040500Y027500D03*
X038500Y028500D03*
X037500Y028500D03*
X037500Y029500D03*
X038500Y029500D03*
X038500Y030500D03*
X038850Y031000D03*
X038850Y031800D03*
X037800Y031500D03*
X037500Y030500D03*
X036500Y030500D03*
X035500Y030500D03*
X034500Y030500D03*
X034500Y029500D03*
X035500Y029500D03*
X036500Y029500D03*
X036500Y028500D03*
X035500Y028500D03*
X034500Y028500D03*
X033500Y029500D03*
X033500Y030500D03*
X032500Y030500D03*
X031500Y029500D03*
X031500Y028500D03*
X032500Y028500D03*
X030500Y028500D03*
X029500Y028500D03*
X029500Y029500D03*
X030500Y029500D03*
X030500Y030500D03*
X029500Y030500D03*
X028500Y030500D03*
X027500Y030500D03*
X029500Y032500D03*
X029500Y033500D03*
X030500Y033500D03*
X030500Y032500D03*
X030500Y034500D03*
X029500Y034500D03*
X039500Y035500D03*
X040500Y035500D03*
X044000Y027500D03*
X044250Y027000D03*
X044250Y026500D03*
X044250Y026000D03*
X044250Y025500D03*
X043500Y025500D03*
X025500Y025500D03*
X024500Y025500D03*
X018500Y036500D03*
D32*
X018124Y031512D03*
X018124Y031256D03*
X018124Y031000D03*
X018124Y030744D03*
X018124Y030488D03*
D33*
X017071Y030528D03*
X017071Y031472D03*
X017071Y032555D03*
X017071Y029445D03*
D34*
X017000Y025000D03*
X017000Y037000D03*
D35*
X018000Y037000D03*
X019000Y037000D03*
X020000Y037000D03*
X021000Y037000D03*
X022000Y037000D03*
X023000Y037000D03*
X024000Y037000D03*
X025000Y037000D03*
X026000Y037000D03*
X027000Y037000D03*
X028000Y037000D03*
X029000Y037000D03*
X030000Y037000D03*
X031000Y037000D03*
X032000Y037000D03*
X033000Y037000D03*
X034000Y037000D03*
X035000Y037000D03*
X036000Y037000D03*
X037000Y037000D03*
X038000Y037000D03*
X039000Y037000D03*
X040000Y037000D03*
X041000Y037000D03*
X042000Y037000D03*
X043000Y037000D03*
X044000Y037000D03*
X044000Y025000D03*
X043000Y025000D03*
X042000Y025000D03*
X041000Y025000D03*
X040000Y025000D03*
X039000Y025000D03*
X038000Y025000D03*
X037000Y025000D03*
X036000Y025000D03*
X035000Y025000D03*
X034000Y025000D03*
X033000Y025000D03*
X032000Y025000D03*
X031000Y025000D03*
X030000Y025000D03*
X029000Y025000D03*
X028000Y025000D03*
X027000Y025000D03*
X026000Y025000D03*
X025000Y025000D03*
X024000Y025000D03*
X023000Y025000D03*
X022000Y025000D03*
X021000Y025000D03*
X020000Y025000D03*
X019000Y025000D03*
X018000Y025000D03*
D36*
X017460Y033991D03*
X017460Y035309D03*
D37*
X016850Y035556D03*
X016850Y033744D03*
D38*
X041988Y034531D02*
X043862Y034531D01*
X043961Y035220D02*
X043961Y033665D01*
X042921Y033665D01*
X042921Y032681D01*
X043961Y032681D01*
X043961Y031814D01*
X042921Y031814D01*
X042921Y030830D01*
X043961Y030830D01*
X043961Y030829D02*
X043961Y029975D01*
X043961Y029964D02*
X042583Y029964D01*
X042327Y035220D02*
X043953Y035220D01*
D39*
X042327Y035220D03*
X041957Y034531D03*
D40*
X041879Y034741D02*
X041870Y034741D01*
X041868Y034739D01*
X041813Y034739D01*
X041808Y034735D01*
X041304Y034735D01*
X041300Y034731D01*
X041296Y034735D01*
X040504Y034735D01*
X040500Y034731D01*
X040496Y034735D01*
X040470Y034735D01*
X040398Y034765D01*
X040064Y034765D01*
X039871Y034654D01*
X039871Y034654D01*
X039871Y034654D01*
X039760Y034461D01*
X039760Y034423D01*
X039679Y034456D01*
X039163Y034456D01*
X039050Y034410D01*
X038964Y034323D01*
X038917Y034211D01*
X038917Y034089D01*
X038964Y033976D01*
X039050Y033889D01*
X039163Y033843D01*
X039679Y033843D01*
X039792Y033889D01*
X039812Y033910D01*
X039918Y033910D01*
X040122Y034028D01*
X040240Y034232D01*
X040240Y034285D01*
X040398Y034285D01*
X040470Y034315D01*
X040496Y034315D01*
X040500Y034319D01*
X040504Y034315D01*
X041296Y034315D01*
X041300Y034319D01*
X041304Y034315D01*
X041879Y034315D01*
X041879Y034294D01*
X041909Y034264D01*
X042273Y034264D01*
X042273Y027715D01*
X042302Y027686D01*
X044352Y027686D01*
X044352Y024648D01*
X043327Y024648D01*
X043407Y024728D01*
X043480Y024905D01*
X043480Y025095D01*
X043407Y025272D01*
X043272Y025407D01*
X043095Y025480D01*
X042905Y025480D01*
X042815Y025443D01*
X042785Y025473D01*
X042785Y025918D01*
X042235Y026468D01*
X042235Y027068D01*
X040095Y029208D01*
X039988Y029315D01*
X039904Y029315D01*
X039925Y029364D01*
X039925Y029486D01*
X039878Y029599D01*
X039792Y029685D01*
X039679Y029732D01*
X039163Y029732D01*
X039050Y029685D01*
X038964Y029599D01*
X038917Y029486D01*
X038917Y029364D01*
X038964Y029251D01*
X039050Y029165D01*
X039163Y029118D01*
X039470Y029118D01*
X039531Y029057D01*
X039560Y029028D01*
X039477Y028945D01*
X039163Y028945D01*
X039050Y028898D01*
X038964Y028812D01*
X038917Y028699D01*
X038917Y028577D01*
X038964Y028464D01*
X039050Y028378D01*
X039163Y028331D01*
X039679Y028331D01*
X039792Y028378D01*
X039878Y028464D01*
X039923Y028574D01*
X041665Y026832D01*
X041665Y026232D01*
X041772Y026125D01*
X042215Y025682D01*
X042215Y025478D01*
X042213Y025476D01*
X042213Y025471D01*
X042185Y025443D01*
X042095Y025480D01*
X041905Y025480D01*
X041728Y025407D01*
X041593Y025272D01*
X041520Y025095D01*
X041520Y024905D01*
X041593Y024728D01*
X041673Y024648D01*
X041327Y024648D01*
X041407Y024728D01*
X041480Y024905D01*
X041480Y025095D01*
X041407Y025272D01*
X041272Y025407D01*
X041095Y025480D01*
X041082Y025480D01*
X041212Y025534D01*
X041366Y025688D01*
X041450Y025891D01*
X041450Y026109D01*
X041366Y026312D01*
X041212Y026466D01*
X041009Y026550D01*
X040791Y026550D01*
X040588Y026466D01*
X040434Y026312D01*
X040350Y026109D01*
X040350Y025891D01*
X040434Y025688D01*
X040588Y025534D01*
X040791Y025450D01*
X040832Y025450D01*
X040728Y025407D01*
X040593Y025272D01*
X040520Y025095D01*
X040520Y024905D01*
X040593Y024728D01*
X040673Y024648D01*
X039327Y024648D01*
X039407Y024728D01*
X039480Y024905D01*
X039480Y025095D01*
X039407Y025272D01*
X039272Y025407D01*
X039150Y025457D01*
X039150Y025512D01*
X039062Y025600D01*
X038743Y025919D01*
X038743Y026337D01*
X038697Y026449D01*
X038610Y026536D01*
X038498Y026582D01*
X038376Y026582D01*
X038263Y026536D01*
X038176Y026449D01*
X038130Y026337D01*
X038130Y025821D01*
X038176Y025708D01*
X038263Y025622D01*
X038376Y025575D01*
X038498Y025575D01*
X038610Y025622D01*
X038613Y025625D01*
X038801Y025437D01*
X038728Y025407D01*
X038593Y025272D01*
X038520Y025095D01*
X038520Y024905D01*
X038593Y024728D01*
X038673Y024648D01*
X038327Y024648D01*
X038407Y024728D01*
X038480Y024905D01*
X038480Y025095D01*
X038407Y025272D01*
X038272Y025407D01*
X038150Y025457D01*
X038150Y025462D01*
X038062Y025550D01*
X037907Y025705D01*
X037909Y025708D01*
X037956Y025821D01*
X037956Y026337D01*
X037909Y026449D01*
X037823Y026536D01*
X037710Y026582D01*
X037588Y026582D01*
X037475Y026536D01*
X037389Y026449D01*
X037342Y026337D01*
X037342Y025821D01*
X037389Y025708D01*
X037475Y025622D01*
X037588Y025575D01*
X037613Y025575D01*
X037765Y025422D01*
X037728Y025407D01*
X037593Y025272D01*
X037520Y025095D01*
X037520Y024905D01*
X037593Y024728D01*
X037673Y024648D01*
X037327Y024648D01*
X037407Y024728D01*
X037480Y024905D01*
X037480Y025095D01*
X037407Y025272D01*
X037272Y025407D01*
X037150Y025457D01*
X037150Y025512D01*
X037062Y025600D01*
X037038Y025624D01*
X037122Y025708D01*
X037169Y025821D01*
X037169Y026337D01*
X037122Y026449D01*
X037036Y026536D01*
X036923Y026582D01*
X036801Y026582D01*
X036688Y026536D01*
X036602Y026449D01*
X036555Y026337D01*
X036555Y025821D01*
X036602Y025708D01*
X036688Y025622D01*
X036712Y025612D01*
X036712Y025526D01*
X036801Y025437D01*
X036728Y025407D01*
X036593Y025272D01*
X036520Y025095D01*
X036520Y024905D01*
X036593Y024728D01*
X036673Y024648D01*
X036327Y024648D01*
X036407Y024728D01*
X036480Y024905D01*
X036480Y025095D01*
X036407Y025272D01*
X036272Y025407D01*
X036224Y025427D01*
X036224Y025612D01*
X036248Y025622D01*
X036335Y025708D01*
X036381Y025821D01*
X036381Y026337D01*
X036335Y026449D01*
X036248Y026536D01*
X036135Y026582D01*
X036013Y026582D01*
X035901Y026536D01*
X035814Y026449D01*
X035768Y026337D01*
X035768Y025821D01*
X035814Y025708D01*
X035901Y025622D01*
X035924Y025612D01*
X035924Y025537D01*
X035850Y025462D01*
X035850Y025457D01*
X035728Y025407D01*
X035593Y025272D01*
X035520Y025095D01*
X035520Y024905D01*
X035593Y024728D01*
X035673Y024648D01*
X035327Y024648D01*
X035407Y024728D01*
X035480Y024905D01*
X035480Y025095D01*
X035407Y025272D01*
X035272Y025407D01*
X035095Y025480D01*
X034905Y025480D01*
X034728Y025407D01*
X034593Y025272D01*
X034520Y025095D01*
X034520Y024905D01*
X034593Y024728D01*
X034673Y024648D01*
X034327Y024648D01*
X034407Y024728D01*
X034480Y024905D01*
X034480Y025095D01*
X034434Y025207D01*
X034660Y025433D01*
X034660Y025616D01*
X034673Y025622D01*
X034760Y025708D01*
X034806Y025821D01*
X034806Y026337D01*
X034760Y026449D01*
X034673Y026536D01*
X034561Y026582D01*
X034439Y026582D01*
X034326Y026536D01*
X034239Y026449D01*
X034193Y026337D01*
X034193Y025821D01*
X034239Y025708D01*
X034326Y025622D01*
X034340Y025616D01*
X034340Y025566D01*
X034207Y025434D01*
X034095Y025480D01*
X033905Y025480D01*
X033728Y025407D01*
X033593Y025272D01*
X033520Y025095D01*
X033520Y024905D01*
X033593Y024728D01*
X033673Y024648D01*
X033327Y024648D01*
X033407Y024728D01*
X033480Y024905D01*
X033480Y025095D01*
X033434Y025207D01*
X033821Y025595D01*
X033886Y025622D01*
X033972Y025708D01*
X034019Y025821D01*
X034019Y026337D01*
X033972Y026449D01*
X033886Y026536D01*
X033773Y026582D01*
X033651Y026582D01*
X033538Y026536D01*
X033452Y026449D01*
X033405Y026337D01*
X033405Y025821D01*
X033452Y025708D01*
X033467Y025693D01*
X033207Y025434D01*
X033095Y025480D01*
X032905Y025480D01*
X032728Y025407D01*
X032593Y025272D01*
X032520Y025095D01*
X032520Y024905D01*
X032593Y024728D01*
X032673Y024648D01*
X032327Y024648D01*
X032407Y024728D01*
X032480Y024905D01*
X032480Y025095D01*
X032434Y025207D01*
X032820Y025593D01*
X032864Y025575D01*
X032986Y025575D01*
X033099Y025622D01*
X033185Y025708D01*
X033232Y025821D01*
X033232Y026337D01*
X033185Y026449D01*
X033099Y026536D01*
X032986Y026582D01*
X032864Y026582D01*
X032751Y026536D01*
X032665Y026449D01*
X032618Y026337D01*
X032618Y025844D01*
X032207Y025434D01*
X032095Y025480D01*
X031905Y025480D01*
X031728Y025407D01*
X031593Y025272D01*
X031520Y025095D01*
X031520Y024905D01*
X031593Y024728D01*
X031673Y024648D01*
X031327Y024648D01*
X031407Y024728D01*
X031480Y024905D01*
X031480Y025095D01*
X031434Y025207D01*
X031906Y025680D01*
X031964Y025622D01*
X032076Y025575D01*
X032198Y025575D01*
X032311Y025622D01*
X032398Y025708D01*
X032444Y025821D01*
X032444Y026337D01*
X032398Y026449D01*
X032311Y026536D01*
X032198Y026582D01*
X032076Y026582D01*
X031964Y026536D01*
X031877Y026449D01*
X031831Y026337D01*
X031831Y026057D01*
X031657Y025883D01*
X031657Y026337D01*
X031610Y026449D01*
X031524Y026536D01*
X031411Y026582D01*
X031289Y026582D01*
X031176Y026536D01*
X031090Y026449D01*
X031043Y026337D01*
X031043Y026119D01*
X030869Y025946D01*
X030869Y026337D01*
X030823Y026449D01*
X030736Y026536D01*
X030624Y026582D01*
X030502Y026582D01*
X030389Y026536D01*
X030302Y026449D01*
X030256Y026337D01*
X030256Y026132D01*
X030082Y025958D01*
X030082Y026337D01*
X030035Y026449D01*
X029949Y026536D01*
X029836Y026582D01*
X029714Y026582D01*
X029601Y026536D01*
X029515Y026449D01*
X029468Y026337D01*
X029468Y026145D01*
X029295Y025971D01*
X029295Y026337D01*
X029248Y026449D01*
X029162Y026536D01*
X029049Y026582D01*
X028927Y026582D01*
X028814Y026536D01*
X028728Y026449D01*
X028681Y026337D01*
X028681Y026107D01*
X028507Y025934D01*
X028507Y026337D01*
X028461Y026449D01*
X028374Y026536D01*
X028261Y026582D01*
X028139Y026582D01*
X028027Y026536D01*
X027940Y026449D01*
X027894Y026337D01*
X027894Y026120D01*
X027484Y025710D01*
X026887Y025710D01*
X026932Y025821D01*
X026932Y026337D01*
X026886Y026449D01*
X026808Y026527D01*
X026808Y026586D01*
X026812Y026614D01*
X026815Y026638D01*
X026815Y026638D01*
X026808Y026647D01*
X026808Y026686D01*
X026686Y026808D01*
X026514Y026808D01*
X026392Y026686D01*
X026392Y026598D01*
X026383Y026575D01*
X026392Y026555D01*
X026392Y026514D01*
X026411Y026495D01*
X026365Y026449D01*
X026319Y026337D01*
X026319Y025821D01*
X026365Y025708D01*
X026424Y025650D01*
X026207Y025434D01*
X026095Y025480D01*
X025905Y025480D01*
X025728Y025407D01*
X025593Y025272D01*
X025520Y025095D01*
X025520Y024905D01*
X025593Y024728D01*
X025673Y024648D01*
X024327Y024648D01*
X024407Y024728D01*
X024480Y024905D01*
X024480Y025095D01*
X024407Y025272D01*
X024272Y025407D01*
X024095Y025480D01*
X023958Y025480D01*
X022513Y026926D01*
X022473Y026965D01*
X022526Y026987D01*
X022776Y027237D01*
X022863Y027324D01*
X022910Y027438D01*
X022910Y027590D01*
X023021Y027544D01*
X023294Y027544D01*
X023468Y027370D01*
X023021Y027370D01*
X022908Y027323D01*
X022822Y027237D01*
X022775Y027124D01*
X022775Y027002D01*
X022822Y026889D01*
X022908Y026803D01*
X023021Y026756D01*
X023537Y026756D01*
X023604Y026784D01*
X023650Y026738D01*
X023738Y026650D01*
X023789Y026650D01*
X023814Y026638D01*
X023823Y026641D01*
X023886Y026619D01*
X023914Y026592D01*
X023965Y026592D01*
X023990Y026583D01*
X024008Y026592D01*
X024032Y026592D01*
X024032Y026590D01*
X024034Y026582D01*
X024042Y026563D01*
X024042Y026514D01*
X024055Y026501D01*
X024003Y026449D01*
X023957Y026337D01*
X023957Y025821D01*
X024003Y025708D01*
X024090Y025622D01*
X024202Y025575D01*
X024324Y025575D01*
X024437Y025622D01*
X024524Y025708D01*
X024570Y025821D01*
X024570Y026337D01*
X024524Y026449D01*
X024458Y026515D01*
X024458Y026579D01*
X024467Y026623D01*
X024467Y026623D01*
X024467Y026623D01*
X024458Y026637D01*
X024458Y026686D01*
X024336Y026808D01*
X024208Y026808D01*
X024208Y026886D01*
X024086Y027008D01*
X024058Y027008D01*
X024058Y027075D01*
X024064Y027091D01*
X024058Y027101D01*
X024058Y027136D01*
X024020Y027175D01*
X024000Y027213D01*
X024000Y027262D01*
X023947Y027315D01*
X023929Y027350D01*
X023920Y027353D01*
X023914Y027361D01*
X023898Y027364D01*
X023887Y027375D01*
X023661Y027601D01*
X023736Y027677D01*
X023783Y027789D01*
X023783Y027911D01*
X023736Y028024D01*
X023650Y028111D01*
X023537Y028157D01*
X023021Y028157D01*
X022910Y028111D01*
X022910Y028377D01*
X023021Y028331D01*
X023537Y028331D01*
X023650Y028378D01*
X023714Y028442D01*
X023786Y028442D01*
X023908Y028564D01*
X023908Y028736D01*
X023786Y028858D01*
X023708Y028858D01*
X023690Y028867D01*
X023690Y028867D01*
X023690Y028867D01*
X023683Y028865D01*
X023650Y028898D01*
X023537Y028945D01*
X023021Y028945D01*
X022910Y028899D01*
X022910Y029522D01*
X023291Y029903D01*
X023341Y029903D01*
X023348Y029906D01*
X023537Y029906D01*
X023650Y029952D01*
X023736Y030039D01*
X023783Y030152D01*
X023783Y030274D01*
X023736Y030386D01*
X023650Y030473D01*
X023589Y030498D01*
X023589Y030715D01*
X023650Y030740D01*
X023736Y030826D01*
X023783Y030939D01*
X023783Y031061D01*
X023736Y031174D01*
X023650Y031260D01*
X023537Y031307D01*
X023348Y031307D01*
X023341Y031310D01*
X023217Y031310D01*
X023210Y031307D01*
X023021Y031307D01*
X022908Y031260D01*
X022822Y031174D01*
X022812Y031150D01*
X022512Y031150D01*
X022253Y031409D01*
X022358Y031514D01*
X022358Y031686D01*
X022295Y031750D01*
X022329Y031784D01*
X022337Y031764D01*
X022574Y031527D01*
X022688Y031480D01*
X023211Y031480D01*
X023217Y031477D01*
X029984Y031477D01*
X034824Y026637D01*
X034938Y026590D01*
X035062Y026590D01*
X035176Y026637D01*
X035263Y026724D01*
X035310Y026838D01*
X035310Y026962D01*
X035263Y027076D01*
X030375Y031963D01*
X030338Y032000D01*
X031733Y032000D01*
X031850Y032117D01*
X035094Y035361D01*
X035214Y035242D01*
X035386Y035242D01*
X035508Y035364D01*
X035508Y035457D01*
X035516Y035476D01*
X035508Y035493D01*
X035508Y035512D01*
X035547Y035551D01*
X035594Y035663D01*
X035594Y036179D01*
X035547Y036292D01*
X035461Y036378D01*
X035348Y036425D01*
X035226Y036425D01*
X035113Y036378D01*
X035100Y036365D01*
X035100Y036522D01*
X035272Y036593D01*
X035407Y036728D01*
X035480Y036905D01*
X035480Y037095D01*
X035407Y037272D01*
X035327Y037352D01*
X035673Y037352D01*
X035593Y037272D01*
X035520Y037095D01*
X035520Y036905D01*
X035593Y036728D01*
X035728Y036593D01*
X035905Y036520D01*
X036058Y036520D01*
X035927Y036389D01*
X035901Y036378D01*
X035814Y036292D01*
X035768Y036179D01*
X035768Y035663D01*
X035814Y035551D01*
X035901Y035464D01*
X036013Y035418D01*
X036135Y035418D01*
X036248Y035464D01*
X036335Y035551D01*
X036381Y035663D01*
X036381Y036179D01*
X036335Y036292D01*
X036294Y036332D01*
X036312Y036350D01*
X039562Y036350D01*
X039783Y036570D01*
X039905Y036520D01*
X040095Y036520D01*
X040272Y036593D01*
X040407Y036728D01*
X040480Y036905D01*
X040480Y037095D01*
X040407Y037272D01*
X040327Y037352D01*
X040673Y037352D01*
X040593Y037272D01*
X040520Y037095D01*
X040520Y036905D01*
X040593Y036728D01*
X040728Y036593D01*
X040900Y036522D01*
X040900Y036312D01*
X040588Y036000D01*
X039138Y036000D01*
X037788Y034650D01*
X037700Y034562D01*
X037700Y031728D01*
X037697Y031725D01*
X037698Y031715D01*
X037667Y031672D01*
X037663Y031667D01*
X037641Y031635D01*
X037592Y031586D01*
X037592Y031414D01*
X037714Y031292D01*
X037850Y031292D01*
X037850Y027938D01*
X038875Y026913D01*
X038954Y026913D01*
X038964Y026889D01*
X039050Y026803D01*
X039163Y026756D01*
X039679Y026756D01*
X039792Y026803D01*
X039878Y026889D01*
X039925Y027002D01*
X039925Y027124D01*
X039878Y027237D01*
X039792Y027323D01*
X039679Y027370D01*
X039163Y027370D01*
X039050Y027323D01*
X038970Y027243D01*
X038150Y028062D01*
X038150Y034388D01*
X039312Y035550D01*
X040762Y035550D01*
X041023Y035811D01*
X040950Y035634D01*
X040950Y035416D01*
X041034Y035213D01*
X041188Y035059D01*
X041391Y034975D01*
X041609Y034975D01*
X041812Y035059D01*
X041966Y035213D01*
X042050Y035416D01*
X042050Y035634D01*
X041966Y035837D01*
X041812Y035991D01*
X041609Y036075D01*
X041391Y036075D01*
X041214Y036002D01*
X041783Y036570D01*
X041905Y036520D01*
X042095Y036520D01*
X042272Y036593D01*
X042407Y036728D01*
X042480Y036905D01*
X042480Y037095D01*
X042407Y037272D01*
X042327Y037352D01*
X042673Y037352D01*
X042593Y037272D01*
X042520Y037095D01*
X042520Y036905D01*
X042593Y036728D01*
X042728Y036593D01*
X042905Y036520D01*
X043095Y036520D01*
X043272Y036593D01*
X043407Y036728D01*
X043480Y036905D01*
X043480Y037095D01*
X043407Y037272D01*
X043327Y037352D01*
X044352Y037352D01*
X044352Y035660D01*
X042302Y035660D01*
X042273Y035630D01*
X042273Y034798D01*
X041909Y034798D01*
X041879Y034768D01*
X041879Y034741D01*
X041879Y034744D02*
X040448Y034744D01*
X040027Y034744D02*
X038506Y034744D01*
X038408Y034646D02*
X039866Y034646D01*
X039810Y034547D02*
X038309Y034547D01*
X038211Y034449D02*
X039144Y034449D01*
X038990Y034350D02*
X038150Y034350D01*
X038150Y034252D02*
X038934Y034252D01*
X038917Y034153D02*
X038150Y034153D01*
X038150Y034055D02*
X038931Y034055D01*
X038984Y033956D02*
X038150Y033956D01*
X038150Y033858D02*
X039127Y033858D01*
X039714Y033858D02*
X042273Y033858D01*
X042273Y033956D02*
X039998Y033956D01*
X039918Y033910D02*
X039918Y033910D01*
X040122Y034028D02*
X040122Y034028D01*
X040138Y034055D02*
X042273Y034055D01*
X042273Y034153D02*
X040194Y034153D01*
X040240Y034252D02*
X042273Y034252D01*
X042273Y033759D02*
X038150Y033759D01*
X038150Y033661D02*
X042273Y033661D01*
X042273Y033562D02*
X038150Y033562D01*
X038150Y033464D02*
X042273Y033464D01*
X042273Y033365D02*
X038150Y033365D01*
X038150Y033267D02*
X042273Y033267D01*
X042273Y033168D02*
X038150Y033168D01*
X038150Y033070D02*
X042273Y033070D01*
X042273Y032971D02*
X038150Y032971D01*
X038150Y032873D02*
X042273Y032873D01*
X042273Y032774D02*
X038150Y032774D01*
X038150Y032676D02*
X042273Y032676D01*
X042273Y032577D02*
X038150Y032577D01*
X038150Y032479D02*
X042273Y032479D01*
X042273Y032380D02*
X038150Y032380D01*
X038150Y032282D02*
X042273Y032282D01*
X042273Y032183D02*
X038150Y032183D01*
X038150Y032085D02*
X039139Y032085D01*
X039163Y032094D02*
X039050Y032048D01*
X038979Y031976D01*
X038964Y031981D01*
X038936Y032008D01*
X038885Y032008D01*
X038860Y032017D01*
X038860Y032017D01*
X038860Y032017D01*
X038842Y032008D01*
X038764Y032008D01*
X038642Y031886D01*
X038642Y031714D01*
X038764Y031592D01*
X038842Y031592D01*
X038860Y031583D01*
X038885Y031592D01*
X038936Y031592D01*
X038962Y031618D01*
X038964Y031614D01*
X039050Y031527D01*
X039163Y031481D01*
X039679Y031481D01*
X039792Y031527D01*
X039878Y031614D01*
X039925Y031726D01*
X039925Y031848D01*
X039878Y031961D01*
X039792Y032048D01*
X039679Y032094D01*
X039163Y032094D01*
X038989Y031986D02*
X038959Y031986D01*
X038741Y031986D02*
X038150Y031986D01*
X038150Y031888D02*
X038643Y031888D01*
X038642Y031789D02*
X038150Y031789D01*
X038150Y031691D02*
X038665Y031691D01*
X038763Y031592D02*
X038150Y031592D01*
X038150Y031494D02*
X039132Y031494D01*
X038985Y031592D02*
X038937Y031592D01*
X038860Y031583D02*
X038860Y031583D01*
X038860Y031217D02*
X038842Y031208D01*
X038764Y031208D01*
X038642Y031086D01*
X038642Y030914D01*
X038764Y030792D01*
X038842Y030792D01*
X038860Y030783D01*
X038885Y030792D01*
X038936Y030792D01*
X038964Y030819D01*
X038969Y030821D01*
X039050Y030740D01*
X039163Y030693D01*
X039679Y030693D01*
X039792Y030740D01*
X039878Y030826D01*
X039925Y030939D01*
X039925Y031061D01*
X039878Y031174D01*
X039792Y031260D01*
X039679Y031307D01*
X039163Y031307D01*
X039050Y031260D01*
X038969Y031179D01*
X038964Y031181D01*
X038936Y031208D01*
X038885Y031208D01*
X038860Y031217D01*
X038860Y031217D01*
X038860Y031217D01*
X038947Y031198D02*
X038988Y031198D01*
X039138Y031297D02*
X038150Y031297D01*
X038150Y031395D02*
X042273Y031395D01*
X042273Y031297D02*
X039704Y031297D01*
X039854Y031198D02*
X042273Y031198D01*
X042273Y031100D02*
X039909Y031100D01*
X039925Y031001D02*
X042273Y031001D01*
X042273Y030903D02*
X039909Y030903D01*
X039856Y030804D02*
X042273Y030804D01*
X042273Y030706D02*
X039709Y030706D01*
X039133Y030706D02*
X038150Y030706D01*
X038150Y030804D02*
X038751Y030804D01*
X038860Y030783D02*
X038860Y030783D01*
X038949Y030804D02*
X038986Y030804D01*
X038653Y030903D02*
X038150Y030903D01*
X038150Y031001D02*
X038642Y031001D01*
X038655Y031100D02*
X038150Y031100D01*
X038150Y031198D02*
X038753Y031198D01*
X038150Y030607D02*
X042273Y030607D01*
X042273Y030509D02*
X038150Y030509D01*
X038150Y030410D02*
X042273Y030410D01*
X042273Y030312D02*
X038150Y030312D01*
X038150Y030213D02*
X042273Y030213D01*
X042273Y030115D02*
X038150Y030115D01*
X038150Y030016D02*
X042273Y030016D01*
X042273Y029918D02*
X038150Y029918D01*
X038150Y029819D02*
X042273Y029819D01*
X042273Y029721D02*
X039707Y029721D01*
X039855Y029622D02*
X042273Y029622D01*
X042273Y029524D02*
X039909Y029524D01*
X039925Y029425D02*
X042273Y029425D01*
X042273Y029327D02*
X039909Y029327D01*
X040075Y029228D02*
X042273Y029228D01*
X042273Y029130D02*
X040174Y029130D01*
X040272Y029031D02*
X042273Y029031D01*
X042273Y028933D02*
X040371Y028933D01*
X040469Y028834D02*
X042273Y028834D01*
X042273Y028736D02*
X040568Y028736D01*
X040666Y028637D02*
X042273Y028637D01*
X042273Y028539D02*
X040765Y028539D01*
X040863Y028440D02*
X042273Y028440D01*
X042273Y028342D02*
X040962Y028342D01*
X041060Y028243D02*
X042273Y028243D01*
X042273Y028145D02*
X041159Y028145D01*
X041257Y028046D02*
X042273Y028046D01*
X042273Y027948D02*
X041356Y027948D01*
X041454Y027849D02*
X042273Y027849D01*
X042273Y027751D02*
X041553Y027751D01*
X041651Y027652D02*
X044352Y027652D01*
X044352Y027554D02*
X043700Y027554D01*
X043776Y027522D02*
X043489Y027641D01*
X043180Y027641D01*
X042894Y027522D01*
X042675Y027303D01*
X042556Y027017D01*
X042556Y026707D01*
X042675Y026421D01*
X042894Y026202D01*
X043180Y026084D01*
X043489Y026084D01*
X043776Y026202D01*
X043994Y026421D01*
X044113Y026707D01*
X044113Y027017D01*
X043994Y027303D01*
X043776Y027522D01*
X043843Y027455D02*
X044352Y027455D01*
X044352Y027357D02*
X043941Y027357D01*
X044013Y027258D02*
X044352Y027258D01*
X044352Y027160D02*
X044054Y027160D01*
X044095Y027061D02*
X044352Y027061D01*
X044352Y026963D02*
X044113Y026963D01*
X044113Y026864D02*
X044352Y026864D01*
X044352Y026766D02*
X044113Y026766D01*
X044096Y026667D02*
X044352Y026667D01*
X044352Y026569D02*
X044055Y026569D01*
X044015Y026470D02*
X044352Y026470D01*
X044352Y026372D02*
X043945Y026372D01*
X043846Y026273D02*
X044352Y026273D01*
X044352Y026175D02*
X043708Y026175D01*
X044352Y026076D02*
X042627Y026076D01*
X042529Y026175D02*
X042961Y026175D01*
X042823Y026273D02*
X042430Y026273D01*
X042332Y026372D02*
X042725Y026372D01*
X042655Y026470D02*
X042235Y026470D01*
X042235Y026569D02*
X042614Y026569D01*
X042573Y026667D02*
X042235Y026667D01*
X042235Y026766D02*
X042556Y026766D01*
X042556Y026864D02*
X042235Y026864D01*
X042235Y026963D02*
X042556Y026963D01*
X042575Y027061D02*
X042235Y027061D01*
X042144Y027160D02*
X042615Y027160D01*
X042656Y027258D02*
X042045Y027258D01*
X041947Y027357D02*
X042728Y027357D01*
X042827Y027455D02*
X041848Y027455D01*
X041750Y027554D02*
X042970Y027554D01*
X041633Y026864D02*
X039853Y026864D01*
X039908Y026963D02*
X041534Y026963D01*
X041436Y027061D02*
X039925Y027061D01*
X039910Y027160D02*
X041337Y027160D01*
X041239Y027258D02*
X039857Y027258D01*
X039711Y027357D02*
X041140Y027357D01*
X041042Y027455D02*
X038757Y027455D01*
X038659Y027554D02*
X040943Y027554D01*
X040845Y027652D02*
X038560Y027652D01*
X038462Y027751D02*
X040746Y027751D01*
X040648Y027849D02*
X038363Y027849D01*
X038265Y027948D02*
X040549Y027948D01*
X040451Y028046D02*
X038166Y028046D01*
X038150Y028145D02*
X040352Y028145D01*
X040254Y028243D02*
X038150Y028243D01*
X038150Y028342D02*
X039137Y028342D01*
X038988Y028440D02*
X038150Y028440D01*
X038150Y028539D02*
X038933Y028539D01*
X038917Y028637D02*
X038150Y028637D01*
X038150Y028736D02*
X038932Y028736D01*
X038986Y028834D02*
X038150Y028834D01*
X038150Y028933D02*
X039134Y028933D01*
X039136Y029130D02*
X038150Y029130D01*
X038150Y029228D02*
X038987Y029228D01*
X038933Y029327D02*
X038150Y029327D01*
X038150Y029425D02*
X038917Y029425D01*
X038933Y029524D02*
X038150Y029524D01*
X038150Y029622D02*
X038987Y029622D01*
X039135Y029721D02*
X038150Y029721D01*
X037850Y029721D02*
X032618Y029721D01*
X032519Y029819D02*
X037850Y029819D01*
X037850Y029918D02*
X032421Y029918D01*
X032322Y030016D02*
X037850Y030016D01*
X037850Y030115D02*
X032224Y030115D01*
X032125Y030213D02*
X037850Y030213D01*
X037850Y030312D02*
X032027Y030312D01*
X031928Y030410D02*
X037850Y030410D01*
X037850Y030509D02*
X031830Y030509D01*
X031731Y030607D02*
X037850Y030607D01*
X037850Y030706D02*
X031633Y030706D01*
X031534Y030804D02*
X037850Y030804D01*
X037850Y030903D02*
X031436Y030903D01*
X031337Y031001D02*
X037850Y031001D01*
X037850Y031100D02*
X031239Y031100D01*
X031140Y031198D02*
X037850Y031198D01*
X037709Y031297D02*
X031042Y031297D01*
X030943Y031395D02*
X037610Y031395D01*
X037592Y031494D02*
X030845Y031494D01*
X030746Y031592D02*
X037597Y031592D01*
X037680Y031691D02*
X030648Y031691D01*
X030549Y031789D02*
X037700Y031789D01*
X037700Y031888D02*
X030451Y031888D01*
X030375Y031963D02*
X030375Y031963D01*
X030352Y031986D02*
X037700Y031986D01*
X037700Y032085D02*
X031817Y032085D01*
X031916Y032183D02*
X037700Y032183D01*
X037700Y032282D02*
X032014Y032282D01*
X032113Y032380D02*
X037700Y032380D01*
X037700Y032479D02*
X032211Y032479D01*
X032310Y032577D02*
X037700Y032577D01*
X037700Y032676D02*
X032408Y032676D01*
X032507Y032774D02*
X037700Y032774D01*
X037700Y032873D02*
X032605Y032873D01*
X032704Y032971D02*
X037700Y032971D01*
X037700Y033070D02*
X032802Y033070D01*
X032901Y033168D02*
X037700Y033168D01*
X037700Y033267D02*
X032999Y033267D01*
X033098Y033365D02*
X037700Y033365D01*
X037700Y033464D02*
X033196Y033464D01*
X033295Y033562D02*
X037700Y033562D01*
X037700Y033661D02*
X033393Y033661D01*
X033492Y033759D02*
X037700Y033759D01*
X037700Y033858D02*
X033590Y033858D01*
X033689Y033956D02*
X037700Y033956D01*
X037700Y034055D02*
X033787Y034055D01*
X033886Y034153D02*
X037700Y034153D01*
X037700Y034252D02*
X033984Y034252D01*
X034083Y034350D02*
X037700Y034350D01*
X037700Y034449D02*
X034181Y034449D01*
X034280Y034547D02*
X037700Y034547D01*
X037783Y034646D02*
X034378Y034646D01*
X034477Y034744D02*
X037882Y034744D01*
X037980Y034843D02*
X034575Y034843D01*
X034674Y034941D02*
X038079Y034941D01*
X038177Y035040D02*
X034772Y035040D01*
X034871Y035138D02*
X038276Y035138D01*
X038374Y035237D02*
X034969Y035237D01*
X035068Y035335D02*
X035120Y035335D01*
X035480Y035335D02*
X038473Y035335D01*
X038571Y035434D02*
X036174Y035434D01*
X036316Y035532D02*
X038670Y035532D01*
X038768Y035631D02*
X036368Y035631D01*
X036381Y035729D02*
X038867Y035729D01*
X038965Y035828D02*
X036381Y035828D01*
X036381Y035926D02*
X039064Y035926D01*
X039294Y035532D02*
X040950Y035532D01*
X040950Y035434D02*
X039196Y035434D01*
X039097Y035335D02*
X040983Y035335D01*
X041024Y035237D02*
X038999Y035237D01*
X038900Y035138D02*
X041109Y035138D01*
X041235Y035040D02*
X038802Y035040D01*
X038703Y034941D02*
X042273Y034941D01*
X042273Y034843D02*
X038605Y034843D01*
X039698Y034449D02*
X039760Y034449D01*
X040843Y035631D02*
X040950Y035631D01*
X040941Y035729D02*
X040989Y035729D01*
X041237Y036025D02*
X041269Y036025D01*
X041335Y036123D02*
X044352Y036123D01*
X044352Y036025D02*
X041731Y036025D01*
X041877Y035926D02*
X044352Y035926D01*
X044352Y035828D02*
X041970Y035828D01*
X042011Y035729D02*
X044352Y035729D01*
X044352Y036222D02*
X041434Y036222D01*
X041532Y036320D02*
X044352Y036320D01*
X044352Y036419D02*
X041631Y036419D01*
X041729Y036517D02*
X044352Y036517D01*
X044352Y036616D02*
X043294Y036616D01*
X043393Y036714D02*
X044352Y036714D01*
X044352Y036813D02*
X043442Y036813D01*
X043480Y036911D02*
X044352Y036911D01*
X044352Y037010D02*
X043480Y037010D01*
X043475Y037108D02*
X044352Y037108D01*
X044352Y037207D02*
X043434Y037207D01*
X043374Y037305D02*
X044352Y037305D01*
X042626Y037305D02*
X042374Y037305D01*
X042434Y037207D02*
X042566Y037207D01*
X042525Y037108D02*
X042475Y037108D01*
X042480Y037010D02*
X042520Y037010D01*
X042520Y036911D02*
X042480Y036911D01*
X042442Y036813D02*
X042558Y036813D01*
X042607Y036714D02*
X042393Y036714D01*
X042294Y036616D02*
X042706Y036616D01*
X042273Y035631D02*
X042050Y035631D01*
X042050Y035532D02*
X042273Y035532D01*
X042273Y035434D02*
X042050Y035434D01*
X042017Y035335D02*
X042273Y035335D01*
X042273Y035237D02*
X041976Y035237D01*
X041891Y035138D02*
X042273Y035138D01*
X042273Y035040D02*
X041765Y035040D01*
X040711Y036123D02*
X036381Y036123D01*
X036381Y036025D02*
X040612Y036025D01*
X040809Y036222D02*
X036364Y036222D01*
X036306Y036320D02*
X040900Y036320D01*
X040900Y036419D02*
X039631Y036419D01*
X039729Y036517D02*
X040900Y036517D01*
X040706Y036616D02*
X040294Y036616D01*
X040393Y036714D02*
X040607Y036714D01*
X040558Y036813D02*
X040442Y036813D01*
X040480Y036911D02*
X040520Y036911D01*
X040520Y037010D02*
X040480Y037010D01*
X040475Y037108D02*
X040525Y037108D01*
X040566Y037207D02*
X040434Y037207D01*
X040374Y037305D02*
X040626Y037305D01*
X036055Y036517D02*
X035100Y036517D01*
X035100Y036419D02*
X035210Y036419D01*
X035364Y036419D02*
X035956Y036419D01*
X035842Y036320D02*
X035519Y036320D01*
X035576Y036222D02*
X035785Y036222D01*
X035768Y036123D02*
X035594Y036123D01*
X035594Y036025D02*
X035768Y036025D01*
X035768Y035926D02*
X035594Y035926D01*
X035594Y035828D02*
X035768Y035828D01*
X035768Y035729D02*
X035594Y035729D01*
X035580Y035631D02*
X035781Y035631D01*
X035833Y035532D02*
X035529Y035532D01*
X035516Y035476D02*
X035516Y035476D01*
X035508Y035434D02*
X035975Y035434D01*
X035706Y036616D02*
X035294Y036616D01*
X035393Y036714D02*
X035607Y036714D01*
X035558Y036813D02*
X035442Y036813D01*
X035480Y036911D02*
X035520Y036911D01*
X035520Y037010D02*
X035480Y037010D01*
X035475Y037108D02*
X035525Y037108D01*
X035566Y037207D02*
X035434Y037207D01*
X035374Y037305D02*
X035626Y037305D01*
X034673Y037352D02*
X034593Y037272D01*
X034520Y037095D01*
X034520Y036905D01*
X034593Y036728D01*
X034700Y036621D01*
X034700Y036352D01*
X034673Y036378D01*
X034561Y036425D01*
X034439Y036425D01*
X034326Y036378D01*
X034239Y036292D01*
X034193Y036179D01*
X034193Y035663D01*
X034239Y035551D01*
X034292Y035498D01*
X034292Y035485D01*
X034283Y035460D01*
X034283Y035460D01*
X034283Y035460D01*
X034292Y035441D01*
X034292Y035364D01*
X034411Y035244D01*
X031567Y032400D01*
X023735Y032400D01*
X023736Y032401D01*
X023783Y032514D01*
X023783Y032636D01*
X023736Y032749D01*
X023650Y032835D01*
X023537Y032882D01*
X023021Y032882D01*
X022910Y032836D01*
X022910Y033889D01*
X023021Y033843D01*
X023537Y033843D01*
X023650Y033889D01*
X023702Y033942D01*
X023715Y033942D01*
X023740Y033933D01*
X023758Y033942D01*
X023836Y033942D01*
X023958Y034064D01*
X023958Y034236D01*
X023836Y034358D01*
X023758Y034358D01*
X023740Y034367D01*
X023740Y034367D01*
X023740Y034367D01*
X023715Y034358D01*
X023701Y034358D01*
X023650Y034410D01*
X023537Y034456D01*
X023021Y034456D01*
X022910Y034410D01*
X022910Y034676D01*
X023021Y034630D01*
X023537Y034630D01*
X023650Y034677D01*
X023661Y034688D01*
X023669Y034676D01*
X023677Y034675D01*
X023681Y034675D01*
X023714Y034642D01*
X023886Y034642D01*
X024008Y034764D01*
X024008Y034936D01*
X023920Y035024D01*
X023914Y035035D01*
X023908Y035037D01*
X023886Y035058D01*
X023828Y035058D01*
X023795Y035067D01*
X023762Y035100D01*
X023741Y035100D01*
X023736Y035111D01*
X023650Y035197D01*
X023537Y035244D01*
X023021Y035244D01*
X022910Y035198D01*
X022910Y036422D01*
X023008Y036520D01*
X023095Y036520D01*
X023272Y036593D01*
X023369Y036690D01*
X023631Y036690D01*
X023728Y036593D01*
X023905Y036520D01*
X024095Y036520D01*
X024272Y036593D01*
X024407Y036728D01*
X024480Y036905D01*
X024480Y037095D01*
X024407Y037272D01*
X024327Y037352D01*
X024673Y037352D01*
X024593Y037272D01*
X024520Y037095D01*
X024520Y036905D01*
X024593Y036728D01*
X024728Y036593D01*
X024905Y036520D01*
X025095Y036520D01*
X025272Y036593D01*
X025407Y036728D01*
X025480Y036905D01*
X025480Y037095D01*
X025407Y037272D01*
X025327Y037352D01*
X025673Y037352D01*
X025593Y037272D01*
X025520Y037095D01*
X025520Y036905D01*
X025593Y036728D01*
X025728Y036593D01*
X025905Y036520D01*
X026095Y036520D01*
X026272Y036593D01*
X026407Y036728D01*
X026480Y036905D01*
X026480Y037095D01*
X026407Y037272D01*
X026327Y037352D01*
X026673Y037352D01*
X026593Y037272D01*
X026520Y037095D01*
X026520Y036905D01*
X026593Y036728D01*
X026728Y036593D01*
X026905Y036520D01*
X027095Y036520D01*
X027272Y036593D01*
X027407Y036728D01*
X027480Y036905D01*
X027480Y037095D01*
X027407Y037272D01*
X027327Y037352D01*
X027673Y037352D01*
X027593Y037272D01*
X027520Y037095D01*
X027520Y036905D01*
X027593Y036728D01*
X027728Y036593D01*
X027905Y036520D01*
X028095Y036520D01*
X028272Y036593D01*
X028407Y036728D01*
X028480Y036905D01*
X028480Y037095D01*
X028407Y037272D01*
X028327Y037352D01*
X028673Y037352D01*
X028593Y037272D01*
X028520Y037095D01*
X028520Y036905D01*
X028593Y036728D01*
X028728Y036593D01*
X028905Y036520D01*
X029095Y036520D01*
X029272Y036593D01*
X029407Y036728D01*
X029480Y036905D01*
X029480Y037095D01*
X029407Y037272D01*
X029327Y037352D01*
X029673Y037352D01*
X029593Y037272D01*
X029520Y037095D01*
X029520Y036905D01*
X029593Y036728D01*
X029728Y036593D01*
X029905Y036520D01*
X030095Y036520D01*
X030272Y036593D01*
X030407Y036728D01*
X030480Y036905D01*
X030480Y037095D01*
X030407Y037272D01*
X030327Y037352D01*
X030673Y037352D01*
X030593Y037272D01*
X030520Y037095D01*
X030520Y036905D01*
X030593Y036728D01*
X030728Y036593D01*
X030905Y036520D01*
X031095Y036520D01*
X031272Y036593D01*
X031407Y036728D01*
X031480Y036905D01*
X031480Y037095D01*
X031407Y037272D01*
X031327Y037352D01*
X031673Y037352D01*
X031593Y037272D01*
X031520Y037095D01*
X031520Y036905D01*
X031593Y036728D01*
X031728Y036593D01*
X031905Y036520D01*
X032095Y036520D01*
X032272Y036593D01*
X032407Y036728D01*
X032480Y036905D01*
X032480Y037095D01*
X032407Y037272D01*
X032327Y037352D01*
X032673Y037352D01*
X032593Y037272D01*
X032520Y037095D01*
X032520Y036905D01*
X032593Y036728D01*
X032728Y036593D01*
X032905Y036520D01*
X033095Y036520D01*
X033272Y036593D01*
X033407Y036728D01*
X033480Y036905D01*
X033480Y037095D01*
X033407Y037272D01*
X033327Y037352D01*
X034673Y037352D01*
X034626Y037305D02*
X033374Y037305D01*
X033434Y037207D02*
X034566Y037207D01*
X034525Y037108D02*
X033475Y037108D01*
X033480Y037010D02*
X034520Y037010D01*
X034520Y036911D02*
X033480Y036911D01*
X033442Y036813D02*
X034558Y036813D01*
X034607Y036714D02*
X033393Y036714D01*
X033294Y036616D02*
X034700Y036616D01*
X034700Y036517D02*
X023005Y036517D01*
X022910Y036419D02*
X024187Y036419D01*
X024202Y036425D02*
X024090Y036378D01*
X024003Y036292D01*
X023957Y036179D01*
X023957Y035663D01*
X024003Y035551D01*
X024090Y035464D01*
X024092Y035463D01*
X024092Y035435D01*
X024083Y035410D01*
X024083Y035410D01*
X024083Y035410D01*
X024088Y035400D01*
X024083Y035390D01*
X024083Y035390D01*
X024083Y035390D01*
X024092Y035365D01*
X024092Y035314D01*
X024119Y035286D01*
X024141Y035223D01*
X024138Y035214D01*
X024150Y035189D01*
X024150Y034561D01*
X024138Y034536D01*
X024141Y034527D01*
X024119Y034464D01*
X024092Y034436D01*
X024092Y034385D01*
X024083Y034360D01*
X024092Y034342D01*
X024092Y034264D01*
X024214Y034142D01*
X024386Y034142D01*
X024508Y034264D01*
X024508Y034342D01*
X024517Y034360D01*
X024517Y034360D01*
X024517Y034360D01*
X024508Y034385D01*
X024508Y034436D01*
X024481Y034464D01*
X024459Y034527D01*
X024462Y034536D01*
X024450Y034561D01*
X024450Y035189D01*
X024462Y035214D01*
X024459Y035223D01*
X024481Y035286D01*
X024508Y035314D01*
X024508Y035365D01*
X024517Y035390D01*
X024512Y035400D01*
X024517Y035410D01*
X024517Y035410D01*
X024517Y035410D01*
X024508Y035435D01*
X024508Y035486D01*
X024484Y035511D01*
X024524Y035551D01*
X024570Y035663D01*
X024570Y036179D01*
X024524Y036292D01*
X024437Y036378D01*
X024324Y036425D01*
X024202Y036425D01*
X024340Y036419D02*
X024974Y036419D01*
X024990Y036425D02*
X024877Y036378D01*
X024791Y036292D01*
X024744Y036179D01*
X024744Y035663D01*
X024791Y035551D01*
X024798Y035543D01*
X024792Y035536D01*
X024792Y035364D01*
X024914Y035242D01*
X025086Y035242D01*
X025208Y035364D01*
X025208Y035395D01*
X025211Y035397D01*
X025211Y035397D01*
X025211Y035404D01*
X025208Y035455D01*
X025208Y035458D01*
X025225Y035464D01*
X025311Y035551D01*
X025358Y035663D01*
X025358Y036179D01*
X025311Y036292D01*
X025225Y036378D01*
X025112Y036425D01*
X024990Y036425D01*
X025127Y036419D02*
X025762Y036419D01*
X025777Y036425D02*
X025664Y036378D01*
X025578Y036292D01*
X025531Y036179D01*
X025531Y035663D01*
X025578Y035551D01*
X025642Y035487D01*
X025642Y035478D01*
X025633Y035448D01*
X025633Y035446D01*
X025642Y035430D01*
X025642Y035364D01*
X025764Y035242D01*
X025936Y035242D01*
X026058Y035364D01*
X026058Y035455D01*
X026066Y035475D01*
X026058Y035493D01*
X026058Y035511D01*
X026098Y035551D01*
X026145Y035663D01*
X026145Y036179D01*
X026098Y036292D01*
X026012Y036378D01*
X025899Y036425D01*
X025777Y036425D01*
X025915Y036419D02*
X026549Y036419D01*
X026565Y036425D02*
X026452Y036378D01*
X026365Y036292D01*
X026319Y036179D01*
X026319Y035663D01*
X026365Y035551D01*
X026442Y035474D01*
X026442Y035471D01*
X026441Y035468D01*
X026433Y035430D01*
X026442Y035418D01*
X026442Y035364D01*
X026564Y035242D01*
X026736Y035242D01*
X026858Y035364D01*
X026858Y035473D01*
X026864Y035490D01*
X026858Y035500D01*
X026858Y035523D01*
X026886Y035551D01*
X026932Y035663D01*
X026932Y036179D01*
X026886Y036292D01*
X026799Y036378D01*
X026687Y036425D01*
X026565Y036425D01*
X026702Y036419D02*
X027336Y036419D01*
X027352Y036425D02*
X027239Y036378D01*
X027153Y036292D01*
X027106Y036179D01*
X027106Y035663D01*
X027153Y035551D01*
X027239Y035464D01*
X027242Y035463D01*
X027238Y035435D01*
X027235Y035414D01*
X027242Y035407D01*
X027242Y035364D01*
X027364Y035242D01*
X027536Y035242D01*
X027658Y035364D01*
X027658Y035497D01*
X027660Y035505D01*
X027660Y035505D01*
X027658Y035508D01*
X027658Y035536D01*
X027673Y035551D01*
X027720Y035663D01*
X027720Y036179D01*
X027673Y036292D01*
X027587Y036378D01*
X027474Y036425D01*
X027352Y036425D01*
X027490Y036419D02*
X028124Y036419D01*
X028139Y036425D02*
X028027Y036378D01*
X027940Y036292D01*
X027894Y036179D01*
X027894Y035663D01*
X027940Y035551D01*
X027992Y035499D01*
X027992Y035486D01*
X027983Y035461D01*
X027983Y035461D01*
X027992Y035442D01*
X027992Y035364D01*
X028114Y035242D01*
X028286Y035242D01*
X028408Y035364D01*
X028408Y035441D01*
X028417Y035460D01*
X028408Y035485D01*
X028408Y035498D01*
X028461Y035551D01*
X028507Y035663D01*
X028507Y036179D01*
X028461Y036292D01*
X028374Y036378D01*
X028261Y036425D01*
X028139Y036425D01*
X028277Y036419D02*
X028911Y036419D01*
X028927Y036425D02*
X028814Y036378D01*
X028728Y036292D01*
X028681Y036179D01*
X028681Y035663D01*
X028728Y035551D01*
X028792Y035487D01*
X028792Y035478D01*
X028783Y035445D01*
X028783Y035445D01*
X028783Y035445D01*
X028792Y035429D01*
X028792Y035364D01*
X028914Y035242D01*
X029086Y035242D01*
X029208Y035364D01*
X029208Y035456D01*
X029216Y035475D01*
X029216Y035475D01*
X029216Y035475D01*
X029208Y035493D01*
X029208Y035511D01*
X029248Y035551D01*
X029295Y035663D01*
X029295Y036179D01*
X029248Y036292D01*
X029162Y036378D01*
X029049Y036425D01*
X028927Y036425D01*
X029064Y036419D02*
X029699Y036419D01*
X029714Y036425D02*
X029601Y036378D01*
X029515Y036292D01*
X029468Y036179D01*
X029468Y035663D01*
X029515Y035551D01*
X029592Y035474D01*
X029592Y035470D01*
X029583Y035430D01*
X029592Y035417D01*
X029592Y035364D01*
X029714Y035242D01*
X029886Y035242D01*
X030008Y035364D01*
X030008Y035474D01*
X030014Y035490D01*
X030008Y035501D01*
X030008Y035524D01*
X030035Y035551D01*
X030082Y035663D01*
X030082Y036179D01*
X030035Y036292D01*
X029949Y036378D01*
X029836Y036425D01*
X029714Y036425D01*
X029852Y036419D02*
X030486Y036419D01*
X030502Y036425D02*
X030389Y036378D01*
X030302Y036292D01*
X030256Y036179D01*
X030256Y035663D01*
X030302Y035551D01*
X030389Y035464D01*
X030392Y035463D01*
X030386Y035414D01*
X030392Y035406D01*
X030392Y035364D01*
X030514Y035242D01*
X030686Y035242D01*
X030808Y035364D01*
X030808Y035498D01*
X030810Y035506D01*
X030808Y035509D01*
X030808Y035536D01*
X030823Y035551D01*
X030869Y035663D01*
X030869Y036179D01*
X030823Y036292D01*
X030736Y036378D01*
X030624Y036425D01*
X030502Y036425D01*
X030639Y036419D02*
X032061Y036419D01*
X032076Y036425D02*
X031964Y036378D01*
X031877Y036292D01*
X031831Y036179D01*
X031831Y035663D01*
X031877Y035551D01*
X031942Y035486D01*
X031942Y035478D01*
X031933Y035445D01*
X031942Y035429D01*
X031942Y035364D01*
X032064Y035242D01*
X032236Y035242D01*
X032358Y035364D01*
X032358Y035456D01*
X032366Y035476D01*
X032358Y035493D01*
X032358Y035511D01*
X032398Y035551D01*
X032444Y035663D01*
X032444Y036179D01*
X032398Y036292D01*
X032311Y036378D01*
X032198Y036425D01*
X032076Y036425D01*
X032214Y036419D02*
X032848Y036419D01*
X032864Y036425D02*
X032751Y036378D01*
X032665Y036292D01*
X032618Y036179D01*
X032618Y035663D01*
X032665Y035551D01*
X032742Y035474D01*
X032742Y035470D01*
X032734Y035429D01*
X032742Y035417D01*
X032742Y035364D01*
X032864Y035242D01*
X033036Y035242D01*
X033158Y035364D01*
X033158Y035474D01*
X033164Y035491D01*
X033158Y035501D01*
X033158Y035524D01*
X033185Y035551D01*
X033232Y035663D01*
X033232Y036179D01*
X033185Y036292D01*
X033099Y036378D01*
X032986Y036425D01*
X032864Y036425D01*
X033001Y036419D02*
X033636Y036419D01*
X033651Y036425D02*
X033538Y036378D01*
X033452Y036292D01*
X033405Y036179D01*
X033405Y035663D01*
X033452Y035551D01*
X033538Y035464D01*
X033542Y035463D01*
X033542Y035463D01*
X033537Y035426D01*
X033536Y035413D01*
X033542Y035406D01*
X033542Y035364D01*
X033664Y035242D01*
X033836Y035242D01*
X033958Y035364D01*
X033958Y035499D01*
X033960Y035506D01*
X033960Y035506D01*
X033960Y035506D01*
X033958Y035509D01*
X033958Y035536D01*
X033958Y035537D01*
X033972Y035551D01*
X034019Y035663D01*
X034019Y036179D01*
X033972Y036292D01*
X033886Y036378D01*
X033773Y036425D01*
X033651Y036425D01*
X033789Y036419D02*
X034423Y036419D01*
X034576Y036419D02*
X034700Y036419D01*
X034268Y036320D02*
X033944Y036320D01*
X034001Y036222D02*
X034210Y036222D01*
X034193Y036123D02*
X034019Y036123D01*
X034019Y036025D02*
X034193Y036025D01*
X034193Y035926D02*
X034019Y035926D01*
X034019Y035828D02*
X034193Y035828D01*
X034193Y035729D02*
X034019Y035729D01*
X034005Y035631D02*
X034206Y035631D01*
X034258Y035532D02*
X033958Y035532D01*
X033958Y035434D02*
X034292Y035434D01*
X034320Y035335D02*
X033930Y035335D01*
X033570Y035335D02*
X033130Y035335D01*
X033158Y035434D02*
X033538Y035434D01*
X033536Y035413D02*
X033536Y035413D01*
X033536Y035413D01*
X033471Y035532D02*
X033166Y035532D01*
X033164Y035491D02*
X033164Y035491D01*
X033164Y035491D01*
X033218Y035631D02*
X033419Y035631D01*
X033405Y035729D02*
X033232Y035729D01*
X033232Y035828D02*
X033405Y035828D01*
X033405Y035926D02*
X033232Y035926D01*
X033232Y036025D02*
X033405Y036025D01*
X033405Y036123D02*
X033232Y036123D01*
X033214Y036222D02*
X033423Y036222D01*
X033480Y036320D02*
X033157Y036320D01*
X032693Y036320D02*
X032369Y036320D01*
X032427Y036222D02*
X032636Y036222D01*
X032618Y036123D02*
X032444Y036123D01*
X032444Y036025D02*
X032618Y036025D01*
X032618Y035926D02*
X032444Y035926D01*
X032444Y035828D02*
X032618Y035828D01*
X032618Y035729D02*
X032444Y035729D01*
X032431Y035631D02*
X032632Y035631D01*
X032683Y035532D02*
X032379Y035532D01*
X032366Y035476D02*
X032366Y035476D01*
X032358Y035434D02*
X032734Y035434D01*
X032734Y035429D02*
X032734Y035429D01*
X032770Y035335D02*
X032330Y035335D01*
X031970Y035335D02*
X030780Y035335D01*
X030808Y035434D02*
X031939Y035434D01*
X031896Y035532D02*
X030808Y035532D01*
X030810Y035506D02*
X030810Y035506D01*
X030810Y035506D01*
X030856Y035631D02*
X031844Y035631D01*
X031831Y035729D02*
X030869Y035729D01*
X030869Y035828D02*
X031831Y035828D01*
X031831Y035926D02*
X030869Y035926D01*
X030869Y036025D02*
X031831Y036025D01*
X031831Y036123D02*
X030869Y036123D01*
X030852Y036222D02*
X031848Y036222D01*
X031905Y036320D02*
X030795Y036320D01*
X030706Y036616D02*
X030294Y036616D01*
X030393Y036714D02*
X030607Y036714D01*
X030558Y036813D02*
X030442Y036813D01*
X030480Y036911D02*
X030520Y036911D01*
X030520Y037010D02*
X030480Y037010D01*
X030475Y037108D02*
X030525Y037108D01*
X030566Y037207D02*
X030434Y037207D01*
X030374Y037305D02*
X030626Y037305D01*
X031374Y037305D02*
X031626Y037305D01*
X031566Y037207D02*
X031434Y037207D01*
X031475Y037108D02*
X031525Y037108D01*
X031520Y037010D02*
X031480Y037010D01*
X031480Y036911D02*
X031520Y036911D01*
X031558Y036813D02*
X031442Y036813D01*
X031393Y036714D02*
X031607Y036714D01*
X031706Y036616D02*
X031294Y036616D01*
X030331Y036320D02*
X030007Y036320D01*
X030064Y036222D02*
X030273Y036222D01*
X030256Y036123D02*
X030082Y036123D01*
X030082Y036025D02*
X030256Y036025D01*
X030256Y035926D02*
X030082Y035926D01*
X030082Y035828D02*
X030256Y035828D01*
X030256Y035729D02*
X030082Y035729D01*
X030068Y035631D02*
X030269Y035631D01*
X030321Y035532D02*
X030017Y035532D01*
X030008Y035434D02*
X030388Y035434D01*
X030392Y035463D02*
X030392Y035463D01*
X030420Y035335D02*
X029980Y035335D01*
X029620Y035335D02*
X029180Y035335D01*
X029208Y035434D02*
X029584Y035434D01*
X029534Y035532D02*
X029229Y035532D01*
X029281Y035631D02*
X029482Y035631D01*
X029468Y035729D02*
X029295Y035729D01*
X029295Y035828D02*
X029468Y035828D01*
X029468Y035926D02*
X029295Y035926D01*
X029295Y036025D02*
X029468Y036025D01*
X029468Y036123D02*
X029295Y036123D01*
X029277Y036222D02*
X029486Y036222D01*
X029543Y036320D02*
X029220Y036320D01*
X029294Y036616D02*
X029706Y036616D01*
X029607Y036714D02*
X029393Y036714D01*
X029442Y036813D02*
X029558Y036813D01*
X029520Y036911D02*
X029480Y036911D01*
X029480Y037010D02*
X029520Y037010D01*
X029525Y037108D02*
X029475Y037108D01*
X029434Y037207D02*
X029566Y037207D01*
X029626Y037305D02*
X029374Y037305D01*
X028626Y037305D02*
X028374Y037305D01*
X028434Y037207D02*
X028566Y037207D01*
X028525Y037108D02*
X028475Y037108D01*
X028480Y037010D02*
X028520Y037010D01*
X028520Y036911D02*
X028480Y036911D01*
X028442Y036813D02*
X028558Y036813D01*
X028607Y036714D02*
X028393Y036714D01*
X028294Y036616D02*
X028706Y036616D01*
X028756Y036320D02*
X028432Y036320D01*
X028490Y036222D02*
X028699Y036222D01*
X028681Y036123D02*
X028507Y036123D01*
X028507Y036025D02*
X028681Y036025D01*
X028681Y035926D02*
X028507Y035926D01*
X028507Y035828D02*
X028681Y035828D01*
X028681Y035729D02*
X028507Y035729D01*
X028494Y035631D02*
X028695Y035631D01*
X028746Y035532D02*
X028442Y035532D01*
X028417Y035460D02*
X028417Y035460D01*
X028408Y035434D02*
X028789Y035434D01*
X028820Y035335D02*
X028380Y035335D01*
X028020Y035335D02*
X027630Y035335D01*
X027658Y035434D02*
X027992Y035434D01*
X027959Y035532D02*
X027658Y035532D01*
X027706Y035631D02*
X027907Y035631D01*
X027894Y035729D02*
X027720Y035729D01*
X027720Y035828D02*
X027894Y035828D01*
X027894Y035926D02*
X027720Y035926D01*
X027720Y036025D02*
X027894Y036025D01*
X027894Y036123D02*
X027720Y036123D01*
X027702Y036222D02*
X027911Y036222D01*
X027968Y036320D02*
X027645Y036320D01*
X027706Y036616D02*
X027294Y036616D01*
X027393Y036714D02*
X027607Y036714D01*
X027558Y036813D02*
X027442Y036813D01*
X027480Y036911D02*
X027520Y036911D01*
X027520Y037010D02*
X027480Y037010D01*
X027475Y037108D02*
X027525Y037108D01*
X027566Y037207D02*
X027434Y037207D01*
X027374Y037305D02*
X027626Y037305D01*
X026626Y037305D02*
X026374Y037305D01*
X026434Y037207D02*
X026566Y037207D01*
X026525Y037108D02*
X026475Y037108D01*
X026480Y037010D02*
X026520Y037010D01*
X026520Y036911D02*
X026480Y036911D01*
X026442Y036813D02*
X026558Y036813D01*
X026607Y036714D02*
X026393Y036714D01*
X026294Y036616D02*
X026706Y036616D01*
X026858Y036320D02*
X027181Y036320D01*
X027124Y036222D02*
X026915Y036222D01*
X026932Y036123D02*
X027106Y036123D01*
X027106Y036025D02*
X026932Y036025D01*
X026932Y035926D02*
X027106Y035926D01*
X027106Y035828D02*
X026932Y035828D01*
X026932Y035729D02*
X027106Y035729D01*
X027120Y035631D02*
X026919Y035631D01*
X026867Y035532D02*
X027171Y035532D01*
X027242Y035463D02*
X027242Y035463D01*
X027238Y035434D02*
X026858Y035434D01*
X026864Y035490D02*
X026864Y035490D01*
X026830Y035335D02*
X027270Y035335D01*
X027235Y035414D02*
X027235Y035414D01*
X026470Y035335D02*
X026030Y035335D01*
X026058Y035434D02*
X026434Y035434D01*
X026433Y035430D02*
X026433Y035430D01*
X026433Y035430D01*
X026384Y035532D02*
X026080Y035532D01*
X026066Y035475D02*
X026066Y035475D01*
X026066Y035475D01*
X026131Y035631D02*
X026332Y035631D01*
X026319Y035729D02*
X026145Y035729D01*
X026145Y035828D02*
X026319Y035828D01*
X026319Y035926D02*
X026145Y035926D01*
X026145Y036025D02*
X026319Y036025D01*
X026319Y036123D02*
X026145Y036123D01*
X026127Y036222D02*
X026336Y036222D01*
X026394Y036320D02*
X026070Y036320D01*
X025606Y036320D02*
X025283Y036320D01*
X025340Y036222D02*
X025549Y036222D01*
X025531Y036123D02*
X025358Y036123D01*
X025358Y036025D02*
X025531Y036025D01*
X025531Y035926D02*
X025358Y035926D01*
X025358Y035828D02*
X025531Y035828D01*
X025531Y035729D02*
X025358Y035729D01*
X025344Y035631D02*
X025545Y035631D01*
X025597Y035532D02*
X025292Y035532D01*
X025209Y035434D02*
X025639Y035434D01*
X025670Y035335D02*
X025180Y035335D01*
X025211Y035397D02*
X025211Y035397D01*
X024820Y035335D02*
X024508Y035335D01*
X024517Y035390D02*
X024517Y035390D01*
X024517Y035390D01*
X024509Y035434D02*
X024792Y035434D01*
X024792Y035532D02*
X024505Y035532D01*
X024557Y035631D02*
X024758Y035631D01*
X024744Y035729D02*
X024570Y035729D01*
X024570Y035828D02*
X024744Y035828D01*
X024744Y035926D02*
X024570Y035926D01*
X024570Y036025D02*
X024744Y036025D01*
X024744Y036123D02*
X024570Y036123D01*
X024553Y036222D02*
X024761Y036222D01*
X024819Y036320D02*
X024495Y036320D01*
X024294Y036616D02*
X024706Y036616D01*
X024607Y036714D02*
X024393Y036714D01*
X024442Y036813D02*
X024558Y036813D01*
X024520Y036911D02*
X024480Y036911D01*
X024480Y037010D02*
X024520Y037010D01*
X024525Y037108D02*
X024475Y037108D01*
X024434Y037207D02*
X024566Y037207D01*
X024626Y037305D02*
X024374Y037305D01*
X025374Y037305D02*
X025626Y037305D01*
X025566Y037207D02*
X025434Y037207D01*
X025475Y037108D02*
X025525Y037108D01*
X025520Y037010D02*
X025480Y037010D01*
X025480Y036911D02*
X025520Y036911D01*
X025558Y036813D02*
X025442Y036813D01*
X025393Y036714D02*
X025607Y036714D01*
X025706Y036616D02*
X025294Y036616D01*
X024031Y036320D02*
X022910Y036320D01*
X022910Y036222D02*
X023974Y036222D01*
X023957Y036123D02*
X022910Y036123D01*
X022910Y036025D02*
X023957Y036025D01*
X023957Y035926D02*
X022910Y035926D01*
X022910Y035828D02*
X023957Y035828D01*
X023957Y035729D02*
X022910Y035729D01*
X022910Y035631D02*
X023970Y035631D01*
X024022Y035532D02*
X022910Y035532D01*
X022910Y035434D02*
X024091Y035434D01*
X024092Y035335D02*
X022910Y035335D01*
X022910Y035237D02*
X023004Y035237D01*
X023555Y035237D02*
X024136Y035237D01*
X024150Y035138D02*
X023709Y035138D01*
X023905Y035040D02*
X024150Y035040D01*
X024150Y034941D02*
X024004Y034941D01*
X024008Y034843D02*
X024150Y034843D01*
X024150Y034744D02*
X023989Y034744D01*
X023890Y034646D02*
X024150Y034646D01*
X024143Y034547D02*
X022910Y034547D01*
X022910Y034449D02*
X023002Y034449D01*
X022984Y034646D02*
X022910Y034646D01*
X022290Y034646D02*
X022260Y034646D01*
X022246Y034660D02*
X022290Y034616D01*
X022290Y036612D01*
X022337Y036726D01*
X022520Y036908D01*
X022520Y037095D01*
X022593Y037272D01*
X022673Y037352D01*
X021327Y037352D01*
X021407Y037272D01*
X021480Y037095D01*
X021480Y036905D01*
X021407Y036728D01*
X021272Y036593D01*
X021150Y036543D01*
X021150Y036056D01*
X021160Y036046D01*
X021160Y035754D01*
X021106Y035700D01*
X021160Y035646D01*
X021160Y035500D01*
X021594Y035500D01*
X021604Y035510D01*
X021896Y035510D01*
X021900Y035506D01*
X021904Y035510D01*
X022196Y035510D01*
X022260Y035446D01*
X022260Y035154D01*
X022250Y035144D01*
X022250Y034988D01*
X022162Y034900D01*
X022000Y034900D01*
X022000Y034660D01*
X022246Y034660D01*
X022290Y034744D02*
X022000Y034744D01*
X022000Y034843D02*
X022290Y034843D01*
X022290Y034941D02*
X022203Y034941D01*
X022250Y035040D02*
X022290Y035040D01*
X022290Y035138D02*
X022250Y035138D01*
X022260Y035237D02*
X022290Y035237D01*
X022290Y035335D02*
X022260Y035335D01*
X022260Y035434D02*
X022290Y035434D01*
X022290Y035532D02*
X021160Y035532D01*
X021160Y035631D02*
X022290Y035631D01*
X022290Y035729D02*
X021135Y035729D01*
X021160Y035828D02*
X022290Y035828D01*
X022290Y035926D02*
X021160Y035926D01*
X021160Y036025D02*
X022290Y036025D01*
X022290Y036123D02*
X021150Y036123D01*
X021150Y036222D02*
X022290Y036222D01*
X022290Y036320D02*
X021150Y036320D01*
X021150Y036419D02*
X022290Y036419D01*
X022290Y036517D02*
X021150Y036517D01*
X021294Y036616D02*
X022292Y036616D01*
X022332Y036714D02*
X021393Y036714D01*
X021442Y036813D02*
X022424Y036813D01*
X022520Y036911D02*
X021480Y036911D01*
X021480Y037010D02*
X022520Y037010D01*
X022525Y037108D02*
X021475Y037108D01*
X021434Y037207D02*
X022566Y037207D01*
X022626Y037305D02*
X021374Y037305D01*
X020673Y037352D02*
X020593Y037272D01*
X020520Y037095D01*
X020520Y036905D01*
X020593Y036728D01*
X020728Y036593D01*
X020850Y036543D01*
X020850Y036110D01*
X020804Y036110D01*
X020740Y036046D01*
X020740Y035835D01*
X020714Y035808D01*
X020701Y035799D01*
X020676Y035781D01*
X020675Y035769D01*
X020642Y035736D01*
X020642Y035600D01*
X019888Y035600D01*
X019740Y035452D01*
X019778Y035545D01*
X019778Y035855D01*
X019660Y036141D01*
X019441Y036360D01*
X019155Y036478D01*
X018845Y036478D01*
X018559Y036360D01*
X018340Y036141D01*
X018222Y035855D01*
X018222Y035545D01*
X018340Y035259D01*
X018549Y035050D01*
X017932Y035050D01*
X017826Y035156D01*
X017826Y035581D01*
X017762Y035646D01*
X017159Y035646D01*
X017094Y035581D01*
X017094Y035173D01*
X017023Y035244D01*
X016911Y035291D01*
X016789Y035291D01*
X016677Y035244D01*
X016648Y035216D01*
X016648Y036520D01*
X017416Y036520D01*
X017480Y036584D01*
X017480Y037352D01*
X017673Y037352D01*
X017593Y037272D01*
X017520Y037095D01*
X017520Y036905D01*
X017593Y036728D01*
X017728Y036593D01*
X017905Y036520D01*
X018095Y036520D01*
X018272Y036593D01*
X018407Y036728D01*
X018480Y036905D01*
X018480Y037095D01*
X018407Y037272D01*
X018327Y037352D01*
X018673Y037352D01*
X018593Y037272D01*
X018520Y037095D01*
X018520Y036905D01*
X018593Y036728D01*
X018728Y036593D01*
X018905Y036520D01*
X019095Y036520D01*
X019272Y036593D01*
X019407Y036728D01*
X019480Y036905D01*
X019480Y037095D01*
X019407Y037272D01*
X019327Y037352D01*
X019673Y037352D01*
X019593Y037272D01*
X019520Y037095D01*
X019520Y036905D01*
X019593Y036728D01*
X019728Y036593D01*
X019905Y036520D01*
X020095Y036520D01*
X020272Y036593D01*
X020407Y036728D01*
X020480Y036905D01*
X020480Y037095D01*
X020407Y037272D01*
X020327Y037352D01*
X020673Y037352D01*
X020626Y037305D02*
X020374Y037305D01*
X020434Y037207D02*
X020566Y037207D01*
X020525Y037108D02*
X020475Y037108D01*
X020480Y037010D02*
X020520Y037010D01*
X020520Y036911D02*
X020480Y036911D01*
X020442Y036813D02*
X020558Y036813D01*
X020607Y036714D02*
X020393Y036714D01*
X020294Y036616D02*
X020706Y036616D01*
X020850Y036517D02*
X016648Y036517D01*
X016648Y036419D02*
X018701Y036419D01*
X018706Y036616D02*
X018294Y036616D01*
X018393Y036714D02*
X018607Y036714D01*
X018558Y036813D02*
X018442Y036813D01*
X018480Y036911D02*
X018520Y036911D01*
X018520Y037010D02*
X018480Y037010D01*
X018475Y037108D02*
X018525Y037108D01*
X018566Y037207D02*
X018434Y037207D01*
X018374Y037305D02*
X018626Y037305D01*
X019374Y037305D02*
X019626Y037305D01*
X019566Y037207D02*
X019434Y037207D01*
X019475Y037108D02*
X019525Y037108D01*
X019520Y037010D02*
X019480Y037010D01*
X019480Y036911D02*
X019520Y036911D01*
X019558Y036813D02*
X019442Y036813D01*
X019393Y036714D02*
X019607Y036714D01*
X019706Y036616D02*
X019294Y036616D01*
X019299Y036419D02*
X020850Y036419D01*
X020850Y036320D02*
X019481Y036320D01*
X019579Y036222D02*
X020850Y036222D01*
X020850Y036123D02*
X019667Y036123D01*
X019708Y036025D02*
X020740Y036025D01*
X020740Y035926D02*
X019749Y035926D01*
X019778Y035828D02*
X020733Y035828D01*
X020676Y035781D02*
X020676Y035781D01*
X020676Y035781D01*
X020642Y035729D02*
X019778Y035729D01*
X019778Y035631D02*
X020642Y035631D01*
X020950Y035500D02*
X020950Y035450D01*
X020200Y035150D02*
X020200Y034845D01*
X020075Y034845D01*
X020010Y034780D01*
X020010Y034532D01*
X020014Y034528D01*
X020010Y034524D01*
X020010Y034276D01*
X020075Y034211D01*
X020477Y034211D01*
X020578Y034110D01*
X019985Y034110D01*
X019886Y034208D01*
X019714Y034208D01*
X019592Y034086D01*
X019592Y033936D01*
X019492Y033836D01*
X019492Y033664D01*
X019592Y033564D01*
X019592Y033436D01*
X019492Y033336D01*
X019492Y033164D01*
X019614Y033042D01*
X019786Y033042D01*
X019887Y033142D01*
X020040Y033142D01*
X020049Y033133D01*
X020416Y033133D01*
X020480Y033197D01*
X020480Y033320D01*
X020603Y033320D01*
X020606Y033324D01*
X020610Y033320D01*
X020800Y033320D01*
X020803Y033324D01*
X020807Y033320D01*
X020996Y033320D01*
X021000Y033324D01*
X021004Y033320D01*
X021193Y033320D01*
X021197Y033324D01*
X021200Y033320D01*
X021390Y033320D01*
X021394Y033324D01*
X021397Y033320D01*
X021520Y033320D01*
X021520Y033197D01*
X021524Y033194D01*
X021520Y033190D01*
X021520Y033000D01*
X021524Y032997D01*
X021520Y032993D01*
X021520Y032804D01*
X021524Y032800D01*
X021520Y032796D01*
X021520Y032607D01*
X021524Y032603D01*
X021520Y032600D01*
X021520Y032410D01*
X021524Y032406D01*
X021520Y032403D01*
X021520Y032280D01*
X021397Y032280D01*
X021394Y032276D01*
X021390Y032280D01*
X021200Y032280D01*
X021197Y032276D01*
X021193Y032280D01*
X021004Y032280D01*
X021000Y032276D01*
X020996Y032280D01*
X020807Y032280D01*
X020803Y032276D01*
X020800Y032280D01*
X020681Y032280D01*
X020652Y032292D01*
X020548Y032292D01*
X020519Y032280D01*
X020480Y032280D01*
X020480Y032403D01*
X020476Y032406D01*
X020480Y032410D01*
X020480Y032600D01*
X020476Y032603D01*
X020480Y032607D01*
X020480Y032796D01*
X020476Y032800D01*
X020480Y032804D01*
X020480Y032993D01*
X020416Y033058D01*
X020299Y033058D01*
X020299Y033058D01*
X020297Y033060D01*
X020186Y033060D01*
X020177Y033067D01*
X020156Y033064D01*
X020102Y033086D01*
X020102Y033086D01*
X020079Y033096D01*
X020046Y033128D01*
X020002Y033128D01*
X019980Y033138D01*
X019957Y033128D01*
X019874Y033128D01*
X019752Y033006D01*
X019752Y032834D01*
X019795Y032790D01*
X019752Y032746D01*
X019752Y032660D01*
X019554Y032660D01*
X019510Y032616D01*
X019510Y032771D01*
X019446Y032835D01*
X018853Y032835D01*
X018826Y032863D01*
X018712Y032910D01*
X017555Y032910D01*
X017555Y032975D01*
X017519Y033011D01*
X017558Y033050D01*
X017894Y033050D01*
X017929Y033015D01*
X018371Y033015D01*
X018435Y033079D01*
X018435Y033421D01*
X018371Y033485D01*
X017929Y033485D01*
X017865Y033421D01*
X017865Y033350D01*
X017558Y033350D01*
X017500Y033408D01*
X017133Y033408D01*
X017069Y033344D01*
X017069Y033056D01*
X017086Y033039D01*
X016651Y033039D01*
X016648Y033036D01*
X016648Y034084D01*
X016677Y034056D01*
X016789Y034009D01*
X016911Y034009D01*
X017023Y034056D01*
X017094Y034127D01*
X017094Y033719D01*
X017159Y033654D01*
X017762Y033654D01*
X017826Y033719D01*
X017826Y034262D01*
X017762Y034327D01*
X017600Y034327D01*
X017600Y034338D01*
X017862Y034600D01*
X018642Y034600D01*
X018642Y034598D01*
X018612Y034537D01*
X018604Y034533D01*
X018594Y034507D01*
X018088Y034000D01*
X018073Y033985D01*
X017929Y033985D01*
X017865Y033921D01*
X017865Y033579D01*
X017929Y033515D01*
X018371Y033515D01*
X018435Y033579D01*
X018435Y033921D01*
X018434Y033922D01*
X018807Y034294D01*
X018833Y034304D01*
X018837Y034312D01*
X018898Y034342D01*
X018936Y034342D01*
X018972Y034378D01*
X018996Y034389D01*
X018996Y034389D01*
X018996Y034389D01*
X019003Y034408D01*
X019058Y034464D01*
X019058Y034600D01*
X019512Y034600D01*
X020062Y035150D01*
X020200Y035150D01*
X020200Y035138D02*
X020050Y035138D01*
X019952Y035040D02*
X020200Y035040D01*
X020200Y034941D02*
X019853Y034941D01*
X019755Y034843D02*
X020072Y034843D01*
X020010Y034744D02*
X019656Y034744D01*
X019558Y034646D02*
X020010Y034646D01*
X020010Y034547D02*
X019058Y034547D01*
X019043Y034449D02*
X020010Y034449D01*
X020010Y034350D02*
X018945Y034350D01*
X018764Y034252D02*
X020034Y034252D01*
X019942Y034153D02*
X020535Y034153D01*
X021918Y033756D02*
X022102Y033940D01*
X022246Y033940D01*
X022290Y033984D01*
X022290Y033110D01*
X022054Y033110D01*
X022016Y033071D01*
X022016Y033190D01*
X022012Y033194D01*
X022016Y033197D01*
X022016Y033387D01*
X021951Y033451D01*
X021918Y033451D01*
X021918Y033756D01*
X021921Y033759D02*
X022290Y033759D01*
X022290Y033661D02*
X021918Y033661D01*
X021918Y033562D02*
X022290Y033562D01*
X022290Y033464D02*
X021918Y033464D01*
X022016Y033365D02*
X022290Y033365D01*
X022290Y033267D02*
X022016Y033267D01*
X022016Y033168D02*
X022290Y033168D01*
X022910Y033168D02*
X032335Y033168D01*
X032237Y033070D02*
X022910Y033070D01*
X022910Y032971D02*
X032138Y032971D01*
X032040Y032873D02*
X023559Y032873D01*
X023711Y032774D02*
X031941Y032774D01*
X031843Y032676D02*
X023766Y032676D01*
X023783Y032577D02*
X031744Y032577D01*
X031646Y032479D02*
X023768Y032479D01*
X022999Y032873D02*
X022910Y032873D01*
X022910Y033267D02*
X032434Y033267D01*
X032532Y033365D02*
X022910Y033365D01*
X022910Y033464D02*
X032631Y033464D01*
X032729Y033562D02*
X022910Y033562D01*
X022910Y033661D02*
X032828Y033661D01*
X032926Y033759D02*
X022910Y033759D01*
X022910Y033858D02*
X022986Y033858D01*
X023573Y033858D02*
X033025Y033858D01*
X033123Y033956D02*
X023851Y033956D01*
X023740Y033933D02*
X023740Y033933D01*
X023740Y033933D01*
X023949Y034055D02*
X033222Y034055D01*
X033320Y034153D02*
X024398Y034153D01*
X024496Y034252D02*
X033419Y034252D01*
X033517Y034350D02*
X024512Y034350D01*
X024496Y034449D02*
X033616Y034449D01*
X033714Y034547D02*
X024457Y034547D01*
X024450Y034646D02*
X033813Y034646D01*
X033911Y034744D02*
X024450Y034744D01*
X024450Y034843D02*
X034010Y034843D01*
X034108Y034941D02*
X024450Y034941D01*
X024450Y035040D02*
X034207Y035040D01*
X034305Y035138D02*
X024450Y035138D01*
X024464Y035237D02*
X034404Y035237D01*
X032706Y036616D02*
X032294Y036616D01*
X032393Y036714D02*
X032607Y036714D01*
X032558Y036813D02*
X032442Y036813D01*
X032480Y036911D02*
X032520Y036911D01*
X032520Y037010D02*
X032480Y037010D01*
X032475Y037108D02*
X032525Y037108D01*
X032566Y037207D02*
X032434Y037207D01*
X032374Y037305D02*
X032626Y037305D01*
X039702Y032085D02*
X042273Y032085D01*
X042273Y031986D02*
X039853Y031986D01*
X039908Y031888D02*
X042273Y031888D01*
X042273Y031789D02*
X039925Y031789D01*
X039910Y031691D02*
X042273Y031691D01*
X042273Y031592D02*
X039856Y031592D01*
X039710Y031494D02*
X042273Y031494D01*
X039557Y029031D02*
X038150Y029031D01*
X037850Y029031D02*
X033307Y029031D01*
X033209Y029130D02*
X037850Y029130D01*
X037850Y029228D02*
X033110Y029228D01*
X033012Y029327D02*
X037850Y029327D01*
X037850Y029425D02*
X032913Y029425D01*
X032815Y029524D02*
X037850Y029524D01*
X037850Y029622D02*
X032716Y029622D01*
X032234Y029228D02*
X022910Y029228D01*
X022910Y029130D02*
X032332Y029130D01*
X032431Y029031D02*
X022910Y029031D01*
X022910Y028933D02*
X022992Y028933D01*
X022910Y029327D02*
X032135Y029327D01*
X032037Y029425D02*
X022910Y029425D01*
X022912Y029524D02*
X031938Y029524D01*
X031840Y029622D02*
X023010Y029622D01*
X023109Y029721D02*
X031741Y029721D01*
X031643Y029819D02*
X023207Y029819D01*
X023565Y029918D02*
X031544Y029918D01*
X031446Y030016D02*
X023713Y030016D01*
X023767Y030115D02*
X031347Y030115D01*
X031249Y030213D02*
X023783Y030213D01*
X023767Y030312D02*
X031150Y030312D01*
X031052Y030410D02*
X023713Y030410D01*
X023589Y030509D02*
X030953Y030509D01*
X030855Y030607D02*
X023589Y030607D01*
X023589Y030706D02*
X030756Y030706D01*
X030658Y030804D02*
X023714Y030804D01*
X023768Y030903D02*
X030559Y030903D01*
X030461Y031001D02*
X023783Y031001D01*
X023767Y031100D02*
X030362Y031100D01*
X030264Y031198D02*
X023712Y031198D01*
X023562Y031297D02*
X030165Y031297D01*
X030067Y031395D02*
X022267Y031395D01*
X022338Y031494D02*
X022656Y031494D01*
X022510Y031592D02*
X022358Y031592D01*
X022354Y031691D02*
X022411Y031691D01*
X022366Y031297D02*
X022996Y031297D01*
X022846Y031198D02*
X022464Y031198D01*
X022237Y031001D02*
X021996Y031001D01*
X022008Y031014D02*
X022008Y031103D01*
X022010Y031104D01*
X022010Y031228D01*
X022388Y030850D01*
X022512Y030850D01*
X022812Y030850D01*
X022822Y030826D01*
X022908Y030740D01*
X022969Y030715D01*
X022969Y030498D01*
X022908Y030473D01*
X022822Y030386D01*
X022775Y030274D01*
X022775Y030264D01*
X022337Y029826D01*
X022290Y029712D01*
X022290Y027628D01*
X022222Y027560D01*
X022060Y027560D01*
X022060Y027846D01*
X021996Y027910D01*
X021786Y027910D01*
X021756Y027940D01*
X021470Y028226D01*
X021470Y029414D01*
X021666Y029610D01*
X022026Y029610D01*
X022120Y029704D01*
X022120Y030116D01*
X022104Y030133D01*
X022104Y030138D01*
X022039Y030203D01*
X022034Y030203D01*
X022026Y030210D01*
X021894Y030210D01*
X021886Y030203D01*
X021161Y030203D01*
X021158Y030200D01*
X021134Y030200D01*
X021040Y030106D01*
X021040Y029646D01*
X020933Y029510D01*
X020904Y029510D01*
X020840Y029446D01*
X020840Y029416D01*
X020830Y029406D01*
X020830Y029276D01*
X020584Y029030D01*
X020350Y029030D01*
X020350Y029070D01*
X020572Y029070D01*
X020660Y029158D01*
X020660Y030159D01*
X020844Y030310D01*
X021148Y030310D01*
X021161Y030297D01*
X022039Y030297D01*
X022104Y030362D01*
X022104Y030392D01*
X022110Y030398D01*
X022110Y030762D01*
X022104Y030768D01*
X022104Y030788D01*
X022039Y030852D01*
X021161Y030852D01*
X021159Y030850D01*
X020997Y030850D01*
X021137Y030990D01*
X021196Y030990D01*
X021260Y031054D01*
X021260Y031678D01*
X021338Y031600D01*
X021590Y031600D01*
X021590Y031404D01*
X021594Y031400D01*
X021590Y031396D01*
X021590Y031104D01*
X021592Y031103D01*
X021592Y031014D01*
X021714Y030892D01*
X021886Y030892D01*
X022008Y031014D01*
X022008Y031100D02*
X022138Y031100D01*
X022040Y031198D02*
X022010Y031198D01*
X021897Y030903D02*
X022335Y030903D01*
X022087Y030804D02*
X022844Y030804D01*
X022969Y030706D02*
X022110Y030706D01*
X022110Y030607D02*
X022969Y030607D01*
X022969Y030509D02*
X022110Y030509D01*
X022110Y030410D02*
X022846Y030410D01*
X022791Y030312D02*
X022053Y030312D01*
X022120Y030115D02*
X022626Y030115D01*
X022725Y030213D02*
X020726Y030213D01*
X020660Y030115D02*
X021048Y030115D01*
X021040Y030016D02*
X020660Y030016D01*
X020660Y029918D02*
X021040Y029918D01*
X021040Y029819D02*
X020660Y029819D01*
X020660Y029721D02*
X021040Y029721D01*
X021021Y029622D02*
X020660Y029622D01*
X020600Y029650D02*
X020595Y029645D01*
X020595Y029443D01*
X020730Y029338D01*
X020700Y029300D01*
X020655Y029283D01*
X020595Y029443D01*
X020595Y029326D01*
X020650Y029380D01*
X020650Y029400D01*
X020660Y029425D02*
X020840Y029425D01*
X020830Y029327D02*
X020660Y029327D01*
X020654Y029315D02*
X020700Y029300D01*
X020731Y029263D01*
X020600Y029154D01*
X020654Y029315D01*
X020700Y029300D02*
X020600Y029200D01*
X020600Y029154D01*
X020600Y029150D01*
X020548Y029098D01*
X020437Y028968D01*
X020400Y029000D01*
X020353Y028987D01*
X020398Y028823D01*
X020446Y028986D01*
X020400Y029000D01*
X020385Y029046D01*
X020548Y029098D01*
X020450Y029000D01*
X020400Y029000D01*
X020398Y028998D01*
X020398Y028823D01*
X020398Y028774D01*
X020558Y028780D02*
X020558Y028708D01*
X020558Y028707D01*
X020558Y028591D01*
X020508Y028542D01*
X020510Y028540D01*
X020510Y027900D01*
X020894Y027900D01*
X020904Y027910D01*
X021196Y027910D01*
X021206Y027900D01*
X021290Y027900D01*
X021290Y027010D01*
X021540Y027010D01*
X021530Y027120D01*
X021530Y027410D01*
X021560Y027440D01*
X021610Y027500D01*
X021690Y027580D01*
X021690Y027780D01*
X021310Y028160D01*
X021310Y029480D01*
X021600Y029770D01*
X021960Y029770D01*
X021960Y030050D01*
X021950Y030040D01*
X021200Y030040D01*
X021200Y029590D01*
X021010Y029350D01*
X021000Y029350D01*
X020990Y029340D01*
X020990Y029210D01*
X020960Y029180D01*
X020960Y029163D01*
X020687Y028890D01*
X020670Y028890D01*
X020650Y028870D01*
X020579Y028870D01*
X020565Y028821D01*
X020570Y028801D01*
X020558Y028780D01*
X020558Y028736D02*
X021310Y028736D01*
X021310Y028834D02*
X020568Y028834D01*
X020729Y028933D02*
X021310Y028933D01*
X021310Y029031D02*
X020828Y029031D01*
X020926Y029130D02*
X021310Y029130D01*
X021250Y029200D02*
X021250Y029300D01*
X021300Y029350D01*
X021300Y029450D01*
X021310Y029425D02*
X021069Y029425D01*
X021147Y029524D02*
X021354Y029524D01*
X021452Y029622D02*
X021200Y029622D01*
X021200Y029721D02*
X021551Y029721D01*
X021580Y029524D02*
X022290Y029524D01*
X022290Y029622D02*
X022038Y029622D01*
X022120Y029721D02*
X022294Y029721D01*
X022334Y029819D02*
X022120Y029819D01*
X022120Y029918D02*
X022429Y029918D01*
X022528Y030016D02*
X022120Y030016D01*
X021960Y030016D02*
X021200Y030016D01*
X021200Y029918D02*
X021960Y029918D01*
X021960Y029819D02*
X021200Y029819D01*
X020943Y029524D02*
X020660Y029524D01*
X020660Y029228D02*
X020782Y029228D01*
X020683Y029130D02*
X020632Y029130D01*
X020585Y029031D02*
X020350Y029031D01*
X020202Y028774D02*
X020202Y028398D01*
X020050Y028150D02*
X020050Y028106D01*
X020040Y028096D01*
X020040Y027804D01*
X020104Y027740D01*
X020396Y027740D01*
X020400Y027744D01*
X020404Y027740D01*
X021130Y027740D01*
X021130Y026944D01*
X021143Y026930D01*
X021187Y026824D01*
X021462Y026550D01*
X021391Y026550D01*
X021188Y026466D01*
X021034Y026312D01*
X020950Y026109D01*
X020950Y025891D01*
X021034Y025688D01*
X021188Y025534D01*
X021391Y025450D01*
X021609Y025450D01*
X021812Y025534D01*
X021966Y025688D01*
X022050Y025891D01*
X022050Y026109D01*
X021966Y026312D01*
X021838Y026440D01*
X022122Y026440D01*
X023082Y025480D01*
X022905Y025480D01*
X022728Y025407D01*
X022593Y025272D01*
X022520Y025095D01*
X022520Y024905D01*
X022593Y024728D01*
X022673Y024648D01*
X022327Y024648D01*
X022407Y024728D01*
X022480Y024905D01*
X022480Y025095D01*
X022407Y025272D01*
X022272Y025407D01*
X022095Y025480D01*
X021905Y025480D01*
X021728Y025407D01*
X021593Y025272D01*
X021520Y025095D01*
X021520Y024905D01*
X021593Y024728D01*
X021673Y024648D01*
X021327Y024648D01*
X021407Y024728D01*
X021480Y024905D01*
X021480Y025095D01*
X021407Y025272D01*
X021272Y025407D01*
X021095Y025480D01*
X020905Y025480D01*
X020728Y025407D01*
X020593Y025272D01*
X020520Y025095D01*
X020520Y024905D01*
X020593Y024728D01*
X020673Y024648D01*
X020327Y024648D01*
X020407Y024728D01*
X020480Y024905D01*
X020480Y025095D01*
X020407Y025272D01*
X020272Y025407D01*
X020095Y025480D01*
X019905Y025480D01*
X019728Y025407D01*
X019593Y025272D01*
X019520Y025095D01*
X019520Y024905D01*
X019593Y024728D01*
X019673Y024648D01*
X019327Y024648D01*
X019407Y024728D01*
X019480Y024905D01*
X019480Y025095D01*
X019407Y025272D01*
X019272Y025407D01*
X019095Y025480D01*
X018905Y025480D01*
X018728Y025407D01*
X018593Y025272D01*
X018520Y025095D01*
X018520Y024905D01*
X018593Y024728D01*
X018673Y024648D01*
X018327Y024648D01*
X018407Y024728D01*
X018480Y024905D01*
X018480Y025095D01*
X018407Y025272D01*
X018272Y025407D01*
X018095Y025480D01*
X017905Y025480D01*
X017728Y025407D01*
X017593Y025272D01*
X017520Y025095D01*
X017520Y024905D01*
X017593Y024728D01*
X017673Y024648D01*
X016648Y024648D01*
X016648Y025665D01*
X018092Y025665D01*
X018155Y025728D01*
X018197Y025686D01*
X018790Y025686D01*
X018790Y025658D01*
X018834Y025614D01*
X018877Y025570D01*
X018878Y025570D01*
X018940Y025570D01*
X019002Y025570D01*
X020212Y025570D01*
X020300Y025658D01*
X020300Y026398D01*
X020302Y026458D01*
X020300Y026460D01*
X020300Y026462D01*
X020258Y026505D01*
X019450Y027360D01*
X019450Y028594D01*
X019454Y028590D01*
X019746Y028590D01*
X019806Y028650D01*
X019846Y028650D01*
X019846Y028591D01*
X019887Y028550D01*
X019767Y028550D01*
X019727Y028510D01*
X019654Y028510D01*
X019590Y028446D01*
X019590Y028154D01*
X019654Y028090D01*
X019946Y028090D01*
X020006Y028150D01*
X020050Y028150D01*
X020050Y028145D02*
X020000Y028145D01*
X020040Y028046D02*
X019450Y028046D01*
X019450Y027948D02*
X020040Y027948D01*
X020040Y027849D02*
X019450Y027849D01*
X019450Y027751D02*
X020094Y027751D01*
X020510Y027948D02*
X021522Y027948D01*
X021424Y028046D02*
X020510Y028046D01*
X020510Y028145D02*
X021325Y028145D01*
X021310Y028243D02*
X020510Y028243D01*
X020510Y028342D02*
X021310Y028342D01*
X021310Y028440D02*
X020510Y028440D01*
X020510Y028539D02*
X021310Y028539D01*
X021310Y028637D02*
X020558Y028637D01*
X019846Y028637D02*
X019793Y028637D01*
X019756Y028539D02*
X019450Y028539D01*
X019450Y028440D02*
X019590Y028440D01*
X019590Y028342D02*
X019450Y028342D01*
X019450Y028243D02*
X019590Y028243D01*
X019600Y028145D02*
X019450Y028145D01*
X019450Y027652D02*
X021130Y027652D01*
X021130Y027554D02*
X019450Y027554D01*
X019450Y027455D02*
X021130Y027455D01*
X021130Y027357D02*
X019453Y027357D01*
X019546Y027258D02*
X021130Y027258D01*
X021130Y027160D02*
X019639Y027160D01*
X019732Y027061D02*
X021130Y027061D01*
X021130Y026963D02*
X019825Y026963D01*
X019918Y026864D02*
X021171Y026864D01*
X021246Y026766D02*
X020011Y026766D01*
X020104Y026667D02*
X021345Y026667D01*
X021443Y026569D02*
X020197Y026569D01*
X020292Y026470D02*
X021197Y026470D01*
X021094Y026372D02*
X020300Y026372D01*
X020300Y026273D02*
X021018Y026273D01*
X020977Y026175D02*
X020300Y026175D01*
X020300Y026076D02*
X020950Y026076D01*
X020950Y025978D02*
X020300Y025978D01*
X020300Y025879D02*
X020955Y025879D01*
X020996Y025781D02*
X020300Y025781D01*
X020300Y025682D02*
X021040Y025682D01*
X021139Y025584D02*
X020226Y025584D01*
X020292Y025387D02*
X020708Y025387D01*
X020609Y025288D02*
X020391Y025288D01*
X020441Y025190D02*
X020559Y025190D01*
X020520Y025091D02*
X020480Y025091D01*
X020480Y024993D02*
X020520Y024993D01*
X020524Y024894D02*
X020476Y024894D01*
X020435Y024796D02*
X020565Y024796D01*
X020624Y024697D02*
X020376Y024697D01*
X019624Y024697D02*
X019376Y024697D01*
X019435Y024796D02*
X019565Y024796D01*
X019524Y024894D02*
X019476Y024894D01*
X019480Y024993D02*
X019520Y024993D01*
X019520Y025091D02*
X019480Y025091D01*
X019441Y025190D02*
X019559Y025190D01*
X019609Y025288D02*
X019391Y025288D01*
X019292Y025387D02*
X019708Y025387D01*
X019002Y025570D02*
X019002Y025570D01*
X018878Y025570D02*
X018878Y025570D01*
X018864Y025584D02*
X016648Y025584D01*
X016648Y025485D02*
X021306Y025485D01*
X021292Y025387D02*
X021708Y025387D01*
X021694Y025485D02*
X023077Y025485D01*
X022978Y025584D02*
X021861Y025584D01*
X021960Y025682D02*
X022880Y025682D01*
X022781Y025781D02*
X022004Y025781D01*
X022045Y025879D02*
X022683Y025879D01*
X022584Y025978D02*
X022050Y025978D01*
X022050Y026076D02*
X022486Y026076D01*
X022387Y026175D02*
X022023Y026175D01*
X021982Y026273D02*
X022289Y026273D01*
X022190Y026372D02*
X021906Y026372D01*
X021535Y027061D02*
X021290Y027061D01*
X021290Y027160D02*
X021530Y027160D01*
X021530Y027258D02*
X021290Y027258D01*
X021290Y027357D02*
X021530Y027357D01*
X021573Y027455D02*
X021290Y027455D01*
X021290Y027554D02*
X021664Y027554D01*
X021690Y027652D02*
X021290Y027652D01*
X021290Y027751D02*
X021690Y027751D01*
X021621Y027849D02*
X021290Y027849D01*
X021552Y028145D02*
X022290Y028145D01*
X022290Y028243D02*
X021470Y028243D01*
X021470Y028342D02*
X022290Y028342D01*
X022290Y028440D02*
X021470Y028440D01*
X021470Y028539D02*
X022290Y028539D01*
X022290Y028637D02*
X021470Y028637D01*
X021470Y028736D02*
X022290Y028736D01*
X022290Y028834D02*
X021470Y028834D01*
X021470Y028933D02*
X022290Y028933D01*
X022290Y029031D02*
X021470Y029031D01*
X021470Y029130D02*
X022290Y029130D01*
X022290Y029228D02*
X021470Y029228D01*
X021470Y029327D02*
X022290Y029327D01*
X022290Y029425D02*
X021481Y029425D01*
X021310Y029327D02*
X020990Y029327D01*
X020990Y029228D02*
X021310Y029228D01*
X021250Y029200D02*
X021150Y029100D01*
X020202Y029326D02*
X020202Y029798D01*
X020050Y029950D01*
X020223Y030670D02*
X019477Y030670D01*
X019310Y030837D01*
X019187Y030960D01*
X019004Y030960D01*
X018990Y030974D01*
X018862Y030974D01*
X018906Y031018D01*
X019266Y031018D01*
X019514Y031266D01*
X019777Y031266D01*
X019841Y031330D01*
X019841Y031658D01*
X019815Y031684D01*
X019819Y031705D01*
X019808Y031720D01*
X019808Y031756D01*
X019715Y031850D01*
X019737Y031872D01*
X019785Y031908D01*
X019787Y031922D01*
X019808Y031944D01*
X019808Y032116D01*
X019686Y032238D01*
X019514Y032238D01*
X019510Y032235D01*
X019510Y032284D01*
X019554Y032240D01*
X019796Y032240D01*
X019800Y032226D01*
X019800Y032138D01*
X019833Y032105D01*
X019842Y032072D01*
X019842Y032014D01*
X019863Y031992D01*
X019865Y031986D01*
X019808Y031986D01*
X019865Y031986D02*
X019876Y031979D01*
X019964Y031892D01*
X020136Y031892D01*
X020150Y031905D01*
X020150Y031760D01*
X020054Y031760D01*
X019990Y031696D01*
X019990Y031404D01*
X020054Y031340D01*
X020346Y031340D01*
X020400Y031394D01*
X020454Y031340D01*
X020746Y031340D01*
X020810Y031404D01*
X020810Y031482D01*
X020840Y031452D01*
X020840Y031287D01*
X020223Y030670D01*
X020259Y030706D02*
X019441Y030706D01*
X019343Y030804D02*
X020357Y030804D01*
X020456Y030903D02*
X019244Y030903D01*
X019348Y031100D02*
X020653Y031100D01*
X020751Y031198D02*
X019446Y031198D01*
X019808Y031297D02*
X020840Y031297D01*
X020840Y031395D02*
X020801Y031395D01*
X020600Y031250D02*
X020200Y031250D01*
X019999Y031395D02*
X019841Y031395D01*
X019841Y031494D02*
X019990Y031494D01*
X019990Y031592D02*
X019841Y031592D01*
X019816Y031691D02*
X019990Y031691D01*
X019819Y031705D02*
X019819Y031705D01*
X019819Y031705D01*
X019776Y031789D02*
X020150Y031789D01*
X020150Y031888D02*
X019758Y031888D01*
X019785Y031908D02*
X019785Y031908D01*
X019785Y031908D01*
X019808Y032085D02*
X019838Y032085D01*
X019800Y032183D02*
X019742Y032183D01*
X019513Y032282D02*
X019510Y032282D01*
X019510Y032676D02*
X019752Y032676D01*
X019779Y032774D02*
X019507Y032774D01*
X019752Y032873D02*
X018802Y032873D01*
X018425Y033070D02*
X019586Y033070D01*
X019492Y033168D02*
X018435Y033168D01*
X018435Y033267D02*
X019492Y033267D01*
X019520Y033365D02*
X018435Y033365D01*
X018392Y033464D02*
X019592Y033464D01*
X019592Y033562D02*
X018418Y033562D01*
X018435Y033661D02*
X019495Y033661D01*
X019492Y033759D02*
X018435Y033759D01*
X018435Y033858D02*
X019513Y033858D01*
X019592Y033956D02*
X018468Y033956D01*
X018567Y034055D02*
X019592Y034055D01*
X019658Y034153D02*
X018665Y034153D01*
X018438Y034350D02*
X017612Y034350D01*
X017711Y034449D02*
X018536Y034449D01*
X018617Y034547D02*
X017809Y034547D01*
X017826Y034252D02*
X018339Y034252D01*
X018241Y034153D02*
X017826Y034153D01*
X017826Y034055D02*
X018142Y034055D01*
X017900Y033956D02*
X017826Y033956D01*
X017826Y033858D02*
X017865Y033858D01*
X017865Y033759D02*
X017826Y033759D01*
X017865Y033661D02*
X017768Y033661D01*
X017882Y033562D02*
X016648Y033562D01*
X016648Y033464D02*
X017908Y033464D01*
X017865Y033365D02*
X017543Y033365D01*
X017555Y032971D02*
X019752Y032971D01*
X019814Y033070D02*
X019815Y033070D01*
X019980Y033138D02*
X019980Y033138D01*
X019979Y032965D02*
X019960Y032920D01*
X019967Y032872D01*
X020136Y032898D01*
X019979Y032965D01*
X019960Y032920D02*
X019982Y032898D01*
X020136Y032898D01*
X020232Y032898D01*
X020231Y032900D01*
X020142Y033070D02*
X021520Y033070D01*
X021520Y033168D02*
X020451Y033168D01*
X020457Y033147D02*
X020470Y033100D01*
X020483Y033053D01*
X020647Y033100D01*
X020483Y033147D01*
X020470Y033100D01*
X020457Y033053D01*
X020293Y033100D01*
X020457Y033147D01*
X020470Y033100D02*
X020647Y033100D01*
X020700Y033100D01*
X020875Y032925D01*
X021024Y032842D01*
X021000Y032800D01*
X020958Y032776D01*
X020875Y032925D01*
X021000Y032800D01*
X020480Y032774D02*
X021520Y032774D01*
X021520Y032676D02*
X020480Y032676D01*
X020480Y032577D02*
X021520Y032577D01*
X021520Y032479D02*
X020480Y032479D01*
X020480Y032380D02*
X021520Y032380D01*
X021520Y032282D02*
X020678Y032282D01*
X020522Y032282D02*
X020480Y032282D01*
X020508Y032032D02*
X020600Y032032D01*
X020705Y032032D01*
X021260Y031592D02*
X021590Y031592D01*
X021590Y031494D02*
X021260Y031494D01*
X021260Y031395D02*
X021590Y031395D01*
X021590Y031297D02*
X021260Y031297D01*
X021260Y031198D02*
X021590Y031198D01*
X021592Y031100D02*
X021260Y031100D01*
X021207Y031001D02*
X021604Y031001D01*
X021703Y030903D02*
X021049Y030903D01*
X020554Y031001D02*
X018889Y031001D01*
X018636Y030518D02*
X018550Y030432D01*
X018550Y030088D01*
X018638Y030000D01*
X018644Y030000D01*
X018654Y029990D01*
X019248Y029990D01*
X019294Y029944D01*
X019300Y029929D01*
X019300Y029812D01*
X019288Y029800D01*
X019200Y029712D01*
X019200Y029457D01*
X019010Y029243D01*
X019010Y029246D01*
X018946Y029310D01*
X018654Y029310D01*
X018590Y029246D01*
X018590Y029205D01*
X018586Y029208D01*
X018508Y029208D01*
X018490Y029217D01*
X018490Y029217D01*
X018490Y029217D01*
X018465Y029208D01*
X018414Y029208D01*
X018386Y029181D01*
X018323Y029159D01*
X018314Y029162D01*
X018289Y029150D01*
X017555Y029150D01*
X017555Y029864D01*
X017490Y029929D01*
X017381Y029929D01*
X017381Y030044D01*
X017490Y030044D01*
X017555Y030108D01*
X017555Y030947D01*
X017502Y031000D01*
X017555Y031053D01*
X017555Y031370D01*
X017561Y031367D01*
X017588Y031340D01*
X017608Y031340D01*
X017628Y031320D01*
X017655Y031320D01*
X017678Y031308D01*
X017714Y031320D01*
X017748Y031320D01*
X017748Y031132D01*
X017752Y031128D01*
X017748Y031124D01*
X017748Y030876D01*
X017752Y030872D01*
X017748Y030868D01*
X017748Y030620D01*
X017813Y030555D01*
X018428Y030555D01*
X018463Y030520D01*
X018621Y030520D01*
X018623Y030518D01*
X018636Y030518D01*
X018626Y030509D02*
X017555Y030509D01*
X017555Y030607D02*
X017761Y030607D01*
X017748Y030706D02*
X017555Y030706D01*
X017555Y030804D02*
X017748Y030804D01*
X017748Y030903D02*
X017555Y030903D01*
X017503Y031001D02*
X017748Y031001D01*
X017748Y031100D02*
X017555Y031100D01*
X017555Y031198D02*
X017748Y031198D01*
X017748Y031297D02*
X017555Y031297D01*
X017866Y030469D02*
X017772Y030430D01*
X017700Y030358D01*
X017661Y030264D01*
X017661Y030162D01*
X017700Y030067D01*
X017772Y029995D01*
X017866Y029956D01*
X017968Y029956D01*
X018063Y029995D01*
X018135Y030067D01*
X018174Y030162D01*
X018174Y030264D01*
X018135Y030358D01*
X018063Y030430D01*
X017968Y030469D01*
X017866Y030469D01*
X017752Y030410D02*
X017555Y030410D01*
X017555Y030312D02*
X017680Y030312D01*
X017661Y030213D02*
X017555Y030213D01*
X017555Y030115D02*
X017680Y030115D01*
X017751Y030016D02*
X017381Y030016D01*
X017502Y029918D02*
X019300Y029918D01*
X019300Y029819D02*
X017555Y029819D01*
X017555Y029721D02*
X019208Y029721D01*
X019200Y029622D02*
X017555Y029622D01*
X017555Y029524D02*
X019200Y029524D01*
X019172Y029425D02*
X017555Y029425D01*
X017555Y029327D02*
X019084Y029327D01*
X018590Y029228D02*
X017555Y029228D01*
X017612Y028850D02*
X017564Y028802D01*
X017564Y028656D01*
X017500Y028592D01*
X017133Y028592D01*
X017069Y028656D01*
X017069Y028944D01*
X017086Y028961D01*
X016651Y028961D01*
X016648Y028964D01*
X016648Y028585D01*
X017590Y028585D01*
X017590Y028762D01*
X017627Y028850D01*
X017612Y028850D01*
X017620Y028834D02*
X017596Y028834D01*
X017590Y028736D02*
X017564Y028736D01*
X017545Y028637D02*
X017590Y028637D01*
X017088Y028637D02*
X016648Y028637D01*
X016648Y028736D02*
X017069Y028736D01*
X017069Y028834D02*
X016648Y028834D01*
X016648Y028933D02*
X017069Y028933D01*
X018156Y028029D02*
X018176Y028037D01*
X018328Y028190D01*
X018798Y028190D01*
X018793Y026614D01*
X018197Y026614D01*
X018133Y026550D01*
X018133Y026544D01*
X018092Y026585D01*
X016648Y026585D01*
X016648Y027665D01*
X018092Y027665D01*
X018156Y027729D01*
X018156Y028029D01*
X018184Y028046D02*
X018797Y028046D01*
X018797Y027948D02*
X018156Y027948D01*
X018156Y027849D02*
X018797Y027849D01*
X018796Y027751D02*
X018156Y027751D01*
X018283Y028145D02*
X018798Y028145D01*
X018796Y027652D02*
X016648Y027652D01*
X016648Y027554D02*
X018796Y027554D01*
X018795Y027455D02*
X016648Y027455D01*
X016648Y027357D02*
X018795Y027357D01*
X018795Y027258D02*
X016648Y027258D01*
X016648Y027160D02*
X018794Y027160D01*
X018794Y027061D02*
X016648Y027061D01*
X016648Y026963D02*
X018794Y026963D01*
X018794Y026864D02*
X016648Y026864D01*
X016648Y026766D02*
X018793Y026766D01*
X018793Y026667D02*
X016648Y026667D01*
X018108Y026569D02*
X018152Y026569D01*
X018109Y025682D02*
X018790Y025682D01*
X018790Y025658D02*
X018790Y025658D01*
X018790Y025658D01*
X018708Y025387D02*
X018292Y025387D01*
X018391Y025288D02*
X018609Y025288D01*
X018559Y025190D02*
X018441Y025190D01*
X018480Y025091D02*
X018520Y025091D01*
X018520Y024993D02*
X018480Y024993D01*
X018476Y024894D02*
X018524Y024894D01*
X018565Y024796D02*
X018435Y024796D01*
X018376Y024697D02*
X018624Y024697D01*
X017624Y024697D02*
X016648Y024697D01*
X016648Y024796D02*
X017565Y024796D01*
X017524Y024894D02*
X016648Y024894D01*
X016648Y024993D02*
X017520Y024993D01*
X017520Y025091D02*
X016648Y025091D01*
X016648Y025190D02*
X017559Y025190D01*
X017609Y025288D02*
X016648Y025288D01*
X016648Y025387D02*
X017708Y025387D01*
X021391Y025288D02*
X021609Y025288D01*
X021559Y025190D02*
X021441Y025190D01*
X021480Y025091D02*
X021520Y025091D01*
X021520Y024993D02*
X021480Y024993D01*
X021476Y024894D02*
X021524Y024894D01*
X021565Y024796D02*
X021435Y024796D01*
X021376Y024697D02*
X021624Y024697D01*
X022376Y024697D02*
X022624Y024697D01*
X022565Y024796D02*
X022435Y024796D01*
X022476Y024894D02*
X022524Y024894D01*
X022520Y024993D02*
X022480Y024993D01*
X022480Y025091D02*
X022520Y025091D01*
X022559Y025190D02*
X022441Y025190D01*
X022391Y025288D02*
X022609Y025288D01*
X022708Y025387D02*
X022292Y025387D01*
X023362Y026076D02*
X023957Y026076D01*
X023957Y025978D02*
X023461Y025978D01*
X023559Y025879D02*
X023957Y025879D01*
X023973Y025781D02*
X023658Y025781D01*
X023756Y025682D02*
X024029Y025682D01*
X024182Y025584D02*
X023855Y025584D01*
X023953Y025485D02*
X026259Y025485D01*
X026357Y025584D02*
X025920Y025584D01*
X025899Y025575D02*
X026012Y025622D01*
X026098Y025708D01*
X026145Y025821D01*
X026145Y026337D01*
X026098Y026449D01*
X026012Y026536D01*
X026008Y026537D01*
X026008Y026594D01*
X026012Y026654D01*
X026008Y026658D01*
X026008Y026686D01*
X025886Y026808D01*
X025714Y026808D01*
X025592Y026686D01*
X025592Y026581D01*
X025585Y026559D01*
X025592Y026547D01*
X025592Y026514D01*
X025617Y026488D01*
X025578Y026449D01*
X025531Y026337D01*
X025531Y025821D01*
X025578Y025708D01*
X025664Y025622D01*
X025777Y025575D01*
X025899Y025575D01*
X025757Y025584D02*
X025132Y025584D01*
X025112Y025575D02*
X025225Y025622D01*
X025311Y025708D01*
X025358Y025821D01*
X025358Y026337D01*
X025311Y026449D01*
X025253Y026508D01*
X025258Y026514D01*
X025258Y026571D01*
X025269Y026608D01*
X025258Y026626D01*
X025258Y026686D01*
X025136Y026808D01*
X024964Y026808D01*
X024842Y026686D01*
X024842Y026624D01*
X024831Y026606D01*
X024842Y026570D01*
X024842Y026514D01*
X024848Y026507D01*
X024791Y026449D01*
X024744Y026337D01*
X024744Y025821D01*
X024791Y025708D01*
X024877Y025622D01*
X024990Y025575D01*
X025112Y025575D01*
X024969Y025584D02*
X024345Y025584D01*
X024497Y025682D02*
X024817Y025682D01*
X024761Y025781D02*
X024554Y025781D01*
X024570Y025879D02*
X024744Y025879D01*
X024744Y025978D02*
X024570Y025978D01*
X024570Y026076D02*
X024744Y026076D01*
X024744Y026175D02*
X024570Y026175D01*
X024570Y026273D02*
X024744Y026273D01*
X024758Y026372D02*
X024556Y026372D01*
X024503Y026470D02*
X024811Y026470D01*
X024842Y026569D02*
X024458Y026569D01*
X024458Y026667D02*
X024842Y026667D01*
X024921Y026766D02*
X024379Y026766D01*
X024297Y026590D02*
X024250Y026600D01*
X024205Y026583D01*
X024263Y026423D01*
X024297Y026590D01*
X024263Y026587D02*
X024250Y026600D01*
X024263Y026587D02*
X024263Y026423D01*
X024263Y026079D01*
X023957Y026175D02*
X023264Y026175D01*
X023165Y026273D02*
X023957Y026273D01*
X023971Y026372D02*
X023067Y026372D01*
X022968Y026470D02*
X024024Y026470D01*
X024040Y026569D02*
X022870Y026569D01*
X022771Y026667D02*
X023721Y026667D01*
X023622Y026766D02*
X023560Y026766D01*
X023990Y026583D02*
X023990Y026583D01*
X023990Y026583D01*
X024208Y026864D02*
X034598Y026864D01*
X034696Y026766D02*
X026729Y026766D01*
X026808Y026667D02*
X034795Y026667D01*
X034739Y026470D02*
X035835Y026470D01*
X035782Y026372D02*
X034792Y026372D01*
X034806Y026273D02*
X035768Y026273D01*
X035768Y026175D02*
X034806Y026175D01*
X034806Y026076D02*
X035768Y026076D01*
X035768Y025978D02*
X034806Y025978D01*
X034806Y025879D02*
X035768Y025879D01*
X035784Y025781D02*
X034790Y025781D01*
X034734Y025682D02*
X035840Y025682D01*
X035924Y025584D02*
X034660Y025584D01*
X034660Y025485D02*
X035873Y025485D01*
X035708Y025387D02*
X035292Y025387D01*
X035391Y025288D02*
X035609Y025288D01*
X035559Y025190D02*
X035441Y025190D01*
X035480Y025091D02*
X035520Y025091D01*
X035520Y024993D02*
X035480Y024993D01*
X035476Y024894D02*
X035524Y024894D01*
X035565Y024796D02*
X035435Y024796D01*
X035376Y024697D02*
X035624Y024697D01*
X036376Y024697D02*
X036624Y024697D01*
X036565Y024796D02*
X036435Y024796D01*
X036476Y024894D02*
X036524Y024894D01*
X036520Y024993D02*
X036480Y024993D01*
X036480Y025091D02*
X036520Y025091D01*
X036559Y025190D02*
X036441Y025190D01*
X036391Y025288D02*
X036609Y025288D01*
X036708Y025387D02*
X036292Y025387D01*
X036224Y025485D02*
X036753Y025485D01*
X036712Y025584D02*
X036224Y025584D01*
X036308Y025682D02*
X036628Y025682D01*
X036572Y025781D02*
X036365Y025781D01*
X036381Y025879D02*
X036555Y025879D01*
X036555Y025978D02*
X036381Y025978D01*
X036381Y026076D02*
X036555Y026076D01*
X036555Y026175D02*
X036381Y026175D01*
X036381Y026273D02*
X036555Y026273D01*
X036569Y026372D02*
X036367Y026372D01*
X036314Y026470D02*
X036622Y026470D01*
X036767Y026569D02*
X036169Y026569D01*
X035980Y026569D02*
X034594Y026569D01*
X034405Y026569D02*
X033807Y026569D01*
X033952Y026470D02*
X034260Y026470D01*
X034207Y026372D02*
X034005Y026372D01*
X034019Y026273D02*
X034193Y026273D01*
X034193Y026175D02*
X034019Y026175D01*
X034019Y026076D02*
X034193Y026076D01*
X034193Y025978D02*
X034019Y025978D01*
X034019Y025879D02*
X034193Y025879D01*
X034209Y025781D02*
X034002Y025781D01*
X033946Y025682D02*
X034266Y025682D01*
X034340Y025584D02*
X033810Y025584D01*
X033711Y025485D02*
X034259Y025485D01*
X034500Y025500D02*
X034000Y025000D01*
X034441Y025190D02*
X034559Y025190D01*
X034520Y025091D02*
X034480Y025091D01*
X034480Y024993D02*
X034520Y024993D01*
X034524Y024894D02*
X034476Y024894D01*
X034435Y024796D02*
X034565Y024796D01*
X034624Y024697D02*
X034376Y024697D01*
X034514Y025288D02*
X034609Y025288D01*
X034613Y025387D02*
X034708Y025387D01*
X034500Y025500D02*
X034500Y026079D01*
X033712Y026079D02*
X033712Y025712D01*
X033000Y025000D01*
X033441Y025190D02*
X033559Y025190D01*
X033520Y025091D02*
X033480Y025091D01*
X033480Y024993D02*
X033520Y024993D01*
X033524Y024894D02*
X033476Y024894D01*
X033435Y024796D02*
X033565Y024796D01*
X033624Y024697D02*
X033376Y024697D01*
X033514Y025288D02*
X033609Y025288D01*
X033613Y025387D02*
X033708Y025387D01*
X033456Y025682D02*
X033159Y025682D01*
X033215Y025781D02*
X033422Y025781D01*
X033405Y025879D02*
X033232Y025879D01*
X033232Y025978D02*
X033405Y025978D01*
X033405Y026076D02*
X033232Y026076D01*
X033232Y026175D02*
X033405Y026175D01*
X033405Y026273D02*
X033232Y026273D01*
X033217Y026372D02*
X033420Y026372D01*
X033473Y026470D02*
X033164Y026470D01*
X033019Y026569D02*
X033618Y026569D01*
X032830Y026569D02*
X032232Y026569D01*
X032377Y026470D02*
X032685Y026470D01*
X032632Y026372D02*
X032430Y026372D01*
X032444Y026273D02*
X032618Y026273D01*
X032618Y026175D02*
X032444Y026175D01*
X032444Y026076D02*
X032618Y026076D01*
X032618Y025978D02*
X032444Y025978D01*
X032444Y025879D02*
X032618Y025879D01*
X032554Y025781D02*
X032428Y025781D01*
X032456Y025682D02*
X032371Y025682D01*
X032357Y025584D02*
X032219Y025584D01*
X032259Y025485D02*
X031711Y025485D01*
X031708Y025387D02*
X031613Y025387D01*
X031609Y025288D02*
X031514Y025288D01*
X031559Y025190D02*
X031441Y025190D01*
X031480Y025091D02*
X031520Y025091D01*
X031520Y024993D02*
X031480Y024993D01*
X031476Y024894D02*
X031524Y024894D01*
X031565Y024796D02*
X031435Y024796D01*
X031376Y024697D02*
X031624Y024697D01*
X032000Y025000D02*
X032925Y025925D01*
X032925Y026079D01*
X033006Y025584D02*
X033357Y025584D01*
X033259Y025485D02*
X032711Y025485D01*
X032708Y025387D02*
X032613Y025387D01*
X032609Y025288D02*
X032514Y025288D01*
X032559Y025190D02*
X032441Y025190D01*
X032480Y025091D02*
X032520Y025091D01*
X032520Y024993D02*
X032480Y024993D01*
X032476Y024894D02*
X032524Y024894D01*
X032565Y024796D02*
X032435Y024796D01*
X032376Y024697D02*
X032624Y024697D01*
X032810Y025584D02*
X032843Y025584D01*
X032056Y025584D02*
X031810Y025584D01*
X031751Y025978D02*
X031657Y025978D01*
X031657Y026076D02*
X031831Y026076D01*
X031831Y026175D02*
X031657Y026175D01*
X031657Y026273D02*
X031831Y026273D01*
X031845Y026372D02*
X031642Y026372D01*
X031590Y026470D02*
X031898Y026470D01*
X032043Y026569D02*
X031445Y026569D01*
X031255Y026569D02*
X030657Y026569D01*
X030802Y026470D02*
X031110Y026470D01*
X031058Y026372D02*
X030855Y026372D01*
X030869Y026273D02*
X031043Y026273D01*
X031043Y026175D02*
X030869Y026175D01*
X030869Y026076D02*
X031000Y026076D01*
X030901Y025978D02*
X030869Y025978D01*
X030563Y026079D02*
X030429Y026079D01*
X029900Y025550D01*
X029550Y025550D01*
X029000Y025000D01*
X028600Y025550D02*
X028050Y025000D01*
X028000Y025000D01*
X027800Y025550D02*
X027250Y025000D01*
X027000Y025000D01*
X026550Y025550D02*
X026000Y025000D01*
X025559Y025190D02*
X024441Y025190D01*
X024480Y025091D02*
X025520Y025091D01*
X025520Y024993D02*
X024480Y024993D01*
X024476Y024894D02*
X025524Y024894D01*
X025565Y024796D02*
X024435Y024796D01*
X024376Y024697D02*
X025624Y024697D01*
X025609Y025288D02*
X024391Y025288D01*
X024292Y025387D02*
X025708Y025387D01*
X025604Y025682D02*
X025285Y025682D01*
X025341Y025781D02*
X025548Y025781D01*
X025531Y025879D02*
X025358Y025879D01*
X025358Y025978D02*
X025531Y025978D01*
X025531Y026076D02*
X025358Y026076D01*
X025358Y026175D02*
X025531Y026175D01*
X025531Y026273D02*
X025358Y026273D01*
X025343Y026372D02*
X025546Y026372D01*
X025599Y026470D02*
X025290Y026470D01*
X025258Y026569D02*
X025588Y026569D01*
X025592Y026667D02*
X025258Y026667D01*
X025269Y026608D02*
X025269Y026608D01*
X025269Y026608D01*
X025097Y026587D02*
X025050Y026600D01*
X025003Y026587D01*
X025051Y026423D01*
X025097Y026587D01*
X025051Y026599D02*
X025050Y026600D01*
X025051Y026599D02*
X025051Y026423D01*
X025051Y026079D01*
X025179Y026766D02*
X025671Y026766D01*
X025757Y026577D02*
X025800Y026600D01*
X025848Y026597D01*
X025838Y026427D01*
X025757Y026577D01*
X025800Y026600D02*
X025838Y026562D01*
X025838Y026427D01*
X025838Y026079D01*
X026145Y026076D02*
X026319Y026076D01*
X026319Y025978D02*
X026145Y025978D01*
X026145Y025879D02*
X026319Y025879D01*
X026335Y025781D02*
X026128Y025781D01*
X026072Y025682D02*
X026392Y025682D01*
X026550Y025550D02*
X027550Y025550D01*
X028079Y026079D01*
X028200Y026079D01*
X028507Y026076D02*
X028650Y026076D01*
X028681Y026175D02*
X028507Y026175D01*
X028507Y026273D02*
X028681Y026273D01*
X028695Y026372D02*
X028493Y026372D01*
X028440Y026470D02*
X028748Y026470D01*
X028893Y026569D02*
X028295Y026569D01*
X028106Y026569D02*
X026808Y026569D01*
X026865Y026470D02*
X027961Y026470D01*
X027908Y026372D02*
X026918Y026372D01*
X026932Y026273D02*
X027894Y026273D01*
X027894Y026175D02*
X026932Y026175D01*
X026932Y026076D02*
X027850Y026076D01*
X027751Y025978D02*
X026932Y025978D01*
X026932Y025879D02*
X027653Y025879D01*
X027554Y025781D02*
X026916Y025781D01*
X026626Y026079D02*
X026626Y026425D01*
X026556Y026580D01*
X026600Y026600D01*
X026648Y026594D01*
X026626Y026425D01*
X026626Y026574D01*
X026600Y026600D01*
X026471Y026766D02*
X025929Y026766D01*
X026008Y026667D02*
X026392Y026667D01*
X026383Y026575D02*
X026383Y026575D01*
X026386Y026569D02*
X026008Y026569D01*
X026012Y026654D02*
X026012Y026654D01*
X026012Y026654D01*
X026078Y026470D02*
X026386Y026470D01*
X026333Y026372D02*
X026131Y026372D01*
X026145Y026273D02*
X026319Y026273D01*
X026319Y026175D02*
X026145Y026175D01*
X027800Y025550D02*
X028350Y025550D01*
X028879Y026079D01*
X028988Y026079D01*
X029295Y026076D02*
X029400Y026076D01*
X029468Y026175D02*
X029295Y026175D01*
X029295Y026273D02*
X029468Y026273D01*
X029483Y026372D02*
X029280Y026372D01*
X029227Y026470D02*
X029536Y026470D01*
X029681Y026569D02*
X029082Y026569D01*
X029295Y025978D02*
X029301Y025978D01*
X029629Y026079D02*
X029100Y025550D01*
X028600Y025550D01*
X028551Y025978D02*
X028507Y025978D01*
X029629Y026079D02*
X029775Y026079D01*
X030082Y026076D02*
X030200Y026076D01*
X030256Y026175D02*
X030082Y026175D01*
X030082Y026273D02*
X030256Y026273D01*
X030270Y026372D02*
X030068Y026372D01*
X030015Y026470D02*
X030323Y026470D01*
X030468Y026569D02*
X029870Y026569D01*
X030082Y025978D02*
X030101Y025978D01*
X030550Y025550D02*
X030000Y025000D01*
X030550Y025550D02*
X030700Y025550D01*
X031229Y026079D01*
X031350Y026079D01*
X032079Y026079D02*
X031000Y025000D01*
X032079Y026079D02*
X032137Y026079D01*
X033711Y027751D02*
X023767Y027751D01*
X023783Y027849D02*
X033613Y027849D01*
X033514Y027948D02*
X023768Y027948D01*
X023714Y028046D02*
X033416Y028046D01*
X033317Y028145D02*
X023568Y028145D01*
X023563Y028342D02*
X033120Y028342D01*
X033022Y028440D02*
X023712Y028440D01*
X023883Y028539D02*
X032923Y028539D01*
X032825Y028637D02*
X023908Y028637D01*
X023908Y028736D02*
X032726Y028736D01*
X032628Y028834D02*
X023811Y028834D01*
X023566Y028933D02*
X032529Y028933D01*
X033406Y028933D02*
X037850Y028933D01*
X037850Y028834D02*
X033504Y028834D01*
X033603Y028736D02*
X037850Y028736D01*
X037850Y028637D02*
X033701Y028637D01*
X033800Y028539D02*
X037850Y028539D01*
X037850Y028440D02*
X033898Y028440D01*
X033997Y028342D02*
X037850Y028342D01*
X037850Y028243D02*
X034095Y028243D01*
X034194Y028145D02*
X037850Y028145D01*
X037850Y028046D02*
X034292Y028046D01*
X034391Y027948D02*
X037850Y027948D01*
X037939Y027849D02*
X034489Y027849D01*
X034588Y027751D02*
X038037Y027751D01*
X038136Y027652D02*
X034686Y027652D01*
X034785Y027554D02*
X038234Y027554D01*
X038333Y027455D02*
X034883Y027455D01*
X034982Y027357D02*
X038431Y027357D01*
X038530Y027258D02*
X035080Y027258D01*
X035179Y027160D02*
X038628Y027160D01*
X038727Y027061D02*
X035269Y027061D01*
X035310Y026963D02*
X038825Y026963D01*
X038989Y026864D02*
X035310Y026864D01*
X035280Y026766D02*
X039140Y026766D01*
X038985Y027258D02*
X038954Y027258D01*
X038856Y027357D02*
X039131Y027357D01*
X039701Y026766D02*
X041665Y026766D01*
X041665Y026667D02*
X035205Y026667D01*
X034499Y026963D02*
X024132Y026963D01*
X024058Y027061D02*
X034401Y027061D01*
X034302Y027160D02*
X024035Y027160D01*
X024064Y027091D02*
X024064Y027091D01*
X024064Y027091D01*
X024000Y027258D02*
X034204Y027258D01*
X034105Y027357D02*
X023917Y027357D01*
X023807Y027455D02*
X034007Y027455D01*
X033908Y027554D02*
X023709Y027554D01*
X023712Y027652D02*
X033810Y027652D01*
X033219Y028243D02*
X022910Y028243D01*
X022910Y028145D02*
X022991Y028145D01*
X022996Y028342D02*
X022910Y028342D01*
X022290Y028046D02*
X021650Y028046D01*
X021749Y027948D02*
X022290Y027948D01*
X022290Y027849D02*
X022057Y027849D01*
X022060Y027751D02*
X022290Y027751D01*
X022290Y027652D02*
X022060Y027652D01*
X022599Y027061D02*
X022775Y027061D01*
X022790Y027160D02*
X022698Y027160D01*
X022796Y027258D02*
X022843Y027258D01*
X022876Y027357D02*
X022989Y027357D01*
X022910Y027455D02*
X023383Y027455D01*
X022997Y027554D02*
X022910Y027554D01*
X022792Y026963D02*
X022476Y026963D01*
X022574Y026864D02*
X022847Y026864D01*
X022999Y026766D02*
X022673Y026766D01*
X018622Y030016D02*
X018084Y030016D01*
X018155Y030115D02*
X018550Y030115D01*
X018550Y030213D02*
X018174Y030213D01*
X018154Y030312D02*
X018550Y030312D01*
X018550Y030410D02*
X018083Y030410D01*
X019984Y032618D02*
X019960Y032660D01*
X019962Y032708D01*
X020132Y032702D01*
X019984Y032618D01*
X019960Y032660D02*
X020002Y032702D01*
X020132Y032702D01*
X020232Y032702D01*
X020480Y032873D02*
X021520Y032873D01*
X021520Y032971D02*
X020480Y032971D01*
X020470Y033100D02*
X020293Y033100D01*
X020237Y033100D01*
X020232Y033095D01*
X020480Y033267D02*
X021520Y033267D01*
X022020Y033858D02*
X022290Y033858D01*
X022290Y033956D02*
X022262Y033956D01*
X023556Y034449D02*
X024104Y034449D01*
X024083Y034360D02*
X024083Y034360D01*
X024088Y034350D02*
X023845Y034350D01*
X023943Y034252D02*
X024104Y034252D01*
X024202Y034153D02*
X023958Y034153D01*
X023710Y034646D02*
X023574Y034646D01*
X023914Y035035D02*
X023914Y035035D01*
X023914Y035035D01*
X023706Y036616D02*
X023294Y036616D01*
X019820Y035532D02*
X019773Y035532D01*
X018461Y035138D02*
X017844Y035138D01*
X017826Y035237D02*
X018363Y035237D01*
X018309Y035335D02*
X017826Y035335D01*
X017826Y035434D02*
X018268Y035434D01*
X018227Y035532D02*
X017826Y035532D01*
X017777Y035631D02*
X018222Y035631D01*
X018222Y035729D02*
X016648Y035729D01*
X016648Y035631D02*
X017143Y035631D01*
X017094Y035532D02*
X016648Y035532D01*
X016648Y035434D02*
X017094Y035434D01*
X017094Y035335D02*
X016648Y035335D01*
X016648Y035237D02*
X016669Y035237D01*
X017031Y035237D02*
X017094Y035237D01*
X017156Y034976D02*
X017159Y034973D01*
X017584Y034973D01*
X017698Y034860D01*
X017388Y034550D01*
X017300Y034462D01*
X017300Y034327D01*
X017159Y034327D01*
X017156Y034324D01*
X017156Y034376D01*
X017109Y034489D01*
X017023Y034575D01*
X016911Y034621D01*
X016789Y034621D01*
X016677Y034575D01*
X016648Y034546D01*
X016648Y034754D01*
X016677Y034725D01*
X016789Y034679D01*
X016911Y034679D01*
X017023Y034725D01*
X017109Y034811D01*
X017156Y034924D01*
X017156Y034976D01*
X017156Y034941D02*
X017617Y034941D01*
X017680Y034843D02*
X017122Y034843D01*
X017042Y034744D02*
X017582Y034744D01*
X017483Y034646D02*
X016648Y034646D01*
X016648Y034744D02*
X016658Y034744D01*
X016648Y034547D02*
X016649Y034547D01*
X017051Y034547D02*
X017385Y034547D01*
X017300Y034449D02*
X017126Y034449D01*
X017156Y034350D02*
X017300Y034350D01*
X017094Y034055D02*
X017020Y034055D01*
X017094Y033956D02*
X016648Y033956D01*
X016648Y033858D02*
X017094Y033858D01*
X017094Y033759D02*
X016648Y033759D01*
X016648Y033661D02*
X017152Y033661D01*
X017090Y033365D02*
X016648Y033365D01*
X016648Y033267D02*
X017069Y033267D01*
X017069Y033168D02*
X016648Y033168D01*
X016648Y033070D02*
X017069Y033070D01*
X016680Y034055D02*
X016648Y034055D01*
X016648Y035828D02*
X018222Y035828D01*
X018251Y035926D02*
X016648Y035926D01*
X016648Y036025D02*
X018292Y036025D01*
X018333Y036123D02*
X016648Y036123D01*
X016648Y036222D02*
X018421Y036222D01*
X018519Y036320D02*
X016648Y036320D01*
X017480Y036616D02*
X017706Y036616D01*
X017607Y036714D02*
X017480Y036714D01*
X017480Y036813D02*
X017558Y036813D01*
X017520Y036911D02*
X017480Y036911D01*
X017480Y037010D02*
X017520Y037010D01*
X017525Y037108D02*
X017480Y037108D01*
X017480Y037207D02*
X017566Y037207D01*
X017626Y037305D02*
X017480Y037305D01*
X036956Y026569D02*
X037555Y026569D01*
X037410Y026470D02*
X037101Y026470D01*
X037154Y026372D02*
X037357Y026372D01*
X037342Y026273D02*
X037169Y026273D01*
X037169Y026175D02*
X037342Y026175D01*
X037342Y026076D02*
X037169Y026076D01*
X037169Y025978D02*
X037342Y025978D01*
X037342Y025879D02*
X037169Y025879D01*
X037152Y025781D02*
X037359Y025781D01*
X037415Y025682D02*
X037096Y025682D01*
X037079Y025584D02*
X037568Y025584D01*
X037703Y025485D02*
X037150Y025485D01*
X037292Y025387D02*
X037708Y025387D01*
X037609Y025288D02*
X037391Y025288D01*
X037441Y025190D02*
X037559Y025190D01*
X037520Y025091D02*
X037480Y025091D01*
X037480Y024993D02*
X037520Y024993D01*
X037524Y024894D02*
X037476Y024894D01*
X037435Y024796D02*
X037565Y024796D01*
X037624Y024697D02*
X037376Y024697D01*
X038376Y024697D02*
X038624Y024697D01*
X038565Y024796D02*
X038435Y024796D01*
X038476Y024894D02*
X038524Y024894D01*
X038520Y024993D02*
X038480Y024993D01*
X038480Y025091D02*
X038520Y025091D01*
X038559Y025190D02*
X038441Y025190D01*
X038391Y025288D02*
X038609Y025288D01*
X038708Y025387D02*
X038292Y025387D01*
X038127Y025485D02*
X038753Y025485D01*
X038654Y025584D02*
X038518Y025584D01*
X038355Y025584D02*
X038029Y025584D01*
X037930Y025682D02*
X038203Y025682D01*
X038146Y025781D02*
X037939Y025781D01*
X037956Y025879D02*
X038130Y025879D01*
X038130Y025978D02*
X037956Y025978D01*
X037956Y026076D02*
X038130Y026076D01*
X038130Y026175D02*
X037956Y026175D01*
X037956Y026273D02*
X038130Y026273D01*
X038144Y026372D02*
X037942Y026372D01*
X037889Y026470D02*
X038197Y026470D01*
X038342Y026569D02*
X037744Y026569D01*
X038531Y026569D02*
X041665Y026569D01*
X041665Y026470D02*
X041203Y026470D01*
X041306Y026372D02*
X041665Y026372D01*
X041665Y026273D02*
X041382Y026273D01*
X041423Y026175D02*
X041722Y026175D01*
X041821Y026076D02*
X041450Y026076D01*
X041450Y025978D02*
X041919Y025978D01*
X042018Y025879D02*
X041445Y025879D01*
X041404Y025781D02*
X042116Y025781D01*
X042215Y025682D02*
X041360Y025682D01*
X041261Y025584D02*
X042215Y025584D01*
X042215Y025485D02*
X041094Y025485D01*
X041292Y025387D02*
X041708Y025387D01*
X041609Y025288D02*
X041391Y025288D01*
X041441Y025190D02*
X041559Y025190D01*
X041520Y025091D02*
X041480Y025091D01*
X041480Y024993D02*
X041520Y024993D01*
X041524Y024894D02*
X041476Y024894D01*
X041435Y024796D02*
X041565Y024796D01*
X041624Y024697D02*
X041376Y024697D01*
X040624Y024697D02*
X039376Y024697D01*
X039435Y024796D02*
X040565Y024796D01*
X040524Y024894D02*
X039476Y024894D01*
X039480Y024993D02*
X040520Y024993D01*
X040520Y025091D02*
X039480Y025091D01*
X039441Y025190D02*
X040559Y025190D01*
X040609Y025288D02*
X039391Y025288D01*
X039292Y025387D02*
X040708Y025387D01*
X040706Y025485D02*
X039150Y025485D01*
X039079Y025584D02*
X040539Y025584D01*
X040440Y025682D02*
X038980Y025682D01*
X039062Y025600D02*
X039062Y025600D01*
X038882Y025781D02*
X040396Y025781D01*
X040355Y025879D02*
X038783Y025879D01*
X038743Y025978D02*
X040350Y025978D01*
X040350Y026076D02*
X038743Y026076D01*
X038743Y026175D02*
X040377Y026175D01*
X040418Y026273D02*
X038743Y026273D01*
X038729Y026372D02*
X040494Y026372D01*
X040597Y026470D02*
X038676Y026470D01*
X039704Y028342D02*
X040155Y028342D01*
X040057Y028440D02*
X039854Y028440D01*
X039909Y028539D02*
X039958Y028539D01*
X042726Y025978D02*
X044352Y025978D01*
X044352Y025879D02*
X042785Y025879D01*
X042785Y025781D02*
X044352Y025781D01*
X044352Y025682D02*
X042785Y025682D01*
X042785Y025584D02*
X044352Y025584D01*
X044352Y025485D02*
X042785Y025485D01*
X043292Y025387D02*
X044352Y025387D01*
X044352Y025288D02*
X043391Y025288D01*
X043441Y025190D02*
X044352Y025190D01*
X044352Y025091D02*
X043480Y025091D01*
X043480Y024993D02*
X044352Y024993D01*
X044352Y024894D02*
X043476Y024894D01*
X043435Y024796D02*
X044352Y024796D01*
X044352Y024697D02*
X043376Y024697D01*
D41*
X039000Y025000D02*
X039000Y025450D01*
X038437Y026013D01*
X038437Y026079D01*
X037649Y026079D02*
X037649Y025751D01*
X038000Y025400D01*
X038000Y025000D01*
X037000Y025000D02*
X037000Y025450D01*
X036862Y025588D01*
X036862Y026079D01*
X036074Y026079D02*
X036074Y025474D01*
X036000Y025400D01*
X036000Y025000D01*
X038937Y027063D02*
X038000Y028000D01*
X038000Y034450D01*
X039250Y035700D01*
X040700Y035700D01*
X042000Y037000D01*
X041050Y036950D02*
X041050Y036250D01*
X040650Y035850D01*
X039200Y035850D01*
X037850Y034500D01*
X037850Y031670D01*
X037858Y031503D01*
X037800Y031500D01*
X037753Y031534D01*
X037850Y031670D01*
X037850Y031550D01*
X037800Y031500D01*
X038850Y031800D02*
X038869Y031745D01*
X039027Y031800D01*
X038869Y031855D01*
X038850Y031800D01*
X039027Y031800D01*
X039408Y031800D01*
X039421Y031787D01*
X039421Y031000D02*
X039027Y031000D01*
X038869Y030945D01*
X038850Y031000D01*
X038869Y031055D01*
X039027Y031000D01*
X038850Y031000D01*
X038937Y027063D02*
X039421Y027063D01*
X035354Y035473D02*
X035300Y035450D01*
X035244Y035465D01*
X035287Y035627D01*
X035354Y035473D01*
X035300Y035450D02*
X035287Y035463D01*
X035287Y035627D01*
X035287Y035921D01*
X034500Y035921D02*
X034500Y035627D01*
X034555Y035469D01*
X034500Y035450D01*
X034445Y035469D01*
X034500Y035627D01*
X034500Y035450D01*
X034500Y035450D01*
X033800Y035481D02*
X033750Y035450D01*
X033692Y035457D01*
X033712Y035623D01*
X033800Y035481D01*
X033750Y035450D02*
X033712Y035488D01*
X033712Y035623D01*
X033712Y035921D01*
X033002Y035477D02*
X032950Y035450D01*
X032893Y035461D01*
X032925Y035625D01*
X033002Y035477D01*
X032950Y035450D02*
X032925Y035475D01*
X032925Y035625D01*
X032925Y035921D01*
X032137Y035921D02*
X032137Y035627D01*
X032204Y035473D01*
X032150Y035450D01*
X032094Y035465D01*
X032137Y035627D01*
X032137Y035463D01*
X032150Y035450D01*
X030650Y035480D02*
X030600Y035450D01*
X030542Y035457D01*
X030563Y035623D01*
X030650Y035480D01*
X030600Y035450D02*
X030563Y035487D01*
X030563Y035623D01*
X030563Y035921D01*
X029775Y035921D02*
X029775Y035625D01*
X029852Y035477D01*
X029800Y035450D01*
X029743Y035461D01*
X029775Y035625D01*
X029775Y035475D01*
X029800Y035450D01*
X029054Y035473D02*
X029000Y035450D01*
X028944Y035465D01*
X028988Y035627D01*
X029054Y035473D01*
X029000Y035450D02*
X028988Y035462D01*
X028988Y035627D01*
X028988Y035921D01*
X028200Y035921D02*
X028200Y035627D01*
X028255Y035469D01*
X028200Y035450D01*
X028145Y035469D01*
X028200Y035627D01*
X028200Y035450D01*
X028200Y035450D01*
X027500Y035480D02*
X027450Y035450D01*
X027392Y035457D01*
X027413Y035623D01*
X027500Y035480D01*
X027450Y035450D02*
X027413Y035487D01*
X027413Y035623D01*
X027413Y035921D01*
X026626Y035921D02*
X026626Y035625D01*
X026702Y035477D01*
X026650Y035450D01*
X026593Y035461D01*
X026626Y035625D01*
X026626Y035474D01*
X026650Y035450D01*
X025904Y035473D02*
X025850Y035450D01*
X025794Y035466D01*
X025838Y035627D01*
X025904Y035473D01*
X025850Y035450D02*
X025838Y035462D01*
X025838Y035627D01*
X025838Y035921D01*
X025051Y035921D02*
X025051Y035620D01*
X025058Y035453D01*
X025000Y035450D01*
X024953Y035484D01*
X025051Y035620D01*
X025051Y035501D01*
X025000Y035450D01*
X024355Y035419D02*
X024300Y035400D01*
X024245Y035381D01*
X024300Y035223D01*
X024355Y035381D01*
X024300Y035400D01*
X024245Y035419D01*
X024300Y035577D01*
X024355Y035419D01*
X024300Y035400D02*
X024300Y035223D01*
X024300Y034527D01*
X024355Y034369D01*
X024300Y034350D01*
X024245Y034369D01*
X024300Y034527D01*
X024300Y034350D01*
X023750Y034150D02*
X023731Y034205D01*
X023573Y034150D01*
X023731Y034095D01*
X023750Y034150D01*
X023573Y034150D01*
X023280Y034150D01*
X023279Y034150D01*
X023279Y034937D02*
X023292Y034950D01*
X023654Y034950D01*
X023815Y034906D01*
X023800Y034850D01*
X023753Y034815D01*
X023654Y034950D01*
X023700Y034950D01*
X023800Y034850D01*
X024300Y035400D02*
X024300Y035577D01*
X024300Y035885D01*
X024263Y035921D01*
X022100Y035350D02*
X022100Y035100D01*
X021909Y035100D01*
X021859Y035050D01*
X021850Y035050D01*
X021850Y034650D01*
X021800Y034650D01*
X021800Y034650D01*
X021559Y034650D01*
X021500Y034591D01*
X021500Y034540D01*
X020858Y034540D01*
X020684Y034714D01*
X020602Y034796D01*
X020594Y034796D01*
X020590Y034800D01*
X020590Y034900D01*
X020591Y034900D01*
X020650Y034959D01*
X020650Y034960D01*
X020750Y034960D01*
X020750Y034959D01*
X020809Y034900D01*
X021091Y034900D01*
X021150Y034959D01*
X021150Y035160D01*
X021550Y035160D01*
X021550Y035159D01*
X021609Y035100D01*
X021891Y035100D01*
X021950Y035159D01*
X021950Y035350D01*
X022100Y035350D01*
X022100Y035333D02*
X021950Y035333D01*
X021950Y035255D02*
X022100Y035255D01*
X022050Y035250D02*
X022050Y035300D01*
X022100Y035176D02*
X021950Y035176D01*
X021906Y035098D02*
X021150Y035098D01*
X021150Y035019D02*
X021850Y035019D01*
X021850Y034941D02*
X021132Y034941D01*
X020950Y035100D02*
X020450Y035100D01*
X020450Y034656D01*
X020544Y034656D01*
X020800Y034400D01*
X021650Y034400D01*
X021700Y034450D01*
X021500Y034548D02*
X020850Y034548D01*
X020771Y034627D02*
X021535Y034627D01*
X021850Y034705D02*
X020693Y034705D01*
X020614Y034784D02*
X021850Y034784D01*
X021850Y034862D02*
X020590Y034862D01*
X020632Y034941D02*
X020768Y034941D01*
X020450Y034656D02*
X020317Y034656D01*
X020323Y034650D01*
X020317Y034400D02*
X020500Y034400D01*
X021100Y033800D01*
X021100Y033569D01*
X021098Y033568D01*
X020902Y033568D02*
X020900Y033569D01*
X020900Y033800D01*
X020740Y033960D01*
X019840Y033960D01*
X019800Y034000D01*
X019700Y033750D02*
X020350Y033750D01*
X020410Y033810D01*
X020640Y033810D01*
X020700Y033750D01*
X020700Y033572D01*
X020705Y033568D01*
X020508Y033568D02*
X019868Y033568D01*
X019800Y033500D01*
X019742Y033292D02*
X020232Y033292D01*
X019900Y033150D02*
X019500Y032750D01*
X019500Y032700D01*
X019500Y032250D01*
X019700Y032450D02*
X019950Y032450D01*
X019950Y032246D01*
X020085Y032147D01*
X020050Y032100D01*
X019994Y032085D01*
X019950Y032246D01*
X019950Y032200D01*
X020050Y032100D01*
X020232Y032308D02*
X020300Y032240D01*
X020300Y031550D01*
X020200Y031550D01*
X020232Y031550D01*
X020300Y031550D02*
X020600Y031550D01*
X020200Y031250D02*
X020177Y031250D01*
X020019Y031195D01*
X020000Y031250D01*
X020019Y031305D01*
X020177Y031250D01*
X020010Y031250D01*
X020677Y030545D02*
X020762Y030545D01*
X020817Y030600D02*
X020700Y030483D01*
X020700Y030386D01*
X020656Y030350D01*
X020509Y030350D01*
X020450Y030291D01*
X020450Y029712D01*
X020445Y029707D01*
X020445Y029494D01*
X020439Y029486D01*
X020441Y029467D01*
X020433Y029449D01*
X020445Y029416D01*
X020445Y029263D01*
X020446Y029263D01*
X020446Y029229D01*
X020437Y029220D01*
X020360Y029220D01*
X020360Y030260D01*
X020393Y030260D01*
X020833Y030700D01*
X021960Y030700D01*
X021960Y030460D01*
X021100Y030460D01*
X021100Y030483D01*
X020983Y030600D01*
X020817Y030600D01*
X020756Y030623D02*
X021960Y030623D01*
X021960Y030545D02*
X021038Y030545D01*
X021100Y030466D02*
X021960Y030466D01*
X021800Y031100D02*
X021800Y031250D01*
X021800Y031550D02*
X021900Y031550D01*
X022450Y031000D01*
X023279Y031000D01*
X022150Y031600D02*
X022000Y031750D01*
X021400Y031750D01*
X021295Y031855D01*
X021295Y032032D01*
X021492Y032032D02*
X022018Y032032D01*
X022150Y031900D01*
X022150Y032200D02*
X022042Y032308D01*
X021768Y032308D01*
X021768Y032505D02*
X022145Y032505D01*
X022150Y032500D01*
X022198Y032898D02*
X022200Y032900D01*
X022198Y032898D02*
X021768Y032898D01*
X021768Y033292D02*
X021768Y033818D01*
X022100Y034150D01*
X022100Y034450D02*
X022050Y034450D01*
X021750Y034150D01*
X021700Y034150D01*
X021700Y034050D01*
X021600Y033950D01*
X021600Y033800D01*
X021492Y033692D01*
X021492Y033568D01*
X021300Y033572D02*
X021295Y033568D01*
X021300Y033572D02*
X021300Y033623D01*
X021245Y033781D01*
X021300Y033800D01*
X021355Y033781D01*
X021300Y033623D01*
X021300Y033800D01*
X021368Y034051D02*
X021400Y034100D01*
X021397Y034158D01*
X021230Y034150D01*
X021366Y034053D01*
X021400Y034100D01*
X021395Y034158D01*
X021228Y034144D01*
X021368Y034051D01*
X021400Y034100D02*
X021350Y034150D01*
X021230Y034150D01*
X021189Y034150D01*
X021183Y034144D01*
X021228Y034144D01*
X021244Y034144D01*
X021750Y035300D02*
X020000Y035300D01*
X019450Y034750D01*
X017800Y034750D01*
X017450Y034400D01*
X017450Y034001D01*
X017460Y033991D01*
X018150Y033850D02*
X018150Y033750D01*
X018150Y033850D02*
X018725Y034425D01*
X018797Y034575D01*
X018850Y034550D01*
X018875Y034497D01*
X018725Y034425D01*
X018850Y034550D01*
X019400Y034900D02*
X017870Y034900D01*
X017460Y035309D01*
X019400Y034900D02*
X019950Y035450D01*
X020950Y035450D01*
X020950Y035500D02*
X020950Y035504D01*
X020815Y035603D01*
X020850Y035650D01*
X020906Y035665D01*
X020950Y035504D01*
X020950Y035650D01*
X020850Y035650D01*
X020906Y035635D01*
X020950Y035796D01*
X020815Y035697D01*
X020850Y035650D01*
X020950Y035650D02*
X020950Y035796D01*
X020950Y035900D01*
X021000Y035950D01*
X021000Y037000D01*
X019742Y033292D02*
X019700Y033250D01*
X019453Y032975D02*
X019400Y032950D01*
X019375Y032897D01*
X019525Y032825D01*
X019453Y032975D01*
X019400Y032950D02*
X019525Y032825D01*
X019575Y032775D01*
X019500Y032700D01*
X019575Y032775D02*
X019600Y032750D01*
X019700Y032750D01*
X019950Y032450D02*
X020050Y032450D01*
X020105Y032505D01*
X020232Y032505D01*
X018600Y032237D02*
X018600Y031685D01*
X018569Y031654D01*
X018569Y031569D01*
X018470Y031470D01*
X017690Y031470D01*
X017650Y031490D01*
X017650Y032250D01*
X018576Y032250D01*
X018580Y032246D01*
X018600Y032237D01*
X018600Y032193D02*
X017650Y032193D01*
X017650Y032115D02*
X018600Y032115D01*
X018600Y032036D02*
X017650Y032036D01*
X017650Y031958D02*
X017739Y031958D01*
X017708Y031927D02*
X017778Y031997D01*
X017868Y032034D01*
X017966Y032034D01*
X018057Y031997D01*
X018126Y031927D01*
X018164Y031836D01*
X018164Y031738D01*
X018126Y031648D01*
X018057Y031578D01*
X017966Y031541D01*
X017868Y031541D01*
X017778Y031578D01*
X017708Y031648D01*
X017671Y031738D01*
X017671Y031836D01*
X017708Y031927D01*
X017688Y031879D02*
X017650Y031879D01*
X017650Y031801D02*
X017671Y031801D01*
X017677Y031722D02*
X017650Y031722D01*
X017650Y031644D02*
X017712Y031644D01*
X017650Y031565D02*
X017810Y031565D01*
X017657Y031487D02*
X018487Y031487D01*
X018565Y031565D02*
X018025Y031565D01*
X018122Y031644D02*
X018569Y031644D01*
X018600Y031722D02*
X018157Y031722D01*
X018164Y031801D02*
X018600Y031801D01*
X018600Y031879D02*
X018146Y031879D01*
X018096Y031958D02*
X018600Y031958D01*
X018100Y033200D02*
X017317Y033200D01*
X018100Y033200D02*
X018150Y033250D01*
X018700Y030370D02*
X019197Y030370D01*
X019307Y030260D01*
X020210Y030260D01*
X020210Y029240D01*
X020154Y029243D01*
X020154Y029505D01*
X020095Y029563D01*
X019914Y029563D01*
X019856Y029505D01*
X019856Y029146D01*
X019860Y029142D01*
X019860Y029110D01*
X019790Y029040D01*
X019480Y029040D01*
X019300Y028870D01*
X019300Y027300D01*
X020150Y026400D01*
X020150Y025720D01*
X018940Y025720D01*
X018946Y027554D01*
X018950Y027559D01*
X018950Y028041D01*
X018947Y028044D01*
X018948Y028256D01*
X018950Y028259D01*
X018950Y028617D01*
X019000Y028667D01*
X019000Y029006D01*
X019350Y029400D01*
X019350Y029650D01*
X019450Y029750D01*
X019450Y030000D01*
X019300Y030150D01*
X018700Y030150D01*
X018700Y030370D01*
X018700Y030309D02*
X019258Y030309D01*
X019376Y030074D02*
X020210Y030074D01*
X020210Y030152D02*
X018700Y030152D01*
X018700Y030231D02*
X020210Y030231D01*
X020360Y030231D02*
X020450Y030231D01*
X020442Y030309D02*
X020468Y030309D01*
X020520Y030388D02*
X020700Y030388D01*
X020700Y030466D02*
X020599Y030466D01*
X020450Y030152D02*
X020360Y030152D01*
X020360Y030074D02*
X020450Y030074D01*
X020450Y029995D02*
X020360Y029995D01*
X020360Y029917D02*
X020450Y029917D01*
X020450Y029838D02*
X020360Y029838D01*
X020360Y029760D02*
X020450Y029760D01*
X020445Y029681D02*
X020360Y029681D01*
X020360Y029603D02*
X020445Y029603D01*
X020445Y029524D02*
X020360Y029524D01*
X020360Y029446D02*
X020434Y029446D01*
X020445Y029367D02*
X020360Y029367D01*
X020360Y029289D02*
X020445Y029289D01*
X020437Y029220D02*
X020437Y029220D01*
X020210Y029289D02*
X020154Y029289D01*
X020154Y029367D02*
X020210Y029367D01*
X020210Y029446D02*
X020154Y029446D01*
X020135Y029524D02*
X020210Y029524D01*
X020210Y029603D02*
X019350Y029603D01*
X019350Y029524D02*
X019875Y029524D01*
X019856Y029446D02*
X019350Y029446D01*
X019321Y029367D02*
X019856Y029367D01*
X019856Y029289D02*
X019251Y029289D01*
X019181Y029210D02*
X019856Y029210D01*
X019860Y029132D02*
X019111Y029132D01*
X019042Y029053D02*
X019803Y029053D01*
X019650Y029050D02*
X019600Y029100D01*
X019411Y028975D02*
X019000Y028975D01*
X019000Y028896D02*
X019328Y028896D01*
X019300Y028818D02*
X019000Y028818D01*
X019000Y028739D02*
X019300Y028739D01*
X019300Y028661D02*
X018993Y028661D01*
X018950Y028582D02*
X019300Y028582D01*
X019300Y028504D02*
X018950Y028504D01*
X018950Y028425D02*
X019300Y028425D01*
X019300Y028347D02*
X018950Y028347D01*
X018950Y028268D02*
X019300Y028268D01*
X019300Y028190D02*
X018948Y028190D01*
X018947Y028111D02*
X019300Y028111D01*
X019300Y028033D02*
X018950Y028033D01*
X018950Y027954D02*
X019300Y027954D01*
X019300Y027876D02*
X018950Y027876D01*
X018950Y027797D02*
X019300Y027797D01*
X019300Y027719D02*
X018950Y027719D01*
X018950Y027640D02*
X019300Y027640D01*
X019300Y027562D02*
X018950Y027562D01*
X018945Y027483D02*
X019300Y027483D01*
X019300Y027405D02*
X018945Y027405D01*
X018945Y027326D02*
X019300Y027326D01*
X019350Y027248D02*
X018945Y027248D01*
X018944Y027169D02*
X019424Y027169D01*
X019498Y027091D02*
X018944Y027091D01*
X018944Y027012D02*
X019572Y027012D01*
X019646Y026934D02*
X018944Y026934D01*
X018944Y026855D02*
X019720Y026855D01*
X019794Y026777D02*
X018943Y026777D01*
X018943Y026698D02*
X019869Y026698D01*
X019943Y026620D02*
X018943Y026620D01*
X018943Y026541D02*
X020017Y026541D01*
X020091Y026463D02*
X018942Y026463D01*
X018942Y026384D02*
X020150Y026384D01*
X020150Y026306D02*
X018942Y026306D01*
X018942Y026227D02*
X020150Y026227D01*
X020150Y026149D02*
X018941Y026149D01*
X018941Y026070D02*
X020150Y026070D01*
X020150Y025992D02*
X018941Y025992D01*
X018941Y025913D02*
X020150Y025913D01*
X020150Y025835D02*
X018940Y025835D01*
X018940Y025756D02*
X020150Y025756D01*
X021900Y027250D02*
X021950Y027250D01*
X023279Y027063D02*
X023537Y027063D01*
X023800Y026800D01*
X023823Y026800D01*
X023981Y026855D01*
X024000Y026800D01*
X023981Y026745D01*
X023823Y026800D01*
X024000Y026800D01*
X023850Y027050D02*
X023902Y027077D01*
X023825Y027225D01*
X023793Y027061D01*
X023850Y027050D01*
X023850Y027200D01*
X023825Y027225D01*
X023279Y027771D01*
X023279Y027850D01*
X023279Y028638D02*
X023291Y028650D01*
X023523Y028650D01*
X023681Y028705D01*
X023700Y028650D01*
X023681Y028595D01*
X023523Y028650D01*
X023700Y028650D01*
X020250Y028350D02*
X020202Y028398D01*
X020005Y028755D02*
X019959Y028800D01*
X019600Y028800D01*
X019381Y029681D02*
X020210Y029681D01*
X020210Y029760D02*
X019450Y029760D01*
X019450Y029838D02*
X020210Y029838D01*
X020210Y029917D02*
X019450Y029917D01*
X019450Y029995D02*
X020210Y029995D01*
X018481Y029055D02*
X018500Y029000D01*
X018481Y028945D01*
X018323Y029000D01*
X018481Y029055D01*
X018500Y029000D02*
X018323Y029000D01*
X017550Y029000D01*
X017350Y028800D01*
X017317Y028800D01*
X036074Y035921D02*
X036074Y036324D01*
X036250Y036500D01*
X039500Y036500D01*
X040000Y037000D01*
X041000Y037000D02*
X041050Y036950D01*
D42*
X035000Y037000D02*
X034900Y036900D01*
X034900Y035450D01*
X031650Y032200D01*
X023300Y032200D01*
X023279Y032221D01*
X023279Y032575D01*
X022040Y030250D02*
X020900Y030250D01*
X020250Y028350D02*
X019850Y028350D01*
X019800Y028300D01*
X020250Y028350D02*
X020250Y027950D01*
X018362Y031512D02*
X018124Y031512D01*
X018362Y031512D02*
X018520Y031670D01*
D43*
X018566Y030746D02*
X018550Y030730D01*
X018566Y030746D02*
X018806Y030746D01*
X018810Y030750D01*
X019100Y030750D01*
X019390Y030460D01*
X020310Y030460D01*
X021050Y031200D01*
X021050Y031550D01*
X020900Y030400D02*
X020900Y030250D01*
X020900Y029600D02*
X020700Y029400D01*
X020650Y029400D01*
X020750Y029500D01*
X020750Y029600D01*
X020800Y029550D01*
X020700Y029400D02*
X020700Y029350D01*
X020750Y029300D02*
X020750Y029250D01*
X020600Y029100D01*
X020050Y029950D02*
X019925Y030075D01*
X019800Y030200D01*
X019200Y030200D01*
X018800Y030200D01*
X018800Y029100D02*
X018800Y028750D01*
X018550Y028500D01*
X021450Y027500D02*
X021450Y027450D01*
X021450Y027250D01*
X021450Y027500D02*
X021650Y027700D01*
X021850Y027700D01*
X022150Y027700D02*
X022150Y027850D01*
X040650Y034525D02*
X040900Y034525D01*
X041150Y034525D01*
X041450Y034525D02*
X041700Y034525D01*
X041951Y034525D01*
X041957Y034531D01*
D44*
X021450Y027250D02*
X021450Y026900D01*
X021150Y028300D02*
X021100Y028350D01*
X020750Y029300D02*
X020700Y029300D01*
X020700Y029350D01*
D45*
X039250Y034150D02*
X039421Y034150D01*
X039421Y034150D01*
X039800Y034150D01*
X039826Y034152D01*
X039852Y034157D01*
X039877Y034165D01*
X039900Y034177D01*
X039922Y034191D01*
X039941Y034209D01*
X039959Y034228D01*
X039973Y034250D01*
X039985Y034273D01*
X039993Y034298D01*
X039998Y034324D01*
X040000Y034350D01*
X040002Y034375D01*
X040007Y034399D01*
X040016Y034423D01*
X040028Y034445D01*
X040043Y034465D01*
X040060Y034482D01*
X040080Y034497D01*
X040102Y034509D01*
X040126Y034518D01*
X040150Y034523D01*
X040175Y034525D01*
X040350Y034525D01*
D46*
X039421Y029425D02*
X039714Y029132D01*
X039912Y029132D01*
X042053Y026992D01*
X042053Y026392D01*
X042603Y025842D01*
X042603Y025398D01*
X043000Y025000D01*
X042398Y025398D02*
X042398Y025403D01*
X042398Y025758D01*
X041848Y026308D01*
X041848Y026908D01*
X039838Y028918D01*
X039708Y028918D01*
X039428Y028638D01*
X042395Y025400D02*
X042398Y025403D01*
X042398Y025398D02*
X042000Y025000D01*
X021050Y031550D02*
X021000Y031550D01*
X020600Y031950D01*
X019615Y032009D02*
X019475Y031905D01*
X019579Y032045D01*
X019600Y032030D01*
X019615Y032009D01*
X019600Y032030D02*
X019475Y031905D01*
X019300Y031730D01*
X019300Y031620D01*
X019174Y031494D01*
X018806Y031494D01*
X018568Y031256D01*
X018124Y031256D01*
X018124Y031000D02*
X018630Y031000D01*
X018830Y031200D01*
X019190Y031200D01*
X019460Y031470D01*
X019560Y031470D01*
X019594Y031494D01*
X019600Y031500D01*
X019600Y031670D01*
X019574Y031667D01*
X019592Y031493D01*
X019625Y031665D01*
X019600Y031670D01*
D47*
X020600Y031950D02*
X020600Y032032D01*
X018550Y028550D02*
X018550Y028500D01*
X021450Y027250D02*
X021450Y027000D01*
D48*
X019900Y026250D02*
X019600Y026550D01*
X019600Y026200D01*
X019650Y026250D01*
X019600Y026200D02*
X019250Y026200D01*
X019300Y026150D01*
X019450Y026150D01*
X019550Y026150D01*
X019600Y026200D01*
X019581Y026150D02*
X019550Y026150D01*
X019450Y026150D02*
X019600Y026300D01*
X019900Y026250D02*
X019900Y026200D01*
X018519Y026150D02*
X017372Y026150D01*
X017346Y026125D01*
X018493Y026125D02*
X018519Y026150D01*
X017346Y028125D02*
X017372Y028150D01*
D49*
X017750Y028150D01*
X017900Y028300D01*
X018000Y028300D01*
X018200Y028500D01*
X018100Y028500D01*
X017900Y028700D01*
X017900Y028450D01*
X017950Y028500D01*
X017900Y028450D02*
X017900Y028300D01*
X018200Y028500D02*
X018550Y028500D01*
X017071Y029445D02*
X017071Y030528D01*
X017071Y031472D01*
X017071Y030528D02*
X017071Y032555D01*
X017116Y032600D01*
X018650Y032600D01*
X018750Y032500D01*
X019050Y032500D01*
X022600Y031940D02*
X022600Y036550D01*
X023000Y036950D01*
X023000Y037000D01*
X024000Y037000D01*
X022600Y031940D02*
X022750Y031790D01*
X023277Y031790D01*
X023279Y031787D01*
X030113Y031787D01*
X035000Y026900D01*
X024000Y025000D02*
X022250Y026750D01*
X021700Y026750D01*
X021450Y027000D01*
X021950Y027250D02*
X022350Y027250D01*
X022600Y027500D01*
X022600Y029650D01*
X023163Y030213D01*
X023279Y030213D01*
X023279Y031000D01*
X019925Y030075D02*
X019575Y030075D01*
X019600Y030050D01*
D50*
X039421Y028638D02*
X039428Y028638D01*
M02*
