G75*
%MOIN*%
%OFA0B0*%
%FSLAX24Y24*%
%IPPOS*%
%LPD*%
%AMOC8*
5,1,8,0,0,1.08239X$1,22.5*
%
%ADD10C,0.0000*%
%ADD11R,0.1083X0.1083*%
%ADD12R,0.0276X0.0098*%
%ADD13R,0.0098X0.0276*%
%ADD14R,0.0472X0.0551*%
%ADD15R,0.0394X0.0551*%
%ADD16R,0.0200X0.0200*%
%ADD17R,0.0098X0.0236*%
%ADD18C,0.0001*%
%ADD19R,0.0787X0.0335*%
%ADD20R,0.0400X0.0600*%
%ADD21R,0.0250X0.0350*%
%ADD22R,0.0700X0.0450*%
%ADD23R,0.0709X0.0551*%
%ADD24R,0.0600X0.0400*%
%ADD25R,0.1400X0.0700*%
%ADD26R,0.0394X0.0157*%
%ADD27R,0.0295X0.0472*%
%ADD28R,0.1496X0.0453*%
%ADD29R,0.0200X0.0200*%
%ADD30R,0.1000X0.1050*%
%ADD31R,0.0500X0.0300*%
%ADD32R,0.0400X0.0400*%
%ADD33R,0.0350X0.0250*%
%ADD34C,0.0400*%
%ADD35C,0.0394*%
%ADD36C,0.0197*%
%ADD37R,0.0531X0.0157*%
%ADD38R,0.0748X0.0748*%
%ADD39C,0.0591*%
%ADD40R,0.0740X0.0740*%
%ADD41C,0.0740*%
%ADD42R,0.0709X0.0236*%
%ADD43C,0.0100*%
%ADD44C,0.0080*%
%ADD45C,0.0180*%
%ADD46C,0.0200*%
%ADD47C,0.0240*%
%ADD48C,0.0260*%
%ADD49C,0.0160*%
%ADD50C,0.0145*%
%ADD51C,0.0150*%
%ADD52C,0.0400*%
%ADD53C,0.0300*%
%ADD54C,0.0472*%
D10*
X016500Y024500D02*
X016500Y037500D01*
X044500Y037500D01*
X044500Y024500D01*
X016500Y024500D01*
X019956Y028637D02*
X019956Y028883D01*
X020005Y028932D01*
X020054Y028932D01*
X020054Y028637D01*
X019956Y028637D01*
X017809Y030213D02*
X017811Y030233D01*
X017817Y030253D01*
X017826Y030271D01*
X017839Y030288D01*
X017854Y030301D01*
X017872Y030311D01*
X017892Y030318D01*
X017912Y030321D01*
X017932Y030320D01*
X017952Y030315D01*
X017971Y030307D01*
X017988Y030295D01*
X018002Y030280D01*
X018013Y030262D01*
X018021Y030243D01*
X018025Y030223D01*
X018025Y030203D01*
X018021Y030183D01*
X018013Y030164D01*
X018002Y030146D01*
X017988Y030131D01*
X017971Y030119D01*
X017952Y030111D01*
X017932Y030106D01*
X017912Y030105D01*
X017892Y030108D01*
X017872Y030115D01*
X017854Y030125D01*
X017839Y030138D01*
X017826Y030155D01*
X017817Y030173D01*
X017811Y030193D01*
X017809Y030213D01*
X017809Y031787D02*
X017811Y031807D01*
X017817Y031827D01*
X017826Y031845D01*
X017839Y031862D01*
X017854Y031875D01*
X017872Y031885D01*
X017892Y031892D01*
X017912Y031895D01*
X017932Y031894D01*
X017952Y031889D01*
X017971Y031881D01*
X017988Y031869D01*
X018002Y031854D01*
X018013Y031836D01*
X018021Y031817D01*
X018025Y031797D01*
X018025Y031777D01*
X018021Y031757D01*
X018013Y031738D01*
X018002Y031720D01*
X017988Y031705D01*
X017971Y031693D01*
X017952Y031685D01*
X017932Y031680D01*
X017912Y031679D01*
X017892Y031682D01*
X017872Y031689D01*
X017854Y031699D01*
X017839Y031712D01*
X017826Y031729D01*
X017817Y031747D01*
X017811Y031767D01*
X017809Y031787D01*
X017608Y034004D02*
X016647Y033996D01*
X016647Y034535D01*
X017047Y034543D01*
X017047Y034264D01*
X017608Y034264D01*
X017608Y034004D01*
X017047Y035464D02*
X016647Y035465D01*
X016647Y036004D01*
X017608Y036004D01*
X017608Y035743D01*
X017047Y035743D01*
X017047Y035464D01*
X018370Y035700D02*
X018372Y035750D01*
X018378Y035800D01*
X018388Y035849D01*
X018402Y035897D01*
X018419Y035944D01*
X018440Y035989D01*
X018465Y036033D01*
X018493Y036074D01*
X018525Y036113D01*
X018559Y036150D01*
X018596Y036184D01*
X018636Y036214D01*
X018678Y036241D01*
X018722Y036265D01*
X018768Y036286D01*
X018815Y036302D01*
X018863Y036315D01*
X018913Y036324D01*
X018962Y036329D01*
X019013Y036330D01*
X019063Y036327D01*
X019112Y036320D01*
X019161Y036309D01*
X019209Y036294D01*
X019255Y036276D01*
X019300Y036254D01*
X019343Y036228D01*
X019384Y036199D01*
X019423Y036167D01*
X019459Y036132D01*
X019491Y036094D01*
X019521Y036054D01*
X019548Y036011D01*
X019571Y035967D01*
X019590Y035921D01*
X019606Y035873D01*
X019618Y035824D01*
X019626Y035775D01*
X019630Y035725D01*
X019630Y035675D01*
X019626Y035625D01*
X019618Y035576D01*
X019606Y035527D01*
X019590Y035479D01*
X019571Y035433D01*
X019548Y035389D01*
X019521Y035346D01*
X019491Y035306D01*
X019459Y035268D01*
X019423Y035233D01*
X019384Y035201D01*
X019343Y035172D01*
X019300Y035146D01*
X019255Y035124D01*
X019209Y035106D01*
X019161Y035091D01*
X019112Y035080D01*
X019063Y035073D01*
X019013Y035070D01*
X018962Y035071D01*
X018913Y035076D01*
X018863Y035085D01*
X018815Y035098D01*
X018768Y035114D01*
X018722Y035135D01*
X018678Y035159D01*
X018636Y035186D01*
X018596Y035216D01*
X018559Y035250D01*
X018525Y035287D01*
X018493Y035326D01*
X018465Y035367D01*
X018440Y035411D01*
X018419Y035456D01*
X018402Y035503D01*
X018388Y035551D01*
X018378Y035600D01*
X018372Y035650D01*
X018370Y035700D01*
X042705Y026862D02*
X042707Y026912D01*
X042713Y026962D01*
X042723Y027011D01*
X042737Y027059D01*
X042754Y027106D01*
X042775Y027151D01*
X042800Y027195D01*
X042828Y027236D01*
X042860Y027275D01*
X042894Y027312D01*
X042931Y027346D01*
X042971Y027376D01*
X043013Y027403D01*
X043057Y027427D01*
X043103Y027448D01*
X043150Y027464D01*
X043198Y027477D01*
X043248Y027486D01*
X043297Y027491D01*
X043348Y027492D01*
X043398Y027489D01*
X043447Y027482D01*
X043496Y027471D01*
X043544Y027456D01*
X043590Y027438D01*
X043635Y027416D01*
X043678Y027390D01*
X043719Y027361D01*
X043758Y027329D01*
X043794Y027294D01*
X043826Y027256D01*
X043856Y027216D01*
X043883Y027173D01*
X043906Y027129D01*
X043925Y027083D01*
X043941Y027035D01*
X043953Y026986D01*
X043961Y026937D01*
X043965Y026887D01*
X043965Y026837D01*
X043961Y026787D01*
X043953Y026738D01*
X043941Y026689D01*
X043925Y026641D01*
X043906Y026595D01*
X043883Y026551D01*
X043856Y026508D01*
X043826Y026468D01*
X043794Y026430D01*
X043758Y026395D01*
X043719Y026363D01*
X043678Y026334D01*
X043635Y026308D01*
X043590Y026286D01*
X043544Y026268D01*
X043496Y026253D01*
X043447Y026242D01*
X043398Y026235D01*
X043348Y026232D01*
X043297Y026233D01*
X043248Y026238D01*
X043198Y026247D01*
X043150Y026260D01*
X043103Y026276D01*
X043057Y026297D01*
X043013Y026321D01*
X042971Y026348D01*
X042931Y026378D01*
X042894Y026412D01*
X042860Y026449D01*
X042828Y026488D01*
X042800Y026529D01*
X042775Y026573D01*
X042754Y026618D01*
X042737Y026665D01*
X042723Y026713D01*
X042713Y026762D01*
X042707Y026812D01*
X042705Y026862D01*
D11*
X021000Y032800D03*
D12*
X020232Y032702D03*
X020232Y032898D03*
X020232Y033095D03*
X020232Y033292D03*
X020232Y032505D03*
X020232Y032308D03*
X021768Y032308D03*
X021768Y032505D03*
X021768Y032702D03*
X021768Y032898D03*
X021768Y033095D03*
X021768Y033292D03*
D13*
X021492Y033568D03*
X021295Y033568D03*
X021098Y033568D03*
X020902Y033568D03*
X020705Y033568D03*
X020508Y033568D03*
X020508Y032032D03*
X020705Y032032D03*
X020902Y032032D03*
X021098Y032032D03*
X021295Y032032D03*
X021492Y032032D03*
X020595Y029326D03*
X020398Y029326D03*
X020202Y029326D03*
X020005Y029326D03*
X020202Y028774D03*
X020398Y028774D03*
X020595Y028774D03*
D14*
X019599Y031833D03*
D15*
X018922Y031833D03*
X018922Y030967D03*
X019678Y030967D03*
D16*
X020200Y031250D03*
X020200Y031550D03*
X020600Y031550D03*
X020600Y031250D03*
X021050Y031200D03*
X021350Y031200D03*
X021350Y031550D03*
X021050Y031550D03*
X019700Y032450D03*
X019700Y032750D03*
X021700Y034150D03*
X021700Y034450D03*
X022100Y034450D03*
X022100Y034150D03*
X022050Y034900D03*
X021750Y034900D03*
X021750Y035300D03*
X022050Y035300D03*
X021250Y035100D03*
X020950Y035100D03*
X020950Y035500D03*
X021250Y035500D03*
X021250Y035900D03*
X020950Y035900D03*
X020450Y035100D03*
X020150Y035100D03*
X022200Y033200D03*
X022200Y032900D03*
X019200Y030200D03*
X019200Y029900D03*
X018800Y029900D03*
X018800Y030200D03*
X018850Y029450D03*
X019150Y029450D03*
X019600Y029100D03*
X019600Y028800D03*
X019800Y028300D03*
X019800Y028000D03*
X020250Y027950D03*
X020550Y027950D03*
X020550Y028350D03*
X020250Y028350D03*
X021050Y027700D03*
X021350Y027700D03*
X021850Y027700D03*
X022150Y027700D03*
X018450Y029050D03*
X018150Y029050D03*
X039850Y034150D03*
X040150Y034150D03*
X041150Y031550D03*
X041450Y031550D03*
X041400Y030550D03*
X041400Y030250D03*
D17*
X020005Y028755D03*
D18*
X019956Y028755D02*
X020054Y028755D01*
X020054Y028756D02*
X019956Y028756D01*
X019956Y028757D02*
X020054Y028757D01*
X020054Y028758D02*
X019956Y028758D01*
X019956Y028759D02*
X020054Y028759D01*
X020054Y028760D02*
X019956Y028760D01*
X019956Y028761D02*
X020054Y028761D01*
X020054Y028762D02*
X019956Y028762D01*
X019956Y028763D02*
X020054Y028763D01*
X020054Y028764D02*
X019956Y028764D01*
X019956Y028765D02*
X020054Y028765D01*
X020054Y028766D02*
X019956Y028766D01*
X019956Y028767D02*
X020054Y028767D01*
X020054Y028768D02*
X019956Y028768D01*
X019956Y028769D02*
X020054Y028769D01*
X020054Y028770D02*
X019956Y028770D01*
X019956Y028771D02*
X020054Y028771D01*
X020054Y028772D02*
X019956Y028772D01*
X019956Y028773D02*
X020054Y028773D01*
X020054Y028774D02*
X019956Y028774D01*
X019956Y028775D02*
X020054Y028775D01*
X020054Y028776D02*
X019956Y028776D01*
X019956Y028777D02*
X020054Y028777D01*
X020054Y028778D02*
X019956Y028778D01*
X019956Y028779D02*
X020054Y028779D01*
X020054Y028780D02*
X019956Y028780D01*
X019956Y028781D02*
X020054Y028781D01*
X020054Y028782D02*
X019956Y028782D01*
X019956Y028783D02*
X020054Y028783D01*
X020054Y028784D02*
X019956Y028784D01*
X019956Y028785D02*
X020054Y028785D01*
X020054Y028786D02*
X019956Y028786D01*
X019956Y028787D02*
X020054Y028787D01*
X020054Y028788D02*
X019956Y028788D01*
X019956Y028789D02*
X020054Y028789D01*
X020054Y028790D02*
X019956Y028790D01*
X019956Y028791D02*
X020054Y028791D01*
X020054Y028792D02*
X019956Y028792D01*
X019956Y028793D02*
X020054Y028793D01*
X020054Y028794D02*
X019956Y028794D01*
X019956Y028795D02*
X020054Y028795D01*
X020054Y028796D02*
X019956Y028796D01*
X019956Y028797D02*
X020054Y028797D01*
X020054Y028798D02*
X019956Y028798D01*
X019956Y028799D02*
X020054Y028799D01*
X020054Y028800D02*
X019956Y028800D01*
X019956Y028801D02*
X020054Y028801D01*
X020054Y028802D02*
X019956Y028802D01*
X019956Y028803D02*
X020054Y028803D01*
X020054Y028804D02*
X019956Y028804D01*
X019956Y028805D02*
X020054Y028805D01*
X020054Y028806D02*
X019956Y028806D01*
X019956Y028807D02*
X020054Y028807D01*
X020054Y028808D02*
X019956Y028808D01*
X019956Y028809D02*
X020054Y028809D01*
X020054Y028810D02*
X019956Y028810D01*
X019956Y028811D02*
X020054Y028811D01*
X020054Y028812D02*
X019956Y028812D01*
X019956Y028813D02*
X020054Y028813D01*
X020054Y028814D02*
X019956Y028814D01*
X019956Y028815D02*
X020054Y028815D01*
X020054Y028816D02*
X019956Y028816D01*
X019956Y028817D02*
X020054Y028817D01*
X020054Y028818D02*
X019956Y028818D01*
X019956Y028819D02*
X020054Y028819D01*
X020054Y028820D02*
X019956Y028820D01*
X019956Y028821D02*
X020054Y028821D01*
X020054Y028822D02*
X019956Y028822D01*
X019956Y028823D02*
X020054Y028823D01*
X020054Y028824D02*
X019956Y028824D01*
X019956Y028825D02*
X020054Y028825D01*
X020054Y028826D02*
X019956Y028826D01*
X019956Y028827D02*
X020054Y028827D01*
X020054Y028828D02*
X019956Y028828D01*
X019956Y028829D02*
X020054Y028829D01*
X020054Y028830D02*
X019956Y028830D01*
X019956Y028831D02*
X020054Y028831D01*
X020054Y028832D02*
X019956Y028832D01*
X019956Y028833D02*
X020054Y028833D01*
X020054Y028834D02*
X019956Y028834D01*
X019956Y028835D02*
X020054Y028835D01*
X020054Y028836D02*
X019956Y028836D01*
X019956Y028837D02*
X020054Y028837D01*
X020054Y028838D02*
X019956Y028838D01*
X019956Y028839D02*
X020054Y028839D01*
X020054Y028840D02*
X019956Y028840D01*
X019956Y028841D02*
X020054Y028841D01*
X020054Y028842D02*
X019956Y028842D01*
X019956Y028843D02*
X020054Y028843D01*
X020054Y028844D02*
X019956Y028844D01*
X019956Y028845D02*
X020054Y028845D01*
X020054Y028846D02*
X019956Y028846D01*
X019956Y028847D02*
X020054Y028847D01*
X020054Y028848D02*
X019956Y028848D01*
X019956Y028849D02*
X020054Y028849D01*
X020054Y028850D02*
X019956Y028850D01*
X019956Y028851D02*
X020054Y028851D01*
X020054Y028852D02*
X019956Y028852D01*
X019956Y028853D02*
X020054Y028853D01*
X020054Y028854D02*
X019956Y028854D01*
X019956Y028855D02*
X020054Y028855D01*
X020054Y028856D02*
X019956Y028856D01*
X019956Y028857D02*
X020054Y028857D01*
X020054Y028858D02*
X019956Y028858D01*
X019956Y028859D02*
X020054Y028859D01*
X020054Y028860D02*
X019956Y028860D01*
X019956Y028861D02*
X020054Y028861D01*
X020054Y028862D02*
X019956Y028862D01*
X019956Y028863D02*
X020054Y028863D01*
X020054Y028864D02*
X019956Y028864D01*
X019956Y028865D02*
X020054Y028865D01*
X020054Y028866D02*
X019956Y028866D01*
X019956Y028867D02*
X020054Y028867D01*
X020054Y028868D02*
X019956Y028868D01*
X019956Y028869D02*
X020054Y028869D01*
X020054Y028870D02*
X019956Y028870D01*
X019956Y028871D02*
X020054Y028871D01*
X020054Y028872D02*
X019956Y028872D01*
X019956Y028873D02*
X020054Y028873D01*
X020054Y028874D02*
X019956Y028874D01*
X019956Y028875D02*
X020054Y028875D01*
X020054Y028876D02*
X019956Y028876D01*
X019956Y028877D02*
X020054Y028877D01*
X020054Y028878D02*
X019956Y028878D01*
X019956Y028879D02*
X020054Y028879D01*
X020054Y028880D02*
X019956Y028880D01*
X019956Y028881D02*
X020054Y028881D01*
X020054Y028882D02*
X019956Y028882D01*
X019956Y028883D02*
X020054Y028883D01*
X020054Y028884D02*
X019957Y028884D01*
X019958Y028885D02*
X020054Y028885D01*
X020054Y028886D02*
X019959Y028886D01*
X019960Y028887D02*
X020054Y028887D01*
X020054Y028888D02*
X019961Y028888D01*
X019962Y028889D02*
X020054Y028889D01*
X020054Y028890D02*
X019963Y028890D01*
X019964Y028891D02*
X020054Y028891D01*
X020054Y028892D02*
X019965Y028892D01*
X019966Y028893D02*
X020054Y028893D01*
X020054Y028894D02*
X019967Y028894D01*
X019968Y028895D02*
X020054Y028895D01*
X020054Y028896D02*
X019969Y028896D01*
X019970Y028897D02*
X020054Y028897D01*
X020054Y028898D02*
X019971Y028898D01*
X019972Y028899D02*
X020054Y028899D01*
X020054Y028900D02*
X019973Y028900D01*
X019973Y028901D02*
X020054Y028901D01*
X020054Y028902D02*
X019974Y028902D01*
X019975Y028903D02*
X020054Y028903D01*
X020054Y028904D02*
X019976Y028904D01*
X019977Y028905D02*
X020054Y028905D01*
X020054Y028906D02*
X019978Y028906D01*
X019979Y028907D02*
X020054Y028907D01*
X020054Y028908D02*
X019980Y028908D01*
X019981Y028909D02*
X020054Y028909D01*
X020054Y028910D02*
X019982Y028910D01*
X019983Y028911D02*
X020054Y028911D01*
X020054Y028912D02*
X019984Y028912D01*
X019985Y028913D02*
X020054Y028913D01*
X020054Y028914D02*
X019986Y028914D01*
X019987Y028915D02*
X020054Y028915D01*
X020054Y028916D02*
X019988Y028916D01*
X019989Y028917D02*
X020054Y028917D01*
X020054Y028918D02*
X019990Y028918D01*
X019991Y028919D02*
X020054Y028919D01*
X020054Y028920D02*
X019992Y028920D01*
X019993Y028921D02*
X020054Y028921D01*
X020054Y028922D02*
X019994Y028922D01*
X019995Y028923D02*
X020054Y028923D01*
X020054Y028924D02*
X019996Y028924D01*
X019997Y028925D02*
X020054Y028925D01*
X020054Y028926D02*
X019998Y028926D01*
X019999Y028927D02*
X020054Y028927D01*
X020054Y028928D02*
X020000Y028928D01*
X020001Y028929D02*
X020054Y028929D01*
X020054Y028930D02*
X020002Y028930D01*
X020003Y028931D02*
X020054Y028931D01*
X020054Y028932D02*
X020004Y028932D01*
X019956Y028754D02*
X020054Y028754D01*
X020054Y028753D02*
X019956Y028753D01*
X019956Y028752D02*
X020054Y028752D01*
X020054Y028751D02*
X019956Y028751D01*
X019956Y028750D02*
X020054Y028750D01*
X020054Y028749D02*
X019956Y028749D01*
X019956Y028748D02*
X020054Y028748D01*
X020054Y028747D02*
X019956Y028747D01*
X019956Y028746D02*
X020054Y028746D01*
X020054Y028745D02*
X019956Y028745D01*
X019956Y028744D02*
X020054Y028744D01*
X020054Y028743D02*
X019956Y028743D01*
X019956Y028742D02*
X020054Y028742D01*
X020054Y028741D02*
X019956Y028741D01*
X019956Y028740D02*
X020054Y028740D01*
X020054Y028739D02*
X019956Y028739D01*
X019956Y028738D02*
X020054Y028738D01*
X020054Y028737D02*
X019956Y028737D01*
X019956Y028736D02*
X020054Y028736D01*
X020054Y028735D02*
X019956Y028735D01*
X019956Y028734D02*
X020054Y028734D01*
X020054Y028733D02*
X019956Y028733D01*
X019956Y028732D02*
X020054Y028732D01*
X020054Y028731D02*
X019956Y028731D01*
X019956Y028730D02*
X020054Y028730D01*
X020054Y028729D02*
X019956Y028729D01*
X019956Y028728D02*
X020054Y028728D01*
X020054Y028727D02*
X019956Y028727D01*
X019956Y028726D02*
X020054Y028726D01*
X020054Y028725D02*
X019956Y028725D01*
X019956Y028724D02*
X020054Y028724D01*
X020054Y028723D02*
X019956Y028723D01*
X019956Y028722D02*
X020054Y028722D01*
X020054Y028721D02*
X019956Y028721D01*
X019956Y028720D02*
X020054Y028720D01*
X020054Y028719D02*
X019956Y028719D01*
X019956Y028718D02*
X020054Y028718D01*
X020054Y028717D02*
X019956Y028717D01*
X019956Y028716D02*
X020054Y028716D01*
X020054Y028715D02*
X019956Y028715D01*
X019956Y028714D02*
X020054Y028714D01*
X020054Y028713D02*
X019956Y028713D01*
X019956Y028712D02*
X020054Y028712D01*
X020054Y028711D02*
X019956Y028711D01*
X019956Y028710D02*
X020054Y028710D01*
X020054Y028709D02*
X019956Y028709D01*
X019956Y028708D02*
X020054Y028708D01*
X020054Y028707D02*
X019956Y028707D01*
X019956Y028706D02*
X020054Y028706D01*
X020054Y028705D02*
X019956Y028705D01*
X019956Y028704D02*
X020054Y028704D01*
X020054Y028703D02*
X019956Y028703D01*
X019956Y028702D02*
X020054Y028702D01*
X020054Y028701D02*
X019956Y028701D01*
X019956Y028700D02*
X020054Y028700D01*
X020054Y028699D02*
X019956Y028699D01*
X019956Y028698D02*
X020054Y028698D01*
X020054Y028697D02*
X019956Y028697D01*
X019956Y028696D02*
X020054Y028696D01*
X020054Y028695D02*
X019956Y028695D01*
X019956Y028694D02*
X020054Y028694D01*
X020054Y028693D02*
X019956Y028693D01*
X019956Y028692D02*
X020054Y028692D01*
X020054Y028691D02*
X019956Y028691D01*
X019956Y028690D02*
X020054Y028690D01*
X020054Y028689D02*
X019956Y028689D01*
X019956Y028688D02*
X020054Y028688D01*
X020054Y028687D02*
X019956Y028687D01*
X019956Y028686D02*
X020054Y028686D01*
X020054Y028685D02*
X019956Y028685D01*
X019956Y028684D02*
X020054Y028684D01*
X020054Y028683D02*
X019956Y028683D01*
X019956Y028682D02*
X020054Y028682D01*
X020054Y028681D02*
X019956Y028681D01*
X019956Y028680D02*
X020054Y028680D01*
X020054Y028679D02*
X019956Y028679D01*
X019956Y028678D02*
X020054Y028678D01*
X020054Y028677D02*
X019956Y028677D01*
X019956Y028676D02*
X020054Y028676D01*
X020054Y028675D02*
X019956Y028675D01*
X019956Y028674D02*
X020054Y028674D01*
X020054Y028673D02*
X019956Y028673D01*
X019956Y028672D02*
X020054Y028672D01*
X020054Y028671D02*
X019956Y028671D01*
X019956Y028670D02*
X020054Y028670D01*
X020054Y028669D02*
X019956Y028669D01*
X019956Y028668D02*
X020054Y028668D01*
X020054Y028667D02*
X019956Y028667D01*
X019956Y028666D02*
X020054Y028666D01*
X020054Y028665D02*
X019956Y028665D01*
X019956Y028664D02*
X020054Y028664D01*
X020054Y028663D02*
X019956Y028663D01*
X019956Y028662D02*
X020054Y028662D01*
X020054Y028661D02*
X019956Y028661D01*
X019956Y028660D02*
X020054Y028660D01*
X020054Y028659D02*
X019956Y028659D01*
X019956Y028658D02*
X020054Y028658D01*
X020054Y028657D02*
X019956Y028657D01*
X019956Y028656D02*
X020054Y028656D01*
X020054Y028655D02*
X019956Y028655D01*
X019956Y028654D02*
X020054Y028654D01*
X020054Y028653D02*
X019956Y028653D01*
X019956Y028652D02*
X020054Y028652D01*
X020054Y028651D02*
X019956Y028651D01*
X019956Y028650D02*
X020054Y028650D01*
X020054Y028649D02*
X019956Y028649D01*
X019956Y028648D02*
X020054Y028648D01*
X020054Y028647D02*
X019956Y028647D01*
X019956Y028646D02*
X020054Y028646D01*
X020054Y028645D02*
X019956Y028645D01*
X019956Y028644D02*
X020054Y028644D01*
X020054Y028643D02*
X019956Y028643D01*
X019956Y028642D02*
X020054Y028642D01*
X020054Y028641D02*
X019956Y028641D01*
X019956Y028640D02*
X020054Y028640D01*
X020054Y028639D02*
X019956Y028639D01*
X019956Y028638D02*
X020054Y028638D01*
X020054Y028637D02*
X019956Y028637D01*
X017608Y034005D02*
X016647Y034005D01*
X016647Y034006D02*
X017608Y034006D01*
X017608Y034007D02*
X016647Y034007D01*
X016647Y034008D02*
X017608Y034008D01*
X017608Y034009D02*
X016647Y034009D01*
X016647Y034010D02*
X017608Y034010D01*
X017608Y034011D02*
X016647Y034011D01*
X016647Y034012D02*
X017608Y034012D01*
X017608Y034013D02*
X016647Y034013D01*
X016647Y034014D02*
X017608Y034014D01*
X017608Y034015D02*
X016647Y034015D01*
X016647Y034016D02*
X017608Y034016D01*
X017608Y034017D02*
X016647Y034017D01*
X016647Y034018D02*
X017608Y034018D01*
X017608Y034019D02*
X016647Y034019D01*
X016647Y034020D02*
X017608Y034020D01*
X017608Y034021D02*
X016647Y034021D01*
X016647Y034022D02*
X017608Y034022D01*
X017608Y034023D02*
X016647Y034023D01*
X016647Y034024D02*
X017608Y034024D01*
X017608Y034025D02*
X016647Y034025D01*
X016647Y034026D02*
X017608Y034026D01*
X017608Y034027D02*
X016647Y034027D01*
X016647Y034028D02*
X017608Y034028D01*
X017608Y034029D02*
X016647Y034029D01*
X016647Y034030D02*
X017608Y034030D01*
X017608Y034031D02*
X016647Y034031D01*
X016647Y034032D02*
X017608Y034032D01*
X017608Y034033D02*
X016647Y034033D01*
X016647Y034034D02*
X017608Y034034D01*
X017608Y034035D02*
X016647Y034035D01*
X016647Y034036D02*
X017608Y034036D01*
X017608Y034037D02*
X016647Y034037D01*
X016647Y034038D02*
X017608Y034038D01*
X017608Y034039D02*
X016647Y034039D01*
X016647Y034040D02*
X017608Y034040D01*
X017608Y034041D02*
X016647Y034041D01*
X016647Y034042D02*
X017608Y034042D01*
X017608Y034043D02*
X016647Y034043D01*
X016647Y034044D02*
X017608Y034044D01*
X017608Y034045D02*
X016647Y034045D01*
X016647Y034046D02*
X017608Y034046D01*
X017608Y034047D02*
X016647Y034047D01*
X016647Y034048D02*
X017608Y034048D01*
X017608Y034049D02*
X016647Y034049D01*
X016647Y034050D02*
X017608Y034050D01*
X017608Y034051D02*
X016647Y034051D01*
X016647Y034052D02*
X017608Y034052D01*
X017608Y034053D02*
X016647Y034053D01*
X016647Y034054D02*
X017608Y034054D01*
X017608Y034055D02*
X016647Y034055D01*
X016647Y034056D02*
X017608Y034056D01*
X017608Y034057D02*
X016647Y034057D01*
X016647Y034058D02*
X017608Y034058D01*
X017608Y034059D02*
X016647Y034059D01*
X016647Y034060D02*
X017608Y034060D01*
X017608Y034061D02*
X016647Y034061D01*
X016647Y034062D02*
X017608Y034062D01*
X017608Y034063D02*
X016647Y034063D01*
X016647Y034064D02*
X017608Y034064D01*
X017608Y034065D02*
X016647Y034065D01*
X016647Y034066D02*
X017608Y034066D01*
X017608Y034067D02*
X016647Y034067D01*
X016647Y034068D02*
X017608Y034068D01*
X017608Y034069D02*
X016647Y034069D01*
X016647Y034070D02*
X017608Y034070D01*
X017608Y034071D02*
X016647Y034071D01*
X016647Y034072D02*
X017608Y034072D01*
X017608Y034073D02*
X016647Y034073D01*
X016647Y034074D02*
X017608Y034074D01*
X017608Y034075D02*
X016647Y034075D01*
X016647Y034076D02*
X017608Y034076D01*
X017608Y034077D02*
X016647Y034077D01*
X016647Y034078D02*
X017608Y034078D01*
X017608Y034079D02*
X016647Y034079D01*
X016647Y034080D02*
X017608Y034080D01*
X017608Y034081D02*
X016647Y034081D01*
X016647Y034082D02*
X017608Y034082D01*
X017608Y034083D02*
X016647Y034083D01*
X016647Y034084D02*
X017608Y034084D01*
X017608Y034085D02*
X016647Y034085D01*
X016647Y034086D02*
X017608Y034086D01*
X017608Y034087D02*
X016647Y034087D01*
X016647Y034088D02*
X017608Y034088D01*
X017608Y034089D02*
X016647Y034089D01*
X016647Y034090D02*
X017608Y034090D01*
X017608Y034091D02*
X016647Y034091D01*
X016647Y034092D02*
X017608Y034092D01*
X017608Y034093D02*
X016647Y034093D01*
X016647Y034094D02*
X017608Y034094D01*
X017608Y034095D02*
X016647Y034095D01*
X016647Y034096D02*
X017608Y034096D01*
X017608Y034097D02*
X016647Y034097D01*
X016647Y034098D02*
X017608Y034098D01*
X017608Y034099D02*
X016647Y034099D01*
X016647Y034100D02*
X017608Y034100D01*
X017608Y034101D02*
X016647Y034101D01*
X016647Y034102D02*
X017608Y034102D01*
X017608Y034103D02*
X016647Y034103D01*
X016647Y034104D02*
X017608Y034104D01*
X017608Y034105D02*
X016647Y034105D01*
X016647Y034106D02*
X017608Y034106D01*
X017608Y034107D02*
X016647Y034107D01*
X016647Y034108D02*
X017608Y034108D01*
X017608Y034109D02*
X016647Y034109D01*
X016647Y034110D02*
X017608Y034110D01*
X017608Y034111D02*
X016647Y034111D01*
X016647Y034112D02*
X017608Y034112D01*
X017608Y034113D02*
X016647Y034113D01*
X016647Y034114D02*
X017608Y034114D01*
X017608Y034115D02*
X016647Y034115D01*
X016647Y034116D02*
X017608Y034116D01*
X017608Y034117D02*
X016647Y034117D01*
X016647Y034118D02*
X017608Y034118D01*
X017608Y034119D02*
X016647Y034119D01*
X016647Y034120D02*
X017608Y034120D01*
X017608Y034121D02*
X016647Y034121D01*
X016647Y034122D02*
X017608Y034122D01*
X017608Y034123D02*
X016647Y034123D01*
X016647Y034124D02*
X017608Y034124D01*
X017608Y034125D02*
X016647Y034125D01*
X016647Y034126D02*
X017608Y034126D01*
X017608Y034127D02*
X016647Y034127D01*
X016647Y034128D02*
X017608Y034128D01*
X017608Y034129D02*
X016647Y034129D01*
X016647Y034130D02*
X017608Y034130D01*
X017608Y034131D02*
X016647Y034131D01*
X016647Y034132D02*
X017608Y034132D01*
X017608Y034133D02*
X016647Y034133D01*
X016647Y034134D02*
X017608Y034134D01*
X017608Y034135D02*
X016647Y034135D01*
X016647Y034136D02*
X017608Y034136D01*
X017608Y034137D02*
X016647Y034137D01*
X016647Y034138D02*
X017608Y034138D01*
X017608Y034139D02*
X016647Y034139D01*
X016647Y034140D02*
X017608Y034140D01*
X017608Y034141D02*
X016647Y034141D01*
X016647Y034142D02*
X017608Y034142D01*
X017608Y034143D02*
X016647Y034143D01*
X017608Y034143D01*
X017608Y034144D02*
X016647Y034144D01*
X016647Y034145D02*
X017608Y034145D01*
X017608Y034146D02*
X016647Y034146D01*
X016647Y034147D02*
X017608Y034147D01*
X017608Y034148D02*
X016647Y034148D01*
X016647Y034149D02*
X017608Y034149D01*
X017608Y034150D02*
X016647Y034150D01*
X016647Y034151D02*
X017608Y034151D01*
X017608Y034152D02*
X016647Y034152D01*
X016647Y034153D02*
X017608Y034153D01*
X017608Y034154D02*
X016647Y034154D01*
X016647Y034155D02*
X017608Y034155D01*
X017608Y034156D02*
X016647Y034156D01*
X016647Y034157D02*
X017608Y034157D01*
X017608Y034158D02*
X016647Y034158D01*
X016647Y034159D02*
X017608Y034159D01*
X017608Y034160D02*
X016647Y034160D01*
X016647Y034161D02*
X017608Y034161D01*
X017608Y034162D02*
X016647Y034162D01*
X016647Y034163D02*
X017608Y034163D01*
X017608Y034164D02*
X016647Y034164D01*
X016647Y034165D02*
X017608Y034165D01*
X017608Y034166D02*
X016647Y034166D01*
X016647Y034167D02*
X017608Y034167D01*
X017608Y034168D02*
X016647Y034168D01*
X016647Y034169D02*
X017608Y034169D01*
X017608Y034170D02*
X016647Y034170D01*
X016647Y034171D02*
X017608Y034171D01*
X017608Y034172D02*
X016647Y034172D01*
X016647Y034173D02*
X017608Y034173D01*
X017608Y034174D02*
X016647Y034174D01*
X016647Y034175D02*
X017608Y034175D01*
X017608Y034176D02*
X016647Y034176D01*
X016647Y034177D02*
X017608Y034177D01*
X017608Y034178D02*
X016647Y034178D01*
X016647Y034179D02*
X017608Y034179D01*
X017608Y034180D02*
X016647Y034180D01*
X016647Y034181D02*
X017608Y034181D01*
X017608Y034182D02*
X016647Y034182D01*
X016647Y034183D02*
X017608Y034183D01*
X017608Y034184D02*
X016647Y034184D01*
X016647Y034185D02*
X017608Y034185D01*
X017608Y034186D02*
X016647Y034186D01*
X016647Y034187D02*
X017608Y034187D01*
X017608Y034188D02*
X016647Y034188D01*
X016647Y034189D02*
X017608Y034189D01*
X017608Y034190D02*
X016647Y034190D01*
X016647Y034191D02*
X017608Y034191D01*
X017608Y034192D02*
X016647Y034192D01*
X016647Y034193D02*
X017608Y034193D01*
X017608Y034194D02*
X016647Y034194D01*
X016647Y034195D02*
X017608Y034195D01*
X017608Y034196D02*
X016647Y034196D01*
X016647Y034197D02*
X017608Y034197D01*
X017608Y034198D02*
X016647Y034198D01*
X016647Y034199D02*
X017608Y034199D01*
X017608Y034200D02*
X016647Y034200D01*
X016647Y034201D02*
X017608Y034201D01*
X017608Y034202D02*
X016647Y034202D01*
X016647Y034203D02*
X017608Y034203D01*
X017608Y034204D02*
X016647Y034204D01*
X016647Y034205D02*
X017608Y034205D01*
X017608Y034206D02*
X016647Y034206D01*
X016647Y034207D02*
X017608Y034207D01*
X017608Y034208D02*
X016647Y034208D01*
X016647Y034209D02*
X017608Y034209D01*
X017608Y034210D02*
X016647Y034210D01*
X016647Y034211D02*
X017608Y034211D01*
X017608Y034212D02*
X016647Y034212D01*
X016647Y034213D02*
X017608Y034213D01*
X017608Y034214D02*
X016647Y034214D01*
X016647Y034215D02*
X017608Y034215D01*
X017608Y034216D02*
X016647Y034216D01*
X016647Y034217D02*
X017608Y034217D01*
X017608Y034218D02*
X016647Y034218D01*
X016647Y034219D02*
X017608Y034219D01*
X017608Y034220D02*
X016647Y034220D01*
X016647Y034221D02*
X017608Y034221D01*
X017608Y034222D02*
X016647Y034222D01*
X016647Y034223D02*
X017608Y034223D01*
X017608Y034224D02*
X016647Y034224D01*
X016647Y034225D02*
X017608Y034225D01*
X017608Y034226D02*
X016647Y034226D01*
X016647Y034227D02*
X017608Y034227D01*
X017608Y034228D02*
X016647Y034228D01*
X016647Y034229D02*
X017608Y034229D01*
X017608Y034230D02*
X016647Y034230D01*
X016647Y034231D02*
X017608Y034231D01*
X017608Y034232D02*
X016647Y034232D01*
X016647Y034233D02*
X017608Y034233D01*
X017608Y034234D02*
X016647Y034234D01*
X016647Y034235D02*
X017608Y034235D01*
X017608Y034236D02*
X016647Y034236D01*
X016647Y034237D02*
X017608Y034237D01*
X017608Y034238D02*
X016647Y034238D01*
X016647Y034239D02*
X017608Y034239D01*
X017608Y034240D02*
X016647Y034240D01*
X016647Y034241D02*
X017608Y034241D01*
X017608Y034242D02*
X016647Y034242D01*
X016647Y034243D02*
X017608Y034243D01*
X017608Y034244D02*
X016647Y034244D01*
X016647Y034245D02*
X017608Y034245D01*
X017608Y034246D02*
X016647Y034246D01*
X016647Y034247D02*
X017608Y034247D01*
X017608Y034248D02*
X016647Y034248D01*
X016647Y034249D02*
X017608Y034249D01*
X017608Y034250D02*
X016647Y034250D01*
X016647Y034251D02*
X017608Y034251D01*
X017608Y034252D02*
X016647Y034252D01*
X016647Y034253D02*
X017608Y034253D01*
X017608Y034254D02*
X016647Y034254D01*
X016647Y034255D02*
X017608Y034255D01*
X017608Y034256D02*
X016647Y034256D01*
X016647Y034257D02*
X017608Y034257D01*
X017608Y034258D02*
X016647Y034258D01*
X016647Y034259D02*
X017608Y034259D01*
X017608Y034260D02*
X016647Y034260D01*
X016647Y034261D02*
X017608Y034261D01*
X017608Y034262D02*
X016647Y034262D01*
X016647Y034263D02*
X017608Y034263D01*
X017600Y034004D02*
X016647Y034004D01*
X016647Y034003D02*
X017474Y034003D01*
X017349Y034002D02*
X016647Y034002D01*
X016647Y034001D02*
X017223Y034001D01*
X017097Y034000D02*
X016647Y034000D01*
X016647Y033999D02*
X016972Y033999D01*
X016846Y033998D02*
X016647Y033998D01*
X016647Y033997D02*
X016720Y033997D01*
X016647Y034264D02*
X017047Y034264D01*
X017047Y034265D02*
X016647Y034265D01*
X016647Y034266D02*
X017047Y034266D01*
X017047Y034267D02*
X016647Y034267D01*
X016647Y034268D02*
X017047Y034268D01*
X017047Y034269D02*
X016647Y034269D01*
X016647Y034270D02*
X017047Y034270D01*
X017047Y034271D02*
X016647Y034271D01*
X016647Y034272D02*
X017047Y034272D01*
X017047Y034273D02*
X016647Y034273D01*
X016647Y034274D02*
X017047Y034274D01*
X017047Y034275D02*
X016647Y034275D01*
X016647Y034276D02*
X017047Y034276D01*
X017047Y034277D02*
X016647Y034277D01*
X016647Y034278D02*
X017047Y034278D01*
X017047Y034279D02*
X016647Y034279D01*
X016647Y034280D02*
X017047Y034280D01*
X017047Y034281D02*
X016647Y034281D01*
X016647Y034282D02*
X017047Y034282D01*
X017047Y034283D02*
X016647Y034283D01*
X016647Y034284D02*
X017047Y034284D01*
X017047Y034285D02*
X016647Y034285D01*
X016647Y034286D02*
X017047Y034286D01*
X017047Y034287D02*
X016647Y034287D01*
X016647Y034288D02*
X017047Y034288D01*
X017047Y034289D02*
X016647Y034289D01*
X016647Y034290D02*
X017047Y034290D01*
X017047Y034291D02*
X016647Y034291D01*
X016647Y034292D02*
X017047Y034292D01*
X017047Y034293D02*
X016647Y034293D01*
X016647Y034294D02*
X017047Y034294D01*
X017047Y034295D02*
X016647Y034295D01*
X016647Y034296D02*
X017047Y034296D01*
X017047Y034297D02*
X016647Y034297D01*
X016647Y034298D02*
X017047Y034298D01*
X017047Y034299D02*
X016647Y034299D01*
X016647Y034300D02*
X017047Y034300D01*
X017047Y034301D02*
X016647Y034301D01*
X016647Y034302D02*
X017047Y034302D01*
X017047Y034303D02*
X016647Y034303D01*
X016647Y034304D02*
X017047Y034304D01*
X017047Y034305D02*
X016647Y034305D01*
X016647Y034306D02*
X017047Y034306D01*
X017047Y034307D02*
X016647Y034307D01*
X016647Y034308D02*
X017047Y034308D01*
X017047Y034309D02*
X016647Y034309D01*
X016647Y034310D02*
X017047Y034310D01*
X017047Y034311D02*
X016647Y034311D01*
X016647Y034312D02*
X017047Y034312D01*
X017047Y034313D02*
X016647Y034313D01*
X016647Y034314D02*
X017047Y034314D01*
X017047Y034315D02*
X016647Y034315D01*
X016647Y034316D02*
X017047Y034316D01*
X017047Y034317D02*
X016647Y034317D01*
X016647Y034318D02*
X017047Y034318D01*
X017047Y034319D02*
X016647Y034319D01*
X016647Y034320D02*
X017047Y034320D01*
X017047Y034321D02*
X016647Y034321D01*
X016647Y034322D02*
X017047Y034322D01*
X017047Y034323D02*
X016647Y034323D01*
X016647Y034324D02*
X017047Y034324D01*
X017047Y034325D02*
X016647Y034325D01*
X016647Y034326D02*
X017047Y034326D01*
X017047Y034327D02*
X016647Y034327D01*
X016647Y034328D02*
X017047Y034328D01*
X017047Y034329D02*
X016647Y034329D01*
X016647Y034330D02*
X017047Y034330D01*
X017047Y034331D02*
X016647Y034331D01*
X016647Y034332D02*
X017047Y034332D01*
X017047Y034333D02*
X016647Y034333D01*
X016647Y034334D02*
X017047Y034334D01*
X017047Y034335D02*
X016647Y034335D01*
X016647Y034336D02*
X017047Y034336D01*
X017047Y034337D02*
X016647Y034337D01*
X016647Y034338D02*
X017047Y034338D01*
X017047Y034339D02*
X016647Y034339D01*
X016647Y034340D02*
X017047Y034340D01*
X017047Y034341D02*
X016647Y034341D01*
X016647Y034342D02*
X017047Y034342D01*
X017047Y034343D02*
X016647Y034343D01*
X016647Y034344D02*
X017047Y034344D01*
X017047Y034345D02*
X016647Y034345D01*
X016647Y034346D02*
X017047Y034346D01*
X017047Y034347D02*
X016647Y034347D01*
X016647Y034348D02*
X017047Y034348D01*
X017047Y034349D02*
X016647Y034349D01*
X016647Y034350D02*
X017047Y034350D01*
X017047Y034351D02*
X016647Y034351D01*
X016647Y034352D02*
X017047Y034352D01*
X017047Y034353D02*
X016647Y034353D01*
X016647Y034354D02*
X017047Y034354D01*
X017047Y034355D02*
X016647Y034355D01*
X016647Y034356D02*
X017047Y034356D01*
X017047Y034357D02*
X016647Y034357D01*
X016647Y034358D02*
X017047Y034358D01*
X017047Y034359D02*
X016647Y034359D01*
X016647Y034360D02*
X017047Y034360D01*
X017047Y034361D02*
X016647Y034361D01*
X016647Y034362D02*
X017047Y034362D01*
X017047Y034363D02*
X016647Y034363D01*
X016647Y034364D02*
X017047Y034364D01*
X017047Y034365D02*
X016647Y034365D01*
X016647Y034366D02*
X017047Y034366D01*
X017047Y034367D02*
X016647Y034367D01*
X016647Y034368D02*
X017047Y034368D01*
X017047Y034369D02*
X016647Y034369D01*
X016647Y034370D02*
X017047Y034370D01*
X017047Y034371D02*
X016647Y034371D01*
X016647Y034372D02*
X017047Y034372D01*
X017047Y034373D02*
X016647Y034373D01*
X016647Y034374D02*
X017047Y034374D01*
X017047Y034375D02*
X016647Y034375D01*
X016647Y034376D02*
X017047Y034376D01*
X017047Y034377D02*
X016647Y034377D01*
X016647Y034378D02*
X017047Y034378D01*
X017047Y034379D02*
X016647Y034379D01*
X016647Y034380D02*
X017047Y034380D01*
X017047Y034381D02*
X016647Y034381D01*
X016647Y034382D02*
X017047Y034382D01*
X017047Y034383D02*
X016647Y034383D01*
X016647Y034384D02*
X017047Y034384D01*
X017047Y034385D02*
X016647Y034385D01*
X016647Y034386D02*
X017047Y034386D01*
X017047Y034387D02*
X016647Y034387D01*
X016647Y034388D02*
X017047Y034388D01*
X017047Y034389D02*
X016647Y034389D01*
X016647Y034390D02*
X017047Y034390D01*
X017047Y034391D02*
X016647Y034391D01*
X016647Y034392D02*
X017047Y034392D01*
X017047Y034393D02*
X016647Y034393D01*
X016647Y034394D02*
X017047Y034394D01*
X017047Y034395D02*
X016647Y034395D01*
X016647Y034396D02*
X017047Y034396D01*
X017047Y034397D02*
X016647Y034397D01*
X016647Y034398D02*
X017047Y034398D01*
X017047Y034399D02*
X016647Y034399D01*
X016647Y034400D02*
X017047Y034400D01*
X017047Y034401D02*
X016647Y034401D01*
X016647Y034402D02*
X017047Y034402D01*
X017047Y034403D02*
X016647Y034403D01*
X016647Y034404D02*
X017047Y034404D01*
X017047Y034405D02*
X016647Y034405D01*
X016647Y034406D02*
X017047Y034406D01*
X017047Y034407D02*
X016647Y034407D01*
X016647Y034408D02*
X017047Y034408D01*
X017047Y034409D02*
X016647Y034409D01*
X016647Y034410D02*
X017047Y034410D01*
X017047Y034411D02*
X016647Y034411D01*
X016647Y034412D02*
X017047Y034412D01*
X017047Y034413D02*
X016647Y034413D01*
X016647Y034414D02*
X017047Y034414D01*
X017047Y034415D02*
X016647Y034415D01*
X016647Y034416D02*
X017047Y034416D01*
X017047Y034417D02*
X016647Y034417D01*
X016647Y034418D02*
X017047Y034418D01*
X017047Y034419D02*
X016647Y034419D01*
X016647Y034420D02*
X017047Y034420D01*
X017047Y034421D02*
X016647Y034421D01*
X016647Y034422D02*
X017047Y034422D01*
X017047Y034423D02*
X016647Y034423D01*
X016647Y034424D02*
X017047Y034424D01*
X017047Y034425D02*
X016647Y034425D01*
X016647Y034426D02*
X017047Y034426D01*
X017047Y034427D02*
X016647Y034427D01*
X016647Y034428D02*
X017047Y034428D01*
X017047Y034429D02*
X016647Y034429D01*
X016647Y034430D02*
X017047Y034430D01*
X017047Y034431D02*
X016647Y034431D01*
X016647Y034432D02*
X017047Y034432D01*
X017047Y034433D02*
X016647Y034433D01*
X016647Y034434D02*
X017047Y034434D01*
X017047Y034435D02*
X016647Y034435D01*
X016647Y034436D02*
X017047Y034436D01*
X017047Y034437D02*
X016647Y034437D01*
X016647Y034438D02*
X017047Y034438D01*
X017047Y034439D02*
X016647Y034439D01*
X016647Y034440D02*
X017047Y034440D01*
X017047Y034441D02*
X016647Y034441D01*
X016647Y034442D02*
X017047Y034442D01*
X017047Y034443D02*
X016647Y034443D01*
X016647Y034444D02*
X017047Y034444D01*
X017047Y034445D02*
X016647Y034445D01*
X016647Y034446D02*
X017047Y034446D01*
X017047Y034447D02*
X016647Y034447D01*
X016647Y034448D02*
X017047Y034448D01*
X017047Y034449D02*
X016647Y034449D01*
X016647Y034450D02*
X017047Y034450D01*
X017047Y034451D02*
X016647Y034451D01*
X016647Y034452D02*
X017047Y034452D01*
X017047Y034453D02*
X016647Y034453D01*
X016647Y034454D02*
X017047Y034454D01*
X017047Y034455D02*
X016647Y034455D01*
X016647Y034456D02*
X017047Y034456D01*
X017047Y034457D02*
X016647Y034457D01*
X016647Y034458D02*
X017047Y034458D01*
X017047Y034459D02*
X016647Y034459D01*
X016647Y034460D02*
X017047Y034460D01*
X017047Y034461D02*
X016647Y034461D01*
X016647Y034462D02*
X017047Y034462D01*
X017047Y034463D02*
X016647Y034463D01*
X016647Y034464D02*
X017047Y034464D01*
X017047Y034465D02*
X016647Y034465D01*
X016647Y034466D02*
X017047Y034466D01*
X017047Y034467D02*
X016647Y034467D01*
X016647Y034468D02*
X017047Y034468D01*
X017047Y034469D02*
X016647Y034469D01*
X016647Y034470D02*
X017047Y034470D01*
X017047Y034471D02*
X016647Y034471D01*
X016647Y034472D02*
X017047Y034472D01*
X017047Y034473D02*
X016647Y034473D01*
X016647Y034474D02*
X017047Y034474D01*
X017047Y034475D02*
X016647Y034475D01*
X016647Y034476D02*
X017047Y034476D01*
X017047Y034477D02*
X016647Y034477D01*
X016647Y034478D02*
X017047Y034478D01*
X017047Y034479D02*
X016647Y034479D01*
X016647Y034480D02*
X017047Y034480D01*
X017047Y034481D02*
X016647Y034481D01*
X016647Y034482D02*
X017047Y034482D01*
X017047Y034483D02*
X016647Y034483D01*
X016647Y034484D02*
X017047Y034484D01*
X017047Y034485D02*
X016647Y034485D01*
X016647Y034486D02*
X017047Y034486D01*
X017047Y034487D02*
X016647Y034487D01*
X016647Y034488D02*
X017047Y034488D01*
X017047Y034489D02*
X016647Y034489D01*
X016647Y034490D02*
X017047Y034490D01*
X017047Y034491D02*
X016647Y034491D01*
X016647Y034492D02*
X017047Y034492D01*
X017047Y034493D02*
X016647Y034493D01*
X016647Y034494D02*
X017047Y034494D01*
X017047Y034495D02*
X016647Y034495D01*
X016647Y034496D02*
X017047Y034496D01*
X017047Y034497D02*
X016647Y034497D01*
X016647Y034498D02*
X017047Y034498D01*
X017047Y034499D02*
X016647Y034499D01*
X016647Y034500D02*
X017047Y034500D01*
X017047Y034501D02*
X016647Y034501D01*
X016647Y034502D02*
X017047Y034502D01*
X017047Y034503D02*
X016647Y034503D01*
X016647Y034504D02*
X017047Y034504D01*
X017047Y034505D02*
X016647Y034505D01*
X016647Y034506D02*
X017047Y034506D01*
X017047Y034507D02*
X016647Y034507D01*
X016647Y034508D02*
X017047Y034508D01*
X017047Y034509D02*
X016647Y034509D01*
X016647Y034510D02*
X017047Y034510D01*
X017047Y034511D02*
X016647Y034511D01*
X016647Y034512D02*
X017047Y034512D01*
X017047Y034513D02*
X016647Y034513D01*
X016647Y034514D02*
X017047Y034514D01*
X017047Y034515D02*
X016647Y034515D01*
X016647Y034516D02*
X017047Y034516D01*
X017047Y034517D02*
X016647Y034517D01*
X016647Y034518D02*
X017047Y034518D01*
X017047Y034519D02*
X016647Y034519D01*
X016647Y034520D02*
X017047Y034520D01*
X017047Y034521D02*
X016647Y034521D01*
X016647Y034522D02*
X017047Y034522D01*
X017047Y034523D02*
X016647Y034523D01*
X016647Y034524D02*
X017047Y034524D01*
X017047Y034525D02*
X016647Y034525D01*
X016647Y034526D02*
X017047Y034526D01*
X017047Y034527D02*
X016647Y034527D01*
X016647Y034528D02*
X017047Y034528D01*
X017047Y034529D02*
X016647Y034529D01*
X016647Y034530D02*
X017047Y034530D01*
X017047Y034531D02*
X016647Y034531D01*
X016647Y034532D02*
X017047Y034532D01*
X017047Y034533D02*
X016647Y034533D01*
X016647Y034534D02*
X017047Y034534D01*
X017047Y034535D02*
X016647Y034535D01*
X016683Y034536D02*
X017047Y034536D01*
X017047Y034537D02*
X016735Y034537D01*
X016788Y034538D02*
X017047Y034538D01*
X017047Y034539D02*
X016840Y034539D01*
X016892Y034540D02*
X017047Y034540D01*
X017047Y034541D02*
X016945Y034541D01*
X016997Y034542D02*
X017047Y034542D01*
X017047Y035465D02*
X016647Y035465D01*
X016647Y035466D02*
X017047Y035466D01*
X017047Y035467D02*
X016647Y035467D01*
X016647Y035468D02*
X017047Y035468D01*
X017047Y035469D02*
X016647Y035469D01*
X016647Y035470D02*
X017047Y035470D01*
X017047Y035471D02*
X016647Y035471D01*
X016647Y035472D02*
X017047Y035472D01*
X017047Y035473D02*
X016647Y035473D01*
X016647Y035474D02*
X017047Y035474D01*
X017047Y035475D02*
X016647Y035475D01*
X016647Y035476D02*
X017047Y035476D01*
X017047Y035477D02*
X016647Y035477D01*
X016647Y035478D02*
X017047Y035478D01*
X017047Y035479D02*
X016647Y035479D01*
X016647Y035480D02*
X017047Y035480D01*
X017047Y035481D02*
X016647Y035481D01*
X016647Y035482D02*
X017047Y035482D01*
X017047Y035483D02*
X016647Y035483D01*
X016647Y035484D02*
X017047Y035484D01*
X017047Y035485D02*
X016647Y035485D01*
X016647Y035486D02*
X017047Y035486D01*
X017047Y035487D02*
X016647Y035487D01*
X016647Y035488D02*
X017047Y035488D01*
X017047Y035489D02*
X016647Y035489D01*
X016647Y035490D02*
X017047Y035490D01*
X017047Y035491D02*
X016647Y035491D01*
X016647Y035492D02*
X017047Y035492D01*
X017047Y035493D02*
X016647Y035493D01*
X016647Y035494D02*
X017047Y035494D01*
X017047Y035495D02*
X016647Y035495D01*
X016647Y035496D02*
X017047Y035496D01*
X017047Y035497D02*
X016647Y035497D01*
X016647Y035498D02*
X017047Y035498D01*
X017047Y035499D02*
X016647Y035499D01*
X016647Y035500D02*
X017047Y035500D01*
X017047Y035501D02*
X016647Y035501D01*
X016647Y035502D02*
X017047Y035502D01*
X017047Y035503D02*
X016647Y035503D01*
X016647Y035504D02*
X017047Y035504D01*
X017047Y035505D02*
X016647Y035505D01*
X016647Y035506D02*
X017047Y035506D01*
X017047Y035507D02*
X016647Y035507D01*
X016647Y035508D02*
X017047Y035508D01*
X017047Y035509D02*
X016647Y035509D01*
X016647Y035510D02*
X017047Y035510D01*
X017047Y035511D02*
X016647Y035511D01*
X016647Y035512D02*
X017047Y035512D01*
X017047Y035513D02*
X016647Y035513D01*
X016647Y035514D02*
X017047Y035514D01*
X017047Y035515D02*
X016647Y035515D01*
X016647Y035516D02*
X017047Y035516D01*
X017047Y035517D02*
X016647Y035517D01*
X016647Y035518D02*
X017047Y035518D01*
X017047Y035519D02*
X016647Y035519D01*
X016647Y035520D02*
X017047Y035520D01*
X017047Y035521D02*
X016647Y035521D01*
X016647Y035522D02*
X017047Y035522D01*
X017047Y035523D02*
X016647Y035523D01*
X016647Y035524D02*
X017047Y035524D01*
X017047Y035525D02*
X016647Y035525D01*
X016647Y035526D02*
X017047Y035526D01*
X017047Y035527D02*
X016647Y035527D01*
X016647Y035528D02*
X017047Y035528D01*
X017047Y035529D02*
X016647Y035529D01*
X016647Y035530D02*
X017047Y035530D01*
X017047Y035531D02*
X016647Y035531D01*
X016647Y035532D02*
X017047Y035532D01*
X017047Y035533D02*
X016647Y035533D01*
X016647Y035534D02*
X017047Y035534D01*
X017047Y035535D02*
X016647Y035535D01*
X016647Y035536D02*
X017047Y035536D01*
X017047Y035537D02*
X016647Y035537D01*
X016647Y035538D02*
X017047Y035538D01*
X017047Y035539D02*
X016647Y035539D01*
X016647Y035540D02*
X017047Y035540D01*
X017047Y035541D02*
X016647Y035541D01*
X016647Y035542D02*
X017047Y035542D01*
X017047Y035543D02*
X016647Y035543D01*
X016647Y035544D02*
X017047Y035544D01*
X017047Y035545D02*
X016647Y035545D01*
X016647Y035546D02*
X017047Y035546D01*
X017047Y035547D02*
X016647Y035547D01*
X016647Y035548D02*
X017047Y035548D01*
X017047Y035549D02*
X016647Y035549D01*
X016647Y035550D02*
X017047Y035550D01*
X017047Y035551D02*
X016647Y035551D01*
X016647Y035552D02*
X017047Y035552D01*
X017047Y035553D02*
X016647Y035553D01*
X016647Y035554D02*
X017047Y035554D01*
X017047Y035555D02*
X016647Y035555D01*
X016647Y035556D02*
X017047Y035556D01*
X017047Y035557D02*
X016647Y035557D01*
X016647Y035558D02*
X017047Y035558D01*
X017047Y035559D02*
X016647Y035559D01*
X016647Y035560D02*
X017047Y035560D01*
X017047Y035561D02*
X016647Y035561D01*
X016647Y035562D02*
X017047Y035562D01*
X017047Y035563D02*
X016647Y035563D01*
X016647Y035564D02*
X017047Y035564D01*
X017047Y035565D02*
X016647Y035565D01*
X016647Y035566D02*
X017047Y035566D01*
X017047Y035567D02*
X016647Y035567D01*
X016647Y035568D02*
X017047Y035568D01*
X017047Y035569D02*
X016647Y035569D01*
X016647Y035570D02*
X017047Y035570D01*
X017047Y035571D02*
X016647Y035571D01*
X016647Y035572D02*
X017047Y035572D01*
X017047Y035573D02*
X016647Y035573D01*
X016647Y035574D02*
X017047Y035574D01*
X017047Y035575D02*
X016647Y035575D01*
X016647Y035576D02*
X017047Y035576D01*
X017047Y035577D02*
X016647Y035577D01*
X016647Y035578D02*
X017047Y035578D01*
X017047Y035579D02*
X016647Y035579D01*
X016647Y035580D02*
X017047Y035580D01*
X017047Y035581D02*
X016647Y035581D01*
X016647Y035582D02*
X017047Y035582D01*
X017047Y035583D02*
X016647Y035583D01*
X016647Y035584D02*
X017047Y035584D01*
X017047Y035585D02*
X016647Y035585D01*
X016647Y035586D02*
X017047Y035586D01*
X017047Y035587D02*
X016647Y035587D01*
X016647Y035588D02*
X017047Y035588D01*
X017047Y035589D02*
X016647Y035589D01*
X016647Y035590D02*
X017047Y035590D01*
X017047Y035591D02*
X016647Y035591D01*
X016647Y035592D02*
X017047Y035592D01*
X017047Y035593D02*
X016647Y035593D01*
X016647Y035594D02*
X017047Y035594D01*
X017047Y035595D02*
X016647Y035595D01*
X016647Y035596D02*
X017047Y035596D01*
X017047Y035597D02*
X016647Y035597D01*
X016647Y035598D02*
X017047Y035598D01*
X017047Y035599D02*
X016647Y035599D01*
X016647Y035600D02*
X017047Y035600D01*
X017047Y035601D02*
X016647Y035601D01*
X016647Y035602D02*
X017047Y035602D01*
X017047Y035603D02*
X016647Y035603D01*
X016647Y035604D02*
X017047Y035604D01*
X017047Y035605D02*
X016647Y035605D01*
X016647Y035606D02*
X017047Y035606D01*
X017047Y035607D02*
X016647Y035607D01*
X016647Y035608D02*
X017047Y035608D01*
X017047Y035609D02*
X016647Y035609D01*
X016647Y035610D02*
X017047Y035610D01*
X017047Y035611D02*
X016647Y035611D01*
X016647Y035612D02*
X017047Y035612D01*
X017047Y035613D02*
X016647Y035613D01*
X016647Y035614D02*
X017047Y035614D01*
X017047Y035615D02*
X016647Y035615D01*
X016647Y035616D02*
X017047Y035616D01*
X017047Y035617D02*
X016647Y035617D01*
X016647Y035618D02*
X017047Y035618D01*
X017047Y035619D02*
X016647Y035619D01*
X016647Y035620D02*
X017047Y035620D01*
X017047Y035621D02*
X016647Y035621D01*
X016647Y035622D02*
X017047Y035622D01*
X017047Y035623D02*
X016647Y035623D01*
X016647Y035624D02*
X017047Y035624D01*
X017047Y035625D02*
X016647Y035625D01*
X016647Y035626D02*
X017047Y035626D01*
X017047Y035627D02*
X016647Y035627D01*
X016647Y035628D02*
X017047Y035628D01*
X017047Y035629D02*
X016647Y035629D01*
X016647Y035630D02*
X017047Y035630D01*
X017047Y035631D02*
X016647Y035631D01*
X016647Y035632D02*
X017047Y035632D01*
X017047Y035633D02*
X016647Y035633D01*
X016647Y035634D02*
X017047Y035634D01*
X017047Y035635D02*
X016647Y035635D01*
X016647Y035636D02*
X017047Y035636D01*
X017047Y035637D02*
X016647Y035637D01*
X016647Y035638D02*
X017047Y035638D01*
X017047Y035639D02*
X016647Y035639D01*
X016647Y035640D02*
X017047Y035640D01*
X017047Y035641D02*
X016647Y035641D01*
X016647Y035642D02*
X017047Y035642D01*
X017047Y035643D02*
X016647Y035643D01*
X016647Y035644D02*
X017047Y035644D01*
X017047Y035645D02*
X016647Y035645D01*
X016647Y035646D02*
X017047Y035646D01*
X017047Y035647D02*
X016647Y035647D01*
X016647Y035648D02*
X017047Y035648D01*
X017047Y035649D02*
X016647Y035649D01*
X016647Y035650D02*
X017047Y035650D01*
X017047Y035651D02*
X016647Y035651D01*
X016647Y035652D02*
X017047Y035652D01*
X017047Y035653D02*
X016647Y035653D01*
X016647Y035654D02*
X017047Y035654D01*
X017047Y035655D02*
X016647Y035655D01*
X016647Y035656D02*
X017047Y035656D01*
X017047Y035657D02*
X016647Y035657D01*
X016647Y035658D02*
X017047Y035658D01*
X017047Y035659D02*
X016647Y035659D01*
X016647Y035660D02*
X017047Y035660D01*
X017047Y035661D02*
X016647Y035661D01*
X016647Y035662D02*
X017047Y035662D01*
X017047Y035663D02*
X016647Y035663D01*
X016647Y035664D02*
X017047Y035664D01*
X017047Y035665D02*
X016647Y035665D01*
X016647Y035666D02*
X017047Y035666D01*
X017047Y035667D02*
X016647Y035667D01*
X016647Y035668D02*
X017047Y035668D01*
X017047Y035669D02*
X016647Y035669D01*
X016647Y035670D02*
X017047Y035670D01*
X017047Y035671D02*
X016647Y035671D01*
X016647Y035672D02*
X017047Y035672D01*
X017047Y035673D02*
X016647Y035673D01*
X016647Y035674D02*
X017047Y035674D01*
X017047Y035675D02*
X016647Y035675D01*
X016647Y035676D02*
X017047Y035676D01*
X017047Y035677D02*
X016647Y035677D01*
X016647Y035678D02*
X017047Y035678D01*
X017047Y035679D02*
X016647Y035679D01*
X016647Y035680D02*
X017047Y035680D01*
X017047Y035681D02*
X016647Y035681D01*
X016647Y035682D02*
X017047Y035682D01*
X017047Y035683D02*
X016647Y035683D01*
X016647Y035684D02*
X017047Y035684D01*
X017047Y035685D02*
X016647Y035685D01*
X016647Y035686D02*
X017047Y035686D01*
X017047Y035687D02*
X016647Y035687D01*
X016647Y035688D02*
X017047Y035688D01*
X017047Y035689D02*
X016647Y035689D01*
X016647Y035690D02*
X017047Y035690D01*
X017047Y035691D02*
X016647Y035691D01*
X016647Y035692D02*
X017047Y035692D01*
X017047Y035693D02*
X016647Y035693D01*
X016647Y035694D02*
X017047Y035694D01*
X017047Y035695D02*
X016647Y035695D01*
X016647Y035696D02*
X017047Y035696D01*
X017047Y035697D02*
X016647Y035697D01*
X016647Y035698D02*
X017047Y035698D01*
X017047Y035699D02*
X016647Y035699D01*
X016647Y035700D02*
X017047Y035700D01*
X017047Y035701D02*
X016647Y035701D01*
X016647Y035702D02*
X017047Y035702D01*
X017047Y035703D02*
X016647Y035703D01*
X016647Y035704D02*
X017047Y035704D01*
X017047Y035705D02*
X016647Y035705D01*
X016647Y035706D02*
X017047Y035706D01*
X017047Y035707D02*
X016647Y035707D01*
X016647Y035708D02*
X017047Y035708D01*
X017047Y035709D02*
X016647Y035709D01*
X016647Y035710D02*
X017047Y035710D01*
X017047Y035711D02*
X016647Y035711D01*
X016647Y035712D02*
X017047Y035712D01*
X017047Y035713D02*
X016647Y035713D01*
X016647Y035714D02*
X017047Y035714D01*
X017047Y035715D02*
X016647Y035715D01*
X016647Y035716D02*
X017047Y035716D01*
X017047Y035717D02*
X016647Y035717D01*
X016647Y035718D02*
X017047Y035718D01*
X017047Y035719D02*
X016647Y035719D01*
X016647Y035720D02*
X017047Y035720D01*
X017047Y035721D02*
X016647Y035721D01*
X016647Y035722D02*
X017047Y035722D01*
X017047Y035723D02*
X016647Y035723D01*
X016647Y035724D02*
X017047Y035724D01*
X017047Y035725D02*
X016647Y035725D01*
X016647Y035726D02*
X017047Y035726D01*
X017047Y035727D02*
X016647Y035727D01*
X016647Y035728D02*
X017047Y035728D01*
X017047Y035729D02*
X016647Y035729D01*
X016647Y035730D02*
X017047Y035730D01*
X017047Y035731D02*
X016647Y035731D01*
X016647Y035732D02*
X017047Y035732D01*
X017047Y035733D02*
X016647Y035733D01*
X016647Y035734D02*
X017047Y035734D01*
X017047Y035735D02*
X016647Y035735D01*
X016647Y035736D02*
X017047Y035736D01*
X017047Y035737D02*
X016647Y035737D01*
X016647Y035738D02*
X017047Y035738D01*
X017047Y035739D02*
X016647Y035739D01*
X016647Y035740D02*
X017047Y035740D01*
X017047Y035741D02*
X016647Y035741D01*
X016647Y035742D02*
X017047Y035742D01*
X017047Y035743D02*
X016647Y035743D01*
X016647Y035744D02*
X017608Y035744D01*
X017608Y035745D02*
X016647Y035745D01*
X016647Y035746D02*
X017608Y035746D01*
X017608Y035747D02*
X016647Y035747D01*
X016647Y035748D02*
X017608Y035748D01*
X017608Y035749D02*
X016647Y035749D01*
X016647Y035750D02*
X017608Y035750D01*
X017608Y035751D02*
X016647Y035751D01*
X016647Y035752D02*
X017608Y035752D01*
X017608Y035753D02*
X016647Y035753D01*
X016647Y035754D02*
X017608Y035754D01*
X017608Y035755D02*
X016647Y035755D01*
X016647Y035756D02*
X017608Y035756D01*
X017608Y035757D02*
X016647Y035757D01*
X016647Y035758D02*
X017608Y035758D01*
X017608Y035759D02*
X016647Y035759D01*
X016647Y035760D02*
X017608Y035760D01*
X017608Y035761D02*
X016647Y035761D01*
X016647Y035762D02*
X017608Y035762D01*
X017608Y035763D02*
X016647Y035763D01*
X016647Y035764D02*
X017608Y035764D01*
X017608Y035765D02*
X016647Y035765D01*
X016647Y035766D02*
X017608Y035766D01*
X017608Y035767D02*
X016647Y035767D01*
X016647Y035768D02*
X017608Y035768D01*
X017608Y035769D02*
X016647Y035769D01*
X016647Y035770D02*
X017608Y035770D01*
X017608Y035771D02*
X016647Y035771D01*
X016647Y035772D02*
X017608Y035772D01*
X017608Y035773D02*
X016647Y035773D01*
X016647Y035774D02*
X017608Y035774D01*
X017608Y035775D02*
X016647Y035775D01*
X016647Y035776D02*
X017608Y035776D01*
X017608Y035777D02*
X016647Y035777D01*
X016647Y035778D02*
X017608Y035778D01*
X017608Y035779D02*
X016647Y035779D01*
X016647Y035780D02*
X017608Y035780D01*
X017608Y035781D02*
X016647Y035781D01*
X016647Y035782D02*
X017608Y035782D01*
X017608Y035783D02*
X016647Y035783D01*
X016647Y035784D02*
X017608Y035784D01*
X017608Y035785D02*
X016647Y035785D01*
X016647Y035786D02*
X017608Y035786D01*
X017608Y035787D02*
X016647Y035787D01*
X016647Y035788D02*
X017608Y035788D01*
X017608Y035789D02*
X016647Y035789D01*
X016647Y035790D02*
X017608Y035790D01*
X017608Y035791D02*
X016647Y035791D01*
X016647Y035792D02*
X017608Y035792D01*
X017608Y035793D02*
X016647Y035793D01*
X016647Y035794D02*
X017608Y035794D01*
X017608Y035795D02*
X016647Y035795D01*
X016647Y035796D02*
X017608Y035796D01*
X017608Y035797D02*
X016647Y035797D01*
X016647Y035798D02*
X017608Y035798D01*
X017608Y035799D02*
X016647Y035799D01*
X016647Y035800D02*
X017608Y035800D01*
X017608Y035801D02*
X016647Y035801D01*
X016647Y035802D02*
X017608Y035802D01*
X017608Y035803D02*
X016647Y035803D01*
X016647Y035804D02*
X017608Y035804D01*
X017608Y035805D02*
X016647Y035805D01*
X016647Y035806D02*
X017608Y035806D01*
X017608Y035807D02*
X016647Y035807D01*
X016647Y035808D02*
X017608Y035808D01*
X017608Y035809D02*
X016647Y035809D01*
X016647Y035810D02*
X017608Y035810D01*
X017608Y035811D02*
X016647Y035811D01*
X016647Y035812D02*
X017608Y035812D01*
X017608Y035813D02*
X016647Y035813D01*
X016647Y035814D02*
X017608Y035814D01*
X017608Y035815D02*
X016647Y035815D01*
X016647Y035816D02*
X017608Y035816D01*
X017608Y035817D02*
X016647Y035817D01*
X016647Y035818D02*
X017608Y035818D01*
X017608Y035819D02*
X016647Y035819D01*
X016647Y035820D02*
X017608Y035820D01*
X017608Y035821D02*
X016647Y035821D01*
X016647Y035822D02*
X017608Y035822D01*
X017608Y035823D02*
X016647Y035823D01*
X016647Y035824D02*
X017608Y035824D01*
X017608Y035825D02*
X016647Y035825D01*
X016647Y035826D02*
X017608Y035826D01*
X017608Y035827D02*
X016647Y035827D01*
X016647Y035828D02*
X017608Y035828D01*
X017608Y035829D02*
X016647Y035829D01*
X016647Y035830D02*
X017608Y035830D01*
X017608Y035831D02*
X016647Y035831D01*
X016647Y035832D02*
X017608Y035832D01*
X017608Y035833D02*
X016647Y035833D01*
X016647Y035834D02*
X017608Y035834D01*
X017608Y035835D02*
X016647Y035835D01*
X016647Y035836D02*
X017608Y035836D01*
X017608Y035837D02*
X016647Y035837D01*
X016647Y035838D02*
X017608Y035838D01*
X017608Y035839D02*
X016647Y035839D01*
X016647Y035840D02*
X017608Y035840D01*
X017608Y035841D02*
X016647Y035841D01*
X016647Y035842D02*
X017608Y035842D01*
X017608Y035843D02*
X016647Y035843D01*
X016647Y035844D02*
X017608Y035844D01*
X017608Y035845D02*
X016647Y035845D01*
X016647Y035846D02*
X017608Y035846D01*
X017608Y035847D02*
X016647Y035847D01*
X016647Y035848D02*
X017608Y035848D01*
X017608Y035849D02*
X016647Y035849D01*
X016647Y035850D02*
X017608Y035850D01*
X017608Y035851D02*
X016647Y035851D01*
X016647Y035852D02*
X017608Y035852D01*
X017608Y035853D02*
X016647Y035853D01*
X016647Y035854D02*
X017608Y035854D01*
X017608Y035855D02*
X016647Y035855D01*
X016647Y035856D02*
X017608Y035856D01*
X017608Y035857D02*
X016647Y035857D01*
X016647Y035858D02*
X017608Y035858D01*
X017608Y035859D02*
X016647Y035859D01*
X016647Y035860D02*
X017608Y035860D01*
X017608Y035861D02*
X016647Y035861D01*
X016647Y035862D02*
X017608Y035862D01*
X017608Y035863D02*
X016647Y035863D01*
X016647Y035864D02*
X017608Y035864D01*
X017608Y035865D02*
X016647Y035865D01*
X016647Y035866D02*
X017608Y035866D01*
X017608Y035867D02*
X016647Y035867D01*
X016647Y035868D02*
X017608Y035868D01*
X017608Y035869D02*
X016647Y035869D01*
X016647Y035870D02*
X017608Y035870D01*
X017608Y035871D02*
X016647Y035871D01*
X016647Y035872D02*
X017608Y035872D01*
X017608Y035873D02*
X016647Y035873D01*
X016647Y035874D02*
X017608Y035874D01*
X017608Y035875D02*
X016647Y035875D01*
X016647Y035876D02*
X017608Y035876D01*
X017608Y035877D02*
X016647Y035877D01*
X016647Y035878D02*
X017608Y035878D01*
X017608Y035879D02*
X016647Y035879D01*
X016647Y035880D02*
X017608Y035880D01*
X017608Y035881D02*
X016647Y035881D01*
X016647Y035882D02*
X017608Y035882D01*
X017608Y035883D02*
X016647Y035883D01*
X016647Y035884D02*
X017608Y035884D01*
X017608Y035885D02*
X016647Y035885D01*
X016647Y035886D02*
X017608Y035886D01*
X017608Y035887D02*
X016647Y035887D01*
X016647Y035888D02*
X017608Y035888D01*
X017608Y035889D02*
X016647Y035889D01*
X016647Y035890D02*
X017608Y035890D01*
X017608Y035891D02*
X016647Y035891D01*
X016647Y035892D02*
X017608Y035892D01*
X017608Y035893D02*
X016647Y035893D01*
X016647Y035894D02*
X017608Y035894D01*
X017608Y035895D02*
X016647Y035895D01*
X016647Y035896D02*
X017608Y035896D01*
X017608Y035897D02*
X016647Y035897D01*
X016647Y035898D02*
X017608Y035898D01*
X017608Y035899D02*
X016647Y035899D01*
X016647Y035900D02*
X017608Y035900D01*
X017608Y035901D02*
X016647Y035901D01*
X016647Y035902D02*
X017608Y035902D01*
X017608Y035903D02*
X016647Y035903D01*
X016647Y035904D02*
X017608Y035904D01*
X017608Y035905D02*
X016647Y035905D01*
X016647Y035906D02*
X017608Y035906D01*
X017608Y035907D02*
X016647Y035907D01*
X016647Y035908D02*
X017608Y035908D01*
X017608Y035909D02*
X016647Y035909D01*
X016647Y035910D02*
X017608Y035910D01*
X017608Y035911D02*
X016647Y035911D01*
X016647Y035912D02*
X017608Y035912D01*
X017608Y035913D02*
X016647Y035913D01*
X016647Y035914D02*
X017608Y035914D01*
X017608Y035915D02*
X016647Y035915D01*
X016647Y035916D02*
X017608Y035916D01*
X017608Y035917D02*
X016647Y035917D01*
X016647Y035918D02*
X017608Y035918D01*
X017608Y035919D02*
X016647Y035919D01*
X016647Y035920D02*
X017608Y035920D01*
X017608Y035921D02*
X016647Y035921D01*
X016647Y035922D02*
X017608Y035922D01*
X017608Y035923D02*
X016647Y035923D01*
X016647Y035924D02*
X017608Y035924D01*
X017608Y035925D02*
X016647Y035925D01*
X016647Y035926D02*
X017608Y035926D01*
X017608Y035927D02*
X016647Y035927D01*
X016647Y035928D02*
X017608Y035928D01*
X017608Y035929D02*
X016647Y035929D01*
X016647Y035930D02*
X017608Y035930D01*
X017608Y035931D02*
X016647Y035931D01*
X016647Y035932D02*
X017608Y035932D01*
X017608Y035933D02*
X016647Y035933D01*
X016647Y035934D02*
X017608Y035934D01*
X017608Y035935D02*
X016647Y035935D01*
X016647Y035936D02*
X017608Y035936D01*
X017608Y035937D02*
X016647Y035937D01*
X016647Y035938D02*
X017608Y035938D01*
X017608Y035939D02*
X016647Y035939D01*
X016647Y035940D02*
X017608Y035940D01*
X017608Y035941D02*
X016647Y035941D01*
X016647Y035942D02*
X017608Y035942D01*
X017608Y035943D02*
X016647Y035943D01*
X016647Y035944D02*
X017608Y035944D01*
X017608Y035945D02*
X016647Y035945D01*
X016647Y035946D02*
X017608Y035946D01*
X017608Y035947D02*
X016647Y035947D01*
X016647Y035948D02*
X017608Y035948D01*
X017608Y035949D02*
X016647Y035949D01*
X016647Y035950D02*
X017608Y035950D01*
X017608Y035951D02*
X016647Y035951D01*
X016647Y035952D02*
X017608Y035952D01*
X017608Y035953D02*
X016647Y035953D01*
X016647Y035954D02*
X017608Y035954D01*
X017608Y035955D02*
X016647Y035955D01*
X016647Y035956D02*
X017608Y035956D01*
X017608Y035957D02*
X016647Y035957D01*
X016647Y035958D02*
X017608Y035958D01*
X017608Y035959D02*
X016647Y035959D01*
X016647Y035960D02*
X017608Y035960D01*
X017608Y035961D02*
X016647Y035961D01*
X016647Y035962D02*
X017608Y035962D01*
X017608Y035963D02*
X016647Y035963D01*
X016647Y035964D02*
X017608Y035964D01*
X017608Y035965D02*
X016647Y035965D01*
X016647Y035966D02*
X017608Y035966D01*
X017608Y035967D02*
X016647Y035967D01*
X016647Y035968D02*
X017608Y035968D01*
X017608Y035969D02*
X016647Y035969D01*
X016647Y035970D02*
X017608Y035970D01*
X017608Y035971D02*
X016647Y035971D01*
X016647Y035972D02*
X017608Y035972D01*
X017608Y035973D02*
X016647Y035973D01*
X016647Y035974D02*
X017608Y035974D01*
X017608Y035975D02*
X016647Y035975D01*
X016647Y035976D02*
X017608Y035976D01*
X017608Y035977D02*
X016647Y035977D01*
X016647Y035978D02*
X017608Y035978D01*
X017608Y035979D02*
X016647Y035979D01*
X016647Y035980D02*
X017608Y035980D01*
X017608Y035981D02*
X016647Y035981D01*
X016647Y035982D02*
X017608Y035982D01*
X017608Y035983D02*
X016647Y035983D01*
X016647Y035984D02*
X017608Y035984D01*
X017608Y035985D02*
X016647Y035985D01*
X016647Y035986D02*
X017608Y035986D01*
X017608Y035987D02*
X016647Y035987D01*
X016647Y035988D02*
X017608Y035988D01*
X017608Y035989D02*
X016647Y035989D01*
X016647Y035990D02*
X017608Y035990D01*
X017608Y035991D02*
X016647Y035991D01*
X016647Y035992D02*
X017608Y035992D01*
X017608Y035993D02*
X016647Y035993D01*
X016647Y035994D02*
X017608Y035994D01*
X017608Y035995D02*
X016647Y035995D01*
X016647Y035996D02*
X017608Y035996D01*
X017608Y035997D02*
X016647Y035997D01*
X016647Y035998D02*
X017608Y035998D01*
X017608Y035999D02*
X016647Y035999D01*
X016647Y036000D02*
X017608Y036000D01*
X017608Y036001D02*
X016647Y036001D01*
X016647Y036002D02*
X017608Y036002D01*
X017608Y036003D02*
X016647Y036003D01*
X016647Y036004D02*
X017608Y036004D01*
D19*
X021600Y030575D03*
X021600Y029925D03*
D20*
X020750Y029950D03*
X020050Y029950D03*
X021150Y029100D03*
X021850Y029100D03*
X021850Y028300D03*
X021150Y028300D03*
D21*
X021450Y027250D03*
X021950Y027250D03*
D22*
X019050Y032500D03*
X019050Y033700D03*
D23*
X018600Y027081D03*
X018600Y026019D03*
D24*
X018550Y027800D03*
X018550Y028500D03*
X017308Y034055D03*
X017308Y035945D03*
D25*
X017346Y028125D03*
X017346Y026125D03*
D26*
X020317Y034144D03*
X020317Y034400D03*
X020317Y034656D03*
X021183Y034656D03*
X021183Y034144D03*
D27*
X042955Y030547D03*
D28*
X043555Y029927D03*
X043555Y032073D03*
D29*
G36*
X041406Y030803D02*
X041265Y030944D01*
X041406Y031085D01*
X041547Y030944D01*
X041406Y030803D01*
G37*
G36*
X041194Y031015D02*
X041053Y031156D01*
X041194Y031297D01*
X041335Y031156D01*
X041194Y031015D01*
G37*
D30*
X019800Y026850D03*
D31*
X019800Y025925D03*
D32*
X017550Y028900D03*
X016950Y028900D03*
X016950Y033100D03*
X017550Y033100D03*
D33*
X018150Y033000D03*
X018150Y033500D03*
D34*
X021500Y026000D03*
X040900Y026000D03*
X043500Y036000D03*
D35*
X039617Y034937D02*
X039225Y034937D01*
X039225Y034150D02*
X039617Y034150D01*
X039617Y033362D02*
X039225Y033362D01*
X039225Y032575D02*
X039617Y032575D01*
X039617Y031787D02*
X039225Y031787D01*
X039225Y031000D02*
X039617Y031000D01*
X039617Y030213D02*
X039225Y030213D01*
X039225Y029425D02*
X039617Y029425D01*
X039617Y028638D02*
X039225Y028638D01*
X039225Y027850D02*
X039617Y027850D01*
X039617Y027063D02*
X039225Y027063D01*
X038437Y026275D02*
X038437Y025883D01*
X037649Y025883D02*
X037649Y026275D01*
X036862Y026275D02*
X036862Y025883D01*
X036074Y025883D02*
X036074Y026275D01*
X035287Y026275D02*
X035287Y025883D01*
X034500Y025883D02*
X034500Y026275D01*
X033712Y026275D02*
X033712Y025883D01*
X032925Y025883D02*
X032925Y026275D01*
X032137Y026275D02*
X032137Y025883D01*
X031350Y025883D02*
X031350Y026275D01*
X030563Y026275D02*
X030563Y025883D01*
X029775Y025883D02*
X029775Y026275D01*
X028988Y026275D02*
X028988Y025883D01*
X028200Y025883D02*
X028200Y026275D01*
X027413Y026275D02*
X027413Y025883D01*
X026626Y025883D02*
X026626Y026275D01*
X025838Y026275D02*
X025838Y025883D01*
X025051Y025883D02*
X025051Y026275D01*
X024263Y026275D02*
X024263Y025883D01*
X023475Y027063D02*
X023083Y027063D01*
X023083Y027850D02*
X023475Y027850D01*
X023475Y028638D02*
X023083Y028638D01*
X023083Y029425D02*
X023475Y029425D01*
X023475Y030213D02*
X023083Y030213D01*
X023083Y031000D02*
X023475Y031000D01*
X023475Y031787D02*
X023083Y031787D01*
X023083Y032575D02*
X023475Y032575D01*
X023475Y033362D02*
X023083Y033362D01*
X023083Y034150D02*
X023475Y034150D01*
X023475Y034937D02*
X023083Y034937D01*
X024263Y035725D02*
X024263Y036117D01*
X025051Y036117D02*
X025051Y035725D01*
X025838Y035725D02*
X025838Y036117D01*
X026626Y036117D02*
X026626Y035725D01*
X027413Y035725D02*
X027413Y036117D01*
X028200Y036117D02*
X028200Y035725D01*
X028988Y035725D02*
X028988Y036117D01*
X029775Y036117D02*
X029775Y035725D01*
X030563Y035725D02*
X030563Y036117D01*
X031350Y036117D02*
X031350Y035725D01*
X032137Y035725D02*
X032137Y036117D01*
X032925Y036117D02*
X032925Y035725D01*
X033712Y035725D02*
X033712Y036117D01*
X034500Y036117D02*
X034500Y035725D01*
X035287Y035725D02*
X035287Y036117D01*
X036074Y036117D02*
X036074Y035725D01*
X036862Y035725D02*
X036862Y036117D01*
X037649Y036117D02*
X037649Y035725D01*
X038437Y035725D02*
X038437Y036117D01*
D36*
X038500Y035500D03*
X037500Y035500D03*
X037500Y034500D03*
X038500Y034500D03*
X038750Y034300D03*
X038750Y034000D03*
X039000Y033750D03*
X039500Y033750D03*
X040000Y033750D03*
X040500Y033750D03*
X040750Y033500D03*
X040750Y033000D03*
X040750Y032500D03*
X040750Y032000D03*
X040750Y031500D03*
X040750Y031000D03*
X041000Y030500D03*
X040500Y030500D03*
X041000Y030000D03*
X041500Y029750D03*
X042000Y029750D03*
X042500Y029750D03*
X043000Y029500D03*
X043500Y029500D03*
X044000Y029500D03*
X043500Y028500D03*
X042500Y028500D03*
X042500Y027500D03*
X042500Y026500D03*
X041500Y026500D03*
X040500Y026500D03*
X040500Y027500D03*
X041500Y028500D03*
X040500Y029500D03*
X038500Y029500D03*
X037500Y029500D03*
X037500Y028500D03*
X038500Y028500D03*
X036500Y028500D03*
X035500Y028500D03*
X034500Y028500D03*
X034500Y029500D03*
X035500Y029500D03*
X036500Y029500D03*
X036500Y030500D03*
X035500Y030500D03*
X034500Y030500D03*
X033500Y030500D03*
X032500Y030500D03*
X031500Y029500D03*
X031500Y028500D03*
X032500Y028500D03*
X033500Y029500D03*
X034850Y031500D03*
X035500Y031500D03*
X036500Y031500D03*
X036500Y032500D03*
X036500Y033500D03*
X035500Y033500D03*
X035500Y032500D03*
X034500Y032500D03*
X034500Y033500D03*
X034500Y034500D03*
X035500Y034500D03*
X036500Y034500D03*
X036500Y035500D03*
X035300Y035450D03*
X034500Y035450D03*
X033750Y035450D03*
X032950Y035450D03*
X032500Y035500D03*
X032150Y035450D03*
X032500Y034500D03*
X031500Y034500D03*
X031500Y033500D03*
X031500Y032500D03*
X032500Y032500D03*
X032500Y033500D03*
X033500Y033500D03*
X033500Y032500D03*
X033500Y034500D03*
X030500Y034500D03*
X029500Y034500D03*
X029800Y035450D03*
X029000Y035450D03*
X028200Y035450D03*
X027450Y035450D03*
X026650Y035450D03*
X025850Y035450D03*
X025500Y035500D03*
X025000Y035450D03*
X024300Y035400D03*
X023800Y034850D03*
X023750Y034150D03*
X024300Y034350D03*
X025500Y034500D03*
X026500Y034500D03*
X027500Y034500D03*
X028500Y034500D03*
X028500Y033500D03*
X028500Y032500D03*
X027500Y032500D03*
X027500Y033500D03*
X026500Y033500D03*
X025500Y032500D03*
X024500Y032500D03*
X024500Y033500D03*
X023300Y032200D03*
X022750Y031790D03*
X022150Y031900D03*
X022150Y031600D03*
X022150Y032200D03*
X022150Y032500D03*
X022200Y033350D03*
X021300Y033800D03*
X021400Y034100D03*
X020750Y034750D03*
X020050Y034950D03*
X020850Y035650D03*
X020500Y036500D03*
X021500Y036500D03*
X022200Y034900D03*
X023500Y036500D03*
X019800Y034000D03*
X019700Y033750D03*
X019800Y033500D03*
X019700Y033250D03*
X019500Y033500D03*
X019400Y032950D03*
X019960Y032920D03*
X019960Y032660D03*
X020000Y032100D03*
X019900Y031850D03*
X019600Y031500D03*
X019240Y031430D03*
X019000Y031270D03*
X019450Y030850D03*
X020050Y031250D03*
X020400Y031250D03*
X020900Y030400D03*
X021300Y031000D03*
X021550Y031200D03*
X021300Y031350D03*
X021550Y031550D03*
X021000Y032800D03*
X020470Y033100D03*
X019050Y034000D03*
X018650Y033700D03*
X018150Y033700D03*
X018500Y034500D03*
X016700Y033100D03*
X018520Y032210D03*
X017800Y030500D03*
X018650Y030200D03*
X018800Y029750D03*
X019050Y029900D03*
X019150Y029650D03*
X018800Y029300D03*
X018500Y029500D03*
X018450Y028900D03*
X019500Y028500D03*
X019650Y028000D03*
X019950Y028000D03*
X021050Y027550D03*
X021740Y027410D03*
X022150Y027850D03*
X022100Y028300D03*
X021850Y028700D03*
X021600Y028300D03*
X021600Y029100D03*
X021850Y029450D03*
X022100Y029100D03*
X020900Y029600D03*
X020700Y029300D03*
X020400Y029000D03*
X018550Y028050D03*
X018550Y027550D03*
X018500Y026500D03*
X017500Y025500D03*
X017500Y027500D03*
X016700Y028900D03*
X020600Y026850D03*
X021650Y026800D03*
X023850Y027050D03*
X024000Y026800D03*
X024250Y026600D03*
X025050Y026600D03*
X025800Y026600D03*
X026600Y026600D03*
X027500Y026500D03*
X028500Y026500D03*
X029500Y026500D03*
X031000Y026500D03*
X032500Y026500D03*
X035000Y026900D03*
X036500Y026500D03*
X036500Y025500D03*
X037500Y025500D03*
X038500Y025500D03*
X039500Y025500D03*
X041500Y025500D03*
X043500Y025500D03*
X038500Y030500D03*
X038850Y031000D03*
X038850Y031800D03*
X038500Y032500D03*
X038500Y033500D03*
X037500Y033500D03*
X037500Y032500D03*
X037500Y031500D03*
X037500Y030500D03*
X041500Y032000D03*
X041500Y032500D03*
X041500Y033000D03*
X041500Y033500D03*
X041500Y034000D03*
X041500Y034500D03*
X041000Y034500D03*
X040500Y034500D03*
X040000Y034500D03*
X039500Y034510D03*
X039000Y034500D03*
X039500Y035500D03*
X040500Y035500D03*
X041500Y035500D03*
X042500Y035500D03*
X042500Y034500D03*
X043500Y034500D03*
X043500Y033500D03*
X043500Y032500D03*
X043000Y032500D03*
X042500Y032250D03*
X042000Y032250D03*
X042500Y033500D03*
X044000Y032500D03*
X030500Y032500D03*
X030500Y033500D03*
X029500Y033500D03*
X029500Y032500D03*
X029500Y030500D03*
X030500Y030500D03*
X030500Y029500D03*
X029500Y029500D03*
X029500Y028500D03*
X030500Y028500D03*
X028500Y028500D03*
X027500Y028500D03*
X026500Y028500D03*
X026500Y029500D03*
X027500Y029500D03*
X028500Y029500D03*
X028500Y030500D03*
X027500Y030500D03*
X025500Y030500D03*
X024500Y030500D03*
X024500Y029500D03*
X023500Y029500D03*
X023700Y028650D03*
X025500Y028500D03*
X025500Y025500D03*
X024500Y025500D03*
X030600Y035450D03*
X018500Y036500D03*
D37*
X018124Y031512D03*
X018124Y031256D03*
X018124Y031000D03*
X018124Y030744D03*
X018124Y030488D03*
D38*
X017071Y031000D03*
D39*
X017071Y029888D03*
X017071Y032112D03*
D40*
X017000Y037000D03*
X017000Y025000D03*
D41*
X018000Y025000D03*
X019000Y025000D03*
X020000Y025000D03*
X021000Y025000D03*
X022000Y025000D03*
X023000Y025000D03*
X024000Y025000D03*
X025000Y025000D03*
X026000Y025000D03*
X027000Y025000D03*
X028000Y025000D03*
X029000Y025000D03*
X030000Y025000D03*
X031000Y025000D03*
X032000Y025000D03*
X033000Y025000D03*
X034000Y025000D03*
X035000Y025000D03*
X036000Y025000D03*
X037000Y025000D03*
X038000Y025000D03*
X039000Y025000D03*
X040000Y025000D03*
X041000Y025000D03*
X042000Y025000D03*
X043000Y025000D03*
X044000Y025000D03*
X044000Y037000D03*
X043000Y037000D03*
X042000Y037000D03*
X041000Y037000D03*
X040000Y037000D03*
X039000Y037000D03*
X038000Y037000D03*
X037000Y037000D03*
X036000Y037000D03*
X035000Y037000D03*
X034000Y037000D03*
X033000Y037000D03*
X032000Y037000D03*
X031000Y037000D03*
X030000Y037000D03*
X029000Y037000D03*
X028000Y037000D03*
X027000Y037000D03*
X026000Y037000D03*
X025000Y037000D03*
X024000Y037000D03*
X023000Y037000D03*
X022000Y037000D03*
X021000Y037000D03*
X020000Y037000D03*
X019000Y037000D03*
X018000Y037000D03*
D42*
X017694Y035512D03*
X017694Y035000D03*
X017694Y034488D03*
D43*
X018094Y034260D02*
X018158Y034325D01*
X018158Y034652D01*
X018094Y034716D01*
X017294Y034716D01*
X017229Y034652D01*
X017229Y034325D01*
X017294Y034260D01*
X018094Y034260D01*
X018158Y034350D02*
X020010Y034350D01*
X020010Y034276D02*
X020075Y034211D01*
X020477Y034211D01*
X020578Y034110D01*
X019985Y034110D01*
X019886Y034208D01*
X019714Y034208D01*
X019592Y034086D01*
X019592Y033936D01*
X019492Y033836D01*
X019492Y033664D01*
X019592Y033564D01*
X019592Y033436D01*
X019492Y033336D01*
X019492Y033164D01*
X019614Y033042D01*
X019786Y033042D01*
X019887Y033142D01*
X020040Y033142D01*
X020049Y033133D01*
X020416Y033133D01*
X020480Y033197D01*
X020480Y033320D01*
X020603Y033320D01*
X020606Y033324D01*
X020610Y033320D01*
X020800Y033320D01*
X020803Y033324D01*
X020807Y033320D01*
X020996Y033320D01*
X021000Y033324D01*
X021004Y033320D01*
X021193Y033320D01*
X021197Y033324D01*
X021200Y033320D01*
X021390Y033320D01*
X021394Y033324D01*
X021397Y033320D01*
X021520Y033320D01*
X021520Y033197D01*
X021524Y033194D01*
X021520Y033190D01*
X021520Y033000D01*
X021524Y032997D01*
X021520Y032993D01*
X021520Y032804D01*
X021524Y032800D01*
X021520Y032796D01*
X021520Y032607D01*
X021524Y032603D01*
X021520Y032600D01*
X021520Y032410D01*
X021524Y032406D01*
X021520Y032403D01*
X021520Y032280D01*
X021397Y032280D01*
X021394Y032276D01*
X021390Y032280D01*
X021200Y032280D01*
X021197Y032276D01*
X021193Y032280D01*
X021004Y032280D01*
X021000Y032276D01*
X020996Y032280D01*
X020807Y032280D01*
X020803Y032276D01*
X020800Y032280D01*
X020681Y032280D01*
X020652Y032292D01*
X020548Y032292D01*
X020519Y032280D01*
X020480Y032280D01*
X020480Y032403D01*
X020476Y032406D01*
X020480Y032410D01*
X020480Y032600D01*
X020476Y032603D01*
X020480Y032607D01*
X020480Y032796D01*
X020476Y032800D01*
X020480Y032804D01*
X020480Y032993D01*
X020416Y033058D01*
X020299Y033058D01*
X020299Y033058D01*
X020297Y033060D01*
X020186Y033060D01*
X020177Y033067D01*
X020156Y033064D01*
X020102Y033086D01*
X020102Y033086D01*
X020079Y033096D01*
X020046Y033128D01*
X020002Y033128D01*
X019980Y033138D01*
X019957Y033128D01*
X019874Y033128D01*
X019752Y033006D01*
X019752Y032834D01*
X019795Y032790D01*
X019752Y032746D01*
X019752Y032660D01*
X019554Y032660D01*
X019510Y032616D01*
X019510Y032771D01*
X019446Y032835D01*
X018853Y032835D01*
X018826Y032863D01*
X018712Y032910D01*
X018435Y032910D01*
X018435Y033171D01*
X018371Y033235D01*
X017929Y033235D01*
X017865Y033171D01*
X017865Y033150D01*
X017860Y033150D01*
X017860Y033346D01*
X017796Y033410D01*
X017304Y033410D01*
X017240Y033346D01*
X017240Y032870D01*
X017239Y032869D01*
X017183Y032874D01*
X017181Y032876D01*
X017153Y032876D01*
X017125Y032878D01*
X017122Y032876D01*
X016648Y032876D01*
X016648Y036520D01*
X017416Y036520D01*
X017480Y036584D01*
X017480Y037352D01*
X017673Y037352D01*
X017593Y037272D01*
X017520Y037095D01*
X017520Y036905D01*
X017593Y036728D01*
X017728Y036593D01*
X017905Y036520D01*
X018095Y036520D01*
X018272Y036593D01*
X018407Y036728D01*
X018480Y036905D01*
X018480Y037095D01*
X018407Y037272D01*
X018327Y037352D01*
X018673Y037352D01*
X018593Y037272D01*
X018520Y037095D01*
X018520Y036905D01*
X018593Y036728D01*
X018728Y036593D01*
X018905Y036520D01*
X019095Y036520D01*
X019272Y036593D01*
X019407Y036728D01*
X019480Y036905D01*
X019480Y037095D01*
X019407Y037272D01*
X019327Y037352D01*
X019673Y037352D01*
X019593Y037272D01*
X019520Y037095D01*
X019520Y036905D01*
X019593Y036728D01*
X019728Y036593D01*
X019905Y036520D01*
X020095Y036520D01*
X020272Y036593D01*
X020407Y036728D01*
X020480Y036905D01*
X020480Y037095D01*
X020407Y037272D01*
X020327Y037352D01*
X020673Y037352D01*
X020593Y037272D01*
X020520Y037095D01*
X020520Y036905D01*
X020593Y036728D01*
X020728Y036593D01*
X020850Y036543D01*
X020850Y036110D01*
X020804Y036110D01*
X020740Y036046D01*
X020740Y035835D01*
X020714Y035808D01*
X020701Y035799D01*
X020676Y035781D01*
X020675Y035769D01*
X020642Y035736D01*
X020642Y035600D01*
X019888Y035600D01*
X019800Y035512D01*
X019740Y035452D01*
X019778Y035545D01*
X019778Y035855D01*
X019660Y036141D01*
X019441Y036360D01*
X019155Y036478D01*
X018845Y036478D01*
X018559Y036360D01*
X018340Y036141D01*
X018222Y035855D01*
X018222Y035545D01*
X018260Y035452D01*
X018158Y035554D01*
X018158Y035675D01*
X018094Y035740D01*
X017294Y035740D01*
X017229Y035675D01*
X017229Y035348D01*
X017294Y035284D01*
X018004Y035284D01*
X018060Y035228D01*
X017294Y035228D01*
X017229Y035164D01*
X017229Y034836D01*
X017294Y034772D01*
X018094Y034772D01*
X018158Y034836D01*
X018158Y034850D01*
X018238Y034850D01*
X018488Y034600D01*
X019512Y034600D01*
X020062Y035150D01*
X020200Y035150D01*
X020200Y034845D01*
X020075Y034845D01*
X020010Y034780D01*
X020010Y034532D01*
X020014Y034528D01*
X020010Y034524D01*
X020010Y034276D01*
X020034Y034252D02*
X016648Y034252D01*
X016648Y034350D02*
X017229Y034350D01*
X017229Y034449D02*
X016648Y034449D01*
X016648Y034547D02*
X017229Y034547D01*
X017229Y034646D02*
X016648Y034646D01*
X016648Y034744D02*
X018344Y034744D01*
X018442Y034646D02*
X018158Y034646D01*
X018158Y034547D02*
X020010Y034547D01*
X020010Y034449D02*
X018158Y034449D01*
X018158Y034843D02*
X018245Y034843D01*
X018051Y035237D02*
X016648Y035237D01*
X016648Y035335D02*
X017242Y035335D01*
X017229Y035434D02*
X016648Y035434D01*
X016648Y035532D02*
X017229Y035532D01*
X017229Y035631D02*
X016648Y035631D01*
X016648Y035729D02*
X017283Y035729D01*
X017229Y035138D02*
X016648Y035138D01*
X016648Y035040D02*
X017229Y035040D01*
X017229Y034941D02*
X016648Y034941D01*
X016648Y034843D02*
X017229Y034843D01*
X016648Y034153D02*
X019658Y034153D01*
X019592Y034055D02*
X016648Y034055D01*
X016648Y033956D02*
X019592Y033956D01*
X019513Y033858D02*
X018287Y033858D01*
X018236Y033908D02*
X018064Y033908D01*
X017942Y033786D01*
X017942Y033735D01*
X017929Y033735D01*
X017865Y033671D01*
X017865Y033329D01*
X017929Y033265D01*
X018371Y033265D01*
X018435Y033329D01*
X018435Y033671D01*
X018371Y033735D01*
X018358Y033735D01*
X018358Y033786D01*
X018236Y033908D01*
X018358Y033759D02*
X019492Y033759D01*
X019495Y033661D02*
X018435Y033661D01*
X018435Y033562D02*
X019592Y033562D01*
X019592Y033464D02*
X018435Y033464D01*
X018435Y033365D02*
X019520Y033365D01*
X019492Y033267D02*
X018372Y033267D01*
X018435Y033168D02*
X019492Y033168D01*
X019586Y033070D02*
X018435Y033070D01*
X018435Y032971D02*
X019752Y032971D01*
X019752Y032873D02*
X018802Y032873D01*
X019507Y032774D02*
X019779Y032774D01*
X019752Y032676D02*
X019510Y032676D01*
X019510Y032284D02*
X019554Y032240D01*
X019793Y032240D01*
X019792Y032233D01*
X019798Y032225D01*
X019796Y032191D01*
X019792Y032186D01*
X019792Y032105D01*
X019789Y032056D01*
X019789Y032048D01*
X019792Y032045D01*
X019792Y032014D01*
X019914Y031892D01*
X020082Y031892D01*
X020082Y031760D01*
X020054Y031760D01*
X019990Y031696D01*
X019990Y031404D01*
X020054Y031340D01*
X020346Y031340D01*
X020400Y031394D01*
X020454Y031340D01*
X020746Y031340D01*
X020810Y031404D01*
X020810Y031482D01*
X020840Y031452D01*
X020840Y031404D01*
X020850Y031394D01*
X020850Y031356D01*
X020840Y031346D01*
X020840Y031273D01*
X020734Y031167D01*
X019985Y031167D01*
X019985Y031288D01*
X019920Y031353D01*
X019448Y031353D01*
X019448Y031516D01*
X019427Y031538D01*
X019425Y031552D01*
X019425Y031552D01*
X019425Y031552D01*
X019377Y031588D01*
X019326Y031638D01*
X019309Y031638D01*
X019245Y031686D01*
X019229Y031708D01*
X019229Y032154D01*
X019218Y032165D01*
X019446Y032165D01*
X019510Y032229D01*
X019510Y032284D01*
X019510Y032282D02*
X019513Y032282D01*
X019464Y032183D02*
X019792Y032183D01*
X019791Y032085D02*
X019229Y032085D01*
X019229Y031986D02*
X019819Y031986D01*
X019789Y032048D02*
X019789Y032048D01*
X020082Y031888D02*
X019229Y031888D01*
X019229Y031789D02*
X020082Y031789D01*
X019990Y031691D02*
X019242Y031691D01*
X019373Y031592D02*
X019990Y031592D01*
X019990Y031494D02*
X019448Y031494D01*
X019448Y031395D02*
X019999Y031395D01*
X019976Y031297D02*
X020840Y031297D01*
X020849Y031395D02*
X020801Y031395D01*
X020765Y031198D02*
X019985Y031198D01*
X020063Y031203D02*
X020050Y031250D01*
X020063Y031297D01*
X020227Y031250D01*
X020063Y031203D01*
X020200Y031250D02*
X020227Y031250D01*
X020600Y031250D01*
X020555Y030767D02*
X019985Y030767D01*
X019985Y030646D01*
X019920Y030581D01*
X019436Y030581D01*
X019375Y030642D01*
X019364Y030642D01*
X019242Y030764D01*
X019242Y030936D01*
X019364Y031058D01*
X019371Y031058D01*
X019371Y031266D01*
X019326Y031222D01*
X019229Y031222D01*
X019229Y030646D01*
X019164Y030581D01*
X018680Y030581D01*
X018615Y030646D01*
X018615Y030818D01*
X018500Y030818D01*
X018500Y030620D01*
X018435Y030555D01*
X017813Y030555D01*
X017748Y030620D01*
X017748Y030868D01*
X017752Y030872D01*
X017748Y030876D01*
X017748Y031124D01*
X017752Y031128D01*
X017748Y031132D01*
X017748Y031320D01*
X017664Y031320D01*
X017628Y031308D01*
X017605Y031320D01*
X017578Y031320D01*
X017555Y031343D01*
X017555Y030580D01*
X017525Y030551D01*
X017573Y030522D01*
X017580Y030522D01*
X017599Y030506D01*
X017620Y030493D01*
X017622Y030486D01*
X017667Y030448D01*
X017674Y030447D01*
X017690Y030428D01*
X017709Y030412D01*
X017710Y030405D01*
X017727Y030385D01*
X017772Y030430D01*
X017866Y030469D01*
X017968Y030469D01*
X018063Y030430D01*
X018135Y030358D01*
X018174Y030264D01*
X018174Y030162D01*
X018135Y030067D01*
X018063Y029995D01*
X017968Y029956D01*
X017908Y029956D01*
X017911Y029918D01*
X017916Y029913D01*
X017914Y029888D01*
X017916Y029863D01*
X017911Y029858D01*
X017907Y029798D01*
X017910Y029793D01*
X017904Y029768D01*
X017902Y029743D01*
X017897Y029739D01*
X017883Y029681D01*
X017886Y029675D01*
X017876Y029652D01*
X017871Y029627D01*
X017865Y029624D01*
X017842Y029569D01*
X017844Y029562D01*
X017831Y029541D01*
X017821Y029518D01*
X017815Y029515D01*
X017784Y029464D01*
X017784Y029458D01*
X017768Y029439D01*
X017755Y029417D01*
X017748Y029416D01*
X017710Y029370D01*
X017709Y029364D01*
X017690Y029347D01*
X017674Y029328D01*
X017667Y029328D01*
X017622Y029289D01*
X017620Y029283D01*
X017599Y029270D01*
X017580Y029253D01*
X017573Y029254D01*
X017522Y029223D01*
X017520Y029217D01*
X017504Y029210D01*
X017796Y029210D01*
X017806Y029200D01*
X017944Y029200D01*
X018004Y029260D01*
X018296Y029260D01*
X018300Y029256D01*
X018304Y029260D01*
X018540Y029260D01*
X018540Y029352D01*
X018550Y029376D01*
X018550Y029433D01*
X018575Y029458D01*
X018640Y029523D01*
X018640Y029596D01*
X018704Y029660D01*
X018996Y029660D01*
X019060Y029596D01*
X019060Y029304D01*
X019060Y029272D01*
X019200Y029412D01*
X019200Y029712D01*
X019288Y029800D01*
X019300Y029812D01*
X019300Y029938D01*
X019248Y029990D01*
X019054Y029990D01*
X019044Y030000D01*
X018956Y030000D01*
X018946Y029990D01*
X018654Y029990D01*
X018653Y029992D01*
X018564Y029992D01*
X018555Y030000D01*
X018488Y030000D01*
X018400Y030088D01*
X018400Y030432D01*
X018488Y030520D01*
X020272Y030520D01*
X020290Y030502D01*
X020550Y030762D01*
X020555Y030767D01*
X020493Y030706D02*
X019985Y030706D01*
X019946Y030607D02*
X020395Y030607D01*
X020296Y030509D02*
X020284Y030509D01*
X020660Y030159D02*
X020844Y030310D01*
X021148Y030310D01*
X021161Y030297D01*
X022039Y030297D01*
X022104Y030362D01*
X022104Y030392D01*
X022110Y030398D01*
X022110Y030762D01*
X022104Y030768D01*
X022104Y030788D01*
X022039Y030852D01*
X021161Y030852D01*
X021159Y030850D01*
X020983Y030850D01*
X021123Y030990D01*
X021196Y030990D01*
X021260Y031054D01*
X021260Y031346D01*
X021250Y031356D01*
X021250Y031394D01*
X021260Y031404D01*
X021260Y031678D01*
X021338Y031600D01*
X021938Y031600D01*
X021942Y031596D01*
X021942Y031514D01*
X022064Y031392D01*
X022236Y031392D01*
X022358Y031514D01*
X022358Y031686D01*
X022295Y031750D01*
X022329Y031784D01*
X022337Y031764D01*
X022424Y031677D01*
X022574Y031527D01*
X022688Y031480D01*
X023211Y031480D01*
X023217Y031477D01*
X029984Y031477D01*
X034824Y026637D01*
X034938Y026590D01*
X035062Y026590D01*
X035176Y026637D01*
X035263Y026724D01*
X035310Y026838D01*
X035310Y026962D01*
X035263Y027076D01*
X030338Y032000D01*
X031733Y032000D01*
X031850Y032117D01*
X035094Y035361D01*
X035214Y035242D01*
X035386Y035242D01*
X035508Y035364D01*
X035508Y035457D01*
X035516Y035476D01*
X035508Y035493D01*
X035508Y035512D01*
X035547Y035551D01*
X035594Y035663D01*
X035594Y036179D01*
X035547Y036292D01*
X035461Y036378D01*
X035348Y036425D01*
X035226Y036425D01*
X035113Y036378D01*
X035100Y036365D01*
X035100Y036522D01*
X035272Y036593D01*
X035407Y036728D01*
X035480Y036905D01*
X035480Y037095D01*
X035407Y037272D01*
X035327Y037352D01*
X035673Y037352D01*
X035593Y037272D01*
X035520Y037095D01*
X035520Y036905D01*
X035593Y036728D01*
X035728Y036593D01*
X035905Y036520D01*
X036058Y036520D01*
X035927Y036389D01*
X035901Y036378D01*
X035814Y036292D01*
X035768Y036179D01*
X035768Y035663D01*
X035814Y035551D01*
X035901Y035464D01*
X036013Y035418D01*
X036135Y035418D01*
X036248Y035464D01*
X036335Y035551D01*
X036381Y035663D01*
X036381Y036179D01*
X036335Y036292D01*
X036294Y036332D01*
X036312Y036350D01*
X039562Y036350D01*
X039783Y036570D01*
X039905Y036520D01*
X040095Y036520D01*
X040272Y036593D01*
X040407Y036728D01*
X040480Y036905D01*
X040480Y037095D01*
X040407Y037272D01*
X040327Y037352D01*
X040673Y037352D01*
X040593Y037272D01*
X040520Y037095D01*
X040520Y036905D01*
X040593Y036728D01*
X040728Y036593D01*
X040900Y036522D01*
X040900Y036312D01*
X040588Y036000D01*
X039138Y036000D01*
X034913Y031775D01*
X034893Y031756D01*
X034867Y031746D01*
X034863Y031738D01*
X034815Y031715D01*
X034802Y031708D01*
X034764Y031708D01*
X034728Y031672D01*
X034704Y031661D01*
X034697Y031642D01*
X034642Y031586D01*
X034642Y031414D01*
X034764Y031292D01*
X034936Y031292D01*
X034992Y031347D01*
X035011Y031354D01*
X035022Y031378D01*
X035058Y031414D01*
X035058Y031452D01*
X035065Y031465D01*
X035065Y031465D01*
X035088Y031513D01*
X035096Y031517D01*
X035106Y031543D01*
X035125Y031563D01*
X037850Y034288D01*
X037850Y027938D01*
X038875Y026913D01*
X038954Y026913D01*
X038964Y026889D01*
X039050Y026803D01*
X039163Y026756D01*
X039679Y026756D01*
X039792Y026803D01*
X039878Y026889D01*
X039925Y027002D01*
X039925Y027124D01*
X039878Y027237D01*
X039792Y027323D01*
X039679Y027370D01*
X039163Y027370D01*
X039050Y027323D01*
X038970Y027243D01*
X038150Y028062D01*
X038150Y034388D01*
X039312Y035550D01*
X040762Y035550D01*
X041783Y036570D01*
X041905Y036520D01*
X042095Y036520D01*
X042272Y036593D01*
X042407Y036728D01*
X042480Y036905D01*
X042480Y037095D01*
X042407Y037272D01*
X042327Y037352D01*
X042673Y037352D01*
X042593Y037272D01*
X042520Y037095D01*
X042520Y036905D01*
X042593Y036728D01*
X042728Y036593D01*
X042905Y036520D01*
X043095Y036520D01*
X043272Y036593D01*
X043407Y036728D01*
X043480Y036905D01*
X043480Y037095D01*
X043407Y037272D01*
X043327Y037352D01*
X044352Y037352D01*
X044352Y031921D01*
X042882Y031921D01*
X042882Y032015D01*
X042838Y032059D01*
X041595Y032059D01*
X041551Y032015D01*
X041551Y031096D01*
X041452Y031195D01*
X041445Y031195D01*
X041445Y031202D01*
X041390Y031257D01*
X041390Y033997D01*
X041315Y034178D01*
X041178Y034315D01*
X041178Y034315D01*
X040997Y034390D01*
X040102Y034390D01*
X040030Y034360D01*
X040004Y034360D01*
X040000Y034356D01*
X039996Y034360D01*
X039841Y034360D01*
X039792Y034410D01*
X039679Y034456D01*
X039163Y034456D01*
X039050Y034410D01*
X038964Y034323D01*
X038917Y034211D01*
X038917Y034089D01*
X038964Y033976D01*
X039050Y033889D01*
X039163Y033843D01*
X039679Y033843D01*
X039792Y033889D01*
X039842Y033940D01*
X039996Y033940D01*
X040000Y033944D01*
X040004Y033940D01*
X040030Y033940D01*
X040102Y033910D01*
X040900Y033910D01*
X040902Y033910D01*
X040906Y033908D01*
X040908Y033906D01*
X040910Y033902D01*
X040910Y033900D01*
X040910Y031152D01*
X040947Y031064D01*
X041014Y030997D01*
X041086Y030967D01*
X041148Y030905D01*
X041155Y030905D01*
X041155Y030898D01*
X041160Y030893D01*
X041160Y030502D01*
X041170Y030478D01*
X041170Y030455D01*
X041187Y030438D01*
X041190Y030430D01*
X041190Y030404D01*
X041254Y030340D01*
X041280Y030340D01*
X041288Y030337D01*
X041305Y030320D01*
X041328Y030320D01*
X041352Y030310D01*
X041510Y030310D01*
X041551Y030269D01*
X041551Y029985D01*
X041595Y029941D01*
X042838Y029941D01*
X042882Y029985D01*
X042882Y030079D01*
X044352Y030079D01*
X044352Y024648D01*
X043327Y024648D01*
X043407Y024728D01*
X043480Y024905D01*
X043480Y025095D01*
X043407Y025272D01*
X043272Y025407D01*
X043095Y025480D01*
X042905Y025480D01*
X042815Y025443D01*
X042785Y025473D01*
X042785Y025918D01*
X042235Y026468D01*
X042235Y027068D01*
X040095Y029208D01*
X039988Y029315D01*
X039904Y029315D01*
X039925Y029364D01*
X039925Y029486D01*
X039878Y029599D01*
X039792Y029685D01*
X039679Y029732D01*
X039163Y029732D01*
X039050Y029685D01*
X038964Y029599D01*
X038917Y029486D01*
X038917Y029364D01*
X038964Y029251D01*
X039050Y029165D01*
X039163Y029118D01*
X039470Y029118D01*
X039531Y029057D01*
X039560Y029028D01*
X039477Y028945D01*
X039163Y028945D01*
X039050Y028898D01*
X038964Y028812D01*
X038917Y028699D01*
X038917Y028577D01*
X038964Y028464D01*
X039050Y028378D01*
X039163Y028331D01*
X039679Y028331D01*
X039792Y028378D01*
X039878Y028464D01*
X039923Y028574D01*
X041665Y026832D01*
X041665Y026232D01*
X041772Y026125D01*
X042215Y025682D01*
X042215Y025478D01*
X042213Y025476D01*
X042213Y025471D01*
X042185Y025443D01*
X042095Y025480D01*
X041905Y025480D01*
X041728Y025407D01*
X041593Y025272D01*
X041520Y025095D01*
X041520Y024905D01*
X041593Y024728D01*
X041673Y024648D01*
X041327Y024648D01*
X041407Y024728D01*
X041480Y024905D01*
X041480Y025095D01*
X041407Y025272D01*
X041272Y025407D01*
X041095Y025480D01*
X041082Y025480D01*
X041212Y025534D01*
X041366Y025688D01*
X041450Y025891D01*
X041450Y026109D01*
X041366Y026312D01*
X041212Y026466D01*
X041009Y026550D01*
X040791Y026550D01*
X040588Y026466D01*
X040434Y026312D01*
X040350Y026109D01*
X040350Y025891D01*
X040434Y025688D01*
X040588Y025534D01*
X040791Y025450D01*
X040832Y025450D01*
X040728Y025407D01*
X040593Y025272D01*
X040520Y025095D01*
X040520Y024905D01*
X040593Y024728D01*
X040673Y024648D01*
X039327Y024648D01*
X039407Y024728D01*
X039480Y024905D01*
X039480Y025095D01*
X039407Y025272D01*
X039272Y025407D01*
X039150Y025457D01*
X039150Y025512D01*
X039062Y025600D01*
X038743Y025919D01*
X038743Y026337D01*
X038697Y026449D01*
X038610Y026536D01*
X038498Y026582D01*
X038376Y026582D01*
X038263Y026536D01*
X038176Y026449D01*
X038130Y026337D01*
X038130Y025821D01*
X038176Y025708D01*
X038263Y025622D01*
X038376Y025575D01*
X038498Y025575D01*
X038610Y025622D01*
X038613Y025625D01*
X038801Y025437D01*
X038728Y025407D01*
X038593Y025272D01*
X038520Y025095D01*
X038520Y024905D01*
X038593Y024728D01*
X038673Y024648D01*
X038327Y024648D01*
X038407Y024728D01*
X038480Y024905D01*
X038480Y025095D01*
X038407Y025272D01*
X038272Y025407D01*
X038150Y025457D01*
X038150Y025462D01*
X038062Y025550D01*
X037907Y025705D01*
X037909Y025708D01*
X037956Y025821D01*
X037956Y026337D01*
X037909Y026449D01*
X037823Y026536D01*
X037710Y026582D01*
X037588Y026582D01*
X037475Y026536D01*
X037389Y026449D01*
X037342Y026337D01*
X037342Y025821D01*
X037389Y025708D01*
X037475Y025622D01*
X037588Y025575D01*
X037613Y025575D01*
X037765Y025422D01*
X037728Y025407D01*
X037593Y025272D01*
X037520Y025095D01*
X037520Y024905D01*
X037593Y024728D01*
X037673Y024648D01*
X037327Y024648D01*
X037407Y024728D01*
X037480Y024905D01*
X037480Y025095D01*
X037407Y025272D01*
X037272Y025407D01*
X037150Y025457D01*
X037150Y025512D01*
X037062Y025600D01*
X037038Y025624D01*
X037122Y025708D01*
X037169Y025821D01*
X037169Y026337D01*
X037122Y026449D01*
X037036Y026536D01*
X036923Y026582D01*
X036801Y026582D01*
X036688Y026536D01*
X036602Y026449D01*
X036555Y026337D01*
X036555Y025821D01*
X036602Y025708D01*
X036688Y025622D01*
X036712Y025612D01*
X036712Y025526D01*
X036801Y025437D01*
X036728Y025407D01*
X036593Y025272D01*
X036520Y025095D01*
X036520Y024905D01*
X036593Y024728D01*
X036673Y024648D01*
X036327Y024648D01*
X036407Y024728D01*
X036480Y024905D01*
X036480Y025095D01*
X036407Y025272D01*
X036272Y025407D01*
X036224Y025427D01*
X036224Y025612D01*
X036248Y025622D01*
X036335Y025708D01*
X036381Y025821D01*
X036381Y026337D01*
X036335Y026449D01*
X036248Y026536D01*
X036135Y026582D01*
X036013Y026582D01*
X035901Y026536D01*
X035814Y026449D01*
X035768Y026337D01*
X035768Y025821D01*
X035814Y025708D01*
X035901Y025622D01*
X035924Y025612D01*
X035924Y025537D01*
X035850Y025462D01*
X035850Y025457D01*
X035728Y025407D01*
X035593Y025272D01*
X035520Y025095D01*
X035520Y024905D01*
X035593Y024728D01*
X035673Y024648D01*
X035327Y024648D01*
X035407Y024728D01*
X035480Y024905D01*
X035480Y025095D01*
X035407Y025272D01*
X035272Y025407D01*
X035095Y025480D01*
X034905Y025480D01*
X034728Y025407D01*
X034593Y025272D01*
X034520Y025095D01*
X034520Y024905D01*
X034593Y024728D01*
X034673Y024648D01*
X034327Y024648D01*
X034407Y024728D01*
X034480Y024905D01*
X034480Y025095D01*
X034434Y025207D01*
X034660Y025433D01*
X034660Y025616D01*
X034673Y025622D01*
X034760Y025708D01*
X034806Y025821D01*
X034806Y026337D01*
X034760Y026449D01*
X034673Y026536D01*
X034561Y026582D01*
X034439Y026582D01*
X034326Y026536D01*
X034239Y026449D01*
X034193Y026337D01*
X034193Y025821D01*
X034239Y025708D01*
X034326Y025622D01*
X034340Y025616D01*
X034340Y025566D01*
X034207Y025434D01*
X034095Y025480D01*
X033905Y025480D01*
X033728Y025407D01*
X033593Y025272D01*
X033520Y025095D01*
X033520Y024905D01*
X033593Y024728D01*
X033673Y024648D01*
X033327Y024648D01*
X033407Y024728D01*
X033480Y024905D01*
X033480Y025095D01*
X033434Y025207D01*
X033821Y025595D01*
X033886Y025622D01*
X033972Y025708D01*
X034019Y025821D01*
X034019Y026337D01*
X033972Y026449D01*
X033886Y026536D01*
X033773Y026582D01*
X033651Y026582D01*
X033538Y026536D01*
X033452Y026449D01*
X033405Y026337D01*
X033405Y025821D01*
X033452Y025708D01*
X033467Y025693D01*
X033207Y025434D01*
X033095Y025480D01*
X032905Y025480D01*
X032728Y025407D01*
X032593Y025272D01*
X032520Y025095D01*
X032520Y024905D01*
X032593Y024728D01*
X032673Y024648D01*
X032327Y024648D01*
X032407Y024728D01*
X032480Y024905D01*
X032480Y025095D01*
X032434Y025207D01*
X032820Y025593D01*
X032864Y025575D01*
X032986Y025575D01*
X033099Y025622D01*
X033185Y025708D01*
X033232Y025821D01*
X033232Y026337D01*
X033185Y026449D01*
X033099Y026536D01*
X032986Y026582D01*
X032864Y026582D01*
X032751Y026536D01*
X032665Y026449D01*
X032618Y026337D01*
X032618Y025844D01*
X032207Y025434D01*
X032095Y025480D01*
X031905Y025480D01*
X031728Y025407D01*
X031593Y025272D01*
X031520Y025095D01*
X031520Y024905D01*
X031593Y024728D01*
X031673Y024648D01*
X031327Y024648D01*
X031407Y024728D01*
X031480Y024905D01*
X031480Y025095D01*
X031434Y025207D01*
X031906Y025680D01*
X031964Y025622D01*
X032076Y025575D01*
X032198Y025575D01*
X032311Y025622D01*
X032398Y025708D01*
X032444Y025821D01*
X032444Y026337D01*
X032398Y026449D01*
X032311Y026536D01*
X032198Y026582D01*
X032076Y026582D01*
X031964Y026536D01*
X031877Y026449D01*
X031831Y026337D01*
X031831Y026057D01*
X031657Y025883D01*
X031657Y026337D01*
X031610Y026449D01*
X031524Y026536D01*
X031411Y026582D01*
X031289Y026582D01*
X031176Y026536D01*
X031090Y026449D01*
X031043Y026337D01*
X031043Y026119D01*
X030869Y025946D01*
X030869Y026337D01*
X030823Y026449D01*
X030736Y026536D01*
X030624Y026582D01*
X030502Y026582D01*
X030389Y026536D01*
X030302Y026449D01*
X030256Y026337D01*
X030256Y026132D01*
X030082Y025958D01*
X030082Y026337D01*
X030035Y026449D01*
X029949Y026536D01*
X029836Y026582D01*
X029714Y026582D01*
X029601Y026536D01*
X029515Y026449D01*
X029468Y026337D01*
X029468Y026145D01*
X029295Y025971D01*
X029295Y026337D01*
X029248Y026449D01*
X029162Y026536D01*
X029049Y026582D01*
X028927Y026582D01*
X028814Y026536D01*
X028728Y026449D01*
X028681Y026337D01*
X028681Y026107D01*
X028507Y025934D01*
X028507Y026337D01*
X028461Y026449D01*
X028374Y026536D01*
X028261Y026582D01*
X028139Y026582D01*
X028027Y026536D01*
X027940Y026449D01*
X027894Y026337D01*
X027894Y026120D01*
X027484Y025710D01*
X026887Y025710D01*
X026932Y025821D01*
X026932Y026337D01*
X026886Y026449D01*
X026808Y026527D01*
X026808Y026586D01*
X026812Y026614D01*
X026815Y026638D01*
X026815Y026638D01*
X026808Y026647D01*
X026808Y026686D01*
X026686Y026808D01*
X026514Y026808D01*
X026392Y026686D01*
X026392Y026598D01*
X026383Y026575D01*
X026392Y026555D01*
X026392Y026514D01*
X026411Y026495D01*
X026365Y026449D01*
X026319Y026337D01*
X026319Y025821D01*
X026365Y025708D01*
X026424Y025650D01*
X026207Y025434D01*
X026095Y025480D01*
X025905Y025480D01*
X025728Y025407D01*
X025593Y025272D01*
X025520Y025095D01*
X025520Y024905D01*
X025593Y024728D01*
X025673Y024648D01*
X024327Y024648D01*
X024407Y024728D01*
X024480Y024905D01*
X024480Y025095D01*
X024407Y025272D01*
X024272Y025407D01*
X024095Y025480D01*
X023958Y025480D01*
X022513Y026926D01*
X022473Y026965D01*
X022526Y026987D01*
X022776Y027237D01*
X022863Y027324D01*
X022910Y027438D01*
X022910Y027590D01*
X023021Y027544D01*
X023294Y027544D01*
X023468Y027370D01*
X023021Y027370D01*
X022908Y027323D01*
X022822Y027237D01*
X022775Y027124D01*
X022775Y027002D01*
X022822Y026889D01*
X022908Y026803D01*
X023021Y026756D01*
X023537Y026756D01*
X023604Y026784D01*
X023650Y026738D01*
X023738Y026650D01*
X023789Y026650D01*
X023814Y026638D01*
X023823Y026641D01*
X023886Y026619D01*
X023914Y026592D01*
X023965Y026592D01*
X023990Y026583D01*
X024008Y026592D01*
X024032Y026592D01*
X024032Y026590D01*
X024034Y026582D01*
X024042Y026563D01*
X024042Y026514D01*
X024055Y026501D01*
X024003Y026449D01*
X023957Y026337D01*
X023957Y025821D01*
X024003Y025708D01*
X024090Y025622D01*
X024202Y025575D01*
X024324Y025575D01*
X024437Y025622D01*
X024524Y025708D01*
X024570Y025821D01*
X024570Y026337D01*
X024524Y026449D01*
X024458Y026515D01*
X024458Y026579D01*
X024467Y026623D01*
X024467Y026623D01*
X024467Y026623D01*
X024458Y026637D01*
X024458Y026686D01*
X024336Y026808D01*
X024208Y026808D01*
X024208Y026886D01*
X024086Y027008D01*
X024058Y027008D01*
X024058Y027075D01*
X024064Y027091D01*
X024058Y027101D01*
X024058Y027136D01*
X024020Y027175D01*
X024000Y027213D01*
X024000Y027262D01*
X023947Y027315D01*
X023929Y027350D01*
X023920Y027353D01*
X023914Y027361D01*
X023898Y027364D01*
X023887Y027375D01*
X023661Y027601D01*
X023736Y027677D01*
X023783Y027789D01*
X023783Y027911D01*
X023736Y028024D01*
X023650Y028111D01*
X023537Y028157D01*
X023021Y028157D01*
X022910Y028111D01*
X022910Y028377D01*
X023021Y028331D01*
X023537Y028331D01*
X023650Y028378D01*
X023714Y028442D01*
X023786Y028442D01*
X023908Y028564D01*
X023908Y028736D01*
X023786Y028858D01*
X023708Y028858D01*
X023690Y028867D01*
X023690Y028867D01*
X023690Y028867D01*
X023683Y028865D01*
X023650Y028898D01*
X023537Y028945D01*
X023021Y028945D01*
X022910Y028899D01*
X022910Y029522D01*
X023291Y029903D01*
X023341Y029903D01*
X023348Y029906D01*
X023537Y029906D01*
X023650Y029952D01*
X023736Y030039D01*
X023783Y030152D01*
X023783Y030274D01*
X023736Y030386D01*
X023650Y030473D01*
X023589Y030498D01*
X023589Y030715D01*
X023650Y030740D01*
X023736Y030826D01*
X023783Y030939D01*
X023783Y031061D01*
X023736Y031174D01*
X023650Y031260D01*
X023537Y031307D01*
X023348Y031307D01*
X023341Y031310D01*
X023217Y031310D01*
X023210Y031307D01*
X023021Y031307D01*
X022908Y031260D01*
X022822Y031174D01*
X022775Y031061D01*
X022775Y030939D01*
X022822Y030826D01*
X022908Y030740D01*
X022969Y030715D01*
X022969Y030498D01*
X022908Y030473D01*
X022822Y030386D01*
X022775Y030274D01*
X022775Y030264D01*
X022337Y029826D01*
X022290Y029712D01*
X022290Y027628D01*
X022222Y027560D01*
X022060Y027560D01*
X022060Y027846D01*
X021996Y027910D01*
X021786Y027910D01*
X021756Y027940D01*
X021470Y028226D01*
X021470Y029414D01*
X021666Y029610D01*
X022026Y029610D01*
X022120Y029704D01*
X022120Y030116D01*
X022104Y030133D01*
X022104Y030138D01*
X022039Y030203D01*
X022034Y030203D01*
X022026Y030210D01*
X021894Y030210D01*
X021886Y030203D01*
X021161Y030203D01*
X021158Y030200D01*
X021134Y030200D01*
X021040Y030106D01*
X021040Y029646D01*
X020933Y029510D01*
X020904Y029510D01*
X020840Y029446D01*
X020840Y029416D01*
X020830Y029406D01*
X020830Y029276D01*
X020584Y029030D01*
X020350Y029030D01*
X020350Y029070D01*
X020572Y029070D01*
X020660Y029158D01*
X020660Y030159D01*
X020660Y030115D02*
X021048Y030115D01*
X021040Y030016D02*
X020660Y030016D01*
X020660Y029918D02*
X021040Y029918D01*
X021040Y029819D02*
X020660Y029819D01*
X020660Y029721D02*
X021040Y029721D01*
X021021Y029622D02*
X020660Y029622D01*
X020600Y029650D02*
X020595Y029645D01*
X020595Y029443D01*
X020730Y029338D01*
X020700Y029300D01*
X020655Y029283D01*
X020595Y029443D01*
X020595Y029326D01*
X020650Y029380D01*
X020650Y029400D01*
X020660Y029425D02*
X020840Y029425D01*
X020830Y029327D02*
X020660Y029327D01*
X020654Y029315D02*
X020700Y029300D01*
X020731Y029263D01*
X020600Y029154D01*
X020654Y029315D01*
X020700Y029300D02*
X020600Y029200D01*
X020600Y029154D01*
X020600Y029150D01*
X020548Y029098D01*
X020437Y028968D01*
X020400Y029000D01*
X020353Y028987D01*
X020398Y028823D01*
X020446Y028986D01*
X020400Y029000D01*
X020385Y029046D01*
X020548Y029098D01*
X020450Y029000D01*
X020400Y029000D01*
X020398Y028998D01*
X020398Y028823D01*
X020398Y028774D01*
X020558Y028780D02*
X020558Y028708D01*
X020558Y028707D01*
X020558Y028591D01*
X020508Y028542D01*
X020510Y028540D01*
X020510Y027900D01*
X020894Y027900D01*
X020904Y027910D01*
X021196Y027910D01*
X021206Y027900D01*
X021290Y027900D01*
X021290Y027010D01*
X021540Y027010D01*
X021530Y027120D01*
X021530Y027410D01*
X021532Y027412D01*
X021532Y027496D01*
X021654Y027618D01*
X021690Y027618D01*
X021690Y027780D01*
X021310Y028160D01*
X021310Y029480D01*
X021600Y029770D01*
X021960Y029770D01*
X021960Y030050D01*
X021950Y030040D01*
X021200Y030040D01*
X021200Y029590D01*
X021010Y029350D01*
X021000Y029350D01*
X020990Y029340D01*
X020990Y029210D01*
X020960Y029180D01*
X020960Y029163D01*
X020687Y028890D01*
X020670Y028890D01*
X020650Y028870D01*
X020579Y028870D01*
X020565Y028821D01*
X020570Y028801D01*
X020558Y028780D01*
X020558Y028736D02*
X021310Y028736D01*
X021310Y028834D02*
X020568Y028834D01*
X020729Y028933D02*
X021310Y028933D01*
X021310Y029031D02*
X020828Y029031D01*
X020926Y029130D02*
X021310Y029130D01*
X021250Y029200D02*
X021250Y029300D01*
X021300Y029350D01*
X021300Y029450D01*
X021310Y029425D02*
X021069Y029425D01*
X021147Y029524D02*
X021354Y029524D01*
X021452Y029622D02*
X021200Y029622D01*
X021200Y029721D02*
X021551Y029721D01*
X021580Y029524D02*
X022290Y029524D01*
X022290Y029622D02*
X022038Y029622D01*
X022120Y029721D02*
X022294Y029721D01*
X022334Y029819D02*
X022120Y029819D01*
X022120Y029918D02*
X022429Y029918D01*
X022528Y030016D02*
X022120Y030016D01*
X022120Y030115D02*
X022626Y030115D01*
X022725Y030213D02*
X020726Y030213D01*
X021200Y030016D02*
X021960Y030016D01*
X021960Y029918D02*
X021200Y029918D01*
X021200Y029819D02*
X021960Y029819D01*
X022053Y030312D02*
X022791Y030312D01*
X022846Y030410D02*
X022110Y030410D01*
X022110Y030509D02*
X022969Y030509D01*
X022969Y030607D02*
X022110Y030607D01*
X022110Y030706D02*
X022969Y030706D01*
X022844Y030804D02*
X022087Y030804D01*
X022060Y031395D02*
X021251Y031395D01*
X021260Y031297D02*
X022996Y031297D01*
X022846Y031198D02*
X021260Y031198D01*
X021260Y031100D02*
X022791Y031100D01*
X022775Y031001D02*
X021207Y031001D01*
X021035Y030903D02*
X022791Y030903D01*
X022656Y031494D02*
X022338Y031494D01*
X022358Y031592D02*
X022510Y031592D01*
X022411Y031691D02*
X022354Y031691D01*
X022240Y031395D02*
X030067Y031395D01*
X030165Y031297D02*
X023562Y031297D01*
X023712Y031198D02*
X030264Y031198D01*
X030362Y031100D02*
X023767Y031100D01*
X023783Y031001D02*
X030461Y031001D01*
X030559Y030903D02*
X023768Y030903D01*
X023714Y030804D02*
X030658Y030804D01*
X030756Y030706D02*
X023589Y030706D01*
X023589Y030607D02*
X030855Y030607D01*
X030953Y030509D02*
X023589Y030509D01*
X023713Y030410D02*
X031052Y030410D01*
X031150Y030312D02*
X023767Y030312D01*
X023783Y030213D02*
X031249Y030213D01*
X031347Y030115D02*
X023767Y030115D01*
X023713Y030016D02*
X031446Y030016D01*
X031544Y029918D02*
X023565Y029918D01*
X023207Y029819D02*
X031643Y029819D01*
X031741Y029721D02*
X023109Y029721D01*
X023010Y029622D02*
X031840Y029622D01*
X031938Y029524D02*
X022912Y029524D01*
X022910Y029425D02*
X032037Y029425D01*
X032135Y029327D02*
X022910Y029327D01*
X022910Y029228D02*
X032234Y029228D01*
X032332Y029130D02*
X022910Y029130D01*
X022910Y029031D02*
X032431Y029031D01*
X032529Y028933D02*
X023566Y028933D01*
X023811Y028834D02*
X032628Y028834D01*
X032726Y028736D02*
X023908Y028736D01*
X023908Y028637D02*
X032825Y028637D01*
X032923Y028539D02*
X023883Y028539D01*
X023712Y028440D02*
X033022Y028440D01*
X033120Y028342D02*
X023563Y028342D01*
X023568Y028145D02*
X033317Y028145D01*
X033219Y028243D02*
X022910Y028243D01*
X022910Y028145D02*
X022991Y028145D01*
X022996Y028342D02*
X022910Y028342D01*
X022910Y028933D02*
X022992Y028933D01*
X022290Y028933D02*
X021470Y028933D01*
X021470Y029031D02*
X022290Y029031D01*
X022290Y029130D02*
X021470Y029130D01*
X021470Y029228D02*
X022290Y029228D01*
X022290Y029327D02*
X021470Y029327D01*
X021481Y029425D02*
X022290Y029425D01*
X022290Y028834D02*
X021470Y028834D01*
X021470Y028736D02*
X022290Y028736D01*
X022290Y028637D02*
X021470Y028637D01*
X021470Y028539D02*
X022290Y028539D01*
X022290Y028440D02*
X021470Y028440D01*
X021470Y028342D02*
X022290Y028342D01*
X022290Y028243D02*
X021470Y028243D01*
X021552Y028145D02*
X022290Y028145D01*
X022290Y028046D02*
X021650Y028046D01*
X021749Y027948D02*
X022290Y027948D01*
X022290Y027849D02*
X022057Y027849D01*
X022060Y027751D02*
X022290Y027751D01*
X022290Y027652D02*
X022060Y027652D01*
X021690Y027652D02*
X021290Y027652D01*
X021290Y027554D02*
X021589Y027554D01*
X021532Y027455D02*
X021290Y027455D01*
X021290Y027357D02*
X021530Y027357D01*
X021530Y027258D02*
X021290Y027258D01*
X021290Y027160D02*
X021530Y027160D01*
X021535Y027061D02*
X021290Y027061D01*
X021130Y027061D02*
X020827Y027061D01*
X020863Y027026D02*
X020776Y027113D01*
X020700Y027144D01*
X020700Y027462D01*
X020612Y027550D01*
X019669Y027550D01*
X019450Y027805D01*
X019450Y028594D01*
X019454Y028590D01*
X019746Y028590D01*
X019806Y028650D01*
X019846Y028650D01*
X019846Y028591D01*
X019887Y028550D01*
X019767Y028550D01*
X019727Y028510D01*
X019654Y028510D01*
X019590Y028446D01*
X019590Y028154D01*
X019654Y028090D01*
X019946Y028090D01*
X020006Y028150D01*
X020050Y028150D01*
X020050Y028106D01*
X020040Y028096D01*
X020040Y027804D01*
X020104Y027740D01*
X020396Y027740D01*
X020400Y027744D01*
X020404Y027740D01*
X021130Y027740D01*
X021130Y026944D01*
X021143Y026930D01*
X021187Y026824D01*
X021437Y026574D01*
X021462Y026550D01*
X021391Y026550D01*
X021188Y026466D01*
X021034Y026312D01*
X020950Y026109D01*
X020950Y025891D01*
X021034Y025688D01*
X021188Y025534D01*
X021391Y025450D01*
X021609Y025450D01*
X021812Y025534D01*
X021966Y025688D01*
X022050Y025891D01*
X022050Y026109D01*
X021966Y026312D01*
X021838Y026440D01*
X022122Y026440D01*
X023082Y025480D01*
X022905Y025480D01*
X022728Y025407D01*
X022593Y025272D01*
X022520Y025095D01*
X022520Y024905D01*
X022593Y024728D01*
X022673Y024648D01*
X022327Y024648D01*
X022407Y024728D01*
X022480Y024905D01*
X022480Y025095D01*
X022407Y025272D01*
X022272Y025407D01*
X022095Y025480D01*
X021905Y025480D01*
X021728Y025407D01*
X021593Y025272D01*
X021520Y025095D01*
X021520Y024905D01*
X021593Y024728D01*
X021673Y024648D01*
X021327Y024648D01*
X021407Y024728D01*
X021480Y024905D01*
X021480Y025095D01*
X021407Y025272D01*
X021272Y025407D01*
X021095Y025480D01*
X020905Y025480D01*
X020728Y025407D01*
X020593Y025272D01*
X020520Y025095D01*
X020520Y024905D01*
X020593Y024728D01*
X020673Y024648D01*
X020327Y024648D01*
X020407Y024728D01*
X020480Y024905D01*
X020480Y025095D01*
X020407Y025272D01*
X020272Y025407D01*
X020095Y025480D01*
X019905Y025480D01*
X019728Y025407D01*
X019593Y025272D01*
X019520Y025095D01*
X019520Y024905D01*
X019593Y024728D01*
X019673Y024648D01*
X019327Y024648D01*
X019407Y024728D01*
X019480Y024905D01*
X019480Y025095D01*
X019407Y025272D01*
X019272Y025407D01*
X019095Y025480D01*
X018905Y025480D01*
X018728Y025407D01*
X018593Y025272D01*
X018520Y025095D01*
X018520Y024905D01*
X018593Y024728D01*
X018673Y024648D01*
X018327Y024648D01*
X018407Y024728D01*
X018480Y024905D01*
X018480Y025095D01*
X018407Y025272D01*
X018272Y025407D01*
X018095Y025480D01*
X017905Y025480D01*
X017728Y025407D01*
X017593Y025272D01*
X017520Y025095D01*
X017520Y024905D01*
X017593Y024728D01*
X017673Y024648D01*
X016648Y024648D01*
X016648Y025665D01*
X018092Y025665D01*
X018136Y025708D01*
X018136Y025697D01*
X018200Y025633D01*
X018589Y025633D01*
X018632Y025615D01*
X019862Y025615D01*
X019976Y025662D01*
X019978Y025665D01*
X020096Y025665D01*
X020160Y025729D01*
X020160Y026121D01*
X020096Y026185D01*
X019978Y026185D01*
X019976Y026188D01*
X019910Y026215D01*
X020346Y026215D01*
X020351Y026220D01*
X020612Y026220D01*
X020700Y026308D01*
X020700Y026556D01*
X020776Y026587D01*
X020863Y026674D01*
X020910Y026788D01*
X020910Y026912D01*
X020863Y027026D01*
X020889Y026963D02*
X021130Y026963D01*
X021171Y026864D02*
X020910Y026864D01*
X020901Y026766D02*
X021246Y026766D01*
X021345Y026667D02*
X020855Y026667D01*
X020730Y026569D02*
X021443Y026569D01*
X021437Y026574D02*
X021437Y026574D01*
X021197Y026470D02*
X020700Y026470D01*
X020700Y026372D02*
X021094Y026372D01*
X021018Y026273D02*
X020665Y026273D01*
X020977Y026175D02*
X020106Y026175D01*
X020160Y026076D02*
X020950Y026076D01*
X020950Y025978D02*
X020160Y025978D01*
X020160Y025879D02*
X020955Y025879D01*
X020996Y025781D02*
X020160Y025781D01*
X020113Y025682D02*
X021040Y025682D01*
X021139Y025584D02*
X016648Y025584D01*
X016648Y025485D02*
X021306Y025485D01*
X021292Y025387D02*
X021708Y025387D01*
X021694Y025485D02*
X023077Y025485D01*
X022978Y025584D02*
X021861Y025584D01*
X021960Y025682D02*
X022880Y025682D01*
X022781Y025781D02*
X022004Y025781D01*
X022045Y025879D02*
X022683Y025879D01*
X022584Y025978D02*
X022050Y025978D01*
X022050Y026076D02*
X022486Y026076D01*
X022387Y026175D02*
X022023Y026175D01*
X021982Y026273D02*
X022289Y026273D01*
X022190Y026372D02*
X021906Y026372D01*
X022476Y026963D02*
X022792Y026963D01*
X022775Y027061D02*
X022599Y027061D01*
X022698Y027160D02*
X022790Y027160D01*
X022796Y027258D02*
X022843Y027258D01*
X022876Y027357D02*
X022989Y027357D01*
X022910Y027455D02*
X023383Y027455D01*
X023709Y027554D02*
X033908Y027554D01*
X033810Y027652D02*
X023712Y027652D01*
X023767Y027751D02*
X033711Y027751D01*
X033613Y027849D02*
X023783Y027849D01*
X023768Y027948D02*
X033514Y027948D01*
X033416Y028046D02*
X023714Y028046D01*
X023807Y027455D02*
X034007Y027455D01*
X034105Y027357D02*
X023917Y027357D01*
X024000Y027258D02*
X034204Y027258D01*
X034302Y027160D02*
X024035Y027160D01*
X024064Y027091D02*
X024064Y027091D01*
X024064Y027091D01*
X024058Y027061D02*
X034401Y027061D01*
X034499Y026963D02*
X024132Y026963D01*
X024208Y026864D02*
X034598Y026864D01*
X034696Y026766D02*
X026729Y026766D01*
X026808Y026667D02*
X034795Y026667D01*
X034739Y026470D02*
X035835Y026470D01*
X035782Y026372D02*
X034792Y026372D01*
X034806Y026273D02*
X035768Y026273D01*
X035768Y026175D02*
X034806Y026175D01*
X034806Y026076D02*
X035768Y026076D01*
X035768Y025978D02*
X034806Y025978D01*
X034806Y025879D02*
X035768Y025879D01*
X035784Y025781D02*
X034790Y025781D01*
X034734Y025682D02*
X035840Y025682D01*
X035924Y025584D02*
X034660Y025584D01*
X034660Y025485D02*
X035873Y025485D01*
X035708Y025387D02*
X035292Y025387D01*
X035391Y025288D02*
X035609Y025288D01*
X035559Y025190D02*
X035441Y025190D01*
X035480Y025091D02*
X035520Y025091D01*
X035520Y024993D02*
X035480Y024993D01*
X035476Y024894D02*
X035524Y024894D01*
X035565Y024796D02*
X035435Y024796D01*
X035376Y024697D02*
X035624Y024697D01*
X036376Y024697D02*
X036624Y024697D01*
X036565Y024796D02*
X036435Y024796D01*
X036476Y024894D02*
X036524Y024894D01*
X036520Y024993D02*
X036480Y024993D01*
X036480Y025091D02*
X036520Y025091D01*
X036559Y025190D02*
X036441Y025190D01*
X036391Y025288D02*
X036609Y025288D01*
X036708Y025387D02*
X036292Y025387D01*
X036224Y025485D02*
X036753Y025485D01*
X036712Y025584D02*
X036224Y025584D01*
X036308Y025682D02*
X036628Y025682D01*
X036572Y025781D02*
X036365Y025781D01*
X036381Y025879D02*
X036555Y025879D01*
X036555Y025978D02*
X036381Y025978D01*
X036381Y026076D02*
X036555Y026076D01*
X036555Y026175D02*
X036381Y026175D01*
X036381Y026273D02*
X036555Y026273D01*
X036569Y026372D02*
X036367Y026372D01*
X036314Y026470D02*
X036622Y026470D01*
X036767Y026569D02*
X036169Y026569D01*
X035980Y026569D02*
X034594Y026569D01*
X034405Y026569D02*
X033807Y026569D01*
X033952Y026470D02*
X034260Y026470D01*
X034207Y026372D02*
X034005Y026372D01*
X034019Y026273D02*
X034193Y026273D01*
X034193Y026175D02*
X034019Y026175D01*
X034019Y026076D02*
X034193Y026076D01*
X034193Y025978D02*
X034019Y025978D01*
X034019Y025879D02*
X034193Y025879D01*
X034209Y025781D02*
X034002Y025781D01*
X033946Y025682D02*
X034266Y025682D01*
X034340Y025584D02*
X033810Y025584D01*
X033711Y025485D02*
X034259Y025485D01*
X034500Y025500D02*
X034000Y025000D01*
X034441Y025190D02*
X034559Y025190D01*
X034520Y025091D02*
X034480Y025091D01*
X034480Y024993D02*
X034520Y024993D01*
X034524Y024894D02*
X034476Y024894D01*
X034435Y024796D02*
X034565Y024796D01*
X034624Y024697D02*
X034376Y024697D01*
X034514Y025288D02*
X034609Y025288D01*
X034613Y025387D02*
X034708Y025387D01*
X034500Y025500D02*
X034500Y026079D01*
X033712Y026079D02*
X033712Y025712D01*
X033000Y025000D01*
X033441Y025190D02*
X033559Y025190D01*
X033520Y025091D02*
X033480Y025091D01*
X033480Y024993D02*
X033520Y024993D01*
X033524Y024894D02*
X033476Y024894D01*
X033435Y024796D02*
X033565Y024796D01*
X033624Y024697D02*
X033376Y024697D01*
X033514Y025288D02*
X033609Y025288D01*
X033613Y025387D02*
X033708Y025387D01*
X033456Y025682D02*
X033159Y025682D01*
X033215Y025781D02*
X033422Y025781D01*
X033405Y025879D02*
X033232Y025879D01*
X033232Y025978D02*
X033405Y025978D01*
X033405Y026076D02*
X033232Y026076D01*
X033232Y026175D02*
X033405Y026175D01*
X033405Y026273D02*
X033232Y026273D01*
X033217Y026372D02*
X033420Y026372D01*
X033473Y026470D02*
X033164Y026470D01*
X033019Y026569D02*
X033618Y026569D01*
X032830Y026569D02*
X032232Y026569D01*
X032377Y026470D02*
X032685Y026470D01*
X032632Y026372D02*
X032430Y026372D01*
X032444Y026273D02*
X032618Y026273D01*
X032618Y026175D02*
X032444Y026175D01*
X032444Y026076D02*
X032618Y026076D01*
X032618Y025978D02*
X032444Y025978D01*
X032444Y025879D02*
X032618Y025879D01*
X032554Y025781D02*
X032428Y025781D01*
X032456Y025682D02*
X032371Y025682D01*
X032357Y025584D02*
X032219Y025584D01*
X032259Y025485D02*
X031711Y025485D01*
X031708Y025387D02*
X031613Y025387D01*
X031609Y025288D02*
X031514Y025288D01*
X031559Y025190D02*
X031441Y025190D01*
X031480Y025091D02*
X031520Y025091D01*
X031520Y024993D02*
X031480Y024993D01*
X031476Y024894D02*
X031524Y024894D01*
X031565Y024796D02*
X031435Y024796D01*
X031376Y024697D02*
X031624Y024697D01*
X032000Y025000D02*
X032925Y025925D01*
X032925Y026079D01*
X033006Y025584D02*
X033357Y025584D01*
X033259Y025485D02*
X032711Y025485D01*
X032708Y025387D02*
X032613Y025387D01*
X032609Y025288D02*
X032514Y025288D01*
X032559Y025190D02*
X032441Y025190D01*
X032480Y025091D02*
X032520Y025091D01*
X032520Y024993D02*
X032480Y024993D01*
X032476Y024894D02*
X032524Y024894D01*
X032565Y024796D02*
X032435Y024796D01*
X032376Y024697D02*
X032624Y024697D01*
X032810Y025584D02*
X032843Y025584D01*
X032056Y025584D02*
X031810Y025584D01*
X031751Y025978D02*
X031657Y025978D01*
X031657Y026076D02*
X031831Y026076D01*
X031831Y026175D02*
X031657Y026175D01*
X031657Y026273D02*
X031831Y026273D01*
X031845Y026372D02*
X031642Y026372D01*
X031590Y026470D02*
X031898Y026470D01*
X032043Y026569D02*
X031445Y026569D01*
X031255Y026569D02*
X030657Y026569D01*
X030802Y026470D02*
X031110Y026470D01*
X031058Y026372D02*
X030855Y026372D01*
X030869Y026273D02*
X031043Y026273D01*
X031043Y026175D02*
X030869Y026175D01*
X030869Y026076D02*
X031000Y026076D01*
X030901Y025978D02*
X030869Y025978D01*
X030563Y026079D02*
X030429Y026079D01*
X029900Y025550D01*
X029550Y025550D01*
X029000Y025000D01*
X028600Y025550D02*
X028050Y025000D01*
X028000Y025000D01*
X027800Y025550D02*
X027250Y025000D01*
X027000Y025000D01*
X026550Y025550D02*
X026000Y025000D01*
X025559Y025190D02*
X024441Y025190D01*
X024480Y025091D02*
X025520Y025091D01*
X025520Y024993D02*
X024480Y024993D01*
X024476Y024894D02*
X025524Y024894D01*
X025565Y024796D02*
X024435Y024796D01*
X024376Y024697D02*
X025624Y024697D01*
X025609Y025288D02*
X024391Y025288D01*
X024292Y025387D02*
X025708Y025387D01*
X025777Y025575D02*
X025899Y025575D01*
X026012Y025622D01*
X026098Y025708D01*
X026145Y025821D01*
X026145Y026337D01*
X026098Y026449D01*
X026012Y026536D01*
X026008Y026537D01*
X026008Y026594D01*
X026012Y026654D01*
X026008Y026658D01*
X026008Y026686D01*
X025886Y026808D01*
X025714Y026808D01*
X025592Y026686D01*
X025592Y026581D01*
X025585Y026559D01*
X025592Y026547D01*
X025592Y026514D01*
X025617Y026488D01*
X025578Y026449D01*
X025531Y026337D01*
X025531Y025821D01*
X025578Y025708D01*
X025664Y025622D01*
X025777Y025575D01*
X025757Y025584D02*
X025132Y025584D01*
X025112Y025575D02*
X025225Y025622D01*
X025311Y025708D01*
X025358Y025821D01*
X025358Y026337D01*
X025311Y026449D01*
X025253Y026508D01*
X025258Y026514D01*
X025258Y026571D01*
X025269Y026608D01*
X025258Y026626D01*
X025258Y026686D01*
X025136Y026808D01*
X024964Y026808D01*
X024842Y026686D01*
X024842Y026624D01*
X024831Y026606D01*
X024842Y026570D01*
X024842Y026514D01*
X024848Y026507D01*
X024791Y026449D01*
X024744Y026337D01*
X024744Y025821D01*
X024791Y025708D01*
X024877Y025622D01*
X024990Y025575D01*
X025112Y025575D01*
X024969Y025584D02*
X024345Y025584D01*
X024182Y025584D02*
X023855Y025584D01*
X023756Y025682D02*
X024029Y025682D01*
X023973Y025781D02*
X023658Y025781D01*
X023559Y025879D02*
X023957Y025879D01*
X023957Y025978D02*
X023461Y025978D01*
X023362Y026076D02*
X023957Y026076D01*
X023957Y026175D02*
X023264Y026175D01*
X023165Y026273D02*
X023957Y026273D01*
X023971Y026372D02*
X023067Y026372D01*
X022968Y026470D02*
X024024Y026470D01*
X024040Y026569D02*
X022870Y026569D01*
X022771Y026667D02*
X023721Y026667D01*
X023622Y026766D02*
X023560Y026766D01*
X023990Y026583D02*
X023990Y026583D01*
X023990Y026583D01*
X024205Y026583D02*
X024250Y026600D01*
X024297Y026590D01*
X024263Y026423D01*
X024205Y026583D01*
X024250Y026600D02*
X024263Y026587D01*
X024263Y026423D01*
X024263Y026079D01*
X024570Y026076D02*
X024744Y026076D01*
X024744Y025978D02*
X024570Y025978D01*
X024570Y025879D02*
X024744Y025879D01*
X024761Y025781D02*
X024554Y025781D01*
X024497Y025682D02*
X024817Y025682D01*
X025051Y026079D02*
X025051Y026423D01*
X025003Y026587D01*
X025050Y026600D01*
X025097Y026587D01*
X025051Y026423D01*
X025051Y026599D01*
X025050Y026600D01*
X025179Y026766D02*
X025671Y026766D01*
X025592Y026667D02*
X025258Y026667D01*
X025269Y026608D02*
X025269Y026608D01*
X025269Y026608D01*
X025258Y026569D02*
X025588Y026569D01*
X025599Y026470D02*
X025290Y026470D01*
X025343Y026372D02*
X025546Y026372D01*
X025531Y026273D02*
X025358Y026273D01*
X025358Y026175D02*
X025531Y026175D01*
X025531Y026076D02*
X025358Y026076D01*
X025358Y025978D02*
X025531Y025978D01*
X025531Y025879D02*
X025358Y025879D01*
X025341Y025781D02*
X025548Y025781D01*
X025604Y025682D02*
X025285Y025682D01*
X025920Y025584D02*
X026357Y025584D01*
X026392Y025682D02*
X026072Y025682D01*
X026128Y025781D02*
X026335Y025781D01*
X026319Y025879D02*
X026145Y025879D01*
X026145Y025978D02*
X026319Y025978D01*
X026319Y026076D02*
X026145Y026076D01*
X026145Y026175D02*
X026319Y026175D01*
X026319Y026273D02*
X026145Y026273D01*
X026131Y026372D02*
X026333Y026372D01*
X026386Y026470D02*
X026078Y026470D01*
X026008Y026569D02*
X026386Y026569D01*
X026383Y026575D02*
X026383Y026575D01*
X026383Y026575D01*
X026392Y026667D02*
X026008Y026667D01*
X026012Y026654D02*
X026012Y026654D01*
X026012Y026654D01*
X025929Y026766D02*
X026471Y026766D01*
X026556Y026580D02*
X026600Y026600D01*
X026648Y026594D01*
X026626Y026425D01*
X026556Y026580D01*
X026600Y026600D02*
X026626Y026574D01*
X026626Y026425D01*
X026626Y026079D01*
X026932Y026076D02*
X027850Y026076D01*
X027894Y026175D02*
X026932Y026175D01*
X026932Y026273D02*
X027894Y026273D01*
X027908Y026372D02*
X026918Y026372D01*
X026865Y026470D02*
X027961Y026470D01*
X028106Y026569D02*
X026808Y026569D01*
X026932Y025978D02*
X027751Y025978D01*
X027653Y025879D02*
X026932Y025879D01*
X026916Y025781D02*
X027554Y025781D01*
X027550Y025550D02*
X026550Y025550D01*
X026259Y025485D02*
X023953Y025485D01*
X022708Y025387D02*
X022292Y025387D01*
X022391Y025288D02*
X022609Y025288D01*
X022559Y025190D02*
X022441Y025190D01*
X022480Y025091D02*
X022520Y025091D01*
X022520Y024993D02*
X022480Y024993D01*
X022476Y024894D02*
X022524Y024894D01*
X022565Y024796D02*
X022435Y024796D01*
X022376Y024697D02*
X022624Y024697D01*
X021624Y024697D02*
X021376Y024697D01*
X021435Y024796D02*
X021565Y024796D01*
X021524Y024894D02*
X021476Y024894D01*
X021480Y024993D02*
X021520Y024993D01*
X021520Y025091D02*
X021480Y025091D01*
X021441Y025190D02*
X021559Y025190D01*
X021609Y025288D02*
X021391Y025288D01*
X020708Y025387D02*
X020292Y025387D01*
X020391Y025288D02*
X020609Y025288D01*
X020559Y025190D02*
X020441Y025190D01*
X020480Y025091D02*
X020520Y025091D01*
X020520Y024993D02*
X020480Y024993D01*
X020476Y024894D02*
X020524Y024894D01*
X020565Y024796D02*
X020435Y024796D01*
X020376Y024697D02*
X020624Y024697D01*
X019624Y024697D02*
X019376Y024697D01*
X019435Y024796D02*
X019565Y024796D01*
X019524Y024894D02*
X019476Y024894D01*
X019480Y024993D02*
X019520Y024993D01*
X019520Y025091D02*
X019480Y025091D01*
X019441Y025190D02*
X019559Y025190D01*
X019609Y025288D02*
X019391Y025288D01*
X019292Y025387D02*
X019708Y025387D01*
X018708Y025387D02*
X018292Y025387D01*
X018391Y025288D02*
X018609Y025288D01*
X018559Y025190D02*
X018441Y025190D01*
X018480Y025091D02*
X018520Y025091D01*
X018520Y024993D02*
X018480Y024993D01*
X018476Y024894D02*
X018524Y024894D01*
X018565Y024796D02*
X018435Y024796D01*
X018376Y024697D02*
X018624Y024697D01*
X017624Y024697D02*
X016648Y024697D01*
X016648Y024796D02*
X017565Y024796D01*
X017524Y024894D02*
X016648Y024894D01*
X016648Y024993D02*
X017520Y024993D01*
X017520Y025091D02*
X016648Y025091D01*
X016648Y025190D02*
X017559Y025190D01*
X017609Y025288D02*
X016648Y025288D01*
X016648Y025387D02*
X017708Y025387D01*
X018109Y025682D02*
X018151Y025682D01*
X018156Y026360D02*
X018156Y026496D01*
X018356Y026696D01*
X019000Y026696D01*
X019021Y026717D01*
X019190Y026548D01*
X019190Y026279D01*
X019234Y026235D01*
X019064Y026235D01*
X019064Y026340D01*
X019000Y026404D01*
X018200Y026404D01*
X018156Y026360D01*
X018156Y026372D02*
X018168Y026372D01*
X018156Y026470D02*
X019190Y026470D01*
X019190Y026372D02*
X019032Y026372D01*
X019064Y026273D02*
X019196Y026273D01*
X019169Y026569D02*
X018229Y026569D01*
X018327Y026667D02*
X019071Y026667D01*
X018800Y027467D02*
X018200Y027467D01*
X018136Y027403D01*
X018136Y027348D01*
X018128Y027344D01*
X017368Y026585D01*
X016648Y026585D01*
X016648Y027665D01*
X018092Y027665D01*
X018156Y027729D01*
X018156Y027918D01*
X018428Y028190D01*
X018800Y028190D01*
X018800Y027467D01*
X018800Y027554D02*
X016648Y027554D01*
X016648Y027652D02*
X018800Y027652D01*
X018800Y027751D02*
X018156Y027751D01*
X018156Y027849D02*
X018800Y027849D01*
X018800Y027948D02*
X018186Y027948D01*
X018284Y028046D02*
X018800Y028046D01*
X018800Y028145D02*
X018383Y028145D01*
X017946Y028585D02*
X016648Y028585D01*
X016648Y029124D01*
X017122Y029124D01*
X017125Y029122D01*
X017153Y029124D01*
X017181Y029124D01*
X017183Y029126D01*
X017239Y029131D01*
X017240Y029130D01*
X017240Y028654D01*
X017304Y028590D01*
X017796Y028590D01*
X017860Y028654D01*
X017860Y028900D01*
X017944Y028900D01*
X018004Y028840D01*
X018242Y028840D01*
X018242Y028814D01*
X018245Y028810D01*
X018204Y028810D01*
X018180Y028786D01*
X018124Y028763D01*
X018037Y028676D01*
X017946Y028585D01*
X017999Y028637D02*
X017843Y028637D01*
X017860Y028736D02*
X018097Y028736D01*
X018242Y028834D02*
X017860Y028834D01*
X017972Y029228D02*
X017531Y029228D01*
X017666Y029327D02*
X018540Y029327D01*
X018550Y029425D02*
X017760Y029425D01*
X017823Y029524D02*
X018640Y029524D01*
X018666Y029622D02*
X017864Y029622D01*
X017893Y029721D02*
X019208Y029721D01*
X019200Y029622D02*
X019034Y029622D01*
X019060Y029524D02*
X019200Y029524D01*
X019200Y029425D02*
X019060Y029425D01*
X019060Y029327D02*
X019114Y029327D01*
X019300Y029819D02*
X017908Y029819D01*
X017912Y029918D02*
X019300Y029918D01*
X019190Y030607D02*
X019410Y030607D01*
X019300Y030706D02*
X019229Y030706D01*
X019229Y030804D02*
X019242Y030804D01*
X019229Y030903D02*
X019242Y030903D01*
X019229Y031001D02*
X019306Y031001D01*
X019371Y031100D02*
X019229Y031100D01*
X019229Y031198D02*
X019371Y031198D01*
X018615Y030804D02*
X018500Y030804D01*
X018500Y030706D02*
X018615Y030706D01*
X018654Y030607D02*
X018487Y030607D01*
X018476Y030509D02*
X017596Y030509D01*
X017555Y030607D02*
X017761Y030607D01*
X017748Y030706D02*
X017555Y030706D01*
X017555Y030804D02*
X017748Y030804D01*
X017748Y030903D02*
X017555Y030903D01*
X017555Y031001D02*
X017748Y031001D01*
X017748Y031100D02*
X017555Y031100D01*
X017555Y031198D02*
X017748Y031198D01*
X017748Y031297D02*
X017555Y031297D01*
X017709Y030410D02*
X017752Y030410D01*
X018083Y030410D02*
X018400Y030410D01*
X018400Y030312D02*
X018154Y030312D01*
X018174Y030213D02*
X018400Y030213D01*
X018400Y030115D02*
X018155Y030115D01*
X018084Y030016D02*
X018472Y030016D01*
X017240Y029130D02*
X017225Y029130D01*
X017240Y029031D02*
X016648Y029031D01*
X016648Y028933D02*
X017240Y028933D01*
X017240Y028834D02*
X016648Y028834D01*
X016648Y028736D02*
X017240Y028736D01*
X017257Y028637D02*
X016648Y028637D01*
X016648Y027455D02*
X018188Y027455D01*
X018136Y027357D02*
X016648Y027357D01*
X016648Y027258D02*
X018041Y027258D01*
X017943Y027160D02*
X016648Y027160D01*
X016648Y027061D02*
X017844Y027061D01*
X017746Y026963D02*
X016648Y026963D01*
X016648Y026864D02*
X017647Y026864D01*
X017549Y026766D02*
X016648Y026766D01*
X016648Y026667D02*
X017450Y026667D01*
X019497Y027751D02*
X020094Y027751D01*
X020040Y027849D02*
X019450Y027849D01*
X019450Y027948D02*
X020040Y027948D01*
X020040Y028046D02*
X019450Y028046D01*
X019450Y028145D02*
X019600Y028145D01*
X019590Y028243D02*
X019450Y028243D01*
X019450Y028342D02*
X019590Y028342D01*
X019590Y028440D02*
X019450Y028440D01*
X019450Y028539D02*
X019756Y028539D01*
X019793Y028637D02*
X019846Y028637D01*
X020202Y028774D02*
X020202Y028398D01*
X020050Y028145D02*
X020000Y028145D01*
X020510Y028145D02*
X021325Y028145D01*
X021310Y028243D02*
X020510Y028243D01*
X020510Y028342D02*
X021310Y028342D01*
X021310Y028440D02*
X020510Y028440D01*
X020510Y028539D02*
X021310Y028539D01*
X021310Y028637D02*
X020558Y028637D01*
X020585Y029031D02*
X020350Y029031D01*
X020632Y029130D02*
X020683Y029130D01*
X020660Y029228D02*
X020782Y029228D01*
X020990Y029228D02*
X021310Y029228D01*
X021250Y029200D02*
X021150Y029100D01*
X020990Y029327D02*
X021310Y029327D01*
X020943Y029524D02*
X020660Y029524D01*
X020510Y028046D02*
X021424Y028046D01*
X021522Y027948D02*
X020510Y027948D01*
X020700Y027455D02*
X021130Y027455D01*
X021130Y027357D02*
X020700Y027357D01*
X020700Y027258D02*
X021130Y027258D01*
X021130Y027160D02*
X020700Y027160D01*
X021130Y027554D02*
X019666Y027554D01*
X019582Y027652D02*
X021130Y027652D01*
X021290Y027751D02*
X021690Y027751D01*
X021621Y027849D02*
X021290Y027849D01*
X022574Y026864D02*
X022847Y026864D01*
X022999Y026766D02*
X022673Y026766D01*
X022910Y027554D02*
X022997Y027554D01*
X024379Y026766D02*
X024921Y026766D01*
X024842Y026667D02*
X024458Y026667D01*
X024458Y026569D02*
X024842Y026569D01*
X024811Y026470D02*
X024503Y026470D01*
X024556Y026372D02*
X024758Y026372D01*
X024744Y026273D02*
X024570Y026273D01*
X024570Y026175D02*
X024744Y026175D01*
X025757Y026577D02*
X025800Y026600D01*
X025848Y026597D01*
X025838Y026427D01*
X025757Y026577D01*
X025800Y026600D02*
X025838Y026562D01*
X025838Y026427D01*
X025838Y026079D01*
X027550Y025550D02*
X028079Y026079D01*
X028200Y026079D01*
X028507Y026076D02*
X028650Y026076D01*
X028681Y026175D02*
X028507Y026175D01*
X028507Y026273D02*
X028681Y026273D01*
X028695Y026372D02*
X028493Y026372D01*
X028440Y026470D02*
X028748Y026470D01*
X028893Y026569D02*
X028295Y026569D01*
X028507Y025978D02*
X028551Y025978D01*
X028879Y026079D02*
X028350Y025550D01*
X027800Y025550D01*
X028600Y025550D02*
X029100Y025550D01*
X029629Y026079D01*
X029775Y026079D01*
X030082Y026076D02*
X030200Y026076D01*
X030256Y026175D02*
X030082Y026175D01*
X030082Y026273D02*
X030256Y026273D01*
X030270Y026372D02*
X030068Y026372D01*
X030015Y026470D02*
X030323Y026470D01*
X030468Y026569D02*
X029870Y026569D01*
X029681Y026569D02*
X029082Y026569D01*
X029227Y026470D02*
X029536Y026470D01*
X029483Y026372D02*
X029280Y026372D01*
X029295Y026273D02*
X029468Y026273D01*
X029468Y026175D02*
X029295Y026175D01*
X029295Y026076D02*
X029400Y026076D01*
X029301Y025978D02*
X029295Y025978D01*
X028988Y026079D02*
X028879Y026079D01*
X030082Y025978D02*
X030101Y025978D01*
X030550Y025550D02*
X030000Y025000D01*
X030550Y025550D02*
X030700Y025550D01*
X031229Y026079D01*
X031350Y026079D01*
X032079Y026079D02*
X031000Y025000D01*
X032079Y026079D02*
X032137Y026079D01*
X034194Y028145D02*
X037850Y028145D01*
X037850Y028243D02*
X034095Y028243D01*
X033997Y028342D02*
X037850Y028342D01*
X037850Y028440D02*
X033898Y028440D01*
X033800Y028539D02*
X037850Y028539D01*
X037850Y028637D02*
X033701Y028637D01*
X033603Y028736D02*
X037850Y028736D01*
X037850Y028834D02*
X033504Y028834D01*
X033406Y028933D02*
X037850Y028933D01*
X037850Y029031D02*
X033307Y029031D01*
X033209Y029130D02*
X037850Y029130D01*
X037850Y029228D02*
X033110Y029228D01*
X033012Y029327D02*
X037850Y029327D01*
X037850Y029425D02*
X032913Y029425D01*
X032815Y029524D02*
X037850Y029524D01*
X037850Y029622D02*
X032716Y029622D01*
X032618Y029721D02*
X037850Y029721D01*
X037850Y029819D02*
X032519Y029819D01*
X032421Y029918D02*
X037850Y029918D01*
X037850Y030016D02*
X032322Y030016D01*
X032224Y030115D02*
X037850Y030115D01*
X037850Y030213D02*
X032125Y030213D01*
X032027Y030312D02*
X037850Y030312D01*
X037850Y030410D02*
X031928Y030410D01*
X031830Y030509D02*
X037850Y030509D01*
X037850Y030607D02*
X031731Y030607D01*
X031633Y030706D02*
X037850Y030706D01*
X037850Y030804D02*
X031534Y030804D01*
X031436Y030903D02*
X037850Y030903D01*
X037850Y031001D02*
X031337Y031001D01*
X031239Y031100D02*
X037850Y031100D01*
X037850Y031198D02*
X031140Y031198D01*
X031042Y031297D02*
X034759Y031297D01*
X034660Y031395D02*
X030943Y031395D01*
X030845Y031494D02*
X034642Y031494D01*
X034647Y031592D02*
X030746Y031592D01*
X030648Y031691D02*
X034746Y031691D01*
X034815Y031715D02*
X034815Y031715D01*
X034927Y031789D02*
X030549Y031789D01*
X030451Y031888D02*
X035025Y031888D01*
X035124Y031986D02*
X030352Y031986D01*
X031567Y032400D02*
X023735Y032400D01*
X023736Y032401D01*
X023783Y032514D01*
X023783Y032636D01*
X023736Y032749D01*
X023650Y032835D01*
X023537Y032882D01*
X023021Y032882D01*
X022910Y032836D01*
X022910Y033889D01*
X023021Y033843D01*
X023537Y033843D01*
X023650Y033889D01*
X023702Y033942D01*
X023715Y033942D01*
X023740Y033933D01*
X023758Y033942D01*
X023836Y033942D01*
X023958Y034064D01*
X023958Y034236D01*
X023836Y034358D01*
X023758Y034358D01*
X023740Y034367D01*
X023740Y034367D01*
X023740Y034367D01*
X023715Y034358D01*
X023701Y034358D01*
X023650Y034410D01*
X023537Y034456D01*
X023021Y034456D01*
X022910Y034410D01*
X022910Y034676D01*
X023021Y034630D01*
X023537Y034630D01*
X023650Y034677D01*
X023661Y034688D01*
X023669Y034676D01*
X023677Y034675D01*
X023681Y034675D01*
X023714Y034642D01*
X023886Y034642D01*
X024008Y034764D01*
X024008Y034936D01*
X023920Y035024D01*
X023914Y035035D01*
X023908Y035037D01*
X023886Y035058D01*
X023828Y035058D01*
X023795Y035067D01*
X023762Y035100D01*
X023741Y035100D01*
X023736Y035111D01*
X023650Y035197D01*
X023537Y035244D01*
X023021Y035244D01*
X022910Y035198D01*
X022910Y036422D01*
X023008Y036520D01*
X023095Y036520D01*
X023272Y036593D01*
X023369Y036690D01*
X023631Y036690D01*
X023728Y036593D01*
X023905Y036520D01*
X024095Y036520D01*
X024272Y036593D01*
X024407Y036728D01*
X024480Y036905D01*
X024480Y037095D01*
X024407Y037272D01*
X024327Y037352D01*
X024673Y037352D01*
X024593Y037272D01*
X024520Y037095D01*
X024520Y036905D01*
X024593Y036728D01*
X024728Y036593D01*
X024905Y036520D01*
X025095Y036520D01*
X025272Y036593D01*
X025407Y036728D01*
X025480Y036905D01*
X025480Y037095D01*
X025407Y037272D01*
X025327Y037352D01*
X025673Y037352D01*
X025593Y037272D01*
X025520Y037095D01*
X025520Y036905D01*
X025593Y036728D01*
X025728Y036593D01*
X025905Y036520D01*
X026095Y036520D01*
X026272Y036593D01*
X026407Y036728D01*
X026480Y036905D01*
X026480Y037095D01*
X026407Y037272D01*
X026327Y037352D01*
X026673Y037352D01*
X026593Y037272D01*
X026520Y037095D01*
X026520Y036905D01*
X026593Y036728D01*
X026728Y036593D01*
X026905Y036520D01*
X027095Y036520D01*
X027272Y036593D01*
X027407Y036728D01*
X027480Y036905D01*
X027480Y037095D01*
X027407Y037272D01*
X027327Y037352D01*
X027673Y037352D01*
X027593Y037272D01*
X027520Y037095D01*
X027520Y036905D01*
X027593Y036728D01*
X027728Y036593D01*
X027905Y036520D01*
X028095Y036520D01*
X028272Y036593D01*
X028407Y036728D01*
X028480Y036905D01*
X028480Y037095D01*
X028407Y037272D01*
X028327Y037352D01*
X028673Y037352D01*
X028593Y037272D01*
X028520Y037095D01*
X028520Y036905D01*
X028593Y036728D01*
X028728Y036593D01*
X028905Y036520D01*
X029095Y036520D01*
X029272Y036593D01*
X029407Y036728D01*
X029480Y036905D01*
X029480Y037095D01*
X029407Y037272D01*
X029327Y037352D01*
X029673Y037352D01*
X029593Y037272D01*
X029520Y037095D01*
X029520Y036905D01*
X029593Y036728D01*
X029728Y036593D01*
X029905Y036520D01*
X030095Y036520D01*
X030272Y036593D01*
X030407Y036728D01*
X030480Y036905D01*
X030480Y037095D01*
X030407Y037272D01*
X030327Y037352D01*
X030673Y037352D01*
X030593Y037272D01*
X030520Y037095D01*
X030520Y036905D01*
X030593Y036728D01*
X030728Y036593D01*
X030905Y036520D01*
X031095Y036520D01*
X031272Y036593D01*
X031407Y036728D01*
X031480Y036905D01*
X031480Y037095D01*
X031407Y037272D01*
X031327Y037352D01*
X031673Y037352D01*
X031593Y037272D01*
X031520Y037095D01*
X031520Y036905D01*
X031593Y036728D01*
X031728Y036593D01*
X031905Y036520D01*
X032095Y036520D01*
X032272Y036593D01*
X032407Y036728D01*
X032480Y036905D01*
X032480Y037095D01*
X032407Y037272D01*
X032327Y037352D01*
X032673Y037352D01*
X032593Y037272D01*
X032520Y037095D01*
X032520Y036905D01*
X032593Y036728D01*
X032728Y036593D01*
X032905Y036520D01*
X033095Y036520D01*
X033272Y036593D01*
X033407Y036728D01*
X033480Y036905D01*
X033480Y037095D01*
X033407Y037272D01*
X033327Y037352D01*
X034673Y037352D01*
X034593Y037272D01*
X034520Y037095D01*
X034520Y036905D01*
X034593Y036728D01*
X034700Y036621D01*
X034700Y036352D01*
X034673Y036378D01*
X034561Y036425D01*
X034439Y036425D01*
X034326Y036378D01*
X034239Y036292D01*
X034193Y036179D01*
X034193Y035663D01*
X034239Y035551D01*
X034292Y035498D01*
X034292Y035485D01*
X034283Y035460D01*
X034283Y035460D01*
X034283Y035460D01*
X034287Y035450D01*
X034292Y035441D01*
X034292Y035364D01*
X034411Y035244D01*
X031567Y032400D01*
X031646Y032479D02*
X023768Y032479D01*
X023783Y032577D02*
X031744Y032577D01*
X031843Y032676D02*
X023766Y032676D01*
X023711Y032774D02*
X031941Y032774D01*
X032040Y032873D02*
X023559Y032873D01*
X022999Y032873D02*
X022910Y032873D01*
X022910Y032971D02*
X032138Y032971D01*
X032237Y033070D02*
X022910Y033070D01*
X022910Y033168D02*
X032335Y033168D01*
X032434Y033267D02*
X022910Y033267D01*
X022910Y033365D02*
X032532Y033365D01*
X032631Y033464D02*
X022910Y033464D01*
X022910Y033562D02*
X032729Y033562D01*
X032828Y033661D02*
X022910Y033661D01*
X022910Y033759D02*
X032926Y033759D01*
X033025Y033858D02*
X023573Y033858D01*
X023740Y033933D02*
X023740Y033933D01*
X023740Y033933D01*
X023851Y033956D02*
X033123Y033956D01*
X033222Y034055D02*
X023949Y034055D01*
X023958Y034153D02*
X024202Y034153D01*
X024214Y034142D02*
X024386Y034142D01*
X024508Y034264D01*
X024508Y034342D01*
X024517Y034360D01*
X024517Y034360D01*
X024517Y034360D01*
X024508Y034385D01*
X024508Y034436D01*
X024481Y034464D01*
X024459Y034527D01*
X024462Y034536D01*
X024450Y034561D01*
X024450Y035189D01*
X024462Y035214D01*
X024459Y035223D01*
X024481Y035286D01*
X024508Y035314D01*
X024508Y035365D01*
X024517Y035390D01*
X024512Y035400D01*
X024517Y035410D01*
X024517Y035410D01*
X024517Y035410D01*
X024508Y035435D01*
X024508Y035486D01*
X024484Y035511D01*
X024524Y035551D01*
X024570Y035663D01*
X024570Y036179D01*
X024524Y036292D01*
X024437Y036378D01*
X024324Y036425D01*
X024202Y036425D01*
X024090Y036378D01*
X024003Y036292D01*
X023957Y036179D01*
X023957Y035663D01*
X024003Y035551D01*
X024090Y035464D01*
X024092Y035463D01*
X024092Y035435D01*
X024083Y035410D01*
X024083Y035410D01*
X024083Y035410D01*
X024088Y035400D01*
X024083Y035390D01*
X024083Y035390D01*
X024083Y035390D01*
X024092Y035365D01*
X024092Y035314D01*
X024119Y035286D01*
X024141Y035223D01*
X024138Y035214D01*
X024150Y035189D01*
X024150Y034561D01*
X024138Y034536D01*
X024141Y034527D01*
X024119Y034464D01*
X024092Y034436D01*
X024092Y034385D01*
X024083Y034360D01*
X024083Y034360D01*
X024083Y034360D01*
X024092Y034342D01*
X024092Y034264D01*
X024214Y034142D01*
X024104Y034252D02*
X023943Y034252D01*
X023845Y034350D02*
X024088Y034350D01*
X024104Y034449D02*
X023556Y034449D01*
X023574Y034646D02*
X023710Y034646D01*
X023890Y034646D02*
X024150Y034646D01*
X024150Y034744D02*
X023989Y034744D01*
X024008Y034843D02*
X024150Y034843D01*
X024150Y034941D02*
X024004Y034941D01*
X023914Y035035D02*
X023914Y035035D01*
X023914Y035035D01*
X023905Y035040D02*
X024150Y035040D01*
X024150Y035138D02*
X023709Y035138D01*
X023555Y035237D02*
X024136Y035237D01*
X024092Y035335D02*
X022910Y035335D01*
X022910Y035237D02*
X023004Y035237D01*
X022910Y035434D02*
X024091Y035434D01*
X024022Y035532D02*
X022910Y035532D01*
X022910Y035631D02*
X023970Y035631D01*
X023957Y035729D02*
X022910Y035729D01*
X022910Y035828D02*
X023957Y035828D01*
X023957Y035926D02*
X022910Y035926D01*
X022910Y036025D02*
X023957Y036025D01*
X023957Y036123D02*
X022910Y036123D01*
X022910Y036222D02*
X023974Y036222D01*
X024031Y036320D02*
X022910Y036320D01*
X022910Y036419D02*
X024187Y036419D01*
X024340Y036419D02*
X024974Y036419D01*
X024990Y036425D02*
X024877Y036378D01*
X024791Y036292D01*
X024744Y036179D01*
X024744Y035663D01*
X024791Y035551D01*
X024798Y035543D01*
X024792Y035536D01*
X024792Y035364D01*
X024914Y035242D01*
X025086Y035242D01*
X025208Y035364D01*
X025208Y035395D01*
X025211Y035397D01*
X025211Y035397D01*
X025211Y035404D01*
X025208Y035455D01*
X025208Y035458D01*
X025225Y035464D01*
X025311Y035551D01*
X025358Y035663D01*
X025358Y036179D01*
X025311Y036292D01*
X025225Y036378D01*
X025112Y036425D01*
X024990Y036425D01*
X025127Y036419D02*
X025762Y036419D01*
X025777Y036425D02*
X025664Y036378D01*
X025578Y036292D01*
X025531Y036179D01*
X025531Y035663D01*
X025578Y035551D01*
X025642Y035487D01*
X025642Y035478D01*
X025633Y035446D01*
X025642Y035430D01*
X025642Y035364D01*
X025764Y035242D01*
X025936Y035242D01*
X026058Y035364D01*
X026058Y035455D01*
X026066Y035475D01*
X026058Y035493D01*
X026058Y035511D01*
X026098Y035551D01*
X026145Y035663D01*
X026145Y036179D01*
X026098Y036292D01*
X026012Y036378D01*
X025899Y036425D01*
X025777Y036425D01*
X025915Y036419D02*
X026549Y036419D01*
X026565Y036425D02*
X026452Y036378D01*
X026365Y036292D01*
X026319Y036179D01*
X026319Y035663D01*
X026365Y035551D01*
X026442Y035474D01*
X026442Y035471D01*
X026441Y035468D01*
X026433Y035430D01*
X026442Y035418D01*
X026442Y035364D01*
X026564Y035242D01*
X026736Y035242D01*
X026858Y035364D01*
X026858Y035473D01*
X026864Y035490D01*
X026858Y035500D01*
X026858Y035523D01*
X026886Y035551D01*
X026932Y035663D01*
X026932Y036179D01*
X026886Y036292D01*
X026799Y036378D01*
X026687Y036425D01*
X026565Y036425D01*
X026702Y036419D02*
X027336Y036419D01*
X027352Y036425D02*
X027239Y036378D01*
X027153Y036292D01*
X027106Y036179D01*
X027106Y035663D01*
X027153Y035551D01*
X027239Y035464D01*
X027242Y035463D01*
X027238Y035435D01*
X027235Y035414D01*
X027242Y035407D01*
X027242Y035364D01*
X027364Y035242D01*
X027536Y035242D01*
X027658Y035364D01*
X027658Y035497D01*
X027660Y035505D01*
X027660Y035505D01*
X027658Y035508D01*
X027658Y035536D01*
X027673Y035551D01*
X027720Y035663D01*
X027720Y036179D01*
X027673Y036292D01*
X027587Y036378D01*
X027474Y036425D01*
X027352Y036425D01*
X027490Y036419D02*
X028124Y036419D01*
X028139Y036425D02*
X028027Y036378D01*
X027940Y036292D01*
X027894Y036179D01*
X027894Y035663D01*
X027940Y035551D01*
X027992Y035499D01*
X027992Y035486D01*
X027983Y035461D01*
X027983Y035461D01*
X027992Y035442D01*
X027992Y035364D01*
X028114Y035242D01*
X028286Y035242D01*
X028408Y035364D01*
X028408Y035441D01*
X028417Y035460D01*
X028408Y035485D01*
X028408Y035498D01*
X028461Y035551D01*
X028507Y035663D01*
X028507Y036179D01*
X028461Y036292D01*
X028374Y036378D01*
X028261Y036425D01*
X028139Y036425D01*
X028277Y036419D02*
X028911Y036419D01*
X028927Y036425D02*
X028814Y036378D01*
X028728Y036292D01*
X028681Y036179D01*
X028681Y035663D01*
X028728Y035551D01*
X028792Y035487D01*
X028792Y035478D01*
X028783Y035445D01*
X028783Y035445D01*
X028783Y035445D01*
X028792Y035429D01*
X028792Y035364D01*
X028914Y035242D01*
X029086Y035242D01*
X029208Y035364D01*
X029208Y035456D01*
X029216Y035475D01*
X029216Y035475D01*
X029208Y035493D01*
X029208Y035511D01*
X029248Y035551D01*
X029295Y035663D01*
X029295Y036179D01*
X029248Y036292D01*
X029162Y036378D01*
X029049Y036425D01*
X028927Y036425D01*
X029064Y036419D02*
X029699Y036419D01*
X029714Y036425D02*
X029601Y036378D01*
X029515Y036292D01*
X029468Y036179D01*
X029468Y035663D01*
X029515Y035551D01*
X029592Y035474D01*
X029592Y035470D01*
X029583Y035430D01*
X029592Y035417D01*
X029592Y035364D01*
X029714Y035242D01*
X029886Y035242D01*
X030008Y035364D01*
X030008Y035474D01*
X030014Y035490D01*
X030008Y035501D01*
X030008Y035524D01*
X030035Y035551D01*
X030082Y035663D01*
X030082Y036179D01*
X030035Y036292D01*
X029949Y036378D01*
X029836Y036425D01*
X029714Y036425D01*
X029852Y036419D02*
X030486Y036419D01*
X030502Y036425D02*
X030389Y036378D01*
X030302Y036292D01*
X030256Y036179D01*
X030256Y035663D01*
X030302Y035551D01*
X030389Y035464D01*
X030392Y035463D01*
X030386Y035414D01*
X030392Y035406D01*
X030392Y035364D01*
X030514Y035242D01*
X030686Y035242D01*
X030808Y035364D01*
X030808Y035498D01*
X030810Y035506D01*
X030808Y035509D01*
X030808Y035536D01*
X030823Y035551D01*
X030869Y035663D01*
X030869Y036179D01*
X030823Y036292D01*
X030736Y036378D01*
X030624Y036425D01*
X030502Y036425D01*
X030639Y036419D02*
X032061Y036419D01*
X032076Y036425D02*
X031964Y036378D01*
X031877Y036292D01*
X031831Y036179D01*
X031831Y035663D01*
X031877Y035551D01*
X031942Y035486D01*
X031942Y035478D01*
X031933Y035445D01*
X031942Y035429D01*
X031942Y035364D01*
X032064Y035242D01*
X032236Y035242D01*
X032358Y035364D01*
X032358Y035456D01*
X032366Y035476D01*
X032358Y035493D01*
X032358Y035511D01*
X032398Y035551D01*
X032444Y035663D01*
X032444Y036179D01*
X032398Y036292D01*
X032311Y036378D01*
X032198Y036425D01*
X032076Y036425D01*
X032214Y036419D02*
X032848Y036419D01*
X032864Y036425D02*
X032751Y036378D01*
X032665Y036292D01*
X032618Y036179D01*
X032618Y035663D01*
X032665Y035551D01*
X032742Y035474D01*
X032742Y035470D01*
X032734Y035429D01*
X032742Y035417D01*
X032742Y035364D01*
X032864Y035242D01*
X033036Y035242D01*
X033158Y035364D01*
X033158Y035474D01*
X033164Y035491D01*
X033158Y035501D01*
X033158Y035524D01*
X033185Y035551D01*
X033232Y035663D01*
X033232Y036179D01*
X033185Y036292D01*
X033099Y036378D01*
X032986Y036425D01*
X032864Y036425D01*
X033001Y036419D02*
X033636Y036419D01*
X033651Y036425D02*
X033538Y036378D01*
X033452Y036292D01*
X033405Y036179D01*
X033405Y035663D01*
X033452Y035551D01*
X033538Y035464D01*
X033542Y035463D01*
X033542Y035463D01*
X033537Y035426D01*
X033536Y035413D01*
X033542Y035406D01*
X033542Y035364D01*
X033664Y035242D01*
X033836Y035242D01*
X033958Y035364D01*
X033958Y035499D01*
X033960Y035506D01*
X033960Y035506D01*
X033960Y035506D01*
X033958Y035509D01*
X033958Y035536D01*
X033958Y035537D01*
X033972Y035551D01*
X034019Y035663D01*
X034019Y036179D01*
X033972Y036292D01*
X033886Y036378D01*
X033773Y036425D01*
X033651Y036425D01*
X033789Y036419D02*
X034423Y036419D01*
X034576Y036419D02*
X034700Y036419D01*
X034700Y036517D02*
X023005Y036517D01*
X023294Y036616D02*
X023706Y036616D01*
X024294Y036616D02*
X024706Y036616D01*
X024607Y036714D02*
X024393Y036714D01*
X024442Y036813D02*
X024558Y036813D01*
X024520Y036911D02*
X024480Y036911D01*
X024480Y037010D02*
X024520Y037010D01*
X024525Y037108D02*
X024475Y037108D01*
X024434Y037207D02*
X024566Y037207D01*
X024626Y037305D02*
X024374Y037305D01*
X025374Y037305D02*
X025626Y037305D01*
X025566Y037207D02*
X025434Y037207D01*
X025475Y037108D02*
X025525Y037108D01*
X025520Y037010D02*
X025480Y037010D01*
X025480Y036911D02*
X025520Y036911D01*
X025558Y036813D02*
X025442Y036813D01*
X025393Y036714D02*
X025607Y036714D01*
X025706Y036616D02*
X025294Y036616D01*
X025283Y036320D02*
X025606Y036320D01*
X025549Y036222D02*
X025340Y036222D01*
X025358Y036123D02*
X025531Y036123D01*
X025531Y036025D02*
X025358Y036025D01*
X025358Y035926D02*
X025531Y035926D01*
X025531Y035828D02*
X025358Y035828D01*
X025358Y035729D02*
X025531Y035729D01*
X025545Y035631D02*
X025344Y035631D01*
X025292Y035532D02*
X025597Y035532D01*
X025639Y035434D02*
X025209Y035434D01*
X025180Y035335D02*
X025670Y035335D01*
X026030Y035335D02*
X026470Y035335D01*
X026433Y035430D02*
X026433Y035430D01*
X026433Y035430D01*
X026434Y035434D02*
X026058Y035434D01*
X026066Y035475D02*
X026066Y035475D01*
X026066Y035475D01*
X026080Y035532D02*
X026384Y035532D01*
X026332Y035631D02*
X026131Y035631D01*
X026145Y035729D02*
X026319Y035729D01*
X026319Y035828D02*
X026145Y035828D01*
X026145Y035926D02*
X026319Y035926D01*
X026319Y036025D02*
X026145Y036025D01*
X026145Y036123D02*
X026319Y036123D01*
X026336Y036222D02*
X026127Y036222D01*
X026070Y036320D02*
X026394Y036320D01*
X026294Y036616D02*
X026706Y036616D01*
X026607Y036714D02*
X026393Y036714D01*
X026442Y036813D02*
X026558Y036813D01*
X026520Y036911D02*
X026480Y036911D01*
X026480Y037010D02*
X026520Y037010D01*
X026525Y037108D02*
X026475Y037108D01*
X026434Y037207D02*
X026566Y037207D01*
X026626Y037305D02*
X026374Y037305D01*
X027374Y037305D02*
X027626Y037305D01*
X027566Y037207D02*
X027434Y037207D01*
X027475Y037108D02*
X027525Y037108D01*
X027520Y037010D02*
X027480Y037010D01*
X027480Y036911D02*
X027520Y036911D01*
X027558Y036813D02*
X027442Y036813D01*
X027393Y036714D02*
X027607Y036714D01*
X027706Y036616D02*
X027294Y036616D01*
X027181Y036320D02*
X026858Y036320D01*
X026915Y036222D02*
X027124Y036222D01*
X027106Y036123D02*
X026932Y036123D01*
X026932Y036025D02*
X027106Y036025D01*
X027106Y035926D02*
X026932Y035926D01*
X026932Y035828D02*
X027106Y035828D01*
X027106Y035729D02*
X026932Y035729D01*
X026919Y035631D02*
X027120Y035631D01*
X027171Y035532D02*
X026867Y035532D01*
X026864Y035490D02*
X026864Y035490D01*
X026864Y035490D01*
X026858Y035434D02*
X027238Y035434D01*
X027235Y035414D02*
X027235Y035414D01*
X027242Y035463D02*
X027242Y035463D01*
X027270Y035335D02*
X026830Y035335D01*
X027630Y035335D02*
X028020Y035335D01*
X027992Y035434D02*
X027658Y035434D01*
X027658Y035532D02*
X027959Y035532D01*
X027907Y035631D02*
X027706Y035631D01*
X027720Y035729D02*
X027894Y035729D01*
X027894Y035828D02*
X027720Y035828D01*
X027720Y035926D02*
X027894Y035926D01*
X027894Y036025D02*
X027720Y036025D01*
X027720Y036123D02*
X027894Y036123D01*
X027911Y036222D02*
X027702Y036222D01*
X027645Y036320D02*
X027968Y036320D01*
X028294Y036616D02*
X028706Y036616D01*
X028607Y036714D02*
X028393Y036714D01*
X028442Y036813D02*
X028558Y036813D01*
X028520Y036911D02*
X028480Y036911D01*
X028480Y037010D02*
X028520Y037010D01*
X028525Y037108D02*
X028475Y037108D01*
X028434Y037207D02*
X028566Y037207D01*
X028626Y037305D02*
X028374Y037305D01*
X028432Y036320D02*
X028756Y036320D01*
X028699Y036222D02*
X028490Y036222D01*
X028507Y036123D02*
X028681Y036123D01*
X028681Y036025D02*
X028507Y036025D01*
X028507Y035926D02*
X028681Y035926D01*
X028681Y035828D02*
X028507Y035828D01*
X028507Y035729D02*
X028681Y035729D01*
X028695Y035631D02*
X028494Y035631D01*
X028442Y035532D02*
X028746Y035532D01*
X028789Y035434D02*
X028408Y035434D01*
X028417Y035460D02*
X028417Y035460D01*
X028380Y035335D02*
X028820Y035335D01*
X029180Y035335D02*
X029620Y035335D01*
X029584Y035434D02*
X029208Y035434D01*
X029229Y035532D02*
X029534Y035532D01*
X029482Y035631D02*
X029281Y035631D01*
X029295Y035729D02*
X029468Y035729D01*
X029468Y035828D02*
X029295Y035828D01*
X029295Y035926D02*
X029468Y035926D01*
X029468Y036025D02*
X029295Y036025D01*
X029295Y036123D02*
X029468Y036123D01*
X029486Y036222D02*
X029277Y036222D01*
X029220Y036320D02*
X029543Y036320D01*
X029706Y036616D02*
X029294Y036616D01*
X029393Y036714D02*
X029607Y036714D01*
X029558Y036813D02*
X029442Y036813D01*
X029480Y036911D02*
X029520Y036911D01*
X029520Y037010D02*
X029480Y037010D01*
X029475Y037108D02*
X029525Y037108D01*
X029566Y037207D02*
X029434Y037207D01*
X029374Y037305D02*
X029626Y037305D01*
X030374Y037305D02*
X030626Y037305D01*
X030566Y037207D02*
X030434Y037207D01*
X030475Y037108D02*
X030525Y037108D01*
X030520Y037010D02*
X030480Y037010D01*
X030480Y036911D02*
X030520Y036911D01*
X030558Y036813D02*
X030442Y036813D01*
X030393Y036714D02*
X030607Y036714D01*
X030706Y036616D02*
X030294Y036616D01*
X030331Y036320D02*
X030007Y036320D01*
X030064Y036222D02*
X030273Y036222D01*
X030256Y036123D02*
X030082Y036123D01*
X030082Y036025D02*
X030256Y036025D01*
X030256Y035926D02*
X030082Y035926D01*
X030082Y035828D02*
X030256Y035828D01*
X030256Y035729D02*
X030082Y035729D01*
X030068Y035631D02*
X030269Y035631D01*
X030321Y035532D02*
X030017Y035532D01*
X030008Y035434D02*
X030388Y035434D01*
X030392Y035463D02*
X030392Y035463D01*
X030420Y035335D02*
X029980Y035335D01*
X030780Y035335D02*
X031970Y035335D01*
X031939Y035434D02*
X030808Y035434D01*
X030810Y035506D02*
X030810Y035506D01*
X030810Y035506D01*
X030808Y035532D02*
X031896Y035532D01*
X031844Y035631D02*
X030856Y035631D01*
X030869Y035729D02*
X031831Y035729D01*
X031831Y035828D02*
X030869Y035828D01*
X030869Y035926D02*
X031831Y035926D01*
X031831Y036025D02*
X030869Y036025D01*
X030869Y036123D02*
X031831Y036123D01*
X031848Y036222D02*
X030852Y036222D01*
X030795Y036320D02*
X031905Y036320D01*
X031706Y036616D02*
X031294Y036616D01*
X031393Y036714D02*
X031607Y036714D01*
X031558Y036813D02*
X031442Y036813D01*
X031480Y036911D02*
X031520Y036911D01*
X031520Y037010D02*
X031480Y037010D01*
X031475Y037108D02*
X031525Y037108D01*
X031566Y037207D02*
X031434Y037207D01*
X031374Y037305D02*
X031626Y037305D01*
X032374Y037305D02*
X032626Y037305D01*
X032566Y037207D02*
X032434Y037207D01*
X032475Y037108D02*
X032525Y037108D01*
X032520Y037010D02*
X032480Y037010D01*
X032480Y036911D02*
X032520Y036911D01*
X032558Y036813D02*
X032442Y036813D01*
X032393Y036714D02*
X032607Y036714D01*
X032706Y036616D02*
X032294Y036616D01*
X032369Y036320D02*
X032693Y036320D01*
X032636Y036222D02*
X032427Y036222D01*
X032444Y036123D02*
X032618Y036123D01*
X032618Y036025D02*
X032444Y036025D01*
X032444Y035926D02*
X032618Y035926D01*
X032618Y035828D02*
X032444Y035828D01*
X032444Y035729D02*
X032618Y035729D01*
X032632Y035631D02*
X032431Y035631D01*
X032379Y035532D02*
X032683Y035532D01*
X032734Y035434D02*
X032358Y035434D01*
X032366Y035476D02*
X032366Y035476D01*
X032366Y035476D01*
X032330Y035335D02*
X032770Y035335D01*
X032734Y035429D02*
X032734Y035429D01*
X033130Y035335D02*
X033570Y035335D01*
X033536Y035413D02*
X033536Y035413D01*
X033538Y035434D02*
X033158Y035434D01*
X033164Y035491D02*
X033164Y035491D01*
X033164Y035491D01*
X033166Y035532D02*
X033471Y035532D01*
X033419Y035631D02*
X033218Y035631D01*
X033232Y035729D02*
X033405Y035729D01*
X033405Y035828D02*
X033232Y035828D01*
X033232Y035926D02*
X033405Y035926D01*
X033405Y036025D02*
X033232Y036025D01*
X033232Y036123D02*
X033405Y036123D01*
X033423Y036222D02*
X033214Y036222D01*
X033157Y036320D02*
X033480Y036320D01*
X033294Y036616D02*
X034700Y036616D01*
X034607Y036714D02*
X033393Y036714D01*
X033442Y036813D02*
X034558Y036813D01*
X034520Y036911D02*
X033480Y036911D01*
X033480Y037010D02*
X034520Y037010D01*
X034525Y037108D02*
X033475Y037108D01*
X033434Y037207D02*
X034566Y037207D01*
X034626Y037305D02*
X033374Y037305D01*
X033944Y036320D02*
X034268Y036320D01*
X034210Y036222D02*
X034001Y036222D01*
X034019Y036123D02*
X034193Y036123D01*
X034193Y036025D02*
X034019Y036025D01*
X034019Y035926D02*
X034193Y035926D01*
X034193Y035828D02*
X034019Y035828D01*
X034019Y035729D02*
X034193Y035729D01*
X034206Y035631D02*
X034005Y035631D01*
X033958Y035532D02*
X034258Y035532D01*
X034292Y035434D02*
X033958Y035434D01*
X033930Y035335D02*
X034320Y035335D01*
X034404Y035237D02*
X024464Y035237D01*
X024450Y035138D02*
X034305Y035138D01*
X034207Y035040D02*
X024450Y035040D01*
X024450Y034941D02*
X034108Y034941D01*
X034010Y034843D02*
X024450Y034843D01*
X024450Y034744D02*
X033911Y034744D01*
X033813Y034646D02*
X024450Y034646D01*
X024457Y034547D02*
X033714Y034547D01*
X033616Y034449D02*
X024496Y034449D01*
X024512Y034350D02*
X033517Y034350D01*
X033419Y034252D02*
X024496Y034252D01*
X024398Y034153D02*
X033320Y034153D01*
X033590Y033858D02*
X036995Y033858D01*
X037094Y033956D02*
X033689Y033956D01*
X033787Y034055D02*
X037192Y034055D01*
X037291Y034153D02*
X033886Y034153D01*
X033984Y034252D02*
X037389Y034252D01*
X037488Y034350D02*
X034083Y034350D01*
X034181Y034449D02*
X037586Y034449D01*
X037685Y034547D02*
X034280Y034547D01*
X034378Y034646D02*
X037783Y034646D01*
X037882Y034744D02*
X034477Y034744D01*
X034575Y034843D02*
X037980Y034843D01*
X038079Y034941D02*
X034674Y034941D01*
X034772Y035040D02*
X038177Y035040D01*
X038276Y035138D02*
X034871Y035138D01*
X034969Y035237D02*
X038374Y035237D01*
X038473Y035335D02*
X035480Y035335D01*
X035508Y035434D02*
X035975Y035434D01*
X035833Y035532D02*
X035529Y035532D01*
X035516Y035476D02*
X035516Y035476D01*
X035516Y035476D01*
X035580Y035631D02*
X035781Y035631D01*
X035768Y035729D02*
X035594Y035729D01*
X035594Y035828D02*
X035768Y035828D01*
X035768Y035926D02*
X035594Y035926D01*
X035594Y036025D02*
X035768Y036025D01*
X035768Y036123D02*
X035594Y036123D01*
X035576Y036222D02*
X035785Y036222D01*
X035842Y036320D02*
X035519Y036320D01*
X035364Y036419D02*
X035956Y036419D01*
X036055Y036517D02*
X035100Y036517D01*
X035100Y036419D02*
X035210Y036419D01*
X035294Y036616D02*
X035706Y036616D01*
X035607Y036714D02*
X035393Y036714D01*
X035442Y036813D02*
X035558Y036813D01*
X035520Y036911D02*
X035480Y036911D01*
X035480Y037010D02*
X035520Y037010D01*
X035525Y037108D02*
X035475Y037108D01*
X035434Y037207D02*
X035566Y037207D01*
X035626Y037305D02*
X035374Y037305D01*
X036306Y036320D02*
X040900Y036320D01*
X040900Y036419D02*
X039631Y036419D01*
X039729Y036517D02*
X040900Y036517D01*
X040706Y036616D02*
X040294Y036616D01*
X040393Y036714D02*
X040607Y036714D01*
X040558Y036813D02*
X040442Y036813D01*
X040480Y036911D02*
X040520Y036911D01*
X040520Y037010D02*
X040480Y037010D01*
X040475Y037108D02*
X040525Y037108D01*
X040566Y037207D02*
X040434Y037207D01*
X040374Y037305D02*
X040626Y037305D01*
X040809Y036222D02*
X036364Y036222D01*
X036381Y036123D02*
X040711Y036123D01*
X040612Y036025D02*
X036381Y036025D01*
X036381Y035926D02*
X039064Y035926D01*
X038965Y035828D02*
X036381Y035828D01*
X036381Y035729D02*
X038867Y035729D01*
X038768Y035631D02*
X036368Y035631D01*
X036316Y035532D02*
X038670Y035532D01*
X038571Y035434D02*
X036174Y035434D01*
X035120Y035335D02*
X035068Y035335D01*
X033492Y033759D02*
X036897Y033759D01*
X036798Y033661D02*
X033393Y033661D01*
X033295Y033562D02*
X036700Y033562D01*
X036601Y033464D02*
X033196Y033464D01*
X033098Y033365D02*
X036503Y033365D01*
X036404Y033267D02*
X032999Y033267D01*
X032901Y033168D02*
X036306Y033168D01*
X036207Y033070D02*
X032802Y033070D01*
X032704Y032971D02*
X036109Y032971D01*
X036010Y032873D02*
X032605Y032873D01*
X032507Y032774D02*
X035912Y032774D01*
X035813Y032676D02*
X032408Y032676D01*
X032310Y032577D02*
X035715Y032577D01*
X035616Y032479D02*
X032211Y032479D01*
X032113Y032380D02*
X035518Y032380D01*
X035419Y032282D02*
X032014Y032282D01*
X031916Y032183D02*
X035321Y032183D01*
X035222Y032085D02*
X031817Y032085D01*
X034941Y031297D02*
X037850Y031297D01*
X037850Y031395D02*
X035040Y031395D01*
X035078Y031494D02*
X037850Y031494D01*
X037850Y031592D02*
X035154Y031592D01*
X035253Y031691D02*
X037850Y031691D01*
X037850Y031789D02*
X035351Y031789D01*
X035450Y031888D02*
X037850Y031888D01*
X037850Y031986D02*
X035548Y031986D01*
X035647Y032085D02*
X037850Y032085D01*
X037850Y032183D02*
X035745Y032183D01*
X035844Y032282D02*
X037850Y032282D01*
X037850Y032380D02*
X035942Y032380D01*
X036041Y032479D02*
X037850Y032479D01*
X037850Y032577D02*
X036139Y032577D01*
X036238Y032676D02*
X037850Y032676D01*
X037850Y032774D02*
X036336Y032774D01*
X036435Y032873D02*
X037850Y032873D01*
X037850Y032971D02*
X036533Y032971D01*
X036632Y033070D02*
X037850Y033070D01*
X037850Y033168D02*
X036730Y033168D01*
X036829Y033267D02*
X037850Y033267D01*
X037850Y033365D02*
X036927Y033365D01*
X037026Y033464D02*
X037850Y033464D01*
X037850Y033562D02*
X037124Y033562D01*
X037223Y033661D02*
X037850Y033661D01*
X037850Y033759D02*
X037321Y033759D01*
X037420Y033858D02*
X037850Y033858D01*
X037850Y033956D02*
X037518Y033956D01*
X037617Y034055D02*
X037850Y034055D01*
X037850Y034153D02*
X037715Y034153D01*
X037814Y034252D02*
X037850Y034252D01*
X038150Y034252D02*
X038934Y034252D01*
X038917Y034153D02*
X038150Y034153D01*
X038150Y034055D02*
X038931Y034055D01*
X038984Y033956D02*
X038150Y033956D01*
X038150Y033858D02*
X039127Y033858D01*
X038990Y034350D02*
X038150Y034350D01*
X038211Y034449D02*
X039144Y034449D01*
X039698Y034449D02*
X044352Y034449D01*
X044352Y034547D02*
X038309Y034547D01*
X038408Y034646D02*
X044352Y034646D01*
X044352Y034744D02*
X038506Y034744D01*
X038605Y034843D02*
X044352Y034843D01*
X044352Y034941D02*
X038703Y034941D01*
X038802Y035040D02*
X044352Y035040D01*
X044352Y035138D02*
X038900Y035138D01*
X038999Y035237D02*
X044352Y035237D01*
X044352Y035335D02*
X039097Y035335D01*
X039196Y035434D02*
X044352Y035434D01*
X044352Y035532D02*
X043807Y035532D01*
X043812Y035534D02*
X043966Y035688D01*
X044050Y035891D01*
X044050Y036109D01*
X043966Y036312D01*
X043812Y036466D01*
X043609Y036550D01*
X043391Y036550D01*
X043188Y036466D01*
X043034Y036312D01*
X042950Y036109D01*
X042950Y035891D01*
X043034Y035688D01*
X043188Y035534D01*
X043391Y035450D01*
X043609Y035450D01*
X043812Y035534D01*
X043908Y035631D02*
X044352Y035631D01*
X044352Y035729D02*
X043983Y035729D01*
X044024Y035828D02*
X044352Y035828D01*
X044352Y035926D02*
X044050Y035926D01*
X044050Y036025D02*
X044352Y036025D01*
X044352Y036123D02*
X044044Y036123D01*
X044004Y036222D02*
X044352Y036222D01*
X044352Y036320D02*
X043958Y036320D01*
X043859Y036419D02*
X044352Y036419D01*
X044352Y036517D02*
X043689Y036517D01*
X043393Y036714D02*
X044352Y036714D01*
X044352Y036616D02*
X043294Y036616D01*
X043311Y036517D02*
X041729Y036517D01*
X041631Y036419D02*
X043141Y036419D01*
X043042Y036320D02*
X041532Y036320D01*
X041434Y036222D02*
X042996Y036222D01*
X042956Y036123D02*
X041335Y036123D01*
X041237Y036025D02*
X042950Y036025D01*
X042950Y035926D02*
X041138Y035926D01*
X041040Y035828D02*
X042976Y035828D01*
X043017Y035729D02*
X040941Y035729D01*
X040843Y035631D02*
X043092Y035631D01*
X043193Y035532D02*
X039294Y035532D01*
X039714Y033858D02*
X040910Y033858D01*
X040910Y033759D02*
X038150Y033759D01*
X038150Y033661D02*
X040910Y033661D01*
X040910Y033562D02*
X038150Y033562D01*
X038150Y033464D02*
X040910Y033464D01*
X040910Y033365D02*
X038150Y033365D01*
X038150Y033267D02*
X040910Y033267D01*
X040910Y033168D02*
X038150Y033168D01*
X038150Y033070D02*
X040910Y033070D01*
X040910Y032971D02*
X038150Y032971D01*
X038150Y032873D02*
X040910Y032873D01*
X040910Y032774D02*
X038150Y032774D01*
X038150Y032676D02*
X040910Y032676D01*
X040910Y032577D02*
X038150Y032577D01*
X038150Y032479D02*
X040910Y032479D01*
X040910Y032380D02*
X038150Y032380D01*
X038150Y032282D02*
X040910Y032282D01*
X040910Y032183D02*
X038150Y032183D01*
X038150Y032085D02*
X039139Y032085D01*
X039163Y032094D02*
X039050Y032048D01*
X038979Y031976D01*
X038964Y031981D01*
X038936Y032008D01*
X038885Y032008D01*
X038860Y032017D01*
X038860Y032017D01*
X038860Y032017D01*
X038842Y032008D01*
X038764Y032008D01*
X038642Y031886D01*
X038642Y031714D01*
X038764Y031592D01*
X038842Y031592D01*
X038860Y031583D01*
X038885Y031592D01*
X038936Y031592D01*
X038962Y031618D01*
X038964Y031614D01*
X039050Y031527D01*
X039163Y031481D01*
X039679Y031481D01*
X039792Y031527D01*
X039878Y031614D01*
X039925Y031726D01*
X039925Y031848D01*
X039878Y031961D01*
X039792Y032048D01*
X039679Y032094D01*
X039163Y032094D01*
X038989Y031986D02*
X038959Y031986D01*
X038741Y031986D02*
X038150Y031986D01*
X038150Y031888D02*
X038643Y031888D01*
X038642Y031789D02*
X038150Y031789D01*
X038150Y031691D02*
X038665Y031691D01*
X038763Y031592D02*
X038150Y031592D01*
X038150Y031494D02*
X039132Y031494D01*
X038985Y031592D02*
X038937Y031592D01*
X038860Y031583D02*
X038860Y031583D01*
X038860Y031217D02*
X038842Y031208D01*
X038764Y031208D01*
X038642Y031086D01*
X038642Y030914D01*
X038764Y030792D01*
X038842Y030792D01*
X038860Y030783D01*
X038860Y030783D01*
X038860Y030783D01*
X038885Y030792D01*
X038936Y030792D01*
X038964Y030819D01*
X038969Y030821D01*
X039050Y030740D01*
X039163Y030693D01*
X039679Y030693D01*
X039792Y030740D01*
X039878Y030826D01*
X039925Y030939D01*
X039925Y031061D01*
X039878Y031174D01*
X039792Y031260D01*
X039679Y031307D01*
X039163Y031307D01*
X039050Y031260D01*
X038969Y031179D01*
X038964Y031181D01*
X038936Y031208D01*
X038885Y031208D01*
X038860Y031217D01*
X038860Y031217D01*
X038860Y031217D01*
X038947Y031198D02*
X038988Y031198D01*
X039138Y031297D02*
X038150Y031297D01*
X038150Y031395D02*
X040910Y031395D01*
X040910Y031297D02*
X039704Y031297D01*
X039854Y031198D02*
X040910Y031198D01*
X040932Y031100D02*
X039909Y031100D01*
X039925Y031001D02*
X041010Y031001D01*
X041155Y030903D02*
X039909Y030903D01*
X039856Y030804D02*
X041160Y030804D01*
X041160Y030706D02*
X039709Y030706D01*
X039133Y030706D02*
X038150Y030706D01*
X038150Y030804D02*
X038751Y030804D01*
X038653Y030903D02*
X038150Y030903D01*
X038150Y031001D02*
X038642Y031001D01*
X038655Y031100D02*
X038150Y031100D01*
X038150Y031198D02*
X038753Y031198D01*
X038949Y030804D02*
X038986Y030804D01*
X038150Y030607D02*
X041160Y030607D01*
X041160Y030509D02*
X038150Y030509D01*
X038150Y030410D02*
X041190Y030410D01*
X041349Y030312D02*
X038150Y030312D01*
X038150Y030213D02*
X041551Y030213D01*
X041551Y030115D02*
X038150Y030115D01*
X038150Y030016D02*
X041551Y030016D01*
X041547Y031100D02*
X041551Y031100D01*
X041551Y031198D02*
X041445Y031198D01*
X041390Y031297D02*
X041551Y031297D01*
X041551Y031395D02*
X041390Y031395D01*
X041390Y031494D02*
X041551Y031494D01*
X041551Y031592D02*
X041390Y031592D01*
X041390Y031691D02*
X041551Y031691D01*
X041551Y031789D02*
X041390Y031789D01*
X041390Y031888D02*
X041551Y031888D01*
X041551Y031986D02*
X041390Y031986D01*
X041390Y032085D02*
X044352Y032085D01*
X044352Y032183D02*
X041390Y032183D01*
X041390Y032282D02*
X044352Y032282D01*
X044352Y032380D02*
X041390Y032380D01*
X041390Y032479D02*
X044352Y032479D01*
X044352Y032577D02*
X041390Y032577D01*
X041390Y032676D02*
X044352Y032676D01*
X044352Y032774D02*
X041390Y032774D01*
X041390Y032873D02*
X044352Y032873D01*
X044352Y032971D02*
X041390Y032971D01*
X041390Y033070D02*
X044352Y033070D01*
X044352Y033168D02*
X041390Y033168D01*
X041390Y033267D02*
X044352Y033267D01*
X044352Y033365D02*
X041390Y033365D01*
X041390Y033464D02*
X044352Y033464D01*
X044352Y033562D02*
X041390Y033562D01*
X041390Y033661D02*
X044352Y033661D01*
X044352Y033759D02*
X041390Y033759D01*
X041390Y033858D02*
X044352Y033858D01*
X044352Y033956D02*
X041390Y033956D01*
X041366Y034055D02*
X044352Y034055D01*
X044352Y034153D02*
X041326Y034153D01*
X041315Y034178D02*
X041315Y034178D01*
X041241Y034252D02*
X044352Y034252D01*
X044352Y034350D02*
X041094Y034350D01*
X040910Y032085D02*
X039702Y032085D01*
X039853Y031986D02*
X040910Y031986D01*
X040910Y031888D02*
X039908Y031888D01*
X039925Y031789D02*
X040910Y031789D01*
X040910Y031691D02*
X039910Y031691D01*
X039856Y031592D02*
X040910Y031592D01*
X040910Y031494D02*
X039710Y031494D01*
X038150Y029918D02*
X044352Y029918D01*
X044352Y030016D02*
X042882Y030016D01*
X044352Y029819D02*
X038150Y029819D01*
X038150Y029721D02*
X039135Y029721D01*
X038987Y029622D02*
X038150Y029622D01*
X038150Y029524D02*
X038933Y029524D01*
X038917Y029425D02*
X038150Y029425D01*
X038150Y029327D02*
X038933Y029327D01*
X038987Y029228D02*
X038150Y029228D01*
X038150Y029130D02*
X039136Y029130D01*
X039134Y028933D02*
X038150Y028933D01*
X038150Y029031D02*
X039557Y029031D01*
X039909Y029327D02*
X044352Y029327D01*
X044352Y029425D02*
X039925Y029425D01*
X039909Y029524D02*
X044352Y029524D01*
X044352Y029622D02*
X039855Y029622D01*
X039707Y029721D02*
X044352Y029721D01*
X044352Y029228D02*
X040075Y029228D01*
X040174Y029130D02*
X044352Y029130D01*
X044352Y029031D02*
X040272Y029031D01*
X040371Y028933D02*
X044352Y028933D01*
X044352Y028834D02*
X040469Y028834D01*
X040568Y028736D02*
X044352Y028736D01*
X044352Y028637D02*
X040666Y028637D01*
X040765Y028539D02*
X044352Y028539D01*
X044352Y028440D02*
X040863Y028440D01*
X040962Y028342D02*
X044352Y028342D01*
X044352Y028243D02*
X041060Y028243D01*
X041159Y028145D02*
X044352Y028145D01*
X044352Y028046D02*
X041257Y028046D01*
X041356Y027948D02*
X044352Y027948D01*
X044352Y027849D02*
X041454Y027849D01*
X041553Y027751D02*
X044352Y027751D01*
X044352Y027652D02*
X041651Y027652D01*
X041750Y027554D02*
X042970Y027554D01*
X042894Y027522D02*
X042675Y027303D01*
X042556Y027017D01*
X042556Y026707D01*
X042675Y026421D01*
X042894Y026202D01*
X043180Y026084D01*
X043489Y026084D01*
X043776Y026202D01*
X043994Y026421D01*
X044113Y026707D01*
X044113Y027017D01*
X043994Y027303D01*
X043776Y027522D01*
X043489Y027641D01*
X043180Y027641D01*
X042894Y027522D01*
X042827Y027455D02*
X041848Y027455D01*
X041947Y027357D02*
X042728Y027357D01*
X042656Y027258D02*
X042045Y027258D01*
X042144Y027160D02*
X042615Y027160D01*
X042575Y027061D02*
X042235Y027061D01*
X042235Y026963D02*
X042556Y026963D01*
X042556Y026864D02*
X042235Y026864D01*
X042235Y026766D02*
X042556Y026766D01*
X042573Y026667D02*
X042235Y026667D01*
X042235Y026569D02*
X042614Y026569D01*
X042655Y026470D02*
X042235Y026470D01*
X042332Y026372D02*
X042725Y026372D01*
X042823Y026273D02*
X042430Y026273D01*
X042529Y026175D02*
X042961Y026175D01*
X042726Y025978D02*
X044352Y025978D01*
X044352Y026076D02*
X042627Y026076D01*
X042785Y025879D02*
X044352Y025879D01*
X044352Y025781D02*
X042785Y025781D01*
X042785Y025682D02*
X044352Y025682D01*
X044352Y025584D02*
X042785Y025584D01*
X042785Y025485D02*
X044352Y025485D01*
X044352Y025387D02*
X043292Y025387D01*
X043391Y025288D02*
X044352Y025288D01*
X044352Y025190D02*
X043441Y025190D01*
X043480Y025091D02*
X044352Y025091D01*
X044352Y024993D02*
X043480Y024993D01*
X043476Y024894D02*
X044352Y024894D01*
X044352Y024796D02*
X043435Y024796D01*
X043376Y024697D02*
X044352Y024697D01*
X044352Y026175D02*
X043708Y026175D01*
X043846Y026273D02*
X044352Y026273D01*
X044352Y026372D02*
X043945Y026372D01*
X044015Y026470D02*
X044352Y026470D01*
X044352Y026569D02*
X044055Y026569D01*
X044096Y026667D02*
X044352Y026667D01*
X044352Y026766D02*
X044113Y026766D01*
X044113Y026864D02*
X044352Y026864D01*
X044352Y026963D02*
X044113Y026963D01*
X044095Y027061D02*
X044352Y027061D01*
X044352Y027160D02*
X044054Y027160D01*
X044013Y027258D02*
X044352Y027258D01*
X044352Y027357D02*
X043941Y027357D01*
X043843Y027455D02*
X044352Y027455D01*
X044352Y027554D02*
X043700Y027554D01*
X041633Y026864D02*
X039853Y026864D01*
X039908Y026963D02*
X041534Y026963D01*
X041436Y027061D02*
X039925Y027061D01*
X039910Y027160D02*
X041337Y027160D01*
X041239Y027258D02*
X039857Y027258D01*
X039711Y027357D02*
X041140Y027357D01*
X041042Y027455D02*
X038757Y027455D01*
X038659Y027554D02*
X040943Y027554D01*
X040845Y027652D02*
X038560Y027652D01*
X038462Y027751D02*
X040746Y027751D01*
X040648Y027849D02*
X038363Y027849D01*
X038265Y027948D02*
X040549Y027948D01*
X040451Y028046D02*
X038166Y028046D01*
X038150Y028145D02*
X040352Y028145D01*
X040254Y028243D02*
X038150Y028243D01*
X038150Y028342D02*
X039137Y028342D01*
X038988Y028440D02*
X038150Y028440D01*
X038150Y028539D02*
X038933Y028539D01*
X038917Y028637D02*
X038150Y028637D01*
X038150Y028736D02*
X038932Y028736D01*
X038986Y028834D02*
X038150Y028834D01*
X037850Y028046D02*
X034292Y028046D01*
X034391Y027948D02*
X037850Y027948D01*
X037939Y027849D02*
X034489Y027849D01*
X034588Y027751D02*
X038037Y027751D01*
X038136Y027652D02*
X034686Y027652D01*
X034785Y027554D02*
X038234Y027554D01*
X038333Y027455D02*
X034883Y027455D01*
X034982Y027357D02*
X038431Y027357D01*
X038530Y027258D02*
X035080Y027258D01*
X035179Y027160D02*
X038628Y027160D01*
X038727Y027061D02*
X035269Y027061D01*
X035310Y026963D02*
X038825Y026963D01*
X038989Y026864D02*
X035310Y026864D01*
X035280Y026766D02*
X039140Y026766D01*
X038985Y027258D02*
X038954Y027258D01*
X038856Y027357D02*
X039131Y027357D01*
X039701Y026766D02*
X041665Y026766D01*
X041665Y026667D02*
X035205Y026667D01*
X036956Y026569D02*
X037555Y026569D01*
X037410Y026470D02*
X037101Y026470D01*
X037154Y026372D02*
X037357Y026372D01*
X037342Y026273D02*
X037169Y026273D01*
X037169Y026175D02*
X037342Y026175D01*
X037342Y026076D02*
X037169Y026076D01*
X037169Y025978D02*
X037342Y025978D01*
X037342Y025879D02*
X037169Y025879D01*
X037152Y025781D02*
X037359Y025781D01*
X037415Y025682D02*
X037096Y025682D01*
X037079Y025584D02*
X037568Y025584D01*
X037703Y025485D02*
X037150Y025485D01*
X037292Y025387D02*
X037708Y025387D01*
X037609Y025288D02*
X037391Y025288D01*
X037441Y025190D02*
X037559Y025190D01*
X037520Y025091D02*
X037480Y025091D01*
X037480Y024993D02*
X037520Y024993D01*
X037524Y024894D02*
X037476Y024894D01*
X037435Y024796D02*
X037565Y024796D01*
X037624Y024697D02*
X037376Y024697D01*
X038376Y024697D02*
X038624Y024697D01*
X038565Y024796D02*
X038435Y024796D01*
X038476Y024894D02*
X038524Y024894D01*
X038520Y024993D02*
X038480Y024993D01*
X038480Y025091D02*
X038520Y025091D01*
X038559Y025190D02*
X038441Y025190D01*
X038391Y025288D02*
X038609Y025288D01*
X038708Y025387D02*
X038292Y025387D01*
X038127Y025485D02*
X038753Y025485D01*
X038654Y025584D02*
X038518Y025584D01*
X038355Y025584D02*
X038029Y025584D01*
X037930Y025682D02*
X038203Y025682D01*
X038146Y025781D02*
X037939Y025781D01*
X037956Y025879D02*
X038130Y025879D01*
X038130Y025978D02*
X037956Y025978D01*
X037956Y026076D02*
X038130Y026076D01*
X038130Y026175D02*
X037956Y026175D01*
X037956Y026273D02*
X038130Y026273D01*
X038144Y026372D02*
X037942Y026372D01*
X037889Y026470D02*
X038197Y026470D01*
X038342Y026569D02*
X037744Y026569D01*
X038531Y026569D02*
X041665Y026569D01*
X041665Y026470D02*
X041203Y026470D01*
X041306Y026372D02*
X041665Y026372D01*
X041665Y026273D02*
X041382Y026273D01*
X041423Y026175D02*
X041722Y026175D01*
X041821Y026076D02*
X041450Y026076D01*
X041450Y025978D02*
X041919Y025978D01*
X042018Y025879D02*
X041445Y025879D01*
X041404Y025781D02*
X042116Y025781D01*
X042215Y025682D02*
X041360Y025682D01*
X041261Y025584D02*
X042215Y025584D01*
X042215Y025485D02*
X041094Y025485D01*
X041292Y025387D02*
X041708Y025387D01*
X041609Y025288D02*
X041391Y025288D01*
X041441Y025190D02*
X041559Y025190D01*
X041520Y025091D02*
X041480Y025091D01*
X041480Y024993D02*
X041520Y024993D01*
X041524Y024894D02*
X041476Y024894D01*
X041435Y024796D02*
X041565Y024796D01*
X041624Y024697D02*
X041376Y024697D01*
X040624Y024697D02*
X039376Y024697D01*
X039435Y024796D02*
X040565Y024796D01*
X040524Y024894D02*
X039476Y024894D01*
X039480Y024993D02*
X040520Y024993D01*
X040520Y025091D02*
X039480Y025091D01*
X039441Y025190D02*
X040559Y025190D01*
X040609Y025288D02*
X039391Y025288D01*
X039292Y025387D02*
X040708Y025387D01*
X040706Y025485D02*
X039150Y025485D01*
X039079Y025584D02*
X040539Y025584D01*
X040440Y025682D02*
X038980Y025682D01*
X038882Y025781D02*
X040396Y025781D01*
X040355Y025879D02*
X038783Y025879D01*
X038743Y025978D02*
X040350Y025978D01*
X040350Y026076D02*
X038743Y026076D01*
X038743Y026175D02*
X040377Y026175D01*
X040418Y026273D02*
X038743Y026273D01*
X038729Y026372D02*
X040494Y026372D01*
X040597Y026470D02*
X038676Y026470D01*
X039704Y028342D02*
X040155Y028342D01*
X040057Y028440D02*
X039854Y028440D01*
X039909Y028539D02*
X039958Y028539D01*
X042882Y031986D02*
X044352Y031986D01*
X042706Y036616D02*
X042294Y036616D01*
X042393Y036714D02*
X042607Y036714D01*
X042558Y036813D02*
X042442Y036813D01*
X042480Y036911D02*
X042520Y036911D01*
X042520Y037010D02*
X042480Y037010D01*
X042475Y037108D02*
X042525Y037108D01*
X042566Y037207D02*
X042434Y037207D01*
X042374Y037305D02*
X042626Y037305D01*
X043374Y037305D02*
X044352Y037305D01*
X044352Y037207D02*
X043434Y037207D01*
X043475Y037108D02*
X044352Y037108D01*
X044352Y037010D02*
X043480Y037010D01*
X043480Y036911D02*
X044352Y036911D01*
X044352Y036813D02*
X043442Y036813D01*
X024819Y036320D02*
X024495Y036320D01*
X024553Y036222D02*
X024761Y036222D01*
X024744Y036123D02*
X024570Y036123D01*
X024570Y036025D02*
X024744Y036025D01*
X024744Y035926D02*
X024570Y035926D01*
X024570Y035828D02*
X024744Y035828D01*
X024744Y035729D02*
X024570Y035729D01*
X024557Y035631D02*
X024758Y035631D01*
X024792Y035532D02*
X024505Y035532D01*
X024509Y035434D02*
X024792Y035434D01*
X024820Y035335D02*
X024508Y035335D01*
X024517Y035390D02*
X024517Y035390D01*
X024517Y035390D01*
X024143Y034547D02*
X022910Y034547D01*
X022910Y034449D02*
X023002Y034449D01*
X022984Y034646D02*
X022910Y034646D01*
X022290Y034646D02*
X022260Y034646D01*
X022246Y034660D02*
X022290Y034616D01*
X022290Y036612D01*
X022337Y036726D01*
X022520Y036908D01*
X022520Y037095D01*
X022593Y037272D01*
X022673Y037352D01*
X021327Y037352D01*
X021407Y037272D01*
X021480Y037095D01*
X021480Y036905D01*
X021407Y036728D01*
X021272Y036593D01*
X021150Y036543D01*
X021150Y036056D01*
X021160Y036046D01*
X021160Y035754D01*
X021106Y035700D01*
X021160Y035646D01*
X021160Y035500D01*
X021594Y035500D01*
X021604Y035510D01*
X021896Y035510D01*
X021900Y035506D01*
X021904Y035510D01*
X022196Y035510D01*
X022260Y035446D01*
X022260Y035154D01*
X022250Y035144D01*
X022250Y034988D01*
X022162Y034900D01*
X022000Y034900D01*
X022000Y034660D01*
X022246Y034660D01*
X022290Y034744D02*
X022000Y034744D01*
X022000Y034843D02*
X022290Y034843D01*
X022290Y034941D02*
X022203Y034941D01*
X022250Y035040D02*
X022290Y035040D01*
X022290Y035138D02*
X022250Y035138D01*
X022260Y035237D02*
X022290Y035237D01*
X022290Y035335D02*
X022260Y035335D01*
X022260Y035434D02*
X022290Y035434D01*
X022290Y035532D02*
X021160Y035532D01*
X021160Y035631D02*
X022290Y035631D01*
X022290Y035729D02*
X021135Y035729D01*
X021160Y035828D02*
X022290Y035828D01*
X022290Y035926D02*
X021160Y035926D01*
X021160Y036025D02*
X022290Y036025D01*
X022290Y036123D02*
X021150Y036123D01*
X021150Y036222D02*
X022290Y036222D01*
X022290Y036320D02*
X021150Y036320D01*
X021150Y036419D02*
X022290Y036419D01*
X022290Y036517D02*
X021150Y036517D01*
X021294Y036616D02*
X022292Y036616D01*
X022332Y036714D02*
X021393Y036714D01*
X021442Y036813D02*
X022424Y036813D01*
X022520Y036911D02*
X021480Y036911D01*
X021480Y037010D02*
X022520Y037010D01*
X022525Y037108D02*
X021475Y037108D01*
X021434Y037207D02*
X022566Y037207D01*
X022626Y037305D02*
X021374Y037305D01*
X020626Y037305D02*
X020374Y037305D01*
X020434Y037207D02*
X020566Y037207D01*
X020525Y037108D02*
X020475Y037108D01*
X020480Y037010D02*
X020520Y037010D01*
X020520Y036911D02*
X020480Y036911D01*
X020442Y036813D02*
X020558Y036813D01*
X020607Y036714D02*
X020393Y036714D01*
X020294Y036616D02*
X020706Y036616D01*
X020850Y036517D02*
X016648Y036517D01*
X016648Y036419D02*
X018701Y036419D01*
X018706Y036616D02*
X018294Y036616D01*
X018393Y036714D02*
X018607Y036714D01*
X018558Y036813D02*
X018442Y036813D01*
X018480Y036911D02*
X018520Y036911D01*
X018520Y037010D02*
X018480Y037010D01*
X018475Y037108D02*
X018525Y037108D01*
X018566Y037207D02*
X018434Y037207D01*
X018374Y037305D02*
X018626Y037305D01*
X019374Y037305D02*
X019626Y037305D01*
X019566Y037207D02*
X019434Y037207D01*
X019475Y037108D02*
X019525Y037108D01*
X019520Y037010D02*
X019480Y037010D01*
X019480Y036911D02*
X019520Y036911D01*
X019558Y036813D02*
X019442Y036813D01*
X019393Y036714D02*
X019607Y036714D01*
X019706Y036616D02*
X019294Y036616D01*
X019299Y036419D02*
X020850Y036419D01*
X020850Y036320D02*
X019481Y036320D01*
X019579Y036222D02*
X020850Y036222D01*
X020850Y036123D02*
X019667Y036123D01*
X019708Y036025D02*
X020740Y036025D01*
X020740Y035926D02*
X019749Y035926D01*
X019778Y035828D02*
X020733Y035828D01*
X020676Y035781D02*
X020676Y035781D01*
X020676Y035781D01*
X020642Y035729D02*
X019778Y035729D01*
X019778Y035631D02*
X020642Y035631D01*
X020950Y035500D02*
X020950Y035450D01*
X020200Y035138D02*
X020050Y035138D01*
X019952Y035040D02*
X020200Y035040D01*
X020200Y034941D02*
X019853Y034941D01*
X019755Y034843D02*
X020072Y034843D01*
X020010Y034744D02*
X019656Y034744D01*
X019558Y034646D02*
X020010Y034646D01*
X019942Y034153D02*
X020535Y034153D01*
X021918Y033756D02*
X022102Y033940D01*
X022246Y033940D01*
X022290Y033984D01*
X022290Y033110D01*
X022054Y033110D01*
X022016Y033071D01*
X022016Y033190D01*
X022012Y033194D01*
X022016Y033197D01*
X022016Y033387D01*
X021951Y033451D01*
X021918Y033451D01*
X021918Y033756D01*
X021921Y033759D02*
X022290Y033759D01*
X022290Y033661D02*
X021918Y033661D01*
X021918Y033562D02*
X022290Y033562D01*
X022290Y033464D02*
X021918Y033464D01*
X022016Y033365D02*
X022290Y033365D01*
X022290Y033267D02*
X022016Y033267D01*
X022016Y033168D02*
X022290Y033168D01*
X022290Y033858D02*
X022020Y033858D01*
X022262Y033956D02*
X022290Y033956D01*
X022910Y033858D02*
X022986Y033858D01*
X021520Y033267D02*
X020480Y033267D01*
X020451Y033168D02*
X021520Y033168D01*
X021520Y033070D02*
X020142Y033070D01*
X020232Y033095D02*
X020237Y033100D01*
X020293Y033100D01*
X020457Y033147D01*
X020470Y033100D01*
X020457Y033053D01*
X020293Y033100D01*
X020470Y033100D01*
X020480Y032971D02*
X021520Y032971D01*
X021520Y032873D02*
X020480Y032873D01*
X020480Y032774D02*
X021520Y032774D01*
X021520Y032676D02*
X020480Y032676D01*
X020480Y032577D02*
X021520Y032577D01*
X021520Y032479D02*
X020480Y032479D01*
X020480Y032380D02*
X021520Y032380D01*
X021520Y032282D02*
X020678Y032282D01*
X020522Y032282D02*
X020480Y032282D01*
X020508Y032032D02*
X020600Y032032D01*
X020705Y032032D01*
X021260Y031592D02*
X021942Y031592D01*
X021962Y031494D02*
X021260Y031494D01*
X020232Y032702D02*
X020132Y032702D01*
X019984Y032618D01*
X019960Y032660D01*
X019962Y032708D01*
X020132Y032702D01*
X020002Y032702D01*
X019960Y032660D01*
X019967Y032872D02*
X019960Y032920D01*
X019979Y032965D01*
X020136Y032898D01*
X019967Y032872D01*
X019982Y032898D02*
X019960Y032920D01*
X019982Y032898D02*
X020136Y032898D01*
X020232Y032898D01*
X020231Y032900D01*
X019980Y033138D02*
X019980Y033138D01*
X019815Y033070D02*
X019814Y033070D01*
X017928Y033267D02*
X017860Y033267D01*
X017865Y033365D02*
X017841Y033365D01*
X017865Y033464D02*
X016648Y033464D01*
X016648Y033562D02*
X017865Y033562D01*
X017865Y033661D02*
X016648Y033661D01*
X016648Y033759D02*
X017942Y033759D01*
X018013Y033858D02*
X016648Y033858D01*
X016648Y033365D02*
X017259Y033365D01*
X017240Y033267D02*
X016648Y033267D01*
X016648Y033168D02*
X017240Y033168D01*
X017240Y033070D02*
X016648Y033070D01*
X016648Y032971D02*
X017240Y032971D01*
X017240Y032873D02*
X017199Y032873D01*
X017860Y033168D02*
X017865Y033168D01*
X018180Y035532D02*
X018227Y035532D01*
X018222Y035631D02*
X018158Y035631D01*
X018104Y035729D02*
X018222Y035729D01*
X018222Y035828D02*
X016648Y035828D01*
X016648Y035926D02*
X018251Y035926D01*
X018292Y036025D02*
X016648Y036025D01*
X016648Y036123D02*
X018333Y036123D01*
X018421Y036222D02*
X016648Y036222D01*
X016648Y036320D02*
X018519Y036320D01*
X017706Y036616D02*
X017480Y036616D01*
X017480Y036714D02*
X017607Y036714D01*
X017558Y036813D02*
X017480Y036813D01*
X017480Y036911D02*
X017520Y036911D01*
X017520Y037010D02*
X017480Y037010D01*
X017480Y037108D02*
X017525Y037108D01*
X017566Y037207D02*
X017480Y037207D01*
X017480Y037305D02*
X017626Y037305D01*
X019773Y035532D02*
X019820Y035532D01*
X019800Y035512D02*
X019800Y035512D01*
D44*
X019950Y035450D02*
X019400Y034900D01*
X018600Y034900D01*
X017988Y035512D01*
X017694Y035512D01*
X017694Y035000D02*
X018300Y035000D01*
X018550Y034750D01*
X019450Y034750D01*
X020000Y035300D01*
X021750Y035300D01*
X021950Y035333D02*
X022100Y035333D01*
X022100Y035350D02*
X021950Y035350D01*
X021950Y035159D01*
X021891Y035100D01*
X021609Y035100D01*
X021550Y035159D01*
X021550Y035160D01*
X021150Y035160D01*
X021150Y034959D01*
X021091Y034900D01*
X020809Y034900D01*
X020750Y034959D01*
X020750Y034960D01*
X020650Y034960D01*
X020650Y034959D01*
X020591Y034900D01*
X020590Y034900D01*
X020590Y034800D01*
X020594Y034796D01*
X020602Y034796D01*
X020684Y034714D01*
X020858Y034540D01*
X021500Y034540D01*
X021500Y034591D01*
X021559Y034650D01*
X021800Y034650D01*
X021800Y034650D01*
X021850Y034650D01*
X021850Y035050D01*
X021859Y035050D01*
X021909Y035100D01*
X022100Y035100D01*
X022100Y035350D01*
X022050Y035300D02*
X022050Y035250D01*
X022100Y035255D02*
X021950Y035255D01*
X021950Y035176D02*
X022100Y035176D01*
X021906Y035098D02*
X021150Y035098D01*
X021150Y035019D02*
X021850Y035019D01*
X021850Y034941D02*
X021132Y034941D01*
X020950Y035100D02*
X020450Y035100D01*
X020450Y034656D01*
X020544Y034656D01*
X020800Y034400D01*
X021650Y034400D01*
X021700Y034450D01*
X021500Y034548D02*
X020850Y034548D01*
X020771Y034627D02*
X021535Y034627D01*
X021850Y034705D02*
X020693Y034705D01*
X020614Y034784D02*
X021850Y034784D01*
X021850Y034862D02*
X020590Y034862D01*
X020632Y034941D02*
X020768Y034941D01*
X020450Y034656D02*
X020317Y034656D01*
X020323Y034650D01*
X020317Y034400D02*
X020500Y034400D01*
X021100Y033800D01*
X021100Y033569D01*
X021098Y033568D01*
X020902Y033568D02*
X020900Y033569D01*
X020900Y033800D01*
X020740Y033960D01*
X019840Y033960D01*
X019800Y034000D01*
X019700Y033750D02*
X020350Y033750D01*
X020410Y033810D01*
X020640Y033810D01*
X020700Y033750D01*
X020700Y033572D01*
X020705Y033568D01*
X020508Y033568D02*
X019868Y033568D01*
X019800Y033500D01*
X019742Y033292D02*
X020232Y033292D01*
X020232Y033095D02*
X020705Y033095D01*
X020875Y032925D01*
X021025Y032853D01*
X021000Y032800D01*
X020947Y032775D01*
X020875Y032925D01*
X021000Y032800D01*
X021768Y032898D02*
X022198Y032898D01*
X022200Y032900D01*
X022145Y032505D02*
X022150Y032500D01*
X022145Y032505D02*
X021768Y032505D01*
X021768Y032308D02*
X022042Y032308D01*
X022150Y032200D01*
X022018Y032032D02*
X022150Y031900D01*
X022018Y032032D02*
X021492Y032032D01*
X021295Y032032D02*
X021295Y031855D01*
X021400Y031750D01*
X022000Y031750D01*
X022150Y031600D01*
X021960Y030700D02*
X020700Y030700D01*
X020360Y030360D01*
X020360Y029220D01*
X020437Y029220D01*
X020437Y029220D01*
X020446Y029229D01*
X020446Y029263D01*
X020445Y029263D01*
X020445Y029416D01*
X020433Y029449D01*
X020441Y029467D01*
X020439Y029486D01*
X020445Y029494D01*
X020445Y029707D01*
X020450Y029712D01*
X020450Y030291D01*
X020509Y030350D01*
X020656Y030350D01*
X020700Y030386D01*
X020700Y030483D01*
X020817Y030600D01*
X020983Y030600D01*
X021100Y030483D01*
X021100Y030460D01*
X021960Y030460D01*
X021960Y030700D01*
X021960Y030623D02*
X020623Y030623D01*
X020545Y030545D02*
X020762Y030545D01*
X020700Y030466D02*
X020466Y030466D01*
X020388Y030388D02*
X020700Y030388D01*
X020468Y030309D02*
X020360Y030309D01*
X020360Y030231D02*
X020450Y030231D01*
X020450Y030152D02*
X020360Y030152D01*
X020360Y030074D02*
X020450Y030074D01*
X020450Y029995D02*
X020360Y029995D01*
X020360Y029917D02*
X020450Y029917D01*
X020450Y029838D02*
X020360Y029838D01*
X020360Y029760D02*
X020450Y029760D01*
X020445Y029681D02*
X020360Y029681D01*
X020360Y029603D02*
X020445Y029603D01*
X020445Y029524D02*
X020360Y029524D01*
X020360Y029446D02*
X020434Y029446D01*
X020445Y029367D02*
X020360Y029367D01*
X020360Y029289D02*
X020445Y029289D01*
X020210Y029289D02*
X020154Y029289D01*
X020154Y029243D02*
X020154Y029505D01*
X020095Y029563D01*
X019914Y029563D01*
X019856Y029505D01*
X019856Y029146D01*
X019860Y029142D01*
X019860Y029110D01*
X019790Y029040D01*
X019480Y029040D01*
X019300Y028870D01*
X019300Y027750D01*
X019600Y027400D01*
X020550Y027400D01*
X020550Y026370D01*
X019580Y026370D01*
X019054Y026896D01*
X019054Y027399D01*
X018996Y027457D01*
X018993Y027457D01*
X018950Y027500D01*
X018950Y028596D01*
X019012Y028658D01*
X019050Y028750D01*
X019050Y029050D01*
X019250Y029250D01*
X019291Y029250D01*
X019350Y029309D01*
X019350Y029350D01*
X019350Y029650D01*
X019450Y029750D01*
X019450Y030000D01*
X019300Y030150D01*
X018550Y030150D01*
X018550Y030370D01*
X020210Y030370D01*
X020210Y029240D01*
X020154Y029243D01*
X020154Y029367D02*
X020210Y029367D01*
X020210Y029446D02*
X020154Y029446D01*
X020135Y029524D02*
X020210Y029524D01*
X020210Y029603D02*
X019350Y029603D01*
X019350Y029524D02*
X019875Y029524D01*
X019856Y029446D02*
X019350Y029446D01*
X019350Y029367D02*
X019856Y029367D01*
X019856Y029289D02*
X019330Y029289D01*
X019350Y029350D02*
X019350Y029350D01*
X019210Y029210D02*
X019856Y029210D01*
X019860Y029132D02*
X019132Y029132D01*
X019053Y029053D02*
X019803Y029053D01*
X019650Y029050D02*
X019600Y029100D01*
X019411Y028975D02*
X019050Y028975D01*
X019050Y028896D02*
X019328Y028896D01*
X019300Y028818D02*
X019050Y028818D01*
X019045Y028739D02*
X019300Y028739D01*
X019300Y028661D02*
X019013Y028661D01*
X018950Y028582D02*
X019300Y028582D01*
X019300Y028504D02*
X018950Y028504D01*
X018950Y028425D02*
X019300Y028425D01*
X019300Y028347D02*
X018950Y028347D01*
X018950Y028268D02*
X019300Y028268D01*
X019300Y028190D02*
X018950Y028190D01*
X018950Y028111D02*
X019300Y028111D01*
X019300Y028033D02*
X018950Y028033D01*
X018950Y027954D02*
X019300Y027954D01*
X019300Y027876D02*
X018950Y027876D01*
X018950Y027797D02*
X019300Y027797D01*
X019327Y027719D02*
X018950Y027719D01*
X018950Y027640D02*
X019394Y027640D01*
X019462Y027562D02*
X018950Y027562D01*
X018967Y027483D02*
X019529Y027483D01*
X019596Y027405D02*
X019048Y027405D01*
X019054Y027326D02*
X020550Y027326D01*
X020550Y027248D02*
X019054Y027248D01*
X019054Y027169D02*
X020550Y027169D01*
X020550Y027091D02*
X019054Y027091D01*
X019054Y027012D02*
X020550Y027012D01*
X020550Y026934D02*
X019054Y026934D01*
X019095Y026855D02*
X020550Y026855D01*
X020550Y026777D02*
X019173Y026777D01*
X019252Y026698D02*
X020550Y026698D01*
X020550Y026620D02*
X019330Y026620D01*
X019409Y026541D02*
X020550Y026541D01*
X020550Y026463D02*
X019487Y026463D01*
X019566Y026384D02*
X020550Y026384D01*
X021715Y027357D02*
X021740Y027410D01*
X021793Y027435D01*
X021865Y027285D01*
X021715Y027357D01*
X021740Y027410D02*
X021865Y027285D01*
X021900Y027250D01*
X021950Y027250D01*
X023279Y027063D02*
X023537Y027063D01*
X023800Y026800D01*
X023823Y026800D01*
X023981Y026855D01*
X024000Y026800D01*
X023981Y026745D01*
X023823Y026800D01*
X024000Y026800D01*
X023850Y027050D02*
X023902Y027077D01*
X023825Y027225D01*
X023793Y027061D01*
X023850Y027050D01*
X023850Y027200D01*
X023825Y027225D01*
X023279Y027771D01*
X023279Y027850D01*
X023279Y028638D02*
X023291Y028650D01*
X023523Y028650D01*
X023681Y028705D01*
X023700Y028650D01*
X023681Y028595D01*
X023523Y028650D01*
X023700Y028650D01*
X021960Y030466D02*
X021100Y030466D01*
X021038Y030545D02*
X021960Y030545D01*
X020600Y031550D02*
X020200Y031550D01*
X020232Y031550D01*
X020232Y032308D01*
X020232Y032505D02*
X020105Y032505D01*
X020050Y032450D01*
X019950Y032450D01*
X019950Y032270D01*
X020047Y032134D01*
X020000Y032100D01*
X019942Y032103D01*
X019950Y032270D01*
X019950Y032150D01*
X020000Y032100D01*
X019950Y032450D02*
X019700Y032450D01*
X019500Y032300D02*
X019500Y032700D01*
X019575Y032775D01*
X019525Y032825D01*
X019375Y032897D01*
X019400Y032950D01*
X019453Y032975D01*
X019525Y032825D01*
X019400Y032950D01*
X019575Y032775D02*
X019600Y032750D01*
X019700Y032750D01*
X019500Y032300D02*
X019599Y032201D01*
X019599Y031833D01*
X019600Y031832D01*
X019600Y031700D01*
X019925Y031375D01*
X020075Y031303D01*
X020050Y031250D01*
X019997Y031225D01*
X019925Y031375D01*
X019950Y031350D01*
X019950Y031310D01*
X020010Y031250D01*
X020050Y031250D01*
X020200Y031250D01*
X020210Y030309D02*
X018550Y030309D01*
X018550Y030231D02*
X020210Y030231D01*
X020210Y030152D02*
X018550Y030152D01*
X019376Y030074D02*
X020210Y030074D01*
X020210Y029995D02*
X019450Y029995D01*
X019450Y029917D02*
X020210Y029917D01*
X020210Y029838D02*
X019450Y029838D01*
X019450Y029760D02*
X020210Y029760D01*
X020210Y029681D02*
X019381Y029681D01*
X019600Y028800D02*
X019959Y028800D01*
X020005Y028755D01*
X020202Y028398D02*
X020250Y028350D01*
X018450Y028900D02*
X018450Y029050D01*
X018150Y029050D02*
X017700Y029050D01*
X017550Y028900D01*
X017640Y031470D02*
X017650Y031490D01*
X017650Y031551D01*
X017663Y031562D01*
X017669Y031562D01*
X017683Y031579D01*
X017699Y031593D01*
X017700Y031599D01*
X017726Y031630D01*
X017778Y031578D01*
X017868Y031541D01*
X017966Y031541D01*
X018057Y031578D01*
X018126Y031648D01*
X018164Y031738D01*
X018164Y031836D01*
X018126Y031927D01*
X018057Y031997D01*
X017966Y032034D01*
X017898Y032034D01*
X017902Y032086D01*
X017905Y032090D01*
X017904Y032112D01*
X017905Y032134D01*
X017902Y032138D01*
X017897Y032204D01*
X017900Y032209D01*
X017894Y032230D01*
X017893Y032250D01*
X018576Y032250D01*
X018580Y032246D01*
X018600Y032237D01*
X018600Y032234D01*
X018654Y032179D01*
X018625Y032150D01*
X018625Y031619D01*
X018476Y031470D01*
X017640Y031470D01*
X017648Y031487D02*
X018493Y031487D01*
X018571Y031565D02*
X018025Y031565D01*
X018122Y031644D02*
X018625Y031644D01*
X018625Y031722D02*
X018157Y031722D01*
X018164Y031801D02*
X018625Y031801D01*
X018625Y031879D02*
X018146Y031879D01*
X018096Y031958D02*
X018625Y031958D01*
X018625Y032036D02*
X017898Y032036D01*
X017904Y032115D02*
X018625Y032115D01*
X018641Y032193D02*
X017897Y032193D01*
X017810Y031565D02*
X017671Y031565D01*
X017650Y033000D02*
X017550Y033100D01*
X017650Y033000D02*
X018150Y033000D01*
X018150Y033500D02*
X018150Y033523D01*
X018095Y033681D01*
X018150Y033700D01*
X018205Y033681D01*
X018150Y033523D01*
X018150Y033700D01*
X019700Y033250D02*
X019742Y033292D01*
X021183Y034144D02*
X021189Y034150D01*
X021230Y034150D01*
X021397Y034158D01*
X021400Y034100D01*
X021366Y034053D01*
X021230Y034150D01*
X021350Y034150D01*
X021400Y034100D01*
X021395Y034158D01*
X021228Y034144D01*
X021368Y034051D01*
X021400Y034100D01*
X021244Y034144D02*
X021228Y034144D01*
X021183Y034144D01*
X021300Y033800D02*
X021245Y033781D01*
X021300Y033623D01*
X021355Y033781D01*
X021300Y033800D01*
X021300Y033623D01*
X021300Y033572D01*
X021295Y033568D01*
X021492Y033568D02*
X021492Y033692D01*
X021600Y033800D01*
X021600Y033950D01*
X021700Y034050D01*
X021700Y034150D01*
X021750Y034150D01*
X022050Y034450D01*
X022100Y034450D01*
X022100Y034150D02*
X021768Y033818D01*
X021768Y033292D01*
X023279Y034150D02*
X023280Y034150D01*
X023573Y034150D01*
X023731Y034205D01*
X023750Y034150D01*
X023731Y034095D01*
X023573Y034150D01*
X023750Y034150D01*
X024245Y034369D02*
X024300Y034350D01*
X024355Y034369D01*
X024300Y034527D01*
X024245Y034369D01*
X024300Y034350D02*
X024300Y034527D01*
X024300Y035223D01*
X024245Y035381D01*
X024300Y035400D01*
X024355Y035381D01*
X024300Y035223D01*
X024300Y035400D01*
X024355Y035419D01*
X024300Y035577D01*
X024245Y035419D01*
X024300Y035400D01*
X024300Y035577D01*
X024300Y035885D01*
X024263Y035921D01*
X025051Y035921D02*
X025051Y035620D01*
X025058Y035453D01*
X025000Y035450D01*
X024953Y035484D01*
X025051Y035620D01*
X025051Y035501D01*
X025000Y035450D01*
X025794Y035466D02*
X025850Y035450D01*
X025904Y035473D01*
X025838Y035627D01*
X025794Y035466D01*
X025838Y035462D02*
X025850Y035450D01*
X025838Y035462D02*
X025838Y035627D01*
X025838Y035921D01*
X026626Y035921D02*
X026626Y035625D01*
X026702Y035477D01*
X026650Y035450D01*
X026593Y035461D01*
X026626Y035625D01*
X026626Y035474D01*
X026650Y035450D01*
X027392Y035457D02*
X027450Y035450D01*
X027500Y035480D01*
X027413Y035623D01*
X027392Y035457D01*
X027413Y035487D02*
X027450Y035450D01*
X027413Y035487D02*
X027413Y035623D01*
X027413Y035921D01*
X028200Y035921D02*
X028200Y035627D01*
X028255Y035469D01*
X028200Y035450D01*
X028145Y035469D01*
X028200Y035627D01*
X028200Y035450D01*
X028200Y035450D01*
X028944Y035465D02*
X029000Y035450D01*
X029054Y035473D01*
X028988Y035627D01*
X028944Y035465D01*
X028988Y035462D02*
X029000Y035450D01*
X028988Y035462D02*
X028988Y035627D01*
X028988Y035921D01*
X029775Y035921D02*
X029775Y035625D01*
X029852Y035477D01*
X029800Y035450D01*
X029743Y035461D01*
X029775Y035625D01*
X029775Y035475D01*
X029800Y035450D01*
X030542Y035457D02*
X030600Y035450D01*
X030650Y035480D01*
X030563Y035623D01*
X030542Y035457D01*
X030563Y035487D02*
X030600Y035450D01*
X030563Y035487D02*
X030563Y035623D01*
X030563Y035921D01*
X032137Y035921D02*
X032137Y035627D01*
X032204Y035473D01*
X032150Y035450D01*
X032094Y035465D01*
X032137Y035627D01*
X032137Y035463D01*
X032150Y035450D01*
X032893Y035461D02*
X032950Y035450D01*
X033002Y035477D01*
X032925Y035625D01*
X032893Y035461D01*
X032925Y035475D02*
X032950Y035450D01*
X032925Y035475D02*
X032925Y035625D01*
X032925Y035921D01*
X033712Y035921D02*
X033712Y035623D01*
X033800Y035481D01*
X033750Y035450D01*
X033692Y035457D01*
X033712Y035623D01*
X033712Y035488D01*
X033750Y035450D01*
X034445Y035469D02*
X034500Y035450D01*
X034555Y035469D01*
X034500Y035627D01*
X034445Y035469D01*
X034500Y035450D02*
X034500Y035450D01*
X034500Y035627D01*
X034500Y035921D01*
X035287Y035921D02*
X035287Y035627D01*
X035354Y035473D01*
X035300Y035450D01*
X035244Y035465D01*
X035287Y035627D01*
X035287Y035463D01*
X035300Y035450D01*
X036074Y035921D02*
X036074Y036324D01*
X036250Y036500D01*
X039500Y036500D01*
X040000Y037000D01*
X041000Y037000D02*
X041050Y036950D01*
X041050Y036250D01*
X040650Y035850D01*
X039200Y035850D01*
X034975Y031625D01*
X034903Y031475D01*
X034850Y031500D01*
X034825Y031553D01*
X034975Y031625D01*
X034850Y031500D01*
X038000Y034450D02*
X038000Y028000D01*
X038937Y027063D01*
X039421Y027063D01*
X038437Y026079D02*
X038437Y026013D01*
X039000Y025450D01*
X039000Y025000D01*
X038000Y025000D02*
X038000Y025400D01*
X037649Y025751D01*
X037649Y026079D01*
X036862Y026079D02*
X036862Y025588D01*
X037000Y025450D01*
X037000Y025000D01*
X036000Y025000D02*
X036000Y025400D01*
X036074Y025474D01*
X036074Y026079D01*
X038869Y030945D02*
X038850Y031000D01*
X038869Y031055D01*
X039027Y031000D01*
X038869Y030945D01*
X038850Y031000D02*
X039027Y031000D01*
X039421Y031000D01*
X039421Y031787D02*
X039408Y031800D01*
X039027Y031800D01*
X038869Y031745D01*
X038850Y031800D01*
X038869Y031855D01*
X039027Y031800D01*
X038850Y031800D01*
X038000Y034450D02*
X039250Y035700D01*
X040700Y035700D01*
X042000Y037000D01*
X023815Y034906D02*
X023800Y034850D01*
X023753Y034815D01*
X023654Y034950D01*
X023815Y034906D01*
X023800Y034850D02*
X023700Y034950D01*
X023654Y034950D01*
X023292Y034950D01*
X023279Y034937D01*
X020950Y035450D02*
X019950Y035450D01*
X020815Y035603D02*
X020850Y035650D01*
X020906Y035665D01*
X020950Y035504D01*
X020815Y035603D01*
X020850Y035650D02*
X020906Y035635D01*
X020950Y035796D01*
X020815Y035697D01*
X020850Y035650D01*
X020950Y035650D01*
X020950Y035504D01*
X020950Y035500D01*
X020950Y035650D02*
X020950Y035796D01*
X020950Y035900D01*
X021000Y035950D01*
X021000Y037000D01*
D45*
X023279Y032575D02*
X023279Y032221D01*
X023300Y032200D01*
X031650Y032200D01*
X034900Y035450D01*
X034900Y036900D01*
X035000Y037000D01*
X022040Y030250D02*
X020900Y030250D01*
X020817Y030967D02*
X019678Y030967D01*
X019561Y030850D01*
X019450Y030850D01*
X019500Y030200D02*
X019200Y030200D01*
X018800Y030200D01*
X018850Y029450D02*
X018775Y029375D01*
X018800Y029350D01*
X018800Y029300D01*
X018750Y029350D02*
X018775Y029375D01*
X019850Y028350D02*
X020250Y028350D01*
X020250Y027950D01*
X019850Y028350D02*
X019800Y028300D01*
X020817Y030967D02*
X021050Y031200D01*
X021050Y031550D01*
X018520Y031670D02*
X018520Y032210D01*
X018520Y031670D02*
X018362Y031512D01*
X018124Y031512D01*
D46*
X020900Y030400D02*
X020900Y030250D01*
X020900Y029600D02*
X020700Y029400D01*
X020650Y029400D01*
X020750Y029500D01*
X020750Y029600D01*
X020800Y029550D01*
X020700Y029400D02*
X020700Y029350D01*
X020750Y029300D02*
X020750Y029250D01*
X020600Y029100D01*
X021650Y027700D02*
X021450Y027500D01*
X021450Y027250D01*
X021650Y027700D02*
X021850Y027700D01*
X022150Y027700D02*
X022150Y027850D01*
D47*
X021450Y027250D02*
X021450Y026900D01*
X021150Y028300D02*
X021100Y028350D01*
X020750Y029300D02*
X020700Y029300D01*
X020700Y029350D01*
X041400Y030550D02*
X041403Y030551D01*
X041405Y030553D01*
X041406Y030556D01*
X042952Y030550D02*
X042954Y030550D01*
X042955Y030549D01*
X042955Y030547D01*
D48*
X041760Y030550D02*
X041400Y030550D01*
X041400Y030900D01*
X041150Y031200D02*
X041150Y031550D01*
X041150Y033900D01*
X041148Y033930D01*
X041143Y033960D01*
X041134Y033989D01*
X041121Y034016D01*
X041106Y034042D01*
X041087Y034066D01*
X041066Y034087D01*
X041042Y034106D01*
X041016Y034121D01*
X040989Y034134D01*
X040960Y034143D01*
X040930Y034148D01*
X040900Y034150D01*
X040150Y034150D01*
X039421Y034150D02*
X039250Y034150D01*
X039421Y034150D02*
X039421Y034150D01*
D49*
X039850Y034150D01*
X041150Y031200D02*
X041194Y031156D01*
X041406Y030944D02*
X041406Y030906D01*
X041400Y030900D01*
X042800Y030550D02*
X042952Y030550D01*
D50*
X039912Y029132D02*
X039714Y029132D01*
X039421Y029425D01*
X039912Y029132D02*
X042053Y026992D01*
X042053Y026392D01*
X042603Y025842D01*
X042603Y025398D01*
X043000Y025000D01*
X042398Y025398D02*
X042398Y025403D01*
X042398Y025758D01*
X041848Y026308D01*
X041848Y026908D01*
X039838Y028918D01*
X039708Y028918D01*
X039428Y028638D01*
X042395Y025400D02*
X042398Y025403D01*
X042398Y025398D02*
X042000Y025000D01*
X021050Y031550D02*
X021000Y031550D01*
X020600Y031950D01*
X019255Y031451D02*
X019240Y031430D01*
X019219Y031415D01*
X019115Y031555D01*
X019255Y031451D01*
X019240Y031430D02*
X019115Y031555D01*
X018942Y031728D01*
X018922Y031728D01*
X018922Y031833D01*
X018922Y031672D02*
X018506Y031256D01*
X018124Y031256D01*
X018124Y031000D02*
X018889Y031000D01*
X018922Y030967D01*
X019000Y031045D01*
X019000Y031093D01*
X018974Y031266D01*
X019000Y031270D01*
X019026Y031266D01*
X019000Y031093D01*
X019000Y031270D01*
X018950Y030995D02*
X018922Y030967D01*
D51*
X018922Y031672D02*
X018922Y031728D01*
X039421Y028638D02*
X039428Y028638D01*
D52*
X035000Y026900D02*
X030113Y031787D01*
X023279Y031787D01*
X023277Y031790D01*
X022750Y031790D01*
X022600Y031940D01*
X022600Y036550D01*
X023000Y036950D01*
X023000Y037000D01*
X024000Y037000D01*
X019050Y032500D02*
X018750Y032500D01*
X018650Y032600D01*
X017559Y032600D01*
X017071Y032112D01*
X017071Y031000D01*
X017071Y029888D01*
X018300Y028500D02*
X018550Y028500D01*
X018300Y028500D02*
X017925Y028125D01*
X017346Y028125D01*
X018303Y027081D02*
X017346Y026125D01*
X018303Y027081D02*
X018600Y027081D01*
X018600Y026019D02*
X018694Y025925D01*
X019800Y025925D01*
X019800Y026850D02*
X020600Y026850D01*
X021450Y027000D02*
X021650Y026800D01*
X021700Y026750D01*
X022250Y026750D01*
X024000Y025000D01*
X022350Y027250D02*
X021950Y027250D01*
X022350Y027250D02*
X022600Y027500D01*
X022600Y029650D01*
X023163Y030213D01*
X023279Y030213D01*
X023279Y031000D01*
X018600Y026019D02*
X018619Y026000D01*
D53*
X021450Y027000D02*
X021450Y027250D01*
X018800Y028800D02*
X018800Y029300D01*
X018800Y028800D02*
X018550Y028550D01*
X018550Y028500D01*
X020600Y031950D02*
X020600Y032032D01*
D54*
X041760Y030550D02*
X042800Y030550D01*
M02*
