%
M48
M72
T01C0.0118
T02C0.0157
T03C0.0197
T04C0.0217
T05C0.0400
T06C0.1260
%
T01
X17500Y25500
X18500Y26500
X18550Y27550
X18550Y28050
X19500Y28500
X19650Y28000
X19950Y28000
X21050Y27550
X21740Y27410
X22150Y27850
X22100Y28300
X21850Y28700
X21600Y28300
X21600Y29100
X21850Y29450
X22100Y29100
X20900Y29600
X20700Y29300
X20400Y29000
X19150Y29650
X19050Y29900
X18800Y29750
X18500Y29500
X18800Y29300
X18450Y28900
X18650Y30200
X17800Y30500
X19000Y31270
X19240Y31430
X19600Y31500
X19900Y31850
X20000Y32100
X19960Y32660
X19960Y32920
X20470Y33100
X21000Y32800
X21300Y33800
X21400Y34100
X20750Y34750
X20050Y34950
X20850Y35650
X20500Y36500
X21500Y36500
X22200Y34900
X23800Y34850
X23750Y34150
X24300Y34350
X25500Y34500
X25500Y35500
X25850Y35450
X26650Y35450
X27450Y35450
X28200Y35450
X29000Y35450
X29800Y35450
X30600Y35450
X30500Y34500
X29500Y34500
X29500Y33500
X29500Y32500
X30500Y32500
X30500Y33500
X31500Y33500
X31500Y32500
X32500Y32500
X32500Y33500
X33500Y33500
X33500Y32500
X34500Y32500
X34500Y33500
X35500Y33500
X35500Y32500
X36500Y32500
X36500Y33500
X36500Y34500
X35500Y34500
X34500Y34500
X34500Y35450
X33750Y35450
X32950Y35450
X32500Y35500
X32150Y35450
X32500Y34500
X31500Y34500
X33500Y34500
X35300Y35450
X36500Y35500
X37500Y35500
X38500Y35500
X39500Y35500
X39500Y34510
X39000Y34500
X38750Y34300
X38750Y34000
X39000Y33750
X39500Y33750
X40000Y33750
X40500Y33750
X40750Y33500
X40750Y33000
X40750Y32500
X40750Y32000
X40750Y31500
X40750Y31000
X41000Y30500
X40500Y30500
X41000Y30000
X41500Y29750
X42000Y29750
X42500Y29750
X43000Y29500
X43500Y29500
X44000Y29500
X43500Y28500
X42500Y28500
X42500Y27500
X42500Y26500
X41500Y26500
X40500Y26500
X40500Y27500
X41500Y28500
X40500Y29500
X38500Y29500
X37500Y29500
X37500Y28500
X38500Y28500
X36500Y28500
X35500Y28500
X34500Y28500
X34500Y29500
X35500Y29500
X36500Y29500
X36500Y30500
X35500Y30500
X34500Y30500
X33500Y30500
X32500Y30500
X31500Y29500
X31500Y28500
X32500Y28500
X33500Y29500
X34850Y31500
X35500Y31500
X36500Y31500
X37500Y31500
X37500Y30500
X38500Y30500
X38850Y31000
X38850Y31800
X38500Y32500
X38500Y33500
X37500Y33500
X37500Y32500
X37500Y34500
X38500Y34500
X40000Y34500
X40500Y34500
X41000Y34500
X41500Y34500
X41500Y34000
X41500Y33500
X41500Y33000
X41500Y32500
X41500Y32000
X42000Y32250
X42500Y32250
X43000Y32500
X43500Y32500
X44000Y32500
X43500Y33500
X42500Y33500
X42500Y34500
X43500Y34500
X42500Y35500
X41500Y35500
X40500Y35500
X30500Y30500
X29500Y30500
X29500Y29500
X30500Y29500
X30500Y28500
X29500Y28500
X28500Y28500
X27500Y28500
X26500Y28500
X26500Y29500
X27500Y29500
X28500Y29500
X28500Y30500
X27500Y30500
X25500Y30500
X24500Y30500
X24500Y29500
X23500Y29500
X23700Y28650
X25500Y28500
X23850Y27050
X24000Y26800
X24250Y26600
X25050Y26600
X25800Y26600
X26600Y26600
X27500Y26500
X28500Y26500
X29500Y26500
X31000Y26500
X32500Y26500
X35000Y26900
X36500Y26500
X36500Y25500
X37500Y25500
X38500Y25500
X39500Y25500
X41500Y25500
X43500Y25500
X28500Y32500
X28500Y33500
X27500Y33500
X27500Y32500
X26500Y33500
X26500Y34500
X27500Y34500
X28500Y34500
X25500Y32500
X24500Y32500
X24500Y33500
X23300Y32200
X22750Y31790
X21550Y31550
X21300Y31350
X21550Y31200
X21300Y31000
X20900Y30400
X20400Y31250
X20050Y31250
X19450Y30850
X18520Y32210
X19400Y32950
X19500Y33500
X19050Y34000
X18650Y33700
X18150Y33700
X18500Y34500
X16700Y33100
X18500Y36500
X22200Y33350
X24300Y35400
X25000Y35450
X23500Y36500
X16700Y28900
X17500Y27500
X20600Y26850
X21650Y26800
X24500Y25500
X25500Y25500
T02
X17300Y34173
X17300Y35827
T03
X17071Y32112
X17071Y29888
T04
X17917Y30213
X17917Y31787
T05
X17000Y25000
X18000Y25000
X19000Y25000
X20000Y25000
X21000Y25000
X22000Y25000
X23000Y25000
X24000Y25000
X25000Y25000
X26000Y25000
X27000Y25000
X28000Y25000
X29000Y25000
X30000Y25000
X31000Y25000
X32000Y25000
X33000Y25000
X34000Y25000
X35000Y25000
X36000Y25000
X37000Y25000
X38000Y25000
X39000Y25000
X40000Y25000
X41000Y25000
X42000Y25000
X43000Y25000
X44000Y25000
X44000Y37000
X43000Y37000
X42000Y37000
X41000Y37000
X40000Y37000
X39000Y37000
X38000Y37000
X37000Y37000
X36000Y37000
X35000Y37000
X34000Y37000
X33000Y37000
X32000Y37000
X31000Y37000
X30000Y37000
X29000Y37000
X28000Y37000
X27000Y37000
X26000Y37000
X25000Y37000
X24000Y37000
X23000Y37000
X22000Y37000
X21000Y37000
X20000Y37000
X19000Y37000
X18000Y37000
X17000Y37000
T06
X19000Y35700
X43335Y26862
M30
