G75*
%MOIN*%
%OFA0B0*%
%FSLAX24Y24*%
%IPPOS*%
%LPD*%
%AMOC8*
5,1,8,0,0,1.08239X$1,22.5*
%
%ADD10C,0.0000*%
%ADD11R,0.1083X0.1083*%
%ADD12R,0.0276X0.0098*%
%ADD13R,0.0098X0.0276*%
%ADD14R,0.0276X0.0394*%
%ADD15R,0.0276X0.0236*%
%ADD16R,0.0200X0.0200*%
%ADD17R,0.0098X0.0236*%
%ADD18R,0.0787X0.0335*%
%ADD19R,0.0400X0.0600*%
%ADD20R,0.0250X0.0350*%
%ADD21R,0.0700X0.0450*%
%ADD22R,0.0551X0.0709*%
%ADD23R,0.0600X0.0400*%
%ADD24R,0.1400X0.0700*%
%ADD25R,0.0394X0.0157*%
%ADD26R,0.0276X0.0197*%
%ADD27R,0.0350X0.0250*%
%ADD28C,0.0394*%
%ADD29R,0.0531X0.0157*%
%ADD30R,0.0748X0.0748*%
%ADD31R,0.0512X0.0453*%
%ADD32R,0.0472X0.0354*%
%ADD33R,0.0197X0.0197*%
D10*
X016500Y024500D02*
X016500Y037500D01*
X044500Y037500D01*
X044500Y024500D01*
X016500Y024500D01*
X017809Y030213D02*
X017811Y030233D01*
X017817Y030253D01*
X017826Y030271D01*
X017839Y030288D01*
X017854Y030301D01*
X017872Y030311D01*
X017892Y030318D01*
X017912Y030321D01*
X017932Y030320D01*
X017952Y030315D01*
X017971Y030307D01*
X017988Y030295D01*
X018002Y030280D01*
X018013Y030262D01*
X018021Y030243D01*
X018025Y030223D01*
X018025Y030203D01*
X018021Y030183D01*
X018013Y030164D01*
X018002Y030146D01*
X017988Y030131D01*
X017971Y030119D01*
X017952Y030111D01*
X017932Y030106D01*
X017912Y030105D01*
X017892Y030108D01*
X017872Y030115D01*
X017854Y030125D01*
X017839Y030138D01*
X017826Y030155D01*
X017817Y030173D01*
X017811Y030193D01*
X017809Y030213D01*
X017809Y031787D02*
X017811Y031807D01*
X017817Y031827D01*
X017826Y031845D01*
X017839Y031862D01*
X017854Y031875D01*
X017872Y031885D01*
X017892Y031892D01*
X017912Y031895D01*
X017932Y031894D01*
X017952Y031889D01*
X017971Y031881D01*
X017988Y031869D01*
X018002Y031854D01*
X018013Y031836D01*
X018021Y031817D01*
X018025Y031797D01*
X018025Y031777D01*
X018021Y031757D01*
X018013Y031738D01*
X018002Y031720D01*
X017988Y031705D01*
X017971Y031693D01*
X017952Y031685D01*
X017932Y031680D01*
X017912Y031679D01*
X017892Y031682D01*
X017872Y031689D01*
X017854Y031699D01*
X017839Y031712D01*
X017826Y031729D01*
X017817Y031747D01*
X017811Y031767D01*
X017809Y031787D01*
X016693Y034315D02*
X016695Y034340D01*
X016701Y034364D01*
X016710Y034386D01*
X016723Y034407D01*
X016739Y034426D01*
X016758Y034442D01*
X016779Y034455D01*
X016801Y034464D01*
X016825Y034470D01*
X016850Y034472D01*
X016875Y034470D01*
X016899Y034464D01*
X016921Y034455D01*
X016942Y034442D01*
X016961Y034426D01*
X016977Y034407D01*
X016990Y034386D01*
X016999Y034364D01*
X017005Y034340D01*
X017007Y034315D01*
X017005Y034290D01*
X016999Y034266D01*
X016990Y034244D01*
X016977Y034223D01*
X016961Y034204D01*
X016942Y034188D01*
X016921Y034175D01*
X016899Y034166D01*
X016875Y034160D01*
X016850Y034158D01*
X016825Y034160D01*
X016801Y034166D01*
X016779Y034175D01*
X016758Y034188D01*
X016739Y034204D01*
X016723Y034223D01*
X016710Y034244D01*
X016701Y034266D01*
X016695Y034290D01*
X016693Y034315D01*
X016693Y034985D02*
X016695Y035010D01*
X016701Y035034D01*
X016710Y035056D01*
X016723Y035077D01*
X016739Y035096D01*
X016758Y035112D01*
X016779Y035125D01*
X016801Y035134D01*
X016825Y035140D01*
X016850Y035142D01*
X016875Y035140D01*
X016899Y035134D01*
X016921Y035125D01*
X016942Y035112D01*
X016961Y035096D01*
X016977Y035077D01*
X016990Y035056D01*
X016999Y035034D01*
X017005Y035010D01*
X017007Y034985D01*
X017005Y034960D01*
X016999Y034936D01*
X016990Y034914D01*
X016977Y034893D01*
X016961Y034874D01*
X016942Y034858D01*
X016921Y034845D01*
X016899Y034836D01*
X016875Y034830D01*
X016850Y034828D01*
X016825Y034830D01*
X016801Y034836D01*
X016779Y034845D01*
X016758Y034858D01*
X016739Y034874D01*
X016723Y034893D01*
X016710Y034914D01*
X016701Y034936D01*
X016695Y034960D01*
X016693Y034985D01*
X018370Y035700D02*
X018372Y035750D01*
X018378Y035800D01*
X018388Y035849D01*
X018402Y035897D01*
X018419Y035944D01*
X018440Y035989D01*
X018465Y036033D01*
X018493Y036074D01*
X018525Y036113D01*
X018559Y036150D01*
X018596Y036184D01*
X018636Y036214D01*
X018678Y036241D01*
X018722Y036265D01*
X018768Y036286D01*
X018815Y036302D01*
X018863Y036315D01*
X018913Y036324D01*
X018962Y036329D01*
X019013Y036330D01*
X019063Y036327D01*
X019112Y036320D01*
X019161Y036309D01*
X019209Y036294D01*
X019255Y036276D01*
X019300Y036254D01*
X019343Y036228D01*
X019384Y036199D01*
X019423Y036167D01*
X019459Y036132D01*
X019491Y036094D01*
X019521Y036054D01*
X019548Y036011D01*
X019571Y035967D01*
X019590Y035921D01*
X019606Y035873D01*
X019618Y035824D01*
X019626Y035775D01*
X019630Y035725D01*
X019630Y035675D01*
X019626Y035625D01*
X019618Y035576D01*
X019606Y035527D01*
X019590Y035479D01*
X019571Y035433D01*
X019548Y035389D01*
X019521Y035346D01*
X019491Y035306D01*
X019459Y035268D01*
X019423Y035233D01*
X019384Y035201D01*
X019343Y035172D01*
X019300Y035146D01*
X019255Y035124D01*
X019209Y035106D01*
X019161Y035091D01*
X019112Y035080D01*
X019063Y035073D01*
X019013Y035070D01*
X018962Y035071D01*
X018913Y035076D01*
X018863Y035085D01*
X018815Y035098D01*
X018768Y035114D01*
X018722Y035135D01*
X018678Y035159D01*
X018636Y035186D01*
X018596Y035216D01*
X018559Y035250D01*
X018525Y035287D01*
X018493Y035326D01*
X018465Y035367D01*
X018440Y035411D01*
X018419Y035456D01*
X018402Y035503D01*
X018388Y035551D01*
X018378Y035600D01*
X018372Y035650D01*
X018370Y035700D01*
X042705Y026862D02*
X042707Y026912D01*
X042713Y026962D01*
X042723Y027011D01*
X042737Y027059D01*
X042754Y027106D01*
X042775Y027151D01*
X042800Y027195D01*
X042828Y027236D01*
X042860Y027275D01*
X042894Y027312D01*
X042931Y027346D01*
X042971Y027376D01*
X043013Y027403D01*
X043057Y027427D01*
X043103Y027448D01*
X043150Y027464D01*
X043198Y027477D01*
X043248Y027486D01*
X043297Y027491D01*
X043348Y027492D01*
X043398Y027489D01*
X043447Y027482D01*
X043496Y027471D01*
X043544Y027456D01*
X043590Y027438D01*
X043635Y027416D01*
X043678Y027390D01*
X043719Y027361D01*
X043758Y027329D01*
X043794Y027294D01*
X043826Y027256D01*
X043856Y027216D01*
X043883Y027173D01*
X043906Y027129D01*
X043925Y027083D01*
X043941Y027035D01*
X043953Y026986D01*
X043961Y026937D01*
X043965Y026887D01*
X043965Y026837D01*
X043961Y026787D01*
X043953Y026738D01*
X043941Y026689D01*
X043925Y026641D01*
X043906Y026595D01*
X043883Y026551D01*
X043856Y026508D01*
X043826Y026468D01*
X043794Y026430D01*
X043758Y026395D01*
X043719Y026363D01*
X043678Y026334D01*
X043635Y026308D01*
X043590Y026286D01*
X043544Y026268D01*
X043496Y026253D01*
X043447Y026242D01*
X043398Y026235D01*
X043348Y026232D01*
X043297Y026233D01*
X043248Y026238D01*
X043198Y026247D01*
X043150Y026260D01*
X043103Y026276D01*
X043057Y026297D01*
X043013Y026321D01*
X042971Y026348D01*
X042931Y026378D01*
X042894Y026412D01*
X042860Y026449D01*
X042828Y026488D01*
X042800Y026529D01*
X042775Y026573D01*
X042754Y026618D01*
X042737Y026665D01*
X042723Y026713D01*
X042713Y026762D01*
X042707Y026812D01*
X042705Y026862D01*
D11*
X021000Y032800D03*
D12*
X020232Y032702D03*
X020232Y032898D03*
X020232Y033095D03*
X020232Y033292D03*
X020232Y032505D03*
X020232Y032308D03*
X021768Y032308D03*
X021768Y032505D03*
X021768Y032702D03*
X021768Y032898D03*
X021768Y033095D03*
X021768Y033292D03*
D13*
X021492Y033568D03*
X021295Y033568D03*
X021098Y033568D03*
X020902Y033568D03*
X020705Y033568D03*
X020508Y033568D03*
X020508Y032032D03*
X020705Y032032D03*
X020902Y032032D03*
X021098Y032032D03*
X021295Y032032D03*
X021492Y032032D03*
X020595Y029326D03*
X020398Y029326D03*
X020202Y029326D03*
X020005Y029326D03*
X020202Y028774D03*
X020398Y028774D03*
X020595Y028774D03*
D14*
X019594Y030825D03*
D15*
X018806Y030746D03*
X018806Y031494D03*
X019594Y031494D03*
D16*
X020200Y031550D03*
X020200Y031250D03*
X020600Y031250D03*
X020600Y031550D03*
X021050Y031550D03*
X021350Y031550D03*
X021350Y031200D03*
X021050Y031200D03*
X021800Y031250D03*
X021800Y031550D03*
X022200Y032900D03*
X022200Y033200D03*
X022100Y034150D03*
X022100Y034450D03*
X021700Y034450D03*
X021700Y034150D03*
X021750Y034900D03*
X022050Y034900D03*
X022050Y035300D03*
X021750Y035300D03*
X021250Y035500D03*
X020950Y035500D03*
X020950Y035100D03*
X021250Y035100D03*
X021250Y035900D03*
X020950Y035900D03*
X020450Y035100D03*
X020150Y035100D03*
X019700Y032750D03*
X019700Y032450D03*
X019200Y030200D03*
X019200Y029900D03*
X018800Y029900D03*
X018800Y030200D03*
X018800Y029400D03*
X018800Y029100D03*
X019600Y029100D03*
X019600Y028800D03*
X019800Y028300D03*
X019800Y028000D03*
X020250Y027950D03*
X020550Y027950D03*
X020550Y028350D03*
X020250Y028350D03*
X021050Y027700D03*
X021350Y027700D03*
X021850Y027700D03*
X022150Y027700D03*
X040350Y034525D03*
X040650Y034525D03*
X040900Y034525D03*
X041150Y034525D03*
X041450Y034525D03*
X041700Y034525D03*
X041700Y034225D03*
X040900Y034225D03*
D17*
X020005Y028755D03*
D18*
X021600Y029925D03*
X021600Y030575D03*
D19*
X020750Y029950D03*
X020050Y029950D03*
X021150Y029100D03*
X021850Y029100D03*
X021850Y028300D03*
X021150Y028300D03*
D20*
X021450Y027250D03*
X021950Y027250D03*
D21*
X019050Y032500D03*
X019050Y033700D03*
D22*
X018519Y026150D03*
X019581Y026150D03*
D23*
X018550Y027800D03*
X018550Y028500D03*
D24*
X017346Y028125D03*
X017346Y026125D03*
D25*
X020317Y034144D03*
X020317Y034400D03*
X020317Y034656D03*
X021183Y034656D03*
X021183Y034144D03*
D26*
X017317Y033200D03*
X016883Y033200D03*
X016883Y028800D03*
X017317Y028800D03*
D27*
X018150Y033250D03*
X018150Y033750D03*
D28*
X023083Y033362D02*
X023475Y033362D01*
X023475Y032575D02*
X023083Y032575D01*
X023083Y031787D02*
X023475Y031787D01*
X023475Y031000D02*
X023083Y031000D01*
X023083Y030213D02*
X023475Y030213D01*
X023475Y029425D02*
X023083Y029425D01*
X023083Y028638D02*
X023475Y028638D01*
X023475Y027850D02*
X023083Y027850D01*
X023083Y027063D02*
X023475Y027063D01*
X024263Y026275D02*
X024263Y025883D01*
X025051Y025883D02*
X025051Y026275D01*
X025838Y026275D02*
X025838Y025883D01*
X026626Y025883D02*
X026626Y026275D01*
X027413Y026275D02*
X027413Y025883D01*
X028200Y025883D02*
X028200Y026275D01*
X028988Y026275D02*
X028988Y025883D01*
X029775Y025883D02*
X029775Y026275D01*
X030563Y026275D02*
X030563Y025883D01*
X031350Y025883D02*
X031350Y026275D01*
X032137Y026275D02*
X032137Y025883D01*
X032925Y025883D02*
X032925Y026275D01*
X033712Y026275D02*
X033712Y025883D01*
X034500Y025883D02*
X034500Y026275D01*
X035287Y026275D02*
X035287Y025883D01*
X036074Y025883D02*
X036074Y026275D01*
X036862Y026275D02*
X036862Y025883D01*
X037649Y025883D02*
X037649Y026275D01*
X038437Y026275D02*
X038437Y025883D01*
X039225Y027063D02*
X039617Y027063D01*
X039617Y027850D02*
X039225Y027850D01*
X039225Y028638D02*
X039617Y028638D01*
X039617Y029425D02*
X039225Y029425D01*
X039225Y030213D02*
X039617Y030213D01*
X039617Y031000D02*
X039225Y031000D01*
X039225Y031787D02*
X039617Y031787D01*
X039617Y032575D02*
X039225Y032575D01*
X039225Y033362D02*
X039617Y033362D01*
X039617Y034150D02*
X039225Y034150D01*
X039225Y034937D02*
X039617Y034937D01*
X038437Y035725D02*
X038437Y036117D01*
X037649Y036117D02*
X037649Y035725D01*
X036862Y035725D02*
X036862Y036117D01*
X036074Y036117D02*
X036074Y035725D01*
X035287Y035725D02*
X035287Y036117D01*
X034500Y036117D02*
X034500Y035725D01*
X033712Y035725D02*
X033712Y036117D01*
X032925Y036117D02*
X032925Y035725D01*
X032137Y035725D02*
X032137Y036117D01*
X031350Y036117D02*
X031350Y035725D01*
X030563Y035725D02*
X030563Y036117D01*
X029775Y036117D02*
X029775Y035725D01*
X028988Y035725D02*
X028988Y036117D01*
X028200Y036117D02*
X028200Y035725D01*
X027413Y035725D02*
X027413Y036117D01*
X026626Y036117D02*
X026626Y035725D01*
X025838Y035725D02*
X025838Y036117D01*
X025051Y036117D02*
X025051Y035725D01*
X024263Y035725D02*
X024263Y036117D01*
X023475Y034937D02*
X023083Y034937D01*
X023083Y034150D02*
X023475Y034150D01*
D29*
X018124Y031512D03*
X018124Y031256D03*
X018124Y031000D03*
X018124Y030744D03*
X018124Y030488D03*
D30*
X017071Y030528D03*
X017071Y031472D03*
X017071Y032555D03*
X017071Y029445D03*
D31*
X017460Y033991D03*
X017460Y035309D03*
D32*
X016850Y035556D03*
X016850Y033744D03*
D33*
X041957Y034531D03*
X042327Y035220D03*
M02*
