G75*
%MOIN*%
%OFA0B0*%
%FSLAX24Y24*%
%IPPOS*%
%LPD*%
%AMOC8*
5,1,8,0,0,1.08239X$1,22.5*
%
%ADD10C,0.0000*%
%ADD11R,0.1083X0.1083*%
%ADD12R,0.0276X0.0098*%
%ADD13R,0.0098X0.0276*%
%ADD14R,0.0276X0.0394*%
%ADD15R,0.0276X0.0236*%
%ADD16R,0.0200X0.0200*%
%ADD17R,0.0098X0.0236*%
%ADD18C,0.0001*%
%ADD19R,0.0335X0.0787*%
%ADD20R,0.0400X0.0600*%
%ADD21R,0.0250X0.0350*%
%ADD22R,0.0700X0.0450*%
%ADD23R,0.0709X0.0551*%
%ADD24R,0.0600X0.0400*%
%ADD25R,0.0394X0.0157*%
%ADD26R,0.0276X0.0197*%
%ADD27R,0.0350X0.0250*%
%ADD28C,0.0400*%
%ADD29C,0.0394*%
%ADD30C,0.0197*%
%ADD31R,0.0531X0.0157*%
%ADD32R,0.0748X0.0748*%
%ADD33R,0.0740X0.0740*%
%ADD34C,0.0740*%
%ADD35R,0.0512X0.0453*%
%ADD36R,0.0472X0.0354*%
%ADD37C,0.0197*%
%ADD38R,0.0197X0.0197*%
%ADD39R,0.0472X0.0236*%
%ADD40C,0.0100*%
%ADD41C,0.0080*%
%ADD42C,0.0260*%
%ADD43C,0.0180*%
%ADD44C,0.0145*%
%ADD45C,0.0300*%
%ADD46C,0.0200*%
%ADD47C,0.0240*%
%ADD48C,0.0400*%
%ADD49C,0.0150*%
D10*
X016500Y024500D02*
X016500Y037500D01*
X044500Y037500D01*
X044500Y024500D01*
X016500Y024500D01*
X019856Y028537D02*
X019856Y028783D01*
X019905Y028832D01*
X019954Y028832D01*
X019954Y028537D01*
X019856Y028537D01*
X017809Y030213D02*
X017811Y030233D01*
X017817Y030253D01*
X017826Y030271D01*
X017839Y030288D01*
X017854Y030301D01*
X017872Y030311D01*
X017892Y030318D01*
X017912Y030321D01*
X017932Y030320D01*
X017952Y030315D01*
X017971Y030307D01*
X017988Y030295D01*
X018002Y030280D01*
X018013Y030262D01*
X018021Y030243D01*
X018025Y030223D01*
X018025Y030203D01*
X018021Y030183D01*
X018013Y030164D01*
X018002Y030146D01*
X017988Y030131D01*
X017971Y030119D01*
X017952Y030111D01*
X017932Y030106D01*
X017912Y030105D01*
X017892Y030108D01*
X017872Y030115D01*
X017854Y030125D01*
X017839Y030138D01*
X017826Y030155D01*
X017817Y030173D01*
X017811Y030193D01*
X017809Y030213D01*
X017809Y031787D02*
X017811Y031807D01*
X017817Y031827D01*
X017826Y031845D01*
X017839Y031862D01*
X017854Y031875D01*
X017872Y031885D01*
X017892Y031892D01*
X017912Y031895D01*
X017932Y031894D01*
X017952Y031889D01*
X017971Y031881D01*
X017988Y031869D01*
X018002Y031854D01*
X018013Y031836D01*
X018021Y031817D01*
X018025Y031797D01*
X018025Y031777D01*
X018021Y031757D01*
X018013Y031738D01*
X018002Y031720D01*
X017988Y031705D01*
X017971Y031693D01*
X017952Y031685D01*
X017932Y031680D01*
X017912Y031679D01*
X017892Y031682D01*
X017872Y031689D01*
X017854Y031699D01*
X017839Y031712D01*
X017826Y031729D01*
X017817Y031747D01*
X017811Y031767D01*
X017809Y031787D01*
X016693Y034315D02*
X016695Y034340D01*
X016701Y034364D01*
X016710Y034386D01*
X016723Y034407D01*
X016739Y034426D01*
X016758Y034442D01*
X016779Y034455D01*
X016801Y034464D01*
X016825Y034470D01*
X016850Y034472D01*
X016875Y034470D01*
X016899Y034464D01*
X016921Y034455D01*
X016942Y034442D01*
X016961Y034426D01*
X016977Y034407D01*
X016990Y034386D01*
X016999Y034364D01*
X017005Y034340D01*
X017007Y034315D01*
X017005Y034290D01*
X016999Y034266D01*
X016990Y034244D01*
X016977Y034223D01*
X016961Y034204D01*
X016942Y034188D01*
X016921Y034175D01*
X016899Y034166D01*
X016875Y034160D01*
X016850Y034158D01*
X016825Y034160D01*
X016801Y034166D01*
X016779Y034175D01*
X016758Y034188D01*
X016739Y034204D01*
X016723Y034223D01*
X016710Y034244D01*
X016701Y034266D01*
X016695Y034290D01*
X016693Y034315D01*
X016693Y034985D02*
X016695Y035010D01*
X016701Y035034D01*
X016710Y035056D01*
X016723Y035077D01*
X016739Y035096D01*
X016758Y035112D01*
X016779Y035125D01*
X016801Y035134D01*
X016825Y035140D01*
X016850Y035142D01*
X016875Y035140D01*
X016899Y035134D01*
X016921Y035125D01*
X016942Y035112D01*
X016961Y035096D01*
X016977Y035077D01*
X016990Y035056D01*
X016999Y035034D01*
X017005Y035010D01*
X017007Y034985D01*
X017005Y034960D01*
X016999Y034936D01*
X016990Y034914D01*
X016977Y034893D01*
X016961Y034874D01*
X016942Y034858D01*
X016921Y034845D01*
X016899Y034836D01*
X016875Y034830D01*
X016850Y034828D01*
X016825Y034830D01*
X016801Y034836D01*
X016779Y034845D01*
X016758Y034858D01*
X016739Y034874D01*
X016723Y034893D01*
X016710Y034914D01*
X016701Y034936D01*
X016695Y034960D01*
X016693Y034985D01*
X018370Y035700D02*
X018372Y035750D01*
X018378Y035800D01*
X018388Y035849D01*
X018402Y035897D01*
X018419Y035944D01*
X018440Y035989D01*
X018465Y036033D01*
X018493Y036074D01*
X018525Y036113D01*
X018559Y036150D01*
X018596Y036184D01*
X018636Y036214D01*
X018678Y036241D01*
X018722Y036265D01*
X018768Y036286D01*
X018815Y036302D01*
X018863Y036315D01*
X018913Y036324D01*
X018962Y036329D01*
X019013Y036330D01*
X019063Y036327D01*
X019112Y036320D01*
X019161Y036309D01*
X019209Y036294D01*
X019255Y036276D01*
X019300Y036254D01*
X019343Y036228D01*
X019384Y036199D01*
X019423Y036167D01*
X019459Y036132D01*
X019491Y036094D01*
X019521Y036054D01*
X019548Y036011D01*
X019571Y035967D01*
X019590Y035921D01*
X019606Y035873D01*
X019618Y035824D01*
X019626Y035775D01*
X019630Y035725D01*
X019630Y035675D01*
X019626Y035625D01*
X019618Y035576D01*
X019606Y035527D01*
X019590Y035479D01*
X019571Y035433D01*
X019548Y035389D01*
X019521Y035346D01*
X019491Y035306D01*
X019459Y035268D01*
X019423Y035233D01*
X019384Y035201D01*
X019343Y035172D01*
X019300Y035146D01*
X019255Y035124D01*
X019209Y035106D01*
X019161Y035091D01*
X019112Y035080D01*
X019063Y035073D01*
X019013Y035070D01*
X018962Y035071D01*
X018913Y035076D01*
X018863Y035085D01*
X018815Y035098D01*
X018768Y035114D01*
X018722Y035135D01*
X018678Y035159D01*
X018636Y035186D01*
X018596Y035216D01*
X018559Y035250D01*
X018525Y035287D01*
X018493Y035326D01*
X018465Y035367D01*
X018440Y035411D01*
X018419Y035456D01*
X018402Y035503D01*
X018388Y035551D01*
X018378Y035600D01*
X018372Y035650D01*
X018370Y035700D01*
X042705Y026862D02*
X042707Y026912D01*
X042713Y026962D01*
X042723Y027011D01*
X042737Y027059D01*
X042754Y027106D01*
X042775Y027151D01*
X042800Y027195D01*
X042828Y027236D01*
X042860Y027275D01*
X042894Y027312D01*
X042931Y027346D01*
X042971Y027376D01*
X043013Y027403D01*
X043057Y027427D01*
X043103Y027448D01*
X043150Y027464D01*
X043198Y027477D01*
X043248Y027486D01*
X043297Y027491D01*
X043348Y027492D01*
X043398Y027489D01*
X043447Y027482D01*
X043496Y027471D01*
X043544Y027456D01*
X043590Y027438D01*
X043635Y027416D01*
X043678Y027390D01*
X043719Y027361D01*
X043758Y027329D01*
X043794Y027294D01*
X043826Y027256D01*
X043856Y027216D01*
X043883Y027173D01*
X043906Y027129D01*
X043925Y027083D01*
X043941Y027035D01*
X043953Y026986D01*
X043961Y026937D01*
X043965Y026887D01*
X043965Y026837D01*
X043961Y026787D01*
X043953Y026738D01*
X043941Y026689D01*
X043925Y026641D01*
X043906Y026595D01*
X043883Y026551D01*
X043856Y026508D01*
X043826Y026468D01*
X043794Y026430D01*
X043758Y026395D01*
X043719Y026363D01*
X043678Y026334D01*
X043635Y026308D01*
X043590Y026286D01*
X043544Y026268D01*
X043496Y026253D01*
X043447Y026242D01*
X043398Y026235D01*
X043348Y026232D01*
X043297Y026233D01*
X043248Y026238D01*
X043198Y026247D01*
X043150Y026260D01*
X043103Y026276D01*
X043057Y026297D01*
X043013Y026321D01*
X042971Y026348D01*
X042931Y026378D01*
X042894Y026412D01*
X042860Y026449D01*
X042828Y026488D01*
X042800Y026529D01*
X042775Y026573D01*
X042754Y026618D01*
X042737Y026665D01*
X042723Y026713D01*
X042713Y026762D01*
X042707Y026812D01*
X042705Y026862D01*
D11*
X021000Y032800D03*
D12*
X020232Y032702D03*
X020232Y032898D03*
X020232Y033095D03*
X020232Y033292D03*
X020232Y032505D03*
X020232Y032308D03*
X021768Y032308D03*
X021768Y032505D03*
X021768Y032702D03*
X021768Y032898D03*
X021768Y033095D03*
X021768Y033292D03*
D13*
X021492Y033568D03*
X021295Y033568D03*
X021098Y033568D03*
X020902Y033568D03*
X020705Y033568D03*
X020508Y033568D03*
X020508Y032032D03*
X020705Y032032D03*
X020902Y032032D03*
X021098Y032032D03*
X021295Y032032D03*
X021492Y032032D03*
X020495Y029226D03*
X020298Y029226D03*
X020102Y029226D03*
X019905Y029226D03*
X020102Y028674D03*
X020298Y028674D03*
X020495Y028674D03*
D14*
X019594Y030825D03*
D15*
X018806Y030746D03*
X018806Y031494D03*
X019594Y031494D03*
D16*
X020200Y031550D03*
X020200Y031250D03*
X020600Y031250D03*
X020600Y031550D03*
X021050Y031550D03*
X021350Y031550D03*
X021350Y031200D03*
X021050Y031200D03*
X019700Y032450D03*
X019700Y032750D03*
X021700Y034150D03*
X021700Y034450D03*
X022100Y034450D03*
X022100Y034150D03*
X022050Y034900D03*
X021750Y034900D03*
X021750Y035300D03*
X022050Y035300D03*
X021250Y035100D03*
X020950Y035100D03*
X020950Y035500D03*
X021250Y035500D03*
X021250Y035900D03*
X020950Y035900D03*
X020450Y035100D03*
X020150Y035100D03*
X022200Y033200D03*
X022200Y032900D03*
X019200Y030200D03*
X019200Y029900D03*
X018800Y029900D03*
X018800Y030200D03*
X018850Y029450D03*
X019150Y029450D03*
X019500Y029000D03*
X019500Y028700D03*
X019700Y028200D03*
X019700Y027900D03*
X020150Y027850D03*
X020450Y027850D03*
X020450Y028250D03*
X020150Y028250D03*
X020900Y027550D03*
X020900Y027250D03*
X021300Y027250D03*
X021300Y027550D03*
X019100Y026500D03*
X019100Y026200D03*
X017000Y026050D03*
X017000Y026350D03*
X017000Y026850D03*
X017000Y027150D03*
X017000Y027750D03*
X017000Y028050D03*
X021900Y029600D03*
X022200Y029600D03*
X040350Y034525D03*
X040650Y034525D03*
X041000Y034525D03*
X041000Y034225D03*
X041350Y034525D03*
X041650Y034525D03*
X042000Y034525D03*
X042000Y034225D03*
D17*
X019905Y028655D03*
D18*
X019856Y028655D02*
X019954Y028655D01*
X019954Y028656D02*
X019856Y028656D01*
X019856Y028657D02*
X019954Y028657D01*
X019954Y028658D02*
X019856Y028658D01*
X019856Y028659D02*
X019954Y028659D01*
X019954Y028660D02*
X019856Y028660D01*
X019856Y028661D02*
X019954Y028661D01*
X019954Y028662D02*
X019856Y028662D01*
X019856Y028663D02*
X019954Y028663D01*
X019954Y028664D02*
X019856Y028664D01*
X019856Y028665D02*
X019954Y028665D01*
X019954Y028666D02*
X019856Y028666D01*
X019856Y028667D02*
X019954Y028667D01*
X019954Y028668D02*
X019856Y028668D01*
X019856Y028669D02*
X019954Y028669D01*
X019954Y028670D02*
X019856Y028670D01*
X019856Y028671D02*
X019954Y028671D01*
X019954Y028672D02*
X019856Y028672D01*
X019856Y028673D02*
X019954Y028673D01*
X019954Y028674D02*
X019856Y028674D01*
X019856Y028675D02*
X019954Y028675D01*
X019954Y028676D02*
X019856Y028676D01*
X019856Y028677D02*
X019954Y028677D01*
X019954Y028678D02*
X019856Y028678D01*
X019856Y028679D02*
X019954Y028679D01*
X019954Y028680D02*
X019856Y028680D01*
X019856Y028681D02*
X019954Y028681D01*
X019954Y028682D02*
X019856Y028682D01*
X019856Y028683D02*
X019954Y028683D01*
X019954Y028684D02*
X019856Y028684D01*
X019856Y028685D02*
X019954Y028685D01*
X019954Y028686D02*
X019856Y028686D01*
X019856Y028687D02*
X019954Y028687D01*
X019954Y028688D02*
X019856Y028688D01*
X019856Y028689D02*
X019954Y028689D01*
X019954Y028690D02*
X019856Y028690D01*
X019856Y028691D02*
X019954Y028691D01*
X019954Y028692D02*
X019856Y028692D01*
X019856Y028693D02*
X019954Y028693D01*
X019954Y028694D02*
X019856Y028694D01*
X019856Y028695D02*
X019954Y028695D01*
X019954Y028696D02*
X019856Y028696D01*
X019856Y028697D02*
X019954Y028697D01*
X019954Y028698D02*
X019856Y028698D01*
X019856Y028699D02*
X019954Y028699D01*
X019954Y028700D02*
X019856Y028700D01*
X019856Y028701D02*
X019954Y028701D01*
X019954Y028702D02*
X019856Y028702D01*
X019856Y028703D02*
X019954Y028703D01*
X019954Y028704D02*
X019856Y028704D01*
X019856Y028705D02*
X019954Y028705D01*
X019954Y028706D02*
X019856Y028706D01*
X019856Y028707D02*
X019954Y028707D01*
X019954Y028708D02*
X019856Y028708D01*
X019856Y028709D02*
X019954Y028709D01*
X019954Y028710D02*
X019856Y028710D01*
X019856Y028711D02*
X019954Y028711D01*
X019954Y028712D02*
X019856Y028712D01*
X019856Y028713D02*
X019954Y028713D01*
X019954Y028714D02*
X019856Y028714D01*
X019856Y028715D02*
X019954Y028715D01*
X019954Y028716D02*
X019856Y028716D01*
X019856Y028717D02*
X019954Y028717D01*
X019954Y028718D02*
X019856Y028718D01*
X019856Y028719D02*
X019954Y028719D01*
X019954Y028720D02*
X019856Y028720D01*
X019856Y028721D02*
X019954Y028721D01*
X019954Y028722D02*
X019856Y028722D01*
X019856Y028723D02*
X019954Y028723D01*
X019954Y028724D02*
X019856Y028724D01*
X019856Y028725D02*
X019954Y028725D01*
X019954Y028726D02*
X019856Y028726D01*
X019856Y028727D02*
X019954Y028727D01*
X019954Y028728D02*
X019856Y028728D01*
X019856Y028729D02*
X019954Y028729D01*
X019954Y028730D02*
X019856Y028730D01*
X019856Y028731D02*
X019954Y028731D01*
X019954Y028732D02*
X019856Y028732D01*
X019856Y028733D02*
X019954Y028733D01*
X019954Y028734D02*
X019856Y028734D01*
X019856Y028735D02*
X019954Y028735D01*
X019954Y028736D02*
X019856Y028736D01*
X019856Y028737D02*
X019954Y028737D01*
X019954Y028738D02*
X019856Y028738D01*
X019856Y028739D02*
X019954Y028739D01*
X019954Y028740D02*
X019856Y028740D01*
X019856Y028741D02*
X019954Y028741D01*
X019954Y028742D02*
X019856Y028742D01*
X019856Y028743D02*
X019954Y028743D01*
X019954Y028744D02*
X019856Y028744D01*
X019856Y028745D02*
X019954Y028745D01*
X019954Y028746D02*
X019856Y028746D01*
X019856Y028747D02*
X019954Y028747D01*
X019954Y028748D02*
X019856Y028748D01*
X019856Y028749D02*
X019954Y028749D01*
X019954Y028750D02*
X019856Y028750D01*
X019856Y028751D02*
X019954Y028751D01*
X019954Y028752D02*
X019856Y028752D01*
X019856Y028753D02*
X019954Y028753D01*
X019954Y028754D02*
X019856Y028754D01*
X019856Y028755D02*
X019954Y028755D01*
X019954Y028756D02*
X019856Y028756D01*
X019856Y028757D02*
X019954Y028757D01*
X019954Y028758D02*
X019856Y028758D01*
X019856Y028759D02*
X019954Y028759D01*
X019954Y028760D02*
X019856Y028760D01*
X019856Y028761D02*
X019954Y028761D01*
X019954Y028762D02*
X019856Y028762D01*
X019856Y028763D02*
X019954Y028763D01*
X019954Y028764D02*
X019856Y028764D01*
X019856Y028765D02*
X019954Y028765D01*
X019954Y028766D02*
X019856Y028766D01*
X019856Y028767D02*
X019954Y028767D01*
X019954Y028768D02*
X019856Y028768D01*
X019856Y028769D02*
X019954Y028769D01*
X019954Y028770D02*
X019856Y028770D01*
X019856Y028771D02*
X019954Y028771D01*
X019954Y028772D02*
X019856Y028772D01*
X019856Y028773D02*
X019954Y028773D01*
X019954Y028774D02*
X019856Y028774D01*
X019856Y028775D02*
X019954Y028775D01*
X019954Y028776D02*
X019856Y028776D01*
X019856Y028777D02*
X019954Y028777D01*
X019954Y028778D02*
X019856Y028778D01*
X019856Y028779D02*
X019954Y028779D01*
X019954Y028780D02*
X019856Y028780D01*
X019856Y028781D02*
X019954Y028781D01*
X019954Y028782D02*
X019856Y028782D01*
X019856Y028783D02*
X019954Y028783D01*
X019954Y028784D02*
X019857Y028784D01*
X019858Y028785D02*
X019954Y028785D01*
X019954Y028786D02*
X019859Y028786D01*
X019860Y028787D02*
X019954Y028787D01*
X019954Y028788D02*
X019861Y028788D01*
X019862Y028789D02*
X019954Y028789D01*
X019954Y028790D02*
X019863Y028790D01*
X019864Y028791D02*
X019954Y028791D01*
X019954Y028792D02*
X019865Y028792D01*
X019866Y028793D02*
X019954Y028793D01*
X019954Y028794D02*
X019867Y028794D01*
X019868Y028795D02*
X019954Y028795D01*
X019954Y028796D02*
X019869Y028796D01*
X019870Y028797D02*
X019954Y028797D01*
X019954Y028798D02*
X019871Y028798D01*
X019872Y028799D02*
X019954Y028799D01*
X019954Y028800D02*
X019873Y028800D01*
X019874Y028801D02*
X019954Y028801D01*
X019954Y028802D02*
X019875Y028802D01*
X019876Y028803D02*
X019954Y028803D01*
X019954Y028804D02*
X019877Y028804D01*
X019878Y028805D02*
X019954Y028805D01*
X019954Y028806D02*
X019879Y028806D01*
X019880Y028807D02*
X019954Y028807D01*
X019954Y028808D02*
X019881Y028808D01*
X019882Y028809D02*
X019954Y028809D01*
X019954Y028810D02*
X019883Y028810D01*
X019884Y028811D02*
X019954Y028811D01*
X019954Y028812D02*
X019885Y028812D01*
X019886Y028813D02*
X019954Y028813D01*
X019954Y028814D02*
X019887Y028814D01*
X019888Y028815D02*
X019954Y028815D01*
X019954Y028816D02*
X019889Y028816D01*
X019890Y028817D02*
X019954Y028817D01*
X019954Y028818D02*
X019891Y028818D01*
X019892Y028819D02*
X019954Y028819D01*
X019954Y028820D02*
X019893Y028820D01*
X019894Y028821D02*
X019954Y028821D01*
X019954Y028822D02*
X019895Y028822D01*
X019896Y028823D02*
X019954Y028823D01*
X019954Y028824D02*
X019897Y028824D01*
X019898Y028825D02*
X019954Y028825D01*
X019954Y028826D02*
X019899Y028826D01*
X019900Y028827D02*
X019954Y028827D01*
X019954Y028828D02*
X019901Y028828D01*
X019902Y028829D02*
X019954Y028829D01*
X019954Y028830D02*
X019903Y028830D01*
X019904Y028831D02*
X019954Y028831D01*
X019954Y028832D02*
X019905Y028832D01*
X019856Y028654D02*
X019954Y028654D01*
X019954Y028653D02*
X019856Y028653D01*
X019856Y028652D02*
X019954Y028652D01*
X019954Y028651D02*
X019856Y028651D01*
X019856Y028650D02*
X019954Y028650D01*
X019954Y028649D02*
X019856Y028649D01*
X019856Y028648D02*
X019954Y028648D01*
X019954Y028647D02*
X019856Y028647D01*
X019856Y028646D02*
X019954Y028646D01*
X019954Y028645D02*
X019856Y028645D01*
X019856Y028644D02*
X019954Y028644D01*
X019954Y028643D02*
X019856Y028643D01*
X019856Y028642D02*
X019954Y028642D01*
X019954Y028641D02*
X019856Y028641D01*
X019856Y028640D02*
X019954Y028640D01*
X019954Y028639D02*
X019856Y028639D01*
X019856Y028638D02*
X019954Y028638D01*
X019954Y028637D02*
X019856Y028637D01*
X019856Y028636D02*
X019954Y028636D01*
X019954Y028635D02*
X019856Y028635D01*
X019856Y028634D02*
X019954Y028634D01*
X019954Y028633D02*
X019856Y028633D01*
X019856Y028632D02*
X019954Y028632D01*
X019954Y028631D02*
X019856Y028631D01*
X019856Y028630D02*
X019954Y028630D01*
X019954Y028629D02*
X019856Y028629D01*
X019856Y028628D02*
X019954Y028628D01*
X019954Y028627D02*
X019856Y028627D01*
X019856Y028626D02*
X019954Y028626D01*
X019954Y028625D02*
X019856Y028625D01*
X019856Y028624D02*
X019954Y028624D01*
X019954Y028623D02*
X019856Y028623D01*
X019856Y028622D02*
X019954Y028622D01*
X019954Y028621D02*
X019856Y028621D01*
X019856Y028620D02*
X019954Y028620D01*
X019954Y028619D02*
X019856Y028619D01*
X019856Y028618D02*
X019954Y028618D01*
X019954Y028617D02*
X019856Y028617D01*
X019856Y028616D02*
X019954Y028616D01*
X019954Y028615D02*
X019856Y028615D01*
X019856Y028614D02*
X019954Y028614D01*
X019954Y028613D02*
X019856Y028613D01*
X019856Y028612D02*
X019954Y028612D01*
X019954Y028611D02*
X019856Y028611D01*
X019856Y028610D02*
X019954Y028610D01*
X019954Y028609D02*
X019856Y028609D01*
X019856Y028608D02*
X019954Y028608D01*
X019954Y028607D02*
X019856Y028607D01*
X019856Y028606D02*
X019954Y028606D01*
X019954Y028605D02*
X019856Y028605D01*
X019856Y028604D02*
X019954Y028604D01*
X019954Y028603D02*
X019856Y028603D01*
X019856Y028602D02*
X019954Y028602D01*
X019954Y028601D02*
X019856Y028601D01*
X019856Y028600D02*
X019954Y028600D01*
X019954Y028599D02*
X019856Y028599D01*
X019856Y028598D02*
X019954Y028598D01*
X019954Y028597D02*
X019856Y028597D01*
X019856Y028596D02*
X019954Y028596D01*
X019954Y028595D02*
X019856Y028595D01*
X019856Y028594D02*
X019954Y028594D01*
X019954Y028593D02*
X019856Y028593D01*
X019856Y028592D02*
X019954Y028592D01*
X019954Y028591D02*
X019856Y028591D01*
X019856Y028590D02*
X019954Y028590D01*
X019954Y028589D02*
X019856Y028589D01*
X019856Y028588D02*
X019954Y028588D01*
X019954Y028587D02*
X019856Y028587D01*
X019856Y028586D02*
X019954Y028586D01*
X019954Y028585D02*
X019856Y028585D01*
X019856Y028584D02*
X019954Y028584D01*
X019954Y028583D02*
X019856Y028583D01*
X019856Y028582D02*
X019954Y028582D01*
X019954Y028581D02*
X019856Y028581D01*
X019856Y028580D02*
X019954Y028580D01*
X019954Y028579D02*
X019856Y028579D01*
X019856Y028578D02*
X019954Y028578D01*
X019954Y028577D02*
X019856Y028577D01*
X019856Y028576D02*
X019954Y028576D01*
X019954Y028575D02*
X019856Y028575D01*
X019856Y028574D02*
X019954Y028574D01*
X019954Y028573D02*
X019856Y028573D01*
X019856Y028572D02*
X019954Y028572D01*
X019954Y028571D02*
X019856Y028571D01*
X019856Y028570D02*
X019954Y028570D01*
X019954Y028569D02*
X019856Y028569D01*
X019856Y028568D02*
X019954Y028568D01*
X019954Y028567D02*
X019856Y028567D01*
X019856Y028566D02*
X019954Y028566D01*
X019954Y028565D02*
X019856Y028565D01*
X019856Y028564D02*
X019954Y028564D01*
X019954Y028563D02*
X019856Y028563D01*
X019856Y028562D02*
X019954Y028562D01*
X019954Y028561D02*
X019856Y028561D01*
X019856Y028560D02*
X019954Y028560D01*
X019954Y028559D02*
X019856Y028559D01*
X019856Y028558D02*
X019954Y028558D01*
X019954Y028557D02*
X019856Y028557D01*
X019856Y028556D02*
X019954Y028556D01*
X019954Y028555D02*
X019856Y028555D01*
X019856Y028554D02*
X019954Y028554D01*
X019954Y028553D02*
X019856Y028553D01*
X019856Y028552D02*
X019954Y028552D01*
X019954Y028551D02*
X019856Y028551D01*
X019856Y028550D02*
X019954Y028550D01*
X019954Y028549D02*
X019856Y028549D01*
X019856Y028548D02*
X019954Y028548D01*
X019954Y028547D02*
X019856Y028547D01*
X019856Y028546D02*
X019954Y028546D01*
X019954Y028545D02*
X019856Y028545D01*
X019856Y028544D02*
X019954Y028544D01*
X019954Y028543D02*
X019856Y028543D01*
X019856Y028542D02*
X019954Y028542D01*
X019954Y028541D02*
X019856Y028541D01*
X019856Y028540D02*
X019954Y028540D01*
X019954Y028539D02*
X019856Y028539D01*
X019856Y028538D02*
X019954Y028538D01*
X019954Y028537D02*
X019856Y028537D01*
D19*
X020575Y029900D03*
X021225Y029900D03*
D20*
X021050Y029000D03*
X021750Y029000D03*
X021750Y028200D03*
X021050Y028200D03*
X019950Y027250D03*
X019250Y027250D03*
D21*
X021750Y027550D03*
X022250Y027550D03*
D22*
X019050Y032550D03*
X019050Y033750D03*
D23*
X018450Y028631D03*
X018450Y027569D03*
D24*
X017600Y027550D03*
X017600Y028250D03*
D25*
X020317Y034144D03*
X020317Y034400D03*
X020317Y034656D03*
X021183Y034656D03*
X021183Y034144D03*
D26*
X017317Y033200D03*
X016883Y033200D03*
X016883Y028800D03*
X017317Y028800D03*
D27*
X018150Y033250D03*
X018150Y033750D03*
D28*
X021500Y026000D03*
X040900Y026000D03*
X041500Y035525D03*
D29*
X039617Y034937D02*
X039225Y034937D01*
X039225Y034150D02*
X039617Y034150D01*
X039617Y033362D02*
X039225Y033362D01*
X039225Y032575D02*
X039617Y032575D01*
X039617Y031787D02*
X039225Y031787D01*
X039225Y031000D02*
X039617Y031000D01*
X039617Y030213D02*
X039225Y030213D01*
X039225Y029425D02*
X039617Y029425D01*
X039617Y028638D02*
X039225Y028638D01*
X039225Y027850D02*
X039617Y027850D01*
X039617Y027063D02*
X039225Y027063D01*
X038437Y026275D02*
X038437Y025883D01*
X037649Y025883D02*
X037649Y026275D01*
X036862Y026275D02*
X036862Y025883D01*
X036074Y025883D02*
X036074Y026275D01*
X035287Y026275D02*
X035287Y025883D01*
X034500Y025883D02*
X034500Y026275D01*
X033712Y026275D02*
X033712Y025883D01*
X032925Y025883D02*
X032925Y026275D01*
X032137Y026275D02*
X032137Y025883D01*
X031350Y025883D02*
X031350Y026275D01*
X030563Y026275D02*
X030563Y025883D01*
X029775Y025883D02*
X029775Y026275D01*
X028988Y026275D02*
X028988Y025883D01*
X028200Y025883D02*
X028200Y026275D01*
X027413Y026275D02*
X027413Y025883D01*
X026626Y025883D02*
X026626Y026275D01*
X025838Y026275D02*
X025838Y025883D01*
X025051Y025883D02*
X025051Y026275D01*
X024263Y026275D02*
X024263Y025883D01*
X023475Y027063D02*
X023083Y027063D01*
X023083Y027850D02*
X023475Y027850D01*
X023475Y028638D02*
X023083Y028638D01*
X023083Y029425D02*
X023475Y029425D01*
X023475Y030213D02*
X023083Y030213D01*
X023083Y031000D02*
X023475Y031000D01*
X023475Y031787D02*
X023083Y031787D01*
X023083Y032575D02*
X023475Y032575D01*
X023475Y033362D02*
X023083Y033362D01*
X023083Y034150D02*
X023475Y034150D01*
X023475Y034937D02*
X023083Y034937D01*
X024263Y035725D02*
X024263Y036117D01*
X025051Y036117D02*
X025051Y035725D01*
X025838Y035725D02*
X025838Y036117D01*
X026626Y036117D02*
X026626Y035725D01*
X027413Y035725D02*
X027413Y036117D01*
X028200Y036117D02*
X028200Y035725D01*
X028988Y035725D02*
X028988Y036117D01*
X029775Y036117D02*
X029775Y035725D01*
X030563Y035725D02*
X030563Y036117D01*
X031350Y036117D02*
X031350Y035725D01*
X032137Y035725D02*
X032137Y036117D01*
X032925Y036117D02*
X032925Y035725D01*
X033712Y035725D02*
X033712Y036117D01*
X034500Y036117D02*
X034500Y035725D01*
X035287Y035725D02*
X035287Y036117D01*
X036074Y036117D02*
X036074Y035725D01*
X036862Y035725D02*
X036862Y036117D01*
X037649Y036117D02*
X037649Y035725D01*
X038437Y035725D02*
X038437Y036117D01*
D30*
X038500Y035500D03*
X037500Y035500D03*
X037500Y034500D03*
X038500Y034500D03*
X038750Y034300D03*
X038750Y034000D03*
X039000Y033750D03*
X039500Y033750D03*
X040050Y033900D03*
X040500Y034225D03*
X041025Y034075D03*
X041550Y034075D03*
X042125Y034125D03*
X042125Y034875D03*
X042125Y035500D03*
X042500Y035750D03*
X043000Y035750D03*
X043500Y035750D03*
X044000Y035750D03*
X044250Y036000D03*
X044250Y036500D03*
X043500Y036500D03*
X041500Y034800D03*
X041000Y034800D03*
X040500Y034800D03*
X039900Y034750D03*
X039500Y034510D03*
X039000Y034500D03*
X038500Y033500D03*
X038500Y032500D03*
X037500Y032500D03*
X037500Y033500D03*
X036500Y033500D03*
X036500Y032500D03*
X035500Y032500D03*
X035500Y033500D03*
X034500Y033500D03*
X034500Y032500D03*
X034500Y031500D03*
X035500Y031500D03*
X036500Y031500D03*
X036500Y030500D03*
X035500Y030500D03*
X034500Y030500D03*
X034500Y029500D03*
X035500Y029500D03*
X036500Y029500D03*
X036500Y028500D03*
X035500Y028500D03*
X034500Y028500D03*
X033500Y027500D03*
X032500Y027500D03*
X031500Y027500D03*
X031500Y028500D03*
X032500Y028500D03*
X031500Y029500D03*
X030500Y029500D03*
X029500Y029500D03*
X029500Y028500D03*
X030500Y028500D03*
X030500Y027500D03*
X029500Y027500D03*
X029500Y026500D03*
X028500Y026500D03*
X027500Y026500D03*
X026600Y026600D03*
X025800Y026600D03*
X025050Y026600D03*
X024250Y026600D03*
X024000Y026800D03*
X023850Y027050D03*
X024500Y027500D03*
X025500Y027500D03*
X025500Y028500D03*
X024500Y028500D03*
X023700Y028650D03*
X023400Y029450D03*
X022000Y029000D03*
X021750Y029350D03*
X021900Y029750D03*
X020600Y029200D03*
X020300Y028900D03*
X019150Y029650D03*
X018800Y029800D03*
X018750Y029350D03*
X018400Y029350D03*
X017700Y029000D03*
X017600Y028500D03*
X017250Y028200D03*
X017600Y028000D03*
X017950Y028200D03*
X016800Y028050D03*
X016700Y028800D03*
X017700Y029750D03*
X019000Y030250D03*
X019300Y030200D03*
X019600Y030050D03*
X019400Y030850D03*
X019600Y031080D03*
X019800Y030850D03*
X020200Y031050D03*
X020000Y031250D03*
X020400Y031250D03*
X019900Y031850D03*
X020050Y032100D03*
X019600Y032030D03*
X019600Y031670D03*
X018370Y031560D03*
X018370Y031860D03*
X018380Y032160D03*
X019400Y032950D03*
X019750Y033300D03*
X019750Y033600D03*
X019750Y033900D03*
X019750Y034200D03*
X019350Y034050D03*
X019450Y033750D03*
X018650Y033750D03*
X018050Y034250D03*
X018850Y034550D03*
X020050Y034950D03*
X020750Y034750D03*
X020850Y035650D03*
X020000Y035750D03*
X020500Y036500D03*
X021500Y036500D03*
X022200Y034900D03*
X023050Y034550D03*
X023750Y034150D03*
X024300Y034350D03*
X023800Y034850D03*
X024300Y035400D03*
X025000Y035450D03*
X025500Y035500D03*
X025850Y035450D03*
X026650Y035450D03*
X027450Y035450D03*
X028200Y035450D03*
X029000Y035450D03*
X029800Y035450D03*
X030600Y035450D03*
X030500Y034500D03*
X029500Y034500D03*
X029500Y033500D03*
X029500Y032500D03*
X030500Y032500D03*
X030500Y033500D03*
X031500Y033500D03*
X031500Y032500D03*
X032500Y032500D03*
X032500Y033500D03*
X033500Y033500D03*
X033500Y032500D03*
X033500Y031500D03*
X032500Y031500D03*
X031500Y031500D03*
X030500Y030500D03*
X029500Y030500D03*
X028500Y030500D03*
X027500Y030500D03*
X026500Y030500D03*
X026500Y029500D03*
X027500Y029500D03*
X028500Y029500D03*
X028500Y028500D03*
X027500Y028500D03*
X026500Y028500D03*
X026500Y027500D03*
X027500Y027500D03*
X028500Y027500D03*
X031000Y026500D03*
X032500Y026500D03*
X035000Y026900D03*
X035500Y027500D03*
X036500Y027500D03*
X036500Y026500D03*
X036500Y025500D03*
X037500Y025500D03*
X038500Y025500D03*
X039500Y025500D03*
X040500Y026500D03*
X041500Y026500D03*
X041500Y025500D03*
X042500Y026500D03*
X042500Y027500D03*
X042125Y027500D03*
X042125Y028000D03*
X042125Y028500D03*
X042125Y029000D03*
X042125Y029500D03*
X042125Y030000D03*
X042125Y030500D03*
X042125Y031000D03*
X042125Y031500D03*
X042125Y032000D03*
X042125Y032500D03*
X042125Y033000D03*
X042125Y033500D03*
X041500Y033500D03*
X041500Y032500D03*
X040500Y032500D03*
X040500Y033500D03*
X040500Y031500D03*
X041500Y031500D03*
X041500Y030500D03*
X040500Y030500D03*
X040500Y029500D03*
X041500Y029500D03*
X041500Y028500D03*
X040500Y027500D03*
X038500Y028500D03*
X037500Y028500D03*
X037500Y027500D03*
X037500Y029500D03*
X038500Y029500D03*
X038500Y030500D03*
X038850Y031000D03*
X038850Y031800D03*
X037800Y031750D03*
X037500Y031500D03*
X037500Y030500D03*
X033500Y030500D03*
X032500Y030500D03*
X033500Y029500D03*
X028500Y032500D03*
X028500Y033500D03*
X027500Y033500D03*
X027500Y032500D03*
X026500Y032500D03*
X026500Y033500D03*
X026500Y034500D03*
X027500Y034500D03*
X028500Y034500D03*
X025500Y034500D03*
X025500Y033500D03*
X025500Y032500D03*
X024500Y032500D03*
X024500Y033500D03*
X023250Y033150D03*
X022200Y033350D03*
X022150Y032500D03*
X022150Y032200D03*
X022150Y031900D03*
X022150Y031600D03*
X022750Y031790D03*
X023300Y032200D03*
X024100Y031300D03*
X024500Y030500D03*
X025500Y030500D03*
X025500Y029500D03*
X024500Y029500D03*
X022000Y028200D03*
X021750Y028600D03*
X021900Y027550D03*
X021600Y027550D03*
X021100Y027300D03*
X020750Y027300D03*
X020200Y027350D03*
X019950Y027600D03*
X019850Y027900D03*
X019550Y027900D03*
X019700Y027350D03*
X019250Y026850D03*
X018850Y026850D03*
X019300Y026250D03*
X019100Y026050D03*
X017850Y026500D03*
X017200Y026600D03*
X022050Y026350D03*
X023150Y026600D03*
X024500Y025500D03*
X025500Y025500D03*
X021500Y030500D03*
X021300Y031000D03*
X021350Y031350D03*
X021000Y032800D03*
X020470Y033100D03*
X019960Y032920D03*
X019960Y032660D03*
X021300Y033800D03*
X021400Y034100D03*
X023500Y036500D03*
X018500Y036500D03*
X017000Y036200D03*
X017150Y034650D03*
X016700Y033200D03*
X017800Y030500D03*
X018550Y030730D03*
X031500Y034500D03*
X032500Y034500D03*
X033500Y034500D03*
X033750Y035450D03*
X034500Y035450D03*
X035300Y035450D03*
X036500Y035500D03*
X036500Y034500D03*
X035500Y034500D03*
X034500Y034500D03*
X032950Y035450D03*
X032500Y035500D03*
X032150Y035450D03*
X039500Y035500D03*
X040500Y035500D03*
X044000Y027500D03*
X044250Y027000D03*
X044250Y026500D03*
X044250Y026000D03*
X044250Y025500D03*
X043500Y025500D03*
D31*
X018124Y030488D03*
X018124Y030744D03*
X018124Y031000D03*
X018124Y031256D03*
X018124Y031512D03*
D32*
X017071Y031472D03*
X017071Y030528D03*
X017071Y029445D03*
X017071Y032555D03*
D33*
X017000Y037000D03*
X017000Y025000D03*
D34*
X018000Y025000D03*
X019000Y025000D03*
X020000Y025000D03*
X021000Y025000D03*
X022000Y025000D03*
X023000Y025000D03*
X024000Y025000D03*
X025000Y025000D03*
X026000Y025000D03*
X027000Y025000D03*
X028000Y025000D03*
X029000Y025000D03*
X030000Y025000D03*
X031000Y025000D03*
X032000Y025000D03*
X033000Y025000D03*
X034000Y025000D03*
X035000Y025000D03*
X036000Y025000D03*
X037000Y025000D03*
X038000Y025000D03*
X039000Y025000D03*
X040000Y025000D03*
X041000Y025000D03*
X042000Y025000D03*
X043000Y025000D03*
X044000Y025000D03*
X044000Y037000D03*
X043000Y037000D03*
X042000Y037000D03*
X041000Y037000D03*
X040000Y037000D03*
X039000Y037000D03*
X038000Y037000D03*
X037000Y037000D03*
X036000Y037000D03*
X035000Y037000D03*
X034000Y037000D03*
X033000Y037000D03*
X032000Y037000D03*
X031000Y037000D03*
X030000Y037000D03*
X029000Y037000D03*
X028000Y037000D03*
X027000Y037000D03*
X026000Y037000D03*
X025000Y037000D03*
X024000Y037000D03*
X023000Y037000D03*
X022000Y037000D03*
X021000Y037000D03*
X020000Y037000D03*
X019000Y037000D03*
X018000Y037000D03*
D35*
X017460Y035309D03*
X017460Y033991D03*
D36*
X016850Y033744D03*
X016850Y035556D03*
D37*
X041988Y034531D02*
X043862Y034531D01*
X043961Y035220D02*
X043961Y033665D01*
X042921Y033665D01*
X042921Y032681D01*
X043961Y032681D01*
X043961Y031814D01*
X042921Y031814D01*
X042921Y030830D01*
X043961Y030830D01*
X043961Y030829D02*
X043961Y029975D01*
X043961Y029964D02*
X042583Y029964D01*
X042327Y035220D02*
X043953Y035220D01*
D38*
X042327Y035220D03*
X041957Y034531D03*
D39*
X018562Y026874D03*
X018562Y026500D03*
X018562Y026126D03*
X017538Y026126D03*
X017538Y026500D03*
X017538Y026874D03*
D40*
X017884Y026822D02*
X017900Y026838D01*
X017900Y027200D01*
X018033Y027200D01*
X018050Y027183D01*
X018220Y027183D01*
X018220Y027042D01*
X018216Y027038D01*
X018216Y026710D01*
X018239Y026687D01*
X018216Y026664D01*
X018216Y026336D01*
X018239Y026313D01*
X018216Y026290D01*
X018216Y026050D01*
X017884Y026050D01*
X017884Y026290D01*
X017820Y026354D01*
X017358Y026354D01*
X017300Y026412D01*
X017212Y026500D01*
X017206Y026500D01*
X017150Y026556D01*
X017150Y026644D01*
X017204Y026698D01*
X017256Y026646D01*
X017820Y026646D01*
X017884Y026710D01*
X017884Y026822D01*
X017900Y026864D02*
X018216Y026864D01*
X018216Y026766D02*
X017884Y026766D01*
X017841Y026667D02*
X018219Y026667D01*
X018216Y026569D02*
X017150Y026569D01*
X017173Y026667D02*
X017235Y026667D01*
X017242Y026470D02*
X018216Y026470D01*
X018216Y026372D02*
X017341Y026372D01*
X016850Y026556D02*
X016790Y026496D01*
X016790Y026204D01*
X016794Y026200D01*
X016790Y026196D01*
X016790Y025904D01*
X016854Y025840D01*
X016998Y025840D01*
X017000Y025838D01*
X017088Y025750D01*
X018398Y025750D01*
X018546Y025898D01*
X018844Y025898D01*
X018908Y025962D01*
X018908Y026290D01*
X018885Y026313D01*
X018908Y026336D01*
X018908Y026336D01*
X018954Y026290D01*
X019246Y026290D01*
X019310Y026354D01*
X019310Y026642D01*
X019336Y026642D01*
X019345Y026650D01*
X019362Y026650D01*
X019450Y026738D01*
X019450Y026755D01*
X019458Y026764D01*
X019458Y026796D01*
X019462Y026800D01*
X019550Y026888D01*
X019550Y026894D01*
X019560Y026904D01*
X019560Y027596D01*
X019550Y027606D01*
X019550Y027612D01*
X019450Y027712D01*
X019450Y028490D01*
X019646Y028490D01*
X019706Y028550D01*
X019746Y028550D01*
X019746Y028491D01*
X019787Y028450D01*
X019667Y028450D01*
X019627Y028410D01*
X019554Y028410D01*
X019490Y028346D01*
X019490Y028054D01*
X019554Y027990D01*
X019846Y027990D01*
X019906Y028050D01*
X019950Y028050D01*
X019950Y028006D01*
X019940Y027996D01*
X019940Y027704D01*
X020004Y027640D01*
X020296Y027640D01*
X020300Y027644D01*
X020511Y027433D01*
X020511Y027432D01*
X020558Y027386D01*
X020604Y027340D01*
X020605Y027340D01*
X020606Y027339D01*
X020671Y027340D01*
X020736Y027340D01*
X020737Y027341D01*
X020753Y027341D01*
X020754Y027340D01*
X021046Y027340D01*
X021051Y027345D01*
X021148Y027346D01*
X021154Y027340D01*
X021358Y027340D01*
X021390Y027310D01*
X021390Y027238D01*
X021437Y027124D01*
X021524Y027037D01*
X023082Y025480D01*
X022905Y025480D01*
X022728Y025407D01*
X022593Y025272D01*
X022520Y025095D01*
X022520Y024905D01*
X022593Y024728D01*
X022673Y024648D01*
X022327Y024648D01*
X022407Y024728D01*
X022480Y024905D01*
X022480Y025095D01*
X022407Y025272D01*
X022272Y025407D01*
X022095Y025480D01*
X021905Y025480D01*
X021728Y025407D01*
X021593Y025272D01*
X021520Y025095D01*
X021520Y024905D01*
X021593Y024728D01*
X021673Y024648D01*
X021327Y024648D01*
X021407Y024728D01*
X021480Y024905D01*
X021480Y025095D01*
X021407Y025272D01*
X021272Y025407D01*
X021095Y025480D01*
X020905Y025480D01*
X020728Y025407D01*
X020593Y025272D01*
X020520Y025095D01*
X020520Y024905D01*
X020593Y024728D01*
X020673Y024648D01*
X020327Y024648D01*
X020407Y024728D01*
X020480Y024905D01*
X020480Y025095D01*
X020407Y025272D01*
X020272Y025407D01*
X020095Y025480D01*
X019905Y025480D01*
X019728Y025407D01*
X019593Y025272D01*
X019520Y025095D01*
X019520Y024905D01*
X019593Y024728D01*
X019673Y024648D01*
X019327Y024648D01*
X019407Y024728D01*
X019480Y024905D01*
X019480Y025095D01*
X019407Y025272D01*
X019272Y025407D01*
X019095Y025480D01*
X018905Y025480D01*
X018728Y025407D01*
X018593Y025272D01*
X018520Y025095D01*
X018520Y024905D01*
X018593Y024728D01*
X018673Y024648D01*
X018327Y024648D01*
X018407Y024728D01*
X018480Y024905D01*
X018480Y025095D01*
X018407Y025272D01*
X018272Y025407D01*
X018095Y025480D01*
X017905Y025480D01*
X017728Y025407D01*
X017593Y025272D01*
X017520Y025095D01*
X017520Y024905D01*
X017593Y024728D01*
X017673Y024648D01*
X016648Y024648D01*
X016648Y028964D01*
X016651Y028961D01*
X017086Y028961D01*
X017069Y028944D01*
X017069Y028656D01*
X017133Y028592D01*
X017500Y028592D01*
X017564Y028656D01*
X017564Y028802D01*
X017574Y028812D01*
X017598Y028808D01*
X017614Y028792D01*
X017680Y028792D01*
X017721Y028784D01*
X017721Y028784D01*
X017721Y028784D01*
X017733Y028792D01*
X017786Y028792D01*
X017908Y028914D01*
X017908Y029086D01*
X017786Y029208D01*
X017675Y029208D01*
X017659Y029214D01*
X017659Y029214D01*
X017649Y029208D01*
X017614Y029208D01*
X017575Y029170D01*
X017555Y029159D01*
X017555Y029864D01*
X017490Y029929D01*
X017381Y029929D01*
X017381Y030044D01*
X017490Y030044D01*
X017555Y030108D01*
X017555Y030947D01*
X017502Y031000D01*
X017555Y031053D01*
X017555Y031370D01*
X017561Y031367D01*
X017588Y031340D01*
X017608Y031340D01*
X017628Y031320D01*
X017655Y031320D01*
X017678Y031308D01*
X017714Y031320D01*
X017748Y031320D01*
X017748Y031132D01*
X017752Y031128D01*
X017748Y031124D01*
X017748Y030876D01*
X017752Y030872D01*
X017748Y030868D01*
X017748Y030620D01*
X017813Y030555D01*
X018428Y030555D01*
X018463Y030520D01*
X018621Y030520D01*
X018623Y030518D01*
X018636Y030518D01*
X018550Y030432D01*
X018550Y030088D01*
X018638Y030000D01*
X018644Y030000D01*
X018654Y029990D01*
X018946Y029990D01*
X018956Y030000D01*
X019044Y030000D01*
X019054Y029990D01*
X019248Y029990D01*
X019300Y029938D01*
X019300Y029812D01*
X019288Y029800D01*
X019200Y029712D01*
X019200Y029457D01*
X019100Y029345D01*
X019100Y029562D01*
X019012Y029650D01*
X019006Y029650D01*
X018996Y029660D01*
X018704Y029660D01*
X018694Y029650D01*
X018038Y029650D01*
X017950Y029562D01*
X017950Y028288D01*
X018038Y028200D01*
X018791Y028200D01*
X018788Y027954D01*
X018050Y027954D01*
X018046Y027950D01*
X017156Y027950D01*
X017146Y027960D01*
X016854Y027960D01*
X016790Y027896D01*
X016790Y027604D01*
X016800Y027594D01*
X016800Y027306D01*
X016790Y027296D01*
X016790Y027004D01*
X016794Y027000D01*
X016790Y026996D01*
X016790Y026704D01*
X016850Y026644D01*
X016850Y026556D01*
X016850Y026569D02*
X016648Y026569D01*
X016648Y026667D02*
X016827Y026667D01*
X016790Y026766D02*
X016648Y026766D01*
X016648Y026864D02*
X016790Y026864D01*
X016790Y026963D02*
X016648Y026963D01*
X016648Y027061D02*
X016790Y027061D01*
X016790Y027160D02*
X016648Y027160D01*
X016648Y027258D02*
X016790Y027258D01*
X016800Y027357D02*
X016648Y027357D01*
X016648Y027455D02*
X016800Y027455D01*
X016800Y027554D02*
X016648Y027554D01*
X016648Y027652D02*
X016790Y027652D01*
X016790Y027751D02*
X016648Y027751D01*
X016648Y027849D02*
X016790Y027849D01*
X016842Y027948D02*
X016648Y027948D01*
X016648Y028046D02*
X018789Y028046D01*
X018791Y028145D02*
X016648Y028145D01*
X016648Y028243D02*
X017995Y028243D01*
X017950Y028342D02*
X016648Y028342D01*
X016648Y028440D02*
X017950Y028440D01*
X017950Y028539D02*
X016648Y028539D01*
X016648Y028637D02*
X017088Y028637D01*
X017069Y028736D02*
X016648Y028736D01*
X016648Y028834D02*
X017069Y028834D01*
X017069Y028933D02*
X016648Y028933D01*
X017564Y028736D02*
X017950Y028736D01*
X017950Y028834D02*
X017829Y028834D01*
X017908Y028933D02*
X017950Y028933D01*
X017950Y029031D02*
X017908Y029031D01*
X017865Y029130D02*
X017950Y029130D01*
X017950Y029228D02*
X017555Y029228D01*
X017555Y029327D02*
X017950Y029327D01*
X017950Y029425D02*
X017555Y029425D01*
X017555Y029524D02*
X017950Y029524D01*
X018010Y029622D02*
X017555Y029622D01*
X017555Y029721D02*
X019208Y029721D01*
X019200Y029622D02*
X019040Y029622D01*
X019100Y029524D02*
X019200Y029524D01*
X019172Y029425D02*
X019100Y029425D01*
X019300Y029819D02*
X017555Y029819D01*
X017502Y029918D02*
X019300Y029918D01*
X018622Y030016D02*
X018084Y030016D01*
X018063Y029995D02*
X018135Y030067D01*
X018174Y030162D01*
X018174Y030264D01*
X018135Y030358D01*
X018063Y030430D01*
X017968Y030469D01*
X017866Y030469D01*
X017772Y030430D01*
X017700Y030358D01*
X017661Y030264D01*
X017661Y030162D01*
X017700Y030067D01*
X017772Y029995D01*
X017866Y029956D01*
X017968Y029956D01*
X018063Y029995D01*
X018155Y030115D02*
X018550Y030115D01*
X018550Y030213D02*
X018174Y030213D01*
X018154Y030312D02*
X018550Y030312D01*
X018550Y030410D02*
X018083Y030410D01*
X017752Y030410D02*
X017555Y030410D01*
X017555Y030312D02*
X017680Y030312D01*
X017661Y030213D02*
X017555Y030213D01*
X017555Y030115D02*
X017680Y030115D01*
X017751Y030016D02*
X017381Y030016D01*
X017555Y030509D02*
X018626Y030509D01*
X018862Y030974D02*
X018906Y031018D01*
X019266Y031018D01*
X019514Y031266D01*
X019777Y031266D01*
X019841Y031330D01*
X019841Y031658D01*
X019818Y031682D01*
X019820Y031694D01*
X019808Y031713D01*
X019808Y031756D01*
X019743Y031822D01*
X019742Y031823D01*
X019742Y031823D01*
X019742Y031823D01*
X019742Y031823D01*
X019715Y031850D01*
X019737Y031872D01*
X019785Y031908D01*
X019787Y031922D01*
X019808Y031944D01*
X019808Y032116D01*
X019686Y032238D01*
X019514Y032238D01*
X019492Y032217D01*
X019478Y032215D01*
X019478Y032215D01*
X019478Y032215D01*
X019442Y032167D01*
X019392Y032116D01*
X019392Y032099D01*
X019344Y032035D01*
X019305Y032006D01*
X019303Y031991D01*
X019224Y031912D01*
X019118Y031806D01*
X019118Y031696D01*
X019098Y031677D01*
X019035Y031677D01*
X018990Y031722D01*
X018750Y031722D01*
X018750Y032215D01*
X019446Y032215D01*
X019510Y032279D01*
X019510Y032284D01*
X019554Y032240D01*
X019800Y032240D01*
X019800Y032138D01*
X019842Y032096D01*
X019842Y032014D01*
X019964Y031892D01*
X020136Y031892D01*
X020150Y031905D01*
X020150Y031760D01*
X020054Y031760D01*
X019990Y031696D01*
X019990Y031404D01*
X020054Y031340D01*
X020346Y031340D01*
X020400Y031394D01*
X020454Y031340D01*
X020746Y031340D01*
X020810Y031404D01*
X020810Y031482D01*
X020840Y031452D01*
X020840Y031287D01*
X020223Y030670D01*
X019477Y030670D01*
X019310Y030837D01*
X019187Y030960D01*
X019004Y030960D01*
X018990Y030974D01*
X018862Y030974D01*
X018889Y031001D02*
X020554Y031001D01*
X020456Y030903D02*
X019244Y030903D01*
X019343Y030804D02*
X020357Y030804D01*
X020259Y030706D02*
X019441Y030706D01*
X019348Y031100D02*
X020653Y031100D01*
X020751Y031198D02*
X019446Y031198D01*
X019808Y031297D02*
X020840Y031297D01*
X020840Y031395D02*
X020801Y031395D01*
X020600Y031250D02*
X020200Y031250D01*
X019999Y031395D02*
X019841Y031395D01*
X019841Y031494D02*
X019990Y031494D01*
X019990Y031592D02*
X019841Y031592D01*
X019820Y031691D02*
X019990Y031691D01*
X019820Y031694D02*
X019820Y031694D01*
X019820Y031694D01*
X019776Y031789D02*
X020150Y031789D01*
X020150Y031888D02*
X019758Y031888D01*
X019785Y031908D02*
X019785Y031908D01*
X019785Y031908D01*
X019808Y031986D02*
X019869Y031986D01*
X019842Y032085D02*
X019808Y032085D01*
X019800Y032183D02*
X019742Y032183D01*
X019513Y032282D02*
X019510Y032282D01*
X019454Y032183D02*
X018750Y032183D01*
X018750Y032085D02*
X019381Y032085D01*
X019298Y031986D02*
X018750Y031986D01*
X018750Y031888D02*
X019199Y031888D01*
X019118Y031789D02*
X018750Y031789D01*
X019021Y031691D02*
X019112Y031691D01*
X020480Y032280D02*
X020480Y032403D01*
X020476Y032406D01*
X020480Y032410D01*
X020480Y032600D01*
X020476Y032603D01*
X020480Y032607D01*
X020480Y032796D01*
X020476Y032800D01*
X020480Y032804D01*
X020480Y032993D01*
X020416Y033058D01*
X020299Y033058D01*
X020299Y033058D01*
X020297Y033060D01*
X020186Y033060D01*
X020177Y033067D01*
X020156Y033064D01*
X020102Y033086D01*
X020102Y033086D01*
X020079Y033096D01*
X020046Y033128D01*
X020002Y033128D01*
X019980Y033138D01*
X019957Y033128D01*
X019874Y033128D01*
X019752Y033006D01*
X019752Y032834D01*
X019795Y032790D01*
X019752Y032746D01*
X019752Y032660D01*
X019554Y032660D01*
X019510Y032616D01*
X019510Y032821D01*
X019446Y032885D01*
X018772Y032885D01*
X018712Y032910D01*
X017555Y032910D01*
X017555Y032975D01*
X017519Y033011D01*
X017558Y033050D01*
X017894Y033050D01*
X017929Y033015D01*
X018371Y033015D01*
X018435Y033079D01*
X018435Y033421D01*
X018371Y033485D01*
X017929Y033485D01*
X017865Y033421D01*
X017865Y033350D01*
X017558Y033350D01*
X017500Y033408D01*
X017133Y033408D01*
X017069Y033344D01*
X017069Y033056D01*
X017086Y033039D01*
X016651Y033039D01*
X016648Y033036D01*
X016648Y034084D01*
X016677Y034056D01*
X016789Y034009D01*
X016911Y034009D01*
X017023Y034056D01*
X017094Y034127D01*
X017094Y033719D01*
X017159Y033654D01*
X017762Y033654D01*
X017826Y033719D01*
X017826Y034262D01*
X017762Y034327D01*
X017600Y034327D01*
X017600Y034338D01*
X017862Y034600D01*
X018642Y034600D01*
X018642Y034598D01*
X018612Y034537D01*
X018604Y034533D01*
X018594Y034507D01*
X018088Y034000D01*
X018073Y033985D01*
X017929Y033985D01*
X017865Y033921D01*
X017865Y033579D01*
X017929Y033515D01*
X018371Y033515D01*
X018435Y033579D01*
X018435Y033921D01*
X018434Y033922D01*
X018807Y034294D01*
X018833Y034304D01*
X018837Y034312D01*
X018898Y034342D01*
X018936Y034342D01*
X018972Y034378D01*
X018996Y034389D01*
X018996Y034389D01*
X018996Y034389D01*
X019003Y034408D01*
X019058Y034464D01*
X019058Y034600D01*
X019512Y034600D01*
X019600Y034688D01*
X020062Y035150D01*
X020200Y035150D01*
X020200Y034845D01*
X020075Y034845D01*
X020010Y034780D01*
X020010Y034532D01*
X020014Y034528D01*
X020010Y034524D01*
X020010Y034276D01*
X020075Y034211D01*
X020477Y034211D01*
X020578Y034110D01*
X020052Y034110D01*
X019958Y034204D01*
X019958Y034286D01*
X019836Y034408D01*
X019664Y034408D01*
X019542Y034286D01*
X019542Y034114D01*
X019605Y034050D01*
X019542Y033986D01*
X019542Y033814D01*
X019605Y033750D01*
X019542Y033686D01*
X019542Y033514D01*
X019605Y033450D01*
X019542Y033386D01*
X019542Y033214D01*
X019664Y033092D01*
X019836Y033092D01*
X019887Y033142D01*
X020040Y033142D01*
X020049Y033133D01*
X020416Y033133D01*
X020480Y033197D01*
X020480Y033320D01*
X020603Y033320D01*
X020606Y033324D01*
X020610Y033320D01*
X020800Y033320D01*
X020803Y033324D01*
X020807Y033320D01*
X020996Y033320D01*
X021000Y033324D01*
X021004Y033320D01*
X021193Y033320D01*
X021197Y033324D01*
X021200Y033320D01*
X021390Y033320D01*
X021394Y033324D01*
X021397Y033320D01*
X021520Y033320D01*
X021520Y033197D01*
X021524Y033194D01*
X021520Y033190D01*
X021520Y033000D01*
X021524Y032997D01*
X021520Y032993D01*
X021520Y032804D01*
X021524Y032800D01*
X021520Y032796D01*
X021520Y032607D01*
X021524Y032603D01*
X021520Y032600D01*
X021520Y032410D01*
X021524Y032406D01*
X021520Y032403D01*
X021520Y032280D01*
X021397Y032280D01*
X021394Y032276D01*
X021390Y032280D01*
X021200Y032280D01*
X021197Y032276D01*
X021193Y032280D01*
X021004Y032280D01*
X021000Y032276D01*
X020996Y032280D01*
X020807Y032280D01*
X020803Y032276D01*
X020800Y032280D01*
X020681Y032280D01*
X020652Y032292D01*
X020548Y032292D01*
X020519Y032280D01*
X020480Y032280D01*
X020480Y032282D02*
X020522Y032282D01*
X020480Y032380D02*
X021520Y032380D01*
X021520Y032282D02*
X020678Y032282D01*
X020705Y032032D02*
X020600Y032032D01*
X020508Y032032D01*
X020480Y032479D02*
X021520Y032479D01*
X021520Y032577D02*
X020480Y032577D01*
X020480Y032676D02*
X021520Y032676D01*
X021520Y032774D02*
X020480Y032774D01*
X020480Y032873D02*
X021520Y032873D01*
X021520Y032971D02*
X020480Y032971D01*
X020483Y033053D02*
X020470Y033100D01*
X020483Y033147D01*
X020647Y033100D01*
X020483Y033053D01*
X020457Y033053D02*
X020470Y033100D01*
X020457Y033147D01*
X020293Y033100D01*
X020457Y033053D01*
X020470Y033100D02*
X020647Y033100D01*
X020700Y033100D01*
X020875Y032925D01*
X021024Y032842D01*
X021000Y032800D01*
X020958Y032776D01*
X020875Y032925D01*
X021000Y032800D01*
X021520Y033070D02*
X020142Y033070D01*
X020232Y033095D02*
X020237Y033100D01*
X020293Y033100D01*
X020470Y033100D01*
X020451Y033168D02*
X021520Y033168D01*
X021520Y033267D02*
X020480Y033267D01*
X020231Y032900D02*
X020232Y032898D01*
X020136Y032898D01*
X019967Y032872D01*
X019960Y032920D01*
X019979Y032965D01*
X020136Y032898D01*
X019982Y032898D01*
X019960Y032920D01*
X019815Y033070D02*
X018425Y033070D01*
X018435Y033168D02*
X019587Y033168D01*
X019542Y033267D02*
X018435Y033267D01*
X018435Y033365D02*
X019542Y033365D01*
X019592Y033464D02*
X018392Y033464D01*
X018418Y033562D02*
X019542Y033562D01*
X019542Y033661D02*
X018435Y033661D01*
X018435Y033759D02*
X019596Y033759D01*
X019542Y033858D02*
X018435Y033858D01*
X018468Y033956D02*
X019542Y033956D01*
X019601Y034055D02*
X018567Y034055D01*
X018665Y034153D02*
X019542Y034153D01*
X019542Y034252D02*
X018764Y034252D01*
X018945Y034350D02*
X019605Y034350D01*
X019895Y034350D02*
X020010Y034350D01*
X020010Y034449D02*
X019043Y034449D01*
X019058Y034547D02*
X020010Y034547D01*
X020010Y034646D02*
X019558Y034646D01*
X019600Y034688D02*
X019600Y034688D01*
X019656Y034744D02*
X020010Y034744D01*
X020072Y034843D02*
X019755Y034843D01*
X019853Y034941D02*
X020200Y034941D01*
X020200Y035040D02*
X019952Y035040D01*
X020050Y035138D02*
X020200Y035138D01*
X019820Y035532D02*
X019773Y035532D01*
X019778Y035545D02*
X019778Y035855D01*
X019660Y036141D01*
X019441Y036360D01*
X019155Y036478D01*
X018845Y036478D01*
X018559Y036360D01*
X018340Y036141D01*
X018222Y035855D01*
X018222Y035545D01*
X018340Y035259D01*
X018549Y035050D01*
X017932Y035050D01*
X017826Y035156D01*
X017826Y035581D01*
X017762Y035646D01*
X017159Y035646D01*
X017094Y035581D01*
X017094Y035173D01*
X017023Y035244D01*
X016911Y035291D01*
X016789Y035291D01*
X016677Y035244D01*
X016648Y035216D01*
X016648Y036520D01*
X017416Y036520D01*
X017480Y036584D01*
X017480Y037352D01*
X017673Y037352D01*
X017593Y037272D01*
X017520Y037095D01*
X017520Y036905D01*
X017593Y036728D01*
X017728Y036593D01*
X017905Y036520D01*
X018095Y036520D01*
X018272Y036593D01*
X018407Y036728D01*
X018480Y036905D01*
X018480Y037095D01*
X018407Y037272D01*
X018327Y037352D01*
X018673Y037352D01*
X018593Y037272D01*
X018520Y037095D01*
X018520Y036905D01*
X018593Y036728D01*
X018728Y036593D01*
X018905Y036520D01*
X019095Y036520D01*
X019272Y036593D01*
X019407Y036728D01*
X019480Y036905D01*
X019480Y037095D01*
X019407Y037272D01*
X019327Y037352D01*
X019673Y037352D01*
X019593Y037272D01*
X019520Y037095D01*
X019520Y036905D01*
X019593Y036728D01*
X019728Y036593D01*
X019905Y036520D01*
X020095Y036520D01*
X020272Y036593D01*
X020407Y036728D01*
X020480Y036905D01*
X020480Y037095D01*
X020407Y037272D01*
X020327Y037352D01*
X020673Y037352D01*
X020593Y037272D01*
X020520Y037095D01*
X020520Y036905D01*
X020593Y036728D01*
X020728Y036593D01*
X020850Y036543D01*
X020850Y036110D01*
X020804Y036110D01*
X020740Y036046D01*
X020740Y035835D01*
X020714Y035808D01*
X020701Y035799D01*
X020676Y035781D01*
X020675Y035769D01*
X020642Y035736D01*
X020642Y035600D01*
X019888Y035600D01*
X019740Y035452D01*
X019778Y035545D01*
X019778Y035631D02*
X020642Y035631D01*
X020642Y035729D02*
X019778Y035729D01*
X019778Y035828D02*
X020733Y035828D01*
X020676Y035781D02*
X020676Y035781D01*
X020676Y035781D01*
X020740Y035926D02*
X019749Y035926D01*
X019708Y036025D02*
X020740Y036025D01*
X020850Y036123D02*
X019667Y036123D01*
X019579Y036222D02*
X020850Y036222D01*
X020850Y036320D02*
X019481Y036320D01*
X019299Y036419D02*
X020850Y036419D01*
X020850Y036517D02*
X016648Y036517D01*
X016648Y036419D02*
X018701Y036419D01*
X018706Y036616D02*
X018294Y036616D01*
X018393Y036714D02*
X018607Y036714D01*
X018558Y036813D02*
X018442Y036813D01*
X018480Y036911D02*
X018520Y036911D01*
X018520Y037010D02*
X018480Y037010D01*
X018475Y037108D02*
X018525Y037108D01*
X018566Y037207D02*
X018434Y037207D01*
X018374Y037305D02*
X018626Y037305D01*
X019374Y037305D02*
X019626Y037305D01*
X019566Y037207D02*
X019434Y037207D01*
X019475Y037108D02*
X019525Y037108D01*
X019520Y037010D02*
X019480Y037010D01*
X019480Y036911D02*
X019520Y036911D01*
X019558Y036813D02*
X019442Y036813D01*
X019393Y036714D02*
X019607Y036714D01*
X019706Y036616D02*
X019294Y036616D01*
X018519Y036320D02*
X016648Y036320D01*
X016648Y036222D02*
X018421Y036222D01*
X018333Y036123D02*
X016648Y036123D01*
X016648Y036025D02*
X018292Y036025D01*
X018251Y035926D02*
X016648Y035926D01*
X016648Y035828D02*
X018222Y035828D01*
X018222Y035729D02*
X016648Y035729D01*
X016648Y035631D02*
X017143Y035631D01*
X017094Y035532D02*
X016648Y035532D01*
X016648Y035434D02*
X017094Y035434D01*
X017094Y035335D02*
X016648Y035335D01*
X016648Y035237D02*
X016669Y035237D01*
X017031Y035237D02*
X017094Y035237D01*
X017156Y034976D02*
X017159Y034973D01*
X017584Y034973D01*
X017698Y034860D01*
X017650Y034812D01*
X017388Y034550D01*
X017388Y034550D01*
X017300Y034462D01*
X017300Y034327D01*
X017159Y034327D01*
X017156Y034324D01*
X017156Y034376D01*
X017109Y034489D01*
X017023Y034575D01*
X016911Y034621D01*
X016789Y034621D01*
X016677Y034575D01*
X016648Y034546D01*
X016648Y034754D01*
X016677Y034725D01*
X016789Y034679D01*
X016911Y034679D01*
X017023Y034725D01*
X017109Y034811D01*
X017156Y034924D01*
X017156Y034976D01*
X017156Y034941D02*
X017617Y034941D01*
X017680Y034843D02*
X017122Y034843D01*
X017042Y034744D02*
X017582Y034744D01*
X017650Y034812D02*
X017650Y034812D01*
X017483Y034646D02*
X016648Y034646D01*
X016648Y034744D02*
X016658Y034744D01*
X016648Y034547D02*
X016649Y034547D01*
X017051Y034547D02*
X017385Y034547D01*
X017300Y034449D02*
X017126Y034449D01*
X017156Y034350D02*
X017300Y034350D01*
X017612Y034350D02*
X018438Y034350D01*
X018536Y034449D02*
X017711Y034449D01*
X017809Y034547D02*
X018617Y034547D01*
X018339Y034252D02*
X017826Y034252D01*
X017826Y034153D02*
X018241Y034153D01*
X018142Y034055D02*
X017826Y034055D01*
X017826Y033956D02*
X017900Y033956D01*
X017865Y033858D02*
X017826Y033858D01*
X017826Y033759D02*
X017865Y033759D01*
X017865Y033661D02*
X017768Y033661D01*
X017882Y033562D02*
X016648Y033562D01*
X016648Y033464D02*
X017908Y033464D01*
X017865Y033365D02*
X017543Y033365D01*
X017555Y032971D02*
X019752Y032971D01*
X019752Y032873D02*
X019458Y032873D01*
X019510Y032774D02*
X019779Y032774D01*
X019752Y032676D02*
X019510Y032676D01*
X019960Y032660D02*
X019984Y032618D01*
X020132Y032702D01*
X019962Y032708D01*
X019960Y032660D01*
X020002Y032702D01*
X020132Y032702D01*
X020232Y032702D01*
X019980Y033138D02*
X019980Y033138D01*
X020009Y034153D02*
X020535Y034153D01*
X020034Y034252D02*
X019958Y034252D01*
X020950Y035450D02*
X020950Y035500D01*
X021160Y035500D02*
X021160Y035646D01*
X021106Y035700D01*
X021160Y035754D01*
X021160Y036046D01*
X021150Y036056D01*
X021150Y036543D01*
X021272Y036593D01*
X021407Y036728D01*
X021480Y036905D01*
X021480Y037095D01*
X021407Y037272D01*
X021327Y037352D01*
X022673Y037352D01*
X022593Y037272D01*
X022520Y037095D01*
X022520Y036908D01*
X022337Y036726D01*
X022290Y036612D01*
X022290Y034616D01*
X022246Y034660D01*
X022000Y034660D01*
X022000Y034900D01*
X022162Y034900D01*
X022250Y034988D01*
X022250Y035144D01*
X022260Y035154D01*
X022260Y035446D01*
X022196Y035510D01*
X021904Y035510D01*
X021900Y035506D01*
X021896Y035510D01*
X021604Y035510D01*
X021594Y035500D01*
X021160Y035500D01*
X021160Y035532D02*
X022290Y035532D01*
X022290Y035434D02*
X022260Y035434D01*
X022260Y035335D02*
X022290Y035335D01*
X022290Y035237D02*
X022260Y035237D01*
X022250Y035138D02*
X022290Y035138D01*
X022290Y035040D02*
X022250Y035040D01*
X022290Y034941D02*
X022203Y034941D01*
X022290Y034843D02*
X022000Y034843D01*
X022000Y034744D02*
X022290Y034744D01*
X022290Y034646D02*
X022260Y034646D01*
X022910Y034646D02*
X022984Y034646D01*
X023021Y034630D02*
X023537Y034630D01*
X023650Y034677D01*
X023661Y034688D01*
X023669Y034676D01*
X023677Y034675D01*
X023681Y034675D01*
X023714Y034642D01*
X023886Y034642D01*
X024008Y034764D01*
X024008Y034936D01*
X023920Y035024D01*
X023914Y035035D01*
X023908Y035037D01*
X023886Y035058D01*
X023828Y035058D01*
X023795Y035067D01*
X023762Y035100D01*
X023741Y035100D01*
X023736Y035111D01*
X023650Y035197D01*
X023537Y035244D01*
X023021Y035244D01*
X022910Y035198D01*
X022910Y036422D01*
X023008Y036520D01*
X023095Y036520D01*
X023272Y036593D01*
X023369Y036690D01*
X023631Y036690D01*
X023728Y036593D01*
X023905Y036520D01*
X024095Y036520D01*
X024272Y036593D01*
X024407Y036728D01*
X024480Y036905D01*
X024480Y037095D01*
X024407Y037272D01*
X024327Y037352D01*
X024673Y037352D01*
X024593Y037272D01*
X024520Y037095D01*
X024520Y036905D01*
X024593Y036728D01*
X024728Y036593D01*
X024905Y036520D01*
X025095Y036520D01*
X025272Y036593D01*
X025407Y036728D01*
X025480Y036905D01*
X025480Y037095D01*
X025407Y037272D01*
X025327Y037352D01*
X025673Y037352D01*
X025593Y037272D01*
X025520Y037095D01*
X025520Y036905D01*
X025593Y036728D01*
X025728Y036593D01*
X025905Y036520D01*
X026095Y036520D01*
X026272Y036593D01*
X026407Y036728D01*
X026480Y036905D01*
X026480Y037095D01*
X026407Y037272D01*
X026327Y037352D01*
X026673Y037352D01*
X026593Y037272D01*
X026520Y037095D01*
X026520Y036905D01*
X026593Y036728D01*
X026728Y036593D01*
X026905Y036520D01*
X027095Y036520D01*
X027272Y036593D01*
X027407Y036728D01*
X027480Y036905D01*
X027480Y037095D01*
X027407Y037272D01*
X027327Y037352D01*
X027673Y037352D01*
X027593Y037272D01*
X027520Y037095D01*
X027520Y036905D01*
X027593Y036728D01*
X027728Y036593D01*
X027905Y036520D01*
X028095Y036520D01*
X028272Y036593D01*
X028407Y036728D01*
X028480Y036905D01*
X028480Y037095D01*
X028407Y037272D01*
X028327Y037352D01*
X028673Y037352D01*
X028593Y037272D01*
X028520Y037095D01*
X028520Y036905D01*
X028593Y036728D01*
X028728Y036593D01*
X028905Y036520D01*
X029095Y036520D01*
X029272Y036593D01*
X029407Y036728D01*
X029480Y036905D01*
X029480Y037095D01*
X029407Y037272D01*
X029327Y037352D01*
X029673Y037352D01*
X029593Y037272D01*
X029520Y037095D01*
X029520Y036905D01*
X029593Y036728D01*
X029728Y036593D01*
X029905Y036520D01*
X030095Y036520D01*
X030272Y036593D01*
X030407Y036728D01*
X030480Y036905D01*
X030480Y037095D01*
X030407Y037272D01*
X030327Y037352D01*
X030673Y037352D01*
X030593Y037272D01*
X030520Y037095D01*
X030520Y036905D01*
X030593Y036728D01*
X030728Y036593D01*
X030905Y036520D01*
X031095Y036520D01*
X031272Y036593D01*
X031407Y036728D01*
X031480Y036905D01*
X031480Y037095D01*
X031407Y037272D01*
X031327Y037352D01*
X031673Y037352D01*
X031593Y037272D01*
X031520Y037095D01*
X031520Y036905D01*
X031593Y036728D01*
X031728Y036593D01*
X031905Y036520D01*
X032095Y036520D01*
X032272Y036593D01*
X032407Y036728D01*
X032480Y036905D01*
X032480Y037095D01*
X032407Y037272D01*
X032327Y037352D01*
X032673Y037352D01*
X032593Y037272D01*
X032520Y037095D01*
X032520Y036905D01*
X032593Y036728D01*
X032728Y036593D01*
X032905Y036520D01*
X033095Y036520D01*
X033272Y036593D01*
X033407Y036728D01*
X033480Y036905D01*
X033480Y037095D01*
X033407Y037272D01*
X033327Y037352D01*
X034673Y037352D01*
X034593Y037272D01*
X034520Y037095D01*
X034520Y036905D01*
X034593Y036728D01*
X034700Y036621D01*
X034700Y036352D01*
X034673Y036378D01*
X034561Y036425D01*
X034439Y036425D01*
X034326Y036378D01*
X034239Y036292D01*
X034193Y036179D01*
X034193Y035663D01*
X034239Y035551D01*
X034292Y035498D01*
X034292Y035485D01*
X034283Y035460D01*
X034283Y035460D01*
X034283Y035460D01*
X034292Y035441D01*
X034292Y035364D01*
X034411Y035244D01*
X031567Y032400D01*
X023735Y032400D01*
X023736Y032401D01*
X023783Y032514D01*
X023783Y032636D01*
X023736Y032749D01*
X023650Y032835D01*
X023537Y032882D01*
X023021Y032882D01*
X022910Y032836D01*
X022910Y033889D01*
X023021Y033843D01*
X023537Y033843D01*
X023650Y033889D01*
X023702Y033942D01*
X023715Y033942D01*
X023740Y033933D01*
X023758Y033942D01*
X023836Y033942D01*
X023958Y034064D01*
X023958Y034236D01*
X023836Y034358D01*
X023758Y034358D01*
X023740Y034367D01*
X023740Y034367D01*
X023740Y034367D01*
X023715Y034358D01*
X023701Y034358D01*
X023650Y034410D01*
X023537Y034456D01*
X023021Y034456D01*
X022910Y034410D01*
X022910Y034676D01*
X023021Y034630D01*
X022910Y034547D02*
X024143Y034547D01*
X024138Y034536D02*
X024141Y034527D01*
X024119Y034464D01*
X024092Y034436D01*
X024092Y034385D01*
X024083Y034360D01*
X024092Y034342D01*
X024092Y034264D01*
X024214Y034142D01*
X024386Y034142D01*
X024508Y034264D01*
X024508Y034342D01*
X024517Y034360D01*
X024517Y034360D01*
X024517Y034360D01*
X024508Y034385D01*
X024508Y034436D01*
X024481Y034464D01*
X024459Y034527D01*
X024462Y034536D01*
X024450Y034561D01*
X024450Y035189D01*
X024462Y035214D01*
X024459Y035223D01*
X024481Y035286D01*
X024508Y035314D01*
X024508Y035365D01*
X024517Y035390D01*
X024512Y035400D01*
X024517Y035410D01*
X024517Y035410D01*
X024517Y035410D01*
X024508Y035435D01*
X024508Y035486D01*
X024484Y035511D01*
X024524Y035551D01*
X024570Y035663D01*
X024570Y036179D01*
X024524Y036292D01*
X024437Y036378D01*
X024324Y036425D01*
X024202Y036425D01*
X024090Y036378D01*
X024003Y036292D01*
X023957Y036179D01*
X023957Y035663D01*
X024003Y035551D01*
X024090Y035464D01*
X024092Y035463D01*
X024092Y035435D01*
X024083Y035410D01*
X024088Y035400D01*
X024083Y035390D01*
X024083Y035390D01*
X024083Y035390D01*
X024092Y035365D01*
X024092Y035314D01*
X024119Y035286D01*
X024141Y035223D01*
X024138Y035214D01*
X024150Y035189D01*
X024150Y034561D01*
X024138Y034536D01*
X024104Y034449D02*
X023556Y034449D01*
X023574Y034646D02*
X023710Y034646D01*
X023890Y034646D02*
X024150Y034646D01*
X024150Y034744D02*
X023989Y034744D01*
X024008Y034843D02*
X024150Y034843D01*
X024150Y034941D02*
X024004Y034941D01*
X023914Y035035D02*
X023914Y035035D01*
X023914Y035035D01*
X023905Y035040D02*
X024150Y035040D01*
X024150Y035138D02*
X023709Y035138D01*
X023555Y035237D02*
X024136Y035237D01*
X024092Y035335D02*
X022910Y035335D01*
X022910Y035237D02*
X023004Y035237D01*
X022910Y035434D02*
X024091Y035434D01*
X024083Y035410D02*
X024083Y035410D01*
X024022Y035532D02*
X022910Y035532D01*
X022910Y035631D02*
X023970Y035631D01*
X023957Y035729D02*
X022910Y035729D01*
X022910Y035828D02*
X023957Y035828D01*
X023957Y035926D02*
X022910Y035926D01*
X022910Y036025D02*
X023957Y036025D01*
X023957Y036123D02*
X022910Y036123D01*
X022910Y036222D02*
X023974Y036222D01*
X024031Y036320D02*
X022910Y036320D01*
X022910Y036419D02*
X024187Y036419D01*
X024340Y036419D02*
X024974Y036419D01*
X024990Y036425D02*
X024877Y036378D01*
X024791Y036292D01*
X024744Y036179D01*
X024744Y035663D01*
X024791Y035551D01*
X024798Y035543D01*
X024792Y035536D01*
X024792Y035364D01*
X024914Y035242D01*
X025086Y035242D01*
X025208Y035364D01*
X025208Y035395D01*
X025211Y035397D01*
X025211Y035397D01*
X025211Y035404D01*
X025208Y035455D01*
X025208Y035458D01*
X025225Y035464D01*
X025311Y035551D01*
X025358Y035663D01*
X025358Y036179D01*
X025311Y036292D01*
X025225Y036378D01*
X025112Y036425D01*
X024990Y036425D01*
X025127Y036419D02*
X025762Y036419D01*
X025777Y036425D02*
X025664Y036378D01*
X025578Y036292D01*
X025531Y036179D01*
X025531Y035663D01*
X025578Y035551D01*
X025642Y035487D01*
X025642Y035478D01*
X025633Y035448D01*
X025633Y035446D01*
X025642Y035430D01*
X025642Y035364D01*
X025764Y035242D01*
X025936Y035242D01*
X026058Y035364D01*
X026058Y035455D01*
X026066Y035475D01*
X026058Y035493D01*
X026058Y035511D01*
X026098Y035551D01*
X026145Y035663D01*
X026145Y036179D01*
X026098Y036292D01*
X026012Y036378D01*
X025899Y036425D01*
X025777Y036425D01*
X025915Y036419D02*
X026549Y036419D01*
X026565Y036425D02*
X026452Y036378D01*
X026365Y036292D01*
X026319Y036179D01*
X026319Y035663D01*
X026365Y035551D01*
X026442Y035474D01*
X026442Y035471D01*
X026441Y035468D01*
X026433Y035430D01*
X026442Y035418D01*
X026442Y035364D01*
X026564Y035242D01*
X026736Y035242D01*
X026858Y035364D01*
X026858Y035473D01*
X026864Y035490D01*
X026858Y035500D01*
X026858Y035523D01*
X026886Y035551D01*
X026932Y035663D01*
X026932Y036179D01*
X026886Y036292D01*
X026799Y036378D01*
X026687Y036425D01*
X026565Y036425D01*
X026702Y036419D02*
X027336Y036419D01*
X027352Y036425D02*
X027239Y036378D01*
X027153Y036292D01*
X027106Y036179D01*
X027106Y035663D01*
X027153Y035551D01*
X027239Y035464D01*
X027242Y035463D01*
X027238Y035435D01*
X027235Y035414D01*
X027242Y035407D01*
X027242Y035364D01*
X027364Y035242D01*
X027536Y035242D01*
X027658Y035364D01*
X027658Y035497D01*
X027660Y035505D01*
X027660Y035505D01*
X027658Y035508D01*
X027658Y035536D01*
X027673Y035551D01*
X027720Y035663D01*
X027720Y036179D01*
X027673Y036292D01*
X027587Y036378D01*
X027474Y036425D01*
X027352Y036425D01*
X027490Y036419D02*
X028124Y036419D01*
X028139Y036425D02*
X028027Y036378D01*
X027940Y036292D01*
X027894Y036179D01*
X027894Y035663D01*
X027940Y035551D01*
X027992Y035499D01*
X027992Y035486D01*
X027983Y035461D01*
X027983Y035461D01*
X027983Y035461D01*
X027992Y035442D01*
X027992Y035364D01*
X028114Y035242D01*
X028286Y035242D01*
X028408Y035364D01*
X028408Y035441D01*
X028417Y035460D01*
X028417Y035460D01*
X028417Y035460D01*
X028408Y035485D01*
X028408Y035498D01*
X028461Y035551D01*
X028507Y035663D01*
X028507Y036179D01*
X028461Y036292D01*
X028374Y036378D01*
X028261Y036425D01*
X028139Y036425D01*
X028277Y036419D02*
X028911Y036419D01*
X028927Y036425D02*
X028814Y036378D01*
X028728Y036292D01*
X028681Y036179D01*
X028681Y035663D01*
X028728Y035551D01*
X028792Y035487D01*
X028792Y035478D01*
X028783Y035445D01*
X028783Y035445D01*
X028783Y035445D01*
X028792Y035429D01*
X028792Y035364D01*
X028914Y035242D01*
X029086Y035242D01*
X029208Y035364D01*
X029208Y035456D01*
X029216Y035475D01*
X029216Y035475D01*
X029216Y035475D01*
X029208Y035493D01*
X029208Y035511D01*
X029248Y035551D01*
X029295Y035663D01*
X029295Y036179D01*
X029248Y036292D01*
X029162Y036378D01*
X029049Y036425D01*
X028927Y036425D01*
X029064Y036419D02*
X029699Y036419D01*
X029714Y036425D02*
X029601Y036378D01*
X029515Y036292D01*
X029468Y036179D01*
X029468Y035663D01*
X029515Y035551D01*
X029592Y035474D01*
X029592Y035470D01*
X029583Y035430D01*
X029592Y035417D01*
X029592Y035364D01*
X029714Y035242D01*
X029886Y035242D01*
X030008Y035364D01*
X030008Y035474D01*
X030014Y035490D01*
X030008Y035501D01*
X030008Y035524D01*
X030035Y035551D01*
X030082Y035663D01*
X030082Y036179D01*
X030035Y036292D01*
X029949Y036378D01*
X029836Y036425D01*
X029714Y036425D01*
X029852Y036419D02*
X030486Y036419D01*
X030502Y036425D02*
X030389Y036378D01*
X030302Y036292D01*
X030256Y036179D01*
X030256Y035663D01*
X030302Y035551D01*
X030389Y035464D01*
X030392Y035463D01*
X030386Y035414D01*
X030392Y035406D01*
X030392Y035364D01*
X030514Y035242D01*
X030686Y035242D01*
X030808Y035364D01*
X030808Y035498D01*
X030810Y035506D01*
X030808Y035509D01*
X030808Y035536D01*
X030823Y035551D01*
X030869Y035663D01*
X030869Y036179D01*
X030823Y036292D01*
X030736Y036378D01*
X030624Y036425D01*
X030502Y036425D01*
X030639Y036419D02*
X032061Y036419D01*
X032076Y036425D02*
X031964Y036378D01*
X031877Y036292D01*
X031831Y036179D01*
X031831Y035663D01*
X031877Y035551D01*
X031942Y035486D01*
X031942Y035478D01*
X031933Y035445D01*
X031942Y035429D01*
X031942Y035364D01*
X032064Y035242D01*
X032236Y035242D01*
X032358Y035364D01*
X032358Y035456D01*
X032366Y035476D01*
X032358Y035493D01*
X032358Y035511D01*
X032398Y035551D01*
X032444Y035663D01*
X032444Y036179D01*
X032398Y036292D01*
X032311Y036378D01*
X032198Y036425D01*
X032076Y036425D01*
X032214Y036419D02*
X032848Y036419D01*
X032864Y036425D02*
X032751Y036378D01*
X032665Y036292D01*
X032618Y036179D01*
X032618Y035663D01*
X032665Y035551D01*
X032742Y035474D01*
X032742Y035470D01*
X032734Y035429D01*
X032742Y035417D01*
X032742Y035364D01*
X032864Y035242D01*
X033036Y035242D01*
X033158Y035364D01*
X033158Y035474D01*
X033164Y035491D01*
X033158Y035501D01*
X033158Y035524D01*
X033185Y035551D01*
X033232Y035663D01*
X033232Y036179D01*
X033185Y036292D01*
X033099Y036378D01*
X032986Y036425D01*
X032864Y036425D01*
X033001Y036419D02*
X033636Y036419D01*
X033651Y036425D02*
X033538Y036378D01*
X033452Y036292D01*
X033405Y036179D01*
X033405Y035663D01*
X033452Y035551D01*
X033538Y035464D01*
X033542Y035463D01*
X033542Y035463D01*
X033537Y035426D01*
X033536Y035413D01*
X033542Y035406D01*
X033542Y035364D01*
X033664Y035242D01*
X033836Y035242D01*
X033958Y035364D01*
X033958Y035499D01*
X033960Y035506D01*
X033960Y035506D01*
X033960Y035506D01*
X033958Y035509D01*
X033958Y035536D01*
X033958Y035537D01*
X033972Y035551D01*
X034019Y035663D01*
X034019Y036179D01*
X033972Y036292D01*
X033886Y036378D01*
X033773Y036425D01*
X033651Y036425D01*
X033789Y036419D02*
X034423Y036419D01*
X034576Y036419D02*
X034700Y036419D01*
X034700Y036517D02*
X023005Y036517D01*
X023294Y036616D02*
X023706Y036616D01*
X024294Y036616D02*
X024706Y036616D01*
X024607Y036714D02*
X024393Y036714D01*
X024442Y036813D02*
X024558Y036813D01*
X024520Y036911D02*
X024480Y036911D01*
X024480Y037010D02*
X024520Y037010D01*
X024525Y037108D02*
X024475Y037108D01*
X024434Y037207D02*
X024566Y037207D01*
X024626Y037305D02*
X024374Y037305D01*
X025374Y037305D02*
X025626Y037305D01*
X025566Y037207D02*
X025434Y037207D01*
X025475Y037108D02*
X025525Y037108D01*
X025520Y037010D02*
X025480Y037010D01*
X025480Y036911D02*
X025520Y036911D01*
X025558Y036813D02*
X025442Y036813D01*
X025393Y036714D02*
X025607Y036714D01*
X025706Y036616D02*
X025294Y036616D01*
X025283Y036320D02*
X025606Y036320D01*
X025549Y036222D02*
X025340Y036222D01*
X025358Y036123D02*
X025531Y036123D01*
X025531Y036025D02*
X025358Y036025D01*
X025358Y035926D02*
X025531Y035926D01*
X025531Y035828D02*
X025358Y035828D01*
X025358Y035729D02*
X025531Y035729D01*
X025545Y035631D02*
X025344Y035631D01*
X025292Y035532D02*
X025597Y035532D01*
X025639Y035434D02*
X025209Y035434D01*
X025180Y035335D02*
X025670Y035335D01*
X026030Y035335D02*
X026470Y035335D01*
X026433Y035430D02*
X026433Y035430D01*
X026433Y035430D01*
X026434Y035434D02*
X026058Y035434D01*
X026066Y035475D02*
X026066Y035475D01*
X026066Y035475D01*
X026080Y035532D02*
X026384Y035532D01*
X026332Y035631D02*
X026131Y035631D01*
X026145Y035729D02*
X026319Y035729D01*
X026319Y035828D02*
X026145Y035828D01*
X026145Y035926D02*
X026319Y035926D01*
X026319Y036025D02*
X026145Y036025D01*
X026145Y036123D02*
X026319Y036123D01*
X026336Y036222D02*
X026127Y036222D01*
X026070Y036320D02*
X026394Y036320D01*
X026294Y036616D02*
X026706Y036616D01*
X026607Y036714D02*
X026393Y036714D01*
X026442Y036813D02*
X026558Y036813D01*
X026520Y036911D02*
X026480Y036911D01*
X026480Y037010D02*
X026520Y037010D01*
X026525Y037108D02*
X026475Y037108D01*
X026434Y037207D02*
X026566Y037207D01*
X026626Y037305D02*
X026374Y037305D01*
X027374Y037305D02*
X027626Y037305D01*
X027566Y037207D02*
X027434Y037207D01*
X027475Y037108D02*
X027525Y037108D01*
X027520Y037010D02*
X027480Y037010D01*
X027480Y036911D02*
X027520Y036911D01*
X027558Y036813D02*
X027442Y036813D01*
X027393Y036714D02*
X027607Y036714D01*
X027706Y036616D02*
X027294Y036616D01*
X027181Y036320D02*
X026858Y036320D01*
X026915Y036222D02*
X027124Y036222D01*
X027106Y036123D02*
X026932Y036123D01*
X026932Y036025D02*
X027106Y036025D01*
X027106Y035926D02*
X026932Y035926D01*
X026932Y035828D02*
X027106Y035828D01*
X027106Y035729D02*
X026932Y035729D01*
X026919Y035631D02*
X027120Y035631D01*
X027171Y035532D02*
X026867Y035532D01*
X026864Y035490D02*
X026864Y035490D01*
X026858Y035434D02*
X027238Y035434D01*
X027235Y035414D02*
X027235Y035414D01*
X027242Y035463D02*
X027242Y035463D01*
X027270Y035335D02*
X026830Y035335D01*
X027630Y035335D02*
X028020Y035335D01*
X027992Y035434D02*
X027658Y035434D01*
X027658Y035532D02*
X027959Y035532D01*
X027907Y035631D02*
X027706Y035631D01*
X027720Y035729D02*
X027894Y035729D01*
X027894Y035828D02*
X027720Y035828D01*
X027720Y035926D02*
X027894Y035926D01*
X027894Y036025D02*
X027720Y036025D01*
X027720Y036123D02*
X027894Y036123D01*
X027911Y036222D02*
X027702Y036222D01*
X027645Y036320D02*
X027968Y036320D01*
X028294Y036616D02*
X028706Y036616D01*
X028607Y036714D02*
X028393Y036714D01*
X028442Y036813D02*
X028558Y036813D01*
X028520Y036911D02*
X028480Y036911D01*
X028480Y037010D02*
X028520Y037010D01*
X028525Y037108D02*
X028475Y037108D01*
X028434Y037207D02*
X028566Y037207D01*
X028626Y037305D02*
X028374Y037305D01*
X028432Y036320D02*
X028756Y036320D01*
X028699Y036222D02*
X028490Y036222D01*
X028507Y036123D02*
X028681Y036123D01*
X028681Y036025D02*
X028507Y036025D01*
X028507Y035926D02*
X028681Y035926D01*
X028681Y035828D02*
X028507Y035828D01*
X028507Y035729D02*
X028681Y035729D01*
X028695Y035631D02*
X028494Y035631D01*
X028442Y035532D02*
X028746Y035532D01*
X028789Y035434D02*
X028408Y035434D01*
X028380Y035335D02*
X028820Y035335D01*
X029180Y035335D02*
X029620Y035335D01*
X029584Y035434D02*
X029208Y035434D01*
X029229Y035532D02*
X029534Y035532D01*
X029482Y035631D02*
X029281Y035631D01*
X029295Y035729D02*
X029468Y035729D01*
X029468Y035828D02*
X029295Y035828D01*
X029295Y035926D02*
X029468Y035926D01*
X029468Y036025D02*
X029295Y036025D01*
X029295Y036123D02*
X029468Y036123D01*
X029486Y036222D02*
X029277Y036222D01*
X029220Y036320D02*
X029543Y036320D01*
X029706Y036616D02*
X029294Y036616D01*
X029393Y036714D02*
X029607Y036714D01*
X029558Y036813D02*
X029442Y036813D01*
X029480Y036911D02*
X029520Y036911D01*
X029520Y037010D02*
X029480Y037010D01*
X029475Y037108D02*
X029525Y037108D01*
X029566Y037207D02*
X029434Y037207D01*
X029374Y037305D02*
X029626Y037305D01*
X030374Y037305D02*
X030626Y037305D01*
X030566Y037207D02*
X030434Y037207D01*
X030475Y037108D02*
X030525Y037108D01*
X030520Y037010D02*
X030480Y037010D01*
X030480Y036911D02*
X030520Y036911D01*
X030558Y036813D02*
X030442Y036813D01*
X030393Y036714D02*
X030607Y036714D01*
X030706Y036616D02*
X030294Y036616D01*
X030331Y036320D02*
X030007Y036320D01*
X030064Y036222D02*
X030273Y036222D01*
X030256Y036123D02*
X030082Y036123D01*
X030082Y036025D02*
X030256Y036025D01*
X030256Y035926D02*
X030082Y035926D01*
X030082Y035828D02*
X030256Y035828D01*
X030256Y035729D02*
X030082Y035729D01*
X030068Y035631D02*
X030269Y035631D01*
X030321Y035532D02*
X030017Y035532D01*
X030008Y035434D02*
X030388Y035434D01*
X030392Y035463D02*
X030392Y035463D01*
X030420Y035335D02*
X029980Y035335D01*
X030780Y035335D02*
X031970Y035335D01*
X031939Y035434D02*
X030808Y035434D01*
X030810Y035506D02*
X030810Y035506D01*
X030810Y035506D01*
X030808Y035532D02*
X031896Y035532D01*
X031844Y035631D02*
X030856Y035631D01*
X030869Y035729D02*
X031831Y035729D01*
X031831Y035828D02*
X030869Y035828D01*
X030869Y035926D02*
X031831Y035926D01*
X031831Y036025D02*
X030869Y036025D01*
X030869Y036123D02*
X031831Y036123D01*
X031848Y036222D02*
X030852Y036222D01*
X030795Y036320D02*
X031905Y036320D01*
X031706Y036616D02*
X031294Y036616D01*
X031393Y036714D02*
X031607Y036714D01*
X031558Y036813D02*
X031442Y036813D01*
X031480Y036911D02*
X031520Y036911D01*
X031520Y037010D02*
X031480Y037010D01*
X031475Y037108D02*
X031525Y037108D01*
X031566Y037207D02*
X031434Y037207D01*
X031374Y037305D02*
X031626Y037305D01*
X032374Y037305D02*
X032626Y037305D01*
X032566Y037207D02*
X032434Y037207D01*
X032475Y037108D02*
X032525Y037108D01*
X032520Y037010D02*
X032480Y037010D01*
X032480Y036911D02*
X032520Y036911D01*
X032558Y036813D02*
X032442Y036813D01*
X032393Y036714D02*
X032607Y036714D01*
X032706Y036616D02*
X032294Y036616D01*
X032369Y036320D02*
X032693Y036320D01*
X032636Y036222D02*
X032427Y036222D01*
X032444Y036123D02*
X032618Y036123D01*
X032618Y036025D02*
X032444Y036025D01*
X032444Y035926D02*
X032618Y035926D01*
X032618Y035828D02*
X032444Y035828D01*
X032444Y035729D02*
X032618Y035729D01*
X032632Y035631D02*
X032431Y035631D01*
X032379Y035532D02*
X032683Y035532D01*
X032734Y035434D02*
X032358Y035434D01*
X032366Y035476D02*
X032366Y035476D01*
X032330Y035335D02*
X032770Y035335D01*
X032734Y035429D02*
X032734Y035429D01*
X033130Y035335D02*
X033570Y035335D01*
X033536Y035413D02*
X033536Y035413D01*
X033536Y035413D01*
X033538Y035434D02*
X033158Y035434D01*
X033164Y035491D02*
X033164Y035491D01*
X033164Y035491D01*
X033166Y035532D02*
X033471Y035532D01*
X033419Y035631D02*
X033218Y035631D01*
X033232Y035729D02*
X033405Y035729D01*
X033405Y035828D02*
X033232Y035828D01*
X033232Y035926D02*
X033405Y035926D01*
X033405Y036025D02*
X033232Y036025D01*
X033232Y036123D02*
X033405Y036123D01*
X033423Y036222D02*
X033214Y036222D01*
X033157Y036320D02*
X033480Y036320D01*
X033294Y036616D02*
X034700Y036616D01*
X034607Y036714D02*
X033393Y036714D01*
X033442Y036813D02*
X034558Y036813D01*
X034520Y036911D02*
X033480Y036911D01*
X033480Y037010D02*
X034520Y037010D01*
X034525Y037108D02*
X033475Y037108D01*
X033434Y037207D02*
X034566Y037207D01*
X034626Y037305D02*
X033374Y037305D01*
X033944Y036320D02*
X034268Y036320D01*
X034210Y036222D02*
X034001Y036222D01*
X034019Y036123D02*
X034193Y036123D01*
X034193Y036025D02*
X034019Y036025D01*
X034019Y035926D02*
X034193Y035926D01*
X034193Y035828D02*
X034019Y035828D01*
X034019Y035729D02*
X034193Y035729D01*
X034206Y035631D02*
X034005Y035631D01*
X033958Y035532D02*
X034258Y035532D01*
X034292Y035434D02*
X033958Y035434D01*
X033930Y035335D02*
X034320Y035335D01*
X034404Y035237D02*
X024464Y035237D01*
X024450Y035138D02*
X034305Y035138D01*
X034207Y035040D02*
X024450Y035040D01*
X024450Y034941D02*
X034108Y034941D01*
X034010Y034843D02*
X024450Y034843D01*
X024450Y034744D02*
X033911Y034744D01*
X033813Y034646D02*
X024450Y034646D01*
X024457Y034547D02*
X033714Y034547D01*
X033616Y034449D02*
X024496Y034449D01*
X024512Y034350D02*
X033517Y034350D01*
X033419Y034252D02*
X024496Y034252D01*
X024398Y034153D02*
X033320Y034153D01*
X033222Y034055D02*
X023949Y034055D01*
X023958Y034153D02*
X024202Y034153D01*
X024104Y034252D02*
X023943Y034252D01*
X023845Y034350D02*
X024088Y034350D01*
X024083Y034360D02*
X024083Y034360D01*
X023851Y033956D02*
X033123Y033956D01*
X033025Y033858D02*
X023573Y033858D01*
X023740Y033933D02*
X023740Y033933D01*
X023740Y033933D01*
X022986Y033858D02*
X022910Y033858D01*
X022910Y033759D02*
X032926Y033759D01*
X032828Y033661D02*
X022910Y033661D01*
X022910Y033562D02*
X032729Y033562D01*
X032631Y033464D02*
X022910Y033464D01*
X022910Y033365D02*
X032532Y033365D01*
X032434Y033267D02*
X022910Y033267D01*
X022910Y033168D02*
X032335Y033168D01*
X032237Y033070D02*
X022910Y033070D01*
X022910Y032971D02*
X032138Y032971D01*
X032040Y032873D02*
X023559Y032873D01*
X023711Y032774D02*
X031941Y032774D01*
X031843Y032676D02*
X023766Y032676D01*
X023783Y032577D02*
X031744Y032577D01*
X031646Y032479D02*
X023768Y032479D01*
X022999Y032873D02*
X022910Y032873D01*
X022290Y033110D02*
X022054Y033110D01*
X022016Y033071D01*
X022016Y033190D01*
X022012Y033194D01*
X022016Y033197D01*
X022016Y033387D01*
X021951Y033451D01*
X021918Y033451D01*
X021918Y033756D01*
X022102Y033940D01*
X022246Y033940D01*
X022290Y033984D01*
X022290Y033110D01*
X022290Y033168D02*
X022016Y033168D01*
X022016Y033267D02*
X022290Y033267D01*
X022290Y033365D02*
X022016Y033365D01*
X021918Y033464D02*
X022290Y033464D01*
X022290Y033562D02*
X021918Y033562D01*
X021918Y033661D02*
X022290Y033661D01*
X022290Y033759D02*
X021921Y033759D01*
X022020Y033858D02*
X022290Y033858D01*
X022290Y033956D02*
X022262Y033956D01*
X022910Y034449D02*
X023002Y034449D01*
X022290Y035631D02*
X021160Y035631D01*
X021135Y035729D02*
X022290Y035729D01*
X022290Y035828D02*
X021160Y035828D01*
X021160Y035926D02*
X022290Y035926D01*
X022290Y036025D02*
X021160Y036025D01*
X021150Y036123D02*
X022290Y036123D01*
X022290Y036222D02*
X021150Y036222D01*
X021150Y036320D02*
X022290Y036320D01*
X022290Y036419D02*
X021150Y036419D01*
X021150Y036517D02*
X022290Y036517D01*
X022292Y036616D02*
X021294Y036616D01*
X021393Y036714D02*
X022332Y036714D01*
X022424Y036813D02*
X021442Y036813D01*
X021480Y036911D02*
X022520Y036911D01*
X022520Y037010D02*
X021480Y037010D01*
X021475Y037108D02*
X022525Y037108D01*
X022566Y037207D02*
X021434Y037207D01*
X021374Y037305D02*
X022626Y037305D01*
X020626Y037305D02*
X020374Y037305D01*
X020434Y037207D02*
X020566Y037207D01*
X020525Y037108D02*
X020475Y037108D01*
X020480Y037010D02*
X020520Y037010D01*
X020520Y036911D02*
X020480Y036911D01*
X020442Y036813D02*
X020558Y036813D01*
X020607Y036714D02*
X020393Y036714D01*
X020294Y036616D02*
X020706Y036616D01*
X018461Y035138D02*
X017844Y035138D01*
X017826Y035237D02*
X018363Y035237D01*
X018309Y035335D02*
X017826Y035335D01*
X017826Y035434D02*
X018268Y035434D01*
X018227Y035532D02*
X017826Y035532D01*
X017777Y035631D02*
X018222Y035631D01*
X017706Y036616D02*
X017480Y036616D01*
X017480Y036714D02*
X017607Y036714D01*
X017558Y036813D02*
X017480Y036813D01*
X017480Y036911D02*
X017520Y036911D01*
X017520Y037010D02*
X017480Y037010D01*
X017480Y037108D02*
X017525Y037108D01*
X017566Y037207D02*
X017480Y037207D01*
X017480Y037305D02*
X017626Y037305D01*
X017094Y034055D02*
X017020Y034055D01*
X017094Y033956D02*
X016648Y033956D01*
X016648Y033858D02*
X017094Y033858D01*
X017094Y033759D02*
X016648Y033759D01*
X016648Y033661D02*
X017152Y033661D01*
X017090Y033365D02*
X016648Y033365D01*
X016648Y033267D02*
X017069Y033267D01*
X017069Y033168D02*
X016648Y033168D01*
X016648Y033070D02*
X017069Y033070D01*
X016680Y034055D02*
X016648Y034055D01*
X017555Y031297D02*
X017748Y031297D01*
X017748Y031198D02*
X017555Y031198D01*
X017555Y031100D02*
X017748Y031100D01*
X017748Y031001D02*
X017503Y031001D01*
X017555Y030903D02*
X017748Y030903D01*
X017748Y030804D02*
X017555Y030804D01*
X017555Y030706D02*
X017748Y030706D01*
X017761Y030607D02*
X017555Y030607D01*
X017659Y029214D02*
X017659Y029214D01*
X017545Y028637D02*
X017950Y028637D01*
X017900Y027160D02*
X018220Y027160D01*
X018220Y027061D02*
X017900Y027061D01*
X017900Y026963D02*
X018216Y026963D01*
X018216Y026273D02*
X017884Y026273D01*
X017884Y026175D02*
X018216Y026175D01*
X018216Y026076D02*
X017884Y026076D01*
X018428Y025781D02*
X020996Y025781D01*
X021034Y025688D02*
X021188Y025534D01*
X021391Y025450D01*
X021609Y025450D01*
X021812Y025534D01*
X021966Y025688D01*
X022050Y025891D01*
X022050Y026109D01*
X021966Y026312D01*
X021812Y026466D01*
X021609Y026550D01*
X021391Y026550D01*
X021188Y026466D01*
X021034Y026312D01*
X020950Y026109D01*
X020950Y025891D01*
X021034Y025688D01*
X021040Y025682D02*
X016648Y025682D01*
X016648Y025584D02*
X021139Y025584D01*
X021306Y025485D02*
X016648Y025485D01*
X016648Y025387D02*
X017708Y025387D01*
X017609Y025288D02*
X016648Y025288D01*
X016648Y025190D02*
X017559Y025190D01*
X017520Y025091D02*
X016648Y025091D01*
X016648Y024993D02*
X017520Y024993D01*
X017524Y024894D02*
X016648Y024894D01*
X016648Y024796D02*
X017565Y024796D01*
X017624Y024697D02*
X016648Y024697D01*
X016648Y025781D02*
X017057Y025781D01*
X016815Y025879D02*
X016648Y025879D01*
X016648Y025978D02*
X016790Y025978D01*
X016790Y026076D02*
X016648Y026076D01*
X016648Y026175D02*
X016790Y026175D01*
X016790Y026273D02*
X016648Y026273D01*
X016648Y026372D02*
X016790Y026372D01*
X016790Y026470D02*
X016648Y026470D01*
X018292Y025387D02*
X018708Y025387D01*
X018609Y025288D02*
X018391Y025288D01*
X018441Y025190D02*
X018559Y025190D01*
X018520Y025091D02*
X018480Y025091D01*
X018480Y024993D02*
X018520Y024993D01*
X018524Y024894D02*
X018476Y024894D01*
X018435Y024796D02*
X018565Y024796D01*
X018624Y024697D02*
X018376Y024697D01*
X019376Y024697D02*
X019624Y024697D01*
X019565Y024796D02*
X019435Y024796D01*
X019476Y024894D02*
X019524Y024894D01*
X019520Y024993D02*
X019480Y024993D01*
X019480Y025091D02*
X019520Y025091D01*
X019559Y025190D02*
X019441Y025190D01*
X019391Y025288D02*
X019609Y025288D01*
X019708Y025387D02*
X019292Y025387D01*
X018908Y025978D02*
X020950Y025978D01*
X020950Y026076D02*
X018908Y026076D01*
X018908Y026175D02*
X020977Y026175D01*
X021018Y026273D02*
X018908Y026273D01*
X019310Y026372D02*
X021094Y026372D01*
X021197Y026470D02*
X019310Y026470D01*
X019310Y026569D02*
X021993Y026569D01*
X021895Y026667D02*
X019379Y026667D01*
X019458Y026766D02*
X021796Y026766D01*
X021698Y026864D02*
X019526Y026864D01*
X019560Y026963D02*
X021599Y026963D01*
X021501Y027061D02*
X019560Y027061D01*
X019560Y027160D02*
X021423Y027160D01*
X021390Y027258D02*
X019560Y027258D01*
X019560Y027357D02*
X020587Y027357D01*
X020489Y027455D02*
X019560Y027455D01*
X019560Y027554D02*
X020390Y027554D01*
X020518Y027652D02*
X021950Y027652D01*
X021950Y027680D02*
X021950Y027400D01*
X021550Y027400D01*
X021550Y027380D01*
X021410Y027510D01*
X021188Y027507D01*
X021186Y027508D01*
X021014Y027508D01*
X021010Y027505D01*
X020842Y027502D01*
X020836Y027508D01*
X020664Y027508D01*
X020663Y027507D01*
X020400Y027770D01*
X020400Y028330D01*
X020500Y028430D01*
X020500Y028760D01*
X020900Y028760D01*
X020900Y029270D01*
X021100Y029470D01*
X021100Y030240D01*
X021350Y030250D01*
X021350Y029380D01*
X021360Y027910D01*
X021590Y027680D01*
X021950Y027680D01*
X021950Y027554D02*
X020616Y027554D01*
X020419Y027751D02*
X021519Y027751D01*
X021421Y027849D02*
X020400Y027849D01*
X020400Y027948D02*
X021360Y027948D01*
X021359Y028046D02*
X020400Y028046D01*
X020400Y028145D02*
X021358Y028145D01*
X021358Y028243D02*
X020400Y028243D01*
X020412Y028342D02*
X021357Y028342D01*
X021356Y028440D02*
X020500Y028440D01*
X020500Y028539D02*
X021356Y028539D01*
X021355Y028637D02*
X020500Y028637D01*
X020500Y028736D02*
X021354Y028736D01*
X021354Y028834D02*
X020900Y028834D01*
X020900Y028933D02*
X021353Y028933D01*
X021352Y029031D02*
X020900Y029031D01*
X020900Y029130D02*
X021352Y029130D01*
X021351Y029228D02*
X020900Y029228D01*
X020957Y029327D02*
X021350Y029327D01*
X021350Y029425D02*
X021055Y029425D01*
X021100Y029524D02*
X021350Y029524D01*
X021350Y029622D02*
X021100Y029622D01*
X021100Y029721D02*
X021350Y029721D01*
X021350Y029819D02*
X021100Y029819D01*
X021100Y029918D02*
X021350Y029918D01*
X021350Y030016D02*
X021100Y030016D01*
X021100Y030115D02*
X021350Y030115D01*
X021350Y030213D02*
X021100Y030213D01*
X020940Y030213D02*
X020860Y030213D01*
X020940Y030237D02*
X020940Y029536D01*
X020814Y029410D01*
X020804Y029410D01*
X020740Y029346D01*
X020740Y028920D01*
X020592Y028920D01*
X020590Y028922D01*
X020400Y028922D01*
X020336Y028858D01*
X020336Y028492D01*
X020300Y028456D01*
X020296Y028460D01*
X020262Y028460D01*
X020262Y028741D01*
X020261Y028741D01*
X020261Y028858D01*
X020250Y028869D01*
X020250Y028978D01*
X020393Y028978D01*
X020458Y029042D01*
X020458Y029066D01*
X020460Y029068D01*
X020460Y029388D01*
X020462Y029390D01*
X020772Y029390D01*
X020778Y029396D01*
X020788Y029396D01*
X020853Y029461D01*
X020853Y029470D01*
X020860Y029478D01*
X020860Y030312D01*
X020853Y030320D01*
X020853Y030339D01*
X020788Y030404D01*
X020551Y030404D01*
X021137Y030990D01*
X021196Y030990D01*
X021260Y031054D01*
X021260Y031678D01*
X021338Y031600D01*
X021938Y031600D01*
X021942Y031596D01*
X021942Y031514D01*
X022064Y031392D01*
X022236Y031392D01*
X022358Y031514D01*
X022358Y031686D01*
X022295Y031750D01*
X022329Y031784D01*
X022337Y031764D01*
X022424Y031677D01*
X022574Y031527D01*
X022688Y031480D01*
X023211Y031480D01*
X023217Y031477D01*
X029984Y031477D01*
X034824Y026637D01*
X034938Y026590D01*
X035062Y026590D01*
X035176Y026637D01*
X035263Y026724D01*
X035310Y026838D01*
X035310Y026962D01*
X035263Y027076D01*
X030338Y032000D01*
X031733Y032000D01*
X031850Y032117D01*
X035094Y035361D01*
X035214Y035242D01*
X035386Y035242D01*
X035508Y035364D01*
X035508Y035457D01*
X035516Y035476D01*
X035508Y035493D01*
X035508Y035512D01*
X035547Y035551D01*
X035594Y035663D01*
X035594Y036179D01*
X035547Y036292D01*
X035461Y036378D01*
X035348Y036425D01*
X035226Y036425D01*
X035113Y036378D01*
X035100Y036365D01*
X035100Y036522D01*
X035272Y036593D01*
X035407Y036728D01*
X035480Y036905D01*
X035480Y037095D01*
X035407Y037272D01*
X035327Y037352D01*
X035673Y037352D01*
X035593Y037272D01*
X035520Y037095D01*
X035520Y036905D01*
X035593Y036728D01*
X035728Y036593D01*
X035905Y036520D01*
X036058Y036520D01*
X035927Y036389D01*
X035901Y036378D01*
X035814Y036292D01*
X035768Y036179D01*
X035768Y035663D01*
X035814Y035551D01*
X035901Y035464D01*
X036013Y035418D01*
X036135Y035418D01*
X036248Y035464D01*
X036335Y035551D01*
X036381Y035663D01*
X036381Y036179D01*
X036335Y036292D01*
X036294Y036332D01*
X036312Y036350D01*
X039562Y036350D01*
X039783Y036570D01*
X039905Y036520D01*
X040095Y036520D01*
X040272Y036593D01*
X040407Y036728D01*
X040480Y036905D01*
X040480Y037095D01*
X040407Y037272D01*
X040327Y037352D01*
X040673Y037352D01*
X040593Y037272D01*
X040520Y037095D01*
X040520Y036905D01*
X040593Y036728D01*
X040728Y036593D01*
X040900Y036522D01*
X040900Y036312D01*
X040588Y036000D01*
X039138Y036000D01*
X037788Y034650D01*
X037700Y034562D01*
X037700Y031978D01*
X037697Y031975D01*
X037698Y031965D01*
X037667Y031922D01*
X037663Y031917D01*
X037641Y031885D01*
X037592Y031836D01*
X037592Y031664D01*
X037714Y031542D01*
X037850Y031542D01*
X037850Y027938D01*
X038875Y026913D01*
X038954Y026913D01*
X038964Y026889D01*
X039050Y026803D01*
X039163Y026756D01*
X039679Y026756D01*
X039792Y026803D01*
X039878Y026889D01*
X039925Y027002D01*
X039925Y027124D01*
X039878Y027237D01*
X039792Y027323D01*
X039679Y027370D01*
X039163Y027370D01*
X039050Y027323D01*
X038970Y027243D01*
X038150Y028062D01*
X038150Y034388D01*
X039312Y035550D01*
X040762Y035550D01*
X041023Y035811D01*
X040950Y035634D01*
X040950Y035416D01*
X041034Y035213D01*
X041188Y035059D01*
X041391Y034975D01*
X041609Y034975D01*
X041812Y035059D01*
X041966Y035213D01*
X042050Y035416D01*
X042050Y035634D01*
X041966Y035837D01*
X041812Y035991D01*
X041609Y036075D01*
X041391Y036075D01*
X041214Y036002D01*
X041783Y036570D01*
X041905Y036520D01*
X042095Y036520D01*
X042272Y036593D01*
X042407Y036728D01*
X042480Y036905D01*
X042480Y037095D01*
X042407Y037272D01*
X042327Y037352D01*
X042673Y037352D01*
X042593Y037272D01*
X042520Y037095D01*
X042520Y036905D01*
X042593Y036728D01*
X042728Y036593D01*
X042905Y036520D01*
X043095Y036520D01*
X043272Y036593D01*
X043407Y036728D01*
X043480Y036905D01*
X043480Y037095D01*
X043407Y037272D01*
X043327Y037352D01*
X044352Y037352D01*
X044352Y035660D01*
X042302Y035660D01*
X042273Y035630D01*
X042273Y034798D01*
X041909Y034798D01*
X041879Y034768D01*
X041879Y034741D01*
X041870Y034741D01*
X041868Y034739D01*
X041813Y034739D01*
X041808Y034735D01*
X041504Y034735D01*
X041500Y034731D01*
X041496Y034735D01*
X040504Y034735D01*
X040500Y034731D01*
X040496Y034735D01*
X040470Y034735D01*
X040398Y034765D01*
X040064Y034765D01*
X039871Y034654D01*
X039871Y034654D01*
X039871Y034654D01*
X039760Y034461D01*
X039760Y034423D01*
X039679Y034456D01*
X039163Y034456D01*
X039050Y034410D01*
X038964Y034323D01*
X038917Y034211D01*
X038917Y034089D01*
X038964Y033976D01*
X039050Y033889D01*
X039163Y033843D01*
X039679Y033843D01*
X039792Y033889D01*
X039812Y033910D01*
X039918Y033910D01*
X040122Y034028D01*
X040240Y034232D01*
X040240Y034285D01*
X040398Y034285D01*
X040470Y034315D01*
X040496Y034315D01*
X040500Y034319D01*
X040504Y034315D01*
X041496Y034315D01*
X041500Y034319D01*
X041504Y034315D01*
X041879Y034315D01*
X041879Y034294D01*
X041909Y034264D01*
X042273Y034264D01*
X042273Y027715D01*
X042302Y027686D01*
X044352Y027686D01*
X044352Y024648D01*
X043327Y024648D01*
X043407Y024728D01*
X043480Y024905D01*
X043480Y025095D01*
X043407Y025272D01*
X043272Y025407D01*
X043095Y025480D01*
X042905Y025480D01*
X042815Y025443D01*
X042785Y025473D01*
X042785Y025918D01*
X042235Y026468D01*
X042235Y027068D01*
X040095Y029208D01*
X039988Y029315D01*
X039904Y029315D01*
X039925Y029364D01*
X039925Y029486D01*
X039878Y029599D01*
X039792Y029685D01*
X039679Y029732D01*
X039163Y029732D01*
X039050Y029685D01*
X038964Y029599D01*
X038917Y029486D01*
X038917Y029364D01*
X038964Y029251D01*
X039050Y029165D01*
X039163Y029118D01*
X039470Y029118D01*
X039531Y029057D01*
X039560Y029028D01*
X039477Y028945D01*
X039163Y028945D01*
X039050Y028898D01*
X038964Y028812D01*
X038917Y028699D01*
X038917Y028577D01*
X038964Y028464D01*
X039050Y028378D01*
X039163Y028331D01*
X039679Y028331D01*
X039792Y028378D01*
X039878Y028464D01*
X039923Y028574D01*
X041665Y026832D01*
X041665Y026232D01*
X041772Y026125D01*
X042215Y025682D01*
X042215Y025478D01*
X042213Y025476D01*
X042213Y025471D01*
X042185Y025443D01*
X042095Y025480D01*
X041905Y025480D01*
X041728Y025407D01*
X041593Y025272D01*
X041520Y025095D01*
X041520Y024905D01*
X041593Y024728D01*
X041673Y024648D01*
X041327Y024648D01*
X041407Y024728D01*
X041480Y024905D01*
X041480Y025095D01*
X041407Y025272D01*
X041272Y025407D01*
X041095Y025480D01*
X041082Y025480D01*
X041212Y025534D01*
X041366Y025688D01*
X041450Y025891D01*
X041450Y026109D01*
X041366Y026312D01*
X041212Y026466D01*
X041009Y026550D01*
X040791Y026550D01*
X040588Y026466D01*
X040434Y026312D01*
X040350Y026109D01*
X040350Y025891D01*
X040434Y025688D01*
X040588Y025534D01*
X040791Y025450D01*
X040832Y025450D01*
X040728Y025407D01*
X040593Y025272D01*
X040520Y025095D01*
X040520Y024905D01*
X040593Y024728D01*
X040673Y024648D01*
X039327Y024648D01*
X039407Y024728D01*
X039480Y024905D01*
X039480Y025095D01*
X039407Y025272D01*
X039272Y025407D01*
X039150Y025457D01*
X039150Y025512D01*
X039062Y025600D01*
X038743Y025919D01*
X038743Y026337D01*
X038697Y026449D01*
X038610Y026536D01*
X038498Y026582D01*
X038376Y026582D01*
X038263Y026536D01*
X038176Y026449D01*
X038130Y026337D01*
X038130Y025821D01*
X038176Y025708D01*
X038263Y025622D01*
X038376Y025575D01*
X038498Y025575D01*
X038610Y025622D01*
X038613Y025625D01*
X038801Y025437D01*
X038728Y025407D01*
X038593Y025272D01*
X038520Y025095D01*
X038520Y024905D01*
X038593Y024728D01*
X038673Y024648D01*
X038327Y024648D01*
X038407Y024728D01*
X038480Y024905D01*
X038480Y025095D01*
X038407Y025272D01*
X038272Y025407D01*
X038150Y025457D01*
X038150Y025462D01*
X038062Y025550D01*
X037907Y025705D01*
X037909Y025708D01*
X037956Y025821D01*
X037956Y026337D01*
X037909Y026449D01*
X037823Y026536D01*
X037710Y026582D01*
X037588Y026582D01*
X037475Y026536D01*
X037389Y026449D01*
X037342Y026337D01*
X037342Y025821D01*
X037389Y025708D01*
X037475Y025622D01*
X037588Y025575D01*
X037613Y025575D01*
X037765Y025422D01*
X037728Y025407D01*
X037593Y025272D01*
X037520Y025095D01*
X037520Y024905D01*
X037593Y024728D01*
X037673Y024648D01*
X037327Y024648D01*
X037407Y024728D01*
X037480Y024905D01*
X037480Y025095D01*
X037407Y025272D01*
X037272Y025407D01*
X037150Y025457D01*
X037150Y025512D01*
X037062Y025600D01*
X037038Y025624D01*
X037122Y025708D01*
X037169Y025821D01*
X037169Y026337D01*
X037122Y026449D01*
X037036Y026536D01*
X036923Y026582D01*
X036801Y026582D01*
X036688Y026536D01*
X036602Y026449D01*
X036555Y026337D01*
X036555Y025821D01*
X036602Y025708D01*
X036688Y025622D01*
X036712Y025612D01*
X036712Y025526D01*
X036800Y025438D01*
X036801Y025437D01*
X036728Y025407D01*
X036593Y025272D01*
X036520Y025095D01*
X036520Y024905D01*
X036593Y024728D01*
X036673Y024648D01*
X036327Y024648D01*
X036407Y024728D01*
X036480Y024905D01*
X036480Y025095D01*
X036407Y025272D01*
X036272Y025407D01*
X036224Y025427D01*
X036224Y025612D01*
X036248Y025622D01*
X036335Y025708D01*
X036381Y025821D01*
X036381Y026337D01*
X036335Y026449D01*
X036248Y026536D01*
X036135Y026582D01*
X036013Y026582D01*
X035901Y026536D01*
X035814Y026449D01*
X035768Y026337D01*
X035768Y025821D01*
X035814Y025708D01*
X035901Y025622D01*
X035924Y025612D01*
X035924Y025537D01*
X035850Y025462D01*
X035850Y025457D01*
X035728Y025407D01*
X035593Y025272D01*
X035520Y025095D01*
X035520Y024905D01*
X035593Y024728D01*
X035673Y024648D01*
X035327Y024648D01*
X035407Y024728D01*
X035480Y024905D01*
X035480Y025095D01*
X035407Y025272D01*
X035272Y025407D01*
X035095Y025480D01*
X034905Y025480D01*
X034728Y025407D01*
X034593Y025272D01*
X034520Y025095D01*
X034520Y024905D01*
X034593Y024728D01*
X034673Y024648D01*
X034327Y024648D01*
X034407Y024728D01*
X034480Y024905D01*
X034480Y025095D01*
X034434Y025207D01*
X034660Y025433D01*
X034660Y025616D01*
X034673Y025622D01*
X034760Y025708D01*
X034806Y025821D01*
X034806Y026337D01*
X034760Y026449D01*
X034673Y026536D01*
X034561Y026582D01*
X034439Y026582D01*
X034326Y026536D01*
X034239Y026449D01*
X034193Y026337D01*
X034193Y025821D01*
X034239Y025708D01*
X034326Y025622D01*
X034340Y025616D01*
X034340Y025566D01*
X034207Y025434D01*
X034095Y025480D01*
X033905Y025480D01*
X033728Y025407D01*
X033593Y025272D01*
X033520Y025095D01*
X033520Y024905D01*
X033593Y024728D01*
X033673Y024648D01*
X033327Y024648D01*
X033407Y024728D01*
X033480Y024905D01*
X033480Y025095D01*
X033434Y025207D01*
X033821Y025595D01*
X033886Y025622D01*
X033972Y025708D01*
X034019Y025821D01*
X034019Y026337D01*
X033972Y026449D01*
X033886Y026536D01*
X033773Y026582D01*
X033651Y026582D01*
X033538Y026536D01*
X033452Y026449D01*
X033405Y026337D01*
X033405Y025821D01*
X033452Y025708D01*
X033467Y025693D01*
X033207Y025434D01*
X033095Y025480D01*
X032905Y025480D01*
X032728Y025407D01*
X032593Y025272D01*
X032520Y025095D01*
X032520Y024905D01*
X032593Y024728D01*
X032673Y024648D01*
X032327Y024648D01*
X032407Y024728D01*
X032480Y024905D01*
X032480Y025095D01*
X032434Y025207D01*
X032820Y025593D01*
X032864Y025575D01*
X032986Y025575D01*
X033099Y025622D01*
X033185Y025708D01*
X033232Y025821D01*
X033232Y026337D01*
X033185Y026449D01*
X033099Y026536D01*
X032986Y026582D01*
X032864Y026582D01*
X032751Y026536D01*
X032665Y026449D01*
X032618Y026337D01*
X032618Y025844D01*
X032207Y025434D01*
X032095Y025480D01*
X031905Y025480D01*
X031728Y025407D01*
X031593Y025272D01*
X031520Y025095D01*
X031520Y024905D01*
X031593Y024728D01*
X031673Y024648D01*
X031327Y024648D01*
X031407Y024728D01*
X031480Y024905D01*
X031480Y025095D01*
X031434Y025207D01*
X031906Y025680D01*
X031964Y025622D01*
X032076Y025575D01*
X032198Y025575D01*
X032311Y025622D01*
X032398Y025708D01*
X032444Y025821D01*
X032444Y026337D01*
X032398Y026449D01*
X032311Y026536D01*
X032198Y026582D01*
X032076Y026582D01*
X031964Y026536D01*
X031877Y026449D01*
X031831Y026337D01*
X031831Y026057D01*
X031657Y025883D01*
X031657Y026337D01*
X031610Y026449D01*
X031524Y026536D01*
X031411Y026582D01*
X031289Y026582D01*
X031176Y026536D01*
X031090Y026449D01*
X031043Y026337D01*
X031043Y026119D01*
X030869Y025946D01*
X030869Y026337D01*
X030823Y026449D01*
X030736Y026536D01*
X030624Y026582D01*
X030502Y026582D01*
X030389Y026536D01*
X030302Y026449D01*
X030256Y026337D01*
X030256Y026132D01*
X030082Y025958D01*
X030082Y026337D01*
X030035Y026449D01*
X029949Y026536D01*
X029836Y026582D01*
X029714Y026582D01*
X029601Y026536D01*
X029515Y026449D01*
X029468Y026337D01*
X029468Y026145D01*
X029295Y025971D01*
X029295Y026337D01*
X029248Y026449D01*
X029162Y026536D01*
X029049Y026582D01*
X028927Y026582D01*
X028814Y026536D01*
X028728Y026449D01*
X028681Y026337D01*
X028681Y026107D01*
X028507Y025934D01*
X028507Y026337D01*
X028461Y026449D01*
X028374Y026536D01*
X028261Y026582D01*
X028139Y026582D01*
X028027Y026536D01*
X027940Y026449D01*
X027894Y026337D01*
X027894Y026120D01*
X027484Y025710D01*
X026887Y025710D01*
X026932Y025821D01*
X026932Y026337D01*
X026886Y026449D01*
X026808Y026527D01*
X026808Y026586D01*
X026812Y026614D01*
X026815Y026638D01*
X026815Y026638D01*
X026808Y026647D01*
X026808Y026686D01*
X026686Y026808D01*
X026514Y026808D01*
X026392Y026686D01*
X026392Y026598D01*
X026383Y026575D01*
X026392Y026555D01*
X026392Y026514D01*
X026411Y026495D01*
X026365Y026449D01*
X026319Y026337D01*
X026319Y025821D01*
X026365Y025708D01*
X026424Y025650D01*
X026207Y025434D01*
X026095Y025480D01*
X025905Y025480D01*
X025728Y025407D01*
X025593Y025272D01*
X025520Y025095D01*
X025520Y024905D01*
X025593Y024728D01*
X025673Y024648D01*
X024327Y024648D01*
X024407Y024728D01*
X024480Y024905D01*
X024480Y025095D01*
X024407Y025272D01*
X024272Y025407D01*
X024095Y025480D01*
X023958Y025480D01*
X022173Y027265D01*
X022421Y027265D01*
X022470Y027314D01*
X022526Y027337D01*
X022713Y027524D01*
X022760Y027638D01*
X022760Y029372D01*
X023291Y029903D01*
X023341Y029903D01*
X023348Y029906D01*
X023537Y029906D01*
X023650Y029952D01*
X023736Y030039D01*
X023783Y030152D01*
X023783Y030274D01*
X023736Y030386D01*
X023650Y030473D01*
X023589Y030498D01*
X023589Y030715D01*
X023650Y030740D01*
X023736Y030826D01*
X023783Y030939D01*
X023783Y031061D01*
X023736Y031174D01*
X023650Y031260D01*
X023537Y031307D01*
X023348Y031307D01*
X023341Y031310D01*
X023217Y031310D01*
X023210Y031307D01*
X023021Y031307D01*
X022908Y031260D01*
X022822Y031174D01*
X022775Y031061D01*
X022775Y030939D01*
X022822Y030826D01*
X022908Y030740D01*
X022969Y030715D01*
X022969Y030498D01*
X022908Y030473D01*
X022822Y030386D01*
X022775Y030274D01*
X022775Y030264D01*
X022322Y029810D01*
X022108Y029810D01*
X022108Y029836D01*
X021986Y029958D01*
X021814Y029958D01*
X021692Y029836D01*
X021692Y029747D01*
X021690Y029746D01*
X021690Y029454D01*
X021754Y029390D01*
X022046Y029390D01*
X022050Y029394D01*
X022054Y029390D01*
X022140Y029390D01*
X022140Y027835D01*
X022079Y027835D01*
X022050Y027806D01*
X022016Y027840D01*
X021656Y027840D01*
X021520Y027977D01*
X021510Y029381D01*
X021510Y030187D01*
X021513Y030190D01*
X021510Y030253D01*
X021510Y030316D01*
X021507Y030319D01*
X021507Y030323D01*
X021502Y030327D01*
X021502Y030339D01*
X021438Y030404D01*
X021423Y030404D01*
X021416Y030410D01*
X021413Y030410D01*
X021410Y030413D01*
X021347Y030410D01*
X021284Y030410D01*
X021281Y030407D01*
X021189Y030404D01*
X021012Y030404D01*
X020947Y030339D01*
X020947Y030314D01*
X020940Y030306D01*
X020940Y030303D01*
X020937Y030300D01*
X020940Y030237D01*
X020945Y030312D02*
X020860Y030312D01*
X020860Y030115D02*
X020940Y030115D01*
X020940Y030016D02*
X020860Y030016D01*
X020860Y029918D02*
X020940Y029918D01*
X020940Y029819D02*
X020860Y029819D01*
X020860Y029721D02*
X020940Y029721D01*
X020940Y029622D02*
X020860Y029622D01*
X020860Y029524D02*
X020927Y029524D01*
X020829Y029425D02*
X020817Y029425D01*
X020740Y029327D02*
X020460Y029327D01*
X020460Y029228D02*
X020740Y029228D01*
X020740Y029130D02*
X020460Y029130D01*
X020446Y029031D02*
X020740Y029031D01*
X020740Y028933D02*
X020250Y028933D01*
X020261Y028834D02*
X020336Y028834D01*
X020336Y028736D02*
X020262Y028736D01*
X020262Y028637D02*
X020336Y028637D01*
X020336Y028539D02*
X020262Y028539D01*
X020102Y028674D02*
X020102Y028298D01*
X019950Y028046D02*
X019902Y028046D01*
X019940Y027948D02*
X019450Y027948D01*
X019450Y028046D02*
X019498Y028046D01*
X019490Y028145D02*
X019450Y028145D01*
X019450Y028243D02*
X019490Y028243D01*
X019490Y028342D02*
X019450Y028342D01*
X019450Y028440D02*
X019657Y028440D01*
X019694Y028539D02*
X019746Y028539D01*
X019940Y027849D02*
X019450Y027849D01*
X019450Y027751D02*
X019940Y027751D01*
X019992Y027652D02*
X019510Y027652D01*
X021469Y027455D02*
X021950Y027455D01*
X022180Y027258D02*
X022843Y027258D01*
X022822Y027237D02*
X022775Y027124D01*
X022775Y027002D01*
X022822Y026889D01*
X022908Y026803D01*
X023021Y026756D01*
X023537Y026756D01*
X023604Y026784D01*
X023650Y026738D01*
X023738Y026650D01*
X023789Y026650D01*
X023814Y026638D01*
X023823Y026641D01*
X023886Y026619D01*
X023914Y026592D01*
X023965Y026592D01*
X023990Y026583D01*
X024008Y026592D01*
X024032Y026592D01*
X024032Y026590D01*
X024034Y026582D01*
X024042Y026563D01*
X024042Y026514D01*
X024055Y026501D01*
X024003Y026449D01*
X023957Y026337D01*
X023957Y025821D01*
X024003Y025708D01*
X024090Y025622D01*
X024202Y025575D01*
X024324Y025575D01*
X024437Y025622D01*
X024524Y025708D01*
X024570Y025821D01*
X024570Y026337D01*
X024524Y026449D01*
X024458Y026515D01*
X024458Y026579D01*
X024467Y026623D01*
X024467Y026623D01*
X024467Y026623D01*
X024458Y026637D01*
X024458Y026686D01*
X024336Y026808D01*
X024208Y026808D01*
X024208Y026886D01*
X024086Y027008D01*
X024058Y027008D01*
X024058Y027075D01*
X024064Y027091D01*
X024058Y027101D01*
X024058Y027136D01*
X024020Y027175D01*
X024000Y027213D01*
X024000Y027262D01*
X023947Y027315D01*
X023929Y027350D01*
X023920Y027353D01*
X023914Y027361D01*
X023898Y027364D01*
X023887Y027375D01*
X023661Y027601D01*
X023736Y027677D01*
X023783Y027789D01*
X023783Y027911D01*
X023736Y028024D01*
X023650Y028111D01*
X023537Y028157D01*
X023021Y028157D01*
X022908Y028111D01*
X022822Y028024D01*
X022775Y027911D01*
X022775Y027789D01*
X022822Y027677D01*
X022908Y027590D01*
X023021Y027544D01*
X023294Y027544D01*
X023468Y027370D01*
X023021Y027370D01*
X022908Y027323D01*
X022822Y027237D01*
X022790Y027160D02*
X022279Y027160D01*
X022377Y027061D02*
X022775Y027061D01*
X022792Y026963D02*
X022476Y026963D01*
X022574Y026864D02*
X022847Y026864D01*
X022999Y026766D02*
X022673Y026766D01*
X022771Y026667D02*
X023721Y026667D01*
X023622Y026766D02*
X023560Y026766D01*
X023990Y026583D02*
X023990Y026583D01*
X023990Y026583D01*
X024040Y026569D02*
X022870Y026569D01*
X022968Y026470D02*
X024024Y026470D01*
X023971Y026372D02*
X023067Y026372D01*
X023165Y026273D02*
X023957Y026273D01*
X023957Y026175D02*
X023264Y026175D01*
X023362Y026076D02*
X023957Y026076D01*
X023957Y025978D02*
X023461Y025978D01*
X023559Y025879D02*
X023957Y025879D01*
X023973Y025781D02*
X023658Y025781D01*
X023756Y025682D02*
X024029Y025682D01*
X024182Y025584D02*
X023855Y025584D01*
X023953Y025485D02*
X026259Y025485D01*
X026357Y025584D02*
X025920Y025584D01*
X025899Y025575D02*
X026012Y025622D01*
X026098Y025708D01*
X026145Y025821D01*
X026145Y026337D01*
X026098Y026449D01*
X026012Y026536D01*
X026008Y026537D01*
X026008Y026594D01*
X026012Y026654D01*
X026008Y026658D01*
X026008Y026686D01*
X025886Y026808D01*
X025714Y026808D01*
X025592Y026686D01*
X025592Y026581D01*
X025585Y026559D01*
X025592Y026547D01*
X025592Y026514D01*
X025617Y026488D01*
X025578Y026449D01*
X025531Y026337D01*
X025531Y025821D01*
X025578Y025708D01*
X025664Y025622D01*
X025777Y025575D01*
X025899Y025575D01*
X025757Y025584D02*
X025132Y025584D01*
X025112Y025575D02*
X025225Y025622D01*
X025311Y025708D01*
X025358Y025821D01*
X025358Y026337D01*
X025311Y026449D01*
X025253Y026508D01*
X025258Y026514D01*
X025258Y026571D01*
X025269Y026608D01*
X025258Y026626D01*
X025258Y026686D01*
X025136Y026808D01*
X024964Y026808D01*
X024842Y026686D01*
X024842Y026624D01*
X024831Y026606D01*
X024842Y026570D01*
X024842Y026514D01*
X024848Y026507D01*
X024791Y026449D01*
X024744Y026337D01*
X024744Y025821D01*
X024791Y025708D01*
X024877Y025622D01*
X024990Y025575D01*
X025112Y025575D01*
X024969Y025584D02*
X024345Y025584D01*
X024497Y025682D02*
X024817Y025682D01*
X024761Y025781D02*
X024554Y025781D01*
X024570Y025879D02*
X024744Y025879D01*
X024744Y025978D02*
X024570Y025978D01*
X024570Y026076D02*
X024744Y026076D01*
X024744Y026175D02*
X024570Y026175D01*
X024570Y026273D02*
X024744Y026273D01*
X024758Y026372D02*
X024556Y026372D01*
X024503Y026470D02*
X024811Y026470D01*
X024842Y026569D02*
X024458Y026569D01*
X024458Y026667D02*
X024842Y026667D01*
X024921Y026766D02*
X024379Y026766D01*
X024297Y026590D02*
X024250Y026600D01*
X024205Y026583D01*
X024263Y026423D01*
X024297Y026590D01*
X024263Y026587D02*
X024250Y026600D01*
X024263Y026587D02*
X024263Y026423D01*
X024263Y026079D01*
X024208Y026864D02*
X034598Y026864D01*
X034696Y026766D02*
X026729Y026766D01*
X026808Y026667D02*
X034795Y026667D01*
X034739Y026470D02*
X035835Y026470D01*
X035782Y026372D02*
X034792Y026372D01*
X034806Y026273D02*
X035768Y026273D01*
X035768Y026175D02*
X034806Y026175D01*
X034806Y026076D02*
X035768Y026076D01*
X035768Y025978D02*
X034806Y025978D01*
X034806Y025879D02*
X035768Y025879D01*
X035784Y025781D02*
X034790Y025781D01*
X034734Y025682D02*
X035840Y025682D01*
X035924Y025584D02*
X034660Y025584D01*
X034660Y025485D02*
X035873Y025485D01*
X035708Y025387D02*
X035292Y025387D01*
X035391Y025288D02*
X035609Y025288D01*
X035559Y025190D02*
X035441Y025190D01*
X035480Y025091D02*
X035520Y025091D01*
X035520Y024993D02*
X035480Y024993D01*
X035476Y024894D02*
X035524Y024894D01*
X035565Y024796D02*
X035435Y024796D01*
X035376Y024697D02*
X035624Y024697D01*
X036376Y024697D02*
X036624Y024697D01*
X036565Y024796D02*
X036435Y024796D01*
X036476Y024894D02*
X036524Y024894D01*
X036520Y024993D02*
X036480Y024993D01*
X036480Y025091D02*
X036520Y025091D01*
X036559Y025190D02*
X036441Y025190D01*
X036391Y025288D02*
X036609Y025288D01*
X036708Y025387D02*
X036292Y025387D01*
X036224Y025485D02*
X036753Y025485D01*
X036800Y025438D02*
X036800Y025438D01*
X036712Y025584D02*
X036224Y025584D01*
X036308Y025682D02*
X036628Y025682D01*
X036572Y025781D02*
X036365Y025781D01*
X036381Y025879D02*
X036555Y025879D01*
X036555Y025978D02*
X036381Y025978D01*
X036381Y026076D02*
X036555Y026076D01*
X036555Y026175D02*
X036381Y026175D01*
X036381Y026273D02*
X036555Y026273D01*
X036569Y026372D02*
X036367Y026372D01*
X036314Y026470D02*
X036622Y026470D01*
X036767Y026569D02*
X036169Y026569D01*
X035980Y026569D02*
X034594Y026569D01*
X034405Y026569D02*
X033807Y026569D01*
X033952Y026470D02*
X034260Y026470D01*
X034207Y026372D02*
X034005Y026372D01*
X034019Y026273D02*
X034193Y026273D01*
X034193Y026175D02*
X034019Y026175D01*
X034019Y026076D02*
X034193Y026076D01*
X034193Y025978D02*
X034019Y025978D01*
X034019Y025879D02*
X034193Y025879D01*
X034209Y025781D02*
X034002Y025781D01*
X033946Y025682D02*
X034266Y025682D01*
X034340Y025584D02*
X033810Y025584D01*
X033711Y025485D02*
X034259Y025485D01*
X034500Y025500D02*
X034000Y025000D01*
X034441Y025190D02*
X034559Y025190D01*
X034520Y025091D02*
X034480Y025091D01*
X034480Y024993D02*
X034520Y024993D01*
X034524Y024894D02*
X034476Y024894D01*
X034435Y024796D02*
X034565Y024796D01*
X034624Y024697D02*
X034376Y024697D01*
X034514Y025288D02*
X034609Y025288D01*
X034613Y025387D02*
X034708Y025387D01*
X034500Y025500D02*
X034500Y026079D01*
X033712Y026079D02*
X033712Y025712D01*
X033000Y025000D01*
X033441Y025190D02*
X033559Y025190D01*
X033520Y025091D02*
X033480Y025091D01*
X033480Y024993D02*
X033520Y024993D01*
X033524Y024894D02*
X033476Y024894D01*
X033435Y024796D02*
X033565Y024796D01*
X033624Y024697D02*
X033376Y024697D01*
X033514Y025288D02*
X033609Y025288D01*
X033613Y025387D02*
X033708Y025387D01*
X033456Y025682D02*
X033159Y025682D01*
X033215Y025781D02*
X033422Y025781D01*
X033405Y025879D02*
X033232Y025879D01*
X033232Y025978D02*
X033405Y025978D01*
X033405Y026076D02*
X033232Y026076D01*
X033232Y026175D02*
X033405Y026175D01*
X033405Y026273D02*
X033232Y026273D01*
X033217Y026372D02*
X033420Y026372D01*
X033473Y026470D02*
X033164Y026470D01*
X033019Y026569D02*
X033618Y026569D01*
X032830Y026569D02*
X032232Y026569D01*
X032377Y026470D02*
X032685Y026470D01*
X032632Y026372D02*
X032430Y026372D01*
X032444Y026273D02*
X032618Y026273D01*
X032618Y026175D02*
X032444Y026175D01*
X032444Y026076D02*
X032618Y026076D01*
X032618Y025978D02*
X032444Y025978D01*
X032444Y025879D02*
X032618Y025879D01*
X032554Y025781D02*
X032428Y025781D01*
X032456Y025682D02*
X032371Y025682D01*
X032357Y025584D02*
X032219Y025584D01*
X032259Y025485D02*
X031711Y025485D01*
X031708Y025387D02*
X031613Y025387D01*
X031609Y025288D02*
X031514Y025288D01*
X031559Y025190D02*
X031441Y025190D01*
X031480Y025091D02*
X031520Y025091D01*
X031520Y024993D02*
X031480Y024993D01*
X031476Y024894D02*
X031524Y024894D01*
X031565Y024796D02*
X031435Y024796D01*
X031376Y024697D02*
X031624Y024697D01*
X032000Y025000D02*
X032925Y025925D01*
X032925Y026079D01*
X033006Y025584D02*
X033357Y025584D01*
X033259Y025485D02*
X032711Y025485D01*
X032708Y025387D02*
X032613Y025387D01*
X032609Y025288D02*
X032514Y025288D01*
X032559Y025190D02*
X032441Y025190D01*
X032480Y025091D02*
X032520Y025091D01*
X032520Y024993D02*
X032480Y024993D01*
X032476Y024894D02*
X032524Y024894D01*
X032565Y024796D02*
X032435Y024796D01*
X032376Y024697D02*
X032624Y024697D01*
X032810Y025584D02*
X032843Y025584D01*
X032056Y025584D02*
X031810Y025584D01*
X031751Y025978D02*
X031657Y025978D01*
X031657Y026076D02*
X031831Y026076D01*
X031831Y026175D02*
X031657Y026175D01*
X031657Y026273D02*
X031831Y026273D01*
X031845Y026372D02*
X031642Y026372D01*
X031590Y026470D02*
X031898Y026470D01*
X032043Y026569D02*
X031445Y026569D01*
X031255Y026569D02*
X030657Y026569D01*
X030802Y026470D02*
X031110Y026470D01*
X031058Y026372D02*
X030855Y026372D01*
X030869Y026273D02*
X031043Y026273D01*
X031043Y026175D02*
X030869Y026175D01*
X030869Y026076D02*
X031000Y026076D01*
X030901Y025978D02*
X030869Y025978D01*
X030563Y026079D02*
X030429Y026079D01*
X029900Y025550D01*
X029550Y025550D01*
X029000Y025000D01*
X028600Y025550D02*
X028050Y025000D01*
X028000Y025000D01*
X027800Y025550D02*
X027250Y025000D01*
X027000Y025000D01*
X026550Y025550D02*
X026000Y025000D01*
X025559Y025190D02*
X024441Y025190D01*
X024480Y025091D02*
X025520Y025091D01*
X025520Y024993D02*
X024480Y024993D01*
X024476Y024894D02*
X025524Y024894D01*
X025565Y024796D02*
X024435Y024796D01*
X024376Y024697D02*
X025624Y024697D01*
X025609Y025288D02*
X024391Y025288D01*
X024292Y025387D02*
X025708Y025387D01*
X025604Y025682D02*
X025285Y025682D01*
X025341Y025781D02*
X025548Y025781D01*
X025531Y025879D02*
X025358Y025879D01*
X025358Y025978D02*
X025531Y025978D01*
X025531Y026076D02*
X025358Y026076D01*
X025358Y026175D02*
X025531Y026175D01*
X025531Y026273D02*
X025358Y026273D01*
X025343Y026372D02*
X025546Y026372D01*
X025599Y026470D02*
X025290Y026470D01*
X025258Y026569D02*
X025588Y026569D01*
X025592Y026667D02*
X025258Y026667D01*
X025269Y026608D02*
X025269Y026608D01*
X025269Y026608D01*
X025097Y026587D02*
X025050Y026600D01*
X025003Y026587D01*
X025051Y026423D01*
X025097Y026587D01*
X025051Y026599D02*
X025050Y026600D01*
X025051Y026599D02*
X025051Y026423D01*
X025051Y026079D01*
X025179Y026766D02*
X025671Y026766D01*
X025757Y026577D02*
X025800Y026600D01*
X025848Y026597D01*
X025838Y026427D01*
X025757Y026577D01*
X025800Y026600D02*
X025838Y026562D01*
X025838Y026427D01*
X025838Y026079D01*
X026145Y026076D02*
X026319Y026076D01*
X026319Y025978D02*
X026145Y025978D01*
X026145Y025879D02*
X026319Y025879D01*
X026335Y025781D02*
X026128Y025781D01*
X026072Y025682D02*
X026392Y025682D01*
X026550Y025550D02*
X027550Y025550D01*
X028079Y026079D01*
X028200Y026079D01*
X028507Y026076D02*
X028650Y026076D01*
X028681Y026175D02*
X028507Y026175D01*
X028507Y026273D02*
X028681Y026273D01*
X028695Y026372D02*
X028493Y026372D01*
X028440Y026470D02*
X028748Y026470D01*
X028893Y026569D02*
X028295Y026569D01*
X028106Y026569D02*
X026808Y026569D01*
X026865Y026470D02*
X027961Y026470D01*
X027908Y026372D02*
X026918Y026372D01*
X026932Y026273D02*
X027894Y026273D01*
X027894Y026175D02*
X026932Y026175D01*
X026932Y026076D02*
X027850Y026076D01*
X027751Y025978D02*
X026932Y025978D01*
X026932Y025879D02*
X027653Y025879D01*
X027554Y025781D02*
X026916Y025781D01*
X026626Y026079D02*
X026626Y026425D01*
X026556Y026580D01*
X026600Y026600D01*
X026648Y026594D01*
X026626Y026425D01*
X026626Y026574D01*
X026600Y026600D01*
X026471Y026766D02*
X025929Y026766D01*
X026008Y026667D02*
X026392Y026667D01*
X026383Y026575D02*
X026383Y026575D01*
X026386Y026569D02*
X026008Y026569D01*
X026012Y026654D02*
X026012Y026654D01*
X026012Y026654D01*
X026078Y026470D02*
X026386Y026470D01*
X026333Y026372D02*
X026131Y026372D01*
X026145Y026273D02*
X026319Y026273D01*
X026319Y026175D02*
X026145Y026175D01*
X027800Y025550D02*
X028350Y025550D01*
X028879Y026079D01*
X028988Y026079D01*
X029295Y026076D02*
X029400Y026076D01*
X029468Y026175D02*
X029295Y026175D01*
X029295Y026273D02*
X029468Y026273D01*
X029483Y026372D02*
X029280Y026372D01*
X029227Y026470D02*
X029536Y026470D01*
X029681Y026569D02*
X029082Y026569D01*
X029295Y025978D02*
X029301Y025978D01*
X029629Y026079D02*
X029100Y025550D01*
X028600Y025550D01*
X028551Y025978D02*
X028507Y025978D01*
X029629Y026079D02*
X029775Y026079D01*
X030082Y026076D02*
X030200Y026076D01*
X030256Y026175D02*
X030082Y026175D01*
X030082Y026273D02*
X030256Y026273D01*
X030270Y026372D02*
X030068Y026372D01*
X030015Y026470D02*
X030323Y026470D01*
X030468Y026569D02*
X029870Y026569D01*
X030082Y025978D02*
X030101Y025978D01*
X030550Y025550D02*
X030000Y025000D01*
X030550Y025550D02*
X030700Y025550D01*
X031229Y026079D01*
X031350Y026079D01*
X032079Y026079D02*
X031000Y025000D01*
X032079Y026079D02*
X032137Y026079D01*
X033711Y027751D02*
X023767Y027751D01*
X023783Y027849D02*
X033613Y027849D01*
X033514Y027948D02*
X023768Y027948D01*
X023714Y028046D02*
X033416Y028046D01*
X033317Y028145D02*
X023568Y028145D01*
X023537Y028331D02*
X023021Y028331D01*
X022908Y028378D01*
X022822Y028464D01*
X022775Y028577D01*
X022775Y028699D01*
X022822Y028812D01*
X022908Y028898D01*
X023021Y028945D01*
X023537Y028945D01*
X023650Y028898D01*
X023683Y028865D01*
X023690Y028867D01*
X023690Y028867D01*
X023690Y028867D01*
X023708Y028858D01*
X023786Y028858D01*
X023908Y028736D01*
X023908Y028564D01*
X023786Y028442D01*
X023714Y028442D01*
X023650Y028378D01*
X023537Y028331D01*
X023563Y028342D02*
X033120Y028342D01*
X033022Y028440D02*
X023712Y028440D01*
X023883Y028539D02*
X032923Y028539D01*
X032825Y028637D02*
X023908Y028637D01*
X023908Y028736D02*
X032726Y028736D01*
X032628Y028834D02*
X023811Y028834D01*
X023566Y028933D02*
X032529Y028933D01*
X032431Y029031D02*
X022760Y029031D01*
X022760Y028933D02*
X022992Y028933D01*
X022845Y028834D02*
X022760Y028834D01*
X022760Y028736D02*
X022791Y028736D01*
X022775Y028637D02*
X022760Y028637D01*
X022760Y028539D02*
X022791Y028539D01*
X022760Y028440D02*
X022846Y028440D01*
X022760Y028342D02*
X022996Y028342D01*
X022991Y028145D02*
X022760Y028145D01*
X022760Y028243D02*
X033219Y028243D01*
X033701Y028637D02*
X037850Y028637D01*
X037850Y028539D02*
X033800Y028539D01*
X033898Y028440D02*
X037850Y028440D01*
X037850Y028342D02*
X033997Y028342D01*
X034095Y028243D02*
X037850Y028243D01*
X037850Y028145D02*
X034194Y028145D01*
X034292Y028046D02*
X037850Y028046D01*
X037850Y027948D02*
X034391Y027948D01*
X034489Y027849D02*
X037939Y027849D01*
X038037Y027751D02*
X034588Y027751D01*
X034686Y027652D02*
X038136Y027652D01*
X038234Y027554D02*
X034785Y027554D01*
X034883Y027455D02*
X038333Y027455D01*
X038431Y027357D02*
X034982Y027357D01*
X035080Y027258D02*
X038530Y027258D01*
X038628Y027160D02*
X035179Y027160D01*
X035269Y027061D02*
X038727Y027061D01*
X038825Y026963D02*
X035310Y026963D01*
X035310Y026864D02*
X038989Y026864D01*
X039140Y026766D02*
X035280Y026766D01*
X035205Y026667D02*
X041665Y026667D01*
X041665Y026569D02*
X038531Y026569D01*
X038676Y026470D02*
X040597Y026470D01*
X040494Y026372D02*
X038729Y026372D01*
X038743Y026273D02*
X040418Y026273D01*
X040377Y026175D02*
X038743Y026175D01*
X038743Y026076D02*
X040350Y026076D01*
X040350Y025978D02*
X038743Y025978D01*
X038783Y025879D02*
X040355Y025879D01*
X040396Y025781D02*
X038882Y025781D01*
X038980Y025682D02*
X040440Y025682D01*
X040539Y025584D02*
X039079Y025584D01*
X039150Y025485D02*
X040706Y025485D01*
X040708Y025387D02*
X039292Y025387D01*
X039391Y025288D02*
X040609Y025288D01*
X040559Y025190D02*
X039441Y025190D01*
X039480Y025091D02*
X040520Y025091D01*
X040520Y024993D02*
X039480Y024993D01*
X039476Y024894D02*
X040524Y024894D01*
X040565Y024796D02*
X039435Y024796D01*
X039376Y024697D02*
X040624Y024697D01*
X041376Y024697D02*
X041624Y024697D01*
X041565Y024796D02*
X041435Y024796D01*
X041476Y024894D02*
X041524Y024894D01*
X041520Y024993D02*
X041480Y024993D01*
X041480Y025091D02*
X041520Y025091D01*
X041559Y025190D02*
X041441Y025190D01*
X041391Y025288D02*
X041609Y025288D01*
X041708Y025387D02*
X041292Y025387D01*
X041261Y025584D02*
X042215Y025584D01*
X042215Y025682D02*
X041360Y025682D01*
X041404Y025781D02*
X042116Y025781D01*
X042018Y025879D02*
X041445Y025879D01*
X041450Y025978D02*
X041919Y025978D01*
X041821Y026076D02*
X041450Y026076D01*
X041423Y026175D02*
X041722Y026175D01*
X041665Y026273D02*
X041382Y026273D01*
X041306Y026372D02*
X041665Y026372D01*
X041665Y026470D02*
X041203Y026470D01*
X041665Y026766D02*
X039701Y026766D01*
X039853Y026864D02*
X041633Y026864D01*
X041534Y026963D02*
X039908Y026963D01*
X039925Y027061D02*
X041436Y027061D01*
X041337Y027160D02*
X039910Y027160D01*
X039857Y027258D02*
X041239Y027258D01*
X041140Y027357D02*
X039711Y027357D01*
X039131Y027357D02*
X038856Y027357D01*
X038757Y027455D02*
X041042Y027455D01*
X040943Y027554D02*
X038659Y027554D01*
X038560Y027652D02*
X040845Y027652D01*
X040746Y027751D02*
X038462Y027751D01*
X038363Y027849D02*
X040648Y027849D01*
X040549Y027948D02*
X038265Y027948D01*
X038166Y028046D02*
X040451Y028046D01*
X040352Y028145D02*
X038150Y028145D01*
X038150Y028243D02*
X040254Y028243D01*
X040155Y028342D02*
X039704Y028342D01*
X039854Y028440D02*
X040057Y028440D01*
X039958Y028539D02*
X039909Y028539D01*
X039557Y029031D02*
X038150Y029031D01*
X038150Y028933D02*
X039134Y028933D01*
X038986Y028834D02*
X038150Y028834D01*
X038150Y028736D02*
X038932Y028736D01*
X038917Y028637D02*
X038150Y028637D01*
X038150Y028539D02*
X038933Y028539D01*
X038988Y028440D02*
X038150Y028440D01*
X038150Y028342D02*
X039137Y028342D01*
X039136Y029130D02*
X038150Y029130D01*
X038150Y029228D02*
X038987Y029228D01*
X038933Y029327D02*
X038150Y029327D01*
X038150Y029425D02*
X038917Y029425D01*
X038933Y029524D02*
X038150Y029524D01*
X038150Y029622D02*
X038987Y029622D01*
X039135Y029721D02*
X038150Y029721D01*
X038150Y029819D02*
X042273Y029819D01*
X042273Y029721D02*
X039707Y029721D01*
X039855Y029622D02*
X042273Y029622D01*
X042273Y029524D02*
X039909Y029524D01*
X039925Y029425D02*
X042273Y029425D01*
X042273Y029327D02*
X039909Y029327D01*
X040075Y029228D02*
X042273Y029228D01*
X042273Y029130D02*
X040174Y029130D01*
X040272Y029031D02*
X042273Y029031D01*
X042273Y028933D02*
X040371Y028933D01*
X040469Y028834D02*
X042273Y028834D01*
X042273Y028736D02*
X040568Y028736D01*
X040666Y028637D02*
X042273Y028637D01*
X042273Y028539D02*
X040765Y028539D01*
X040863Y028440D02*
X042273Y028440D01*
X042273Y028342D02*
X040962Y028342D01*
X041060Y028243D02*
X042273Y028243D01*
X042273Y028145D02*
X041159Y028145D01*
X041257Y028046D02*
X042273Y028046D01*
X042273Y027948D02*
X041356Y027948D01*
X041454Y027849D02*
X042273Y027849D01*
X042273Y027751D02*
X041553Y027751D01*
X041651Y027652D02*
X044352Y027652D01*
X044352Y027554D02*
X043700Y027554D01*
X043776Y027522D02*
X043489Y027641D01*
X043180Y027641D01*
X042894Y027522D01*
X042675Y027303D01*
X042556Y027017D01*
X042556Y026707D01*
X042675Y026421D01*
X042894Y026202D01*
X043180Y026084D01*
X043489Y026084D01*
X043776Y026202D01*
X043994Y026421D01*
X044113Y026707D01*
X044113Y027017D01*
X043994Y027303D01*
X043776Y027522D01*
X043843Y027455D02*
X044352Y027455D01*
X044352Y027357D02*
X043941Y027357D01*
X044013Y027258D02*
X044352Y027258D01*
X044352Y027160D02*
X044054Y027160D01*
X044095Y027061D02*
X044352Y027061D01*
X044352Y026963D02*
X044113Y026963D01*
X044113Y026864D02*
X044352Y026864D01*
X044352Y026766D02*
X044113Y026766D01*
X044096Y026667D02*
X044352Y026667D01*
X044352Y026569D02*
X044055Y026569D01*
X044015Y026470D02*
X044352Y026470D01*
X044352Y026372D02*
X043945Y026372D01*
X043846Y026273D02*
X044352Y026273D01*
X044352Y026175D02*
X043708Y026175D01*
X044352Y026076D02*
X042627Y026076D01*
X042529Y026175D02*
X042961Y026175D01*
X042823Y026273D02*
X042430Y026273D01*
X042332Y026372D02*
X042725Y026372D01*
X042655Y026470D02*
X042235Y026470D01*
X042235Y026569D02*
X042614Y026569D01*
X042573Y026667D02*
X042235Y026667D01*
X042235Y026766D02*
X042556Y026766D01*
X042556Y026864D02*
X042235Y026864D01*
X042235Y026963D02*
X042556Y026963D01*
X042575Y027061D02*
X042235Y027061D01*
X042144Y027160D02*
X042615Y027160D01*
X042656Y027258D02*
X042045Y027258D01*
X041947Y027357D02*
X042728Y027357D01*
X042827Y027455D02*
X041848Y027455D01*
X041750Y027554D02*
X042970Y027554D01*
X042726Y025978D02*
X044352Y025978D01*
X044352Y025879D02*
X042785Y025879D01*
X042785Y025781D02*
X044352Y025781D01*
X044352Y025682D02*
X042785Y025682D01*
X042785Y025584D02*
X044352Y025584D01*
X044352Y025485D02*
X042785Y025485D01*
X043292Y025387D02*
X044352Y025387D01*
X044352Y025288D02*
X043391Y025288D01*
X043441Y025190D02*
X044352Y025190D01*
X044352Y025091D02*
X043480Y025091D01*
X043480Y024993D02*
X044352Y024993D01*
X044352Y024894D02*
X043476Y024894D01*
X043435Y024796D02*
X044352Y024796D01*
X044352Y024697D02*
X043376Y024697D01*
X042215Y025485D02*
X041094Y025485D01*
X038753Y025485D02*
X038127Y025485D01*
X038029Y025584D02*
X038355Y025584D01*
X038518Y025584D02*
X038654Y025584D01*
X038708Y025387D02*
X038292Y025387D01*
X038391Y025288D02*
X038609Y025288D01*
X038559Y025190D02*
X038441Y025190D01*
X038480Y025091D02*
X038520Y025091D01*
X038520Y024993D02*
X038480Y024993D01*
X038476Y024894D02*
X038524Y024894D01*
X038565Y024796D02*
X038435Y024796D01*
X038376Y024697D02*
X038624Y024697D01*
X037624Y024697D02*
X037376Y024697D01*
X037435Y024796D02*
X037565Y024796D01*
X037524Y024894D02*
X037476Y024894D01*
X037480Y024993D02*
X037520Y024993D01*
X037520Y025091D02*
X037480Y025091D01*
X037441Y025190D02*
X037559Y025190D01*
X037609Y025288D02*
X037391Y025288D01*
X037292Y025387D02*
X037708Y025387D01*
X037703Y025485D02*
X037150Y025485D01*
X037079Y025584D02*
X037568Y025584D01*
X037415Y025682D02*
X037096Y025682D01*
X037062Y025600D02*
X037062Y025600D01*
X037152Y025781D02*
X037359Y025781D01*
X037342Y025879D02*
X037169Y025879D01*
X037169Y025978D02*
X037342Y025978D01*
X037342Y026076D02*
X037169Y026076D01*
X037169Y026175D02*
X037342Y026175D01*
X037342Y026273D02*
X037169Y026273D01*
X037154Y026372D02*
X037357Y026372D01*
X037410Y026470D02*
X037101Y026470D01*
X036956Y026569D02*
X037555Y026569D01*
X037744Y026569D02*
X038342Y026569D01*
X038197Y026470D02*
X037889Y026470D01*
X037942Y026372D02*
X038144Y026372D01*
X038130Y026273D02*
X037956Y026273D01*
X037956Y026175D02*
X038130Y026175D01*
X038130Y026076D02*
X037956Y026076D01*
X037956Y025978D02*
X038130Y025978D01*
X038130Y025879D02*
X037956Y025879D01*
X037939Y025781D02*
X038146Y025781D01*
X038203Y025682D02*
X037930Y025682D01*
X038954Y027258D02*
X038985Y027258D01*
X037850Y028736D02*
X033603Y028736D01*
X033504Y028834D02*
X037850Y028834D01*
X037850Y028933D02*
X033406Y028933D01*
X033307Y029031D02*
X037850Y029031D01*
X037850Y029130D02*
X033209Y029130D01*
X033110Y029228D02*
X037850Y029228D01*
X037850Y029327D02*
X033012Y029327D01*
X032913Y029425D02*
X037850Y029425D01*
X037850Y029524D02*
X032815Y029524D01*
X032716Y029622D02*
X037850Y029622D01*
X037850Y029721D02*
X032618Y029721D01*
X032519Y029819D02*
X037850Y029819D01*
X037850Y029918D02*
X032421Y029918D01*
X032322Y030016D02*
X037850Y030016D01*
X037850Y030115D02*
X032224Y030115D01*
X032125Y030213D02*
X037850Y030213D01*
X037850Y030312D02*
X032027Y030312D01*
X031928Y030410D02*
X037850Y030410D01*
X037850Y030509D02*
X031830Y030509D01*
X031731Y030607D02*
X037850Y030607D01*
X037850Y030706D02*
X031633Y030706D01*
X031534Y030804D02*
X037850Y030804D01*
X037850Y030903D02*
X031436Y030903D01*
X031337Y031001D02*
X037850Y031001D01*
X037850Y031100D02*
X031239Y031100D01*
X031140Y031198D02*
X037850Y031198D01*
X037850Y031297D02*
X031042Y031297D01*
X030943Y031395D02*
X037850Y031395D01*
X037850Y031494D02*
X030845Y031494D01*
X030746Y031592D02*
X037663Y031592D01*
X037592Y031691D02*
X030648Y031691D01*
X030549Y031789D02*
X037592Y031789D01*
X037642Y031888D02*
X030451Y031888D01*
X030352Y031986D02*
X037700Y031986D01*
X037700Y032085D02*
X031817Y032085D01*
X031916Y032183D02*
X037700Y032183D01*
X037700Y032282D02*
X032014Y032282D01*
X032113Y032380D02*
X037700Y032380D01*
X037700Y032479D02*
X032211Y032479D01*
X032310Y032577D02*
X037700Y032577D01*
X037700Y032676D02*
X032408Y032676D01*
X032507Y032774D02*
X037700Y032774D01*
X037700Y032873D02*
X032605Y032873D01*
X032704Y032971D02*
X037700Y032971D01*
X037700Y033070D02*
X032802Y033070D01*
X032901Y033168D02*
X037700Y033168D01*
X037700Y033267D02*
X032999Y033267D01*
X033098Y033365D02*
X037700Y033365D01*
X037700Y033464D02*
X033196Y033464D01*
X033295Y033562D02*
X037700Y033562D01*
X037700Y033661D02*
X033393Y033661D01*
X033492Y033759D02*
X037700Y033759D01*
X037700Y033858D02*
X033590Y033858D01*
X033689Y033956D02*
X037700Y033956D01*
X037700Y034055D02*
X033787Y034055D01*
X033886Y034153D02*
X037700Y034153D01*
X037700Y034252D02*
X033984Y034252D01*
X034083Y034350D02*
X037700Y034350D01*
X037700Y034449D02*
X034181Y034449D01*
X034280Y034547D02*
X037700Y034547D01*
X037783Y034646D02*
X034378Y034646D01*
X034477Y034744D02*
X037882Y034744D01*
X037980Y034843D02*
X034575Y034843D01*
X034674Y034941D02*
X038079Y034941D01*
X038177Y035040D02*
X034772Y035040D01*
X034871Y035138D02*
X038276Y035138D01*
X038374Y035237D02*
X034969Y035237D01*
X035068Y035335D02*
X035120Y035335D01*
X035480Y035335D02*
X038473Y035335D01*
X038571Y035434D02*
X036174Y035434D01*
X036316Y035532D02*
X038670Y035532D01*
X038768Y035631D02*
X036368Y035631D01*
X036381Y035729D02*
X038867Y035729D01*
X038965Y035828D02*
X036381Y035828D01*
X036381Y035926D02*
X039064Y035926D01*
X039294Y035532D02*
X040950Y035532D01*
X040950Y035434D02*
X039196Y035434D01*
X039097Y035335D02*
X040983Y035335D01*
X041024Y035237D02*
X038999Y035237D01*
X038900Y035138D02*
X041109Y035138D01*
X041235Y035040D02*
X038802Y035040D01*
X038703Y034941D02*
X042273Y034941D01*
X042273Y034843D02*
X038605Y034843D01*
X038506Y034744D02*
X040027Y034744D01*
X039866Y034646D02*
X038408Y034646D01*
X038309Y034547D02*
X039810Y034547D01*
X039760Y034449D02*
X039698Y034449D01*
X039144Y034449D02*
X038211Y034449D01*
X038150Y034350D02*
X038990Y034350D01*
X038934Y034252D02*
X038150Y034252D01*
X038150Y034153D02*
X038917Y034153D01*
X038931Y034055D02*
X038150Y034055D01*
X038150Y033956D02*
X038984Y033956D01*
X039127Y033858D02*
X038150Y033858D01*
X038150Y033759D02*
X042273Y033759D01*
X042273Y033661D02*
X038150Y033661D01*
X038150Y033562D02*
X042273Y033562D01*
X042273Y033464D02*
X038150Y033464D01*
X038150Y033365D02*
X042273Y033365D01*
X042273Y033267D02*
X038150Y033267D01*
X038150Y033168D02*
X042273Y033168D01*
X042273Y033070D02*
X038150Y033070D01*
X038150Y032971D02*
X042273Y032971D01*
X042273Y032873D02*
X038150Y032873D01*
X038150Y032774D02*
X042273Y032774D01*
X042273Y032676D02*
X038150Y032676D01*
X038150Y032577D02*
X042273Y032577D01*
X042273Y032479D02*
X038150Y032479D01*
X038150Y032380D02*
X042273Y032380D01*
X042273Y032282D02*
X038150Y032282D01*
X038150Y032183D02*
X042273Y032183D01*
X042273Y032085D02*
X039702Y032085D01*
X039679Y032094D02*
X039163Y032094D01*
X039050Y032048D01*
X038979Y031976D01*
X038964Y031981D01*
X038936Y032008D01*
X038885Y032008D01*
X038860Y032017D01*
X038860Y032017D01*
X038860Y032017D01*
X038842Y032008D01*
X038764Y032008D01*
X038642Y031886D01*
X038642Y031714D01*
X038764Y031592D01*
X038842Y031592D01*
X038860Y031583D01*
X038860Y031583D01*
X038860Y031583D01*
X038885Y031592D01*
X038936Y031592D01*
X038962Y031618D01*
X038964Y031614D01*
X039050Y031527D01*
X039163Y031481D01*
X039679Y031481D01*
X039792Y031527D01*
X039878Y031614D01*
X039925Y031726D01*
X039925Y031848D01*
X039878Y031961D01*
X039792Y032048D01*
X039679Y032094D01*
X039853Y031986D02*
X042273Y031986D01*
X042273Y031888D02*
X039908Y031888D01*
X039925Y031789D02*
X042273Y031789D01*
X042273Y031691D02*
X039910Y031691D01*
X039856Y031592D02*
X042273Y031592D01*
X042273Y031494D02*
X039710Y031494D01*
X039679Y031307D02*
X039163Y031307D01*
X039050Y031260D01*
X038969Y031179D01*
X038964Y031181D01*
X038936Y031208D01*
X038885Y031208D01*
X038860Y031217D01*
X038860Y031217D01*
X038860Y031217D01*
X038842Y031208D01*
X038764Y031208D01*
X038642Y031086D01*
X038642Y030914D01*
X038764Y030792D01*
X038842Y030792D01*
X038860Y030783D01*
X038885Y030792D01*
X038936Y030792D01*
X038964Y030819D01*
X038969Y030821D01*
X039050Y030740D01*
X039163Y030693D01*
X039679Y030693D01*
X039792Y030740D01*
X039878Y030826D01*
X039925Y030939D01*
X039925Y031061D01*
X039878Y031174D01*
X039792Y031260D01*
X039679Y031307D01*
X039704Y031297D02*
X042273Y031297D01*
X042273Y031395D02*
X038150Y031395D01*
X038150Y031297D02*
X039138Y031297D01*
X038988Y031198D02*
X038947Y031198D01*
X038753Y031198D02*
X038150Y031198D01*
X038150Y031100D02*
X038655Y031100D01*
X038642Y031001D02*
X038150Y031001D01*
X038150Y030903D02*
X038653Y030903D01*
X038751Y030804D02*
X038150Y030804D01*
X038150Y030706D02*
X039133Y030706D01*
X038986Y030804D02*
X038949Y030804D01*
X038860Y030783D02*
X038860Y030783D01*
X038150Y030607D02*
X042273Y030607D01*
X042273Y030509D02*
X038150Y030509D01*
X038150Y030410D02*
X042273Y030410D01*
X042273Y030312D02*
X038150Y030312D01*
X038150Y030213D02*
X042273Y030213D01*
X042273Y030115D02*
X038150Y030115D01*
X038150Y030016D02*
X042273Y030016D01*
X042273Y029918D02*
X038150Y029918D01*
X039709Y030706D02*
X042273Y030706D01*
X042273Y030804D02*
X039856Y030804D01*
X039909Y030903D02*
X042273Y030903D01*
X042273Y031001D02*
X039925Y031001D01*
X039909Y031100D02*
X042273Y031100D01*
X042273Y031198D02*
X039854Y031198D01*
X039132Y031494D02*
X038150Y031494D01*
X038150Y031592D02*
X038763Y031592D01*
X038665Y031691D02*
X038150Y031691D01*
X038150Y031789D02*
X038642Y031789D01*
X038643Y031888D02*
X038150Y031888D01*
X038150Y031986D02*
X038741Y031986D01*
X038959Y031986D02*
X038989Y031986D01*
X039139Y032085D02*
X038150Y032085D01*
X038937Y031592D02*
X038985Y031592D01*
X039714Y033858D02*
X042273Y033858D01*
X042273Y033956D02*
X039998Y033956D01*
X040122Y034028D02*
X040122Y034028D01*
X040122Y034028D01*
X040138Y034055D02*
X042273Y034055D01*
X042273Y034153D02*
X040194Y034153D01*
X040240Y034252D02*
X042273Y034252D01*
X041879Y034744D02*
X040448Y034744D01*
X040843Y035631D02*
X040950Y035631D01*
X040941Y035729D02*
X040989Y035729D01*
X041237Y036025D02*
X041269Y036025D01*
X041335Y036123D02*
X044352Y036123D01*
X044352Y036025D02*
X041731Y036025D01*
X041877Y035926D02*
X044352Y035926D01*
X044352Y035828D02*
X041970Y035828D01*
X042011Y035729D02*
X044352Y035729D01*
X044352Y036222D02*
X041434Y036222D01*
X041532Y036320D02*
X044352Y036320D01*
X044352Y036419D02*
X041631Y036419D01*
X041729Y036517D02*
X044352Y036517D01*
X044352Y036616D02*
X043294Y036616D01*
X043393Y036714D02*
X044352Y036714D01*
X044352Y036813D02*
X043442Y036813D01*
X043480Y036911D02*
X044352Y036911D01*
X044352Y037010D02*
X043480Y037010D01*
X043475Y037108D02*
X044352Y037108D01*
X044352Y037207D02*
X043434Y037207D01*
X043374Y037305D02*
X044352Y037305D01*
X042626Y037305D02*
X042374Y037305D01*
X042434Y037207D02*
X042566Y037207D01*
X042525Y037108D02*
X042475Y037108D01*
X042480Y037010D02*
X042520Y037010D01*
X042520Y036911D02*
X042480Y036911D01*
X042442Y036813D02*
X042558Y036813D01*
X042607Y036714D02*
X042393Y036714D01*
X042294Y036616D02*
X042706Y036616D01*
X042273Y035631D02*
X042050Y035631D01*
X042050Y035532D02*
X042273Y035532D01*
X042273Y035434D02*
X042050Y035434D01*
X042017Y035335D02*
X042273Y035335D01*
X042273Y035237D02*
X041976Y035237D01*
X041891Y035138D02*
X042273Y035138D01*
X042273Y035040D02*
X041765Y035040D01*
X040711Y036123D02*
X036381Y036123D01*
X036381Y036025D02*
X040612Y036025D01*
X040809Y036222D02*
X036364Y036222D01*
X036306Y036320D02*
X040900Y036320D01*
X040900Y036419D02*
X039631Y036419D01*
X039729Y036517D02*
X040900Y036517D01*
X040706Y036616D02*
X040294Y036616D01*
X040393Y036714D02*
X040607Y036714D01*
X040558Y036813D02*
X040442Y036813D01*
X040480Y036911D02*
X040520Y036911D01*
X040520Y037010D02*
X040480Y037010D01*
X040475Y037108D02*
X040525Y037108D01*
X040566Y037207D02*
X040434Y037207D01*
X040374Y037305D02*
X040626Y037305D01*
X036055Y036517D02*
X035100Y036517D01*
X035100Y036419D02*
X035210Y036419D01*
X035364Y036419D02*
X035956Y036419D01*
X035842Y036320D02*
X035519Y036320D01*
X035576Y036222D02*
X035785Y036222D01*
X035768Y036123D02*
X035594Y036123D01*
X035594Y036025D02*
X035768Y036025D01*
X035768Y035926D02*
X035594Y035926D01*
X035594Y035828D02*
X035768Y035828D01*
X035768Y035729D02*
X035594Y035729D01*
X035580Y035631D02*
X035781Y035631D01*
X035833Y035532D02*
X035529Y035532D01*
X035516Y035476D02*
X035516Y035476D01*
X035508Y035434D02*
X035975Y035434D01*
X035706Y036616D02*
X035294Y036616D01*
X035393Y036714D02*
X035607Y036714D01*
X035558Y036813D02*
X035442Y036813D01*
X035480Y036911D02*
X035520Y036911D01*
X035520Y037010D02*
X035480Y037010D01*
X035475Y037108D02*
X035525Y037108D01*
X035566Y037207D02*
X035434Y037207D01*
X035374Y037305D02*
X035626Y037305D01*
X030067Y031395D02*
X022240Y031395D01*
X022338Y031494D02*
X022656Y031494D01*
X022510Y031592D02*
X022358Y031592D01*
X022354Y031691D02*
X022411Y031691D01*
X022060Y031395D02*
X021260Y031395D01*
X021260Y031297D02*
X022996Y031297D01*
X022846Y031198D02*
X021260Y031198D01*
X021260Y031100D02*
X022791Y031100D01*
X022775Y031001D02*
X021207Y031001D01*
X021049Y030903D02*
X022791Y030903D01*
X022844Y030804D02*
X020951Y030804D01*
X020852Y030706D02*
X022969Y030706D01*
X022969Y030607D02*
X020754Y030607D01*
X020655Y030509D02*
X022969Y030509D01*
X022846Y030410D02*
X021413Y030410D01*
X021347Y030410D02*
X020557Y030410D01*
X021510Y030312D02*
X022791Y030312D01*
X022725Y030213D02*
X021512Y030213D01*
X021510Y030115D02*
X022626Y030115D01*
X022528Y030016D02*
X021510Y030016D01*
X021510Y029918D02*
X021773Y029918D01*
X021692Y029819D02*
X021510Y029819D01*
X021510Y029721D02*
X021690Y029721D01*
X021690Y029622D02*
X021510Y029622D01*
X021510Y029524D02*
X021690Y029524D01*
X021719Y029425D02*
X021510Y029425D01*
X021510Y029327D02*
X022140Y029327D01*
X022140Y029228D02*
X021511Y029228D01*
X021512Y029130D02*
X022140Y029130D01*
X022140Y029031D02*
X021512Y029031D01*
X021513Y028933D02*
X022140Y028933D01*
X022140Y028834D02*
X021514Y028834D01*
X021514Y028736D02*
X022140Y028736D01*
X022140Y028637D02*
X021515Y028637D01*
X021516Y028539D02*
X022140Y028539D01*
X022140Y028440D02*
X021516Y028440D01*
X021517Y028342D02*
X022140Y028342D01*
X022140Y028243D02*
X021518Y028243D01*
X021518Y028145D02*
X022140Y028145D01*
X022140Y028046D02*
X021519Y028046D01*
X021549Y027948D02*
X022140Y027948D01*
X022140Y027849D02*
X021647Y027849D01*
X022545Y027357D02*
X022989Y027357D01*
X022997Y027554D02*
X022725Y027554D01*
X022760Y027652D02*
X022847Y027652D01*
X022792Y027751D02*
X022760Y027751D01*
X022760Y027849D02*
X022775Y027849D01*
X022760Y027948D02*
X022790Y027948D01*
X022760Y028046D02*
X022844Y028046D01*
X022643Y027455D02*
X023383Y027455D01*
X023709Y027554D02*
X033908Y027554D01*
X033810Y027652D02*
X023712Y027652D01*
X023807Y027455D02*
X034007Y027455D01*
X034105Y027357D02*
X023917Y027357D01*
X024000Y027258D02*
X034204Y027258D01*
X034302Y027160D02*
X024035Y027160D01*
X024064Y027091D02*
X024064Y027091D01*
X024064Y027091D01*
X024058Y027061D02*
X034401Y027061D01*
X034499Y026963D02*
X024132Y026963D01*
X022880Y025682D02*
X021960Y025682D01*
X022004Y025781D02*
X022781Y025781D01*
X022683Y025879D02*
X022045Y025879D01*
X022050Y025978D02*
X022584Y025978D01*
X022486Y026076D02*
X022050Y026076D01*
X022023Y026175D02*
X022387Y026175D01*
X022289Y026273D02*
X021982Y026273D01*
X021906Y026372D02*
X022190Y026372D01*
X022092Y026470D02*
X021803Y026470D01*
X021861Y025584D02*
X022978Y025584D01*
X023077Y025485D02*
X021694Y025485D01*
X021708Y025387D02*
X021292Y025387D01*
X021391Y025288D02*
X021609Y025288D01*
X021559Y025190D02*
X021441Y025190D01*
X021480Y025091D02*
X021520Y025091D01*
X021520Y024993D02*
X021480Y024993D01*
X021476Y024894D02*
X021524Y024894D01*
X021565Y024796D02*
X021435Y024796D01*
X021376Y024697D02*
X021624Y024697D01*
X022376Y024697D02*
X022624Y024697D01*
X022565Y024796D02*
X022435Y024796D01*
X022476Y024894D02*
X022524Y024894D01*
X022520Y024993D02*
X022480Y024993D01*
X022480Y025091D02*
X022520Y025091D01*
X022559Y025190D02*
X022441Y025190D01*
X022391Y025288D02*
X022609Y025288D01*
X022708Y025387D02*
X022292Y025387D01*
X020955Y025879D02*
X018527Y025879D01*
X020292Y025387D02*
X020708Y025387D01*
X020609Y025288D02*
X020391Y025288D01*
X020441Y025190D02*
X020559Y025190D01*
X020520Y025091D02*
X020480Y025091D01*
X020480Y024993D02*
X020520Y024993D01*
X020524Y024894D02*
X020476Y024894D01*
X020435Y024796D02*
X020565Y024796D01*
X020624Y024697D02*
X020376Y024697D01*
X021050Y029000D02*
X021150Y029100D01*
X021150Y029200D01*
X021200Y029250D01*
X022027Y029918D02*
X022429Y029918D01*
X022331Y029819D02*
X022108Y029819D01*
X022813Y029425D02*
X032037Y029425D01*
X032135Y029327D02*
X022760Y029327D01*
X022760Y029228D02*
X032234Y029228D01*
X032332Y029130D02*
X022760Y029130D01*
X022912Y029524D02*
X031938Y029524D01*
X031840Y029622D02*
X023010Y029622D01*
X023109Y029721D02*
X031741Y029721D01*
X031643Y029819D02*
X023207Y029819D01*
X023565Y029918D02*
X031544Y029918D01*
X031446Y030016D02*
X023713Y030016D01*
X023767Y030115D02*
X031347Y030115D01*
X031249Y030213D02*
X023783Y030213D01*
X023767Y030312D02*
X031150Y030312D01*
X031052Y030410D02*
X023713Y030410D01*
X023589Y030509D02*
X030953Y030509D01*
X030855Y030607D02*
X023589Y030607D01*
X023589Y030706D02*
X030756Y030706D01*
X030658Y030804D02*
X023714Y030804D01*
X023768Y030903D02*
X030559Y030903D01*
X030461Y031001D02*
X023783Y031001D01*
X023767Y031100D02*
X030362Y031100D01*
X030264Y031198D02*
X023712Y031198D01*
X023562Y031297D02*
X030165Y031297D01*
X024820Y035335D02*
X024508Y035335D01*
X024517Y035390D02*
X024517Y035390D01*
X024517Y035390D01*
X024509Y035434D02*
X024792Y035434D01*
X024792Y035532D02*
X024505Y035532D01*
X024557Y035631D02*
X024758Y035631D01*
X024744Y035729D02*
X024570Y035729D01*
X024570Y035828D02*
X024744Y035828D01*
X024744Y035926D02*
X024570Y035926D01*
X024570Y036025D02*
X024744Y036025D01*
X024744Y036123D02*
X024570Y036123D01*
X024553Y036222D02*
X024761Y036222D01*
X024819Y036320D02*
X024495Y036320D01*
X021942Y031592D02*
X021260Y031592D01*
X021260Y031494D02*
X021962Y031494D01*
D41*
X022150Y031600D02*
X022000Y031750D01*
X021400Y031750D01*
X021295Y031855D01*
X021295Y032032D01*
X021492Y032032D02*
X022018Y032032D01*
X022150Y031900D01*
X022150Y032200D02*
X022042Y032308D01*
X021768Y032308D01*
X021768Y032505D02*
X022145Y032505D01*
X022150Y032500D01*
X022198Y032898D02*
X022200Y032900D01*
X022198Y032898D02*
X021768Y032898D01*
X021768Y033292D02*
X021768Y033818D01*
X022100Y034150D01*
X022100Y034450D02*
X022050Y034450D01*
X021750Y034150D01*
X021700Y034150D01*
X021700Y034050D01*
X021600Y033950D01*
X021600Y033800D01*
X021492Y033692D01*
X021492Y033568D01*
X021300Y033572D02*
X021295Y033568D01*
X021300Y033572D02*
X021300Y033623D01*
X021245Y033781D01*
X021300Y033800D01*
X021355Y033781D01*
X021300Y033623D01*
X021300Y033800D01*
X021100Y033800D02*
X021100Y033569D01*
X021098Y033568D01*
X020902Y033568D02*
X020900Y033569D01*
X020900Y033800D01*
X020740Y033960D01*
X019990Y033960D01*
X019750Y034200D01*
X019750Y033900D02*
X019840Y033810D01*
X020640Y033810D01*
X020700Y033750D01*
X020700Y033572D01*
X020705Y033568D01*
X020508Y033568D02*
X019782Y033568D01*
X019750Y033600D01*
X019750Y033300D02*
X019758Y033292D01*
X020232Y033292D01*
X020232Y032505D02*
X020105Y032505D01*
X020050Y032450D01*
X019950Y032450D01*
X019950Y032200D01*
X020050Y032100D01*
X020232Y032308D02*
X020300Y032240D01*
X020300Y031550D01*
X020200Y031550D01*
X020232Y031550D01*
X020300Y031550D02*
X020600Y031550D01*
X020200Y031250D02*
X020177Y031250D01*
X020019Y031195D01*
X020000Y031250D01*
X020019Y031305D01*
X020177Y031250D01*
X020010Y031250D01*
X019197Y030370D02*
X019307Y030260D01*
X020110Y030260D01*
X020110Y029140D01*
X020054Y029143D01*
X020054Y029405D01*
X019995Y029463D01*
X019814Y029463D01*
X019756Y029405D01*
X019756Y029046D01*
X019760Y029042D01*
X019760Y029010D01*
X019690Y028940D01*
X019380Y028940D01*
X019300Y028870D01*
X019300Y027650D01*
X019400Y027550D01*
X019400Y026950D01*
X019300Y026850D01*
X019300Y026800D01*
X018370Y026800D01*
X018370Y027170D01*
X018930Y027170D01*
X018930Y027240D01*
X018950Y028950D01*
X019217Y029250D01*
X019291Y029250D01*
X019350Y029309D01*
X019350Y029400D01*
X019350Y029650D01*
X019450Y029750D01*
X019450Y030000D01*
X019300Y030150D01*
X018700Y030150D01*
X018700Y030370D01*
X019197Y030370D01*
X019258Y030309D02*
X018700Y030309D01*
X018700Y030231D02*
X020110Y030231D01*
X020110Y030152D02*
X018700Y030152D01*
X019376Y030074D02*
X020110Y030074D01*
X020110Y029995D02*
X019450Y029995D01*
X019450Y029917D02*
X020110Y029917D01*
X020110Y029838D02*
X019450Y029838D01*
X019450Y029760D02*
X020110Y029760D01*
X020110Y029681D02*
X019381Y029681D01*
X019350Y029603D02*
X020110Y029603D01*
X020110Y029524D02*
X019350Y029524D01*
X019350Y029446D02*
X019796Y029446D01*
X019756Y029367D02*
X019350Y029367D01*
X019350Y029400D02*
X019350Y029400D01*
X019330Y029289D02*
X019756Y029289D01*
X019756Y029210D02*
X019181Y029210D01*
X019111Y029132D02*
X019756Y029132D01*
X019756Y029053D02*
X019042Y029053D01*
X018972Y028975D02*
X019725Y028975D01*
X019859Y028700D02*
X019500Y028700D01*
X019300Y028739D02*
X018948Y028739D01*
X018947Y028661D02*
X019300Y028661D01*
X019300Y028582D02*
X018946Y028582D01*
X018945Y028504D02*
X019300Y028504D01*
X019300Y028425D02*
X018944Y028425D01*
X018943Y028347D02*
X019300Y028347D01*
X019300Y028268D02*
X018942Y028268D01*
X018941Y028190D02*
X019300Y028190D01*
X019300Y028111D02*
X018940Y028111D01*
X018939Y028033D02*
X019300Y028033D01*
X019300Y027954D02*
X018938Y027954D01*
X018937Y027876D02*
X019300Y027876D01*
X019300Y027797D02*
X018937Y027797D01*
X018936Y027719D02*
X019300Y027719D01*
X019310Y027640D02*
X018935Y027640D01*
X018934Y027562D02*
X019388Y027562D01*
X019400Y027483D02*
X018933Y027483D01*
X018932Y027405D02*
X019400Y027405D01*
X019400Y027326D02*
X018931Y027326D01*
X018930Y027248D02*
X019400Y027248D01*
X019400Y027169D02*
X018370Y027169D01*
X018370Y027091D02*
X019400Y027091D01*
X019400Y027012D02*
X018370Y027012D01*
X018370Y026934D02*
X019384Y026934D01*
X019305Y026855D02*
X018370Y026855D01*
X018562Y026500D02*
X019100Y026500D01*
X018562Y026126D02*
X018336Y025900D01*
X017150Y025900D01*
X017000Y026050D01*
X017000Y026350D02*
X017150Y026350D01*
X017374Y026126D01*
X017538Y026126D01*
X017000Y026350D02*
X017000Y026850D01*
X016950Y027050D02*
X016950Y027800D01*
X018750Y027800D01*
X018750Y027350D01*
X017750Y027350D01*
X017750Y026900D01*
X017500Y026900D01*
X017450Y026950D01*
X017200Y026950D01*
X017200Y026991D01*
X017141Y027050D01*
X016950Y027050D01*
X016950Y027091D02*
X017750Y027091D01*
X017750Y027169D02*
X016950Y027169D01*
X016950Y027248D02*
X017750Y027248D01*
X017750Y027326D02*
X016950Y027326D01*
X016950Y027405D02*
X018750Y027405D01*
X018750Y027483D02*
X016950Y027483D01*
X016950Y027562D02*
X018750Y027562D01*
X018750Y027640D02*
X016950Y027640D01*
X016950Y027719D02*
X018750Y027719D01*
X018750Y027797D02*
X016950Y027797D01*
X018100Y028350D02*
X018100Y029500D01*
X018950Y029500D01*
X018950Y029200D01*
X018800Y029050D01*
X018800Y028350D01*
X018100Y028350D01*
X018100Y028425D02*
X018800Y028425D01*
X018800Y028504D02*
X018100Y028504D01*
X018100Y028582D02*
X018800Y028582D01*
X018800Y028661D02*
X018100Y028661D01*
X018100Y028739D02*
X018800Y028739D01*
X018800Y028818D02*
X018100Y028818D01*
X018100Y028896D02*
X018800Y028896D01*
X018800Y028975D02*
X018100Y028975D01*
X018100Y029053D02*
X018803Y029053D01*
X018882Y029132D02*
X018100Y029132D01*
X018100Y029210D02*
X018950Y029210D01*
X018950Y029289D02*
X018100Y029289D01*
X018100Y029367D02*
X018950Y029367D01*
X018950Y029446D02*
X018100Y029446D01*
X017673Y029052D02*
X017525Y028975D01*
X017689Y028943D01*
X017700Y029000D01*
X017673Y029052D01*
X017700Y029000D02*
X017550Y029000D01*
X017525Y028975D01*
X017350Y028800D01*
X017317Y028800D01*
X018948Y028818D02*
X019300Y028818D01*
X019330Y028896D02*
X018949Y028896D01*
X019859Y028700D02*
X019905Y028655D01*
X020102Y028298D02*
X020150Y028250D01*
X020290Y029130D02*
X020280Y030250D01*
X020710Y030250D01*
X020710Y029540D01*
X020400Y029540D01*
X020310Y029450D01*
X020310Y029130D01*
X020290Y029130D01*
X020290Y029132D02*
X020310Y029132D01*
X020310Y029210D02*
X020289Y029210D01*
X020289Y029289D02*
X020310Y029289D01*
X020310Y029367D02*
X020288Y029367D01*
X020287Y029446D02*
X020310Y029446D01*
X020286Y029524D02*
X020384Y029524D01*
X020286Y029603D02*
X020710Y029603D01*
X020710Y029681D02*
X020285Y029681D01*
X020284Y029760D02*
X020710Y029760D01*
X020710Y029838D02*
X020284Y029838D01*
X020283Y029917D02*
X020710Y029917D01*
X020710Y029995D02*
X020282Y029995D01*
X020282Y030074D02*
X020710Y030074D01*
X020710Y030152D02*
X020281Y030152D01*
X020280Y030231D02*
X020710Y030231D01*
X020110Y029446D02*
X020013Y029446D01*
X020054Y029367D02*
X020110Y029367D01*
X020110Y029289D02*
X020054Y029289D01*
X020054Y029210D02*
X020110Y029210D01*
X021900Y029600D02*
X021900Y029750D01*
X023279Y028638D02*
X023291Y028650D01*
X023523Y028650D01*
X023681Y028705D01*
X023700Y028650D01*
X023681Y028595D01*
X023523Y028650D01*
X023700Y028650D01*
X023279Y027850D02*
X023279Y027771D01*
X023825Y027225D01*
X023902Y027077D01*
X023850Y027050D01*
X023793Y027061D01*
X023825Y027225D01*
X023850Y027200D01*
X023850Y027050D01*
X023981Y026855D02*
X024000Y026800D01*
X023981Y026745D01*
X023823Y026800D01*
X023981Y026855D01*
X024000Y026800D02*
X023823Y026800D01*
X023800Y026800D01*
X023537Y027063D01*
X023279Y027063D01*
X017750Y027012D02*
X017179Y027012D01*
X017466Y026934D02*
X017750Y026934D01*
X017690Y031470D02*
X017650Y031490D01*
X017650Y032250D01*
X018600Y032250D01*
X018600Y031685D01*
X018569Y031654D01*
X018569Y031569D01*
X018470Y031470D01*
X017690Y031470D01*
X017657Y031487D02*
X018487Y031487D01*
X018565Y031565D02*
X018025Y031565D01*
X018057Y031578D02*
X018126Y031648D01*
X018164Y031738D01*
X018164Y031836D01*
X018126Y031927D01*
X018057Y031997D01*
X017966Y032034D01*
X017868Y032034D01*
X017778Y031997D01*
X017708Y031927D01*
X017671Y031836D01*
X017671Y031738D01*
X017708Y031648D01*
X017778Y031578D01*
X017868Y031541D01*
X017966Y031541D01*
X018057Y031578D01*
X018122Y031644D02*
X018569Y031644D01*
X018600Y031722D02*
X018157Y031722D01*
X018164Y031801D02*
X018600Y031801D01*
X018600Y031879D02*
X018146Y031879D01*
X018096Y031958D02*
X018600Y031958D01*
X018600Y032036D02*
X017650Y032036D01*
X017650Y031958D02*
X017739Y031958D01*
X017688Y031879D02*
X017650Y031879D01*
X017650Y031801D02*
X017671Y031801D01*
X017677Y031722D02*
X017650Y031722D01*
X017650Y031644D02*
X017712Y031644D01*
X017650Y031565D02*
X017810Y031565D01*
X017650Y032115D02*
X018600Y032115D01*
X018600Y032193D02*
X017650Y032193D01*
X017317Y033200D02*
X018100Y033200D01*
X018150Y033250D01*
X018150Y033750D02*
X018150Y033850D01*
X018725Y034425D01*
X018797Y034575D01*
X018850Y034550D01*
X018875Y034497D01*
X018725Y034425D01*
X018850Y034550D01*
X019450Y034750D02*
X017800Y034750D01*
X017450Y034400D01*
X017450Y034001D01*
X017460Y033991D01*
X017870Y034900D02*
X017460Y035309D01*
X017870Y034900D02*
X019400Y034900D01*
X019950Y035450D01*
X020950Y035450D01*
X020950Y035500D02*
X020950Y035504D01*
X020815Y035603D01*
X020850Y035650D01*
X020906Y035665D01*
X020950Y035504D01*
X020950Y035650D01*
X020850Y035650D01*
X020906Y035635D01*
X020950Y035796D01*
X020815Y035697D01*
X020850Y035650D01*
X020950Y035650D02*
X020950Y035796D01*
X020950Y035900D01*
X021000Y035950D01*
X021000Y037000D01*
X021150Y035160D02*
X021550Y035160D01*
X021550Y035159D01*
X021609Y035100D01*
X021891Y035100D01*
X021950Y035159D01*
X021950Y035350D01*
X022100Y035350D01*
X022100Y035100D01*
X021909Y035100D01*
X021859Y035050D01*
X021850Y035050D01*
X021850Y034650D01*
X021800Y034650D01*
X021800Y034650D01*
X021559Y034650D01*
X021500Y034591D01*
X021500Y034540D01*
X020858Y034540D01*
X020684Y034714D01*
X020602Y034796D01*
X020594Y034796D01*
X020590Y034800D01*
X020590Y034900D01*
X020591Y034900D01*
X020650Y034959D01*
X020650Y034960D01*
X020750Y034960D01*
X020750Y034959D01*
X020809Y034900D01*
X021091Y034900D01*
X021150Y034959D01*
X021150Y035160D01*
X021150Y035098D02*
X021906Y035098D01*
X021950Y035176D02*
X022100Y035176D01*
X022100Y035255D02*
X021950Y035255D01*
X021950Y035333D02*
X022100Y035333D01*
X022050Y035300D02*
X022050Y035250D01*
X021750Y035300D02*
X020000Y035300D01*
X019450Y034750D01*
X020317Y034656D02*
X020450Y034656D01*
X020450Y035100D01*
X020950Y035100D01*
X021150Y035019D02*
X021850Y035019D01*
X021850Y034941D02*
X021132Y034941D01*
X020768Y034941D02*
X020632Y034941D01*
X020590Y034862D02*
X021850Y034862D01*
X021850Y034784D02*
X020614Y034784D01*
X020693Y034705D02*
X021850Y034705D01*
X021700Y034450D02*
X021650Y034400D01*
X020800Y034400D01*
X020544Y034656D01*
X020450Y034656D01*
X020323Y034650D02*
X020317Y034656D01*
X020317Y034400D02*
X020500Y034400D01*
X021100Y033800D01*
X021183Y034144D02*
X021189Y034150D01*
X021230Y034150D01*
X021397Y034158D01*
X021400Y034100D01*
X021366Y034053D01*
X021230Y034150D01*
X021350Y034150D01*
X021400Y034100D01*
X021395Y034158D01*
X021228Y034144D01*
X021368Y034051D01*
X021400Y034100D01*
X021244Y034144D02*
X021228Y034144D01*
X021183Y034144D01*
X021500Y034548D02*
X020850Y034548D01*
X020771Y034627D02*
X021535Y034627D01*
X023279Y034937D02*
X023292Y034950D01*
X023654Y034950D01*
X023815Y034906D01*
X023800Y034850D01*
X023753Y034815D01*
X023654Y034950D01*
X023700Y034950D01*
X023800Y034850D01*
X024300Y034527D02*
X024355Y034369D01*
X024300Y034350D01*
X024245Y034369D01*
X024300Y034527D01*
X024300Y035223D01*
X024245Y035381D01*
X024300Y035400D01*
X024355Y035381D01*
X024300Y035223D01*
X024300Y035400D01*
X024355Y035419D01*
X024300Y035577D01*
X024245Y035419D01*
X024300Y035400D01*
X024300Y035577D01*
X024300Y035885D01*
X024263Y035921D01*
X025051Y035921D02*
X025051Y035620D01*
X025058Y035453D01*
X025000Y035450D01*
X024953Y035484D01*
X025051Y035620D01*
X025051Y035501D01*
X025000Y035450D01*
X025794Y035466D02*
X025850Y035450D01*
X025904Y035473D01*
X025838Y035627D01*
X025794Y035466D01*
X025838Y035462D02*
X025850Y035450D01*
X025838Y035462D02*
X025838Y035627D01*
X025838Y035921D01*
X026626Y035921D02*
X026626Y035625D01*
X026702Y035477D01*
X026650Y035450D01*
X026593Y035461D01*
X026626Y035625D01*
X026626Y035474D01*
X026650Y035450D01*
X027392Y035457D02*
X027450Y035450D01*
X027500Y035480D01*
X027413Y035623D01*
X027392Y035457D01*
X027413Y035487D02*
X027450Y035450D01*
X027413Y035487D02*
X027413Y035623D01*
X027413Y035921D01*
X028200Y035921D02*
X028200Y035627D01*
X028255Y035469D01*
X028200Y035450D01*
X028145Y035469D01*
X028200Y035627D01*
X028200Y035450D01*
X028200Y035450D01*
X028944Y035465D02*
X029000Y035450D01*
X029054Y035473D01*
X028988Y035627D01*
X028944Y035465D01*
X028988Y035462D02*
X029000Y035450D01*
X028988Y035462D02*
X028988Y035627D01*
X028988Y035921D01*
X029775Y035921D02*
X029775Y035625D01*
X029852Y035477D01*
X029800Y035450D01*
X029743Y035461D01*
X029775Y035625D01*
X029775Y035475D01*
X029800Y035450D01*
X030542Y035457D02*
X030600Y035450D01*
X030650Y035480D01*
X030563Y035623D01*
X030542Y035457D01*
X030563Y035487D02*
X030600Y035450D01*
X030563Y035487D02*
X030563Y035623D01*
X030563Y035921D01*
X032137Y035921D02*
X032137Y035627D01*
X032204Y035473D01*
X032150Y035450D01*
X032094Y035465D01*
X032137Y035627D01*
X032137Y035463D01*
X032150Y035450D01*
X032893Y035461D02*
X032950Y035450D01*
X033002Y035477D01*
X032925Y035625D01*
X032893Y035461D01*
X032925Y035475D02*
X032950Y035450D01*
X032925Y035475D02*
X032925Y035625D01*
X032925Y035921D01*
X033712Y035921D02*
X033712Y035623D01*
X033800Y035481D01*
X033750Y035450D01*
X033692Y035457D01*
X033712Y035623D01*
X033712Y035488D01*
X033750Y035450D01*
X034445Y035469D02*
X034500Y035450D01*
X034555Y035469D01*
X034500Y035627D01*
X034445Y035469D01*
X034500Y035450D02*
X034500Y035450D01*
X034500Y035627D01*
X034500Y035921D01*
X035287Y035921D02*
X035287Y035627D01*
X035354Y035473D01*
X035300Y035450D01*
X035244Y035465D01*
X035287Y035627D01*
X035287Y035463D01*
X035300Y035450D01*
X036074Y035921D02*
X036074Y036324D01*
X036250Y036500D01*
X039500Y036500D01*
X040000Y037000D01*
X041000Y037000D02*
X041050Y036950D01*
X041050Y036250D01*
X040650Y035850D01*
X039200Y035850D01*
X037850Y034500D01*
X037850Y031920D01*
X037858Y031753D01*
X037800Y031750D01*
X037753Y031784D01*
X037850Y031920D01*
X037850Y031800D01*
X037800Y031750D01*
X038850Y031800D02*
X038869Y031745D01*
X039027Y031800D01*
X038869Y031855D01*
X038850Y031800D01*
X039027Y031800D01*
X039408Y031800D01*
X039421Y031787D01*
X039421Y031000D02*
X039027Y031000D01*
X038869Y030945D01*
X038850Y031000D01*
X038869Y031055D01*
X039027Y031000D01*
X038850Y031000D01*
X038000Y028000D02*
X038937Y027063D01*
X039421Y027063D01*
X038437Y026079D02*
X038437Y026013D01*
X039000Y025450D01*
X039000Y025000D01*
X038000Y025000D02*
X038000Y025400D01*
X037649Y025751D01*
X037649Y026079D01*
X036862Y026079D02*
X036862Y025588D01*
X037000Y025450D01*
X037000Y025000D01*
X036000Y025000D02*
X036000Y025400D01*
X036074Y025474D01*
X036074Y026079D01*
X038000Y028000D02*
X038000Y034450D01*
X039250Y035700D01*
X040700Y035700D01*
X042000Y037000D01*
X024300Y034527D02*
X024300Y034350D01*
X023750Y034150D02*
X023731Y034205D01*
X023573Y034150D01*
X023731Y034095D01*
X023750Y034150D01*
X023573Y034150D01*
X023280Y034150D01*
X023279Y034150D01*
X019950Y032450D02*
X019700Y032450D01*
D42*
X039250Y034150D02*
X039421Y034150D01*
X039421Y034150D01*
X039800Y034150D01*
X039826Y034152D01*
X039852Y034157D01*
X039877Y034165D01*
X039900Y034177D01*
X039922Y034191D01*
X039941Y034209D01*
X039959Y034228D01*
X039973Y034250D01*
X039985Y034273D01*
X039993Y034298D01*
X039998Y034324D01*
X040000Y034350D01*
X040002Y034375D01*
X040007Y034399D01*
X040016Y034423D01*
X040028Y034445D01*
X040043Y034465D01*
X040060Y034482D01*
X040080Y034497D01*
X040102Y034509D01*
X040126Y034518D01*
X040150Y034523D01*
X040175Y034525D01*
X040350Y034525D01*
D43*
X034900Y035450D02*
X031650Y032200D01*
X023300Y032200D01*
X023279Y032221D01*
X023279Y032575D01*
X020150Y028250D02*
X019750Y028250D01*
X019700Y028200D01*
X020150Y028250D02*
X020150Y027850D01*
X034900Y035450D02*
X034900Y036900D01*
X035000Y037000D01*
D44*
X039421Y029425D02*
X039714Y029132D01*
X039912Y029132D01*
X042053Y026992D01*
X042053Y026392D01*
X042603Y025842D01*
X042603Y025398D01*
X043000Y025000D01*
X042398Y025398D02*
X042398Y025403D01*
X042398Y025758D01*
X041848Y026308D01*
X041848Y026908D01*
X039838Y028918D01*
X039708Y028918D01*
X039428Y028638D01*
X042395Y025400D02*
X042398Y025403D01*
X042398Y025398D02*
X042000Y025000D01*
X021050Y031550D02*
X021000Y031550D01*
X020600Y031950D01*
X019615Y032009D02*
X019475Y031905D01*
X019579Y032045D01*
X019600Y032030D01*
X019615Y032009D01*
X019600Y032030D02*
X019475Y031905D01*
X019300Y031730D01*
X019300Y031620D01*
X019174Y031494D01*
X018806Y031494D01*
X018568Y031256D01*
X018124Y031256D01*
X018124Y031000D02*
X018630Y031000D01*
X018830Y031200D01*
X019190Y031200D01*
X019460Y031470D01*
X019560Y031470D01*
X019583Y031494D01*
X019574Y031669D01*
X019600Y031670D01*
X019625Y031664D01*
X019583Y031494D01*
X019584Y031494D01*
X019594Y031494D01*
X019600Y031500D01*
X019600Y031670D01*
D45*
X020600Y031950D02*
X020600Y032032D01*
D46*
X021050Y031550D02*
X021050Y031200D01*
X020310Y030460D01*
X019390Y030460D01*
X019100Y030750D01*
X018810Y030750D01*
X018806Y030746D01*
X018566Y030746D01*
X018550Y030730D01*
X022200Y029600D02*
X022350Y029600D01*
X022450Y029500D01*
X022350Y027600D02*
X022300Y027550D01*
X022250Y027550D01*
X040650Y034525D02*
X041000Y034525D01*
X041350Y034525D01*
X041650Y034525D02*
X042000Y034525D01*
X041951Y034525D01*
X041957Y034531D01*
D47*
X021050Y028200D02*
X021000Y028250D01*
D48*
X021700Y027400D02*
X021700Y027300D01*
X024000Y025000D01*
X022350Y027600D02*
X022450Y027700D01*
X022450Y029500D01*
X023163Y030213D01*
X023279Y030213D01*
X023279Y031000D01*
X023279Y031787D02*
X023277Y031790D01*
X022750Y031790D01*
X022600Y031940D01*
X022600Y036550D01*
X023000Y036950D01*
X023000Y037000D01*
X024000Y037000D01*
X019050Y032550D02*
X018700Y032550D01*
X018650Y032600D01*
X017116Y032600D01*
X017071Y032555D01*
X017071Y030528D01*
X017071Y029445D01*
X017071Y030528D02*
X017071Y031472D01*
X023279Y031787D02*
X030113Y031787D01*
X035000Y026900D01*
D49*
X039421Y028638D02*
X039428Y028638D01*
M02*
