G75*
%MOIN*%
%OFA0B0*%
%FSLAX24Y24*%
%IPPOS*%
%LPD*%
%AMOC8*
5,1,8,0,0,1.08239X$1,22.5*
%
%ADD10C,0.0000*%
%ADD11C,0.1260*%
%ADD12R,0.1083X0.1083*%
%ADD13R,0.0276X0.0098*%
%ADD14R,0.0098X0.0276*%
%ADD15R,0.0276X0.0394*%
%ADD16R,0.0276X0.0236*%
%ADD17R,0.0200X0.0200*%
%ADD18R,0.0098X0.0236*%
%ADD19C,0.0001*%
%ADD20R,0.0335X0.0787*%
%ADD21R,0.0400X0.0600*%
%ADD22R,0.0250X0.0350*%
%ADD23R,0.0700X0.0450*%
%ADD24R,0.0709X0.0551*%
%ADD25R,0.0600X0.0400*%
%ADD26R,0.0394X0.0157*%
%ADD27R,0.0276X0.0197*%
%ADD28R,0.0350X0.0250*%
%ADD29C,0.0866*%
%ADD30C,0.0394*%
%ADD31C,0.0197*%
%ADD32R,0.0531X0.0157*%
%ADD33R,0.0748X0.0748*%
%ADD34C,0.0217*%
%ADD35R,0.0740X0.0740*%
%ADD36C,0.0740*%
%ADD37C,0.0315*%
%ADD38R,0.0512X0.0453*%
%ADD39R,0.0472X0.0354*%
%ADD40R,0.0197X0.0197*%
%ADD41R,0.0472X0.0236*%
D10*
X016500Y024500D02*
X016500Y037500D01*
X044500Y037500D01*
X044500Y024500D01*
X016500Y024500D01*
X019814Y028812D02*
X019995Y028812D01*
X019995Y028891D01*
X019893Y028891D01*
X019814Y028812D01*
X017809Y030213D02*
X017811Y030233D01*
X017817Y030253D01*
X017826Y030271D01*
X017839Y030288D01*
X017854Y030301D01*
X017872Y030311D01*
X017892Y030318D01*
X017912Y030321D01*
X017932Y030320D01*
X017952Y030315D01*
X017971Y030307D01*
X017988Y030295D01*
X018002Y030280D01*
X018013Y030262D01*
X018021Y030243D01*
X018025Y030223D01*
X018025Y030203D01*
X018021Y030183D01*
X018013Y030164D01*
X018002Y030146D01*
X017988Y030131D01*
X017971Y030119D01*
X017952Y030111D01*
X017932Y030106D01*
X017912Y030105D01*
X017892Y030108D01*
X017872Y030115D01*
X017854Y030125D01*
X017839Y030138D01*
X017826Y030155D01*
X017817Y030173D01*
X017811Y030193D01*
X017809Y030213D01*
X017809Y031787D02*
X017811Y031807D01*
X017817Y031827D01*
X017826Y031845D01*
X017839Y031862D01*
X017854Y031875D01*
X017872Y031885D01*
X017892Y031892D01*
X017912Y031895D01*
X017932Y031894D01*
X017952Y031889D01*
X017971Y031881D01*
X017988Y031869D01*
X018002Y031854D01*
X018013Y031836D01*
X018021Y031817D01*
X018025Y031797D01*
X018025Y031777D01*
X018021Y031757D01*
X018013Y031738D01*
X018002Y031720D01*
X017988Y031705D01*
X017971Y031693D01*
X017952Y031685D01*
X017932Y031680D01*
X017912Y031679D01*
X017892Y031682D01*
X017872Y031689D01*
X017854Y031699D01*
X017839Y031712D01*
X017826Y031729D01*
X017817Y031747D01*
X017811Y031767D01*
X017809Y031787D01*
X016693Y034315D02*
X016695Y034340D01*
X016701Y034364D01*
X016710Y034386D01*
X016723Y034407D01*
X016739Y034426D01*
X016758Y034442D01*
X016779Y034455D01*
X016801Y034464D01*
X016825Y034470D01*
X016850Y034472D01*
X016875Y034470D01*
X016899Y034464D01*
X016921Y034455D01*
X016942Y034442D01*
X016961Y034426D01*
X016977Y034407D01*
X016990Y034386D01*
X016999Y034364D01*
X017005Y034340D01*
X017007Y034315D01*
X017005Y034290D01*
X016999Y034266D01*
X016990Y034244D01*
X016977Y034223D01*
X016961Y034204D01*
X016942Y034188D01*
X016921Y034175D01*
X016899Y034166D01*
X016875Y034160D01*
X016850Y034158D01*
X016825Y034160D01*
X016801Y034166D01*
X016779Y034175D01*
X016758Y034188D01*
X016739Y034204D01*
X016723Y034223D01*
X016710Y034244D01*
X016701Y034266D01*
X016695Y034290D01*
X016693Y034315D01*
X016693Y034985D02*
X016695Y035010D01*
X016701Y035034D01*
X016710Y035056D01*
X016723Y035077D01*
X016739Y035096D01*
X016758Y035112D01*
X016779Y035125D01*
X016801Y035134D01*
X016825Y035140D01*
X016850Y035142D01*
X016875Y035140D01*
X016899Y035134D01*
X016921Y035125D01*
X016942Y035112D01*
X016961Y035096D01*
X016977Y035077D01*
X016990Y035056D01*
X016999Y035034D01*
X017005Y035010D01*
X017007Y034985D01*
X017005Y034960D01*
X016999Y034936D01*
X016990Y034914D01*
X016977Y034893D01*
X016961Y034874D01*
X016942Y034858D01*
X016921Y034845D01*
X016899Y034836D01*
X016875Y034830D01*
X016850Y034828D01*
X016825Y034830D01*
X016801Y034836D01*
X016779Y034845D01*
X016758Y034858D01*
X016739Y034874D01*
X016723Y034893D01*
X016710Y034914D01*
X016701Y034936D01*
X016695Y034960D01*
X016693Y034985D01*
X018370Y035700D02*
X018372Y035750D01*
X018378Y035800D01*
X018388Y035849D01*
X018402Y035897D01*
X018419Y035944D01*
X018440Y035989D01*
X018465Y036033D01*
X018493Y036074D01*
X018525Y036113D01*
X018559Y036150D01*
X018596Y036184D01*
X018636Y036214D01*
X018678Y036241D01*
X018722Y036265D01*
X018768Y036286D01*
X018815Y036302D01*
X018863Y036315D01*
X018913Y036324D01*
X018962Y036329D01*
X019013Y036330D01*
X019063Y036327D01*
X019112Y036320D01*
X019161Y036309D01*
X019209Y036294D01*
X019255Y036276D01*
X019300Y036254D01*
X019343Y036228D01*
X019384Y036199D01*
X019423Y036167D01*
X019459Y036132D01*
X019491Y036094D01*
X019521Y036054D01*
X019548Y036011D01*
X019571Y035967D01*
X019590Y035921D01*
X019606Y035873D01*
X019618Y035824D01*
X019626Y035775D01*
X019630Y035725D01*
X019630Y035675D01*
X019626Y035625D01*
X019618Y035576D01*
X019606Y035527D01*
X019590Y035479D01*
X019571Y035433D01*
X019548Y035389D01*
X019521Y035346D01*
X019491Y035306D01*
X019459Y035268D01*
X019423Y035233D01*
X019384Y035201D01*
X019343Y035172D01*
X019300Y035146D01*
X019255Y035124D01*
X019209Y035106D01*
X019161Y035091D01*
X019112Y035080D01*
X019063Y035073D01*
X019013Y035070D01*
X018962Y035071D01*
X018913Y035076D01*
X018863Y035085D01*
X018815Y035098D01*
X018768Y035114D01*
X018722Y035135D01*
X018678Y035159D01*
X018636Y035186D01*
X018596Y035216D01*
X018559Y035250D01*
X018525Y035287D01*
X018493Y035326D01*
X018465Y035367D01*
X018440Y035411D01*
X018419Y035456D01*
X018402Y035503D01*
X018388Y035551D01*
X018378Y035600D01*
X018372Y035650D01*
X018370Y035700D01*
X042705Y026862D02*
X042707Y026912D01*
X042713Y026962D01*
X042723Y027011D01*
X042737Y027059D01*
X042754Y027106D01*
X042775Y027151D01*
X042800Y027195D01*
X042828Y027236D01*
X042860Y027275D01*
X042894Y027312D01*
X042931Y027346D01*
X042971Y027376D01*
X043013Y027403D01*
X043057Y027427D01*
X043103Y027448D01*
X043150Y027464D01*
X043198Y027477D01*
X043248Y027486D01*
X043297Y027491D01*
X043348Y027492D01*
X043398Y027489D01*
X043447Y027482D01*
X043496Y027471D01*
X043544Y027456D01*
X043590Y027438D01*
X043635Y027416D01*
X043678Y027390D01*
X043719Y027361D01*
X043758Y027329D01*
X043794Y027294D01*
X043826Y027256D01*
X043856Y027216D01*
X043883Y027173D01*
X043906Y027129D01*
X043925Y027083D01*
X043941Y027035D01*
X043953Y026986D01*
X043961Y026937D01*
X043965Y026887D01*
X043965Y026837D01*
X043961Y026787D01*
X043953Y026738D01*
X043941Y026689D01*
X043925Y026641D01*
X043906Y026595D01*
X043883Y026551D01*
X043856Y026508D01*
X043826Y026468D01*
X043794Y026430D01*
X043758Y026395D01*
X043719Y026363D01*
X043678Y026334D01*
X043635Y026308D01*
X043590Y026286D01*
X043544Y026268D01*
X043496Y026253D01*
X043447Y026242D01*
X043398Y026235D01*
X043348Y026232D01*
X043297Y026233D01*
X043248Y026238D01*
X043198Y026247D01*
X043150Y026260D01*
X043103Y026276D01*
X043057Y026297D01*
X043013Y026321D01*
X042971Y026348D01*
X042931Y026378D01*
X042894Y026412D01*
X042860Y026449D01*
X042828Y026488D01*
X042800Y026529D01*
X042775Y026573D01*
X042754Y026618D01*
X042737Y026665D01*
X042723Y026713D01*
X042713Y026762D01*
X042707Y026812D01*
X042705Y026862D01*
D11*
X043335Y026862D03*
X019000Y035700D03*
D12*
X021000Y032800D03*
D13*
X020232Y032702D03*
X020232Y032898D03*
X020232Y033095D03*
X020232Y033292D03*
X020232Y032505D03*
X020232Y032308D03*
X021768Y032308D03*
X021768Y032505D03*
X021768Y032702D03*
X021768Y032898D03*
X021768Y033095D03*
X021768Y033292D03*
D14*
X021492Y033568D03*
X021295Y033568D03*
X021098Y033568D03*
X020902Y033568D03*
X020705Y033568D03*
X020508Y033568D03*
X020508Y032032D03*
X020705Y032032D03*
X020902Y032032D03*
X021098Y032032D03*
X021295Y032032D03*
X021492Y032032D03*
X020495Y029226D03*
X020298Y029226D03*
X020102Y029226D03*
X019905Y029226D03*
X020102Y028674D03*
X020298Y028674D03*
X020495Y028674D03*
D15*
X019594Y030825D03*
D16*
X018806Y030746D03*
X018806Y031494D03*
X019594Y031494D03*
D17*
X020200Y031550D03*
X020200Y031250D03*
X020600Y031250D03*
X020600Y031550D03*
X021050Y031550D03*
X021350Y031550D03*
X021350Y031200D03*
X021050Y031200D03*
X019700Y032450D03*
X019700Y032750D03*
X021700Y034150D03*
X021700Y034450D03*
X022100Y034450D03*
X022100Y034150D03*
X022050Y034900D03*
X021750Y034900D03*
X021750Y035300D03*
X022050Y035300D03*
X021250Y035100D03*
X020950Y035100D03*
X020950Y035500D03*
X021250Y035500D03*
X021250Y035900D03*
X020950Y035900D03*
X020450Y035100D03*
X020150Y035100D03*
X022200Y033200D03*
X022200Y032900D03*
X019200Y030200D03*
X019200Y029900D03*
X018800Y029900D03*
X018800Y030200D03*
X018850Y029450D03*
X019150Y029450D03*
X019500Y029000D03*
X019500Y028700D03*
X019700Y028200D03*
X019700Y027900D03*
X020150Y027850D03*
X020450Y027850D03*
X020450Y028250D03*
X020150Y028250D03*
X020900Y027550D03*
X020900Y027250D03*
X021300Y027250D03*
X021300Y027550D03*
X019100Y026500D03*
X019100Y026200D03*
X017000Y026050D03*
X017000Y026350D03*
X017000Y026850D03*
X017000Y027150D03*
X017000Y027750D03*
X017000Y028050D03*
X021900Y029600D03*
X022200Y029600D03*
X040350Y034525D03*
X040650Y034525D03*
X040900Y034525D03*
X041150Y034525D03*
X041450Y034525D03*
X041700Y034525D03*
X041700Y034225D03*
X040900Y034225D03*
D18*
X019905Y028655D03*
D19*
X019815Y028813D02*
X019995Y028813D01*
X019995Y028814D02*
X019816Y028814D01*
X019817Y028815D02*
X019995Y028815D01*
X019995Y028816D02*
X019818Y028816D01*
X019819Y028817D02*
X019995Y028817D01*
X019995Y028818D02*
X019820Y028818D01*
X019821Y028819D02*
X019995Y028819D01*
X019995Y028820D02*
X019822Y028820D01*
X019823Y028821D02*
X019995Y028821D01*
X019995Y028822D02*
X019824Y028822D01*
X019825Y028823D02*
X019995Y028823D01*
X019995Y028824D02*
X019826Y028824D01*
X019827Y028825D02*
X019995Y028825D01*
X019995Y028826D02*
X019828Y028826D01*
X019829Y028827D02*
X019995Y028827D01*
X019995Y028828D02*
X019830Y028828D01*
X019831Y028829D02*
X019995Y028829D01*
X019995Y028830D02*
X019832Y028830D01*
X019833Y028831D02*
X019995Y028831D01*
X019995Y028832D02*
X019834Y028832D01*
X019835Y028833D02*
X019995Y028833D01*
X019995Y028834D02*
X019836Y028834D01*
X019837Y028835D02*
X019995Y028835D01*
X019995Y028836D02*
X019838Y028836D01*
X019839Y028837D02*
X019995Y028837D01*
X019995Y028838D02*
X019840Y028838D01*
X019841Y028839D02*
X019995Y028839D01*
X019995Y028840D02*
X019842Y028840D01*
X019843Y028841D02*
X019995Y028841D01*
X019995Y028842D02*
X019844Y028842D01*
X019845Y028843D02*
X019995Y028843D01*
X019995Y028844D02*
X019846Y028844D01*
X019847Y028845D02*
X019995Y028845D01*
X019995Y028846D02*
X019848Y028846D01*
X019849Y028847D02*
X019995Y028847D01*
X019995Y028848D02*
X019850Y028848D01*
X019851Y028849D02*
X019995Y028849D01*
X019995Y028850D02*
X019852Y028850D01*
X019853Y028851D02*
X019995Y028851D01*
X019995Y028852D02*
X019854Y028852D01*
X019855Y028853D02*
X019995Y028853D01*
X019995Y028854D02*
X019856Y028854D01*
X019857Y028855D02*
X019995Y028855D01*
X019995Y028856D02*
X019858Y028856D01*
X019859Y028857D02*
X019995Y028857D01*
X019995Y028858D02*
X019860Y028858D01*
X019861Y028859D02*
X019995Y028859D01*
X019995Y028860D02*
X019862Y028860D01*
X019863Y028861D02*
X019995Y028861D01*
X019995Y028862D02*
X019864Y028862D01*
X019865Y028863D02*
X019995Y028863D01*
X019995Y028864D02*
X019866Y028864D01*
X019867Y028865D02*
X019995Y028865D01*
X019995Y028866D02*
X019868Y028866D01*
X019869Y028867D02*
X019995Y028867D01*
X019995Y028868D02*
X019870Y028868D01*
X019871Y028869D02*
X019995Y028869D01*
X019995Y028870D02*
X019872Y028870D01*
X019873Y028871D02*
X019995Y028871D01*
X019995Y028872D02*
X019874Y028872D01*
X019875Y028873D02*
X019995Y028873D01*
X019995Y028874D02*
X019876Y028874D01*
X019877Y028875D02*
X019995Y028875D01*
X019995Y028876D02*
X019878Y028876D01*
X019879Y028877D02*
X019995Y028877D01*
X019995Y028878D02*
X019880Y028878D01*
X019881Y028879D02*
X019995Y028879D01*
X019995Y028880D02*
X019882Y028880D01*
X019883Y028881D02*
X019995Y028881D01*
X019995Y028882D02*
X019884Y028882D01*
X019885Y028883D02*
X019995Y028883D01*
X019995Y028884D02*
X019886Y028884D01*
X019887Y028885D02*
X019995Y028885D01*
X019995Y028886D02*
X019888Y028886D01*
X019889Y028887D02*
X019995Y028887D01*
X019995Y028888D02*
X019890Y028888D01*
X019891Y028889D02*
X019995Y028889D01*
X019995Y028890D02*
X019892Y028890D01*
X019893Y028891D02*
X019995Y028891D01*
D20*
X020575Y029900D03*
X021225Y029900D03*
D21*
X021050Y029000D03*
X021750Y029000D03*
X021750Y028200D03*
X021050Y028200D03*
X019950Y027250D03*
X019250Y027250D03*
D22*
X021750Y027550D03*
X022250Y027550D03*
D23*
X019050Y032550D03*
X019050Y033750D03*
D24*
X018450Y028631D03*
X018450Y027569D03*
D25*
X017600Y027550D03*
X017600Y028250D03*
D26*
X020317Y034144D03*
X020317Y034400D03*
X020317Y034656D03*
X021183Y034656D03*
X021183Y034144D03*
D27*
X017317Y033200D03*
X016883Y033200D03*
X016883Y028800D03*
X017317Y028800D03*
D28*
X018150Y033250D03*
X018150Y033750D03*
D29*
X021500Y026000D03*
X040900Y026000D03*
X041500Y035525D03*
D30*
X039617Y034937D02*
X039225Y034937D01*
X039225Y034150D02*
X039617Y034150D01*
X039617Y033362D02*
X039225Y033362D01*
X039225Y032575D02*
X039617Y032575D01*
X039617Y031787D02*
X039225Y031787D01*
X039225Y031000D02*
X039617Y031000D01*
X039617Y030213D02*
X039225Y030213D01*
X039225Y029425D02*
X039617Y029425D01*
X039617Y028638D02*
X039225Y028638D01*
X039225Y027850D02*
X039617Y027850D01*
X039617Y027063D02*
X039225Y027063D01*
X038437Y026275D02*
X038437Y025883D01*
X037649Y025883D02*
X037649Y026275D01*
X036862Y026275D02*
X036862Y025883D01*
X036074Y025883D02*
X036074Y026275D01*
X035287Y026275D02*
X035287Y025883D01*
X034500Y025883D02*
X034500Y026275D01*
X033712Y026275D02*
X033712Y025883D01*
X032925Y025883D02*
X032925Y026275D01*
X032137Y026275D02*
X032137Y025883D01*
X031350Y025883D02*
X031350Y026275D01*
X030563Y026275D02*
X030563Y025883D01*
X029775Y025883D02*
X029775Y026275D01*
X028988Y026275D02*
X028988Y025883D01*
X028200Y025883D02*
X028200Y026275D01*
X027413Y026275D02*
X027413Y025883D01*
X026626Y025883D02*
X026626Y026275D01*
X025838Y026275D02*
X025838Y025883D01*
X025051Y025883D02*
X025051Y026275D01*
X024263Y026275D02*
X024263Y025883D01*
X023475Y027063D02*
X023083Y027063D01*
X023083Y027850D02*
X023475Y027850D01*
X023475Y028638D02*
X023083Y028638D01*
X023083Y029425D02*
X023475Y029425D01*
X023475Y030213D02*
X023083Y030213D01*
X023083Y031000D02*
X023475Y031000D01*
X023475Y031787D02*
X023083Y031787D01*
X023083Y032575D02*
X023475Y032575D01*
X023475Y033362D02*
X023083Y033362D01*
X023083Y034150D02*
X023475Y034150D01*
X023475Y034937D02*
X023083Y034937D01*
X024263Y035725D02*
X024263Y036117D01*
X025051Y036117D02*
X025051Y035725D01*
X025838Y035725D02*
X025838Y036117D01*
X026626Y036117D02*
X026626Y035725D01*
X027413Y035725D02*
X027413Y036117D01*
X028200Y036117D02*
X028200Y035725D01*
X028988Y035725D02*
X028988Y036117D01*
X029775Y036117D02*
X029775Y035725D01*
X030563Y035725D02*
X030563Y036117D01*
X031350Y036117D02*
X031350Y035725D01*
X032137Y035725D02*
X032137Y036117D01*
X032925Y036117D02*
X032925Y035725D01*
X033712Y035725D02*
X033712Y036117D01*
X034500Y036117D02*
X034500Y035725D01*
X035287Y035725D02*
X035287Y036117D01*
X036074Y036117D02*
X036074Y035725D01*
X036862Y035725D02*
X036862Y036117D01*
X037649Y036117D02*
X037649Y035725D01*
X038437Y035725D02*
X038437Y036117D01*
D31*
X022150Y032500D03*
X022150Y032200D03*
X022150Y031900D03*
X022150Y031600D03*
X019750Y033300D03*
X019750Y033600D03*
X019750Y033900D03*
X019750Y034200D03*
D32*
X018124Y031512D03*
X018124Y031256D03*
X018124Y031000D03*
X018124Y030744D03*
X018124Y030488D03*
D33*
X017071Y030528D03*
X017071Y031472D03*
X017071Y032555D03*
X017071Y029445D03*
D34*
X017917Y030213D03*
X017917Y031787D03*
D35*
X017000Y037000D03*
X017000Y025000D03*
D36*
X018000Y025000D03*
X019000Y025000D03*
X020000Y025000D03*
X021000Y025000D03*
X022000Y025000D03*
X023000Y025000D03*
X024000Y025000D03*
X025000Y025000D03*
X026000Y025000D03*
X027000Y025000D03*
X028000Y025000D03*
X029000Y025000D03*
X030000Y025000D03*
X031000Y025000D03*
X032000Y025000D03*
X033000Y025000D03*
X034000Y025000D03*
X035000Y025000D03*
X036000Y025000D03*
X037000Y025000D03*
X038000Y025000D03*
X039000Y025000D03*
X040000Y025000D03*
X041000Y025000D03*
X042000Y025000D03*
X043000Y025000D03*
X044000Y025000D03*
X044000Y037000D03*
X043000Y037000D03*
X042000Y037000D03*
X041000Y037000D03*
X040000Y037000D03*
X039000Y037000D03*
X038000Y037000D03*
X037000Y037000D03*
X036000Y037000D03*
X035000Y037000D03*
X034000Y037000D03*
X033000Y037000D03*
X032000Y037000D03*
X031000Y037000D03*
X030000Y037000D03*
X029000Y037000D03*
X028000Y037000D03*
X027000Y037000D03*
X026000Y037000D03*
X025000Y037000D03*
X024000Y037000D03*
X023000Y037000D03*
X022000Y037000D03*
X021000Y037000D03*
X020000Y037000D03*
X019000Y037000D03*
X018000Y037000D03*
D37*
X016850Y034985D03*
X016850Y034315D03*
D38*
X017460Y033991D03*
X017460Y035309D03*
D39*
X016850Y035556D03*
X016850Y033744D03*
D40*
X041957Y034531D03*
X042327Y035220D03*
D41*
X018562Y026874D03*
X018562Y026500D03*
X018562Y026126D03*
X017538Y026126D03*
X017538Y026500D03*
X017538Y026874D03*
M02*
