G75*
%MOIN*%
%OFA0B0*%
%FSLAX24Y24*%
%IPPOS*%
%LPD*%
%AMOC8*
5,1,8,0,0,1.08239X$1,22.5*
%
%ADD10C,0.0000*%
%ADD11C,0.0591*%
%ADD12R,0.0740X0.0740*%
%ADD13C,0.0740*%
%ADD14R,0.0472X0.0276*%
%ADD15C,0.0100*%
%ADD16C,0.0197*%
%ADD17C,0.0080*%
%ADD18C,0.0180*%
%ADD19C,0.0145*%
%ADD20C,0.0300*%
%ADD21C,0.0400*%
D10*
X016500Y024500D02*
X016500Y037500D01*
X044500Y037500D01*
X044500Y024500D01*
X016500Y024500D01*
X017809Y030213D02*
X017811Y030233D01*
X017817Y030253D01*
X017826Y030271D01*
X017839Y030288D01*
X017854Y030301D01*
X017872Y030311D01*
X017892Y030318D01*
X017912Y030321D01*
X017932Y030320D01*
X017952Y030315D01*
X017971Y030307D01*
X017988Y030295D01*
X018002Y030280D01*
X018013Y030262D01*
X018021Y030243D01*
X018025Y030223D01*
X018025Y030203D01*
X018021Y030183D01*
X018013Y030164D01*
X018002Y030146D01*
X017988Y030131D01*
X017971Y030119D01*
X017952Y030111D01*
X017932Y030106D01*
X017912Y030105D01*
X017892Y030108D01*
X017872Y030115D01*
X017854Y030125D01*
X017839Y030138D01*
X017826Y030155D01*
X017817Y030173D01*
X017811Y030193D01*
X017809Y030213D01*
X017809Y031787D02*
X017811Y031807D01*
X017817Y031827D01*
X017826Y031845D01*
X017839Y031862D01*
X017854Y031875D01*
X017872Y031885D01*
X017892Y031892D01*
X017912Y031895D01*
X017932Y031894D01*
X017952Y031889D01*
X017971Y031881D01*
X017988Y031869D01*
X018002Y031854D01*
X018013Y031836D01*
X018021Y031817D01*
X018025Y031797D01*
X018025Y031777D01*
X018021Y031757D01*
X018013Y031738D01*
X018002Y031720D01*
X017988Y031705D01*
X017971Y031693D01*
X017952Y031685D01*
X017932Y031680D01*
X017912Y031679D01*
X017892Y031682D01*
X017872Y031689D01*
X017854Y031699D01*
X017839Y031712D01*
X017826Y031729D01*
X017817Y031747D01*
X017811Y031767D01*
X017809Y031787D01*
X018370Y035700D02*
X018372Y035750D01*
X018378Y035800D01*
X018388Y035849D01*
X018402Y035897D01*
X018419Y035944D01*
X018440Y035989D01*
X018465Y036033D01*
X018493Y036074D01*
X018525Y036113D01*
X018559Y036150D01*
X018596Y036184D01*
X018636Y036214D01*
X018678Y036241D01*
X018722Y036265D01*
X018768Y036286D01*
X018815Y036302D01*
X018863Y036315D01*
X018913Y036324D01*
X018962Y036329D01*
X019013Y036330D01*
X019063Y036327D01*
X019112Y036320D01*
X019161Y036309D01*
X019209Y036294D01*
X019255Y036276D01*
X019300Y036254D01*
X019343Y036228D01*
X019384Y036199D01*
X019423Y036167D01*
X019459Y036132D01*
X019491Y036094D01*
X019521Y036054D01*
X019548Y036011D01*
X019571Y035967D01*
X019590Y035921D01*
X019606Y035873D01*
X019618Y035824D01*
X019626Y035775D01*
X019630Y035725D01*
X019630Y035675D01*
X019626Y035625D01*
X019618Y035576D01*
X019606Y035527D01*
X019590Y035479D01*
X019571Y035433D01*
X019548Y035389D01*
X019521Y035346D01*
X019491Y035306D01*
X019459Y035268D01*
X019423Y035233D01*
X019384Y035201D01*
X019343Y035172D01*
X019300Y035146D01*
X019255Y035124D01*
X019209Y035106D01*
X019161Y035091D01*
X019112Y035080D01*
X019063Y035073D01*
X019013Y035070D01*
X018962Y035071D01*
X018913Y035076D01*
X018863Y035085D01*
X018815Y035098D01*
X018768Y035114D01*
X018722Y035135D01*
X018678Y035159D01*
X018636Y035186D01*
X018596Y035216D01*
X018559Y035250D01*
X018525Y035287D01*
X018493Y035326D01*
X018465Y035367D01*
X018440Y035411D01*
X018419Y035456D01*
X018402Y035503D01*
X018388Y035551D01*
X018378Y035600D01*
X018372Y035650D01*
X018370Y035700D01*
X042705Y026862D02*
X042707Y026912D01*
X042713Y026962D01*
X042723Y027011D01*
X042737Y027059D01*
X042754Y027106D01*
X042775Y027151D01*
X042800Y027195D01*
X042828Y027236D01*
X042860Y027275D01*
X042894Y027312D01*
X042931Y027346D01*
X042971Y027376D01*
X043013Y027403D01*
X043057Y027427D01*
X043103Y027448D01*
X043150Y027464D01*
X043198Y027477D01*
X043248Y027486D01*
X043297Y027491D01*
X043348Y027492D01*
X043398Y027489D01*
X043447Y027482D01*
X043496Y027471D01*
X043544Y027456D01*
X043590Y027438D01*
X043635Y027416D01*
X043678Y027390D01*
X043719Y027361D01*
X043758Y027329D01*
X043794Y027294D01*
X043826Y027256D01*
X043856Y027216D01*
X043883Y027173D01*
X043906Y027129D01*
X043925Y027083D01*
X043941Y027035D01*
X043953Y026986D01*
X043961Y026937D01*
X043965Y026887D01*
X043965Y026837D01*
X043961Y026787D01*
X043953Y026738D01*
X043941Y026689D01*
X043925Y026641D01*
X043906Y026595D01*
X043883Y026551D01*
X043856Y026508D01*
X043826Y026468D01*
X043794Y026430D01*
X043758Y026395D01*
X043719Y026363D01*
X043678Y026334D01*
X043635Y026308D01*
X043590Y026286D01*
X043544Y026268D01*
X043496Y026253D01*
X043447Y026242D01*
X043398Y026235D01*
X043348Y026232D01*
X043297Y026233D01*
X043248Y026238D01*
X043198Y026247D01*
X043150Y026260D01*
X043103Y026276D01*
X043057Y026297D01*
X043013Y026321D01*
X042971Y026348D01*
X042931Y026378D01*
X042894Y026412D01*
X042860Y026449D01*
X042828Y026488D01*
X042800Y026529D01*
X042775Y026573D01*
X042754Y026618D01*
X042737Y026665D01*
X042723Y026713D01*
X042713Y026762D01*
X042707Y026812D01*
X042705Y026862D01*
D11*
X017071Y029888D03*
X017071Y032112D03*
D12*
X017000Y037000D03*
X017000Y025000D03*
D13*
X018000Y025000D03*
X019000Y025000D03*
X020000Y025000D03*
X021000Y025000D03*
X022000Y025000D03*
X023000Y025000D03*
X024000Y025000D03*
X025000Y025000D03*
X026000Y025000D03*
X027000Y025000D03*
X028000Y025000D03*
X029000Y025000D03*
X030000Y025000D03*
X031000Y025000D03*
X032000Y025000D03*
X033000Y025000D03*
X034000Y025000D03*
X035000Y025000D03*
X036000Y025000D03*
X037000Y025000D03*
X038000Y025000D03*
X039000Y025000D03*
X040000Y025000D03*
X041000Y025000D03*
X042000Y025000D03*
X043000Y025000D03*
X044000Y025000D03*
X044000Y037000D03*
X043000Y037000D03*
X042000Y037000D03*
X041000Y037000D03*
X040000Y037000D03*
X039000Y037000D03*
X038000Y037000D03*
X037000Y037000D03*
X036000Y037000D03*
X035000Y037000D03*
X034000Y037000D03*
X033000Y037000D03*
X032000Y037000D03*
X031000Y037000D03*
X030000Y037000D03*
X029000Y037000D03*
X028000Y037000D03*
X027000Y037000D03*
X026000Y037000D03*
X025000Y037000D03*
X024000Y037000D03*
X023000Y037000D03*
X022000Y037000D03*
X021000Y037000D03*
X020000Y037000D03*
X019000Y037000D03*
X018000Y037000D03*
D14*
X017293Y035850D03*
X017293Y034150D03*
D15*
X017490Y034397D02*
X017011Y034397D01*
X016947Y034333D01*
X016947Y033966D01*
X017011Y033902D01*
X017490Y033902D01*
X017490Y033048D01*
X017530Y032953D01*
X017603Y032880D01*
X017890Y032592D01*
X017890Y032292D01*
X017883Y032319D01*
X017886Y032325D01*
X017876Y032348D01*
X017871Y032373D01*
X017865Y032376D01*
X017842Y032431D01*
X017844Y032438D01*
X017831Y032459D01*
X017821Y032482D01*
X017815Y032485D01*
X017784Y032536D01*
X017784Y032542D01*
X017768Y032561D01*
X017755Y032583D01*
X017748Y032584D01*
X017710Y032630D01*
X017709Y032636D01*
X017690Y032653D01*
X017674Y032672D01*
X017667Y032672D01*
X017622Y032711D01*
X017620Y032717D01*
X017599Y032730D01*
X017580Y032747D01*
X017573Y032746D01*
X017522Y032777D01*
X017520Y032783D01*
X017497Y032793D01*
X017475Y032806D01*
X017469Y032805D01*
X017414Y032827D01*
X017410Y032833D01*
X017386Y032839D01*
X017363Y032849D01*
X017356Y032846D01*
X017299Y032860D01*
X017294Y032865D01*
X017269Y032867D01*
X017245Y032873D01*
X017239Y032869D01*
X017183Y032874D01*
X017181Y032876D01*
X017153Y032876D01*
X017125Y032878D01*
X017122Y032876D01*
X016648Y032876D01*
X016648Y036520D01*
X017112Y036520D01*
X017490Y036142D01*
X017490Y036098D01*
X017011Y036098D01*
X016947Y036034D01*
X016947Y035667D01*
X017011Y035603D01*
X017490Y035603D01*
X017490Y034397D01*
X017490Y034449D02*
X016648Y034449D01*
X016648Y034547D02*
X017490Y034547D01*
X017490Y034646D02*
X016648Y034646D01*
X016648Y034744D02*
X017490Y034744D01*
X017490Y034843D02*
X016648Y034843D01*
X016648Y034941D02*
X017490Y034941D01*
X017490Y035040D02*
X016648Y035040D01*
X016648Y035138D02*
X017490Y035138D01*
X017490Y035237D02*
X016648Y035237D01*
X016648Y035335D02*
X017490Y035335D01*
X017490Y035434D02*
X016648Y035434D01*
X016648Y035532D02*
X017490Y035532D01*
X016983Y035631D02*
X016648Y035631D01*
X016648Y035729D02*
X016947Y035729D01*
X016947Y035828D02*
X016648Y035828D01*
X016648Y035926D02*
X016947Y035926D01*
X016947Y036025D02*
X016648Y036025D01*
X016648Y036123D02*
X017490Y036123D01*
X017411Y036222D02*
X016648Y036222D01*
X016648Y036320D02*
X017312Y036320D01*
X017214Y036419D02*
X016648Y036419D01*
X016648Y036517D02*
X017115Y036517D01*
X018150Y036517D02*
X019471Y036517D01*
X019569Y036419D02*
X019299Y036419D01*
X019441Y036360D02*
X019155Y036478D01*
X018845Y036478D01*
X018559Y036360D01*
X018340Y036141D01*
X018222Y035855D01*
X018222Y035545D01*
X018340Y035259D01*
X018559Y035040D01*
X018845Y034922D01*
X019155Y034922D01*
X019441Y035040D01*
X019660Y035259D01*
X019778Y035545D01*
X019778Y035855D01*
X019660Y036141D01*
X019441Y036360D01*
X019481Y036320D02*
X019668Y036320D01*
X019579Y036222D02*
X019766Y036222D01*
X019667Y036123D02*
X019865Y036123D01*
X019963Y036025D02*
X019708Y036025D01*
X019749Y035926D02*
X020062Y035926D01*
X020160Y035828D02*
X019778Y035828D01*
X019778Y035729D02*
X020259Y035729D01*
X020357Y035631D02*
X019778Y035631D01*
X019773Y035532D02*
X020456Y035532D01*
X020554Y035434D02*
X019732Y035434D01*
X019691Y035335D02*
X020653Y035335D01*
X020738Y035250D02*
X020538Y035250D01*
X019788Y034500D01*
X019062Y034500D01*
X018150Y035412D01*
X018150Y036543D01*
X018272Y036593D01*
X018407Y036728D01*
X018480Y036905D01*
X018480Y037095D01*
X018407Y037272D01*
X018327Y037352D01*
X018673Y037352D01*
X018593Y037272D01*
X018520Y037095D01*
X018520Y036905D01*
X018593Y036728D01*
X018728Y036593D01*
X018905Y036520D01*
X019095Y036520D01*
X019272Y036593D01*
X019333Y036655D01*
X020738Y035250D01*
X020524Y035237D02*
X019637Y035237D01*
X019539Y035138D02*
X020426Y035138D01*
X020327Y035040D02*
X019439Y035040D01*
X019202Y034941D02*
X020229Y034941D01*
X020130Y034843D02*
X018720Y034843D01*
X018798Y034941D02*
X018621Y034941D01*
X018561Y035040D02*
X018523Y035040D01*
X018461Y035138D02*
X018424Y035138D01*
X018363Y035237D02*
X018326Y035237D01*
X018309Y035335D02*
X018227Y035335D01*
X018268Y035434D02*
X018150Y035434D01*
X018150Y035532D02*
X018227Y035532D01*
X018222Y035631D02*
X018150Y035631D01*
X018150Y035729D02*
X018222Y035729D01*
X018222Y035828D02*
X018150Y035828D01*
X018150Y035926D02*
X018251Y035926D01*
X018292Y036025D02*
X018150Y036025D01*
X018150Y036123D02*
X018333Y036123D01*
X018421Y036222D02*
X018150Y036222D01*
X018150Y036320D02*
X018519Y036320D01*
X018701Y036419D02*
X018150Y036419D01*
X018294Y036616D02*
X018706Y036616D01*
X018607Y036714D02*
X018393Y036714D01*
X018442Y036813D02*
X018558Y036813D01*
X018520Y036911D02*
X018480Y036911D01*
X018480Y037010D02*
X018520Y037010D01*
X018525Y037108D02*
X018475Y037108D01*
X018434Y037207D02*
X018566Y037207D01*
X018626Y037305D02*
X018374Y037305D01*
X019294Y036616D02*
X019372Y036616D01*
X020150Y036543D02*
X020272Y036593D01*
X020407Y036728D01*
X020480Y036905D01*
X020480Y037095D01*
X020407Y037272D01*
X020327Y037352D01*
X020673Y037352D01*
X020593Y037272D01*
X020520Y037095D01*
X020520Y036905D01*
X020593Y036728D01*
X020728Y036593D01*
X020905Y036520D01*
X021095Y036520D01*
X021272Y036593D01*
X021407Y036728D01*
X021480Y036905D01*
X021480Y037095D01*
X021407Y037272D01*
X021327Y037352D01*
X022673Y037352D01*
X022593Y037272D01*
X022520Y037095D01*
X022520Y036905D01*
X022593Y036728D01*
X022728Y036593D01*
X022905Y036520D01*
X023095Y036520D01*
X023272Y036593D01*
X023407Y036728D01*
X023480Y036905D01*
X023480Y037095D01*
X023407Y037272D01*
X023327Y037352D01*
X023673Y037352D01*
X023593Y037272D01*
X023520Y037095D01*
X023520Y036905D01*
X023593Y036728D01*
X023728Y036593D01*
X023905Y036520D01*
X024095Y036520D01*
X024272Y036593D01*
X024407Y036728D01*
X024480Y036905D01*
X024480Y037095D01*
X024407Y037272D01*
X024327Y037352D01*
X024673Y037352D01*
X024593Y037272D01*
X024520Y037095D01*
X024520Y036905D01*
X024570Y036783D01*
X024150Y036362D01*
X024150Y035611D01*
X024138Y035586D01*
X024141Y035577D01*
X024119Y035514D01*
X024109Y035503D01*
X024050Y035562D01*
X023962Y035650D01*
X021362Y035650D01*
X021012Y036000D01*
X020888Y036000D01*
X020612Y036000D01*
X020150Y036462D01*
X020150Y036543D01*
X020150Y036517D02*
X024305Y036517D01*
X024294Y036616D02*
X024403Y036616D01*
X024393Y036714D02*
X024502Y036714D01*
X024558Y036813D02*
X024442Y036813D01*
X024480Y036911D02*
X024520Y036911D01*
X024520Y037010D02*
X024480Y037010D01*
X024475Y037108D02*
X024525Y037108D01*
X024566Y037207D02*
X024434Y037207D01*
X024374Y037305D02*
X024626Y037305D01*
X025327Y037352D02*
X025673Y037352D01*
X025593Y037272D01*
X025520Y037095D01*
X025520Y036905D01*
X025570Y036783D01*
X024850Y036062D01*
X024850Y035661D01*
X024838Y035636D01*
X024841Y035627D01*
X024819Y035564D01*
X024792Y035536D01*
X024792Y035485D01*
X024783Y035460D01*
X024792Y035442D01*
X024792Y035364D01*
X024914Y035242D01*
X025086Y035242D01*
X025208Y035364D01*
X025208Y035442D01*
X025217Y035460D01*
X025217Y035460D01*
X025217Y035460D01*
X025208Y035485D01*
X025208Y035536D01*
X025181Y035564D01*
X025159Y035627D01*
X025162Y035636D01*
X025150Y035661D01*
X025150Y035938D01*
X025783Y036570D01*
X025905Y036520D01*
X026095Y036520D01*
X026272Y036593D01*
X026407Y036728D01*
X026480Y036905D01*
X026480Y037095D01*
X026407Y037272D01*
X026327Y037352D01*
X026673Y037352D01*
X026593Y037272D01*
X026520Y037095D01*
X026520Y036905D01*
X026570Y036783D01*
X025788Y036000D01*
X025700Y035912D01*
X025700Y035661D01*
X025688Y035636D01*
X025691Y035627D01*
X025669Y035564D01*
X025642Y035536D01*
X025642Y035485D01*
X025633Y035460D01*
X025633Y035460D01*
X025633Y035460D01*
X025642Y035442D01*
X025642Y035364D01*
X025764Y035242D01*
X025936Y035242D01*
X026058Y035364D01*
X026058Y035442D01*
X026067Y035460D01*
X026067Y035460D01*
X026067Y035460D01*
X026058Y035485D01*
X026058Y035536D01*
X026031Y035564D01*
X026009Y035627D01*
X026012Y035636D01*
X026000Y035661D01*
X026000Y035788D01*
X026783Y036570D01*
X026905Y036520D01*
X027095Y036520D01*
X027272Y036593D01*
X027407Y036728D01*
X027480Y036905D01*
X027480Y037095D01*
X027407Y037272D01*
X027327Y037352D01*
X027673Y037352D01*
X027593Y037272D01*
X027520Y037095D01*
X027520Y036905D01*
X027570Y036783D01*
X026500Y035712D01*
X026500Y035661D01*
X026488Y035636D01*
X026491Y035627D01*
X026469Y035564D01*
X026442Y035536D01*
X026442Y035485D01*
X026433Y035460D01*
X026433Y035460D01*
X026433Y035460D01*
X026442Y035442D01*
X026442Y035364D01*
X026564Y035242D01*
X026736Y035242D01*
X026858Y035364D01*
X026858Y035442D01*
X026867Y035460D01*
X026867Y035460D01*
X026867Y035460D01*
X026858Y035485D01*
X026858Y035536D01*
X026831Y035564D01*
X026817Y035605D01*
X027783Y036570D01*
X027905Y036520D01*
X028095Y036520D01*
X028272Y036593D01*
X028407Y036728D01*
X028480Y036905D01*
X028480Y037095D01*
X028407Y037272D01*
X028327Y037352D01*
X028673Y037352D01*
X028593Y037272D01*
X028520Y037095D01*
X028520Y036905D01*
X028570Y036783D01*
X027493Y035706D01*
X027467Y035696D01*
X027463Y035688D01*
X027415Y035665D01*
X027402Y035658D01*
X027364Y035658D01*
X027328Y035622D01*
X027304Y035611D01*
X027297Y035592D01*
X027242Y035536D01*
X027242Y035364D01*
X027364Y035242D01*
X027536Y035242D01*
X027592Y035297D01*
X027611Y035304D01*
X027622Y035328D01*
X027658Y035364D01*
X027658Y035402D01*
X027665Y035415D01*
X027688Y035463D01*
X027696Y035467D01*
X027706Y035493D01*
X028783Y036570D01*
X028905Y036520D01*
X029095Y036520D01*
X029272Y036593D01*
X029407Y036728D01*
X029480Y036905D01*
X029480Y037095D01*
X029407Y037272D01*
X029327Y037352D01*
X029673Y037352D01*
X029593Y037272D01*
X029520Y037095D01*
X029520Y036905D01*
X029570Y036783D01*
X028396Y035608D01*
X028386Y035612D01*
X028377Y035609D01*
X028314Y035631D01*
X028286Y035658D01*
X028235Y035658D01*
X028210Y035667D01*
X028210Y035667D01*
X028210Y035667D01*
X028192Y035658D01*
X028114Y035658D01*
X027992Y035536D01*
X027992Y035364D01*
X028114Y035242D01*
X028192Y035242D01*
X028210Y035233D01*
X028235Y035242D01*
X028286Y035242D01*
X028314Y035269D01*
X028377Y035291D01*
X028386Y035288D01*
X028411Y035300D01*
X028512Y035300D01*
X028600Y035388D01*
X029783Y036570D01*
X029905Y036520D01*
X030095Y036520D01*
X030272Y036593D01*
X030407Y036728D01*
X030480Y036905D01*
X030480Y037095D01*
X030407Y037272D01*
X030327Y037352D01*
X030673Y037352D01*
X030593Y037272D01*
X030520Y037095D01*
X030520Y036905D01*
X030570Y036783D01*
X029388Y035600D01*
X029211Y035600D01*
X029186Y035612D01*
X029177Y035609D01*
X029114Y035631D01*
X029086Y035658D01*
X029035Y035658D01*
X029010Y035667D01*
X029010Y035667D01*
X029010Y035667D01*
X028992Y035658D01*
X028914Y035658D01*
X028792Y035536D01*
X028792Y035364D01*
X028914Y035242D01*
X028992Y035242D01*
X029010Y035233D01*
X029010Y035233D01*
X029010Y035233D01*
X029035Y035242D01*
X029086Y035242D01*
X029114Y035269D01*
X029177Y035291D01*
X029186Y035288D01*
X029211Y035300D01*
X029512Y035300D01*
X029592Y035379D01*
X029592Y035364D01*
X029714Y035242D01*
X029886Y035242D01*
X030008Y035364D01*
X030008Y035417D01*
X030016Y035429D01*
X030016Y035429D01*
X030016Y035429D01*
X030008Y035470D01*
X030008Y035536D01*
X029992Y035552D01*
X029988Y035576D01*
X030762Y036350D01*
X031562Y036350D01*
X031650Y036438D01*
X031783Y036570D01*
X031905Y036520D01*
X032095Y036520D01*
X032272Y036593D01*
X032407Y036728D01*
X032480Y036905D01*
X032480Y037095D01*
X032407Y037272D01*
X032327Y037352D01*
X032673Y037352D01*
X032593Y037272D01*
X032520Y037095D01*
X032520Y036905D01*
X032570Y036783D01*
X031388Y035600D01*
X030811Y035600D01*
X030786Y035612D01*
X030777Y035609D01*
X030714Y035631D01*
X030686Y035658D01*
X030635Y035658D01*
X030610Y035667D01*
X030610Y035667D01*
X030610Y035667D01*
X030592Y035658D01*
X030514Y035658D01*
X030392Y035536D01*
X030392Y035364D01*
X030514Y035242D01*
X030592Y035242D01*
X030610Y035233D01*
X030610Y035233D01*
X030610Y035233D01*
X030635Y035242D01*
X030686Y035242D01*
X030714Y035269D01*
X030777Y035291D01*
X030786Y035288D01*
X030811Y035300D01*
X031512Y035300D01*
X032783Y036570D01*
X032905Y036520D01*
X032958Y036520D01*
X032155Y035717D01*
X032118Y035695D01*
X032115Y035685D01*
X032080Y035658D01*
X032064Y035658D01*
X032013Y035607D01*
X031974Y035578D01*
X031973Y035568D01*
X031942Y035536D01*
X031942Y035364D01*
X032064Y035242D01*
X032236Y035242D01*
X032328Y035333D01*
X032337Y035339D01*
X032338Y035343D01*
X032358Y035364D01*
X032358Y035424D01*
X032363Y035443D01*
X032380Y035510D01*
X032388Y035516D01*
X032390Y035527D01*
X033212Y036350D01*
X033538Y036350D01*
X032948Y035760D01*
X032942Y035760D01*
X032907Y035719D01*
X032867Y035683D01*
X032867Y035679D01*
X032865Y035677D01*
X032800Y035612D01*
X032800Y035595D01*
X032797Y035592D01*
X032742Y035536D01*
X032742Y035364D01*
X032864Y035242D01*
X033036Y035242D01*
X033158Y035364D01*
X033158Y035446D01*
X033162Y035550D01*
X033812Y036200D01*
X034288Y036200D01*
X033793Y035706D01*
X033767Y035696D01*
X033763Y035688D01*
X033715Y035665D01*
X033702Y035658D01*
X033664Y035658D01*
X033628Y035622D01*
X033604Y035611D01*
X033597Y035592D01*
X033542Y035536D01*
X033542Y035364D01*
X033664Y035242D01*
X033836Y035242D01*
X033892Y035297D01*
X033911Y035304D01*
X033922Y035328D01*
X033958Y035364D01*
X033958Y035402D01*
X033965Y035415D01*
X033965Y035415D01*
X033988Y035463D01*
X033996Y035467D01*
X034006Y035493D01*
X034562Y036050D01*
X034938Y036050D01*
X034577Y035690D01*
X034566Y035688D01*
X034560Y035680D01*
X034493Y035663D01*
X034474Y035658D01*
X034414Y035658D01*
X034393Y035638D01*
X034389Y035637D01*
X034383Y035628D01*
X034292Y035536D01*
X034292Y035364D01*
X034414Y035242D01*
X034586Y035242D01*
X034618Y035273D01*
X034628Y035274D01*
X034657Y035313D01*
X034708Y035364D01*
X034708Y035380D01*
X034735Y035415D01*
X034745Y035418D01*
X034767Y035455D01*
X035212Y035900D01*
X035538Y035900D01*
X035343Y035706D01*
X035317Y035696D01*
X035313Y035688D01*
X035265Y035665D01*
X035252Y035658D01*
X035214Y035658D01*
X035178Y035622D01*
X035154Y035611D01*
X035147Y035592D01*
X035092Y035536D01*
X035092Y035364D01*
X035214Y035242D01*
X035386Y035242D01*
X035442Y035297D01*
X035461Y035304D01*
X035472Y035328D01*
X035508Y035364D01*
X035508Y035402D01*
X035515Y035415D01*
X035515Y035415D01*
X035538Y035463D01*
X035546Y035467D01*
X035556Y035493D01*
X035812Y035750D01*
X036712Y035750D01*
X037012Y036050D01*
X037762Y036050D01*
X037912Y036200D01*
X038662Y036200D01*
X038812Y036350D01*
X042562Y036350D01*
X042783Y036570D01*
X042905Y036520D01*
X043095Y036520D01*
X043272Y036593D01*
X043407Y036728D01*
X043480Y036905D01*
X043480Y037095D01*
X043407Y037272D01*
X043327Y037352D01*
X044352Y037352D01*
X044352Y031921D01*
X042882Y031921D01*
X042882Y032015D01*
X042838Y032059D01*
X041595Y032059D01*
X041551Y032015D01*
X041551Y029985D01*
X041595Y029941D01*
X042838Y029941D01*
X042882Y029985D01*
X042882Y030079D01*
X044352Y030079D01*
X044352Y024648D01*
X043327Y024648D01*
X043407Y024728D01*
X043480Y024905D01*
X043480Y025095D01*
X043407Y025272D01*
X043272Y025407D01*
X043095Y025480D01*
X042905Y025480D01*
X042728Y025407D01*
X042593Y025272D01*
X042520Y025095D01*
X042520Y024905D01*
X042593Y024728D01*
X042673Y024648D01*
X042327Y024648D01*
X042407Y024728D01*
X042480Y024905D01*
X042480Y025095D01*
X042407Y025272D01*
X042272Y025407D01*
X042095Y025480D01*
X041905Y025480D01*
X041728Y025407D01*
X041593Y025272D01*
X041520Y025095D01*
X041520Y024905D01*
X041593Y024728D01*
X041673Y024648D01*
X041327Y024648D01*
X041407Y024728D01*
X041480Y024905D01*
X041480Y025095D01*
X041407Y025272D01*
X041272Y025407D01*
X041095Y025480D01*
X040958Y025480D01*
X038576Y027863D01*
X038462Y027910D01*
X023138Y027910D01*
X023060Y027878D01*
X023060Y031852D01*
X023013Y031966D01*
X022978Y032000D01*
X023205Y032000D01*
X023214Y031992D01*
X023386Y031992D01*
X023508Y032114D01*
X023508Y032286D01*
X023386Y032408D01*
X023214Y032408D01*
X023205Y032400D01*
X022050Y032400D01*
X022050Y033450D01*
X023612Y033450D01*
X024237Y034075D01*
X024257Y034094D01*
X024283Y034104D01*
X024287Y034112D01*
X024348Y034142D01*
X024386Y034142D01*
X024422Y034178D01*
X024446Y034189D01*
X024446Y034189D01*
X024446Y034189D01*
X024453Y034208D01*
X024508Y034264D01*
X024508Y034436D01*
X024386Y034558D01*
X024214Y034558D01*
X024158Y034503D01*
X024139Y034496D01*
X024128Y034472D01*
X024092Y034436D01*
X024092Y034398D01*
X024062Y034337D01*
X024054Y034333D01*
X024044Y034307D01*
X024025Y034287D01*
X023958Y034221D01*
X023958Y034236D01*
X023836Y034358D01*
X023700Y034358D01*
X023700Y034538D01*
X023737Y034575D01*
X023757Y034594D01*
X023783Y034604D01*
X023787Y034612D01*
X023848Y034642D01*
X023886Y034642D01*
X023922Y034678D01*
X023946Y034689D01*
X023946Y034689D01*
X023946Y034689D01*
X023953Y034708D01*
X024008Y034764D01*
X024008Y034936D01*
X023886Y035058D01*
X023714Y035058D01*
X023658Y035003D01*
X023639Y034996D01*
X023628Y034972D01*
X023592Y034936D01*
X023592Y034898D01*
X023562Y034837D01*
X023554Y034833D01*
X023544Y034807D01*
X023525Y034787D01*
X023400Y034662D01*
X023400Y034212D01*
X023238Y034050D01*
X021662Y034050D01*
X021656Y034057D01*
X021646Y034083D01*
X021638Y034087D01*
X021608Y034148D01*
X021608Y034186D01*
X021575Y034219D01*
X021574Y034231D01*
X021574Y034231D01*
X021565Y034237D01*
X021561Y034246D01*
X021561Y034246D01*
X021561Y034246D01*
X021545Y034252D01*
X021536Y034258D01*
X021486Y034308D01*
X021468Y034308D01*
X021450Y034322D01*
X021450Y034962D01*
X021362Y035050D01*
X021212Y035200D01*
X023788Y035200D01*
X027338Y031650D01*
X027300Y031612D01*
X024488Y028800D01*
X023911Y028800D01*
X023886Y028812D01*
X023877Y028809D01*
X023814Y028831D01*
X023786Y028858D01*
X023735Y028858D01*
X023710Y028867D01*
X023710Y028867D01*
X023710Y028867D01*
X023692Y028858D01*
X023614Y028858D01*
X023492Y028736D01*
X023492Y028564D01*
X023614Y028442D01*
X023692Y028442D01*
X023710Y028433D01*
X023735Y028442D01*
X023786Y028442D01*
X023814Y028469D01*
X023877Y028491D01*
X023886Y028488D01*
X023911Y028500D01*
X024612Y028500D01*
X027512Y031400D01*
X034622Y031400D01*
X034625Y031397D01*
X034635Y031398D01*
X034715Y031341D01*
X034764Y031292D01*
X034936Y031292D01*
X035058Y031414D01*
X035058Y031550D01*
X038088Y031550D01*
X038594Y031043D01*
X038604Y031017D01*
X038612Y031013D01*
X038642Y030952D01*
X038642Y030914D01*
X038678Y030878D01*
X038686Y030861D01*
X038689Y030854D01*
X038708Y030847D01*
X038764Y030792D01*
X038936Y030792D01*
X039058Y030914D01*
X039058Y031086D01*
X039003Y031142D01*
X038996Y031161D01*
X038972Y031172D01*
X038936Y031208D01*
X038898Y031208D01*
X038837Y031238D01*
X038833Y031246D01*
X038807Y031256D01*
X038362Y031700D01*
X038622Y031700D01*
X038625Y031697D01*
X038635Y031698D01*
X038715Y031641D01*
X038764Y031592D01*
X038936Y031592D01*
X039058Y031714D01*
X039058Y031886D01*
X038936Y032008D01*
X038905Y032008D01*
X038902Y032011D01*
X038902Y032011D01*
X038902Y032011D01*
X038856Y032009D01*
X038845Y032008D01*
X038764Y032008D01*
X038759Y032004D01*
X038725Y032002D01*
X038717Y032008D01*
X038668Y032000D01*
X027612Y032000D01*
X024403Y035209D01*
X024508Y035314D01*
X024508Y035392D01*
X024517Y035410D01*
X024517Y035410D01*
X024517Y035410D01*
X024508Y035435D01*
X024508Y035486D01*
X024481Y035514D01*
X024459Y035577D01*
X024462Y035586D01*
X024450Y035611D01*
X024450Y036238D01*
X024783Y036570D01*
X024905Y036520D01*
X025095Y036520D01*
X025272Y036593D01*
X025407Y036728D01*
X025480Y036905D01*
X025480Y037095D01*
X025407Y037272D01*
X025327Y037352D01*
X025374Y037305D02*
X025626Y037305D01*
X025566Y037207D02*
X025434Y037207D01*
X025475Y037108D02*
X025525Y037108D01*
X025520Y037010D02*
X025480Y037010D01*
X025480Y036911D02*
X025520Y036911D01*
X025558Y036813D02*
X025442Y036813D01*
X025393Y036714D02*
X025502Y036714D01*
X025403Y036616D02*
X025294Y036616D01*
X025305Y036517D02*
X024729Y036517D01*
X024631Y036419D02*
X025206Y036419D01*
X025108Y036320D02*
X024532Y036320D01*
X024450Y036222D02*
X025009Y036222D01*
X024911Y036123D02*
X024450Y036123D01*
X024450Y036025D02*
X024850Y036025D01*
X024850Y035926D02*
X024450Y035926D01*
X024450Y035828D02*
X024850Y035828D01*
X024850Y035729D02*
X024450Y035729D01*
X024450Y035631D02*
X024840Y035631D01*
X024792Y035532D02*
X024475Y035532D01*
X024509Y035434D02*
X024792Y035434D01*
X024783Y035460D02*
X024783Y035460D01*
X024820Y035335D02*
X024508Y035335D01*
X024431Y035237D02*
X028202Y035237D01*
X028210Y035233D02*
X028210Y035233D01*
X028221Y035237D02*
X029002Y035237D01*
X029021Y035237D02*
X030602Y035237D01*
X030621Y035237D02*
X044352Y035237D01*
X044352Y035335D02*
X035480Y035335D01*
X035523Y035434D02*
X044352Y035434D01*
X044352Y035532D02*
X035594Y035532D01*
X035693Y035631D02*
X044352Y035631D01*
X044352Y035729D02*
X035791Y035729D01*
X035465Y035828D02*
X035140Y035828D01*
X035041Y035729D02*
X035367Y035729D01*
X035265Y035665D02*
X035265Y035665D01*
X035186Y035631D02*
X034943Y035631D01*
X034844Y035532D02*
X035092Y035532D01*
X035092Y035434D02*
X034754Y035434D01*
X034680Y035335D02*
X035120Y035335D01*
X034715Y035828D02*
X034340Y035828D01*
X034438Y035926D02*
X034814Y035926D01*
X034912Y036025D02*
X034537Y036025D01*
X034617Y035729D02*
X034241Y035729D01*
X034143Y035631D02*
X034385Y035631D01*
X034292Y035532D02*
X034044Y035532D01*
X033973Y035434D02*
X034292Y035434D01*
X034320Y035335D02*
X033930Y035335D01*
X033570Y035335D02*
X033130Y035335D01*
X033158Y035434D02*
X033542Y035434D01*
X033542Y035532D02*
X033162Y035532D01*
X033243Y035631D02*
X033636Y035631D01*
X033715Y035665D02*
X033715Y035665D01*
X033817Y035729D02*
X033341Y035729D01*
X033440Y035828D02*
X033915Y035828D01*
X034014Y035926D02*
X033538Y035926D01*
X033637Y036025D02*
X034112Y036025D01*
X034211Y036123D02*
X033735Y036123D01*
X033508Y036320D02*
X033182Y036320D01*
X033084Y036222D02*
X033409Y036222D01*
X033311Y036123D02*
X032985Y036123D01*
X032887Y036025D02*
X033212Y036025D01*
X033114Y035926D02*
X032788Y035926D01*
X032690Y035828D02*
X033015Y035828D01*
X032915Y035729D02*
X032591Y035729D01*
X032493Y035631D02*
X032818Y035631D01*
X032742Y035532D02*
X032394Y035532D01*
X032361Y035434D02*
X032742Y035434D01*
X032770Y035335D02*
X032331Y035335D01*
X031970Y035335D02*
X031547Y035335D01*
X031646Y035434D02*
X031942Y035434D01*
X031942Y035532D02*
X031744Y035532D01*
X031843Y035631D02*
X032036Y035631D01*
X031941Y035729D02*
X032167Y035729D01*
X032265Y035828D02*
X032040Y035828D01*
X032138Y035926D02*
X032364Y035926D01*
X032462Y036025D02*
X032237Y036025D01*
X032335Y036123D02*
X032561Y036123D01*
X032659Y036222D02*
X032434Y036222D01*
X032532Y036320D02*
X032758Y036320D01*
X032856Y036419D02*
X032631Y036419D01*
X032729Y036517D02*
X032955Y036517D01*
X033329Y036650D02*
X033407Y036728D01*
X033480Y036905D01*
X033480Y037095D01*
X033407Y037272D01*
X033327Y037352D01*
X034673Y037352D01*
X034593Y037272D01*
X034520Y037095D01*
X034520Y036905D01*
X034593Y036728D01*
X034671Y036650D01*
X033329Y036650D01*
X033393Y036714D02*
X034607Y036714D01*
X034558Y036813D02*
X033442Y036813D01*
X033480Y036911D02*
X034520Y036911D01*
X034520Y037010D02*
X033480Y037010D01*
X033475Y037108D02*
X034525Y037108D01*
X034566Y037207D02*
X033434Y037207D01*
X033374Y037305D02*
X034626Y037305D01*
X032626Y037305D02*
X032374Y037305D01*
X032434Y037207D02*
X032566Y037207D01*
X032525Y037108D02*
X032475Y037108D01*
X032480Y037010D02*
X032520Y037010D01*
X032520Y036911D02*
X032480Y036911D01*
X032442Y036813D02*
X032558Y036813D01*
X032502Y036714D02*
X032393Y036714D01*
X032403Y036616D02*
X032294Y036616D01*
X032305Y036517D02*
X031729Y036517D01*
X031631Y036419D02*
X032206Y036419D01*
X032108Y036320D02*
X030732Y036320D01*
X030634Y036222D02*
X032009Y036222D01*
X031911Y036123D02*
X030535Y036123D01*
X030437Y036025D02*
X031812Y036025D01*
X031714Y035926D02*
X030338Y035926D01*
X030240Y035828D02*
X031615Y035828D01*
X031517Y035729D02*
X030141Y035729D01*
X030043Y035631D02*
X030486Y035631D01*
X030392Y035532D02*
X030008Y035532D01*
X030016Y035434D02*
X030392Y035434D01*
X030420Y035335D02*
X029980Y035335D01*
X029620Y035335D02*
X029547Y035335D01*
X029418Y035631D02*
X029115Y035631D01*
X028941Y035729D02*
X029517Y035729D01*
X029615Y035828D02*
X029040Y035828D01*
X029138Y035926D02*
X029714Y035926D01*
X029812Y036025D02*
X029237Y036025D01*
X029335Y036123D02*
X029911Y036123D01*
X030009Y036222D02*
X029434Y036222D01*
X029532Y036320D02*
X030108Y036320D01*
X030206Y036419D02*
X029631Y036419D01*
X029729Y036517D02*
X030305Y036517D01*
X030294Y036616D02*
X030403Y036616D01*
X030393Y036714D02*
X030502Y036714D01*
X030558Y036813D02*
X030442Y036813D01*
X030480Y036911D02*
X030520Y036911D01*
X030520Y037010D02*
X030480Y037010D01*
X030475Y037108D02*
X030525Y037108D01*
X030566Y037207D02*
X030434Y037207D01*
X030374Y037305D02*
X030626Y037305D01*
X029626Y037305D02*
X029374Y037305D01*
X029434Y037207D02*
X029566Y037207D01*
X029525Y037108D02*
X029475Y037108D01*
X029480Y037010D02*
X029520Y037010D01*
X029520Y036911D02*
X029480Y036911D01*
X029442Y036813D02*
X029558Y036813D01*
X029502Y036714D02*
X029393Y036714D01*
X029403Y036616D02*
X029294Y036616D01*
X029305Y036517D02*
X028729Y036517D01*
X028631Y036419D02*
X029206Y036419D01*
X029108Y036320D02*
X028532Y036320D01*
X028434Y036222D02*
X029009Y036222D01*
X028911Y036123D02*
X028335Y036123D01*
X028237Y036025D02*
X028812Y036025D01*
X028714Y035926D02*
X028138Y035926D01*
X028040Y035828D02*
X028615Y035828D01*
X028517Y035729D02*
X027941Y035729D01*
X027843Y035631D02*
X028086Y035631D01*
X027992Y035532D02*
X027744Y035532D01*
X027673Y035434D02*
X027992Y035434D01*
X028020Y035335D02*
X027630Y035335D01*
X027665Y035415D02*
X027665Y035415D01*
X027517Y035729D02*
X026941Y035729D01*
X026843Y035631D02*
X027336Y035631D01*
X027415Y035665D02*
X027415Y035665D01*
X027242Y035532D02*
X026858Y035532D01*
X026858Y035434D02*
X027242Y035434D01*
X027270Y035335D02*
X026830Y035335D01*
X026470Y035335D02*
X026030Y035335D01*
X026058Y035434D02*
X026442Y035434D01*
X026442Y035532D02*
X026058Y035532D01*
X026010Y035631D02*
X026490Y035631D01*
X026517Y035729D02*
X026000Y035729D01*
X026040Y035828D02*
X026615Y035828D01*
X026714Y035926D02*
X026138Y035926D01*
X026237Y036025D02*
X026812Y036025D01*
X026911Y036123D02*
X026335Y036123D01*
X026434Y036222D02*
X027009Y036222D01*
X027108Y036320D02*
X026532Y036320D01*
X026631Y036419D02*
X027206Y036419D01*
X027305Y036517D02*
X026729Y036517D01*
X026502Y036714D02*
X026393Y036714D01*
X026403Y036616D02*
X026294Y036616D01*
X026305Y036517D02*
X025729Y036517D01*
X025631Y036419D02*
X026206Y036419D01*
X026108Y036320D02*
X025532Y036320D01*
X025434Y036222D02*
X026009Y036222D01*
X025911Y036123D02*
X025335Y036123D01*
X025237Y036025D02*
X025812Y036025D01*
X025714Y035926D02*
X025150Y035926D01*
X025150Y035828D02*
X025700Y035828D01*
X025700Y035729D02*
X025150Y035729D01*
X025160Y035631D02*
X025690Y035631D01*
X025642Y035532D02*
X025208Y035532D01*
X025208Y035434D02*
X025642Y035434D01*
X025670Y035335D02*
X025180Y035335D01*
X024770Y034843D02*
X044352Y034843D01*
X044352Y034941D02*
X024671Y034941D01*
X024573Y035040D02*
X044352Y035040D01*
X044352Y035138D02*
X024474Y035138D01*
X024145Y034843D02*
X024008Y034843D01*
X024004Y034941D02*
X024047Y034941D01*
X023948Y035040D02*
X023905Y035040D01*
X023850Y035138D02*
X021274Y035138D01*
X021373Y035040D02*
X023695Y035040D01*
X023639Y034996D02*
X023639Y034996D01*
X023639Y034996D01*
X023596Y034941D02*
X021450Y034941D01*
X021450Y034843D02*
X023565Y034843D01*
X023482Y034744D02*
X021450Y034744D01*
X021450Y034646D02*
X023400Y034646D01*
X023400Y034547D02*
X021450Y034547D01*
X021450Y034449D02*
X023400Y034449D01*
X023400Y034350D02*
X021450Y034350D01*
X021546Y034252D02*
X023400Y034252D01*
X023341Y034153D02*
X021608Y034153D01*
X021574Y034231D02*
X021574Y034231D01*
X021658Y034055D02*
X023242Y034055D01*
X023700Y034449D02*
X024104Y034449D01*
X024139Y034496D02*
X024139Y034496D01*
X024139Y034496D01*
X024202Y034547D02*
X023709Y034547D01*
X023890Y034646D02*
X024342Y034646D01*
X024398Y034547D02*
X024441Y034547D01*
X024496Y034449D02*
X024539Y034449D01*
X024508Y034350D02*
X024638Y034350D01*
X024736Y034252D02*
X024496Y034252D01*
X024398Y034153D02*
X024835Y034153D01*
X024933Y034055D02*
X024217Y034055D01*
X024118Y033956D02*
X025032Y033956D01*
X025130Y033858D02*
X024020Y033858D01*
X023921Y033759D02*
X025229Y033759D01*
X025327Y033661D02*
X023823Y033661D01*
X023724Y033562D02*
X025426Y033562D01*
X025524Y033464D02*
X023626Y033464D01*
X023943Y034252D02*
X023989Y034252D01*
X024069Y034350D02*
X023845Y034350D01*
X023989Y034744D02*
X024244Y034744D01*
X024868Y034744D02*
X044352Y034744D01*
X044352Y034646D02*
X024967Y034646D01*
X025065Y034547D02*
X044352Y034547D01*
X044352Y034449D02*
X025164Y034449D01*
X025262Y034350D02*
X044352Y034350D01*
X044352Y034252D02*
X025361Y034252D01*
X025459Y034153D02*
X044352Y034153D01*
X044352Y034055D02*
X025558Y034055D01*
X025656Y033956D02*
X044352Y033956D01*
X044352Y033858D02*
X025755Y033858D01*
X025853Y033759D02*
X044352Y033759D01*
X044352Y033661D02*
X025952Y033661D01*
X026050Y033562D02*
X044352Y033562D01*
X044352Y033464D02*
X026149Y033464D01*
X026247Y033365D02*
X044352Y033365D01*
X044352Y033267D02*
X026346Y033267D01*
X026444Y033168D02*
X044352Y033168D01*
X044352Y033070D02*
X026543Y033070D01*
X026641Y032971D02*
X044352Y032971D01*
X044352Y032873D02*
X026740Y032873D01*
X026838Y032774D02*
X044352Y032774D01*
X044352Y032676D02*
X026937Y032676D01*
X027035Y032577D02*
X044352Y032577D01*
X044352Y032479D02*
X027134Y032479D01*
X027232Y032380D02*
X044352Y032380D01*
X044352Y032282D02*
X027331Y032282D01*
X027429Y032183D02*
X044352Y032183D01*
X044352Y032085D02*
X027528Y032085D01*
X027199Y031789D02*
X023060Y031789D01*
X023060Y031691D02*
X027297Y031691D01*
X027280Y031592D02*
X023060Y031592D01*
X023060Y031494D02*
X027181Y031494D01*
X027083Y031395D02*
X023060Y031395D01*
X023060Y031297D02*
X026984Y031297D01*
X026886Y031198D02*
X023060Y031198D01*
X023060Y031100D02*
X026787Y031100D01*
X026689Y031001D02*
X023060Y031001D01*
X023060Y030903D02*
X026590Y030903D01*
X026492Y030804D02*
X023060Y030804D01*
X023060Y030706D02*
X026393Y030706D01*
X026295Y030607D02*
X023060Y030607D01*
X023060Y030509D02*
X026196Y030509D01*
X026098Y030410D02*
X023060Y030410D01*
X023060Y030312D02*
X025999Y030312D01*
X025901Y030213D02*
X023060Y030213D01*
X023060Y030115D02*
X025802Y030115D01*
X025704Y030016D02*
X023060Y030016D01*
X023060Y029918D02*
X025605Y029918D01*
X025507Y029819D02*
X023060Y029819D01*
X023060Y029721D02*
X025408Y029721D01*
X025310Y029622D02*
X023060Y029622D01*
X023060Y029524D02*
X025211Y029524D01*
X025113Y029425D02*
X023060Y029425D01*
X023060Y029327D02*
X025014Y029327D01*
X024916Y029228D02*
X023060Y029228D01*
X023060Y029130D02*
X024817Y029130D01*
X024719Y029031D02*
X023060Y029031D01*
X023060Y028933D02*
X024620Y028933D01*
X024522Y028834D02*
X023811Y028834D01*
X023589Y028834D02*
X023060Y028834D01*
X023060Y028736D02*
X023492Y028736D01*
X023492Y028637D02*
X023060Y028637D01*
X023060Y028539D02*
X023517Y028539D01*
X023695Y028440D02*
X023060Y028440D01*
X023060Y028342D02*
X044352Y028342D01*
X044352Y028440D02*
X023731Y028440D01*
X023710Y028433D02*
X023710Y028433D01*
X023060Y028243D02*
X044352Y028243D01*
X044352Y028145D02*
X023060Y028145D01*
X023060Y028046D02*
X044352Y028046D01*
X044352Y027948D02*
X023060Y027948D01*
X022440Y028028D02*
X021928Y027517D01*
X021826Y027618D01*
X021654Y027618D01*
X021600Y027565D01*
X021520Y027500D01*
X020062Y027500D01*
X018706Y028857D01*
X018696Y028883D01*
X018688Y028887D01*
X018658Y028948D01*
X018658Y028986D01*
X018622Y029022D01*
X018611Y029046D01*
X018611Y029046D01*
X018611Y029046D01*
X018592Y029053D01*
X018536Y029108D01*
X018364Y029108D01*
X018242Y028986D01*
X018242Y028814D01*
X018297Y028758D01*
X018304Y028739D01*
X018311Y028736D01*
X018328Y028728D01*
X018364Y028692D01*
X018402Y028692D01*
X018463Y028662D01*
X018467Y028654D01*
X018493Y028644D01*
X019850Y027288D01*
X019938Y027200D01*
X021512Y027200D01*
X021513Y027199D01*
X021566Y027200D01*
X021607Y027196D01*
X021387Y026976D01*
X021340Y026862D01*
X021340Y026738D01*
X021387Y026624D01*
X021402Y026610D01*
X021278Y026610D01*
X020776Y027113D01*
X020662Y027160D01*
X020538Y027160D01*
X020424Y027113D01*
X020337Y027026D01*
X020290Y026912D01*
X020290Y026788D01*
X020337Y026674D01*
X020974Y026037D01*
X021088Y025990D01*
X021178Y025990D01*
X021138Y025950D01*
X020338Y025950D01*
X020188Y025800D01*
X019388Y025800D01*
X019238Y025650D01*
X018438Y025650D01*
X018217Y025430D01*
X018095Y025480D01*
X017905Y025480D01*
X017728Y025407D01*
X017593Y025272D01*
X017520Y025095D01*
X017520Y024905D01*
X017593Y024728D01*
X017673Y024648D01*
X016648Y024648D01*
X016648Y029124D01*
X017122Y029124D01*
X017125Y029122D01*
X017153Y029124D01*
X017181Y029124D01*
X017183Y029126D01*
X017239Y029131D01*
X017245Y029127D01*
X017269Y029133D01*
X017294Y029135D01*
X017299Y029140D01*
X017356Y029154D01*
X017363Y029151D01*
X017386Y029161D01*
X017410Y029167D01*
X017414Y029173D01*
X017469Y029195D01*
X017475Y029194D01*
X017497Y029207D01*
X017520Y029217D01*
X017522Y029223D01*
X017573Y029254D01*
X017580Y029253D01*
X017599Y029270D01*
X017620Y029283D01*
X017622Y029289D01*
X017667Y029328D01*
X017674Y029328D01*
X017690Y029347D01*
X017709Y029364D01*
X017710Y029370D01*
X017748Y029416D01*
X017755Y029417D01*
X017768Y029439D01*
X017784Y029458D01*
X017784Y029464D01*
X017815Y029515D01*
X017821Y029518D01*
X017831Y029541D01*
X017844Y029562D01*
X017842Y029569D01*
X017865Y029624D01*
X017871Y029627D01*
X017876Y029652D01*
X017886Y029675D01*
X017883Y029681D01*
X017897Y029739D01*
X017902Y029743D01*
X017904Y029768D01*
X017910Y029793D01*
X017907Y029798D01*
X017911Y029858D01*
X017916Y029863D01*
X017914Y029888D01*
X017916Y029913D01*
X017911Y029918D01*
X017908Y029956D01*
X017968Y029956D01*
X018063Y029995D01*
X018135Y030067D01*
X018174Y030162D01*
X018174Y030264D01*
X018135Y030358D01*
X018063Y030430D01*
X017968Y030469D01*
X017866Y030469D01*
X017772Y030430D01*
X017727Y030385D01*
X017710Y030405D01*
X017709Y030412D01*
X017690Y030428D01*
X017674Y030447D01*
X017667Y030448D01*
X017622Y030486D01*
X017620Y030493D01*
X017599Y030506D01*
X017580Y030522D01*
X017573Y030522D01*
X017522Y030553D01*
X017520Y030559D01*
X017497Y030569D01*
X017475Y030582D01*
X017469Y030580D01*
X017414Y030603D01*
X017410Y030609D01*
X017386Y030615D01*
X017363Y030624D01*
X017356Y030622D01*
X017299Y030636D01*
X017294Y030641D01*
X017269Y030643D01*
X017245Y030648D01*
X017239Y030645D01*
X017183Y030649D01*
X017181Y030652D01*
X017153Y030652D01*
X017125Y030654D01*
X017122Y030652D01*
X016648Y030652D01*
X016648Y031348D01*
X017122Y031348D01*
X017125Y031346D01*
X017153Y031348D01*
X017181Y031348D01*
X017183Y031351D01*
X017239Y031355D01*
X017245Y031352D01*
X017269Y031357D01*
X017294Y031359D01*
X017299Y031364D01*
X017356Y031378D01*
X017363Y031376D01*
X017386Y031385D01*
X017410Y031391D01*
X017414Y031397D01*
X017469Y031420D01*
X017475Y031418D01*
X017497Y031431D01*
X017520Y031441D01*
X017522Y031447D01*
X017573Y031478D01*
X017580Y031478D01*
X017599Y031494D01*
X017620Y031507D01*
X017622Y031514D01*
X017667Y031552D01*
X017674Y031553D01*
X017690Y031572D01*
X017709Y031588D01*
X017710Y031595D01*
X017727Y031615D01*
X017772Y031570D01*
X017866Y031531D01*
X017968Y031531D01*
X018030Y031556D01*
X018030Y030898D01*
X018070Y030803D01*
X018390Y030482D01*
X018390Y030148D01*
X018430Y030053D01*
X018503Y029980D01*
X018598Y029940D01*
X018702Y029940D01*
X018797Y029980D01*
X018870Y030053D01*
X018910Y030148D01*
X018910Y030590D01*
X019240Y030590D01*
X019240Y029608D01*
X019192Y029560D01*
X018748Y029560D01*
X018653Y029520D01*
X018580Y029447D01*
X018540Y029352D01*
X018540Y029248D01*
X018580Y029153D01*
X018653Y029080D01*
X018748Y029040D01*
X019352Y029040D01*
X019447Y029080D01*
X019720Y029353D01*
X019760Y029448D01*
X019760Y030852D01*
X019720Y030947D01*
X019670Y030997D01*
X019670Y030997D01*
X019597Y031070D01*
X019502Y031110D01*
X019135Y031110D01*
X019208Y031184D01*
X019208Y031214D01*
X019214Y031222D01*
X019326Y031222D01*
X019448Y031344D01*
X019448Y031374D01*
X019457Y031386D01*
X019457Y031386D01*
X019457Y031386D01*
X019448Y031445D01*
X019448Y031516D01*
X019436Y031529D01*
X019424Y031607D01*
X019432Y031655D01*
X019422Y031667D01*
X019422Y032034D01*
X019850Y032462D01*
X019865Y032461D01*
X019874Y032452D01*
X019949Y032452D01*
X020013Y032445D01*
X020013Y032445D01*
X020013Y032445D01*
X020021Y032452D01*
X020046Y032452D01*
X020168Y032574D01*
X020168Y032746D01*
X020125Y032790D01*
X020168Y032834D01*
X020168Y033006D01*
X020110Y033064D01*
X020110Y033065D01*
X020109Y033066D01*
X020046Y033128D01*
X020001Y033128D01*
X019979Y033141D01*
X019933Y033128D01*
X019874Y033128D01*
X019852Y033107D01*
X019763Y033083D01*
X019715Y033085D01*
X019712Y033082D01*
X019634Y033082D01*
X019528Y032976D01*
X018825Y032273D01*
X018797Y032300D01*
X018667Y032430D01*
X018572Y032470D01*
X018468Y032470D01*
X018410Y032446D01*
X018410Y032752D01*
X018370Y032847D01*
X018010Y033208D01*
X018010Y033545D01*
X018064Y033492D01*
X018236Y033492D01*
X018292Y033547D01*
X018311Y033554D01*
X018322Y033578D01*
X018358Y033614D01*
X018358Y033652D01*
X018365Y033665D01*
X018388Y033713D01*
X018396Y033717D01*
X018406Y033743D01*
X018712Y034050D01*
X019962Y034050D01*
X020559Y034647D01*
X020580Y034625D01*
X020580Y033617D01*
X020992Y033205D01*
X021650Y033205D01*
X021650Y032383D01*
X021567Y032300D01*
X020095Y032300D01*
X020086Y032308D01*
X019914Y032308D01*
X019792Y032186D01*
X019792Y032014D01*
X019914Y031892D01*
X020086Y031892D01*
X020095Y031900D01*
X021733Y031900D01*
X021833Y032000D01*
X022522Y032000D01*
X022487Y031966D01*
X022440Y031852D01*
X022440Y028028D01*
X022440Y028046D02*
X019516Y028046D01*
X019418Y028145D02*
X022440Y028145D01*
X022440Y028243D02*
X019319Y028243D01*
X019221Y028342D02*
X022440Y028342D01*
X022440Y028440D02*
X019122Y028440D01*
X019024Y028539D02*
X022440Y028539D01*
X022440Y028637D02*
X018925Y028637D01*
X018827Y028736D02*
X022440Y028736D01*
X022440Y028834D02*
X018728Y028834D01*
X018666Y028933D02*
X022440Y028933D01*
X022440Y029031D02*
X018618Y029031D01*
X018603Y029130D02*
X017255Y029130D01*
X017241Y029130D02*
X017225Y029130D01*
X017531Y029228D02*
X018548Y029228D01*
X018540Y029327D02*
X017666Y029327D01*
X017760Y029425D02*
X018570Y029425D01*
X018660Y029524D02*
X017823Y029524D01*
X017864Y029622D02*
X019240Y029622D01*
X019240Y029721D02*
X017893Y029721D01*
X017908Y029819D02*
X019240Y029819D01*
X019240Y029918D02*
X017912Y029918D01*
X018084Y030016D02*
X018466Y030016D01*
X018404Y030115D02*
X018155Y030115D01*
X018174Y030213D02*
X018390Y030213D01*
X018390Y030312D02*
X018154Y030312D01*
X018083Y030410D02*
X018390Y030410D01*
X018364Y030509D02*
X017596Y030509D01*
X017709Y030410D02*
X017752Y030410D01*
X017411Y030607D02*
X018265Y030607D01*
X018167Y030706D02*
X016648Y030706D01*
X016648Y030804D02*
X018069Y030804D01*
X018030Y030903D02*
X016648Y030903D01*
X016648Y031001D02*
X018030Y031001D01*
X018030Y031100D02*
X016648Y031100D01*
X016648Y031198D02*
X018030Y031198D01*
X018030Y031297D02*
X016648Y031297D01*
X017413Y031395D02*
X018030Y031395D01*
X018030Y031494D02*
X017598Y031494D01*
X017709Y031592D02*
X017750Y031592D01*
X017863Y032380D02*
X017890Y032380D01*
X017890Y032479D02*
X017822Y032479D01*
X017758Y032577D02*
X017890Y032577D01*
X017807Y032676D02*
X017663Y032676D01*
X017708Y032774D02*
X017528Y032774D01*
X017610Y032873D02*
X017246Y032873D01*
X017244Y032873D02*
X017199Y032873D01*
X017522Y032971D02*
X016648Y032971D01*
X016648Y033070D02*
X017490Y033070D01*
X017490Y033168D02*
X016648Y033168D01*
X016648Y033267D02*
X017490Y033267D01*
X017490Y033365D02*
X016648Y033365D01*
X016648Y033464D02*
X017490Y033464D01*
X017490Y033562D02*
X016648Y033562D01*
X016648Y033661D02*
X017490Y033661D01*
X017490Y033759D02*
X016648Y033759D01*
X016648Y033858D02*
X017490Y033858D01*
X018010Y033864D02*
X018010Y035128D01*
X018788Y034350D01*
X018588Y034350D01*
X018500Y034262D01*
X018193Y033956D01*
X018167Y033946D01*
X018163Y033938D01*
X018115Y033915D01*
X018102Y033908D01*
X018064Y033908D01*
X018028Y033872D01*
X018010Y033864D01*
X018010Y033956D02*
X018194Y033956D01*
X018115Y033915D02*
X018115Y033915D01*
X018010Y034055D02*
X018292Y034055D01*
X018391Y034153D02*
X018010Y034153D01*
X018010Y034252D02*
X018489Y034252D01*
X018689Y034449D02*
X018010Y034449D01*
X018010Y034547D02*
X018591Y034547D01*
X018492Y034646D02*
X018010Y034646D01*
X018010Y034744D02*
X018394Y034744D01*
X018295Y034843D02*
X018010Y034843D01*
X018010Y034941D02*
X018197Y034941D01*
X018098Y035040D02*
X018010Y035040D01*
X018010Y034350D02*
X018788Y034350D01*
X019015Y034547D02*
X019835Y034547D01*
X019933Y034646D02*
X018917Y034646D01*
X018818Y034744D02*
X020032Y034744D01*
X020361Y034449D02*
X020580Y034449D01*
X020580Y034547D02*
X020459Y034547D01*
X020558Y034646D02*
X020560Y034646D01*
X020580Y034350D02*
X020262Y034350D01*
X020164Y034252D02*
X020580Y034252D01*
X020580Y034153D02*
X020065Y034153D01*
X019967Y034055D02*
X020580Y034055D01*
X020580Y033956D02*
X018618Y033956D01*
X018520Y033858D02*
X020580Y033858D01*
X020580Y033759D02*
X018421Y033759D01*
X018365Y033665D02*
X018365Y033665D01*
X018362Y033661D02*
X020580Y033661D01*
X020635Y033562D02*
X018315Y033562D01*
X018010Y033464D02*
X020734Y033464D01*
X020832Y033365D02*
X018010Y033365D01*
X018010Y033267D02*
X020931Y033267D01*
X021650Y033168D02*
X018050Y033168D01*
X018148Y033070D02*
X019621Y033070D01*
X019523Y032971D02*
X018247Y032971D01*
X018345Y032873D02*
X019424Y032873D01*
X019326Y032774D02*
X018401Y032774D01*
X018410Y032676D02*
X019227Y032676D01*
X019129Y032577D02*
X018410Y032577D01*
X018410Y032479D02*
X019030Y032479D01*
X018932Y032380D02*
X018718Y032380D01*
X018816Y032282D02*
X018833Y032282D01*
X019422Y031986D02*
X019819Y031986D01*
X019792Y032085D02*
X019473Y032085D01*
X019571Y032183D02*
X019792Y032183D01*
X019887Y032282D02*
X019670Y032282D01*
X019768Y032380D02*
X021647Y032380D01*
X021650Y032479D02*
X020073Y032479D01*
X020168Y032577D02*
X021650Y032577D01*
X021650Y032676D02*
X020168Y032676D01*
X020141Y032774D02*
X021650Y032774D01*
X021650Y032873D02*
X020168Y032873D01*
X020168Y032971D02*
X021650Y032971D01*
X021650Y033070D02*
X020105Y033070D01*
X020110Y033065D02*
X020110Y033065D01*
X020110Y033065D01*
X019979Y033141D02*
X019979Y033141D01*
X019979Y033141D01*
X021819Y031986D02*
X022508Y031986D01*
X022455Y031888D02*
X019422Y031888D01*
X019422Y031789D02*
X022440Y031789D01*
X022440Y031691D02*
X019422Y031691D01*
X019427Y031592D02*
X022440Y031592D01*
X022440Y031494D02*
X019448Y031494D01*
X019456Y031395D02*
X022440Y031395D01*
X022440Y031297D02*
X019401Y031297D01*
X019208Y031198D02*
X022440Y031198D01*
X022440Y031100D02*
X019527Y031100D01*
X019667Y031001D02*
X022440Y031001D01*
X022440Y030903D02*
X019739Y030903D01*
X019760Y030804D02*
X022440Y030804D01*
X022440Y030706D02*
X019760Y030706D01*
X019760Y030607D02*
X022440Y030607D01*
X022440Y030509D02*
X019760Y030509D01*
X019760Y030410D02*
X022440Y030410D01*
X022440Y030312D02*
X019760Y030312D01*
X019760Y030213D02*
X022440Y030213D01*
X022440Y030115D02*
X019760Y030115D01*
X019760Y030016D02*
X022440Y030016D01*
X022440Y029918D02*
X019760Y029918D01*
X019760Y029819D02*
X022440Y029819D01*
X022440Y029721D02*
X019760Y029721D01*
X019760Y029622D02*
X022440Y029622D01*
X022440Y029524D02*
X019760Y029524D01*
X019750Y029425D02*
X022440Y029425D01*
X022440Y029327D02*
X019694Y029327D01*
X019596Y029228D02*
X022440Y029228D01*
X022440Y029130D02*
X019497Y029130D01*
X018796Y028342D02*
X016648Y028342D01*
X016648Y028440D02*
X018698Y028440D01*
X018599Y028539D02*
X016648Y028539D01*
X016648Y028637D02*
X018501Y028637D01*
X018311Y028736D02*
X016648Y028736D01*
X016648Y028834D02*
X018242Y028834D01*
X018242Y028933D02*
X016648Y028933D01*
X016648Y029031D02*
X018286Y029031D01*
X018895Y028243D02*
X016648Y028243D01*
X016648Y028145D02*
X018993Y028145D01*
X019092Y028046D02*
X016648Y028046D01*
X016648Y027948D02*
X019190Y027948D01*
X019289Y027849D02*
X016648Y027849D01*
X016648Y027751D02*
X019387Y027751D01*
X019486Y027652D02*
X016648Y027652D01*
X016648Y027554D02*
X019584Y027554D01*
X019683Y027455D02*
X016648Y027455D01*
X016648Y027357D02*
X019781Y027357D01*
X019880Y027258D02*
X016648Y027258D01*
X016648Y027160D02*
X020537Y027160D01*
X020663Y027160D02*
X021571Y027160D01*
X021473Y027061D02*
X020827Y027061D01*
X020926Y026963D02*
X021382Y026963D01*
X021341Y026864D02*
X021024Y026864D01*
X021123Y026766D02*
X021340Y026766D01*
X021370Y026667D02*
X021221Y026667D01*
X020739Y026273D02*
X016648Y026273D01*
X016648Y026175D02*
X020837Y026175D01*
X020936Y026076D02*
X016648Y026076D01*
X016648Y025978D02*
X021165Y025978D01*
X020640Y026372D02*
X016648Y026372D01*
X016648Y026470D02*
X020542Y026470D01*
X020443Y026569D02*
X016648Y026569D01*
X016648Y026667D02*
X020345Y026667D01*
X020299Y026766D02*
X016648Y026766D01*
X016648Y026864D02*
X020290Y026864D01*
X020311Y026963D02*
X016648Y026963D01*
X016648Y027061D02*
X020373Y027061D01*
X020009Y027554D02*
X021586Y027554D01*
X021891Y027554D02*
X021965Y027554D01*
X022064Y027652D02*
X019910Y027652D01*
X019812Y027751D02*
X022162Y027751D01*
X022261Y027849D02*
X019713Y027849D01*
X019615Y027948D02*
X022359Y027948D01*
X023198Y027160D02*
X023665Y027160D01*
X023642Y027136D02*
X023764Y027258D01*
X023936Y027258D01*
X024058Y027136D01*
X024058Y027008D01*
X024086Y027008D01*
X024208Y026886D01*
X024208Y026808D01*
X024215Y026808D01*
X024240Y026817D01*
X024240Y026817D01*
X024240Y026817D01*
X024258Y026808D01*
X024336Y026808D01*
X024441Y026703D01*
X024488Y026750D01*
X024839Y026750D01*
X024864Y026762D01*
X024873Y026759D01*
X024936Y026781D01*
X024964Y026808D01*
X025015Y026808D01*
X025040Y026817D01*
X025040Y026817D01*
X025040Y026817D01*
X025058Y026808D01*
X025136Y026808D01*
X025241Y026703D01*
X025288Y026750D01*
X025589Y026750D01*
X025614Y026762D01*
X025623Y026759D01*
X025686Y026781D01*
X025714Y026808D01*
X025765Y026808D01*
X025790Y026817D01*
X025790Y026817D01*
X025790Y026817D01*
X025808Y026808D01*
X025886Y026808D01*
X025991Y026703D01*
X026038Y026750D01*
X026389Y026750D01*
X026414Y026762D01*
X026423Y026759D01*
X026486Y026781D01*
X026514Y026808D01*
X026565Y026808D01*
X026590Y026817D01*
X026590Y026817D01*
X026590Y026817D01*
X026608Y026808D01*
X026686Y026808D01*
X026808Y026686D01*
X026808Y026514D01*
X026686Y026392D01*
X026608Y026392D01*
X026590Y026383D01*
X026590Y026383D01*
X026590Y026383D01*
X026565Y026392D01*
X026514Y026392D01*
X026486Y026419D01*
X026423Y026441D01*
X026414Y026438D01*
X026389Y026450D01*
X026162Y026450D01*
X026050Y026338D01*
X025962Y026250D01*
X025412Y026250D01*
X025350Y026188D01*
X025262Y026100D01*
X024662Y026100D01*
X024600Y026038D01*
X024512Y025950D01*
X024162Y025950D01*
X023430Y025217D01*
X023480Y025095D01*
X023480Y024905D01*
X023407Y024728D01*
X023327Y024648D01*
X023673Y024648D01*
X023593Y024728D01*
X023520Y024905D01*
X023520Y025095D01*
X023593Y025272D01*
X023728Y025407D01*
X023905Y025480D01*
X024095Y025480D01*
X024272Y025407D01*
X024407Y025272D01*
X024480Y025095D01*
X024480Y024905D01*
X024407Y024728D01*
X024327Y024648D01*
X025673Y024648D01*
X025593Y024728D01*
X025520Y024905D01*
X025520Y025095D01*
X025593Y025272D01*
X025728Y025407D01*
X025905Y025480D01*
X026095Y025480D01*
X026272Y025407D01*
X026407Y025272D01*
X026480Y025095D01*
X026480Y024905D01*
X026407Y024728D01*
X026327Y024648D01*
X026673Y024648D01*
X026593Y024728D01*
X026520Y024905D01*
X026520Y025095D01*
X026593Y025272D01*
X026728Y025407D01*
X026905Y025480D01*
X027095Y025480D01*
X027272Y025407D01*
X027407Y025272D01*
X027480Y025095D01*
X027480Y024905D01*
X027407Y024728D01*
X027327Y024648D01*
X027673Y024648D01*
X027593Y024728D01*
X027520Y024905D01*
X027520Y025095D01*
X027593Y025272D01*
X027728Y025407D01*
X027905Y025480D01*
X028095Y025480D01*
X028272Y025407D01*
X028407Y025272D01*
X028480Y025095D01*
X028480Y024905D01*
X028407Y024728D01*
X028327Y024648D01*
X028673Y024648D01*
X028593Y024728D01*
X028520Y024905D01*
X028520Y025095D01*
X028593Y025272D01*
X028728Y025407D01*
X028905Y025480D01*
X029095Y025480D01*
X029272Y025407D01*
X029407Y025272D01*
X029480Y025095D01*
X029480Y024905D01*
X029407Y024728D01*
X029327Y024648D01*
X029673Y024648D01*
X029593Y024728D01*
X029520Y024905D01*
X029520Y025095D01*
X029593Y025272D01*
X029728Y025407D01*
X029905Y025480D01*
X030095Y025480D01*
X030272Y025407D01*
X030407Y025272D01*
X030480Y025095D01*
X030480Y024905D01*
X030407Y024728D01*
X030327Y024648D01*
X030673Y024648D01*
X030593Y024728D01*
X030520Y024905D01*
X030520Y025095D01*
X030593Y025272D01*
X030728Y025407D01*
X030905Y025480D01*
X031095Y025480D01*
X031272Y025407D01*
X031407Y025272D01*
X031480Y025095D01*
X031480Y024905D01*
X031407Y024728D01*
X031327Y024648D01*
X031673Y024648D01*
X031593Y024728D01*
X031520Y024905D01*
X031520Y025095D01*
X031593Y025272D01*
X031728Y025407D01*
X031905Y025480D01*
X032095Y025480D01*
X032272Y025407D01*
X032407Y025272D01*
X032480Y025095D01*
X032480Y024905D01*
X032407Y024728D01*
X032327Y024648D01*
X032673Y024648D01*
X032593Y024728D01*
X032520Y024905D01*
X032520Y025095D01*
X032593Y025272D01*
X032728Y025407D01*
X032905Y025480D01*
X033095Y025480D01*
X033272Y025407D01*
X033407Y025272D01*
X033480Y025095D01*
X033480Y024905D01*
X033407Y024728D01*
X033327Y024648D01*
X033673Y024648D01*
X033593Y024728D01*
X033520Y024905D01*
X033520Y025095D01*
X033593Y025272D01*
X033728Y025407D01*
X033905Y025480D01*
X034095Y025480D01*
X034272Y025407D01*
X034407Y025272D01*
X034480Y025095D01*
X034480Y024905D01*
X034407Y024728D01*
X034327Y024648D01*
X034673Y024648D01*
X034593Y024728D01*
X034520Y024905D01*
X034520Y025095D01*
X034593Y025272D01*
X034690Y025369D01*
X034690Y026962D01*
X034737Y027076D01*
X034824Y027163D01*
X034938Y027210D01*
X035062Y027210D01*
X035176Y027163D01*
X035263Y027076D01*
X035310Y026962D01*
X035310Y025369D01*
X035407Y025272D01*
X035480Y025095D01*
X035480Y024905D01*
X035407Y024728D01*
X035327Y024648D01*
X035673Y024648D01*
X035593Y024728D01*
X035520Y024905D01*
X035520Y025095D01*
X035593Y025272D01*
X035728Y025407D01*
X035905Y025480D01*
X036095Y025480D01*
X036272Y025407D01*
X036407Y025272D01*
X036480Y025095D01*
X036480Y024905D01*
X036407Y024728D01*
X036327Y024648D01*
X036673Y024648D01*
X036593Y024728D01*
X036520Y024905D01*
X036520Y025095D01*
X036593Y025272D01*
X036728Y025407D01*
X036905Y025480D01*
X037095Y025480D01*
X037272Y025407D01*
X037407Y025272D01*
X037480Y025095D01*
X037480Y024905D01*
X037407Y024728D01*
X037327Y024648D01*
X037673Y024648D01*
X037593Y024728D01*
X037520Y024905D01*
X037520Y025095D01*
X037593Y025272D01*
X037728Y025407D01*
X037905Y025480D01*
X038095Y025480D01*
X038272Y025407D01*
X038407Y025272D01*
X038480Y025095D01*
X038480Y024905D01*
X038407Y024728D01*
X038327Y024648D01*
X038673Y024648D01*
X038593Y024728D01*
X038520Y024905D01*
X038520Y025095D01*
X038593Y025272D01*
X038728Y025407D01*
X038905Y025480D01*
X039095Y025480D01*
X039272Y025407D01*
X039407Y025272D01*
X039480Y025095D01*
X039480Y024905D01*
X039407Y024728D01*
X039327Y024648D01*
X040673Y024648D01*
X040593Y024728D01*
X040520Y024905D01*
X040520Y025042D01*
X038272Y027290D01*
X023328Y027290D01*
X022288Y026250D01*
X023038Y026250D01*
X023650Y026862D01*
X023650Y026868D01*
X023642Y026917D01*
X023648Y026925D01*
X023646Y026959D01*
X023642Y026964D01*
X023642Y027045D01*
X023641Y027052D01*
X023639Y027102D01*
X023639Y027102D01*
X023642Y027105D01*
X023642Y027136D01*
X023639Y027102D02*
X023639Y027102D01*
X023641Y027061D02*
X023099Y027061D01*
X023001Y026963D02*
X023643Y026963D01*
X023650Y026864D02*
X022902Y026864D01*
X022804Y026766D02*
X023553Y026766D01*
X023455Y026667D02*
X022705Y026667D01*
X022607Y026569D02*
X023356Y026569D01*
X023258Y026470D02*
X022508Y026470D01*
X022410Y026372D02*
X023159Y026372D01*
X023061Y026273D02*
X022311Y026273D01*
X023296Y027258D02*
X023763Y027258D01*
X023937Y027258D02*
X038304Y027258D01*
X038402Y027160D02*
X035179Y027160D01*
X035269Y027061D02*
X038501Y027061D01*
X038599Y026963D02*
X035310Y026963D01*
X035310Y026864D02*
X038698Y026864D01*
X038796Y026766D02*
X035310Y026766D01*
X035310Y026667D02*
X038895Y026667D01*
X038993Y026569D02*
X035310Y026569D01*
X035310Y026470D02*
X039092Y026470D01*
X039190Y026372D02*
X035310Y026372D01*
X035310Y026273D02*
X039289Y026273D01*
X039387Y026175D02*
X035310Y026175D01*
X035310Y026076D02*
X039486Y026076D01*
X039584Y025978D02*
X035310Y025978D01*
X035310Y025879D02*
X039683Y025879D01*
X039781Y025781D02*
X035310Y025781D01*
X035310Y025682D02*
X039880Y025682D01*
X039978Y025584D02*
X035310Y025584D01*
X035310Y025485D02*
X040077Y025485D01*
X040175Y025387D02*
X039292Y025387D01*
X039391Y025288D02*
X040274Y025288D01*
X040372Y025190D02*
X039441Y025190D01*
X039480Y025091D02*
X040471Y025091D01*
X040520Y024993D02*
X039480Y024993D01*
X039476Y024894D02*
X040524Y024894D01*
X040565Y024796D02*
X039435Y024796D01*
X039376Y024697D02*
X040624Y024697D01*
X041376Y024697D02*
X041624Y024697D01*
X041565Y024796D02*
X041435Y024796D01*
X041476Y024894D02*
X041524Y024894D01*
X041520Y024993D02*
X041480Y024993D01*
X041480Y025091D02*
X041520Y025091D01*
X041559Y025190D02*
X041441Y025190D01*
X041391Y025288D02*
X041609Y025288D01*
X041708Y025387D02*
X041292Y025387D01*
X040953Y025485D02*
X044352Y025485D01*
X044352Y025387D02*
X043292Y025387D01*
X043391Y025288D02*
X044352Y025288D01*
X044352Y025190D02*
X043441Y025190D01*
X043480Y025091D02*
X044352Y025091D01*
X044352Y024993D02*
X043480Y024993D01*
X043476Y024894D02*
X044352Y024894D01*
X044352Y024796D02*
X043435Y024796D01*
X043376Y024697D02*
X044352Y024697D01*
X044352Y025584D02*
X040855Y025584D01*
X040756Y025682D02*
X044352Y025682D01*
X044352Y025781D02*
X040658Y025781D01*
X040559Y025879D02*
X044352Y025879D01*
X044352Y025978D02*
X040461Y025978D01*
X040362Y026076D02*
X044352Y026076D01*
X044352Y026175D02*
X043708Y026175D01*
X043776Y026202D02*
X043994Y026421D01*
X044113Y026707D01*
X044113Y027017D01*
X043994Y027303D01*
X043776Y027522D01*
X043489Y027641D01*
X043180Y027641D01*
X042894Y027522D01*
X042675Y027303D01*
X042556Y027017D01*
X042556Y026707D01*
X042675Y026421D01*
X042894Y026202D01*
X043180Y026084D01*
X043489Y026084D01*
X043776Y026202D01*
X043846Y026273D02*
X044352Y026273D01*
X044352Y026372D02*
X043945Y026372D01*
X044015Y026470D02*
X044352Y026470D01*
X044352Y026569D02*
X044055Y026569D01*
X044096Y026667D02*
X044352Y026667D01*
X044352Y026766D02*
X044113Y026766D01*
X044113Y026864D02*
X044352Y026864D01*
X044352Y026963D02*
X044113Y026963D01*
X044095Y027061D02*
X044352Y027061D01*
X044352Y027160D02*
X044054Y027160D01*
X044013Y027258D02*
X044352Y027258D01*
X044352Y027357D02*
X043941Y027357D01*
X043843Y027455D02*
X044352Y027455D01*
X044352Y027554D02*
X043700Y027554D01*
X044352Y027652D02*
X038786Y027652D01*
X038688Y027751D02*
X044352Y027751D01*
X044352Y027849D02*
X038589Y027849D01*
X038885Y027554D02*
X042970Y027554D01*
X042827Y027455D02*
X038983Y027455D01*
X039082Y027357D02*
X042728Y027357D01*
X042656Y027258D02*
X039180Y027258D01*
X039279Y027160D02*
X042615Y027160D01*
X042575Y027061D02*
X039377Y027061D01*
X039476Y026963D02*
X042556Y026963D01*
X042556Y026864D02*
X039574Y026864D01*
X039673Y026766D02*
X042556Y026766D01*
X042573Y026667D02*
X039771Y026667D01*
X039870Y026569D02*
X042614Y026569D01*
X042655Y026470D02*
X039968Y026470D01*
X040067Y026372D02*
X042725Y026372D01*
X042823Y026273D02*
X040165Y026273D01*
X040264Y026175D02*
X042961Y026175D01*
X042708Y025387D02*
X042292Y025387D01*
X042391Y025288D02*
X042609Y025288D01*
X042559Y025190D02*
X042441Y025190D01*
X042480Y025091D02*
X042520Y025091D01*
X042520Y024993D02*
X042480Y024993D01*
X042476Y024894D02*
X042524Y024894D01*
X042565Y024796D02*
X042435Y024796D01*
X042376Y024697D02*
X042624Y024697D01*
X038708Y025387D02*
X038292Y025387D01*
X038391Y025288D02*
X038609Y025288D01*
X038559Y025190D02*
X038441Y025190D01*
X038480Y025091D02*
X038520Y025091D01*
X038520Y024993D02*
X038480Y024993D01*
X038476Y024894D02*
X038524Y024894D01*
X038565Y024796D02*
X038435Y024796D01*
X038376Y024697D02*
X038624Y024697D01*
X037624Y024697D02*
X037376Y024697D01*
X037435Y024796D02*
X037565Y024796D01*
X037524Y024894D02*
X037476Y024894D01*
X037480Y024993D02*
X037520Y024993D01*
X037520Y025091D02*
X037480Y025091D01*
X037441Y025190D02*
X037559Y025190D01*
X037609Y025288D02*
X037391Y025288D01*
X037292Y025387D02*
X037708Y025387D01*
X036708Y025387D02*
X036292Y025387D01*
X036391Y025288D02*
X036609Y025288D01*
X036559Y025190D02*
X036441Y025190D01*
X036480Y025091D02*
X036520Y025091D01*
X036520Y024993D02*
X036480Y024993D01*
X036476Y024894D02*
X036524Y024894D01*
X036565Y024796D02*
X036435Y024796D01*
X036376Y024697D02*
X036624Y024697D01*
X035624Y024697D02*
X035376Y024697D01*
X035435Y024796D02*
X035565Y024796D01*
X035524Y024894D02*
X035476Y024894D01*
X035480Y024993D02*
X035520Y024993D01*
X035520Y025091D02*
X035480Y025091D01*
X035441Y025190D02*
X035559Y025190D01*
X035609Y025288D02*
X035391Y025288D01*
X035310Y025387D02*
X035708Y025387D01*
X034690Y025387D02*
X034292Y025387D01*
X034391Y025288D02*
X034609Y025288D01*
X034559Y025190D02*
X034441Y025190D01*
X034480Y025091D02*
X034520Y025091D01*
X034520Y024993D02*
X034480Y024993D01*
X034476Y024894D02*
X034524Y024894D01*
X034565Y024796D02*
X034435Y024796D01*
X034376Y024697D02*
X034624Y024697D01*
X034690Y025485D02*
X023697Y025485D01*
X023708Y025387D02*
X023599Y025387D01*
X023609Y025288D02*
X023500Y025288D01*
X023441Y025190D02*
X023559Y025190D01*
X023520Y025091D02*
X023480Y025091D01*
X023480Y024993D02*
X023520Y024993D01*
X023524Y024894D02*
X023476Y024894D01*
X023435Y024796D02*
X023565Y024796D01*
X023624Y024697D02*
X023376Y024697D01*
X023796Y025584D02*
X034690Y025584D01*
X034690Y025682D02*
X023894Y025682D01*
X023993Y025781D02*
X034690Y025781D01*
X034690Y025879D02*
X024091Y025879D01*
X024540Y025978D02*
X034690Y025978D01*
X034690Y026076D02*
X024638Y026076D01*
X025337Y026175D02*
X034690Y026175D01*
X034690Y026273D02*
X025985Y026273D01*
X026084Y026372D02*
X034690Y026372D01*
X034690Y026470D02*
X026765Y026470D01*
X026808Y026569D02*
X034690Y026569D01*
X034690Y026667D02*
X026808Y026667D01*
X026729Y026766D02*
X034690Y026766D01*
X034690Y026864D02*
X024208Y026864D01*
X024132Y026963D02*
X034690Y026963D01*
X034731Y027061D02*
X024058Y027061D01*
X024035Y027160D02*
X034821Y027160D01*
X033708Y025387D02*
X033292Y025387D01*
X033391Y025288D02*
X033609Y025288D01*
X033559Y025190D02*
X033441Y025190D01*
X033480Y025091D02*
X033520Y025091D01*
X033520Y024993D02*
X033480Y024993D01*
X033476Y024894D02*
X033524Y024894D01*
X033565Y024796D02*
X033435Y024796D01*
X033376Y024697D02*
X033624Y024697D01*
X032624Y024697D02*
X032376Y024697D01*
X032435Y024796D02*
X032565Y024796D01*
X032524Y024894D02*
X032476Y024894D01*
X032480Y024993D02*
X032520Y024993D01*
X032520Y025091D02*
X032480Y025091D01*
X032441Y025190D02*
X032559Y025190D01*
X032609Y025288D02*
X032391Y025288D01*
X032292Y025387D02*
X032708Y025387D01*
X031708Y025387D02*
X031292Y025387D01*
X031391Y025288D02*
X031609Y025288D01*
X031559Y025190D02*
X031441Y025190D01*
X031480Y025091D02*
X031520Y025091D01*
X031520Y024993D02*
X031480Y024993D01*
X031476Y024894D02*
X031524Y024894D01*
X031565Y024796D02*
X031435Y024796D01*
X031376Y024697D02*
X031624Y024697D01*
X030624Y024697D02*
X030376Y024697D01*
X030435Y024796D02*
X030565Y024796D01*
X030524Y024894D02*
X030476Y024894D01*
X030480Y024993D02*
X030520Y024993D01*
X030520Y025091D02*
X030480Y025091D01*
X030441Y025190D02*
X030559Y025190D01*
X030609Y025288D02*
X030391Y025288D01*
X030292Y025387D02*
X030708Y025387D01*
X029708Y025387D02*
X029292Y025387D01*
X029391Y025288D02*
X029609Y025288D01*
X029559Y025190D02*
X029441Y025190D01*
X029480Y025091D02*
X029520Y025091D01*
X029520Y024993D02*
X029480Y024993D01*
X029476Y024894D02*
X029524Y024894D01*
X029565Y024796D02*
X029435Y024796D01*
X029376Y024697D02*
X029624Y024697D01*
X028624Y024697D02*
X028376Y024697D01*
X028435Y024796D02*
X028565Y024796D01*
X028524Y024894D02*
X028476Y024894D01*
X028480Y024993D02*
X028520Y024993D01*
X028520Y025091D02*
X028480Y025091D01*
X028441Y025190D02*
X028559Y025190D01*
X028609Y025288D02*
X028391Y025288D01*
X028292Y025387D02*
X028708Y025387D01*
X027708Y025387D02*
X027292Y025387D01*
X027391Y025288D02*
X027609Y025288D01*
X027559Y025190D02*
X027441Y025190D01*
X027480Y025091D02*
X027520Y025091D01*
X027520Y024993D02*
X027480Y024993D01*
X027476Y024894D02*
X027524Y024894D01*
X027565Y024796D02*
X027435Y024796D01*
X027376Y024697D02*
X027624Y024697D01*
X026624Y024697D02*
X026376Y024697D01*
X026435Y024796D02*
X026565Y024796D01*
X026524Y024894D02*
X026476Y024894D01*
X026480Y024993D02*
X026520Y024993D01*
X026520Y025091D02*
X026480Y025091D01*
X026441Y025190D02*
X026559Y025190D01*
X026609Y025288D02*
X026391Y025288D01*
X026292Y025387D02*
X026708Y025387D01*
X025708Y025387D02*
X024292Y025387D01*
X024391Y025288D02*
X025609Y025288D01*
X025559Y025190D02*
X024441Y025190D01*
X024480Y025091D02*
X025520Y025091D01*
X025520Y024993D02*
X024480Y024993D01*
X024476Y024894D02*
X025524Y024894D01*
X025565Y024796D02*
X024435Y024796D01*
X024376Y024697D02*
X025624Y024697D01*
X025642Y026766D02*
X025179Y026766D01*
X024892Y026766D02*
X024379Y026766D01*
X025929Y026766D02*
X026442Y026766D01*
X024651Y028539D02*
X044352Y028539D01*
X044352Y028637D02*
X024749Y028637D01*
X024848Y028736D02*
X044352Y028736D01*
X044352Y028834D02*
X024946Y028834D01*
X025045Y028933D02*
X044352Y028933D01*
X044352Y029031D02*
X025143Y029031D01*
X025242Y029130D02*
X044352Y029130D01*
X044352Y029228D02*
X025340Y029228D01*
X025439Y029327D02*
X044352Y029327D01*
X044352Y029425D02*
X025537Y029425D01*
X025636Y029524D02*
X044352Y029524D01*
X044352Y029622D02*
X025734Y029622D01*
X025833Y029721D02*
X044352Y029721D01*
X044352Y029819D02*
X025931Y029819D01*
X026030Y029918D02*
X044352Y029918D01*
X044352Y030016D02*
X042882Y030016D01*
X041551Y030016D02*
X026128Y030016D01*
X026227Y030115D02*
X041551Y030115D01*
X041551Y030213D02*
X026325Y030213D01*
X026424Y030312D02*
X041551Y030312D01*
X041551Y030410D02*
X026522Y030410D01*
X026621Y030509D02*
X041551Y030509D01*
X041551Y030607D02*
X026719Y030607D01*
X026818Y030706D02*
X041551Y030706D01*
X041551Y030804D02*
X038949Y030804D01*
X039047Y030903D02*
X041551Y030903D01*
X041551Y031001D02*
X039058Y031001D01*
X039045Y031100D02*
X041551Y031100D01*
X041551Y031198D02*
X038947Y031198D01*
X038996Y031161D02*
X038996Y031161D01*
X038996Y031161D01*
X038766Y031297D02*
X041551Y031297D01*
X041551Y031395D02*
X038667Y031395D01*
X038569Y031494D02*
X041551Y031494D01*
X041551Y031592D02*
X038937Y031592D01*
X039035Y031691D02*
X041551Y031691D01*
X041551Y031789D02*
X039058Y031789D01*
X039057Y031888D02*
X041551Y031888D01*
X041551Y031986D02*
X038959Y031986D01*
X038645Y031691D02*
X038372Y031691D01*
X038470Y031592D02*
X038763Y031592D01*
X038440Y031198D02*
X027310Y031198D01*
X027212Y031100D02*
X038538Y031100D01*
X038618Y031001D02*
X027113Y031001D01*
X027015Y030903D02*
X038653Y030903D01*
X038751Y030804D02*
X026916Y030804D01*
X027409Y031297D02*
X034759Y031297D01*
X034639Y031395D02*
X027507Y031395D01*
X027100Y031888D02*
X023045Y031888D01*
X022992Y031986D02*
X027002Y031986D01*
X026903Y032085D02*
X023479Y032085D01*
X023508Y032183D02*
X026805Y032183D01*
X026706Y032282D02*
X023508Y032282D01*
X023415Y032380D02*
X026608Y032380D01*
X026509Y032479D02*
X022050Y032479D01*
X022050Y032577D02*
X026411Y032577D01*
X026312Y032676D02*
X022050Y032676D01*
X022050Y032774D02*
X026214Y032774D01*
X026115Y032873D02*
X022050Y032873D01*
X022050Y032971D02*
X026017Y032971D01*
X025918Y033070D02*
X022050Y033070D01*
X022050Y033168D02*
X025820Y033168D01*
X025721Y033267D02*
X022050Y033267D01*
X022050Y033365D02*
X025623Y033365D01*
X024125Y035532D02*
X024080Y035532D01*
X024150Y035631D02*
X023982Y035631D01*
X024150Y035729D02*
X021283Y035729D01*
X021185Y035828D02*
X024150Y035828D01*
X024150Y035926D02*
X021086Y035926D01*
X020588Y036025D02*
X024150Y036025D01*
X024150Y036123D02*
X020489Y036123D01*
X020391Y036222D02*
X024150Y036222D01*
X024150Y036320D02*
X020292Y036320D01*
X020194Y036419D02*
X024206Y036419D01*
X023706Y036616D02*
X023294Y036616D01*
X023393Y036714D02*
X023607Y036714D01*
X023558Y036813D02*
X023442Y036813D01*
X023480Y036911D02*
X023520Y036911D01*
X023520Y037010D02*
X023480Y037010D01*
X023475Y037108D02*
X023525Y037108D01*
X023566Y037207D02*
X023434Y037207D01*
X023374Y037305D02*
X023626Y037305D01*
X022626Y037305D02*
X021374Y037305D01*
X021434Y037207D02*
X022566Y037207D01*
X022525Y037108D02*
X021475Y037108D01*
X021480Y037010D02*
X022520Y037010D01*
X022520Y036911D02*
X021480Y036911D01*
X021442Y036813D02*
X022558Y036813D01*
X022607Y036714D02*
X021393Y036714D01*
X021294Y036616D02*
X022706Y036616D01*
X020706Y036616D02*
X020294Y036616D01*
X020393Y036714D02*
X020607Y036714D01*
X020558Y036813D02*
X020442Y036813D01*
X020480Y036911D02*
X020520Y036911D01*
X020520Y037010D02*
X020480Y037010D01*
X020475Y037108D02*
X020525Y037108D01*
X020566Y037207D02*
X020434Y037207D01*
X020374Y037305D02*
X020626Y037305D01*
X016964Y034350D02*
X016648Y034350D01*
X016648Y034252D02*
X016947Y034252D01*
X016947Y034153D02*
X016648Y034153D01*
X016648Y034055D02*
X016947Y034055D01*
X016957Y033956D02*
X016648Y033956D01*
X018910Y030509D02*
X019240Y030509D01*
X019240Y030410D02*
X018910Y030410D01*
X018910Y030312D02*
X019240Y030312D01*
X019240Y030213D02*
X018910Y030213D01*
X018896Y030115D02*
X019240Y030115D01*
X019240Y030016D02*
X018834Y030016D01*
X019368Y025781D02*
X016648Y025781D01*
X016648Y025879D02*
X020267Y025879D01*
X019270Y025682D02*
X016648Y025682D01*
X016648Y025584D02*
X018371Y025584D01*
X018273Y025485D02*
X016648Y025485D01*
X016648Y025387D02*
X017708Y025387D01*
X017609Y025288D02*
X016648Y025288D01*
X016648Y025190D02*
X017559Y025190D01*
X017520Y025091D02*
X016648Y025091D01*
X016648Y024993D02*
X017520Y024993D01*
X017524Y024894D02*
X016648Y024894D01*
X016648Y024796D02*
X017565Y024796D01*
X017624Y024697D02*
X016648Y024697D01*
X028547Y035335D02*
X028820Y035335D01*
X028792Y035434D02*
X028646Y035434D01*
X028744Y035532D02*
X028792Y035532D01*
X028843Y035631D02*
X028886Y035631D01*
X028418Y035631D02*
X028315Y035631D01*
X027911Y036123D02*
X027335Y036123D01*
X027237Y036025D02*
X027812Y036025D01*
X027714Y035926D02*
X027138Y035926D01*
X027040Y035828D02*
X027615Y035828D01*
X027434Y036222D02*
X028009Y036222D01*
X028108Y036320D02*
X027532Y036320D01*
X027631Y036419D02*
X028206Y036419D01*
X028305Y036517D02*
X027729Y036517D01*
X027502Y036714D02*
X027393Y036714D01*
X027403Y036616D02*
X027294Y036616D01*
X027442Y036813D02*
X027558Y036813D01*
X027520Y036911D02*
X027480Y036911D01*
X027480Y037010D02*
X027520Y037010D01*
X027525Y037108D02*
X027475Y037108D01*
X027434Y037207D02*
X027566Y037207D01*
X027626Y037305D02*
X027374Y037305D01*
X026626Y037305D02*
X026374Y037305D01*
X026434Y037207D02*
X026566Y037207D01*
X026525Y037108D02*
X026475Y037108D01*
X026480Y037010D02*
X026520Y037010D01*
X026520Y036911D02*
X026480Y036911D01*
X026442Y036813D02*
X026558Y036813D01*
X028294Y036616D02*
X028403Y036616D01*
X028393Y036714D02*
X028502Y036714D01*
X028558Y036813D02*
X028442Y036813D01*
X028480Y036911D02*
X028520Y036911D01*
X028520Y037010D02*
X028480Y037010D01*
X028475Y037108D02*
X028525Y037108D01*
X028566Y037207D02*
X028434Y037207D01*
X028374Y037305D02*
X028626Y037305D01*
X030715Y035631D02*
X031418Y035631D01*
X035058Y031494D02*
X038144Y031494D01*
X038243Y031395D02*
X035040Y031395D01*
X034941Y031297D02*
X038341Y031297D01*
X042882Y031986D02*
X044352Y031986D01*
X044352Y035828D02*
X036790Y035828D01*
X036888Y035926D02*
X044352Y035926D01*
X044352Y036025D02*
X036987Y036025D01*
X037835Y036123D02*
X044352Y036123D01*
X044352Y036222D02*
X038684Y036222D01*
X038782Y036320D02*
X044352Y036320D01*
X044352Y036419D02*
X042631Y036419D01*
X042729Y036517D02*
X044352Y036517D01*
X044352Y036616D02*
X043294Y036616D01*
X043393Y036714D02*
X044352Y036714D01*
X044352Y036813D02*
X043442Y036813D01*
X043480Y036911D02*
X044352Y036911D01*
X044352Y037010D02*
X043480Y037010D01*
X043475Y037108D02*
X044352Y037108D01*
X044352Y037207D02*
X043434Y037207D01*
X043374Y037305D02*
X044352Y037305D01*
D16*
X042500Y035500D03*
X042500Y034500D03*
X043500Y034500D03*
X043500Y033500D03*
X043500Y032500D03*
X043000Y032500D03*
X042500Y032250D03*
X042000Y032250D03*
X041500Y032500D03*
X041500Y032000D03*
X040750Y032000D03*
X040750Y031500D03*
X040750Y031000D03*
X041000Y030500D03*
X040500Y030500D03*
X041000Y030000D03*
X041500Y029750D03*
X042000Y029750D03*
X042500Y029750D03*
X043000Y029500D03*
X043500Y029500D03*
X044000Y029500D03*
X043500Y028500D03*
X042500Y028500D03*
X042500Y027500D03*
X042500Y026500D03*
X041500Y026500D03*
X040500Y026500D03*
X040500Y027500D03*
X041500Y028500D03*
X040500Y029500D03*
X038500Y029500D03*
X037500Y029500D03*
X037500Y028500D03*
X038500Y028500D03*
X036500Y028500D03*
X035500Y028500D03*
X034500Y028500D03*
X034500Y029500D03*
X035500Y029500D03*
X036500Y029500D03*
X036500Y030500D03*
X035500Y030500D03*
X034500Y030500D03*
X033500Y030500D03*
X032500Y030500D03*
X031500Y029500D03*
X031500Y028500D03*
X032500Y028500D03*
X033500Y029500D03*
X034850Y031500D03*
X035500Y031500D03*
X036500Y031500D03*
X036500Y032500D03*
X036500Y033500D03*
X035500Y033500D03*
X035500Y032500D03*
X034500Y032500D03*
X034500Y033500D03*
X034500Y034500D03*
X035500Y034500D03*
X036500Y034500D03*
X036500Y035500D03*
X035300Y035450D03*
X034500Y035450D03*
X033750Y035450D03*
X032950Y035450D03*
X032500Y035500D03*
X032150Y035450D03*
X032500Y034500D03*
X031500Y034500D03*
X031500Y033500D03*
X031500Y032500D03*
X032500Y032500D03*
X032500Y033500D03*
X033500Y033500D03*
X033500Y032500D03*
X033500Y034500D03*
X030500Y034500D03*
X029500Y034500D03*
X029800Y035450D03*
X029000Y035450D03*
X028200Y035450D03*
X027450Y035450D03*
X026650Y035450D03*
X025850Y035450D03*
X025500Y035500D03*
X025000Y035450D03*
X024300Y035400D03*
X023800Y034850D03*
X023750Y034150D03*
X024300Y034350D03*
X025500Y034500D03*
X026500Y034500D03*
X027500Y034500D03*
X028500Y034500D03*
X028500Y033500D03*
X028500Y032500D03*
X027500Y032500D03*
X027500Y033500D03*
X026500Y033500D03*
X025500Y032500D03*
X024500Y032500D03*
X024500Y033500D03*
X023300Y032200D03*
X022750Y031790D03*
X021550Y031550D03*
X021300Y031350D03*
X021550Y031200D03*
X021300Y031000D03*
X020900Y030400D03*
X020400Y031250D03*
X020050Y031250D03*
X019600Y031500D03*
X019240Y031430D03*
X019000Y031270D03*
X019450Y030850D03*
X018650Y030200D03*
X018800Y029750D03*
X019050Y029900D03*
X019150Y029650D03*
X018800Y029300D03*
X018500Y029500D03*
X018450Y028900D03*
X019500Y028500D03*
X019650Y028000D03*
X019950Y028000D03*
X021050Y027550D03*
X021740Y027410D03*
X022150Y027850D03*
X022100Y028300D03*
X021850Y028700D03*
X021600Y028300D03*
X021600Y029100D03*
X021850Y029450D03*
X022100Y029100D03*
X020900Y029600D03*
X020700Y029300D03*
X020400Y029000D03*
X018550Y028050D03*
X018550Y027550D03*
X018500Y026500D03*
X017500Y025500D03*
X017500Y027500D03*
X016700Y028900D03*
X017800Y030500D03*
X018520Y032210D03*
X019400Y032950D03*
X019500Y033500D03*
X019050Y034000D03*
X018650Y033700D03*
X018150Y033700D03*
X018500Y034500D03*
X020050Y034950D03*
X020750Y034750D03*
X020850Y035650D03*
X020500Y036500D03*
X021500Y036500D03*
X022200Y034900D03*
X021400Y034100D03*
X021300Y033800D03*
X022200Y033350D03*
X021000Y032800D03*
X020470Y033100D03*
X019960Y032920D03*
X019960Y032660D03*
X020000Y032100D03*
X019900Y031850D03*
X016700Y033100D03*
X018500Y036500D03*
X023500Y036500D03*
X029500Y033500D03*
X029500Y032500D03*
X030500Y032500D03*
X030500Y033500D03*
X030600Y035450D03*
X030500Y030500D03*
X029500Y030500D03*
X029500Y029500D03*
X030500Y029500D03*
X030500Y028500D03*
X029500Y028500D03*
X028500Y028500D03*
X027500Y028500D03*
X026500Y028500D03*
X026500Y029500D03*
X027500Y029500D03*
X028500Y029500D03*
X028500Y030500D03*
X027500Y030500D03*
X025500Y030500D03*
X024500Y030500D03*
X024500Y029500D03*
X023500Y029500D03*
X023700Y028650D03*
X025500Y028500D03*
X023850Y027050D03*
X024000Y026800D03*
X024250Y026600D03*
X025050Y026600D03*
X025800Y026600D03*
X026600Y026600D03*
X027500Y026500D03*
X028500Y026500D03*
X029500Y026500D03*
X031000Y026500D03*
X032500Y026500D03*
X035000Y026900D03*
X036500Y026500D03*
X036500Y025500D03*
X037500Y025500D03*
X038500Y025500D03*
X039500Y025500D03*
X041500Y025500D03*
X043500Y025500D03*
X038500Y030500D03*
X038850Y031000D03*
X038850Y031800D03*
X038500Y032500D03*
X038500Y033500D03*
X038750Y034000D03*
X038750Y034300D03*
X038500Y034500D03*
X039000Y034500D03*
X039500Y034510D03*
X040000Y034500D03*
X040500Y034500D03*
X041000Y034500D03*
X041500Y034500D03*
X041500Y034000D03*
X041500Y033500D03*
X041500Y033000D03*
X040750Y033000D03*
X040750Y033500D03*
X040500Y033750D03*
X040000Y033750D03*
X039500Y033750D03*
X039000Y033750D03*
X037500Y033500D03*
X037500Y032500D03*
X037500Y031500D03*
X037500Y030500D03*
X040750Y032500D03*
X042500Y033500D03*
X044000Y032500D03*
X041500Y035500D03*
X040500Y035500D03*
X039500Y035500D03*
X038500Y035500D03*
X037500Y035500D03*
X037500Y034500D03*
X025500Y025500D03*
X024500Y025500D03*
X021650Y026800D03*
X020600Y026850D03*
D17*
X020000Y027350D02*
X021573Y027350D01*
X021703Y027455D01*
X021740Y027410D01*
X021741Y027352D01*
X021573Y027350D01*
X021680Y027350D01*
X021740Y027410D01*
X022250Y026100D02*
X022100Y025950D01*
X021350Y025950D01*
X021200Y025800D01*
X020400Y025800D01*
X020250Y025650D01*
X019450Y025650D01*
X019300Y025500D01*
X018500Y025500D01*
X018000Y025000D01*
X019000Y025000D02*
X019500Y025500D01*
X020300Y025500D01*
X020450Y025650D01*
X021250Y025650D01*
X021400Y025800D01*
X022150Y025800D01*
X022300Y025950D01*
X023150Y025950D01*
X023875Y026675D01*
X023947Y026825D01*
X024000Y026800D01*
X024025Y026747D01*
X023875Y026675D01*
X024000Y026800D01*
X023800Y026800D02*
X023100Y026100D01*
X022250Y026100D01*
X022350Y025800D02*
X022200Y025650D01*
X021450Y025650D01*
X021300Y025500D01*
X020500Y025500D01*
X020000Y025000D01*
X021000Y025000D02*
X021500Y025500D01*
X022250Y025500D01*
X022400Y025650D01*
X023250Y025650D01*
X024000Y026400D01*
X024350Y026400D01*
X024550Y026600D01*
X024873Y026600D01*
X025031Y026655D01*
X025050Y026600D01*
X025031Y026545D01*
X024873Y026600D01*
X025050Y026600D01*
X025150Y026400D02*
X024550Y026400D01*
X024400Y026250D01*
X024050Y026250D01*
X023300Y025500D01*
X022500Y025500D01*
X022000Y025000D01*
X023000Y025000D02*
X024100Y026100D01*
X024450Y026100D01*
X024600Y026250D01*
X025200Y026250D01*
X025350Y026400D01*
X025900Y026400D01*
X026100Y026600D01*
X026423Y026600D01*
X026581Y026655D01*
X026600Y026600D01*
X026581Y026545D01*
X026423Y026600D01*
X026600Y026600D01*
X025800Y026600D02*
X025781Y026655D01*
X025623Y026600D01*
X025781Y026545D01*
X025800Y026600D01*
X025623Y026600D01*
X025350Y026600D01*
X025150Y026400D01*
X024250Y026600D02*
X024231Y026655D01*
X024073Y026600D01*
X024231Y026545D01*
X024250Y026600D01*
X024073Y026600D01*
X024000Y026600D01*
X023200Y025800D01*
X022350Y025800D01*
X023800Y026800D02*
X023800Y026880D01*
X023792Y027047D01*
X023850Y027050D01*
X023897Y027016D01*
X023800Y026880D01*
X023800Y027000D01*
X023850Y027050D01*
X023719Y028595D02*
X023700Y028650D01*
X023719Y028705D01*
X023877Y028650D01*
X023719Y028595D01*
X023700Y028650D02*
X023877Y028650D01*
X024550Y028650D01*
X027450Y031550D01*
X034680Y031550D01*
X034847Y031558D01*
X034850Y031500D01*
X034816Y031453D01*
X034680Y031550D01*
X034800Y031550D01*
X034850Y031500D01*
X038150Y031700D02*
X038725Y031125D01*
X038875Y031053D01*
X038850Y031000D01*
X038797Y030975D01*
X038725Y031125D01*
X038850Y031000D01*
X038816Y031753D02*
X038680Y031850D01*
X038847Y031858D01*
X038850Y031800D01*
X038816Y031753D01*
X038850Y031800D02*
X038800Y031850D01*
X038680Y031850D01*
X027550Y031850D01*
X023900Y035500D01*
X021300Y035500D01*
X020950Y035850D01*
X020550Y035850D01*
X020000Y036400D01*
X020000Y037000D01*
X019200Y037000D02*
X019000Y037000D01*
X019200Y037000D02*
X021300Y034900D01*
X021300Y034246D01*
X021435Y034147D01*
X021400Y034100D01*
X021344Y034085D01*
X021300Y034246D01*
X021300Y034200D01*
X021400Y034100D01*
X021375Y034047D01*
X021525Y033975D01*
X021453Y034125D01*
X021400Y034100D01*
X021525Y033975D01*
X021600Y033900D01*
X023300Y033900D01*
X023550Y034150D01*
X023550Y034600D01*
X023675Y034725D01*
X023747Y034875D01*
X023800Y034850D01*
X023825Y034797D01*
X023675Y034725D01*
X023800Y034850D01*
X023850Y035350D02*
X021150Y035350D01*
X020975Y035525D01*
X020825Y035597D01*
X020850Y035650D01*
X020903Y035675D01*
X020975Y035525D01*
X020850Y035650D01*
X020900Y035100D02*
X020600Y035100D01*
X019850Y034350D01*
X019000Y034350D01*
X018000Y035350D01*
X018000Y037000D01*
X020650Y034950D02*
X020850Y034950D01*
X021000Y034800D01*
X021000Y033800D01*
X021200Y033600D01*
X023550Y033600D01*
X024175Y034225D01*
X024247Y034375D01*
X024300Y034350D01*
X024325Y034297D01*
X024175Y034225D01*
X024300Y034350D01*
X023775Y034097D02*
X023625Y034025D01*
X023697Y034175D01*
X023750Y034150D01*
X023775Y034097D01*
X023750Y034150D02*
X023625Y034025D01*
X023350Y033750D01*
X021470Y033750D01*
X021303Y033742D01*
X021300Y033800D01*
X021334Y033847D01*
X021470Y033750D01*
X021350Y033750D01*
X021300Y033800D01*
X021325Y033853D01*
X021175Y033925D01*
X021247Y033775D01*
X021300Y033800D01*
X021175Y033925D01*
X021150Y033950D01*
X021150Y034850D01*
X020900Y035100D01*
X020650Y034950D02*
X019900Y034200D01*
X018650Y034200D01*
X018275Y033825D01*
X018203Y033675D01*
X018150Y033700D01*
X018125Y033753D01*
X018275Y033825D01*
X018150Y033700D01*
X023850Y035350D02*
X027500Y031700D01*
X038150Y031700D01*
X035353Y035425D02*
X035300Y035450D01*
X035275Y035503D01*
X035425Y035575D01*
X035353Y035425D01*
X035300Y035450D02*
X035425Y035575D01*
X035750Y035900D01*
X036650Y035900D01*
X036950Y036200D01*
X037700Y036200D01*
X037850Y036350D01*
X038600Y036350D01*
X038750Y036500D01*
X042500Y036500D01*
X043000Y037000D01*
X039000Y037000D02*
X038500Y036500D01*
X037750Y036500D01*
X037600Y036350D01*
X036850Y036350D01*
X036650Y036150D01*
X035900Y036150D01*
X035800Y036050D01*
X035150Y036050D01*
X034648Y035548D01*
X034547Y035415D01*
X034500Y035450D01*
X034486Y035507D01*
X034648Y035548D01*
X034550Y035450D01*
X034500Y035450D01*
X033875Y035575D02*
X033803Y035425D01*
X033750Y035450D01*
X033725Y035503D01*
X033875Y035575D01*
X034500Y036200D01*
X035700Y036200D01*
X035850Y036350D01*
X036600Y036350D01*
X036750Y036500D01*
X037500Y036500D01*
X038000Y037000D01*
X037000Y037000D02*
X036500Y036500D01*
X035750Y036500D01*
X035600Y036350D01*
X033750Y036350D01*
X033015Y035615D01*
X033008Y035448D01*
X032950Y035450D01*
X032906Y035488D01*
X033015Y035615D01*
X032950Y035550D01*
X032950Y035450D01*
X032248Y035598D02*
X032207Y035436D01*
X032150Y035450D01*
X032115Y035497D01*
X032248Y035598D01*
X033150Y036500D01*
X035500Y036500D01*
X036000Y037000D01*
X033875Y035575D02*
X033750Y035450D01*
X032248Y035598D02*
X032150Y035500D01*
X032150Y035450D01*
X031450Y035450D02*
X033000Y037000D01*
X032000Y037000D02*
X031500Y036500D01*
X030700Y036500D01*
X029825Y035625D01*
X029857Y035461D01*
X029800Y035450D01*
X029748Y035477D01*
X029825Y035625D01*
X029800Y035600D01*
X029800Y035450D01*
X029450Y035450D02*
X029177Y035450D01*
X029019Y035395D01*
X029000Y035450D01*
X029019Y035505D01*
X029177Y035450D01*
X029000Y035450D01*
X029450Y035450D02*
X031000Y037000D01*
X030000Y037000D02*
X028450Y035450D01*
X028377Y035450D01*
X028219Y035395D01*
X028200Y035450D01*
X028219Y035505D01*
X028377Y035450D01*
X028200Y035450D01*
X027575Y035575D02*
X027503Y035425D01*
X027450Y035450D01*
X027425Y035503D01*
X027575Y035575D01*
X029000Y037000D01*
X028000Y037000D02*
X026650Y035650D01*
X026650Y035627D01*
X026705Y035469D01*
X026650Y035450D01*
X026595Y035469D01*
X026650Y035627D01*
X026650Y035450D01*
X025905Y035469D02*
X025850Y035450D01*
X025795Y035469D01*
X025850Y035627D01*
X025905Y035469D01*
X025850Y035450D02*
X025850Y035627D01*
X025850Y035850D01*
X027000Y037000D01*
X026000Y037000D02*
X025000Y036000D01*
X025000Y035627D01*
X025055Y035469D01*
X025000Y035450D01*
X024945Y035469D01*
X025000Y035627D01*
X025000Y035450D01*
X024355Y035419D02*
X024300Y035400D01*
X024245Y035419D01*
X024300Y035577D01*
X024355Y035419D01*
X024300Y035400D02*
X024300Y035577D01*
X024300Y036300D01*
X025000Y037000D01*
X027450Y035450D02*
X027575Y035575D01*
X030600Y035450D02*
X030619Y035395D01*
X030777Y035450D01*
X030619Y035505D01*
X030600Y035450D01*
X030777Y035450D01*
X031450Y035450D01*
X020000Y027350D02*
X018575Y028775D01*
X018425Y028847D01*
X018450Y028900D01*
X018503Y028925D01*
X018575Y028775D01*
X018450Y028900D01*
D18*
X020000Y032100D02*
X021650Y032100D01*
X021775Y032225D01*
X021800Y032200D01*
X023300Y032200D01*
X021850Y032300D02*
X021850Y033405D01*
X021075Y033405D01*
X020780Y033700D01*
X020780Y034720D01*
X020750Y034750D01*
X021850Y032300D02*
X021775Y032225D01*
D19*
X019957Y032634D02*
X019960Y032660D01*
X019955Y032685D01*
X019783Y032653D01*
X019957Y032634D01*
X019960Y032660D02*
X019790Y032660D01*
X019783Y032653D01*
X019240Y032110D01*
X019240Y031607D01*
X019266Y031434D01*
X019240Y031430D01*
X019214Y031434D01*
X019240Y031607D01*
X019240Y031430D01*
X019000Y031447D02*
X019026Y031274D01*
X019000Y031270D01*
X018974Y031274D01*
X019000Y031447D01*
X019000Y032190D01*
X019710Y032900D01*
X019784Y032900D01*
X019953Y032945D01*
X019960Y032920D01*
X019959Y032894D01*
X019784Y032900D01*
X019940Y032900D01*
X019960Y032920D01*
X019000Y031447D02*
X019000Y031270D01*
D20*
X018650Y031150D02*
X018950Y030850D01*
X019450Y030850D01*
X019500Y030800D01*
X019500Y029500D01*
X019300Y029300D01*
X018800Y029300D01*
X018650Y030200D02*
X018650Y030590D01*
X018290Y030950D01*
X018290Y031920D01*
X018150Y032060D01*
X018150Y032700D01*
X017750Y033100D01*
X017750Y036250D01*
X017000Y037000D01*
X018520Y032210D02*
X018650Y032080D01*
X018650Y031150D01*
D21*
X022750Y031790D02*
X022750Y027900D01*
X021650Y026800D01*
X021900Y026300D02*
X021150Y026300D01*
X020600Y026850D01*
X021900Y026300D02*
X023200Y027600D01*
X038400Y027600D01*
X041000Y025000D01*
X035000Y025000D02*
X035000Y026900D01*
M02*
