G75*
%MOIN*%
%OFA0B0*%
%FSLAX24Y24*%
%IPPOS*%
%LPD*%
%AMOC8*
5,1,8,0,0,1.08239X$1,22.5*
%
%ADD10C,0.0000*%
%ADD11R,0.0740X0.0740*%
%ADD12C,0.0740*%
%ADD13R,0.0400X0.0400*%
%ADD14R,0.0250X0.0350*%
%ADD15C,0.0080*%
%ADD16C,0.0197*%
D10*
X022500Y025000D02*
X022500Y028500D01*
X033500Y028500D01*
X033500Y025000D01*
X022500Y025000D01*
D11*
X023000Y028000D03*
D12*
X024000Y028000D03*
X025000Y028000D03*
X026000Y028000D03*
X027000Y028000D03*
X028000Y028000D03*
X029000Y028000D03*
X030000Y028000D03*
X031000Y028000D03*
X032000Y028000D03*
X033000Y028000D03*
D13*
X032000Y026650D03*
X031050Y026650D03*
X031050Y026050D03*
X032000Y026050D03*
X030000Y026050D03*
X029000Y026050D03*
X028000Y026050D03*
X028000Y026650D03*
X029000Y026650D03*
X030000Y026650D03*
X027000Y026650D03*
X026000Y026650D03*
X025000Y026650D03*
X025000Y026050D03*
X026000Y026050D03*
X027000Y026050D03*
X024000Y026050D03*
X024000Y026650D03*
D14*
X023750Y027250D03*
X024250Y027250D03*
X024750Y027250D03*
X025250Y027250D03*
X025750Y027250D03*
X026250Y027250D03*
X026750Y027250D03*
X027250Y027250D03*
X027750Y027250D03*
X028250Y027250D03*
X028750Y027250D03*
X029250Y027250D03*
X029750Y027250D03*
X030250Y027250D03*
X030750Y027250D03*
X031250Y027250D03*
X031750Y027250D03*
X032250Y027250D03*
D15*
X032250Y026900D01*
X032000Y026650D01*
X032300Y026649D02*
X033362Y026649D01*
X033362Y026727D02*
X032300Y026727D01*
X032300Y026752D02*
X032390Y026842D01*
X032390Y026975D01*
X032416Y026975D01*
X032475Y027034D01*
X032475Y027466D01*
X032416Y027525D01*
X032140Y027525D01*
X032140Y027549D01*
X032266Y027602D01*
X032398Y027734D01*
X032470Y027907D01*
X032470Y028093D01*
X032398Y028266D01*
X032303Y028362D01*
X032670Y028362D01*
X032627Y028318D01*
X032582Y028256D01*
X032547Y028188D01*
X032523Y028114D01*
X032512Y028040D01*
X032960Y028040D01*
X032960Y027960D01*
X033040Y027960D01*
X033040Y027512D01*
X032960Y027512D01*
X032960Y027960D01*
X032512Y027960D01*
X032523Y027886D01*
X032547Y027812D01*
X032582Y027744D01*
X032627Y027682D01*
X032682Y027627D01*
X032744Y027582D01*
X032812Y027547D01*
X032886Y027523D01*
X032960Y027512D01*
X032957Y027512D02*
X032429Y027512D01*
X032475Y027434D02*
X033362Y027434D01*
X033362Y027512D02*
X033043Y027512D01*
X033040Y027512D02*
X033114Y027523D01*
X033188Y027547D01*
X033256Y027582D01*
X033318Y027627D01*
X033362Y027670D01*
X033362Y025138D01*
X029286Y025138D01*
X029898Y025750D01*
X030241Y025750D01*
X030300Y025809D01*
X030300Y025910D01*
X030750Y025910D01*
X030750Y025809D01*
X030809Y025750D01*
X031291Y025750D01*
X031350Y025809D01*
X031350Y025910D01*
X031700Y025910D01*
X031700Y025809D01*
X031759Y025750D01*
X032241Y025750D01*
X032300Y025809D01*
X032300Y026291D01*
X032241Y026350D01*
X031759Y026350D01*
X031700Y026291D01*
X031700Y026190D01*
X031350Y026190D01*
X031350Y026291D01*
X031291Y026350D01*
X030809Y026350D01*
X030750Y026291D01*
X030750Y026190D01*
X030300Y026190D01*
X030300Y026291D01*
X030241Y026350D01*
X029759Y026350D01*
X029700Y026291D01*
X029700Y025948D01*
X029142Y025390D01*
X023808Y025390D01*
X023140Y026058D01*
X023140Y027530D01*
X023411Y027530D01*
X023470Y027589D01*
X023470Y028362D01*
X023697Y028362D01*
X023602Y028266D01*
X023530Y028093D01*
X023530Y027907D01*
X023602Y027734D01*
X023734Y027602D01*
X023854Y027552D01*
X023827Y027525D01*
X023584Y027525D01*
X023525Y027466D01*
X023525Y027034D01*
X023584Y026975D01*
X023916Y026975D01*
X023975Y027034D01*
X023975Y027277D01*
X024025Y027327D01*
X024025Y027034D01*
X024084Y026975D01*
X024110Y026975D01*
X024110Y026958D01*
X024102Y026950D01*
X023759Y026950D01*
X023700Y026891D01*
X023700Y026409D01*
X023750Y026358D01*
X023727Y026345D01*
X023705Y026323D01*
X023689Y026296D01*
X023681Y026266D01*
X023681Y026090D01*
X023960Y026090D01*
X023960Y026010D01*
X024040Y026010D01*
X024040Y026090D01*
X024319Y026090D01*
X024319Y026266D01*
X024311Y026296D01*
X024295Y026323D01*
X024273Y026345D01*
X024250Y026358D01*
X024300Y026409D01*
X024300Y026752D01*
X024390Y026842D01*
X024390Y026975D01*
X024416Y026975D01*
X024475Y027034D01*
X024475Y027466D01*
X024416Y027525D01*
X024140Y027525D01*
X024140Y027549D01*
X024266Y027602D01*
X024398Y027734D01*
X024470Y027907D01*
X024470Y028093D01*
X024398Y028266D01*
X024303Y028362D01*
X024697Y028362D01*
X024602Y028266D01*
X024530Y028093D01*
X024530Y027907D01*
X024602Y027734D01*
X024734Y027602D01*
X024854Y027552D01*
X024827Y027525D01*
X024584Y027525D01*
X024525Y027466D01*
X024525Y027034D01*
X024584Y026975D01*
X024916Y026975D01*
X024975Y027034D01*
X024975Y027277D01*
X025025Y027327D01*
X025025Y027034D01*
X025084Y026975D01*
X025110Y026975D01*
X025110Y026958D01*
X025102Y026950D01*
X024759Y026950D01*
X024700Y026891D01*
X024700Y026409D01*
X024750Y026358D01*
X024727Y026345D01*
X024705Y026323D01*
X024689Y026296D01*
X024681Y026266D01*
X024681Y026090D01*
X024960Y026090D01*
X024960Y026010D01*
X025040Y026010D01*
X025040Y026090D01*
X025319Y026090D01*
X025319Y026266D01*
X025311Y026296D01*
X025295Y026323D01*
X025273Y026345D01*
X025250Y026358D01*
X025300Y026409D01*
X025300Y026752D01*
X025390Y026842D01*
X025390Y026975D01*
X025416Y026975D01*
X025475Y027034D01*
X025475Y027466D01*
X025416Y027525D01*
X025140Y027525D01*
X025140Y027549D01*
X025266Y027602D01*
X025398Y027734D01*
X025470Y027907D01*
X025470Y028093D01*
X025398Y028266D01*
X025303Y028362D01*
X025697Y028362D01*
X025602Y028266D01*
X025530Y028093D01*
X025530Y027907D01*
X025602Y027734D01*
X025734Y027602D01*
X025854Y027552D01*
X025827Y027525D01*
X025584Y027525D01*
X025525Y027466D01*
X025525Y027034D01*
X025584Y026975D01*
X025916Y026975D01*
X025975Y027034D01*
X025975Y027277D01*
X026025Y027327D01*
X026025Y027034D01*
X026084Y026975D01*
X026110Y026975D01*
X026110Y026958D01*
X026102Y026950D01*
X025759Y026950D01*
X025700Y026891D01*
X025700Y026409D01*
X025750Y026358D01*
X025727Y026345D01*
X025705Y026323D01*
X025689Y026296D01*
X025681Y026266D01*
X025681Y026090D01*
X025960Y026090D01*
X025960Y026010D01*
X026040Y026010D01*
X026040Y026090D01*
X026319Y026090D01*
X026319Y026266D01*
X026311Y026296D01*
X026295Y026323D01*
X026273Y026345D01*
X026250Y026358D01*
X026300Y026409D01*
X026300Y026752D01*
X026390Y026842D01*
X026390Y026975D01*
X026416Y026975D01*
X026475Y027034D01*
X026475Y027466D01*
X026416Y027525D01*
X026140Y027525D01*
X026140Y027549D01*
X026266Y027602D01*
X026398Y027734D01*
X026470Y027907D01*
X026470Y028093D01*
X026398Y028266D01*
X026303Y028362D01*
X026697Y028362D01*
X026602Y028266D01*
X026530Y028093D01*
X026530Y027907D01*
X026602Y027734D01*
X026734Y027602D01*
X026854Y027552D01*
X026827Y027525D01*
X026584Y027525D01*
X026525Y027466D01*
X026525Y027034D01*
X026584Y026975D01*
X026916Y026975D01*
X026975Y027034D01*
X026975Y027277D01*
X027025Y027327D01*
X027025Y027034D01*
X027084Y026975D01*
X027110Y026975D01*
X027110Y026958D01*
X027102Y026950D01*
X026759Y026950D01*
X026700Y026891D01*
X026700Y026409D01*
X026750Y026358D01*
X026727Y026345D01*
X026705Y026323D01*
X026689Y026296D01*
X026681Y026266D01*
X026681Y026090D01*
X026960Y026090D01*
X026960Y026010D01*
X027040Y026010D01*
X027040Y026090D01*
X027319Y026090D01*
X027319Y026266D01*
X027311Y026296D01*
X027295Y026323D01*
X027273Y026345D01*
X027250Y026358D01*
X027300Y026409D01*
X027300Y026752D01*
X027390Y026842D01*
X027390Y026975D01*
X027416Y026975D01*
X027475Y027034D01*
X027475Y027466D01*
X027416Y027525D01*
X027140Y027525D01*
X027140Y027549D01*
X027266Y027602D01*
X027398Y027734D01*
X027470Y027907D01*
X027470Y028093D01*
X027398Y028266D01*
X027303Y028362D01*
X027697Y028362D01*
X027602Y028266D01*
X027530Y028093D01*
X027530Y027907D01*
X027602Y027734D01*
X027734Y027602D01*
X027854Y027552D01*
X027827Y027525D01*
X027584Y027525D01*
X027525Y027466D01*
X027525Y027034D01*
X027584Y026975D01*
X027916Y026975D01*
X027975Y027034D01*
X027975Y027277D01*
X028025Y027327D01*
X028025Y027034D01*
X028084Y026975D01*
X028110Y026975D01*
X028110Y026958D01*
X028102Y026950D01*
X027759Y026950D01*
X027700Y026891D01*
X027700Y026409D01*
X027750Y026358D01*
X027727Y026345D01*
X027705Y026323D01*
X027689Y026296D01*
X027681Y026266D01*
X027681Y026090D01*
X027960Y026090D01*
X027960Y026010D01*
X027681Y026010D01*
X027681Y025834D01*
X027689Y025804D01*
X027705Y025777D01*
X027727Y025755D01*
X027754Y025739D01*
X027784Y025731D01*
X027960Y025731D01*
X027960Y026010D01*
X028040Y026010D01*
X028040Y026090D01*
X028319Y026090D01*
X028319Y026266D01*
X028311Y026296D01*
X028295Y026323D01*
X028273Y026345D01*
X028250Y026358D01*
X028300Y026409D01*
X028300Y026752D01*
X028390Y026842D01*
X028390Y026975D01*
X028416Y026975D01*
X028475Y027034D01*
X028475Y027466D01*
X028416Y027525D01*
X028140Y027525D01*
X028140Y027549D01*
X028266Y027602D01*
X028398Y027734D01*
X028470Y027907D01*
X028470Y028093D01*
X028398Y028266D01*
X028303Y028362D01*
X028697Y028362D01*
X028602Y028266D01*
X028530Y028093D01*
X028530Y027907D01*
X028602Y027734D01*
X028734Y027602D01*
X028854Y027552D01*
X028827Y027525D01*
X028584Y027525D01*
X028525Y027466D01*
X028525Y027034D01*
X028584Y026975D01*
X028916Y026975D01*
X028975Y027034D01*
X028975Y027277D01*
X029025Y027327D01*
X029025Y027034D01*
X029084Y026975D01*
X029110Y026975D01*
X029110Y026958D01*
X029102Y026950D01*
X028759Y026950D01*
X028700Y026891D01*
X028700Y026409D01*
X028750Y026358D01*
X028727Y026345D01*
X028705Y026323D01*
X028689Y026296D01*
X028681Y026266D01*
X028681Y026090D01*
X028960Y026090D01*
X028960Y026010D01*
X029040Y026010D01*
X029040Y026090D01*
X029319Y026090D01*
X029319Y026266D01*
X029311Y026296D01*
X029295Y026323D01*
X029273Y026345D01*
X029250Y026358D01*
X029300Y026409D01*
X029300Y026752D01*
X029390Y026842D01*
X029390Y026975D01*
X029416Y026975D01*
X029475Y027034D01*
X029475Y027466D01*
X029416Y027525D01*
X029140Y027525D01*
X029140Y027549D01*
X029266Y027602D01*
X029398Y027734D01*
X029470Y027907D01*
X029470Y028093D01*
X029398Y028266D01*
X029303Y028362D01*
X029697Y028362D01*
X029602Y028266D01*
X029530Y028093D01*
X029530Y027907D01*
X029602Y027734D01*
X029734Y027602D01*
X029854Y027552D01*
X029827Y027525D01*
X029584Y027525D01*
X029525Y027466D01*
X029525Y027034D01*
X029584Y026975D01*
X029916Y026975D01*
X029975Y027034D01*
X029975Y027277D01*
X030025Y027327D01*
X030025Y027034D01*
X030084Y026975D01*
X030110Y026975D01*
X030110Y026958D01*
X030102Y026950D01*
X029759Y026950D01*
X029700Y026891D01*
X029700Y026409D01*
X029759Y026350D01*
X030241Y026350D01*
X030300Y026409D01*
X030300Y026752D01*
X030390Y026842D01*
X030390Y026975D01*
X030416Y026975D01*
X030475Y027034D01*
X030475Y027466D01*
X030416Y027525D01*
X030140Y027525D01*
X030140Y027549D01*
X030266Y027602D01*
X030398Y027734D01*
X030470Y027907D01*
X030470Y028093D01*
X030398Y028266D01*
X030303Y028362D01*
X030697Y028362D01*
X030602Y028266D01*
X030530Y028093D01*
X030530Y027907D01*
X030602Y027734D01*
X030734Y027602D01*
X030854Y027552D01*
X030827Y027525D01*
X030584Y027525D01*
X030525Y027466D01*
X030525Y027034D01*
X030584Y026975D01*
X030916Y026975D01*
X030975Y027034D01*
X030975Y027277D01*
X031025Y027327D01*
X031025Y027034D01*
X031084Y026975D01*
X031110Y026975D01*
X031110Y026950D01*
X030809Y026950D01*
X030750Y026891D01*
X030750Y026409D01*
X030809Y026350D01*
X031291Y026350D01*
X031350Y026409D01*
X031350Y026752D01*
X031390Y026792D01*
X031390Y026975D01*
X031416Y026975D01*
X031475Y027034D01*
X031475Y027466D01*
X031416Y027525D01*
X031140Y027525D01*
X031140Y027549D01*
X031266Y027602D01*
X031398Y027734D01*
X031470Y027907D01*
X031470Y028093D01*
X031398Y028266D01*
X031303Y028362D01*
X031697Y028362D01*
X031602Y028266D01*
X031530Y028093D01*
X031530Y027907D01*
X031602Y027734D01*
X031734Y027602D01*
X031854Y027552D01*
X031827Y027525D01*
X031584Y027525D01*
X031525Y027466D01*
X031525Y027034D01*
X031584Y026975D01*
X031916Y026975D01*
X031975Y027034D01*
X031975Y027277D01*
X032025Y027327D01*
X032025Y027034D01*
X032084Y026975D01*
X032110Y026975D01*
X032110Y026958D01*
X032102Y026950D01*
X031759Y026950D01*
X031700Y026891D01*
X031700Y026409D01*
X031759Y026350D01*
X032241Y026350D01*
X032300Y026409D01*
X032300Y026752D01*
X032353Y026806D02*
X033362Y026806D01*
X033362Y026884D02*
X032390Y026884D01*
X032390Y026963D02*
X033362Y026963D01*
X033362Y027041D02*
X032475Y027041D01*
X032475Y027120D02*
X033362Y027120D01*
X033362Y027198D02*
X032475Y027198D01*
X032475Y027277D02*
X033362Y027277D01*
X033362Y027355D02*
X032475Y027355D01*
X032240Y027591D02*
X032732Y027591D01*
X032640Y027669D02*
X032334Y027669D01*
X032404Y027748D02*
X032580Y027748D01*
X032543Y027826D02*
X032437Y027826D01*
X032469Y027905D02*
X032520Y027905D01*
X032470Y027983D02*
X032960Y027983D01*
X032960Y027905D02*
X033040Y027905D01*
X033040Y027826D02*
X032960Y027826D01*
X032960Y027748D02*
X033040Y027748D01*
X033040Y027669D02*
X032960Y027669D01*
X032960Y027591D02*
X033040Y027591D01*
X033268Y027591D02*
X033362Y027591D01*
X033360Y027669D02*
X033362Y027669D01*
X032515Y028062D02*
X032470Y028062D01*
X032451Y028140D02*
X032532Y028140D01*
X032563Y028219D02*
X032418Y028219D01*
X032368Y028297D02*
X032612Y028297D01*
X032000Y028000D02*
X032000Y027500D01*
X031750Y027250D01*
X031975Y027277D02*
X032025Y027277D01*
X032025Y027198D02*
X031975Y027198D01*
X031975Y027120D02*
X032025Y027120D01*
X032025Y027041D02*
X031975Y027041D01*
X032110Y026963D02*
X031390Y026963D01*
X031390Y026884D02*
X031700Y026884D01*
X031700Y026806D02*
X031390Y026806D01*
X031350Y026727D02*
X031700Y026727D01*
X031700Y026649D02*
X031350Y026649D01*
X031350Y026570D02*
X031700Y026570D01*
X031700Y026492D02*
X031350Y026492D01*
X031350Y026413D02*
X031700Y026413D01*
X031743Y026335D02*
X031307Y026335D01*
X031350Y026256D02*
X031700Y026256D01*
X032000Y026050D02*
X031050Y026050D01*
X030000Y026050D01*
X029200Y025250D01*
X023750Y025250D01*
X023000Y026000D01*
X023000Y028000D01*
X023470Y027983D02*
X023530Y027983D01*
X023531Y027905D02*
X023470Y027905D01*
X023470Y027826D02*
X023563Y027826D01*
X023596Y027748D02*
X023470Y027748D01*
X023470Y027669D02*
X023666Y027669D01*
X023760Y027591D02*
X023470Y027591D01*
X023571Y027512D02*
X023140Y027512D01*
X023140Y027434D02*
X023525Y027434D01*
X023525Y027355D02*
X023140Y027355D01*
X023140Y027277D02*
X023525Y027277D01*
X023525Y027198D02*
X023140Y027198D01*
X023140Y027120D02*
X023525Y027120D01*
X023525Y027041D02*
X023140Y027041D01*
X023140Y026963D02*
X024110Y026963D01*
X024025Y027041D02*
X023975Y027041D01*
X023975Y027120D02*
X024025Y027120D01*
X024025Y027198D02*
X023975Y027198D01*
X023975Y027277D02*
X024025Y027277D01*
X024000Y027500D02*
X023750Y027250D01*
X024000Y027500D02*
X024000Y028000D01*
X024334Y027669D02*
X024666Y027669D01*
X024596Y027748D02*
X024404Y027748D01*
X024437Y027826D02*
X024563Y027826D01*
X024531Y027905D02*
X024469Y027905D01*
X024470Y027983D02*
X024530Y027983D01*
X024530Y028062D02*
X024470Y028062D01*
X024451Y028140D02*
X024549Y028140D01*
X024582Y028219D02*
X024418Y028219D01*
X024368Y028297D02*
X024632Y028297D01*
X025000Y028000D02*
X025000Y027500D01*
X024750Y027250D01*
X024975Y027277D02*
X025025Y027277D01*
X025025Y027198D02*
X024975Y027198D01*
X024975Y027120D02*
X025025Y027120D01*
X025025Y027041D02*
X024975Y027041D01*
X025110Y026963D02*
X024390Y026963D01*
X024390Y026884D02*
X024700Y026884D01*
X024700Y026806D02*
X024353Y026806D01*
X024300Y026727D02*
X024700Y026727D01*
X024700Y026649D02*
X024300Y026649D01*
X024300Y026570D02*
X024700Y026570D01*
X024700Y026492D02*
X024300Y026492D01*
X024300Y026413D02*
X024700Y026413D01*
X024717Y026335D02*
X024283Y026335D01*
X024319Y026256D02*
X024681Y026256D01*
X024681Y026178D02*
X024319Y026178D01*
X024319Y026099D02*
X024681Y026099D01*
X024681Y026010D02*
X024681Y025834D01*
X024689Y025804D01*
X024705Y025777D01*
X024727Y025755D01*
X024754Y025739D01*
X024784Y025731D01*
X024960Y025731D01*
X024960Y026010D01*
X024681Y026010D01*
X024681Y025942D02*
X024319Y025942D01*
X024319Y026010D02*
X024040Y026010D01*
X024040Y025731D01*
X024216Y025731D01*
X024246Y025739D01*
X024273Y025755D01*
X024295Y025777D01*
X024311Y025804D01*
X024319Y025834D01*
X024319Y026010D01*
X024319Y025864D02*
X024681Y025864D01*
X024700Y025785D02*
X024300Y025785D01*
X024040Y025785D02*
X023960Y025785D01*
X023960Y025731D02*
X023960Y026010D01*
X023681Y026010D01*
X023681Y025834D01*
X023689Y025804D01*
X023705Y025777D01*
X023727Y025755D01*
X023754Y025739D01*
X023784Y025731D01*
X023960Y025731D01*
X023960Y025864D02*
X024040Y025864D01*
X024040Y025942D02*
X023960Y025942D01*
X023960Y026021D02*
X023177Y026021D01*
X023140Y026099D02*
X023681Y026099D01*
X023681Y026178D02*
X023140Y026178D01*
X023140Y026256D02*
X023681Y026256D01*
X023717Y026335D02*
X023140Y026335D01*
X023140Y026413D02*
X023700Y026413D01*
X023700Y026492D02*
X023140Y026492D01*
X023140Y026570D02*
X023700Y026570D01*
X023700Y026649D02*
X023140Y026649D01*
X023140Y026727D02*
X023700Y026727D01*
X023700Y026806D02*
X023140Y026806D01*
X023140Y026884D02*
X023700Y026884D01*
X024000Y026650D02*
X024250Y026900D01*
X024250Y027250D01*
X024475Y027277D02*
X024525Y027277D01*
X024525Y027355D02*
X024475Y027355D01*
X024475Y027434D02*
X024525Y027434D01*
X024571Y027512D02*
X024429Y027512D01*
X024240Y027591D02*
X024760Y027591D01*
X024525Y027198D02*
X024475Y027198D01*
X024475Y027120D02*
X024525Y027120D01*
X024525Y027041D02*
X024475Y027041D01*
X025000Y026650D02*
X025250Y026900D01*
X025250Y027250D01*
X025475Y027277D02*
X025525Y027277D01*
X025525Y027355D02*
X025475Y027355D01*
X025475Y027434D02*
X025525Y027434D01*
X025571Y027512D02*
X025429Y027512D01*
X025334Y027669D02*
X025666Y027669D01*
X025596Y027748D02*
X025404Y027748D01*
X025437Y027826D02*
X025563Y027826D01*
X025531Y027905D02*
X025469Y027905D01*
X025470Y027983D02*
X025530Y027983D01*
X025530Y028062D02*
X025470Y028062D01*
X025451Y028140D02*
X025549Y028140D01*
X025582Y028219D02*
X025418Y028219D01*
X025368Y028297D02*
X025632Y028297D01*
X026000Y028000D02*
X026000Y027500D01*
X025750Y027250D01*
X025975Y027277D02*
X026025Y027277D01*
X026025Y027198D02*
X025975Y027198D01*
X025975Y027120D02*
X026025Y027120D01*
X026025Y027041D02*
X025975Y027041D01*
X026110Y026963D02*
X025390Y026963D01*
X025390Y026884D02*
X025700Y026884D01*
X025700Y026806D02*
X025353Y026806D01*
X025300Y026727D02*
X025700Y026727D01*
X025700Y026649D02*
X025300Y026649D01*
X025300Y026570D02*
X025700Y026570D01*
X025700Y026492D02*
X025300Y026492D01*
X025300Y026413D02*
X025700Y026413D01*
X025717Y026335D02*
X025283Y026335D01*
X025319Y026256D02*
X025681Y026256D01*
X025681Y026178D02*
X025319Y026178D01*
X025319Y026099D02*
X025681Y026099D01*
X025681Y026010D02*
X025681Y025834D01*
X025689Y025804D01*
X025705Y025777D01*
X025727Y025755D01*
X025754Y025739D01*
X025784Y025731D01*
X025960Y025731D01*
X025960Y026010D01*
X025681Y026010D01*
X025681Y025942D02*
X025319Y025942D01*
X025319Y026010D02*
X025040Y026010D01*
X025040Y025731D01*
X025216Y025731D01*
X025246Y025739D01*
X025273Y025755D01*
X025295Y025777D01*
X025311Y025804D01*
X025319Y025834D01*
X025319Y026010D01*
X025319Y025864D02*
X025681Y025864D01*
X025700Y025785D02*
X025300Y025785D01*
X025040Y025785D02*
X024960Y025785D01*
X024960Y025864D02*
X025040Y025864D01*
X025040Y025942D02*
X024960Y025942D01*
X024960Y026021D02*
X024040Y026021D01*
X023681Y025942D02*
X023256Y025942D01*
X023334Y025864D02*
X023681Y025864D01*
X023700Y025785D02*
X023413Y025785D01*
X023491Y025707D02*
X029459Y025707D01*
X029537Y025785D02*
X029300Y025785D01*
X029295Y025777D02*
X029311Y025804D01*
X029319Y025834D01*
X029319Y026010D01*
X029040Y026010D01*
X029040Y025731D01*
X029216Y025731D01*
X029246Y025739D01*
X029273Y025755D01*
X029295Y025777D01*
X029319Y025864D02*
X029616Y025864D01*
X029694Y025942D02*
X029319Y025942D01*
X029319Y026099D02*
X029700Y026099D01*
X029700Y026021D02*
X029040Y026021D01*
X029040Y025942D02*
X028960Y025942D01*
X028960Y026010D02*
X028960Y025731D01*
X028784Y025731D01*
X028754Y025739D01*
X028727Y025755D01*
X028705Y025777D01*
X028689Y025804D01*
X028681Y025834D01*
X028681Y026010D01*
X028960Y026010D01*
X028960Y026021D02*
X028040Y026021D01*
X028040Y026010D02*
X028319Y026010D01*
X028319Y025834D01*
X028311Y025804D01*
X028295Y025777D01*
X028273Y025755D01*
X028246Y025739D01*
X028216Y025731D01*
X028040Y025731D01*
X028040Y026010D01*
X028040Y025942D02*
X027960Y025942D01*
X027960Y025864D02*
X028040Y025864D01*
X028040Y025785D02*
X027960Y025785D01*
X027960Y026021D02*
X027040Y026021D01*
X027040Y026010D02*
X027319Y026010D01*
X027319Y025834D01*
X027311Y025804D01*
X027295Y025777D01*
X027273Y025755D01*
X027246Y025739D01*
X027216Y025731D01*
X027040Y025731D01*
X027040Y026010D01*
X027040Y025942D02*
X026960Y025942D01*
X026960Y026010D02*
X026960Y025731D01*
X026784Y025731D01*
X026754Y025739D01*
X026727Y025755D01*
X026705Y025777D01*
X026689Y025804D01*
X026681Y025834D01*
X026681Y026010D01*
X026960Y026010D01*
X026960Y026021D02*
X026040Y026021D01*
X026040Y026010D02*
X026319Y026010D01*
X026319Y025834D01*
X026311Y025804D01*
X026295Y025777D01*
X026273Y025755D01*
X026246Y025739D01*
X026216Y025731D01*
X026040Y025731D01*
X026040Y026010D01*
X026040Y025942D02*
X025960Y025942D01*
X025960Y025864D02*
X026040Y025864D01*
X026040Y025785D02*
X025960Y025785D01*
X025960Y026021D02*
X025040Y026021D01*
X026319Y026099D02*
X026681Y026099D01*
X026681Y026178D02*
X026319Y026178D01*
X026319Y026256D02*
X026681Y026256D01*
X026717Y026335D02*
X026283Y026335D01*
X026300Y026413D02*
X026700Y026413D01*
X026700Y026492D02*
X026300Y026492D01*
X026300Y026570D02*
X026700Y026570D01*
X026700Y026649D02*
X026300Y026649D01*
X026300Y026727D02*
X026700Y026727D01*
X026700Y026806D02*
X026353Y026806D01*
X026390Y026884D02*
X026700Y026884D01*
X026525Y027041D02*
X026475Y027041D01*
X026475Y027120D02*
X026525Y027120D01*
X026525Y027198D02*
X026475Y027198D01*
X026475Y027277D02*
X026525Y027277D01*
X026525Y027355D02*
X026475Y027355D01*
X026475Y027434D02*
X026525Y027434D01*
X026571Y027512D02*
X026429Y027512D01*
X026334Y027669D02*
X026666Y027669D01*
X026596Y027748D02*
X026404Y027748D01*
X026437Y027826D02*
X026563Y027826D01*
X026531Y027905D02*
X026469Y027905D01*
X026470Y027983D02*
X026530Y027983D01*
X026530Y028062D02*
X026470Y028062D01*
X026451Y028140D02*
X026549Y028140D01*
X026582Y028219D02*
X026418Y028219D01*
X026368Y028297D02*
X026632Y028297D01*
X027000Y028000D02*
X027000Y027500D01*
X026750Y027250D01*
X026975Y027277D02*
X027025Y027277D01*
X027025Y027198D02*
X026975Y027198D01*
X026975Y027120D02*
X027025Y027120D01*
X027025Y027041D02*
X026975Y027041D01*
X027110Y026963D02*
X026390Y026963D01*
X026250Y026900D02*
X026250Y027250D01*
X026240Y027591D02*
X026760Y027591D01*
X027240Y027591D02*
X027760Y027591D01*
X027666Y027669D02*
X027334Y027669D01*
X027404Y027748D02*
X027596Y027748D01*
X027563Y027826D02*
X027437Y027826D01*
X027469Y027905D02*
X027531Y027905D01*
X027530Y027983D02*
X027470Y027983D01*
X027470Y028062D02*
X027530Y028062D01*
X027549Y028140D02*
X027451Y028140D01*
X027418Y028219D02*
X027582Y028219D01*
X027632Y028297D02*
X027368Y028297D01*
X028000Y028000D02*
X028000Y027500D01*
X027750Y027250D01*
X027975Y027277D02*
X028025Y027277D01*
X028025Y027198D02*
X027975Y027198D01*
X027975Y027120D02*
X028025Y027120D01*
X028025Y027041D02*
X027975Y027041D01*
X028110Y026963D02*
X027390Y026963D01*
X027390Y026884D02*
X027700Y026884D01*
X027700Y026806D02*
X027353Y026806D01*
X027300Y026727D02*
X027700Y026727D01*
X027700Y026649D02*
X027300Y026649D01*
X027300Y026570D02*
X027700Y026570D01*
X027700Y026492D02*
X027300Y026492D01*
X027300Y026413D02*
X027700Y026413D01*
X027717Y026335D02*
X027283Y026335D01*
X027319Y026256D02*
X027681Y026256D01*
X027681Y026178D02*
X027319Y026178D01*
X027319Y026099D02*
X027681Y026099D01*
X027681Y025942D02*
X027319Y025942D01*
X027319Y025864D02*
X027681Y025864D01*
X027700Y025785D02*
X027300Y025785D01*
X027040Y025785D02*
X026960Y025785D01*
X026960Y025864D02*
X027040Y025864D01*
X026700Y025785D02*
X026300Y025785D01*
X026319Y025864D02*
X026681Y025864D01*
X026681Y025942D02*
X026319Y025942D01*
X026000Y026650D02*
X026250Y026900D01*
X025525Y027041D02*
X025475Y027041D01*
X025475Y027120D02*
X025525Y027120D01*
X025525Y027198D02*
X025475Y027198D01*
X025240Y027591D02*
X025760Y027591D01*
X027000Y026650D02*
X027250Y026900D01*
X027250Y027250D01*
X027475Y027277D02*
X027525Y027277D01*
X027525Y027355D02*
X027475Y027355D01*
X027475Y027434D02*
X027525Y027434D01*
X027571Y027512D02*
X027429Y027512D01*
X027475Y027198D02*
X027525Y027198D01*
X027525Y027120D02*
X027475Y027120D01*
X027475Y027041D02*
X027525Y027041D01*
X028000Y026650D02*
X028250Y026900D01*
X028250Y027250D01*
X028475Y027277D02*
X028525Y027277D01*
X028525Y027355D02*
X028475Y027355D01*
X028475Y027434D02*
X028525Y027434D01*
X028571Y027512D02*
X028429Y027512D01*
X028334Y027669D02*
X028666Y027669D01*
X028596Y027748D02*
X028404Y027748D01*
X028437Y027826D02*
X028563Y027826D01*
X028531Y027905D02*
X028469Y027905D01*
X028470Y027983D02*
X028530Y027983D01*
X028530Y028062D02*
X028470Y028062D01*
X028451Y028140D02*
X028549Y028140D01*
X028582Y028219D02*
X028418Y028219D01*
X028368Y028297D02*
X028632Y028297D01*
X029000Y028000D02*
X029000Y027500D01*
X028750Y027250D01*
X028975Y027277D02*
X029025Y027277D01*
X029025Y027198D02*
X028975Y027198D01*
X028975Y027120D02*
X029025Y027120D01*
X029025Y027041D02*
X028975Y027041D01*
X029110Y026963D02*
X028390Y026963D01*
X028390Y026884D02*
X028700Y026884D01*
X028700Y026806D02*
X028353Y026806D01*
X028300Y026727D02*
X028700Y026727D01*
X028700Y026649D02*
X028300Y026649D01*
X028300Y026570D02*
X028700Y026570D01*
X028700Y026492D02*
X028300Y026492D01*
X028300Y026413D02*
X028700Y026413D01*
X028717Y026335D02*
X028283Y026335D01*
X028319Y026256D02*
X028681Y026256D01*
X028681Y026178D02*
X028319Y026178D01*
X028319Y026099D02*
X028681Y026099D01*
X028681Y025942D02*
X028319Y025942D01*
X028319Y025864D02*
X028681Y025864D01*
X028700Y025785D02*
X028300Y025785D01*
X028960Y025785D02*
X029040Y025785D01*
X029040Y025864D02*
X028960Y025864D01*
X029302Y025550D02*
X023648Y025550D01*
X023570Y025628D02*
X029380Y025628D01*
X029223Y025471D02*
X023727Y025471D01*
X023805Y025393D02*
X029145Y025393D01*
X029305Y025157D02*
X033362Y025157D01*
X033362Y025236D02*
X029383Y025236D01*
X029462Y025314D02*
X033362Y025314D01*
X033362Y025393D02*
X029540Y025393D01*
X029619Y025471D02*
X033362Y025471D01*
X033362Y025550D02*
X029697Y025550D01*
X029776Y025628D02*
X033362Y025628D01*
X033362Y025707D02*
X029854Y025707D01*
X030276Y025785D02*
X030774Y025785D01*
X030750Y025864D02*
X030300Y025864D01*
X030300Y026256D02*
X030750Y026256D01*
X030793Y026335D02*
X030257Y026335D01*
X030300Y026413D02*
X030750Y026413D01*
X030750Y026492D02*
X030300Y026492D01*
X030300Y026570D02*
X030750Y026570D01*
X030750Y026649D02*
X030300Y026649D01*
X030300Y026727D02*
X030750Y026727D01*
X030750Y026806D02*
X030353Y026806D01*
X030390Y026884D02*
X030750Y026884D01*
X030975Y027041D02*
X031025Y027041D01*
X031025Y027120D02*
X030975Y027120D01*
X030975Y027198D02*
X031025Y027198D01*
X031025Y027277D02*
X030975Y027277D01*
X031000Y027500D02*
X030750Y027250D01*
X030525Y027277D02*
X030475Y027277D01*
X030475Y027355D02*
X030525Y027355D01*
X030525Y027434D02*
X030475Y027434D01*
X030429Y027512D02*
X030571Y027512D01*
X030666Y027669D02*
X030334Y027669D01*
X030404Y027748D02*
X030596Y027748D01*
X030563Y027826D02*
X030437Y027826D01*
X030469Y027905D02*
X030531Y027905D01*
X030530Y027983D02*
X030470Y027983D01*
X030470Y028062D02*
X030530Y028062D01*
X030549Y028140D02*
X030451Y028140D01*
X030418Y028219D02*
X030582Y028219D01*
X030632Y028297D02*
X030368Y028297D01*
X030000Y028000D02*
X030000Y027500D01*
X029750Y027250D01*
X029975Y027277D02*
X030025Y027277D01*
X030025Y027198D02*
X029975Y027198D01*
X029975Y027120D02*
X030025Y027120D01*
X030025Y027041D02*
X029975Y027041D01*
X030110Y026963D02*
X029390Y026963D01*
X029390Y026884D02*
X029700Y026884D01*
X029700Y026806D02*
X029353Y026806D01*
X029300Y026727D02*
X029700Y026727D01*
X029700Y026649D02*
X029300Y026649D01*
X029300Y026570D02*
X029700Y026570D01*
X029700Y026492D02*
X029300Y026492D01*
X029300Y026413D02*
X029700Y026413D01*
X029743Y026335D02*
X029283Y026335D01*
X029319Y026256D02*
X029700Y026256D01*
X029700Y026178D02*
X029319Y026178D01*
X029000Y026650D02*
X029250Y026900D01*
X029250Y027250D01*
X029475Y027277D02*
X029525Y027277D01*
X029525Y027355D02*
X029475Y027355D01*
X029475Y027434D02*
X029525Y027434D01*
X029571Y027512D02*
X029429Y027512D01*
X029334Y027669D02*
X029666Y027669D01*
X029596Y027748D02*
X029404Y027748D01*
X029437Y027826D02*
X029563Y027826D01*
X029531Y027905D02*
X029469Y027905D01*
X029470Y027983D02*
X029530Y027983D01*
X029530Y028062D02*
X029470Y028062D01*
X029451Y028140D02*
X029549Y028140D01*
X029582Y028219D02*
X029418Y028219D01*
X029368Y028297D02*
X029632Y028297D01*
X029760Y027591D02*
X029240Y027591D01*
X029475Y027198D02*
X029525Y027198D01*
X029525Y027120D02*
X029475Y027120D01*
X029475Y027041D02*
X029525Y027041D01*
X030000Y026650D02*
X030250Y026900D01*
X030250Y027250D01*
X030475Y027198D02*
X030525Y027198D01*
X030525Y027120D02*
X030475Y027120D01*
X030475Y027041D02*
X030525Y027041D01*
X030390Y026963D02*
X031110Y026963D01*
X031250Y026850D02*
X031050Y026650D01*
X031250Y026850D02*
X031250Y027250D01*
X031475Y027277D02*
X031525Y027277D01*
X031525Y027355D02*
X031475Y027355D01*
X031475Y027434D02*
X031525Y027434D01*
X031571Y027512D02*
X031429Y027512D01*
X031334Y027669D02*
X031666Y027669D01*
X031596Y027748D02*
X031404Y027748D01*
X031437Y027826D02*
X031563Y027826D01*
X031531Y027905D02*
X031469Y027905D01*
X031470Y027983D02*
X031530Y027983D01*
X031530Y028062D02*
X031470Y028062D01*
X031451Y028140D02*
X031549Y028140D01*
X031582Y028219D02*
X031418Y028219D01*
X031368Y028297D02*
X031632Y028297D01*
X031000Y028000D02*
X031000Y027500D01*
X031240Y027591D02*
X031760Y027591D01*
X031525Y027198D02*
X031475Y027198D01*
X031475Y027120D02*
X031525Y027120D01*
X031525Y027041D02*
X031475Y027041D01*
X030760Y027591D02*
X030240Y027591D01*
X028760Y027591D02*
X028240Y027591D01*
X028475Y027198D02*
X028525Y027198D01*
X028525Y027120D02*
X028475Y027120D01*
X028475Y027041D02*
X028525Y027041D01*
X031350Y025864D02*
X031700Y025864D01*
X031724Y025785D02*
X031326Y025785D01*
X032276Y025785D02*
X033362Y025785D01*
X033362Y025864D02*
X032300Y025864D01*
X032300Y025942D02*
X033362Y025942D01*
X033362Y026021D02*
X032300Y026021D01*
X032300Y026099D02*
X033362Y026099D01*
X033362Y026178D02*
X032300Y026178D01*
X032300Y026256D02*
X033362Y026256D01*
X033362Y026335D02*
X032257Y026335D01*
X032300Y026413D02*
X033362Y026413D01*
X033362Y026492D02*
X032300Y026492D01*
X032300Y026570D02*
X033362Y026570D01*
X023632Y028297D02*
X023470Y028297D01*
X023470Y028219D02*
X023582Y028219D01*
X023549Y028140D02*
X023470Y028140D01*
X023470Y028062D02*
X023530Y028062D01*
D16*
X024500Y026000D03*
X025500Y026000D03*
X026500Y026000D03*
X027500Y026000D03*
X028500Y026000D03*
X032500Y026000D03*
M02*
