G75*
%MOIN*%
%OFA0B0*%
%FSLAX24Y24*%
%IPPOS*%
%LPD*%
%AMOC8*
5,1,8,0,0,1.08239X$1,22.5*
%
%ADD10C,0.0000*%
%ADD11R,0.0740X0.0740*%
%ADD12C,0.0740*%
%ADD13C,0.0080*%
%ADD14C,0.0197*%
D10*
X022500Y025000D02*
X022500Y028500D01*
X033500Y028500D01*
X033500Y025000D01*
X022500Y025000D01*
D11*
X023000Y028000D03*
D12*
X024000Y028000D03*
X025000Y028000D03*
X026000Y028000D03*
X027000Y028000D03*
X028000Y028000D03*
X029000Y028000D03*
X030000Y028000D03*
X031000Y028000D03*
X032000Y028000D03*
X033000Y028000D03*
D13*
X032960Y027983D02*
X032470Y027983D01*
X032512Y027960D02*
X032523Y027886D01*
X032547Y027812D01*
X032582Y027744D01*
X032627Y027682D01*
X032682Y027627D01*
X032744Y027582D01*
X032812Y027547D01*
X032886Y027523D01*
X032960Y027512D01*
X033040Y027512D01*
X033114Y027523D01*
X033188Y027547D01*
X033256Y027582D01*
X033318Y027627D01*
X033362Y027670D01*
X033362Y025138D01*
X022638Y025138D01*
X022638Y027530D01*
X023411Y027530D01*
X023470Y027589D01*
X023470Y028362D01*
X023697Y028362D01*
X023602Y028266D01*
X023530Y028093D01*
X023530Y027907D01*
X023602Y027734D01*
X023734Y027602D01*
X023907Y027530D01*
X024093Y027530D01*
X024266Y027602D01*
X024398Y027734D01*
X024470Y027907D01*
X024470Y028093D01*
X024398Y028266D01*
X024303Y028362D01*
X024697Y028362D01*
X024602Y028266D01*
X024530Y028093D01*
X024530Y027907D01*
X024602Y027734D01*
X024734Y027602D01*
X024907Y027530D01*
X025093Y027530D01*
X025266Y027602D01*
X025398Y027734D01*
X025470Y027907D01*
X025470Y028093D01*
X025398Y028266D01*
X025303Y028362D01*
X025697Y028362D01*
X025602Y028266D01*
X025530Y028093D01*
X025530Y027907D01*
X025602Y027734D01*
X025734Y027602D01*
X025907Y027530D01*
X026093Y027530D01*
X026266Y027602D01*
X026398Y027734D01*
X026470Y027907D01*
X026470Y028093D01*
X026398Y028266D01*
X026303Y028362D01*
X026697Y028362D01*
X026602Y028266D01*
X026530Y028093D01*
X026530Y027907D01*
X026602Y027734D01*
X026734Y027602D01*
X026907Y027530D01*
X027093Y027530D01*
X027266Y027602D01*
X027398Y027734D01*
X027470Y027907D01*
X027470Y028093D01*
X027398Y028266D01*
X027303Y028362D01*
X027697Y028362D01*
X027602Y028266D01*
X027530Y028093D01*
X027530Y027907D01*
X027602Y027734D01*
X027734Y027602D01*
X027907Y027530D01*
X028093Y027530D01*
X028266Y027602D01*
X028398Y027734D01*
X028470Y027907D01*
X028470Y028093D01*
X028398Y028266D01*
X028303Y028362D01*
X028697Y028362D01*
X028602Y028266D01*
X028530Y028093D01*
X028530Y027907D01*
X028602Y027734D01*
X028734Y027602D01*
X028907Y027530D01*
X029093Y027530D01*
X029266Y027602D01*
X029398Y027734D01*
X029470Y027907D01*
X029470Y028093D01*
X029398Y028266D01*
X029303Y028362D01*
X029697Y028362D01*
X029602Y028266D01*
X029530Y028093D01*
X029530Y027907D01*
X029602Y027734D01*
X029734Y027602D01*
X029907Y027530D01*
X030093Y027530D01*
X030266Y027602D01*
X030398Y027734D01*
X030470Y027907D01*
X030470Y028093D01*
X030398Y028266D01*
X030303Y028362D01*
X030697Y028362D01*
X030602Y028266D01*
X030530Y028093D01*
X030530Y027907D01*
X030602Y027734D01*
X030734Y027602D01*
X030907Y027530D01*
X031093Y027530D01*
X031266Y027602D01*
X031398Y027734D01*
X031470Y027907D01*
X031470Y028093D01*
X031398Y028266D01*
X031303Y028362D01*
X031697Y028362D01*
X031602Y028266D01*
X031530Y028093D01*
X031530Y027907D01*
X031602Y027734D01*
X031734Y027602D01*
X031907Y027530D01*
X032093Y027530D01*
X032266Y027602D01*
X032398Y027734D01*
X032470Y027907D01*
X032470Y028093D01*
X032398Y028266D01*
X032303Y028362D01*
X032670Y028362D01*
X032627Y028318D01*
X032582Y028256D01*
X032547Y028188D01*
X032523Y028114D01*
X032512Y028040D01*
X032960Y028040D01*
X032960Y027960D01*
X032512Y027960D01*
X032520Y027905D02*
X032469Y027905D01*
X032437Y027826D02*
X032543Y027826D01*
X032580Y027748D02*
X032404Y027748D01*
X032334Y027669D02*
X032640Y027669D01*
X032732Y027591D02*
X032240Y027591D01*
X031760Y027591D02*
X031240Y027591D01*
X031334Y027669D02*
X031666Y027669D01*
X031596Y027748D02*
X031404Y027748D01*
X031437Y027826D02*
X031563Y027826D01*
X031531Y027905D02*
X031469Y027905D01*
X031470Y027983D02*
X031530Y027983D01*
X031530Y028062D02*
X031470Y028062D01*
X031451Y028140D02*
X031549Y028140D01*
X031582Y028219D02*
X031418Y028219D01*
X031368Y028297D02*
X031632Y028297D01*
X032368Y028297D02*
X032612Y028297D01*
X032563Y028219D02*
X032418Y028219D01*
X032451Y028140D02*
X032532Y028140D01*
X032515Y028062D02*
X032470Y028062D01*
X032960Y027960D02*
X032960Y027512D01*
X032957Y027512D02*
X022638Y027512D01*
X022638Y027434D02*
X033362Y027434D01*
X033362Y027512D02*
X033043Y027512D01*
X033040Y027512D02*
X033040Y027960D01*
X032960Y027960D01*
X032960Y027905D02*
X033040Y027905D01*
X033040Y027826D02*
X032960Y027826D01*
X032960Y027748D02*
X033040Y027748D01*
X033040Y027669D02*
X032960Y027669D01*
X032960Y027591D02*
X033040Y027591D01*
X033268Y027591D02*
X033362Y027591D01*
X033360Y027669D02*
X033362Y027669D01*
X033362Y027355D02*
X022638Y027355D01*
X022638Y027277D02*
X033362Y027277D01*
X033362Y027198D02*
X022638Y027198D01*
X022638Y027120D02*
X033362Y027120D01*
X033362Y027041D02*
X022638Y027041D01*
X022638Y026963D02*
X033362Y026963D01*
X033362Y026884D02*
X022638Y026884D01*
X022638Y026806D02*
X033362Y026806D01*
X033362Y026727D02*
X022638Y026727D01*
X022638Y026649D02*
X033362Y026649D01*
X033362Y026570D02*
X022638Y026570D01*
X022638Y026492D02*
X033362Y026492D01*
X033362Y026413D02*
X022638Y026413D01*
X022638Y026335D02*
X033362Y026335D01*
X033362Y026256D02*
X022638Y026256D01*
X022638Y026178D02*
X033362Y026178D01*
X033362Y026099D02*
X022638Y026099D01*
X022638Y026021D02*
X033362Y026021D01*
X033362Y025942D02*
X022638Y025942D01*
X022638Y025864D02*
X033362Y025864D01*
X033362Y025785D02*
X022638Y025785D01*
X022638Y025707D02*
X033362Y025707D01*
X033362Y025628D02*
X022638Y025628D01*
X022638Y025550D02*
X033362Y025550D01*
X033362Y025471D02*
X022638Y025471D01*
X022638Y025393D02*
X033362Y025393D01*
X033362Y025314D02*
X022638Y025314D01*
X022638Y025236D02*
X033362Y025236D01*
X033362Y025157D02*
X022638Y025157D01*
X023470Y027591D02*
X023760Y027591D01*
X023666Y027669D02*
X023470Y027669D01*
X023470Y027748D02*
X023596Y027748D01*
X023563Y027826D02*
X023470Y027826D01*
X023470Y027905D02*
X023531Y027905D01*
X023530Y027983D02*
X023470Y027983D01*
X023470Y028062D02*
X023530Y028062D01*
X023549Y028140D02*
X023470Y028140D01*
X023470Y028219D02*
X023582Y028219D01*
X023632Y028297D02*
X023470Y028297D01*
X024368Y028297D02*
X024632Y028297D01*
X024582Y028219D02*
X024418Y028219D01*
X024451Y028140D02*
X024549Y028140D01*
X024530Y028062D02*
X024470Y028062D01*
X024470Y027983D02*
X024530Y027983D01*
X024531Y027905D02*
X024469Y027905D01*
X024437Y027826D02*
X024563Y027826D01*
X024596Y027748D02*
X024404Y027748D01*
X024334Y027669D02*
X024666Y027669D01*
X024760Y027591D02*
X024240Y027591D01*
X025240Y027591D02*
X025760Y027591D01*
X025666Y027669D02*
X025334Y027669D01*
X025404Y027748D02*
X025596Y027748D01*
X025563Y027826D02*
X025437Y027826D01*
X025469Y027905D02*
X025531Y027905D01*
X025530Y027983D02*
X025470Y027983D01*
X025470Y028062D02*
X025530Y028062D01*
X025549Y028140D02*
X025451Y028140D01*
X025418Y028219D02*
X025582Y028219D01*
X025632Y028297D02*
X025368Y028297D01*
X026368Y028297D02*
X026632Y028297D01*
X026582Y028219D02*
X026418Y028219D01*
X026451Y028140D02*
X026549Y028140D01*
X026530Y028062D02*
X026470Y028062D01*
X026470Y027983D02*
X026530Y027983D01*
X026531Y027905D02*
X026469Y027905D01*
X026437Y027826D02*
X026563Y027826D01*
X026596Y027748D02*
X026404Y027748D01*
X026334Y027669D02*
X026666Y027669D01*
X026760Y027591D02*
X026240Y027591D01*
X027240Y027591D02*
X027760Y027591D01*
X027666Y027669D02*
X027334Y027669D01*
X027404Y027748D02*
X027596Y027748D01*
X027563Y027826D02*
X027437Y027826D01*
X027469Y027905D02*
X027531Y027905D01*
X027530Y027983D02*
X027470Y027983D01*
X027470Y028062D02*
X027530Y028062D01*
X027549Y028140D02*
X027451Y028140D01*
X027418Y028219D02*
X027582Y028219D01*
X027632Y028297D02*
X027368Y028297D01*
X028368Y028297D02*
X028632Y028297D01*
X028582Y028219D02*
X028418Y028219D01*
X028451Y028140D02*
X028549Y028140D01*
X028530Y028062D02*
X028470Y028062D01*
X028470Y027983D02*
X028530Y027983D01*
X028531Y027905D02*
X028469Y027905D01*
X028437Y027826D02*
X028563Y027826D01*
X028596Y027748D02*
X028404Y027748D01*
X028334Y027669D02*
X028666Y027669D01*
X028760Y027591D02*
X028240Y027591D01*
X029240Y027591D02*
X029760Y027591D01*
X029666Y027669D02*
X029334Y027669D01*
X029404Y027748D02*
X029596Y027748D01*
X029563Y027826D02*
X029437Y027826D01*
X029469Y027905D02*
X029531Y027905D01*
X029530Y027983D02*
X029470Y027983D01*
X029470Y028062D02*
X029530Y028062D01*
X029549Y028140D02*
X029451Y028140D01*
X029418Y028219D02*
X029582Y028219D01*
X029632Y028297D02*
X029368Y028297D01*
X030368Y028297D02*
X030632Y028297D01*
X030582Y028219D02*
X030418Y028219D01*
X030451Y028140D02*
X030549Y028140D01*
X030530Y028062D02*
X030470Y028062D01*
X030470Y027983D02*
X030530Y027983D01*
X030531Y027905D02*
X030469Y027905D01*
X030437Y027826D02*
X030563Y027826D01*
X030596Y027748D02*
X030404Y027748D01*
X030334Y027669D02*
X030666Y027669D01*
X030760Y027591D02*
X030240Y027591D01*
D14*
X028500Y026000D03*
X027500Y026000D03*
X026500Y026000D03*
X025500Y026000D03*
X024500Y026000D03*
X032500Y026000D03*
M02*
