G75*
%MOIN*%
%OFA0B0*%
%FSLAX24Y24*%
%IPPOS*%
%LPD*%
%AMOC8*
5,1,8,0,0,1.08239X$1,22.5*
%
%ADD10C,0.0000*%
%ADD11C,0.0030*%
%ADD12C,0.0050*%
%ADD13R,0.0750X0.0100*%
D10*
X022500Y025000D02*
X022500Y028500D01*
X033500Y028500D01*
X033500Y025000D01*
X022500Y025000D01*
D11*
X023176Y025105D02*
X023272Y025202D01*
X023369Y025105D01*
X023369Y025395D01*
X023470Y025395D02*
X023470Y025105D01*
X023664Y025105D01*
X023765Y025105D02*
X023765Y025298D01*
X023862Y025395D01*
X023958Y025298D01*
X023958Y025105D01*
X024060Y025105D02*
X024060Y025395D01*
X024253Y025105D01*
X024253Y025395D01*
X024573Y025395D02*
X024573Y025153D01*
X024621Y025105D01*
X024718Y025105D01*
X024767Y025153D01*
X024767Y025395D01*
X024868Y025347D02*
X024868Y025298D01*
X024916Y025250D01*
X025013Y025250D01*
X025061Y025202D01*
X025061Y025153D01*
X025013Y025105D01*
X024916Y025105D01*
X024868Y025153D01*
X024868Y025347D02*
X024916Y025395D01*
X025013Y025395D01*
X025061Y025347D01*
X025162Y025395D02*
X025307Y025395D01*
X025356Y025347D01*
X025356Y025298D01*
X025307Y025250D01*
X025162Y025250D01*
X025162Y025105D02*
X025307Y025105D01*
X025356Y025153D01*
X025356Y025202D01*
X025307Y025250D01*
X025426Y025105D02*
X025619Y025105D01*
X025720Y025105D02*
X025720Y025298D01*
X025817Y025395D01*
X025914Y025298D01*
X025914Y025105D01*
X026015Y025105D02*
X026015Y025395D01*
X026208Y025105D01*
X026208Y025395D01*
X026310Y025298D02*
X026406Y025395D01*
X026406Y025105D01*
X026310Y025105D02*
X026503Y025105D01*
X026868Y025105D02*
X027061Y025298D01*
X027061Y025347D01*
X027013Y025395D01*
X026916Y025395D01*
X026868Y025347D01*
X026868Y025105D02*
X027061Y025105D01*
X027365Y025726D02*
X027365Y025871D01*
X027413Y025919D01*
X027607Y025919D01*
X027655Y025871D01*
X027655Y025726D01*
X027365Y025726D01*
X027510Y026020D02*
X027510Y026214D01*
X027655Y026165D02*
X027365Y026165D01*
X027510Y026020D01*
X027558Y026376D02*
X027558Y026521D01*
X027510Y026569D01*
X027413Y026569D01*
X027365Y026521D01*
X027365Y026376D01*
X027655Y026376D01*
X027558Y026472D02*
X027655Y026569D01*
X027510Y026670D02*
X027510Y026864D01*
X027655Y026815D02*
X027365Y026815D01*
X027510Y026670D01*
X028365Y026670D02*
X028510Y026670D01*
X028462Y026767D01*
X028462Y026815D01*
X028510Y026864D01*
X028607Y026864D01*
X028655Y026815D01*
X028655Y026719D01*
X028607Y026670D01*
X028655Y026569D02*
X028558Y026472D01*
X028558Y026521D02*
X028558Y026376D01*
X028655Y026376D02*
X028365Y026376D01*
X028365Y026521D01*
X028413Y026569D01*
X028510Y026569D01*
X028558Y026521D01*
X028365Y026670D02*
X028365Y026864D01*
X028365Y026214D02*
X028365Y026020D01*
X028510Y026020D01*
X028462Y026117D01*
X028462Y026165D01*
X028510Y026214D01*
X028607Y026214D01*
X028655Y026165D01*
X028655Y026069D01*
X028607Y026020D01*
X028607Y025919D02*
X028413Y025919D01*
X028365Y025871D01*
X028365Y025726D01*
X028655Y025726D01*
X028655Y025871D01*
X028607Y025919D01*
X029013Y025395D02*
X028868Y025250D01*
X029061Y025250D01*
X029013Y025105D02*
X029013Y025395D01*
X029365Y025726D02*
X029365Y025871D01*
X029413Y025919D01*
X029607Y025919D01*
X029655Y025871D01*
X029655Y025726D01*
X029365Y025726D01*
X029510Y026020D02*
X029510Y026165D01*
X029558Y026214D01*
X029607Y026214D01*
X029655Y026165D01*
X029655Y026069D01*
X029607Y026020D01*
X029510Y026020D01*
X029413Y026117D01*
X029365Y026214D01*
X029365Y026376D02*
X029365Y026521D01*
X029413Y026569D01*
X029510Y026569D01*
X029558Y026521D01*
X029558Y026376D01*
X029558Y026472D02*
X029655Y026569D01*
X029607Y026670D02*
X029655Y026719D01*
X029655Y026815D01*
X029607Y026864D01*
X029558Y026864D01*
X029510Y026815D01*
X029510Y026670D01*
X029607Y026670D01*
X029510Y026670D02*
X029413Y026767D01*
X029365Y026864D01*
X029365Y026376D02*
X029655Y026376D01*
X030365Y026376D02*
X030365Y026521D01*
X030413Y026569D01*
X030510Y026569D01*
X030558Y026521D01*
X030558Y026376D01*
X030558Y026472D02*
X030655Y026569D01*
X030655Y026670D02*
X030607Y026670D01*
X030413Y026864D01*
X030365Y026864D01*
X030365Y026670D01*
X030365Y026376D02*
X030655Y026376D01*
X030413Y026214D02*
X030607Y026020D01*
X030655Y026020D01*
X030607Y025919D02*
X030413Y025919D01*
X030365Y025871D01*
X030365Y025726D01*
X030655Y025726D01*
X030655Y025871D01*
X030607Y025919D01*
X030365Y026020D02*
X030365Y026214D01*
X030413Y026214D01*
X031415Y026165D02*
X031415Y026069D01*
X031463Y026020D01*
X031512Y026020D01*
X031560Y026069D01*
X031560Y026165D01*
X031608Y026214D01*
X031657Y026214D01*
X031705Y026165D01*
X031705Y026069D01*
X031657Y026020D01*
X031608Y026020D01*
X031560Y026069D01*
X031560Y026165D02*
X031512Y026214D01*
X031463Y026214D01*
X031415Y026165D01*
X031415Y026376D02*
X031415Y026521D01*
X031463Y026569D01*
X031560Y026569D01*
X031608Y026521D01*
X031608Y026376D01*
X031608Y026472D02*
X031705Y026569D01*
X031657Y026670D02*
X031608Y026670D01*
X031560Y026719D01*
X031560Y026815D01*
X031608Y026864D01*
X031657Y026864D01*
X031705Y026815D01*
X031705Y026719D01*
X031657Y026670D01*
X031560Y026719D02*
X031512Y026670D01*
X031463Y026670D01*
X031415Y026719D01*
X031415Y026815D01*
X031463Y026864D01*
X031512Y026864D01*
X031560Y026815D01*
X031705Y026376D02*
X031415Y026376D01*
X031463Y025919D02*
X031415Y025871D01*
X031415Y025726D01*
X031705Y025726D01*
X031705Y025871D01*
X031657Y025919D01*
X031463Y025919D01*
X031573Y025395D02*
X031573Y025105D01*
X031670Y025202D01*
X031767Y025105D01*
X031767Y025395D01*
X031868Y025395D02*
X032013Y025395D01*
X032061Y025347D01*
X032061Y025250D01*
X032013Y025202D01*
X031868Y025202D01*
X031868Y025105D02*
X031868Y025395D01*
X032162Y025347D02*
X032162Y025298D01*
X032211Y025250D01*
X032307Y025250D01*
X032356Y025202D01*
X032356Y025153D01*
X032307Y025105D01*
X032211Y025105D01*
X032162Y025153D01*
X032162Y025347D02*
X032211Y025395D01*
X032307Y025395D01*
X032356Y025347D01*
X032415Y025726D02*
X032415Y025871D01*
X032463Y025919D01*
X032657Y025919D01*
X032705Y025871D01*
X032705Y025726D01*
X032415Y025726D01*
X032463Y026020D02*
X032512Y026020D01*
X032560Y026069D01*
X032560Y026214D01*
X032657Y026214D02*
X032463Y026214D01*
X032415Y026165D01*
X032415Y026069D01*
X032463Y026020D01*
X032657Y026020D02*
X032705Y026069D01*
X032705Y026165D01*
X032657Y026214D01*
X032705Y026376D02*
X032415Y026376D01*
X032415Y026521D01*
X032463Y026569D01*
X032560Y026569D01*
X032608Y026521D01*
X032608Y026376D01*
X032608Y026472D02*
X032705Y026569D01*
X032657Y026670D02*
X032705Y026719D01*
X032705Y026815D01*
X032657Y026864D01*
X032463Y026864D01*
X032415Y026815D01*
X032415Y026719D01*
X032463Y026670D01*
X032512Y026670D01*
X032560Y026719D01*
X032560Y026864D01*
X031307Y025395D02*
X031211Y025395D01*
X031162Y025347D01*
X031162Y025298D01*
X031211Y025250D01*
X031307Y025250D01*
X031356Y025202D01*
X031356Y025153D01*
X031307Y025105D01*
X031211Y025105D01*
X031162Y025153D01*
X030964Y025105D02*
X030964Y025250D01*
X031061Y025347D01*
X031061Y025395D01*
X030964Y025250D02*
X030868Y025347D01*
X030868Y025395D01*
X030767Y025347D02*
X030718Y025395D01*
X030621Y025395D01*
X030573Y025347D01*
X030573Y025298D01*
X030621Y025250D01*
X030718Y025250D01*
X030767Y025202D01*
X030767Y025153D01*
X030718Y025105D01*
X030621Y025105D01*
X030573Y025153D01*
X030356Y025105D02*
X030356Y025395D01*
X030162Y025395D02*
X030356Y025105D01*
X030162Y025105D02*
X030162Y025395D01*
X030061Y025298D02*
X030061Y025105D01*
X030061Y025250D02*
X029868Y025250D01*
X029868Y025298D02*
X029964Y025395D01*
X030061Y025298D01*
X029868Y025298D02*
X029868Y025105D01*
X029767Y025105D02*
X029767Y025395D01*
X029573Y025395D02*
X029573Y025105D01*
X029670Y025202D01*
X029767Y025105D01*
X031307Y025395D02*
X031356Y025347D01*
X028061Y025347D02*
X028061Y025298D01*
X028013Y025250D01*
X028061Y025202D01*
X028061Y025153D01*
X028013Y025105D01*
X027916Y025105D01*
X027868Y025153D01*
X027964Y025250D02*
X028013Y025250D01*
X028061Y025347D02*
X028013Y025395D01*
X027916Y025395D01*
X027868Y025347D01*
X026655Y025726D02*
X026655Y025871D01*
X026607Y025919D01*
X026413Y025919D01*
X026365Y025871D01*
X026365Y025726D01*
X026655Y025726D01*
X026607Y026020D02*
X026655Y026069D01*
X026655Y026165D01*
X026607Y026214D01*
X026558Y026214D01*
X026510Y026165D01*
X026510Y026117D01*
X026510Y026165D02*
X026462Y026214D01*
X026413Y026214D01*
X026365Y026165D01*
X026365Y026069D01*
X026413Y026020D01*
X026365Y026376D02*
X026365Y026521D01*
X026413Y026569D01*
X026510Y026569D01*
X026558Y026521D01*
X026558Y026376D01*
X026558Y026472D02*
X026655Y026569D01*
X026607Y026670D02*
X026655Y026719D01*
X026655Y026815D01*
X026607Y026864D01*
X026558Y026864D01*
X026510Y026815D01*
X026510Y026767D01*
X026510Y026815D02*
X026462Y026864D01*
X026413Y026864D01*
X026365Y026815D01*
X026365Y026719D01*
X026413Y026670D01*
X026365Y026376D02*
X026655Y026376D01*
X025655Y026376D02*
X025365Y026376D01*
X025365Y026521D01*
X025413Y026569D01*
X025510Y026569D01*
X025558Y026521D01*
X025558Y026376D01*
X025558Y026472D02*
X025655Y026569D01*
X025655Y026670D02*
X025462Y026864D01*
X025413Y026864D01*
X025365Y026815D01*
X025365Y026719D01*
X025413Y026670D01*
X025655Y026670D02*
X025655Y026864D01*
X025655Y026214D02*
X025655Y026020D01*
X025462Y026214D01*
X025413Y026214D01*
X025365Y026165D01*
X025365Y026069D01*
X025413Y026020D01*
X025413Y025919D02*
X025365Y025871D01*
X025365Y025726D01*
X025655Y025726D01*
X025655Y025871D01*
X025607Y025919D01*
X025413Y025919D01*
X025426Y025395D02*
X025426Y025105D01*
X025162Y025105D02*
X025162Y025395D01*
X025720Y025250D02*
X025914Y025250D01*
X024655Y025726D02*
X024655Y025871D01*
X024607Y025919D01*
X024413Y025919D01*
X024365Y025871D01*
X024365Y025726D01*
X024655Y025726D01*
X024655Y026020D02*
X024655Y026214D01*
X024655Y026117D02*
X024365Y026117D01*
X024462Y026020D01*
X024558Y026376D02*
X024558Y026521D01*
X024510Y026569D01*
X024413Y026569D01*
X024365Y026521D01*
X024365Y026376D01*
X024655Y026376D01*
X024558Y026472D02*
X024655Y026569D01*
X024655Y026670D02*
X024655Y026864D01*
X024655Y026767D02*
X024365Y026767D01*
X024462Y026670D01*
X023958Y025250D02*
X023765Y025250D01*
X023176Y025395D02*
X023176Y025105D01*
D12*
X023650Y025700D02*
X024350Y025700D01*
X024350Y026310D01*
X024350Y026390D01*
X024350Y027000D01*
X023650Y027000D01*
X023650Y026390D01*
X023650Y026310D01*
X023650Y025700D01*
X024650Y025700D02*
X024650Y026310D01*
X024650Y026390D01*
X024650Y027000D01*
X025350Y027000D01*
X025350Y026390D01*
X025350Y026310D01*
X025350Y025700D01*
X024650Y025700D01*
X025650Y025700D02*
X026350Y025700D01*
X026350Y026310D01*
X026350Y026390D01*
X026350Y027000D01*
X025650Y027000D01*
X025650Y026390D01*
X025650Y026310D01*
X025650Y025700D01*
X026650Y025700D02*
X026650Y026310D01*
X026650Y026390D01*
X026650Y027000D01*
X027350Y027000D01*
X027350Y026390D01*
X027350Y026310D01*
X027350Y025700D01*
X026650Y025700D01*
X027650Y025700D02*
X027650Y026310D01*
X027650Y026390D01*
X027650Y027000D01*
X028350Y027000D01*
X028350Y026390D01*
X028350Y026310D01*
X028350Y025700D01*
X027650Y025700D01*
X028650Y025700D02*
X029350Y025700D01*
X029350Y026310D01*
X029350Y026390D01*
X029350Y027000D01*
X028650Y027000D01*
X028650Y026390D01*
X028650Y026310D01*
X028650Y025700D01*
X029650Y025700D02*
X029650Y026310D01*
X029650Y026390D01*
X029650Y027000D01*
X030350Y027000D01*
X030350Y026390D01*
X030350Y026310D01*
X030350Y025700D01*
X029650Y025700D01*
X030700Y025700D02*
X030700Y026310D01*
X030700Y026390D01*
X030700Y027000D01*
X031400Y027000D01*
X031400Y026390D01*
X031400Y026310D01*
X031400Y025700D01*
X030700Y025700D01*
X031650Y025700D02*
X032350Y025700D01*
X032350Y026310D01*
X032350Y026390D01*
X032350Y027000D01*
X031650Y027000D01*
X031650Y026390D01*
X031650Y026310D01*
X031650Y025700D01*
X031500Y027000D02*
X030500Y027000D01*
X030500Y027500D01*
X031500Y027500D01*
X031500Y027000D01*
X032500Y027000D01*
X032500Y027500D01*
X031500Y027500D01*
X031500Y027000D01*
X030500Y027000D02*
X029500Y027000D01*
X028500Y027000D01*
X028500Y027500D01*
X029500Y027500D01*
X029500Y027000D01*
X029500Y027500D01*
X030500Y027500D01*
X030500Y027000D01*
X028500Y027000D02*
X027500Y027000D01*
X027500Y027500D01*
X028500Y027500D01*
X028500Y027000D01*
X027500Y027000D02*
X027500Y027500D01*
X026500Y027500D01*
X026500Y027000D01*
X027500Y027000D01*
X026500Y027000D02*
X026500Y027500D01*
X025500Y027500D01*
X025500Y027000D01*
X026500Y027000D01*
X025500Y027000D02*
X024500Y027000D01*
X024500Y027500D01*
X025500Y027500D01*
X025500Y027000D01*
X024500Y027000D02*
X024500Y027500D01*
X023500Y027500D01*
X023500Y027000D01*
X024500Y027000D01*
D13*
X024000Y025650D03*
X025000Y025650D03*
X026000Y025650D03*
X027000Y025650D03*
X028000Y025650D03*
X029000Y025650D03*
X030000Y027050D03*
X031050Y027050D03*
X032000Y027050D03*
M02*
