%
M48
M72
T01C0.0118
T02C0.0354
T03C0.0394
T04C0.0400
T05C0.0402
T06C0.0591
T07C0.1260
T08C0.1280
%
T01
X30000Y31500
X29500Y32000
X30000Y32500
X30500Y32000
X31000Y32500
X31000Y33000
X31000Y33500
X30500Y34000
X30500Y33000
X29500Y34000
X28000Y33000
X26500Y33000
X26000Y33500
X26500Y34000
X25000Y33500
X25000Y33000
X25000Y32500
X24500Y34000
X25000Y34500
X24000Y35500
X23500Y36000
X23000Y35500
X25500Y36000
X26000Y35500
X27000Y35500
X27500Y36000
X28500Y36000
X29000Y35500
X30000Y35500
X30500Y36000
X33000Y35500
X32500Y33000
X34000Y33000
X34000Y32500
X35000Y33500
X35500Y33000
X23500Y33000
X23000Y32500
X23000Y33500
T02
X24000Y31500
X25000Y31500
X26000Y31500
X27000Y31500
X28000Y31500
X27500Y30500
X26500Y30500
X25500Y30500
X24500Y30500
X28500Y30500
X31500Y31500
X32500Y31500
X33500Y31500
X34500Y31500
X35500Y31500
X35000Y30500
X34000Y30500
X33000Y30500
X32000Y30500
X36000Y30500
T03
X36000Y34500
X37000Y34500
X37000Y35500
X36000Y35500
X35000Y35500
X34000Y35500
X34000Y34500
X35000Y34500
X31000Y34500
X30000Y34500
X29000Y34500
X28000Y34500
T04
X28000Y36500
X29000Y36500
X30000Y36500
X31000Y36500
X32000Y36500
X27000Y36500
X26000Y36500
X25000Y36500
X24000Y36500
X23000Y36500
T05
X23636Y26071
X24636Y26669
X27864Y26071
X28864Y26669
X31136Y26071
X32136Y26669
X35364Y26071
X36364Y26669
T06
X36801Y29201
X30699Y29201
X29301Y29201
X23199Y29201
T07
X23500Y34750
T08
X24000Y28000
X28500Y28000
X31500Y28000
X36000Y28000
M30
