G75*
%MOIN*%
%OFA0B0*%
%FSLAX24Y24*%
%IPPOS*%
%LPD*%
%AMOC8*
5,1,8,0,0,1.08239X$1,22.5*
%
%ADD10C,0.0000*%
%ADD11R,0.0200X0.0200*%
%ADD12C,0.0500*%
%ADD13R,0.0680X0.0680*%
%ADD14R,0.0350X0.0250*%
%ADD15R,0.0394X0.0531*%
D10*
X022500Y025000D02*
X022500Y029000D01*
X032500Y029000D01*
X032500Y025000D01*
X022500Y025000D01*
D11*
X023000Y026350D03*
X023000Y026650D03*
X024000Y026650D03*
X024000Y026350D03*
X026000Y026350D03*
X026000Y026650D03*
X027000Y026650D03*
X027000Y026350D03*
X030000Y028450D03*
X030000Y028750D03*
X030500Y028550D03*
X030500Y028250D03*
X030500Y027750D03*
X030500Y027450D03*
D12*
X026911Y027500D02*
X026913Y027519D01*
X026919Y027536D01*
X026928Y027552D01*
X026940Y027566D01*
X026955Y027577D01*
X026972Y027585D01*
X026991Y027589D01*
X027009Y027589D01*
X027028Y027585D01*
X027044Y027577D01*
X027060Y027566D01*
X027072Y027552D01*
X027081Y027536D01*
X027087Y027519D01*
X027089Y027500D01*
X027087Y027481D01*
X027081Y027464D01*
X027072Y027448D01*
X027060Y027434D01*
X027045Y027423D01*
X027028Y027415D01*
X027009Y027411D01*
X026991Y027411D01*
X026972Y027415D01*
X026956Y027423D01*
X026940Y027434D01*
X026928Y027448D01*
X026919Y027464D01*
X026913Y027481D01*
X026911Y027500D01*
X025911Y027500D02*
X025913Y027519D01*
X025919Y027536D01*
X025928Y027552D01*
X025940Y027566D01*
X025955Y027577D01*
X025972Y027585D01*
X025991Y027589D01*
X026009Y027589D01*
X026028Y027585D01*
X026044Y027577D01*
X026060Y027566D01*
X026072Y027552D01*
X026081Y027536D01*
X026087Y027519D01*
X026089Y027500D01*
X026087Y027481D01*
X026081Y027464D01*
X026072Y027448D01*
X026060Y027434D01*
X026045Y027423D01*
X026028Y027415D01*
X026009Y027411D01*
X025991Y027411D01*
X025972Y027415D01*
X025956Y027423D01*
X025940Y027434D01*
X025928Y027448D01*
X025919Y027464D01*
X025913Y027481D01*
X025911Y027500D01*
X024911Y027500D02*
X024913Y027519D01*
X024919Y027536D01*
X024928Y027552D01*
X024940Y027566D01*
X024955Y027577D01*
X024972Y027585D01*
X024991Y027589D01*
X025009Y027589D01*
X025028Y027585D01*
X025044Y027577D01*
X025060Y027566D01*
X025072Y027552D01*
X025081Y027536D01*
X025087Y027519D01*
X025089Y027500D01*
X025087Y027481D01*
X025081Y027464D01*
X025072Y027448D01*
X025060Y027434D01*
X025045Y027423D01*
X025028Y027415D01*
X025009Y027411D01*
X024991Y027411D01*
X024972Y027415D01*
X024956Y027423D01*
X024940Y027434D01*
X024928Y027448D01*
X024919Y027464D01*
X024913Y027481D01*
X024911Y027500D01*
X023911Y027500D02*
X023913Y027519D01*
X023919Y027536D01*
X023928Y027552D01*
X023940Y027566D01*
X023955Y027577D01*
X023972Y027585D01*
X023991Y027589D01*
X024009Y027589D01*
X024028Y027585D01*
X024044Y027577D01*
X024060Y027566D01*
X024072Y027552D01*
X024081Y027536D01*
X024087Y027519D01*
X024089Y027500D01*
X024087Y027481D01*
X024081Y027464D01*
X024072Y027448D01*
X024060Y027434D01*
X024045Y027423D01*
X024028Y027415D01*
X024009Y027411D01*
X023991Y027411D01*
X023972Y027415D01*
X023956Y027423D01*
X023940Y027434D01*
X023928Y027448D01*
X023919Y027464D01*
X023913Y027481D01*
X023911Y027500D01*
X023911Y028500D02*
X023913Y028519D01*
X023919Y028536D01*
X023928Y028552D01*
X023940Y028566D01*
X023955Y028577D01*
X023972Y028585D01*
X023991Y028589D01*
X024009Y028589D01*
X024028Y028585D01*
X024044Y028577D01*
X024060Y028566D01*
X024072Y028552D01*
X024081Y028536D01*
X024087Y028519D01*
X024089Y028500D01*
X024087Y028481D01*
X024081Y028464D01*
X024072Y028448D01*
X024060Y028434D01*
X024045Y028423D01*
X024028Y028415D01*
X024009Y028411D01*
X023991Y028411D01*
X023972Y028415D01*
X023956Y028423D01*
X023940Y028434D01*
X023928Y028448D01*
X023919Y028464D01*
X023913Y028481D01*
X023911Y028500D01*
X022911Y028500D02*
X022913Y028519D01*
X022919Y028536D01*
X022928Y028552D01*
X022940Y028566D01*
X022955Y028577D01*
X022972Y028585D01*
X022991Y028589D01*
X023009Y028589D01*
X023028Y028585D01*
X023044Y028577D01*
X023060Y028566D01*
X023072Y028552D01*
X023081Y028536D01*
X023087Y028519D01*
X023089Y028500D01*
X023087Y028481D01*
X023081Y028464D01*
X023072Y028448D01*
X023060Y028434D01*
X023045Y028423D01*
X023028Y028415D01*
X023009Y028411D01*
X022991Y028411D01*
X022972Y028415D01*
X022956Y028423D01*
X022940Y028434D01*
X022928Y028448D01*
X022919Y028464D01*
X022913Y028481D01*
X022911Y028500D01*
X024911Y028500D02*
X024913Y028519D01*
X024919Y028536D01*
X024928Y028552D01*
X024940Y028566D01*
X024955Y028577D01*
X024972Y028585D01*
X024991Y028589D01*
X025009Y028589D01*
X025028Y028585D01*
X025044Y028577D01*
X025060Y028566D01*
X025072Y028552D01*
X025081Y028536D01*
X025087Y028519D01*
X025089Y028500D01*
X025087Y028481D01*
X025081Y028464D01*
X025072Y028448D01*
X025060Y028434D01*
X025045Y028423D01*
X025028Y028415D01*
X025009Y028411D01*
X024991Y028411D01*
X024972Y028415D01*
X024956Y028423D01*
X024940Y028434D01*
X024928Y028448D01*
X024919Y028464D01*
X024913Y028481D01*
X024911Y028500D01*
X025911Y028500D02*
X025913Y028519D01*
X025919Y028536D01*
X025928Y028552D01*
X025940Y028566D01*
X025955Y028577D01*
X025972Y028585D01*
X025991Y028589D01*
X026009Y028589D01*
X026028Y028585D01*
X026044Y028577D01*
X026060Y028566D01*
X026072Y028552D01*
X026081Y028536D01*
X026087Y028519D01*
X026089Y028500D01*
X026087Y028481D01*
X026081Y028464D01*
X026072Y028448D01*
X026060Y028434D01*
X026045Y028423D01*
X026028Y028415D01*
X026009Y028411D01*
X025991Y028411D01*
X025972Y028415D01*
X025956Y028423D01*
X025940Y028434D01*
X025928Y028448D01*
X025919Y028464D01*
X025913Y028481D01*
X025911Y028500D01*
X026911Y028500D02*
X026913Y028519D01*
X026919Y028536D01*
X026928Y028552D01*
X026940Y028566D01*
X026955Y028577D01*
X026972Y028585D01*
X026991Y028589D01*
X027009Y028589D01*
X027028Y028585D01*
X027044Y028577D01*
X027060Y028566D01*
X027072Y028552D01*
X027081Y028536D01*
X027087Y028519D01*
X027089Y028500D01*
X027087Y028481D01*
X027081Y028464D01*
X027072Y028448D01*
X027060Y028434D01*
X027045Y028423D01*
X027028Y028415D01*
X027009Y028411D01*
X026991Y028411D01*
X026972Y028415D01*
X026956Y028423D01*
X026940Y028434D01*
X026928Y028448D01*
X026919Y028464D01*
X026913Y028481D01*
X026911Y028500D01*
D13*
X023000Y027500D03*
D14*
X025000Y026750D03*
X025000Y026250D03*
X028000Y026250D03*
X028000Y026750D03*
X030050Y027450D03*
X030050Y027950D03*
D15*
X031435Y028596D03*
X032065Y028596D03*
X032065Y026884D03*
X031435Y026884D03*
M02*
