G75*
%MOIN*%
%OFA0B0*%
%FSLAX24Y24*%
%IPPOS*%
%LPD*%
%AMOC8*
5,1,8,0,0,1.08239X$1,22.5*
%
%ADD10C,0.0000*%
%ADD11R,0.0425X0.0425*%
%ADD12C,0.0425*%
%ADD13C,0.0709*%
%ADD14C,0.0482*%
%ADD15R,0.0200X0.0200*%
%ADD16R,0.0700X0.0450*%
%ADD17R,0.0472X0.0472*%
%ADD18C,0.0472*%
%ADD19R,0.0740X0.0740*%
%ADD20C,0.0740*%
%ADD21C,0.0100*%
%ADD22C,0.0197*%
%ADD23C,0.0050*%
%ADD24C,0.0180*%
%ADD25C,0.0400*%
D10*
X022500Y025000D02*
X022500Y037000D01*
X028500Y037000D01*
X028500Y036000D01*
X030000Y036000D01*
X030000Y025000D01*
X022500Y025000D01*
X023360Y028000D02*
X023362Y028050D01*
X023368Y028100D01*
X023378Y028149D01*
X023391Y028198D01*
X023409Y028245D01*
X023430Y028291D01*
X023454Y028334D01*
X023482Y028376D01*
X023513Y028416D01*
X023547Y028453D01*
X023584Y028487D01*
X023624Y028518D01*
X023666Y028546D01*
X023709Y028570D01*
X023755Y028591D01*
X023802Y028609D01*
X023851Y028622D01*
X023900Y028632D01*
X023950Y028638D01*
X024000Y028640D01*
X024050Y028638D01*
X024100Y028632D01*
X024149Y028622D01*
X024198Y028609D01*
X024245Y028591D01*
X024291Y028570D01*
X024334Y028546D01*
X024376Y028518D01*
X024416Y028487D01*
X024453Y028453D01*
X024487Y028416D01*
X024518Y028376D01*
X024546Y028334D01*
X024570Y028291D01*
X024591Y028245D01*
X024609Y028198D01*
X024622Y028149D01*
X024632Y028100D01*
X024638Y028050D01*
X024640Y028000D01*
X024638Y027950D01*
X024632Y027900D01*
X024622Y027851D01*
X024609Y027802D01*
X024591Y027755D01*
X024570Y027709D01*
X024546Y027666D01*
X024518Y027624D01*
X024487Y027584D01*
X024453Y027547D01*
X024416Y027513D01*
X024376Y027482D01*
X024334Y027454D01*
X024291Y027430D01*
X024245Y027409D01*
X024198Y027391D01*
X024149Y027378D01*
X024100Y027368D01*
X024050Y027362D01*
X024000Y027360D01*
X023950Y027362D01*
X023900Y027368D01*
X023851Y027378D01*
X023802Y027391D01*
X023755Y027409D01*
X023709Y027430D01*
X023666Y027454D01*
X023624Y027482D01*
X023584Y027513D01*
X023547Y027547D01*
X023513Y027584D01*
X023482Y027624D01*
X023454Y027666D01*
X023430Y027709D01*
X023409Y027755D01*
X023391Y027802D01*
X023378Y027851D01*
X023368Y027900D01*
X023362Y027950D01*
X023360Y028000D01*
X027860Y028000D02*
X027862Y028050D01*
X027868Y028100D01*
X027878Y028149D01*
X027891Y028198D01*
X027909Y028245D01*
X027930Y028291D01*
X027954Y028334D01*
X027982Y028376D01*
X028013Y028416D01*
X028047Y028453D01*
X028084Y028487D01*
X028124Y028518D01*
X028166Y028546D01*
X028209Y028570D01*
X028255Y028591D01*
X028302Y028609D01*
X028351Y028622D01*
X028400Y028632D01*
X028450Y028638D01*
X028500Y028640D01*
X028550Y028638D01*
X028600Y028632D01*
X028649Y028622D01*
X028698Y028609D01*
X028745Y028591D01*
X028791Y028570D01*
X028834Y028546D01*
X028876Y028518D01*
X028916Y028487D01*
X028953Y028453D01*
X028987Y028416D01*
X029018Y028376D01*
X029046Y028334D01*
X029070Y028291D01*
X029091Y028245D01*
X029109Y028198D01*
X029122Y028149D01*
X029132Y028100D01*
X029138Y028050D01*
X029140Y028000D01*
X029138Y027950D01*
X029132Y027900D01*
X029122Y027851D01*
X029109Y027802D01*
X029091Y027755D01*
X029070Y027709D01*
X029046Y027666D01*
X029018Y027624D01*
X028987Y027584D01*
X028953Y027547D01*
X028916Y027513D01*
X028876Y027482D01*
X028834Y027454D01*
X028791Y027430D01*
X028745Y027409D01*
X028698Y027391D01*
X028649Y027378D01*
X028600Y027368D01*
X028550Y027362D01*
X028500Y027360D01*
X028450Y027362D01*
X028400Y027368D01*
X028351Y027378D01*
X028302Y027391D01*
X028255Y027409D01*
X028209Y027430D01*
X028166Y027454D01*
X028124Y027482D01*
X028084Y027513D01*
X028047Y027547D01*
X028013Y027584D01*
X027982Y027624D01*
X027954Y027666D01*
X027930Y027709D01*
X027909Y027755D01*
X027891Y027802D01*
X027878Y027851D01*
X027868Y027900D01*
X027862Y027950D01*
X027860Y028000D01*
X022870Y034750D02*
X022872Y034800D01*
X022878Y034850D01*
X022888Y034899D01*
X022902Y034947D01*
X022919Y034994D01*
X022940Y035039D01*
X022965Y035083D01*
X022993Y035124D01*
X023025Y035163D01*
X023059Y035200D01*
X023096Y035234D01*
X023136Y035264D01*
X023178Y035291D01*
X023222Y035315D01*
X023268Y035336D01*
X023315Y035352D01*
X023363Y035365D01*
X023413Y035374D01*
X023462Y035379D01*
X023513Y035380D01*
X023563Y035377D01*
X023612Y035370D01*
X023661Y035359D01*
X023709Y035344D01*
X023755Y035326D01*
X023800Y035304D01*
X023843Y035278D01*
X023884Y035249D01*
X023923Y035217D01*
X023959Y035182D01*
X023991Y035144D01*
X024021Y035104D01*
X024048Y035061D01*
X024071Y035017D01*
X024090Y034971D01*
X024106Y034923D01*
X024118Y034874D01*
X024126Y034825D01*
X024130Y034775D01*
X024130Y034725D01*
X024126Y034675D01*
X024118Y034626D01*
X024106Y034577D01*
X024090Y034529D01*
X024071Y034483D01*
X024048Y034439D01*
X024021Y034396D01*
X023991Y034356D01*
X023959Y034318D01*
X023923Y034283D01*
X023884Y034251D01*
X023843Y034222D01*
X023800Y034196D01*
X023755Y034174D01*
X023709Y034156D01*
X023661Y034141D01*
X023612Y034130D01*
X023563Y034123D01*
X023513Y034120D01*
X023462Y034121D01*
X023413Y034126D01*
X023363Y034135D01*
X023315Y034148D01*
X023268Y034164D01*
X023222Y034185D01*
X023178Y034209D01*
X023136Y034236D01*
X023096Y034266D01*
X023059Y034300D01*
X023025Y034337D01*
X022993Y034376D01*
X022965Y034417D01*
X022940Y034461D01*
X022919Y034506D01*
X022902Y034553D01*
X022888Y034601D01*
X022878Y034650D01*
X022872Y034700D01*
X022870Y034750D01*
D11*
X024000Y031500D03*
D12*
X025000Y031500D03*
X026000Y031500D03*
X027000Y031500D03*
X028000Y031500D03*
X027500Y030500D03*
X026500Y030500D03*
X025500Y030500D03*
X024500Y030500D03*
X028500Y030500D03*
D13*
X029301Y029201D03*
X023199Y029201D03*
D14*
X024636Y026669D03*
X023636Y026071D03*
X027864Y026071D03*
X028864Y026669D03*
D15*
X027250Y033000D03*
X027250Y033300D03*
X025620Y033000D03*
X025320Y033000D03*
X024800Y033000D03*
X024500Y033000D03*
X024000Y033000D03*
X023700Y033000D03*
D16*
X023000Y031100D03*
X023000Y029900D03*
D17*
X026450Y034550D03*
D18*
X027450Y034550D03*
X028450Y034550D03*
X028450Y035550D03*
X027450Y035550D03*
X026450Y035550D03*
X029450Y035550D03*
X029450Y034550D03*
D19*
X023000Y036500D03*
D20*
X024000Y036500D03*
X025000Y036500D03*
X026000Y036500D03*
X027000Y036500D03*
X028000Y036500D03*
D21*
X027000Y036500D02*
X026730Y036500D01*
X026580Y036350D01*
X026580Y036177D01*
X024330Y033927D01*
X024330Y033170D01*
X024500Y033000D01*
X024330Y032830D01*
X024330Y030670D01*
X024500Y030500D01*
X024000Y031500D02*
X024170Y031670D01*
X024170Y032830D01*
X024000Y033000D01*
X024170Y033170D01*
X024170Y033993D01*
X026420Y036243D01*
X026420Y036300D01*
X026220Y036500D01*
X026000Y036500D01*
X026513Y033047D02*
X026500Y033000D01*
X026513Y032953D01*
X026677Y033000D01*
X026513Y033047D01*
X026500Y033000D02*
X026677Y033000D01*
X027250Y033000D01*
X027823Y033000D01*
X027987Y033047D01*
X028000Y033000D01*
X027987Y032953D01*
X027823Y033000D01*
X028000Y033000D01*
X025000Y033000D02*
X024987Y032953D01*
X024823Y033000D01*
X024987Y033047D01*
X025000Y033000D01*
X024823Y033000D01*
X024800Y033000D01*
X023700Y033000D02*
X023677Y033000D01*
X023513Y032953D01*
X023500Y033000D01*
X023513Y033047D01*
X023677Y033000D01*
X023500Y033000D01*
D22*
X023500Y033000D03*
X023000Y032500D03*
X023000Y033500D03*
X023000Y031500D03*
X025000Y032500D03*
X025000Y033000D03*
X025000Y033500D03*
X026000Y033500D03*
X026500Y033000D03*
X028000Y033000D03*
X027500Y035000D03*
X028000Y035500D03*
X028500Y035000D03*
X029000Y035500D03*
X029500Y035000D03*
X025500Y036000D03*
X025000Y035500D03*
X024000Y035500D03*
X023500Y036000D03*
X023000Y035500D03*
D23*
X023073Y035389D02*
X022861Y035177D01*
X022747Y034900D01*
X022747Y034600D01*
X022861Y034323D01*
X023073Y034111D01*
X023350Y033997D01*
X023650Y033997D01*
X023927Y034111D01*
X024139Y034323D01*
X024253Y034600D01*
X024253Y034900D01*
X024139Y035177D01*
X023927Y035389D01*
X023650Y035503D01*
X023350Y035503D01*
X023073Y035389D01*
X023064Y035379D02*
X022623Y035379D01*
X022623Y035331D02*
X023015Y035331D01*
X022967Y035282D02*
X022623Y035282D01*
X022623Y035234D02*
X022918Y035234D01*
X022870Y035185D02*
X022623Y035185D01*
X022623Y035137D02*
X022845Y035137D01*
X022825Y035088D02*
X022623Y035088D01*
X022623Y035040D02*
X022805Y035040D01*
X022784Y034991D02*
X022623Y034991D01*
X022623Y034943D02*
X022764Y034943D01*
X022747Y034894D02*
X022623Y034894D01*
X022623Y034846D02*
X022747Y034846D01*
X022747Y034797D02*
X022623Y034797D01*
X022623Y034749D02*
X022747Y034749D01*
X022747Y034700D02*
X022623Y034700D01*
X022623Y034652D02*
X022747Y034652D01*
X022747Y034603D02*
X022623Y034603D01*
X022623Y034555D02*
X022766Y034555D01*
X022786Y034506D02*
X022623Y034506D01*
X022623Y034458D02*
X022806Y034458D01*
X022826Y034409D02*
X022623Y034409D01*
X022623Y034361D02*
X022846Y034361D01*
X022873Y034312D02*
X022623Y034312D01*
X022623Y034264D02*
X022921Y034264D01*
X022970Y034215D02*
X022623Y034215D01*
X022623Y034167D02*
X023018Y034167D01*
X023067Y034118D02*
X022623Y034118D01*
X022623Y034070D02*
X023174Y034070D01*
X023291Y034021D02*
X022623Y034021D01*
X022623Y033973D02*
X024035Y033973D01*
X024035Y034021D02*
X023709Y034021D01*
X023826Y034070D02*
X024055Y034070D01*
X024035Y034049D02*
X024035Y033226D01*
X023994Y033185D01*
X023865Y033185D01*
X023850Y033170D01*
X023835Y033185D01*
X023565Y033185D01*
X023563Y033183D01*
X023526Y033183D01*
X023496Y033192D01*
X023481Y033183D01*
X023424Y033183D01*
X023317Y033076D01*
X023317Y032924D01*
X023424Y032817D01*
X023481Y032817D01*
X023496Y032808D01*
X023502Y032810D01*
X023526Y032817D01*
X023563Y032817D01*
X023565Y032815D01*
X023835Y032815D01*
X023850Y032830D01*
X023865Y032815D01*
X023994Y032815D01*
X024035Y032774D01*
X024035Y032047D01*
X023600Y032050D01*
X023600Y030850D01*
X023350Y030850D01*
X022623Y030842D01*
X022623Y036877D01*
X023733Y036877D01*
X023614Y036758D01*
X023545Y036591D01*
X023545Y036409D01*
X023614Y036242D01*
X023742Y036114D01*
X023909Y036045D01*
X024091Y036045D01*
X024258Y036114D01*
X024386Y036242D01*
X024455Y036409D01*
X024455Y036591D01*
X024386Y036758D01*
X024267Y036877D01*
X024733Y036877D01*
X024614Y036758D01*
X024545Y036591D01*
X024545Y036409D01*
X024614Y036242D01*
X024742Y036114D01*
X024909Y036045D01*
X025091Y036045D01*
X025258Y036114D01*
X025386Y036242D01*
X025455Y036409D01*
X025455Y036591D01*
X025386Y036758D01*
X025267Y036877D01*
X025733Y036877D01*
X025614Y036758D01*
X025545Y036591D01*
X025545Y036409D01*
X025614Y036242D01*
X025742Y036114D01*
X025909Y036045D01*
X026031Y036045D01*
X024035Y034049D01*
X024104Y034118D02*
X023933Y034118D01*
X023982Y034167D02*
X024152Y034167D01*
X024201Y034215D02*
X024030Y034215D01*
X024079Y034264D02*
X024249Y034264D01*
X024298Y034312D02*
X024127Y034312D01*
X024154Y034361D02*
X024346Y034361D01*
X024395Y034409D02*
X024174Y034409D01*
X024194Y034458D02*
X024443Y034458D01*
X024492Y034506D02*
X024214Y034506D01*
X024234Y034555D02*
X024540Y034555D01*
X024589Y034603D02*
X024253Y034603D01*
X024253Y034652D02*
X024637Y034652D01*
X024686Y034700D02*
X024253Y034700D01*
X024253Y034749D02*
X024734Y034749D01*
X024783Y034797D02*
X024253Y034797D01*
X024253Y034846D02*
X024831Y034846D01*
X024880Y034894D02*
X024253Y034894D01*
X024236Y034943D02*
X024928Y034943D01*
X024977Y034991D02*
X024216Y034991D01*
X024195Y035040D02*
X025025Y035040D01*
X025074Y035088D02*
X024175Y035088D01*
X024155Y035137D02*
X025122Y035137D01*
X025171Y035185D02*
X024130Y035185D01*
X024082Y035234D02*
X025219Y035234D01*
X025268Y035282D02*
X024033Y035282D01*
X023985Y035331D02*
X025316Y035331D01*
X025365Y035379D02*
X023936Y035379D01*
X023833Y035428D02*
X025413Y035428D01*
X025462Y035476D02*
X023716Y035476D01*
X023284Y035476D02*
X022623Y035476D01*
X022623Y035428D02*
X023167Y035428D01*
X022623Y035525D02*
X025510Y035525D01*
X025559Y035573D02*
X022623Y035573D01*
X022623Y035622D02*
X025608Y035622D01*
X025656Y035670D02*
X022623Y035670D01*
X022623Y035719D02*
X025705Y035719D01*
X025753Y035767D02*
X022623Y035767D01*
X022623Y035816D02*
X025802Y035816D01*
X025850Y035864D02*
X022623Y035864D01*
X022623Y035913D02*
X025899Y035913D01*
X025947Y035961D02*
X022623Y035961D01*
X022623Y036010D02*
X025996Y036010D01*
X025878Y036058D02*
X025122Y036058D01*
X025239Y036107D02*
X025761Y036107D01*
X025701Y036155D02*
X025299Y036155D01*
X025347Y036204D02*
X025653Y036204D01*
X025610Y036252D02*
X025390Y036252D01*
X025410Y036301D02*
X025590Y036301D01*
X025570Y036349D02*
X025430Y036349D01*
X025450Y036398D02*
X025550Y036398D01*
X025545Y036446D02*
X025455Y036446D01*
X025455Y036495D02*
X025545Y036495D01*
X025545Y036543D02*
X025455Y036543D01*
X025455Y036592D02*
X025545Y036592D01*
X025566Y036640D02*
X025434Y036640D01*
X025414Y036689D02*
X025586Y036689D01*
X025606Y036737D02*
X025394Y036737D01*
X025358Y036786D02*
X025642Y036786D01*
X025691Y036834D02*
X025309Y036834D01*
X024691Y036834D02*
X024309Y036834D01*
X024358Y036786D02*
X024642Y036786D01*
X024606Y036737D02*
X024394Y036737D01*
X024414Y036689D02*
X024586Y036689D01*
X024566Y036640D02*
X024434Y036640D01*
X024455Y036592D02*
X024545Y036592D01*
X024545Y036543D02*
X024455Y036543D01*
X024455Y036495D02*
X024545Y036495D01*
X024545Y036446D02*
X024455Y036446D01*
X024450Y036398D02*
X024550Y036398D01*
X024570Y036349D02*
X024430Y036349D01*
X024410Y036301D02*
X024590Y036301D01*
X024610Y036252D02*
X024390Y036252D01*
X024347Y036204D02*
X024653Y036204D01*
X024701Y036155D02*
X024299Y036155D01*
X024239Y036107D02*
X024761Y036107D01*
X024878Y036058D02*
X024122Y036058D01*
X023878Y036058D02*
X022623Y036058D01*
X022623Y036107D02*
X023761Y036107D01*
X023701Y036155D02*
X022623Y036155D01*
X022623Y036204D02*
X023653Y036204D01*
X023610Y036252D02*
X022623Y036252D01*
X022623Y036301D02*
X023590Y036301D01*
X023570Y036349D02*
X022623Y036349D01*
X022623Y036398D02*
X023550Y036398D01*
X023545Y036446D02*
X022623Y036446D01*
X022623Y036495D02*
X023545Y036495D01*
X023545Y036543D02*
X022623Y036543D01*
X022623Y036592D02*
X023545Y036592D01*
X023566Y036640D02*
X022623Y036640D01*
X022623Y036689D02*
X023586Y036689D01*
X023606Y036737D02*
X022623Y036737D01*
X022623Y036786D02*
X023642Y036786D01*
X023691Y036834D02*
X022623Y036834D01*
X025197Y034603D02*
X025406Y034603D01*
X025454Y034652D02*
X025246Y034652D01*
X025294Y034700D02*
X025503Y034700D01*
X025551Y034749D02*
X025343Y034749D01*
X025391Y034797D02*
X025600Y034797D01*
X025648Y034846D02*
X025440Y034846D01*
X025488Y034894D02*
X025697Y034894D01*
X025745Y034943D02*
X025537Y034943D01*
X025585Y034991D02*
X025794Y034991D01*
X025842Y035040D02*
X025634Y035040D01*
X025682Y035088D02*
X025891Y035088D01*
X025939Y035137D02*
X025731Y035137D01*
X025779Y035185D02*
X025988Y035185D01*
X026028Y035225D02*
X025125Y034322D01*
X025125Y034178D01*
X025125Y033134D01*
X025076Y033183D01*
X025019Y033183D01*
X025004Y033192D01*
X025004Y033192D01*
X024974Y033183D01*
X024937Y033183D01*
X024935Y033185D01*
X024665Y033185D01*
X024650Y033170D01*
X024635Y033185D01*
X024506Y033185D01*
X024465Y033226D01*
X024465Y033871D01*
X026129Y035535D01*
X026129Y035486D01*
X026178Y035368D01*
X026268Y035278D01*
X026386Y035229D01*
X026514Y035229D01*
X026544Y035241D01*
X026528Y035225D01*
X026028Y035225D01*
X025925Y035331D02*
X026215Y035331D01*
X026173Y035379D02*
X025973Y035379D01*
X026022Y035428D02*
X026153Y035428D01*
X026133Y035476D02*
X026070Y035476D01*
X026119Y035525D02*
X026129Y035525D01*
X026264Y035282D02*
X025876Y035282D01*
X025828Y035234D02*
X026375Y035234D01*
X026525Y035234D02*
X026536Y035234D01*
X026789Y034991D02*
X029877Y034991D01*
X029877Y034943D02*
X026740Y034943D01*
X026738Y034911D02*
X026709Y034911D01*
X026775Y034978D01*
X027075Y035278D01*
X027075Y035528D01*
X027129Y035581D01*
X027129Y035486D01*
X027178Y035368D01*
X027268Y035278D01*
X027386Y035229D01*
X027514Y035229D01*
X027632Y035278D01*
X027722Y035368D01*
X027771Y035486D01*
X027771Y035614D01*
X027722Y035732D01*
X027632Y035822D01*
X027588Y035841D01*
X027675Y035928D01*
X027827Y036079D01*
X027909Y036045D01*
X028091Y036045D01*
X028258Y036114D01*
X028377Y036233D01*
X028377Y035949D01*
X028449Y035877D01*
X029877Y035877D01*
X029877Y032001D01*
X029309Y032005D01*
X029589Y032285D01*
X029715Y032411D01*
X029715Y034304D01*
X029756Y034345D01*
X029811Y034478D01*
X029811Y034622D01*
X029756Y034755D01*
X029655Y034856D01*
X029522Y034911D01*
X029378Y034911D01*
X029245Y034856D01*
X029144Y034755D01*
X029089Y034622D01*
X029089Y034478D01*
X029144Y034345D01*
X029245Y034244D01*
X029285Y034227D01*
X029285Y034019D01*
X028811Y034493D01*
X028811Y034622D01*
X028756Y034755D01*
X028655Y034856D01*
X028522Y034911D01*
X028378Y034911D01*
X028245Y034856D01*
X028144Y034755D01*
X028089Y034622D01*
X028089Y034478D01*
X028144Y034345D01*
X028174Y034315D01*
X027989Y034315D01*
X027811Y034493D01*
X027811Y034622D01*
X027756Y034755D01*
X027655Y034856D01*
X027522Y034911D01*
X027378Y034911D01*
X027245Y034856D01*
X027144Y034755D01*
X027089Y034622D01*
X027089Y034478D01*
X027136Y034365D01*
X026939Y034365D01*
X026811Y034493D01*
X026811Y034838D01*
X026738Y034911D01*
X026755Y034894D02*
X027337Y034894D01*
X027235Y034846D02*
X026804Y034846D01*
X026811Y034797D02*
X027186Y034797D01*
X027141Y034749D02*
X026811Y034749D01*
X026811Y034700D02*
X027121Y034700D01*
X027101Y034652D02*
X026811Y034652D01*
X026811Y034603D02*
X027089Y034603D01*
X027089Y034555D02*
X026811Y034555D01*
X026811Y034506D02*
X027089Y034506D01*
X027097Y034458D02*
X026847Y034458D01*
X026895Y034409D02*
X027117Y034409D01*
X027161Y033935D02*
X026761Y033935D01*
X026507Y034189D01*
X026162Y034189D01*
X026089Y034262D01*
X026089Y034791D01*
X025475Y034178D01*
X025475Y033165D01*
X025505Y033135D01*
X025505Y032865D01*
X025475Y032835D01*
X025475Y032035D01*
X025630Y032034D01*
X026035Y032439D01*
X026035Y032439D01*
X026161Y032565D01*
X027761Y032565D01*
X028005Y032809D01*
X028004Y032808D01*
X028004Y032808D01*
X028004Y032808D01*
X027974Y032817D01*
X027924Y032817D01*
X027904Y032837D01*
X027823Y032860D01*
X027806Y032855D01*
X027788Y032865D01*
X027435Y032865D01*
X027435Y032865D01*
X027385Y032815D01*
X027115Y032815D01*
X027065Y032865D01*
X027065Y032865D01*
X026712Y032865D01*
X026694Y032855D01*
X026677Y032860D01*
X026596Y032837D01*
X026576Y032817D01*
X026526Y032817D01*
X026502Y032810D01*
X026496Y032808D01*
X026481Y032817D01*
X026424Y032817D01*
X026317Y032924D01*
X026317Y033076D01*
X026424Y033183D01*
X026481Y033183D01*
X026496Y033192D01*
X026496Y033192D01*
X026496Y033192D01*
X026526Y033183D01*
X026576Y033183D01*
X026596Y033163D01*
X026677Y033140D01*
X026694Y033145D01*
X026712Y033135D01*
X027065Y033135D01*
X027065Y033135D01*
X027115Y033185D01*
X027385Y033185D01*
X027435Y033135D01*
X027435Y033135D01*
X027788Y033135D01*
X027806Y033145D01*
X027823Y033140D01*
X027904Y033163D01*
X027924Y033183D01*
X027974Y033183D01*
X028004Y033192D01*
X028004Y033192D01*
X028019Y033183D01*
X028076Y033183D01*
X028183Y033076D01*
X028183Y032987D01*
X028235Y033039D01*
X028235Y033411D01*
X028061Y033585D01*
X027511Y033585D01*
X027161Y033935D01*
X027172Y033924D02*
X025475Y033924D01*
X025475Y033876D02*
X027220Y033876D01*
X027269Y033827D02*
X025475Y033827D01*
X025475Y033779D02*
X027317Y033779D01*
X027366Y033730D02*
X025475Y033730D01*
X025475Y033682D02*
X027414Y033682D01*
X027463Y033633D02*
X025475Y033633D01*
X025475Y033585D02*
X028061Y033585D01*
X028110Y033536D02*
X025475Y033536D01*
X025475Y033488D02*
X028158Y033488D01*
X028207Y033439D02*
X025475Y033439D01*
X025475Y033391D02*
X028235Y033391D01*
X028235Y033342D02*
X025475Y033342D01*
X025475Y033294D02*
X028235Y033294D01*
X028235Y033245D02*
X025475Y033245D01*
X025475Y033197D02*
X028235Y033197D01*
X028235Y033148D02*
X028111Y033148D01*
X028160Y033100D02*
X028235Y033100D01*
X028235Y033051D02*
X028183Y033051D01*
X028183Y033003D02*
X028198Y033003D01*
X028004Y033192D02*
X028004Y033192D01*
X027850Y033148D02*
X027422Y033148D01*
X027427Y032857D02*
X027802Y032857D01*
X027814Y032857D02*
X027832Y032857D01*
X027956Y032760D02*
X025475Y032760D01*
X025475Y032712D02*
X027907Y032712D01*
X027859Y032663D02*
X025475Y032663D01*
X025475Y032615D02*
X027810Y032615D01*
X027762Y032566D02*
X025475Y032566D01*
X025475Y032518D02*
X026113Y032518D01*
X026065Y032469D02*
X025475Y032469D01*
X025475Y032421D02*
X026016Y032421D01*
X025968Y032372D02*
X025475Y032372D01*
X025475Y032324D02*
X025919Y032324D01*
X025871Y032275D02*
X025475Y032275D01*
X025475Y032227D02*
X025822Y032227D01*
X025774Y032178D02*
X025475Y032178D01*
X025475Y032130D02*
X025725Y032130D01*
X025677Y032081D02*
X025475Y032081D01*
X025125Y032122D02*
X025041Y032039D01*
X024465Y032043D01*
X024465Y032774D01*
X024506Y032815D01*
X024635Y032815D01*
X024650Y032830D01*
X024665Y032815D01*
X024935Y032815D01*
X024937Y032817D01*
X024974Y032817D01*
X025004Y032808D01*
X025019Y032817D01*
X025076Y032817D01*
X025125Y032866D01*
X025125Y032122D01*
X025125Y032130D02*
X024465Y032130D01*
X024465Y032178D02*
X025125Y032178D01*
X025125Y032227D02*
X024465Y032227D01*
X024465Y032275D02*
X025125Y032275D01*
X025125Y032324D02*
X024465Y032324D01*
X024465Y032372D02*
X025125Y032372D01*
X025125Y032421D02*
X024465Y032421D01*
X024465Y032469D02*
X025125Y032469D01*
X025125Y032518D02*
X024465Y032518D01*
X024465Y032566D02*
X025125Y032566D01*
X025125Y032615D02*
X024465Y032615D01*
X024465Y032663D02*
X025125Y032663D01*
X025125Y032712D02*
X024465Y032712D01*
X024465Y032760D02*
X025125Y032760D01*
X025125Y032809D02*
X025004Y032809D01*
X025004Y032808D02*
X025004Y032808D01*
X025004Y032808D01*
X025003Y032809D02*
X024499Y032809D01*
X024494Y033197D02*
X025125Y033197D01*
X025125Y033245D02*
X024465Y033245D01*
X024465Y033294D02*
X025125Y033294D01*
X025125Y033342D02*
X024465Y033342D01*
X024465Y033391D02*
X025125Y033391D01*
X025125Y033439D02*
X024465Y033439D01*
X024465Y033488D02*
X025125Y033488D01*
X025125Y033536D02*
X024465Y033536D01*
X024465Y033585D02*
X025125Y033585D01*
X025125Y033633D02*
X024465Y033633D01*
X024465Y033682D02*
X025125Y033682D01*
X025125Y033730D02*
X024465Y033730D01*
X024465Y033779D02*
X025125Y033779D01*
X025125Y033827D02*
X024465Y033827D01*
X024470Y033876D02*
X025125Y033876D01*
X025125Y033924D02*
X024518Y033924D01*
X024567Y033973D02*
X025125Y033973D01*
X025125Y034021D02*
X024615Y034021D01*
X024664Y034070D02*
X025125Y034070D01*
X025125Y034118D02*
X024712Y034118D01*
X024761Y034167D02*
X025125Y034167D01*
X025125Y034215D02*
X024809Y034215D01*
X024858Y034264D02*
X025125Y034264D01*
X025125Y034312D02*
X024906Y034312D01*
X024955Y034361D02*
X025163Y034361D01*
X025212Y034409D02*
X025003Y034409D01*
X025052Y034458D02*
X025260Y034458D01*
X025309Y034506D02*
X025100Y034506D01*
X025149Y034555D02*
X025357Y034555D01*
X025610Y034312D02*
X026089Y034312D01*
X026089Y034264D02*
X025561Y034264D01*
X025513Y034215D02*
X026136Y034215D01*
X026089Y034361D02*
X025658Y034361D01*
X025707Y034409D02*
X026089Y034409D01*
X026089Y034458D02*
X025755Y034458D01*
X025804Y034506D02*
X026089Y034506D01*
X026089Y034555D02*
X025852Y034555D01*
X025901Y034603D02*
X026089Y034603D01*
X026089Y034652D02*
X025949Y034652D01*
X025998Y034700D02*
X026089Y034700D01*
X026089Y034749D02*
X026046Y034749D01*
X026529Y034167D02*
X025475Y034167D01*
X025475Y034118D02*
X026578Y034118D01*
X026626Y034070D02*
X025475Y034070D01*
X025475Y034021D02*
X026675Y034021D01*
X026723Y033973D02*
X025475Y033973D01*
X025492Y033148D02*
X026389Y033148D01*
X026340Y033100D02*
X025505Y033100D01*
X025505Y033051D02*
X026317Y033051D01*
X026317Y033003D02*
X025505Y033003D01*
X025505Y032954D02*
X026317Y032954D01*
X026335Y032906D02*
X025505Y032906D01*
X025497Y032857D02*
X026384Y032857D01*
X026496Y032809D02*
X025475Y032809D01*
X025125Y032857D02*
X025116Y032857D01*
X025111Y033148D02*
X025125Y033148D01*
X025004Y033192D02*
X025004Y033192D01*
X024035Y033245D02*
X022623Y033245D01*
X022623Y033197D02*
X024006Y033197D01*
X024035Y033294D02*
X022623Y033294D01*
X022623Y033342D02*
X024035Y033342D01*
X024035Y033391D02*
X022623Y033391D01*
X022623Y033439D02*
X024035Y033439D01*
X024035Y033488D02*
X022623Y033488D01*
X022623Y033536D02*
X024035Y033536D01*
X024035Y033585D02*
X022623Y033585D01*
X022623Y033633D02*
X024035Y033633D01*
X024035Y033682D02*
X022623Y033682D01*
X022623Y033730D02*
X024035Y033730D01*
X024035Y033779D02*
X022623Y033779D01*
X022623Y033827D02*
X024035Y033827D01*
X024035Y033876D02*
X022623Y033876D01*
X022623Y033924D02*
X024035Y033924D01*
X023496Y033192D02*
X023496Y033192D01*
X023496Y033192D01*
X023389Y033148D02*
X022623Y033148D01*
X022623Y033100D02*
X023340Y033100D01*
X023317Y033051D02*
X022623Y033051D01*
X022623Y033003D02*
X023317Y033003D01*
X023317Y032954D02*
X022623Y032954D01*
X022623Y032906D02*
X023335Y032906D01*
X023384Y032857D02*
X022623Y032857D01*
X022623Y032809D02*
X023496Y032809D01*
X023497Y032809D02*
X024001Y032809D01*
X024035Y032760D02*
X022623Y032760D01*
X022623Y032712D02*
X024035Y032712D01*
X024035Y032663D02*
X022623Y032663D01*
X022623Y032615D02*
X024035Y032615D01*
X024035Y032566D02*
X022623Y032566D01*
X022623Y032518D02*
X024035Y032518D01*
X024035Y032469D02*
X022623Y032469D01*
X022623Y032421D02*
X024035Y032421D01*
X024035Y032372D02*
X022623Y032372D01*
X022623Y032324D02*
X024035Y032324D01*
X024035Y032275D02*
X022623Y032275D01*
X022623Y032227D02*
X024035Y032227D01*
X024035Y032178D02*
X022623Y032178D01*
X022623Y032130D02*
X024035Y032130D01*
X024035Y032081D02*
X022623Y032081D01*
X022623Y032033D02*
X023600Y032033D01*
X023600Y031984D02*
X022623Y031984D01*
X022623Y031936D02*
X023600Y031936D01*
X023600Y031887D02*
X022623Y031887D01*
X022623Y031839D02*
X023600Y031839D01*
X023600Y031790D02*
X022623Y031790D01*
X022623Y031742D02*
X023600Y031742D01*
X023600Y031693D02*
X022623Y031693D01*
X022623Y031645D02*
X023600Y031645D01*
X023600Y031596D02*
X022623Y031596D01*
X022623Y031548D02*
X023600Y031548D01*
X023600Y031499D02*
X022623Y031499D01*
X022623Y031451D02*
X023600Y031451D01*
X023600Y031402D02*
X022623Y031402D01*
X022623Y031354D02*
X023600Y031354D01*
X023600Y031305D02*
X022623Y031305D01*
X022623Y031257D02*
X023600Y031257D01*
X023600Y031208D02*
X022623Y031208D01*
X022623Y031160D02*
X023600Y031160D01*
X023600Y031111D02*
X022623Y031111D01*
X022623Y031063D02*
X023600Y031063D01*
X023600Y031014D02*
X022623Y031014D01*
X022623Y030966D02*
X023600Y030966D01*
X023600Y030917D02*
X022623Y030917D01*
X022623Y030869D02*
X023600Y030869D01*
X024465Y032081D02*
X025084Y032081D01*
X026497Y032809D02*
X028003Y032809D01*
X028004Y032809D02*
X028004Y032809D01*
X027073Y032857D02*
X026698Y032857D01*
X026686Y032857D02*
X026668Y032857D01*
X026650Y033148D02*
X027078Y033148D01*
X027944Y034361D02*
X028137Y034361D01*
X028117Y034409D02*
X027895Y034409D01*
X027847Y034458D02*
X028097Y034458D01*
X028089Y034506D02*
X027811Y034506D01*
X027811Y034555D02*
X028089Y034555D01*
X028089Y034603D02*
X027811Y034603D01*
X027799Y034652D02*
X028101Y034652D01*
X028121Y034700D02*
X027779Y034700D01*
X027759Y034749D02*
X028141Y034749D01*
X028186Y034797D02*
X027714Y034797D01*
X027665Y034846D02*
X028235Y034846D01*
X028337Y034894D02*
X027563Y034894D01*
X027525Y035234D02*
X028375Y035234D01*
X028386Y035229D02*
X028514Y035229D01*
X028632Y035278D01*
X028722Y035368D01*
X028771Y035486D01*
X028771Y035614D01*
X028722Y035732D01*
X028632Y035822D01*
X028514Y035871D01*
X028386Y035871D01*
X028268Y035822D01*
X028178Y035732D01*
X028129Y035614D01*
X028129Y035486D01*
X028178Y035368D01*
X028268Y035278D01*
X028386Y035229D01*
X028264Y035282D02*
X027636Y035282D01*
X027685Y035331D02*
X028215Y035331D01*
X028173Y035379D02*
X027727Y035379D01*
X027747Y035428D02*
X028153Y035428D01*
X028133Y035476D02*
X027767Y035476D01*
X027771Y035525D02*
X028129Y035525D01*
X028129Y035573D02*
X027771Y035573D01*
X027768Y035622D02*
X028132Y035622D01*
X028152Y035670D02*
X027748Y035670D01*
X027728Y035719D02*
X028172Y035719D01*
X028213Y035767D02*
X027687Y035767D01*
X027639Y035816D02*
X028261Y035816D01*
X028369Y035864D02*
X027612Y035864D01*
X027660Y035913D02*
X028413Y035913D01*
X028377Y035961D02*
X027709Y035961D01*
X027757Y036010D02*
X028377Y036010D01*
X028377Y036058D02*
X028122Y036058D01*
X028239Y036107D02*
X028377Y036107D01*
X028377Y036155D02*
X028299Y036155D01*
X028347Y036204D02*
X028377Y036204D01*
X028531Y035864D02*
X029369Y035864D01*
X029386Y035871D02*
X029268Y035822D01*
X029178Y035732D01*
X029129Y035614D01*
X029129Y035486D01*
X029178Y035368D01*
X029268Y035278D01*
X029386Y035229D01*
X029514Y035229D01*
X029632Y035278D01*
X029722Y035368D01*
X029771Y035486D01*
X029771Y035614D01*
X029722Y035732D01*
X029632Y035822D01*
X029514Y035871D01*
X029386Y035871D01*
X029261Y035816D02*
X028639Y035816D01*
X028687Y035767D02*
X029213Y035767D01*
X029172Y035719D02*
X028728Y035719D01*
X028748Y035670D02*
X029152Y035670D01*
X029132Y035622D02*
X028768Y035622D01*
X028771Y035573D02*
X029129Y035573D01*
X029129Y035525D02*
X028771Y035525D01*
X028767Y035476D02*
X029133Y035476D01*
X029153Y035428D02*
X028747Y035428D01*
X028727Y035379D02*
X029173Y035379D01*
X029215Y035331D02*
X028685Y035331D01*
X028636Y035282D02*
X029264Y035282D01*
X029375Y035234D02*
X028525Y035234D01*
X028563Y034894D02*
X029337Y034894D01*
X029235Y034846D02*
X028665Y034846D01*
X028714Y034797D02*
X029186Y034797D01*
X029141Y034749D02*
X028759Y034749D01*
X028779Y034700D02*
X029121Y034700D01*
X029101Y034652D02*
X028799Y034652D01*
X028811Y034603D02*
X029089Y034603D01*
X029089Y034555D02*
X028811Y034555D01*
X028811Y034506D02*
X029089Y034506D01*
X029097Y034458D02*
X028847Y034458D01*
X028895Y034409D02*
X029117Y034409D01*
X029137Y034361D02*
X028944Y034361D01*
X028992Y034312D02*
X029177Y034312D01*
X029226Y034264D02*
X029041Y034264D01*
X029089Y034215D02*
X029285Y034215D01*
X029285Y034167D02*
X029138Y034167D01*
X029186Y034118D02*
X029285Y034118D01*
X029285Y034070D02*
X029235Y034070D01*
X029283Y034021D02*
X029285Y034021D01*
X029715Y034021D02*
X029877Y034021D01*
X029877Y033973D02*
X029715Y033973D01*
X029715Y033924D02*
X029877Y033924D01*
X029877Y033876D02*
X029715Y033876D01*
X029715Y033827D02*
X029877Y033827D01*
X029877Y033779D02*
X029715Y033779D01*
X029715Y033730D02*
X029877Y033730D01*
X029877Y033682D02*
X029715Y033682D01*
X029715Y033633D02*
X029877Y033633D01*
X029877Y033585D02*
X029715Y033585D01*
X029715Y033536D02*
X029877Y033536D01*
X029877Y033488D02*
X029715Y033488D01*
X029715Y033439D02*
X029877Y033439D01*
X029877Y033391D02*
X029715Y033391D01*
X029715Y033342D02*
X029877Y033342D01*
X029877Y033294D02*
X029715Y033294D01*
X029715Y033245D02*
X029877Y033245D01*
X029877Y033197D02*
X029715Y033197D01*
X029715Y033148D02*
X029877Y033148D01*
X029877Y033100D02*
X029715Y033100D01*
X029715Y033051D02*
X029877Y033051D01*
X029877Y033003D02*
X029715Y033003D01*
X029715Y032954D02*
X029877Y032954D01*
X029877Y032906D02*
X029715Y032906D01*
X029715Y032857D02*
X029877Y032857D01*
X029877Y032809D02*
X029715Y032809D01*
X029715Y032760D02*
X029877Y032760D01*
X029877Y032712D02*
X029715Y032712D01*
X029715Y032663D02*
X029877Y032663D01*
X029877Y032615D02*
X029715Y032615D01*
X029715Y032566D02*
X029877Y032566D01*
X029877Y032518D02*
X029715Y032518D01*
X029715Y032469D02*
X029877Y032469D01*
X029877Y032421D02*
X029715Y032421D01*
X029676Y032372D02*
X029877Y032372D01*
X029877Y032324D02*
X029628Y032324D01*
X029579Y032275D02*
X029877Y032275D01*
X029877Y032227D02*
X029531Y032227D01*
X029482Y032178D02*
X029877Y032178D01*
X029877Y032130D02*
X029434Y032130D01*
X029385Y032081D02*
X029877Y032081D01*
X029877Y032033D02*
X029337Y032033D01*
X029715Y034070D02*
X029877Y034070D01*
X029877Y034118D02*
X029715Y034118D01*
X029715Y034167D02*
X029877Y034167D01*
X029877Y034215D02*
X029715Y034215D01*
X029715Y034264D02*
X029877Y034264D01*
X029877Y034312D02*
X029723Y034312D01*
X029763Y034361D02*
X029877Y034361D01*
X029877Y034409D02*
X029783Y034409D01*
X029803Y034458D02*
X029877Y034458D01*
X029877Y034506D02*
X029811Y034506D01*
X029811Y034555D02*
X029877Y034555D01*
X029877Y034603D02*
X029811Y034603D01*
X029799Y034652D02*
X029877Y034652D01*
X029877Y034700D02*
X029779Y034700D01*
X029759Y034749D02*
X029877Y034749D01*
X029877Y034797D02*
X029714Y034797D01*
X029665Y034846D02*
X029877Y034846D01*
X029877Y034894D02*
X029563Y034894D01*
X029525Y035234D02*
X029877Y035234D01*
X029877Y035282D02*
X029636Y035282D01*
X029685Y035331D02*
X029877Y035331D01*
X029877Y035379D02*
X029727Y035379D01*
X029747Y035428D02*
X029877Y035428D01*
X029877Y035476D02*
X029767Y035476D01*
X029771Y035525D02*
X029877Y035525D01*
X029877Y035573D02*
X029771Y035573D01*
X029768Y035622D02*
X029877Y035622D01*
X029877Y035670D02*
X029748Y035670D01*
X029728Y035719D02*
X029877Y035719D01*
X029877Y035767D02*
X029687Y035767D01*
X029639Y035816D02*
X029877Y035816D01*
X029877Y035864D02*
X029531Y035864D01*
X029877Y035185D02*
X026983Y035185D01*
X027031Y035234D02*
X027375Y035234D01*
X027264Y035282D02*
X027075Y035282D01*
X027075Y035331D02*
X027215Y035331D01*
X027173Y035379D02*
X027075Y035379D01*
X027075Y035428D02*
X027153Y035428D01*
X027133Y035476D02*
X027075Y035476D01*
X027075Y035525D02*
X027129Y035525D01*
X027121Y035573D02*
X027129Y035573D01*
X026934Y035137D02*
X029877Y035137D01*
X029877Y035088D02*
X026886Y035088D01*
X026837Y035040D02*
X029877Y035040D01*
X027878Y036058D02*
X027806Y036058D01*
D24*
X027500Y036000D02*
X027300Y036000D01*
X026900Y035600D01*
X026900Y035350D01*
X026600Y035050D01*
X026100Y035050D01*
X025300Y034250D01*
X025300Y033050D01*
X025320Y033050D01*
X025320Y033000D01*
X025300Y033050D02*
X025300Y032050D01*
X025000Y031750D01*
X025000Y031500D01*
X025500Y031600D02*
X026250Y032350D01*
X027850Y032350D01*
X028450Y032950D01*
X028450Y033500D01*
X028150Y033800D01*
X027600Y033800D01*
X027250Y034150D01*
X026850Y034150D01*
X026450Y034550D01*
X027450Y034550D02*
X027900Y034100D01*
X028350Y034100D01*
X028800Y033650D01*
X028800Y032800D01*
X028000Y032000D01*
X026500Y032000D01*
X026000Y031500D01*
X025500Y031600D02*
X025500Y030500D01*
X028000Y031500D02*
X029150Y032650D01*
X029150Y033850D01*
X028450Y034550D01*
X029450Y034550D02*
X029500Y034500D01*
X029500Y032500D01*
X028500Y031500D01*
X028500Y030500D01*
X027500Y036000D02*
X028000Y036500D01*
D25*
X026500Y030500D02*
X026500Y029201D01*
X029301Y029201D01*
X026500Y029201D02*
X023199Y029201D01*
X023000Y029201D01*
X023000Y029900D01*
M02*
