G75*
%MOIN*%
%OFA0B0*%
%FSLAX24Y24*%
%IPPOS*%
%LPD*%
%AMOC8*
5,1,8,0,0,1.08239X$1,22.5*
%
%ADD10C,0.0000*%
D10*
X016500Y024500D02*
X016500Y037500D01*
X044500Y037500D01*
X044500Y024500D01*
X016500Y024500D01*
X017809Y030213D02*
X017811Y030233D01*
X017817Y030253D01*
X017826Y030271D01*
X017839Y030288D01*
X017854Y030301D01*
X017872Y030311D01*
X017892Y030318D01*
X017912Y030321D01*
X017932Y030320D01*
X017952Y030315D01*
X017971Y030307D01*
X017988Y030295D01*
X018002Y030280D01*
X018013Y030262D01*
X018021Y030243D01*
X018025Y030223D01*
X018025Y030203D01*
X018021Y030183D01*
X018013Y030164D01*
X018002Y030146D01*
X017988Y030131D01*
X017971Y030119D01*
X017952Y030111D01*
X017932Y030106D01*
X017912Y030105D01*
X017892Y030108D01*
X017872Y030115D01*
X017854Y030125D01*
X017839Y030138D01*
X017826Y030155D01*
X017817Y030173D01*
X017811Y030193D01*
X017809Y030213D01*
X017809Y031787D02*
X017811Y031807D01*
X017817Y031827D01*
X017826Y031845D01*
X017839Y031862D01*
X017854Y031875D01*
X017872Y031885D01*
X017892Y031892D01*
X017912Y031895D01*
X017932Y031894D01*
X017952Y031889D01*
X017971Y031881D01*
X017988Y031869D01*
X018002Y031854D01*
X018013Y031836D01*
X018021Y031817D01*
X018025Y031797D01*
X018025Y031777D01*
X018021Y031757D01*
X018013Y031738D01*
X018002Y031720D01*
X017988Y031705D01*
X017971Y031693D01*
X017952Y031685D01*
X017932Y031680D01*
X017912Y031679D01*
X017892Y031682D01*
X017872Y031689D01*
X017854Y031699D01*
X017839Y031712D01*
X017826Y031729D01*
X017817Y031747D01*
X017811Y031767D01*
X017809Y031787D01*
X017051Y035130D02*
X017053Y035180D01*
X017059Y035230D01*
X017069Y035279D01*
X017083Y035327D01*
X017100Y035374D01*
X017121Y035419D01*
X017146Y035463D01*
X017174Y035504D01*
X017206Y035543D01*
X017240Y035580D01*
X017277Y035614D01*
X017317Y035644D01*
X017359Y035671D01*
X017403Y035695D01*
X017449Y035716D01*
X017496Y035732D01*
X017544Y035745D01*
X017594Y035754D01*
X017643Y035759D01*
X017694Y035760D01*
X017744Y035757D01*
X017793Y035750D01*
X017842Y035739D01*
X017890Y035724D01*
X017936Y035706D01*
X017981Y035684D01*
X018024Y035658D01*
X018065Y035629D01*
X018104Y035597D01*
X018140Y035562D01*
X018172Y035524D01*
X018202Y035484D01*
X018229Y035441D01*
X018252Y035397D01*
X018271Y035351D01*
X018287Y035303D01*
X018299Y035254D01*
X018307Y035205D01*
X018311Y035155D01*
X018311Y035105D01*
X018307Y035055D01*
X018299Y035006D01*
X018287Y034957D01*
X018271Y034909D01*
X018252Y034863D01*
X018229Y034819D01*
X018202Y034776D01*
X018172Y034736D01*
X018140Y034698D01*
X018104Y034663D01*
X018065Y034631D01*
X018024Y034602D01*
X017981Y034576D01*
X017936Y034554D01*
X017890Y034536D01*
X017842Y034521D01*
X017793Y034510D01*
X017744Y034503D01*
X017694Y034500D01*
X017643Y034501D01*
X017594Y034506D01*
X017544Y034515D01*
X017496Y034528D01*
X017449Y034544D01*
X017403Y034565D01*
X017359Y034589D01*
X017317Y034616D01*
X017277Y034646D01*
X017240Y034680D01*
X017206Y034717D01*
X017174Y034756D01*
X017146Y034797D01*
X017121Y034841D01*
X017100Y034886D01*
X017083Y034933D01*
X017069Y034981D01*
X017059Y035030D01*
X017053Y035080D01*
X017051Y035130D01*
X042705Y026862D02*
X042707Y026912D01*
X042713Y026962D01*
X042723Y027011D01*
X042737Y027059D01*
X042754Y027106D01*
X042775Y027151D01*
X042800Y027195D01*
X042828Y027236D01*
X042860Y027275D01*
X042894Y027312D01*
X042931Y027346D01*
X042971Y027376D01*
X043013Y027403D01*
X043057Y027427D01*
X043103Y027448D01*
X043150Y027464D01*
X043198Y027477D01*
X043248Y027486D01*
X043297Y027491D01*
X043348Y027492D01*
X043398Y027489D01*
X043447Y027482D01*
X043496Y027471D01*
X043544Y027456D01*
X043590Y027438D01*
X043635Y027416D01*
X043678Y027390D01*
X043719Y027361D01*
X043758Y027329D01*
X043794Y027294D01*
X043826Y027256D01*
X043856Y027216D01*
X043883Y027173D01*
X043906Y027129D01*
X043925Y027083D01*
X043941Y027035D01*
X043953Y026986D01*
X043961Y026937D01*
X043965Y026887D01*
X043965Y026837D01*
X043961Y026787D01*
X043953Y026738D01*
X043941Y026689D01*
X043925Y026641D01*
X043906Y026595D01*
X043883Y026551D01*
X043856Y026508D01*
X043826Y026468D01*
X043794Y026430D01*
X043758Y026395D01*
X043719Y026363D01*
X043678Y026334D01*
X043635Y026308D01*
X043590Y026286D01*
X043544Y026268D01*
X043496Y026253D01*
X043447Y026242D01*
X043398Y026235D01*
X043348Y026232D01*
X043297Y026233D01*
X043248Y026238D01*
X043198Y026247D01*
X043150Y026260D01*
X043103Y026276D01*
X043057Y026297D01*
X043013Y026321D01*
X042971Y026348D01*
X042931Y026378D01*
X042894Y026412D01*
X042860Y026449D01*
X042828Y026488D01*
X042800Y026529D01*
X042775Y026573D01*
X042754Y026618D01*
X042737Y026665D01*
X042723Y026713D01*
X042713Y026762D01*
X042707Y026812D01*
X042705Y026862D01*
M02*
