G75*
%MOIN*%
%OFA0B0*%
%FSLAX24Y24*%
%IPPOS*%
%LPD*%
%AMOC8*
5,1,8,0,0,1.08239X$1,22.5*
%
%ADD10C,0.0000*%
%ADD11C,0.0030*%
%ADD12C,0.0050*%
%ADD13C,0.0040*%
%ADD14C,0.0200*%
%ADD15R,0.1550X0.0250*%
%ADD16R,0.0100X0.0750*%
%ADD17C,0.0250*%
%ADD18C,0.0500*%
D10*
X016500Y024500D02*
X016500Y037500D01*
X044500Y037500D01*
X044500Y024500D01*
X016500Y024500D01*
X017809Y030213D02*
X017811Y030233D01*
X017817Y030253D01*
X017826Y030271D01*
X017839Y030288D01*
X017854Y030301D01*
X017872Y030311D01*
X017892Y030318D01*
X017912Y030321D01*
X017932Y030320D01*
X017952Y030315D01*
X017971Y030307D01*
X017988Y030295D01*
X018002Y030280D01*
X018013Y030262D01*
X018021Y030243D01*
X018025Y030223D01*
X018025Y030203D01*
X018021Y030183D01*
X018013Y030164D01*
X018002Y030146D01*
X017988Y030131D01*
X017971Y030119D01*
X017952Y030111D01*
X017932Y030106D01*
X017912Y030105D01*
X017892Y030108D01*
X017872Y030115D01*
X017854Y030125D01*
X017839Y030138D01*
X017826Y030155D01*
X017817Y030173D01*
X017811Y030193D01*
X017809Y030213D01*
X017809Y031787D02*
X017811Y031807D01*
X017817Y031827D01*
X017826Y031845D01*
X017839Y031862D01*
X017854Y031875D01*
X017872Y031885D01*
X017892Y031892D01*
X017912Y031895D01*
X017932Y031894D01*
X017952Y031889D01*
X017971Y031881D01*
X017988Y031869D01*
X018002Y031854D01*
X018013Y031836D01*
X018021Y031817D01*
X018025Y031797D01*
X018025Y031777D01*
X018021Y031757D01*
X018013Y031738D01*
X018002Y031720D01*
X017988Y031705D01*
X017971Y031693D01*
X017952Y031685D01*
X017932Y031680D01*
X017912Y031679D01*
X017892Y031682D01*
X017872Y031689D01*
X017854Y031699D01*
X017839Y031712D01*
X017826Y031729D01*
X017817Y031747D01*
X017811Y031767D01*
X017809Y031787D01*
X017051Y035130D02*
X017053Y035180D01*
X017059Y035230D01*
X017069Y035279D01*
X017083Y035327D01*
X017100Y035374D01*
X017121Y035419D01*
X017146Y035463D01*
X017174Y035504D01*
X017206Y035543D01*
X017240Y035580D01*
X017277Y035614D01*
X017317Y035644D01*
X017359Y035671D01*
X017403Y035695D01*
X017449Y035716D01*
X017496Y035732D01*
X017544Y035745D01*
X017594Y035754D01*
X017643Y035759D01*
X017694Y035760D01*
X017744Y035757D01*
X017793Y035750D01*
X017842Y035739D01*
X017890Y035724D01*
X017936Y035706D01*
X017981Y035684D01*
X018024Y035658D01*
X018065Y035629D01*
X018104Y035597D01*
X018140Y035562D01*
X018172Y035524D01*
X018202Y035484D01*
X018229Y035441D01*
X018252Y035397D01*
X018271Y035351D01*
X018287Y035303D01*
X018299Y035254D01*
X018307Y035205D01*
X018311Y035155D01*
X018311Y035105D01*
X018307Y035055D01*
X018299Y035006D01*
X018287Y034957D01*
X018271Y034909D01*
X018252Y034863D01*
X018229Y034819D01*
X018202Y034776D01*
X018172Y034736D01*
X018140Y034698D01*
X018104Y034663D01*
X018065Y034631D01*
X018024Y034602D01*
X017981Y034576D01*
X017936Y034554D01*
X017890Y034536D01*
X017842Y034521D01*
X017793Y034510D01*
X017744Y034503D01*
X017694Y034500D01*
X017643Y034501D01*
X017594Y034506D01*
X017544Y034515D01*
X017496Y034528D01*
X017449Y034544D01*
X017403Y034565D01*
X017359Y034589D01*
X017317Y034616D01*
X017277Y034646D01*
X017240Y034680D01*
X017206Y034717D01*
X017174Y034756D01*
X017146Y034797D01*
X017121Y034841D01*
X017100Y034886D01*
X017083Y034933D01*
X017069Y034981D01*
X017059Y035030D01*
X017053Y035080D01*
X017051Y035130D01*
X042705Y026862D02*
X042707Y026912D01*
X042713Y026962D01*
X042723Y027011D01*
X042737Y027059D01*
X042754Y027106D01*
X042775Y027151D01*
X042800Y027195D01*
X042828Y027236D01*
X042860Y027275D01*
X042894Y027312D01*
X042931Y027346D01*
X042971Y027376D01*
X043013Y027403D01*
X043057Y027427D01*
X043103Y027448D01*
X043150Y027464D01*
X043198Y027477D01*
X043248Y027486D01*
X043297Y027491D01*
X043348Y027492D01*
X043398Y027489D01*
X043447Y027482D01*
X043496Y027471D01*
X043544Y027456D01*
X043590Y027438D01*
X043635Y027416D01*
X043678Y027390D01*
X043719Y027361D01*
X043758Y027329D01*
X043794Y027294D01*
X043826Y027256D01*
X043856Y027216D01*
X043883Y027173D01*
X043906Y027129D01*
X043925Y027083D01*
X043941Y027035D01*
X043953Y026986D01*
X043961Y026937D01*
X043965Y026887D01*
X043965Y026837D01*
X043961Y026787D01*
X043953Y026738D01*
X043941Y026689D01*
X043925Y026641D01*
X043906Y026595D01*
X043883Y026551D01*
X043856Y026508D01*
X043826Y026468D01*
X043794Y026430D01*
X043758Y026395D01*
X043719Y026363D01*
X043678Y026334D01*
X043635Y026308D01*
X043590Y026286D01*
X043544Y026268D01*
X043496Y026253D01*
X043447Y026242D01*
X043398Y026235D01*
X043348Y026232D01*
X043297Y026233D01*
X043248Y026238D01*
X043198Y026247D01*
X043150Y026260D01*
X043103Y026276D01*
X043057Y026297D01*
X043013Y026321D01*
X042971Y026348D01*
X042931Y026378D01*
X042894Y026412D01*
X042860Y026449D01*
X042828Y026488D01*
X042800Y026529D01*
X042775Y026573D01*
X042754Y026618D01*
X042737Y026665D01*
X042723Y026713D01*
X042713Y026762D01*
X042707Y026812D01*
X042705Y026862D01*
D11*
X042250Y027349D02*
X042182Y027349D01*
X042113Y027417D01*
X042113Y027485D01*
X042182Y027554D01*
X042250Y027554D01*
X042318Y027485D01*
X042318Y027417D01*
X042250Y027349D01*
X042144Y027243D02*
X042042Y027345D01*
X041973Y027345D01*
X041871Y027243D01*
X042007Y027106D01*
X041937Y027035D02*
X041868Y026967D01*
X041903Y027001D02*
X041766Y027138D01*
X041732Y027104D01*
X041697Y027206D02*
X041663Y027241D01*
X041694Y026998D02*
X041797Y026896D01*
X041729Y026827D02*
X041626Y026930D01*
X041626Y026998D01*
X041694Y026998D01*
X041626Y026930D02*
X041558Y026930D01*
X041523Y026896D01*
X041660Y026759D01*
X041554Y026721D02*
X041486Y026790D01*
X041418Y026790D01*
X041349Y026721D01*
X041349Y026653D01*
X041418Y026585D01*
X041486Y026585D01*
X041554Y026653D01*
X041554Y026721D01*
X041586Y026485D02*
X041620Y026450D01*
X041689Y026382D02*
X041825Y026245D01*
X041791Y026211D02*
X041860Y026279D01*
X041689Y026382D02*
X041654Y026348D01*
X041549Y026310D02*
X041617Y026242D01*
X041617Y026174D01*
X041514Y026071D01*
X041583Y026003D02*
X041378Y026208D01*
X041480Y026310D01*
X041549Y026310D01*
X041346Y026445D02*
X041346Y026513D01*
X041209Y026650D01*
X041141Y026650D01*
X041038Y026547D01*
X041243Y026342D01*
X041346Y026445D01*
X041763Y029931D02*
X041715Y029979D01*
X041715Y030076D01*
X041763Y030125D01*
X041763Y030226D02*
X041715Y030274D01*
X041715Y030371D01*
X041763Y030419D01*
X041812Y030419D01*
X042005Y030226D01*
X042005Y030419D01*
X042005Y030520D02*
X042005Y030714D01*
X042005Y030617D02*
X041715Y030617D01*
X041812Y030520D01*
X041957Y030125D02*
X042005Y030076D01*
X042005Y029979D01*
X041957Y029931D01*
X041763Y029931D01*
X041062Y030708D02*
X040993Y030708D01*
X040993Y030639D01*
X040959Y030605D01*
X040891Y030605D01*
X040822Y030673D01*
X040822Y030742D01*
X040716Y030779D02*
X040580Y030916D01*
X040648Y030848D02*
X040853Y031053D01*
X040716Y031053D01*
X040611Y031090D02*
X040542Y031090D01*
X040440Y031193D01*
X040508Y031124D02*
X040508Y030987D01*
X040611Y031090D02*
X040679Y031158D01*
X040679Y031227D01*
X040576Y031329D01*
X040371Y031124D01*
X040959Y030879D02*
X041027Y030879D01*
X041096Y030810D01*
X041096Y030742D01*
X041062Y030708D01*
X040993Y030708D02*
X040959Y030742D01*
X040929Y031845D02*
X041026Y031845D01*
X041075Y031893D01*
X041176Y031845D02*
X041369Y031845D01*
X041272Y031845D02*
X041272Y032135D01*
X041176Y032038D01*
X041075Y032087D02*
X041026Y032135D01*
X040929Y032135D01*
X040881Y032087D01*
X040881Y031893D01*
X040929Y031845D01*
X041470Y031893D02*
X041519Y031845D01*
X041615Y031845D01*
X041664Y031893D01*
X041664Y032087D01*
X041615Y032135D01*
X041519Y032135D01*
X041470Y032087D01*
X041470Y032038D01*
X041519Y031990D01*
X041664Y031990D01*
X042015Y033105D02*
X042208Y033298D01*
X042208Y033347D01*
X042160Y033395D01*
X042063Y033395D01*
X042015Y033347D01*
X042015Y033105D02*
X042208Y033105D01*
X042310Y033153D02*
X042503Y033347D01*
X042503Y033153D01*
X042455Y033105D01*
X042358Y033105D01*
X042310Y033153D01*
X042310Y033347D01*
X042358Y033395D01*
X042455Y033395D01*
X042503Y033347D01*
X042604Y033298D02*
X042701Y033395D01*
X042701Y033105D01*
X042604Y033105D02*
X042798Y033105D01*
X042899Y033250D02*
X043092Y033250D01*
X043194Y033153D02*
X043387Y033347D01*
X043387Y033153D01*
X043339Y033105D01*
X043242Y033105D01*
X043194Y033153D01*
X043194Y033347D01*
X043242Y033395D01*
X043339Y033395D01*
X043387Y033347D01*
X043488Y033395D02*
X043682Y033395D01*
X043682Y033347D01*
X043488Y033153D01*
X043488Y033105D01*
X043398Y032925D02*
X043494Y032828D01*
X043494Y032635D01*
X043595Y032635D02*
X043789Y032635D01*
X043692Y032635D02*
X043692Y032925D01*
X043595Y032828D01*
X043494Y032780D02*
X043301Y032780D01*
X043301Y032828D02*
X043398Y032925D01*
X043301Y032828D02*
X043301Y032635D01*
X043044Y033105D02*
X043044Y033395D01*
X042899Y033250D01*
X042951Y033605D02*
X043048Y033798D01*
X043149Y033653D02*
X043197Y033653D01*
X043197Y033605D01*
X043149Y033605D01*
X043149Y033653D01*
X042951Y033605D02*
X042854Y033798D01*
X042753Y033750D02*
X042753Y033702D01*
X042560Y033702D01*
X042560Y033750D02*
X042608Y033798D01*
X042705Y033798D01*
X042753Y033750D01*
X042705Y033605D02*
X042608Y033605D01*
X042560Y033653D01*
X042560Y033750D01*
X042458Y033750D02*
X042410Y033702D01*
X042265Y033702D01*
X042362Y033702D02*
X042458Y033605D01*
X042458Y033750D02*
X042458Y033847D01*
X042410Y033895D01*
X042265Y033895D01*
X042265Y033605D01*
X041298Y034015D02*
X041104Y034015D01*
X041298Y034208D01*
X041298Y034257D01*
X041249Y034305D01*
X041153Y034305D01*
X041104Y034257D01*
X040906Y034305D02*
X040906Y034015D01*
X040810Y034015D02*
X041003Y034015D01*
X040810Y034208D02*
X040906Y034305D01*
X040708Y034257D02*
X040708Y034160D01*
X040660Y034112D01*
X040515Y034112D01*
X040612Y034112D02*
X040708Y034015D01*
X040515Y034015D02*
X040515Y034305D01*
X040660Y034305D01*
X040708Y034257D01*
X040753Y036055D02*
X040560Y036055D01*
X040656Y036055D02*
X040656Y036345D01*
X040560Y036248D01*
X040458Y036345D02*
X040458Y036055D01*
X040265Y036055D02*
X040265Y036345D01*
X040362Y036248D01*
X040458Y036345D01*
X043591Y033798D02*
X043688Y033895D01*
X043784Y033798D01*
X043784Y033605D01*
X043784Y033750D02*
X043591Y033750D01*
X043591Y033798D02*
X043591Y033605D01*
X043831Y033395D02*
X043783Y033347D01*
X043831Y033395D02*
X043928Y033395D01*
X043976Y033347D01*
X043976Y033298D01*
X043783Y033105D01*
X043976Y033105D01*
X044078Y033105D02*
X044271Y033298D01*
X044271Y033347D01*
X044223Y033395D01*
X044126Y033395D01*
X044078Y033347D01*
X044078Y033105D02*
X044271Y033105D01*
X023348Y033105D02*
X023251Y033057D01*
X023154Y032960D01*
X023299Y032960D01*
X023348Y032912D01*
X023348Y032863D01*
X023299Y032815D01*
X023203Y032815D01*
X023154Y032863D01*
X023154Y032960D01*
X023053Y032960D02*
X023005Y032912D01*
X022860Y032912D01*
X022785Y032960D02*
X022785Y033153D01*
X022758Y033105D02*
X022565Y033105D01*
X022495Y033056D02*
X022785Y033056D01*
X022860Y033105D02*
X023005Y033105D01*
X023053Y033057D01*
X023053Y032960D01*
X022860Y032815D02*
X022860Y033105D01*
X022737Y033254D02*
X022688Y033254D01*
X022640Y033303D01*
X022640Y033399D01*
X022688Y033448D01*
X022737Y033448D01*
X022785Y033399D01*
X022785Y033303D01*
X022737Y033254D01*
X022640Y033303D02*
X022592Y033254D01*
X022543Y033254D01*
X022495Y033303D01*
X022495Y033399D01*
X022543Y033448D01*
X022592Y033448D01*
X022640Y033399D01*
X022505Y033515D02*
X022553Y033563D01*
X022553Y033612D01*
X022505Y033660D01*
X022360Y033660D01*
X022360Y033563D01*
X022408Y033515D01*
X022505Y033515D01*
X022360Y033660D02*
X022456Y033757D01*
X022553Y033805D01*
X022258Y033757D02*
X022258Y033660D01*
X022210Y033612D01*
X022065Y033612D01*
X022162Y033612D02*
X022258Y033515D01*
X022065Y033515D02*
X022065Y033805D01*
X022210Y033805D01*
X022258Y033757D01*
X022495Y033056D02*
X022592Y032960D01*
X022543Y032858D02*
X022495Y032810D01*
X022495Y032713D01*
X022543Y032665D01*
X022737Y032665D01*
X022785Y032713D01*
X022785Y032810D01*
X022737Y032858D01*
X022662Y032815D02*
X022662Y033105D01*
X022658Y032305D02*
X022465Y032305D01*
X022562Y032305D02*
X022562Y032015D01*
X022760Y032015D02*
X022760Y032305D01*
X022905Y032305D01*
X022953Y032257D01*
X022953Y032160D01*
X022905Y032112D01*
X022760Y032112D01*
X023054Y032160D02*
X023151Y032208D01*
X023199Y032208D01*
X023248Y032160D01*
X023248Y032063D01*
X023199Y032015D01*
X023103Y032015D01*
X023054Y032063D01*
X023054Y032160D02*
X023054Y032305D01*
X023248Y032305D01*
X023349Y031605D02*
X023204Y031460D01*
X023398Y031460D01*
X023349Y031315D02*
X023349Y031605D01*
X023103Y031557D02*
X023103Y031460D01*
X023055Y031412D01*
X022910Y031412D01*
X022910Y031315D02*
X022910Y031605D01*
X023055Y031605D01*
X023103Y031557D01*
X022808Y031605D02*
X022615Y031605D01*
X022712Y031605D02*
X022712Y031315D01*
X022599Y031055D02*
X022648Y031007D01*
X022454Y030813D01*
X022503Y030765D01*
X022599Y030765D01*
X022648Y030813D01*
X022648Y031007D01*
X022599Y031055D02*
X022503Y031055D01*
X022454Y031007D01*
X022454Y030813D01*
X022465Y030755D02*
X022658Y030755D01*
X022562Y030755D02*
X022562Y030465D01*
X022642Y030385D02*
X022594Y030337D01*
X022642Y030385D02*
X022739Y030385D01*
X022788Y030337D01*
X022788Y030288D01*
X022594Y030095D01*
X022788Y030095D01*
X022493Y030095D02*
X022299Y030095D01*
X022299Y030385D01*
X022256Y030765D02*
X022256Y031055D01*
X022160Y030958D01*
X022058Y030910D02*
X022010Y030862D01*
X021865Y030862D01*
X021962Y030862D02*
X022058Y030765D01*
X022160Y030765D02*
X022353Y030765D01*
X022058Y030910D02*
X022058Y031007D01*
X022010Y031055D01*
X021865Y031055D01*
X021865Y030765D01*
X021155Y030726D02*
X021155Y030919D01*
X021155Y030822D02*
X020865Y030822D01*
X020962Y030726D01*
X020913Y030625D02*
X020865Y030576D01*
X020865Y030479D01*
X020913Y030431D01*
X021107Y030431D01*
X021155Y030479D01*
X021155Y030576D01*
X021107Y030625D01*
X020755Y030571D02*
X020707Y030619D01*
X020755Y030571D02*
X020755Y030474D01*
X020707Y030426D01*
X020513Y030426D01*
X020465Y030474D01*
X020465Y030571D01*
X020513Y030619D01*
X020513Y030720D02*
X020562Y030720D01*
X020610Y030769D01*
X020610Y030914D01*
X020707Y030914D02*
X020513Y030914D01*
X020465Y030865D01*
X020465Y030769D01*
X020513Y030720D01*
X020355Y030769D02*
X020307Y030720D01*
X020258Y030720D01*
X020210Y030769D01*
X020210Y030865D01*
X020258Y030914D01*
X020307Y030914D01*
X020355Y030865D01*
X020355Y030769D01*
X020210Y030769D02*
X020162Y030720D01*
X020113Y030720D01*
X020065Y030769D01*
X020065Y030865D01*
X020113Y030914D01*
X020162Y030914D01*
X020210Y030865D01*
X020307Y030619D02*
X020355Y030571D01*
X020355Y030474D01*
X020307Y030426D01*
X020113Y030426D01*
X020065Y030474D01*
X020065Y030571D01*
X020113Y030619D01*
X019997Y030601D02*
X019948Y030649D01*
X019851Y030649D01*
X019803Y030601D01*
X019702Y030601D02*
X019653Y030649D01*
X019557Y030649D01*
X019508Y030601D01*
X019508Y030407D01*
X019557Y030359D01*
X019653Y030359D01*
X019702Y030407D01*
X019803Y030359D02*
X019997Y030552D01*
X019997Y030601D01*
X019997Y030359D02*
X019803Y030359D01*
X019455Y030576D02*
X019455Y030721D01*
X019407Y030769D01*
X019213Y030769D01*
X019165Y030721D01*
X019165Y030576D01*
X019455Y030576D01*
X019169Y030509D02*
X019169Y030413D01*
X019121Y030364D01*
X019024Y030364D01*
X018975Y030413D01*
X018975Y030509D02*
X019072Y030558D01*
X019121Y030558D01*
X019169Y030509D01*
X019169Y030655D02*
X018975Y030655D01*
X018975Y030509D01*
X018874Y030413D02*
X018826Y030364D01*
X018729Y030364D01*
X018681Y030413D01*
X018681Y030606D01*
X018729Y030655D01*
X018826Y030655D01*
X018874Y030606D01*
X019165Y030919D02*
X019213Y030870D01*
X019165Y030919D02*
X019165Y031015D01*
X019213Y031064D01*
X019262Y031064D01*
X019455Y030870D01*
X019455Y031064D01*
X018541Y030211D02*
X018541Y030115D01*
X018492Y030066D01*
X018492Y029965D02*
X018541Y029917D01*
X018541Y029820D01*
X018492Y029772D01*
X018299Y029772D01*
X018250Y029820D01*
X018250Y029917D01*
X018299Y029965D01*
X018299Y030066D02*
X018250Y030115D01*
X018250Y030211D01*
X018299Y030260D01*
X018347Y030260D01*
X018395Y030211D01*
X018444Y030260D01*
X018492Y030260D01*
X018541Y030211D01*
X018395Y030211D02*
X018395Y030163D01*
X018405Y029555D02*
X018453Y029507D01*
X018453Y029458D01*
X018405Y029410D01*
X018308Y029410D01*
X018260Y029458D01*
X018260Y029507D01*
X018308Y029555D01*
X018405Y029555D01*
X018405Y029410D02*
X018453Y029362D01*
X018453Y029313D01*
X018405Y029265D01*
X018308Y029265D01*
X018260Y029313D01*
X018260Y029362D01*
X018308Y029410D01*
X018158Y029410D02*
X018110Y029362D01*
X017965Y029362D01*
X018062Y029362D02*
X018158Y029265D01*
X018158Y029410D02*
X018158Y029507D01*
X018110Y029555D01*
X017965Y029555D01*
X017965Y029265D01*
X017503Y029363D02*
X017455Y029315D01*
X017358Y029315D01*
X017310Y029363D01*
X017208Y029363D02*
X017208Y029557D01*
X017160Y029605D01*
X017015Y029605D01*
X017015Y029315D01*
X017160Y029315D01*
X017208Y029363D01*
X017310Y029557D02*
X017358Y029605D01*
X017455Y029605D01*
X017503Y029557D01*
X017503Y029508D01*
X017455Y029460D01*
X017503Y029412D01*
X017503Y029363D01*
X017455Y029460D02*
X017406Y029460D01*
X018800Y029129D02*
X018800Y028935D01*
X018848Y028887D01*
X018945Y028887D01*
X018993Y028935D01*
X019094Y028935D02*
X019143Y028887D01*
X019239Y028887D01*
X019288Y028935D01*
X019288Y028984D01*
X019239Y029032D01*
X019094Y029032D01*
X019094Y028935D01*
X019133Y028870D02*
X019133Y028676D01*
X018988Y028821D01*
X019278Y028821D01*
X019230Y028575D02*
X019278Y028527D01*
X019278Y028430D01*
X019230Y028382D01*
X019036Y028382D01*
X018988Y028430D01*
X018988Y028527D01*
X019036Y028575D01*
X019016Y028381D02*
X019065Y028333D01*
X019065Y028236D01*
X019016Y028188D01*
X018871Y028188D01*
X018871Y028091D02*
X018871Y028381D01*
X019016Y028381D01*
X019166Y028333D02*
X019214Y028381D01*
X019311Y028381D01*
X019360Y028333D01*
X019360Y028285D01*
X019311Y028236D01*
X019360Y028188D01*
X019360Y028139D01*
X019311Y028091D01*
X019214Y028091D01*
X019166Y028139D01*
X019153Y028038D02*
X019347Y028038D01*
X019347Y027990D01*
X019153Y027796D01*
X019153Y027748D01*
X019088Y027766D02*
X019040Y027766D01*
X018991Y027717D01*
X018991Y027621D01*
X019040Y027572D01*
X019040Y027471D02*
X019136Y027471D01*
X019185Y027423D01*
X019185Y027278D01*
X019281Y027278D02*
X018991Y027278D01*
X018991Y027423D01*
X019040Y027471D01*
X019185Y027374D02*
X019281Y027471D01*
X019281Y027572D02*
X019088Y027766D01*
X019052Y027796D02*
X019004Y027748D01*
X018907Y027748D01*
X018859Y027796D01*
X018859Y027990D01*
X018907Y028038D01*
X019004Y028038D01*
X019052Y027990D01*
X019065Y028091D02*
X018968Y028188D01*
X019263Y028236D02*
X019311Y028236D01*
X019281Y027766D02*
X019281Y027572D01*
X018209Y027389D02*
X018209Y027196D01*
X018209Y027292D02*
X017918Y027292D01*
X018015Y027196D01*
X017918Y027094D02*
X017918Y026901D01*
X018209Y026901D01*
X018063Y026901D02*
X018063Y026998D01*
X020365Y025695D02*
X020365Y025405D01*
X020510Y025405D01*
X020558Y025453D01*
X020558Y025647D01*
X020510Y025695D01*
X020365Y025695D01*
X020660Y025598D02*
X020756Y025695D01*
X020756Y025405D01*
X020660Y025405D02*
X020853Y025405D01*
X020892Y026652D02*
X020989Y026652D01*
X021037Y026700D01*
X021138Y026652D02*
X021332Y026652D01*
X021235Y026652D02*
X021235Y026942D01*
X021138Y026846D01*
X021037Y026894D02*
X020989Y026942D01*
X020892Y026942D01*
X020844Y026894D01*
X020844Y026700D01*
X020892Y026652D01*
X021433Y026652D02*
X021433Y026700D01*
X021627Y026894D01*
X021627Y026942D01*
X021433Y026942D01*
X021715Y026905D02*
X021860Y026905D01*
X021908Y026857D01*
X021908Y026760D01*
X021860Y026712D01*
X021715Y026712D01*
X021812Y026712D02*
X021908Y026615D01*
X022010Y026663D02*
X022058Y026615D01*
X022155Y026615D01*
X022203Y026663D01*
X022203Y026857D01*
X022155Y026905D01*
X022058Y026905D01*
X022010Y026857D01*
X022010Y026808D01*
X022058Y026760D01*
X022203Y026760D01*
X021715Y026615D02*
X021715Y026905D01*
X022321Y027403D02*
X022370Y027355D01*
X022466Y027355D01*
X022515Y027403D01*
X022616Y027355D02*
X022809Y027355D01*
X022713Y027355D02*
X022713Y027645D01*
X022616Y027549D01*
X022515Y027597D02*
X022466Y027645D01*
X022370Y027645D01*
X022321Y027597D01*
X022321Y027403D01*
X022910Y027403D02*
X022959Y027355D01*
X023056Y027355D01*
X023104Y027403D01*
X023104Y027452D01*
X023056Y027500D01*
X022910Y027500D01*
X022910Y027403D01*
X022910Y027500D02*
X023007Y027597D01*
X023104Y027645D01*
X023026Y028122D02*
X022929Y028122D01*
X022881Y028170D01*
X022779Y028122D02*
X022586Y028122D01*
X022683Y028122D02*
X022683Y028412D01*
X022586Y028315D01*
X022485Y028363D02*
X022436Y028412D01*
X022340Y028412D01*
X022291Y028363D01*
X022291Y028170D01*
X022340Y028122D01*
X022436Y028122D01*
X022485Y028170D01*
X022881Y028363D02*
X022929Y028412D01*
X023026Y028412D01*
X023074Y028363D01*
X023074Y028315D01*
X023026Y028267D01*
X023074Y028218D01*
X023074Y028170D01*
X023026Y028122D01*
X023026Y028267D02*
X022977Y028267D01*
X023015Y028866D02*
X022919Y028866D01*
X022870Y028915D01*
X022870Y029011D02*
X022967Y029060D01*
X023015Y029060D01*
X023064Y029011D01*
X023064Y028915D01*
X023015Y028866D01*
X022870Y029011D02*
X022870Y029157D01*
X023064Y029157D01*
X022672Y029157D02*
X022672Y028866D01*
X022576Y028866D02*
X022769Y028866D01*
X022576Y029060D02*
X022672Y029157D01*
X022475Y029108D02*
X022426Y029157D01*
X022329Y029157D01*
X022281Y029108D01*
X022281Y028915D01*
X022329Y028866D01*
X022426Y028866D01*
X022475Y028915D01*
X020559Y029527D02*
X020365Y029527D01*
X020462Y029527D02*
X020462Y029817D01*
X020365Y029721D01*
X020264Y029817D02*
X020264Y029575D01*
X020216Y029527D01*
X020119Y029527D01*
X020071Y029575D01*
X020071Y029817D01*
X019731Y029582D02*
X019731Y029292D01*
X019634Y029292D02*
X019828Y029292D01*
X019634Y029485D02*
X019731Y029582D01*
X019533Y029534D02*
X019533Y029437D01*
X019485Y029389D01*
X019339Y029389D01*
X019339Y029292D02*
X019339Y029582D01*
X019485Y029582D01*
X019533Y029534D01*
X019436Y029389D02*
X019533Y029292D01*
X019288Y029177D02*
X019191Y029129D01*
X019094Y029032D01*
X018993Y029129D02*
X018945Y029177D01*
X018848Y029177D01*
X018800Y029129D01*
X020707Y030720D02*
X020755Y030769D01*
X020755Y030865D01*
X020707Y030914D01*
X020865Y031117D02*
X021155Y031117D01*
X021155Y031020D02*
X021155Y031214D01*
X020962Y031020D02*
X020865Y031117D01*
X021615Y031663D02*
X021663Y031615D01*
X021760Y031615D01*
X021808Y031663D01*
X021910Y031615D02*
X022103Y031615D01*
X022006Y031615D02*
X022006Y031905D01*
X021910Y031808D01*
X021808Y031857D02*
X021760Y031905D01*
X021663Y031905D01*
X021615Y031857D01*
X021615Y031663D01*
X022204Y031615D02*
X022398Y031808D01*
X022398Y031857D01*
X022349Y031905D01*
X022253Y031905D01*
X022204Y031857D01*
X022204Y031615D02*
X022398Y031615D01*
X022760Y030755D02*
X022905Y030755D01*
X022953Y030707D01*
X022953Y030610D01*
X022905Y030562D01*
X022760Y030562D01*
X022760Y030465D02*
X022760Y030755D01*
X023054Y030707D02*
X023103Y030755D01*
X023199Y030755D01*
X023248Y030707D01*
X023248Y030658D01*
X023199Y030610D01*
X023248Y030562D01*
X023248Y030513D01*
X023199Y030465D01*
X023103Y030465D01*
X023054Y030513D01*
X023151Y030610D02*
X023199Y030610D01*
X020353Y033505D02*
X020160Y033505D01*
X020353Y033698D01*
X020353Y033747D01*
X020305Y033795D01*
X020208Y033795D01*
X020160Y033747D01*
X020058Y033795D02*
X020058Y033553D01*
X020010Y033505D01*
X019913Y033505D01*
X019865Y033553D01*
X019865Y033795D01*
X019537Y033498D02*
X019585Y033449D01*
X019585Y033353D01*
X019537Y033304D01*
X019343Y033498D01*
X019537Y033498D01*
X019537Y033304D02*
X019343Y033304D01*
X019295Y033353D01*
X019295Y033449D01*
X019343Y033498D01*
X019585Y033203D02*
X019585Y033010D01*
X019585Y033106D02*
X019295Y033106D01*
X019392Y033010D01*
X019343Y032908D02*
X019295Y032860D01*
X019295Y032763D01*
X019343Y032715D01*
X019537Y032715D01*
X019585Y032763D01*
X019585Y032860D01*
X019537Y032908D01*
X018708Y032941D02*
X018708Y033038D01*
X018659Y033086D01*
X018708Y033187D02*
X018708Y033381D01*
X018708Y033284D02*
X018418Y033284D01*
X018514Y033187D01*
X018466Y033086D02*
X018418Y033038D01*
X018418Y032941D01*
X018466Y032893D01*
X018659Y032893D01*
X018708Y032941D01*
X018406Y032666D02*
X018406Y032376D01*
X018310Y032376D02*
X018503Y032376D01*
X018310Y032569D02*
X018406Y032666D01*
X018208Y032618D02*
X018160Y032666D01*
X018063Y032666D01*
X018015Y032618D01*
X018015Y032569D01*
X018063Y032521D01*
X018160Y032521D01*
X018208Y032473D01*
X018208Y032424D01*
X018160Y032376D01*
X018063Y032376D01*
X018015Y032424D01*
X017465Y032545D02*
X017465Y032835D01*
X017320Y032690D01*
X017514Y032690D01*
X017219Y032593D02*
X017219Y032787D01*
X017171Y032835D01*
X017026Y032835D01*
X017026Y032545D01*
X017171Y032545D01*
X017219Y032593D01*
X017217Y033395D02*
X017217Y033685D01*
X017120Y033588D01*
X017019Y033540D02*
X016971Y033492D01*
X016826Y033492D01*
X016826Y033395D02*
X016826Y033685D01*
X016971Y033685D01*
X017019Y033637D01*
X017019Y033540D01*
X017120Y033395D02*
X017314Y033395D01*
X017322Y033745D02*
X017322Y034035D01*
X017226Y033938D01*
X017125Y033890D02*
X017076Y033842D01*
X016931Y033842D01*
X016931Y033745D02*
X016931Y034035D01*
X017076Y034035D01*
X017125Y033987D01*
X017125Y033890D01*
X017226Y033745D02*
X017419Y033745D01*
X017520Y033745D02*
X017714Y033745D01*
X017617Y033745D02*
X017617Y034035D01*
X017520Y033938D01*
X017565Y034145D02*
X017469Y034145D01*
X017420Y034193D01*
X017614Y034387D01*
X017614Y034193D01*
X017565Y034145D01*
X017420Y034193D02*
X017420Y034387D01*
X017469Y034435D01*
X017565Y034435D01*
X017614Y034387D01*
X017319Y034145D02*
X017126Y034145D01*
X017222Y034145D02*
X017222Y034435D01*
X017126Y034338D01*
X017025Y034290D02*
X016976Y034242D01*
X016831Y034242D01*
X016831Y034145D02*
X016831Y034435D01*
X016976Y034435D01*
X017025Y034387D01*
X017025Y034290D01*
X016830Y034035D02*
X016636Y034035D01*
X016733Y034035D02*
X016733Y033745D01*
X016725Y033685D02*
X016531Y033685D01*
X016628Y033685D02*
X016628Y033395D01*
X016633Y034145D02*
X016633Y034435D01*
X016536Y034435D02*
X016730Y034435D01*
X018045Y034551D02*
X018335Y034551D01*
X018335Y034454D02*
X018335Y034648D01*
X018142Y034454D02*
X018045Y034551D01*
X018045Y034256D02*
X018335Y034256D01*
X018335Y034160D02*
X018335Y034353D01*
X018142Y034160D02*
X018045Y034256D01*
X018093Y034058D02*
X018190Y034058D01*
X018238Y034010D01*
X018238Y033865D01*
X018238Y033962D02*
X018335Y034058D01*
X018335Y033865D02*
X018045Y033865D01*
X018045Y034010D01*
X018093Y034058D01*
X018626Y034145D02*
X018626Y034435D01*
X018771Y034435D01*
X018819Y034387D01*
X018819Y034290D01*
X018771Y034242D01*
X018626Y034242D01*
X018722Y034242D02*
X018819Y034145D01*
X018920Y034193D02*
X018969Y034145D01*
X019065Y034145D01*
X019114Y034193D01*
X019114Y034290D01*
X019065Y034338D01*
X019017Y034338D01*
X018920Y034290D01*
X018920Y034435D01*
X019114Y034435D01*
X019115Y034545D02*
X019115Y034835D01*
X018970Y034690D01*
X019164Y034690D01*
X018869Y034690D02*
X018821Y034642D01*
X018676Y034642D01*
X018772Y034642D02*
X018869Y034545D01*
X018869Y034690D02*
X018869Y034787D01*
X018821Y034835D01*
X018676Y034835D01*
X018676Y034545D01*
X018720Y036055D02*
X018914Y036055D01*
X018817Y036055D02*
X018817Y036345D01*
X018720Y036248D01*
X018619Y036345D02*
X018619Y036055D01*
X018522Y036152D01*
X018426Y036055D01*
X018426Y036345D01*
X018325Y036297D02*
X018276Y036345D01*
X018179Y036345D01*
X018131Y036297D01*
X018131Y036248D01*
X018179Y036200D01*
X018276Y036200D01*
X018325Y036152D01*
X018325Y036103D01*
X018276Y036055D01*
X018179Y036055D01*
X018131Y036103D01*
X017464Y035987D02*
X017415Y036035D01*
X017319Y036035D01*
X017270Y035987D01*
X017270Y035938D01*
X017319Y035890D01*
X017464Y035890D01*
X017464Y035793D02*
X017464Y035987D01*
X017464Y035793D02*
X017415Y035745D01*
X017319Y035745D01*
X017270Y035793D01*
X017169Y035890D02*
X017121Y035842D01*
X016976Y035842D01*
X016976Y035745D02*
X016976Y036035D01*
X017121Y036035D01*
X017169Y035987D01*
X017169Y035890D01*
X016875Y036035D02*
X016681Y036035D01*
X016778Y036035D02*
X016778Y035745D01*
X021065Y034545D02*
X021065Y034303D01*
X021113Y034255D01*
X021210Y034255D01*
X021258Y034303D01*
X021258Y034545D01*
X021360Y034497D02*
X021408Y034545D01*
X021505Y034545D01*
X021553Y034497D01*
X021553Y034448D01*
X021505Y034400D01*
X021553Y034352D01*
X021553Y034303D01*
X021505Y034255D01*
X021408Y034255D01*
X021360Y034303D01*
X021456Y034400D02*
X021505Y034400D01*
X022645Y034415D02*
X022645Y034560D01*
X022693Y034608D01*
X022790Y034608D01*
X022838Y034560D01*
X022838Y034415D01*
X022838Y034512D02*
X022935Y034608D01*
X022935Y034710D02*
X022887Y034710D01*
X022693Y034903D01*
X022645Y034903D01*
X022645Y034710D01*
X022645Y034415D02*
X022935Y034415D01*
X022903Y035165D02*
X022710Y035165D01*
X022806Y035165D02*
X022806Y035455D01*
X022710Y035358D01*
X022608Y035407D02*
X022560Y035455D01*
X022463Y035455D01*
X022415Y035407D01*
X022415Y035213D01*
X022463Y035165D01*
X022560Y035165D01*
X022608Y035213D01*
X022608Y035515D02*
X022512Y035612D01*
X022560Y035612D02*
X022415Y035612D01*
X022415Y035515D02*
X022415Y035805D01*
X022560Y035805D01*
X022608Y035757D01*
X022608Y035660D01*
X022560Y035612D01*
X022710Y035708D02*
X022806Y035805D01*
X022806Y035515D01*
X022710Y035515D02*
X022903Y035515D01*
X023004Y035660D02*
X023198Y035660D01*
X023149Y035515D02*
X023149Y035805D01*
X023004Y035660D01*
X023053Y035865D02*
X023004Y035913D01*
X023198Y036107D01*
X023198Y035913D01*
X023149Y035865D01*
X023053Y035865D01*
X023004Y035913D02*
X023004Y036107D01*
X023053Y036155D01*
X023149Y036155D01*
X023198Y036107D01*
X023149Y036215D02*
X023053Y036215D01*
X023004Y036263D01*
X023004Y036360D02*
X023101Y036408D01*
X023149Y036408D01*
X023198Y036360D01*
X023198Y036263D01*
X023149Y036215D01*
X023004Y036360D02*
X023004Y036505D01*
X023198Y036505D01*
X022806Y036505D02*
X022806Y036215D01*
X022758Y036155D02*
X022710Y036107D01*
X022758Y036155D02*
X022855Y036155D01*
X022903Y036107D01*
X022903Y036058D01*
X022710Y035865D01*
X022903Y035865D01*
X022608Y035913D02*
X022560Y035865D01*
X022463Y035865D01*
X022415Y035913D01*
X022415Y036107D01*
X022463Y036155D01*
X022560Y036155D01*
X022608Y036107D01*
X022608Y036215D02*
X022512Y036312D01*
X022560Y036312D02*
X022415Y036312D01*
X022415Y036215D02*
X022415Y036505D01*
X022560Y036505D01*
X022608Y036457D01*
X022608Y036360D01*
X022560Y036312D01*
X022710Y036408D02*
X022806Y036505D01*
X022710Y036215D02*
X022903Y036215D01*
X023149Y035455D02*
X023004Y035310D01*
X023198Y035310D01*
X023149Y035165D02*
X023149Y035455D01*
D12*
X022500Y034900D02*
X022500Y033900D01*
X022000Y033900D01*
X022000Y034900D01*
X022500Y034900D01*
X022300Y034900D02*
X022300Y035300D01*
X022300Y035700D01*
X022300Y036100D01*
X021500Y036100D01*
X021500Y035700D01*
X022300Y035700D01*
X021500Y035700D01*
X021500Y035300D01*
X022300Y035300D01*
X021500Y035300D01*
X021500Y034900D01*
X022000Y034900D01*
X022000Y033900D01*
X021500Y033900D01*
X021500Y034900D01*
X021500Y036400D01*
X019000Y036400D01*
X019000Y034900D01*
X021500Y034900D01*
X022300Y034900D01*
X021500Y034900D02*
X020000Y034900D01*
X019200Y034900D01*
X019200Y034500D01*
X020000Y034500D01*
X020000Y034900D01*
X020000Y033900D01*
X021500Y033900D01*
X021500Y034900D01*
X021500Y036100D02*
X021500Y036500D01*
X022300Y036500D01*
X022300Y036100D01*
X021500Y036100D01*
X022600Y036500D02*
X022600Y025500D01*
X040100Y025500D01*
X040100Y036500D01*
X022600Y036500D01*
X020000Y034500D02*
X019200Y034500D01*
X019200Y034100D01*
X020000Y034100D01*
X020000Y034500D01*
X020000Y033800D02*
X020000Y033400D01*
X020400Y033800D01*
X020000Y033800D01*
X022000Y033800D01*
X022000Y031800D01*
X020000Y031800D01*
X020000Y031000D01*
X020400Y031000D01*
X020400Y031800D01*
X020000Y031800D01*
X020000Y033800D01*
X020000Y033764D02*
X020364Y033764D01*
X020315Y033715D02*
X020000Y033715D01*
X020000Y033667D02*
X020267Y033667D01*
X020218Y033618D02*
X020000Y033618D01*
X020000Y033570D02*
X020170Y033570D01*
X020121Y033521D02*
X020000Y033521D01*
X020000Y033473D02*
X020073Y033473D01*
X020024Y033424D02*
X020000Y033424D01*
X019900Y033000D02*
X019500Y033000D01*
X019500Y032200D01*
X019500Y034000D01*
X018600Y034000D01*
X018600Y032200D01*
X019500Y032200D01*
X019900Y032200D01*
X019900Y033000D01*
X019870Y032200D02*
X019990Y032200D01*
X019990Y032080D01*
X019870Y032200D01*
X019907Y032163D02*
X019990Y032163D01*
X019990Y032200D02*
X019990Y030610D01*
X019990Y030600D02*
X018600Y030600D01*
X018600Y032200D01*
X019990Y032200D01*
X019990Y032115D02*
X019955Y032115D01*
X020400Y031800D02*
X020400Y031000D01*
X020800Y031000D01*
X020800Y031800D01*
X020400Y031800D01*
X020800Y031800D02*
X020800Y031000D01*
X021200Y031000D01*
X022200Y031000D01*
X022200Y029500D01*
X022200Y028700D01*
X020800Y028700D01*
X020800Y029500D01*
X022200Y029500D01*
X021200Y029500D01*
X021200Y031000D01*
X021200Y031800D01*
X020800Y031800D01*
X021200Y031800D02*
X021600Y031800D01*
X021600Y031000D01*
X021600Y031500D01*
X022600Y031500D01*
X022600Y031000D01*
X021600Y031000D01*
X021200Y031000D01*
X021200Y031800D01*
X022000Y032650D02*
X022400Y032650D01*
X022400Y033450D01*
X022000Y033450D01*
X022000Y032650D01*
X021200Y030450D02*
X019400Y030450D01*
X019000Y030450D01*
X019000Y029650D01*
X019400Y029650D01*
X019400Y029250D01*
X018600Y029250D01*
X018600Y029650D01*
X019400Y029650D01*
X019400Y030450D01*
X019400Y029550D01*
X021200Y029550D01*
X021200Y030450D01*
X020800Y029550D02*
X019800Y029550D01*
X019800Y028550D01*
X019400Y028550D01*
X019400Y027750D01*
X019800Y027750D01*
X019800Y028550D01*
X019400Y028550D01*
X019400Y029350D01*
X019800Y029350D01*
X019800Y028550D01*
X019910Y028550D01*
X019800Y028660D01*
X019800Y028550D01*
X020800Y028550D01*
X020000Y028550D01*
X020000Y028150D01*
X020800Y028150D01*
X020800Y028550D01*
X020800Y029550D01*
X020800Y028700D02*
X020800Y027900D01*
X020800Y027100D01*
X021200Y027100D01*
X021200Y027900D01*
X020800Y027900D01*
X022200Y027900D01*
X022200Y027500D01*
X022200Y027000D01*
X021200Y027000D01*
X021200Y027500D01*
X022200Y027500D01*
X021400Y027500D01*
X021400Y027900D01*
X022200Y027900D01*
X022200Y028700D01*
X020800Y028700D01*
X020800Y028150D02*
X020000Y028150D01*
X020000Y027750D01*
X020800Y027750D01*
X020800Y028150D01*
X020800Y027500D02*
X019300Y027500D01*
X019300Y025750D01*
X020800Y025750D01*
X020800Y027500D01*
X019886Y028574D02*
X019800Y028574D01*
X019800Y028623D02*
X019837Y028623D01*
X018950Y028850D02*
X018950Y027450D01*
X018150Y027450D01*
X018150Y028850D01*
X018950Y028850D01*
X018700Y028850D02*
X018700Y029250D01*
X017900Y029250D01*
X017900Y028850D01*
X018700Y028850D01*
X018571Y029250D02*
X016571Y029250D01*
X016600Y029250D02*
X016600Y028550D01*
X017210Y028550D01*
X017290Y028550D01*
X017900Y028550D01*
X017900Y029250D01*
X017290Y029250D01*
X017210Y029250D01*
X016600Y029250D01*
X016559Y028556D02*
X018134Y028556D01*
X018134Y025694D01*
X016559Y025694D01*
X016559Y028556D01*
X018147Y027456D02*
X018147Y025644D01*
X019053Y025644D01*
X019053Y027456D01*
X018147Y027456D01*
X018571Y029250D02*
X018571Y032750D01*
X016571Y032750D01*
X016600Y032750D02*
X016600Y033450D01*
X017210Y033450D01*
X017290Y033450D01*
X017900Y033450D01*
X017900Y032750D01*
X018400Y032750D01*
X018400Y033750D01*
X017900Y033750D01*
X017900Y032750D01*
X017290Y032750D01*
X017210Y032750D01*
X016600Y032750D01*
X018600Y030450D02*
X018600Y029650D01*
X019000Y029650D01*
X019000Y030450D01*
X018600Y030450D01*
X039600Y033950D02*
X040400Y033950D01*
X040400Y034350D01*
X039600Y034350D01*
X039600Y033950D01*
X040900Y031750D02*
X040900Y031350D01*
X041700Y031350D01*
X041700Y031750D01*
X040900Y031750D01*
X041159Y031474D02*
X040876Y031191D01*
X041441Y030626D01*
X041724Y030909D01*
X041159Y031474D01*
X041200Y030800D02*
X041200Y030000D01*
X041600Y030000D01*
X041600Y030800D01*
X041200Y030800D01*
X042555Y029500D02*
X042555Y032500D01*
X044500Y032500D01*
X044500Y029500D01*
X042555Y029500D01*
D13*
X041830Y028484D02*
X042184Y028130D01*
X042184Y028131D02*
X042204Y028108D01*
X042221Y028083D01*
X042235Y028057D01*
X042246Y028028D01*
X042253Y027999D01*
X042257Y027969D01*
X042257Y027939D01*
X042253Y027909D01*
X042246Y027880D01*
X042235Y027851D01*
X042221Y027825D01*
X042204Y027800D01*
X042184Y027777D01*
X041654Y027246D01*
X040946Y027954D01*
X041477Y028484D01*
X041500Y028504D01*
X041525Y028521D01*
X041551Y028535D01*
X041580Y028546D01*
X041609Y028553D01*
X041639Y028557D01*
X041669Y028557D01*
X041699Y028553D01*
X041728Y028546D01*
X041757Y028535D01*
X041783Y028521D01*
X041808Y028504D01*
X041831Y028484D01*
X040946Y027954D02*
X040416Y027423D01*
X040396Y027400D01*
X040379Y027375D01*
X040365Y027349D01*
X040354Y027320D01*
X040347Y027291D01*
X040343Y027261D01*
X040343Y027231D01*
X040347Y027201D01*
X040354Y027172D01*
X040365Y027143D01*
X040379Y027117D01*
X040396Y027092D01*
X040416Y027069D01*
X040416Y027070D02*
X040770Y026716D01*
X040769Y026716D02*
X040792Y026696D01*
X040817Y026679D01*
X040843Y026665D01*
X040872Y026654D01*
X040901Y026647D01*
X040931Y026643D01*
X040961Y026643D01*
X040991Y026647D01*
X041020Y026654D01*
X041049Y026665D01*
X041075Y026679D01*
X041100Y026696D01*
X041123Y026716D01*
X041654Y027246D01*
X019607Y025416D02*
X019420Y025416D01*
X019513Y025416D02*
X019513Y025696D01*
X019420Y025603D01*
X019312Y025416D02*
X019125Y025416D01*
X019125Y025696D01*
D14*
X020000Y035150D03*
D15*
X020050Y027625D03*
D16*
X016550Y028900D03*
X016550Y033100D03*
D17*
X040593Y027246D03*
X040946Y026893D03*
X041300Y027246D03*
X041654Y027600D03*
X040946Y027600D03*
X041654Y028307D03*
D18*
X040350Y036750D03*
M02*
