G75*
%MOIN*%
%OFA0B0*%
%FSLAX24Y24*%
%IPPOS*%
%LPD*%
%AMOC8*
5,1,8,0,0,1.08239X$1,22.5*
%
%ADD10C,0.0000*%
%ADD11R,0.0472X0.0472*%
%ADD12C,0.0472*%
%ADD13R,0.0740X0.0740*%
%ADD14C,0.0740*%
%ADD15C,0.0080*%
%ADD16C,0.0197*%
%ADD17C,0.0240*%
D10*
X022500Y025000D02*
X022500Y029000D01*
X032500Y029000D01*
X032500Y025000D01*
X022500Y025000D01*
D11*
X023000Y027500D03*
D12*
X024000Y027500D03*
X024000Y028500D03*
X023000Y028500D03*
X025000Y028500D03*
X026000Y028500D03*
X027000Y028500D03*
X027000Y027500D03*
X026000Y027500D03*
X025000Y027500D03*
X028000Y027500D03*
X029000Y027500D03*
X029000Y028500D03*
X028000Y028500D03*
D13*
X030000Y026500D03*
X023000Y025500D03*
D14*
X024000Y025500D03*
X025000Y025500D03*
X026000Y025500D03*
X027000Y025500D03*
X028000Y025500D03*
X029000Y025500D03*
X030000Y025500D03*
X031000Y025500D03*
X032000Y025500D03*
X029000Y026500D03*
D15*
X029470Y026492D02*
X029530Y026492D01*
X029530Y026570D02*
X029470Y026570D01*
X029470Y026593D02*
X029398Y026766D01*
X029266Y026898D01*
X029093Y026970D01*
X028907Y026970D01*
X028734Y026898D01*
X028602Y026766D01*
X028530Y026593D01*
X028530Y026407D01*
X028602Y026234D01*
X028734Y026102D01*
X028907Y026030D01*
X029093Y026030D01*
X029266Y026102D01*
X029398Y026234D01*
X029470Y026407D01*
X029470Y026593D01*
X029447Y026649D02*
X029530Y026649D01*
X029530Y026727D02*
X029415Y026727D01*
X029359Y026806D02*
X029530Y026806D01*
X029530Y026884D02*
X029281Y026884D01*
X029112Y026963D02*
X029581Y026963D01*
X029589Y026970D02*
X029530Y026911D01*
X029530Y026089D01*
X029589Y026030D01*
X030411Y026030D01*
X030470Y026089D01*
X030470Y026911D01*
X030411Y026970D01*
X029589Y026970D01*
X029252Y027277D02*
X032362Y027277D01*
X032362Y027355D02*
X029304Y027355D01*
X029285Y027310D02*
X029336Y027433D01*
X029336Y027567D01*
X029285Y027690D01*
X029190Y027785D01*
X029067Y027836D01*
X028933Y027836D01*
X028810Y027785D01*
X028715Y027690D01*
X028664Y027567D01*
X028664Y027433D01*
X028715Y027310D01*
X028810Y027215D01*
X028933Y027164D01*
X029067Y027164D01*
X029190Y027215D01*
X029285Y027310D01*
X029336Y027434D02*
X032362Y027434D01*
X032362Y027512D02*
X029336Y027512D01*
X029326Y027591D02*
X032362Y027591D01*
X032362Y027669D02*
X029294Y027669D01*
X029228Y027748D02*
X032362Y027748D01*
X032362Y027826D02*
X029092Y027826D01*
X028908Y027826D02*
X028637Y027826D01*
X028591Y027780D02*
X028975Y028164D01*
X029067Y028164D01*
X029190Y028215D01*
X029285Y028310D01*
X029336Y028433D01*
X029336Y028567D01*
X029285Y028690D01*
X029190Y028785D01*
X029067Y028836D01*
X028933Y028836D01*
X028810Y028785D01*
X028715Y028690D01*
X028664Y028567D01*
X028664Y028475D01*
X028409Y028220D01*
X028195Y028220D01*
X028285Y028310D01*
X028336Y028433D01*
X028336Y028567D01*
X028285Y028690D01*
X028190Y028785D01*
X028067Y028836D01*
X027933Y028836D01*
X027810Y028785D01*
X027715Y028690D01*
X027664Y028567D01*
X027664Y028433D01*
X027715Y028310D01*
X027805Y028220D01*
X027220Y028220D01*
X027226Y028224D01*
X027276Y028274D01*
X027315Y028332D01*
X027341Y028396D01*
X027354Y028460D01*
X027040Y028460D01*
X027040Y028540D01*
X026960Y028540D01*
X026960Y028854D01*
X026896Y028841D01*
X026832Y028815D01*
X026774Y028776D01*
X026724Y028726D01*
X026685Y028668D01*
X026659Y028604D01*
X026646Y028540D01*
X026960Y028540D01*
X026960Y028460D01*
X026646Y028460D01*
X026659Y028396D01*
X026685Y028332D01*
X026724Y028274D01*
X026774Y028224D01*
X026780Y028220D01*
X026220Y028220D01*
X026226Y028224D01*
X026276Y028274D01*
X026315Y028332D01*
X026341Y028396D01*
X026354Y028460D01*
X026040Y028460D01*
X026040Y028540D01*
X025960Y028540D01*
X025960Y028854D01*
X025896Y028841D01*
X025832Y028815D01*
X025774Y028776D01*
X025724Y028726D01*
X025685Y028668D01*
X025659Y028604D01*
X025646Y028540D01*
X025960Y028540D01*
X025960Y028460D01*
X025646Y028460D01*
X025659Y028396D01*
X025685Y028332D01*
X025724Y028274D01*
X025774Y028224D01*
X025780Y028220D01*
X025220Y028220D01*
X025226Y028224D01*
X025276Y028274D01*
X025315Y028332D01*
X025341Y028396D01*
X025354Y028460D01*
X025040Y028460D01*
X025040Y028540D01*
X024960Y028540D01*
X024960Y028854D01*
X024896Y028841D01*
X024832Y028815D01*
X024774Y028776D01*
X024724Y028726D01*
X024685Y028668D01*
X024659Y028604D01*
X024646Y028540D01*
X024960Y028540D01*
X024960Y028460D01*
X024646Y028460D01*
X024659Y028396D01*
X024685Y028332D01*
X024724Y028274D01*
X024774Y028224D01*
X024780Y028220D01*
X024220Y028220D01*
X024226Y028224D01*
X024276Y028274D01*
X024315Y028332D01*
X024341Y028396D01*
X024354Y028460D01*
X024040Y028460D01*
X024040Y028540D01*
X023960Y028540D01*
X023960Y028854D01*
X023896Y028841D01*
X023832Y028815D01*
X023774Y028776D01*
X023724Y028726D01*
X023685Y028668D01*
X023659Y028604D01*
X023646Y028540D01*
X023960Y028540D01*
X023960Y028460D01*
X023646Y028460D01*
X023659Y028396D01*
X023685Y028332D01*
X023724Y028274D01*
X023774Y028224D01*
X023797Y028208D01*
X023336Y027747D01*
X023336Y027778D01*
X023278Y027836D01*
X022722Y027836D01*
X022664Y027778D01*
X022664Y027222D01*
X022722Y027164D01*
X023278Y027164D01*
X023280Y027166D01*
X023280Y026091D01*
X023159Y025970D01*
X022638Y025970D01*
X022638Y028862D01*
X032362Y028862D01*
X032362Y025830D01*
X032318Y025873D01*
X032256Y025918D01*
X032188Y025953D01*
X032114Y025977D01*
X032040Y025988D01*
X032040Y025540D01*
X031960Y025540D01*
X031960Y025988D01*
X031886Y025977D01*
X031812Y025953D01*
X031744Y025918D01*
X031682Y025873D01*
X031627Y025818D01*
X031582Y025756D01*
X031547Y025688D01*
X031523Y025614D01*
X031512Y025540D01*
X031960Y025540D01*
X031960Y025460D01*
X031512Y025460D01*
X031523Y025386D01*
X031547Y025312D01*
X031582Y025244D01*
X031627Y025182D01*
X031670Y025138D01*
X031303Y025138D01*
X031398Y025234D01*
X031470Y025407D01*
X031470Y025593D01*
X031398Y025766D01*
X031266Y025898D01*
X031093Y025970D01*
X030907Y025970D01*
X030734Y025898D01*
X030602Y025766D01*
X030530Y025593D01*
X030530Y025407D01*
X030602Y025234D01*
X030697Y025138D01*
X030303Y025138D01*
X030398Y025234D01*
X030470Y025407D01*
X030470Y025593D01*
X030398Y025766D01*
X030266Y025898D01*
X030093Y025970D01*
X029907Y025970D01*
X029734Y025898D01*
X029602Y025766D01*
X029530Y025593D01*
X029530Y025407D01*
X029602Y025234D01*
X029697Y025138D01*
X029303Y025138D01*
X029398Y025234D01*
X029470Y025407D01*
X029470Y025593D01*
X029398Y025766D01*
X029266Y025898D01*
X029093Y025970D01*
X028907Y025970D01*
X028734Y025898D01*
X028602Y025766D01*
X028530Y025593D01*
X028530Y025407D01*
X028602Y025234D01*
X028697Y025138D01*
X028303Y025138D01*
X028398Y025234D01*
X028470Y025407D01*
X028470Y025593D01*
X028398Y025766D01*
X028266Y025898D01*
X028093Y025970D01*
X027907Y025970D01*
X027734Y025898D01*
X027602Y025766D01*
X027530Y025593D01*
X027530Y025407D01*
X027602Y025234D01*
X027697Y025138D01*
X027303Y025138D01*
X027398Y025234D01*
X027470Y025407D01*
X027470Y025593D01*
X027398Y025766D01*
X027266Y025898D01*
X027093Y025970D01*
X026907Y025970D01*
X026734Y025898D01*
X026602Y025766D01*
X026530Y025593D01*
X026530Y025407D01*
X026602Y025234D01*
X026697Y025138D01*
X026303Y025138D01*
X026398Y025234D01*
X026470Y025407D01*
X026470Y025593D01*
X026418Y025720D01*
X027140Y026442D01*
X027140Y027194D01*
X027190Y027215D01*
X027285Y027310D01*
X027336Y027433D01*
X027336Y027567D01*
X027285Y027690D01*
X027195Y027780D01*
X027805Y027780D01*
X027715Y027690D01*
X027664Y027567D01*
X027664Y027433D01*
X027715Y027310D01*
X027810Y027215D01*
X027933Y027164D01*
X028067Y027164D01*
X028190Y027215D01*
X028285Y027310D01*
X028336Y027433D01*
X028336Y027567D01*
X028285Y027690D01*
X028195Y027780D01*
X028591Y027780D01*
X028706Y027669D02*
X028294Y027669D01*
X028326Y027591D02*
X028674Y027591D01*
X028664Y027512D02*
X028336Y027512D01*
X028336Y027434D02*
X028664Y027434D01*
X028696Y027355D02*
X028304Y027355D01*
X028252Y027277D02*
X028748Y027277D01*
X028850Y027198D02*
X028150Y027198D01*
X027850Y027198D02*
X027150Y027198D01*
X027140Y027120D02*
X032362Y027120D01*
X032362Y027198D02*
X029150Y027198D01*
X028888Y026963D02*
X027140Y026963D01*
X027140Y027041D02*
X032362Y027041D01*
X032362Y026963D02*
X030419Y026963D01*
X030470Y026884D02*
X032362Y026884D01*
X032362Y026806D02*
X030470Y026806D01*
X030470Y026727D02*
X032362Y026727D01*
X032362Y026649D02*
X030470Y026649D01*
X030470Y026570D02*
X032362Y026570D01*
X032362Y026492D02*
X030470Y026492D01*
X030470Y026413D02*
X032362Y026413D01*
X032362Y026335D02*
X030470Y026335D01*
X030470Y026256D02*
X032362Y026256D01*
X032362Y026178D02*
X030470Y026178D01*
X030470Y026099D02*
X032362Y026099D01*
X032362Y026021D02*
X026718Y026021D01*
X026797Y026099D02*
X028740Y026099D01*
X028658Y026178D02*
X026875Y026178D01*
X026954Y026256D02*
X028592Y026256D01*
X028560Y026335D02*
X027032Y026335D01*
X027111Y026413D02*
X028530Y026413D01*
X028530Y026492D02*
X027140Y026492D01*
X027140Y026570D02*
X028530Y026570D01*
X028553Y026649D02*
X027140Y026649D01*
X027140Y026727D02*
X028585Y026727D01*
X028641Y026806D02*
X027140Y026806D01*
X027140Y026884D02*
X028719Y026884D01*
X029470Y026413D02*
X029530Y026413D01*
X029530Y026335D02*
X029440Y026335D01*
X029408Y026256D02*
X029530Y026256D01*
X029530Y026178D02*
X029342Y026178D01*
X029260Y026099D02*
X029530Y026099D01*
X029699Y025864D02*
X029301Y025864D01*
X029380Y025785D02*
X029620Y025785D01*
X029577Y025707D02*
X029423Y025707D01*
X029456Y025628D02*
X029544Y025628D01*
X029530Y025550D02*
X029470Y025550D01*
X029470Y025471D02*
X029530Y025471D01*
X029536Y025393D02*
X029464Y025393D01*
X029432Y025314D02*
X029568Y025314D01*
X029601Y025236D02*
X029399Y025236D01*
X029322Y025157D02*
X029678Y025157D01*
X030322Y025157D02*
X030678Y025157D01*
X030601Y025236D02*
X030399Y025236D01*
X030432Y025314D02*
X030568Y025314D01*
X030536Y025393D02*
X030464Y025393D01*
X030470Y025471D02*
X030530Y025471D01*
X030530Y025550D02*
X030470Y025550D01*
X030456Y025628D02*
X030544Y025628D01*
X030577Y025707D02*
X030423Y025707D01*
X030380Y025785D02*
X030620Y025785D01*
X030699Y025864D02*
X030301Y025864D01*
X030161Y025942D02*
X030839Y025942D01*
X031161Y025942D02*
X031791Y025942D01*
X031672Y025864D02*
X031301Y025864D01*
X031380Y025785D02*
X031603Y025785D01*
X031557Y025707D02*
X031423Y025707D01*
X031456Y025628D02*
X031528Y025628D01*
X031513Y025550D02*
X031470Y025550D01*
X031470Y025471D02*
X031960Y025471D01*
X031960Y025550D02*
X032040Y025550D01*
X032040Y025628D02*
X031960Y025628D01*
X031960Y025707D02*
X032040Y025707D01*
X032040Y025785D02*
X031960Y025785D01*
X031960Y025864D02*
X032040Y025864D01*
X032040Y025942D02*
X031960Y025942D01*
X032209Y025942D02*
X032362Y025942D01*
X032362Y025864D02*
X032328Y025864D01*
X031522Y025393D02*
X031464Y025393D01*
X031432Y025314D02*
X031547Y025314D01*
X031588Y025236D02*
X031399Y025236D01*
X031322Y025157D02*
X031652Y025157D01*
X029839Y025942D02*
X029161Y025942D01*
X028839Y025942D02*
X028161Y025942D01*
X028301Y025864D02*
X028699Y025864D01*
X028620Y025785D02*
X028380Y025785D01*
X028423Y025707D02*
X028577Y025707D01*
X028544Y025628D02*
X028456Y025628D01*
X028470Y025550D02*
X028530Y025550D01*
X028530Y025471D02*
X028470Y025471D01*
X028464Y025393D02*
X028536Y025393D01*
X028568Y025314D02*
X028432Y025314D01*
X028399Y025236D02*
X028601Y025236D01*
X028678Y025157D02*
X028322Y025157D01*
X027678Y025157D02*
X027322Y025157D01*
X027399Y025236D02*
X027601Y025236D01*
X027568Y025314D02*
X027432Y025314D01*
X027464Y025393D02*
X027536Y025393D01*
X027530Y025471D02*
X027470Y025471D01*
X027470Y025550D02*
X027530Y025550D01*
X027544Y025628D02*
X027456Y025628D01*
X027423Y025707D02*
X027577Y025707D01*
X027620Y025785D02*
X027380Y025785D01*
X027301Y025864D02*
X027699Y025864D01*
X027839Y025942D02*
X027161Y025942D01*
X026839Y025942D02*
X026640Y025942D01*
X026699Y025864D02*
X026561Y025864D01*
X026620Y025785D02*
X026483Y025785D01*
X026423Y025707D02*
X026577Y025707D01*
X026544Y025628D02*
X026456Y025628D01*
X026470Y025550D02*
X026530Y025550D01*
X026530Y025471D02*
X026470Y025471D01*
X026464Y025393D02*
X026536Y025393D01*
X026568Y025314D02*
X026432Y025314D01*
X026399Y025236D02*
X026601Y025236D01*
X026678Y025157D02*
X026322Y025157D01*
X026000Y025500D02*
X027000Y026500D01*
X027000Y027500D01*
X027336Y027512D02*
X027664Y027512D01*
X027664Y027434D02*
X027336Y027434D01*
X027304Y027355D02*
X027696Y027355D01*
X027748Y027277D02*
X027252Y027277D01*
X027326Y027591D02*
X027674Y027591D01*
X027706Y027669D02*
X027294Y027669D01*
X027228Y027748D02*
X027772Y027748D01*
X028228Y027748D02*
X028772Y027748D01*
X028716Y027905D02*
X032362Y027905D01*
X032362Y027983D02*
X028794Y027983D01*
X028873Y028062D02*
X032362Y028062D01*
X032362Y028140D02*
X028951Y028140D01*
X029194Y028219D02*
X032362Y028219D01*
X032362Y028297D02*
X029272Y028297D01*
X029312Y028376D02*
X032362Y028376D01*
X032362Y028454D02*
X029336Y028454D01*
X029336Y028533D02*
X032362Y028533D01*
X032362Y028611D02*
X029318Y028611D01*
X029285Y028690D02*
X032362Y028690D01*
X032362Y028768D02*
X029207Y028768D01*
X028793Y028768D02*
X028207Y028768D01*
X028285Y028690D02*
X028715Y028690D01*
X028682Y028611D02*
X028318Y028611D01*
X028336Y028533D02*
X028664Y028533D01*
X028643Y028454D02*
X028336Y028454D01*
X028312Y028376D02*
X028564Y028376D01*
X028486Y028297D02*
X028272Y028297D01*
X027728Y028297D02*
X027291Y028297D01*
X027333Y028376D02*
X027688Y028376D01*
X027664Y028454D02*
X027353Y028454D01*
X027354Y028540D02*
X027341Y028604D01*
X027315Y028668D01*
X027276Y028726D01*
X027226Y028776D01*
X027168Y028815D01*
X027104Y028841D01*
X027040Y028854D01*
X027040Y028540D01*
X027354Y028540D01*
X027338Y028611D02*
X027682Y028611D01*
X027664Y028533D02*
X027040Y028533D01*
X027040Y028611D02*
X026960Y028611D01*
X026960Y028533D02*
X026040Y028533D01*
X026040Y028540D02*
X026354Y028540D01*
X026341Y028604D01*
X026315Y028668D01*
X026276Y028726D01*
X026226Y028776D01*
X026168Y028815D01*
X026104Y028841D01*
X026040Y028854D01*
X026040Y028540D01*
X026040Y028611D02*
X025960Y028611D01*
X025960Y028533D02*
X025040Y028533D01*
X025040Y028540D02*
X025354Y028540D01*
X025341Y028604D01*
X025315Y028668D01*
X025276Y028726D01*
X025226Y028776D01*
X025168Y028815D01*
X025104Y028841D01*
X025040Y028854D01*
X025040Y028540D01*
X025040Y028611D02*
X024960Y028611D01*
X024960Y028533D02*
X024040Y028533D01*
X024040Y028540D02*
X024354Y028540D01*
X024341Y028604D01*
X024315Y028668D01*
X024276Y028726D01*
X024226Y028776D01*
X024168Y028815D01*
X024104Y028841D01*
X024040Y028854D01*
X024040Y028540D01*
X024040Y028611D02*
X023960Y028611D01*
X023960Y028533D02*
X023040Y028533D01*
X023040Y028540D02*
X023354Y028540D01*
X023341Y028604D01*
X023315Y028668D01*
X023276Y028726D01*
X023226Y028776D01*
X023168Y028815D01*
X023104Y028841D01*
X023040Y028854D01*
X023040Y028540D01*
X023040Y028460D01*
X023354Y028460D01*
X023341Y028396D01*
X023315Y028332D01*
X023276Y028274D01*
X023226Y028224D01*
X023168Y028185D01*
X023104Y028159D01*
X023040Y028146D01*
X023040Y028460D01*
X022960Y028460D01*
X022960Y028146D01*
X022896Y028159D01*
X022832Y028185D01*
X022774Y028224D01*
X022724Y028274D01*
X022685Y028332D01*
X022659Y028396D01*
X022646Y028460D01*
X022960Y028460D01*
X022960Y028540D01*
X022960Y028854D01*
X022896Y028841D01*
X022832Y028815D01*
X022774Y028776D01*
X022724Y028726D01*
X022685Y028668D01*
X022659Y028604D01*
X022646Y028540D01*
X022960Y028540D01*
X023040Y028540D01*
X023040Y028611D02*
X022960Y028611D01*
X022960Y028533D02*
X022638Y028533D01*
X022638Y028611D02*
X022662Y028611D01*
X022638Y028690D02*
X022700Y028690D01*
X022638Y028768D02*
X022766Y028768D01*
X022638Y028847D02*
X022923Y028847D01*
X022960Y028847D02*
X023040Y028847D01*
X023077Y028847D02*
X023923Y028847D01*
X023960Y028847D02*
X024040Y028847D01*
X024077Y028847D02*
X024923Y028847D01*
X024960Y028847D02*
X025040Y028847D01*
X025077Y028847D02*
X025923Y028847D01*
X025960Y028847D02*
X026040Y028847D01*
X026077Y028847D02*
X026923Y028847D01*
X026960Y028847D02*
X027040Y028847D01*
X027077Y028847D02*
X032362Y028847D01*
X027793Y028768D02*
X027234Y028768D01*
X027300Y028690D02*
X027715Y028690D01*
X027040Y028690D02*
X026960Y028690D01*
X026960Y028768D02*
X027040Y028768D01*
X026766Y028768D02*
X026234Y028768D01*
X026300Y028690D02*
X026700Y028690D01*
X026662Y028611D02*
X026338Y028611D01*
X026353Y028454D02*
X026647Y028454D01*
X026667Y028376D02*
X026333Y028376D01*
X026291Y028297D02*
X026709Y028297D01*
X026805Y027780D02*
X026195Y027780D01*
X026285Y027690D01*
X026336Y027567D01*
X026336Y027433D01*
X026285Y027310D01*
X026190Y027215D01*
X026067Y027164D01*
X025933Y027164D01*
X025810Y027215D01*
X025715Y027310D01*
X025664Y027433D01*
X025664Y027567D01*
X025715Y027690D01*
X025805Y027780D01*
X025195Y027780D01*
X025285Y027690D01*
X025336Y027567D01*
X025336Y027433D01*
X025285Y027310D01*
X025190Y027215D01*
X025140Y027194D01*
X025140Y026442D01*
X024418Y025720D01*
X024470Y025593D01*
X024470Y025407D01*
X024398Y025234D01*
X024303Y025138D01*
X024697Y025138D01*
X024602Y025234D01*
X024530Y025407D01*
X024530Y025593D01*
X024602Y025766D01*
X024734Y025898D01*
X024907Y025970D01*
X025093Y025970D01*
X025266Y025898D01*
X025398Y025766D01*
X025470Y025593D01*
X025470Y025407D01*
X025398Y025234D01*
X025303Y025138D01*
X025697Y025138D01*
X025602Y025234D01*
X025530Y025407D01*
X025530Y025593D01*
X025602Y025766D01*
X025734Y025898D01*
X025907Y025970D01*
X026093Y025970D01*
X026220Y025918D01*
X026860Y026558D01*
X026860Y027194D01*
X026810Y027215D01*
X026715Y027310D01*
X026664Y027433D01*
X026664Y027567D01*
X026715Y027690D01*
X026805Y027780D01*
X026772Y027748D02*
X026228Y027748D01*
X026294Y027669D02*
X026706Y027669D01*
X026674Y027591D02*
X026326Y027591D01*
X026336Y027512D02*
X026664Y027512D01*
X026664Y027434D02*
X026336Y027434D01*
X026304Y027355D02*
X026696Y027355D01*
X026748Y027277D02*
X026252Y027277D01*
X026150Y027198D02*
X026850Y027198D01*
X026860Y027120D02*
X025140Y027120D01*
X025150Y027198D02*
X025850Y027198D01*
X025748Y027277D02*
X025252Y027277D01*
X025304Y027355D02*
X025696Y027355D01*
X025664Y027434D02*
X025336Y027434D01*
X025336Y027512D02*
X025664Y027512D01*
X025674Y027591D02*
X025326Y027591D01*
X025294Y027669D02*
X025706Y027669D01*
X025772Y027748D02*
X025228Y027748D01*
X025000Y027500D02*
X025000Y026500D01*
X024000Y025500D01*
X024432Y025314D02*
X024568Y025314D01*
X024536Y025393D02*
X024464Y025393D01*
X024470Y025471D02*
X024530Y025471D01*
X024530Y025550D02*
X024470Y025550D01*
X024456Y025628D02*
X024544Y025628D01*
X024577Y025707D02*
X024423Y025707D01*
X024483Y025785D02*
X024620Y025785D01*
X024561Y025864D02*
X024699Y025864D01*
X024640Y025942D02*
X024839Y025942D01*
X024718Y026021D02*
X026323Y026021D01*
X026401Y026099D02*
X024797Y026099D01*
X024875Y026178D02*
X026480Y026178D01*
X026558Y026256D02*
X024954Y026256D01*
X025032Y026335D02*
X026637Y026335D01*
X026715Y026413D02*
X025111Y026413D01*
X025140Y026492D02*
X026794Y026492D01*
X026860Y026570D02*
X025140Y026570D01*
X025140Y026649D02*
X026860Y026649D01*
X026860Y026727D02*
X025140Y026727D01*
X025140Y026806D02*
X026860Y026806D01*
X026860Y026884D02*
X025140Y026884D01*
X025140Y026963D02*
X026860Y026963D01*
X026860Y027041D02*
X025140Y027041D01*
X024860Y027041D02*
X023720Y027041D01*
X023720Y026963D02*
X024860Y026963D01*
X024860Y026884D02*
X023720Y026884D01*
X023720Y026806D02*
X024860Y026806D01*
X024860Y026727D02*
X023720Y026727D01*
X023720Y026649D02*
X024860Y026649D01*
X024860Y026570D02*
X023720Y026570D01*
X023720Y026492D02*
X024794Y026492D01*
X024860Y026558D02*
X024220Y025918D01*
X024093Y025970D01*
X023907Y025970D01*
X023734Y025898D01*
X023602Y025766D01*
X023530Y025593D01*
X023530Y025407D01*
X023602Y025234D01*
X023697Y025138D01*
X023470Y025138D01*
X023470Y025659D01*
X023720Y025909D01*
X023720Y027305D01*
X023810Y027215D01*
X023933Y027164D01*
X024067Y027164D01*
X024190Y027215D01*
X024285Y027310D01*
X024336Y027433D01*
X024336Y027567D01*
X024285Y027690D01*
X024195Y027780D01*
X024805Y027780D01*
X024715Y027690D01*
X024664Y027567D01*
X024664Y027433D01*
X024715Y027310D01*
X024810Y027215D01*
X024860Y027194D01*
X024860Y026558D01*
X024715Y026413D02*
X023720Y026413D01*
X023720Y026335D02*
X024637Y026335D01*
X024558Y026256D02*
X023720Y026256D01*
X023720Y026178D02*
X024480Y026178D01*
X024401Y026099D02*
X023720Y026099D01*
X023720Y026021D02*
X024323Y026021D01*
X024244Y025942D02*
X024161Y025942D01*
X023839Y025942D02*
X023720Y025942D01*
X023699Y025864D02*
X023675Y025864D01*
X023620Y025785D02*
X023596Y025785D01*
X023577Y025707D02*
X023518Y025707D01*
X023544Y025628D02*
X023470Y025628D01*
X023470Y025550D02*
X023530Y025550D01*
X023530Y025471D02*
X023470Y025471D01*
X023470Y025393D02*
X023536Y025393D01*
X023568Y025314D02*
X023470Y025314D01*
X023470Y025236D02*
X023601Y025236D01*
X023678Y025157D02*
X023470Y025157D01*
X024322Y025157D02*
X024678Y025157D01*
X024601Y025236D02*
X024399Y025236D01*
X025322Y025157D02*
X025678Y025157D01*
X025601Y025236D02*
X025399Y025236D01*
X025432Y025314D02*
X025568Y025314D01*
X025536Y025393D02*
X025464Y025393D01*
X025470Y025471D02*
X025530Y025471D01*
X025530Y025550D02*
X025470Y025550D01*
X025456Y025628D02*
X025544Y025628D01*
X025577Y025707D02*
X025423Y025707D01*
X025380Y025785D02*
X025620Y025785D01*
X025699Y025864D02*
X025301Y025864D01*
X025161Y025942D02*
X025839Y025942D01*
X026161Y025942D02*
X026244Y025942D01*
X024860Y027120D02*
X023720Y027120D01*
X023720Y027198D02*
X023850Y027198D01*
X023748Y027277D02*
X023720Y027277D01*
X024150Y027198D02*
X024850Y027198D01*
X024748Y027277D02*
X024252Y027277D01*
X024304Y027355D02*
X024696Y027355D01*
X024664Y027434D02*
X024336Y027434D01*
X024336Y027512D02*
X024664Y027512D01*
X024674Y027591D02*
X024326Y027591D01*
X024294Y027669D02*
X024706Y027669D01*
X024772Y027748D02*
X024228Y027748D01*
X024291Y028297D02*
X024709Y028297D01*
X024667Y028376D02*
X024333Y028376D01*
X024353Y028454D02*
X024647Y028454D01*
X024662Y028611D02*
X024338Y028611D01*
X024300Y028690D02*
X024700Y028690D01*
X024766Y028768D02*
X024234Y028768D01*
X024040Y028768D02*
X023960Y028768D01*
X023960Y028690D02*
X024040Y028690D01*
X023766Y028768D02*
X023234Y028768D01*
X023300Y028690D02*
X023700Y028690D01*
X023662Y028611D02*
X023338Y028611D01*
X023353Y028454D02*
X023647Y028454D01*
X023667Y028376D02*
X023333Y028376D01*
X023291Y028297D02*
X023709Y028297D01*
X023782Y028219D02*
X023218Y028219D01*
X023040Y028219D02*
X022960Y028219D01*
X022960Y028297D02*
X023040Y028297D01*
X023040Y028376D02*
X022960Y028376D01*
X022960Y028454D02*
X023040Y028454D01*
X023040Y028690D02*
X022960Y028690D01*
X022960Y028768D02*
X023040Y028768D01*
X022647Y028454D02*
X022638Y028454D01*
X022638Y028376D02*
X022667Y028376D01*
X022638Y028297D02*
X022709Y028297D01*
X022638Y028219D02*
X022782Y028219D01*
X022638Y028140D02*
X023729Y028140D01*
X023650Y028062D02*
X022638Y028062D01*
X022638Y027983D02*
X023572Y027983D01*
X023493Y027905D02*
X022638Y027905D01*
X022638Y027826D02*
X022712Y027826D01*
X022664Y027748D02*
X022638Y027748D01*
X022638Y027669D02*
X022664Y027669D01*
X022664Y027591D02*
X022638Y027591D01*
X022638Y027512D02*
X022664Y027512D01*
X022664Y027434D02*
X022638Y027434D01*
X022638Y027355D02*
X022664Y027355D01*
X022664Y027277D02*
X022638Y027277D01*
X022638Y027198D02*
X022688Y027198D01*
X022638Y027120D02*
X023280Y027120D01*
X023280Y027041D02*
X022638Y027041D01*
X022638Y026963D02*
X023280Y026963D01*
X023280Y026884D02*
X022638Y026884D01*
X022638Y026806D02*
X023280Y026806D01*
X023280Y026727D02*
X022638Y026727D01*
X022638Y026649D02*
X023280Y026649D01*
X023280Y026570D02*
X022638Y026570D01*
X022638Y026492D02*
X023280Y026492D01*
X023280Y026413D02*
X022638Y026413D01*
X022638Y026335D02*
X023280Y026335D01*
X023280Y026256D02*
X022638Y026256D01*
X022638Y026178D02*
X023280Y026178D01*
X023280Y026099D02*
X022638Y026099D01*
X022638Y026021D02*
X023209Y026021D01*
X023336Y027748D02*
X023336Y027748D01*
X023288Y027826D02*
X023415Y027826D01*
X024960Y028690D02*
X025040Y028690D01*
X025040Y028768D02*
X024960Y028768D01*
X025234Y028768D02*
X025766Y028768D01*
X025700Y028690D02*
X025300Y028690D01*
X025338Y028611D02*
X025662Y028611D01*
X025647Y028454D02*
X025353Y028454D01*
X025333Y028376D02*
X025667Y028376D01*
X025709Y028297D02*
X025291Y028297D01*
X025960Y028690D02*
X026040Y028690D01*
X026040Y028768D02*
X025960Y028768D01*
D16*
X025500Y028500D03*
X024500Y028500D03*
X023500Y028500D03*
X024500Y027000D03*
X025500Y027000D03*
X025500Y026000D03*
X026500Y027000D03*
X027500Y027000D03*
X028500Y027000D03*
X029500Y027000D03*
X030500Y027000D03*
X030500Y026000D03*
X029500Y026000D03*
X031500Y026000D03*
X028500Y028500D03*
X027500Y028500D03*
X026500Y028500D03*
D17*
X028500Y028000D02*
X029000Y028500D01*
X028500Y028000D02*
X023900Y028000D01*
X023500Y027600D01*
X023500Y026000D01*
X023000Y025500D01*
M02*
