G75*
%MOIN*%
%OFA0B0*%
%FSLAX24Y24*%
%IPPOS*%
%LPD*%
%AMOC8*
5,1,8,0,0,1.08239X$1,22.5*
%
%ADD10C,0.0000*%
%ADD11R,0.0740X0.0740*%
%ADD12C,0.0740*%
%ADD13C,0.0080*%
%ADD14C,0.0197*%
%ADD15C,0.0180*%
D10*
X022500Y025000D02*
X022500Y029000D01*
X033500Y029000D01*
X033500Y025000D01*
X022500Y025000D01*
D11*
X023000Y025500D03*
D12*
X024000Y025500D03*
X025000Y025500D03*
X026000Y025500D03*
X027000Y025500D03*
X028000Y025500D03*
X029000Y025500D03*
X030000Y025500D03*
X031000Y025500D03*
X032000Y025500D03*
X033000Y025500D03*
D13*
X032960Y025471D02*
X032470Y025471D01*
X032512Y025460D02*
X032523Y025386D01*
X032547Y025312D01*
X032582Y025244D01*
X032627Y025182D01*
X032670Y025138D01*
X032303Y025138D01*
X032398Y025234D01*
X032470Y025407D01*
X032470Y025593D01*
X032398Y025766D01*
X032266Y025898D01*
X032093Y025970D01*
X031907Y025970D01*
X031734Y025898D01*
X031602Y025766D01*
X031530Y025593D01*
X031530Y025407D01*
X031602Y025234D01*
X031697Y025138D01*
X031303Y025138D01*
X031398Y025234D01*
X031470Y025407D01*
X031470Y025593D01*
X031398Y025766D01*
X031266Y025898D01*
X031093Y025970D01*
X030907Y025970D01*
X030734Y025898D01*
X030602Y025766D01*
X030530Y025593D01*
X030530Y025407D01*
X030602Y025234D01*
X030697Y025138D01*
X030303Y025138D01*
X030398Y025234D01*
X030470Y025407D01*
X030470Y025593D01*
X030398Y025766D01*
X030266Y025898D01*
X030093Y025970D01*
X029907Y025970D01*
X029734Y025898D01*
X029602Y025766D01*
X029530Y025593D01*
X029530Y025407D01*
X029602Y025234D01*
X029697Y025138D01*
X029303Y025138D01*
X029398Y025234D01*
X029470Y025407D01*
X029470Y025593D01*
X029398Y025766D01*
X029266Y025898D01*
X029093Y025970D01*
X028907Y025970D01*
X028734Y025898D01*
X028602Y025766D01*
X028530Y025593D01*
X028530Y025407D01*
X028602Y025234D01*
X028697Y025138D01*
X028303Y025138D01*
X028398Y025234D01*
X028470Y025407D01*
X028470Y025593D01*
X028398Y025766D01*
X028266Y025898D01*
X028093Y025970D01*
X027907Y025970D01*
X027734Y025898D01*
X027602Y025766D01*
X027530Y025593D01*
X027530Y025407D01*
X027602Y025234D01*
X027697Y025138D01*
X027303Y025138D01*
X027398Y025234D01*
X027470Y025407D01*
X027470Y025593D01*
X027398Y025766D01*
X027266Y025898D01*
X027093Y025970D01*
X026907Y025970D01*
X026734Y025898D01*
X026602Y025766D01*
X026530Y025593D01*
X026530Y025407D01*
X026602Y025234D01*
X026697Y025138D01*
X026303Y025138D01*
X026398Y025234D01*
X026470Y025407D01*
X026470Y025593D01*
X026398Y025766D01*
X026266Y025898D01*
X026093Y025970D01*
X025907Y025970D01*
X025734Y025898D01*
X025602Y025766D01*
X025530Y025593D01*
X025530Y025407D01*
X025602Y025234D01*
X025697Y025138D01*
X025303Y025138D01*
X025398Y025234D01*
X025470Y025407D01*
X025470Y025593D01*
X025398Y025766D01*
X025266Y025898D01*
X025093Y025970D01*
X024907Y025970D01*
X024734Y025898D01*
X024602Y025766D01*
X024530Y025593D01*
X024530Y025407D01*
X024602Y025234D01*
X024697Y025138D01*
X024303Y025138D01*
X024398Y025234D01*
X024470Y025407D01*
X024470Y025593D01*
X024398Y025766D01*
X024266Y025898D01*
X024093Y025970D01*
X023907Y025970D01*
X023734Y025898D01*
X023602Y025766D01*
X023530Y025593D01*
X023530Y025407D01*
X023602Y025234D01*
X023697Y025138D01*
X023470Y025138D01*
X023470Y025701D01*
X025629Y027860D01*
X029409Y027860D01*
X029418Y027852D01*
X029582Y027852D01*
X029698Y027968D01*
X029698Y028132D01*
X029582Y028248D01*
X029418Y028248D01*
X029409Y028240D01*
X025471Y028240D01*
X023201Y025970D01*
X022638Y025970D01*
X022638Y028862D01*
X033362Y028862D01*
X033362Y025830D01*
X033318Y025873D01*
X033256Y025918D01*
X033188Y025953D01*
X033114Y025977D01*
X033040Y025988D01*
X033040Y025540D01*
X032960Y025540D01*
X032960Y025988D01*
X032886Y025977D01*
X032812Y025953D01*
X032744Y025918D01*
X032682Y025873D01*
X032627Y025818D01*
X032582Y025756D01*
X032547Y025688D01*
X032523Y025614D01*
X032512Y025540D01*
X032960Y025540D01*
X032960Y025460D01*
X032512Y025460D01*
X032522Y025393D02*
X032464Y025393D01*
X032432Y025314D02*
X032547Y025314D01*
X032588Y025236D02*
X032399Y025236D01*
X032322Y025157D02*
X032652Y025157D01*
X032513Y025550D02*
X032470Y025550D01*
X032456Y025628D02*
X032528Y025628D01*
X032557Y025707D02*
X032423Y025707D01*
X032380Y025785D02*
X032603Y025785D01*
X032672Y025864D02*
X032301Y025864D01*
X032161Y025942D02*
X032791Y025942D01*
X032960Y025942D02*
X033040Y025942D01*
X033040Y025864D02*
X032960Y025864D01*
X032960Y025785D02*
X033040Y025785D01*
X033040Y025707D02*
X032960Y025707D01*
X032960Y025628D02*
X033040Y025628D01*
X033040Y025550D02*
X032960Y025550D01*
X033209Y025942D02*
X033362Y025942D01*
X033362Y025864D02*
X033328Y025864D01*
X033362Y026021D02*
X023789Y026021D01*
X023839Y025942D02*
X023711Y025942D01*
X023699Y025864D02*
X023632Y025864D01*
X023620Y025785D02*
X023554Y025785D01*
X023577Y025707D02*
X023475Y025707D01*
X023470Y025628D02*
X023544Y025628D01*
X023530Y025550D02*
X023470Y025550D01*
X023470Y025471D02*
X023530Y025471D01*
X023536Y025393D02*
X023470Y025393D01*
X023470Y025314D02*
X023568Y025314D01*
X023601Y025236D02*
X023470Y025236D01*
X023470Y025157D02*
X023678Y025157D01*
X024322Y025157D02*
X024678Y025157D01*
X024601Y025236D02*
X024399Y025236D01*
X024432Y025314D02*
X024568Y025314D01*
X024536Y025393D02*
X024464Y025393D01*
X024470Y025471D02*
X024530Y025471D01*
X024530Y025550D02*
X024470Y025550D01*
X024456Y025628D02*
X024544Y025628D01*
X024577Y025707D02*
X024423Y025707D01*
X024380Y025785D02*
X024620Y025785D01*
X024699Y025864D02*
X024301Y025864D01*
X024161Y025942D02*
X024839Y025942D01*
X025161Y025942D02*
X025839Y025942D01*
X025699Y025864D02*
X025301Y025864D01*
X025380Y025785D02*
X025620Y025785D01*
X025577Y025707D02*
X025423Y025707D01*
X025456Y025628D02*
X025544Y025628D01*
X025530Y025550D02*
X025470Y025550D01*
X025470Y025471D02*
X025530Y025471D01*
X025536Y025393D02*
X025464Y025393D01*
X025432Y025314D02*
X025568Y025314D01*
X025601Y025236D02*
X025399Y025236D01*
X025322Y025157D02*
X025678Y025157D01*
X026322Y025157D02*
X026678Y025157D01*
X026601Y025236D02*
X026399Y025236D01*
X026432Y025314D02*
X026568Y025314D01*
X026536Y025393D02*
X026464Y025393D01*
X026470Y025471D02*
X026530Y025471D01*
X026530Y025550D02*
X026470Y025550D01*
X026456Y025628D02*
X026544Y025628D01*
X026577Y025707D02*
X026423Y025707D01*
X026380Y025785D02*
X026620Y025785D01*
X026699Y025864D02*
X026301Y025864D01*
X026161Y025942D02*
X026839Y025942D01*
X027161Y025942D02*
X027839Y025942D01*
X027699Y025864D02*
X027301Y025864D01*
X027380Y025785D02*
X027620Y025785D01*
X027577Y025707D02*
X027423Y025707D01*
X027456Y025628D02*
X027544Y025628D01*
X027530Y025550D02*
X027470Y025550D01*
X027470Y025471D02*
X027530Y025471D01*
X027536Y025393D02*
X027464Y025393D01*
X027432Y025314D02*
X027568Y025314D01*
X027601Y025236D02*
X027399Y025236D01*
X027322Y025157D02*
X027678Y025157D01*
X028322Y025157D02*
X028678Y025157D01*
X028601Y025236D02*
X028399Y025236D01*
X028432Y025314D02*
X028568Y025314D01*
X028536Y025393D02*
X028464Y025393D01*
X028470Y025471D02*
X028530Y025471D01*
X028530Y025550D02*
X028470Y025550D01*
X028456Y025628D02*
X028544Y025628D01*
X028577Y025707D02*
X028423Y025707D01*
X028380Y025785D02*
X028620Y025785D01*
X028699Y025864D02*
X028301Y025864D01*
X028161Y025942D02*
X028839Y025942D01*
X029161Y025942D02*
X029839Y025942D01*
X029699Y025864D02*
X029301Y025864D01*
X029380Y025785D02*
X029620Y025785D01*
X029577Y025707D02*
X029423Y025707D01*
X029456Y025628D02*
X029544Y025628D01*
X029530Y025550D02*
X029470Y025550D01*
X029470Y025471D02*
X029530Y025471D01*
X029536Y025393D02*
X029464Y025393D01*
X029432Y025314D02*
X029568Y025314D01*
X029601Y025236D02*
X029399Y025236D01*
X029322Y025157D02*
X029678Y025157D01*
X030322Y025157D02*
X030678Y025157D01*
X030601Y025236D02*
X030399Y025236D01*
X030432Y025314D02*
X030568Y025314D01*
X030536Y025393D02*
X030464Y025393D01*
X030470Y025471D02*
X030530Y025471D01*
X030530Y025550D02*
X030470Y025550D01*
X030456Y025628D02*
X030544Y025628D01*
X030577Y025707D02*
X030423Y025707D01*
X030380Y025785D02*
X030620Y025785D01*
X030699Y025864D02*
X030301Y025864D01*
X030161Y025942D02*
X030839Y025942D01*
X031161Y025942D02*
X031839Y025942D01*
X031699Y025864D02*
X031301Y025864D01*
X031380Y025785D02*
X031620Y025785D01*
X031577Y025707D02*
X031423Y025707D01*
X031456Y025628D02*
X031544Y025628D01*
X031530Y025550D02*
X031470Y025550D01*
X031470Y025471D02*
X031530Y025471D01*
X031536Y025393D02*
X031464Y025393D01*
X031432Y025314D02*
X031568Y025314D01*
X031601Y025236D02*
X031399Y025236D01*
X031322Y025157D02*
X031678Y025157D01*
X033362Y026099D02*
X023868Y026099D01*
X023946Y026178D02*
X033362Y026178D01*
X033362Y026256D02*
X024025Y026256D01*
X024103Y026335D02*
X033362Y026335D01*
X033362Y026413D02*
X024182Y026413D01*
X024260Y026492D02*
X033362Y026492D01*
X033362Y026570D02*
X024339Y026570D01*
X024417Y026649D02*
X033362Y026649D01*
X033362Y026727D02*
X024496Y026727D01*
X024574Y026806D02*
X033362Y026806D01*
X033362Y026884D02*
X024653Y026884D01*
X024731Y026963D02*
X033362Y026963D01*
X033362Y027041D02*
X024810Y027041D01*
X024888Y027120D02*
X033362Y027120D01*
X033362Y027198D02*
X024967Y027198D01*
X025045Y027277D02*
X033362Y027277D01*
X033362Y027355D02*
X025124Y027355D01*
X025202Y027434D02*
X033362Y027434D01*
X033362Y027512D02*
X025281Y027512D01*
X025359Y027591D02*
X033362Y027591D01*
X033362Y027669D02*
X025438Y027669D01*
X025516Y027748D02*
X033362Y027748D01*
X033362Y027826D02*
X025595Y027826D01*
X025293Y028062D02*
X022638Y028062D01*
X022638Y028140D02*
X025371Y028140D01*
X025450Y028219D02*
X022638Y028219D01*
X022638Y028297D02*
X033362Y028297D01*
X033362Y028219D02*
X029612Y028219D01*
X029691Y028140D02*
X033362Y028140D01*
X033362Y028062D02*
X029698Y028062D01*
X029698Y027983D02*
X033362Y027983D01*
X033362Y027905D02*
X029635Y027905D01*
X033362Y028376D02*
X022638Y028376D01*
X022638Y028454D02*
X033362Y028454D01*
X033362Y028533D02*
X022638Y028533D01*
X022638Y028611D02*
X033362Y028611D01*
X033362Y028690D02*
X022638Y028690D01*
X022638Y028768D02*
X033362Y028768D01*
X033362Y028847D02*
X022638Y028847D01*
X022638Y027983D02*
X025214Y027983D01*
X025136Y027905D02*
X022638Y027905D01*
X022638Y027826D02*
X025057Y027826D01*
X024979Y027748D02*
X022638Y027748D01*
X022638Y027669D02*
X024900Y027669D01*
X024822Y027591D02*
X022638Y027591D01*
X022638Y027512D02*
X024743Y027512D01*
X024665Y027434D02*
X022638Y027434D01*
X022638Y027355D02*
X024586Y027355D01*
X024508Y027277D02*
X022638Y027277D01*
X022638Y027198D02*
X024429Y027198D01*
X024351Y027120D02*
X022638Y027120D01*
X022638Y027041D02*
X024272Y027041D01*
X024194Y026963D02*
X022638Y026963D01*
X022638Y026884D02*
X024115Y026884D01*
X024037Y026806D02*
X022638Y026806D01*
X022638Y026727D02*
X023958Y026727D01*
X023880Y026649D02*
X022638Y026649D01*
X022638Y026570D02*
X023801Y026570D01*
X023723Y026492D02*
X022638Y026492D01*
X022638Y026413D02*
X023644Y026413D01*
X023566Y026335D02*
X022638Y026335D01*
X022638Y026256D02*
X023487Y026256D01*
X023409Y026178D02*
X022638Y026178D01*
X022638Y026099D02*
X023330Y026099D01*
X023252Y026021D02*
X022638Y026021D01*
D14*
X023500Y027000D03*
X023500Y028000D03*
X024500Y028000D03*
X025500Y027000D03*
X025500Y026000D03*
X024500Y026000D03*
X026500Y026000D03*
X027500Y026000D03*
X028500Y026000D03*
X028500Y027000D03*
X027500Y027000D03*
X026500Y027000D03*
X029500Y027000D03*
X030500Y027000D03*
X030500Y026000D03*
X029500Y026000D03*
X031500Y026000D03*
X032500Y026000D03*
X032500Y027000D03*
X031500Y027000D03*
X032500Y028000D03*
X029500Y028050D03*
D15*
X025550Y028050D01*
X023000Y025500D01*
M02*
