G75*
%MOIN*%
%OFA0B0*%
%FSLAX24Y24*%
%IPPOS*%
%LPD*%
%AMOC8*
5,1,8,0,0,1.08239X$1,22.5*
%
%ADD10C,0.0000*%
%ADD11C,0.0030*%
%ADD12C,0.0050*%
%ADD13C,0.0040*%
%ADD14C,0.0100*%
%ADD15R,0.1600X0.0250*%
D10*
X022500Y025000D02*
X022500Y037500D01*
X033500Y037500D01*
X033500Y025000D01*
X022500Y025000D01*
X027254Y026575D02*
X027256Y026602D01*
X027262Y026629D01*
X027271Y026655D01*
X027284Y026679D01*
X027300Y026702D01*
X027319Y026721D01*
X027341Y026738D01*
X027365Y026752D01*
X027390Y026762D01*
X027417Y026769D01*
X027444Y026772D01*
X027472Y026771D01*
X027499Y026766D01*
X027525Y026758D01*
X027549Y026746D01*
X027572Y026730D01*
X027593Y026712D01*
X027610Y026691D01*
X027625Y026667D01*
X027636Y026642D01*
X027644Y026616D01*
X027648Y026589D01*
X027648Y026561D01*
X027644Y026534D01*
X027636Y026508D01*
X027625Y026483D01*
X027610Y026459D01*
X027593Y026438D01*
X027572Y026420D01*
X027550Y026404D01*
X027525Y026392D01*
X027499Y026384D01*
X027472Y026379D01*
X027444Y026378D01*
X027417Y026381D01*
X027390Y026388D01*
X027365Y026398D01*
X027341Y026412D01*
X027319Y026429D01*
X027300Y026448D01*
X027284Y026471D01*
X027271Y026495D01*
X027262Y026521D01*
X027256Y026548D01*
X027254Y026575D01*
X030404Y026575D02*
X030406Y026602D01*
X030412Y026629D01*
X030421Y026655D01*
X030434Y026679D01*
X030450Y026702D01*
X030469Y026721D01*
X030491Y026738D01*
X030515Y026752D01*
X030540Y026762D01*
X030567Y026769D01*
X030594Y026772D01*
X030622Y026771D01*
X030649Y026766D01*
X030675Y026758D01*
X030699Y026746D01*
X030722Y026730D01*
X030743Y026712D01*
X030760Y026691D01*
X030775Y026667D01*
X030786Y026642D01*
X030794Y026616D01*
X030798Y026589D01*
X030798Y026561D01*
X030794Y026534D01*
X030786Y026508D01*
X030775Y026483D01*
X030760Y026459D01*
X030743Y026438D01*
X030722Y026420D01*
X030700Y026404D01*
X030675Y026392D01*
X030649Y026384D01*
X030622Y026379D01*
X030594Y026378D01*
X030567Y026381D01*
X030540Y026388D01*
X030515Y026398D01*
X030491Y026412D01*
X030469Y026429D01*
X030450Y026448D01*
X030434Y026471D01*
X030421Y026495D01*
X030412Y026521D01*
X030406Y026548D01*
X030404Y026575D01*
X022870Y035000D02*
X022872Y035050D01*
X022878Y035100D01*
X022888Y035149D01*
X022902Y035197D01*
X022919Y035244D01*
X022940Y035289D01*
X022965Y035333D01*
X022993Y035374D01*
X023025Y035413D01*
X023059Y035450D01*
X023096Y035484D01*
X023136Y035514D01*
X023178Y035541D01*
X023222Y035565D01*
X023268Y035586D01*
X023315Y035602D01*
X023363Y035615D01*
X023413Y035624D01*
X023462Y035629D01*
X023513Y035630D01*
X023563Y035627D01*
X023612Y035620D01*
X023661Y035609D01*
X023709Y035594D01*
X023755Y035576D01*
X023800Y035554D01*
X023843Y035528D01*
X023884Y035499D01*
X023923Y035467D01*
X023959Y035432D01*
X023991Y035394D01*
X024021Y035354D01*
X024048Y035311D01*
X024071Y035267D01*
X024090Y035221D01*
X024106Y035173D01*
X024118Y035124D01*
X024126Y035075D01*
X024130Y035025D01*
X024130Y034975D01*
X024126Y034925D01*
X024118Y034876D01*
X024106Y034827D01*
X024090Y034779D01*
X024071Y034733D01*
X024048Y034689D01*
X024021Y034646D01*
X023991Y034606D01*
X023959Y034568D01*
X023923Y034533D01*
X023884Y034501D01*
X023843Y034472D01*
X023800Y034446D01*
X023755Y034424D01*
X023709Y034406D01*
X023661Y034391D01*
X023612Y034380D01*
X023563Y034373D01*
X023513Y034370D01*
X023462Y034371D01*
X023413Y034376D01*
X023363Y034385D01*
X023315Y034398D01*
X023268Y034414D01*
X023222Y034435D01*
X023178Y034459D01*
X023136Y034486D01*
X023096Y034516D01*
X023059Y034550D01*
X023025Y034587D01*
X022993Y034626D01*
X022965Y034667D01*
X022940Y034711D01*
X022919Y034756D01*
X022902Y034803D01*
X022888Y034851D01*
X022878Y034900D01*
X022872Y034950D01*
X022870Y035000D01*
D11*
X024226Y034485D02*
X024371Y034485D01*
X024419Y034437D01*
X024419Y034243D01*
X024371Y034195D01*
X024226Y034195D01*
X024226Y034485D01*
X024520Y034437D02*
X024569Y034485D01*
X024665Y034485D01*
X024714Y034437D01*
X024714Y034388D01*
X024665Y034340D01*
X024714Y034292D01*
X024714Y034243D01*
X024665Y034195D01*
X024569Y034195D01*
X024520Y034243D01*
X024617Y034340D02*
X024665Y034340D01*
X024915Y034257D02*
X024915Y034063D01*
X024963Y034015D01*
X025060Y034015D01*
X025108Y034063D01*
X025210Y034015D02*
X025403Y034208D01*
X025403Y034257D01*
X025355Y034305D01*
X025258Y034305D01*
X025210Y034257D01*
X025108Y034257D02*
X025060Y034305D01*
X024963Y034305D01*
X024915Y034257D01*
X024915Y033905D02*
X025060Y033905D01*
X025108Y033857D01*
X025108Y033760D01*
X025060Y033712D01*
X024915Y033712D01*
X025012Y033712D02*
X025108Y033615D01*
X025210Y033615D02*
X025403Y033615D01*
X025306Y033615D02*
X025306Y033905D01*
X025210Y033808D01*
X025210Y034015D02*
X025403Y034015D01*
X024915Y033905D02*
X024915Y033615D01*
X026676Y032985D02*
X026821Y032985D01*
X026869Y032937D01*
X026869Y032743D01*
X026821Y032695D01*
X026676Y032695D01*
X026676Y032985D01*
X026970Y032985D02*
X026970Y032840D01*
X027067Y032888D01*
X027115Y032888D01*
X027164Y032840D01*
X027164Y032743D01*
X027115Y032695D01*
X027019Y032695D01*
X026970Y032743D01*
X026970Y032985D02*
X027164Y032985D01*
X027876Y033343D02*
X027924Y033295D01*
X028021Y033295D01*
X028069Y033343D01*
X028170Y033295D02*
X028364Y033295D01*
X028267Y033295D02*
X028267Y033585D01*
X028170Y033488D01*
X028069Y033537D02*
X028021Y033585D01*
X027924Y033585D01*
X027876Y033537D01*
X027876Y033343D01*
X028365Y032857D02*
X028365Y032663D01*
X028413Y032615D01*
X028510Y032615D01*
X028558Y032663D01*
X028660Y032663D02*
X028660Y032712D01*
X028708Y032760D01*
X028805Y032760D01*
X028853Y032712D01*
X028853Y032663D01*
X028805Y032615D01*
X028708Y032615D01*
X028660Y032663D01*
X028708Y032760D02*
X028660Y032808D01*
X028660Y032857D01*
X028708Y032905D01*
X028805Y032905D01*
X028853Y032857D01*
X028853Y032808D01*
X028805Y032760D01*
X028558Y032857D02*
X028510Y032905D01*
X028413Y032905D01*
X028365Y032857D01*
X028626Y033295D02*
X028626Y033585D01*
X028771Y033585D01*
X028819Y033537D01*
X028819Y033440D01*
X028771Y033392D01*
X028626Y033392D01*
X028722Y033392D02*
X028819Y033295D01*
X028920Y033295D02*
X029114Y033488D01*
X029114Y033537D01*
X029065Y033585D01*
X028969Y033585D01*
X028920Y033537D01*
X028920Y033295D02*
X029114Y033295D01*
X029426Y033295D02*
X029426Y033585D01*
X029571Y033585D01*
X029619Y033537D01*
X029619Y033440D01*
X029571Y033392D01*
X029426Y033392D01*
X029522Y033392D02*
X029619Y033295D01*
X029720Y033343D02*
X029769Y033295D01*
X029865Y033295D01*
X029914Y033343D01*
X029914Y033392D01*
X029865Y033440D01*
X029817Y033440D01*
X029865Y033440D02*
X029914Y033488D01*
X029914Y033537D01*
X029865Y033585D01*
X029769Y033585D01*
X029720Y033537D01*
X030226Y033537D02*
X030226Y033343D01*
X030274Y033295D01*
X030371Y033295D01*
X030419Y033343D01*
X030520Y033343D02*
X030569Y033295D01*
X030665Y033295D01*
X030714Y033343D01*
X030714Y033392D01*
X030665Y033440D01*
X030617Y033440D01*
X030665Y033440D02*
X030714Y033488D01*
X030714Y033537D01*
X030665Y033585D01*
X030569Y033585D01*
X030520Y033537D01*
X030419Y033537D02*
X030371Y033585D01*
X030274Y033585D01*
X030226Y033537D01*
X030171Y032985D02*
X030026Y032985D01*
X030026Y032695D01*
X030171Y032695D01*
X030219Y032743D01*
X030219Y032937D01*
X030171Y032985D01*
X030320Y032840D02*
X030514Y032840D01*
X030465Y032695D02*
X030465Y032985D01*
X030320Y032840D01*
X031226Y032385D02*
X031226Y032143D01*
X031274Y032095D01*
X031371Y032095D01*
X031419Y032143D01*
X031419Y032385D01*
X031520Y032288D02*
X031617Y032385D01*
X031617Y032095D01*
X031520Y032095D02*
X031714Y032095D01*
X031715Y033115D02*
X031715Y033405D01*
X031860Y033405D01*
X031908Y033357D01*
X031908Y033260D01*
X031860Y033212D01*
X031715Y033212D01*
X031812Y033212D02*
X031908Y033115D01*
X032010Y033260D02*
X032203Y033260D01*
X032155Y033115D02*
X032155Y033405D01*
X032010Y033260D01*
X031503Y034615D02*
X031310Y034615D01*
X031503Y034808D01*
X031503Y034857D01*
X031455Y034905D01*
X031358Y034905D01*
X031310Y034857D01*
X031208Y034857D02*
X031160Y034905D01*
X031015Y034905D01*
X031015Y034615D01*
X031160Y034615D01*
X031208Y034663D01*
X031208Y034857D01*
X031692Y036970D02*
X031595Y037067D01*
X031885Y037067D01*
X031885Y036970D02*
X031885Y037164D01*
X031837Y037265D02*
X031643Y037458D01*
X031837Y037458D01*
X031885Y037410D01*
X031885Y037313D01*
X031837Y037265D01*
X031643Y037265D01*
X031595Y037313D01*
X031595Y037410D01*
X031643Y037458D01*
X032326Y037237D02*
X032326Y037043D01*
X032374Y036995D01*
X032471Y036995D01*
X032519Y037043D01*
X032620Y037140D02*
X032814Y037140D01*
X032765Y036995D02*
X032765Y037285D01*
X032620Y037140D01*
X032519Y037237D02*
X032471Y037285D01*
X032374Y037285D01*
X032326Y037237D01*
X027567Y034935D02*
X027567Y034645D01*
X027470Y034645D02*
X027664Y034645D01*
X027470Y034838D02*
X027567Y034935D01*
X027369Y034887D02*
X027321Y034935D01*
X027176Y034935D01*
X027176Y034645D01*
X027321Y034645D01*
X027369Y034693D01*
X027369Y034887D01*
X027314Y035145D02*
X027120Y035145D01*
X027217Y035145D02*
X027217Y035435D01*
X027120Y035338D01*
X027019Y035435D02*
X026922Y035435D01*
X026971Y035435D02*
X026971Y035193D01*
X026922Y035145D01*
X026874Y035145D01*
X026826Y035193D01*
X026385Y035968D02*
X026385Y036161D01*
X026385Y036064D02*
X026095Y036064D01*
X026192Y035968D01*
X023156Y032905D02*
X023156Y032615D01*
X023060Y032615D02*
X023253Y032615D01*
X023060Y032808D02*
X023156Y032905D01*
X022958Y032857D02*
X022910Y032905D01*
X022813Y032905D01*
X022765Y032857D01*
X022765Y032808D01*
X022813Y032760D01*
X022910Y032760D01*
X022958Y032712D01*
X022958Y032663D01*
X022910Y032615D01*
X022813Y032615D01*
X022765Y032663D01*
X028665Y031557D02*
X028665Y031363D01*
X028713Y031315D01*
X028810Y031315D01*
X028858Y031363D01*
X028960Y031315D02*
X029153Y031315D01*
X029056Y031315D02*
X029056Y031605D01*
X028960Y031508D01*
X028858Y031557D02*
X028810Y031605D01*
X028713Y031605D01*
X028665Y031557D01*
X029254Y031557D02*
X029254Y031508D01*
X029303Y031460D01*
X029399Y031460D01*
X029448Y031412D01*
X029448Y031363D01*
X029399Y031315D01*
X029303Y031315D01*
X029254Y031363D01*
X029254Y031412D01*
X029303Y031460D01*
X029399Y031460D02*
X029448Y031508D01*
X029448Y031557D01*
X029399Y031605D01*
X029303Y031605D01*
X029254Y031557D01*
X030815Y031107D02*
X030815Y031058D01*
X030863Y031010D01*
X030960Y031010D01*
X031008Y030962D01*
X031008Y030913D01*
X030960Y030865D01*
X030863Y030865D01*
X030815Y030913D01*
X030815Y031107D02*
X030863Y031155D01*
X030960Y031155D01*
X031008Y031107D01*
X031110Y031107D02*
X031158Y031155D01*
X031255Y031155D01*
X031303Y031107D01*
X031303Y031058D01*
X031110Y030865D01*
X031303Y030865D01*
X032515Y030757D02*
X032515Y030563D01*
X032563Y030515D01*
X032660Y030515D01*
X032708Y030563D01*
X032810Y030515D02*
X033003Y030515D01*
X032906Y030515D02*
X032906Y030805D01*
X032810Y030708D01*
X032708Y030757D02*
X032660Y030805D01*
X032563Y030805D01*
X032515Y030757D01*
X033104Y030757D02*
X033153Y030805D01*
X033249Y030805D01*
X033298Y030757D01*
X033104Y030563D01*
X033153Y030515D01*
X033249Y030515D01*
X033298Y030563D01*
X033298Y030757D01*
X033104Y030757D02*
X033104Y030563D01*
X033145Y030042D02*
X033145Y029849D01*
X032952Y030042D01*
X032903Y030042D01*
X032855Y029994D01*
X032855Y029897D01*
X032903Y029849D01*
X032903Y029748D02*
X033097Y029554D01*
X033145Y029603D01*
X033145Y029699D01*
X033097Y029748D01*
X032903Y029748D01*
X032855Y029699D01*
X032855Y029603D01*
X032903Y029554D01*
X033097Y029554D01*
X033097Y029453D02*
X033145Y029405D01*
X033145Y029308D01*
X033097Y029260D01*
X033048Y029260D01*
X033000Y029308D01*
X033000Y029405D01*
X033048Y029453D01*
X033097Y029453D01*
X033000Y029405D02*
X032952Y029453D01*
X032903Y029453D01*
X032855Y029405D01*
X032855Y029308D01*
X032903Y029260D01*
X032952Y029260D01*
X033000Y029308D01*
X032903Y029158D02*
X033097Y029158D01*
X033145Y029110D01*
X033145Y029013D01*
X033097Y028965D01*
X032903Y029158D01*
X032855Y029110D01*
X032855Y029013D01*
X032903Y028965D01*
X033097Y028965D01*
X033000Y028864D02*
X033000Y028670D01*
X032855Y028815D01*
X033145Y028815D01*
X033145Y028569D02*
X033145Y028376D01*
X033145Y028472D02*
X032855Y028472D01*
X032952Y028376D01*
X032903Y028275D02*
X033097Y028275D01*
X033145Y028226D01*
X033145Y028129D01*
X033097Y028081D01*
X032903Y028275D01*
X032855Y028226D01*
X032855Y028129D01*
X032903Y028081D01*
X033097Y028081D01*
X033145Y027980D02*
X033145Y027786D01*
X032952Y027980D01*
X032903Y027980D01*
X032855Y027932D01*
X032855Y027835D01*
X032903Y027786D01*
X032952Y027224D02*
X033145Y027224D01*
X033000Y027224D02*
X033000Y027031D01*
X032952Y027031D02*
X032855Y027127D01*
X032952Y027224D01*
X032952Y027031D02*
X033145Y027031D01*
X033145Y026637D02*
X033145Y026589D01*
X033097Y026589D01*
X033097Y026637D01*
X033145Y026637D01*
X032952Y026488D02*
X033145Y026391D01*
X032952Y026294D01*
X033000Y026193D02*
X033048Y026193D01*
X033048Y025999D01*
X033000Y025999D02*
X032952Y026048D01*
X032952Y026144D01*
X033000Y026193D01*
X033145Y026144D02*
X033145Y026048D01*
X033097Y025999D01*
X033000Y025999D01*
X033000Y025898D02*
X033048Y025850D01*
X033048Y025705D01*
X033048Y025801D02*
X033145Y025898D01*
X033000Y025898D02*
X032903Y025898D01*
X032855Y025850D01*
X032855Y025705D01*
X033145Y025705D01*
D12*
X030935Y025000D02*
X030871Y025042D01*
X030804Y025080D01*
X030736Y025116D01*
X030667Y025148D01*
X030596Y025176D01*
X030523Y025202D01*
X030450Y025224D01*
X030375Y025242D01*
X030300Y025257D01*
X030224Y025268D01*
X030148Y025275D01*
X030148Y025276D02*
X026506Y025276D01*
X026506Y026102D01*
X026506Y027205D02*
X026506Y030039D01*
X027900Y031300D02*
X027900Y031700D01*
X028700Y031700D01*
X028700Y031300D01*
X027900Y031300D01*
X027900Y031700D02*
X027900Y032500D01*
X029300Y032500D01*
X029300Y031700D01*
X027900Y031700D01*
X027100Y031693D02*
X026960Y031693D01*
X026917Y031645D02*
X027100Y031645D01*
X027100Y031596D02*
X026874Y031596D01*
X026831Y031548D02*
X027100Y031548D01*
X027100Y031499D02*
X026788Y031499D01*
X026745Y031451D02*
X027100Y031451D01*
X027100Y031402D02*
X026702Y031402D01*
X026700Y031400D02*
X027100Y031400D01*
X027100Y031850D01*
X026700Y031400D01*
X027100Y031400D01*
X027100Y032600D01*
X026700Y032600D01*
X026700Y031400D01*
X027004Y031742D02*
X027100Y031742D01*
X027100Y031790D02*
X027047Y031790D01*
X027090Y031839D02*
X027100Y031839D01*
X026453Y032694D02*
X026453Y034506D01*
X025547Y034506D01*
X025547Y032694D01*
X026453Y032694D01*
X026000Y032500D02*
X023000Y032500D01*
X023000Y025075D01*
X026000Y025075D02*
X026000Y032500D01*
X025550Y032700D02*
X025550Y033100D01*
X025550Y033500D01*
X024750Y033500D01*
X024750Y033100D01*
X025550Y033100D01*
X024750Y033100D01*
X024750Y032700D01*
X025550Y032700D01*
X024740Y032510D02*
X024740Y034100D01*
X024620Y034100D01*
X024740Y033980D01*
X024740Y034100D01*
X023350Y034100D01*
X023350Y032500D01*
X024740Y032500D01*
X024699Y034021D02*
X024740Y034021D01*
X024740Y034070D02*
X024650Y034070D01*
X025547Y034494D02*
X026453Y034494D01*
X026453Y036306D01*
X025547Y036306D01*
X025547Y034494D01*
X026500Y035500D02*
X026500Y037500D01*
X031500Y037500D01*
X031500Y035500D01*
X026500Y035500D01*
X027700Y035500D02*
X029300Y035500D01*
X030900Y035500D01*
X030900Y034110D01*
X030900Y034230D01*
X030780Y034110D01*
X030900Y034110D01*
X029310Y034110D01*
X029300Y034110D02*
X029300Y035500D01*
X029300Y034110D01*
X029300Y034230D01*
X029180Y034110D01*
X029300Y034110D01*
X027710Y034110D01*
X027700Y034110D02*
X027700Y035500D01*
X027700Y034100D02*
X027700Y033700D01*
X028500Y033700D01*
X029300Y033700D01*
X029300Y034100D01*
X030100Y034100D01*
X030100Y033700D01*
X029300Y033700D01*
X029300Y034100D01*
X028500Y034100D01*
X028500Y033700D01*
X028500Y034100D01*
X027700Y034100D01*
X029188Y034118D02*
X029300Y034118D01*
X029300Y034167D02*
X029237Y034167D01*
X029285Y034215D02*
X029300Y034215D01*
X030100Y034100D02*
X030100Y033700D01*
X030900Y033700D01*
X030900Y034100D01*
X030100Y034100D01*
X030788Y034118D02*
X030900Y034118D01*
X030900Y034167D02*
X030837Y034167D01*
X030885Y034215D02*
X030900Y034215D01*
X031750Y033550D02*
X031750Y036850D01*
X033350Y036850D01*
X033350Y033550D01*
X033100Y033500D02*
X032300Y033500D01*
X032300Y033100D01*
X033100Y033100D01*
X033100Y033500D01*
X033000Y032450D02*
X031800Y032450D01*
X031800Y032050D01*
X032250Y032050D01*
X031800Y032450D01*
X031800Y032050D01*
X033000Y032050D01*
X033000Y032450D01*
X032700Y031400D02*
X032700Y030900D01*
X031700Y030900D01*
X031700Y031400D01*
X032700Y031400D01*
X032215Y032081D02*
X031800Y032081D01*
X031800Y032130D02*
X032161Y032130D01*
X032106Y032178D02*
X031800Y032178D01*
X031800Y032227D02*
X032051Y032227D01*
X031997Y032275D02*
X031800Y032275D01*
X031800Y032324D02*
X031942Y032324D01*
X031888Y032372D02*
X031800Y032372D01*
X031800Y032421D02*
X031833Y032421D01*
X030450Y032600D02*
X030450Y031400D01*
X030050Y031400D01*
X030450Y031850D01*
X030450Y031400D01*
X030050Y031400D01*
X030050Y032600D01*
X030450Y032600D01*
X030440Y031839D02*
X030450Y031839D01*
X030450Y031790D02*
X030397Y031790D01*
X030354Y031742D02*
X030450Y031742D01*
X030450Y031693D02*
X030310Y031693D01*
X030267Y031645D02*
X030450Y031645D01*
X030450Y031596D02*
X030224Y031596D01*
X030181Y031548D02*
X030450Y031548D01*
X030450Y031499D02*
X030138Y031499D01*
X030095Y031451D02*
X030450Y031451D01*
X030450Y031402D02*
X030052Y031402D01*
X030502Y030748D02*
X031132Y030748D01*
X031132Y030709D01*
X031644Y030709D01*
X031802Y030039D02*
X032294Y030039D01*
X032294Y027362D01*
X031408Y027362D01*
X031386Y027360D01*
X031364Y027356D01*
X031343Y027348D01*
X031323Y027337D01*
X031305Y027324D01*
X031289Y027308D01*
X031276Y027290D01*
X031265Y027270D01*
X031257Y027249D01*
X031253Y027227D01*
X031251Y027205D01*
X031250Y027205D02*
X031250Y026693D01*
X031290Y026614D02*
X031526Y026378D01*
X031565Y026299D02*
X031565Y025709D01*
X031644Y025630D02*
X031659Y025632D01*
X031674Y025636D01*
X031688Y025643D01*
X031700Y025653D01*
X031710Y025665D01*
X031717Y025679D01*
X031721Y025694D01*
X031723Y025709D01*
X031723Y026457D01*
X031683Y026575D02*
X031408Y026811D01*
X031369Y026890D02*
X031369Y027047D01*
X031371Y027067D01*
X031376Y027087D01*
X031385Y027106D01*
X031397Y027123D01*
X031411Y027137D01*
X031428Y027149D01*
X031447Y027158D01*
X031467Y027163D01*
X031487Y027165D01*
X031920Y027165D01*
X031940Y027163D01*
X031960Y027158D01*
X031979Y027149D01*
X031996Y027137D01*
X032010Y027123D01*
X032022Y027106D01*
X032031Y027087D01*
X032036Y027067D01*
X032038Y027047D01*
X032038Y025748D01*
X032040Y025733D01*
X032044Y025718D01*
X032051Y025704D01*
X032061Y025692D01*
X032073Y025682D01*
X032087Y025675D01*
X032102Y025671D01*
X032117Y025669D01*
X032294Y025669D01*
X032294Y026102D01*
X032294Y025669D02*
X032294Y025000D01*
X030935Y025000D01*
X031565Y025709D02*
X031567Y025694D01*
X031571Y025679D01*
X031578Y025665D01*
X031588Y025653D01*
X031600Y025643D01*
X031614Y025636D01*
X031629Y025632D01*
X031644Y025630D01*
X031566Y026299D02*
X031563Y026317D01*
X031558Y026334D01*
X031550Y026350D01*
X031539Y026365D01*
X031526Y026378D01*
X031723Y026457D02*
X031724Y026478D01*
X031722Y026500D01*
X031716Y026520D01*
X031708Y026540D01*
X031697Y026559D01*
X031684Y026575D01*
X031290Y026615D02*
X031277Y026627D01*
X031266Y026641D01*
X031258Y026657D01*
X031253Y026675D01*
X031251Y026693D01*
X031408Y026812D02*
X031395Y026824D01*
X031384Y026838D01*
X031376Y026854D01*
X031371Y026872D01*
X031369Y026890D01*
X032294Y027205D02*
X032294Y027362D01*
D13*
X027051Y033420D02*
X026865Y033420D01*
X026958Y033420D02*
X026958Y033700D01*
X026865Y033607D01*
X026757Y033420D02*
X026570Y033420D01*
X026570Y033700D01*
X025412Y035250D02*
X025225Y035250D01*
X025412Y035437D01*
X025412Y035484D01*
X025365Y035530D01*
X025272Y035530D01*
X025225Y035484D01*
X025118Y035250D02*
X024931Y035250D01*
X024931Y035530D01*
D14*
X027450Y031300D02*
X027452Y031313D01*
X027457Y031326D01*
X027466Y031337D01*
X027477Y031344D01*
X027490Y031349D01*
X027503Y031350D01*
X027517Y031347D01*
X027529Y031341D01*
X027539Y031332D01*
X027546Y031320D01*
X027550Y031307D01*
X027550Y031293D01*
X027546Y031280D01*
X027539Y031268D01*
X027529Y031259D01*
X027517Y031253D01*
X027503Y031250D01*
X027490Y031251D01*
X027477Y031256D01*
X027466Y031263D01*
X027457Y031274D01*
X027452Y031287D01*
X027450Y031300D01*
X030800Y031300D02*
X030802Y031313D01*
X030807Y031326D01*
X030816Y031337D01*
X030827Y031344D01*
X030840Y031349D01*
X030853Y031350D01*
X030867Y031347D01*
X030879Y031341D01*
X030889Y031332D01*
X030896Y031320D01*
X030900Y031307D01*
X030900Y031293D01*
X030896Y031280D01*
X030889Y031268D01*
X030879Y031259D01*
X030867Y031253D01*
X030853Y031250D01*
X030840Y031251D01*
X030827Y031256D01*
X030816Y031263D01*
X030807Y031274D01*
X030802Y031287D01*
X030800Y031300D01*
X031650Y031650D02*
X031652Y031663D01*
X031657Y031676D01*
X031666Y031687D01*
X031677Y031694D01*
X031690Y031699D01*
X031703Y031700D01*
X031717Y031697D01*
X031729Y031691D01*
X031739Y031682D01*
X031746Y031670D01*
X031750Y031657D01*
X031750Y031643D01*
X031746Y031630D01*
X031739Y031618D01*
X031729Y031609D01*
X031717Y031603D01*
X031703Y031600D01*
X031690Y031601D01*
X031677Y031606D01*
X031666Y031613D01*
X031657Y031624D01*
X031652Y031637D01*
X031650Y031650D01*
D15*
X032550Y033625D03*
M02*
