%
M48
M72
T01C0.0118
T02C0.0400
%
T01
X24500Y26000
X25500Y26000
X25500Y27000
X26500Y27000
X27500Y27000
X28500Y27000
X28500Y26000
X27500Y26000
X26500Y26000
X24500Y28000
X23500Y28000
X23500Y27000
X29500Y27000
X30500Y27000
X30500Y26000
X29500Y26000
X31500Y26000
X32500Y26000
X32500Y27000
X31500Y27000
X32500Y28000
X29500Y28050
T02
X23000Y25500
X24000Y25500
X25000Y25500
X26000Y25500
X27000Y25500
X28000Y25500
X29000Y25500
X30000Y25500
X31000Y25500
X32000Y25500
X33000Y25500
M30
