G75*
%MOIN*%
%OFA0B0*%
%FSLAX24Y24*%
%IPPOS*%
%LPD*%
%AMOC8*
5,1,8,0,0,1.08239X$1,22.5*
%
%ADD10C,0.0000*%
%ADD11R,0.1083X0.1083*%
%ADD12R,0.0276X0.0098*%
%ADD13R,0.0098X0.0276*%
%ADD14R,0.0472X0.0551*%
%ADD15R,0.0394X0.0551*%
%ADD16R,0.0200X0.0200*%
%ADD17R,0.0098X0.0236*%
%ADD18C,0.0001*%
%ADD19R,0.0787X0.0335*%
%ADD20R,0.0450X0.0700*%
%ADD21R,0.0400X0.0600*%
%ADD22R,0.0250X0.0350*%
%ADD23R,0.0700X0.0450*%
%ADD24R,0.0709X0.0551*%
%ADD25R,0.0600X0.0400*%
%ADD26R,0.1400X0.0700*%
%ADD27R,0.0394X0.0157*%
%ADD28R,0.0295X0.0472*%
%ADD29R,0.1496X0.0453*%
%ADD30R,0.0200X0.0200*%
%ADD31R,0.1000X0.1050*%
%ADD32R,0.0500X0.0300*%
%ADD33R,0.0400X0.0400*%
%ADD34R,0.0350X0.0250*%
%ADD35C,0.0400*%
%ADD36C,0.0394*%
%ADD37C,0.0197*%
%ADD38R,0.0531X0.0157*%
%ADD39R,0.0748X0.0748*%
%ADD40C,0.0205*%
%ADD41R,0.0531X0.0394*%
%ADD42R,0.0740X0.0740*%
%ADD43C,0.0740*%
%ADD44C,0.0100*%
%ADD45C,0.0080*%
%ADD46C,0.0260*%
%ADD47C,0.0160*%
%ADD48C,0.0180*%
%ADD49C,0.0145*%
%ADD50C,0.0150*%
%ADD51C,0.0400*%
%ADD52C,0.0240*%
%ADD53C,0.0472*%
D10*
X016500Y024500D02*
X016500Y037500D01*
X044500Y037500D01*
X044500Y024500D01*
X016500Y024500D01*
X019956Y028637D02*
X019956Y028883D01*
X020005Y028932D01*
X020054Y028932D01*
X020054Y028637D01*
X019956Y028637D01*
X017809Y030213D02*
X017811Y030233D01*
X017817Y030253D01*
X017826Y030271D01*
X017839Y030288D01*
X017854Y030301D01*
X017872Y030311D01*
X017892Y030318D01*
X017912Y030321D01*
X017932Y030320D01*
X017952Y030315D01*
X017971Y030307D01*
X017988Y030295D01*
X018002Y030280D01*
X018013Y030262D01*
X018021Y030243D01*
X018025Y030223D01*
X018025Y030203D01*
X018021Y030183D01*
X018013Y030164D01*
X018002Y030146D01*
X017988Y030131D01*
X017971Y030119D01*
X017952Y030111D01*
X017932Y030106D01*
X017912Y030105D01*
X017892Y030108D01*
X017872Y030115D01*
X017854Y030125D01*
X017839Y030138D01*
X017826Y030155D01*
X017817Y030173D01*
X017811Y030193D01*
X017809Y030213D01*
X017809Y031787D02*
X017811Y031807D01*
X017817Y031827D01*
X017826Y031845D01*
X017839Y031862D01*
X017854Y031875D01*
X017872Y031885D01*
X017892Y031892D01*
X017912Y031895D01*
X017932Y031894D01*
X017952Y031889D01*
X017971Y031881D01*
X017988Y031869D01*
X018002Y031854D01*
X018013Y031836D01*
X018021Y031817D01*
X018025Y031797D01*
X018025Y031777D01*
X018021Y031757D01*
X018013Y031738D01*
X018002Y031720D01*
X017988Y031705D01*
X017971Y031693D01*
X017952Y031685D01*
X017932Y031680D01*
X017912Y031679D01*
X017892Y031682D01*
X017872Y031689D01*
X017854Y031699D01*
X017839Y031712D01*
X017826Y031729D01*
X017817Y031747D01*
X017811Y031767D01*
X017809Y031787D01*
X017051Y035130D02*
X017053Y035180D01*
X017059Y035230D01*
X017069Y035279D01*
X017083Y035327D01*
X017100Y035374D01*
X017121Y035419D01*
X017146Y035463D01*
X017174Y035504D01*
X017206Y035543D01*
X017240Y035580D01*
X017277Y035614D01*
X017317Y035644D01*
X017359Y035671D01*
X017403Y035695D01*
X017449Y035716D01*
X017496Y035732D01*
X017544Y035745D01*
X017594Y035754D01*
X017643Y035759D01*
X017694Y035760D01*
X017744Y035757D01*
X017793Y035750D01*
X017842Y035739D01*
X017890Y035724D01*
X017936Y035706D01*
X017981Y035684D01*
X018024Y035658D01*
X018065Y035629D01*
X018104Y035597D01*
X018140Y035562D01*
X018172Y035524D01*
X018202Y035484D01*
X018229Y035441D01*
X018252Y035397D01*
X018271Y035351D01*
X018287Y035303D01*
X018299Y035254D01*
X018307Y035205D01*
X018311Y035155D01*
X018311Y035105D01*
X018307Y035055D01*
X018299Y035006D01*
X018287Y034957D01*
X018271Y034909D01*
X018252Y034863D01*
X018229Y034819D01*
X018202Y034776D01*
X018172Y034736D01*
X018140Y034698D01*
X018104Y034663D01*
X018065Y034631D01*
X018024Y034602D01*
X017981Y034576D01*
X017936Y034554D01*
X017890Y034536D01*
X017842Y034521D01*
X017793Y034510D01*
X017744Y034503D01*
X017694Y034500D01*
X017643Y034501D01*
X017594Y034506D01*
X017544Y034515D01*
X017496Y034528D01*
X017449Y034544D01*
X017403Y034565D01*
X017359Y034589D01*
X017317Y034616D01*
X017277Y034646D01*
X017240Y034680D01*
X017206Y034717D01*
X017174Y034756D01*
X017146Y034797D01*
X017121Y034841D01*
X017100Y034886D01*
X017083Y034933D01*
X017069Y034981D01*
X017059Y035030D01*
X017053Y035080D01*
X017051Y035130D01*
X042705Y026862D02*
X042707Y026912D01*
X042713Y026962D01*
X042723Y027011D01*
X042737Y027059D01*
X042754Y027106D01*
X042775Y027151D01*
X042800Y027195D01*
X042828Y027236D01*
X042860Y027275D01*
X042894Y027312D01*
X042931Y027346D01*
X042971Y027376D01*
X043013Y027403D01*
X043057Y027427D01*
X043103Y027448D01*
X043150Y027464D01*
X043198Y027477D01*
X043248Y027486D01*
X043297Y027491D01*
X043348Y027492D01*
X043398Y027489D01*
X043447Y027482D01*
X043496Y027471D01*
X043544Y027456D01*
X043590Y027438D01*
X043635Y027416D01*
X043678Y027390D01*
X043719Y027361D01*
X043758Y027329D01*
X043794Y027294D01*
X043826Y027256D01*
X043856Y027216D01*
X043883Y027173D01*
X043906Y027129D01*
X043925Y027083D01*
X043941Y027035D01*
X043953Y026986D01*
X043961Y026937D01*
X043965Y026887D01*
X043965Y026837D01*
X043961Y026787D01*
X043953Y026738D01*
X043941Y026689D01*
X043925Y026641D01*
X043906Y026595D01*
X043883Y026551D01*
X043856Y026508D01*
X043826Y026468D01*
X043794Y026430D01*
X043758Y026395D01*
X043719Y026363D01*
X043678Y026334D01*
X043635Y026308D01*
X043590Y026286D01*
X043544Y026268D01*
X043496Y026253D01*
X043447Y026242D01*
X043398Y026235D01*
X043348Y026232D01*
X043297Y026233D01*
X043248Y026238D01*
X043198Y026247D01*
X043150Y026260D01*
X043103Y026276D01*
X043057Y026297D01*
X043013Y026321D01*
X042971Y026348D01*
X042931Y026378D01*
X042894Y026412D01*
X042860Y026449D01*
X042828Y026488D01*
X042800Y026529D01*
X042775Y026573D01*
X042754Y026618D01*
X042737Y026665D01*
X042723Y026713D01*
X042713Y026762D01*
X042707Y026812D01*
X042705Y026862D01*
D11*
X021000Y032800D03*
D12*
X020232Y032702D03*
X020232Y032898D03*
X020232Y033095D03*
X020232Y033292D03*
X020232Y032505D03*
X020232Y032308D03*
X021768Y032308D03*
X021768Y032505D03*
X021768Y032702D03*
X021768Y032898D03*
X021768Y033095D03*
X021768Y033292D03*
D13*
X021492Y033568D03*
X021295Y033568D03*
X021098Y033568D03*
X020902Y033568D03*
X020705Y033568D03*
X020508Y033568D03*
X020508Y032032D03*
X020705Y032032D03*
X020902Y032032D03*
X021098Y032032D03*
X021295Y032032D03*
X021492Y032032D03*
X020595Y029326D03*
X020398Y029326D03*
X020202Y029326D03*
X020005Y029326D03*
X020202Y028774D03*
X020398Y028774D03*
X020595Y028774D03*
D14*
X019599Y031833D03*
D15*
X018922Y031833D03*
X018922Y030967D03*
X019678Y030967D03*
D16*
X020200Y031250D03*
X020200Y031550D03*
X020600Y031550D03*
X020600Y031250D03*
X021000Y031250D03*
X021000Y031550D03*
X021400Y031550D03*
X021400Y031250D03*
X022200Y032900D03*
X022200Y033200D03*
X022050Y035100D03*
X021750Y035100D03*
X021750Y035500D03*
X022050Y035500D03*
X022050Y035900D03*
X021750Y035900D03*
X021750Y036300D03*
X022050Y036300D03*
X019750Y034700D03*
X019450Y034700D03*
X019450Y034300D03*
X019750Y034300D03*
X019700Y032750D03*
X019700Y032450D03*
X019200Y030200D03*
X019200Y029900D03*
X018800Y029900D03*
X018800Y030200D03*
X018850Y029450D03*
X019150Y029450D03*
X019600Y029100D03*
X019600Y028800D03*
X019600Y028300D03*
X019600Y028000D03*
X020250Y027950D03*
X020550Y027950D03*
X020550Y028350D03*
X020250Y028350D03*
X021000Y027650D03*
X021000Y027350D03*
X021650Y027700D03*
X021950Y027700D03*
X018450Y029050D03*
X018150Y029050D03*
X039850Y034150D03*
X040150Y034150D03*
X041150Y031550D03*
X041450Y031550D03*
X041400Y030550D03*
X041400Y030250D03*
D17*
X020005Y028755D03*
D18*
X019956Y028755D02*
X020054Y028755D01*
X020054Y028756D02*
X019956Y028756D01*
X019956Y028757D02*
X020054Y028757D01*
X020054Y028758D02*
X019956Y028758D01*
X019956Y028759D02*
X020054Y028759D01*
X020054Y028760D02*
X019956Y028760D01*
X019956Y028761D02*
X020054Y028761D01*
X020054Y028762D02*
X019956Y028762D01*
X019956Y028763D02*
X020054Y028763D01*
X020054Y028764D02*
X019956Y028764D01*
X019956Y028765D02*
X020054Y028765D01*
X020054Y028766D02*
X019956Y028766D01*
X019956Y028767D02*
X020054Y028767D01*
X020054Y028768D02*
X019956Y028768D01*
X019956Y028769D02*
X020054Y028769D01*
X020054Y028770D02*
X019956Y028770D01*
X019956Y028771D02*
X020054Y028771D01*
X020054Y028772D02*
X019956Y028772D01*
X019956Y028773D02*
X020054Y028773D01*
X020054Y028774D02*
X019956Y028774D01*
X019956Y028775D02*
X020054Y028775D01*
X020054Y028776D02*
X019956Y028776D01*
X019956Y028777D02*
X020054Y028777D01*
X020054Y028778D02*
X019956Y028778D01*
X019956Y028779D02*
X020054Y028779D01*
X020054Y028780D02*
X019956Y028780D01*
X019956Y028781D02*
X020054Y028781D01*
X020054Y028782D02*
X019956Y028782D01*
X019956Y028783D02*
X020054Y028783D01*
X020054Y028784D02*
X019956Y028784D01*
X019956Y028785D02*
X020054Y028785D01*
X020054Y028786D02*
X019956Y028786D01*
X019956Y028787D02*
X020054Y028787D01*
X020054Y028788D02*
X019956Y028788D01*
X019956Y028789D02*
X020054Y028789D01*
X020054Y028790D02*
X019956Y028790D01*
X019956Y028791D02*
X020054Y028791D01*
X020054Y028792D02*
X019956Y028792D01*
X019956Y028793D02*
X020054Y028793D01*
X020054Y028794D02*
X019956Y028794D01*
X019956Y028795D02*
X020054Y028795D01*
X020054Y028796D02*
X019956Y028796D01*
X019956Y028797D02*
X020054Y028797D01*
X020054Y028798D02*
X019956Y028798D01*
X019956Y028799D02*
X020054Y028799D01*
X020054Y028800D02*
X019956Y028800D01*
X019956Y028801D02*
X020054Y028801D01*
X020054Y028802D02*
X019956Y028802D01*
X019956Y028803D02*
X020054Y028803D01*
X020054Y028804D02*
X019956Y028804D01*
X019956Y028805D02*
X020054Y028805D01*
X020054Y028806D02*
X019956Y028806D01*
X019956Y028807D02*
X020054Y028807D01*
X020054Y028808D02*
X019956Y028808D01*
X019956Y028809D02*
X020054Y028809D01*
X020054Y028810D02*
X019956Y028810D01*
X019956Y028811D02*
X020054Y028811D01*
X020054Y028812D02*
X019956Y028812D01*
X019956Y028813D02*
X020054Y028813D01*
X020054Y028814D02*
X019956Y028814D01*
X019956Y028815D02*
X020054Y028815D01*
X020054Y028816D02*
X019956Y028816D01*
X019956Y028817D02*
X020054Y028817D01*
X020054Y028818D02*
X019956Y028818D01*
X019956Y028819D02*
X020054Y028819D01*
X020054Y028820D02*
X019956Y028820D01*
X019956Y028821D02*
X020054Y028821D01*
X020054Y028822D02*
X019956Y028822D01*
X019956Y028823D02*
X020054Y028823D01*
X020054Y028824D02*
X019956Y028824D01*
X019956Y028825D02*
X020054Y028825D01*
X020054Y028826D02*
X019956Y028826D01*
X019956Y028827D02*
X020054Y028827D01*
X020054Y028828D02*
X019956Y028828D01*
X019956Y028829D02*
X020054Y028829D01*
X020054Y028830D02*
X019956Y028830D01*
X019956Y028831D02*
X020054Y028831D01*
X020054Y028832D02*
X019956Y028832D01*
X019956Y028833D02*
X020054Y028833D01*
X020054Y028834D02*
X019956Y028834D01*
X019956Y028835D02*
X020054Y028835D01*
X020054Y028836D02*
X019956Y028836D01*
X019956Y028837D02*
X020054Y028837D01*
X020054Y028838D02*
X019956Y028838D01*
X019956Y028839D02*
X020054Y028839D01*
X020054Y028840D02*
X019956Y028840D01*
X019956Y028841D02*
X020054Y028841D01*
X020054Y028842D02*
X019956Y028842D01*
X019956Y028843D02*
X020054Y028843D01*
X020054Y028844D02*
X019956Y028844D01*
X019956Y028845D02*
X020054Y028845D01*
X020054Y028846D02*
X019956Y028846D01*
X019956Y028847D02*
X020054Y028847D01*
X020054Y028848D02*
X019956Y028848D01*
X019956Y028849D02*
X020054Y028849D01*
X020054Y028850D02*
X019956Y028850D01*
X019956Y028851D02*
X020054Y028851D01*
X020054Y028852D02*
X019956Y028852D01*
X019956Y028853D02*
X020054Y028853D01*
X020054Y028854D02*
X019956Y028854D01*
X019956Y028855D02*
X020054Y028855D01*
X020054Y028856D02*
X019956Y028856D01*
X019956Y028857D02*
X020054Y028857D01*
X020054Y028858D02*
X019956Y028858D01*
X019956Y028859D02*
X020054Y028859D01*
X020054Y028860D02*
X019956Y028860D01*
X019956Y028861D02*
X020054Y028861D01*
X020054Y028862D02*
X019956Y028862D01*
X019956Y028863D02*
X020054Y028863D01*
X020054Y028864D02*
X019956Y028864D01*
X019956Y028865D02*
X020054Y028865D01*
X020054Y028866D02*
X019956Y028866D01*
X019956Y028867D02*
X020054Y028867D01*
X020054Y028868D02*
X019956Y028868D01*
X019956Y028869D02*
X020054Y028869D01*
X020054Y028870D02*
X019956Y028870D01*
X019956Y028871D02*
X020054Y028871D01*
X020054Y028872D02*
X019956Y028872D01*
X019956Y028873D02*
X020054Y028873D01*
X020054Y028874D02*
X019956Y028874D01*
X019956Y028875D02*
X020054Y028875D01*
X020054Y028876D02*
X019956Y028876D01*
X019956Y028877D02*
X020054Y028877D01*
X020054Y028878D02*
X019956Y028878D01*
X019956Y028879D02*
X020054Y028879D01*
X020054Y028880D02*
X019956Y028880D01*
X019956Y028881D02*
X020054Y028881D01*
X020054Y028882D02*
X019956Y028882D01*
X019956Y028883D02*
X020054Y028883D01*
X020054Y028884D02*
X019957Y028884D01*
X019958Y028885D02*
X020054Y028885D01*
X020054Y028886D02*
X019959Y028886D01*
X019960Y028887D02*
X020054Y028887D01*
X020054Y028888D02*
X019961Y028888D01*
X019962Y028889D02*
X020054Y028889D01*
X020054Y028890D02*
X019963Y028890D01*
X019964Y028891D02*
X020054Y028891D01*
X020054Y028892D02*
X019965Y028892D01*
X019966Y028893D02*
X020054Y028893D01*
X020054Y028894D02*
X019967Y028894D01*
X019968Y028895D02*
X020054Y028895D01*
X020054Y028896D02*
X019969Y028896D01*
X019970Y028897D02*
X020054Y028897D01*
X020054Y028898D02*
X019971Y028898D01*
X019972Y028899D02*
X020054Y028899D01*
X020054Y028900D02*
X019973Y028900D01*
X019973Y028901D02*
X020054Y028901D01*
X020054Y028902D02*
X019974Y028902D01*
X019975Y028903D02*
X020054Y028903D01*
X020054Y028904D02*
X019976Y028904D01*
X019977Y028905D02*
X020054Y028905D01*
X020054Y028906D02*
X019978Y028906D01*
X019979Y028907D02*
X020054Y028907D01*
X020054Y028908D02*
X019980Y028908D01*
X019981Y028909D02*
X020054Y028909D01*
X020054Y028910D02*
X019982Y028910D01*
X019983Y028911D02*
X020054Y028911D01*
X020054Y028912D02*
X019984Y028912D01*
X019985Y028913D02*
X020054Y028913D01*
X020054Y028914D02*
X019986Y028914D01*
X019987Y028915D02*
X020054Y028915D01*
X020054Y028916D02*
X019988Y028916D01*
X019989Y028917D02*
X020054Y028917D01*
X020054Y028918D02*
X019990Y028918D01*
X019991Y028919D02*
X020054Y028919D01*
X020054Y028920D02*
X019992Y028920D01*
X019993Y028921D02*
X020054Y028921D01*
X020054Y028922D02*
X019994Y028922D01*
X019995Y028923D02*
X020054Y028923D01*
X020054Y028924D02*
X019996Y028924D01*
X019997Y028925D02*
X020054Y028925D01*
X020054Y028926D02*
X019998Y028926D01*
X019999Y028927D02*
X020054Y028927D01*
X020054Y028928D02*
X020000Y028928D01*
X020001Y028929D02*
X020054Y028929D01*
X020054Y028930D02*
X020002Y028930D01*
X020003Y028931D02*
X020054Y028931D01*
X020054Y028932D02*
X020004Y028932D01*
X019956Y028754D02*
X020054Y028754D01*
X020054Y028753D02*
X019956Y028753D01*
X019956Y028752D02*
X020054Y028752D01*
X020054Y028751D02*
X019956Y028751D01*
X019956Y028750D02*
X020054Y028750D01*
X020054Y028749D02*
X019956Y028749D01*
X019956Y028748D02*
X020054Y028748D01*
X020054Y028747D02*
X019956Y028747D01*
X019956Y028746D02*
X020054Y028746D01*
X020054Y028745D02*
X019956Y028745D01*
X019956Y028744D02*
X020054Y028744D01*
X020054Y028743D02*
X019956Y028743D01*
X019956Y028742D02*
X020054Y028742D01*
X020054Y028741D02*
X019956Y028741D01*
X019956Y028740D02*
X020054Y028740D01*
X020054Y028739D02*
X019956Y028739D01*
X019956Y028738D02*
X020054Y028738D01*
X020054Y028737D02*
X019956Y028737D01*
X019956Y028736D02*
X020054Y028736D01*
X020054Y028735D02*
X019956Y028735D01*
X019956Y028734D02*
X020054Y028734D01*
X020054Y028733D02*
X019956Y028733D01*
X019956Y028732D02*
X020054Y028732D01*
X020054Y028731D02*
X019956Y028731D01*
X019956Y028730D02*
X020054Y028730D01*
X020054Y028729D02*
X019956Y028729D01*
X019956Y028728D02*
X020054Y028728D01*
X020054Y028727D02*
X019956Y028727D01*
X019956Y028726D02*
X020054Y028726D01*
X020054Y028725D02*
X019956Y028725D01*
X019956Y028724D02*
X020054Y028724D01*
X020054Y028723D02*
X019956Y028723D01*
X019956Y028722D02*
X020054Y028722D01*
X020054Y028721D02*
X019956Y028721D01*
X019956Y028720D02*
X020054Y028720D01*
X020054Y028719D02*
X019956Y028719D01*
X019956Y028718D02*
X020054Y028718D01*
X020054Y028717D02*
X019956Y028717D01*
X019956Y028716D02*
X020054Y028716D01*
X020054Y028715D02*
X019956Y028715D01*
X019956Y028714D02*
X020054Y028714D01*
X020054Y028713D02*
X019956Y028713D01*
X019956Y028712D02*
X020054Y028712D01*
X020054Y028711D02*
X019956Y028711D01*
X019956Y028710D02*
X020054Y028710D01*
X020054Y028709D02*
X019956Y028709D01*
X019956Y028708D02*
X020054Y028708D01*
X020054Y028707D02*
X019956Y028707D01*
X019956Y028706D02*
X020054Y028706D01*
X020054Y028705D02*
X019956Y028705D01*
X019956Y028704D02*
X020054Y028704D01*
X020054Y028703D02*
X019956Y028703D01*
X019956Y028702D02*
X020054Y028702D01*
X020054Y028701D02*
X019956Y028701D01*
X019956Y028700D02*
X020054Y028700D01*
X020054Y028699D02*
X019956Y028699D01*
X019956Y028698D02*
X020054Y028698D01*
X020054Y028697D02*
X019956Y028697D01*
X019956Y028696D02*
X020054Y028696D01*
X020054Y028695D02*
X019956Y028695D01*
X019956Y028694D02*
X020054Y028694D01*
X020054Y028693D02*
X019956Y028693D01*
X019956Y028692D02*
X020054Y028692D01*
X020054Y028691D02*
X019956Y028691D01*
X019956Y028690D02*
X020054Y028690D01*
X020054Y028689D02*
X019956Y028689D01*
X019956Y028688D02*
X020054Y028688D01*
X020054Y028687D02*
X019956Y028687D01*
X019956Y028686D02*
X020054Y028686D01*
X020054Y028685D02*
X019956Y028685D01*
X019956Y028684D02*
X020054Y028684D01*
X020054Y028683D02*
X019956Y028683D01*
X019956Y028682D02*
X020054Y028682D01*
X020054Y028681D02*
X019956Y028681D01*
X019956Y028680D02*
X020054Y028680D01*
X020054Y028679D02*
X019956Y028679D01*
X019956Y028678D02*
X020054Y028678D01*
X020054Y028677D02*
X019956Y028677D01*
X019956Y028676D02*
X020054Y028676D01*
X020054Y028675D02*
X019956Y028675D01*
X019956Y028674D02*
X020054Y028674D01*
X020054Y028673D02*
X019956Y028673D01*
X019956Y028672D02*
X020054Y028672D01*
X020054Y028671D02*
X019956Y028671D01*
X019956Y028670D02*
X020054Y028670D01*
X020054Y028669D02*
X019956Y028669D01*
X019956Y028668D02*
X020054Y028668D01*
X020054Y028667D02*
X019956Y028667D01*
X019956Y028666D02*
X020054Y028666D01*
X020054Y028665D02*
X019956Y028665D01*
X019956Y028664D02*
X020054Y028664D01*
X020054Y028663D02*
X019956Y028663D01*
X019956Y028662D02*
X020054Y028662D01*
X020054Y028661D02*
X019956Y028661D01*
X019956Y028660D02*
X020054Y028660D01*
X020054Y028659D02*
X019956Y028659D01*
X019956Y028658D02*
X020054Y028658D01*
X020054Y028657D02*
X019956Y028657D01*
X019956Y028656D02*
X020054Y028656D01*
X020054Y028655D02*
X019956Y028655D01*
X019956Y028654D02*
X020054Y028654D01*
X020054Y028653D02*
X019956Y028653D01*
X019956Y028652D02*
X020054Y028652D01*
X020054Y028651D02*
X019956Y028651D01*
X019956Y028650D02*
X020054Y028650D01*
X020054Y028649D02*
X019956Y028649D01*
X019956Y028648D02*
X020054Y028648D01*
X020054Y028647D02*
X019956Y028647D01*
X019956Y028646D02*
X020054Y028646D01*
X020054Y028645D02*
X019956Y028645D01*
X019956Y028644D02*
X020054Y028644D01*
X020054Y028643D02*
X019956Y028643D01*
X019956Y028642D02*
X020054Y028642D01*
X020054Y028641D02*
X019956Y028641D01*
X019956Y028640D02*
X020054Y028640D01*
X020054Y028639D02*
X019956Y028639D01*
X019956Y028638D02*
X020054Y028638D01*
X020054Y028637D02*
X019956Y028637D01*
D19*
X021700Y029925D03*
X021700Y030575D03*
D20*
X020900Y030000D03*
X019700Y030000D03*
D21*
X021150Y029100D03*
X021850Y029100D03*
X021850Y028300D03*
X021150Y028300D03*
D22*
X021450Y027250D03*
X021950Y027250D03*
X021850Y031250D03*
X022350Y031250D03*
D23*
X019050Y032500D03*
X019050Y033700D03*
D24*
X018600Y027081D03*
X018600Y026019D03*
D25*
X018550Y027800D03*
X018550Y028500D03*
D26*
X017346Y028125D03*
X017346Y026125D03*
D27*
X020317Y034144D03*
X020317Y034400D03*
X020317Y034656D03*
X021183Y034656D03*
X021183Y034144D03*
D28*
X042955Y030547D03*
D29*
X043555Y029927D03*
X043555Y032073D03*
D30*
G36*
X041406Y030803D02*
X041265Y030944D01*
X041406Y031085D01*
X041547Y030944D01*
X041406Y030803D01*
G37*
G36*
X041194Y031015D02*
X041053Y031156D01*
X041194Y031297D01*
X041335Y031156D01*
X041194Y031015D01*
G37*
D31*
X020050Y026900D03*
D32*
X020050Y025975D03*
D33*
X017550Y028900D03*
X016950Y028900D03*
X016950Y033100D03*
X017550Y033100D03*
D34*
X018150Y033000D03*
X018150Y033500D03*
X021750Y034150D03*
X021750Y034650D03*
X022250Y034650D03*
X022250Y034150D03*
D35*
X021500Y026000D03*
X040900Y026000D03*
X043500Y036000D03*
D36*
X039617Y034937D02*
X039225Y034937D01*
X039225Y034150D02*
X039617Y034150D01*
X039617Y033362D02*
X039225Y033362D01*
X039225Y032575D02*
X039617Y032575D01*
X039617Y031787D02*
X039225Y031787D01*
X039225Y031000D02*
X039617Y031000D01*
X039617Y030213D02*
X039225Y030213D01*
X039225Y029425D02*
X039617Y029425D01*
X039617Y028638D02*
X039225Y028638D01*
X039225Y027850D02*
X039617Y027850D01*
X039617Y027063D02*
X039225Y027063D01*
X038437Y026275D02*
X038437Y025883D01*
X037649Y025883D02*
X037649Y026275D01*
X036862Y026275D02*
X036862Y025883D01*
X036074Y025883D02*
X036074Y026275D01*
X035287Y026275D02*
X035287Y025883D01*
X034500Y025883D02*
X034500Y026275D01*
X033712Y026275D02*
X033712Y025883D01*
X032925Y025883D02*
X032925Y026275D01*
X032137Y026275D02*
X032137Y025883D01*
X031350Y025883D02*
X031350Y026275D01*
X030563Y026275D02*
X030563Y025883D01*
X029775Y025883D02*
X029775Y026275D01*
X028988Y026275D02*
X028988Y025883D01*
X028200Y025883D02*
X028200Y026275D01*
X027413Y026275D02*
X027413Y025883D01*
X026626Y025883D02*
X026626Y026275D01*
X025838Y026275D02*
X025838Y025883D01*
X025051Y025883D02*
X025051Y026275D01*
X024263Y026275D02*
X024263Y025883D01*
X023475Y027063D02*
X023083Y027063D01*
X023083Y027850D02*
X023475Y027850D01*
X023475Y028638D02*
X023083Y028638D01*
X023083Y029425D02*
X023475Y029425D01*
X023475Y030213D02*
X023083Y030213D01*
X023083Y031000D02*
X023475Y031000D01*
X023475Y031787D02*
X023083Y031787D01*
X023083Y032575D02*
X023475Y032575D01*
X023475Y033362D02*
X023083Y033362D01*
X023083Y034150D02*
X023475Y034150D01*
X023475Y034937D02*
X023083Y034937D01*
X024263Y035725D02*
X024263Y036117D01*
X025051Y036117D02*
X025051Y035725D01*
X025838Y035725D02*
X025838Y036117D01*
X026626Y036117D02*
X026626Y035725D01*
X027413Y035725D02*
X027413Y036117D01*
X028200Y036117D02*
X028200Y035725D01*
X028988Y035725D02*
X028988Y036117D01*
X029775Y036117D02*
X029775Y035725D01*
X030563Y035725D02*
X030563Y036117D01*
X031350Y036117D02*
X031350Y035725D01*
X032137Y035725D02*
X032137Y036117D01*
X032925Y036117D02*
X032925Y035725D01*
X033712Y035725D02*
X033712Y036117D01*
X034500Y036117D02*
X034500Y035725D01*
X035287Y035725D02*
X035287Y036117D01*
X036074Y036117D02*
X036074Y035725D01*
X036862Y035725D02*
X036862Y036117D01*
X037649Y036117D02*
X037649Y035725D01*
X038437Y035725D02*
X038437Y036117D01*
D37*
X038500Y035500D03*
X037500Y035500D03*
X037500Y034500D03*
X038500Y034500D03*
X038750Y034300D03*
X038750Y034000D03*
X039000Y033750D03*
X039500Y033750D03*
X040000Y033750D03*
X040500Y033750D03*
X040750Y033500D03*
X040750Y033000D03*
X040750Y032500D03*
X040750Y032000D03*
X040750Y031500D03*
X040750Y031000D03*
X041000Y030500D03*
X040500Y030500D03*
X041000Y030000D03*
X041500Y029750D03*
X042000Y029750D03*
X042500Y029750D03*
X043000Y029500D03*
X043500Y029500D03*
X044000Y029500D03*
X043500Y028500D03*
X042500Y028500D03*
X042500Y027500D03*
X042500Y026500D03*
X041500Y026500D03*
X040500Y026500D03*
X040500Y027500D03*
X041500Y028500D03*
X040500Y029500D03*
X038500Y029500D03*
X037500Y029500D03*
X037500Y028500D03*
X038500Y028500D03*
X037500Y027500D03*
X036500Y027500D03*
X035500Y027500D03*
X034500Y027500D03*
X034500Y028500D03*
X035500Y028500D03*
X036500Y028500D03*
X036500Y029500D03*
X035500Y029500D03*
X034500Y029500D03*
X034500Y030500D03*
X035500Y030500D03*
X036500Y030500D03*
X036500Y031500D03*
X035500Y031500D03*
X034500Y031500D03*
X034500Y032500D03*
X034500Y033500D03*
X035500Y033500D03*
X035500Y032500D03*
X036500Y032500D03*
X036500Y033500D03*
X036500Y034500D03*
X035500Y034500D03*
X034500Y034500D03*
X034500Y035450D03*
X033750Y035450D03*
X032950Y035450D03*
X032500Y035500D03*
X032150Y035450D03*
X032500Y034500D03*
X031500Y034500D03*
X031500Y033500D03*
X031500Y032500D03*
X032500Y032500D03*
X032500Y033500D03*
X033500Y033500D03*
X033500Y032500D03*
X033500Y031500D03*
X032500Y031500D03*
X031500Y031500D03*
X031500Y030500D03*
X032500Y030500D03*
X033500Y030500D03*
X033500Y029500D03*
X032500Y029500D03*
X031500Y029500D03*
X031500Y028500D03*
X032500Y028500D03*
X033500Y028500D03*
X033500Y027500D03*
X032500Y027500D03*
X031500Y027500D03*
X030500Y027500D03*
X029500Y027500D03*
X029500Y026500D03*
X028500Y026500D03*
X027500Y026500D03*
X026600Y026600D03*
X025800Y026600D03*
X025050Y026600D03*
X024250Y026600D03*
X024000Y026800D03*
X023850Y027050D03*
X024500Y027500D03*
X025500Y027500D03*
X025500Y028500D03*
X024500Y028500D03*
X023900Y028650D03*
X022600Y029050D03*
X022100Y029100D03*
X021850Y029450D03*
X021600Y029100D03*
X021850Y028700D03*
X021600Y028300D03*
X022100Y028300D03*
X022100Y027700D03*
X021000Y027150D03*
X020400Y027250D03*
X019600Y027750D03*
X019750Y028000D03*
X019450Y028000D03*
X018550Y028050D03*
X018550Y027550D03*
X018500Y026500D03*
X017500Y025500D03*
X017500Y027500D03*
X018450Y028900D03*
X018700Y029450D03*
X018800Y029750D03*
X019050Y029900D03*
X019150Y029600D03*
X019150Y029250D03*
X020400Y029000D03*
X020900Y029600D03*
X020650Y030000D03*
X020900Y030400D03*
X021000Y031100D03*
X021260Y031640D03*
X021850Y031500D03*
X022150Y031750D03*
X022250Y032000D03*
X022150Y032250D03*
X022410Y032250D03*
X022250Y032500D03*
X022350Y031550D03*
X023750Y032550D03*
X024500Y032500D03*
X024700Y032250D03*
X024500Y031500D03*
X025500Y031500D03*
X025500Y030500D03*
X024500Y030500D03*
X025500Y029500D03*
X026500Y029500D03*
X027500Y029500D03*
X028500Y029500D03*
X028500Y028500D03*
X027500Y028500D03*
X026500Y028500D03*
X026500Y027500D03*
X027500Y027500D03*
X028500Y027500D03*
X029500Y028500D03*
X030500Y028500D03*
X030500Y029500D03*
X029500Y029500D03*
X029500Y030500D03*
X030500Y030500D03*
X030500Y031500D03*
X029500Y031500D03*
X029500Y032500D03*
X029500Y033500D03*
X030500Y033500D03*
X030500Y032500D03*
X030500Y034500D03*
X029500Y034500D03*
X029800Y035450D03*
X029000Y035450D03*
X028200Y035450D03*
X027450Y035450D03*
X026650Y035450D03*
X025850Y035450D03*
X025500Y035500D03*
X025000Y035450D03*
X024300Y035400D03*
X023800Y034850D03*
X023750Y034150D03*
X024300Y034350D03*
X024600Y034000D03*
X024500Y033500D03*
X025500Y032500D03*
X026500Y031500D03*
X027500Y031500D03*
X028500Y031500D03*
X028500Y030500D03*
X027500Y030500D03*
X026500Y030500D03*
X027500Y032500D03*
X027500Y033500D03*
X026500Y033500D03*
X026500Y034500D03*
X027500Y034500D03*
X028500Y034500D03*
X028500Y033500D03*
X028500Y032500D03*
X025500Y034500D03*
X023500Y036500D03*
X022200Y035100D03*
X021400Y034100D03*
X021300Y033800D03*
X021000Y032800D03*
X020470Y033100D03*
X019960Y032920D03*
X019960Y032660D03*
X020000Y032100D03*
X019900Y031850D03*
X019600Y031500D03*
X019190Y031480D03*
X018950Y031320D03*
X019450Y030850D03*
X019500Y030520D03*
X020050Y031250D03*
X020400Y031250D03*
X018520Y032110D03*
X019400Y032950D03*
X019700Y033250D03*
X019800Y033500D03*
X019700Y033750D03*
X019800Y034000D03*
X019950Y034300D03*
X020600Y034900D03*
X020550Y035950D03*
X021500Y036500D03*
X018500Y035500D03*
X018500Y034500D03*
X019050Y034000D03*
X018650Y033700D03*
X018150Y033650D03*
X017500Y033500D03*
X017800Y030500D03*
X018250Y030200D03*
X017500Y029500D03*
X024500Y025500D03*
X025500Y025500D03*
X031000Y026500D03*
X032500Y026500D03*
X036500Y026500D03*
X036500Y025500D03*
X037500Y025500D03*
X038500Y025500D03*
X039500Y025500D03*
X041500Y025500D03*
X043500Y025500D03*
X038500Y030500D03*
X038850Y031000D03*
X038850Y031800D03*
X038500Y032500D03*
X038500Y033500D03*
X037500Y033500D03*
X037500Y032500D03*
X037500Y031500D03*
X037500Y030500D03*
X041500Y032000D03*
X041500Y032500D03*
X041500Y033000D03*
X041500Y033500D03*
X041500Y034000D03*
X041500Y034500D03*
X041000Y034500D03*
X040500Y034500D03*
X040000Y034500D03*
X039500Y034510D03*
X039000Y034500D03*
X039500Y035500D03*
X040500Y035500D03*
X041500Y035500D03*
X042500Y035500D03*
X042500Y034500D03*
X043500Y034500D03*
X043500Y033500D03*
X043500Y032500D03*
X043000Y032500D03*
X042500Y032250D03*
X042000Y032250D03*
X042500Y033500D03*
X044000Y032500D03*
X036500Y035500D03*
X035300Y035450D03*
X033500Y034500D03*
X030600Y035450D03*
X017500Y036500D03*
D38*
X018124Y031512D03*
X018124Y031256D03*
X018124Y031000D03*
X018124Y030744D03*
X018124Y030488D03*
D39*
X017071Y031000D03*
D40*
X017071Y029888D03*
X017071Y032112D03*
D41*
X019394Y035335D03*
X019394Y035965D03*
X021106Y035965D03*
X021106Y035335D03*
D42*
X017000Y037000D03*
X017000Y025000D03*
D43*
X018000Y025000D03*
X019000Y025000D03*
X020000Y025000D03*
X021000Y025000D03*
X022000Y025000D03*
X023000Y025000D03*
X024000Y025000D03*
X025000Y025000D03*
X026000Y025000D03*
X027000Y025000D03*
X028000Y025000D03*
X029000Y025000D03*
X030000Y025000D03*
X031000Y025000D03*
X032000Y025000D03*
X033000Y025000D03*
X034000Y025000D03*
X035000Y025000D03*
X036000Y025000D03*
X037000Y025000D03*
X038000Y025000D03*
X039000Y025000D03*
X040000Y025000D03*
X041000Y025000D03*
X042000Y025000D03*
X043000Y025000D03*
X044000Y025000D03*
X044000Y037000D03*
X043000Y037000D03*
X042000Y037000D03*
X041000Y037000D03*
X040000Y037000D03*
X039000Y037000D03*
X038000Y037000D03*
X037000Y037000D03*
X036000Y037000D03*
X035000Y037000D03*
X034000Y037000D03*
X033000Y037000D03*
X032000Y037000D03*
X031000Y037000D03*
X030000Y037000D03*
X029000Y037000D03*
X028000Y037000D03*
X027000Y037000D03*
X026000Y037000D03*
X025000Y037000D03*
X024000Y037000D03*
X023000Y037000D03*
X022000Y037000D03*
X021000Y037000D03*
X020000Y037000D03*
X019000Y037000D03*
X018000Y037000D03*
D44*
X018442Y036813D02*
X018558Y036813D01*
X018593Y036728D02*
X018728Y036593D01*
X018905Y036520D01*
X019095Y036520D01*
X019272Y036593D01*
X019407Y036728D01*
X019480Y036905D01*
X019480Y037095D01*
X019407Y037272D01*
X019327Y037352D01*
X019673Y037352D01*
X019593Y037272D01*
X019520Y037095D01*
X019520Y036905D01*
X019593Y036728D01*
X019728Y036593D01*
X019905Y036520D01*
X020095Y036520D01*
X020272Y036593D01*
X020407Y036728D01*
X020480Y036905D01*
X020480Y037095D01*
X020407Y037272D01*
X020327Y037352D01*
X020673Y037352D01*
X020593Y037272D01*
X020520Y037095D01*
X020520Y036905D01*
X020593Y036728D01*
X020728Y036593D01*
X020850Y036543D01*
X020850Y036272D01*
X020795Y036272D01*
X020731Y036207D01*
X020731Y036110D01*
X020727Y036109D01*
X020664Y036131D01*
X020636Y036158D01*
X020585Y036158D01*
X020560Y036167D01*
X020560Y036167D01*
X020560Y036167D01*
X020542Y036158D01*
X020464Y036158D01*
X020342Y036036D01*
X020342Y035864D01*
X020464Y035742D01*
X020542Y035742D01*
X020560Y035733D01*
X020560Y035733D01*
X020560Y035733D01*
X020585Y035742D01*
X020636Y035742D01*
X020664Y035769D01*
X020727Y035791D01*
X020731Y035790D01*
X020731Y035723D01*
X020795Y035658D01*
X021418Y035658D01*
X021482Y035723D01*
X021482Y035750D01*
X021544Y035750D01*
X021594Y035700D01*
X021544Y035650D01*
X021209Y035650D01*
X021201Y035642D01*
X020795Y035642D01*
X020731Y035577D01*
X020731Y035100D01*
X020695Y035100D01*
X020686Y035108D01*
X020514Y035108D01*
X020505Y035100D01*
X019867Y035100D01*
X019677Y034910D01*
X019604Y034910D01*
X019600Y034906D01*
X019596Y034910D01*
X019304Y034910D01*
X019240Y034846D01*
X019240Y034554D01*
X019294Y034500D01*
X019240Y034446D01*
X019240Y034154D01*
X019304Y034090D01*
X019583Y034090D01*
X019592Y034085D01*
X019592Y033936D01*
X019529Y033873D01*
X019529Y033942D01*
X019520Y033975D01*
X019503Y034004D01*
X019479Y034028D01*
X019450Y034045D01*
X019417Y034054D01*
X019100Y034054D01*
X019100Y033750D01*
X019000Y033750D01*
X019000Y034054D01*
X018683Y034054D01*
X018650Y034045D01*
X018621Y034028D01*
X018597Y034004D01*
X018580Y033975D01*
X018571Y033942D01*
X018571Y033750D01*
X019000Y033750D01*
X019000Y033650D01*
X019100Y033650D01*
X019100Y033346D01*
X019417Y033346D01*
X019450Y033355D01*
X019479Y033372D01*
X019503Y033396D01*
X019520Y033425D01*
X019529Y033458D01*
X019529Y033627D01*
X019592Y033564D01*
X019592Y033436D01*
X019492Y033336D01*
X019492Y033164D01*
X019614Y033042D01*
X019786Y033042D01*
X019887Y033142D01*
X019966Y033142D01*
X019966Y033132D01*
X019957Y033128D01*
X019874Y033128D01*
X019752Y033006D01*
X019752Y032979D01*
X019700Y032979D01*
X019583Y032979D01*
X019550Y032970D01*
X019521Y032953D01*
X019497Y032929D01*
X019480Y032900D01*
X019471Y032867D01*
X019471Y032809D01*
X019446Y032835D01*
X018654Y032835D01*
X018629Y032810D01*
X018416Y032810D01*
X018435Y032829D01*
X018435Y033171D01*
X018371Y033235D01*
X017929Y033235D01*
X017865Y033171D01*
X017865Y033150D01*
X017860Y033150D01*
X017860Y033346D01*
X017796Y033410D01*
X017304Y033410D01*
X017261Y033366D01*
X017253Y033379D01*
X017229Y033403D01*
X017200Y033420D01*
X017167Y033429D01*
X017000Y033429D01*
X017000Y033150D01*
X016900Y033150D01*
X016900Y033429D01*
X016733Y033429D01*
X016700Y033420D01*
X016671Y033403D01*
X016648Y033380D01*
X016648Y036520D01*
X017416Y036520D01*
X017480Y036584D01*
X017480Y037352D01*
X017673Y037352D01*
X017593Y037272D01*
X017520Y037095D01*
X017520Y036905D01*
X017593Y036728D01*
X017728Y036593D01*
X017905Y036520D01*
X018095Y036520D01*
X018272Y036593D01*
X018407Y036728D01*
X018480Y036905D01*
X018480Y037095D01*
X018407Y037272D01*
X018327Y037352D01*
X018673Y037352D01*
X018593Y037272D01*
X018520Y037095D01*
X018520Y036905D01*
X018593Y036728D01*
X018607Y036714D02*
X018393Y036714D01*
X018294Y036616D02*
X018706Y036616D01*
X018520Y036911D02*
X018480Y036911D01*
X018480Y037010D02*
X018520Y037010D01*
X018525Y037108D02*
X018475Y037108D01*
X018434Y037207D02*
X018566Y037207D01*
X018626Y037305D02*
X018374Y037305D01*
X017626Y037305D02*
X017480Y037305D01*
X017480Y037207D02*
X017566Y037207D01*
X017525Y037108D02*
X017480Y037108D01*
X017480Y037010D02*
X017520Y037010D01*
X017520Y036911D02*
X017480Y036911D01*
X017480Y036813D02*
X017558Y036813D01*
X017607Y036714D02*
X017480Y036714D01*
X017480Y036616D02*
X017706Y036616D01*
X017836Y035908D02*
X017526Y035908D01*
X017240Y035790D01*
X017021Y035571D01*
X016903Y035285D01*
X016903Y034975D01*
X017021Y034689D01*
X017240Y034470D01*
X017526Y034352D01*
X017836Y034352D01*
X018122Y034470D01*
X018341Y034689D01*
X018459Y034975D01*
X018459Y035285D01*
X018341Y035571D01*
X018122Y035790D01*
X017836Y035908D01*
X018031Y035828D02*
X019018Y035828D01*
X019018Y035926D02*
X016648Y035926D01*
X016648Y035828D02*
X017331Y035828D01*
X017179Y035729D02*
X016648Y035729D01*
X016648Y035631D02*
X017081Y035631D01*
X017005Y035532D02*
X016648Y035532D01*
X016648Y035434D02*
X016964Y035434D01*
X016924Y035335D02*
X016648Y035335D01*
X016648Y035237D02*
X016903Y035237D01*
X016903Y035138D02*
X016648Y035138D01*
X016648Y035040D02*
X016903Y035040D01*
X016917Y034941D02*
X016648Y034941D01*
X016648Y034843D02*
X016958Y034843D01*
X016998Y034744D02*
X016648Y034744D01*
X016648Y034646D02*
X017065Y034646D01*
X017163Y034547D02*
X016648Y034547D01*
X016648Y034449D02*
X017292Y034449D01*
X016648Y034350D02*
X019240Y034350D01*
X019240Y034252D02*
X016648Y034252D01*
X016648Y034153D02*
X019241Y034153D01*
X019100Y033956D02*
X019000Y033956D01*
X019000Y033858D02*
X019100Y033858D01*
X019100Y033759D02*
X019000Y033759D01*
X019000Y033661D02*
X018435Y033661D01*
X018435Y033671D02*
X018371Y033735D01*
X018358Y033735D01*
X018358Y033736D01*
X018236Y033858D01*
X018064Y033858D01*
X017942Y033736D01*
X017942Y033735D01*
X017929Y033735D01*
X017865Y033671D01*
X017865Y033329D01*
X017929Y033265D01*
X018371Y033265D01*
X018435Y033329D01*
X018435Y033671D01*
X018435Y033562D02*
X018571Y033562D01*
X018571Y033650D02*
X018571Y033458D01*
X018580Y033425D01*
X018597Y033396D01*
X018621Y033372D01*
X018650Y033355D01*
X018683Y033346D01*
X019000Y033346D01*
X019000Y033650D01*
X018571Y033650D01*
X018571Y033759D02*
X018336Y033759D01*
X018237Y033858D02*
X018571Y033858D01*
X018575Y033956D02*
X016648Y033956D01*
X016648Y033858D02*
X018063Y033858D01*
X017964Y033759D02*
X016648Y033759D01*
X016648Y033661D02*
X017865Y033661D01*
X017865Y033562D02*
X016648Y033562D01*
X016648Y033464D02*
X017865Y033464D01*
X017865Y033365D02*
X017841Y033365D01*
X017860Y033267D02*
X017928Y033267D01*
X017865Y033168D02*
X017860Y033168D01*
X018372Y033267D02*
X019492Y033267D01*
X019492Y033168D02*
X018435Y033168D01*
X018435Y033070D02*
X019586Y033070D01*
X019554Y032971D02*
X018435Y032971D01*
X018435Y032873D02*
X019473Y032873D01*
X019510Y032750D02*
X019700Y032750D01*
X019700Y032750D01*
X019700Y032979D01*
X019700Y032750D01*
X019700Y032750D01*
X019510Y032750D01*
X019510Y032750D01*
X019700Y032774D02*
X019700Y032774D01*
X019700Y032873D02*
X019700Y032873D01*
X019700Y032971D02*
X019700Y032971D01*
X019814Y033070D02*
X019815Y033070D01*
X019979Y032965D02*
X019960Y032920D01*
X019967Y032872D01*
X020136Y032898D01*
X019979Y032965D01*
X019960Y032920D02*
X019982Y032898D01*
X020136Y032898D01*
X020232Y032898D01*
X020231Y032900D01*
X020232Y033095D02*
X020237Y033100D01*
X020293Y033100D01*
X020457Y033147D01*
X020470Y033100D01*
X020457Y033053D01*
X020293Y033100D01*
X020470Y033100D01*
X020480Y032850D02*
X020950Y032850D01*
X020950Y033320D01*
X020996Y033320D01*
X021000Y033324D01*
X021004Y033320D01*
X021050Y033320D01*
X021050Y032850D01*
X020950Y032850D01*
X020950Y032750D01*
X020950Y032280D01*
X020996Y032280D01*
X021000Y032276D01*
X021004Y032280D01*
X021050Y032280D01*
X021050Y032750D01*
X021520Y032750D01*
X021520Y032796D01*
X021524Y032800D01*
X021520Y032804D01*
X021520Y032850D01*
X021050Y032850D01*
X021050Y032750D01*
X020950Y032750D01*
X020480Y032750D01*
X020480Y032796D01*
X020476Y032800D01*
X020480Y032804D01*
X020480Y032850D01*
X020480Y032774D02*
X020950Y032774D01*
X020950Y032676D02*
X021050Y032676D01*
X021050Y032774D02*
X021520Y032774D01*
X021050Y032873D02*
X020950Y032873D01*
X020950Y032971D02*
X021050Y032971D01*
X021050Y033070D02*
X020950Y033070D01*
X020950Y033168D02*
X021050Y033168D01*
X021050Y033267D02*
X020950Y033267D01*
X020950Y032577D02*
X021050Y032577D01*
X021050Y032479D02*
X020950Y032479D01*
X020950Y032380D02*
X021050Y032380D01*
X021050Y032282D02*
X020950Y032282D01*
X020705Y032032D02*
X020508Y032032D01*
X020082Y031892D02*
X020082Y031760D01*
X020054Y031760D01*
X019990Y031696D01*
X019990Y031417D01*
X019980Y031400D01*
X019971Y031367D01*
X019971Y031302D01*
X019920Y031353D01*
X019436Y031353D01*
X019371Y031288D01*
X019371Y031058D01*
X019364Y031058D01*
X019242Y030936D01*
X019242Y030764D01*
X019364Y030642D01*
X019375Y030642D01*
X019436Y030581D01*
X019920Y030581D01*
X019985Y030646D01*
X019985Y030850D01*
X020315Y030850D01*
X020185Y030720D01*
X020050Y030585D01*
X020050Y029595D01*
X020071Y029573D01*
X020004Y029573D01*
X020035Y029604D01*
X020035Y030396D01*
X019971Y030460D01*
X019429Y030460D01*
X019369Y030400D01*
X019356Y030400D01*
X019346Y030410D01*
X019054Y030410D01*
X019044Y030400D01*
X018956Y030400D01*
X018946Y030410D01*
X018654Y030410D01*
X018644Y030400D01*
X018519Y030400D01*
X018519Y030488D01*
X018124Y030488D01*
X017730Y030488D01*
X017730Y030392D01*
X017731Y030389D01*
X017700Y030358D01*
X017661Y030264D01*
X017661Y030162D01*
X017700Y030067D01*
X017772Y029995D01*
X017866Y029956D01*
X017968Y029956D01*
X018063Y029995D01*
X018111Y030044D01*
X018164Y029992D01*
X018336Y029992D01*
X018345Y030000D01*
X018571Y030000D01*
X018571Y029900D01*
X018800Y029900D01*
X019200Y029900D01*
X019200Y029900D01*
X018971Y029900D01*
X018800Y029900D01*
X018800Y029900D01*
X018800Y029671D01*
X018917Y029671D01*
X018950Y029680D01*
X018979Y029697D01*
X019000Y029718D01*
X019021Y029697D01*
X019050Y029680D01*
X019055Y029679D01*
X019033Y029679D01*
X019000Y029670D01*
X018983Y029660D01*
X018704Y029660D01*
X018703Y029658D01*
X018614Y029658D01*
X018492Y029536D01*
X018492Y029364D01*
X018595Y029260D01*
X018304Y029260D01*
X018300Y029256D01*
X018296Y029260D01*
X018004Y029260D01*
X017944Y029200D01*
X017806Y029200D01*
X017796Y029210D01*
X017304Y029210D01*
X017261Y029166D01*
X017253Y029179D01*
X017229Y029203D01*
X017200Y029220D01*
X017167Y029229D01*
X017000Y029229D01*
X017000Y028950D01*
X016900Y028950D01*
X016900Y029229D01*
X016733Y029229D01*
X016700Y029220D01*
X016671Y029203D01*
X016648Y029180D01*
X016648Y030519D01*
X016651Y030516D01*
X016761Y030516D01*
X016761Y029826D01*
X016808Y029712D01*
X016895Y029625D01*
X017009Y029578D01*
X017133Y029578D01*
X017246Y029625D01*
X017334Y029712D01*
X017381Y029826D01*
X017381Y030516D01*
X017490Y030516D01*
X017555Y030580D01*
X017555Y031420D01*
X017490Y031484D01*
X017381Y031484D01*
X017381Y031984D01*
X017587Y032190D01*
X018312Y032190D01*
X018312Y032024D01*
X018320Y032015D01*
X018320Y031753D01*
X018279Y031712D01*
X018164Y031712D01*
X018174Y031736D01*
X018174Y031838D01*
X018135Y031933D01*
X018063Y032005D01*
X017968Y032044D01*
X017866Y032044D01*
X017772Y032005D01*
X017700Y031933D01*
X017661Y031838D01*
X017661Y031736D01*
X017700Y031642D01*
X017748Y031593D01*
X017748Y031388D01*
X017752Y031384D01*
X017748Y031380D01*
X017748Y031132D01*
X017752Y031128D01*
X017748Y031124D01*
X017748Y030876D01*
X017752Y030872D01*
X017748Y030868D01*
X017748Y030634D01*
X017738Y030617D01*
X017730Y030584D01*
X017730Y030488D01*
X018124Y030488D01*
X018124Y030488D01*
X018124Y030488D01*
X018519Y030488D01*
X018519Y030584D01*
X018510Y030617D01*
X018500Y030634D01*
X018500Y030818D01*
X018615Y030818D01*
X018615Y030646D01*
X018680Y030581D01*
X019164Y030581D01*
X019229Y030646D01*
X019229Y031272D01*
X019276Y031272D01*
X019398Y031394D01*
X019398Y031429D01*
X019549Y031429D01*
X019549Y031783D01*
X019234Y031783D01*
X019234Y031698D01*
X019229Y031701D01*
X019229Y032154D01*
X019218Y032165D01*
X019247Y032165D01*
X019243Y032158D01*
X019234Y032126D01*
X019234Y031883D01*
X019549Y031883D01*
X019549Y031783D01*
X019649Y031783D01*
X019649Y031429D01*
X019852Y031429D01*
X019885Y031438D01*
X019914Y031454D01*
X019938Y031478D01*
X019955Y031508D01*
X019964Y031541D01*
X019964Y031783D01*
X019649Y031783D01*
X019649Y031883D01*
X019549Y031883D01*
X019549Y032237D01*
X019510Y032237D01*
X019510Y032284D01*
X019554Y032240D01*
X019793Y032240D01*
X019793Y032237D01*
X019649Y032237D01*
X019649Y031883D01*
X019964Y031883D01*
X019964Y031892D01*
X020082Y031892D01*
X020082Y031888D02*
X019964Y031888D01*
X020082Y031789D02*
X019649Y031789D01*
X019649Y031691D02*
X019549Y031691D01*
X019549Y031789D02*
X019229Y031789D01*
X019229Y031888D02*
X019234Y031888D01*
X019229Y031986D02*
X019234Y031986D01*
X019229Y032085D02*
X019234Y032085D01*
X019549Y032085D02*
X019649Y032085D01*
X019649Y032183D02*
X019549Y032183D01*
X019513Y032282D02*
X019510Y032282D01*
X019549Y031986D02*
X019649Y031986D01*
X019649Y031888D02*
X019549Y031888D01*
X019549Y031592D02*
X019649Y031592D01*
X019649Y031494D02*
X019549Y031494D01*
X019398Y031395D02*
X019979Y031395D01*
X019990Y031494D02*
X019947Y031494D01*
X019964Y031592D02*
X019990Y031592D01*
X019990Y031691D02*
X019964Y031691D01*
X020063Y031297D02*
X020050Y031250D01*
X020063Y031203D01*
X020227Y031250D01*
X020063Y031297D01*
X019985Y031250D02*
X020200Y031250D01*
X020227Y031250D01*
X020600Y031250D01*
X020600Y031250D01*
X020371Y031250D01*
X020200Y031250D01*
X020200Y031250D01*
X020600Y031250D01*
X020882Y030970D02*
X020933Y031021D01*
X021000Y031021D01*
X021117Y031021D01*
X021150Y031030D01*
X021179Y031047D01*
X021203Y031071D01*
X021211Y031084D01*
X021254Y031040D01*
X021546Y031040D01*
X021610Y031104D01*
X021610Y031383D01*
X021615Y031392D01*
X021615Y031029D01*
X021679Y030965D01*
X022021Y030965D01*
X022085Y031029D01*
X022085Y031471D01*
X022058Y031497D01*
X022058Y031547D01*
X022064Y031542D01*
X022120Y031542D01*
X022120Y031476D01*
X022115Y031471D01*
X022115Y031029D01*
X022179Y030965D01*
X022500Y030965D01*
X022500Y030383D01*
X022242Y030125D01*
X022204Y030125D01*
X022204Y030138D01*
X022139Y030203D01*
X021261Y030203D01*
X021254Y030196D01*
X021254Y030304D01*
X021261Y030297D01*
X022139Y030297D01*
X022204Y030362D01*
X022204Y030788D01*
X022139Y030852D01*
X021748Y030852D01*
X021630Y030970D01*
X020882Y030970D01*
X020913Y031001D02*
X021643Y031001D01*
X021615Y031100D02*
X021605Y031100D01*
X021610Y031198D02*
X021615Y031198D01*
X021610Y031297D02*
X021615Y031297D01*
X021629Y031484D02*
X021629Y031550D01*
X021400Y031550D01*
X021629Y031550D01*
X021629Y031600D01*
X021655Y031600D01*
X021642Y031586D01*
X021642Y031497D01*
X021629Y031484D01*
X021629Y031494D02*
X021638Y031494D01*
X021629Y031592D02*
X021647Y031592D01*
X021400Y031550D02*
X021400Y031550D01*
X021000Y031250D02*
X021000Y031021D01*
X021000Y031250D01*
X021000Y031250D01*
X021000Y031198D02*
X021000Y031198D01*
X021000Y031100D02*
X021000Y031100D01*
X021196Y030510D02*
X021196Y030457D01*
X021175Y030470D01*
X021142Y030479D01*
X020950Y030479D01*
X020950Y030050D01*
X020850Y030050D01*
X020850Y030479D01*
X020658Y030479D01*
X020625Y030470D01*
X020596Y030453D01*
X020572Y030429D01*
X020555Y030400D01*
X020546Y030367D01*
X020546Y030050D01*
X020850Y030050D01*
X020850Y029950D01*
X020950Y029950D01*
X020950Y029521D01*
X021013Y029521D01*
X021002Y029510D01*
X020904Y029510D01*
X020840Y029446D01*
X020840Y028754D01*
X020894Y028700D01*
X020840Y028646D01*
X020840Y028550D01*
X020745Y028550D01*
X020745Y028582D01*
X020754Y028591D01*
X020754Y028958D01*
X020690Y029022D01*
X020515Y029022D01*
X020497Y029032D01*
X020465Y029041D01*
X020398Y029041D01*
X020332Y029041D01*
X020300Y029032D01*
X020287Y029025D01*
X020340Y029078D01*
X020479Y029078D01*
X020496Y029068D01*
X020529Y029059D01*
X020595Y029059D01*
X020595Y029326D01*
X020773Y029326D01*
X020773Y029480D01*
X020764Y029513D01*
X020760Y029521D01*
X020850Y029521D01*
X020850Y029950D01*
X020546Y029950D01*
X020546Y029636D01*
X020510Y029672D01*
X020510Y030395D01*
X020625Y030510D01*
X021196Y030510D01*
X021196Y030509D02*
X020624Y030509D01*
X020561Y030410D02*
X020525Y030410D01*
X020510Y030312D02*
X020546Y030312D01*
X020546Y030213D02*
X020510Y030213D01*
X020510Y030115D02*
X020546Y030115D01*
X020510Y030016D02*
X020850Y030016D01*
X020850Y029918D02*
X020950Y029918D01*
X020950Y029819D02*
X020850Y029819D01*
X020850Y029721D02*
X020950Y029721D01*
X020950Y029622D02*
X020850Y029622D01*
X020850Y029524D02*
X020950Y029524D01*
X020840Y029425D02*
X020773Y029425D01*
X020773Y029327D02*
X020840Y029327D01*
X020773Y029326D02*
X020595Y029326D01*
X020595Y029326D01*
X020595Y029326D01*
X020595Y029059D01*
X020661Y029059D01*
X020694Y029068D01*
X020724Y029085D01*
X020748Y029109D01*
X020764Y029138D01*
X020773Y029171D01*
X020773Y029326D01*
X020773Y029228D02*
X020840Y029228D01*
X020840Y029130D02*
X020759Y029130D01*
X020840Y029031D02*
X020499Y029031D01*
X020398Y029031D02*
X020398Y029031D01*
X020398Y029041D02*
X020398Y028774D01*
X020398Y028774D01*
X020398Y029041D01*
X020298Y029031D02*
X020293Y029031D01*
X020398Y028933D02*
X020398Y028933D01*
X020398Y028834D02*
X020398Y028834D01*
X020595Y029130D02*
X020595Y029130D01*
X020595Y029228D02*
X020595Y029228D01*
X020754Y028933D02*
X020840Y028933D01*
X020840Y028834D02*
X020754Y028834D01*
X020754Y028736D02*
X020859Y028736D01*
X020840Y028637D02*
X020754Y028637D01*
X020750Y028150D02*
X020800Y028150D01*
X020800Y027806D01*
X020790Y027796D01*
X020790Y027517D01*
X020780Y027500D01*
X020771Y027467D01*
X020771Y027350D01*
X021000Y027350D01*
X021000Y027121D01*
X021117Y027121D01*
X021150Y027130D01*
X021179Y027147D01*
X021200Y027168D01*
X021200Y027117D01*
X021215Y027102D01*
X021215Y027029D01*
X021279Y026965D01*
X021352Y026965D01*
X021550Y026767D01*
X021667Y026650D01*
X022067Y026650D01*
X023550Y025167D01*
X023520Y025095D01*
X023520Y024905D01*
X023593Y024728D01*
X023673Y024648D01*
X023327Y024648D01*
X023407Y024728D01*
X023480Y024905D01*
X023480Y025095D01*
X023407Y025272D01*
X023272Y025407D01*
X023095Y025480D01*
X022905Y025480D01*
X022728Y025407D01*
X022593Y025272D01*
X022520Y025095D01*
X022520Y024905D01*
X022593Y024728D01*
X022673Y024648D01*
X022327Y024648D01*
X022407Y024728D01*
X022480Y024905D01*
X022480Y025095D01*
X022407Y025272D01*
X022272Y025407D01*
X022095Y025480D01*
X021905Y025480D01*
X021728Y025407D01*
X021593Y025272D01*
X021520Y025095D01*
X021520Y024905D01*
X021593Y024728D01*
X021673Y024648D01*
X021327Y024648D01*
X021407Y024728D01*
X021480Y024905D01*
X021480Y025095D01*
X021407Y025272D01*
X021272Y025407D01*
X021095Y025480D01*
X020905Y025480D01*
X020728Y025407D01*
X020593Y025272D01*
X020520Y025095D01*
X020520Y024905D01*
X020593Y024728D01*
X020673Y024648D01*
X020327Y024648D01*
X020407Y024728D01*
X020480Y024905D01*
X020480Y025095D01*
X020407Y025272D01*
X020272Y025407D01*
X020095Y025480D01*
X019905Y025480D01*
X019728Y025407D01*
X019593Y025272D01*
X019520Y025095D01*
X019520Y024905D01*
X019593Y024728D01*
X019673Y024648D01*
X019327Y024648D01*
X019407Y024728D01*
X019480Y024905D01*
X019480Y025095D01*
X019407Y025272D01*
X019272Y025407D01*
X019095Y025480D01*
X018905Y025480D01*
X018728Y025407D01*
X018593Y025272D01*
X018520Y025095D01*
X018520Y024905D01*
X018593Y024728D01*
X018673Y024648D01*
X018327Y024648D01*
X018407Y024728D01*
X018480Y024905D01*
X018480Y025095D01*
X018407Y025272D01*
X018272Y025407D01*
X018095Y025480D01*
X017905Y025480D01*
X017728Y025407D01*
X017593Y025272D01*
X017520Y025095D01*
X017520Y024905D01*
X017593Y024728D01*
X017673Y024648D01*
X017499Y024648D01*
X017499Y024950D01*
X017050Y024950D01*
X017050Y025050D01*
X016950Y025050D01*
X016950Y025499D01*
X016648Y025499D01*
X016648Y025665D01*
X018092Y025665D01*
X018136Y025708D01*
X018136Y025697D01*
X018200Y025633D01*
X019000Y025633D01*
X019032Y025665D01*
X020112Y025665D01*
X020226Y025712D01*
X020228Y025715D01*
X020346Y025715D01*
X020410Y025779D01*
X020410Y026171D01*
X020346Y026235D01*
X020228Y026235D01*
X020226Y026238D01*
X020160Y026265D01*
X020596Y026265D01*
X020660Y026329D01*
X020660Y027471D01*
X020596Y027535D01*
X019648Y027535D01*
X019350Y027833D01*
X019350Y028727D01*
X019390Y028767D01*
X019390Y028654D01*
X019454Y028590D01*
X019746Y028590D01*
X019806Y028650D01*
X019846Y028650D01*
X019846Y028591D01*
X019887Y028550D01*
X019567Y028550D01*
X019527Y028510D01*
X019454Y028510D01*
X019390Y028446D01*
X019390Y028167D01*
X019380Y028150D01*
X019371Y028117D01*
X019371Y028000D01*
X019600Y028000D01*
X019829Y028000D01*
X019600Y028000D01*
X019600Y028000D01*
X019600Y027771D01*
X019717Y027771D01*
X019750Y027780D01*
X019779Y027797D01*
X019803Y027821D01*
X019820Y027850D01*
X019829Y027883D01*
X019829Y028000D01*
X019829Y028117D01*
X019820Y028150D01*
X020050Y028150D01*
X020050Y028106D01*
X020040Y028096D01*
X020040Y027804D01*
X020104Y027740D01*
X020396Y027740D01*
X020400Y027744D01*
X020404Y027740D01*
X020696Y027740D01*
X020760Y027804D01*
X020760Y028096D01*
X020750Y028106D01*
X020750Y028150D01*
X020750Y028145D02*
X020800Y028145D01*
X020800Y028046D02*
X020760Y028046D01*
X020760Y027948D02*
X020800Y027948D01*
X020800Y027849D02*
X020760Y027849D01*
X020790Y027751D02*
X020706Y027751D01*
X020790Y027652D02*
X019531Y027652D01*
X019483Y027771D02*
X019600Y027771D01*
X019600Y028000D01*
X019600Y028000D01*
X019600Y028000D01*
X019371Y028000D01*
X019371Y027883D01*
X019380Y027850D01*
X019397Y027821D01*
X019421Y027797D01*
X019450Y027780D01*
X019483Y027771D01*
X019432Y027751D02*
X020094Y027751D01*
X020040Y027849D02*
X019819Y027849D01*
X019829Y027948D02*
X020040Y027948D01*
X020040Y028046D02*
X019829Y028046D01*
X019821Y028145D02*
X020050Y028145D01*
X019820Y028150D02*
X019820Y028150D01*
X019600Y027948D02*
X019600Y027948D01*
X019600Y027849D02*
X019600Y027849D01*
X019381Y027849D02*
X019350Y027849D01*
X019350Y027948D02*
X019371Y027948D01*
X019371Y028046D02*
X019350Y028046D01*
X019350Y028145D02*
X019379Y028145D01*
X019390Y028243D02*
X019350Y028243D01*
X019350Y028342D02*
X019390Y028342D01*
X019390Y028440D02*
X019350Y028440D01*
X019350Y028539D02*
X019556Y028539D01*
X019407Y028637D02*
X019350Y028637D01*
X019358Y028736D02*
X019390Y028736D01*
X019793Y028637D02*
X019846Y028637D01*
X019283Y029225D02*
X019067Y029010D01*
X019050Y028993D01*
X019050Y029221D01*
X019150Y029221D01*
X019150Y029450D01*
X019379Y029450D01*
X019379Y029567D01*
X019370Y029599D01*
X019400Y029569D01*
X019400Y029300D01*
X019370Y029300D01*
X019370Y029300D01*
X019379Y029333D01*
X019379Y029450D01*
X019150Y029450D01*
X019150Y029450D01*
X019150Y029450D01*
X019150Y029671D01*
X019150Y029450D01*
X019150Y029221D01*
X019267Y029221D01*
X019283Y029225D01*
X019150Y029228D02*
X019150Y029228D01*
X019150Y029327D02*
X019150Y029327D01*
X019150Y029425D02*
X019150Y029425D01*
X019150Y029450D02*
X019150Y029450D01*
X019150Y029524D02*
X019150Y029524D01*
X019150Y029622D02*
X019150Y029622D01*
X019150Y029671D02*
X019150Y029671D01*
X019379Y029524D02*
X019400Y029524D01*
X019400Y029425D02*
X019379Y029425D01*
X019377Y029327D02*
X019400Y029327D01*
X019187Y029130D02*
X019050Y029130D01*
X019050Y029031D02*
X019088Y029031D01*
X018529Y029327D02*
X016648Y029327D01*
X016648Y029425D02*
X018492Y029425D01*
X018492Y029524D02*
X016648Y029524D01*
X016648Y029622D02*
X016902Y029622D01*
X016805Y029721D02*
X016648Y029721D01*
X016648Y029819D02*
X016764Y029819D01*
X016761Y029918D02*
X016648Y029918D01*
X016648Y030016D02*
X016761Y030016D01*
X016761Y030115D02*
X016648Y030115D01*
X016648Y030213D02*
X016761Y030213D01*
X016761Y030312D02*
X016648Y030312D01*
X016648Y030410D02*
X016761Y030410D01*
X016761Y030509D02*
X016648Y030509D01*
X017381Y030509D02*
X017730Y030509D01*
X017736Y030607D02*
X017555Y030607D01*
X017555Y030706D02*
X017748Y030706D01*
X017748Y030804D02*
X017555Y030804D01*
X017555Y030903D02*
X017748Y030903D01*
X017748Y031001D02*
X017555Y031001D01*
X017555Y031100D02*
X017748Y031100D01*
X017748Y031198D02*
X017555Y031198D01*
X017555Y031297D02*
X017748Y031297D01*
X017748Y031395D02*
X017555Y031395D01*
X017381Y031494D02*
X017748Y031494D01*
X017748Y031592D02*
X017381Y031592D01*
X017381Y031691D02*
X017680Y031691D01*
X017661Y031789D02*
X017381Y031789D01*
X017381Y031888D02*
X017681Y031888D01*
X017753Y031986D02*
X017383Y031986D01*
X017482Y032085D02*
X018312Y032085D01*
X018312Y032183D02*
X017580Y032183D01*
X018082Y031986D02*
X018320Y031986D01*
X018320Y031888D02*
X018154Y031888D01*
X018174Y031789D02*
X018320Y031789D01*
X019229Y031198D02*
X019371Y031198D01*
X019371Y031100D02*
X019229Y031100D01*
X019229Y031001D02*
X019306Y031001D01*
X019242Y030903D02*
X019229Y030903D01*
X019229Y030804D02*
X019242Y030804D01*
X019229Y030706D02*
X019300Y030706D01*
X019190Y030607D02*
X019410Y030607D01*
X019379Y030410D02*
X018519Y030410D01*
X018519Y030509D02*
X020050Y030509D01*
X020050Y030410D02*
X020021Y030410D01*
X020035Y030312D02*
X020050Y030312D01*
X020050Y030213D02*
X020035Y030213D01*
X020035Y030115D02*
X020050Y030115D01*
X020050Y030016D02*
X020035Y030016D01*
X020035Y029918D02*
X020050Y029918D01*
X020050Y029819D02*
X020035Y029819D01*
X020035Y029721D02*
X020050Y029721D01*
X020050Y029622D02*
X020035Y029622D01*
X020510Y029721D02*
X020546Y029721D01*
X020546Y029819D02*
X020510Y029819D01*
X020510Y029918D02*
X020546Y029918D01*
X020850Y030115D02*
X020950Y030115D01*
X020950Y030213D02*
X020850Y030213D01*
X020850Y030312D02*
X020950Y030312D01*
X020950Y030410D02*
X020850Y030410D01*
X021254Y030213D02*
X022330Y030213D01*
X022429Y030312D02*
X022153Y030312D01*
X022204Y030410D02*
X022500Y030410D01*
X022500Y030509D02*
X022204Y030509D01*
X022204Y030607D02*
X022500Y030607D01*
X022500Y030706D02*
X022204Y030706D01*
X022187Y030804D02*
X022500Y030804D01*
X022500Y030903D02*
X021698Y030903D01*
X022057Y031001D02*
X022143Y031001D01*
X022115Y031100D02*
X022085Y031100D01*
X022085Y031198D02*
X022115Y031198D01*
X022115Y031297D02*
X022085Y031297D01*
X022085Y031395D02*
X022115Y031395D01*
X022120Y031494D02*
X022062Y031494D01*
X022358Y031780D02*
X022358Y031814D01*
X022458Y031914D01*
X022458Y032086D01*
X022358Y032186D01*
X022358Y032314D01*
X022458Y032414D01*
X022458Y032586D01*
X022350Y032695D01*
X022410Y032754D01*
X022410Y033033D01*
X022420Y033050D01*
X022429Y033083D01*
X022429Y033200D01*
X022200Y033200D01*
X022200Y033200D01*
X022200Y033429D01*
X022083Y033429D01*
X022050Y033420D01*
X022021Y033403D01*
X022010Y033392D01*
X021951Y033451D01*
X021918Y033451D01*
X021918Y033606D01*
X022227Y033915D01*
X022471Y033915D01*
X022500Y033944D01*
X022500Y031725D01*
X022445Y031780D01*
X022358Y031780D01*
X022358Y031789D02*
X022500Y031789D01*
X022500Y031888D02*
X022432Y031888D01*
X022458Y031986D02*
X022500Y031986D01*
X022500Y032085D02*
X022458Y032085D01*
X022500Y032183D02*
X022362Y032183D01*
X022358Y032282D02*
X022500Y032282D01*
X022500Y032380D02*
X022425Y032380D01*
X022458Y032479D02*
X022500Y032479D01*
X022500Y032577D02*
X022458Y032577D01*
X022500Y032676D02*
X022369Y032676D01*
X022410Y032774D02*
X022500Y032774D01*
X022500Y032873D02*
X022410Y032873D01*
X022410Y032971D02*
X022500Y032971D01*
X022500Y033070D02*
X022425Y033070D01*
X022429Y033168D02*
X022500Y033168D01*
X022429Y033200D02*
X022429Y033317D01*
X022420Y033350D01*
X022403Y033379D01*
X022379Y033403D01*
X022350Y033420D01*
X022317Y033429D01*
X022200Y033429D01*
X022200Y033200D01*
X022429Y033200D01*
X022429Y033267D02*
X022500Y033267D01*
X022500Y033365D02*
X022411Y033365D01*
X022500Y033464D02*
X021918Y033464D01*
X021918Y033562D02*
X022500Y033562D01*
X022500Y033661D02*
X021973Y033661D01*
X022071Y033759D02*
X022500Y033759D01*
X022500Y033858D02*
X022170Y033858D01*
X022200Y033365D02*
X022200Y033365D01*
X022200Y033267D02*
X022200Y033267D01*
X022200Y033200D02*
X022200Y033200D01*
X022900Y033092D02*
X022900Y032826D01*
X022908Y032835D01*
X023021Y032882D01*
X023537Y032882D01*
X023650Y032835D01*
X023710Y032775D01*
X023808Y032775D01*
X023824Y032758D01*
X023836Y032758D01*
X023958Y032636D01*
X023958Y032464D01*
X023836Y032342D01*
X023677Y032342D01*
X023650Y032315D01*
X023537Y032268D01*
X023021Y032268D01*
X022908Y032315D01*
X022900Y032323D01*
X022900Y032039D01*
X022908Y032048D01*
X023021Y032094D01*
X023537Y032094D01*
X023650Y032048D01*
X023710Y031987D01*
X030795Y031987D01*
X035763Y027020D01*
X035773Y027020D01*
X035890Y026903D01*
X035890Y026525D01*
X035901Y026536D01*
X036013Y026582D01*
X036135Y026582D01*
X036248Y026536D01*
X036335Y026449D01*
X036381Y026337D01*
X036381Y025821D01*
X036335Y025708D01*
X036248Y025622D01*
X036224Y025612D01*
X036224Y025427D01*
X036272Y025407D01*
X036407Y025272D01*
X036480Y025095D01*
X036480Y024905D01*
X036407Y024728D01*
X036327Y024648D01*
X036673Y024648D01*
X036593Y024728D01*
X036520Y024905D01*
X036520Y025095D01*
X036593Y025272D01*
X036728Y025407D01*
X036801Y025437D01*
X036712Y025526D01*
X036712Y025612D01*
X036688Y025622D01*
X036602Y025708D01*
X036555Y025821D01*
X036555Y026337D01*
X036602Y026449D01*
X036688Y026536D01*
X036801Y026582D01*
X036923Y026582D01*
X037036Y026536D01*
X037122Y026449D01*
X037169Y026337D01*
X037169Y025821D01*
X037122Y025708D01*
X037038Y025624D01*
X037062Y025600D01*
X037150Y025512D01*
X037150Y025457D01*
X037272Y025407D01*
X037407Y025272D01*
X037480Y025095D01*
X037480Y024905D01*
X037407Y024728D01*
X037327Y024648D01*
X037673Y024648D01*
X037593Y024728D01*
X037520Y024905D01*
X037520Y025095D01*
X037593Y025272D01*
X037728Y025407D01*
X037765Y025422D01*
X037613Y025575D01*
X037588Y025575D01*
X037475Y025622D01*
X037389Y025708D01*
X037342Y025821D01*
X037342Y026337D01*
X037389Y026449D01*
X037475Y026536D01*
X037588Y026582D01*
X037710Y026582D01*
X037823Y026536D01*
X037909Y026449D01*
X037956Y026337D01*
X037956Y025821D01*
X037909Y025708D01*
X037907Y025705D01*
X038062Y025550D01*
X038150Y025462D01*
X038150Y025457D01*
X038272Y025407D01*
X038407Y025272D01*
X038480Y025095D01*
X038480Y024905D01*
X038407Y024728D01*
X038327Y024648D01*
X038673Y024648D01*
X038593Y024728D01*
X038520Y024905D01*
X038520Y025095D01*
X038593Y025272D01*
X038728Y025407D01*
X038801Y025437D01*
X038613Y025625D01*
X038610Y025622D01*
X038498Y025575D01*
X038376Y025575D01*
X038263Y025622D01*
X038176Y025708D01*
X038130Y025821D01*
X038130Y026337D01*
X038176Y026449D01*
X038263Y026536D01*
X038376Y026582D01*
X038498Y026582D01*
X038610Y026536D01*
X038697Y026449D01*
X038743Y026337D01*
X038743Y025919D01*
X039062Y025600D01*
X039150Y025512D01*
X039150Y025457D01*
X039272Y025407D01*
X039407Y025272D01*
X039480Y025095D01*
X039480Y024905D01*
X039407Y024728D01*
X039327Y024648D01*
X039646Y024648D01*
X039620Y024675D01*
X039573Y024739D01*
X039538Y024809D01*
X039514Y024883D01*
X039503Y024950D01*
X039950Y024950D01*
X039950Y025050D01*
X039950Y025497D01*
X039883Y025486D01*
X039809Y025462D01*
X039739Y025427D01*
X039675Y025380D01*
X039620Y025325D01*
X039573Y025261D01*
X039538Y025191D01*
X039514Y025117D01*
X039503Y025050D01*
X039950Y025050D01*
X040050Y025050D01*
X040050Y025497D01*
X040117Y025486D01*
X040191Y025462D01*
X040261Y025427D01*
X040325Y025380D01*
X040380Y025325D01*
X040427Y025261D01*
X040462Y025191D01*
X040486Y025117D01*
X040497Y025050D01*
X040050Y025050D01*
X040050Y024950D01*
X040497Y024950D01*
X040486Y024883D01*
X040462Y024809D01*
X040427Y024739D01*
X040380Y024675D01*
X040354Y024648D01*
X040673Y024648D01*
X040593Y024728D01*
X040520Y024905D01*
X040520Y025095D01*
X040593Y025272D01*
X040728Y025407D01*
X040832Y025450D01*
X040791Y025450D01*
X040588Y025534D01*
X040434Y025688D01*
X040350Y025891D01*
X040350Y026109D01*
X040434Y026312D01*
X040588Y026466D01*
X040791Y026550D01*
X041009Y026550D01*
X041212Y026466D01*
X041366Y026312D01*
X041450Y026109D01*
X041450Y025891D01*
X041366Y025688D01*
X041212Y025534D01*
X041082Y025480D01*
X041095Y025480D01*
X041272Y025407D01*
X041407Y025272D01*
X041480Y025095D01*
X041480Y024905D01*
X041407Y024728D01*
X041327Y024648D01*
X041673Y024648D01*
X041593Y024728D01*
X041520Y024905D01*
X041520Y025095D01*
X041593Y025272D01*
X041728Y025407D01*
X041905Y025480D01*
X042095Y025480D01*
X042185Y025443D01*
X042213Y025471D01*
X042213Y025476D01*
X042215Y025478D01*
X042215Y025682D01*
X041772Y026125D01*
X041665Y026232D01*
X041665Y026832D01*
X039923Y028574D01*
X039878Y028464D01*
X039792Y028378D01*
X039679Y028331D01*
X039163Y028331D01*
X039050Y028378D01*
X038964Y028464D01*
X038917Y028577D01*
X038917Y028699D01*
X038964Y028812D01*
X039050Y028898D01*
X039163Y028945D01*
X039477Y028945D01*
X039560Y029028D01*
X039531Y029057D01*
X039470Y029118D01*
X039163Y029118D01*
X039050Y029165D01*
X038964Y029251D01*
X038917Y029364D01*
X038917Y029486D01*
X038964Y029599D01*
X039050Y029685D01*
X039163Y029732D01*
X039679Y029732D01*
X039792Y029685D01*
X039878Y029599D01*
X039925Y029486D01*
X039925Y029364D01*
X039904Y029315D01*
X039988Y029315D01*
X040095Y029208D01*
X042235Y027068D01*
X042235Y026468D01*
X042785Y025918D01*
X042785Y025473D01*
X042815Y025443D01*
X042905Y025480D01*
X043095Y025480D01*
X043272Y025407D01*
X043407Y025272D01*
X043480Y025095D01*
X043480Y024905D01*
X043407Y024728D01*
X043327Y024648D01*
X043646Y024648D01*
X043620Y024675D01*
X043573Y024739D01*
X043538Y024809D01*
X043514Y024883D01*
X043503Y024950D01*
X043950Y024950D01*
X043950Y025050D01*
X043950Y025497D01*
X043883Y025486D01*
X043809Y025462D01*
X043739Y025427D01*
X043675Y025380D01*
X043620Y025325D01*
X043573Y025261D01*
X043538Y025191D01*
X043514Y025117D01*
X043503Y025050D01*
X043950Y025050D01*
X044050Y025050D01*
X044050Y025497D01*
X044117Y025486D01*
X044191Y025462D01*
X044261Y025427D01*
X044325Y025380D01*
X044352Y025354D01*
X044352Y029580D01*
X044320Y029572D01*
X043605Y029572D01*
X043605Y029877D01*
X043505Y029877D01*
X043505Y029572D01*
X042790Y029572D01*
X042757Y029581D01*
X042728Y029598D01*
X042704Y029622D01*
X039855Y029622D01*
X039909Y029524D02*
X044352Y029524D01*
X044352Y029425D02*
X039925Y029425D01*
X039909Y029327D02*
X044352Y029327D01*
X044352Y029228D02*
X040075Y029228D01*
X040174Y029130D02*
X044352Y029130D01*
X044352Y029031D02*
X040272Y029031D01*
X040371Y028933D02*
X044352Y028933D01*
X044352Y028834D02*
X040469Y028834D01*
X040568Y028736D02*
X044352Y028736D01*
X044352Y028637D02*
X040666Y028637D01*
X040765Y028539D02*
X044352Y028539D01*
X044352Y028440D02*
X040863Y028440D01*
X040962Y028342D02*
X044352Y028342D01*
X044352Y028243D02*
X041060Y028243D01*
X041159Y028145D02*
X044352Y028145D01*
X044352Y028046D02*
X041257Y028046D01*
X041356Y027948D02*
X044352Y027948D01*
X044352Y027849D02*
X041454Y027849D01*
X041553Y027751D02*
X044352Y027751D01*
X044352Y027652D02*
X041651Y027652D01*
X041750Y027554D02*
X042970Y027554D01*
X042894Y027522D02*
X042675Y027303D01*
X042556Y027017D01*
X042556Y026707D01*
X042675Y026421D01*
X042894Y026202D01*
X043180Y026084D01*
X043489Y026084D01*
X043776Y026202D01*
X043994Y026421D01*
X044113Y026707D01*
X044113Y027017D01*
X043994Y027303D01*
X043776Y027522D01*
X043489Y027641D01*
X043180Y027641D01*
X042894Y027522D01*
X042827Y027455D02*
X041848Y027455D01*
X041947Y027357D02*
X042728Y027357D01*
X042656Y027258D02*
X042045Y027258D01*
X042144Y027160D02*
X042615Y027160D01*
X042575Y027061D02*
X042235Y027061D01*
X042235Y026963D02*
X042556Y026963D01*
X042556Y026864D02*
X042235Y026864D01*
X042235Y026766D02*
X042556Y026766D01*
X042573Y026667D02*
X042235Y026667D01*
X042235Y026569D02*
X042614Y026569D01*
X042655Y026470D02*
X042235Y026470D01*
X042332Y026372D02*
X042725Y026372D01*
X042823Y026273D02*
X042430Y026273D01*
X042529Y026175D02*
X042961Y026175D01*
X042726Y025978D02*
X044352Y025978D01*
X044352Y026076D02*
X042627Y026076D01*
X042785Y025879D02*
X044352Y025879D01*
X044352Y025781D02*
X042785Y025781D01*
X042785Y025682D02*
X044352Y025682D01*
X044352Y025584D02*
X042785Y025584D01*
X042785Y025485D02*
X043879Y025485D01*
X043950Y025485D02*
X044050Y025485D01*
X044121Y025485D02*
X044352Y025485D01*
X044352Y025387D02*
X044317Y025387D01*
X044050Y025387D02*
X043950Y025387D01*
X043950Y025288D02*
X044050Y025288D01*
X044050Y025190D02*
X043950Y025190D01*
X043950Y025091D02*
X044050Y025091D01*
X043950Y024993D02*
X043480Y024993D01*
X043480Y025091D02*
X043509Y025091D01*
X043537Y025190D02*
X043441Y025190D01*
X043391Y025288D02*
X043593Y025288D01*
X043683Y025387D02*
X043292Y025387D01*
X043476Y024894D02*
X043512Y024894D01*
X043544Y024796D02*
X043435Y024796D01*
X043376Y024697D02*
X043604Y024697D01*
X042215Y025485D02*
X041094Y025485D01*
X041261Y025584D02*
X042215Y025584D01*
X042215Y025682D02*
X041360Y025682D01*
X041404Y025781D02*
X042116Y025781D01*
X042018Y025879D02*
X041445Y025879D01*
X041450Y025978D02*
X041919Y025978D01*
X041821Y026076D02*
X041450Y026076D01*
X041423Y026175D02*
X041722Y026175D01*
X041665Y026273D02*
X041382Y026273D01*
X041306Y026372D02*
X041665Y026372D01*
X041665Y026470D02*
X041203Y026470D01*
X041665Y026569D02*
X038531Y026569D01*
X038676Y026470D02*
X040597Y026470D01*
X040494Y026372D02*
X038729Y026372D01*
X038743Y026273D02*
X040418Y026273D01*
X040377Y026175D02*
X038743Y026175D01*
X038743Y026076D02*
X040350Y026076D01*
X040350Y025978D02*
X038743Y025978D01*
X038783Y025879D02*
X040355Y025879D01*
X040396Y025781D02*
X038882Y025781D01*
X038980Y025682D02*
X040440Y025682D01*
X040539Y025584D02*
X039079Y025584D01*
X039150Y025485D02*
X039879Y025485D01*
X039950Y025485D02*
X040050Y025485D01*
X040121Y025485D02*
X040706Y025485D01*
X040708Y025387D02*
X040317Y025387D01*
X040407Y025288D02*
X040609Y025288D01*
X040559Y025190D02*
X040463Y025190D01*
X040491Y025091D02*
X040520Y025091D01*
X040520Y024993D02*
X040050Y024993D01*
X040050Y025091D02*
X039950Y025091D01*
X039950Y024993D02*
X039480Y024993D01*
X039480Y025091D02*
X039509Y025091D01*
X039537Y025190D02*
X039441Y025190D01*
X039391Y025288D02*
X039593Y025288D01*
X039683Y025387D02*
X039292Y025387D01*
X039476Y024894D02*
X039512Y024894D01*
X039544Y024796D02*
X039435Y024796D01*
X039376Y024697D02*
X039604Y024697D01*
X039950Y025190D02*
X040050Y025190D01*
X040050Y025288D02*
X039950Y025288D01*
X039950Y025387D02*
X040050Y025387D01*
X040488Y024894D02*
X040524Y024894D01*
X040565Y024796D02*
X040456Y024796D01*
X040396Y024697D02*
X040624Y024697D01*
X041376Y024697D02*
X041624Y024697D01*
X041565Y024796D02*
X041435Y024796D01*
X041476Y024894D02*
X041524Y024894D01*
X041520Y024993D02*
X041480Y024993D01*
X041480Y025091D02*
X041520Y025091D01*
X041559Y025190D02*
X041441Y025190D01*
X041391Y025288D02*
X041609Y025288D01*
X041708Y025387D02*
X041292Y025387D01*
X041665Y026667D02*
X035890Y026667D01*
X035890Y026569D02*
X035980Y026569D01*
X036169Y026569D02*
X036767Y026569D01*
X036622Y026470D02*
X036314Y026470D01*
X036367Y026372D02*
X036569Y026372D01*
X036555Y026273D02*
X036381Y026273D01*
X036381Y026175D02*
X036555Y026175D01*
X036555Y026076D02*
X036381Y026076D01*
X036381Y025978D02*
X036555Y025978D01*
X036555Y025879D02*
X036381Y025879D01*
X036365Y025781D02*
X036572Y025781D01*
X036628Y025682D02*
X036308Y025682D01*
X036224Y025584D02*
X036712Y025584D01*
X036753Y025485D02*
X036224Y025485D01*
X036292Y025387D02*
X036708Y025387D01*
X036609Y025288D02*
X036391Y025288D01*
X036441Y025190D02*
X036559Y025190D01*
X036520Y025091D02*
X036480Y025091D01*
X036480Y024993D02*
X036520Y024993D01*
X036524Y024894D02*
X036476Y024894D01*
X036435Y024796D02*
X036565Y024796D01*
X036624Y024697D02*
X036376Y024697D01*
X037150Y025485D02*
X037703Y025485D01*
X037708Y025387D02*
X037292Y025387D01*
X037391Y025288D02*
X037609Y025288D01*
X037559Y025190D02*
X037441Y025190D01*
X037480Y025091D02*
X037520Y025091D01*
X037520Y024993D02*
X037480Y024993D01*
X037476Y024894D02*
X037524Y024894D01*
X037565Y024796D02*
X037435Y024796D01*
X037376Y024697D02*
X037624Y024697D01*
X038376Y024697D02*
X038624Y024697D01*
X038565Y024796D02*
X038435Y024796D01*
X038476Y024894D02*
X038524Y024894D01*
X038520Y024993D02*
X038480Y024993D01*
X038480Y025091D02*
X038520Y025091D01*
X038559Y025190D02*
X038441Y025190D01*
X038391Y025288D02*
X038609Y025288D01*
X038708Y025387D02*
X038292Y025387D01*
X038127Y025485D02*
X038753Y025485D01*
X038654Y025584D02*
X038518Y025584D01*
X038355Y025584D02*
X038029Y025584D01*
X037930Y025682D02*
X038203Y025682D01*
X038146Y025781D02*
X037939Y025781D01*
X037956Y025879D02*
X038130Y025879D01*
X038130Y025978D02*
X037956Y025978D01*
X037956Y026076D02*
X038130Y026076D01*
X038130Y026175D02*
X037956Y026175D01*
X037956Y026273D02*
X038130Y026273D01*
X038144Y026372D02*
X037942Y026372D01*
X037889Y026470D02*
X038197Y026470D01*
X038342Y026569D02*
X037744Y026569D01*
X037555Y026569D02*
X036956Y026569D01*
X037101Y026470D02*
X037410Y026470D01*
X037357Y026372D02*
X037154Y026372D01*
X037169Y026273D02*
X037342Y026273D01*
X037342Y026175D02*
X037169Y026175D01*
X037169Y026076D02*
X037342Y026076D01*
X037342Y025978D02*
X037169Y025978D01*
X037169Y025879D02*
X037342Y025879D01*
X037359Y025781D02*
X037152Y025781D01*
X037096Y025682D02*
X037415Y025682D01*
X037568Y025584D02*
X037079Y025584D01*
X035890Y026766D02*
X039140Y026766D01*
X039163Y026756D02*
X039679Y026756D01*
X039792Y026803D01*
X039878Y026889D01*
X039925Y027002D01*
X039925Y027124D01*
X039878Y027237D01*
X039792Y027323D01*
X039679Y027370D01*
X039163Y027370D01*
X039050Y027323D01*
X038970Y027243D01*
X038150Y028062D01*
X038150Y034388D01*
X039312Y035550D01*
X040762Y035550D01*
X041783Y036570D01*
X041905Y036520D01*
X042095Y036520D01*
X042272Y036593D01*
X042407Y036728D01*
X042480Y036905D01*
X042480Y037095D01*
X042407Y037272D01*
X042327Y037352D01*
X042673Y037352D01*
X042593Y037272D01*
X042520Y037095D01*
X042520Y036905D01*
X042593Y036728D01*
X042728Y036593D01*
X042905Y036520D01*
X043095Y036520D01*
X043272Y036593D01*
X043407Y036728D01*
X043480Y036905D01*
X043480Y037095D01*
X043407Y037272D01*
X043327Y037352D01*
X043646Y037352D01*
X043620Y037325D01*
X043573Y037261D01*
X043538Y037191D01*
X043514Y037117D01*
X043503Y037050D01*
X043950Y037050D01*
X043950Y036950D01*
X044050Y036950D01*
X044050Y036503D01*
X044117Y036514D01*
X044191Y036538D01*
X044261Y036573D01*
X044325Y036620D01*
X044352Y036646D01*
X044352Y032420D01*
X044320Y032428D01*
X043605Y032428D01*
X043605Y032123D01*
X043505Y032123D01*
X043505Y032428D01*
X042790Y032428D01*
X042757Y032419D01*
X042728Y032402D01*
X042704Y032378D01*
X042687Y032349D01*
X042678Y032316D01*
X042678Y032123D01*
X043505Y032123D01*
X043505Y032023D01*
X042875Y032023D01*
X042838Y032059D01*
X041595Y032059D01*
X041551Y032015D01*
X041551Y031779D01*
X041450Y031779D01*
X041450Y031550D01*
X041450Y031550D01*
X041450Y031779D01*
X041390Y031779D01*
X041390Y033997D01*
X041315Y034178D01*
X041178Y034315D01*
X041178Y034315D01*
X040997Y034390D01*
X040102Y034390D01*
X040030Y034360D01*
X040004Y034360D01*
X040000Y034356D01*
X039996Y034360D01*
X039841Y034360D01*
X039792Y034410D01*
X039679Y034456D01*
X039163Y034456D01*
X039050Y034410D01*
X038964Y034323D01*
X038917Y034211D01*
X038917Y034089D01*
X038964Y033976D01*
X039050Y033889D01*
X039163Y033843D01*
X039679Y033843D01*
X039792Y033889D01*
X039842Y033940D01*
X039996Y033940D01*
X040000Y033944D01*
X040004Y033940D01*
X040030Y033940D01*
X040102Y033910D01*
X040900Y033910D01*
X040902Y033910D01*
X040906Y033908D01*
X040908Y033906D01*
X040910Y033902D01*
X040910Y033900D01*
X040910Y031152D01*
X040947Y031064D01*
X041014Y030997D01*
X041086Y030967D01*
X041148Y030905D01*
X041155Y030905D01*
X041155Y030898D01*
X041160Y030893D01*
X041160Y030502D01*
X041170Y030478D01*
X041170Y030455D01*
X041187Y030438D01*
X041190Y030430D01*
X041190Y030417D01*
X041180Y030400D01*
X041171Y030367D01*
X041171Y030250D01*
X041400Y030250D01*
X041400Y030021D01*
X041517Y030021D01*
X041550Y030030D01*
X041551Y030031D01*
X041551Y029985D01*
X041595Y029941D01*
X042838Y029941D01*
X042875Y029977D01*
X043505Y029977D01*
X043505Y029877D01*
X042678Y029877D01*
X042678Y029684D01*
X042687Y029651D01*
X042704Y029622D01*
X042678Y029721D02*
X039707Y029721D01*
X039650Y029887D02*
X039469Y029887D01*
X039469Y030164D01*
X039372Y030164D01*
X038902Y030164D01*
X038911Y030118D01*
X038935Y030058D01*
X038971Y030005D01*
X039016Y029960D01*
X039070Y029924D01*
X039129Y029900D01*
X039192Y029887D01*
X039372Y029887D01*
X039372Y030164D01*
X039372Y030261D01*
X038902Y030261D01*
X038911Y030308D01*
X038935Y030367D01*
X038971Y030420D01*
X039016Y030466D01*
X039070Y030501D01*
X039129Y030526D01*
X039192Y030538D01*
X039372Y030538D01*
X039372Y030261D01*
X039469Y030261D01*
X039469Y030538D01*
X039650Y030538D01*
X039713Y030526D01*
X039772Y030501D01*
X039825Y030466D01*
X039871Y030420D01*
X039906Y030367D01*
X039931Y030308D01*
X039940Y030261D01*
X039469Y030261D01*
X039469Y030164D01*
X039940Y030164D01*
X039931Y030118D01*
X039906Y030058D01*
X039871Y030005D01*
X039825Y029960D01*
X039772Y029924D01*
X039713Y029900D01*
X039650Y029887D01*
X039756Y029918D02*
X043505Y029918D01*
X043505Y029819D02*
X043605Y029819D01*
X043605Y029721D02*
X043505Y029721D01*
X043505Y029622D02*
X043605Y029622D01*
X042678Y029819D02*
X038150Y029819D01*
X038150Y029721D02*
X039135Y029721D01*
X038987Y029622D02*
X038150Y029622D01*
X038150Y029524D02*
X038933Y029524D01*
X038917Y029425D02*
X038150Y029425D01*
X038150Y029327D02*
X038933Y029327D01*
X038987Y029228D02*
X038150Y029228D01*
X038150Y029130D02*
X039136Y029130D01*
X039134Y028933D02*
X038150Y028933D01*
X038150Y029031D02*
X039557Y029031D01*
X038986Y028834D02*
X038150Y028834D01*
X038150Y028736D02*
X038932Y028736D01*
X038917Y028637D02*
X038150Y028637D01*
X038150Y028539D02*
X038933Y028539D01*
X038988Y028440D02*
X038150Y028440D01*
X038150Y028342D02*
X039137Y028342D01*
X039192Y028176D02*
X039129Y028163D01*
X039070Y028139D01*
X039016Y028103D01*
X038971Y028058D01*
X038935Y028005D01*
X038911Y027945D01*
X038902Y027899D01*
X039372Y027899D01*
X039372Y027802D01*
X038902Y027802D01*
X038911Y027755D01*
X038935Y027696D01*
X038971Y027643D01*
X039016Y027597D01*
X039070Y027562D01*
X039129Y027537D01*
X039192Y027525D01*
X039372Y027525D01*
X039372Y027802D01*
X039469Y027802D01*
X039469Y027525D01*
X039650Y027525D01*
X039713Y027537D01*
X039772Y027562D01*
X039825Y027597D01*
X039871Y027643D01*
X039906Y027696D01*
X039931Y027755D01*
X039940Y027802D01*
X039469Y027802D01*
X039469Y027899D01*
X039372Y027899D01*
X039372Y028176D01*
X039192Y028176D01*
X039083Y028145D02*
X038150Y028145D01*
X038150Y028243D02*
X040254Y028243D01*
X040352Y028145D02*
X039758Y028145D01*
X039772Y028139D02*
X039713Y028163D01*
X039650Y028176D01*
X039469Y028176D01*
X039469Y027899D01*
X039940Y027899D01*
X039931Y027945D01*
X039906Y028005D01*
X039871Y028058D01*
X039825Y028103D01*
X039772Y028139D01*
X039879Y028046D02*
X040451Y028046D01*
X040549Y027948D02*
X039930Y027948D01*
X039929Y027751D02*
X040746Y027751D01*
X040648Y027849D02*
X039469Y027849D01*
X039372Y027849D02*
X038363Y027849D01*
X038265Y027948D02*
X038912Y027948D01*
X038963Y028046D02*
X038166Y028046D01*
X037939Y027849D02*
X034934Y027849D01*
X035032Y027751D02*
X038037Y027751D01*
X038136Y027652D02*
X035131Y027652D01*
X035229Y027554D02*
X038234Y027554D01*
X038333Y027455D02*
X035328Y027455D01*
X035426Y027357D02*
X038431Y027357D01*
X038530Y027258D02*
X035525Y027258D01*
X035623Y027160D02*
X038628Y027160D01*
X038727Y027061D02*
X035722Y027061D01*
X035830Y026963D02*
X038825Y026963D01*
X038875Y026913D02*
X038954Y026913D01*
X038964Y026889D01*
X039050Y026803D01*
X039163Y026756D01*
X038989Y026864D02*
X035890Y026864D01*
X035490Y026727D02*
X035490Y026532D01*
X035441Y026564D01*
X035382Y026589D01*
X035335Y026598D01*
X035335Y026127D01*
X035239Y026127D01*
X035239Y026598D01*
X035192Y026589D01*
X035133Y026564D01*
X035079Y026528D01*
X035034Y026483D01*
X034998Y026430D01*
X034974Y026371D01*
X034961Y026308D01*
X034961Y026127D01*
X035239Y026127D01*
X035239Y026030D01*
X035335Y026030D01*
X035335Y025618D01*
X035167Y025450D01*
X035095Y025480D01*
X034905Y025480D01*
X034728Y025407D01*
X034593Y025272D01*
X034520Y025095D01*
X034520Y024905D01*
X034593Y024728D01*
X034673Y024648D01*
X034327Y024648D01*
X034407Y024728D01*
X034480Y024905D01*
X034480Y025095D01*
X034434Y025207D01*
X034660Y025433D01*
X034660Y025616D01*
X034673Y025622D01*
X034760Y025708D01*
X034806Y025821D01*
X034806Y026337D01*
X034760Y026449D01*
X034673Y026536D01*
X034561Y026582D01*
X034439Y026582D01*
X034326Y026536D01*
X034239Y026449D01*
X034193Y026337D01*
X034193Y025821D01*
X034239Y025708D01*
X034326Y025622D01*
X034340Y025616D01*
X034340Y025566D01*
X034207Y025434D01*
X034095Y025480D01*
X033905Y025480D01*
X033728Y025407D01*
X033593Y025272D01*
X033520Y025095D01*
X033520Y024905D01*
X033593Y024728D01*
X033673Y024648D01*
X033327Y024648D01*
X033407Y024728D01*
X033480Y024905D01*
X033480Y025095D01*
X033434Y025207D01*
X033821Y025595D01*
X033886Y025622D01*
X033972Y025708D01*
X034019Y025821D01*
X034019Y026337D01*
X033972Y026449D01*
X033886Y026536D01*
X033773Y026582D01*
X033651Y026582D01*
X033538Y026536D01*
X033452Y026449D01*
X033405Y026337D01*
X033405Y025821D01*
X033452Y025708D01*
X033467Y025693D01*
X033207Y025434D01*
X033095Y025480D01*
X032905Y025480D01*
X032728Y025407D01*
X032593Y025272D01*
X032520Y025095D01*
X032520Y024905D01*
X032593Y024728D01*
X032673Y024648D01*
X032327Y024648D01*
X032407Y024728D01*
X032480Y024905D01*
X032480Y025095D01*
X032434Y025207D01*
X032820Y025593D01*
X032864Y025575D01*
X032986Y025575D01*
X033099Y025622D01*
X033185Y025708D01*
X033232Y025821D01*
X033232Y026337D01*
X033185Y026449D01*
X033099Y026536D01*
X032986Y026582D01*
X032864Y026582D01*
X032751Y026536D01*
X032665Y026449D01*
X032618Y026337D01*
X032618Y025844D01*
X032207Y025434D01*
X032095Y025480D01*
X031905Y025480D01*
X031728Y025407D01*
X031593Y025272D01*
X031520Y025095D01*
X031520Y024905D01*
X031593Y024728D01*
X031673Y024648D01*
X031327Y024648D01*
X031407Y024728D01*
X031480Y024905D01*
X031480Y025095D01*
X031434Y025207D01*
X031906Y025680D01*
X031964Y025622D01*
X032076Y025575D01*
X032198Y025575D01*
X032311Y025622D01*
X032398Y025708D01*
X032444Y025821D01*
X032444Y026337D01*
X032398Y026449D01*
X032311Y026536D01*
X032198Y026582D01*
X032076Y026582D01*
X031964Y026536D01*
X031877Y026449D01*
X031831Y026337D01*
X031831Y026057D01*
X031657Y025883D01*
X031657Y026337D01*
X031610Y026449D01*
X031524Y026536D01*
X031411Y026582D01*
X031289Y026582D01*
X031176Y026536D01*
X031090Y026449D01*
X031043Y026337D01*
X031043Y026119D01*
X030869Y025946D01*
X030869Y026337D01*
X030823Y026449D01*
X030736Y026536D01*
X030624Y026582D01*
X030502Y026582D01*
X030389Y026536D01*
X030302Y026449D01*
X030256Y026337D01*
X030256Y026132D01*
X030082Y025958D01*
X030082Y026337D01*
X030035Y026449D01*
X029949Y026536D01*
X029836Y026582D01*
X029714Y026582D01*
X029601Y026536D01*
X029515Y026449D01*
X029468Y026337D01*
X029468Y026145D01*
X029295Y025971D01*
X029295Y026337D01*
X029248Y026449D01*
X029162Y026536D01*
X029049Y026582D01*
X028927Y026582D01*
X028814Y026536D01*
X028728Y026449D01*
X028681Y026337D01*
X028681Y026107D01*
X028507Y025934D01*
X028507Y026337D01*
X028461Y026449D01*
X028374Y026536D01*
X028261Y026582D01*
X028139Y026582D01*
X028027Y026536D01*
X027940Y026449D01*
X027894Y026337D01*
X027894Y026120D01*
X027739Y025965D01*
X027739Y026030D01*
X027461Y026030D01*
X027461Y026127D01*
X027365Y026127D01*
X027365Y026598D01*
X027318Y026589D01*
X027259Y026564D01*
X027205Y026528D01*
X027160Y026483D01*
X027124Y026430D01*
X027100Y026371D01*
X027087Y026308D01*
X027087Y026127D01*
X027365Y026127D01*
X027365Y026030D01*
X027087Y026030D01*
X027087Y025850D01*
X027100Y025787D01*
X027124Y025728D01*
X027136Y025710D01*
X026887Y025710D01*
X026932Y025821D01*
X026932Y026337D01*
X026886Y026449D01*
X026808Y026527D01*
X026808Y026586D01*
X026812Y026614D01*
X026815Y026638D01*
X026815Y026638D01*
X026808Y026647D01*
X026808Y026686D01*
X026686Y026808D01*
X026514Y026808D01*
X026392Y026686D01*
X026392Y026598D01*
X026383Y026575D01*
X026392Y026555D01*
X026392Y026514D01*
X026411Y026495D01*
X026365Y026449D01*
X026319Y026337D01*
X026319Y025821D01*
X026365Y025708D01*
X026424Y025650D01*
X026207Y025434D01*
X026095Y025480D01*
X025905Y025480D01*
X025728Y025407D01*
X025593Y025272D01*
X025520Y025095D01*
X025520Y024905D01*
X025593Y024728D01*
X025673Y024648D01*
X025354Y024648D01*
X025380Y024675D01*
X025427Y024739D01*
X025462Y024809D01*
X025486Y024883D01*
X025497Y024950D01*
X025050Y024950D01*
X025050Y025050D01*
X024950Y025050D01*
X024950Y025497D01*
X024883Y025486D01*
X024809Y025462D01*
X024739Y025427D01*
X024675Y025380D01*
X024620Y025325D01*
X024573Y025261D01*
X024538Y025191D01*
X024514Y025117D01*
X024503Y025050D01*
X024950Y025050D01*
X024950Y024950D01*
X024503Y024950D01*
X024514Y024883D01*
X024538Y024809D01*
X024573Y024739D01*
X024620Y024675D01*
X024646Y024648D01*
X024327Y024648D01*
X024407Y024728D01*
X024480Y024905D01*
X024480Y025095D01*
X024407Y025272D01*
X024272Y025407D01*
X024095Y025480D01*
X023905Y025480D01*
X023833Y025450D01*
X022343Y026940D01*
X022412Y026940D01*
X022526Y026987D01*
X022776Y027237D01*
X022863Y027324D01*
X022910Y027438D01*
X022910Y027590D01*
X023021Y027544D01*
X023294Y027544D01*
X023468Y027370D01*
X023021Y027370D01*
X022908Y027323D01*
X022822Y027237D01*
X022775Y027124D01*
X022775Y027002D01*
X022822Y026889D01*
X022908Y026803D01*
X023021Y026756D01*
X023537Y026756D01*
X023604Y026784D01*
X023650Y026738D01*
X023738Y026650D01*
X023789Y026650D01*
X023814Y026638D01*
X023823Y026641D01*
X023886Y026619D01*
X023914Y026592D01*
X023965Y026592D01*
X023990Y026583D01*
X024008Y026592D01*
X024032Y026592D01*
X024032Y026590D01*
X024034Y026582D01*
X024042Y026563D01*
X024042Y026514D01*
X024055Y026501D01*
X024003Y026449D01*
X023957Y026337D01*
X023957Y025821D01*
X024003Y025708D01*
X024090Y025622D01*
X024202Y025575D01*
X024324Y025575D01*
X024437Y025622D01*
X024524Y025708D01*
X024570Y025821D01*
X024570Y026337D01*
X024524Y026449D01*
X024458Y026515D01*
X024458Y026579D01*
X024467Y026623D01*
X024467Y026623D01*
X024467Y026623D01*
X024458Y026637D01*
X024458Y026686D01*
X024336Y026808D01*
X024208Y026808D01*
X024208Y026886D01*
X024086Y027008D01*
X024058Y027008D01*
X024058Y027075D01*
X024064Y027091D01*
X024058Y027101D01*
X024058Y027136D01*
X024020Y027175D01*
X024000Y027213D01*
X024000Y027262D01*
X023947Y027315D01*
X023929Y027350D01*
X023920Y027353D01*
X023914Y027361D01*
X023898Y027364D01*
X023887Y027375D01*
X023661Y027601D01*
X023736Y027677D01*
X023783Y027789D01*
X023783Y027911D01*
X023736Y028024D01*
X023650Y028111D01*
X023537Y028157D01*
X023021Y028157D01*
X022910Y028111D01*
X022910Y028377D01*
X023021Y028331D01*
X023537Y028331D01*
X023650Y028378D01*
X023736Y028464D01*
X023744Y028484D01*
X023786Y028469D01*
X023814Y028442D01*
X023865Y028442D01*
X023890Y028433D01*
X023908Y028442D01*
X023986Y028442D01*
X024108Y028564D01*
X024108Y028736D01*
X023986Y028858D01*
X023908Y028858D01*
X023890Y028867D01*
X023890Y028867D01*
X023890Y028867D01*
X023865Y028858D01*
X023814Y028858D01*
X023786Y028831D01*
X023735Y028813D01*
X023650Y028898D01*
X023537Y028945D01*
X023021Y028945D01*
X022910Y028899D01*
X022910Y029149D01*
X022928Y029137D01*
X022987Y029112D01*
X023050Y029100D01*
X023231Y029100D01*
X023231Y029377D01*
X023328Y029377D01*
X023328Y029474D01*
X023231Y029474D01*
X023231Y029751D01*
X023139Y029751D01*
X023291Y029903D01*
X023341Y029903D01*
X023348Y029906D01*
X023537Y029906D01*
X023650Y029952D01*
X023736Y030039D01*
X023783Y030152D01*
X023783Y030274D01*
X023736Y030386D01*
X023650Y030473D01*
X023589Y030498D01*
X023589Y030715D01*
X023650Y030740D01*
X023736Y030826D01*
X023783Y030939D01*
X023783Y031061D01*
X023736Y031174D01*
X023650Y031260D01*
X023537Y031307D01*
X023348Y031307D01*
X023341Y031310D01*
X023217Y031310D01*
X023210Y031307D01*
X023021Y031307D01*
X022908Y031260D01*
X022900Y031252D01*
X022900Y031536D01*
X022908Y031527D01*
X023021Y031481D01*
X023537Y031481D01*
X023650Y031527D01*
X023710Y031587D01*
X030630Y031587D01*
X035480Y026737D01*
X035490Y026727D01*
X035452Y026766D02*
X026729Y026766D01*
X026808Y026667D02*
X035490Y026667D01*
X035490Y026569D02*
X035431Y026569D01*
X035335Y026569D02*
X035239Y026569D01*
X035143Y026569D02*
X034594Y026569D01*
X034739Y026470D02*
X035025Y026470D01*
X034974Y026372D02*
X034792Y026372D01*
X034806Y026273D02*
X034961Y026273D01*
X034961Y026175D02*
X034806Y026175D01*
X034806Y026076D02*
X035239Y026076D01*
X035239Y026030D02*
X034961Y026030D01*
X034961Y025850D01*
X034974Y025787D01*
X034998Y025728D01*
X035034Y025674D01*
X035079Y025629D01*
X035133Y025593D01*
X035192Y025569D01*
X035239Y025560D01*
X035239Y026030D01*
X035239Y025978D02*
X035335Y025978D01*
X035335Y025879D02*
X035239Y025879D01*
X035239Y025781D02*
X035335Y025781D01*
X035335Y025682D02*
X035239Y025682D01*
X035239Y025584D02*
X035301Y025584D01*
X035202Y025485D02*
X034660Y025485D01*
X034660Y025584D02*
X035157Y025584D01*
X035029Y025682D02*
X034734Y025682D01*
X034790Y025781D02*
X034977Y025781D01*
X034961Y025879D02*
X034806Y025879D01*
X034806Y025978D02*
X034961Y025978D01*
X035239Y026175D02*
X035335Y026175D01*
X035335Y026273D02*
X035239Y026273D01*
X035239Y026372D02*
X035335Y026372D01*
X035335Y026470D02*
X035239Y026470D01*
X035353Y026864D02*
X024208Y026864D01*
X024132Y026963D02*
X035255Y026963D01*
X035156Y027061D02*
X024058Y027061D01*
X024064Y027091D02*
X024064Y027091D01*
X024064Y027091D01*
X024035Y027160D02*
X035058Y027160D01*
X034959Y027258D02*
X024000Y027258D01*
X023917Y027357D02*
X034861Y027357D01*
X034762Y027455D02*
X023807Y027455D01*
X023709Y027554D02*
X034664Y027554D01*
X034565Y027652D02*
X023712Y027652D01*
X023767Y027751D02*
X034467Y027751D01*
X034368Y027849D02*
X023783Y027849D01*
X023768Y027948D02*
X034270Y027948D01*
X034171Y028046D02*
X023714Y028046D01*
X023568Y028145D02*
X034073Y028145D01*
X033974Y028243D02*
X022910Y028243D01*
X022910Y028145D02*
X022991Y028145D01*
X022996Y028342D02*
X022910Y028342D01*
X022910Y028933D02*
X022992Y028933D01*
X022910Y029031D02*
X033186Y029031D01*
X033088Y029130D02*
X023613Y029130D01*
X023630Y029137D02*
X023684Y029172D01*
X023729Y029218D01*
X023765Y029271D01*
X023789Y029330D01*
X023798Y029377D01*
X023328Y029377D01*
X023328Y029100D01*
X023508Y029100D01*
X023571Y029112D01*
X023630Y029137D01*
X023736Y029228D02*
X032989Y029228D01*
X032891Y029327D02*
X023788Y029327D01*
X023798Y029474D02*
X023789Y029520D01*
X023765Y029579D01*
X023729Y029633D01*
X023684Y029678D01*
X023630Y029714D01*
X023571Y029738D01*
X023508Y029751D01*
X023328Y029751D01*
X023328Y029474D01*
X023798Y029474D01*
X023788Y029524D02*
X032694Y029524D01*
X032595Y029622D02*
X023736Y029622D01*
X023614Y029721D02*
X032497Y029721D01*
X032398Y029819D02*
X023207Y029819D01*
X023231Y029721D02*
X023328Y029721D01*
X023328Y029622D02*
X023231Y029622D01*
X023231Y029524D02*
X023328Y029524D01*
X023328Y029425D02*
X032792Y029425D01*
X033062Y029721D02*
X037850Y029721D01*
X037850Y029819D02*
X032964Y029819D01*
X032865Y029918D02*
X037850Y029918D01*
X037850Y030016D02*
X032767Y030016D01*
X032668Y030115D02*
X037850Y030115D01*
X037850Y030213D02*
X032570Y030213D01*
X032471Y030312D02*
X037850Y030312D01*
X037850Y030410D02*
X032373Y030410D01*
X032274Y030509D02*
X037850Y030509D01*
X037850Y030607D02*
X032176Y030607D01*
X032077Y030706D02*
X037850Y030706D01*
X037850Y030804D02*
X031979Y030804D01*
X031880Y030903D02*
X037850Y030903D01*
X037850Y031001D02*
X031782Y031001D01*
X031683Y031100D02*
X037850Y031100D01*
X037850Y031198D02*
X031585Y031198D01*
X031486Y031297D02*
X037850Y031297D01*
X037850Y031395D02*
X031388Y031395D01*
X031289Y031494D02*
X037850Y031494D01*
X037850Y031592D02*
X031191Y031592D01*
X031092Y031691D02*
X037850Y031691D01*
X037850Y031789D02*
X030994Y031789D01*
X030895Y031888D02*
X037850Y031888D01*
X037850Y031986D02*
X030797Y031986D01*
X030724Y031494D02*
X023568Y031494D01*
X023562Y031297D02*
X030921Y031297D01*
X030822Y031395D02*
X022900Y031395D01*
X022900Y031297D02*
X022996Y031297D01*
X022990Y031494D02*
X022900Y031494D01*
X022900Y032085D02*
X022998Y032085D01*
X022900Y032183D02*
X024492Y032183D01*
X024492Y032164D02*
X024614Y032042D01*
X024692Y032042D01*
X024710Y032033D01*
X024710Y032033D01*
X024710Y032033D01*
X024735Y032042D01*
X024786Y032042D01*
X024814Y032069D01*
X024877Y032091D01*
X024886Y032088D01*
X024911Y032100D01*
X035662Y032100D01*
X035750Y032188D01*
X037850Y034288D01*
X037850Y027938D01*
X038875Y026913D01*
X038954Y027258D02*
X038985Y027258D01*
X038856Y027357D02*
X039131Y027357D01*
X039090Y027554D02*
X038659Y027554D01*
X038560Y027652D02*
X038965Y027652D01*
X038913Y027751D02*
X038462Y027751D01*
X038757Y027455D02*
X041042Y027455D01*
X041140Y027357D02*
X039711Y027357D01*
X039857Y027258D02*
X041239Y027258D01*
X041337Y027160D02*
X039910Y027160D01*
X039925Y027061D02*
X041436Y027061D01*
X041534Y026963D02*
X039908Y026963D01*
X039853Y026864D02*
X041633Y026864D01*
X041665Y026766D02*
X039701Y026766D01*
X039752Y027554D02*
X040943Y027554D01*
X040845Y027652D02*
X039877Y027652D01*
X039469Y027652D02*
X039372Y027652D01*
X039372Y027554D02*
X039469Y027554D01*
X039469Y027751D02*
X039372Y027751D01*
X039372Y027948D02*
X039469Y027948D01*
X039469Y028046D02*
X039372Y028046D01*
X039372Y028145D02*
X039469Y028145D01*
X039704Y028342D02*
X040155Y028342D01*
X040057Y028440D02*
X039854Y028440D01*
X039909Y028539D02*
X039958Y028539D01*
X039469Y029918D02*
X039372Y029918D01*
X039372Y030016D02*
X039469Y030016D01*
X039469Y030115D02*
X039372Y030115D01*
X039372Y030213D02*
X038150Y030213D01*
X038150Y030115D02*
X038912Y030115D01*
X038964Y030016D02*
X038150Y030016D01*
X038150Y029918D02*
X039086Y029918D01*
X038913Y030312D02*
X038150Y030312D01*
X038150Y030410D02*
X038964Y030410D01*
X039088Y030509D02*
X038150Y030509D01*
X038150Y030607D02*
X041160Y030607D01*
X041160Y030509D02*
X039754Y030509D01*
X039877Y030410D02*
X041186Y030410D01*
X041171Y030312D02*
X039929Y030312D01*
X039930Y030115D02*
X041176Y030115D01*
X041180Y030100D02*
X041197Y030071D01*
X041221Y030047D01*
X041250Y030030D01*
X041283Y030021D01*
X041400Y030021D01*
X041400Y030250D01*
X041400Y030250D01*
X041400Y030250D01*
X041171Y030250D01*
X041171Y030133D01*
X041180Y030100D01*
X041171Y030213D02*
X039469Y030213D01*
X039469Y030312D02*
X039372Y030312D01*
X039372Y030410D02*
X039469Y030410D01*
X039469Y030509D02*
X039372Y030509D01*
X039163Y030693D02*
X039679Y030693D01*
X039792Y030740D01*
X039878Y030826D01*
X039925Y030939D01*
X039925Y031061D01*
X039878Y031174D01*
X039792Y031260D01*
X039679Y031307D01*
X039163Y031307D01*
X039050Y031260D01*
X038969Y031179D01*
X038964Y031181D01*
X038936Y031208D01*
X038885Y031208D01*
X038860Y031217D01*
X038860Y031217D01*
X038860Y031217D01*
X038842Y031208D01*
X038764Y031208D01*
X038642Y031086D01*
X038642Y030914D01*
X038764Y030792D01*
X038842Y030792D01*
X038860Y030783D01*
X038860Y030783D01*
X038860Y030783D01*
X038885Y030792D01*
X038936Y030792D01*
X038964Y030819D01*
X038969Y030821D01*
X039050Y030740D01*
X039163Y030693D01*
X039133Y030706D02*
X038150Y030706D01*
X038150Y030804D02*
X038751Y030804D01*
X038653Y030903D02*
X038150Y030903D01*
X038150Y031001D02*
X038642Y031001D01*
X038655Y031100D02*
X038150Y031100D01*
X038150Y031198D02*
X038753Y031198D01*
X038947Y031198D02*
X038988Y031198D01*
X039138Y031297D02*
X038150Y031297D01*
X038150Y031395D02*
X040910Y031395D01*
X040910Y031297D02*
X039704Y031297D01*
X039854Y031198D02*
X040910Y031198D01*
X040932Y031100D02*
X039909Y031100D01*
X039925Y031001D02*
X041010Y031001D01*
X041155Y030903D02*
X039909Y030903D01*
X039856Y030804D02*
X041160Y030804D01*
X041160Y030706D02*
X039709Y030706D01*
X039878Y030016D02*
X041551Y030016D01*
X041400Y030115D02*
X041400Y030115D01*
X041400Y030213D02*
X041400Y030213D01*
X041551Y031096D02*
X041452Y031195D01*
X041445Y031195D01*
X041445Y031202D01*
X041390Y031257D01*
X041390Y031321D01*
X041450Y031321D01*
X041450Y031550D01*
X041450Y031321D01*
X041551Y031321D01*
X041551Y031096D01*
X041551Y031100D02*
X041547Y031100D01*
X041551Y031198D02*
X041445Y031198D01*
X041390Y031297D02*
X041551Y031297D01*
X041450Y031395D02*
X041450Y031395D01*
X041450Y031494D02*
X041450Y031494D01*
X041450Y031550D02*
X041450Y031550D01*
X041450Y031592D02*
X041450Y031592D01*
X041450Y031691D02*
X041450Y031691D01*
X041390Y031789D02*
X041551Y031789D01*
X041551Y031888D02*
X041390Y031888D01*
X041390Y031986D02*
X041551Y031986D01*
X041390Y032085D02*
X043505Y032085D01*
X043505Y032183D02*
X043605Y032183D01*
X043605Y032282D02*
X043505Y032282D01*
X043505Y032380D02*
X043605Y032380D01*
X044352Y032479D02*
X041390Y032479D01*
X041390Y032577D02*
X044352Y032577D01*
X044352Y032676D02*
X041390Y032676D01*
X041390Y032774D02*
X044352Y032774D01*
X044352Y032873D02*
X041390Y032873D01*
X041390Y032971D02*
X044352Y032971D01*
X044352Y033070D02*
X041390Y033070D01*
X041390Y033168D02*
X044352Y033168D01*
X044352Y033267D02*
X041390Y033267D01*
X041390Y033365D02*
X044352Y033365D01*
X044352Y033464D02*
X041390Y033464D01*
X041390Y033562D02*
X044352Y033562D01*
X044352Y033661D02*
X041390Y033661D01*
X041390Y033759D02*
X044352Y033759D01*
X044352Y033858D02*
X041390Y033858D01*
X041390Y033956D02*
X044352Y033956D01*
X044352Y034055D02*
X041366Y034055D01*
X041326Y034153D02*
X044352Y034153D01*
X044352Y034252D02*
X041241Y034252D01*
X041315Y034178D02*
X041315Y034178D01*
X041094Y034350D02*
X044352Y034350D01*
X044352Y034449D02*
X039698Y034449D01*
X039650Y034611D02*
X039469Y034611D01*
X039469Y034889D01*
X039469Y034985D01*
X039940Y034985D01*
X039931Y035032D01*
X039906Y035091D01*
X039871Y035145D01*
X039825Y035190D01*
X039772Y035226D01*
X039713Y035250D01*
X039650Y035263D01*
X039469Y035263D01*
X039469Y034985D01*
X039372Y034985D01*
X039372Y034889D01*
X038902Y034889D01*
X038911Y034842D01*
X038935Y034783D01*
X038971Y034729D01*
X039016Y034684D01*
X039070Y034648D01*
X039129Y034624D01*
X039192Y034611D01*
X039372Y034611D01*
X039372Y034889D01*
X039469Y034889D01*
X039940Y034889D01*
X039931Y034842D01*
X039906Y034783D01*
X039871Y034729D01*
X039825Y034684D01*
X039772Y034648D01*
X039713Y034624D01*
X039650Y034611D01*
X039765Y034646D02*
X044352Y034646D01*
X044352Y034744D02*
X039880Y034744D01*
X039931Y034843D02*
X044352Y034843D01*
X044352Y034941D02*
X039469Y034941D01*
X039372Y034941D02*
X038703Y034941D01*
X038605Y034843D02*
X038911Y034843D01*
X038961Y034744D02*
X038506Y034744D01*
X038408Y034646D02*
X039077Y034646D01*
X039144Y034449D02*
X038211Y034449D01*
X038150Y034350D02*
X038990Y034350D01*
X038934Y034252D02*
X038150Y034252D01*
X038150Y034153D02*
X038917Y034153D01*
X038931Y034055D02*
X038150Y034055D01*
X038150Y033956D02*
X038984Y033956D01*
X039127Y033858D02*
X038150Y033858D01*
X038150Y033759D02*
X040910Y033759D01*
X040910Y033661D02*
X039748Y033661D01*
X039772Y033651D02*
X039713Y033675D01*
X039650Y033688D01*
X039469Y033688D01*
X039469Y033411D01*
X039372Y033411D01*
X039372Y033314D01*
X038902Y033314D01*
X038911Y033267D01*
X038935Y033208D01*
X038971Y033155D01*
X039016Y033109D01*
X039070Y033074D01*
X039129Y033049D01*
X039192Y033037D01*
X039372Y033037D01*
X039372Y033314D01*
X039469Y033314D01*
X039469Y033037D01*
X039650Y033037D01*
X039713Y033049D01*
X039772Y033074D01*
X039825Y033109D01*
X039871Y033155D01*
X039906Y033208D01*
X039931Y033267D01*
X039940Y033314D01*
X039469Y033314D01*
X039469Y033411D01*
X039940Y033411D01*
X039931Y033457D01*
X039906Y033516D01*
X039871Y033570D01*
X039825Y033615D01*
X039772Y033651D01*
X039876Y033562D02*
X040910Y033562D01*
X040910Y033464D02*
X039928Y033464D01*
X039930Y033267D02*
X040910Y033267D01*
X040910Y033365D02*
X039469Y033365D01*
X039372Y033365D02*
X038150Y033365D01*
X038150Y033267D02*
X038911Y033267D01*
X038962Y033168D02*
X038150Y033168D01*
X038150Y033070D02*
X039080Y033070D01*
X039129Y032888D02*
X039070Y032863D01*
X039016Y032828D01*
X038971Y032782D01*
X038935Y032729D01*
X038911Y032670D01*
X038902Y032623D01*
X039372Y032623D01*
X039372Y032526D01*
X038902Y032526D01*
X038911Y032480D01*
X038935Y032421D01*
X038971Y032367D01*
X039016Y032322D01*
X039070Y032286D01*
X039129Y032262D01*
X039192Y032249D01*
X039372Y032249D01*
X039372Y032526D01*
X039469Y032526D01*
X039469Y032249D01*
X039650Y032249D01*
X039713Y032262D01*
X039772Y032286D01*
X039825Y032322D01*
X039871Y032367D01*
X039906Y032421D01*
X039931Y032480D01*
X039940Y032526D01*
X039469Y032526D01*
X039469Y032623D01*
X039372Y032623D01*
X039372Y032900D01*
X039192Y032900D01*
X039129Y032888D01*
X039092Y032873D02*
X038150Y032873D01*
X038150Y032971D02*
X040910Y032971D01*
X040910Y032873D02*
X039750Y032873D01*
X039772Y032863D02*
X039713Y032888D01*
X039650Y032900D01*
X039469Y032900D01*
X039469Y032623D01*
X039940Y032623D01*
X039931Y032670D01*
X039906Y032729D01*
X039871Y032782D01*
X039825Y032828D01*
X039772Y032863D01*
X039876Y032774D02*
X040910Y032774D01*
X040910Y032676D02*
X039928Y032676D01*
X039930Y032479D02*
X040910Y032479D01*
X040910Y032577D02*
X039469Y032577D01*
X039372Y032577D02*
X038150Y032577D01*
X038150Y032479D02*
X038911Y032479D01*
X038963Y032380D02*
X038150Y032380D01*
X038150Y032282D02*
X039081Y032282D01*
X039163Y032094D02*
X039050Y032048D01*
X038979Y031976D01*
X038964Y031981D01*
X038936Y032008D01*
X038885Y032008D01*
X038860Y032017D01*
X038860Y032017D01*
X038860Y032017D01*
X038842Y032008D01*
X038764Y032008D01*
X038642Y031886D01*
X038642Y031714D01*
X038764Y031592D01*
X038842Y031592D01*
X038860Y031583D01*
X038885Y031592D01*
X038936Y031592D01*
X038962Y031618D01*
X038964Y031614D01*
X039050Y031527D01*
X039163Y031481D01*
X039679Y031481D01*
X039792Y031527D01*
X039878Y031614D01*
X039925Y031726D01*
X039925Y031848D01*
X039878Y031961D01*
X039792Y032048D01*
X039679Y032094D01*
X039163Y032094D01*
X039139Y032085D02*
X038150Y032085D01*
X038150Y032183D02*
X040910Y032183D01*
X040910Y032085D02*
X039702Y032085D01*
X039853Y031986D02*
X040910Y031986D01*
X040910Y031888D02*
X039908Y031888D01*
X039925Y031789D02*
X040910Y031789D01*
X040910Y031691D02*
X039910Y031691D01*
X039856Y031592D02*
X040910Y031592D01*
X040910Y031494D02*
X039710Y031494D01*
X039132Y031494D02*
X038150Y031494D01*
X038150Y031592D02*
X038763Y031592D01*
X038860Y031583D02*
X038860Y031583D01*
X038937Y031592D02*
X038985Y031592D01*
X038665Y031691D02*
X038150Y031691D01*
X038150Y031789D02*
X038642Y031789D01*
X038643Y031888D02*
X038150Y031888D01*
X038150Y031986D02*
X038741Y031986D01*
X038959Y031986D02*
X038989Y031986D01*
X039372Y032282D02*
X039469Y032282D01*
X039469Y032380D02*
X039372Y032380D01*
X039372Y032479D02*
X039469Y032479D01*
X039469Y032676D02*
X039372Y032676D01*
X039372Y032774D02*
X039469Y032774D01*
X039469Y032873D02*
X039372Y032873D01*
X039372Y033070D02*
X039469Y033070D01*
X039469Y033168D02*
X039372Y033168D01*
X039372Y033267D02*
X039469Y033267D01*
X039372Y033411D02*
X038902Y033411D01*
X038911Y033457D01*
X038935Y033516D01*
X038971Y033570D01*
X039016Y033615D01*
X039070Y033651D01*
X039129Y033675D01*
X039192Y033688D01*
X039372Y033688D01*
X039372Y033411D01*
X039372Y033464D02*
X039469Y033464D01*
X039469Y033562D02*
X039372Y033562D01*
X039372Y033661D02*
X039469Y033661D01*
X039714Y033858D02*
X040910Y033858D01*
X040910Y033168D02*
X039880Y033168D01*
X039762Y033070D02*
X040910Y033070D01*
X040910Y032380D02*
X039879Y032380D01*
X039760Y032282D02*
X040910Y032282D01*
X041390Y032282D02*
X042678Y032282D01*
X042678Y032183D02*
X041390Y032183D01*
X041390Y032380D02*
X042706Y032380D01*
X044352Y034547D02*
X038309Y034547D01*
X037980Y034843D02*
X034575Y034843D01*
X034674Y034941D02*
X038079Y034941D01*
X038177Y035040D02*
X034772Y035040D01*
X034871Y035138D02*
X038276Y035138D01*
X038374Y035237D02*
X034969Y035237D01*
X034983Y035250D02*
X034983Y035250D01*
X035094Y035361D01*
X035214Y035242D01*
X035386Y035242D01*
X035508Y035364D01*
X035508Y035457D01*
X035516Y035476D01*
X035508Y035493D01*
X035508Y035512D01*
X035547Y035551D01*
X035594Y035663D01*
X035594Y036179D01*
X035547Y036292D01*
X035461Y036378D01*
X035348Y036425D01*
X035226Y036425D01*
X035113Y036378D01*
X035100Y036365D01*
X035100Y036522D01*
X035272Y036593D01*
X035407Y036728D01*
X035480Y036905D01*
X035480Y037095D01*
X035407Y037272D01*
X035327Y037352D01*
X035673Y037352D01*
X035593Y037272D01*
X035520Y037095D01*
X035520Y036905D01*
X035593Y036728D01*
X035728Y036593D01*
X035905Y036520D01*
X036058Y036520D01*
X035927Y036389D01*
X035901Y036378D01*
X035814Y036292D01*
X035768Y036179D01*
X035768Y035663D01*
X035814Y035551D01*
X035901Y035464D01*
X036013Y035418D01*
X036135Y035418D01*
X036248Y035464D01*
X036335Y035551D01*
X036381Y035663D01*
X036381Y036179D01*
X036335Y036292D01*
X036294Y036332D01*
X036312Y036350D01*
X036633Y036350D01*
X036609Y036326D01*
X036573Y036272D01*
X036549Y036213D01*
X036536Y036150D01*
X036536Y035970D01*
X036813Y035970D01*
X036813Y035873D01*
X036536Y035873D01*
X036536Y035692D01*
X036549Y035629D01*
X036573Y035570D01*
X036609Y035517D01*
X036654Y035472D01*
X036708Y035436D01*
X036767Y035411D01*
X036813Y035402D01*
X036813Y035873D01*
X036910Y035873D01*
X036910Y035402D01*
X036957Y035411D01*
X037016Y035436D01*
X037069Y035472D01*
X037115Y035517D01*
X037150Y035570D01*
X037175Y035629D01*
X037187Y035692D01*
X037187Y035873D01*
X036910Y035873D01*
X036910Y035970D01*
X036910Y036350D01*
X036813Y036350D01*
X036813Y035970D01*
X036910Y035970D01*
X037187Y035970D01*
X037187Y036150D01*
X037175Y036213D01*
X037150Y036272D01*
X037115Y036326D01*
X037090Y036350D01*
X037421Y036350D01*
X037396Y036326D01*
X037361Y036272D01*
X037336Y036213D01*
X037324Y036150D01*
X037324Y035970D01*
X037601Y035970D01*
X037601Y036350D01*
X037698Y036350D01*
X037698Y035970D01*
X037975Y035970D01*
X037975Y036150D01*
X037962Y036213D01*
X037938Y036272D01*
X037902Y036326D01*
X037878Y036350D01*
X038208Y036350D01*
X038184Y036326D01*
X038148Y036272D01*
X038124Y036213D01*
X038111Y036150D01*
X038111Y035970D01*
X038388Y035970D01*
X038388Y036350D01*
X038485Y036350D01*
X038485Y035970D01*
X038388Y035970D01*
X038388Y035873D01*
X038111Y035873D01*
X038111Y035692D01*
X038124Y035629D01*
X038148Y035570D01*
X038184Y035517D01*
X038229Y035472D01*
X038282Y035436D01*
X038342Y035411D01*
X038388Y035402D01*
X038388Y035873D01*
X038485Y035873D01*
X038485Y035970D01*
X038762Y035970D01*
X038762Y036150D01*
X038750Y036213D01*
X038725Y036272D01*
X038690Y036326D01*
X038665Y036350D01*
X039562Y036350D01*
X039783Y036570D01*
X039905Y036520D01*
X040095Y036520D01*
X040272Y036593D01*
X040407Y036728D01*
X040480Y036905D01*
X040480Y037095D01*
X040407Y037272D01*
X040327Y037352D01*
X040673Y037352D01*
X040593Y037272D01*
X040520Y037095D01*
X040520Y036905D01*
X040593Y036728D01*
X040728Y036593D01*
X040900Y036522D01*
X040900Y036312D01*
X040588Y036000D01*
X039138Y036000D01*
X038737Y035599D01*
X038750Y035629D01*
X038762Y035692D01*
X038762Y035873D01*
X038485Y035873D01*
X038485Y035402D01*
X038532Y035411D01*
X038562Y035424D01*
X035538Y032400D01*
X024911Y032400D01*
X024886Y032412D01*
X024877Y032409D01*
X024814Y032431D01*
X024786Y032458D01*
X024735Y032458D01*
X024710Y032467D01*
X024692Y032458D01*
X024614Y032458D01*
X024492Y032336D01*
X024492Y032164D01*
X024571Y032085D02*
X023561Y032085D01*
X023570Y032282D02*
X024492Y032282D01*
X024535Y032380D02*
X023875Y032380D01*
X023958Y032479D02*
X035616Y032479D01*
X035715Y032577D02*
X023958Y032577D01*
X023919Y032676D02*
X035813Y032676D01*
X035912Y032774D02*
X023809Y032774D01*
X023559Y032873D02*
X036010Y032873D01*
X036109Y032971D02*
X022900Y032971D01*
X022900Y032873D02*
X022999Y032873D01*
X023050Y033037D02*
X023231Y033037D01*
X023231Y033314D01*
X023328Y033314D01*
X023328Y033411D01*
X023231Y033411D01*
X023231Y033688D01*
X023050Y033688D01*
X022987Y033675D01*
X022928Y033651D01*
X022900Y033632D01*
X022900Y033898D01*
X022908Y033889D01*
X023021Y033843D01*
X023537Y033843D01*
X023650Y033889D01*
X023702Y033942D01*
X023715Y033942D01*
X023740Y033933D01*
X023758Y033942D01*
X023836Y033942D01*
X023958Y034064D01*
X023958Y034236D01*
X023836Y034358D01*
X023758Y034358D01*
X023740Y034367D01*
X023740Y034367D01*
X023740Y034367D01*
X023715Y034358D01*
X023701Y034358D01*
X023650Y034410D01*
X023537Y034456D01*
X023021Y034456D01*
X022908Y034410D01*
X022900Y034401D01*
X022900Y034685D01*
X022908Y034677D01*
X023021Y034630D01*
X023537Y034630D01*
X023650Y034677D01*
X023661Y034688D01*
X023669Y034676D01*
X023677Y034675D01*
X023681Y034675D01*
X023714Y034642D01*
X023886Y034642D01*
X024008Y034764D01*
X024008Y034936D01*
X023920Y035024D01*
X023914Y035035D01*
X023908Y035037D01*
X023886Y035058D01*
X023828Y035058D01*
X023795Y035067D01*
X023762Y035100D01*
X023741Y035100D01*
X023736Y035111D01*
X023650Y035197D01*
X023537Y035244D01*
X023021Y035244D01*
X022908Y035197D01*
X022900Y035189D01*
X022900Y036522D01*
X022905Y036520D01*
X023095Y036520D01*
X023272Y036593D01*
X023407Y036728D01*
X023437Y036800D01*
X023563Y036800D01*
X023593Y036728D01*
X023728Y036593D01*
X023905Y036520D01*
X024095Y036520D01*
X024272Y036593D01*
X024407Y036728D01*
X024480Y036905D01*
X024480Y037095D01*
X024407Y037272D01*
X024327Y037352D01*
X024673Y037352D01*
X024593Y037272D01*
X024520Y037095D01*
X024520Y036905D01*
X024593Y036728D01*
X024728Y036593D01*
X024905Y036520D01*
X025095Y036520D01*
X025272Y036593D01*
X025407Y036728D01*
X025480Y036905D01*
X025480Y037095D01*
X025407Y037272D01*
X025327Y037352D01*
X025673Y037352D01*
X025593Y037272D01*
X025520Y037095D01*
X025520Y036905D01*
X025593Y036728D01*
X025728Y036593D01*
X025905Y036520D01*
X026095Y036520D01*
X026272Y036593D01*
X026407Y036728D01*
X026480Y036905D01*
X026480Y037095D01*
X026407Y037272D01*
X026327Y037352D01*
X026673Y037352D01*
X026593Y037272D01*
X026520Y037095D01*
X026520Y036905D01*
X026593Y036728D01*
X026728Y036593D01*
X026905Y036520D01*
X027095Y036520D01*
X027272Y036593D01*
X027407Y036728D01*
X027480Y036905D01*
X027480Y037095D01*
X027407Y037272D01*
X027327Y037352D01*
X027673Y037352D01*
X027593Y037272D01*
X027520Y037095D01*
X027520Y036905D01*
X027593Y036728D01*
X027728Y036593D01*
X027905Y036520D01*
X028095Y036520D01*
X028272Y036593D01*
X028407Y036728D01*
X028480Y036905D01*
X028480Y037095D01*
X028407Y037272D01*
X028327Y037352D01*
X028673Y037352D01*
X028593Y037272D01*
X028520Y037095D01*
X028520Y036905D01*
X028593Y036728D01*
X028728Y036593D01*
X028905Y036520D01*
X029095Y036520D01*
X029272Y036593D01*
X029407Y036728D01*
X029480Y036905D01*
X029480Y037095D01*
X029407Y037272D01*
X029327Y037352D01*
X029673Y037352D01*
X029593Y037272D01*
X029520Y037095D01*
X029520Y036905D01*
X029593Y036728D01*
X029728Y036593D01*
X029905Y036520D01*
X030095Y036520D01*
X030272Y036593D01*
X030407Y036728D01*
X030480Y036905D01*
X030480Y037095D01*
X030407Y037272D01*
X030327Y037352D01*
X030673Y037352D01*
X030593Y037272D01*
X030520Y037095D01*
X030520Y036905D01*
X030593Y036728D01*
X030728Y036593D01*
X030905Y036520D01*
X031095Y036520D01*
X031272Y036593D01*
X031407Y036728D01*
X031480Y036905D01*
X031480Y037095D01*
X031407Y037272D01*
X031327Y037352D01*
X031673Y037352D01*
X031593Y037272D01*
X031520Y037095D01*
X031520Y036905D01*
X031593Y036728D01*
X031728Y036593D01*
X031905Y036520D01*
X032095Y036520D01*
X032272Y036593D01*
X032407Y036728D01*
X032480Y036905D01*
X032480Y037095D01*
X032407Y037272D01*
X032327Y037352D01*
X032673Y037352D01*
X032593Y037272D01*
X032520Y037095D01*
X032520Y036905D01*
X032593Y036728D01*
X032728Y036593D01*
X032905Y036520D01*
X033095Y036520D01*
X033272Y036593D01*
X033407Y036728D01*
X033480Y036905D01*
X033480Y037095D01*
X033407Y037272D01*
X033327Y037352D01*
X033646Y037352D01*
X033620Y037325D01*
X033573Y037261D01*
X033538Y037191D01*
X033514Y037117D01*
X033503Y037050D01*
X033950Y037050D01*
X033950Y036950D01*
X034050Y036950D01*
X034050Y037050D01*
X034497Y037050D01*
X034486Y037117D01*
X034462Y037191D01*
X034427Y037261D01*
X034380Y037325D01*
X034354Y037352D01*
X034673Y037352D01*
X034593Y037272D01*
X034520Y037095D01*
X034520Y036905D01*
X034593Y036728D01*
X034700Y036621D01*
X034700Y036352D01*
X034673Y036378D01*
X034561Y036425D01*
X034439Y036425D01*
X034326Y036378D01*
X034239Y036292D01*
X034193Y036179D01*
X034193Y035663D01*
X034239Y035551D01*
X034292Y035498D01*
X034292Y035485D01*
X034283Y035460D01*
X034283Y035460D01*
X034283Y035460D01*
X034292Y035441D01*
X034292Y035364D01*
X034411Y035244D01*
X033367Y034200D01*
X024695Y034200D01*
X024686Y034208D01*
X024514Y034208D01*
X024392Y034086D01*
X024392Y033914D01*
X024514Y033792D01*
X024686Y033792D01*
X024695Y033800D01*
X033533Y033800D01*
X033650Y033917D01*
X034983Y035250D01*
X035068Y035335D02*
X035120Y035335D01*
X035480Y035335D02*
X038473Y035335D01*
X038485Y035434D02*
X038388Y035434D01*
X038388Y035532D02*
X038485Y035532D01*
X038485Y035631D02*
X038388Y035631D01*
X038388Y035729D02*
X038485Y035729D01*
X038485Y035828D02*
X038388Y035828D01*
X038388Y035926D02*
X037698Y035926D01*
X037698Y035970D02*
X037698Y035873D01*
X037975Y035873D01*
X037975Y035692D01*
X037962Y035629D01*
X037938Y035570D01*
X037902Y035517D01*
X037857Y035472D01*
X037803Y035436D01*
X037744Y035411D01*
X037698Y035402D01*
X037698Y035873D01*
X037601Y035873D01*
X037601Y035402D01*
X037554Y035411D01*
X037495Y035436D01*
X037442Y035472D01*
X037396Y035517D01*
X037361Y035570D01*
X037336Y035629D01*
X037324Y035692D01*
X037324Y035873D01*
X037601Y035873D01*
X037601Y035970D01*
X037698Y035970D01*
X037698Y036025D02*
X037601Y036025D01*
X037601Y036123D02*
X037698Y036123D01*
X037698Y036222D02*
X037601Y036222D01*
X037601Y036320D02*
X037698Y036320D01*
X037906Y036320D02*
X038180Y036320D01*
X038127Y036222D02*
X037959Y036222D01*
X037975Y036123D02*
X038111Y036123D01*
X038111Y036025D02*
X037975Y036025D01*
X037975Y035828D02*
X038111Y035828D01*
X038111Y035729D02*
X037975Y035729D01*
X037963Y035631D02*
X038123Y035631D01*
X038174Y035532D02*
X037912Y035532D01*
X037798Y035434D02*
X038288Y035434D01*
X038750Y035631D02*
X038768Y035631D01*
X038762Y035729D02*
X038867Y035729D01*
X038965Y035828D02*
X038762Y035828D01*
X038762Y036025D02*
X040612Y036025D01*
X040711Y036123D02*
X038762Y036123D01*
X038746Y036222D02*
X040809Y036222D01*
X040900Y036320D02*
X038693Y036320D01*
X038485Y036320D02*
X038388Y036320D01*
X038388Y036222D02*
X038485Y036222D01*
X038485Y036123D02*
X038388Y036123D01*
X038388Y036025D02*
X038485Y036025D01*
X038485Y035926D02*
X039064Y035926D01*
X039294Y035532D02*
X043193Y035532D01*
X043188Y035534D02*
X043391Y035450D01*
X043609Y035450D01*
X043812Y035534D01*
X043966Y035688D01*
X044050Y035891D01*
X044050Y036109D01*
X043966Y036312D01*
X043812Y036466D01*
X043609Y036550D01*
X043391Y036550D01*
X043188Y036466D01*
X043034Y036312D01*
X042950Y036109D01*
X042950Y035891D01*
X043034Y035688D01*
X043188Y035534D01*
X043092Y035631D02*
X040843Y035631D01*
X040941Y035729D02*
X043017Y035729D01*
X042976Y035828D02*
X041040Y035828D01*
X041138Y035926D02*
X042950Y035926D01*
X042950Y036025D02*
X041237Y036025D01*
X041335Y036123D02*
X042956Y036123D01*
X042996Y036222D02*
X041434Y036222D01*
X041532Y036320D02*
X043042Y036320D01*
X043141Y036419D02*
X041631Y036419D01*
X041729Y036517D02*
X043311Y036517D01*
X043294Y036616D02*
X043681Y036616D01*
X043675Y036620D02*
X043739Y036573D01*
X043809Y036538D01*
X043883Y036514D01*
X043950Y036503D01*
X043950Y036950D01*
X043503Y036950D01*
X043514Y036883D01*
X043538Y036809D01*
X043573Y036739D01*
X043620Y036675D01*
X043675Y036620D01*
X043689Y036517D02*
X043872Y036517D01*
X043950Y036517D02*
X044050Y036517D01*
X044128Y036517D02*
X044352Y036517D01*
X044352Y036419D02*
X043859Y036419D01*
X043958Y036320D02*
X044352Y036320D01*
X044352Y036222D02*
X044004Y036222D01*
X044044Y036123D02*
X044352Y036123D01*
X044352Y036025D02*
X044050Y036025D01*
X044050Y035926D02*
X044352Y035926D01*
X044352Y035828D02*
X044024Y035828D01*
X043983Y035729D02*
X044352Y035729D01*
X044352Y035631D02*
X043908Y035631D01*
X043807Y035532D02*
X044352Y035532D01*
X044352Y035434D02*
X039196Y035434D01*
X039097Y035335D02*
X044352Y035335D01*
X044352Y035237D02*
X039745Y035237D01*
X039875Y035138D02*
X044352Y035138D01*
X044352Y035040D02*
X039928Y035040D01*
X039469Y035040D02*
X039372Y035040D01*
X039372Y034985D02*
X039372Y035263D01*
X039192Y035263D01*
X039129Y035250D01*
X039070Y035226D01*
X039016Y035190D01*
X038971Y035145D01*
X038935Y035091D01*
X038911Y035032D01*
X038902Y034985D01*
X039372Y034985D01*
X039372Y034843D02*
X039469Y034843D01*
X039469Y034744D02*
X039372Y034744D01*
X039372Y034646D02*
X039469Y034646D01*
X039469Y035138D02*
X039372Y035138D01*
X039372Y035237D02*
X039469Y035237D01*
X039096Y035237D02*
X038999Y035237D01*
X038967Y035138D02*
X038900Y035138D01*
X038914Y035040D02*
X038802Y035040D01*
X037882Y034744D02*
X034477Y034744D01*
X034378Y034646D02*
X037783Y034646D01*
X037685Y034547D02*
X034280Y034547D01*
X034181Y034449D02*
X037586Y034449D01*
X037488Y034350D02*
X034083Y034350D01*
X033984Y034252D02*
X037389Y034252D01*
X037291Y034153D02*
X033886Y034153D01*
X033787Y034055D02*
X037192Y034055D01*
X037094Y033956D02*
X033689Y033956D01*
X033590Y033858D02*
X036995Y033858D01*
X036897Y033759D02*
X022900Y033759D01*
X022900Y033661D02*
X022952Y033661D01*
X022986Y033858D02*
X022900Y033858D01*
X023231Y033661D02*
X023328Y033661D01*
X023328Y033688D02*
X023328Y033411D01*
X023798Y033411D01*
X023789Y033457D01*
X023765Y033516D01*
X023729Y033570D01*
X023684Y033615D01*
X023630Y033651D01*
X023571Y033675D01*
X023508Y033688D01*
X023328Y033688D01*
X023328Y033562D02*
X023231Y033562D01*
X023231Y033464D02*
X023328Y033464D01*
X023328Y033365D02*
X036503Y033365D01*
X036601Y033464D02*
X023786Y033464D01*
X023734Y033562D02*
X036700Y033562D01*
X036798Y033661D02*
X023607Y033661D01*
X023573Y033858D02*
X024448Y033858D01*
X024392Y033956D02*
X023851Y033956D01*
X023740Y033933D02*
X023740Y033933D01*
X023740Y033933D01*
X023949Y034055D02*
X024392Y034055D01*
X024386Y034142D02*
X024508Y034264D01*
X024508Y034342D01*
X024517Y034360D01*
X024517Y034360D01*
X024517Y034360D01*
X024508Y034385D01*
X024508Y034436D01*
X024481Y034464D01*
X024459Y034527D01*
X024462Y034536D01*
X024450Y034561D01*
X024450Y035189D01*
X024462Y035214D01*
X024459Y035223D01*
X024481Y035286D01*
X024508Y035314D01*
X024508Y035365D01*
X024517Y035390D01*
X024512Y035400D01*
X024517Y035410D01*
X024517Y035410D01*
X024517Y035410D01*
X024508Y035435D01*
X024508Y035486D01*
X024484Y035511D01*
X024524Y035551D01*
X024570Y035663D01*
X024570Y036179D01*
X024524Y036292D01*
X024437Y036378D01*
X024324Y036425D01*
X024202Y036425D01*
X024090Y036378D01*
X024003Y036292D01*
X023957Y036179D01*
X023957Y035663D01*
X024003Y035551D01*
X024090Y035464D01*
X024092Y035463D01*
X024092Y035435D01*
X024083Y035410D01*
X024088Y035400D01*
X024083Y035390D01*
X024083Y035390D01*
X024083Y035390D01*
X024092Y035365D01*
X024092Y035314D01*
X024119Y035286D01*
X024141Y035223D01*
X024138Y035214D01*
X024150Y035189D01*
X024150Y034561D01*
X024138Y034536D01*
X024141Y034527D01*
X024119Y034464D01*
X024092Y034436D01*
X024092Y034385D01*
X024083Y034360D01*
X024092Y034342D01*
X024092Y034264D01*
X024214Y034142D01*
X024386Y034142D01*
X024398Y034153D02*
X024458Y034153D01*
X024496Y034252D02*
X033419Y034252D01*
X033517Y034350D02*
X024512Y034350D01*
X024496Y034449D02*
X033616Y034449D01*
X033714Y034547D02*
X024457Y034547D01*
X024450Y034646D02*
X033813Y034646D01*
X033911Y034744D02*
X024450Y034744D01*
X024450Y034843D02*
X034010Y034843D01*
X034108Y034941D02*
X024450Y034941D01*
X024450Y035040D02*
X034207Y035040D01*
X034305Y035138D02*
X024450Y035138D01*
X024464Y035237D02*
X034404Y035237D01*
X034320Y035335D02*
X033930Y035335D01*
X033958Y035364D02*
X033958Y035499D01*
X033960Y035506D01*
X033960Y035506D01*
X033960Y035506D01*
X033958Y035509D01*
X033958Y035536D01*
X033958Y035537D01*
X033972Y035551D01*
X034019Y035663D01*
X034019Y036179D01*
X033972Y036292D01*
X033886Y036378D01*
X033773Y036425D01*
X033651Y036425D01*
X033538Y036378D01*
X033452Y036292D01*
X033405Y036179D01*
X033405Y035663D01*
X033452Y035551D01*
X033538Y035464D01*
X033542Y035463D01*
X033542Y035463D01*
X033537Y035426D01*
X033536Y035413D01*
X033542Y035406D01*
X033542Y035364D01*
X033664Y035242D01*
X033836Y035242D01*
X033958Y035364D01*
X033958Y035434D02*
X034292Y035434D01*
X034258Y035532D02*
X033958Y035532D01*
X034005Y035631D02*
X034206Y035631D01*
X034193Y035729D02*
X034019Y035729D01*
X034019Y035828D02*
X034193Y035828D01*
X034193Y035926D02*
X034019Y035926D01*
X034019Y036025D02*
X034193Y036025D01*
X034193Y036123D02*
X034019Y036123D01*
X034001Y036222D02*
X034210Y036222D01*
X034268Y036320D02*
X033944Y036320D01*
X033950Y036503D02*
X033950Y036950D01*
X033503Y036950D01*
X033514Y036883D01*
X033538Y036809D01*
X033573Y036739D01*
X033620Y036675D01*
X033675Y036620D01*
X033739Y036573D01*
X033809Y036538D01*
X033883Y036514D01*
X033950Y036503D01*
X033950Y036517D02*
X034050Y036517D01*
X034050Y036503D02*
X034117Y036514D01*
X034191Y036538D01*
X034261Y036573D01*
X034325Y036620D01*
X034380Y036675D01*
X034427Y036739D01*
X034462Y036809D01*
X034486Y036883D01*
X034497Y036950D01*
X034050Y036950D01*
X034050Y036503D01*
X034128Y036517D02*
X034700Y036517D01*
X034700Y036419D02*
X034576Y036419D01*
X034423Y036419D02*
X033789Y036419D01*
X033872Y036517D02*
X022900Y036517D01*
X022900Y036419D02*
X024187Y036419D01*
X024340Y036419D02*
X024974Y036419D01*
X024990Y036425D02*
X024877Y036378D01*
X024791Y036292D01*
X024744Y036179D01*
X024744Y035663D01*
X024791Y035551D01*
X024798Y035543D01*
X024792Y035536D01*
X024792Y035364D01*
X024914Y035242D01*
X025086Y035242D01*
X025208Y035364D01*
X025208Y035395D01*
X025211Y035397D01*
X025211Y035397D01*
X025211Y035404D01*
X025208Y035455D01*
X025208Y035458D01*
X025225Y035464D01*
X025311Y035551D01*
X025358Y035663D01*
X025358Y036179D01*
X025311Y036292D01*
X025225Y036378D01*
X025112Y036425D01*
X024990Y036425D01*
X025127Y036419D02*
X025762Y036419D01*
X025777Y036425D02*
X025664Y036378D01*
X025578Y036292D01*
X025531Y036179D01*
X025531Y035663D01*
X025578Y035551D01*
X025642Y035487D01*
X025642Y035478D01*
X025633Y035448D01*
X025633Y035446D01*
X025642Y035430D01*
X025642Y035364D01*
X025764Y035242D01*
X025936Y035242D01*
X026058Y035364D01*
X026058Y035455D01*
X026066Y035475D01*
X026058Y035493D01*
X026058Y035511D01*
X026098Y035551D01*
X026145Y035663D01*
X026145Y036179D01*
X026098Y036292D01*
X026012Y036378D01*
X025899Y036425D01*
X025777Y036425D01*
X025915Y036419D02*
X026549Y036419D01*
X026565Y036425D02*
X026452Y036378D01*
X026365Y036292D01*
X026319Y036179D01*
X026319Y035663D01*
X026365Y035551D01*
X026442Y035474D01*
X026442Y035471D01*
X026441Y035468D01*
X026433Y035430D01*
X026442Y035418D01*
X026442Y035364D01*
X026564Y035242D01*
X026736Y035242D01*
X026858Y035364D01*
X026858Y035473D01*
X026864Y035490D01*
X026858Y035500D01*
X026858Y035523D01*
X026886Y035551D01*
X026932Y035663D01*
X026932Y036179D01*
X026886Y036292D01*
X026799Y036378D01*
X026687Y036425D01*
X026565Y036425D01*
X026702Y036419D02*
X027336Y036419D01*
X027352Y036425D02*
X027239Y036378D01*
X027153Y036292D01*
X027106Y036179D01*
X027106Y035663D01*
X027153Y035551D01*
X027239Y035464D01*
X027242Y035463D01*
X027238Y035435D01*
X027235Y035414D01*
X027242Y035407D01*
X027242Y035364D01*
X027364Y035242D01*
X027536Y035242D01*
X027658Y035364D01*
X027658Y035497D01*
X027660Y035505D01*
X027660Y035505D01*
X027658Y035508D01*
X027658Y035536D01*
X027673Y035551D01*
X027720Y035663D01*
X027720Y036179D01*
X027673Y036292D01*
X027587Y036378D01*
X027474Y036425D01*
X027352Y036425D01*
X027490Y036419D02*
X028124Y036419D01*
X028139Y036425D02*
X028027Y036378D01*
X027940Y036292D01*
X027894Y036179D01*
X027894Y035663D01*
X027940Y035551D01*
X027992Y035499D01*
X027992Y035486D01*
X027983Y035461D01*
X027983Y035461D01*
X027992Y035442D01*
X027992Y035364D01*
X028114Y035242D01*
X028286Y035242D01*
X028408Y035364D01*
X028408Y035441D01*
X028417Y035460D01*
X028408Y035485D01*
X028408Y035498D01*
X028461Y035551D01*
X028507Y035663D01*
X028507Y036179D01*
X028461Y036292D01*
X028374Y036378D01*
X028261Y036425D01*
X028139Y036425D01*
X028277Y036419D02*
X028911Y036419D01*
X028927Y036425D02*
X028814Y036378D01*
X028728Y036292D01*
X028681Y036179D01*
X028681Y035663D01*
X028728Y035551D01*
X028792Y035487D01*
X028792Y035478D01*
X028783Y035445D01*
X028783Y035445D01*
X028783Y035445D01*
X028792Y035429D01*
X028792Y035364D01*
X028914Y035242D01*
X029086Y035242D01*
X029208Y035364D01*
X029208Y035456D01*
X029216Y035475D01*
X029216Y035475D01*
X029216Y035475D01*
X029208Y035493D01*
X029208Y035511D01*
X029248Y035551D01*
X029295Y035663D01*
X029295Y036179D01*
X029248Y036292D01*
X029162Y036378D01*
X029049Y036425D01*
X028927Y036425D01*
X029064Y036419D02*
X029699Y036419D01*
X029714Y036425D02*
X029601Y036378D01*
X029515Y036292D01*
X029468Y036179D01*
X029468Y035663D01*
X029515Y035551D01*
X029592Y035474D01*
X029592Y035470D01*
X029583Y035430D01*
X029592Y035417D01*
X029592Y035364D01*
X029714Y035242D01*
X029886Y035242D01*
X030008Y035364D01*
X030008Y035474D01*
X030014Y035490D01*
X030008Y035501D01*
X030008Y035524D01*
X030035Y035551D01*
X030082Y035663D01*
X030082Y036179D01*
X030035Y036292D01*
X029949Y036378D01*
X029836Y036425D01*
X029714Y036425D01*
X029852Y036419D02*
X030486Y036419D01*
X030502Y036425D02*
X030389Y036378D01*
X030302Y036292D01*
X030256Y036179D01*
X030256Y035663D01*
X030302Y035551D01*
X030389Y035464D01*
X030392Y035463D01*
X030386Y035414D01*
X030392Y035406D01*
X030392Y035364D01*
X030514Y035242D01*
X030686Y035242D01*
X030808Y035364D01*
X030808Y035498D01*
X030810Y035506D01*
X030808Y035509D01*
X030808Y035536D01*
X030823Y035551D01*
X030869Y035663D01*
X030869Y036179D01*
X030823Y036292D01*
X030736Y036378D01*
X030624Y036425D01*
X030502Y036425D01*
X030639Y036419D02*
X031224Y036419D01*
X031196Y036407D02*
X031142Y036371D01*
X031097Y036326D01*
X031061Y036272D01*
X031037Y036213D01*
X031024Y036150D01*
X031024Y035970D01*
X031302Y035970D01*
X031302Y036440D01*
X031255Y036431D01*
X031196Y036407D01*
X031302Y036419D02*
X031398Y036419D01*
X031398Y036440D02*
X031398Y035970D01*
X031302Y035970D01*
X031302Y035873D01*
X031398Y035873D01*
X031398Y035402D01*
X031445Y035411D01*
X031504Y035436D01*
X031558Y035472D01*
X031603Y035517D01*
X031639Y035570D01*
X031663Y035629D01*
X031676Y035692D01*
X031676Y035873D01*
X031398Y035873D01*
X031398Y035970D01*
X031676Y035970D01*
X031676Y036150D01*
X031663Y036213D01*
X031639Y036272D01*
X031603Y036326D01*
X031558Y036371D01*
X031504Y036407D01*
X031445Y036431D01*
X031398Y036440D01*
X031476Y036419D02*
X032061Y036419D01*
X032076Y036425D02*
X031964Y036378D01*
X031877Y036292D01*
X031831Y036179D01*
X031831Y035663D01*
X031877Y035551D01*
X031942Y035486D01*
X031942Y035478D01*
X031933Y035445D01*
X031942Y035429D01*
X031942Y035364D01*
X032064Y035242D01*
X032236Y035242D01*
X032358Y035364D01*
X032358Y035456D01*
X032366Y035476D01*
X032358Y035493D01*
X032358Y035511D01*
X032398Y035551D01*
X032444Y035663D01*
X032444Y036179D01*
X032398Y036292D01*
X032311Y036378D01*
X032198Y036425D01*
X032076Y036425D01*
X032214Y036419D02*
X032848Y036419D01*
X032864Y036425D02*
X032751Y036378D01*
X032665Y036292D01*
X032618Y036179D01*
X032618Y035663D01*
X032665Y035551D01*
X032742Y035474D01*
X032742Y035470D01*
X032734Y035429D01*
X032742Y035417D01*
X032742Y035364D01*
X032864Y035242D01*
X033036Y035242D01*
X033158Y035364D01*
X033158Y035474D01*
X033164Y035491D01*
X033158Y035501D01*
X033158Y035524D01*
X033185Y035551D01*
X033232Y035663D01*
X033232Y036179D01*
X033185Y036292D01*
X033099Y036378D01*
X032986Y036425D01*
X032864Y036425D01*
X033001Y036419D02*
X033636Y036419D01*
X033480Y036320D02*
X033157Y036320D01*
X033214Y036222D02*
X033423Y036222D01*
X033405Y036123D02*
X033232Y036123D01*
X033232Y036025D02*
X033405Y036025D01*
X033405Y035926D02*
X033232Y035926D01*
X033232Y035828D02*
X033405Y035828D01*
X033405Y035729D02*
X033232Y035729D01*
X033218Y035631D02*
X033419Y035631D01*
X033471Y035532D02*
X033166Y035532D01*
X033164Y035491D02*
X033164Y035491D01*
X033164Y035491D01*
X033158Y035434D02*
X033538Y035434D01*
X033536Y035413D02*
X033536Y035413D01*
X033570Y035335D02*
X033130Y035335D01*
X032770Y035335D02*
X032330Y035335D01*
X032358Y035434D02*
X032734Y035434D01*
X032734Y035429D02*
X032734Y035429D01*
X032683Y035532D02*
X032379Y035532D01*
X032366Y035476D02*
X032366Y035476D01*
X032431Y035631D02*
X032632Y035631D01*
X032618Y035729D02*
X032444Y035729D01*
X032444Y035828D02*
X032618Y035828D01*
X032618Y035926D02*
X032444Y035926D01*
X032444Y036025D02*
X032618Y036025D01*
X032618Y036123D02*
X032444Y036123D01*
X032427Y036222D02*
X032636Y036222D01*
X032693Y036320D02*
X032369Y036320D01*
X032294Y036616D02*
X032706Y036616D01*
X032607Y036714D02*
X032393Y036714D01*
X032442Y036813D02*
X032558Y036813D01*
X032520Y036911D02*
X032480Y036911D01*
X032480Y037010D02*
X032520Y037010D01*
X032525Y037108D02*
X032475Y037108D01*
X032434Y037207D02*
X032566Y037207D01*
X032626Y037305D02*
X032374Y037305D01*
X031626Y037305D02*
X031374Y037305D01*
X031434Y037207D02*
X031566Y037207D01*
X031525Y037108D02*
X031475Y037108D01*
X031480Y037010D02*
X031520Y037010D01*
X031520Y036911D02*
X031480Y036911D01*
X031442Y036813D02*
X031558Y036813D01*
X031607Y036714D02*
X031393Y036714D01*
X031294Y036616D02*
X031706Y036616D01*
X031607Y036320D02*
X031905Y036320D01*
X031848Y036222D02*
X031660Y036222D01*
X031676Y036123D02*
X031831Y036123D01*
X031831Y036025D02*
X031676Y036025D01*
X031831Y035926D02*
X031398Y035926D01*
X031302Y035926D02*
X030869Y035926D01*
X030869Y035828D02*
X031024Y035828D01*
X031024Y035873D02*
X031024Y035692D01*
X031037Y035629D01*
X031061Y035570D01*
X031097Y035517D01*
X031142Y035472D01*
X031196Y035436D01*
X031255Y035411D01*
X031302Y035402D01*
X031302Y035873D01*
X031024Y035873D01*
X031024Y035729D02*
X030869Y035729D01*
X030856Y035631D02*
X031037Y035631D01*
X031087Y035532D02*
X030808Y035532D01*
X030810Y035506D02*
X030810Y035506D01*
X030810Y035506D01*
X030808Y035434D02*
X031201Y035434D01*
X031302Y035434D02*
X031398Y035434D01*
X031398Y035532D02*
X031302Y035532D01*
X031302Y035631D02*
X031398Y035631D01*
X031398Y035729D02*
X031302Y035729D01*
X031302Y035828D02*
X031398Y035828D01*
X031398Y036025D02*
X031302Y036025D01*
X031302Y036123D02*
X031398Y036123D01*
X031398Y036222D02*
X031302Y036222D01*
X031302Y036320D02*
X031398Y036320D01*
X031093Y036320D02*
X030795Y036320D01*
X030852Y036222D02*
X031040Y036222D01*
X031024Y036123D02*
X030869Y036123D01*
X030869Y036025D02*
X031024Y036025D01*
X030706Y036616D02*
X030294Y036616D01*
X030393Y036714D02*
X030607Y036714D01*
X030558Y036813D02*
X030442Y036813D01*
X030480Y036911D02*
X030520Y036911D01*
X030520Y037010D02*
X030480Y037010D01*
X030475Y037108D02*
X030525Y037108D01*
X030566Y037207D02*
X030434Y037207D01*
X030374Y037305D02*
X030626Y037305D01*
X029626Y037305D02*
X029374Y037305D01*
X029434Y037207D02*
X029566Y037207D01*
X029525Y037108D02*
X029475Y037108D01*
X029480Y037010D02*
X029520Y037010D01*
X029520Y036911D02*
X029480Y036911D01*
X029442Y036813D02*
X029558Y036813D01*
X029607Y036714D02*
X029393Y036714D01*
X029294Y036616D02*
X029706Y036616D01*
X029543Y036320D02*
X029220Y036320D01*
X029277Y036222D02*
X029486Y036222D01*
X029468Y036123D02*
X029295Y036123D01*
X029295Y036025D02*
X029468Y036025D01*
X029468Y035926D02*
X029295Y035926D01*
X029295Y035828D02*
X029468Y035828D01*
X029468Y035729D02*
X029295Y035729D01*
X029281Y035631D02*
X029482Y035631D01*
X029534Y035532D02*
X029229Y035532D01*
X029208Y035434D02*
X029584Y035434D01*
X029620Y035335D02*
X029180Y035335D01*
X028820Y035335D02*
X028380Y035335D01*
X028408Y035434D02*
X028789Y035434D01*
X028746Y035532D02*
X028442Y035532D01*
X028417Y035460D02*
X028417Y035460D01*
X028494Y035631D02*
X028695Y035631D01*
X028681Y035729D02*
X028507Y035729D01*
X028507Y035828D02*
X028681Y035828D01*
X028681Y035926D02*
X028507Y035926D01*
X028507Y036025D02*
X028681Y036025D01*
X028681Y036123D02*
X028507Y036123D01*
X028490Y036222D02*
X028699Y036222D01*
X028756Y036320D02*
X028432Y036320D01*
X028294Y036616D02*
X028706Y036616D01*
X028607Y036714D02*
X028393Y036714D01*
X028442Y036813D02*
X028558Y036813D01*
X028520Y036911D02*
X028480Y036911D01*
X028480Y037010D02*
X028520Y037010D01*
X028525Y037108D02*
X028475Y037108D01*
X028434Y037207D02*
X028566Y037207D01*
X028626Y037305D02*
X028374Y037305D01*
X027626Y037305D02*
X027374Y037305D01*
X027434Y037207D02*
X027566Y037207D01*
X027525Y037108D02*
X027475Y037108D01*
X027480Y037010D02*
X027520Y037010D01*
X027520Y036911D02*
X027480Y036911D01*
X027442Y036813D02*
X027558Y036813D01*
X027607Y036714D02*
X027393Y036714D01*
X027294Y036616D02*
X027706Y036616D01*
X027645Y036320D02*
X027968Y036320D01*
X027911Y036222D02*
X027702Y036222D01*
X027720Y036123D02*
X027894Y036123D01*
X027894Y036025D02*
X027720Y036025D01*
X027720Y035926D02*
X027894Y035926D01*
X027894Y035828D02*
X027720Y035828D01*
X027720Y035729D02*
X027894Y035729D01*
X027907Y035631D02*
X027706Y035631D01*
X027658Y035532D02*
X027959Y035532D01*
X027992Y035434D02*
X027658Y035434D01*
X027630Y035335D02*
X028020Y035335D01*
X027270Y035335D02*
X026830Y035335D01*
X026858Y035434D02*
X027238Y035434D01*
X027235Y035414D02*
X027235Y035414D01*
X027242Y035463D02*
X027242Y035463D01*
X027171Y035532D02*
X026867Y035532D01*
X026864Y035490D02*
X026864Y035490D01*
X026864Y035490D01*
X026919Y035631D02*
X027120Y035631D01*
X027106Y035729D02*
X026932Y035729D01*
X026932Y035828D02*
X027106Y035828D01*
X027106Y035926D02*
X026932Y035926D01*
X026932Y036025D02*
X027106Y036025D01*
X027106Y036123D02*
X026932Y036123D01*
X026915Y036222D02*
X027124Y036222D01*
X027181Y036320D02*
X026858Y036320D01*
X026706Y036616D02*
X026294Y036616D01*
X026393Y036714D02*
X026607Y036714D01*
X026558Y036813D02*
X026442Y036813D01*
X026480Y036911D02*
X026520Y036911D01*
X026520Y037010D02*
X026480Y037010D01*
X026475Y037108D02*
X026525Y037108D01*
X026566Y037207D02*
X026434Y037207D01*
X026374Y037305D02*
X026626Y037305D01*
X025626Y037305D02*
X025374Y037305D01*
X025434Y037207D02*
X025566Y037207D01*
X025525Y037108D02*
X025475Y037108D01*
X025480Y037010D02*
X025520Y037010D01*
X025520Y036911D02*
X025480Y036911D01*
X025442Y036813D02*
X025558Y036813D01*
X025607Y036714D02*
X025393Y036714D01*
X025294Y036616D02*
X025706Y036616D01*
X025606Y036320D02*
X025283Y036320D01*
X025340Y036222D02*
X025549Y036222D01*
X025531Y036123D02*
X025358Y036123D01*
X025358Y036025D02*
X025531Y036025D01*
X025531Y035926D02*
X025358Y035926D01*
X025358Y035828D02*
X025531Y035828D01*
X025531Y035729D02*
X025358Y035729D01*
X025344Y035631D02*
X025545Y035631D01*
X025597Y035532D02*
X025292Y035532D01*
X025209Y035434D02*
X025639Y035434D01*
X025670Y035335D02*
X025180Y035335D01*
X025211Y035397D02*
X025211Y035397D01*
X024820Y035335D02*
X024508Y035335D01*
X024517Y035390D02*
X024517Y035390D01*
X024517Y035390D01*
X024509Y035434D02*
X024792Y035434D01*
X024792Y035532D02*
X024505Y035532D01*
X024557Y035631D02*
X024758Y035631D01*
X024744Y035729D02*
X024570Y035729D01*
X024570Y035828D02*
X024744Y035828D01*
X024744Y035926D02*
X024570Y035926D01*
X024570Y036025D02*
X024744Y036025D01*
X024744Y036123D02*
X024570Y036123D01*
X024553Y036222D02*
X024761Y036222D01*
X024819Y036320D02*
X024495Y036320D01*
X024294Y036616D02*
X024706Y036616D01*
X024607Y036714D02*
X024393Y036714D01*
X024442Y036813D02*
X024558Y036813D01*
X024520Y036911D02*
X024480Y036911D01*
X024480Y037010D02*
X024520Y037010D01*
X024525Y037108D02*
X024475Y037108D01*
X024434Y037207D02*
X024566Y037207D01*
X024626Y037305D02*
X024374Y037305D01*
X023706Y036616D02*
X023294Y036616D01*
X023393Y036714D02*
X023607Y036714D01*
X024031Y036320D02*
X022900Y036320D01*
X022900Y036222D02*
X023974Y036222D01*
X023957Y036123D02*
X022900Y036123D01*
X022900Y036025D02*
X023957Y036025D01*
X023957Y035926D02*
X022900Y035926D01*
X022900Y035828D02*
X023957Y035828D01*
X023957Y035729D02*
X022900Y035729D01*
X022900Y035631D02*
X023970Y035631D01*
X024022Y035532D02*
X022900Y035532D01*
X022900Y035434D02*
X024091Y035434D01*
X024083Y035410D02*
X024083Y035410D01*
X024092Y035335D02*
X022900Y035335D01*
X022900Y035237D02*
X023004Y035237D01*
X022500Y035237D02*
X022273Y035237D01*
X022270Y035250D02*
X022253Y035279D01*
X022229Y035303D01*
X022216Y035311D01*
X022260Y035354D01*
X022260Y035646D01*
X022216Y035689D01*
X022229Y035697D01*
X022253Y035721D01*
X022270Y035750D01*
X022279Y035783D01*
X022279Y035900D01*
X022279Y036017D01*
X022270Y036050D01*
X022253Y036079D01*
X022232Y036100D01*
X022253Y036121D01*
X022270Y036150D01*
X022279Y036183D01*
X022279Y036300D01*
X022279Y036417D01*
X022270Y036450D01*
X022253Y036479D01*
X022229Y036503D01*
X022200Y036520D01*
X022167Y036529D01*
X022164Y036529D01*
X022191Y036538D01*
X022261Y036573D01*
X022325Y036620D01*
X022380Y036675D01*
X022427Y036739D01*
X022462Y036809D01*
X022486Y036883D01*
X022497Y036950D01*
X022050Y036950D01*
X022050Y037050D01*
X022497Y037050D01*
X022486Y037117D01*
X022462Y037191D01*
X022427Y037261D01*
X022380Y037325D01*
X022354Y037352D01*
X022673Y037352D01*
X022593Y037272D01*
X022520Y037095D01*
X022520Y036905D01*
X022550Y036833D01*
X022500Y036783D01*
X022500Y034856D01*
X022471Y034885D01*
X022208Y034885D01*
X022229Y034897D01*
X022253Y034921D01*
X022270Y034950D01*
X022279Y034983D01*
X022279Y035100D01*
X022279Y035217D01*
X022270Y035250D01*
X022241Y035335D02*
X022500Y035335D01*
X022500Y035434D02*
X022260Y035434D01*
X022260Y035532D02*
X022500Y035532D01*
X022500Y035631D02*
X022260Y035631D01*
X022258Y035729D02*
X022500Y035729D01*
X022500Y035828D02*
X022279Y035828D01*
X022279Y035900D02*
X022050Y035900D01*
X022050Y035900D01*
X022050Y036300D01*
X022050Y036300D01*
X022050Y036503D01*
X022050Y036503D01*
X022050Y036950D01*
X021950Y036950D01*
X021950Y036529D01*
X022050Y036529D01*
X022050Y036300D01*
X022279Y036300D01*
X022050Y036300D01*
X022050Y036300D01*
X022050Y036300D01*
X022050Y036129D01*
X022050Y035900D01*
X022279Y035900D01*
X022279Y035926D02*
X022500Y035926D01*
X022500Y036025D02*
X022277Y036025D01*
X022254Y036123D02*
X022500Y036123D01*
X022500Y036222D02*
X022279Y036222D01*
X022279Y036320D02*
X022500Y036320D01*
X022500Y036419D02*
X022278Y036419D01*
X022205Y036517D02*
X022500Y036517D01*
X022500Y036616D02*
X022319Y036616D01*
X022409Y036714D02*
X022500Y036714D01*
X022530Y036813D02*
X022463Y036813D01*
X022491Y036911D02*
X022520Y036911D01*
X022520Y037010D02*
X022050Y037010D01*
X022050Y036911D02*
X021950Y036911D01*
X021950Y036950D02*
X021503Y036950D01*
X021514Y036883D01*
X021538Y036809D01*
X021573Y036739D01*
X021620Y036675D01*
X021675Y036620D01*
X021739Y036573D01*
X021809Y036538D01*
X021883Y036514D01*
X021888Y036513D01*
X021883Y036510D01*
X021604Y036510D01*
X021540Y036446D01*
X021540Y036154D01*
X021594Y036100D01*
X021544Y036050D01*
X021482Y036050D01*
X021482Y036207D01*
X021418Y036272D01*
X021150Y036272D01*
X021150Y036543D01*
X021272Y036593D01*
X021407Y036728D01*
X021480Y036905D01*
X021480Y037095D01*
X021407Y037272D01*
X021327Y037352D01*
X021646Y037352D01*
X021620Y037325D01*
X021573Y037261D01*
X021538Y037191D01*
X021514Y037117D01*
X021503Y037050D01*
X021950Y037050D01*
X021950Y036950D01*
X021950Y037010D02*
X021480Y037010D01*
X021475Y037108D02*
X021512Y037108D01*
X021545Y037207D02*
X021434Y037207D01*
X021374Y037305D02*
X021605Y037305D01*
X021509Y036911D02*
X021480Y036911D01*
X021442Y036813D02*
X021537Y036813D01*
X021591Y036714D02*
X021393Y036714D01*
X021294Y036616D02*
X021681Y036616D01*
X021872Y036517D02*
X021150Y036517D01*
X021150Y036419D02*
X021540Y036419D01*
X021540Y036320D02*
X021150Y036320D01*
X020850Y036320D02*
X016648Y036320D01*
X016648Y036222D02*
X019032Y036222D01*
X019018Y036207D02*
X019082Y036272D01*
X019705Y036272D01*
X019769Y036207D01*
X019769Y035723D01*
X019705Y035658D01*
X019082Y035658D01*
X019018Y035723D01*
X019018Y036207D01*
X019018Y036123D02*
X016648Y036123D01*
X016648Y036025D02*
X019018Y036025D01*
X019018Y035729D02*
X018183Y035729D01*
X018281Y035631D02*
X019071Y035631D01*
X019082Y035642D02*
X019018Y035577D01*
X019018Y035093D01*
X019082Y035028D01*
X019705Y035028D01*
X019769Y035093D01*
X019769Y035577D01*
X019705Y035642D01*
X019082Y035642D01*
X019018Y035532D02*
X018357Y035532D01*
X018398Y035434D02*
X019018Y035434D01*
X019018Y035335D02*
X018439Y035335D01*
X018459Y035237D02*
X019018Y035237D01*
X019018Y035138D02*
X018459Y035138D01*
X018459Y035040D02*
X019071Y035040D01*
X019240Y034843D02*
X018405Y034843D01*
X018445Y034941D02*
X019708Y034941D01*
X019716Y035040D02*
X019807Y035040D01*
X019769Y035138D02*
X020731Y035138D01*
X020731Y035237D02*
X019769Y035237D01*
X019769Y035335D02*
X020731Y035335D01*
X020731Y035434D02*
X019769Y035434D01*
X019769Y035532D02*
X020731Y035532D01*
X020784Y035631D02*
X019716Y035631D01*
X019769Y035729D02*
X020731Y035729D01*
X020378Y035828D02*
X019769Y035828D01*
X019769Y035926D02*
X020342Y035926D01*
X020342Y036025D02*
X019769Y036025D01*
X019769Y036123D02*
X020428Y036123D01*
X020687Y036123D02*
X020731Y036123D01*
X020745Y036222D02*
X019755Y036222D01*
X019706Y036616D02*
X019294Y036616D01*
X019393Y036714D02*
X019607Y036714D01*
X019558Y036813D02*
X019442Y036813D01*
X019480Y036911D02*
X019520Y036911D01*
X019520Y037010D02*
X019480Y037010D01*
X019475Y037108D02*
X019525Y037108D01*
X019566Y037207D02*
X019434Y037207D01*
X019374Y037305D02*
X019626Y037305D01*
X020374Y037305D02*
X020626Y037305D01*
X020566Y037207D02*
X020434Y037207D01*
X020475Y037108D02*
X020525Y037108D01*
X020520Y037010D02*
X020480Y037010D01*
X020480Y036911D02*
X020520Y036911D01*
X020558Y036813D02*
X020442Y036813D01*
X020393Y036714D02*
X020607Y036714D01*
X020706Y036616D02*
X020294Y036616D01*
X020850Y036517D02*
X016648Y036517D01*
X016648Y036419D02*
X020850Y036419D01*
X021468Y036222D02*
X021540Y036222D01*
X021571Y036123D02*
X021482Y036123D01*
X021482Y035729D02*
X021565Y035729D01*
X022050Y035900D02*
X022050Y035900D01*
X022050Y035926D02*
X022050Y035926D01*
X022050Y036025D02*
X022050Y036025D01*
X022050Y036123D02*
X022050Y036123D01*
X022050Y036222D02*
X022050Y036222D01*
X022050Y036320D02*
X022050Y036320D01*
X022050Y036419D02*
X022050Y036419D01*
X022050Y036517D02*
X022050Y036517D01*
X022050Y036616D02*
X021950Y036616D01*
X021950Y036714D02*
X022050Y036714D01*
X022050Y036813D02*
X021950Y036813D01*
X022488Y037108D02*
X022525Y037108D01*
X022566Y037207D02*
X022455Y037207D01*
X022395Y037305D02*
X022626Y037305D01*
X022500Y035138D02*
X022279Y035138D01*
X022279Y035100D02*
X022050Y035100D01*
X022050Y035100D01*
X022279Y035100D01*
X022279Y035040D02*
X022500Y035040D01*
X022500Y034941D02*
X022265Y034941D01*
X022900Y034646D02*
X022984Y034646D01*
X022900Y034547D02*
X024143Y034547D01*
X024150Y034646D02*
X023890Y034646D01*
X023989Y034744D02*
X024150Y034744D01*
X024150Y034843D02*
X024008Y034843D01*
X024004Y034941D02*
X024150Y034941D01*
X024150Y035040D02*
X023905Y035040D01*
X023914Y035035D02*
X023914Y035035D01*
X023914Y035035D01*
X023709Y035138D02*
X024150Y035138D01*
X024136Y035237D02*
X023555Y035237D01*
X023574Y034646D02*
X023710Y034646D01*
X023556Y034449D02*
X024104Y034449D01*
X024083Y034360D02*
X024083Y034360D01*
X024088Y034350D02*
X023845Y034350D01*
X023943Y034252D02*
X024104Y034252D01*
X024202Y034153D02*
X023958Y034153D01*
X023002Y034449D02*
X022900Y034449D01*
X022900Y033411D02*
X023231Y033411D01*
X023231Y033314D01*
X022900Y033314D01*
X022900Y033411D01*
X022900Y033365D02*
X023231Y033365D01*
X023231Y033267D02*
X023328Y033267D01*
X023328Y033314D02*
X023328Y033037D01*
X023508Y033037D01*
X023571Y033049D01*
X023630Y033074D01*
X023684Y033109D01*
X023729Y033155D01*
X023765Y033208D01*
X023789Y033267D01*
X023798Y033314D01*
X023328Y033314D01*
X023328Y033168D02*
X023231Y033168D01*
X023231Y033070D02*
X023328Y033070D01*
X023050Y033037D02*
X022987Y033049D01*
X022928Y033074D01*
X022900Y033092D01*
X022900Y033070D02*
X022938Y033070D01*
X023620Y033070D02*
X036207Y033070D01*
X036306Y033168D02*
X023738Y033168D01*
X023789Y033267D02*
X036404Y033267D01*
X036632Y033070D02*
X037850Y033070D01*
X037850Y033168D02*
X036730Y033168D01*
X036829Y033267D02*
X037850Y033267D01*
X037850Y033365D02*
X036927Y033365D01*
X037026Y033464D02*
X037850Y033464D01*
X037850Y033562D02*
X037124Y033562D01*
X037223Y033661D02*
X037850Y033661D01*
X037850Y033759D02*
X037321Y033759D01*
X037420Y033858D02*
X037850Y033858D01*
X037850Y033956D02*
X037518Y033956D01*
X037617Y034055D02*
X037850Y034055D01*
X037850Y034153D02*
X037715Y034153D01*
X037814Y034252D02*
X037850Y034252D01*
X038150Y033661D02*
X039093Y033661D01*
X038966Y033562D02*
X038150Y033562D01*
X038150Y033464D02*
X038914Y033464D01*
X038966Y032774D02*
X038150Y032774D01*
X038150Y032676D02*
X038913Y032676D01*
X037850Y032676D02*
X036238Y032676D01*
X036336Y032774D02*
X037850Y032774D01*
X037850Y032873D02*
X036435Y032873D01*
X036533Y032971D02*
X037850Y032971D01*
X037850Y032577D02*
X036139Y032577D01*
X036041Y032479D02*
X037850Y032479D01*
X037850Y032380D02*
X035942Y032380D01*
X035844Y032282D02*
X037850Y032282D01*
X037850Y032183D02*
X035745Y032183D01*
X037850Y032085D02*
X024858Y032085D01*
X024710Y032467D02*
X024710Y032467D01*
X024710Y032467D01*
X022988Y032282D02*
X022900Y032282D01*
X023712Y031198D02*
X031019Y031198D01*
X031118Y031100D02*
X023767Y031100D01*
X023783Y031001D02*
X031216Y031001D01*
X031315Y030903D02*
X023768Y030903D01*
X023714Y030804D02*
X031413Y030804D01*
X031512Y030706D02*
X023589Y030706D01*
X023589Y030607D02*
X031610Y030607D01*
X031709Y030509D02*
X023589Y030509D01*
X023713Y030410D02*
X031807Y030410D01*
X031906Y030312D02*
X023767Y030312D01*
X023783Y030213D02*
X032004Y030213D01*
X032103Y030115D02*
X023767Y030115D01*
X023713Y030016D02*
X032201Y030016D01*
X032300Y029918D02*
X023565Y029918D01*
X023231Y029474D02*
X022910Y029474D01*
X022910Y029377D01*
X023231Y029377D01*
X023231Y029474D01*
X023231Y029425D02*
X022910Y029425D01*
X022910Y029130D02*
X022945Y029130D01*
X023231Y029130D02*
X023328Y029130D01*
X023328Y029228D02*
X023231Y029228D01*
X023231Y029327D02*
X023328Y029327D01*
X023566Y028933D02*
X033285Y028933D01*
X033383Y028834D02*
X024011Y028834D01*
X024108Y028736D02*
X033482Y028736D01*
X033580Y028637D02*
X024108Y028637D01*
X024083Y028539D02*
X033679Y028539D01*
X033777Y028440D02*
X023905Y028440D01*
X023890Y028433D02*
X023890Y028433D01*
X023890Y028433D01*
X023869Y028440D02*
X023712Y028440D01*
X023563Y028342D02*
X033876Y028342D01*
X034146Y028637D02*
X037850Y028637D01*
X037850Y028539D02*
X034244Y028539D01*
X034343Y028440D02*
X037850Y028440D01*
X037850Y028342D02*
X034441Y028342D01*
X034540Y028243D02*
X037850Y028243D01*
X037850Y028145D02*
X034638Y028145D01*
X034737Y028046D02*
X037850Y028046D01*
X037850Y027948D02*
X034835Y027948D01*
X034047Y028736D02*
X037850Y028736D01*
X037850Y028834D02*
X033949Y028834D01*
X033850Y028933D02*
X037850Y028933D01*
X037850Y029031D02*
X033752Y029031D01*
X033653Y029130D02*
X037850Y029130D01*
X037850Y029228D02*
X033555Y029228D01*
X033456Y029327D02*
X037850Y029327D01*
X037850Y029425D02*
X033358Y029425D01*
X033259Y029524D02*
X037850Y029524D01*
X037850Y029622D02*
X033161Y029622D01*
X033019Y026569D02*
X033618Y026569D01*
X033473Y026470D02*
X033164Y026470D01*
X033217Y026372D02*
X033420Y026372D01*
X033405Y026273D02*
X033232Y026273D01*
X033232Y026175D02*
X033405Y026175D01*
X033405Y026076D02*
X033232Y026076D01*
X033232Y025978D02*
X033405Y025978D01*
X033405Y025879D02*
X033232Y025879D01*
X033215Y025781D02*
X033422Y025781D01*
X033456Y025682D02*
X033159Y025682D01*
X033006Y025584D02*
X033357Y025584D01*
X033259Y025485D02*
X032711Y025485D01*
X032708Y025387D02*
X032613Y025387D01*
X032609Y025288D02*
X032514Y025288D01*
X032559Y025190D02*
X032441Y025190D01*
X032480Y025091D02*
X032520Y025091D01*
X032520Y024993D02*
X032480Y024993D01*
X032476Y024894D02*
X032524Y024894D01*
X032565Y024796D02*
X032435Y024796D01*
X032376Y024697D02*
X032624Y024697D01*
X033000Y025000D02*
X033712Y025712D01*
X033712Y026079D01*
X034019Y026076D02*
X034193Y026076D01*
X034193Y025978D02*
X034019Y025978D01*
X034019Y025879D02*
X034193Y025879D01*
X034209Y025781D02*
X034002Y025781D01*
X033946Y025682D02*
X034266Y025682D01*
X034340Y025584D02*
X033810Y025584D01*
X033711Y025485D02*
X034259Y025485D01*
X034500Y025500D02*
X034000Y025000D01*
X034441Y025190D02*
X034559Y025190D01*
X034520Y025091D02*
X034480Y025091D01*
X034480Y024993D02*
X034520Y024993D01*
X034524Y024894D02*
X034476Y024894D01*
X034435Y024796D02*
X034565Y024796D01*
X034624Y024697D02*
X034376Y024697D01*
X034514Y025288D02*
X034609Y025288D01*
X034613Y025387D02*
X034708Y025387D01*
X034500Y025500D02*
X034500Y026079D01*
X034193Y026175D02*
X034019Y026175D01*
X034019Y026273D02*
X034193Y026273D01*
X034207Y026372D02*
X034005Y026372D01*
X033952Y026470D02*
X034260Y026470D01*
X034405Y026569D02*
X033807Y026569D01*
X032830Y026569D02*
X032232Y026569D01*
X032377Y026470D02*
X032685Y026470D01*
X032632Y026372D02*
X032430Y026372D01*
X032444Y026273D02*
X032618Y026273D01*
X032618Y026175D02*
X032444Y026175D01*
X032444Y026076D02*
X032618Y026076D01*
X032618Y025978D02*
X032444Y025978D01*
X032444Y025879D02*
X032618Y025879D01*
X032554Y025781D02*
X032428Y025781D01*
X032456Y025682D02*
X032371Y025682D01*
X032357Y025584D02*
X032219Y025584D01*
X032259Y025485D02*
X031711Y025485D01*
X031708Y025387D02*
X031613Y025387D01*
X031609Y025288D02*
X031514Y025288D01*
X031559Y025190D02*
X031441Y025190D01*
X031480Y025091D02*
X031520Y025091D01*
X031520Y024993D02*
X031480Y024993D01*
X031476Y024894D02*
X031524Y024894D01*
X031565Y024796D02*
X031435Y024796D01*
X031376Y024697D02*
X031624Y024697D01*
X032000Y025000D02*
X032925Y025925D01*
X032925Y026079D01*
X032843Y025584D02*
X032810Y025584D01*
X033441Y025190D02*
X033559Y025190D01*
X033520Y025091D02*
X033480Y025091D01*
X033480Y024993D02*
X033520Y024993D01*
X033524Y024894D02*
X033476Y024894D01*
X033435Y024796D02*
X033565Y024796D01*
X033624Y024697D02*
X033376Y024697D01*
X033514Y025288D02*
X033609Y025288D01*
X033613Y025387D02*
X033708Y025387D01*
X032056Y025584D02*
X031810Y025584D01*
X031751Y025978D02*
X031657Y025978D01*
X031657Y026076D02*
X031831Y026076D01*
X031831Y026175D02*
X031657Y026175D01*
X031657Y026273D02*
X031831Y026273D01*
X031845Y026372D02*
X031642Y026372D01*
X031590Y026470D02*
X031898Y026470D01*
X032043Y026569D02*
X031445Y026569D01*
X031255Y026569D02*
X030657Y026569D01*
X030802Y026470D02*
X031110Y026470D01*
X031058Y026372D02*
X030855Y026372D01*
X030869Y026273D02*
X031043Y026273D01*
X031043Y026175D02*
X030869Y026175D01*
X030869Y026076D02*
X031000Y026076D01*
X030901Y025978D02*
X030869Y025978D01*
X030563Y026079D02*
X030429Y026079D01*
X029900Y025550D01*
X029550Y025550D01*
X029000Y025000D01*
X028600Y025550D02*
X028050Y025000D01*
X028000Y025000D01*
X027800Y025550D02*
X027250Y025000D01*
X027000Y025000D01*
X026550Y025550D02*
X026000Y025000D01*
X025559Y025190D02*
X025463Y025190D01*
X025462Y025191D02*
X025427Y025261D01*
X025380Y025325D01*
X025325Y025380D01*
X025261Y025427D01*
X025191Y025462D01*
X025117Y025486D01*
X025050Y025497D01*
X025050Y025050D01*
X025497Y025050D01*
X025486Y025117D01*
X025462Y025191D01*
X025491Y025091D02*
X025520Y025091D01*
X025520Y024993D02*
X025050Y024993D01*
X025050Y025091D02*
X024950Y025091D01*
X024950Y024993D02*
X024480Y024993D01*
X024480Y025091D02*
X024509Y025091D01*
X024537Y025190D02*
X024441Y025190D01*
X024391Y025288D02*
X024593Y025288D01*
X024683Y025387D02*
X024292Y025387D01*
X024345Y025584D02*
X024969Y025584D01*
X024990Y025575D02*
X025112Y025575D01*
X025225Y025622D01*
X025311Y025708D01*
X025358Y025821D01*
X025358Y026337D01*
X025311Y026449D01*
X025253Y026508D01*
X025258Y026514D01*
X025258Y026571D01*
X025269Y026608D01*
X025258Y026626D01*
X025258Y026686D01*
X025136Y026808D01*
X024964Y026808D01*
X024842Y026686D01*
X024842Y026624D01*
X024831Y026606D01*
X024842Y026570D01*
X024842Y026514D01*
X024848Y026507D01*
X024791Y026449D01*
X024744Y026337D01*
X024744Y025821D01*
X024791Y025708D01*
X024877Y025622D01*
X024990Y025575D01*
X024950Y025485D02*
X025050Y025485D01*
X025121Y025485D02*
X026259Y025485D01*
X026357Y025584D02*
X025920Y025584D01*
X025899Y025575D02*
X026012Y025622D01*
X026098Y025708D01*
X026145Y025821D01*
X026145Y026337D01*
X026098Y026449D01*
X026012Y026536D01*
X026008Y026537D01*
X026008Y026594D01*
X026012Y026654D01*
X026008Y026658D01*
X026008Y026686D01*
X025886Y026808D01*
X025714Y026808D01*
X025592Y026686D01*
X025592Y026581D01*
X025585Y026559D01*
X025592Y026547D01*
X025592Y026514D01*
X025617Y026488D01*
X025578Y026449D01*
X025531Y026337D01*
X025531Y025821D01*
X025578Y025708D01*
X025664Y025622D01*
X025777Y025575D01*
X025899Y025575D01*
X025757Y025584D02*
X025132Y025584D01*
X025285Y025682D02*
X025604Y025682D01*
X025548Y025781D02*
X025341Y025781D01*
X025358Y025879D02*
X025531Y025879D01*
X025531Y025978D02*
X025358Y025978D01*
X025358Y026076D02*
X025531Y026076D01*
X025531Y026175D02*
X025358Y026175D01*
X025358Y026273D02*
X025531Y026273D01*
X025546Y026372D02*
X025343Y026372D01*
X025290Y026470D02*
X025599Y026470D01*
X025588Y026569D02*
X025258Y026569D01*
X025269Y026608D02*
X025269Y026608D01*
X025269Y026608D01*
X025258Y026667D02*
X025592Y026667D01*
X025671Y026766D02*
X025179Y026766D01*
X025097Y026587D02*
X025050Y026600D01*
X025003Y026587D01*
X025051Y026423D01*
X025097Y026587D01*
X025051Y026599D02*
X025050Y026600D01*
X025051Y026599D02*
X025051Y026423D01*
X025051Y026079D01*
X024744Y026076D02*
X024570Y026076D01*
X024570Y025978D02*
X024744Y025978D01*
X024744Y025879D02*
X024570Y025879D01*
X024554Y025781D02*
X024761Y025781D01*
X024817Y025682D02*
X024497Y025682D01*
X024182Y025584D02*
X023699Y025584D01*
X023601Y025682D02*
X024029Y025682D01*
X023973Y025781D02*
X023502Y025781D01*
X023404Y025879D02*
X023957Y025879D01*
X023957Y025978D02*
X023305Y025978D01*
X023207Y026076D02*
X023957Y026076D01*
X023957Y026175D02*
X023108Y026175D01*
X023010Y026273D02*
X023957Y026273D01*
X023971Y026372D02*
X022911Y026372D01*
X022813Y026470D02*
X024024Y026470D01*
X024040Y026569D02*
X022714Y026569D01*
X022616Y026667D02*
X023721Y026667D01*
X023622Y026766D02*
X023560Y026766D01*
X023990Y026583D02*
X023990Y026583D01*
X023990Y026583D01*
X024205Y026583D02*
X024250Y026600D01*
X024297Y026590D01*
X024263Y026423D01*
X024205Y026583D01*
X024250Y026600D02*
X024263Y026587D01*
X024263Y026423D01*
X024263Y026079D01*
X024570Y026175D02*
X024744Y026175D01*
X024744Y026273D02*
X024570Y026273D01*
X024556Y026372D02*
X024758Y026372D01*
X024811Y026470D02*
X024503Y026470D01*
X024458Y026569D02*
X024842Y026569D01*
X024842Y026667D02*
X024458Y026667D01*
X024379Y026766D02*
X024921Y026766D01*
X025757Y026577D02*
X025800Y026600D01*
X025848Y026597D01*
X025838Y026427D01*
X025757Y026577D01*
X025800Y026600D02*
X025838Y026562D01*
X025838Y026427D01*
X025838Y026079D01*
X026145Y026076D02*
X026319Y026076D01*
X026319Y025978D02*
X026145Y025978D01*
X026145Y025879D02*
X026319Y025879D01*
X026335Y025781D02*
X026128Y025781D01*
X026072Y025682D02*
X026392Y025682D01*
X026550Y025550D02*
X027550Y025550D01*
X028079Y026079D01*
X028200Y026079D01*
X028507Y026076D02*
X028650Y026076D01*
X028681Y026175D02*
X028507Y026175D01*
X028507Y026273D02*
X028681Y026273D01*
X028695Y026372D02*
X028493Y026372D01*
X028440Y026470D02*
X028748Y026470D01*
X028893Y026569D02*
X028295Y026569D01*
X028106Y026569D02*
X027557Y026569D01*
X027567Y026564D02*
X027508Y026589D01*
X027461Y026598D01*
X027461Y026127D01*
X027739Y026127D01*
X027739Y026308D01*
X027726Y026371D01*
X027702Y026430D01*
X027666Y026483D01*
X027621Y026528D01*
X027567Y026564D01*
X027461Y026569D02*
X027365Y026569D01*
X027269Y026569D02*
X026808Y026569D01*
X026865Y026470D02*
X027151Y026470D01*
X027100Y026372D02*
X026918Y026372D01*
X026932Y026273D02*
X027087Y026273D01*
X027087Y026175D02*
X026932Y026175D01*
X026932Y026076D02*
X027365Y026076D01*
X027461Y026076D02*
X027850Y026076D01*
X027894Y026175D02*
X027739Y026175D01*
X027739Y026273D02*
X027894Y026273D01*
X027908Y026372D02*
X027726Y026372D01*
X027675Y026470D02*
X027961Y026470D01*
X027461Y026470D02*
X027365Y026470D01*
X027365Y026372D02*
X027461Y026372D01*
X027461Y026273D02*
X027365Y026273D01*
X027365Y026175D02*
X027461Y026175D01*
X027739Y025978D02*
X027751Y025978D01*
X027800Y025550D02*
X028350Y025550D01*
X028879Y026079D01*
X028988Y026079D01*
X029295Y026076D02*
X029400Y026076D01*
X029468Y026175D02*
X029295Y026175D01*
X029295Y026273D02*
X029468Y026273D01*
X029483Y026372D02*
X029280Y026372D01*
X029227Y026470D02*
X029536Y026470D01*
X029681Y026569D02*
X029082Y026569D01*
X029295Y025978D02*
X029301Y025978D01*
X029629Y026079D02*
X029100Y025550D01*
X028600Y025550D01*
X028551Y025978D02*
X028507Y025978D01*
X027103Y025781D02*
X026916Y025781D01*
X026932Y025879D02*
X027087Y025879D01*
X027087Y025978D02*
X026932Y025978D01*
X026626Y026079D02*
X026626Y026425D01*
X026556Y026580D01*
X026600Y026600D01*
X026648Y026594D01*
X026626Y026425D01*
X026626Y026574D01*
X026600Y026600D01*
X026471Y026766D02*
X025929Y026766D01*
X026008Y026667D02*
X026392Y026667D01*
X026383Y026575D02*
X026383Y026575D01*
X026383Y026575D01*
X026386Y026569D02*
X026008Y026569D01*
X026012Y026654D02*
X026012Y026654D01*
X026012Y026654D01*
X026078Y026470D02*
X026386Y026470D01*
X026333Y026372D02*
X026131Y026372D01*
X026145Y026273D02*
X026319Y026273D01*
X026319Y026175D02*
X026145Y026175D01*
X025708Y025387D02*
X025317Y025387D01*
X025407Y025288D02*
X025609Y025288D01*
X025524Y024894D02*
X025488Y024894D01*
X025456Y024796D02*
X025565Y024796D01*
X025624Y024697D02*
X025396Y024697D01*
X025050Y025190D02*
X024950Y025190D01*
X024950Y025288D02*
X025050Y025288D01*
X025050Y025387D02*
X024950Y025387D01*
X024879Y025485D02*
X023798Y025485D01*
X023528Y025190D02*
X023441Y025190D01*
X023429Y025288D02*
X023391Y025288D01*
X023331Y025387D02*
X023292Y025387D01*
X023232Y025485D02*
X021694Y025485D01*
X021609Y025450D02*
X021812Y025534D01*
X021966Y025688D01*
X022050Y025891D01*
X022050Y026109D01*
X021966Y026312D01*
X021812Y026466D01*
X021609Y026550D01*
X021391Y026550D01*
X021188Y026466D01*
X021034Y026312D01*
X020950Y026109D01*
X020950Y025891D01*
X021034Y025688D01*
X021188Y025534D01*
X021391Y025450D01*
X021609Y025450D01*
X021708Y025387D02*
X021292Y025387D01*
X021306Y025485D02*
X017428Y025485D01*
X017420Y025490D02*
X017387Y025499D01*
X017050Y025499D01*
X017050Y025050D01*
X017499Y025050D01*
X017499Y025387D01*
X017490Y025420D01*
X017473Y025449D01*
X017449Y025473D01*
X017420Y025490D01*
X017499Y025387D02*
X017708Y025387D01*
X017609Y025288D02*
X017499Y025288D01*
X017499Y025190D02*
X017559Y025190D01*
X017520Y025091D02*
X017499Y025091D01*
X017520Y024993D02*
X017050Y024993D01*
X017050Y025091D02*
X016950Y025091D01*
X016950Y025190D02*
X017050Y025190D01*
X017050Y025288D02*
X016950Y025288D01*
X016950Y025387D02*
X017050Y025387D01*
X017050Y025485D02*
X016950Y025485D01*
X016648Y025584D02*
X021139Y025584D01*
X021040Y025682D02*
X020153Y025682D01*
X020410Y025781D02*
X020996Y025781D01*
X020955Y025879D02*
X020410Y025879D01*
X020410Y025978D02*
X020950Y025978D01*
X020950Y026076D02*
X020410Y026076D01*
X020406Y026175D02*
X020977Y026175D01*
X021018Y026273D02*
X020604Y026273D01*
X020660Y026372D02*
X021094Y026372D01*
X021197Y026470D02*
X020660Y026470D01*
X020660Y026569D02*
X022149Y026569D01*
X022247Y026470D02*
X021803Y026470D01*
X021906Y026372D02*
X022346Y026372D01*
X022444Y026273D02*
X021982Y026273D01*
X022023Y026175D02*
X022543Y026175D01*
X022641Y026076D02*
X022050Y026076D01*
X022050Y025978D02*
X022740Y025978D01*
X022838Y025879D02*
X022045Y025879D01*
X022004Y025781D02*
X022937Y025781D01*
X023035Y025682D02*
X021960Y025682D01*
X021861Y025584D02*
X023134Y025584D01*
X022708Y025387D02*
X022292Y025387D01*
X022391Y025288D02*
X022609Y025288D01*
X022559Y025190D02*
X022441Y025190D01*
X022480Y025091D02*
X022520Y025091D01*
X022520Y024993D02*
X022480Y024993D01*
X022476Y024894D02*
X022524Y024894D01*
X022565Y024796D02*
X022435Y024796D01*
X022376Y024697D02*
X022624Y024697D01*
X023376Y024697D02*
X023624Y024697D01*
X023565Y024796D02*
X023435Y024796D01*
X023476Y024894D02*
X023524Y024894D01*
X023520Y024993D02*
X023480Y024993D01*
X023480Y025091D02*
X023520Y025091D01*
X024376Y024697D02*
X024604Y024697D01*
X024544Y024796D02*
X024435Y024796D01*
X024476Y024894D02*
X024512Y024894D01*
X022999Y026766D02*
X022517Y026766D01*
X022419Y026864D02*
X022847Y026864D01*
X022792Y026963D02*
X022466Y026963D01*
X022599Y027061D02*
X022775Y027061D01*
X022790Y027160D02*
X022698Y027160D01*
X022796Y027258D02*
X022843Y027258D01*
X022876Y027357D02*
X022989Y027357D01*
X022910Y027455D02*
X023383Y027455D01*
X022997Y027554D02*
X022910Y027554D01*
X022290Y027628D02*
X022290Y028988D01*
X022290Y029712D01*
X022296Y029725D01*
X022204Y029725D01*
X022204Y029712D01*
X022139Y029648D01*
X021706Y029648D01*
X021460Y029402D01*
X021460Y028754D01*
X021406Y028700D01*
X021460Y028646D01*
X021460Y027954D01*
X021396Y027890D01*
X021200Y027890D01*
X021200Y027850D01*
X021444Y027850D01*
X021504Y027910D01*
X021558Y027910D01*
X021547Y027921D01*
X021530Y027950D01*
X021521Y027983D01*
X021521Y028250D01*
X021800Y028250D01*
X021800Y028350D01*
X021800Y029050D01*
X021900Y029050D01*
X021900Y029150D01*
X021800Y029150D01*
X021800Y029529D01*
X021633Y029529D01*
X021600Y029520D01*
X021571Y029503D01*
X021547Y029479D01*
X021530Y029450D01*
X021521Y029417D01*
X021521Y029150D01*
X021800Y029150D01*
X021800Y029050D01*
X021521Y029050D01*
X021521Y028783D01*
X021530Y028750D01*
X021547Y028721D01*
X021568Y028700D01*
X021547Y028679D01*
X021530Y028650D01*
X021521Y028617D01*
X021521Y028350D01*
X021800Y028350D01*
X021900Y028350D01*
X021900Y028671D01*
X021900Y029050D01*
X022179Y029050D01*
X022179Y028783D01*
X022170Y028750D01*
X022153Y028721D01*
X022132Y028700D01*
X022153Y028679D01*
X022170Y028650D01*
X022179Y028617D01*
X022179Y028350D01*
X021900Y028350D01*
X021900Y028250D01*
X022179Y028250D01*
X022179Y027983D01*
X022170Y027950D01*
X022153Y027921D01*
X022132Y027900D01*
X022153Y027879D01*
X022170Y027850D01*
X022179Y027817D01*
X022179Y027700D01*
X021950Y027700D01*
X021950Y027700D01*
X022179Y027700D01*
X022179Y027583D01*
X022173Y027560D01*
X022222Y027560D01*
X022290Y027628D01*
X022290Y027652D02*
X022179Y027652D01*
X022179Y027751D02*
X022290Y027751D01*
X022290Y027849D02*
X022170Y027849D01*
X022168Y027948D02*
X022290Y027948D01*
X022290Y028046D02*
X022179Y028046D01*
X022179Y028145D02*
X022290Y028145D01*
X022290Y028243D02*
X022179Y028243D01*
X022290Y028342D02*
X021900Y028342D01*
X021900Y028440D02*
X021800Y028440D01*
X021800Y028342D02*
X021460Y028342D01*
X021460Y028440D02*
X021521Y028440D01*
X021521Y028539D02*
X021460Y028539D01*
X021460Y028637D02*
X021527Y028637D01*
X021539Y028736D02*
X021441Y028736D01*
X021460Y028834D02*
X021521Y028834D01*
X021521Y028933D02*
X021460Y028933D01*
X021460Y029031D02*
X021521Y029031D01*
X021460Y029130D02*
X021800Y029130D01*
X021800Y029228D02*
X021900Y029228D01*
X021900Y029150D02*
X021900Y029529D01*
X022067Y029529D01*
X022100Y029520D01*
X022129Y029503D01*
X022153Y029479D01*
X022170Y029450D01*
X022179Y029417D01*
X022179Y029150D01*
X021900Y029150D01*
X021900Y029130D02*
X022290Y029130D01*
X022290Y029228D02*
X022179Y029228D01*
X022179Y029327D02*
X022290Y029327D01*
X022290Y029425D02*
X022177Y029425D01*
X022086Y029524D02*
X022290Y029524D01*
X022290Y029622D02*
X021680Y029622D01*
X021614Y029524D02*
X021581Y029524D01*
X021523Y029425D02*
X021483Y029425D01*
X021460Y029327D02*
X021521Y029327D01*
X021521Y029228D02*
X021460Y029228D01*
X021800Y029327D02*
X021900Y029327D01*
X021900Y029425D02*
X021800Y029425D01*
X021800Y029524D02*
X021900Y029524D01*
X022204Y029721D02*
X022294Y029721D01*
X022290Y029031D02*
X022179Y029031D01*
X022179Y028933D02*
X022290Y028933D01*
X022290Y028834D02*
X022179Y028834D01*
X022161Y028736D02*
X022290Y028736D01*
X022290Y028637D02*
X022173Y028637D01*
X022179Y028539D02*
X022290Y028539D01*
X022290Y028440D02*
X022179Y028440D01*
X021900Y028539D02*
X021800Y028539D01*
X021800Y028637D02*
X021900Y028637D01*
X021900Y028736D02*
X021800Y028736D01*
X021800Y028834D02*
X021900Y028834D01*
X021900Y028933D02*
X021800Y028933D01*
X021800Y029031D02*
X021900Y029031D01*
X021521Y028243D02*
X021460Y028243D01*
X021460Y028145D02*
X021521Y028145D01*
X021521Y028046D02*
X021460Y028046D01*
X021453Y027948D02*
X021532Y027948D01*
X021000Y027350D02*
X021000Y027350D01*
X021000Y027350D01*
X021000Y027121D01*
X020883Y027121D01*
X020850Y027130D01*
X020821Y027147D01*
X020797Y027171D01*
X020780Y027200D01*
X020771Y027233D01*
X020771Y027350D01*
X021000Y027350D01*
X021000Y027258D02*
X021000Y027258D01*
X021000Y027160D02*
X021000Y027160D01*
X021192Y027160D02*
X021200Y027160D01*
X021215Y027061D02*
X020660Y027061D01*
X020660Y026963D02*
X021355Y026963D01*
X021453Y026864D02*
X020660Y026864D01*
X020660Y026766D02*
X021552Y026766D01*
X021550Y026767D02*
X021550Y026767D01*
X021650Y026667D02*
X020660Y026667D01*
X020660Y027160D02*
X020808Y027160D01*
X020771Y027258D02*
X020660Y027258D01*
X020660Y027357D02*
X020771Y027357D01*
X020771Y027455D02*
X020660Y027455D01*
X020790Y027554D02*
X019629Y027554D01*
X019359Y027258D02*
X019064Y027258D01*
X019064Y027160D02*
X019440Y027160D01*
X019440Y027177D02*
X019440Y026329D01*
X019484Y026285D01*
X019064Y026285D01*
X019064Y026340D01*
X019000Y026404D01*
X018200Y026404D01*
X018156Y026360D01*
X018156Y026496D01*
X018356Y026696D01*
X019000Y026696D01*
X019064Y026760D01*
X019064Y027403D01*
X019000Y027467D01*
X018200Y027467D01*
X018136Y027403D01*
X018136Y027348D01*
X018128Y027344D01*
X017368Y026585D01*
X016648Y026585D01*
X016648Y027665D01*
X018092Y027665D01*
X018121Y027694D01*
X018121Y027583D01*
X018130Y027550D01*
X018147Y027521D01*
X018171Y027497D01*
X018200Y027480D01*
X018233Y027471D01*
X018500Y027471D01*
X018500Y027750D01*
X018600Y027750D01*
X018600Y027471D01*
X018867Y027471D01*
X018900Y027480D01*
X018929Y027497D01*
X018953Y027521D01*
X018970Y027550D01*
X018979Y027583D01*
X018979Y027638D01*
X019067Y027550D01*
X019067Y027550D01*
X019440Y027177D01*
X019440Y027061D02*
X019064Y027061D01*
X019064Y026963D02*
X019440Y026963D01*
X019440Y026864D02*
X019064Y026864D01*
X019064Y026766D02*
X019440Y026766D01*
X019440Y026667D02*
X018327Y026667D01*
X018229Y026569D02*
X019440Y026569D01*
X019440Y026470D02*
X018156Y026470D01*
X018156Y026372D02*
X018168Y026372D01*
X018151Y025682D02*
X018109Y025682D01*
X018292Y025387D02*
X018708Y025387D01*
X018609Y025288D02*
X018391Y025288D01*
X018441Y025190D02*
X018559Y025190D01*
X018520Y025091D02*
X018480Y025091D01*
X018480Y024993D02*
X018520Y024993D01*
X018524Y024894D02*
X018476Y024894D01*
X018435Y024796D02*
X018565Y024796D01*
X018624Y024697D02*
X018376Y024697D01*
X017624Y024697D02*
X017499Y024697D01*
X017499Y024796D02*
X017565Y024796D01*
X017524Y024894D02*
X017499Y024894D01*
X019292Y025387D02*
X019708Y025387D01*
X019609Y025288D02*
X019391Y025288D01*
X019441Y025190D02*
X019559Y025190D01*
X019520Y025091D02*
X019480Y025091D01*
X019480Y024993D02*
X019520Y024993D01*
X019524Y024894D02*
X019476Y024894D01*
X019435Y024796D02*
X019565Y024796D01*
X019624Y024697D02*
X019376Y024697D01*
X020376Y024697D02*
X020624Y024697D01*
X020565Y024796D02*
X020435Y024796D01*
X020476Y024894D02*
X020524Y024894D01*
X020520Y024993D02*
X020480Y024993D01*
X020480Y025091D02*
X020520Y025091D01*
X020559Y025190D02*
X020441Y025190D01*
X020391Y025288D02*
X020609Y025288D01*
X020708Y025387D02*
X020292Y025387D01*
X021391Y025288D02*
X021609Y025288D01*
X021559Y025190D02*
X021441Y025190D01*
X021480Y025091D02*
X021520Y025091D01*
X021520Y024993D02*
X021480Y024993D01*
X021476Y024894D02*
X021524Y024894D01*
X021565Y024796D02*
X021435Y024796D01*
X021376Y024697D02*
X021624Y024697D01*
X019440Y026372D02*
X019032Y026372D01*
X017844Y027061D02*
X016648Y027061D01*
X016648Y026963D02*
X017746Y026963D01*
X017647Y026864D02*
X016648Y026864D01*
X016648Y026766D02*
X017549Y026766D01*
X017450Y026667D02*
X016648Y026667D01*
X016648Y027160D02*
X017943Y027160D01*
X018041Y027258D02*
X016648Y027258D01*
X016648Y027357D02*
X018136Y027357D01*
X018188Y027455D02*
X016648Y027455D01*
X016648Y027554D02*
X018129Y027554D01*
X018121Y027652D02*
X016648Y027652D01*
X016900Y029031D02*
X017000Y029031D01*
X017000Y029130D02*
X016900Y029130D01*
X016900Y029228D02*
X017000Y029228D01*
X017170Y029228D02*
X017972Y029228D01*
X018577Y029622D02*
X017239Y029622D01*
X017337Y029721D02*
X018597Y029721D01*
X018621Y029697D01*
X018650Y029680D01*
X018683Y029671D01*
X018800Y029671D01*
X018800Y029900D01*
X018800Y029900D01*
X018800Y029900D01*
X018571Y029900D01*
X018571Y029783D01*
X018580Y029750D01*
X018597Y029721D01*
X018571Y029819D02*
X017378Y029819D01*
X017381Y029918D02*
X018571Y029918D01*
X018800Y029819D02*
X018800Y029819D01*
X018800Y029721D02*
X018800Y029721D01*
X018139Y030016D02*
X018084Y030016D01*
X017751Y030016D02*
X017381Y030016D01*
X017381Y030115D02*
X017680Y030115D01*
X017661Y030213D02*
X017381Y030213D01*
X017381Y030312D02*
X017680Y030312D01*
X017730Y030410D02*
X017381Y030410D01*
X018512Y030607D02*
X018654Y030607D01*
X018615Y030706D02*
X018500Y030706D01*
X018500Y030804D02*
X018615Y030804D01*
X019301Y031297D02*
X019380Y031297D01*
X019985Y031250D02*
X019985Y031250D01*
X020200Y031250D01*
X020200Y031250D01*
X020269Y030804D02*
X019985Y030804D01*
X019985Y030706D02*
X020170Y030706D01*
X020072Y030607D02*
X019946Y030607D01*
X019984Y032618D02*
X019960Y032660D01*
X019962Y032708D01*
X020132Y032702D01*
X019984Y032618D01*
X019960Y032660D02*
X020002Y032702D01*
X020132Y032702D01*
X020232Y032702D01*
X019520Y033365D02*
X019467Y033365D01*
X019529Y033464D02*
X019592Y033464D01*
X019592Y033562D02*
X019529Y033562D01*
X019525Y033956D02*
X019592Y033956D01*
X019592Y034055D02*
X016648Y034055D01*
X016900Y033365D02*
X017000Y033365D01*
X017000Y033267D02*
X016900Y033267D01*
X016900Y033168D02*
X017000Y033168D01*
X017000Y033050D02*
X017000Y032771D01*
X017167Y032771D01*
X017200Y032780D01*
X017229Y032797D01*
X017253Y032821D01*
X017261Y032834D01*
X017304Y032790D01*
X017349Y032790D01*
X017283Y032763D01*
X016808Y032288D01*
X016761Y032174D01*
X016761Y032051D01*
X016761Y031484D01*
X016651Y031484D01*
X016648Y031481D01*
X016648Y032820D01*
X016671Y032797D01*
X016700Y032780D01*
X016733Y032771D01*
X016900Y032771D01*
X016900Y033050D01*
X017000Y033050D01*
X017000Y032971D02*
X016900Y032971D01*
X016900Y032873D02*
X017000Y032873D01*
X017000Y032774D02*
X016900Y032774D01*
X016723Y032774D02*
X016648Y032774D01*
X016648Y032676D02*
X017196Y032676D01*
X017177Y032774D02*
X017310Y032774D01*
X017097Y032577D02*
X016648Y032577D01*
X016648Y032479D02*
X016999Y032479D01*
X016900Y032380D02*
X016648Y032380D01*
X016648Y032282D02*
X016805Y032282D01*
X016765Y032183D02*
X016648Y032183D01*
X016648Y032085D02*
X016761Y032085D01*
X016761Y031986D02*
X016648Y031986D01*
X016648Y031888D02*
X016761Y031888D01*
X016761Y031789D02*
X016648Y031789D01*
X016648Y031691D02*
X016761Y031691D01*
X016761Y031592D02*
X016648Y031592D01*
X016648Y031494D02*
X016761Y031494D01*
X018435Y033365D02*
X018633Y033365D01*
X018571Y033464D02*
X018435Y033464D01*
X019000Y033464D02*
X019100Y033464D01*
X019100Y033562D02*
X019000Y033562D01*
X019000Y033365D02*
X019100Y033365D01*
X019243Y034449D02*
X018070Y034449D01*
X018199Y034547D02*
X019247Y034547D01*
X019240Y034646D02*
X018297Y034646D01*
X018364Y034744D02*
X019240Y034744D01*
X019750Y034300D02*
X019979Y034300D01*
X019979Y034367D01*
X020010Y034398D01*
X020010Y034290D01*
X020000Y034273D01*
X019991Y034240D01*
X019991Y034144D01*
X019991Y034110D01*
X019985Y034110D01*
X019961Y034134D01*
X019970Y034150D01*
X019979Y034183D01*
X019979Y034300D01*
X019750Y034300D01*
X019750Y034300D01*
X019979Y034252D02*
X019994Y034252D01*
X019991Y034153D02*
X019971Y034153D01*
X019991Y034144D02*
X020317Y034144D01*
X020317Y034110D01*
X020317Y034110D01*
X020317Y034144D01*
X020317Y034144D01*
X020544Y034144D01*
X020544Y034144D01*
X020317Y034144D01*
X020317Y034144D01*
X019991Y034144D01*
X019979Y034350D02*
X020010Y034350D01*
X020317Y034211D02*
X020317Y034144D01*
X020317Y034144D01*
X020317Y034144D01*
X020317Y034211D01*
X020317Y034211D01*
X020317Y034153D02*
X020317Y034153D01*
X026030Y035335D02*
X026470Y035335D01*
X026433Y035430D02*
X026433Y035430D01*
X026433Y035430D01*
X026434Y035434D02*
X026058Y035434D01*
X026066Y035475D02*
X026066Y035475D01*
X026066Y035475D01*
X026080Y035532D02*
X026384Y035532D01*
X026332Y035631D02*
X026131Y035631D01*
X026145Y035729D02*
X026319Y035729D01*
X026319Y035828D02*
X026145Y035828D01*
X026145Y035926D02*
X026319Y035926D01*
X026319Y036025D02*
X026145Y036025D01*
X026145Y036123D02*
X026319Y036123D01*
X026336Y036222D02*
X026127Y036222D01*
X026070Y036320D02*
X026394Y036320D01*
X030007Y036320D02*
X030331Y036320D01*
X030273Y036222D02*
X030064Y036222D01*
X030082Y036123D02*
X030256Y036123D01*
X030256Y036025D02*
X030082Y036025D01*
X030082Y035926D02*
X030256Y035926D01*
X030256Y035828D02*
X030082Y035828D01*
X030082Y035729D02*
X030256Y035729D01*
X030269Y035631D02*
X030068Y035631D01*
X030017Y035532D02*
X030321Y035532D01*
X030392Y035463D02*
X030392Y035463D01*
X030388Y035434D02*
X030008Y035434D01*
X029980Y035335D02*
X030420Y035335D01*
X030780Y035335D02*
X031970Y035335D01*
X031939Y035434D02*
X031499Y035434D01*
X031613Y035532D02*
X031896Y035532D01*
X031844Y035631D02*
X031663Y035631D01*
X031676Y035729D02*
X031831Y035729D01*
X031831Y035828D02*
X031676Y035828D01*
X033294Y036616D02*
X033681Y036616D01*
X033591Y036714D02*
X033393Y036714D01*
X033442Y036813D02*
X033537Y036813D01*
X033509Y036911D02*
X033480Y036911D01*
X033480Y037010D02*
X033950Y037010D01*
X033950Y036911D02*
X034050Y036911D01*
X034050Y036813D02*
X033950Y036813D01*
X033950Y036714D02*
X034050Y036714D01*
X034050Y036616D02*
X033950Y036616D01*
X034319Y036616D02*
X034700Y036616D01*
X034607Y036714D02*
X034409Y036714D01*
X034463Y036813D02*
X034558Y036813D01*
X034520Y036911D02*
X034491Y036911D01*
X034520Y037010D02*
X034050Y037010D01*
X034488Y037108D02*
X034525Y037108D01*
X034566Y037207D02*
X034455Y037207D01*
X034395Y037305D02*
X034626Y037305D01*
X035374Y037305D02*
X035626Y037305D01*
X035566Y037207D02*
X035434Y037207D01*
X035475Y037108D02*
X035525Y037108D01*
X035520Y037010D02*
X035480Y037010D01*
X035480Y036911D02*
X035520Y036911D01*
X035558Y036813D02*
X035442Y036813D01*
X035393Y036714D02*
X035607Y036714D01*
X035706Y036616D02*
X035294Y036616D01*
X035364Y036419D02*
X035956Y036419D01*
X036055Y036517D02*
X035100Y036517D01*
X035100Y036419D02*
X035210Y036419D01*
X035519Y036320D02*
X035842Y036320D01*
X035785Y036222D02*
X035576Y036222D01*
X035594Y036123D02*
X035768Y036123D01*
X035768Y036025D02*
X035594Y036025D01*
X035594Y035926D02*
X035768Y035926D01*
X035768Y035828D02*
X035594Y035828D01*
X035594Y035729D02*
X035768Y035729D01*
X035781Y035631D02*
X035580Y035631D01*
X035529Y035532D02*
X035833Y035532D01*
X035975Y035434D02*
X035508Y035434D01*
X035516Y035476D02*
X035516Y035476D01*
X036174Y035434D02*
X036713Y035434D01*
X036813Y035434D02*
X036910Y035434D01*
X036910Y035532D02*
X036813Y035532D01*
X036813Y035631D02*
X036910Y035631D01*
X036910Y035729D02*
X036813Y035729D01*
X036813Y035828D02*
X036910Y035828D01*
X036910Y035926D02*
X037601Y035926D01*
X037601Y035828D02*
X037698Y035828D01*
X037698Y035729D02*
X037601Y035729D01*
X037601Y035631D02*
X037698Y035631D01*
X037698Y035532D02*
X037601Y035532D01*
X037601Y035434D02*
X037698Y035434D01*
X037501Y035434D02*
X037010Y035434D01*
X037125Y035532D02*
X037386Y035532D01*
X037336Y035631D02*
X037175Y035631D01*
X037187Y035729D02*
X037324Y035729D01*
X037324Y035828D02*
X037187Y035828D01*
X037187Y036025D02*
X037324Y036025D01*
X037324Y036123D02*
X037187Y036123D01*
X037171Y036222D02*
X037340Y036222D01*
X037393Y036320D02*
X037118Y036320D01*
X036910Y036320D02*
X036813Y036320D01*
X036813Y036222D02*
X036910Y036222D01*
X036910Y036123D02*
X036813Y036123D01*
X036813Y036025D02*
X036910Y036025D01*
X036813Y035926D02*
X036381Y035926D01*
X036381Y035828D02*
X036536Y035828D01*
X036536Y035729D02*
X036381Y035729D01*
X036368Y035631D02*
X036549Y035631D01*
X036599Y035532D02*
X036316Y035532D01*
X036381Y036025D02*
X036536Y036025D01*
X036536Y036123D02*
X036381Y036123D01*
X036364Y036222D02*
X036552Y036222D01*
X036605Y036320D02*
X036306Y036320D01*
X033605Y037305D02*
X033374Y037305D01*
X033434Y037207D02*
X033545Y037207D01*
X033512Y037108D02*
X033475Y037108D01*
X039631Y036419D02*
X040900Y036419D01*
X040900Y036517D02*
X039729Y036517D01*
X040294Y036616D02*
X040706Y036616D01*
X040607Y036714D02*
X040393Y036714D01*
X040442Y036813D02*
X040558Y036813D01*
X040520Y036911D02*
X040480Y036911D01*
X040480Y037010D02*
X040520Y037010D01*
X040525Y037108D02*
X040475Y037108D01*
X040434Y037207D02*
X040566Y037207D01*
X040626Y037305D02*
X040374Y037305D01*
X042374Y037305D02*
X042626Y037305D01*
X042566Y037207D02*
X042434Y037207D01*
X042475Y037108D02*
X042525Y037108D01*
X042520Y037010D02*
X042480Y037010D01*
X042480Y036911D02*
X042520Y036911D01*
X042558Y036813D02*
X042442Y036813D01*
X042393Y036714D02*
X042607Y036714D01*
X042706Y036616D02*
X042294Y036616D01*
X043393Y036714D02*
X043591Y036714D01*
X043537Y036813D02*
X043442Y036813D01*
X043480Y036911D02*
X043509Y036911D01*
X043480Y037010D02*
X043950Y037010D01*
X043950Y036911D02*
X044050Y036911D01*
X044050Y036813D02*
X043950Y036813D01*
X043950Y036714D02*
X044050Y036714D01*
X044050Y036616D02*
X043950Y036616D01*
X044319Y036616D02*
X044352Y036616D01*
X043512Y037108D02*
X043475Y037108D01*
X043434Y037207D02*
X043545Y037207D01*
X043605Y037305D02*
X043374Y037305D01*
X038986Y030804D02*
X038949Y030804D01*
X043700Y027554D02*
X044352Y027554D01*
X044352Y027455D02*
X043843Y027455D01*
X043941Y027357D02*
X044352Y027357D01*
X044352Y027258D02*
X044013Y027258D01*
X044054Y027160D02*
X044352Y027160D01*
X044352Y027061D02*
X044095Y027061D01*
X044113Y026963D02*
X044352Y026963D01*
X044352Y026864D02*
X044113Y026864D01*
X044113Y026766D02*
X044352Y026766D01*
X044352Y026667D02*
X044096Y026667D01*
X044055Y026569D02*
X044352Y026569D01*
X044352Y026470D02*
X044015Y026470D01*
X043945Y026372D02*
X044352Y026372D01*
X044352Y026273D02*
X043846Y026273D01*
X043708Y026175D02*
X044352Y026175D01*
X032137Y026079D02*
X032079Y026079D01*
X031000Y025000D01*
X030700Y025550D02*
X030550Y025550D01*
X030000Y025000D01*
X030700Y025550D02*
X031229Y026079D01*
X031350Y026079D01*
X030468Y026569D02*
X029870Y026569D01*
X030015Y026470D02*
X030323Y026470D01*
X030270Y026372D02*
X030068Y026372D01*
X030082Y026273D02*
X030256Y026273D01*
X030256Y026175D02*
X030082Y026175D01*
X030082Y026076D02*
X030200Y026076D01*
X030101Y025978D02*
X030082Y025978D01*
X029775Y026079D02*
X029629Y026079D01*
X023789Y028834D02*
X023714Y028834D01*
X019261Y027357D02*
X019064Y027357D01*
X019012Y027455D02*
X019162Y027455D01*
X019064Y027554D02*
X018971Y027554D01*
X018600Y027554D02*
X018500Y027554D01*
X018500Y027652D02*
X018600Y027652D01*
X018600Y027850D02*
X018500Y027850D01*
X018500Y028129D01*
X018367Y028129D01*
X018428Y028190D01*
X018896Y028190D01*
X018950Y028244D01*
X018950Y028082D01*
X018929Y028103D01*
X018900Y028120D01*
X018867Y028129D01*
X018600Y028129D01*
X018600Y027850D01*
X018600Y027948D02*
X018500Y027948D01*
X018500Y028046D02*
X018600Y028046D01*
X018383Y028145D02*
X018950Y028145D01*
X018949Y028243D02*
X018950Y028243D01*
X016730Y029228D02*
X016648Y029228D01*
D45*
X017550Y028900D02*
X017700Y029050D01*
X018150Y029050D01*
X018450Y029050D02*
X018450Y028900D01*
X019600Y028800D02*
X019959Y028800D01*
X020005Y028755D01*
X020202Y028774D02*
X020202Y028398D01*
X020250Y028350D01*
X020550Y028350D02*
X020595Y028395D01*
X020595Y028774D01*
X020202Y029152D02*
X020202Y029326D01*
X020202Y029152D02*
X020100Y029050D01*
X019650Y029050D01*
X019600Y029100D01*
X020398Y029326D02*
X020398Y029572D01*
X020280Y029690D01*
X019817Y030967D02*
X019678Y030967D01*
X019817Y030967D02*
X019850Y031000D01*
X020700Y031000D01*
X020800Y031100D01*
X020800Y031550D01*
X021000Y031550D01*
X021050Y031550D01*
X021350Y031250D01*
X021400Y031250D01*
X021400Y031550D02*
X021310Y031640D01*
X021260Y031640D01*
X021440Y031750D02*
X021295Y031895D01*
X021295Y032032D01*
X021492Y032032D02*
X022218Y032032D01*
X022250Y032000D01*
X022150Y032250D02*
X022092Y032308D01*
X021768Y032308D01*
X021772Y032500D02*
X022250Y032500D01*
X022198Y032898D02*
X022200Y032900D01*
X022198Y032898D02*
X021768Y032898D01*
X021768Y032505D02*
X021772Y032500D01*
X021768Y033292D02*
X021768Y033668D01*
X022250Y034150D01*
X021750Y034150D02*
X021750Y033950D01*
X021492Y033692D01*
X021492Y033568D01*
X021300Y033572D02*
X021295Y033568D01*
X021300Y033572D02*
X021300Y033623D01*
X021245Y033781D01*
X021300Y033800D01*
X021355Y033781D01*
X021300Y033623D01*
X021300Y033800D01*
X021100Y033800D02*
X021100Y033569D01*
X021098Y033568D01*
X020902Y033568D02*
X020900Y033569D01*
X020900Y033800D01*
X020740Y033960D01*
X019840Y033960D01*
X019800Y034000D01*
X019700Y033750D02*
X020350Y033750D01*
X020410Y033810D01*
X020640Y033810D01*
X020700Y033750D01*
X020700Y033572D01*
X020705Y033568D01*
X020508Y033568D02*
X019868Y033568D01*
X019800Y033500D01*
X019742Y033292D02*
X020232Y033292D01*
X020232Y033095D02*
X020705Y033095D01*
X020875Y032925D01*
X021025Y032853D01*
X021000Y032800D01*
X020947Y032775D01*
X020875Y032925D01*
X021000Y032800D01*
X020705Y032032D02*
X020705Y031795D01*
X020800Y031700D01*
X020800Y031550D01*
X020600Y031550D02*
X020200Y031550D01*
X020232Y031550D01*
X020232Y032308D01*
X020232Y032505D02*
X020105Y032505D01*
X020050Y032450D01*
X019950Y032450D01*
X019950Y032270D01*
X020047Y032134D01*
X020000Y032100D01*
X019942Y032103D01*
X019950Y032270D01*
X019950Y032150D01*
X020000Y032100D01*
X019950Y032450D02*
X019700Y032450D01*
X019500Y032300D02*
X019500Y032700D01*
X019575Y032775D01*
X019525Y032825D01*
X019375Y032897D01*
X019400Y032950D01*
X019453Y032975D01*
X019525Y032825D01*
X019400Y032950D01*
X019575Y032775D02*
X019600Y032750D01*
X019700Y032750D01*
X019500Y032300D02*
X019599Y032201D01*
X019599Y031833D01*
X019600Y031832D01*
X019600Y031700D01*
X019925Y031375D01*
X020075Y031303D01*
X020050Y031250D01*
X019997Y031225D01*
X019925Y031375D01*
X019950Y031350D01*
X019950Y031310D01*
X020010Y031250D01*
X020050Y031250D01*
X020200Y031250D01*
X020600Y032032D02*
X020705Y032032D01*
X021440Y031750D02*
X022150Y031750D01*
X024700Y032250D02*
X024719Y032195D01*
X024877Y032250D01*
X024719Y032305D01*
X024700Y032250D01*
X024877Y032250D01*
X035600Y032250D01*
X039200Y035850D01*
X040650Y035850D01*
X041050Y036250D01*
X041050Y036950D01*
X041000Y037000D01*
X040000Y037000D02*
X039500Y036500D01*
X036250Y036500D01*
X036074Y036324D01*
X036074Y035921D01*
X035287Y035921D02*
X035287Y035627D01*
X035354Y035473D01*
X035300Y035450D01*
X035244Y035465D01*
X035287Y035627D01*
X035287Y035463D01*
X035300Y035450D01*
X034555Y035469D02*
X034500Y035450D01*
X034445Y035469D01*
X034500Y035627D01*
X034555Y035469D01*
X034500Y035450D02*
X034500Y035450D01*
X034500Y035627D01*
X034500Y035921D01*
X033712Y035921D02*
X033712Y035623D01*
X033800Y035481D01*
X033750Y035450D01*
X033692Y035457D01*
X033712Y035623D01*
X033712Y035488D01*
X033750Y035450D01*
X033002Y035477D02*
X032950Y035450D01*
X032893Y035461D01*
X032925Y035625D01*
X033002Y035477D01*
X032950Y035450D02*
X032925Y035475D01*
X032925Y035625D01*
X032925Y035921D01*
X032137Y035921D02*
X032137Y035627D01*
X032204Y035473D01*
X032150Y035450D01*
X032094Y035465D01*
X032137Y035627D01*
X032137Y035463D01*
X032150Y035450D01*
X030650Y035480D02*
X030600Y035450D01*
X030542Y035457D01*
X030563Y035623D01*
X030650Y035480D01*
X030600Y035450D02*
X030563Y035487D01*
X030563Y035623D01*
X030563Y035921D01*
X029775Y035921D02*
X029775Y035625D01*
X029852Y035477D01*
X029800Y035450D01*
X029743Y035461D01*
X029775Y035625D01*
X029775Y035475D01*
X029800Y035450D01*
X029054Y035473D02*
X029000Y035450D01*
X028944Y035465D01*
X028988Y035627D01*
X029054Y035473D01*
X029000Y035450D02*
X028988Y035462D01*
X028988Y035627D01*
X028988Y035921D01*
X028200Y035921D02*
X028200Y035627D01*
X028255Y035469D01*
X028200Y035450D01*
X028145Y035469D01*
X028200Y035627D01*
X028200Y035450D01*
X028200Y035450D01*
X027500Y035480D02*
X027450Y035450D01*
X027392Y035457D01*
X027413Y035623D01*
X027500Y035480D01*
X027450Y035450D02*
X027413Y035487D01*
X027413Y035623D01*
X027413Y035921D01*
X026626Y035921D02*
X026626Y035625D01*
X026702Y035477D01*
X026650Y035450D01*
X026593Y035461D01*
X026626Y035625D01*
X026626Y035474D01*
X026650Y035450D01*
X025904Y035473D02*
X025850Y035450D01*
X025794Y035466D01*
X025838Y035627D01*
X025904Y035473D01*
X025850Y035450D02*
X025838Y035462D01*
X025838Y035627D01*
X025838Y035921D01*
X025051Y035921D02*
X025051Y035620D01*
X025058Y035453D01*
X025000Y035450D01*
X024953Y035484D01*
X025051Y035620D01*
X025051Y035501D01*
X025000Y035450D01*
X024355Y035419D02*
X024300Y035400D01*
X024245Y035381D01*
X024300Y035223D01*
X024355Y035381D01*
X024300Y035400D01*
X024245Y035419D01*
X024300Y035577D01*
X024355Y035419D01*
X024300Y035400D02*
X024300Y035223D01*
X024300Y034527D01*
X024355Y034369D01*
X024300Y034350D01*
X024245Y034369D01*
X024300Y034527D01*
X024300Y034350D01*
X023750Y034150D02*
X023731Y034205D01*
X023573Y034150D01*
X023731Y034095D01*
X023750Y034150D01*
X023573Y034150D01*
X023280Y034150D01*
X023279Y034150D01*
X023279Y034937D02*
X023292Y034950D01*
X023654Y034950D01*
X023815Y034906D01*
X023800Y034850D01*
X023753Y034815D01*
X023654Y034950D01*
X023700Y034950D01*
X023800Y034850D01*
X024300Y035400D02*
X024300Y035577D01*
X024300Y035885D01*
X024263Y035921D01*
X022050Y035500D02*
X022050Y035450D01*
X021750Y035150D01*
X021750Y035100D01*
X021750Y035500D02*
X021271Y035500D01*
X021106Y035335D01*
X021171Y035900D02*
X021750Y035900D01*
X021750Y036300D01*
X021171Y035900D02*
X021106Y035965D01*
X021000Y036071D01*
X021000Y037000D01*
X021106Y035965D02*
X021091Y035950D01*
X020727Y035950D01*
X020569Y035895D01*
X020550Y035950D01*
X020569Y036005D01*
X020727Y035950D01*
X020550Y035950D01*
X020594Y034656D02*
X020317Y034656D01*
X020056Y034656D01*
X019900Y034500D01*
X019450Y034500D01*
X019450Y034300D01*
X019450Y034500D02*
X019450Y034700D01*
X019450Y034650D01*
X020317Y034656D02*
X020323Y034650D01*
X020317Y034400D02*
X020500Y034400D01*
X021100Y033800D01*
X021183Y034144D02*
X021189Y034150D01*
X021230Y034150D01*
X021397Y034158D01*
X021400Y034100D01*
X021366Y034053D01*
X021230Y034150D01*
X021350Y034150D01*
X021400Y034100D01*
X021395Y034158D01*
X021228Y034144D01*
X021368Y034051D01*
X021400Y034100D01*
X021244Y034144D02*
X021228Y034144D01*
X021183Y034144D01*
X021500Y034400D02*
X020850Y034400D01*
X020594Y034656D01*
X021500Y034400D02*
X021750Y034650D01*
X021750Y034150D02*
X022250Y034650D01*
X019742Y033292D02*
X019700Y033250D01*
X018150Y033000D02*
X017650Y033000D01*
X017550Y033100D01*
X018150Y033500D02*
X018150Y033650D01*
X023291Y028650D02*
X023279Y028638D01*
X023291Y028650D02*
X023723Y028650D01*
X023881Y028705D01*
X023900Y028650D01*
X023881Y028595D01*
X023723Y028650D01*
X023900Y028650D01*
X023279Y027850D02*
X023279Y027771D01*
X023825Y027225D01*
X023902Y027077D01*
X023850Y027050D01*
X023793Y027061D01*
X023825Y027225D01*
X023850Y027200D01*
X023850Y027050D01*
X023981Y026855D02*
X024000Y026800D01*
X023981Y026745D01*
X023823Y026800D01*
X023981Y026855D01*
X024000Y026800D02*
X023823Y026800D01*
X023800Y026800D01*
X023537Y027063D01*
X023279Y027063D01*
X036000Y025400D02*
X036000Y025000D01*
X036000Y025400D02*
X036074Y025474D01*
X036074Y026079D01*
X036862Y026079D02*
X036862Y025588D01*
X037000Y025450D01*
X037000Y025000D01*
X037649Y025751D02*
X038000Y025400D01*
X038000Y025000D01*
X037649Y025751D02*
X037649Y026079D01*
X038437Y026079D02*
X038437Y026013D01*
X039000Y025450D01*
X039000Y025000D01*
X038937Y027063D02*
X038000Y028000D01*
X038000Y034450D01*
X039250Y035700D01*
X040700Y035700D01*
X042000Y037000D01*
X039408Y031800D02*
X039421Y031787D01*
X039408Y031800D02*
X039027Y031800D01*
X038869Y031745D01*
X038850Y031800D01*
X038869Y031855D01*
X039027Y031800D01*
X038850Y031800D01*
X038869Y031055D02*
X038850Y031000D01*
X038869Y030945D01*
X039027Y031000D01*
X038869Y031055D01*
X038850Y031000D02*
X039027Y031000D01*
X039421Y031000D01*
X039421Y027063D02*
X038937Y027063D01*
D46*
X041400Y030550D02*
X041400Y030900D01*
X041400Y030550D02*
X041760Y030550D01*
X041150Y031200D02*
X041150Y031550D01*
X041150Y033900D01*
X041148Y033930D01*
X041143Y033960D01*
X041134Y033989D01*
X041121Y034016D01*
X041106Y034042D01*
X041087Y034066D01*
X041066Y034087D01*
X041042Y034106D01*
X041016Y034121D01*
X040989Y034134D01*
X040960Y034143D01*
X040930Y034148D01*
X040900Y034150D01*
X040150Y034150D01*
X039421Y034150D02*
X039250Y034150D01*
X039421Y034150D02*
X039421Y034150D01*
D47*
X039850Y034150D01*
X041150Y031200D02*
X041194Y031156D01*
X041406Y030944D02*
X041406Y030906D01*
X041400Y030900D01*
X042800Y030550D02*
X042952Y030550D01*
D48*
X035690Y026820D02*
X035690Y025690D01*
X035000Y025000D01*
X035680Y026820D02*
X035690Y026820D01*
X035680Y026820D02*
X030713Y031787D01*
X023279Y031787D01*
X022787Y031787D01*
X022700Y031700D01*
X022700Y036700D01*
X023000Y037000D01*
X024000Y037000D01*
X021750Y035100D02*
X021600Y035100D01*
X021400Y034900D01*
X021183Y034900D01*
X021183Y034656D01*
X021183Y034900D02*
X020600Y034900D01*
X019950Y034900D01*
X019750Y034700D01*
X018520Y032110D02*
X018520Y031670D01*
X018362Y031512D01*
X018124Y031512D01*
X019450Y030850D02*
X019561Y030850D01*
X019678Y030967D01*
X019500Y030200D02*
X019700Y030000D01*
X019600Y029900D01*
X019600Y029100D01*
X019440Y029100D01*
X019150Y028810D01*
X019150Y027750D01*
X020000Y026900D01*
X020050Y026900D02*
X020400Y027250D01*
X020250Y027950D02*
X020250Y028350D01*
X019650Y028350D01*
X019600Y028300D01*
X018850Y028800D02*
X018550Y028500D01*
X018850Y028800D02*
X018850Y029450D01*
X018700Y029450D01*
X018800Y030200D02*
X018250Y030200D01*
X018800Y030200D02*
X019200Y030200D01*
X019500Y030200D01*
X021150Y029375D02*
X021150Y029100D01*
X021150Y028300D01*
X021000Y028150D01*
X021000Y027650D01*
X021450Y027650D01*
X021450Y027250D01*
X021400Y027200D01*
X021750Y026850D01*
X022150Y026850D01*
X024000Y025000D01*
X021600Y027650D02*
X021450Y027650D01*
X021600Y027650D02*
X021650Y027700D01*
X021100Y028350D02*
X020550Y028350D01*
X020550Y027950D01*
X021150Y029375D02*
X021700Y029925D01*
X022325Y029925D01*
X022700Y030300D01*
X022700Y031700D01*
X021850Y031500D02*
X021850Y031250D01*
X023279Y032575D02*
X023725Y032575D01*
X023750Y032550D01*
X024600Y034000D02*
X033450Y034000D01*
X034900Y035450D01*
X034900Y036900D01*
X035000Y037000D01*
D49*
X039421Y029425D02*
X039714Y029132D01*
X039912Y029132D01*
X042053Y026992D01*
X042053Y026392D01*
X042603Y025842D01*
X042603Y025398D01*
X043000Y025000D01*
X042398Y025398D02*
X042398Y025403D01*
X042398Y025758D01*
X041848Y026308D01*
X041848Y026908D01*
X039838Y028918D01*
X039708Y028918D01*
X039428Y028638D01*
X042395Y025400D02*
X042398Y025403D01*
X042398Y025398D02*
X042000Y025000D01*
X019204Y031502D02*
X019190Y031480D01*
X019170Y031463D01*
X019055Y031595D01*
X019204Y031502D01*
X019190Y031480D02*
X019170Y031480D01*
X019055Y031595D01*
X018922Y031728D01*
X018922Y031833D01*
X018922Y031672D02*
X018506Y031256D01*
X018124Y031256D01*
X018124Y031000D02*
X018889Y031000D01*
X018922Y030967D01*
X018950Y030995D01*
X018950Y031143D01*
X018924Y031316D01*
X018950Y031320D01*
X018976Y031316D01*
X018950Y031143D01*
X018950Y031320D01*
D50*
X018922Y031672D02*
X018922Y031728D01*
X039421Y028638D02*
X039428Y028638D01*
D51*
X023279Y030213D02*
X023163Y030213D01*
X022600Y029650D01*
X022600Y029050D01*
X022600Y027500D01*
X022350Y027250D01*
X021950Y027250D01*
X020050Y025975D02*
X018644Y025975D01*
X018600Y026019D01*
X018619Y026000D01*
X018600Y027081D02*
X018303Y027081D01*
X017346Y026125D01*
X017346Y028125D02*
X017925Y028125D01*
X018300Y028500D01*
X018550Y028500D01*
X017071Y029888D02*
X017071Y031000D01*
X017071Y032112D01*
X017459Y032500D01*
X019050Y032500D01*
X023279Y031000D02*
X023279Y030213D01*
D52*
X022350Y031250D02*
X022350Y031550D01*
X021535Y030740D02*
X020530Y030740D01*
X020280Y030490D01*
X020280Y029690D01*
X019700Y030000D02*
X019650Y030050D01*
X021535Y030740D02*
X021700Y030575D01*
X021100Y028350D02*
X021150Y028300D01*
X020050Y026900D02*
X020000Y026900D01*
X041400Y030550D02*
X041403Y030551D01*
X041405Y030553D01*
X041406Y030556D01*
X042952Y030550D02*
X042954Y030550D01*
X042955Y030549D01*
X042955Y030547D01*
D53*
X042800Y030550D02*
X041760Y030550D01*
M02*
