G75*
%MOIN*%
%OFA0B0*%
%FSLAX24Y24*%
%IPPOS*%
%LPD*%
%AMOC8*
5,1,8,0,0,1.08239X$1,22.5*
%
%ADD10C,0.0000*%
%ADD11R,0.0200X0.0200*%
%ADD12C,0.0500*%
%ADD13R,0.0680X0.0680*%
D10*
X022500Y025000D02*
X022500Y037000D01*
X032500Y037000D01*
X032500Y036000D01*
X037500Y036000D01*
X037500Y025000D01*
X022500Y025000D01*
X023360Y028000D02*
X023362Y028050D01*
X023368Y028100D01*
X023378Y028149D01*
X023391Y028198D01*
X023409Y028245D01*
X023430Y028291D01*
X023454Y028334D01*
X023482Y028376D01*
X023513Y028416D01*
X023547Y028453D01*
X023584Y028487D01*
X023624Y028518D01*
X023666Y028546D01*
X023709Y028570D01*
X023755Y028591D01*
X023802Y028609D01*
X023851Y028622D01*
X023900Y028632D01*
X023950Y028638D01*
X024000Y028640D01*
X024050Y028638D01*
X024100Y028632D01*
X024149Y028622D01*
X024198Y028609D01*
X024245Y028591D01*
X024291Y028570D01*
X024334Y028546D01*
X024376Y028518D01*
X024416Y028487D01*
X024453Y028453D01*
X024487Y028416D01*
X024518Y028376D01*
X024546Y028334D01*
X024570Y028291D01*
X024591Y028245D01*
X024609Y028198D01*
X024622Y028149D01*
X024632Y028100D01*
X024638Y028050D01*
X024640Y028000D01*
X024638Y027950D01*
X024632Y027900D01*
X024622Y027851D01*
X024609Y027802D01*
X024591Y027755D01*
X024570Y027709D01*
X024546Y027666D01*
X024518Y027624D01*
X024487Y027584D01*
X024453Y027547D01*
X024416Y027513D01*
X024376Y027482D01*
X024334Y027454D01*
X024291Y027430D01*
X024245Y027409D01*
X024198Y027391D01*
X024149Y027378D01*
X024100Y027368D01*
X024050Y027362D01*
X024000Y027360D01*
X023950Y027362D01*
X023900Y027368D01*
X023851Y027378D01*
X023802Y027391D01*
X023755Y027409D01*
X023709Y027430D01*
X023666Y027454D01*
X023624Y027482D01*
X023584Y027513D01*
X023547Y027547D01*
X023513Y027584D01*
X023482Y027624D01*
X023454Y027666D01*
X023430Y027709D01*
X023409Y027755D01*
X023391Y027802D01*
X023378Y027851D01*
X023368Y027900D01*
X023362Y027950D01*
X023360Y028000D01*
X027860Y028000D02*
X027862Y028050D01*
X027868Y028100D01*
X027878Y028149D01*
X027891Y028198D01*
X027909Y028245D01*
X027930Y028291D01*
X027954Y028334D01*
X027982Y028376D01*
X028013Y028416D01*
X028047Y028453D01*
X028084Y028487D01*
X028124Y028518D01*
X028166Y028546D01*
X028209Y028570D01*
X028255Y028591D01*
X028302Y028609D01*
X028351Y028622D01*
X028400Y028632D01*
X028450Y028638D01*
X028500Y028640D01*
X028550Y028638D01*
X028600Y028632D01*
X028649Y028622D01*
X028698Y028609D01*
X028745Y028591D01*
X028791Y028570D01*
X028834Y028546D01*
X028876Y028518D01*
X028916Y028487D01*
X028953Y028453D01*
X028987Y028416D01*
X029018Y028376D01*
X029046Y028334D01*
X029070Y028291D01*
X029091Y028245D01*
X029109Y028198D01*
X029122Y028149D01*
X029132Y028100D01*
X029138Y028050D01*
X029140Y028000D01*
X029138Y027950D01*
X029132Y027900D01*
X029122Y027851D01*
X029109Y027802D01*
X029091Y027755D01*
X029070Y027709D01*
X029046Y027666D01*
X029018Y027624D01*
X028987Y027584D01*
X028953Y027547D01*
X028916Y027513D01*
X028876Y027482D01*
X028834Y027454D01*
X028791Y027430D01*
X028745Y027409D01*
X028698Y027391D01*
X028649Y027378D01*
X028600Y027368D01*
X028550Y027362D01*
X028500Y027360D01*
X028450Y027362D01*
X028400Y027368D01*
X028351Y027378D01*
X028302Y027391D01*
X028255Y027409D01*
X028209Y027430D01*
X028166Y027454D01*
X028124Y027482D01*
X028084Y027513D01*
X028047Y027547D01*
X028013Y027584D01*
X027982Y027624D01*
X027954Y027666D01*
X027930Y027709D01*
X027909Y027755D01*
X027891Y027802D01*
X027878Y027851D01*
X027868Y027900D01*
X027862Y027950D01*
X027860Y028000D01*
X030860Y028000D02*
X030862Y028050D01*
X030868Y028100D01*
X030878Y028149D01*
X030891Y028198D01*
X030909Y028245D01*
X030930Y028291D01*
X030954Y028334D01*
X030982Y028376D01*
X031013Y028416D01*
X031047Y028453D01*
X031084Y028487D01*
X031124Y028518D01*
X031166Y028546D01*
X031209Y028570D01*
X031255Y028591D01*
X031302Y028609D01*
X031351Y028622D01*
X031400Y028632D01*
X031450Y028638D01*
X031500Y028640D01*
X031550Y028638D01*
X031600Y028632D01*
X031649Y028622D01*
X031698Y028609D01*
X031745Y028591D01*
X031791Y028570D01*
X031834Y028546D01*
X031876Y028518D01*
X031916Y028487D01*
X031953Y028453D01*
X031987Y028416D01*
X032018Y028376D01*
X032046Y028334D01*
X032070Y028291D01*
X032091Y028245D01*
X032109Y028198D01*
X032122Y028149D01*
X032132Y028100D01*
X032138Y028050D01*
X032140Y028000D01*
X032138Y027950D01*
X032132Y027900D01*
X032122Y027851D01*
X032109Y027802D01*
X032091Y027755D01*
X032070Y027709D01*
X032046Y027666D01*
X032018Y027624D01*
X031987Y027584D01*
X031953Y027547D01*
X031916Y027513D01*
X031876Y027482D01*
X031834Y027454D01*
X031791Y027430D01*
X031745Y027409D01*
X031698Y027391D01*
X031649Y027378D01*
X031600Y027368D01*
X031550Y027362D01*
X031500Y027360D01*
X031450Y027362D01*
X031400Y027368D01*
X031351Y027378D01*
X031302Y027391D01*
X031255Y027409D01*
X031209Y027430D01*
X031166Y027454D01*
X031124Y027482D01*
X031084Y027513D01*
X031047Y027547D01*
X031013Y027584D01*
X030982Y027624D01*
X030954Y027666D01*
X030930Y027709D01*
X030909Y027755D01*
X030891Y027802D01*
X030878Y027851D01*
X030868Y027900D01*
X030862Y027950D01*
X030860Y028000D01*
X035360Y028000D02*
X035362Y028050D01*
X035368Y028100D01*
X035378Y028149D01*
X035391Y028198D01*
X035409Y028245D01*
X035430Y028291D01*
X035454Y028334D01*
X035482Y028376D01*
X035513Y028416D01*
X035547Y028453D01*
X035584Y028487D01*
X035624Y028518D01*
X035666Y028546D01*
X035709Y028570D01*
X035755Y028591D01*
X035802Y028609D01*
X035851Y028622D01*
X035900Y028632D01*
X035950Y028638D01*
X036000Y028640D01*
X036050Y028638D01*
X036100Y028632D01*
X036149Y028622D01*
X036198Y028609D01*
X036245Y028591D01*
X036291Y028570D01*
X036334Y028546D01*
X036376Y028518D01*
X036416Y028487D01*
X036453Y028453D01*
X036487Y028416D01*
X036518Y028376D01*
X036546Y028334D01*
X036570Y028291D01*
X036591Y028245D01*
X036609Y028198D01*
X036622Y028149D01*
X036632Y028100D01*
X036638Y028050D01*
X036640Y028000D01*
X036638Y027950D01*
X036632Y027900D01*
X036622Y027851D01*
X036609Y027802D01*
X036591Y027755D01*
X036570Y027709D01*
X036546Y027666D01*
X036518Y027624D01*
X036487Y027584D01*
X036453Y027547D01*
X036416Y027513D01*
X036376Y027482D01*
X036334Y027454D01*
X036291Y027430D01*
X036245Y027409D01*
X036198Y027391D01*
X036149Y027378D01*
X036100Y027368D01*
X036050Y027362D01*
X036000Y027360D01*
X035950Y027362D01*
X035900Y027368D01*
X035851Y027378D01*
X035802Y027391D01*
X035755Y027409D01*
X035709Y027430D01*
X035666Y027454D01*
X035624Y027482D01*
X035584Y027513D01*
X035547Y027547D01*
X035513Y027584D01*
X035482Y027624D01*
X035454Y027666D01*
X035430Y027709D01*
X035409Y027755D01*
X035391Y027802D01*
X035378Y027851D01*
X035368Y027900D01*
X035362Y027950D01*
X035360Y028000D01*
X022870Y034750D02*
X022872Y034800D01*
X022878Y034850D01*
X022888Y034899D01*
X022902Y034947D01*
X022919Y034994D01*
X022940Y035039D01*
X022965Y035083D01*
X022993Y035124D01*
X023025Y035163D01*
X023059Y035200D01*
X023096Y035234D01*
X023136Y035264D01*
X023178Y035291D01*
X023222Y035315D01*
X023268Y035336D01*
X023315Y035352D01*
X023363Y035365D01*
X023413Y035374D01*
X023462Y035379D01*
X023513Y035380D01*
X023563Y035377D01*
X023612Y035370D01*
X023661Y035359D01*
X023709Y035344D01*
X023755Y035326D01*
X023800Y035304D01*
X023843Y035278D01*
X023884Y035249D01*
X023923Y035217D01*
X023959Y035182D01*
X023991Y035144D01*
X024021Y035104D01*
X024048Y035061D01*
X024071Y035017D01*
X024090Y034971D01*
X024106Y034923D01*
X024118Y034874D01*
X024126Y034825D01*
X024130Y034775D01*
X024130Y034725D01*
X024126Y034675D01*
X024118Y034626D01*
X024106Y034577D01*
X024090Y034529D01*
X024071Y034483D01*
X024048Y034439D01*
X024021Y034396D01*
X023991Y034356D01*
X023959Y034318D01*
X023923Y034283D01*
X023884Y034251D01*
X023843Y034222D01*
X023800Y034196D01*
X023755Y034174D01*
X023709Y034156D01*
X023661Y034141D01*
X023612Y034130D01*
X023563Y034123D01*
X023513Y034120D01*
X023462Y034121D01*
X023413Y034126D01*
X023363Y034135D01*
X023315Y034148D01*
X023268Y034164D01*
X023222Y034185D01*
X023178Y034209D01*
X023136Y034236D01*
X023096Y034266D01*
X023059Y034300D01*
X023025Y034337D01*
X022993Y034376D01*
X022965Y034417D01*
X022940Y034461D01*
X022919Y034506D01*
X022902Y034553D01*
X022888Y034601D01*
X022878Y034650D01*
X022872Y034700D01*
X022870Y034750D01*
D11*
X024250Y033300D03*
X024250Y033000D03*
X026700Y033000D03*
X027000Y033000D03*
X027500Y033000D03*
X027800Y033000D03*
X031200Y033000D03*
X031500Y033000D03*
X032000Y033000D03*
X032300Y033000D03*
X034200Y033000D03*
X034500Y033000D03*
X035000Y033000D03*
X035300Y033000D03*
D12*
X034911Y034500D02*
X034913Y034519D01*
X034919Y034536D01*
X034928Y034552D01*
X034940Y034566D01*
X034955Y034577D01*
X034972Y034585D01*
X034991Y034589D01*
X035009Y034589D01*
X035028Y034585D01*
X035044Y034577D01*
X035060Y034566D01*
X035072Y034552D01*
X035081Y034536D01*
X035087Y034519D01*
X035089Y034500D01*
X035087Y034481D01*
X035081Y034464D01*
X035072Y034448D01*
X035060Y034434D01*
X035045Y034423D01*
X035028Y034415D01*
X035009Y034411D01*
X034991Y034411D01*
X034972Y034415D01*
X034956Y034423D01*
X034940Y034434D01*
X034928Y034448D01*
X034919Y034464D01*
X034913Y034481D01*
X034911Y034500D01*
X034911Y035500D02*
X034913Y035519D01*
X034919Y035536D01*
X034928Y035552D01*
X034940Y035566D01*
X034955Y035577D01*
X034972Y035585D01*
X034991Y035589D01*
X035009Y035589D01*
X035028Y035585D01*
X035044Y035577D01*
X035060Y035566D01*
X035072Y035552D01*
X035081Y035536D01*
X035087Y035519D01*
X035089Y035500D01*
X035087Y035481D01*
X035081Y035464D01*
X035072Y035448D01*
X035060Y035434D01*
X035045Y035423D01*
X035028Y035415D01*
X035009Y035411D01*
X034991Y035411D01*
X034972Y035415D01*
X034956Y035423D01*
X034940Y035434D01*
X034928Y035448D01*
X034919Y035464D01*
X034913Y035481D01*
X034911Y035500D01*
X033911Y035500D02*
X033913Y035519D01*
X033919Y035536D01*
X033928Y035552D01*
X033940Y035566D01*
X033955Y035577D01*
X033972Y035585D01*
X033991Y035589D01*
X034009Y035589D01*
X034028Y035585D01*
X034044Y035577D01*
X034060Y035566D01*
X034072Y035552D01*
X034081Y035536D01*
X034087Y035519D01*
X034089Y035500D01*
X034087Y035481D01*
X034081Y035464D01*
X034072Y035448D01*
X034060Y035434D01*
X034045Y035423D01*
X034028Y035415D01*
X034009Y035411D01*
X033991Y035411D01*
X033972Y035415D01*
X033956Y035423D01*
X033940Y035434D01*
X033928Y035448D01*
X033919Y035464D01*
X033913Y035481D01*
X033911Y035500D01*
X035911Y035500D02*
X035913Y035519D01*
X035919Y035536D01*
X035928Y035552D01*
X035940Y035566D01*
X035955Y035577D01*
X035972Y035585D01*
X035991Y035589D01*
X036009Y035589D01*
X036028Y035585D01*
X036044Y035577D01*
X036060Y035566D01*
X036072Y035552D01*
X036081Y035536D01*
X036087Y035519D01*
X036089Y035500D01*
X036087Y035481D01*
X036081Y035464D01*
X036072Y035448D01*
X036060Y035434D01*
X036045Y035423D01*
X036028Y035415D01*
X036009Y035411D01*
X035991Y035411D01*
X035972Y035415D01*
X035956Y035423D01*
X035940Y035434D01*
X035928Y035448D01*
X035919Y035464D01*
X035913Y035481D01*
X035911Y035500D01*
X036911Y035500D02*
X036913Y035519D01*
X036919Y035536D01*
X036928Y035552D01*
X036940Y035566D01*
X036955Y035577D01*
X036972Y035585D01*
X036991Y035589D01*
X037009Y035589D01*
X037028Y035585D01*
X037044Y035577D01*
X037060Y035566D01*
X037072Y035552D01*
X037081Y035536D01*
X037087Y035519D01*
X037089Y035500D01*
X037087Y035481D01*
X037081Y035464D01*
X037072Y035448D01*
X037060Y035434D01*
X037045Y035423D01*
X037028Y035415D01*
X037009Y035411D01*
X036991Y035411D01*
X036972Y035415D01*
X036956Y035423D01*
X036940Y035434D01*
X036928Y035448D01*
X036919Y035464D01*
X036913Y035481D01*
X036911Y035500D01*
X036911Y034500D02*
X036913Y034519D01*
X036919Y034536D01*
X036928Y034552D01*
X036940Y034566D01*
X036955Y034577D01*
X036972Y034585D01*
X036991Y034589D01*
X037009Y034589D01*
X037028Y034585D01*
X037044Y034577D01*
X037060Y034566D01*
X037072Y034552D01*
X037081Y034536D01*
X037087Y034519D01*
X037089Y034500D01*
X037087Y034481D01*
X037081Y034464D01*
X037072Y034448D01*
X037060Y034434D01*
X037045Y034423D01*
X037028Y034415D01*
X037009Y034411D01*
X036991Y034411D01*
X036972Y034415D01*
X036956Y034423D01*
X036940Y034434D01*
X036928Y034448D01*
X036919Y034464D01*
X036913Y034481D01*
X036911Y034500D01*
X035911Y034500D02*
X035913Y034519D01*
X035919Y034536D01*
X035928Y034552D01*
X035940Y034566D01*
X035955Y034577D01*
X035972Y034585D01*
X035991Y034589D01*
X036009Y034589D01*
X036028Y034585D01*
X036044Y034577D01*
X036060Y034566D01*
X036072Y034552D01*
X036081Y034536D01*
X036087Y034519D01*
X036089Y034500D01*
X036087Y034481D01*
X036081Y034464D01*
X036072Y034448D01*
X036060Y034434D01*
X036045Y034423D01*
X036028Y034415D01*
X036009Y034411D01*
X035991Y034411D01*
X035972Y034415D01*
X035956Y034423D01*
X035940Y034434D01*
X035928Y034448D01*
X035919Y034464D01*
X035913Y034481D01*
X035911Y034500D01*
X030911Y034500D02*
X030913Y034519D01*
X030919Y034536D01*
X030928Y034552D01*
X030940Y034566D01*
X030955Y034577D01*
X030972Y034585D01*
X030991Y034589D01*
X031009Y034589D01*
X031028Y034585D01*
X031044Y034577D01*
X031060Y034566D01*
X031072Y034552D01*
X031081Y034536D01*
X031087Y034519D01*
X031089Y034500D01*
X031087Y034481D01*
X031081Y034464D01*
X031072Y034448D01*
X031060Y034434D01*
X031045Y034423D01*
X031028Y034415D01*
X031009Y034411D01*
X030991Y034411D01*
X030972Y034415D01*
X030956Y034423D01*
X030940Y034434D01*
X030928Y034448D01*
X030919Y034464D01*
X030913Y034481D01*
X030911Y034500D01*
X029911Y034500D02*
X029913Y034519D01*
X029919Y034536D01*
X029928Y034552D01*
X029940Y034566D01*
X029955Y034577D01*
X029972Y034585D01*
X029991Y034589D01*
X030009Y034589D01*
X030028Y034585D01*
X030044Y034577D01*
X030060Y034566D01*
X030072Y034552D01*
X030081Y034536D01*
X030087Y034519D01*
X030089Y034500D01*
X030087Y034481D01*
X030081Y034464D01*
X030072Y034448D01*
X030060Y034434D01*
X030045Y034423D01*
X030028Y034415D01*
X030009Y034411D01*
X029991Y034411D01*
X029972Y034415D01*
X029956Y034423D01*
X029940Y034434D01*
X029928Y034448D01*
X029919Y034464D01*
X029913Y034481D01*
X029911Y034500D01*
X028911Y034500D02*
X028913Y034519D01*
X028919Y034536D01*
X028928Y034552D01*
X028940Y034566D01*
X028955Y034577D01*
X028972Y034585D01*
X028991Y034589D01*
X029009Y034589D01*
X029028Y034585D01*
X029044Y034577D01*
X029060Y034566D01*
X029072Y034552D01*
X029081Y034536D01*
X029087Y034519D01*
X029089Y034500D01*
X029087Y034481D01*
X029081Y034464D01*
X029072Y034448D01*
X029060Y034434D01*
X029045Y034423D01*
X029028Y034415D01*
X029009Y034411D01*
X028991Y034411D01*
X028972Y034415D01*
X028956Y034423D01*
X028940Y034434D01*
X028928Y034448D01*
X028919Y034464D01*
X028913Y034481D01*
X028911Y034500D01*
D13*
X028000Y034500D03*
X034000Y034500D03*
M02*
