%
M48
M72
T01C0.0118
T02C0.0315
T03C0.0400
T04C0.0531
%
T01
X23500Y26000
X24500Y26000
X25500Y26000
X25500Y27000
X24500Y27000
X23500Y27000
X23500Y28000
X24500Y28000
X25500Y28000
X24500Y29000
X23500Y30000
X23500Y31000
X25500Y31000
X25500Y30000
X26000Y33500
X26000Y34500
X26000Y35000
X26000Y35500
X26000Y36000
X25500Y36000
X24582Y35120
X24318Y35120
X23500Y35000
X23500Y34000
X23000Y33000
X23500Y36000
T02
X24500Y31886
X24500Y31098
X24500Y30311
X24500Y29524
T03
X24950Y36500
X25950Y36500
X23950Y36500
X22950Y36500
T04
X23437Y32083
X25563Y32083
X25563Y29327
X23437Y29327
M30
