G75*
%MOIN*%
%OFA0B0*%
%FSLAX24Y24*%
%IPPOS*%
%LPD*%
%AMOC8*
5,1,8,0,0,1.08239X$1,22.5*
%
%ADD10C,0.0000*%
%ADD11C,0.0060*%
%ADD12C,0.0030*%
%ADD13C,0.0040*%
%ADD14C,0.0050*%
%ADD15C,0.0250*%
D10*
X022500Y025000D02*
X022500Y038000D01*
X032500Y038000D01*
X032500Y025000D01*
X022500Y025000D01*
X030705Y027362D02*
X030707Y027412D01*
X030713Y027462D01*
X030723Y027511D01*
X030737Y027559D01*
X030754Y027606D01*
X030775Y027651D01*
X030800Y027695D01*
X030828Y027736D01*
X030860Y027775D01*
X030894Y027812D01*
X030931Y027846D01*
X030971Y027876D01*
X031013Y027903D01*
X031057Y027927D01*
X031103Y027948D01*
X031150Y027964D01*
X031198Y027977D01*
X031248Y027986D01*
X031297Y027991D01*
X031348Y027992D01*
X031398Y027989D01*
X031447Y027982D01*
X031496Y027971D01*
X031544Y027956D01*
X031590Y027938D01*
X031635Y027916D01*
X031678Y027890D01*
X031719Y027861D01*
X031758Y027829D01*
X031794Y027794D01*
X031826Y027756D01*
X031856Y027716D01*
X031883Y027673D01*
X031906Y027629D01*
X031925Y027583D01*
X031941Y027535D01*
X031953Y027486D01*
X031961Y027437D01*
X031965Y027387D01*
X031965Y027337D01*
X031961Y027287D01*
X031953Y027238D01*
X031941Y027189D01*
X031925Y027141D01*
X031906Y027095D01*
X031883Y027051D01*
X031856Y027008D01*
X031826Y026968D01*
X031794Y026930D01*
X031758Y026895D01*
X031719Y026863D01*
X031678Y026834D01*
X031635Y026808D01*
X031590Y026786D01*
X031544Y026768D01*
X031496Y026753D01*
X031447Y026742D01*
X031398Y026735D01*
X031348Y026732D01*
X031297Y026733D01*
X031248Y026738D01*
X031198Y026747D01*
X031150Y026760D01*
X031103Y026776D01*
X031057Y026797D01*
X031013Y026821D01*
X030971Y026848D01*
X030931Y026878D01*
X030894Y026912D01*
X030860Y026949D01*
X030828Y026988D01*
X030800Y027029D01*
X030775Y027073D01*
X030754Y027118D01*
X030737Y027165D01*
X030723Y027213D01*
X030713Y027262D01*
X030707Y027312D01*
X030705Y027362D01*
D11*
X030635Y026621D02*
X031062Y026621D01*
X030849Y026621D02*
X030849Y025980D01*
X031280Y025980D02*
X031280Y026407D01*
X031494Y026621D01*
X031707Y026407D01*
X031707Y025980D01*
X031925Y026087D02*
X032031Y025980D01*
X032245Y025980D01*
X032352Y026087D01*
X032352Y026300D01*
X032138Y026300D01*
X031925Y026514D02*
X031925Y026087D01*
X031707Y026300D02*
X031280Y026300D01*
X031925Y026514D02*
X032031Y026621D01*
X032245Y026621D01*
X032352Y026514D01*
X030418Y026621D02*
X030204Y026621D01*
X030311Y026621D02*
X030311Y026087D01*
X030204Y025980D01*
X030098Y025980D01*
X029991Y026087D01*
X028023Y031580D02*
X027810Y031580D01*
X027916Y031580D02*
X027916Y032221D01*
X027810Y032221D02*
X028023Y032221D01*
X027592Y032114D02*
X027592Y031900D01*
X027485Y031794D01*
X027165Y031794D01*
X027165Y031580D02*
X027165Y032221D01*
X027485Y032221D01*
X027592Y032114D01*
X026948Y032114D02*
X026841Y032221D01*
X026627Y032221D01*
X026521Y032114D01*
X026521Y032007D01*
X026627Y031900D01*
X026841Y031900D01*
X026948Y031794D01*
X026948Y031687D01*
X026841Y031580D01*
X026627Y031580D01*
X026521Y031687D01*
X026780Y034105D02*
X026994Y034319D01*
X027207Y034105D01*
X027207Y034746D01*
X027425Y034746D02*
X027745Y034746D01*
X027852Y034639D01*
X027852Y034425D01*
X027745Y034319D01*
X027425Y034319D01*
X027425Y034105D02*
X027425Y034746D01*
X027425Y035155D02*
X027852Y035155D01*
X028069Y035155D02*
X028069Y035582D01*
X028283Y035796D01*
X028496Y035582D01*
X028496Y035155D01*
X028714Y035262D02*
X028820Y035155D01*
X029034Y035155D01*
X029141Y035262D01*
X029141Y035369D01*
X029034Y035475D01*
X028820Y035475D01*
X028714Y035582D01*
X028714Y035689D01*
X028820Y035796D01*
X029034Y035796D01*
X029141Y035689D01*
X029358Y035796D02*
X029358Y035155D01*
X029358Y035475D02*
X029785Y035475D01*
X029785Y035155D02*
X029785Y035796D01*
X028496Y035475D02*
X028069Y035475D01*
X027425Y035796D02*
X027425Y035155D01*
X026994Y035475D02*
X026780Y035475D01*
X026780Y035155D02*
X026780Y035796D01*
X027207Y035796D01*
X027302Y036430D02*
X027729Y036430D01*
X027516Y036750D02*
X027302Y036750D01*
X027085Y036644D02*
X027085Y036537D01*
X026978Y036430D01*
X026764Y036430D01*
X026658Y036537D01*
X026764Y036750D02*
X026978Y036750D01*
X027085Y036644D01*
X027302Y036430D02*
X027302Y037071D01*
X027729Y037071D01*
X027947Y037071D02*
X028374Y037071D01*
X028160Y037071D02*
X028160Y036430D01*
X027085Y036964D02*
X026978Y037071D01*
X026764Y037071D01*
X026658Y036964D01*
X026658Y036857D01*
X026764Y036750D01*
X026440Y036430D02*
X026013Y036430D01*
X026013Y037071D01*
X026440Y037071D01*
X026227Y036750D02*
X026013Y036750D01*
X025796Y036750D02*
X025689Y036644D01*
X025369Y036644D01*
X025582Y036644D02*
X025796Y036430D01*
X025796Y036750D02*
X025796Y036964D01*
X025689Y037071D01*
X025369Y037071D01*
X025369Y036430D01*
X026780Y034746D02*
X026780Y034105D01*
D12*
X026705Y035265D02*
X026753Y035313D01*
X026753Y035507D01*
X026705Y035555D01*
X026608Y035555D01*
X026560Y035507D01*
X026560Y035458D01*
X026608Y035410D01*
X026753Y035410D01*
X026705Y035265D02*
X026608Y035265D01*
X026560Y035313D01*
X026458Y035265D02*
X026362Y035362D01*
X026410Y035362D02*
X026265Y035362D01*
X026265Y035265D02*
X026265Y035555D01*
X026410Y035555D01*
X026458Y035507D01*
X026458Y035410D01*
X026410Y035362D01*
X026203Y036015D02*
X026010Y036015D01*
X026203Y036208D01*
X026203Y036257D01*
X026155Y036305D01*
X026058Y036305D01*
X026010Y036257D01*
X025908Y036257D02*
X025860Y036305D01*
X025763Y036305D01*
X025715Y036257D01*
X025715Y036063D01*
X025763Y036015D01*
X025860Y036015D01*
X025908Y036063D01*
X025105Y034855D02*
X025153Y034807D01*
X025153Y034758D01*
X025105Y034710D01*
X025153Y034662D01*
X025153Y034613D01*
X025105Y034565D01*
X025008Y034565D01*
X024960Y034613D01*
X024858Y034565D02*
X024762Y034662D01*
X024810Y034662D02*
X024665Y034662D01*
X024665Y034565D02*
X024665Y034855D01*
X024810Y034855D01*
X024858Y034807D01*
X024858Y034710D01*
X024810Y034662D01*
X024960Y034807D02*
X025008Y034855D01*
X025105Y034855D01*
X025105Y034710D02*
X025056Y034710D01*
X024700Y033454D02*
X024632Y033454D01*
X024563Y033385D01*
X024563Y033317D01*
X024632Y033249D01*
X024700Y033249D01*
X024768Y033317D01*
X024768Y033385D01*
X024700Y033454D01*
X024492Y033245D02*
X024594Y033143D01*
X024492Y033245D02*
X024423Y033245D01*
X024321Y033143D01*
X024457Y033006D01*
X024387Y032935D02*
X024318Y032867D01*
X024353Y032901D02*
X024216Y033038D01*
X024182Y033004D01*
X024147Y033106D02*
X024113Y033141D01*
X024144Y032898D02*
X024247Y032796D01*
X024179Y032727D02*
X024076Y032830D01*
X024076Y032898D01*
X024144Y032898D01*
X024076Y032830D02*
X024008Y032830D01*
X023973Y032796D01*
X024110Y032659D01*
X024004Y032621D02*
X023936Y032690D01*
X023868Y032690D01*
X023799Y032621D01*
X023799Y032553D01*
X023868Y032485D01*
X023936Y032485D01*
X024004Y032553D01*
X024004Y032621D01*
X024036Y032385D02*
X024070Y032350D01*
X024139Y032282D02*
X024275Y032145D01*
X024241Y032111D02*
X024310Y032179D01*
X024139Y032282D02*
X024104Y032248D01*
X023999Y032210D02*
X024067Y032142D01*
X024067Y032074D01*
X023964Y031971D01*
X024033Y031903D02*
X023828Y032108D01*
X023930Y032210D01*
X023999Y032210D01*
X023796Y032345D02*
X023796Y032413D01*
X023659Y032550D01*
X023591Y032550D01*
X023488Y032447D01*
X023693Y032242D01*
X023796Y032345D01*
X024118Y031645D02*
X024263Y031645D01*
X024311Y031597D01*
X024311Y031548D01*
X024263Y031500D01*
X024118Y031500D01*
X024263Y031500D02*
X024311Y031452D01*
X024311Y031403D01*
X024263Y031355D01*
X024118Y031355D01*
X024118Y031645D01*
X023932Y031403D02*
X023932Y031355D01*
X023883Y031355D01*
X023883Y031403D01*
X023932Y031403D01*
X023782Y031548D02*
X023685Y031355D01*
X023589Y031548D01*
X023488Y031500D02*
X023488Y031452D01*
X023294Y031452D01*
X023294Y031500D02*
X023342Y031548D01*
X023439Y031548D01*
X023488Y031500D01*
X023439Y031355D02*
X023342Y031355D01*
X023294Y031403D01*
X023294Y031500D01*
X023193Y031500D02*
X023144Y031452D01*
X022999Y031452D01*
X022999Y031355D02*
X022999Y031645D01*
X023144Y031645D01*
X023193Y031597D01*
X023193Y031500D01*
X023096Y031452D02*
X023193Y031355D01*
X023226Y031145D02*
X023275Y031097D01*
X023081Y030903D01*
X023129Y030855D01*
X023226Y030855D01*
X023275Y030903D01*
X023275Y031097D01*
X023226Y031145D02*
X023129Y031145D01*
X023081Y031097D01*
X023081Y030903D01*
X022980Y030855D02*
X022786Y030855D01*
X022980Y031048D01*
X022980Y031097D01*
X022932Y031145D01*
X022835Y031145D01*
X022786Y031097D01*
X023376Y031048D02*
X023472Y031145D01*
X023472Y030855D01*
X023376Y030855D02*
X023569Y030855D01*
X023670Y031000D02*
X023864Y031000D01*
X023965Y030903D02*
X024158Y031097D01*
X024158Y030903D01*
X024110Y030855D01*
X024013Y030855D01*
X023965Y030903D01*
X023965Y031097D01*
X024013Y031145D01*
X024110Y031145D01*
X024158Y031097D01*
X024260Y031097D02*
X024260Y031048D01*
X024308Y031000D01*
X024405Y031000D01*
X024453Y030952D01*
X024453Y030903D01*
X024405Y030855D01*
X024308Y030855D01*
X024260Y030903D01*
X024260Y030952D01*
X024308Y031000D01*
X024405Y031000D02*
X024453Y031048D01*
X024453Y031097D01*
X024405Y031145D01*
X024308Y031145D01*
X024260Y031097D01*
X024554Y031097D02*
X024603Y031145D01*
X024699Y031145D01*
X024748Y031097D01*
X024748Y031048D01*
X024554Y030855D01*
X024748Y030855D01*
X024849Y031000D02*
X025042Y031000D01*
X024994Y030855D02*
X024994Y031145D01*
X024849Y031000D01*
X024927Y030395D02*
X024927Y030202D01*
X024830Y030105D01*
X024733Y030202D01*
X024733Y030395D01*
X024632Y030347D02*
X024632Y030298D01*
X024584Y030250D01*
X024632Y030202D01*
X024632Y030153D01*
X024584Y030105D01*
X024487Y030105D01*
X024439Y030153D01*
X024340Y030153D02*
X024340Y030105D01*
X024291Y030105D01*
X024291Y030153D01*
X024340Y030153D01*
X024190Y030153D02*
X024142Y030105D01*
X024045Y030105D01*
X023997Y030153D01*
X024093Y030250D02*
X024142Y030250D01*
X024190Y030202D01*
X024190Y030153D01*
X024142Y030250D02*
X024190Y030298D01*
X024190Y030347D01*
X024142Y030395D01*
X024045Y030395D01*
X023997Y030347D01*
X023896Y030250D02*
X023702Y030250D01*
X023799Y030347D02*
X023799Y030153D01*
X023408Y030153D02*
X023360Y030105D01*
X023263Y030105D01*
X023215Y030153D01*
X023114Y030153D02*
X023065Y030105D01*
X022969Y030105D01*
X022920Y030153D01*
X022920Y030347D01*
X022969Y030395D01*
X023065Y030395D01*
X023114Y030347D01*
X023215Y030347D02*
X023215Y030298D01*
X023263Y030250D01*
X023360Y030250D01*
X023408Y030202D01*
X023408Y030153D01*
X023408Y030347D02*
X023360Y030395D01*
X023263Y030395D01*
X023215Y030347D01*
X023815Y030855D02*
X023815Y031145D01*
X023670Y031000D01*
X024439Y030347D02*
X024487Y030395D01*
X024584Y030395D01*
X024632Y030347D01*
X024584Y030250D02*
X024535Y030250D01*
X024510Y029395D02*
X024413Y029395D01*
X024365Y029347D01*
X024365Y029153D01*
X024413Y029105D01*
X024510Y029105D01*
X024558Y029153D01*
X024558Y029347D02*
X024510Y029395D01*
X024264Y029395D02*
X024264Y029105D01*
X024070Y029395D01*
X024070Y029105D01*
X023408Y029153D02*
X023408Y029347D01*
X023360Y029395D01*
X023263Y029395D01*
X023215Y029347D01*
X023215Y029153D01*
X023263Y029105D01*
X023360Y029105D01*
X023408Y029153D01*
X023114Y029153D02*
X023065Y029105D01*
X022969Y029105D01*
X022920Y029153D01*
X022969Y029250D02*
X023065Y029250D01*
X023114Y029202D01*
X023114Y029153D01*
X022969Y029250D02*
X022920Y029298D01*
X022920Y029347D01*
X022969Y029395D01*
X023065Y029395D01*
X023114Y029347D01*
X023064Y028395D02*
X023064Y028105D01*
X022967Y028202D01*
X022870Y028105D01*
X022870Y028395D01*
X023165Y028395D02*
X023310Y028395D01*
X023358Y028347D01*
X023358Y028250D01*
X023310Y028202D01*
X023165Y028202D01*
X023165Y028105D02*
X023165Y028395D01*
X023923Y028347D02*
X023923Y028153D01*
X023971Y028105D01*
X024068Y028105D01*
X024117Y028153D01*
X024218Y028105D02*
X024218Y028395D01*
X024117Y028347D02*
X024068Y028395D01*
X023971Y028395D01*
X023923Y028347D01*
X024218Y028105D02*
X024411Y028105D01*
X024512Y028105D02*
X024512Y028395D01*
X024561Y028250D02*
X024706Y028105D01*
X024512Y028202D02*
X024706Y028395D01*
X024511Y027395D02*
X024414Y027395D01*
X024462Y027395D02*
X024462Y027105D01*
X024414Y027105D02*
X024511Y027105D01*
X024313Y027153D02*
X024265Y027105D01*
X024168Y027105D01*
X024119Y027153D01*
X024168Y027250D02*
X024119Y027298D01*
X024119Y027347D01*
X024168Y027395D01*
X024265Y027395D01*
X024313Y027347D01*
X024265Y027250D02*
X024313Y027202D01*
X024313Y027153D01*
X024265Y027250D02*
X024168Y027250D01*
X023506Y027153D02*
X023457Y027105D01*
X023312Y027105D01*
X023312Y027395D01*
X023457Y027395D01*
X023506Y027347D01*
X023506Y027153D01*
X023211Y027105D02*
X023211Y027395D01*
X023018Y027395D02*
X023211Y027105D01*
X023018Y027105D02*
X023018Y027395D01*
X022917Y027347D02*
X022868Y027395D01*
X022771Y027395D01*
X022723Y027347D01*
X022723Y027153D01*
X022771Y027105D01*
X022868Y027105D01*
X022917Y027153D01*
X022917Y027250D01*
X022820Y027250D01*
X025585Y026373D02*
X025633Y026325D01*
X025682Y026325D01*
X025730Y026373D01*
X025730Y026615D01*
X025682Y026615D02*
X025778Y026615D01*
X025880Y026518D02*
X025976Y026615D01*
X025976Y026325D01*
X025880Y026325D02*
X026073Y026325D01*
X026826Y026292D02*
X026971Y026292D01*
X027019Y026340D01*
X027019Y026437D01*
X026971Y026485D01*
X026826Y026485D01*
X026826Y026195D01*
X026922Y026292D02*
X027019Y026195D01*
X027120Y026195D02*
X027314Y026388D01*
X027314Y026437D01*
X027265Y026485D01*
X027169Y026485D01*
X027120Y026437D01*
X027120Y026195D02*
X027314Y026195D01*
X027626Y026243D02*
X027674Y026195D01*
X027771Y026195D01*
X027819Y026243D01*
X027920Y026195D02*
X028114Y026195D01*
X028017Y026195D02*
X028017Y026485D01*
X027920Y026388D01*
X027819Y026437D02*
X027771Y026485D01*
X027674Y026485D01*
X027626Y026437D01*
X027626Y026243D01*
X028535Y026373D02*
X028583Y026325D01*
X028632Y026325D01*
X028680Y026373D01*
X028680Y026615D01*
X028632Y026615D02*
X028728Y026615D01*
X028830Y026615D02*
X028830Y026470D01*
X028926Y026518D01*
X028975Y026518D01*
X029023Y026470D01*
X029023Y026373D01*
X028975Y026325D01*
X028878Y026325D01*
X028830Y026373D01*
X028830Y026615D02*
X029023Y026615D01*
X030565Y028865D02*
X030565Y029155D01*
X030710Y029155D01*
X030758Y029107D01*
X030758Y029010D01*
X030710Y028962D01*
X030565Y028962D01*
X030662Y028962D02*
X030758Y028865D01*
X030860Y028865D02*
X031053Y028865D01*
X030956Y028865D02*
X030956Y029155D01*
X030860Y029058D01*
X031154Y029010D02*
X031251Y029058D01*
X031299Y029058D01*
X031348Y029010D01*
X031348Y028913D01*
X031299Y028865D01*
X031203Y028865D01*
X031154Y028913D01*
X031154Y029010D02*
X031154Y029155D01*
X031348Y029155D01*
X031349Y029765D02*
X031349Y030055D01*
X031204Y029910D01*
X031398Y029910D01*
X031103Y029765D02*
X030910Y029765D01*
X031006Y029765D02*
X031006Y030055D01*
X030910Y029958D01*
X030808Y029910D02*
X030760Y029862D01*
X030615Y029862D01*
X030712Y029862D02*
X030808Y029765D01*
X030808Y029910D02*
X030808Y030007D01*
X030760Y030055D01*
X030615Y030055D01*
X030615Y029765D01*
X029664Y029537D02*
X029664Y029488D01*
X029615Y029440D01*
X029664Y029392D01*
X029664Y029343D01*
X029615Y029295D01*
X029519Y029295D01*
X029470Y029343D01*
X029369Y029343D02*
X029321Y029295D01*
X029224Y029295D01*
X029176Y029343D01*
X029176Y029537D01*
X029224Y029585D01*
X029321Y029585D01*
X029369Y029537D01*
X029470Y029537D02*
X029519Y029585D01*
X029615Y029585D01*
X029664Y029537D01*
X029615Y029440D02*
X029567Y029440D01*
X029519Y030845D02*
X029470Y030893D01*
X029470Y030942D01*
X029519Y030990D01*
X029615Y030990D01*
X029664Y030942D01*
X029664Y030893D01*
X029615Y030845D01*
X029519Y030845D01*
X029519Y030990D02*
X029470Y031038D01*
X029470Y031087D01*
X029519Y031135D01*
X029615Y031135D01*
X029664Y031087D01*
X029664Y031038D01*
X029615Y030990D01*
X029369Y030990D02*
X029321Y030942D01*
X029176Y030942D01*
X029272Y030942D02*
X029369Y030845D01*
X029369Y030990D02*
X029369Y031087D01*
X029321Y031135D01*
X029176Y031135D01*
X029176Y030845D01*
X029176Y031245D02*
X029176Y031535D01*
X029321Y031535D01*
X029369Y031487D01*
X029369Y031390D01*
X029321Y031342D01*
X029176Y031342D01*
X029272Y031342D02*
X029369Y031245D01*
X029470Y031245D02*
X029470Y031293D01*
X029664Y031487D01*
X029664Y031535D01*
X029470Y031535D01*
X030615Y031815D02*
X030615Y032105D01*
X030760Y032105D01*
X030808Y032057D01*
X030808Y031960D01*
X030760Y031912D01*
X030615Y031912D01*
X030712Y031912D02*
X030808Y031815D01*
X030910Y031815D02*
X031103Y031815D01*
X031006Y031815D02*
X031006Y032105D01*
X030910Y032008D01*
X031204Y032057D02*
X031253Y032105D01*
X031349Y032105D01*
X031398Y032057D01*
X031398Y032008D01*
X031204Y031815D01*
X031398Y031815D01*
X031349Y031055D02*
X031398Y031007D01*
X031398Y030958D01*
X031349Y030910D01*
X031398Y030862D01*
X031398Y030813D01*
X031349Y030765D01*
X031253Y030765D01*
X031204Y030813D01*
X031103Y030765D02*
X030910Y030765D01*
X031006Y030765D02*
X031006Y031055D01*
X030910Y030958D01*
X030808Y030910D02*
X030760Y030862D01*
X030615Y030862D01*
X030712Y030862D02*
X030808Y030765D01*
X030808Y030910D02*
X030808Y031007D01*
X030760Y031055D01*
X030615Y031055D01*
X030615Y030765D01*
X031204Y031007D02*
X031253Y031055D01*
X031349Y031055D01*
X031349Y030910D02*
X031301Y030910D01*
X031055Y032915D02*
X030958Y032915D01*
X030910Y032963D01*
X030910Y033060D02*
X031006Y033108D01*
X031055Y033108D01*
X031103Y033060D01*
X031103Y032963D01*
X031055Y032915D01*
X030910Y033060D02*
X030910Y033205D01*
X031103Y033205D01*
X030808Y033157D02*
X030808Y033060D01*
X030760Y033012D01*
X030615Y033012D01*
X030712Y033012D02*
X030808Y032915D01*
X030615Y032915D02*
X030615Y033205D01*
X030760Y033205D01*
X030808Y033157D01*
X030808Y033915D02*
X030712Y034012D01*
X030760Y034012D02*
X030615Y034012D01*
X030615Y033915D02*
X030615Y034205D01*
X030760Y034205D01*
X030808Y034157D01*
X030808Y034060D01*
X030760Y034012D01*
X030910Y034108D02*
X031006Y034205D01*
X031006Y033915D01*
X030910Y033915D02*
X031103Y033915D01*
X031204Y033963D02*
X031398Y034157D01*
X031398Y033963D01*
X031349Y033915D01*
X031253Y033915D01*
X031204Y033963D01*
X031204Y034157D01*
X031253Y034205D01*
X031349Y034205D01*
X031398Y034157D01*
X031195Y035020D02*
X031195Y035214D01*
X031195Y035117D02*
X030905Y035117D01*
X031002Y035020D01*
X030314Y034940D02*
X030120Y034940D01*
X030265Y035085D01*
X030265Y034795D01*
X030019Y034795D02*
X029922Y034892D01*
X029971Y034892D02*
X029826Y034892D01*
X029826Y034795D02*
X029826Y035085D01*
X029971Y035085D01*
X030019Y035037D01*
X030019Y034940D01*
X029971Y034892D01*
X029517Y033885D02*
X029517Y033595D01*
X029420Y033595D02*
X029614Y033595D01*
X029420Y033788D02*
X029517Y033885D01*
X029222Y033885D02*
X029222Y033595D01*
X029126Y033595D02*
X029319Y033595D01*
X029126Y033788D02*
X029222Y033885D01*
X029025Y033837D02*
X029025Y033740D01*
X028976Y033692D01*
X028831Y033692D01*
X028928Y033692D02*
X029025Y033595D01*
X028831Y033595D02*
X028831Y033885D01*
X028976Y033885D01*
X029025Y033837D01*
X028976Y032885D02*
X029121Y032885D01*
X029169Y032837D01*
X029169Y032740D01*
X029121Y032692D01*
X028976Y032692D01*
X029072Y032692D02*
X029169Y032595D01*
X029270Y032643D02*
X029319Y032595D01*
X029415Y032595D01*
X029464Y032643D01*
X029464Y032692D01*
X029415Y032740D01*
X029270Y032740D01*
X029270Y032643D01*
X029270Y032740D02*
X029367Y032837D01*
X029464Y032885D01*
X028976Y032885D02*
X028976Y032595D01*
X027856Y031375D02*
X027760Y031278D01*
X027658Y031230D02*
X027610Y031182D01*
X027465Y031182D01*
X027562Y031182D02*
X027658Y031085D01*
X027760Y031085D02*
X027953Y031085D01*
X027856Y031085D02*
X027856Y031375D01*
X027658Y031327D02*
X027658Y031230D01*
X027658Y031327D02*
X027610Y031375D01*
X027465Y031375D01*
X027465Y031085D01*
X026896Y030675D02*
X026896Y030385D01*
X026800Y030385D02*
X026993Y030385D01*
X026800Y030578D02*
X026896Y030675D01*
X026698Y030675D02*
X026698Y030433D01*
X026650Y030385D01*
X026553Y030385D01*
X026505Y030433D01*
X026505Y030675D01*
X031755Y035069D02*
X031803Y035020D01*
X031755Y035069D02*
X031755Y035165D01*
X031803Y035214D01*
X031852Y035214D01*
X032045Y035020D01*
X032045Y035214D01*
X031655Y036615D02*
X031703Y036663D01*
X031703Y036712D01*
X031655Y036760D01*
X031510Y036760D01*
X031510Y036663D01*
X031558Y036615D01*
X031655Y036615D01*
X031510Y036760D02*
X031606Y036857D01*
X031703Y036905D01*
X031408Y036905D02*
X031312Y036905D01*
X031360Y036905D02*
X031360Y036663D01*
X031312Y036615D01*
X031263Y036615D01*
X031215Y036663D01*
X028444Y036130D02*
X028250Y036130D01*
X028395Y036275D01*
X028395Y035985D01*
X028101Y036033D02*
X028101Y036275D01*
X028149Y036275D02*
X028052Y036275D01*
X028101Y036033D02*
X028052Y035985D01*
X028004Y035985D01*
X027956Y036033D01*
X024484Y036555D02*
X024290Y036555D01*
X024387Y036555D02*
X024387Y036845D01*
X024290Y036748D01*
X024189Y036845D02*
X024189Y036555D01*
X024092Y036652D01*
X023996Y036555D01*
X023996Y036845D01*
X023895Y036797D02*
X023846Y036845D01*
X023749Y036845D01*
X023701Y036797D01*
X023701Y036748D01*
X023749Y036700D01*
X023846Y036700D01*
X023895Y036652D01*
X023895Y036603D01*
X023846Y036555D01*
X023749Y036555D01*
X023701Y036603D01*
D13*
X023927Y034384D02*
X023396Y033854D01*
X024104Y033146D01*
X023573Y032616D01*
X023550Y032596D01*
X023525Y032579D01*
X023499Y032565D01*
X023470Y032554D01*
X023441Y032547D01*
X023411Y032543D01*
X023381Y032543D01*
X023351Y032547D01*
X023322Y032554D01*
X023293Y032565D01*
X023267Y032579D01*
X023242Y032596D01*
X023219Y032616D01*
X023220Y032616D02*
X022866Y032970D01*
X022866Y032969D02*
X022846Y032992D01*
X022829Y033017D01*
X022815Y033043D01*
X022804Y033072D01*
X022797Y033101D01*
X022793Y033131D01*
X022793Y033161D01*
X022797Y033191D01*
X022804Y033220D01*
X022815Y033249D01*
X022829Y033275D01*
X022846Y033300D01*
X022866Y033323D01*
X023396Y033854D01*
X023927Y034384D02*
X023950Y034404D01*
X023975Y034421D01*
X024001Y034435D01*
X024030Y034446D01*
X024059Y034453D01*
X024089Y034457D01*
X024119Y034457D01*
X024149Y034453D01*
X024178Y034446D01*
X024207Y034435D01*
X024233Y034421D01*
X024258Y034404D01*
X024281Y034384D01*
X024280Y034384D02*
X024634Y034030D01*
X024634Y034031D02*
X024654Y034008D01*
X024671Y033983D01*
X024685Y033957D01*
X024696Y033928D01*
X024703Y033899D01*
X024707Y033869D01*
X024707Y033839D01*
X024703Y033809D01*
X024696Y033780D01*
X024685Y033751D01*
X024671Y033725D01*
X024654Y033700D01*
X024634Y033677D01*
X024104Y033146D01*
X022500Y030750D02*
X029250Y030750D01*
X026650Y026750D02*
X022500Y026750D01*
D14*
X025250Y026750D02*
X025250Y033750D01*
X026250Y033750D01*
X026250Y026750D01*
X025250Y026750D01*
X026650Y026600D02*
X026650Y027000D01*
X027450Y027000D01*
X027450Y026600D01*
X026650Y026600D01*
X027450Y026600D02*
X027450Y027000D01*
X028250Y027000D01*
X028250Y026600D01*
X027450Y026600D01*
X028250Y026750D02*
X028250Y033750D01*
X029250Y033750D01*
X029250Y026750D01*
X028250Y026750D01*
X028250Y028175D02*
X028250Y029325D01*
X028250Y029000D01*
X027950Y029325D01*
X028250Y029325D01*
X026250Y029325D01*
X026250Y028175D01*
X028250Y028175D01*
X028226Y029026D02*
X028250Y029026D01*
X028250Y029074D02*
X028182Y029074D01*
X028137Y029123D02*
X028250Y029123D01*
X028250Y029171D02*
X028092Y029171D01*
X028047Y029220D02*
X028250Y029220D01*
X028250Y029268D02*
X028003Y029268D01*
X027958Y029317D02*
X028250Y029317D01*
X029500Y029250D02*
X030500Y029250D01*
X030500Y028750D01*
X029500Y028750D01*
X029500Y029250D01*
X029700Y029250D02*
X029700Y029650D01*
X030500Y029650D01*
X030500Y030150D01*
X029500Y030150D01*
X029500Y029650D01*
X030500Y029650D01*
X030500Y029250D01*
X029700Y029250D01*
X029500Y030250D02*
X029500Y030750D01*
X030500Y030750D01*
X030500Y030250D01*
X029500Y030250D01*
X029700Y030750D02*
X029700Y031150D01*
X030500Y031150D01*
X030500Y030750D01*
X029700Y030750D01*
X029700Y031250D02*
X029700Y031650D01*
X030500Y031650D01*
X029500Y031650D01*
X029500Y032150D01*
X030500Y032150D01*
X030500Y031650D01*
X030500Y031250D01*
X029700Y031250D01*
X029500Y032250D02*
X029500Y032750D01*
X030500Y032750D01*
X030500Y032250D01*
X029500Y032250D01*
X029700Y032850D02*
X029700Y033250D01*
X030500Y033250D01*
X029500Y033250D01*
X029500Y033750D01*
X030500Y033750D01*
X030500Y033250D01*
X030500Y032850D01*
X029700Y032850D01*
X029500Y033800D02*
X029500Y034300D01*
X030500Y034300D01*
X030500Y033800D01*
X029500Y033800D01*
X029250Y033750D02*
X029250Y034750D01*
X028250Y034750D01*
X028250Y033750D01*
X029700Y034300D02*
X029700Y034700D01*
X030500Y034700D01*
X030500Y034300D01*
X029700Y034300D01*
X029500Y036000D02*
X028500Y036000D01*
X028500Y037000D01*
X029500Y037000D01*
X029500Y036000D01*
X030500Y036000D01*
X030500Y037000D01*
X029500Y037000D01*
X030500Y036500D02*
X030500Y026500D01*
X035750Y026500D01*
X035750Y036500D01*
X030500Y036500D01*
X026150Y035900D02*
X026150Y034900D01*
X025650Y034900D01*
X025650Y035900D01*
X026150Y035900D01*
X025650Y035550D02*
X025250Y035550D01*
X025250Y036350D01*
X025650Y036350D01*
X025650Y035550D01*
X025250Y035550D01*
X025250Y034750D01*
X026250Y034750D01*
X026250Y033750D01*
X025250Y033750D02*
X025250Y034750D01*
X025650Y034750D01*
X025650Y035550D01*
X025250Y034950D02*
X025250Y036450D01*
X022750Y036450D01*
X022750Y034950D01*
X025250Y034950D01*
X027250Y030970D02*
X027250Y030570D01*
X028050Y030570D01*
X028050Y030970D01*
X027250Y030970D01*
D15*
X024104Y033500D03*
X023750Y033146D03*
X023396Y032793D03*
X023043Y033146D03*
X023396Y033500D03*
X024104Y034207D03*
M02*
