%
M48
M72
T01C0.0118
T02C0.0394
T03C0.0400
%
T01
X25500Y26000
X25500Y27000
X24500Y27000
X24500Y28500
X23500Y28500
X25500Y28500
X26500Y28500
X27500Y28500
X28500Y28500
X28500Y27000
X27500Y27000
X26500Y27000
X29500Y27000
X30500Y27000
X30500Y26000
X29500Y26000
X31500Y26000
T02
X29000Y27500
X28000Y27500
X28000Y28500
X29000Y28500
X27000Y28500
X26000Y28500
X25000Y28500
X25000Y27500
X26000Y27500
X27000Y27500
X24000Y27500
X23000Y27500
X23000Y28500
X24000Y28500
T03
X23000Y25500
X24000Y25500
X25000Y25500
X26000Y25500
X27000Y25500
X28000Y25500
X29000Y25500
X30000Y25500
X30000Y26500
X29000Y26500
X31000Y25500
X32000Y25500
M30
