%
M48
M72
T01C0.0118
T02C0.0360
T03C0.0394
T04C0.0400
T05C0.1260
%
T01
X24500Y26000
X25500Y26000
X26500Y26000
X27500Y26000
X28500Y26000
X28500Y27000
X27500Y27000
X26500Y27000
X26500Y28000
X27500Y28000
X28500Y28000
X28500Y29000
X27500Y29000
X26500Y29000
X26500Y30000
X27500Y30000
X27500Y31000
X27500Y32000
X28350Y32200
X28800Y31800
X28950Y30300
X29500Y29000
X29950Y28700
X29500Y28000
X30500Y28000
X29500Y27000
X29500Y26000
X30500Y26000
X31500Y26000
X30500Y30000
X27500Y33000
X26500Y33000
X26500Y34000
X25500Y34000
X25500Y33000
X24500Y33000
X24500Y34000
X23500Y34000
X23500Y35000
X24500Y35000
X25500Y35000
X24500Y36000
X23500Y36000
X26500Y37000
X27500Y37000
X27500Y36000
X28500Y35000
X29500Y34950
X31500Y36000
X31500Y37000
X25500Y32000
X24500Y31000
X23500Y31000
X23500Y30000
X24500Y30000
X25500Y30000
X25500Y29000
X24500Y29000
X23500Y29000
X23500Y28000
X24500Y28000
X25500Y28000
X24500Y27000
X23500Y27000
X23500Y32000
T02
X31000Y31500
X32000Y31500
X32000Y30500
X31000Y30500
X31000Y29500
X32000Y29500
X32000Y28500
X31000Y28500
X31000Y32500
X31000Y33500
X32000Y33500
X32000Y32500
X32000Y34500
X31000Y34500
T03
X26000Y29000
X25000Y29000
X25000Y28000
X26000Y28000
X26000Y27000
X25000Y27000
T04
X23000Y25500
X24000Y25500
X25000Y25500
X26000Y25500
X27000Y25500
X28000Y25500
X29000Y25500
X30000Y25500
X31000Y25500
X32000Y25500
X30000Y36500
X29000Y36500
X29000Y37500
X28000Y37500
X27000Y37500
X26000Y37500
X25000Y37500
X24000Y37500
X23000Y37500
X30000Y37500
X31000Y37500
X32000Y37500
T05
X31335Y27362
M30
