G75*
%MOIN*%
%OFA0B0*%
%FSLAX24Y24*%
%IPPOS*%
%LPD*%
%AMOC8*
5,1,8,0,0,1.08239X$1,22.5*
%
%ADD10C,0.0000*%
%ADD11C,0.1260*%
%ADD12R,0.0200X0.0200*%
%ADD13R,0.0432X0.0432*%
%ADD14C,0.0432*%
%ADD15R,0.0250X0.0350*%
%ADD16R,0.0350X0.0250*%
%ADD17R,0.0531X0.0394*%
%ADD18R,0.0740X0.0740*%
%ADD19C,0.0740*%
%ADD20R,0.0276X0.0866*%
D10*
X022500Y025000D02*
X022500Y038000D01*
X032500Y038000D01*
X032500Y025000D01*
X022500Y025000D01*
X030705Y027362D02*
X030707Y027412D01*
X030713Y027462D01*
X030723Y027511D01*
X030737Y027559D01*
X030754Y027606D01*
X030775Y027651D01*
X030800Y027695D01*
X030828Y027736D01*
X030860Y027775D01*
X030894Y027812D01*
X030931Y027846D01*
X030971Y027876D01*
X031013Y027903D01*
X031057Y027927D01*
X031103Y027948D01*
X031150Y027964D01*
X031198Y027977D01*
X031248Y027986D01*
X031297Y027991D01*
X031348Y027992D01*
X031398Y027989D01*
X031447Y027982D01*
X031496Y027971D01*
X031544Y027956D01*
X031590Y027938D01*
X031635Y027916D01*
X031678Y027890D01*
X031719Y027861D01*
X031758Y027829D01*
X031794Y027794D01*
X031826Y027756D01*
X031856Y027716D01*
X031883Y027673D01*
X031906Y027629D01*
X031925Y027583D01*
X031941Y027535D01*
X031953Y027486D01*
X031961Y027437D01*
X031965Y027387D01*
X031965Y027337D01*
X031961Y027287D01*
X031953Y027238D01*
X031941Y027189D01*
X031925Y027141D01*
X031906Y027095D01*
X031883Y027051D01*
X031856Y027008D01*
X031826Y026968D01*
X031794Y026930D01*
X031758Y026895D01*
X031719Y026863D01*
X031678Y026834D01*
X031635Y026808D01*
X031590Y026786D01*
X031544Y026768D01*
X031496Y026753D01*
X031447Y026742D01*
X031398Y026735D01*
X031348Y026732D01*
X031297Y026733D01*
X031248Y026738D01*
X031198Y026747D01*
X031150Y026760D01*
X031103Y026776D01*
X031057Y026797D01*
X031013Y026821D01*
X030971Y026848D01*
X030931Y026878D01*
X030894Y026912D01*
X030860Y026949D01*
X030828Y026988D01*
X030800Y027029D01*
X030775Y027073D01*
X030754Y027118D01*
X030737Y027165D01*
X030723Y027213D01*
X030713Y027262D01*
X030707Y027312D01*
X030705Y027362D01*
D11*
X031335Y027362D03*
D12*
X030250Y029450D03*
X029950Y029450D03*
X029950Y030950D03*
X030250Y030950D03*
X030250Y031450D03*
X029950Y031450D03*
X029950Y033050D03*
X030250Y033050D03*
X030250Y034500D03*
X029950Y034500D03*
X025450Y035000D03*
X025450Y035300D03*
X025450Y035800D03*
X025450Y036100D03*
X026900Y026800D03*
X027200Y026800D03*
X027700Y026800D03*
X028000Y026800D03*
D13*
X031000Y034500D03*
D14*
X032000Y034500D03*
X032000Y033500D03*
X032000Y032500D03*
X031000Y032500D03*
X031000Y033500D03*
X031000Y031500D03*
X032000Y031500D03*
X032000Y030500D03*
X031000Y030500D03*
X031000Y029500D03*
X032000Y029500D03*
X032000Y028500D03*
X031000Y028500D03*
D15*
X030250Y029000D03*
X029750Y029000D03*
X029750Y029900D03*
X030250Y029900D03*
X030250Y030500D03*
X029750Y030500D03*
X029750Y031900D03*
X030250Y031900D03*
X030250Y032500D03*
X029750Y032500D03*
X029750Y033500D03*
X030250Y033500D03*
X030250Y034050D03*
X029750Y034050D03*
D16*
X025900Y035150D03*
X025900Y035650D03*
D17*
X024856Y035385D03*
X024856Y036015D03*
X023144Y036015D03*
X023144Y035385D03*
D18*
X023000Y037500D03*
X025750Y034250D03*
X028750Y034250D03*
X030000Y036500D03*
X023000Y025500D03*
D19*
X024000Y025500D03*
X025000Y025500D03*
X026000Y025500D03*
X027000Y025500D03*
X028000Y025500D03*
X029000Y025500D03*
X030000Y025500D03*
X031000Y025500D03*
X032000Y025500D03*
X028750Y027250D03*
X028750Y028250D03*
X028750Y029250D03*
X028750Y030250D03*
X028750Y031250D03*
X028750Y032250D03*
X028750Y033250D03*
X025750Y033250D03*
X025750Y032250D03*
X025750Y031250D03*
X025750Y030250D03*
X025750Y029250D03*
X025750Y028250D03*
X025750Y027250D03*
X029000Y036500D03*
X029000Y037500D03*
X028000Y037500D03*
X027000Y037500D03*
X026000Y037500D03*
X025000Y037500D03*
X024000Y037500D03*
X030000Y037500D03*
X031000Y037500D03*
X032000Y037500D03*
D20*
X028000Y029833D03*
X027500Y029833D03*
X027000Y029833D03*
X026500Y029833D03*
X026500Y027667D03*
X027000Y027667D03*
X027500Y027667D03*
X028000Y027667D03*
M02*
