G75*
%MOIN*%
%OFA0B0*%
%FSLAX24Y24*%
%IPPOS*%
%LPD*%
%AMOC8*
5,1,8,0,0,1.08239X$1,22.5*
%
%ADD10C,0.0000*%
%ADD11C,0.0060*%
%ADD12C,0.0030*%
%ADD13C,0.0050*%
%ADD14C,0.0100*%
%ADD15R,0.1800X0.0300*%
%ADD16C,0.0040*%
%ADD17C,0.0250*%
D10*
X022500Y025000D02*
X022500Y038000D01*
X032500Y038000D01*
X032500Y025000D01*
X022500Y025000D01*
X030705Y027362D02*
X030707Y027412D01*
X030713Y027462D01*
X030723Y027511D01*
X030737Y027559D01*
X030754Y027606D01*
X030775Y027651D01*
X030800Y027695D01*
X030828Y027736D01*
X030860Y027775D01*
X030894Y027812D01*
X030931Y027846D01*
X030971Y027876D01*
X031013Y027903D01*
X031057Y027927D01*
X031103Y027948D01*
X031150Y027964D01*
X031198Y027977D01*
X031248Y027986D01*
X031297Y027991D01*
X031348Y027992D01*
X031398Y027989D01*
X031447Y027982D01*
X031496Y027971D01*
X031544Y027956D01*
X031590Y027938D01*
X031635Y027916D01*
X031678Y027890D01*
X031719Y027861D01*
X031758Y027829D01*
X031794Y027794D01*
X031826Y027756D01*
X031856Y027716D01*
X031883Y027673D01*
X031906Y027629D01*
X031925Y027583D01*
X031941Y027535D01*
X031953Y027486D01*
X031961Y027437D01*
X031965Y027387D01*
X031965Y027337D01*
X031961Y027287D01*
X031953Y027238D01*
X031941Y027189D01*
X031925Y027141D01*
X031906Y027095D01*
X031883Y027051D01*
X031856Y027008D01*
X031826Y026968D01*
X031794Y026930D01*
X031758Y026895D01*
X031719Y026863D01*
X031678Y026834D01*
X031635Y026808D01*
X031590Y026786D01*
X031544Y026768D01*
X031496Y026753D01*
X031447Y026742D01*
X031398Y026735D01*
X031348Y026732D01*
X031297Y026733D01*
X031248Y026738D01*
X031198Y026747D01*
X031150Y026760D01*
X031103Y026776D01*
X031057Y026797D01*
X031013Y026821D01*
X030971Y026848D01*
X030931Y026878D01*
X030894Y026912D01*
X030860Y026949D01*
X030828Y026988D01*
X030800Y027029D01*
X030775Y027073D01*
X030754Y027118D01*
X030737Y027165D01*
X030723Y027213D01*
X030713Y027262D01*
X030707Y027312D01*
X030705Y027362D01*
D11*
X030320Y027530D02*
X029893Y027530D01*
X029679Y027744D01*
X029893Y027957D01*
X030320Y027957D01*
X030213Y028175D02*
X030320Y028281D01*
X030320Y028495D01*
X030213Y028602D01*
X030000Y028602D01*
X030000Y028388D01*
X029786Y028175D02*
X030213Y028175D01*
X030000Y027957D02*
X030000Y027530D01*
X029679Y027312D02*
X029679Y026885D01*
X029679Y027099D02*
X030320Y027099D01*
X030213Y026561D02*
X029679Y026561D01*
X029679Y026454D02*
X029679Y026668D01*
X030213Y026561D02*
X030320Y026454D01*
X030320Y026348D01*
X030213Y026241D01*
X029786Y028175D02*
X029679Y028281D01*
X029679Y028495D01*
X029786Y028602D01*
X029520Y031269D02*
X028879Y031269D01*
X028879Y031589D01*
X028986Y031696D01*
X029200Y031696D01*
X029306Y031589D01*
X029306Y031269D01*
X029306Y031482D02*
X029520Y031696D01*
X029520Y031913D02*
X029520Y032340D01*
X029413Y032558D02*
X029520Y032664D01*
X029520Y032878D01*
X029413Y032985D01*
X029306Y032985D01*
X029200Y032878D01*
X029200Y032664D01*
X029093Y032558D01*
X028986Y032558D01*
X028879Y032664D01*
X028879Y032878D01*
X028986Y032985D01*
X028879Y033202D02*
X029520Y033202D01*
X029520Y033629D01*
X029200Y033416D02*
X029200Y033202D01*
X028879Y033202D02*
X028879Y033629D01*
X028879Y033847D02*
X028879Y034274D01*
X028879Y034060D02*
X029520Y034060D01*
X028845Y034635D02*
X028631Y034849D01*
X028845Y035062D01*
X028204Y035062D01*
X028204Y035280D02*
X028204Y035600D01*
X028311Y035707D01*
X028525Y035707D01*
X028631Y035600D01*
X028631Y035280D01*
X028845Y035280D02*
X028204Y035280D01*
X027795Y035385D02*
X027368Y035385D01*
X027154Y035171D01*
X027368Y034958D01*
X027795Y034958D01*
X027795Y034740D02*
X027795Y034313D01*
X027154Y034313D01*
X027154Y034096D02*
X027154Y033669D01*
X027795Y033669D01*
X027475Y033669D02*
X027475Y033882D01*
X028204Y034635D02*
X028845Y034635D01*
X027475Y034958D02*
X027475Y035385D01*
X027368Y035602D02*
X027475Y035709D01*
X027475Y035923D01*
X027581Y036029D01*
X027688Y036029D01*
X027795Y035923D01*
X027795Y035709D01*
X027688Y035602D01*
X027368Y035602D02*
X027261Y035602D01*
X027154Y035709D01*
X027154Y035923D01*
X027261Y036029D01*
X027154Y036247D02*
X027795Y036247D01*
X027475Y036247D02*
X027475Y036674D01*
X027795Y036674D02*
X027154Y036674D01*
X028879Y032340D02*
X028879Y031913D01*
X029520Y031913D01*
X029200Y031913D02*
X029200Y032127D01*
X023370Y028673D02*
X023370Y028460D01*
X023370Y028566D02*
X022729Y028566D01*
X022729Y028460D02*
X022729Y028673D01*
X022836Y028242D02*
X023050Y028242D01*
X023156Y028135D01*
X023156Y027815D01*
X023370Y027815D02*
X022729Y027815D01*
X022729Y028135D01*
X022836Y028242D01*
X022836Y027598D02*
X022729Y027491D01*
X022729Y027277D01*
X022836Y027171D01*
X022943Y027171D01*
X023050Y027277D01*
X023050Y027491D01*
X023156Y027598D01*
X023263Y027598D01*
X023370Y027491D01*
X023370Y027277D01*
X023263Y027171D01*
D12*
X023926Y027097D02*
X023926Y026903D01*
X023974Y026855D01*
X024071Y026855D01*
X024119Y026903D01*
X024220Y026903D02*
X024269Y026855D01*
X024365Y026855D01*
X024414Y026903D01*
X024414Y026952D01*
X024365Y027000D01*
X024269Y027000D01*
X024220Y027048D01*
X024220Y027097D01*
X024269Y027145D01*
X024365Y027145D01*
X024414Y027097D01*
X024119Y027097D02*
X024071Y027145D01*
X023974Y027145D01*
X023926Y027097D01*
X023926Y027855D02*
X024119Y027855D01*
X024220Y027855D02*
X024220Y028145D01*
X024269Y028000D02*
X024414Y027855D01*
X024220Y027952D02*
X024414Y028145D01*
X023926Y028145D02*
X023926Y027855D01*
X023825Y027903D02*
X023776Y027855D01*
X023679Y027855D01*
X023631Y027903D01*
X023631Y028097D01*
X023679Y028145D01*
X023776Y028145D01*
X023825Y028097D01*
X023826Y028855D02*
X023729Y028855D01*
X023778Y028855D02*
X023778Y029145D01*
X023826Y029145D02*
X023729Y029145D01*
X023628Y029145D02*
X023628Y028855D01*
X023435Y028855D02*
X023435Y029145D01*
X023531Y029048D01*
X023628Y029145D01*
X023926Y029097D02*
X023926Y029048D01*
X023974Y029000D01*
X024071Y029000D01*
X024119Y028952D01*
X024119Y028903D01*
X024071Y028855D01*
X023974Y028855D01*
X023926Y028903D01*
X023926Y029097D02*
X023974Y029145D01*
X024071Y029145D01*
X024119Y029097D01*
X024220Y029097D02*
X024220Y028903D01*
X024269Y028855D01*
X024365Y028855D01*
X024414Y028903D01*
X024414Y029097D01*
X024365Y029145D01*
X024269Y029145D01*
X024220Y029097D01*
X024868Y029765D02*
X025061Y029765D01*
X024964Y029765D02*
X024964Y030055D01*
X024868Y029958D01*
X024560Y030129D02*
X024491Y030061D01*
X024525Y030095D02*
X024389Y030232D01*
X024354Y030198D01*
X024320Y030300D02*
X024286Y030335D01*
X024186Y030435D02*
X024118Y030435D01*
X024049Y030503D01*
X024049Y030571D01*
X024118Y030640D01*
X024186Y030640D01*
X024254Y030571D01*
X024254Y030503D01*
X024186Y030435D01*
X024046Y030363D02*
X024046Y030295D01*
X023943Y030192D01*
X023738Y030397D01*
X023841Y030500D01*
X023909Y030500D01*
X024046Y030363D01*
X024180Y030160D02*
X024078Y030058D01*
X024283Y029853D01*
X024214Y029921D02*
X024317Y030024D01*
X024317Y030092D01*
X024249Y030160D01*
X024180Y030160D01*
X024360Y030609D02*
X024223Y030746D01*
X024258Y030780D01*
X024326Y030780D01*
X024326Y030848D01*
X024394Y030848D01*
X024497Y030746D01*
X024429Y030677D02*
X024326Y030780D01*
X024432Y030954D02*
X024466Y030988D01*
X024603Y030851D01*
X024568Y030817D02*
X024637Y030885D01*
X024707Y030956D02*
X024571Y031093D01*
X024673Y031195D01*
X024742Y031195D01*
X024844Y031093D01*
X024882Y031199D02*
X024950Y031199D01*
X025018Y031267D01*
X025018Y031335D01*
X024950Y031404D01*
X024882Y031404D01*
X024813Y031335D01*
X024813Y031267D01*
X024882Y031199D01*
X024397Y031056D02*
X024363Y031091D01*
X025351Y031453D02*
X025399Y031405D01*
X025496Y031405D01*
X025545Y031453D01*
X025545Y031502D01*
X025496Y031550D01*
X025399Y031550D01*
X025351Y031598D01*
X025351Y031647D01*
X025399Y031695D01*
X025496Y031695D01*
X025545Y031647D01*
X025646Y031695D02*
X025646Y031405D01*
X025742Y031502D01*
X025839Y031405D01*
X025839Y031695D01*
X025940Y031598D02*
X026037Y031695D01*
X026037Y031405D01*
X025940Y031405D02*
X026134Y031405D01*
X026013Y032605D02*
X025868Y032605D01*
X025868Y032895D01*
X026013Y032895D01*
X026061Y032847D01*
X026061Y032798D01*
X026013Y032750D01*
X025868Y032750D01*
X026013Y032750D02*
X026061Y032702D01*
X026061Y032653D01*
X026013Y032605D01*
X025682Y032605D02*
X025633Y032605D01*
X025633Y032653D01*
X025682Y032653D01*
X025682Y032605D01*
X025532Y032798D02*
X025435Y032605D01*
X025339Y032798D01*
X025238Y032750D02*
X025238Y032702D01*
X025044Y032702D01*
X025044Y032750D02*
X025092Y032798D01*
X025189Y032798D01*
X025238Y032750D01*
X025189Y032605D02*
X025092Y032605D01*
X025044Y032653D01*
X025044Y032750D01*
X024943Y032750D02*
X024894Y032702D01*
X024749Y032702D01*
X024749Y032605D02*
X024749Y032895D01*
X024894Y032895D01*
X024943Y032847D01*
X024943Y032750D01*
X024846Y032702D02*
X024943Y032605D01*
X026386Y032605D02*
X026580Y032798D01*
X026580Y032847D01*
X026532Y032895D01*
X026435Y032895D01*
X026386Y032847D01*
X026386Y032605D02*
X026580Y032605D01*
X026681Y032653D02*
X026875Y032847D01*
X026875Y032653D01*
X026826Y032605D01*
X026729Y032605D01*
X026681Y032653D01*
X026681Y032847D01*
X026729Y032895D01*
X026826Y032895D01*
X026875Y032847D01*
X026976Y032798D02*
X027072Y032895D01*
X027072Y032605D01*
X026976Y032605D02*
X027169Y032605D01*
X027270Y032750D02*
X027464Y032750D01*
X027565Y032653D02*
X027758Y032847D01*
X027758Y032653D01*
X027710Y032605D01*
X027613Y032605D01*
X027565Y032653D01*
X027565Y032847D01*
X027613Y032895D01*
X027710Y032895D01*
X027758Y032847D01*
X027860Y032847D02*
X027860Y032798D01*
X027908Y032750D01*
X028005Y032750D01*
X028053Y032702D01*
X028053Y032653D01*
X028005Y032605D01*
X027908Y032605D01*
X027860Y032653D01*
X027860Y032702D01*
X027908Y032750D01*
X028005Y032750D02*
X028053Y032798D01*
X028053Y032847D01*
X028005Y032895D01*
X027908Y032895D01*
X027860Y032847D01*
X028154Y032847D02*
X028203Y032895D01*
X028299Y032895D01*
X028348Y032847D01*
X028348Y032798D01*
X028154Y032605D01*
X028348Y032605D01*
X028449Y032605D02*
X028642Y032798D01*
X028642Y032847D01*
X028594Y032895D01*
X028497Y032895D01*
X028449Y032847D01*
X028449Y032605D02*
X028642Y032605D01*
X028976Y032635D02*
X029121Y032635D01*
X029169Y032587D01*
X029169Y032490D01*
X029121Y032442D01*
X028976Y032442D01*
X029072Y032442D02*
X029169Y032345D01*
X029270Y032490D02*
X029464Y032490D01*
X029415Y032345D02*
X029415Y032635D01*
X029270Y032490D01*
X028976Y032345D02*
X028976Y032635D01*
X028926Y033345D02*
X028926Y033635D01*
X029071Y033635D01*
X029119Y033587D01*
X029119Y033490D01*
X029071Y033442D01*
X028926Y033442D01*
X029022Y033442D02*
X029119Y033345D01*
X029220Y033393D02*
X029269Y033345D01*
X029365Y033345D01*
X029414Y033393D01*
X029414Y033442D01*
X029365Y033490D01*
X029317Y033490D01*
X029365Y033490D02*
X029414Y033538D01*
X029414Y033587D01*
X029365Y033635D01*
X029269Y033635D01*
X029220Y033587D01*
X029220Y034345D02*
X029414Y034538D01*
X029414Y034587D01*
X029365Y034635D01*
X029269Y034635D01*
X029220Y034587D01*
X029119Y034587D02*
X029119Y034490D01*
X029071Y034442D01*
X028926Y034442D01*
X029022Y034442D02*
X029119Y034345D01*
X029220Y034345D02*
X029414Y034345D01*
X029119Y034587D02*
X029071Y034635D01*
X028926Y034635D01*
X028926Y034345D01*
X028926Y034795D02*
X028926Y035085D01*
X029071Y035085D01*
X029119Y035037D01*
X029119Y034940D01*
X029071Y034892D01*
X028926Y034892D01*
X029022Y034892D02*
X029119Y034795D01*
X029220Y034843D02*
X029220Y034892D01*
X029269Y034940D01*
X029365Y034940D01*
X029414Y034892D01*
X029414Y034843D01*
X029365Y034795D01*
X029269Y034795D01*
X029220Y034843D01*
X029269Y034940D02*
X029220Y034988D01*
X029220Y035037D01*
X029269Y035085D01*
X029365Y035085D01*
X029414Y035037D01*
X029414Y034988D01*
X029365Y034940D01*
X030905Y035117D02*
X031195Y035117D01*
X031195Y035020D02*
X031195Y035214D01*
X031002Y035020D02*
X030905Y035117D01*
X031755Y035165D02*
X031755Y035069D01*
X031803Y035020D01*
X031755Y035165D02*
X031803Y035214D01*
X031852Y035214D01*
X032045Y035020D01*
X032045Y035214D01*
X031655Y036615D02*
X031558Y036615D01*
X031510Y036663D01*
X031510Y036760D02*
X031606Y036808D01*
X031655Y036808D01*
X031703Y036760D01*
X031703Y036663D01*
X031655Y036615D01*
X031510Y036760D02*
X031510Y036905D01*
X031703Y036905D01*
X031408Y036905D02*
X031312Y036905D01*
X031360Y036905D02*
X031360Y036663D01*
X031312Y036615D01*
X031263Y036615D01*
X031215Y036663D01*
X028344Y036627D02*
X028344Y036578D01*
X028295Y036530D01*
X028344Y036482D01*
X028344Y036433D01*
X028295Y036385D01*
X028199Y036385D01*
X028150Y036433D01*
X028247Y036530D02*
X028295Y036530D01*
X028344Y036627D02*
X028295Y036675D01*
X028199Y036675D01*
X028150Y036627D01*
X028049Y036675D02*
X027952Y036675D01*
X028001Y036675D02*
X028001Y036433D01*
X027952Y036385D01*
X027904Y036385D01*
X027856Y036433D01*
X027415Y032895D02*
X027270Y032750D01*
X027415Y032605D02*
X027415Y032895D01*
X028976Y031685D02*
X029121Y031685D01*
X029169Y031637D01*
X029169Y031540D01*
X029121Y031492D01*
X028976Y031492D01*
X029072Y031492D02*
X029169Y031395D01*
X029270Y031443D02*
X029319Y031395D01*
X029415Y031395D01*
X029464Y031443D01*
X029464Y031540D01*
X029415Y031588D01*
X029367Y031588D01*
X029270Y031540D01*
X029270Y031685D01*
X029464Y031685D01*
X028976Y031685D02*
X028976Y031395D01*
X027864Y030395D02*
X027670Y030395D01*
X027767Y030395D02*
X027767Y030685D01*
X027670Y030588D01*
X027569Y030540D02*
X027521Y030492D01*
X027376Y030492D01*
X027472Y030492D02*
X027569Y030395D01*
X027569Y030540D02*
X027569Y030637D01*
X027521Y030685D01*
X027376Y030685D01*
X027376Y030395D01*
X028765Y030117D02*
X029055Y030117D01*
X029055Y030020D02*
X029055Y030214D01*
X029265Y030064D02*
X029313Y030064D01*
X029507Y029870D01*
X029555Y029870D01*
X029555Y029769D02*
X029458Y029672D01*
X029458Y029721D02*
X029458Y029576D01*
X029555Y029576D02*
X029265Y029576D01*
X029265Y029721D01*
X029313Y029769D01*
X029410Y029769D01*
X029458Y029721D01*
X029265Y029870D02*
X029265Y030064D01*
X029055Y029871D02*
X029007Y029919D01*
X029055Y029871D02*
X029055Y029774D01*
X029007Y029726D01*
X028813Y029726D01*
X028765Y029774D01*
X028765Y029871D01*
X028813Y029919D01*
X028862Y030020D02*
X028765Y030117D01*
X029876Y030042D02*
X030021Y030042D01*
X030069Y030090D01*
X030069Y030187D01*
X030021Y030235D01*
X029876Y030235D01*
X029876Y029945D01*
X029972Y030042D02*
X030069Y029945D01*
X030170Y029993D02*
X030219Y029945D01*
X030315Y029945D01*
X030364Y029993D01*
X030364Y030042D01*
X030315Y030090D01*
X030170Y030090D01*
X030170Y029993D01*
X030170Y030090D02*
X030267Y030187D01*
X030364Y030235D01*
X029515Y029135D02*
X029419Y029135D01*
X029370Y029087D01*
X029269Y029087D02*
X029221Y029135D01*
X029124Y029135D01*
X029076Y029087D01*
X029076Y028893D01*
X029124Y028845D01*
X029221Y028845D01*
X029269Y028893D01*
X029370Y028845D02*
X029564Y029038D01*
X029564Y029087D01*
X029515Y029135D01*
X029564Y028845D02*
X029370Y028845D01*
X027692Y028903D02*
X027644Y028855D01*
X027547Y028855D01*
X027499Y028903D01*
X027499Y029000D02*
X027596Y029048D01*
X027644Y029048D01*
X027692Y029000D01*
X027692Y028903D01*
X027499Y029000D02*
X027499Y029145D01*
X027692Y029145D01*
X027398Y029145D02*
X027398Y028952D01*
X027301Y028855D01*
X027204Y028952D01*
X027204Y029145D01*
X027103Y029097D02*
X027055Y029145D01*
X026958Y029145D01*
X026910Y029097D01*
X026808Y029000D02*
X026615Y029000D01*
X026712Y029097D02*
X026712Y028903D01*
X026910Y028855D02*
X027103Y029048D01*
X027103Y029097D01*
X027103Y028855D02*
X026910Y028855D01*
X026958Y028145D02*
X026910Y028097D01*
X026910Y027903D01*
X026958Y027855D01*
X027055Y027855D01*
X027103Y027903D01*
X027103Y028097D01*
X027055Y028145D01*
X026958Y028145D01*
X026808Y028145D02*
X026808Y027855D01*
X026615Y027855D02*
X026615Y028145D01*
X026712Y028048D01*
X026808Y028145D01*
X027204Y028097D02*
X027204Y028048D01*
X027253Y028000D01*
X027349Y028000D01*
X027398Y027952D01*
X027398Y027903D01*
X027349Y027855D01*
X027253Y027855D01*
X027204Y027903D01*
X027204Y028097D02*
X027253Y028145D01*
X027349Y028145D01*
X027398Y028097D01*
X027499Y028145D02*
X027596Y028145D01*
X027547Y028145D02*
X027547Y027855D01*
X027499Y027855D02*
X027596Y027855D01*
X027349Y027145D02*
X027204Y027145D01*
X027204Y026855D01*
X027349Y026855D01*
X027398Y026903D01*
X027398Y027097D01*
X027349Y027145D01*
X027103Y027145D02*
X027103Y026855D01*
X026910Y027145D01*
X026910Y026855D01*
X026808Y026903D02*
X026808Y027000D01*
X026712Y027000D01*
X026808Y026903D02*
X026760Y026855D01*
X026663Y026855D01*
X026615Y026903D01*
X026615Y027097D01*
X026663Y027145D01*
X026760Y027145D01*
X026808Y027097D01*
X026311Y026235D02*
X026214Y026187D01*
X026118Y026090D01*
X026263Y026090D01*
X026311Y026042D01*
X026311Y025993D01*
X026263Y025945D01*
X026166Y025945D01*
X026118Y025993D01*
X026118Y026090D01*
X025703Y026260D02*
X025510Y026260D01*
X025655Y026405D01*
X025655Y026115D01*
X025360Y026163D02*
X025360Y026405D01*
X025312Y026405D02*
X025408Y026405D01*
X025360Y026163D02*
X025312Y026115D01*
X025263Y026115D01*
X025215Y026163D01*
D13*
X024500Y026500D02*
X024500Y029500D01*
X026500Y029500D01*
X026500Y026500D01*
X024500Y026500D01*
X029700Y028800D02*
X029700Y029200D01*
X030500Y029200D01*
X030500Y028800D01*
X029700Y028800D01*
X029650Y030150D02*
X029150Y030150D01*
X029150Y031150D01*
X028750Y031150D01*
X028750Y030350D01*
X029150Y030350D01*
X029150Y031150D01*
X029650Y031150D01*
X029650Y030150D01*
X029700Y030300D02*
X030500Y030300D01*
X030500Y030700D01*
X029700Y030700D01*
X029700Y030300D01*
X028750Y030350D02*
X028750Y030750D01*
X027950Y030750D01*
X027950Y030350D01*
X028750Y030350D01*
X028750Y030750D02*
X028750Y032250D01*
X026250Y032250D01*
X026250Y030750D01*
X028750Y030750D01*
X029700Y031300D02*
X030500Y031300D01*
X030500Y031700D01*
X029700Y031700D01*
X029700Y031300D01*
X029500Y032250D02*
X029500Y032750D01*
X030500Y032750D01*
X030500Y032250D01*
X029500Y032250D01*
X029700Y033300D02*
X030500Y033300D01*
X030500Y033700D01*
X029700Y033700D01*
X029700Y033300D01*
X029700Y034300D02*
X030500Y034300D01*
X030500Y034700D01*
X030500Y035200D01*
X029500Y035200D01*
X029500Y034700D01*
X030500Y034700D01*
X029700Y034700D01*
X029700Y034300D01*
X029500Y036000D02*
X028500Y036000D01*
X028500Y037000D01*
X029500Y037000D01*
X029500Y036000D01*
X030500Y036000D01*
X030500Y037000D01*
X029500Y037000D01*
X030500Y036500D02*
X030500Y026500D01*
X035750Y026500D01*
X035750Y036500D01*
X030500Y036500D01*
X027239Y033370D02*
X027221Y033370D01*
X027239Y033370D02*
X027253Y033369D01*
X027266Y033365D01*
X027279Y033359D01*
X027290Y033351D01*
X027310Y033320D02*
X027316Y033310D01*
X027319Y033298D01*
X027320Y033286D01*
X027320Y033240D01*
X027120Y033150D01*
X027120Y033114D01*
X027120Y033150D02*
X027120Y033251D01*
X027128Y033308D02*
X027141Y033331D01*
X027291Y033350D02*
X027302Y033336D01*
X027311Y033320D01*
X027317Y033303D01*
X027128Y033307D02*
X027124Y033289D01*
X027121Y033270D01*
X027120Y033251D01*
X027140Y033331D02*
X027151Y033343D01*
X027164Y033353D01*
X027179Y033361D01*
X027195Y033367D01*
X027211Y033370D01*
X027305Y033060D02*
X027293Y033046D01*
X027278Y033035D01*
X027261Y033027D01*
X027243Y033022D01*
X027225Y033020D01*
X027210Y033020D01*
X027194Y033021D01*
X027178Y033026D01*
X027164Y033033D01*
X027151Y033043D01*
X027140Y033055D01*
X027131Y033069D01*
X027125Y033084D01*
X027121Y033099D01*
X027120Y033114D01*
X027305Y033060D02*
X027313Y033074D01*
X027318Y033089D01*
X027320Y033105D01*
X026770Y033251D02*
X026771Y033270D01*
X026774Y033289D01*
X026778Y033307D01*
X026778Y033308D02*
X026791Y033331D01*
X026861Y033370D02*
X026879Y033370D01*
X026930Y033350D02*
X026940Y033340D01*
X026967Y033293D02*
X026970Y033270D01*
X026930Y033351D02*
X026919Y033359D01*
X026906Y033365D01*
X026893Y033369D01*
X026879Y033370D01*
X026941Y033340D02*
X026952Y033326D01*
X026961Y033310D01*
X026967Y033293D01*
X026861Y033370D02*
X026845Y033367D01*
X026829Y033361D01*
X026814Y033353D01*
X026801Y033343D01*
X026790Y033331D01*
X026770Y033251D02*
X026770Y033020D01*
X026640Y033020D02*
X026640Y033250D01*
X026480Y033180D01*
X026640Y033265D02*
X026637Y033284D01*
X026632Y033303D01*
X026624Y033321D01*
X026613Y033337D01*
X026599Y033351D01*
X026549Y033370D02*
X026521Y033370D01*
X026549Y033370D02*
X026563Y033369D01*
X026576Y033365D01*
X026589Y033359D01*
X026600Y033351D01*
X026640Y033265D02*
X026640Y033250D01*
X026521Y033370D02*
X026505Y033367D01*
X026489Y033361D01*
X026474Y033353D01*
X026461Y033343D01*
X026450Y033331D01*
X026451Y033331D02*
X026430Y033300D01*
X026290Y033370D02*
X026290Y033095D01*
X026288Y033079D01*
X026283Y033064D01*
X026275Y033050D01*
X026195Y033010D02*
X026180Y033010D01*
X026164Y033011D01*
X026148Y033016D01*
X026134Y033023D01*
X026121Y033033D01*
X026110Y033045D01*
X026101Y033059D01*
X026090Y033104D02*
X026090Y033105D01*
X026090Y033370D01*
X025890Y033371D02*
X025890Y033114D01*
X025901Y033069D02*
X025910Y033055D01*
X025921Y033043D01*
X025934Y033033D01*
X025948Y033026D01*
X025964Y033021D01*
X025980Y033020D01*
X025995Y033020D01*
X026075Y033060D02*
X026083Y033074D01*
X026088Y033089D01*
X026090Y033105D01*
X026075Y033060D02*
X026063Y033046D01*
X026048Y033035D01*
X026031Y033027D01*
X026013Y033022D01*
X025995Y033020D01*
X025901Y033069D02*
X025895Y033084D01*
X025891Y033099D01*
X025890Y033114D01*
X025760Y033105D02*
X025760Y033520D01*
X025679Y033370D02*
X025661Y033370D01*
X025679Y033370D02*
X025693Y033369D01*
X025706Y033365D01*
X025719Y033359D01*
X025730Y033351D01*
X025731Y033350D02*
X025742Y033336D01*
X025751Y033320D01*
X025757Y033303D01*
X025568Y033307D02*
X025564Y033289D01*
X025561Y033270D01*
X025560Y033251D01*
X025560Y033114D01*
X025571Y033069D02*
X025580Y033055D01*
X025591Y033043D01*
X025604Y033033D01*
X025618Y033026D01*
X025634Y033021D01*
X025650Y033020D01*
X025665Y033020D01*
X025745Y033060D02*
X025753Y033074D01*
X025758Y033089D01*
X025760Y033105D01*
X025745Y033060D02*
X025733Y033046D01*
X025718Y033035D01*
X025701Y033027D01*
X025683Y033022D01*
X025665Y033020D01*
X025571Y033069D02*
X025565Y033084D01*
X025561Y033099D01*
X025560Y033114D01*
X025240Y033251D02*
X025241Y033270D01*
X025244Y033289D01*
X025248Y033307D01*
X025248Y033308D02*
X025261Y033331D01*
X025331Y033370D02*
X025349Y033370D01*
X025400Y033350D02*
X025410Y033340D01*
X025437Y033293D02*
X025440Y033270D01*
X025400Y033351D02*
X025389Y033359D01*
X025376Y033365D01*
X025363Y033369D01*
X025349Y033370D01*
X025411Y033340D02*
X025422Y033326D01*
X025431Y033310D01*
X025437Y033293D01*
X025331Y033370D02*
X025315Y033367D01*
X025299Y033361D01*
X025284Y033353D01*
X025271Y033343D01*
X025260Y033331D01*
X025240Y033251D02*
X025240Y033020D01*
X025110Y033020D02*
X025110Y033250D01*
X024950Y033180D01*
X025110Y033265D02*
X025107Y033284D01*
X025102Y033303D01*
X025094Y033321D01*
X025083Y033337D01*
X025069Y033351D01*
X025019Y033370D02*
X024991Y033370D01*
X025019Y033370D02*
X025033Y033369D01*
X025046Y033365D01*
X025059Y033359D01*
X025070Y033351D01*
X025110Y033265D02*
X025110Y033250D01*
X024991Y033370D02*
X024975Y033367D01*
X024959Y033361D01*
X024944Y033353D01*
X024931Y033343D01*
X024920Y033331D01*
X024921Y033331D02*
X024900Y033300D01*
X024760Y033265D02*
X024760Y033020D01*
X024890Y033070D02*
X024894Y033057D01*
X024900Y033045D01*
X024909Y033035D01*
X024920Y033027D01*
X024933Y033021D01*
X024946Y033019D01*
X024960Y033020D01*
X025030Y033030D01*
X024890Y033070D02*
X024886Y033087D01*
X024887Y033104D01*
X024890Y033122D01*
X024897Y033138D01*
X024907Y033152D01*
X024919Y033164D01*
X024934Y033174D01*
X024950Y033180D01*
X024720Y033351D02*
X024709Y033359D01*
X024696Y033365D01*
X024683Y033369D01*
X024669Y033370D01*
X024641Y033370D01*
X024571Y033331D02*
X024550Y033300D01*
X024550Y033520D01*
X024550Y033300D02*
X024550Y033020D01*
X024760Y033265D02*
X024757Y033284D01*
X024752Y033303D01*
X024744Y033321D01*
X024733Y033337D01*
X024719Y033351D01*
X024641Y033370D02*
X024625Y033367D01*
X024609Y033361D01*
X024594Y033353D01*
X024581Y033343D01*
X024570Y033331D01*
X025568Y033308D02*
X025581Y033331D01*
X025580Y033331D02*
X025591Y033343D01*
X025604Y033353D01*
X025619Y033361D01*
X025635Y033367D01*
X025651Y033370D01*
X026090Y033104D02*
X026091Y033089D01*
X026095Y033074D01*
X026101Y033059D01*
X026195Y033010D02*
X026213Y033012D01*
X026231Y033017D01*
X026248Y033025D01*
X026263Y033036D01*
X026275Y033050D01*
X026420Y033070D02*
X026424Y033057D01*
X026430Y033045D01*
X026439Y033035D01*
X026450Y033027D01*
X026463Y033021D01*
X026476Y033019D01*
X026490Y033020D01*
X026560Y033030D01*
X026420Y033070D02*
X026416Y033087D01*
X026417Y033104D01*
X026420Y033122D01*
X026427Y033138D01*
X026437Y033152D01*
X026449Y033164D01*
X026464Y033174D01*
X026480Y033180D01*
D14*
X025950Y033850D02*
X025630Y034070D01*
X025480Y033980D01*
X025230Y034610D01*
X025300Y034590D02*
X025390Y034650D01*
X025530Y034920D01*
X025530Y035120D01*
X025440Y035370D01*
X025250Y035530D01*
X024940Y035590D01*
X024610Y035430D01*
X024450Y035150D01*
X024500Y034840D01*
X024700Y034600D01*
X024490Y034060D01*
X024380Y034130D01*
X024070Y033930D01*
X023880Y034090D01*
X024090Y034440D01*
X023920Y034820D01*
X023570Y034900D01*
X023570Y035170D01*
X023970Y035260D01*
X024110Y035640D01*
X023880Y035990D01*
X024040Y036170D01*
X024070Y036180D01*
X024180Y036080D01*
X024400Y035910D01*
X024460Y035950D01*
X024790Y036110D01*
X024870Y036510D01*
X025130Y036520D01*
X025220Y036100D01*
X025590Y035910D01*
X025960Y036170D01*
X026140Y035980D01*
X025900Y035670D01*
X026040Y035280D01*
X026460Y035190D01*
X026460Y034910D01*
X026070Y034830D01*
X025900Y034450D01*
X026130Y034120D01*
X025950Y033920D01*
X025920Y033940D01*
X025620Y034130D01*
X025500Y034070D01*
X025300Y034590D01*
X025314Y034555D02*
X025947Y034555D01*
X025991Y034653D02*
X025392Y034653D01*
X025443Y034752D02*
X026035Y034752D01*
X026110Y034790D02*
X025970Y034430D01*
X026200Y034100D01*
X025950Y033850D01*
X025989Y033964D02*
X025883Y033964D01*
X025727Y034062D02*
X026078Y034062D01*
X026102Y034161D02*
X025465Y034161D01*
X025427Y034259D02*
X026033Y034259D01*
X025964Y034358D02*
X025389Y034358D01*
X025352Y034456D02*
X025903Y034456D01*
X026110Y034790D02*
X026510Y034860D01*
X026510Y035220D01*
X026100Y035300D01*
X025960Y035640D01*
X026200Y035980D01*
X025950Y036230D01*
X025590Y035990D01*
X025260Y036130D01*
X025180Y036550D01*
X024830Y036550D01*
X024750Y036130D01*
X024410Y035990D01*
X024060Y036230D01*
X023820Y035980D01*
X024050Y035640D01*
X023910Y035290D01*
X023500Y035220D01*
X023500Y034860D01*
X023900Y034790D01*
X024040Y034430D01*
X023810Y034100D01*
X024070Y033850D01*
X024390Y034070D01*
X024530Y033980D01*
X024780Y034610D01*
X024682Y034555D02*
X024039Y034555D01*
X023995Y034653D02*
X024656Y034653D01*
X024574Y034752D02*
X023951Y034752D01*
X023789Y034850D02*
X024498Y034850D01*
X024482Y034949D02*
X023570Y034949D01*
X023570Y035047D02*
X024467Y035047D01*
X024451Y035146D02*
X023570Y035146D01*
X023899Y035244D02*
X024504Y035244D01*
X024560Y035343D02*
X024000Y035343D01*
X024037Y035441D02*
X024633Y035441D01*
X024836Y035540D02*
X024073Y035540D01*
X024109Y035638D02*
X025911Y035638D01*
X025947Y035540D02*
X025201Y035540D01*
X025356Y035441D02*
X025982Y035441D01*
X026018Y035343D02*
X025450Y035343D01*
X025485Y035244D02*
X026208Y035244D01*
X026460Y035146D02*
X025521Y035146D01*
X025530Y035047D02*
X026460Y035047D01*
X026460Y034949D02*
X025530Y034949D01*
X025494Y034850D02*
X026168Y034850D01*
X025230Y034610D02*
X025267Y034632D01*
X025302Y034658D01*
X025334Y034686D01*
X025363Y034717D01*
X025390Y034751D01*
X025413Y034787D01*
X025433Y034825D01*
X025450Y034864D01*
X025463Y034905D01*
X025473Y034947D01*
X025478Y034990D01*
X025480Y035033D01*
X025478Y035076D01*
X025472Y035118D01*
X025462Y035160D01*
X025449Y035201D01*
X025432Y035240D01*
X025411Y035278D01*
X025388Y035314D01*
X025361Y035348D01*
X025331Y035379D01*
X025299Y035407D01*
X025264Y035432D01*
X025227Y035454D01*
X025188Y035473D01*
X025148Y035488D01*
X025107Y035499D01*
X025064Y035507D01*
X025021Y035511D01*
X024979Y035511D01*
X024936Y035507D01*
X024893Y035499D01*
X024852Y035488D01*
X024812Y035473D01*
X024773Y035454D01*
X024736Y035432D01*
X024701Y035407D01*
X024669Y035379D01*
X024639Y035348D01*
X024612Y035314D01*
X024589Y035278D01*
X024568Y035240D01*
X024551Y035201D01*
X024538Y035160D01*
X024528Y035118D01*
X024522Y035076D01*
X024520Y035033D01*
X024522Y034990D01*
X024527Y034947D01*
X024537Y034905D01*
X024550Y034864D01*
X024567Y034825D01*
X024587Y034787D01*
X024610Y034751D01*
X024637Y034717D01*
X024666Y034686D01*
X024698Y034658D01*
X024733Y034632D01*
X024770Y034610D01*
X024644Y034456D02*
X024083Y034456D01*
X024041Y034358D02*
X024606Y034358D01*
X024567Y034259D02*
X023981Y034259D01*
X023922Y034161D02*
X024529Y034161D01*
X024491Y034062D02*
X024487Y034062D01*
X024275Y034062D02*
X023913Y034062D01*
X024030Y033964D02*
X024122Y033964D01*
X024089Y033380D02*
X024061Y033380D01*
X023991Y033351D02*
X023989Y033349D01*
X023960Y033279D02*
X023960Y033081D01*
X023791Y033071D02*
X023789Y033069D01*
X023791Y033070D02*
X023799Y033081D01*
X023805Y033094D01*
X023809Y033107D01*
X023810Y033121D01*
X023790Y033069D02*
X023778Y033059D01*
X023764Y033051D01*
X023750Y033045D01*
X023735Y033041D01*
X023719Y033040D01*
X023691Y033040D01*
X023621Y033069D02*
X023619Y033071D01*
X023590Y033141D02*
X023590Y033279D01*
X023619Y033349D02*
X023621Y033351D01*
X023691Y033380D02*
X023719Y033380D01*
X023789Y033351D02*
X023791Y033349D01*
X023810Y033290D02*
X023599Y033160D01*
X023590Y033141D02*
X023592Y033121D01*
X023598Y033103D01*
X023607Y033085D01*
X023619Y033070D01*
X023620Y033069D02*
X023632Y033059D01*
X023646Y033051D01*
X023660Y033045D01*
X023675Y033041D01*
X023691Y033040D01*
X023590Y033279D02*
X023592Y033299D01*
X023598Y033317D01*
X023607Y033335D01*
X023619Y033350D01*
X023620Y033351D02*
X023632Y033361D01*
X023646Y033369D01*
X023660Y033375D01*
X023675Y033379D01*
X023691Y033380D01*
X023791Y033350D02*
X023799Y033339D01*
X023805Y033326D01*
X023809Y033313D01*
X023810Y033299D01*
X023790Y033351D02*
X023778Y033361D01*
X023764Y033369D01*
X023750Y033375D01*
X023735Y033379D01*
X023719Y033380D01*
X023450Y033279D02*
X023450Y033141D01*
X023421Y033071D02*
X023419Y033069D01*
X023349Y033040D02*
X023321Y033040D01*
X023251Y033069D02*
X023249Y033071D01*
X023220Y033141D02*
X023220Y033279D01*
X023220Y033280D01*
X023249Y033349D02*
X023251Y033351D01*
X023321Y033380D02*
X023349Y033380D01*
X023419Y033351D02*
X023421Y033349D01*
X023420Y033351D02*
X023408Y033361D01*
X023394Y033369D01*
X023380Y033375D01*
X023365Y033379D01*
X023349Y033380D01*
X023421Y033350D02*
X023433Y033335D01*
X023442Y033317D01*
X023448Y033299D01*
X023450Y033279D01*
X023321Y033380D02*
X023305Y033379D01*
X023290Y033375D01*
X023276Y033369D01*
X023262Y033361D01*
X023250Y033351D01*
X023249Y033350D02*
X023237Y033335D01*
X023228Y033317D01*
X023222Y033299D01*
X023220Y033279D01*
X023220Y033141D02*
X023220Y032900D01*
X023031Y033071D02*
X023029Y033069D01*
X022959Y033040D02*
X022931Y033040D01*
X022861Y033069D02*
X022859Y033071D01*
X022830Y033141D02*
X022830Y033279D01*
X022859Y033349D02*
X022861Y033351D01*
X022931Y033380D02*
X022959Y033380D01*
X023029Y033351D02*
X023031Y033349D01*
X023060Y033279D02*
X023060Y033141D01*
X023058Y033121D01*
X023052Y033103D01*
X023043Y033085D01*
X023031Y033070D01*
X023030Y033069D02*
X023018Y033059D01*
X023004Y033051D01*
X022990Y033045D01*
X022975Y033041D01*
X022959Y033040D01*
X022931Y033040D02*
X022915Y033041D01*
X022900Y033045D01*
X022886Y033051D01*
X022872Y033059D01*
X022860Y033069D01*
X022859Y033070D02*
X022847Y033085D01*
X022838Y033103D01*
X022832Y033121D01*
X022830Y033141D01*
X022830Y033279D02*
X022832Y033299D01*
X022838Y033317D01*
X022847Y033335D01*
X022859Y033350D01*
X022860Y033351D02*
X022872Y033361D01*
X022886Y033369D01*
X022900Y033375D01*
X022915Y033379D01*
X022931Y033380D01*
X022959Y033380D02*
X022975Y033379D01*
X022990Y033375D01*
X023004Y033369D01*
X023018Y033361D01*
X023030Y033351D01*
X023031Y033350D02*
X023043Y033335D01*
X023052Y033317D01*
X023058Y033299D01*
X023060Y033279D01*
X023220Y033141D02*
X023222Y033121D01*
X023228Y033103D01*
X023237Y033085D01*
X023249Y033070D01*
X023250Y033069D02*
X023262Y033059D01*
X023276Y033051D01*
X023290Y033045D01*
X023305Y033041D01*
X023321Y033040D01*
X023349Y033040D02*
X023365Y033041D01*
X023380Y033045D01*
X023394Y033051D01*
X023408Y033059D01*
X023420Y033069D01*
X023421Y033070D02*
X023433Y033085D01*
X023442Y033103D01*
X023448Y033121D01*
X023450Y033141D01*
X023960Y033279D02*
X023962Y033299D01*
X023968Y033317D01*
X023977Y033335D01*
X023989Y033350D01*
X023990Y033351D02*
X024002Y033361D01*
X024016Y033369D01*
X024030Y033375D01*
X024045Y033379D01*
X024061Y033380D01*
X024159Y033351D02*
X024161Y033349D01*
X024190Y033279D02*
X024190Y033041D01*
X024190Y033279D02*
X024188Y033299D01*
X024182Y033317D01*
X024173Y033335D01*
X024161Y033350D01*
X024160Y033351D02*
X024148Y033361D01*
X024134Y033369D01*
X024120Y033375D01*
X024105Y033379D01*
X024089Y033380D01*
X024047Y035737D02*
X025952Y035737D01*
X026028Y035835D02*
X023982Y035835D01*
X023917Y035934D02*
X024370Y035934D01*
X024435Y035934D02*
X025544Y035934D01*
X025623Y035934D02*
X026104Y035934D01*
X026091Y036032D02*
X025764Y036032D01*
X025904Y036131D02*
X025997Y036131D01*
X025352Y036032D02*
X024629Y036032D01*
X024794Y036131D02*
X025213Y036131D01*
X025192Y036229D02*
X024814Y036229D01*
X024834Y036328D02*
X025171Y036328D01*
X025150Y036426D02*
X024853Y036426D01*
X024242Y036032D02*
X023917Y036032D01*
X024005Y036131D02*
X024124Y036131D01*
X028150Y028800D02*
X028200Y028800D01*
X028200Y028500D01*
X028850Y028500D01*
X028780Y027410D01*
X028592Y027250D02*
X028594Y027275D01*
X028600Y027299D01*
X028609Y027322D01*
X028622Y027343D01*
X028638Y027362D01*
X028657Y027378D01*
X028678Y027391D01*
X028701Y027400D01*
X028725Y027406D01*
X028750Y027408D01*
X028775Y027406D01*
X028799Y027400D01*
X028822Y027391D01*
X028843Y027378D01*
X028862Y027362D01*
X028878Y027343D01*
X028891Y027322D01*
X028900Y027299D01*
X028906Y027275D01*
X028908Y027250D01*
X028906Y027225D01*
X028900Y027201D01*
X028891Y027178D01*
X028878Y027157D01*
X028862Y027138D01*
X028843Y027122D01*
X028822Y027109D01*
X028799Y027100D01*
X028775Y027094D01*
X028750Y027092D01*
X028725Y027094D01*
X028701Y027100D01*
X028678Y027109D01*
X028657Y027122D01*
X028638Y027138D01*
X028622Y027157D01*
X028609Y027178D01*
X028600Y027201D01*
X028594Y027225D01*
X028592Y027250D01*
X028590Y027250D02*
X028200Y027250D01*
X028200Y027100D01*
X028050Y027100D01*
X028050Y027250D01*
X027950Y028500D01*
X028150Y028500D01*
X028150Y028800D01*
X028350Y028800D02*
X028450Y028800D01*
X028450Y028900D01*
X028350Y028900D01*
X028350Y028800D01*
X028200Y028500D02*
X028150Y028500D01*
X027950Y028500D02*
X027900Y028500D01*
X027650Y028600D02*
X029150Y027100D01*
X028740Y027250D02*
X028742Y027255D01*
X028746Y027259D01*
X028751Y027260D01*
X028757Y027258D01*
X028760Y027253D01*
X028760Y027247D01*
X028757Y027242D01*
X028751Y027240D01*
X028746Y027241D01*
X028742Y027245D01*
X028740Y027250D01*
X028200Y027250D02*
X028050Y027250D01*
X027650Y027100D02*
X028850Y028300D01*
X029150Y028600D01*
X028950Y028450D02*
X028950Y028300D01*
X028850Y028300D01*
X028950Y028450D02*
X028900Y028500D01*
X028850Y028500D01*
X028750Y028550D02*
X028752Y028563D01*
X028757Y028576D01*
X028766Y028587D01*
X028777Y028594D01*
X028790Y028599D01*
X028803Y028600D01*
X028817Y028597D01*
X028829Y028591D01*
X028839Y028582D01*
X028846Y028570D01*
X028850Y028557D01*
X028850Y028543D01*
X028846Y028530D01*
X028839Y028518D01*
X028829Y028509D01*
X028817Y028503D01*
X028803Y028500D01*
X028790Y028501D01*
X028777Y028506D01*
X028766Y028513D01*
X028757Y028524D01*
X028752Y028537D01*
X028750Y028550D01*
X028650Y028250D02*
X028350Y028250D01*
X028350Y028150D01*
X028650Y028150D01*
X028650Y028250D01*
X028850Y028500D02*
X028829Y028537D01*
X028805Y028573D01*
X028778Y028606D01*
X028749Y028637D01*
X028717Y028666D01*
X028682Y028691D01*
X028646Y028714D01*
X028608Y028733D01*
X028568Y028749D01*
X028527Y028762D01*
X028485Y028771D01*
X028443Y028776D01*
X028400Y028778D01*
X028357Y028776D01*
X028315Y028771D01*
X028273Y028762D01*
X028232Y028749D01*
X028192Y028733D01*
X028154Y028714D01*
X028118Y028691D01*
X028083Y028666D01*
X028051Y028637D01*
X028022Y028606D01*
X027995Y028573D01*
X027971Y028537D01*
X027950Y028500D01*
D15*
X028400Y026650D03*
D16*
X024354Y031096D02*
X023823Y030566D01*
X023800Y030546D01*
X023775Y030529D01*
X023749Y030515D01*
X023720Y030504D01*
X023691Y030497D01*
X023661Y030493D01*
X023631Y030493D01*
X023601Y030497D01*
X023572Y030504D01*
X023543Y030515D01*
X023517Y030529D01*
X023492Y030546D01*
X023469Y030566D01*
X023470Y030566D02*
X023116Y030920D01*
X023116Y030919D02*
X023096Y030942D01*
X023079Y030967D01*
X023065Y030993D01*
X023054Y031022D01*
X023047Y031051D01*
X023043Y031081D01*
X023043Y031111D01*
X023047Y031141D01*
X023054Y031170D01*
X023065Y031199D01*
X023079Y031225D01*
X023096Y031250D01*
X023116Y031273D01*
X023646Y031804D01*
X024354Y031096D01*
X024884Y031627D01*
X024904Y031650D01*
X024921Y031675D01*
X024935Y031701D01*
X024946Y031730D01*
X024953Y031759D01*
X024957Y031789D01*
X024957Y031819D01*
X024953Y031849D01*
X024946Y031878D01*
X024935Y031907D01*
X024921Y031933D01*
X024904Y031958D01*
X024884Y031981D01*
X024884Y031980D02*
X024530Y032334D01*
X024531Y032334D02*
X024508Y032354D01*
X024483Y032371D01*
X024457Y032385D01*
X024428Y032396D01*
X024399Y032403D01*
X024369Y032407D01*
X024339Y032407D01*
X024309Y032403D01*
X024280Y032396D01*
X024251Y032385D01*
X024225Y032371D01*
X024200Y032354D01*
X024177Y032334D01*
X023646Y031804D01*
D17*
X023646Y031450D03*
X023293Y031096D03*
X023646Y030743D03*
X024000Y031096D03*
X024354Y031450D03*
X024354Y032157D03*
M02*
