G75*
%MOIN*%
%OFA0B0*%
%FSLAX24Y24*%
%IPPOS*%
%LPD*%
%AMOC8*
5,1,8,0,0,1.08239X$1,22.5*
%
%ADD10C,0.0000*%
%ADD11R,0.0200X0.0200*%
%ADD12R,0.0432X0.0432*%
%ADD13C,0.0432*%
%ADD14R,0.0250X0.0350*%
%ADD15R,0.0350X0.0250*%
%ADD16R,0.0531X0.0394*%
%ADD17R,0.0740X0.0740*%
%ADD18C,0.0740*%
%ADD19R,0.0472X0.0472*%
%ADD20C,0.0472*%
%ADD21C,0.0080*%
%ADD22C,0.0197*%
%ADD23C,0.0200*%
D10*
X022500Y025000D02*
X022500Y038000D01*
X032500Y038000D01*
X032500Y025000D01*
X022500Y025000D01*
X030705Y027362D02*
X030707Y027412D01*
X030713Y027462D01*
X030723Y027511D01*
X030737Y027559D01*
X030754Y027606D01*
X030775Y027651D01*
X030800Y027695D01*
X030828Y027736D01*
X030860Y027775D01*
X030894Y027812D01*
X030931Y027846D01*
X030971Y027876D01*
X031013Y027903D01*
X031057Y027927D01*
X031103Y027948D01*
X031150Y027964D01*
X031198Y027977D01*
X031248Y027986D01*
X031297Y027991D01*
X031348Y027992D01*
X031398Y027989D01*
X031447Y027982D01*
X031496Y027971D01*
X031544Y027956D01*
X031590Y027938D01*
X031635Y027916D01*
X031678Y027890D01*
X031719Y027861D01*
X031758Y027829D01*
X031794Y027794D01*
X031826Y027756D01*
X031856Y027716D01*
X031883Y027673D01*
X031906Y027629D01*
X031925Y027583D01*
X031941Y027535D01*
X031953Y027486D01*
X031961Y027437D01*
X031965Y027387D01*
X031965Y027337D01*
X031961Y027287D01*
X031953Y027238D01*
X031941Y027189D01*
X031925Y027141D01*
X031906Y027095D01*
X031883Y027051D01*
X031856Y027008D01*
X031826Y026968D01*
X031794Y026930D01*
X031758Y026895D01*
X031719Y026863D01*
X031678Y026834D01*
X031635Y026808D01*
X031590Y026786D01*
X031544Y026768D01*
X031496Y026753D01*
X031447Y026742D01*
X031398Y026735D01*
X031348Y026732D01*
X031297Y026733D01*
X031248Y026738D01*
X031198Y026747D01*
X031150Y026760D01*
X031103Y026776D01*
X031057Y026797D01*
X031013Y026821D01*
X030971Y026848D01*
X030931Y026878D01*
X030894Y026912D01*
X030860Y026949D01*
X030828Y026988D01*
X030800Y027029D01*
X030775Y027073D01*
X030754Y027118D01*
X030737Y027165D01*
X030723Y027213D01*
X030713Y027262D01*
X030707Y027312D01*
X030705Y027362D01*
D11*
X030250Y029000D03*
X029950Y029000D03*
X029950Y030500D03*
X030250Y030500D03*
X030250Y031500D03*
X029950Y031500D03*
X028950Y030900D03*
X028950Y030600D03*
X028500Y030550D03*
X028200Y030550D03*
X029950Y033500D03*
X030250Y033500D03*
X030250Y034500D03*
X029950Y034500D03*
D12*
X031000Y034500D03*
D13*
X032000Y034500D03*
X032000Y033500D03*
X032000Y032500D03*
X031000Y032500D03*
X031000Y033500D03*
X031000Y031500D03*
X032000Y031500D03*
X032000Y030500D03*
X031000Y030500D03*
X031000Y029500D03*
X032000Y029500D03*
X032000Y028500D03*
X031000Y028500D03*
D14*
X030250Y032500D03*
X029750Y032500D03*
X029750Y034950D03*
X030250Y034950D03*
D15*
X029400Y030900D03*
X029400Y030400D03*
D16*
X028356Y031185D03*
X028356Y031815D03*
X026644Y031815D03*
X026644Y031185D03*
D17*
X030000Y036500D03*
X023000Y037500D03*
X023000Y025500D03*
D18*
X024000Y025500D03*
X025000Y025500D03*
X026000Y025500D03*
X027000Y025500D03*
X028000Y025500D03*
X029000Y025500D03*
X030000Y025500D03*
X031000Y025500D03*
X032000Y025500D03*
X029000Y036500D03*
X029000Y037500D03*
X028000Y037500D03*
X027000Y037500D03*
X026000Y037500D03*
X025000Y037500D03*
X024000Y037500D03*
X030000Y037500D03*
X031000Y037500D03*
X032000Y037500D03*
D19*
X025000Y029000D03*
D20*
X026000Y029000D03*
X026000Y028000D03*
X025000Y028000D03*
X025000Y027000D03*
X026000Y027000D03*
D21*
X025628Y026570D02*
X026860Y026570D01*
X026860Y026492D02*
X025706Y026492D01*
X025785Y026413D02*
X026860Y026413D01*
X026860Y026335D02*
X025863Y026335D01*
X025942Y026256D02*
X026860Y026256D01*
X026860Y026178D02*
X026020Y026178D01*
X026099Y026099D02*
X026860Y026099D01*
X026860Y026021D02*
X026140Y026021D01*
X026140Y026058D02*
X025315Y026883D01*
X025336Y026933D01*
X025336Y027067D01*
X025285Y027190D01*
X025190Y027285D01*
X025067Y027336D01*
X024933Y027336D01*
X024810Y027285D01*
X024715Y027190D01*
X024664Y027067D01*
X024664Y026933D01*
X024715Y026810D01*
X024810Y026715D01*
X024933Y026664D01*
X025067Y026664D01*
X025117Y026685D01*
X025854Y025948D01*
X025734Y025898D01*
X025602Y025766D01*
X025530Y025593D01*
X025530Y025407D01*
X025602Y025234D01*
X025697Y025138D01*
X025303Y025138D01*
X025398Y025234D01*
X025470Y025407D01*
X025470Y025593D01*
X025398Y025766D01*
X025266Y025898D01*
X025093Y025970D01*
X024907Y025970D01*
X024734Y025898D01*
X024602Y025766D01*
X024530Y025593D01*
X024530Y025407D01*
X024602Y025234D01*
X024697Y025138D01*
X024303Y025138D01*
X024398Y025234D01*
X024470Y025407D01*
X024470Y025593D01*
X024398Y025766D01*
X024266Y025898D01*
X024140Y025951D01*
X024140Y026942D01*
X024883Y027685D01*
X024933Y027664D01*
X025067Y027664D01*
X025190Y027715D01*
X025285Y027810D01*
X025336Y027933D01*
X025336Y028067D01*
X025285Y028190D01*
X025190Y028285D01*
X025067Y028336D01*
X024933Y028336D01*
X024810Y028285D01*
X024715Y028190D01*
X024664Y028067D01*
X024664Y027933D01*
X024685Y027883D01*
X023860Y027058D01*
X023860Y025951D01*
X023734Y025898D01*
X023602Y025766D01*
X023530Y025593D01*
X023530Y025407D01*
X023602Y025234D01*
X023697Y025138D01*
X023470Y025138D01*
X023470Y025911D01*
X023411Y025970D01*
X022638Y025970D01*
X022638Y037030D01*
X022800Y037030D01*
X022800Y033417D01*
X022917Y033300D01*
X022967Y033300D01*
X025800Y030467D01*
X025800Y029275D01*
X025715Y029190D01*
X025664Y029067D01*
X025664Y028933D01*
X025715Y028810D01*
X025810Y028715D01*
X025933Y028664D01*
X026067Y028664D01*
X026190Y028715D01*
X026285Y028810D01*
X026336Y028933D01*
X026336Y029067D01*
X026285Y029190D01*
X026200Y029275D01*
X026200Y030350D01*
X028000Y030350D01*
X028000Y030217D01*
X028300Y029917D01*
X028417Y029800D01*
X029367Y029800D01*
X030050Y029117D01*
X030050Y028859D01*
X030109Y028800D01*
X030899Y028800D01*
X030821Y028768D01*
X030732Y028679D01*
X030684Y028563D01*
X030684Y028437D01*
X030732Y028321D01*
X030821Y028232D01*
X030937Y028184D01*
X031063Y028184D01*
X031179Y028232D01*
X031268Y028321D01*
X031316Y028437D01*
X031316Y028563D01*
X031268Y028679D01*
X031179Y028768D01*
X031101Y028800D01*
X031417Y028800D01*
X031684Y028533D01*
X031684Y028437D01*
X031732Y028321D01*
X031821Y028232D01*
X031937Y028184D01*
X032063Y028184D01*
X032179Y028232D01*
X032268Y028321D01*
X032316Y028437D01*
X032316Y028563D01*
X032268Y028679D01*
X032179Y028768D01*
X032063Y028816D01*
X031967Y028816D01*
X031583Y029200D01*
X031101Y029200D01*
X031179Y029232D01*
X031268Y029321D01*
X031316Y029437D01*
X031316Y029563D01*
X031268Y029679D01*
X031179Y029768D01*
X031063Y029816D01*
X030937Y029816D01*
X030821Y029768D01*
X030732Y029679D01*
X030716Y029640D01*
X030358Y029640D01*
X029675Y030323D01*
X029675Y030566D01*
X029616Y030625D01*
X029184Y030625D01*
X029125Y030566D01*
X029125Y030234D01*
X029159Y030200D01*
X028583Y030200D01*
X028433Y030350D01*
X028641Y030350D01*
X028700Y030409D01*
X028700Y030691D01*
X028641Y030750D01*
X028640Y030750D01*
X028640Y030888D01*
X028663Y030888D01*
X028714Y030938D01*
X028750Y030902D01*
X028750Y030759D01*
X028809Y030700D01*
X029091Y030700D01*
X029125Y030734D01*
X029125Y030734D01*
X029184Y030675D01*
X029616Y030675D01*
X029675Y030734D01*
X029675Y030760D01*
X030813Y030760D01*
X030732Y030679D01*
X030716Y030640D01*
X030450Y030640D01*
X030450Y030641D01*
X030391Y030700D01*
X030109Y030700D01*
X030050Y030641D01*
X030050Y030359D01*
X030109Y030300D01*
X030391Y030300D01*
X030450Y030359D01*
X030450Y030360D01*
X030716Y030360D01*
X030732Y030321D01*
X030821Y030232D01*
X030937Y030184D01*
X031063Y030184D01*
X031179Y030232D01*
X031268Y030321D01*
X031316Y030437D01*
X031316Y030563D01*
X031268Y030679D01*
X031179Y030768D01*
X031063Y030816D01*
X031014Y030816D01*
X031040Y030842D01*
X031640Y031442D01*
X031640Y035008D01*
X031558Y035090D01*
X031008Y035640D01*
X028508Y035640D01*
X028140Y036008D01*
X028140Y037049D01*
X028266Y037102D01*
X028398Y037234D01*
X028470Y037407D01*
X028470Y037593D01*
X028398Y037766D01*
X028303Y037862D01*
X028697Y037862D01*
X028602Y037766D01*
X028530Y037593D01*
X028530Y037407D01*
X028602Y037234D01*
X028734Y037102D01*
X028860Y037049D01*
X028860Y036951D01*
X028734Y036898D01*
X028602Y036766D01*
X028530Y036593D01*
X028530Y036407D01*
X028602Y036234D01*
X028734Y036102D01*
X028907Y036030D01*
X029093Y036030D01*
X029266Y036102D01*
X029398Y036234D01*
X029470Y036407D01*
X029470Y036593D01*
X029398Y036766D01*
X029266Y036898D01*
X029140Y036951D01*
X029140Y037049D01*
X029266Y037102D01*
X029398Y037234D01*
X029470Y037407D01*
X029470Y037593D01*
X029398Y037766D01*
X029303Y037862D01*
X029697Y037862D01*
X029602Y037766D01*
X029530Y037593D01*
X029530Y037407D01*
X029602Y037234D01*
X029734Y037102D01*
X029860Y037049D01*
X029860Y036970D01*
X029589Y036970D01*
X029530Y036911D01*
X029530Y036089D01*
X029589Y036030D01*
X030411Y036030D01*
X030470Y036089D01*
X030470Y036911D01*
X030411Y036970D01*
X030140Y036970D01*
X030140Y037049D01*
X030266Y037102D01*
X030398Y037234D01*
X030470Y037407D01*
X030470Y037593D01*
X030398Y037766D01*
X030303Y037862D01*
X030697Y037862D01*
X030602Y037766D01*
X030530Y037593D01*
X030530Y037407D01*
X030602Y037234D01*
X030734Y037102D01*
X030907Y037030D01*
X031093Y037030D01*
X031266Y037102D01*
X031398Y037234D01*
X031470Y037407D01*
X031470Y037593D01*
X031398Y037766D01*
X031303Y037862D01*
X032362Y037862D01*
X032362Y025138D01*
X031303Y025138D01*
X031398Y025234D01*
X031470Y025407D01*
X031470Y025593D01*
X031398Y025766D01*
X031266Y025898D01*
X031093Y025970D01*
X030907Y025970D01*
X030734Y025898D01*
X030602Y025766D01*
X030530Y025593D01*
X030530Y025407D01*
X030602Y025234D01*
X030697Y025138D01*
X030303Y025138D01*
X030398Y025234D01*
X030470Y025407D01*
X030470Y025593D01*
X030398Y025766D01*
X030266Y025898D01*
X030093Y025970D01*
X029907Y025970D01*
X029734Y025898D01*
X029602Y025766D01*
X029530Y025593D01*
X029530Y025407D01*
X029602Y025234D01*
X029697Y025138D01*
X029303Y025138D01*
X029398Y025234D01*
X029470Y025407D01*
X029470Y025593D01*
X029398Y025766D01*
X029266Y025898D01*
X029093Y025970D01*
X028907Y025970D01*
X028734Y025898D01*
X028602Y025766D01*
X028530Y025593D01*
X028530Y025407D01*
X028602Y025234D01*
X028697Y025138D01*
X027303Y025138D01*
X027398Y025234D01*
X027470Y025407D01*
X027470Y025593D01*
X027398Y025766D01*
X027266Y025898D01*
X027140Y025951D01*
X027140Y028058D01*
X026640Y028558D01*
X026558Y028640D01*
X025558Y028640D01*
X025336Y028862D01*
X025336Y029278D01*
X025278Y029336D01*
X024722Y029336D01*
X024664Y029278D01*
X024664Y028722D01*
X024722Y028664D01*
X025138Y028664D01*
X025442Y028360D01*
X026442Y028360D01*
X026860Y027942D01*
X026860Y025951D01*
X026734Y025898D01*
X026602Y025766D01*
X026530Y025593D01*
X026530Y025407D01*
X026602Y025234D01*
X026697Y025138D01*
X026303Y025138D01*
X026398Y025234D01*
X026470Y025407D01*
X026470Y025593D01*
X026398Y025766D01*
X026266Y025898D01*
X026140Y025951D01*
X026140Y026058D01*
X026161Y025942D02*
X026839Y025942D01*
X026699Y025864D02*
X026301Y025864D01*
X026380Y025785D02*
X026620Y025785D01*
X026577Y025707D02*
X026423Y025707D01*
X026456Y025628D02*
X026544Y025628D01*
X026530Y025550D02*
X026470Y025550D01*
X026470Y025471D02*
X026530Y025471D01*
X026536Y025393D02*
X026464Y025393D01*
X026432Y025314D02*
X026568Y025314D01*
X026601Y025236D02*
X026399Y025236D01*
X026322Y025157D02*
X026678Y025157D01*
X027000Y025500D02*
X027000Y028000D01*
X026500Y028500D01*
X025500Y028500D01*
X025000Y029000D01*
X025336Y029004D02*
X025664Y029004D01*
X025670Y029082D02*
X025336Y029082D01*
X025336Y029161D02*
X025703Y029161D01*
X025764Y029239D02*
X025336Y029239D01*
X025296Y029318D02*
X025800Y029318D01*
X025800Y029396D02*
X022638Y029396D01*
X022638Y029318D02*
X024704Y029318D01*
X024664Y029239D02*
X022638Y029239D01*
X022638Y029161D02*
X024664Y029161D01*
X024664Y029082D02*
X022638Y029082D01*
X022638Y029004D02*
X024664Y029004D01*
X024664Y028925D02*
X022638Y028925D01*
X022638Y028847D02*
X024664Y028847D01*
X024664Y028768D02*
X022638Y028768D01*
X022638Y028690D02*
X024697Y028690D01*
X024838Y028297D02*
X022638Y028297D01*
X022638Y028219D02*
X024743Y028219D01*
X024694Y028140D02*
X022638Y028140D01*
X022638Y028062D02*
X024664Y028062D01*
X024664Y027983D02*
X022638Y027983D01*
X022638Y027905D02*
X024676Y027905D01*
X024628Y027826D02*
X022638Y027826D01*
X022638Y027748D02*
X024550Y027748D01*
X024471Y027669D02*
X022638Y027669D01*
X022638Y027591D02*
X024393Y027591D01*
X024314Y027512D02*
X022638Y027512D01*
X022638Y027434D02*
X024236Y027434D01*
X024157Y027355D02*
X022638Y027355D01*
X022638Y027277D02*
X024079Y027277D01*
X024000Y027198D02*
X022638Y027198D01*
X022638Y027120D02*
X023922Y027120D01*
X023860Y027041D02*
X022638Y027041D01*
X022638Y026963D02*
X023860Y026963D01*
X023860Y026884D02*
X022638Y026884D01*
X022638Y026806D02*
X023860Y026806D01*
X023860Y026727D02*
X022638Y026727D01*
X022638Y026649D02*
X023860Y026649D01*
X023860Y026570D02*
X022638Y026570D01*
X022638Y026492D02*
X023860Y026492D01*
X023860Y026413D02*
X022638Y026413D01*
X022638Y026335D02*
X023860Y026335D01*
X023860Y026256D02*
X022638Y026256D01*
X022638Y026178D02*
X023860Y026178D01*
X023860Y026099D02*
X022638Y026099D01*
X022638Y026021D02*
X023860Y026021D01*
X023839Y025942D02*
X023439Y025942D01*
X023470Y025864D02*
X023699Y025864D01*
X023620Y025785D02*
X023470Y025785D01*
X023470Y025707D02*
X023577Y025707D01*
X023544Y025628D02*
X023470Y025628D01*
X023470Y025550D02*
X023530Y025550D01*
X023530Y025471D02*
X023470Y025471D01*
X023470Y025393D02*
X023536Y025393D01*
X023568Y025314D02*
X023470Y025314D01*
X023470Y025236D02*
X023601Y025236D01*
X023678Y025157D02*
X023470Y025157D01*
X024000Y025500D02*
X024000Y027000D01*
X025000Y028000D01*
X025306Y028140D02*
X025694Y028140D01*
X025715Y028190D02*
X025664Y028067D01*
X025664Y027933D01*
X025715Y027810D01*
X025810Y027715D01*
X025933Y027664D01*
X026067Y027664D01*
X026190Y027715D01*
X026285Y027810D01*
X026336Y027933D01*
X026336Y028067D01*
X026285Y028190D01*
X026190Y028285D01*
X026067Y028336D01*
X025933Y028336D01*
X025810Y028285D01*
X025715Y028190D01*
X025743Y028219D02*
X025257Y028219D01*
X025162Y028297D02*
X025838Y028297D01*
X025664Y028062D02*
X025336Y028062D01*
X025336Y027983D02*
X025664Y027983D01*
X025676Y027905D02*
X025324Y027905D01*
X025292Y027826D02*
X025708Y027826D01*
X025777Y027748D02*
X025223Y027748D01*
X025080Y027669D02*
X025920Y027669D01*
X026080Y027669D02*
X026860Y027669D01*
X026860Y027591D02*
X024788Y027591D01*
X024710Y027512D02*
X026860Y027512D01*
X026860Y027434D02*
X024631Y027434D01*
X024553Y027355D02*
X026860Y027355D01*
X026860Y027277D02*
X025199Y027277D01*
X025277Y027198D02*
X026860Y027198D01*
X026860Y027120D02*
X025314Y027120D01*
X025336Y027041D02*
X026860Y027041D01*
X026860Y026963D02*
X025336Y026963D01*
X025316Y026884D02*
X026860Y026884D01*
X026860Y026806D02*
X025392Y026806D01*
X025471Y026727D02*
X026860Y026727D01*
X026860Y026649D02*
X025549Y026649D01*
X025389Y026413D02*
X024140Y026413D01*
X024140Y026335D02*
X025468Y026335D01*
X025546Y026256D02*
X024140Y026256D01*
X024140Y026178D02*
X025625Y026178D01*
X025703Y026099D02*
X024140Y026099D01*
X024140Y026021D02*
X025782Y026021D01*
X025839Y025942D02*
X025161Y025942D01*
X025301Y025864D02*
X025699Y025864D01*
X025620Y025785D02*
X025380Y025785D01*
X025423Y025707D02*
X025577Y025707D01*
X025544Y025628D02*
X025456Y025628D01*
X025470Y025550D02*
X025530Y025550D01*
X025530Y025471D02*
X025470Y025471D01*
X025464Y025393D02*
X025536Y025393D01*
X025568Y025314D02*
X025432Y025314D01*
X025399Y025236D02*
X025601Y025236D01*
X025678Y025157D02*
X025322Y025157D01*
X024678Y025157D02*
X024322Y025157D01*
X024399Y025236D02*
X024601Y025236D01*
X024568Y025314D02*
X024432Y025314D01*
X024464Y025393D02*
X024536Y025393D01*
X024530Y025471D02*
X024470Y025471D01*
X024470Y025550D02*
X024530Y025550D01*
X024544Y025628D02*
X024456Y025628D01*
X024423Y025707D02*
X024577Y025707D01*
X024620Y025785D02*
X024380Y025785D01*
X024301Y025864D02*
X024699Y025864D01*
X024839Y025942D02*
X024161Y025942D01*
X024140Y026492D02*
X025311Y026492D01*
X025232Y026570D02*
X024140Y026570D01*
X024140Y026649D02*
X025154Y026649D01*
X024798Y026727D02*
X024140Y026727D01*
X024140Y026806D02*
X024719Y026806D01*
X024684Y026884D02*
X024140Y026884D01*
X024160Y026963D02*
X024664Y026963D01*
X024664Y027041D02*
X024239Y027041D01*
X024317Y027120D02*
X024686Y027120D01*
X024723Y027198D02*
X024396Y027198D01*
X024474Y027277D02*
X024801Y027277D01*
X025000Y027000D02*
X026000Y026000D01*
X026000Y025500D01*
X027161Y025942D02*
X028839Y025942D01*
X028699Y025864D02*
X027301Y025864D01*
X027380Y025785D02*
X028620Y025785D01*
X028577Y025707D02*
X027423Y025707D01*
X027456Y025628D02*
X028544Y025628D01*
X028530Y025550D02*
X027470Y025550D01*
X027470Y025471D02*
X028530Y025471D01*
X028536Y025393D02*
X027464Y025393D01*
X027432Y025314D02*
X028568Y025314D01*
X028601Y025236D02*
X027399Y025236D01*
X027322Y025157D02*
X028678Y025157D01*
X029322Y025157D02*
X029678Y025157D01*
X029601Y025236D02*
X029399Y025236D01*
X029432Y025314D02*
X029568Y025314D01*
X029536Y025393D02*
X029464Y025393D01*
X029470Y025471D02*
X029530Y025471D01*
X029530Y025550D02*
X029470Y025550D01*
X029456Y025628D02*
X029544Y025628D01*
X029577Y025707D02*
X029423Y025707D01*
X029380Y025785D02*
X029620Y025785D01*
X029699Y025864D02*
X029301Y025864D01*
X029161Y025942D02*
X029839Y025942D01*
X030161Y025942D02*
X030839Y025942D01*
X030699Y025864D02*
X030301Y025864D01*
X030380Y025785D02*
X030620Y025785D01*
X030577Y025707D02*
X030423Y025707D01*
X030456Y025628D02*
X030544Y025628D01*
X030530Y025550D02*
X030470Y025550D01*
X030470Y025471D02*
X030530Y025471D01*
X030536Y025393D02*
X030464Y025393D01*
X030432Y025314D02*
X030568Y025314D01*
X030601Y025236D02*
X030399Y025236D01*
X030322Y025157D02*
X030678Y025157D01*
X031322Y025157D02*
X032362Y025157D01*
X032362Y025236D02*
X031399Y025236D01*
X031432Y025314D02*
X032362Y025314D01*
X032362Y025393D02*
X031464Y025393D01*
X031470Y025471D02*
X032362Y025471D01*
X032362Y025550D02*
X031470Y025550D01*
X031456Y025628D02*
X032362Y025628D01*
X032362Y025707D02*
X031423Y025707D01*
X031380Y025785D02*
X032362Y025785D01*
X032362Y025864D02*
X031301Y025864D01*
X031161Y025942D02*
X032362Y025942D01*
X032362Y026021D02*
X027140Y026021D01*
X027140Y026099D02*
X032362Y026099D01*
X032362Y026178D02*
X027140Y026178D01*
X027140Y026256D02*
X032362Y026256D01*
X032362Y026335D02*
X027140Y026335D01*
X027140Y026413D02*
X032362Y026413D01*
X032362Y026492D02*
X027140Y026492D01*
X027140Y026570D02*
X032362Y026570D01*
X032362Y026649D02*
X031619Y026649D01*
X031487Y026594D02*
X031770Y026711D01*
X031986Y026927D01*
X032103Y027209D01*
X032103Y027515D01*
X031986Y027797D01*
X031770Y028014D01*
X031487Y028131D01*
X031182Y028131D01*
X030899Y028014D01*
X030683Y027797D01*
X030566Y027515D01*
X030566Y027209D01*
X030683Y026927D01*
X030899Y026711D01*
X031182Y026594D01*
X031487Y026594D01*
X031786Y026727D02*
X032362Y026727D01*
X032362Y026806D02*
X031865Y026806D01*
X031943Y026884D02*
X032362Y026884D01*
X032362Y026963D02*
X032001Y026963D01*
X032033Y027041D02*
X032362Y027041D01*
X032362Y027120D02*
X032066Y027120D01*
X032098Y027198D02*
X032362Y027198D01*
X032362Y027277D02*
X032103Y027277D01*
X032103Y027355D02*
X032362Y027355D01*
X032362Y027434D02*
X032103Y027434D01*
X032103Y027512D02*
X032362Y027512D01*
X032362Y027591D02*
X032072Y027591D01*
X032039Y027669D02*
X032362Y027669D01*
X032362Y027748D02*
X032007Y027748D01*
X031957Y027826D02*
X032362Y027826D01*
X032362Y027905D02*
X031879Y027905D01*
X031800Y027983D02*
X032362Y027983D01*
X032362Y028062D02*
X031654Y028062D01*
X031854Y028219D02*
X031146Y028219D01*
X031244Y028297D02*
X031756Y028297D01*
X031710Y028376D02*
X031290Y028376D01*
X031316Y028454D02*
X031684Y028454D01*
X031684Y028533D02*
X031316Y028533D01*
X031296Y028611D02*
X031606Y028611D01*
X031528Y028690D02*
X031257Y028690D01*
X031179Y028768D02*
X031449Y028768D01*
X031701Y029082D02*
X032362Y029082D01*
X032362Y029004D02*
X031779Y029004D01*
X031858Y028925D02*
X032362Y028925D01*
X032362Y028847D02*
X031936Y028847D01*
X032179Y028768D02*
X032362Y028768D01*
X032362Y028690D02*
X032257Y028690D01*
X032296Y028611D02*
X032362Y028611D01*
X032362Y028533D02*
X032316Y028533D01*
X032316Y028454D02*
X032362Y028454D01*
X032362Y028376D02*
X032290Y028376D01*
X032244Y028297D02*
X032362Y028297D01*
X032362Y028219D02*
X032146Y028219D01*
X032362Y028140D02*
X027058Y028140D01*
X027136Y028062D02*
X031015Y028062D01*
X030869Y027983D02*
X027140Y027983D01*
X027140Y027905D02*
X030790Y027905D01*
X030712Y027826D02*
X027140Y027826D01*
X027140Y027748D02*
X030663Y027748D01*
X030630Y027669D02*
X027140Y027669D01*
X027140Y027591D02*
X030598Y027591D01*
X030566Y027512D02*
X027140Y027512D01*
X027140Y027434D02*
X030566Y027434D01*
X030566Y027355D02*
X027140Y027355D01*
X027140Y027277D02*
X030566Y027277D01*
X030571Y027198D02*
X027140Y027198D01*
X027140Y027120D02*
X030604Y027120D01*
X030636Y027041D02*
X027140Y027041D01*
X027140Y026963D02*
X030669Y026963D01*
X030726Y026884D02*
X027140Y026884D01*
X027140Y026806D02*
X030805Y026806D01*
X030883Y026727D02*
X027140Y026727D01*
X027140Y026649D02*
X031050Y026649D01*
X030854Y028219D02*
X026979Y028219D01*
X026901Y028297D02*
X030756Y028297D01*
X030710Y028376D02*
X026822Y028376D01*
X026744Y028454D02*
X030684Y028454D01*
X030684Y028533D02*
X026665Y028533D01*
X026587Y028611D02*
X030704Y028611D01*
X030743Y028690D02*
X026129Y028690D01*
X026243Y028768D02*
X030821Y028768D01*
X031186Y029239D02*
X031814Y029239D01*
X031821Y029232D02*
X031937Y029184D01*
X032063Y029184D01*
X032179Y029232D01*
X032268Y029321D01*
X032316Y029437D01*
X032316Y029563D01*
X032268Y029679D01*
X032179Y029768D01*
X032063Y029816D01*
X031937Y029816D01*
X031821Y029768D01*
X031732Y029679D01*
X031684Y029563D01*
X031684Y029437D01*
X031732Y029321D01*
X031821Y029232D01*
X031736Y029318D02*
X031264Y029318D01*
X031299Y029396D02*
X031701Y029396D01*
X031684Y029475D02*
X031316Y029475D01*
X031316Y029553D02*
X031684Y029553D01*
X031712Y029632D02*
X031288Y029632D01*
X031237Y029710D02*
X031763Y029710D01*
X031871Y029789D02*
X031129Y029789D01*
X030871Y029789D02*
X030209Y029789D01*
X030131Y029867D02*
X032362Y029867D01*
X032362Y029789D02*
X032129Y029789D01*
X032237Y029710D02*
X032362Y029710D01*
X032362Y029632D02*
X032288Y029632D01*
X032316Y029553D02*
X032362Y029553D01*
X032362Y029475D02*
X032316Y029475D01*
X032299Y029396D02*
X032362Y029396D01*
X032362Y029318D02*
X032264Y029318D01*
X032186Y029239D02*
X032362Y029239D01*
X032362Y029161D02*
X031622Y029161D01*
X031000Y029500D02*
X030300Y029500D01*
X029400Y030400D01*
X029675Y030417D02*
X030050Y030417D01*
X030050Y030495D02*
X029675Y030495D01*
X029668Y030574D02*
X030050Y030574D01*
X030061Y030652D02*
X028700Y030652D01*
X028700Y030574D02*
X029132Y030574D01*
X029125Y030495D02*
X028700Y030495D01*
X028700Y030417D02*
X029125Y030417D01*
X029125Y030338D02*
X028445Y030338D01*
X028523Y030260D02*
X029125Y030260D01*
X029122Y030731D02*
X029128Y030731D01*
X028950Y030900D02*
X029400Y030900D01*
X030900Y030900D01*
X031500Y031500D01*
X031500Y034950D01*
X030950Y035500D01*
X028450Y035500D01*
X028000Y035950D01*
X028000Y037500D01*
X028332Y037168D02*
X028668Y037168D01*
X028596Y037246D02*
X028404Y037246D01*
X028436Y037325D02*
X028564Y037325D01*
X028531Y037403D02*
X028469Y037403D01*
X028470Y037482D02*
X028530Y037482D01*
X028530Y037560D02*
X028470Y037560D01*
X028451Y037639D02*
X028549Y037639D01*
X028581Y037717D02*
X028419Y037717D01*
X028369Y037796D02*
X028631Y037796D01*
X029000Y037500D02*
X029000Y036500D01*
X028815Y036932D02*
X028140Y036932D01*
X028140Y036854D02*
X028689Y036854D01*
X028610Y036775D02*
X028140Y036775D01*
X028140Y036697D02*
X028573Y036697D01*
X028540Y036618D02*
X028140Y036618D01*
X028140Y036540D02*
X028530Y036540D01*
X028530Y036461D02*
X028140Y036461D01*
X028140Y036383D02*
X028540Y036383D01*
X028572Y036304D02*
X028140Y036304D01*
X028140Y036226D02*
X028610Y036226D01*
X028688Y036147D02*
X028140Y036147D01*
X028140Y036069D02*
X028813Y036069D01*
X029187Y036069D02*
X029550Y036069D01*
X029530Y036147D02*
X029312Y036147D01*
X029390Y036226D02*
X029530Y036226D01*
X029530Y036304D02*
X029428Y036304D01*
X029460Y036383D02*
X029530Y036383D01*
X029530Y036461D02*
X029470Y036461D01*
X029470Y036540D02*
X029530Y036540D01*
X029530Y036618D02*
X029460Y036618D01*
X029427Y036697D02*
X029530Y036697D01*
X029530Y036775D02*
X029390Y036775D01*
X029311Y036854D02*
X029530Y036854D01*
X029551Y036932D02*
X029185Y036932D01*
X029140Y037011D02*
X029860Y037011D01*
X029764Y037089D02*
X029236Y037089D01*
X029332Y037168D02*
X029668Y037168D01*
X029596Y037246D02*
X029404Y037246D01*
X029436Y037325D02*
X029564Y037325D01*
X029531Y037403D02*
X029469Y037403D01*
X029470Y037482D02*
X029530Y037482D01*
X029530Y037560D02*
X029470Y037560D01*
X029451Y037639D02*
X029549Y037639D01*
X029581Y037717D02*
X029419Y037717D01*
X029369Y037796D02*
X029631Y037796D01*
X030000Y037500D02*
X030000Y036500D01*
X030470Y036461D02*
X032362Y036461D01*
X032362Y036383D02*
X030470Y036383D01*
X030470Y036304D02*
X032362Y036304D01*
X032362Y036226D02*
X030470Y036226D01*
X030470Y036147D02*
X032362Y036147D01*
X032362Y036069D02*
X030450Y036069D01*
X030470Y036540D02*
X032362Y036540D01*
X032362Y036618D02*
X030470Y036618D01*
X030470Y036697D02*
X032362Y036697D01*
X032362Y036775D02*
X030470Y036775D01*
X030470Y036854D02*
X032362Y036854D01*
X032362Y036932D02*
X030449Y036932D01*
X030332Y037168D02*
X030668Y037168D01*
X030596Y037246D02*
X030404Y037246D01*
X030436Y037325D02*
X030564Y037325D01*
X030531Y037403D02*
X030469Y037403D01*
X030470Y037482D02*
X030530Y037482D01*
X030530Y037560D02*
X030470Y037560D01*
X030451Y037639D02*
X030549Y037639D01*
X030581Y037717D02*
X030419Y037717D01*
X030369Y037796D02*
X030631Y037796D01*
X031369Y037796D02*
X032362Y037796D01*
X032362Y037717D02*
X031419Y037717D01*
X031451Y037639D02*
X032362Y037639D01*
X032362Y037560D02*
X031470Y037560D01*
X031470Y037482D02*
X032362Y037482D01*
X032362Y037403D02*
X031469Y037403D01*
X031436Y037325D02*
X032362Y037325D01*
X032362Y037246D02*
X031404Y037246D01*
X031332Y037168D02*
X032362Y037168D01*
X032362Y037089D02*
X031236Y037089D01*
X030764Y037089D02*
X030236Y037089D01*
X030140Y037011D02*
X032362Y037011D01*
X032362Y035990D02*
X028158Y035990D01*
X028236Y035912D02*
X032362Y035912D01*
X032362Y035833D02*
X028315Y035833D01*
X028393Y035755D02*
X032362Y035755D01*
X032362Y035676D02*
X028472Y035676D01*
X028310Y035442D02*
X027860Y035892D01*
X027860Y037049D01*
X027734Y037102D01*
X027602Y037234D01*
X027530Y037407D01*
X027530Y037593D01*
X027602Y037766D01*
X027697Y037862D01*
X027303Y037862D01*
X027398Y037766D01*
X027470Y037593D01*
X027470Y037407D01*
X027398Y037234D01*
X027266Y037102D01*
X027093Y037030D01*
X026907Y037030D01*
X026734Y037102D01*
X026602Y037234D01*
X026530Y037407D01*
X026530Y037593D01*
X026602Y037766D01*
X026697Y037862D01*
X026303Y037862D01*
X026398Y037766D01*
X026470Y037593D01*
X026470Y037407D01*
X026398Y037234D01*
X026266Y037102D01*
X026093Y037030D01*
X025907Y037030D01*
X025734Y037102D01*
X025602Y037234D01*
X025530Y037407D01*
X025530Y037593D01*
X025602Y037766D01*
X025697Y037862D01*
X025303Y037862D01*
X025398Y037766D01*
X025470Y037593D01*
X025470Y037407D01*
X025418Y037280D01*
X028558Y034140D01*
X029908Y034140D01*
X029990Y034058D01*
X029990Y034058D01*
X030308Y033740D01*
X030308Y033740D01*
X030348Y033700D01*
X030391Y033700D01*
X030450Y033641D01*
X030450Y033640D01*
X030716Y033640D01*
X030732Y033679D01*
X030821Y033768D01*
X030937Y033816D01*
X031063Y033816D01*
X031179Y033768D01*
X031268Y033679D01*
X031316Y033563D01*
X031316Y033437D01*
X031268Y033321D01*
X031360Y033321D01*
X031360Y033243D02*
X031189Y033243D01*
X031179Y033232D02*
X031268Y033321D01*
X031300Y033400D02*
X031360Y033400D01*
X031360Y033478D02*
X031316Y033478D01*
X031316Y033557D02*
X031360Y033557D01*
X031360Y033635D02*
X031286Y033635D01*
X031233Y033714D02*
X031360Y033714D01*
X031360Y033792D02*
X031121Y033792D01*
X030879Y033792D02*
X030256Y033792D01*
X030334Y033714D02*
X030767Y033714D01*
X031000Y033500D02*
X030250Y033500D01*
X030250Y033600D01*
X029850Y034000D01*
X028500Y034000D01*
X025000Y037500D01*
X024668Y037168D02*
X024530Y037168D01*
X024602Y037234D02*
X024734Y037102D01*
X024907Y037030D01*
X025093Y037030D01*
X025220Y037082D01*
X028360Y033942D01*
X028442Y033860D01*
X029792Y033860D01*
X030050Y033602D01*
X030050Y033359D01*
X030109Y033300D01*
X030391Y033300D01*
X030450Y033359D01*
X030450Y033360D01*
X030716Y033360D01*
X030732Y033321D01*
X030412Y033321D01*
X030732Y033321D02*
X030821Y033232D01*
X030937Y033184D01*
X031063Y033184D01*
X031179Y033232D01*
X031360Y033164D02*
X029984Y033164D01*
X029958Y033190D02*
X028508Y033190D01*
X024418Y037280D01*
X024470Y037407D01*
X024470Y037593D01*
X024398Y037766D01*
X024303Y037862D01*
X024697Y037862D01*
X024602Y037766D01*
X024530Y037593D01*
X024530Y037407D01*
X024602Y037234D01*
X024596Y037246D02*
X024452Y037246D01*
X024436Y037325D02*
X024564Y037325D01*
X024531Y037403D02*
X024469Y037403D01*
X024470Y037482D02*
X024530Y037482D01*
X024530Y037560D02*
X024470Y037560D01*
X024451Y037639D02*
X024549Y037639D01*
X024581Y037717D02*
X024419Y037717D01*
X024369Y037796D02*
X024631Y037796D01*
X024000Y037500D02*
X028450Y033050D01*
X029900Y033050D01*
X030250Y032700D01*
X030250Y032500D01*
X031000Y032500D01*
X031292Y032379D02*
X031360Y032379D01*
X031316Y032437D02*
X031316Y032563D01*
X031268Y032679D01*
X031179Y032768D01*
X031063Y032816D01*
X030937Y032816D01*
X030821Y032768D01*
X030732Y032679D01*
X030716Y032640D01*
X030475Y032640D01*
X030475Y032716D01*
X030416Y032775D01*
X030373Y032775D01*
X030308Y032840D01*
X029958Y033190D01*
X030062Y033086D02*
X031360Y033086D01*
X031360Y033007D02*
X030141Y033007D01*
X030219Y032929D02*
X031360Y032929D01*
X031360Y032850D02*
X030298Y032850D01*
X030420Y032772D02*
X030830Y032772D01*
X030746Y032693D02*
X030475Y032693D01*
X030475Y032360D02*
X030716Y032360D01*
X030732Y032321D01*
X030821Y032232D01*
X030937Y032184D01*
X031063Y032184D01*
X031179Y032232D01*
X031268Y032321D01*
X031316Y032437D01*
X031316Y032458D02*
X031360Y032458D01*
X031360Y032536D02*
X031316Y032536D01*
X031295Y032615D02*
X031360Y032615D01*
X031360Y032693D02*
X031254Y032693D01*
X031170Y032772D02*
X031360Y032772D01*
X031640Y032772D02*
X032362Y032772D01*
X032362Y032850D02*
X031640Y032850D01*
X031640Y032929D02*
X032362Y032929D01*
X032362Y033007D02*
X031640Y033007D01*
X031640Y033086D02*
X032362Y033086D01*
X032362Y033164D02*
X031640Y033164D01*
X031640Y033243D02*
X032362Y033243D01*
X032362Y033321D02*
X031640Y033321D01*
X031640Y033400D02*
X032362Y033400D01*
X032362Y033478D02*
X031640Y033478D01*
X031640Y033557D02*
X032362Y033557D01*
X032362Y033635D02*
X031640Y033635D01*
X031640Y033714D02*
X032362Y033714D01*
X032362Y033792D02*
X031640Y033792D01*
X031640Y033871D02*
X032362Y033871D01*
X032362Y033949D02*
X031640Y033949D01*
X031640Y034028D02*
X032362Y034028D01*
X032362Y034106D02*
X031640Y034106D01*
X031640Y034185D02*
X032362Y034185D01*
X032362Y034263D02*
X031640Y034263D01*
X031640Y034342D02*
X032362Y034342D01*
X032362Y034420D02*
X031640Y034420D01*
X031640Y034499D02*
X032362Y034499D01*
X032362Y034577D02*
X031640Y034577D01*
X031640Y034656D02*
X032362Y034656D01*
X032362Y034734D02*
X031640Y034734D01*
X031640Y034813D02*
X032362Y034813D01*
X032362Y034891D02*
X031640Y034891D01*
X031640Y034970D02*
X032362Y034970D01*
X032362Y035048D02*
X031600Y035048D01*
X031521Y035127D02*
X032362Y035127D01*
X032362Y035205D02*
X031443Y035205D01*
X031364Y035284D02*
X032362Y035284D01*
X032362Y035362D02*
X031286Y035362D01*
X031207Y035441D02*
X032362Y035441D01*
X032362Y035519D02*
X031129Y035519D01*
X031050Y035598D02*
X032362Y035598D01*
X031360Y034892D02*
X031360Y031558D01*
X031316Y031514D01*
X031316Y031563D01*
X031268Y031679D01*
X031179Y031768D01*
X031063Y031816D01*
X030937Y031816D01*
X030821Y031768D01*
X030732Y031679D01*
X030716Y031640D01*
X030450Y031640D01*
X030450Y031641D01*
X030391Y031700D01*
X030109Y031700D01*
X030050Y031641D01*
X030050Y031359D01*
X030109Y031300D01*
X030391Y031300D01*
X030450Y031359D01*
X030450Y031360D01*
X030716Y031360D01*
X030732Y031321D01*
X030821Y031232D01*
X030937Y031184D01*
X030986Y031184D01*
X030842Y031040D01*
X029675Y031040D01*
X029675Y031066D01*
X029616Y031125D01*
X029184Y031125D01*
X029125Y031066D01*
X029091Y031100D01*
X028948Y031100D01*
X028805Y031243D01*
X028723Y031325D01*
X028722Y031325D01*
X028722Y031423D01*
X028663Y031482D01*
X028049Y031482D01*
X027991Y031423D01*
X027991Y030947D01*
X028049Y030888D01*
X028360Y030888D01*
X028360Y030750D01*
X028359Y030750D01*
X028350Y030741D01*
X028341Y030750D01*
X026083Y030750D01*
X023200Y033633D01*
X023200Y037030D01*
X023411Y037030D01*
X023470Y037089D01*
X023764Y037089D01*
X023734Y037102D02*
X023907Y037030D01*
X024093Y037030D01*
X024220Y037082D01*
X028310Y032992D01*
X028392Y032910D01*
X029842Y032910D01*
X030030Y032722D01*
X030025Y032716D01*
X030025Y032284D01*
X030084Y032225D01*
X030416Y032225D01*
X030475Y032284D01*
X030475Y032360D01*
X030475Y032301D02*
X030753Y032301D01*
X030845Y032222D02*
X024611Y032222D01*
X024689Y032144D02*
X031360Y032144D01*
X031360Y032222D02*
X031155Y032222D01*
X031247Y032301D02*
X031360Y032301D01*
X031360Y032065D02*
X026998Y032065D01*
X027009Y032053D02*
X026951Y032112D01*
X026337Y032112D01*
X026278Y032053D01*
X026278Y031577D01*
X026337Y031518D01*
X026951Y031518D01*
X027009Y031577D01*
X027009Y032053D01*
X027009Y031987D02*
X031360Y031987D01*
X031360Y031908D02*
X027009Y031908D01*
X027009Y031830D02*
X031360Y031830D01*
X031360Y031751D02*
X031196Y031751D01*
X031271Y031673D02*
X031360Y031673D01*
X031360Y031594D02*
X031303Y031594D01*
X031316Y031516D02*
X031318Y031516D01*
X031478Y031280D02*
X032362Y031280D01*
X032362Y031202D02*
X031400Y031202D01*
X031321Y031123D02*
X032362Y031123D01*
X032362Y031045D02*
X031243Y031045D01*
X031164Y030966D02*
X032362Y030966D01*
X032362Y030888D02*
X031086Y030888D01*
X031080Y030809D02*
X032362Y030809D01*
X032362Y030731D02*
X031216Y030731D01*
X031279Y030652D02*
X032362Y030652D01*
X032362Y030574D02*
X031312Y030574D01*
X031316Y030495D02*
X032362Y030495D01*
X032362Y030417D02*
X031307Y030417D01*
X031275Y030338D02*
X032362Y030338D01*
X032362Y030260D02*
X031206Y030260D01*
X031000Y030500D02*
X030250Y030500D01*
X030429Y030338D02*
X030725Y030338D01*
X030794Y030260D02*
X029738Y030260D01*
X029675Y030338D02*
X030071Y030338D01*
X029895Y030103D02*
X032362Y030103D01*
X032362Y030181D02*
X029817Y030181D01*
X029974Y030024D02*
X032362Y030024D01*
X032362Y029946D02*
X030052Y029946D01*
X030288Y029710D02*
X030763Y029710D01*
X030050Y029082D02*
X026330Y029082D01*
X026336Y029004D02*
X030050Y029004D01*
X030050Y028925D02*
X026333Y028925D01*
X026300Y028847D02*
X030062Y028847D01*
X030007Y029161D02*
X026297Y029161D01*
X026236Y029239D02*
X029928Y029239D01*
X029850Y029318D02*
X026200Y029318D01*
X026200Y029396D02*
X029771Y029396D01*
X029693Y029475D02*
X026200Y029475D01*
X026200Y029553D02*
X029614Y029553D01*
X029536Y029632D02*
X026200Y029632D01*
X026200Y029710D02*
X029457Y029710D01*
X029379Y029789D02*
X026200Y029789D01*
X026200Y029867D02*
X028350Y029867D01*
X028272Y029946D02*
X026200Y029946D01*
X026200Y030024D02*
X028193Y030024D01*
X028115Y030103D02*
X026200Y030103D01*
X026200Y030181D02*
X028036Y030181D01*
X028000Y030260D02*
X026200Y030260D01*
X026200Y030338D02*
X028000Y030338D01*
X028500Y030550D02*
X028500Y031041D01*
X028356Y031185D01*
X028665Y031185D01*
X028950Y030900D01*
X028750Y030888D02*
X028640Y030888D01*
X028640Y030809D02*
X028750Y030809D01*
X028778Y030731D02*
X028661Y030731D01*
X028360Y030809D02*
X026024Y030809D01*
X025945Y030888D02*
X028360Y030888D01*
X027991Y030966D02*
X027009Y030966D01*
X027009Y030947D02*
X027009Y031423D01*
X026951Y031482D01*
X026337Y031482D01*
X026278Y031423D01*
X026278Y030947D01*
X026337Y030888D01*
X026951Y030888D01*
X027009Y030947D01*
X027009Y031045D02*
X027991Y031045D01*
X027991Y031123D02*
X027009Y031123D01*
X027009Y031202D02*
X027991Y031202D01*
X027991Y031280D02*
X027009Y031280D01*
X027009Y031359D02*
X027991Y031359D01*
X028004Y031437D02*
X026996Y031437D01*
X027009Y031594D02*
X030050Y031594D01*
X030050Y031516D02*
X025317Y031516D01*
X025239Y031594D02*
X026278Y031594D01*
X026278Y031673D02*
X025160Y031673D01*
X025082Y031751D02*
X026278Y031751D01*
X026278Y031830D02*
X025003Y031830D01*
X024925Y031908D02*
X026278Y031908D01*
X026278Y031987D02*
X024846Y031987D01*
X024768Y032065D02*
X026290Y032065D01*
X026292Y031437D02*
X025396Y031437D01*
X025474Y031359D02*
X026278Y031359D01*
X026278Y031280D02*
X025553Y031280D01*
X025631Y031202D02*
X026278Y031202D01*
X026278Y031123D02*
X025710Y031123D01*
X025788Y031045D02*
X026278Y031045D01*
X026278Y030966D02*
X025867Y030966D01*
X025615Y030652D02*
X022638Y030652D01*
X022638Y030574D02*
X025694Y030574D01*
X025772Y030495D02*
X022638Y030495D01*
X022638Y030417D02*
X025800Y030417D01*
X025800Y030338D02*
X022638Y030338D01*
X022638Y030260D02*
X025800Y030260D01*
X025800Y030181D02*
X022638Y030181D01*
X022638Y030103D02*
X025800Y030103D01*
X025800Y030024D02*
X022638Y030024D01*
X022638Y029946D02*
X025800Y029946D01*
X025800Y029867D02*
X022638Y029867D01*
X022638Y029789D02*
X025800Y029789D01*
X025800Y029710D02*
X022638Y029710D01*
X022638Y029632D02*
X025800Y029632D01*
X025800Y029553D02*
X022638Y029553D01*
X022638Y029475D02*
X025800Y029475D01*
X025667Y028925D02*
X025336Y028925D01*
X025351Y028847D02*
X025700Y028847D01*
X025756Y028768D02*
X025430Y028768D01*
X025508Y028690D02*
X025871Y028690D01*
X026162Y028297D02*
X026505Y028297D01*
X026583Y028219D02*
X026257Y028219D01*
X026306Y028140D02*
X026662Y028140D01*
X026740Y028062D02*
X026336Y028062D01*
X026336Y027983D02*
X026819Y027983D01*
X026860Y027905D02*
X026324Y027905D01*
X026292Y027826D02*
X026860Y027826D01*
X026860Y027748D02*
X026223Y027748D01*
X025426Y028376D02*
X022638Y028376D01*
X022638Y028454D02*
X025348Y028454D01*
X025269Y028533D02*
X022638Y028533D01*
X022638Y028611D02*
X025191Y028611D01*
X024920Y027669D02*
X024867Y027669D01*
X025537Y030731D02*
X022638Y030731D01*
X022638Y030809D02*
X025458Y030809D01*
X025380Y030888D02*
X022638Y030888D01*
X022638Y030966D02*
X025301Y030966D01*
X025223Y031045D02*
X022638Y031045D01*
X022638Y031123D02*
X025144Y031123D01*
X025066Y031202D02*
X022638Y031202D01*
X022638Y031280D02*
X024987Y031280D01*
X024909Y031359D02*
X022638Y031359D01*
X022638Y031437D02*
X024830Y031437D01*
X024752Y031516D02*
X022638Y031516D01*
X022638Y031594D02*
X024673Y031594D01*
X024595Y031673D02*
X022638Y031673D01*
X022638Y031751D02*
X024516Y031751D01*
X024438Y031830D02*
X022638Y031830D01*
X022638Y031908D02*
X024359Y031908D01*
X024281Y031987D02*
X022638Y031987D01*
X022638Y032065D02*
X024202Y032065D01*
X024124Y032144D02*
X022638Y032144D01*
X022638Y032222D02*
X024045Y032222D01*
X023967Y032301D02*
X022638Y032301D01*
X022638Y032379D02*
X023888Y032379D01*
X023810Y032458D02*
X022638Y032458D01*
X022638Y032536D02*
X023731Y032536D01*
X023653Y032615D02*
X022638Y032615D01*
X022638Y032693D02*
X023574Y032693D01*
X023496Y032772D02*
X022638Y032772D01*
X022638Y032850D02*
X023417Y032850D01*
X023339Y032929D02*
X022638Y032929D01*
X022638Y033007D02*
X023260Y033007D01*
X023182Y033086D02*
X022638Y033086D01*
X022638Y033164D02*
X023103Y033164D01*
X023025Y033243D02*
X022638Y033243D01*
X022638Y033321D02*
X022896Y033321D01*
X022818Y033400D02*
X022638Y033400D01*
X022638Y033478D02*
X022800Y033478D01*
X022800Y033557D02*
X022638Y033557D01*
X022638Y033635D02*
X022800Y033635D01*
X022800Y033714D02*
X022638Y033714D01*
X022638Y033792D02*
X022800Y033792D01*
X022800Y033871D02*
X022638Y033871D01*
X022638Y033949D02*
X022800Y033949D01*
X022800Y034028D02*
X022638Y034028D01*
X022638Y034106D02*
X022800Y034106D01*
X022800Y034185D02*
X022638Y034185D01*
X022638Y034263D02*
X022800Y034263D01*
X022800Y034342D02*
X022638Y034342D01*
X022638Y034420D02*
X022800Y034420D01*
X022800Y034499D02*
X022638Y034499D01*
X022638Y034577D02*
X022800Y034577D01*
X022800Y034656D02*
X022638Y034656D01*
X022638Y034734D02*
X022800Y034734D01*
X022800Y034813D02*
X022638Y034813D01*
X022638Y034891D02*
X022800Y034891D01*
X022800Y034970D02*
X022638Y034970D01*
X022638Y035048D02*
X022800Y035048D01*
X022800Y035127D02*
X022638Y035127D01*
X022638Y035205D02*
X022800Y035205D01*
X022800Y035284D02*
X022638Y035284D01*
X022638Y035362D02*
X022800Y035362D01*
X022800Y035441D02*
X022638Y035441D01*
X022638Y035519D02*
X022800Y035519D01*
X022800Y035598D02*
X022638Y035598D01*
X022638Y035676D02*
X022800Y035676D01*
X022800Y035755D02*
X022638Y035755D01*
X022638Y035833D02*
X022800Y035833D01*
X022800Y035912D02*
X022638Y035912D01*
X022638Y035990D02*
X022800Y035990D01*
X022800Y036069D02*
X022638Y036069D01*
X022638Y036147D02*
X022800Y036147D01*
X022800Y036226D02*
X022638Y036226D01*
X022638Y036304D02*
X022800Y036304D01*
X022800Y036383D02*
X022638Y036383D01*
X022638Y036461D02*
X022800Y036461D01*
X022800Y036540D02*
X022638Y036540D01*
X022638Y036618D02*
X022800Y036618D01*
X022800Y036697D02*
X022638Y036697D01*
X022638Y036775D02*
X022800Y036775D01*
X022800Y036854D02*
X022638Y036854D01*
X022638Y036932D02*
X022800Y036932D01*
X022800Y037011D02*
X022638Y037011D01*
X023200Y037011D02*
X024291Y037011D01*
X024370Y036932D02*
X023200Y036932D01*
X023200Y036854D02*
X024448Y036854D01*
X024527Y036775D02*
X023200Y036775D01*
X023200Y036697D02*
X024605Y036697D01*
X024684Y036618D02*
X023200Y036618D01*
X023200Y036540D02*
X024762Y036540D01*
X024841Y036461D02*
X023200Y036461D01*
X023200Y036383D02*
X024919Y036383D01*
X024998Y036304D02*
X023200Y036304D01*
X023200Y036226D02*
X025076Y036226D01*
X025155Y036147D02*
X023200Y036147D01*
X023200Y036069D02*
X025233Y036069D01*
X025312Y035990D02*
X023200Y035990D01*
X023200Y035912D02*
X025390Y035912D01*
X025469Y035833D02*
X023200Y035833D01*
X023200Y035755D02*
X025547Y035755D01*
X025626Y035676D02*
X023200Y035676D01*
X023200Y035598D02*
X025704Y035598D01*
X025783Y035519D02*
X023200Y035519D01*
X023200Y035441D02*
X025861Y035441D01*
X025940Y035362D02*
X023200Y035362D01*
X023200Y035284D02*
X026018Y035284D01*
X026097Y035205D02*
X023200Y035205D01*
X023200Y035127D02*
X026175Y035127D01*
X026254Y035048D02*
X023200Y035048D01*
X023200Y034970D02*
X026332Y034970D01*
X026411Y034891D02*
X023200Y034891D01*
X023200Y034813D02*
X026489Y034813D01*
X026568Y034734D02*
X023200Y034734D01*
X023200Y034656D02*
X026646Y034656D01*
X026725Y034577D02*
X023200Y034577D01*
X023200Y034499D02*
X026803Y034499D01*
X026882Y034420D02*
X023200Y034420D01*
X023200Y034342D02*
X026960Y034342D01*
X027039Y034263D02*
X023200Y034263D01*
X023200Y034185D02*
X027117Y034185D01*
X027196Y034106D02*
X023200Y034106D01*
X023200Y034028D02*
X027274Y034028D01*
X027353Y033949D02*
X023200Y033949D01*
X023200Y033871D02*
X027431Y033871D01*
X027510Y033792D02*
X023200Y033792D01*
X023200Y033714D02*
X027588Y033714D01*
X027667Y033635D02*
X023200Y033635D01*
X023276Y033557D02*
X027745Y033557D01*
X027824Y033478D02*
X023355Y033478D01*
X023433Y033400D02*
X027902Y033400D01*
X027981Y033321D02*
X023512Y033321D01*
X023590Y033243D02*
X028059Y033243D01*
X028138Y033164D02*
X023669Y033164D01*
X023747Y033086D02*
X028216Y033086D01*
X028295Y033007D02*
X023826Y033007D01*
X023904Y032929D02*
X028373Y032929D01*
X028455Y033243D02*
X030811Y033243D01*
X030088Y033321D02*
X028377Y033321D01*
X028298Y033400D02*
X030050Y033400D01*
X030050Y033478D02*
X028220Y033478D01*
X028141Y033557D02*
X030050Y033557D01*
X030017Y033635D02*
X028063Y033635D01*
X027984Y033714D02*
X029938Y033714D01*
X029860Y033792D02*
X027906Y033792D01*
X027827Y033871D02*
X028431Y033871D01*
X028353Y033949D02*
X027749Y033949D01*
X027670Y034028D02*
X028274Y034028D01*
X028196Y034106D02*
X027592Y034106D01*
X027513Y034185D02*
X028117Y034185D01*
X028039Y034263D02*
X027435Y034263D01*
X027356Y034342D02*
X027960Y034342D01*
X027882Y034420D02*
X027278Y034420D01*
X027199Y034499D02*
X027803Y034499D01*
X027725Y034577D02*
X027121Y034577D01*
X027042Y034656D02*
X027646Y034656D01*
X027568Y034734D02*
X026964Y034734D01*
X026885Y034813D02*
X027489Y034813D01*
X027411Y034891D02*
X026807Y034891D01*
X026728Y034970D02*
X027332Y034970D01*
X027254Y035048D02*
X026650Y035048D01*
X026571Y035127D02*
X027175Y035127D01*
X027097Y035205D02*
X026493Y035205D01*
X026414Y035284D02*
X027018Y035284D01*
X026940Y035362D02*
X026336Y035362D01*
X026257Y035441D02*
X026861Y035441D01*
X026783Y035519D02*
X026179Y035519D01*
X026100Y035598D02*
X026704Y035598D01*
X026626Y035676D02*
X026022Y035676D01*
X025943Y035755D02*
X026547Y035755D01*
X026469Y035833D02*
X025865Y035833D01*
X025786Y035912D02*
X026390Y035912D01*
X026312Y035990D02*
X025708Y035990D01*
X025629Y036069D02*
X026233Y036069D01*
X026155Y036147D02*
X025551Y036147D01*
X025472Y036226D02*
X026076Y036226D01*
X025998Y036304D02*
X025394Y036304D01*
X025315Y036383D02*
X025919Y036383D01*
X025841Y036461D02*
X025237Y036461D01*
X025158Y036540D02*
X025762Y036540D01*
X025684Y036618D02*
X025080Y036618D01*
X025001Y036697D02*
X025605Y036697D01*
X025527Y036775D02*
X024923Y036775D01*
X024844Y036854D02*
X025448Y036854D01*
X025370Y036932D02*
X024766Y036932D01*
X024687Y037011D02*
X025291Y037011D01*
X025452Y037246D02*
X025596Y037246D01*
X025564Y037325D02*
X025436Y037325D01*
X025469Y037403D02*
X025531Y037403D01*
X025530Y037482D02*
X025470Y037482D01*
X025470Y037560D02*
X025530Y037560D01*
X025549Y037639D02*
X025451Y037639D01*
X025419Y037717D02*
X025581Y037717D01*
X025631Y037796D02*
X025369Y037796D01*
X025530Y037168D02*
X025668Y037168D01*
X025609Y037089D02*
X025764Y037089D01*
X025687Y037011D02*
X027860Y037011D01*
X027860Y036932D02*
X025766Y036932D01*
X025844Y036854D02*
X027860Y036854D01*
X027860Y036775D02*
X025923Y036775D01*
X026001Y036697D02*
X027860Y036697D01*
X027860Y036618D02*
X026080Y036618D01*
X026158Y036540D02*
X027860Y036540D01*
X027860Y036461D02*
X026237Y036461D01*
X026315Y036383D02*
X027860Y036383D01*
X027860Y036304D02*
X026394Y036304D01*
X026472Y036226D02*
X027860Y036226D01*
X027860Y036147D02*
X026551Y036147D01*
X026629Y036069D02*
X027860Y036069D01*
X027860Y035990D02*
X026708Y035990D01*
X026786Y035912D02*
X027860Y035912D01*
X027919Y035833D02*
X026865Y035833D01*
X026943Y035755D02*
X027997Y035755D01*
X028076Y035676D02*
X027022Y035676D01*
X027100Y035598D02*
X028154Y035598D01*
X028233Y035519D02*
X027179Y035519D01*
X027257Y035441D02*
X028311Y035441D01*
X028310Y035442D02*
X028392Y035360D01*
X030892Y035360D01*
X031360Y034892D01*
X031360Y034891D02*
X030475Y034891D01*
X030475Y034813D02*
X030739Y034813D01*
X030743Y034816D02*
X030684Y034757D01*
X030684Y034640D01*
X030450Y034640D01*
X030450Y034641D01*
X030416Y034675D01*
X030416Y034675D01*
X030475Y034734D01*
X030684Y034734D01*
X030684Y034656D02*
X030436Y034656D01*
X030475Y034734D02*
X030475Y035166D01*
X030416Y035225D01*
X030084Y035225D01*
X030025Y035166D01*
X030025Y034734D01*
X029975Y034734D01*
X029975Y035166D01*
X029916Y035225D01*
X029584Y035225D01*
X029525Y035166D01*
X029525Y035150D01*
X029417Y035150D01*
X029300Y035033D01*
X029300Y034867D01*
X029417Y034750D01*
X029525Y034750D01*
X029525Y034734D01*
X027964Y034734D01*
X028042Y034656D02*
X030064Y034656D01*
X030050Y034641D02*
X030050Y034359D01*
X030109Y034300D01*
X030391Y034300D01*
X030450Y034359D01*
X030450Y034360D01*
X030684Y034360D01*
X030684Y034243D01*
X030743Y034184D01*
X031257Y034184D01*
X031316Y034243D01*
X031316Y034757D01*
X031257Y034816D01*
X030743Y034816D01*
X030475Y034970D02*
X031282Y034970D01*
X031204Y035048D02*
X030475Y035048D01*
X030475Y035127D02*
X031125Y035127D01*
X031047Y035205D02*
X030436Y035205D01*
X030250Y034950D02*
X030250Y034500D01*
X031000Y034500D01*
X031316Y034499D02*
X031360Y034499D01*
X031360Y034577D02*
X031316Y034577D01*
X031316Y034656D02*
X031360Y034656D01*
X031360Y034734D02*
X031316Y034734D01*
X031360Y034813D02*
X031261Y034813D01*
X031316Y034420D02*
X031360Y034420D01*
X031360Y034342D02*
X031316Y034342D01*
X031316Y034263D02*
X031360Y034263D01*
X031360Y034185D02*
X031258Y034185D01*
X031360Y034106D02*
X029942Y034106D01*
X030020Y034028D02*
X031360Y034028D01*
X031360Y033949D02*
X030099Y033949D01*
X030177Y033871D02*
X031360Y033871D01*
X030742Y034185D02*
X028513Y034185D01*
X028435Y034263D02*
X030684Y034263D01*
X030684Y034342D02*
X030433Y034342D01*
X030067Y034342D02*
X028356Y034342D01*
X028278Y034420D02*
X030050Y034420D01*
X030050Y034499D02*
X028199Y034499D01*
X028121Y034577D02*
X030050Y034577D01*
X030050Y034641D02*
X030084Y034675D01*
X030084Y034675D01*
X030025Y034734D01*
X029975Y034734D02*
X029916Y034675D01*
X029584Y034675D01*
X029525Y034734D01*
X029355Y034813D02*
X027885Y034813D01*
X027807Y034891D02*
X029300Y034891D01*
X029300Y034970D02*
X027728Y034970D01*
X027650Y035048D02*
X029315Y035048D01*
X029394Y035127D02*
X027571Y035127D01*
X027493Y035205D02*
X029564Y035205D01*
X029936Y035205D02*
X030064Y035205D01*
X030025Y035127D02*
X029975Y035127D01*
X029975Y035048D02*
X030025Y035048D01*
X030025Y034970D02*
X029975Y034970D01*
X029975Y034891D02*
X030025Y034891D01*
X030025Y034813D02*
X029975Y034813D01*
X030968Y035284D02*
X027414Y035284D01*
X027336Y035362D02*
X028390Y035362D01*
X028140Y037011D02*
X028860Y037011D01*
X028764Y037089D02*
X028236Y037089D01*
X027764Y037089D02*
X027236Y037089D01*
X027332Y037168D02*
X027668Y037168D01*
X027596Y037246D02*
X027404Y037246D01*
X027436Y037325D02*
X027564Y037325D01*
X027531Y037403D02*
X027469Y037403D01*
X027470Y037482D02*
X027530Y037482D01*
X027530Y037560D02*
X027470Y037560D01*
X027451Y037639D02*
X027549Y037639D01*
X027581Y037717D02*
X027419Y037717D01*
X027369Y037796D02*
X027631Y037796D01*
X026631Y037796D02*
X026369Y037796D01*
X026419Y037717D02*
X026581Y037717D01*
X026549Y037639D02*
X026451Y037639D01*
X026470Y037560D02*
X026530Y037560D01*
X026530Y037482D02*
X026470Y037482D01*
X026469Y037403D02*
X026531Y037403D01*
X026564Y037325D02*
X026436Y037325D01*
X026404Y037246D02*
X026596Y037246D01*
X026668Y037168D02*
X026332Y037168D01*
X026236Y037089D02*
X026764Y037089D01*
X024764Y037089D02*
X024609Y037089D01*
X023734Y037102D02*
X023602Y037234D01*
X023530Y037407D01*
X023530Y037593D01*
X023602Y037766D01*
X023697Y037862D01*
X023470Y037862D01*
X023470Y037089D01*
X023470Y037168D02*
X023668Y037168D01*
X023596Y037246D02*
X023470Y037246D01*
X023470Y037325D02*
X023564Y037325D01*
X023531Y037403D02*
X023470Y037403D01*
X023470Y037482D02*
X023530Y037482D01*
X023530Y037560D02*
X023470Y037560D01*
X023470Y037639D02*
X023549Y037639D01*
X023581Y037717D02*
X023470Y037717D01*
X023470Y037796D02*
X023631Y037796D01*
X023050Y033500D02*
X023000Y033500D01*
X023983Y032850D02*
X029902Y032850D01*
X029980Y032772D02*
X024061Y032772D01*
X024140Y032693D02*
X030025Y032693D01*
X030025Y032615D02*
X024218Y032615D01*
X024297Y032536D02*
X030025Y032536D01*
X030025Y032458D02*
X024375Y032458D01*
X024454Y032379D02*
X030025Y032379D01*
X030025Y032301D02*
X024532Y032301D01*
X027009Y031751D02*
X030804Y031751D01*
X030729Y031673D02*
X030419Y031673D01*
X030250Y031500D02*
X031000Y031500D01*
X030773Y031280D02*
X028768Y031280D01*
X028722Y031359D02*
X030050Y031359D01*
X030050Y031437D02*
X028708Y031437D01*
X028846Y031202D02*
X030895Y031202D01*
X030925Y031123D02*
X029618Y031123D01*
X029675Y031045D02*
X030847Y031045D01*
X030784Y030731D02*
X029672Y030731D01*
X029182Y031123D02*
X028925Y031123D01*
X029125Y031066D02*
X029125Y031066D01*
X030081Y031673D02*
X027009Y031673D01*
X030450Y031359D02*
X030717Y031359D01*
X030721Y030652D02*
X030439Y030652D01*
X031557Y031359D02*
X032362Y031359D01*
X032362Y031437D02*
X031635Y031437D01*
X031640Y031516D02*
X032362Y031516D01*
X032362Y031594D02*
X031640Y031594D01*
X031640Y031673D02*
X032362Y031673D01*
X032362Y031751D02*
X031640Y031751D01*
X031640Y031830D02*
X032362Y031830D01*
X032362Y031908D02*
X031640Y031908D01*
X031640Y031987D02*
X032362Y031987D01*
X032362Y032065D02*
X031640Y032065D01*
X031640Y032144D02*
X032362Y032144D01*
X032362Y032222D02*
X031640Y032222D01*
X031640Y032301D02*
X032362Y032301D01*
X032362Y032379D02*
X031640Y032379D01*
X031640Y032458D02*
X032362Y032458D01*
X032362Y032536D02*
X031640Y032536D01*
X031640Y032615D02*
X032362Y032615D01*
X032362Y032693D02*
X031640Y032693D01*
D22*
X028800Y031800D03*
X028350Y032200D03*
X027500Y032000D03*
X027500Y031000D03*
X027500Y030000D03*
X026500Y030000D03*
X026500Y029000D03*
X027500Y029000D03*
X028500Y029000D03*
X028500Y028000D03*
X027500Y028000D03*
X026500Y028000D03*
X026500Y027000D03*
X027500Y027000D03*
X028500Y027000D03*
X028500Y026000D03*
X027500Y026000D03*
X026500Y026000D03*
X025500Y026000D03*
X024500Y026000D03*
X024500Y027000D03*
X023500Y027000D03*
X023500Y028000D03*
X024500Y028000D03*
X025500Y028000D03*
X025500Y029000D03*
X024500Y029000D03*
X023500Y029000D03*
X023500Y030000D03*
X024500Y030000D03*
X025500Y030000D03*
X024500Y031000D03*
X023500Y031000D03*
X023500Y032000D03*
X024500Y033000D03*
X024500Y034000D03*
X023500Y034000D03*
X023500Y035000D03*
X024500Y035000D03*
X025500Y035000D03*
X025500Y034000D03*
X025500Y033000D03*
X025500Y032000D03*
X026500Y033000D03*
X026500Y034000D03*
X027500Y033000D03*
X028500Y035000D03*
X029500Y034950D03*
X027500Y036000D03*
X027500Y037000D03*
X026500Y037000D03*
X024500Y036000D03*
X023500Y036000D03*
X028950Y030300D03*
X029500Y029000D03*
X029950Y028700D03*
X029500Y028000D03*
X030500Y028000D03*
X029500Y027000D03*
X029500Y026000D03*
X030500Y026000D03*
X031500Y026000D03*
X030500Y030000D03*
X031500Y036000D03*
X031500Y037000D03*
D23*
X029750Y034950D02*
X029500Y034950D01*
X028200Y030550D02*
X026000Y030550D01*
X023050Y033500D01*
X023000Y033500D02*
X023000Y037500D01*
X026000Y030550D02*
X026000Y029000D01*
X028200Y030300D02*
X028200Y030550D01*
X028200Y030300D02*
X028500Y030000D01*
X029450Y030000D01*
X030250Y029200D01*
X030250Y029000D01*
X031500Y029000D01*
X032000Y028500D01*
M02*
