G75*
%MOIN*%
%OFA0B0*%
%FSLAX24Y24*%
%IPPOS*%
%LPD*%
%AMOC8*
5,1,8,0,0,1.08239X$1,22.5*
%
%ADD10C,0.0000*%
%ADD11R,0.0200X0.0200*%
%ADD12R,0.0472X0.0472*%
%ADD13C,0.0472*%
%ADD14R,0.0350X0.0250*%
%ADD15R,0.0394X0.0531*%
%ADD16R,0.0740X0.0740*%
%ADD17C,0.0740*%
D10*
X022500Y025000D02*
X022500Y029000D01*
X032500Y029000D01*
X032500Y025000D01*
X022500Y025000D01*
D11*
X023000Y026350D03*
X023000Y026650D03*
X024000Y026650D03*
X024000Y026350D03*
X026000Y026350D03*
X026000Y026650D03*
X027000Y026650D03*
X027000Y026350D03*
X030000Y028450D03*
X030000Y028750D03*
X030500Y028550D03*
X030500Y028250D03*
X030500Y027750D03*
X030500Y027450D03*
D12*
X023000Y027500D03*
D13*
X024000Y027500D03*
X024000Y028500D03*
X023000Y028500D03*
X025000Y028500D03*
X026000Y028500D03*
X027000Y028500D03*
X027000Y027500D03*
X026000Y027500D03*
X025000Y027500D03*
X028000Y027500D03*
X029000Y027500D03*
X029000Y028500D03*
X028000Y028500D03*
D14*
X028000Y026750D03*
X028000Y026250D03*
X030050Y027450D03*
X030050Y027950D03*
X025000Y026750D03*
X025000Y026250D03*
D15*
X031435Y026884D03*
X032065Y026884D03*
X032065Y028596D03*
X031435Y028596D03*
D16*
X030000Y026500D03*
X023000Y025500D03*
D17*
X024000Y025500D03*
X025000Y025500D03*
X026000Y025500D03*
X027000Y025500D03*
X028000Y025500D03*
X029000Y025500D03*
X030000Y025500D03*
X031000Y025500D03*
X032000Y025500D03*
X029000Y026500D03*
M02*
