G75*
%MOIN*%
%OFA0B0*%
%FSLAX24Y24*%
%IPPOS*%
%LPD*%
%AMOC8*
5,1,8,0,0,1.08239X$1,22.5*
%
%ADD10C,0.0000*%
%ADD11C,0.0030*%
%ADD12C,0.0050*%
%ADD13C,0.0080*%
D10*
X022500Y025000D02*
X022500Y029000D01*
X032500Y029000D01*
X032500Y025000D01*
X022500Y025000D01*
D11*
X022727Y026085D02*
X022775Y026133D01*
X022775Y026182D01*
X022727Y026230D01*
X022485Y026230D01*
X022485Y026182D02*
X022485Y026278D01*
X022582Y026380D02*
X022485Y026476D01*
X022775Y026476D01*
X022775Y026380D02*
X022775Y026573D01*
X023265Y026619D02*
X023313Y026570D01*
X023265Y026619D02*
X023265Y026715D01*
X023313Y026764D01*
X023362Y026764D01*
X023555Y026570D01*
X023555Y026764D01*
X023555Y026469D02*
X023458Y026372D01*
X023458Y026421D02*
X023458Y026276D01*
X023555Y026276D02*
X023265Y026276D01*
X023265Y026421D01*
X023313Y026469D01*
X023410Y026469D01*
X023458Y026421D01*
X024265Y026421D02*
X024313Y026469D01*
X024410Y026469D01*
X024458Y026421D01*
X024458Y026276D01*
X024458Y026372D02*
X024555Y026469D01*
X024507Y026570D02*
X024555Y026619D01*
X024555Y026715D01*
X024507Y026764D01*
X024458Y026764D01*
X024410Y026715D01*
X024410Y026667D01*
X024410Y026715D02*
X024362Y026764D01*
X024313Y026764D01*
X024265Y026715D01*
X024265Y026619D01*
X024313Y026570D01*
X024265Y026421D02*
X024265Y026276D01*
X024555Y026276D01*
X025315Y026276D02*
X025315Y026421D01*
X025363Y026469D01*
X025460Y026469D01*
X025508Y026421D01*
X025508Y026276D01*
X025508Y026372D02*
X025605Y026469D01*
X025460Y026570D02*
X025460Y026764D01*
X025605Y026715D02*
X025315Y026715D01*
X025460Y026570D01*
X025605Y026276D02*
X025315Y026276D01*
X026265Y026276D02*
X026265Y026421D01*
X026313Y026469D01*
X026410Y026469D01*
X026458Y026421D01*
X026458Y026276D01*
X026458Y026372D02*
X026555Y026469D01*
X026507Y026570D02*
X026555Y026619D01*
X026555Y026715D01*
X026507Y026764D01*
X026410Y026764D01*
X026362Y026715D01*
X026362Y026667D01*
X026410Y026570D01*
X026265Y026570D01*
X026265Y026764D01*
X026265Y026276D02*
X026555Y026276D01*
X027265Y026276D02*
X027265Y026421D01*
X027313Y026469D01*
X027410Y026469D01*
X027458Y026421D01*
X027458Y026276D01*
X027458Y026372D02*
X027555Y026469D01*
X027507Y026570D02*
X027555Y026619D01*
X027555Y026715D01*
X027507Y026764D01*
X027458Y026764D01*
X027410Y026715D01*
X027410Y026570D01*
X027507Y026570D01*
X027410Y026570D02*
X027313Y026667D01*
X027265Y026764D01*
X027265Y026276D02*
X027555Y026276D01*
X028315Y026276D02*
X028315Y026421D01*
X028363Y026469D01*
X028460Y026469D01*
X028508Y026421D01*
X028508Y026276D01*
X028508Y026372D02*
X028605Y026469D01*
X028605Y026570D02*
X028557Y026570D01*
X028363Y026764D01*
X028315Y026764D01*
X028315Y026570D01*
X028315Y026276D02*
X028605Y026276D01*
X029495Y027062D02*
X029495Y027158D01*
X029495Y027110D02*
X029737Y027110D01*
X029785Y027062D01*
X029785Y027013D01*
X029737Y026965D01*
X029737Y027260D02*
X029785Y027308D01*
X029785Y027405D01*
X029737Y027453D01*
X029688Y027453D01*
X029640Y027405D01*
X029640Y027356D01*
X029640Y027405D02*
X029592Y027453D01*
X029543Y027453D01*
X029495Y027405D01*
X029495Y027308D01*
X029543Y027260D01*
X029515Y027426D02*
X029515Y027571D01*
X029563Y027619D01*
X029660Y027619D01*
X029708Y027571D01*
X029708Y027426D01*
X029708Y027522D02*
X029805Y027619D01*
X029757Y027720D02*
X029708Y027720D01*
X029660Y027769D01*
X029660Y027865D01*
X029708Y027914D01*
X029757Y027914D01*
X029805Y027865D01*
X029805Y027769D01*
X029757Y027720D01*
X029660Y027769D02*
X029612Y027720D01*
X029563Y027720D01*
X029515Y027769D01*
X029515Y027865D01*
X029563Y027914D01*
X029612Y027914D01*
X029660Y027865D01*
X029692Y028220D02*
X029595Y028317D01*
X029885Y028317D01*
X029885Y028220D02*
X029885Y028414D01*
X029805Y028424D02*
X029805Y028521D01*
X029757Y028569D01*
X029740Y028515D02*
X029740Y028708D01*
X029805Y028670D02*
X029612Y028864D01*
X029563Y028864D01*
X029515Y028815D01*
X029515Y028719D01*
X029563Y028670D01*
X029595Y028660D02*
X029740Y028515D01*
X029805Y028424D02*
X029757Y028376D01*
X029563Y028376D01*
X029515Y028424D01*
X029515Y028521D01*
X029563Y028569D01*
X029595Y028660D02*
X029885Y028660D01*
X029805Y028670D02*
X029805Y028864D01*
X030695Y028556D02*
X030985Y028556D01*
X030985Y028460D02*
X030985Y028653D01*
X030792Y028460D02*
X030695Y028556D01*
X030743Y028358D02*
X030695Y028310D01*
X030695Y028213D01*
X030743Y028165D01*
X030937Y028165D01*
X030985Y028213D01*
X030985Y028310D01*
X030937Y028358D01*
X030985Y027953D02*
X030985Y027760D01*
X030985Y027856D02*
X030695Y027856D01*
X030792Y027760D01*
X030840Y027658D02*
X030743Y027658D01*
X030695Y027610D01*
X030695Y027465D01*
X030985Y027465D01*
X030888Y027465D02*
X030888Y027610D01*
X030840Y027658D01*
X030888Y027562D02*
X030985Y027658D01*
X030945Y027374D02*
X030945Y027180D01*
X030945Y027277D02*
X030655Y027277D01*
X030752Y027180D01*
X030655Y027079D02*
X030945Y027079D01*
X030848Y026982D01*
X030945Y026886D01*
X030655Y026886D01*
X030703Y026785D02*
X030655Y026736D01*
X030655Y026639D01*
X030703Y026591D01*
X030752Y026591D01*
X030800Y026639D01*
X030800Y026736D01*
X030848Y026785D01*
X030897Y026785D01*
X030945Y026736D01*
X030945Y026639D01*
X030897Y026591D01*
X030899Y026425D02*
X030850Y026377D01*
X030899Y026425D02*
X030995Y026425D01*
X031044Y026377D01*
X031044Y026328D01*
X030850Y026135D01*
X031044Y026135D01*
X031115Y026115D02*
X031115Y026405D01*
X031260Y026405D01*
X031308Y026357D01*
X031308Y026260D01*
X031260Y026212D01*
X031115Y026212D01*
X031212Y026212D02*
X031308Y026115D01*
X031410Y026115D02*
X031603Y026115D01*
X031704Y026163D02*
X031753Y026115D01*
X031849Y026115D01*
X031898Y026163D01*
X031898Y026212D01*
X031849Y026260D01*
X031753Y026260D01*
X031704Y026308D01*
X031704Y026357D01*
X031753Y026405D01*
X031849Y026405D01*
X031898Y026357D01*
X031999Y026405D02*
X031999Y026115D01*
X032192Y026115D01*
X032096Y026260D02*
X031999Y026260D01*
X031999Y026405D02*
X032192Y026405D01*
X032294Y026405D02*
X032487Y026405D01*
X032390Y026405D02*
X032390Y026115D01*
X031603Y026405D02*
X031410Y026405D01*
X031410Y026115D01*
X031410Y026260D02*
X031506Y026260D01*
X030749Y026425D02*
X030652Y026425D01*
X030701Y026425D02*
X030701Y026183D01*
X030652Y026135D01*
X030604Y026135D01*
X030556Y026183D01*
X029805Y027426D02*
X029515Y027426D01*
X022385Y027468D02*
X022385Y027661D01*
X022385Y027564D02*
X022095Y027564D01*
X022192Y027468D01*
D12*
X022500Y027000D02*
X022500Y029000D01*
X029500Y029000D01*
X029500Y027000D01*
X022500Y027000D01*
X022800Y026900D02*
X022800Y026100D01*
X023200Y026100D01*
X023200Y026900D01*
X022800Y026900D01*
X023800Y026900D02*
X023800Y026100D01*
X024200Y026100D01*
X024200Y026900D01*
X023800Y026900D01*
X024750Y027000D02*
X025250Y027000D01*
X025250Y026000D01*
X024750Y026000D01*
X024750Y027000D01*
X025800Y026900D02*
X025800Y026100D01*
X026200Y026100D01*
X026200Y026900D01*
X025800Y026900D01*
X026800Y026900D02*
X026800Y026100D01*
X027200Y026100D01*
X027200Y026900D01*
X026800Y026900D01*
X027750Y027000D02*
X028250Y027000D01*
X028250Y026000D01*
X027750Y026000D01*
X027750Y027000D01*
X029800Y027200D02*
X030300Y027200D01*
X030700Y027200D01*
X030700Y028000D01*
X030700Y028800D01*
X030300Y028800D01*
X030300Y028000D01*
X030700Y028000D01*
X030300Y028000D01*
X030300Y027200D01*
X030300Y028200D01*
X029800Y028200D01*
X029800Y027200D01*
X029800Y028200D02*
X030200Y028200D01*
X030200Y029000D01*
X029800Y029000D01*
X029800Y028200D01*
X031000Y028990D02*
X032500Y028990D01*
X032500Y026490D01*
X031000Y026490D01*
X031000Y028990D01*
D13*
X022500Y026000D02*
X022500Y025000D01*
X023500Y025000D01*
X023500Y025250D01*
X023750Y025000D01*
X024250Y025000D01*
X024500Y025250D01*
X024750Y025000D01*
X025250Y025000D01*
X025500Y025250D01*
X025750Y025000D01*
X026250Y025000D01*
X026500Y025250D01*
X026750Y025000D01*
X027250Y025000D01*
X027500Y025250D01*
X027750Y025000D01*
X028250Y025000D01*
X028500Y025250D01*
X028750Y025000D01*
X029250Y025000D01*
X029500Y025250D01*
X029750Y025000D01*
X030250Y025000D01*
X030500Y025250D01*
X030750Y025000D01*
X031250Y025000D01*
X031500Y025250D01*
X031750Y025000D01*
X032250Y025000D01*
X032500Y025250D01*
X032500Y025750D01*
X032250Y026000D01*
X031750Y026000D01*
X031500Y025750D01*
X031250Y026000D01*
X030750Y026000D01*
X030500Y025750D01*
X030250Y026000D01*
X029750Y026000D01*
X029500Y025750D01*
X029250Y026000D01*
X028750Y026000D01*
X028500Y026250D01*
X028500Y026750D01*
X028750Y027000D01*
X029250Y027000D01*
X029500Y026750D01*
X029500Y027000D01*
X030500Y027000D01*
X030500Y026000D01*
X029500Y026000D01*
X029500Y026250D01*
X029250Y026000D01*
X028750Y026000D01*
X028500Y025750D01*
X028250Y026000D01*
X027750Y026000D01*
X027500Y025750D01*
X027250Y026000D01*
X026750Y026000D01*
X026500Y025750D01*
X026250Y026000D01*
X025750Y026000D01*
X025500Y025750D01*
X025250Y026000D01*
X024750Y026000D01*
X024500Y025750D01*
X024250Y026000D01*
X023750Y026000D01*
X023500Y025750D01*
X023500Y026000D01*
X022500Y026000D01*
M02*
