%
M48
M72
T01C0.0118
T02C0.0360
T03C0.0400
T04C0.1260
%
T01
X28500Y25850
X27200Y26200
X27450Y26800
X28150Y26800
X29500Y26000
X30500Y26000
X30500Y27000
X30500Y28000
X29750Y28750
X29800Y29450
X29400Y30200
X30400Y30850
X29800Y30950
X29350Y31050
X29550Y31700
X30400Y31450
X29950Y32500
X30350Y32900
X29950Y34050
X29800Y34500
X30500Y35000
X29500Y36000
X28500Y35000
X27500Y35000
X27500Y36000
X26750Y36250
X26150Y35650
X26100Y35150
X25150Y36000
X25450Y36250
X24850Y35750
X24550Y36000
X23500Y35000
X23500Y34000
X23500Y33000
X24500Y33000
X24500Y34000
X24500Y32000
X23500Y32000
X23500Y31000
X24500Y31000
X24500Y30000
X25250Y29750
X24500Y29000
X23500Y29000
X23500Y28000
X24500Y28000
X23500Y27000
X26500Y27000
X27000Y28250
X26500Y28500
X27750Y28850
X27750Y29200
X28250Y28750
X26500Y29350
X26700Y29850
X26500Y30300
X26500Y31000
X27750Y31100
X28150Y31450
X26500Y32000
X26500Y33000
X26500Y34000
X28500Y37000
X30500Y37000
X31500Y37000
X31500Y36000
X23500Y30000
X31500Y26000
T02
X31000Y28500
X32000Y28500
X32000Y29500
X31000Y29500
X31000Y30500
X32000Y30500
X32000Y31500
X31000Y31500
X31000Y32500
X31000Y33500
X32000Y33500
X32000Y32500
X32000Y34500
X31000Y34500
T03
X23000Y25500
X24000Y25500
X25000Y25500
X26000Y25500
X27000Y25500
X28000Y25500
X29000Y25500
X30000Y25500
X31000Y25500
X32000Y25500
X28750Y27250
X28750Y28250
X28750Y29250
X28750Y30250
X28750Y31250
X28750Y32250
X28750Y33250
X28750Y34250
X29000Y36500
X30000Y36500
X30000Y37500
X29000Y37500
X28000Y37500
X27000Y37500
X26000Y37500
X25000Y37500
X24000Y37500
X23000Y37500
X25750Y34250
X25750Y33250
X25750Y32250
X25750Y31250
X25750Y30250
X25750Y29250
X25750Y28250
X25750Y27250
X31000Y37500
X32000Y37500
T04
X31335Y27362
M30
