G75*
%MOIN*%
%OFA0B0*%
%FSLAX24Y24*%
%IPPOS*%
%LPD*%
%AMOC8*
5,1,8,0,0,1.08239X$1,22.5*
%
%ADD10C,0.0000*%
%ADD11R,0.0394X0.0276*%
%ADD12R,0.0236X0.0276*%
%ADD13R,0.0450X0.0700*%
%ADD14R,0.0200X0.0200*%
%ADD15R,0.0709X0.0551*%
%ADD16R,0.0400X0.0600*%
%ADD17R,0.1181X0.0354*%
%ADD18R,0.2047X0.1181*%
%ADD19R,0.0740X0.0740*%
%ADD20C,0.0740*%
%ADD21R,0.0250X0.0350*%
%ADD22R,0.0472X0.0236*%
%ADD23R,0.0600X0.0400*%
%ADD24C,0.0080*%
%ADD25C,0.0197*%
%ADD26C,0.0145*%
%ADD27C,0.0400*%
%ADD28C,0.0200*%
%ADD29C,0.0300*%
D10*
X022500Y025000D02*
X022500Y038000D01*
X032500Y038000D01*
X032500Y025000D01*
X022500Y025000D01*
X028974Y030555D02*
X028976Y030588D01*
X028982Y030620D01*
X028991Y030651D01*
X029004Y030681D01*
X029021Y030709D01*
X029041Y030735D01*
X029064Y030759D01*
X029089Y030779D01*
X029117Y030797D01*
X029146Y030811D01*
X029177Y030821D01*
X029209Y030828D01*
X029242Y030831D01*
X029275Y030830D01*
X029307Y030825D01*
X029338Y030816D01*
X029369Y030804D01*
X029397Y030788D01*
X029424Y030769D01*
X029448Y030747D01*
X029469Y030722D01*
X029488Y030695D01*
X029503Y030666D01*
X029514Y030636D01*
X029522Y030604D01*
X029526Y030571D01*
X029526Y030539D01*
X029522Y030506D01*
X029514Y030474D01*
X029503Y030444D01*
X029488Y030415D01*
X029469Y030388D01*
X029448Y030363D01*
X029424Y030341D01*
X029397Y030322D01*
X029369Y030306D01*
X029338Y030294D01*
X029307Y030285D01*
X029275Y030280D01*
X029242Y030279D01*
X029209Y030282D01*
X029177Y030289D01*
X029146Y030299D01*
X029117Y030313D01*
X029089Y030331D01*
X029064Y030351D01*
X029041Y030375D01*
X029021Y030401D01*
X029004Y030429D01*
X028991Y030459D01*
X028982Y030490D01*
X028976Y030522D01*
X028974Y030555D01*
X028974Y032445D02*
X028976Y032478D01*
X028982Y032510D01*
X028991Y032541D01*
X029004Y032571D01*
X029021Y032599D01*
X029041Y032625D01*
X029064Y032649D01*
X029089Y032669D01*
X029117Y032687D01*
X029146Y032701D01*
X029177Y032711D01*
X029209Y032718D01*
X029242Y032721D01*
X029275Y032720D01*
X029307Y032715D01*
X029338Y032706D01*
X029369Y032694D01*
X029397Y032678D01*
X029424Y032659D01*
X029448Y032637D01*
X029469Y032612D01*
X029488Y032585D01*
X029503Y032556D01*
X029514Y032526D01*
X029522Y032494D01*
X029526Y032461D01*
X029526Y032429D01*
X029522Y032396D01*
X029514Y032364D01*
X029503Y032334D01*
X029488Y032305D01*
X029469Y032278D01*
X029448Y032253D01*
X029424Y032231D01*
X029397Y032212D01*
X029369Y032196D01*
X029338Y032184D01*
X029307Y032175D01*
X029275Y032170D01*
X029242Y032169D01*
X029209Y032172D01*
X029177Y032179D01*
X029146Y032189D01*
X029117Y032203D01*
X029089Y032221D01*
X029064Y032241D01*
X029041Y032265D01*
X029021Y032291D01*
X029004Y032319D01*
X028991Y032349D01*
X028982Y032380D01*
X028976Y032412D01*
X028974Y032445D01*
X030705Y027362D02*
X030707Y027412D01*
X030713Y027462D01*
X030723Y027511D01*
X030737Y027559D01*
X030754Y027606D01*
X030775Y027651D01*
X030800Y027695D01*
X030828Y027736D01*
X030860Y027775D01*
X030894Y027812D01*
X030931Y027846D01*
X030971Y027876D01*
X031013Y027903D01*
X031057Y027927D01*
X031103Y027948D01*
X031150Y027964D01*
X031198Y027977D01*
X031248Y027986D01*
X031297Y027991D01*
X031348Y027992D01*
X031398Y027989D01*
X031447Y027982D01*
X031496Y027971D01*
X031544Y027956D01*
X031590Y027938D01*
X031635Y027916D01*
X031678Y027890D01*
X031719Y027861D01*
X031758Y027829D01*
X031794Y027794D01*
X031826Y027756D01*
X031856Y027716D01*
X031883Y027673D01*
X031906Y027629D01*
X031925Y027583D01*
X031941Y027535D01*
X031953Y027486D01*
X031961Y027437D01*
X031965Y027387D01*
X031965Y027337D01*
X031961Y027287D01*
X031953Y027238D01*
X031941Y027189D01*
X031925Y027141D01*
X031906Y027095D01*
X031883Y027051D01*
X031856Y027008D01*
X031826Y026968D01*
X031794Y026930D01*
X031758Y026895D01*
X031719Y026863D01*
X031678Y026834D01*
X031635Y026808D01*
X031590Y026786D01*
X031544Y026768D01*
X031496Y026753D01*
X031447Y026742D01*
X031398Y026735D01*
X031348Y026732D01*
X031297Y026733D01*
X031248Y026738D01*
X031198Y026747D01*
X031150Y026760D01*
X031103Y026776D01*
X031057Y026797D01*
X031013Y026821D01*
X030971Y026848D01*
X030931Y026878D01*
X030894Y026912D01*
X030860Y026949D01*
X030828Y026988D01*
X030800Y027029D01*
X030775Y027073D01*
X030754Y027118D01*
X030737Y027165D01*
X030723Y027213D01*
X030713Y027262D01*
X030707Y027312D01*
X030705Y027362D01*
D11*
X026045Y030944D03*
D12*
X025376Y030944D03*
X025376Y030156D03*
X026124Y030156D03*
D13*
X028600Y036050D03*
X029800Y036050D03*
D14*
X024050Y030200D03*
X023750Y030200D03*
X023750Y029800D03*
X024050Y029800D03*
X024050Y029400D03*
X023750Y029400D03*
X023250Y029400D03*
X022950Y029400D03*
X024500Y029450D03*
X024500Y029750D03*
X024900Y029750D03*
X024900Y029450D03*
X025850Y029750D03*
X026150Y029750D03*
D15*
X026200Y027931D03*
X026200Y026869D03*
D16*
X026200Y029150D03*
X025500Y029150D03*
D17*
X027518Y030122D03*
X027518Y031106D03*
X027518Y031894D03*
X027518Y032878D03*
D18*
X028581Y034453D03*
X028581Y028547D03*
D19*
X023000Y025500D03*
X023000Y037500D03*
D20*
X024000Y037500D03*
X025000Y037500D03*
X026000Y037500D03*
X027000Y037500D03*
X028000Y037500D03*
X029000Y037500D03*
X030000Y037500D03*
X031000Y037500D03*
X032000Y037500D03*
X032000Y025500D03*
X031000Y025500D03*
X030000Y025500D03*
X029000Y025500D03*
X028000Y025500D03*
X027000Y025500D03*
X026000Y025500D03*
X025000Y025500D03*
X024000Y025500D03*
D21*
X024150Y027550D03*
X023650Y027550D03*
D22*
X024062Y028126D03*
X024062Y028500D03*
X024062Y028874D03*
X023038Y028874D03*
X023038Y028500D03*
X023038Y028126D03*
D23*
X022900Y027400D03*
X022900Y026700D03*
D24*
X022638Y026727D02*
X023349Y026727D01*
X023427Y026649D02*
X022638Y026649D01*
X022638Y026570D02*
X023506Y026570D01*
X023530Y026546D02*
X023640Y026500D01*
X025797Y026500D01*
X025804Y026493D01*
X026596Y026493D01*
X026654Y026551D01*
X026654Y027125D01*
X029586Y027125D01*
X030225Y026486D01*
X030225Y025969D01*
X030187Y025931D01*
X030093Y025970D01*
X029907Y025970D01*
X029734Y025898D01*
X029602Y025766D01*
X029530Y025593D01*
X029530Y025407D01*
X029602Y025234D01*
X029697Y025138D01*
X029303Y025138D01*
X029398Y025234D01*
X029470Y025407D01*
X029470Y025593D01*
X029398Y025766D01*
X029266Y025898D01*
X029093Y025970D01*
X028907Y025970D01*
X028734Y025898D01*
X028602Y025766D01*
X028530Y025593D01*
X028530Y025407D01*
X028602Y025234D01*
X028697Y025138D01*
X027303Y025138D01*
X027398Y025234D01*
X027470Y025407D01*
X027470Y025593D01*
X027398Y025766D01*
X027266Y025898D01*
X027093Y025970D01*
X026907Y025970D01*
X026734Y025898D01*
X026602Y025766D01*
X026530Y025593D01*
X026530Y025407D01*
X026602Y025234D01*
X026697Y025138D01*
X026303Y025138D01*
X026398Y025234D01*
X026470Y025407D01*
X026470Y025593D01*
X026398Y025766D01*
X026266Y025898D01*
X026093Y025970D01*
X025907Y025970D01*
X025734Y025898D01*
X025602Y025766D01*
X025530Y025593D01*
X025530Y025407D01*
X025602Y025234D01*
X025697Y025138D01*
X025303Y025138D01*
X025398Y025234D01*
X025470Y025407D01*
X025470Y025593D01*
X025398Y025766D01*
X025266Y025898D01*
X025093Y025970D01*
X024907Y025970D01*
X024734Y025898D01*
X024602Y025766D01*
X024530Y025593D01*
X024530Y025407D01*
X024602Y025234D01*
X024697Y025138D01*
X024303Y025138D01*
X024398Y025234D01*
X024470Y025407D01*
X024470Y025593D01*
X024398Y025766D01*
X024266Y025898D01*
X024093Y025970D01*
X023907Y025970D01*
X023734Y025898D01*
X023602Y025766D01*
X023530Y025593D01*
X023530Y025407D01*
X023602Y025234D01*
X023697Y025138D01*
X023470Y025138D01*
X023470Y025911D01*
X023411Y025970D01*
X022638Y025970D01*
X022638Y027100D01*
X022976Y027100D01*
X023446Y026630D01*
X023530Y026546D01*
X023270Y026806D02*
X022638Y026806D01*
X022638Y026884D02*
X023192Y026884D01*
X023113Y026963D02*
X022638Y026963D01*
X022638Y027041D02*
X023035Y027041D01*
X023491Y027434D02*
X023762Y027434D01*
X023762Y027512D02*
X023412Y027512D01*
X023334Y027591D02*
X023762Y027591D01*
X023762Y027669D02*
X023300Y027669D01*
X023300Y027624D02*
X023300Y027908D01*
X023316Y027908D01*
X023374Y027966D01*
X023374Y028286D01*
X023347Y028313D01*
X023374Y028340D01*
X023374Y028660D01*
X023347Y028687D01*
X023374Y028714D01*
X023374Y028734D01*
X023382Y028734D01*
X023410Y028762D01*
X023410Y028508D01*
X023410Y028392D01*
X023726Y028076D01*
X023726Y027966D01*
X023762Y027930D01*
X023762Y027216D01*
X023800Y027124D01*
X023300Y027624D01*
X023300Y027748D02*
X023762Y027748D01*
X023762Y027826D02*
X023300Y027826D01*
X023300Y027905D02*
X023762Y027905D01*
X023726Y027983D02*
X023374Y027983D01*
X023374Y028062D02*
X023726Y028062D01*
X023662Y028140D02*
X023374Y028140D01*
X023374Y028219D02*
X023583Y028219D01*
X023505Y028297D02*
X023363Y028297D01*
X023374Y028376D02*
X023426Y028376D01*
X023410Y028454D02*
X023374Y028454D01*
X023374Y028533D02*
X023410Y028533D01*
X023410Y028611D02*
X023374Y028611D01*
X023349Y028690D02*
X023410Y028690D01*
X023324Y028874D02*
X023400Y028950D01*
X023400Y029200D01*
X023550Y029350D01*
X023550Y029600D01*
X023750Y029800D01*
X023550Y029798D02*
X023410Y029658D01*
X023410Y029408D01*
X023342Y029340D01*
X023260Y029258D01*
X023260Y029092D01*
X022840Y029092D01*
X022948Y029200D01*
X023091Y029200D01*
X023150Y029259D01*
X023150Y029541D01*
X023091Y029600D01*
X022809Y029600D01*
X022750Y029541D01*
X022750Y029398D01*
X022638Y029286D01*
X022638Y037030D01*
X023411Y037030D01*
X023470Y037089D01*
X023764Y037089D01*
X023734Y037102D02*
X023907Y037030D01*
X024093Y037030D01*
X024266Y037102D01*
X024398Y037234D01*
X024470Y037407D01*
X024470Y037593D01*
X024398Y037766D01*
X024303Y037862D01*
X024697Y037862D01*
X024602Y037766D01*
X024530Y037593D01*
X024530Y037407D01*
X024602Y037234D01*
X024734Y037102D01*
X024860Y037049D01*
X024860Y031608D01*
X023692Y030440D01*
X023652Y030400D01*
X023609Y030400D01*
X023550Y030341D01*
X023550Y030059D01*
X023609Y030000D01*
X023550Y029941D01*
X023550Y029798D01*
X023541Y029789D02*
X022638Y029789D01*
X022638Y029867D02*
X023550Y029867D01*
X023554Y029946D02*
X022638Y029946D01*
X022638Y030024D02*
X023585Y030024D01*
X023609Y030000D02*
X023891Y030000D01*
X023609Y030000D01*
X023550Y030103D02*
X022638Y030103D01*
X022638Y030181D02*
X023550Y030181D01*
X023550Y030260D02*
X022638Y030260D01*
X022638Y030338D02*
X023550Y030338D01*
X023669Y030417D02*
X022638Y030417D01*
X022638Y030495D02*
X023747Y030495D01*
X023826Y030574D02*
X022638Y030574D01*
X022638Y030652D02*
X023904Y030652D01*
X023983Y030731D02*
X022638Y030731D01*
X022638Y030809D02*
X024061Y030809D01*
X024140Y030888D02*
X022638Y030888D01*
X022638Y030966D02*
X024218Y030966D01*
X024297Y031045D02*
X022638Y031045D01*
X022638Y031123D02*
X024375Y031123D01*
X024454Y031202D02*
X022638Y031202D01*
X022638Y031280D02*
X024532Y031280D01*
X024611Y031359D02*
X022638Y031359D01*
X022638Y031437D02*
X024689Y031437D01*
X024768Y031516D02*
X022638Y031516D01*
X022638Y031594D02*
X024846Y031594D01*
X024860Y031673D02*
X022638Y031673D01*
X022638Y031751D02*
X024860Y031751D01*
X024860Y031830D02*
X022638Y031830D01*
X022638Y031908D02*
X024860Y031908D01*
X024860Y031987D02*
X022638Y031987D01*
X022638Y032065D02*
X024860Y032065D01*
X024860Y032144D02*
X022638Y032144D01*
X022638Y032222D02*
X024860Y032222D01*
X024860Y032301D02*
X022638Y032301D01*
X022638Y032379D02*
X024860Y032379D01*
X024860Y032458D02*
X022638Y032458D01*
X022638Y032536D02*
X024860Y032536D01*
X024860Y032615D02*
X022638Y032615D01*
X022638Y032693D02*
X024860Y032693D01*
X024860Y032772D02*
X022638Y032772D01*
X022638Y032850D02*
X024860Y032850D01*
X024860Y032929D02*
X022638Y032929D01*
X022638Y033007D02*
X024860Y033007D01*
X024860Y033086D02*
X022638Y033086D01*
X022638Y033164D02*
X024860Y033164D01*
X024860Y033243D02*
X022638Y033243D01*
X022638Y033321D02*
X024860Y033321D01*
X024860Y033400D02*
X022638Y033400D01*
X022638Y033478D02*
X024860Y033478D01*
X024860Y033557D02*
X022638Y033557D01*
X022638Y033635D02*
X024860Y033635D01*
X024860Y033714D02*
X022638Y033714D01*
X022638Y033792D02*
X024860Y033792D01*
X024860Y033871D02*
X022638Y033871D01*
X022638Y033949D02*
X024860Y033949D01*
X024860Y034028D02*
X022638Y034028D01*
X022638Y034106D02*
X024860Y034106D01*
X024860Y034185D02*
X022638Y034185D01*
X022638Y034263D02*
X024860Y034263D01*
X024860Y034342D02*
X022638Y034342D01*
X022638Y034420D02*
X024860Y034420D01*
X024860Y034499D02*
X022638Y034499D01*
X022638Y034577D02*
X024860Y034577D01*
X024860Y034656D02*
X022638Y034656D01*
X022638Y034734D02*
X024860Y034734D01*
X024860Y034813D02*
X022638Y034813D01*
X022638Y034891D02*
X024860Y034891D01*
X024860Y034970D02*
X022638Y034970D01*
X022638Y035048D02*
X024860Y035048D01*
X024860Y035127D02*
X022638Y035127D01*
X022638Y035205D02*
X024860Y035205D01*
X024860Y035284D02*
X022638Y035284D01*
X022638Y035362D02*
X024860Y035362D01*
X024860Y035441D02*
X022638Y035441D01*
X022638Y035519D02*
X024860Y035519D01*
X024860Y035598D02*
X022638Y035598D01*
X022638Y035676D02*
X024860Y035676D01*
X024860Y035755D02*
X022638Y035755D01*
X022638Y035833D02*
X024860Y035833D01*
X024860Y035912D02*
X022638Y035912D01*
X022638Y035990D02*
X024860Y035990D01*
X024860Y036069D02*
X022638Y036069D01*
X022638Y036147D02*
X024860Y036147D01*
X024860Y036226D02*
X022638Y036226D01*
X022638Y036304D02*
X024860Y036304D01*
X024860Y036383D02*
X022638Y036383D01*
X022638Y036461D02*
X024860Y036461D01*
X024860Y036540D02*
X022638Y036540D01*
X022638Y036618D02*
X024860Y036618D01*
X024860Y036697D02*
X022638Y036697D01*
X022638Y036775D02*
X024860Y036775D01*
X024860Y036854D02*
X022638Y036854D01*
X022638Y036932D02*
X024860Y036932D01*
X024860Y037011D02*
X022638Y037011D01*
X023470Y037089D02*
X023470Y037862D01*
X023697Y037862D01*
X023602Y037766D01*
X023530Y037593D01*
X023530Y037407D01*
X023602Y037234D01*
X023734Y037102D01*
X023668Y037168D02*
X023470Y037168D01*
X023470Y037246D02*
X023596Y037246D01*
X023564Y037325D02*
X023470Y037325D01*
X023470Y037403D02*
X023531Y037403D01*
X023530Y037482D02*
X023470Y037482D01*
X023470Y037560D02*
X023530Y037560D01*
X023549Y037639D02*
X023470Y037639D01*
X023470Y037717D02*
X023581Y037717D01*
X023631Y037796D02*
X023470Y037796D01*
X024369Y037796D02*
X024631Y037796D01*
X024581Y037717D02*
X024419Y037717D01*
X024451Y037639D02*
X024549Y037639D01*
X024530Y037560D02*
X024470Y037560D01*
X024470Y037482D02*
X024530Y037482D01*
X024531Y037403D02*
X024469Y037403D01*
X024436Y037325D02*
X024564Y037325D01*
X024596Y037246D02*
X024404Y037246D01*
X024332Y037168D02*
X024668Y037168D01*
X024764Y037089D02*
X024236Y037089D01*
X025000Y037500D02*
X025000Y031550D01*
X023750Y030300D01*
X023750Y030200D01*
X023900Y030009D02*
X023909Y030000D01*
X023900Y029991D01*
X023891Y030000D01*
X023900Y030009D01*
X023909Y030000D02*
X023910Y030000D01*
X023910Y030000D01*
X023909Y030000D01*
X024050Y030200D02*
X024050Y029800D01*
X024050Y029400D01*
X024062Y029388D01*
X024062Y028874D01*
X024202Y029092D02*
X024202Y029210D01*
X024250Y029259D01*
X024250Y029541D01*
X024191Y029600D01*
X024250Y029659D01*
X024250Y029941D01*
X024191Y030000D01*
X024250Y030059D01*
X024250Y030341D01*
X024191Y030400D01*
X024048Y030400D01*
X025140Y031492D01*
X025140Y031608D01*
X025140Y037049D01*
X025266Y037102D01*
X025398Y037234D01*
X025470Y037407D01*
X025470Y037593D01*
X025398Y037766D01*
X025303Y037862D01*
X025697Y037862D01*
X025602Y037766D01*
X025530Y037593D01*
X025530Y037407D01*
X025602Y037234D01*
X025734Y037102D01*
X025907Y037030D01*
X026093Y037030D01*
X026266Y037102D01*
X026398Y037234D01*
X026470Y037407D01*
X026470Y037593D01*
X026398Y037766D01*
X026303Y037862D01*
X026697Y037862D01*
X026602Y037766D01*
X026530Y037593D01*
X026530Y037407D01*
X026602Y037234D01*
X026734Y037102D01*
X026907Y037030D01*
X027093Y037030D01*
X027266Y037102D01*
X027398Y037234D01*
X027470Y037407D01*
X027470Y037593D01*
X027398Y037766D01*
X027303Y037862D01*
X027697Y037862D01*
X027602Y037766D01*
X027530Y037593D01*
X027530Y037407D01*
X027602Y037234D01*
X027734Y037102D01*
X027907Y037030D01*
X028093Y037030D01*
X028266Y037102D01*
X028398Y037234D01*
X028470Y037407D01*
X028470Y037593D01*
X028398Y037766D01*
X028303Y037862D01*
X028697Y037862D01*
X028602Y037766D01*
X028530Y037593D01*
X028530Y037407D01*
X028602Y037234D01*
X028734Y037102D01*
X028907Y037030D01*
X029093Y037030D01*
X029266Y037102D01*
X029398Y037234D01*
X029470Y037407D01*
X029470Y037593D01*
X029398Y037766D01*
X029303Y037862D01*
X029697Y037862D01*
X029602Y037766D01*
X029530Y037593D01*
X029530Y037407D01*
X029602Y037234D01*
X029734Y037102D01*
X029907Y037030D01*
X030093Y037030D01*
X030266Y037102D01*
X030398Y037234D01*
X030470Y037407D01*
X030470Y037593D01*
X030398Y037766D01*
X030303Y037862D01*
X030697Y037862D01*
X030602Y037766D01*
X030530Y037593D01*
X030530Y037407D01*
X030602Y037234D01*
X030734Y037102D01*
X030907Y037030D01*
X031093Y037030D01*
X031266Y037102D01*
X031398Y037234D01*
X031470Y037407D01*
X031470Y037593D01*
X031398Y037766D01*
X031303Y037862D01*
X032362Y037862D01*
X032362Y025138D01*
X031303Y025138D01*
X031398Y025234D01*
X031470Y025407D01*
X031470Y025593D01*
X031398Y025766D01*
X031266Y025898D01*
X031093Y025970D01*
X030907Y025970D01*
X030813Y025931D01*
X030775Y025969D01*
X030775Y026714D01*
X030674Y026815D01*
X029915Y027574D01*
X029814Y027675D01*
X026654Y027675D01*
X026654Y028249D01*
X026596Y028307D01*
X026500Y028307D01*
X026500Y029806D01*
X026532Y029840D01*
X028128Y029840D01*
X028133Y029845D01*
X028150Y029845D01*
X028208Y029903D01*
X028208Y029920D01*
X028210Y029922D01*
X028210Y030318D01*
X028208Y030320D01*
X028208Y030341D01*
X028150Y030399D01*
X028129Y030399D01*
X028128Y030400D01*
X025992Y030400D01*
X025986Y030394D01*
X025964Y030394D01*
X025906Y030336D01*
X025906Y029977D01*
X025910Y029973D01*
X025910Y029501D01*
X025900Y029491D01*
X025900Y028307D01*
X025804Y028307D01*
X025746Y028249D01*
X025746Y027675D01*
X025014Y027675D01*
X024975Y027714D01*
X024975Y029250D01*
X025041Y029250D01*
X025100Y029309D01*
X025100Y029591D01*
X025091Y029600D01*
X025100Y029609D01*
X025100Y029786D01*
X025232Y029919D01*
X025536Y029919D01*
X025594Y029977D01*
X025594Y030280D01*
X025701Y030388D01*
X025701Y030388D01*
X025802Y030489D01*
X025802Y031114D01*
X026864Y032175D01*
X027878Y032175D01*
X027878Y032171D01*
X026886Y032171D01*
X026827Y032112D01*
X026827Y031675D01*
X026886Y031617D01*
X028088Y031617D01*
X028088Y031531D01*
X027940Y031383D01*
X026886Y031383D01*
X026827Y031325D01*
X026827Y030888D01*
X026886Y030829D01*
X028150Y030829D01*
X028208Y030888D01*
X028208Y031164D01*
X028331Y031288D01*
X028432Y031389D01*
X028432Y032411D01*
X028331Y032512D01*
X028119Y032725D01*
X026636Y032725D01*
X026535Y032624D01*
X025248Y031336D01*
X025248Y031181D01*
X025216Y031181D01*
X025158Y031123D01*
X024771Y031123D01*
X024693Y031045D02*
X025158Y031045D01*
X025158Y031123D02*
X025158Y030764D01*
X025216Y030706D01*
X025232Y030706D01*
X024739Y030212D01*
X024719Y030212D01*
X024618Y030111D01*
X024456Y029950D01*
X024359Y029950D01*
X024300Y029891D01*
X024300Y029609D01*
X024309Y029600D01*
X024300Y029591D01*
X024300Y029309D01*
X024359Y029250D01*
X024425Y029250D01*
X024425Y027486D01*
X024526Y027385D01*
X024786Y027125D01*
X025746Y027125D01*
X025746Y027100D01*
X024310Y027100D01*
X024316Y027106D01*
X024362Y027216D01*
X024362Y027320D01*
X024375Y027334D01*
X024375Y027766D01*
X024362Y027780D01*
X024362Y027930D01*
X024398Y027966D01*
X024398Y028286D01*
X024339Y028344D01*
X023854Y028344D01*
X023690Y028508D01*
X023690Y029092D01*
X023798Y029200D01*
X023891Y029200D01*
X023900Y029209D01*
X023909Y029200D01*
X023922Y029200D01*
X023922Y029092D01*
X023784Y029092D01*
X023726Y029034D01*
X023726Y028714D01*
X023784Y028656D01*
X024339Y028656D01*
X024398Y028714D01*
X024398Y029034D01*
X024339Y029092D01*
X024202Y029092D01*
X024202Y029161D02*
X024425Y029161D01*
X024425Y029239D02*
X024230Y029239D01*
X024250Y029318D02*
X024300Y029318D01*
X024300Y029396D02*
X024250Y029396D01*
X024250Y029475D02*
X024300Y029475D01*
X024300Y029553D02*
X024238Y029553D01*
X024191Y029600D02*
X024190Y029600D01*
X024190Y029600D01*
X024191Y029600D01*
X024223Y029632D02*
X024300Y029632D01*
X024300Y029710D02*
X024250Y029710D01*
X024250Y029789D02*
X024300Y029789D01*
X024300Y029867D02*
X024250Y029867D01*
X024246Y029946D02*
X024354Y029946D01*
X024215Y030024D02*
X024530Y030024D01*
X024609Y030103D02*
X024250Y030103D01*
X024250Y030181D02*
X024687Y030181D01*
X024786Y030260D02*
X024250Y030260D01*
X024250Y030338D02*
X024864Y030338D01*
X024943Y030417D02*
X024065Y030417D01*
X024143Y030495D02*
X025021Y030495D01*
X025100Y030574D02*
X024222Y030574D01*
X024300Y030652D02*
X025178Y030652D01*
X025192Y030731D02*
X024379Y030731D01*
X024457Y030809D02*
X025158Y030809D01*
X025158Y030888D02*
X024536Y030888D01*
X024614Y030966D02*
X025158Y030966D01*
X025248Y031202D02*
X024850Y031202D01*
X024928Y031280D02*
X025248Y031280D01*
X025270Y031359D02*
X025007Y031359D01*
X025085Y031437D02*
X025348Y031437D01*
X025427Y031516D02*
X025140Y031516D01*
X025140Y031594D02*
X025505Y031594D01*
X025584Y031673D02*
X025140Y031673D01*
X025140Y031751D02*
X025662Y031751D01*
X025741Y031830D02*
X025140Y031830D01*
X025140Y031908D02*
X025819Y031908D01*
X025898Y031987D02*
X025140Y031987D01*
X025140Y032065D02*
X025976Y032065D01*
X026055Y032144D02*
X025140Y032144D01*
X025140Y032222D02*
X026133Y032222D01*
X026212Y032301D02*
X025140Y032301D01*
X025140Y032379D02*
X026290Y032379D01*
X026369Y032458D02*
X025140Y032458D01*
X025140Y032536D02*
X026447Y032536D01*
X026526Y032615D02*
X025140Y032615D01*
X025140Y032693D02*
X026604Y032693D01*
X026832Y032144D02*
X026858Y032144D01*
X026827Y032065D02*
X026754Y032065D01*
X026827Y031987D02*
X026675Y031987D01*
X026597Y031908D02*
X026827Y031908D01*
X026827Y031830D02*
X026518Y031830D01*
X026440Y031751D02*
X026827Y031751D01*
X026830Y031673D02*
X026361Y031673D01*
X026283Y031594D02*
X028088Y031594D01*
X028072Y031516D02*
X026204Y031516D01*
X026126Y031437D02*
X027993Y031437D01*
X028245Y031202D02*
X029700Y031202D01*
X029700Y031280D02*
X028324Y031280D01*
X028402Y031359D02*
X029700Y031359D01*
X029700Y031437D02*
X028432Y031437D01*
X028432Y031516D02*
X029700Y031516D01*
X029700Y031594D02*
X028432Y031594D01*
X028432Y031673D02*
X029700Y031673D01*
X029700Y031751D02*
X028432Y031751D01*
X028432Y031830D02*
X029700Y031830D01*
X029700Y031908D02*
X028432Y031908D01*
X028432Y031987D02*
X029700Y031987D01*
X029700Y032065D02*
X029415Y032065D01*
X029485Y032094D02*
X029601Y032210D01*
X029664Y032363D01*
X029664Y032527D01*
X029601Y032679D01*
X029485Y032796D01*
X029332Y032859D01*
X029168Y032859D01*
X029015Y032796D01*
X028899Y032679D01*
X028836Y032527D01*
X028836Y032363D01*
X028899Y032210D01*
X029015Y032094D01*
X029168Y032031D01*
X029332Y032031D01*
X029485Y032094D01*
X029534Y032144D02*
X029700Y032144D01*
X029700Y032222D02*
X029606Y032222D01*
X029638Y032301D02*
X029700Y032301D01*
X029700Y032379D02*
X029664Y032379D01*
X029664Y032458D02*
X029700Y032458D01*
X029700Y032536D02*
X029660Y032536D01*
X029628Y032615D02*
X029700Y032615D01*
X029700Y032693D02*
X029587Y032693D01*
X029509Y032772D02*
X029700Y032772D01*
X029700Y032850D02*
X029354Y032850D01*
X029146Y032850D02*
X025140Y032850D01*
X025140Y032772D02*
X028991Y032772D01*
X028913Y032693D02*
X028151Y032693D01*
X028229Y032615D02*
X028872Y032615D01*
X028840Y032536D02*
X028308Y032536D01*
X028386Y032458D02*
X028836Y032458D01*
X028836Y032379D02*
X028432Y032379D01*
X028432Y032301D02*
X028862Y032301D01*
X028894Y032222D02*
X028432Y032222D01*
X028432Y032144D02*
X028966Y032144D01*
X029085Y032065D02*
X028432Y032065D01*
X028208Y031123D02*
X029700Y031123D01*
X029700Y031045D02*
X028208Y031045D01*
X028208Y030966D02*
X029160Y030966D01*
X029168Y030969D02*
X029015Y030906D01*
X028899Y030790D01*
X028836Y030637D01*
X028836Y030473D01*
X028899Y030321D01*
X029015Y030204D01*
X029168Y030141D01*
X029332Y030141D01*
X029485Y030204D01*
X029601Y030321D01*
X029664Y030473D01*
X029664Y030637D01*
X029601Y030790D01*
X029485Y030906D01*
X029332Y030969D01*
X029168Y030969D01*
X029340Y030966D02*
X029700Y030966D01*
X029700Y030888D02*
X029503Y030888D01*
X029582Y030809D02*
X029700Y030809D01*
X029700Y030731D02*
X029625Y030731D01*
X029658Y030652D02*
X029700Y030652D01*
X029700Y030574D02*
X029664Y030574D01*
X029664Y030495D02*
X029700Y030495D01*
X029700Y030417D02*
X029641Y030417D01*
X029608Y030338D02*
X029700Y030338D01*
X029700Y030260D02*
X029540Y030260D01*
X029429Y030181D02*
X029700Y030181D01*
X029700Y030103D02*
X028210Y030103D01*
X028210Y030181D02*
X029071Y030181D01*
X028960Y030260D02*
X028210Y030260D01*
X028208Y030338D02*
X028892Y030338D01*
X028859Y030417D02*
X025730Y030417D01*
X025802Y030495D02*
X028836Y030495D01*
X028836Y030574D02*
X025802Y030574D01*
X025802Y030652D02*
X028842Y030652D01*
X028875Y030731D02*
X025802Y030731D01*
X025802Y030809D02*
X028918Y030809D01*
X028997Y030888D02*
X028208Y030888D01*
X028070Y030260D02*
X028070Y029980D01*
X026470Y029980D01*
X026360Y029860D01*
X026360Y028900D01*
X026050Y028900D01*
X026050Y030260D01*
X028070Y030260D01*
X026050Y030260D01*
X026050Y030181D02*
X028070Y030181D01*
X028070Y030103D02*
X026050Y030103D01*
X026050Y030024D02*
X028070Y030024D01*
X028210Y030024D02*
X029700Y030024D01*
X029700Y029946D02*
X028210Y029946D01*
X028172Y029867D02*
X029700Y029867D01*
X029700Y029789D02*
X026500Y029789D01*
X026500Y029710D02*
X029700Y029710D01*
X029700Y029674D02*
X029264Y029238D01*
X027516Y029238D01*
X027457Y029179D01*
X027457Y027915D01*
X027516Y027857D01*
X029646Y027857D01*
X029704Y027915D01*
X029704Y028830D01*
X030254Y029380D01*
X030300Y029490D01*
X030300Y033560D01*
X030254Y033670D01*
X030170Y033754D01*
X029704Y034220D01*
X029704Y035085D01*
X029646Y035143D01*
X028881Y035143D01*
X028881Y035614D01*
X028925Y035659D01*
X028925Y036441D01*
X028866Y036500D01*
X028334Y036500D01*
X028275Y036441D01*
X028275Y035659D01*
X028281Y035653D01*
X028281Y035143D01*
X027516Y035143D01*
X027457Y035085D01*
X027457Y033821D01*
X027516Y033762D01*
X029314Y033762D01*
X029700Y033376D01*
X029700Y029674D01*
X029657Y029632D02*
X026500Y029632D01*
X026500Y029553D02*
X029579Y029553D01*
X029500Y029475D02*
X026500Y029475D01*
X026500Y029396D02*
X029422Y029396D01*
X029343Y029318D02*
X026500Y029318D01*
X026500Y029239D02*
X029265Y029239D01*
X029721Y028847D02*
X032362Y028847D01*
X032362Y028925D02*
X029799Y028925D01*
X029878Y029004D02*
X032362Y029004D01*
X032362Y029082D02*
X029956Y029082D01*
X030035Y029161D02*
X032362Y029161D01*
X032362Y029239D02*
X030113Y029239D01*
X030192Y029318D02*
X032362Y029318D01*
X032362Y029396D02*
X030261Y029396D01*
X030293Y029475D02*
X032362Y029475D01*
X032362Y029553D02*
X030300Y029553D01*
X030300Y029632D02*
X032362Y029632D01*
X032362Y029710D02*
X030300Y029710D01*
X030300Y029789D02*
X032362Y029789D01*
X032362Y029867D02*
X030300Y029867D01*
X030300Y029946D02*
X032362Y029946D01*
X032362Y030024D02*
X030300Y030024D01*
X030300Y030103D02*
X032362Y030103D01*
X032362Y030181D02*
X030300Y030181D01*
X030300Y030260D02*
X032362Y030260D01*
X032362Y030338D02*
X030300Y030338D01*
X030300Y030417D02*
X032362Y030417D01*
X032362Y030495D02*
X030300Y030495D01*
X030300Y030574D02*
X032362Y030574D01*
X032362Y030652D02*
X030300Y030652D01*
X030300Y030731D02*
X032362Y030731D01*
X032362Y030809D02*
X030300Y030809D01*
X030300Y030888D02*
X032362Y030888D01*
X032362Y030966D02*
X030300Y030966D01*
X030300Y031045D02*
X032362Y031045D01*
X032362Y031123D02*
X030300Y031123D01*
X030300Y031202D02*
X032362Y031202D01*
X032362Y031280D02*
X030300Y031280D01*
X030300Y031359D02*
X032362Y031359D01*
X032362Y031437D02*
X030300Y031437D01*
X030300Y031516D02*
X032362Y031516D01*
X032362Y031594D02*
X030300Y031594D01*
X030300Y031673D02*
X032362Y031673D01*
X032362Y031751D02*
X030300Y031751D01*
X030300Y031830D02*
X032362Y031830D01*
X032362Y031908D02*
X030300Y031908D01*
X030300Y031987D02*
X032362Y031987D01*
X032362Y032065D02*
X030300Y032065D01*
X030300Y032144D02*
X032362Y032144D01*
X032362Y032222D02*
X030300Y032222D01*
X030300Y032301D02*
X032362Y032301D01*
X032362Y032379D02*
X030300Y032379D01*
X030300Y032458D02*
X032362Y032458D01*
X032362Y032536D02*
X030300Y032536D01*
X030300Y032615D02*
X032362Y032615D01*
X032362Y032693D02*
X030300Y032693D01*
X030300Y032772D02*
X032362Y032772D01*
X032362Y032850D02*
X030300Y032850D01*
X030300Y032929D02*
X032362Y032929D01*
X032362Y033007D02*
X030300Y033007D01*
X030300Y033086D02*
X032362Y033086D01*
X032362Y033164D02*
X030300Y033164D01*
X030300Y033243D02*
X032362Y033243D01*
X032362Y033321D02*
X030300Y033321D01*
X030300Y033400D02*
X032362Y033400D01*
X032362Y033478D02*
X030300Y033478D01*
X030300Y033557D02*
X032362Y033557D01*
X032362Y033635D02*
X030269Y033635D01*
X030211Y033714D02*
X032362Y033714D01*
X032362Y033792D02*
X030132Y033792D01*
X030054Y033871D02*
X032362Y033871D01*
X032362Y033949D02*
X029975Y033949D01*
X029897Y034028D02*
X032362Y034028D01*
X032362Y034106D02*
X029818Y034106D01*
X029740Y034185D02*
X032362Y034185D01*
X032362Y034263D02*
X029704Y034263D01*
X029704Y034342D02*
X032362Y034342D01*
X032362Y034420D02*
X029704Y034420D01*
X029704Y034499D02*
X032362Y034499D01*
X032362Y034577D02*
X029704Y034577D01*
X029704Y034656D02*
X032362Y034656D01*
X032362Y034734D02*
X029704Y034734D01*
X029704Y034813D02*
X032362Y034813D01*
X032362Y034891D02*
X029704Y034891D01*
X029704Y034970D02*
X032362Y034970D01*
X032362Y035048D02*
X029704Y035048D01*
X029663Y035127D02*
X032362Y035127D01*
X032362Y035205D02*
X028881Y035205D01*
X028881Y035284D02*
X032362Y035284D01*
X032362Y035362D02*
X028881Y035362D01*
X028881Y035441D02*
X032362Y035441D01*
X032362Y035519D02*
X028881Y035519D01*
X028881Y035598D02*
X032362Y035598D01*
X032362Y035676D02*
X028925Y035676D01*
X028925Y035755D02*
X032362Y035755D01*
X032362Y035833D02*
X028925Y035833D01*
X028925Y035912D02*
X032362Y035912D01*
X032362Y035990D02*
X028925Y035990D01*
X028925Y036069D02*
X032362Y036069D01*
X032362Y036147D02*
X028925Y036147D01*
X028925Y036226D02*
X032362Y036226D01*
X032362Y036304D02*
X028925Y036304D01*
X028925Y036383D02*
X032362Y036383D01*
X032362Y036461D02*
X028905Y036461D01*
X028295Y036461D02*
X025140Y036461D01*
X025140Y036383D02*
X028275Y036383D01*
X028275Y036304D02*
X025140Y036304D01*
X025140Y036226D02*
X028275Y036226D01*
X028275Y036147D02*
X025140Y036147D01*
X025140Y036069D02*
X028275Y036069D01*
X028275Y035990D02*
X025140Y035990D01*
X025140Y035912D02*
X028275Y035912D01*
X028275Y035833D02*
X025140Y035833D01*
X025140Y035755D02*
X028275Y035755D01*
X028275Y035676D02*
X025140Y035676D01*
X025140Y035598D02*
X028281Y035598D01*
X028281Y035519D02*
X025140Y035519D01*
X025140Y035441D02*
X028281Y035441D01*
X028281Y035362D02*
X025140Y035362D01*
X025140Y035284D02*
X028281Y035284D01*
X028281Y035205D02*
X025140Y035205D01*
X025140Y035127D02*
X027499Y035127D01*
X027457Y035048D02*
X025140Y035048D01*
X025140Y034970D02*
X027457Y034970D01*
X027457Y034891D02*
X025140Y034891D01*
X025140Y034813D02*
X027457Y034813D01*
X027457Y034734D02*
X025140Y034734D01*
X025140Y034656D02*
X027457Y034656D01*
X027457Y034577D02*
X025140Y034577D01*
X025140Y034499D02*
X027457Y034499D01*
X027457Y034420D02*
X025140Y034420D01*
X025140Y034342D02*
X027457Y034342D01*
X027457Y034263D02*
X025140Y034263D01*
X025140Y034185D02*
X027457Y034185D01*
X027457Y034106D02*
X025140Y034106D01*
X025140Y034028D02*
X027457Y034028D01*
X027457Y033949D02*
X025140Y033949D01*
X025140Y033871D02*
X027457Y033871D01*
X027486Y033792D02*
X025140Y033792D01*
X025140Y033714D02*
X029362Y033714D01*
X029441Y033635D02*
X025140Y033635D01*
X025140Y033557D02*
X029519Y033557D01*
X029598Y033478D02*
X025140Y033478D01*
X025140Y033400D02*
X029676Y033400D01*
X029700Y033321D02*
X025140Y033321D01*
X025140Y033243D02*
X029700Y033243D01*
X029700Y033164D02*
X025140Y033164D01*
X025140Y033086D02*
X029700Y033086D01*
X029700Y033007D02*
X025140Y033007D01*
X025140Y032929D02*
X029700Y032929D01*
X026861Y031359D02*
X026047Y031359D01*
X025969Y031280D02*
X026827Y031280D01*
X026827Y031202D02*
X025890Y031202D01*
X025812Y031123D02*
X026827Y031123D01*
X026827Y031045D02*
X025802Y031045D01*
X025802Y030966D02*
X026827Y030966D01*
X026827Y030888D02*
X025802Y030888D01*
X025908Y030338D02*
X025652Y030338D01*
X025594Y030260D02*
X025906Y030260D01*
X025906Y030181D02*
X025594Y030181D01*
X025594Y030103D02*
X025906Y030103D01*
X025906Y030024D02*
X025594Y030024D01*
X025563Y029946D02*
X025910Y029946D01*
X025910Y029867D02*
X025181Y029867D01*
X025102Y029789D02*
X025910Y029789D01*
X025910Y029710D02*
X025100Y029710D01*
X025100Y029632D02*
X025910Y029632D01*
X025910Y029553D02*
X025100Y029553D01*
X025100Y029475D02*
X025900Y029475D01*
X025900Y029396D02*
X025100Y029396D01*
X025100Y029318D02*
X025900Y029318D01*
X025900Y029239D02*
X024975Y029239D01*
X024975Y029161D02*
X025900Y029161D01*
X025900Y029082D02*
X024975Y029082D01*
X024975Y029004D02*
X025900Y029004D01*
X025900Y028925D02*
X024975Y028925D01*
X024975Y028847D02*
X025900Y028847D01*
X025900Y028768D02*
X024975Y028768D01*
X024975Y028690D02*
X025900Y028690D01*
X025900Y028611D02*
X024975Y028611D01*
X024975Y028533D02*
X025900Y028533D01*
X025900Y028454D02*
X024975Y028454D01*
X024975Y028376D02*
X025900Y028376D01*
X025794Y028297D02*
X024975Y028297D01*
X024975Y028219D02*
X025746Y028219D01*
X025746Y028140D02*
X024975Y028140D01*
X024975Y028062D02*
X025746Y028062D01*
X025746Y027983D02*
X024975Y027983D01*
X024975Y027905D02*
X025746Y027905D01*
X025746Y027826D02*
X024975Y027826D01*
X024975Y027748D02*
X025746Y027748D01*
X026654Y027748D02*
X030663Y027748D01*
X030683Y027797D02*
X030566Y027515D01*
X030566Y027209D01*
X030683Y026927D01*
X030899Y026711D01*
X031182Y026594D01*
X031487Y026594D01*
X031770Y026711D01*
X031986Y026927D01*
X032103Y027209D01*
X032103Y027515D01*
X031986Y027797D01*
X031770Y028014D01*
X031487Y028131D01*
X031182Y028131D01*
X030899Y028014D01*
X030683Y027797D01*
X030712Y027826D02*
X026654Y027826D01*
X026654Y027905D02*
X027468Y027905D01*
X027457Y027983D02*
X026654Y027983D01*
X026654Y028062D02*
X027457Y028062D01*
X027457Y028140D02*
X026654Y028140D01*
X026654Y028219D02*
X027457Y028219D01*
X027457Y028297D02*
X026606Y028297D01*
X026500Y028376D02*
X027457Y028376D01*
X027457Y028454D02*
X026500Y028454D01*
X026500Y028533D02*
X027457Y028533D01*
X027457Y028611D02*
X026500Y028611D01*
X026500Y028690D02*
X027457Y028690D01*
X027457Y028768D02*
X026500Y028768D01*
X026500Y028847D02*
X027457Y028847D01*
X027457Y028925D02*
X026500Y028925D01*
X026500Y029004D02*
X027457Y029004D01*
X027457Y029082D02*
X026500Y029082D01*
X026500Y029161D02*
X027457Y029161D01*
X026360Y029161D02*
X026050Y029161D01*
X026050Y029239D02*
X026360Y029239D01*
X026360Y029318D02*
X026050Y029318D01*
X026050Y029396D02*
X026360Y029396D01*
X026360Y029475D02*
X026050Y029475D01*
X026050Y029553D02*
X026360Y029553D01*
X026360Y029632D02*
X026050Y029632D01*
X026050Y029710D02*
X026360Y029710D01*
X026360Y029789D02*
X026050Y029789D01*
X026050Y029867D02*
X026366Y029867D01*
X026438Y029946D02*
X026050Y029946D01*
X026050Y029082D02*
X026360Y029082D01*
X026360Y029004D02*
X026050Y029004D01*
X026050Y028925D02*
X026360Y028925D01*
X024425Y028925D02*
X024398Y028925D01*
X024398Y028847D02*
X024425Y028847D01*
X024425Y028768D02*
X024398Y028768D01*
X024373Y028690D02*
X024425Y028690D01*
X024425Y028611D02*
X023690Y028611D01*
X023690Y028533D02*
X024425Y028533D01*
X024425Y028454D02*
X023744Y028454D01*
X023822Y028376D02*
X024425Y028376D01*
X024425Y028297D02*
X024387Y028297D01*
X024398Y028219D02*
X024425Y028219D01*
X024425Y028140D02*
X024398Y028140D01*
X024398Y028062D02*
X024425Y028062D01*
X024425Y027983D02*
X024398Y027983D01*
X024425Y027905D02*
X024362Y027905D01*
X024362Y027826D02*
X024425Y027826D01*
X024425Y027748D02*
X024375Y027748D01*
X024375Y027669D02*
X024425Y027669D01*
X024425Y027591D02*
X024375Y027591D01*
X024375Y027512D02*
X024425Y027512D01*
X024375Y027434D02*
X024478Y027434D01*
X024556Y027355D02*
X024375Y027355D01*
X024362Y027277D02*
X024635Y027277D01*
X024713Y027198D02*
X024354Y027198D01*
X024322Y027120D02*
X025746Y027120D01*
X026654Y027120D02*
X029592Y027120D01*
X029670Y027041D02*
X026654Y027041D01*
X026654Y026963D02*
X029749Y026963D01*
X029827Y026884D02*
X026654Y026884D01*
X026654Y026806D02*
X029906Y026806D01*
X029984Y026727D02*
X026654Y026727D01*
X026654Y026649D02*
X030063Y026649D01*
X030141Y026570D02*
X026654Y026570D01*
X026839Y025942D02*
X026161Y025942D01*
X026301Y025864D02*
X026699Y025864D01*
X026620Y025785D02*
X026380Y025785D01*
X026423Y025707D02*
X026577Y025707D01*
X026544Y025628D02*
X026456Y025628D01*
X026470Y025550D02*
X026530Y025550D01*
X026530Y025471D02*
X026470Y025471D01*
X026464Y025393D02*
X026536Y025393D01*
X026568Y025314D02*
X026432Y025314D01*
X026399Y025236D02*
X026601Y025236D01*
X026678Y025157D02*
X026322Y025157D01*
X025678Y025157D02*
X025322Y025157D01*
X025399Y025236D02*
X025601Y025236D01*
X025568Y025314D02*
X025432Y025314D01*
X025464Y025393D02*
X025536Y025393D01*
X025530Y025471D02*
X025470Y025471D01*
X025470Y025550D02*
X025530Y025550D01*
X025544Y025628D02*
X025456Y025628D01*
X025423Y025707D02*
X025577Y025707D01*
X025620Y025785D02*
X025380Y025785D01*
X025301Y025864D02*
X025699Y025864D01*
X025839Y025942D02*
X025161Y025942D01*
X024839Y025942D02*
X024161Y025942D01*
X024301Y025864D02*
X024699Y025864D01*
X024620Y025785D02*
X024380Y025785D01*
X024423Y025707D02*
X024577Y025707D01*
X024544Y025628D02*
X024456Y025628D01*
X024470Y025550D02*
X024530Y025550D01*
X024530Y025471D02*
X024470Y025471D01*
X024464Y025393D02*
X024536Y025393D01*
X024568Y025314D02*
X024432Y025314D01*
X024399Y025236D02*
X024601Y025236D01*
X024678Y025157D02*
X024322Y025157D01*
X023678Y025157D02*
X023470Y025157D01*
X023470Y025236D02*
X023601Y025236D01*
X023568Y025314D02*
X023470Y025314D01*
X023470Y025393D02*
X023536Y025393D01*
X023530Y025471D02*
X023470Y025471D01*
X023470Y025550D02*
X023530Y025550D01*
X023544Y025628D02*
X023470Y025628D01*
X023470Y025707D02*
X023577Y025707D01*
X023620Y025785D02*
X023470Y025785D01*
X023470Y025864D02*
X023699Y025864D01*
X023839Y025942D02*
X023439Y025942D01*
X022638Y026021D02*
X030225Y026021D01*
X030225Y026099D02*
X022638Y026099D01*
X022638Y026178D02*
X030225Y026178D01*
X030225Y026256D02*
X022638Y026256D01*
X022638Y026335D02*
X030225Y026335D01*
X030225Y026413D02*
X022638Y026413D01*
X022638Y026492D02*
X030220Y026492D01*
X030605Y026884D02*
X030726Y026884D01*
X030683Y026806D02*
X030805Y026806D01*
X030762Y026727D02*
X030883Y026727D01*
X030775Y026649D02*
X031050Y026649D01*
X030775Y026570D02*
X032362Y026570D01*
X032362Y026492D02*
X030775Y026492D01*
X030775Y026413D02*
X032362Y026413D01*
X032362Y026335D02*
X030775Y026335D01*
X030775Y026256D02*
X032362Y026256D01*
X032362Y026178D02*
X030775Y026178D01*
X030775Y026099D02*
X032362Y026099D01*
X032362Y026021D02*
X030775Y026021D01*
X030802Y025942D02*
X030839Y025942D01*
X031161Y025942D02*
X032362Y025942D01*
X032362Y025864D02*
X031301Y025864D01*
X031380Y025785D02*
X032362Y025785D01*
X032362Y025707D02*
X031423Y025707D01*
X031456Y025628D02*
X032362Y025628D01*
X032362Y025550D02*
X031470Y025550D01*
X031470Y025471D02*
X032362Y025471D01*
X032362Y025393D02*
X031464Y025393D01*
X031432Y025314D02*
X032362Y025314D01*
X032362Y025236D02*
X031399Y025236D01*
X031322Y025157D02*
X032362Y025157D01*
X032362Y026649D02*
X031619Y026649D01*
X031786Y026727D02*
X032362Y026727D01*
X032362Y026806D02*
X031865Y026806D01*
X031943Y026884D02*
X032362Y026884D01*
X032362Y026963D02*
X032001Y026963D01*
X032033Y027041D02*
X032362Y027041D01*
X032362Y027120D02*
X032066Y027120D01*
X032098Y027198D02*
X032362Y027198D01*
X032362Y027277D02*
X032103Y027277D01*
X032103Y027355D02*
X032362Y027355D01*
X032362Y027434D02*
X032103Y027434D01*
X032103Y027512D02*
X032362Y027512D01*
X032362Y027591D02*
X032072Y027591D01*
X032039Y027669D02*
X032362Y027669D01*
X032362Y027748D02*
X032007Y027748D01*
X031957Y027826D02*
X032362Y027826D01*
X032362Y027905D02*
X031879Y027905D01*
X031800Y027983D02*
X032362Y027983D01*
X032362Y028062D02*
X031654Y028062D01*
X031015Y028062D02*
X029704Y028062D01*
X029704Y028140D02*
X032362Y028140D01*
X032362Y028219D02*
X029704Y028219D01*
X029704Y028297D02*
X032362Y028297D01*
X032362Y028376D02*
X029704Y028376D01*
X029704Y028454D02*
X032362Y028454D01*
X032362Y028533D02*
X029704Y028533D01*
X029704Y028611D02*
X032362Y028611D01*
X032362Y028690D02*
X029704Y028690D01*
X029704Y028768D02*
X032362Y028768D01*
X030869Y027983D02*
X029704Y027983D01*
X029694Y027905D02*
X030790Y027905D01*
X030630Y027669D02*
X029820Y027669D01*
X029898Y027591D02*
X030598Y027591D01*
X030566Y027512D02*
X029977Y027512D01*
X029915Y027574D02*
X029915Y027574D01*
X030055Y027434D02*
X030566Y027434D01*
X030566Y027355D02*
X030134Y027355D01*
X030212Y027277D02*
X030566Y027277D01*
X030571Y027198D02*
X030291Y027198D01*
X030369Y027120D02*
X030604Y027120D01*
X030636Y027041D02*
X030448Y027041D01*
X030526Y026963D02*
X030669Y026963D01*
X030198Y025942D02*
X030161Y025942D01*
X029839Y025942D02*
X029161Y025942D01*
X029301Y025864D02*
X029699Y025864D01*
X029620Y025785D02*
X029380Y025785D01*
X029423Y025707D02*
X029577Y025707D01*
X029544Y025628D02*
X029456Y025628D01*
X029470Y025550D02*
X029530Y025550D01*
X029530Y025471D02*
X029470Y025471D01*
X029464Y025393D02*
X029536Y025393D01*
X029568Y025314D02*
X029432Y025314D01*
X029399Y025236D02*
X029601Y025236D01*
X029678Y025157D02*
X029322Y025157D01*
X028678Y025157D02*
X027322Y025157D01*
X027399Y025236D02*
X028601Y025236D01*
X028568Y025314D02*
X027432Y025314D01*
X027464Y025393D02*
X028536Y025393D01*
X028530Y025471D02*
X027470Y025471D01*
X027470Y025550D02*
X028530Y025550D01*
X028544Y025628D02*
X027456Y025628D01*
X027423Y025707D02*
X028577Y025707D01*
X028620Y025785D02*
X027380Y025785D01*
X027301Y025864D02*
X028699Y025864D01*
X028839Y025942D02*
X027161Y025942D01*
X023769Y027198D02*
X023726Y027198D01*
X023762Y027277D02*
X023648Y027277D01*
X023569Y027355D02*
X023762Y027355D01*
X023874Y028126D02*
X024062Y028126D01*
X023874Y028126D02*
X023550Y028450D01*
X023550Y029150D01*
X023750Y029350D01*
X023750Y029400D01*
X023759Y029161D02*
X023922Y029161D01*
X023774Y029082D02*
X023690Y029082D01*
X023690Y029004D02*
X023726Y029004D01*
X023726Y028925D02*
X023690Y028925D01*
X023690Y028847D02*
X023726Y028847D01*
X023726Y028768D02*
X023690Y028768D01*
X023690Y028690D02*
X023751Y028690D01*
X023324Y028874D02*
X023038Y028874D01*
X022909Y029161D02*
X023260Y029161D01*
X023260Y029239D02*
X023130Y029239D01*
X023150Y029318D02*
X023320Y029318D01*
X023342Y029340D02*
X023342Y029340D01*
X023398Y029396D02*
X023150Y029396D01*
X023150Y029475D02*
X023410Y029475D01*
X023410Y029553D02*
X023138Y029553D01*
X022950Y029400D02*
X022700Y029150D01*
X022700Y028550D01*
X022750Y028500D01*
X023038Y028500D01*
X022670Y029318D02*
X022638Y029318D01*
X022638Y029396D02*
X022748Y029396D01*
X022750Y029475D02*
X022638Y029475D01*
X022638Y029553D02*
X022762Y029553D01*
X022638Y029632D02*
X023410Y029632D01*
X023462Y029710D02*
X022638Y029710D01*
X024190Y030000D02*
X024190Y030000D01*
X024191Y030000D01*
X024190Y030000D01*
X024350Y029082D02*
X024425Y029082D01*
X024425Y029004D02*
X024398Y029004D01*
X025140Y036540D02*
X032362Y036540D01*
X032362Y036618D02*
X025140Y036618D01*
X025140Y036697D02*
X032362Y036697D01*
X032362Y036775D02*
X025140Y036775D01*
X025140Y036854D02*
X032362Y036854D01*
X032362Y036932D02*
X025140Y036932D01*
X025140Y037011D02*
X032362Y037011D01*
X032362Y037089D02*
X031236Y037089D01*
X031332Y037168D02*
X032362Y037168D01*
X032362Y037246D02*
X031404Y037246D01*
X031436Y037325D02*
X032362Y037325D01*
X032362Y037403D02*
X031469Y037403D01*
X031470Y037482D02*
X032362Y037482D01*
X032362Y037560D02*
X031470Y037560D01*
X031451Y037639D02*
X032362Y037639D01*
X032362Y037717D02*
X031419Y037717D01*
X031369Y037796D02*
X032362Y037796D01*
X030764Y037089D02*
X030236Y037089D01*
X030332Y037168D02*
X030668Y037168D01*
X030596Y037246D02*
X030404Y037246D01*
X030436Y037325D02*
X030564Y037325D01*
X030531Y037403D02*
X030469Y037403D01*
X030470Y037482D02*
X030530Y037482D01*
X030530Y037560D02*
X030470Y037560D01*
X030451Y037639D02*
X030549Y037639D01*
X030581Y037717D02*
X030419Y037717D01*
X030369Y037796D02*
X030631Y037796D01*
X029631Y037796D02*
X029369Y037796D01*
X029419Y037717D02*
X029581Y037717D01*
X029549Y037639D02*
X029451Y037639D01*
X029470Y037560D02*
X029530Y037560D01*
X029530Y037482D02*
X029470Y037482D01*
X029469Y037403D02*
X029531Y037403D01*
X029564Y037325D02*
X029436Y037325D01*
X029404Y037246D02*
X029596Y037246D01*
X029668Y037168D02*
X029332Y037168D01*
X029236Y037089D02*
X029764Y037089D01*
X028764Y037089D02*
X028236Y037089D01*
X028332Y037168D02*
X028668Y037168D01*
X028596Y037246D02*
X028404Y037246D01*
X028436Y037325D02*
X028564Y037325D01*
X028531Y037403D02*
X028469Y037403D01*
X028470Y037482D02*
X028530Y037482D01*
X028530Y037560D02*
X028470Y037560D01*
X028451Y037639D02*
X028549Y037639D01*
X028581Y037717D02*
X028419Y037717D01*
X028369Y037796D02*
X028631Y037796D01*
X027631Y037796D02*
X027369Y037796D01*
X027419Y037717D02*
X027581Y037717D01*
X027549Y037639D02*
X027451Y037639D01*
X027470Y037560D02*
X027530Y037560D01*
X027530Y037482D02*
X027470Y037482D01*
X027469Y037403D02*
X027531Y037403D01*
X027564Y037325D02*
X027436Y037325D01*
X027404Y037246D02*
X027596Y037246D01*
X027668Y037168D02*
X027332Y037168D01*
X027236Y037089D02*
X027764Y037089D01*
X026764Y037089D02*
X026236Y037089D01*
X026332Y037168D02*
X026668Y037168D01*
X026596Y037246D02*
X026404Y037246D01*
X026436Y037325D02*
X026564Y037325D01*
X026531Y037403D02*
X026469Y037403D01*
X026470Y037482D02*
X026530Y037482D01*
X026530Y037560D02*
X026470Y037560D01*
X026451Y037639D02*
X026549Y037639D01*
X026581Y037717D02*
X026419Y037717D01*
X026369Y037796D02*
X026631Y037796D01*
X025631Y037796D02*
X025369Y037796D01*
X025419Y037717D02*
X025581Y037717D01*
X025549Y037639D02*
X025451Y037639D01*
X025470Y037560D02*
X025530Y037560D01*
X025530Y037482D02*
X025470Y037482D01*
X025469Y037403D02*
X025531Y037403D01*
X025564Y037325D02*
X025436Y037325D01*
X025404Y037246D02*
X025596Y037246D01*
X025668Y037168D02*
X025332Y037168D01*
X025236Y037089D02*
X025764Y037089D01*
D25*
X025500Y037000D03*
X024500Y037000D03*
X023500Y037000D03*
X023500Y036000D03*
X024500Y036000D03*
X025500Y036000D03*
X025500Y035000D03*
X024500Y035000D03*
X023500Y035000D03*
X023500Y034000D03*
X023500Y033000D03*
X024500Y033000D03*
X024500Y034000D03*
X025500Y034000D03*
X025500Y033000D03*
X025500Y032000D03*
X024500Y032000D03*
X023500Y032000D03*
X023500Y031000D03*
X023500Y030000D03*
X023250Y029550D03*
X023200Y029250D03*
X023750Y028550D03*
X024350Y028500D03*
X024062Y027876D03*
X023650Y027800D03*
X023450Y027600D03*
X023700Y027350D03*
X024062Y027276D03*
X023250Y026700D03*
X022900Y026950D03*
X022900Y026450D03*
X023500Y026000D03*
X024500Y026000D03*
X025500Y026000D03*
X026500Y026000D03*
X027500Y026000D03*
X028500Y027000D03*
X029500Y027000D03*
X029500Y026000D03*
X031500Y026000D03*
X030500Y028000D03*
X030500Y029000D03*
X030500Y030000D03*
X029500Y030000D03*
X028500Y030000D03*
X028500Y031000D03*
X028500Y032000D03*
X028150Y032900D03*
X028500Y033000D03*
X027500Y033100D03*
X026850Y032900D03*
X026500Y033000D03*
X026500Y034000D03*
X026500Y035000D03*
X026500Y036000D03*
X027500Y036000D03*
X027500Y037000D03*
X026500Y037000D03*
X028500Y037000D03*
X029500Y037000D03*
X029800Y036500D03*
X030100Y036050D03*
X030500Y036000D03*
X029800Y035600D03*
X030500Y035000D03*
X030500Y034000D03*
X030500Y033000D03*
X029500Y033000D03*
X029500Y032000D03*
X030500Y032000D03*
X030500Y031000D03*
X031500Y031000D03*
X031500Y030000D03*
X031500Y029000D03*
X031500Y032000D03*
X031500Y033000D03*
X031500Y034000D03*
X031500Y035000D03*
X031500Y036000D03*
X031500Y037000D03*
X030500Y037000D03*
X026500Y031000D03*
X026050Y031150D03*
X026050Y030750D03*
X025700Y029750D03*
X025750Y029150D03*
X025500Y028800D03*
X025250Y029150D03*
X025500Y028000D03*
X026750Y028000D03*
X026750Y029000D03*
D26*
X025376Y030156D02*
X025226Y030156D01*
X024900Y029830D01*
X024900Y029750D01*
X024900Y029450D02*
X024803Y029353D01*
X024803Y027642D01*
X024942Y027503D01*
X029742Y027503D01*
X030603Y026642D01*
X030603Y025898D01*
X031000Y025500D01*
X030398Y025898D02*
X030398Y026558D01*
X029658Y027298D01*
X024858Y027298D01*
X024598Y027558D01*
X024598Y029353D01*
X024598Y029400D01*
X024598Y029353D02*
X024500Y029450D01*
X024500Y029750D02*
X024790Y030040D01*
X024810Y030040D01*
X025420Y030650D01*
X025420Y030830D01*
X025376Y030874D01*
X025376Y030926D01*
X025376Y030944D01*
X025376Y030926D02*
X025420Y030970D01*
X025420Y031265D01*
X026708Y032553D01*
X028048Y032553D01*
X028260Y032340D01*
X028260Y031460D01*
X027906Y031106D01*
X027518Y031106D01*
X027518Y031894D02*
X027894Y031894D01*
X028050Y032050D01*
X028050Y032250D01*
X027953Y032348D01*
X026792Y032348D01*
X025630Y031185D01*
X025630Y030560D01*
X025226Y030156D01*
X030000Y025500D02*
X030398Y025898D01*
D27*
X028997Y028547D02*
X028581Y028547D01*
X028997Y028547D02*
X030000Y029550D01*
X030000Y033500D01*
X029100Y034400D01*
X028581Y034400D01*
X028581Y034453D01*
X028581Y036050D01*
X028600Y036050D01*
X026200Y029150D02*
X026200Y027931D01*
X026200Y026869D02*
X026131Y026800D01*
X023700Y026800D01*
X023100Y027400D01*
X022900Y027400D01*
X023000Y027500D01*
X023000Y028000D01*
X024062Y027988D02*
X024062Y027876D01*
X024062Y027550D01*
X024062Y027276D01*
D28*
X024062Y027550D02*
X024150Y027550D01*
X024050Y028000D02*
X024050Y028114D01*
X024062Y028126D01*
X023038Y028126D02*
X023000Y028088D01*
X023000Y028000D01*
D29*
X024050Y028000D02*
X024062Y027988D01*
M02*
