G75*
%MOIN*%
%OFA0B0*%
%FSLAX24Y24*%
%IPPOS*%
%LPD*%
%AMOC8*
5,1,8,0,0,1.08239X$1,22.5*
%
%ADD10C,0.0000*%
%ADD11C,0.0030*%
%ADD12C,0.0050*%
%ADD13C,0.0040*%
%ADD14C,0.0250*%
%ADD15C,0.0100*%
D10*
X022500Y025000D02*
X022500Y038000D01*
X032500Y038000D01*
X032500Y025000D01*
X022500Y025000D01*
X028974Y030605D02*
X028976Y030638D01*
X028982Y030670D01*
X028991Y030701D01*
X029004Y030731D01*
X029021Y030759D01*
X029041Y030785D01*
X029064Y030809D01*
X029089Y030829D01*
X029117Y030847D01*
X029146Y030861D01*
X029177Y030871D01*
X029209Y030878D01*
X029242Y030881D01*
X029275Y030880D01*
X029307Y030875D01*
X029338Y030866D01*
X029369Y030854D01*
X029397Y030838D01*
X029424Y030819D01*
X029448Y030797D01*
X029469Y030772D01*
X029488Y030745D01*
X029503Y030716D01*
X029514Y030686D01*
X029522Y030654D01*
X029526Y030621D01*
X029526Y030589D01*
X029522Y030556D01*
X029514Y030524D01*
X029503Y030494D01*
X029488Y030465D01*
X029469Y030438D01*
X029448Y030413D01*
X029424Y030391D01*
X029397Y030372D01*
X029369Y030356D01*
X029338Y030344D01*
X029307Y030335D01*
X029275Y030330D01*
X029242Y030329D01*
X029209Y030332D01*
X029177Y030339D01*
X029146Y030349D01*
X029117Y030363D01*
X029089Y030381D01*
X029064Y030401D01*
X029041Y030425D01*
X029021Y030451D01*
X029004Y030479D01*
X028991Y030509D01*
X028982Y030540D01*
X028976Y030572D01*
X028974Y030605D01*
X028974Y032495D02*
X028976Y032528D01*
X028982Y032560D01*
X028991Y032591D01*
X029004Y032621D01*
X029021Y032649D01*
X029041Y032675D01*
X029064Y032699D01*
X029089Y032719D01*
X029117Y032737D01*
X029146Y032751D01*
X029177Y032761D01*
X029209Y032768D01*
X029242Y032771D01*
X029275Y032770D01*
X029307Y032765D01*
X029338Y032756D01*
X029369Y032744D01*
X029397Y032728D01*
X029424Y032709D01*
X029448Y032687D01*
X029469Y032662D01*
X029488Y032635D01*
X029503Y032606D01*
X029514Y032576D01*
X029522Y032544D01*
X029526Y032511D01*
X029526Y032479D01*
X029522Y032446D01*
X029514Y032414D01*
X029503Y032384D01*
X029488Y032355D01*
X029469Y032328D01*
X029448Y032303D01*
X029424Y032281D01*
X029397Y032262D01*
X029369Y032246D01*
X029338Y032234D01*
X029307Y032225D01*
X029275Y032220D01*
X029242Y032219D01*
X029209Y032222D01*
X029177Y032229D01*
X029146Y032239D01*
X029117Y032253D01*
X029089Y032271D01*
X029064Y032291D01*
X029041Y032315D01*
X029021Y032341D01*
X029004Y032369D01*
X028991Y032399D01*
X028982Y032430D01*
X028976Y032462D01*
X028974Y032495D01*
D11*
X026053Y032465D02*
X025860Y032465D01*
X025956Y032465D02*
X025956Y032755D01*
X025860Y032658D01*
X025758Y032707D02*
X025710Y032755D01*
X025565Y032755D01*
X025565Y032465D01*
X025710Y032465D01*
X025758Y032513D01*
X025758Y032707D01*
X024114Y031935D02*
X024017Y031887D01*
X023920Y031790D01*
X024065Y031790D01*
X024114Y031742D01*
X024114Y031693D01*
X024065Y031645D01*
X023969Y031645D01*
X023920Y031693D01*
X023920Y031790D01*
X023819Y031790D02*
X023771Y031742D01*
X023626Y031742D01*
X023722Y031742D02*
X023819Y031645D01*
X023819Y031790D02*
X023819Y031887D01*
X023771Y031935D01*
X023626Y031935D01*
X023626Y031645D01*
X023626Y031485D02*
X023771Y031485D01*
X023819Y031437D01*
X023819Y031340D01*
X023771Y031292D01*
X023626Y031292D01*
X023722Y031292D02*
X023819Y031195D01*
X023920Y031243D02*
X023969Y031195D01*
X024065Y031195D01*
X024114Y031243D01*
X024114Y031340D01*
X024065Y031388D01*
X024017Y031388D01*
X023920Y031340D01*
X023920Y031485D01*
X024114Y031485D01*
X023626Y031485D02*
X023626Y031195D01*
X024476Y030637D02*
X024476Y030443D01*
X024524Y030395D01*
X024621Y030395D01*
X024669Y030443D01*
X024770Y030443D02*
X024819Y030395D01*
X024915Y030395D01*
X024964Y030443D01*
X024964Y030492D01*
X024915Y030540D01*
X024867Y030540D01*
X024915Y030540D02*
X024964Y030588D01*
X024964Y030637D01*
X024915Y030685D01*
X024819Y030685D01*
X024770Y030637D01*
X024669Y030637D02*
X024621Y030685D01*
X024524Y030685D01*
X024476Y030637D01*
X024524Y030085D02*
X024476Y030037D01*
X024476Y029843D01*
X024524Y029795D01*
X024621Y029795D01*
X024669Y029843D01*
X024770Y029795D02*
X024964Y029988D01*
X024964Y030037D01*
X024915Y030085D01*
X024819Y030085D01*
X024770Y030037D01*
X024669Y030037D02*
X024621Y030085D01*
X024524Y030085D01*
X024770Y029795D02*
X024964Y029795D01*
X024950Y028454D02*
X024882Y028454D01*
X024813Y028385D01*
X024813Y028317D01*
X024882Y028249D01*
X024950Y028249D01*
X025018Y028317D01*
X025018Y028385D01*
X024950Y028454D01*
X024742Y028245D02*
X024844Y028143D01*
X024742Y028245D02*
X024673Y028245D01*
X024571Y028143D01*
X024707Y028006D01*
X024637Y027935D02*
X024568Y027867D01*
X024603Y027901D02*
X024466Y028038D01*
X024432Y028004D01*
X024397Y028106D02*
X024363Y028141D01*
X024394Y027898D02*
X024497Y027796D01*
X024429Y027727D02*
X024326Y027830D01*
X024326Y027898D01*
X024394Y027898D01*
X024326Y027830D02*
X024258Y027830D01*
X024223Y027796D01*
X024360Y027659D01*
X024254Y027621D02*
X024186Y027690D01*
X024118Y027690D01*
X024049Y027621D01*
X024049Y027553D01*
X024118Y027485D01*
X024186Y027485D01*
X024254Y027553D01*
X024254Y027621D01*
X024286Y027385D02*
X024320Y027350D01*
X024389Y027282D02*
X024525Y027145D01*
X024491Y027111D02*
X024560Y027179D01*
X024389Y027282D02*
X024354Y027248D01*
X024249Y027210D02*
X024317Y027142D01*
X024317Y027074D01*
X024214Y026971D01*
X024283Y026903D02*
X024078Y027108D01*
X024180Y027210D01*
X024249Y027210D01*
X024046Y027345D02*
X024046Y027413D01*
X023909Y027550D01*
X023841Y027550D01*
X023738Y027447D01*
X023943Y027242D01*
X024046Y027345D01*
X024826Y027295D02*
X024826Y027585D01*
X025019Y027585D01*
X025120Y027488D02*
X025217Y027585D01*
X025217Y027295D01*
X025120Y027295D02*
X025314Y027295D01*
X024922Y027440D02*
X024826Y027440D01*
X027523Y027403D02*
X027571Y027355D01*
X027668Y027355D01*
X027717Y027403D01*
X027717Y027500D01*
X027620Y027500D01*
X027717Y027597D02*
X027668Y027645D01*
X027571Y027645D01*
X027523Y027597D01*
X027523Y027403D01*
X027818Y027355D02*
X027818Y027645D01*
X028011Y027355D01*
X028011Y027645D01*
X028112Y027645D02*
X028257Y027645D01*
X028306Y027597D01*
X028306Y027403D01*
X028257Y027355D01*
X028112Y027355D01*
X028112Y027645D01*
X028855Y027256D02*
X029048Y027256D01*
X029145Y027159D01*
X029048Y027062D01*
X028855Y027062D01*
X028855Y026961D02*
X028855Y026768D01*
X029000Y026768D01*
X028952Y026864D01*
X028952Y026913D01*
X029000Y026961D01*
X029097Y026961D01*
X029145Y026913D01*
X029145Y026816D01*
X029097Y026768D01*
X029000Y026667D02*
X029000Y026473D01*
X028903Y026570D02*
X029097Y026570D01*
X029139Y026298D02*
X029235Y026105D01*
X029332Y026298D01*
X029433Y026153D02*
X029482Y026153D01*
X029482Y026105D01*
X029433Y026105D01*
X029433Y026153D01*
X029668Y026105D02*
X029668Y026298D01*
X029764Y026395D01*
X029861Y026298D01*
X029861Y026105D01*
X029861Y026250D02*
X029668Y026250D01*
X029855Y026426D02*
X030097Y026426D01*
X030145Y026474D01*
X030145Y026571D01*
X030097Y026619D01*
X029855Y026619D01*
X029903Y026720D02*
X029952Y026720D01*
X030000Y026769D01*
X030000Y026865D01*
X030048Y026914D01*
X030097Y026914D01*
X030145Y026865D01*
X030145Y026769D01*
X030097Y026720D01*
X029903Y026720D02*
X029855Y026769D01*
X029855Y026865D01*
X029903Y026914D01*
X029855Y027015D02*
X029855Y027160D01*
X029903Y027208D01*
X029952Y027208D01*
X030000Y027160D01*
X030000Y027015D01*
X030145Y027015D02*
X029855Y027015D01*
X030000Y027160D02*
X030048Y027208D01*
X030097Y027208D01*
X030145Y027160D01*
X030145Y027015D01*
X030000Y027310D02*
X030000Y027503D01*
X030903Y027406D02*
X031097Y027406D01*
X031000Y027310D02*
X031000Y027503D01*
X031048Y027208D02*
X031097Y027208D01*
X031145Y027160D01*
X031145Y027015D01*
X030855Y027015D01*
X030855Y027160D01*
X030903Y027208D01*
X030952Y027208D01*
X031000Y027160D01*
X031000Y027015D01*
X031048Y026914D02*
X031097Y026914D01*
X031145Y026865D01*
X031145Y026769D01*
X031097Y026720D01*
X031097Y026619D02*
X030855Y026619D01*
X030903Y026720D02*
X030952Y026720D01*
X031000Y026769D01*
X031000Y026865D01*
X031048Y026914D01*
X030903Y026914D02*
X030855Y026865D01*
X030855Y026769D01*
X030903Y026720D01*
X031097Y026619D02*
X031145Y026571D01*
X031145Y026474D01*
X031097Y026426D01*
X030855Y026426D01*
X030722Y026395D02*
X030722Y026105D01*
X030626Y026105D02*
X030819Y026105D01*
X030920Y026250D02*
X031114Y026250D01*
X031215Y026153D02*
X031408Y026347D01*
X031408Y026153D01*
X031360Y026105D01*
X031263Y026105D01*
X031215Y026153D01*
X031215Y026347D01*
X031263Y026395D01*
X031360Y026395D01*
X031408Y026347D01*
X031510Y026347D02*
X031510Y026298D01*
X031558Y026250D01*
X031655Y026250D01*
X031703Y026202D01*
X031703Y026153D01*
X031655Y026105D01*
X031558Y026105D01*
X031510Y026153D01*
X031510Y026202D01*
X031558Y026250D01*
X031655Y026250D02*
X031703Y026298D01*
X031703Y026347D01*
X031655Y026395D01*
X031558Y026395D01*
X031510Y026347D01*
X031804Y026298D02*
X031901Y026395D01*
X031901Y026105D01*
X031804Y026105D02*
X031998Y026105D01*
X032099Y026105D02*
X032099Y026153D01*
X032292Y026347D01*
X032292Y026395D01*
X032099Y026395D01*
X032097Y026623D02*
X032145Y026671D01*
X032145Y026768D01*
X032097Y026817D01*
X032000Y026817D01*
X032000Y026720D01*
X031903Y026817D02*
X031855Y026768D01*
X031855Y026671D01*
X031903Y026623D01*
X032097Y026623D01*
X032145Y026918D02*
X031855Y026918D01*
X032145Y027111D01*
X031855Y027111D01*
X031855Y027212D02*
X031855Y027357D01*
X031903Y027406D01*
X032097Y027406D01*
X032145Y027357D01*
X032145Y027212D01*
X031855Y027212D01*
X031048Y027208D02*
X031000Y027160D01*
X031065Y026395D02*
X030920Y026250D01*
X031065Y026105D02*
X031065Y026395D01*
X030722Y026395D02*
X030626Y026298D01*
X030525Y026347D02*
X030331Y026153D01*
X030379Y026105D01*
X030476Y026105D01*
X030525Y026153D01*
X030525Y026347D01*
X030476Y026395D01*
X030379Y026395D01*
X030331Y026347D01*
X030331Y026153D01*
X030230Y026105D02*
X030036Y026105D01*
X030230Y026298D01*
X030230Y026347D01*
X030182Y026395D01*
X030085Y026395D01*
X030036Y026347D01*
X029038Y026250D02*
X029038Y026202D01*
X028844Y026202D01*
X028844Y026250D02*
X028892Y026298D01*
X028989Y026298D01*
X029038Y026250D01*
X028989Y026105D02*
X028892Y026105D01*
X028844Y026153D01*
X028844Y026250D01*
X028743Y026250D02*
X028694Y026202D01*
X028549Y026202D01*
X028549Y026105D02*
X028549Y026395D01*
X028694Y026395D01*
X028743Y026347D01*
X028743Y026250D01*
X028646Y026202D02*
X028743Y026105D01*
X026664Y035005D02*
X026470Y035005D01*
X026664Y035198D01*
X026664Y035247D01*
X026615Y035295D01*
X026519Y035295D01*
X026470Y035247D01*
X026369Y035295D02*
X026272Y035295D01*
X026321Y035295D02*
X026321Y035053D01*
X026272Y035005D01*
X026224Y035005D01*
X026176Y035053D01*
X027726Y035943D02*
X027774Y035895D01*
X027871Y035895D01*
X027919Y035943D01*
X028020Y035895D02*
X028214Y035895D01*
X028117Y035895D02*
X028117Y036185D01*
X028020Y036088D01*
X027919Y036137D02*
X027871Y036185D01*
X027774Y036185D01*
X027726Y036137D01*
X027726Y035943D01*
X031855Y035918D02*
X032145Y036111D01*
X031855Y036111D01*
X031855Y036212D02*
X031855Y036357D01*
X031903Y036406D01*
X032097Y036406D01*
X032145Y036357D01*
X032145Y036212D01*
X031855Y036212D01*
X031855Y035918D02*
X032145Y035918D01*
X032097Y035817D02*
X032000Y035817D01*
X032000Y035720D01*
X032097Y035817D02*
X032145Y035768D01*
X032145Y035671D01*
X032097Y035623D01*
X031903Y035623D01*
X031855Y035671D01*
X031855Y035768D01*
X031903Y035817D01*
D12*
X032500Y035300D02*
X026750Y035300D01*
X026750Y027800D01*
X032500Y027800D01*
X032500Y028250D02*
X029750Y028250D01*
X028500Y027750D02*
X028500Y025750D01*
X028256Y026197D02*
X028256Y027103D01*
X026444Y027103D01*
X026444Y026197D01*
X028256Y026197D01*
X026450Y026500D02*
X025450Y026500D01*
X025450Y028300D01*
X026450Y028300D01*
X026450Y026500D01*
X026450Y029550D02*
X025050Y029550D01*
X025050Y030350D01*
X026450Y030350D01*
X026450Y029550D01*
X026250Y030350D02*
X025450Y030350D01*
X025450Y030750D01*
X026250Y030750D01*
X026250Y030350D01*
X026450Y030750D02*
X025050Y030750D01*
X025050Y032350D01*
X026450Y032350D01*
X026450Y032130D01*
X026230Y032350D01*
X026450Y032350D01*
X026450Y030750D01*
X025050Y031150D02*
X025050Y031550D01*
X025050Y031950D01*
X024250Y031950D01*
X024250Y031550D01*
X025050Y031550D01*
X024250Y031550D01*
X024250Y031150D01*
X025050Y031150D01*
X026256Y032324D02*
X026450Y032324D01*
X026450Y032275D02*
X026305Y032275D01*
X026353Y032227D02*
X026450Y032227D01*
X026450Y032178D02*
X026402Y032178D01*
X026490Y033270D02*
X026560Y033280D01*
X026640Y033270D02*
X026640Y033500D01*
X026480Y033430D01*
X026640Y033515D02*
X026637Y033534D01*
X026632Y033553D01*
X026624Y033571D01*
X026613Y033587D01*
X026599Y033601D01*
X026549Y033620D02*
X026521Y033620D01*
X026549Y033620D02*
X026563Y033619D01*
X026576Y033615D01*
X026589Y033609D01*
X026600Y033601D01*
X026640Y033515D02*
X026640Y033500D01*
X026521Y033620D02*
X026505Y033617D01*
X026489Y033611D01*
X026474Y033603D01*
X026461Y033593D01*
X026450Y033581D01*
X026451Y033581D02*
X026430Y033550D01*
X026290Y033620D02*
X026290Y033345D01*
X026288Y033329D01*
X026283Y033314D01*
X026275Y033300D01*
X026195Y033260D02*
X026180Y033260D01*
X026164Y033261D01*
X026148Y033266D01*
X026134Y033273D01*
X026121Y033283D01*
X026110Y033295D01*
X026101Y033309D01*
X026090Y033354D02*
X026090Y033355D01*
X026090Y033620D01*
X025890Y033621D02*
X025890Y033364D01*
X025901Y033319D02*
X025910Y033305D01*
X025921Y033293D01*
X025934Y033283D01*
X025948Y033276D01*
X025964Y033271D01*
X025980Y033270D01*
X025995Y033270D01*
X026075Y033310D02*
X026083Y033324D01*
X026088Y033339D01*
X026090Y033355D01*
X026075Y033310D02*
X026063Y033296D01*
X026048Y033285D01*
X026031Y033277D01*
X026013Y033272D01*
X025995Y033270D01*
X025901Y033319D02*
X025895Y033334D01*
X025891Y033349D01*
X025890Y033364D01*
X025760Y033355D02*
X025760Y033770D01*
X025679Y033620D02*
X025661Y033620D01*
X025679Y033620D02*
X025693Y033619D01*
X025706Y033615D01*
X025719Y033609D01*
X025730Y033601D01*
X025731Y033600D02*
X025742Y033586D01*
X025751Y033570D01*
X025757Y033553D01*
X025568Y033557D02*
X025564Y033539D01*
X025561Y033520D01*
X025560Y033501D01*
X025560Y033364D01*
X025571Y033319D02*
X025580Y033305D01*
X025591Y033293D01*
X025604Y033283D01*
X025618Y033276D01*
X025634Y033271D01*
X025650Y033270D01*
X025665Y033270D01*
X025745Y033310D02*
X025753Y033324D01*
X025758Y033339D01*
X025760Y033355D01*
X025745Y033310D02*
X025733Y033296D01*
X025718Y033285D01*
X025701Y033277D01*
X025683Y033272D01*
X025665Y033270D01*
X025571Y033319D02*
X025565Y033334D01*
X025561Y033349D01*
X025560Y033364D01*
X025240Y033501D02*
X025241Y033520D01*
X025244Y033539D01*
X025248Y033557D01*
X025248Y033558D02*
X025261Y033581D01*
X025331Y033620D02*
X025349Y033620D01*
X025400Y033600D02*
X025410Y033590D01*
X025437Y033543D02*
X025440Y033520D01*
X025400Y033601D02*
X025389Y033609D01*
X025376Y033615D01*
X025363Y033619D01*
X025349Y033620D01*
X025411Y033590D02*
X025422Y033576D01*
X025431Y033560D01*
X025437Y033543D01*
X025331Y033620D02*
X025315Y033617D01*
X025299Y033611D01*
X025284Y033603D01*
X025271Y033593D01*
X025260Y033581D01*
X025240Y033501D02*
X025240Y033270D01*
X025110Y033270D02*
X025110Y033500D01*
X024950Y033430D01*
X025110Y033515D02*
X025107Y033534D01*
X025102Y033553D01*
X025094Y033571D01*
X025083Y033587D01*
X025069Y033601D01*
X025019Y033620D02*
X024991Y033620D01*
X025019Y033620D02*
X025033Y033619D01*
X025046Y033615D01*
X025059Y033609D01*
X025070Y033601D01*
X025110Y033515D02*
X025110Y033500D01*
X024991Y033620D02*
X024975Y033617D01*
X024959Y033611D01*
X024944Y033603D01*
X024931Y033593D01*
X024920Y033581D01*
X024921Y033581D02*
X024900Y033550D01*
X024760Y033515D02*
X024760Y033270D01*
X024890Y033320D02*
X024894Y033307D01*
X024900Y033295D01*
X024909Y033285D01*
X024920Y033277D01*
X024933Y033271D01*
X024946Y033269D01*
X024960Y033270D01*
X025030Y033280D01*
X024890Y033320D02*
X024886Y033337D01*
X024887Y033354D01*
X024890Y033372D01*
X024897Y033388D01*
X024907Y033402D01*
X024919Y033414D01*
X024934Y033424D01*
X024950Y033430D01*
X024720Y033601D02*
X024709Y033609D01*
X024696Y033615D01*
X024683Y033619D01*
X024669Y033620D01*
X024641Y033620D01*
X024571Y033581D02*
X024550Y033550D01*
X024550Y033770D01*
X024550Y033550D02*
X024550Y033270D01*
X024760Y033515D02*
X024757Y033534D01*
X024752Y033553D01*
X024744Y033571D01*
X024733Y033587D01*
X024719Y033601D01*
X024641Y033620D02*
X024625Y033617D01*
X024609Y033611D01*
X024594Y033603D01*
X024581Y033593D01*
X024570Y033581D01*
X025568Y033558D02*
X025581Y033581D01*
X025580Y033581D02*
X025591Y033593D01*
X025604Y033603D01*
X025619Y033611D01*
X025635Y033617D01*
X025651Y033620D01*
X026090Y033354D02*
X026091Y033339D01*
X026095Y033324D01*
X026101Y033309D01*
X026195Y033260D02*
X026213Y033262D01*
X026231Y033267D01*
X026248Y033275D01*
X026263Y033286D01*
X026275Y033300D01*
X026420Y033320D02*
X026424Y033307D01*
X026430Y033295D01*
X026439Y033285D01*
X026450Y033277D01*
X026463Y033271D01*
X026476Y033269D01*
X026490Y033270D01*
X026420Y033320D02*
X026416Y033337D01*
X026417Y033354D01*
X026420Y033372D01*
X026427Y033388D01*
X026437Y033402D01*
X026449Y033414D01*
X026464Y033424D01*
X026480Y033430D01*
X026770Y033501D02*
X026770Y033270D01*
X026790Y033581D02*
X026801Y033593D01*
X026814Y033603D01*
X026829Y033611D01*
X026845Y033617D01*
X026861Y033620D01*
X026879Y033620D01*
X026930Y033600D02*
X026940Y033590D01*
X026967Y033543D02*
X026970Y033520D01*
X026778Y033557D02*
X026774Y033539D01*
X026771Y033520D01*
X026770Y033501D01*
X026778Y033558D02*
X026791Y033581D01*
X026879Y033620D02*
X026893Y033619D01*
X026906Y033615D01*
X026919Y033609D01*
X026930Y033601D01*
X026941Y033590D02*
X026952Y033576D01*
X026961Y033560D01*
X026967Y033543D01*
X027120Y033501D02*
X027120Y033400D01*
X027320Y033490D01*
X027320Y033536D01*
X027128Y033557D02*
X027124Y033539D01*
X027121Y033520D01*
X027120Y033501D01*
X027128Y033558D02*
X027141Y033581D01*
X027221Y033620D02*
X027239Y033620D01*
X027253Y033619D01*
X027266Y033615D01*
X027279Y033609D01*
X027290Y033601D01*
X027310Y033570D02*
X027316Y033560D01*
X027319Y033548D01*
X027320Y033536D01*
X027211Y033620D02*
X027195Y033617D01*
X027179Y033611D01*
X027164Y033603D01*
X027151Y033593D01*
X027140Y033581D01*
X027291Y033600D02*
X027302Y033586D01*
X027311Y033570D01*
X027317Y033553D01*
X027305Y033310D02*
X027293Y033296D01*
X027278Y033285D01*
X027261Y033277D01*
X027243Y033272D01*
X027225Y033270D01*
X027210Y033270D01*
X027194Y033271D01*
X027178Y033276D01*
X027164Y033283D01*
X027151Y033293D01*
X027140Y033305D01*
X027131Y033319D01*
X027120Y033364D02*
X027120Y033400D01*
X027120Y033364D02*
X027121Y033349D01*
X027125Y033334D01*
X027131Y033319D01*
X027305Y033310D02*
X027313Y033324D01*
X027318Y033339D01*
X027320Y033355D01*
X028300Y035600D02*
X030100Y035600D01*
X030100Y036500D01*
X028300Y036500D01*
X028300Y035600D01*
D13*
X024530Y029384D02*
X024884Y029030D01*
X024884Y029031D02*
X024904Y029008D01*
X024921Y028983D01*
X024935Y028957D01*
X024946Y028928D01*
X024953Y028899D01*
X024957Y028869D01*
X024957Y028839D01*
X024953Y028809D01*
X024946Y028780D01*
X024935Y028751D01*
X024921Y028725D01*
X024904Y028700D01*
X024884Y028677D01*
X024354Y028146D01*
X023646Y028854D01*
X024177Y029384D01*
X024200Y029404D01*
X024225Y029421D01*
X024251Y029435D01*
X024280Y029446D01*
X024309Y029453D01*
X024339Y029457D01*
X024369Y029457D01*
X024399Y029453D01*
X024428Y029446D01*
X024457Y029435D01*
X024483Y029421D01*
X024508Y029404D01*
X024531Y029384D01*
X023646Y028854D02*
X023116Y028323D01*
X023096Y028300D01*
X023079Y028275D01*
X023065Y028249D01*
X023054Y028220D01*
X023047Y028191D01*
X023043Y028161D01*
X023043Y028131D01*
X023047Y028101D01*
X023054Y028072D01*
X023065Y028043D01*
X023079Y028017D01*
X023096Y027992D01*
X023116Y027969D01*
X023116Y027970D02*
X023470Y027616D01*
X023469Y027616D02*
X023492Y027596D01*
X023517Y027579D01*
X023543Y027565D01*
X023572Y027554D01*
X023601Y027547D01*
X023631Y027543D01*
X023661Y027543D01*
X023691Y027547D01*
X023720Y027554D01*
X023749Y027565D01*
X023775Y027579D01*
X023800Y027596D01*
X023823Y027616D01*
X024354Y028146D01*
X026870Y027500D02*
X026870Y027220D01*
X027057Y027220D01*
X027165Y027220D02*
X027351Y027220D01*
X027258Y027220D02*
X027258Y027500D01*
X027165Y027407D01*
D14*
X024354Y028500D03*
X024000Y028146D03*
X023646Y027793D03*
X023293Y028146D03*
X023646Y028500D03*
X024354Y029207D03*
D15*
X024190Y033291D02*
X024190Y033529D01*
X024161Y033599D02*
X024159Y033601D01*
X024089Y033630D02*
X024061Y033630D01*
X023991Y033601D02*
X023989Y033599D01*
X023960Y033529D02*
X023960Y033331D01*
X023791Y033321D02*
X023789Y033319D01*
X023791Y033320D02*
X023799Y033331D01*
X023805Y033344D01*
X023809Y033357D01*
X023810Y033371D01*
X023790Y033319D02*
X023778Y033309D01*
X023764Y033301D01*
X023750Y033295D01*
X023735Y033291D01*
X023719Y033290D01*
X023691Y033290D01*
X023621Y033319D02*
X023619Y033321D01*
X023590Y033391D02*
X023590Y033529D01*
X023619Y033599D02*
X023621Y033601D01*
X023691Y033630D02*
X023719Y033630D01*
X023789Y033601D02*
X023791Y033599D01*
X023810Y033540D02*
X023599Y033410D01*
X023590Y033391D02*
X023592Y033371D01*
X023598Y033353D01*
X023607Y033335D01*
X023619Y033320D01*
X023620Y033319D02*
X023632Y033309D01*
X023646Y033301D01*
X023660Y033295D01*
X023675Y033291D01*
X023691Y033290D01*
X023590Y033529D02*
X023592Y033549D01*
X023598Y033567D01*
X023607Y033585D01*
X023619Y033600D01*
X023620Y033601D02*
X023632Y033611D01*
X023646Y033619D01*
X023660Y033625D01*
X023675Y033629D01*
X023691Y033630D01*
X023791Y033600D02*
X023799Y033589D01*
X023805Y033576D01*
X023809Y033563D01*
X023810Y033549D01*
X023790Y033601D02*
X023778Y033611D01*
X023764Y033619D01*
X023750Y033625D01*
X023735Y033629D01*
X023719Y033630D01*
X023450Y033529D02*
X023450Y033391D01*
X023421Y033321D02*
X023419Y033319D01*
X023349Y033290D02*
X023321Y033290D01*
X023251Y033319D02*
X023249Y033321D01*
X023220Y033391D02*
X023220Y033529D01*
X023220Y033530D01*
X023249Y033599D02*
X023251Y033601D01*
X023321Y033630D02*
X023349Y033630D01*
X023419Y033601D02*
X023421Y033599D01*
X023420Y033601D02*
X023408Y033611D01*
X023394Y033619D01*
X023380Y033625D01*
X023365Y033629D01*
X023349Y033630D01*
X023421Y033600D02*
X023433Y033585D01*
X023442Y033567D01*
X023448Y033549D01*
X023450Y033529D01*
X023321Y033630D02*
X023305Y033629D01*
X023290Y033625D01*
X023276Y033619D01*
X023262Y033611D01*
X023250Y033601D01*
X023249Y033600D02*
X023237Y033585D01*
X023228Y033567D01*
X023222Y033549D01*
X023220Y033529D01*
X023220Y033391D02*
X023220Y033150D01*
X023031Y033321D02*
X023029Y033319D01*
X022959Y033290D02*
X022931Y033290D01*
X022861Y033319D02*
X022859Y033321D01*
X022830Y033391D02*
X022830Y033529D01*
X022859Y033599D02*
X022861Y033601D01*
X022931Y033630D02*
X022959Y033630D01*
X023029Y033601D02*
X023031Y033599D01*
X023060Y033529D02*
X023060Y033391D01*
X023058Y033371D01*
X023052Y033353D01*
X023043Y033335D01*
X023031Y033320D01*
X023030Y033319D02*
X023018Y033309D01*
X023004Y033301D01*
X022990Y033295D01*
X022975Y033291D01*
X022959Y033290D01*
X022931Y033290D02*
X022915Y033291D01*
X022900Y033295D01*
X022886Y033301D01*
X022872Y033309D01*
X022860Y033319D01*
X022859Y033320D02*
X022847Y033335D01*
X022838Y033353D01*
X022832Y033371D01*
X022830Y033391D01*
X022830Y033529D02*
X022832Y033549D01*
X022838Y033567D01*
X022847Y033585D01*
X022859Y033600D01*
X022860Y033601D02*
X022872Y033611D01*
X022886Y033619D01*
X022900Y033625D01*
X022915Y033629D01*
X022931Y033630D01*
X022959Y033630D02*
X022975Y033629D01*
X022990Y033625D01*
X023004Y033619D01*
X023018Y033611D01*
X023030Y033601D01*
X023031Y033600D02*
X023043Y033585D01*
X023052Y033567D01*
X023058Y033549D01*
X023060Y033529D01*
X023220Y033391D02*
X023222Y033371D01*
X023228Y033353D01*
X023237Y033335D01*
X023249Y033320D01*
X023250Y033319D02*
X023262Y033309D01*
X023276Y033301D01*
X023290Y033295D01*
X023305Y033291D01*
X023321Y033290D01*
X023349Y033290D02*
X023365Y033291D01*
X023380Y033295D01*
X023394Y033301D01*
X023408Y033309D01*
X023420Y033319D01*
X023421Y033320D02*
X023433Y033335D01*
X023442Y033353D01*
X023448Y033371D01*
X023450Y033391D01*
X023960Y033529D02*
X023962Y033549D01*
X023968Y033567D01*
X023977Y033585D01*
X023989Y033600D01*
X023990Y033601D02*
X024002Y033611D01*
X024016Y033619D01*
X024030Y033625D01*
X024045Y033629D01*
X024061Y033630D01*
X024089Y033630D02*
X024105Y033629D01*
X024120Y033625D01*
X024134Y033619D01*
X024148Y033611D01*
X024160Y033601D01*
X024161Y033600D02*
X024173Y033585D01*
X024182Y033567D01*
X024188Y033549D01*
X024190Y033529D01*
X024070Y034100D02*
X023810Y034350D01*
X024040Y034680D01*
X023900Y035040D01*
X023500Y035110D01*
X023500Y035470D01*
X023910Y035540D01*
X024050Y035890D01*
X023820Y036230D01*
X024060Y036480D01*
X024410Y036240D01*
X024750Y036380D01*
X024830Y036800D01*
X025180Y036800D01*
X025260Y036380D01*
X025590Y036240D01*
X025950Y036480D01*
X026200Y036230D01*
X025960Y035890D01*
X026100Y035550D01*
X026510Y035470D01*
X026510Y035110D01*
X026110Y035040D01*
X025970Y034680D01*
X026200Y034350D01*
X025950Y034100D01*
X025630Y034320D01*
X025480Y034230D01*
X025230Y034860D01*
X025300Y034840D02*
X025500Y034320D01*
X025620Y034380D01*
X025920Y034190D01*
X025950Y034170D01*
X026130Y034370D01*
X025900Y034700D01*
X026070Y035080D01*
X026460Y035160D01*
X026460Y035440D01*
X026040Y035530D01*
X025900Y035920D01*
X026140Y036230D01*
X025960Y036420D01*
X025590Y036160D01*
X025220Y036350D01*
X025130Y036770D01*
X024870Y036760D01*
X024790Y036360D01*
X024460Y036200D01*
X024400Y036160D01*
X024180Y036330D01*
X024070Y036430D01*
X024040Y036420D01*
X023880Y036240D01*
X024110Y035890D01*
X023970Y035510D01*
X023570Y035420D01*
X023570Y035150D01*
X023920Y035070D01*
X024090Y034690D01*
X023880Y034340D01*
X024070Y034180D01*
X024380Y034380D01*
X024490Y034310D01*
X024700Y034850D01*
X024500Y035090D01*
X024450Y035400D01*
X024610Y035680D01*
X024940Y035840D01*
X025250Y035780D01*
X025440Y035620D01*
X025530Y035370D01*
X025530Y035170D01*
X025390Y034900D01*
X025300Y034840D01*
X025315Y034850D02*
X025967Y034850D01*
X025923Y034752D02*
X025334Y034752D01*
X025372Y034653D02*
X025933Y034653D01*
X026001Y034555D02*
X025410Y034555D01*
X025448Y034456D02*
X026070Y034456D01*
X026119Y034358D02*
X025655Y034358D01*
X025575Y034358D02*
X025486Y034358D01*
X025811Y034259D02*
X026030Y034259D01*
X026011Y034949D02*
X025415Y034949D01*
X025466Y035047D02*
X026055Y035047D01*
X026389Y035146D02*
X025517Y035146D01*
X025530Y035244D02*
X026460Y035244D01*
X026460Y035343D02*
X025530Y035343D01*
X025504Y035441D02*
X026455Y035441D01*
X026037Y035540D02*
X025469Y035540D01*
X025419Y035638D02*
X026001Y035638D01*
X025966Y035737D02*
X025302Y035737D01*
X024966Y035835D02*
X025931Y035835D01*
X025910Y035934D02*
X024081Y035934D01*
X024090Y035835D02*
X024930Y035835D01*
X024727Y035737D02*
X024053Y035737D01*
X024017Y035638D02*
X024586Y035638D01*
X024530Y035540D02*
X023981Y035540D01*
X023663Y035441D02*
X024473Y035441D01*
X024459Y035343D02*
X023570Y035343D01*
X023570Y035244D02*
X024475Y035244D01*
X024491Y035146D02*
X023590Y035146D01*
X023930Y035047D02*
X024536Y035047D01*
X024618Y034949D02*
X023974Y034949D01*
X024018Y034850D02*
X024700Y034850D01*
X024780Y034860D02*
X024530Y034230D01*
X024390Y034320D01*
X024070Y034100D01*
X023976Y034259D02*
X024192Y034259D01*
X024345Y034358D02*
X023891Y034358D01*
X023950Y034456D02*
X024547Y034456D01*
X024585Y034555D02*
X024009Y034555D01*
X024068Y034653D02*
X024623Y034653D01*
X024662Y034752D02*
X024062Y034752D01*
X024415Y034358D02*
X024508Y034358D01*
X024770Y034860D02*
X024733Y034882D01*
X024698Y034908D01*
X024666Y034936D01*
X024637Y034967D01*
X024610Y035001D01*
X024587Y035037D01*
X024567Y035075D01*
X024550Y035114D01*
X024537Y035155D01*
X024527Y035197D01*
X024522Y035240D01*
X024520Y035283D01*
X024522Y035326D01*
X024528Y035368D01*
X024538Y035410D01*
X024551Y035451D01*
X024568Y035490D01*
X024589Y035528D01*
X024612Y035564D01*
X024639Y035598D01*
X024669Y035629D01*
X024701Y035657D01*
X024736Y035682D01*
X024773Y035704D01*
X024812Y035723D01*
X024852Y035738D01*
X024893Y035749D01*
X024936Y035757D01*
X024979Y035761D01*
X025021Y035761D01*
X025064Y035757D01*
X025107Y035749D01*
X025148Y035738D01*
X025188Y035723D01*
X025227Y035704D01*
X025264Y035682D01*
X025299Y035657D01*
X025331Y035629D01*
X025361Y035598D01*
X025388Y035564D01*
X025411Y035528D01*
X025432Y035490D01*
X025449Y035451D01*
X025462Y035410D01*
X025472Y035368D01*
X025478Y035326D01*
X025480Y035283D01*
X025478Y035240D01*
X025473Y035197D01*
X025463Y035155D01*
X025450Y035114D01*
X025433Y035075D01*
X025413Y035037D01*
X025390Y035001D01*
X025363Y034967D01*
X025334Y034936D01*
X025302Y034908D01*
X025267Y034882D01*
X025230Y034860D01*
X025987Y036032D02*
X024017Y036032D01*
X023952Y036131D02*
X026063Y036131D01*
X026139Y036229D02*
X025688Y036229D01*
X025828Y036328D02*
X026048Y036328D01*
X025456Y036229D02*
X024520Y036229D01*
X024311Y036229D02*
X023887Y036229D01*
X023958Y036328D02*
X024183Y036328D01*
X024074Y036426D02*
X024058Y036426D01*
X024723Y036328D02*
X025264Y036328D01*
X025204Y036426D02*
X024803Y036426D01*
X024823Y036525D02*
X025183Y036525D01*
X025161Y036623D02*
X024843Y036623D01*
X024862Y036722D02*
X025140Y036722D01*
M02*
