G75*
%MOIN*%
%OFA0B0*%
%FSLAX24Y24*%
%IPPOS*%
%LPD*%
%AMOC8*
5,1,8,0,0,1.08239X$1,22.5*
%
%ADD10C,0.0000*%
%ADD11C,0.0030*%
%ADD12C,0.0050*%
%ADD13C,0.0040*%
%ADD14C,0.0250*%
%ADD15C,0.0100*%
D10*
X022500Y025000D02*
X022500Y038000D01*
X032500Y038000D01*
X032500Y025000D01*
X022500Y025000D01*
X028974Y030555D02*
X028976Y030588D01*
X028982Y030620D01*
X028991Y030651D01*
X029004Y030681D01*
X029021Y030709D01*
X029041Y030735D01*
X029064Y030759D01*
X029089Y030779D01*
X029117Y030797D01*
X029146Y030811D01*
X029177Y030821D01*
X029209Y030828D01*
X029242Y030831D01*
X029275Y030830D01*
X029307Y030825D01*
X029338Y030816D01*
X029369Y030804D01*
X029397Y030788D01*
X029424Y030769D01*
X029448Y030747D01*
X029469Y030722D01*
X029488Y030695D01*
X029503Y030666D01*
X029514Y030636D01*
X029522Y030604D01*
X029526Y030571D01*
X029526Y030539D01*
X029522Y030506D01*
X029514Y030474D01*
X029503Y030444D01*
X029488Y030415D01*
X029469Y030388D01*
X029448Y030363D01*
X029424Y030341D01*
X029397Y030322D01*
X029369Y030306D01*
X029338Y030294D01*
X029307Y030285D01*
X029275Y030280D01*
X029242Y030279D01*
X029209Y030282D01*
X029177Y030289D01*
X029146Y030299D01*
X029117Y030313D01*
X029089Y030331D01*
X029064Y030351D01*
X029041Y030375D01*
X029021Y030401D01*
X029004Y030429D01*
X028991Y030459D01*
X028982Y030490D01*
X028976Y030522D01*
X028974Y030555D01*
X028974Y032445D02*
X028976Y032478D01*
X028982Y032510D01*
X028991Y032541D01*
X029004Y032571D01*
X029021Y032599D01*
X029041Y032625D01*
X029064Y032649D01*
X029089Y032669D01*
X029117Y032687D01*
X029146Y032701D01*
X029177Y032711D01*
X029209Y032718D01*
X029242Y032721D01*
X029275Y032720D01*
X029307Y032715D01*
X029338Y032706D01*
X029369Y032694D01*
X029397Y032678D01*
X029424Y032659D01*
X029448Y032637D01*
X029469Y032612D01*
X029488Y032585D01*
X029503Y032556D01*
X029514Y032526D01*
X029522Y032494D01*
X029526Y032461D01*
X029526Y032429D01*
X029522Y032396D01*
X029514Y032364D01*
X029503Y032334D01*
X029488Y032305D01*
X029469Y032278D01*
X029448Y032253D01*
X029424Y032231D01*
X029397Y032212D01*
X029369Y032196D01*
X029338Y032184D01*
X029307Y032175D01*
X029275Y032170D01*
X029242Y032169D01*
X029209Y032172D01*
X029177Y032179D01*
X029146Y032189D01*
X029117Y032203D01*
X029089Y032221D01*
X029064Y032241D01*
X029041Y032265D01*
X029021Y032291D01*
X029004Y032319D01*
X028991Y032349D01*
X028982Y032380D01*
X028976Y032412D01*
X028974Y032445D01*
X030705Y027362D02*
X030707Y027412D01*
X030713Y027462D01*
X030723Y027511D01*
X030737Y027559D01*
X030754Y027606D01*
X030775Y027651D01*
X030800Y027695D01*
X030828Y027736D01*
X030860Y027775D01*
X030894Y027812D01*
X030931Y027846D01*
X030971Y027876D01*
X031013Y027903D01*
X031057Y027927D01*
X031103Y027948D01*
X031150Y027964D01*
X031198Y027977D01*
X031248Y027986D01*
X031297Y027991D01*
X031348Y027992D01*
X031398Y027989D01*
X031447Y027982D01*
X031496Y027971D01*
X031544Y027956D01*
X031590Y027938D01*
X031635Y027916D01*
X031678Y027890D01*
X031719Y027861D01*
X031758Y027829D01*
X031794Y027794D01*
X031826Y027756D01*
X031856Y027716D01*
X031883Y027673D01*
X031906Y027629D01*
X031925Y027583D01*
X031941Y027535D01*
X031953Y027486D01*
X031961Y027437D01*
X031965Y027387D01*
X031965Y027337D01*
X031961Y027287D01*
X031953Y027238D01*
X031941Y027189D01*
X031925Y027141D01*
X031906Y027095D01*
X031883Y027051D01*
X031856Y027008D01*
X031826Y026968D01*
X031794Y026930D01*
X031758Y026895D01*
X031719Y026863D01*
X031678Y026834D01*
X031635Y026808D01*
X031590Y026786D01*
X031544Y026768D01*
X031496Y026753D01*
X031447Y026742D01*
X031398Y026735D01*
X031348Y026732D01*
X031297Y026733D01*
X031248Y026738D01*
X031198Y026747D01*
X031150Y026760D01*
X031103Y026776D01*
X031057Y026797D01*
X031013Y026821D01*
X030971Y026848D01*
X030931Y026878D01*
X030894Y026912D01*
X030860Y026949D01*
X030828Y026988D01*
X030800Y027029D01*
X030775Y027073D01*
X030754Y027118D01*
X030737Y027165D01*
X030723Y027213D01*
X030713Y027262D01*
X030707Y027312D01*
X030705Y027362D01*
D11*
X030700Y026903D02*
X030700Y026710D01*
X030748Y026608D02*
X030797Y026608D01*
X030845Y026560D01*
X030845Y026415D01*
X030555Y026415D01*
X030555Y026560D01*
X030603Y026608D01*
X030652Y026608D01*
X030700Y026560D01*
X030700Y026415D01*
X030748Y026314D02*
X030797Y026314D01*
X030845Y026265D01*
X030845Y026169D01*
X030797Y026120D01*
X030797Y026019D02*
X030555Y026019D01*
X030603Y026120D02*
X030652Y026120D01*
X030700Y026169D01*
X030700Y026265D01*
X030748Y026314D01*
X030603Y026314D02*
X030555Y026265D01*
X030555Y026169D01*
X030603Y026120D01*
X030797Y026019D02*
X030845Y025971D01*
X030845Y025874D01*
X030797Y025826D01*
X030555Y025826D01*
X030145Y025874D02*
X030145Y025971D01*
X030097Y026019D01*
X029855Y026019D01*
X029903Y026120D02*
X029952Y026120D01*
X030000Y026169D01*
X030000Y026265D01*
X030048Y026314D01*
X030097Y026314D01*
X030145Y026265D01*
X030145Y026169D01*
X030097Y026120D01*
X029903Y026120D02*
X029855Y026169D01*
X029855Y026265D01*
X029903Y026314D01*
X029855Y026415D02*
X029855Y026560D01*
X029903Y026608D01*
X029952Y026608D01*
X030000Y026560D01*
X030000Y026415D01*
X030145Y026415D02*
X029855Y026415D01*
X030000Y026560D02*
X030048Y026608D01*
X030097Y026608D01*
X030145Y026560D01*
X030145Y026415D01*
X030000Y026710D02*
X030000Y026903D01*
X030603Y026806D02*
X030797Y026806D01*
X030748Y026608D02*
X030700Y026560D01*
X030145Y025874D02*
X030097Y025826D01*
X029855Y025826D01*
X029147Y026070D02*
X028953Y026070D01*
X029050Y025973D02*
X029050Y026167D01*
X029050Y026268D02*
X029002Y026364D01*
X029002Y026413D01*
X029050Y026461D01*
X029147Y026461D01*
X029195Y026413D01*
X029195Y026316D01*
X029147Y026268D01*
X029050Y026268D02*
X028905Y026268D01*
X028905Y026461D01*
X028905Y026562D02*
X029098Y026562D01*
X029195Y026659D01*
X029098Y026756D01*
X028905Y026756D01*
X028145Y026707D02*
X028145Y026562D01*
X027855Y026562D01*
X027855Y026707D01*
X027903Y026756D01*
X028097Y026756D01*
X028145Y026707D01*
X028145Y026461D02*
X027855Y026461D01*
X027855Y026268D02*
X028145Y026461D01*
X028145Y026268D02*
X027855Y026268D01*
X027903Y026167D02*
X027855Y026118D01*
X027855Y026021D01*
X027903Y025973D01*
X028097Y025973D01*
X028145Y026021D01*
X028145Y026118D01*
X028097Y026167D01*
X028000Y026167D01*
X028000Y026070D01*
X025714Y028395D02*
X025520Y028395D01*
X025617Y028395D02*
X025617Y028685D01*
X025520Y028588D01*
X025419Y028685D02*
X025226Y028685D01*
X025226Y028395D01*
X025226Y028540D02*
X025322Y028540D01*
X025064Y028795D02*
X024870Y028795D01*
X025064Y028988D01*
X025064Y029037D01*
X025015Y029085D01*
X024919Y029085D01*
X024870Y029037D01*
X024769Y029037D02*
X024721Y029085D01*
X024624Y029085D01*
X024576Y029037D01*
X024576Y028843D01*
X024624Y028795D01*
X024721Y028795D01*
X024769Y028843D01*
X025174Y029595D02*
X025271Y029595D01*
X025319Y029643D01*
X025420Y029643D02*
X025469Y029595D01*
X025565Y029595D01*
X025614Y029643D01*
X025614Y029692D01*
X025565Y029740D01*
X025517Y029740D01*
X025565Y029740D02*
X025614Y029788D01*
X025614Y029837D01*
X025565Y029885D01*
X025469Y029885D01*
X025420Y029837D01*
X025319Y029837D02*
X025271Y029885D01*
X025174Y029885D01*
X025126Y029837D01*
X025126Y029643D01*
X025174Y029595D01*
X025035Y030115D02*
X024745Y030115D01*
X024745Y030260D01*
X024793Y030308D01*
X024890Y030308D01*
X024938Y030260D01*
X024938Y030115D01*
X024938Y030212D02*
X025035Y030308D01*
X024987Y030410D02*
X024890Y030410D01*
X024890Y030555D01*
X024938Y030603D01*
X024987Y030603D01*
X025035Y030555D01*
X025035Y030458D01*
X024987Y030410D01*
X024890Y030410D02*
X024793Y030506D01*
X024745Y030603D01*
X024635Y030555D02*
X024635Y030458D01*
X024587Y030410D01*
X024490Y030410D02*
X024442Y030506D01*
X024442Y030555D01*
X024490Y030603D01*
X024587Y030603D01*
X024635Y030555D01*
X024490Y030410D02*
X024345Y030410D01*
X024345Y030603D01*
X024393Y030308D02*
X024490Y030308D01*
X024538Y030260D01*
X024538Y030115D01*
X024538Y030212D02*
X024635Y030308D01*
X024635Y030115D02*
X024345Y030115D01*
X024345Y030260D01*
X024393Y030308D01*
X023395Y030313D02*
X023395Y030168D01*
X023105Y030168D01*
X023105Y030313D01*
X023153Y030361D01*
X023202Y030361D01*
X023250Y030313D01*
X023250Y030168D01*
X023250Y030313D02*
X023298Y030361D01*
X023347Y030361D01*
X023395Y030313D01*
X023395Y030536D02*
X023202Y030730D01*
X023153Y030730D01*
X023105Y030682D01*
X023105Y030585D01*
X023153Y030536D01*
X023395Y030536D02*
X023395Y030730D01*
X023347Y030831D02*
X023153Y031025D01*
X023347Y031025D01*
X023395Y030976D01*
X023395Y030879D01*
X023347Y030831D01*
X023153Y030831D01*
X023105Y030879D01*
X023105Y030976D01*
X023153Y031025D01*
X023202Y031126D02*
X023105Y031222D01*
X023395Y031222D01*
X023395Y031126D02*
X023395Y031319D01*
X023250Y031420D02*
X023250Y031614D01*
X023347Y031715D02*
X023153Y031908D01*
X023347Y031908D01*
X023395Y031860D01*
X023395Y031763D01*
X023347Y031715D01*
X023153Y031715D01*
X023105Y031763D01*
X023105Y031860D01*
X023153Y031908D01*
X023153Y032010D02*
X023202Y032010D01*
X023250Y032058D01*
X023250Y032155D01*
X023298Y032203D01*
X023347Y032203D01*
X023395Y032155D01*
X023395Y032058D01*
X023347Y032010D01*
X023298Y032010D01*
X023250Y032058D01*
X023250Y032155D02*
X023202Y032203D01*
X023153Y032203D01*
X023105Y032155D01*
X023105Y032058D01*
X023153Y032010D01*
X023202Y032304D02*
X023105Y032401D01*
X023395Y032401D01*
X023395Y032304D02*
X023395Y032498D01*
X023347Y032599D02*
X023298Y032599D01*
X023250Y032647D01*
X023250Y032744D01*
X023298Y032792D01*
X023347Y032792D01*
X023395Y032744D01*
X023395Y032647D01*
X023347Y032599D01*
X023250Y032647D02*
X023202Y032599D01*
X023153Y032599D01*
X023105Y032647D01*
X023105Y032744D01*
X023153Y032792D01*
X023202Y032792D01*
X023250Y032744D01*
X023395Y031565D02*
X023105Y031565D01*
X023250Y031420D01*
X023347Y029982D02*
X023395Y029982D01*
X023395Y029933D01*
X023347Y029933D01*
X023347Y029982D01*
X023202Y029832D02*
X023395Y029735D01*
X023202Y029639D01*
X023250Y029538D02*
X023298Y029538D01*
X023298Y029344D01*
X023250Y029344D02*
X023202Y029392D01*
X023202Y029489D01*
X023250Y029538D01*
X023395Y029489D02*
X023395Y029392D01*
X023347Y029344D01*
X023250Y029344D01*
X023250Y029243D02*
X023298Y029194D01*
X023298Y029049D01*
X023395Y029049D02*
X023105Y029049D01*
X023105Y029194D01*
X023153Y029243D01*
X023250Y029243D01*
X023298Y029146D02*
X023395Y029243D01*
X024632Y027704D02*
X024563Y027635D01*
X024563Y027567D01*
X024632Y027499D01*
X024700Y027499D01*
X024768Y027567D01*
X024768Y027635D01*
X024700Y027704D01*
X024632Y027704D01*
X024492Y027495D02*
X024594Y027393D01*
X024492Y027495D02*
X024423Y027495D01*
X024321Y027393D01*
X024457Y027256D01*
X024387Y027185D02*
X024318Y027117D01*
X024353Y027151D02*
X024216Y027288D01*
X024182Y027254D01*
X024147Y027356D02*
X024113Y027391D01*
X024144Y027148D02*
X024247Y027046D01*
X024179Y026977D02*
X024076Y027080D01*
X024076Y027148D01*
X024144Y027148D01*
X024076Y027080D02*
X024008Y027080D01*
X023973Y027046D01*
X024110Y026909D01*
X024004Y026871D02*
X023936Y026940D01*
X023868Y026940D01*
X023799Y026871D01*
X023799Y026803D01*
X023868Y026735D01*
X023936Y026735D01*
X024004Y026803D01*
X024004Y026871D01*
X024036Y026635D02*
X024070Y026600D01*
X024139Y026532D02*
X024275Y026395D01*
X024241Y026361D02*
X024310Y026429D01*
X024139Y026532D02*
X024104Y026498D01*
X023999Y026460D02*
X024067Y026392D01*
X024067Y026324D01*
X023964Y026221D01*
X024033Y026153D02*
X023828Y026358D01*
X023930Y026460D01*
X023999Y026460D01*
X023796Y026595D02*
X023796Y026663D01*
X023659Y026800D01*
X023591Y026800D01*
X023488Y026697D01*
X023693Y026492D01*
X023796Y026595D01*
X025565Y031215D02*
X025710Y031215D01*
X025758Y031263D01*
X025758Y031457D01*
X025710Y031505D01*
X025565Y031505D01*
X025565Y031215D01*
X025860Y031215D02*
X026053Y031215D01*
X025956Y031215D02*
X025956Y031505D01*
X025860Y031408D01*
X026724Y035455D02*
X026772Y035455D01*
X026821Y035503D01*
X026821Y035745D01*
X026869Y035745D02*
X026772Y035745D01*
X026970Y035697D02*
X027019Y035745D01*
X027115Y035745D01*
X027164Y035697D01*
X027164Y035648D01*
X026970Y035455D01*
X027164Y035455D01*
X026724Y035455D02*
X026676Y035503D01*
X027726Y035943D02*
X027774Y035895D01*
X027871Y035895D01*
X027919Y035943D01*
X028020Y035895D02*
X028214Y035895D01*
X028117Y035895D02*
X028117Y036185D01*
X028020Y036088D01*
X027919Y036137D02*
X027871Y036185D01*
X027774Y036185D01*
X027726Y036137D01*
X027726Y035943D01*
X031855Y036171D02*
X031903Y036123D01*
X032097Y036123D01*
X032145Y036171D01*
X032145Y036268D01*
X032097Y036317D01*
X032000Y036317D01*
X032000Y036220D01*
X031903Y036317D02*
X031855Y036268D01*
X031855Y036171D01*
X031855Y036418D02*
X032145Y036611D01*
X031855Y036611D01*
X031855Y036712D02*
X031855Y036857D01*
X031903Y036906D01*
X032097Y036906D01*
X032145Y036857D01*
X032145Y036712D01*
X031855Y036712D01*
X031855Y036418D02*
X032145Y036418D01*
X032097Y026756D02*
X031903Y026756D01*
X031855Y026707D01*
X031855Y026562D01*
X032145Y026562D01*
X032145Y026707D01*
X032097Y026756D01*
X032145Y026461D02*
X031855Y026461D01*
X031855Y026268D02*
X032145Y026461D01*
X032145Y026268D02*
X031855Y026268D01*
X031903Y026167D02*
X031855Y026118D01*
X031855Y026021D01*
X031903Y025973D01*
X032097Y025973D01*
X032145Y026021D01*
X032145Y026118D01*
X032097Y026167D01*
X032000Y026167D01*
X032000Y026070D01*
D12*
X032500Y027750D02*
X026750Y027750D01*
X026750Y035250D01*
X032500Y035250D01*
X030100Y035600D02*
X030100Y036500D01*
X028300Y036500D01*
X028300Y035600D01*
X030100Y035600D01*
X027320Y033536D02*
X027320Y033490D01*
X027120Y033400D01*
X027120Y033364D01*
X027120Y033400D02*
X027120Y033501D01*
X027128Y033558D02*
X027141Y033581D01*
X027221Y033620D02*
X027239Y033620D01*
X027253Y033619D01*
X027266Y033615D01*
X027279Y033609D01*
X027290Y033601D01*
X027310Y033570D02*
X027316Y033560D01*
X027319Y033548D01*
X027320Y033536D01*
X027128Y033557D02*
X027124Y033539D01*
X027121Y033520D01*
X027120Y033501D01*
X027291Y033600D02*
X027302Y033586D01*
X027311Y033570D01*
X027317Y033553D01*
X027211Y033620D02*
X027195Y033617D01*
X027179Y033611D01*
X027164Y033603D01*
X027151Y033593D01*
X027140Y033581D01*
X026967Y033543D02*
X026970Y033520D01*
X026778Y033557D02*
X026774Y033539D01*
X026771Y033520D01*
X026770Y033501D01*
X026770Y033270D01*
X026640Y033270D02*
X026640Y033500D01*
X026480Y033430D01*
X026640Y033515D02*
X026637Y033534D01*
X026632Y033553D01*
X026624Y033571D01*
X026613Y033587D01*
X026599Y033601D01*
X026549Y033620D02*
X026521Y033620D01*
X026549Y033620D02*
X026563Y033619D01*
X026576Y033615D01*
X026589Y033609D01*
X026600Y033601D01*
X026640Y033515D02*
X026640Y033500D01*
X026521Y033620D02*
X026505Y033617D01*
X026489Y033611D01*
X026474Y033603D01*
X026461Y033593D01*
X026450Y033581D01*
X026451Y033581D02*
X026430Y033550D01*
X026290Y033620D02*
X026290Y033345D01*
X026288Y033329D01*
X026283Y033314D01*
X026275Y033300D01*
X026195Y033260D02*
X026180Y033260D01*
X026164Y033261D01*
X026148Y033266D01*
X026134Y033273D01*
X026121Y033283D01*
X026110Y033295D01*
X026101Y033309D01*
X026090Y033354D02*
X026090Y033355D01*
X026090Y033620D01*
X025890Y033621D02*
X025890Y033364D01*
X025901Y033319D02*
X025910Y033305D01*
X025921Y033293D01*
X025934Y033283D01*
X025948Y033276D01*
X025964Y033271D01*
X025980Y033270D01*
X025995Y033270D01*
X026075Y033310D02*
X026083Y033324D01*
X026088Y033339D01*
X026090Y033355D01*
X026075Y033310D02*
X026063Y033296D01*
X026048Y033285D01*
X026031Y033277D01*
X026013Y033272D01*
X025995Y033270D01*
X025901Y033319D02*
X025895Y033334D01*
X025891Y033349D01*
X025890Y033364D01*
X025760Y033355D02*
X025760Y033770D01*
X025679Y033620D02*
X025661Y033620D01*
X025679Y033620D02*
X025693Y033619D01*
X025706Y033615D01*
X025719Y033609D01*
X025730Y033601D01*
X025731Y033600D02*
X025742Y033586D01*
X025751Y033570D01*
X025757Y033553D01*
X025568Y033557D02*
X025564Y033539D01*
X025561Y033520D01*
X025560Y033501D01*
X025560Y033364D01*
X025571Y033319D02*
X025580Y033305D01*
X025591Y033293D01*
X025604Y033283D01*
X025618Y033276D01*
X025634Y033271D01*
X025650Y033270D01*
X025665Y033270D01*
X025745Y033310D02*
X025753Y033324D01*
X025758Y033339D01*
X025760Y033355D01*
X025745Y033310D02*
X025733Y033296D01*
X025718Y033285D01*
X025701Y033277D01*
X025683Y033272D01*
X025665Y033270D01*
X025571Y033319D02*
X025565Y033334D01*
X025561Y033349D01*
X025560Y033364D01*
X025240Y033501D02*
X025241Y033520D01*
X025244Y033539D01*
X025248Y033557D01*
X025248Y033558D02*
X025261Y033581D01*
X025331Y033620D02*
X025349Y033620D01*
X025400Y033600D02*
X025410Y033590D01*
X025437Y033543D02*
X025440Y033520D01*
X025400Y033601D02*
X025389Y033609D01*
X025376Y033615D01*
X025363Y033619D01*
X025349Y033620D01*
X025411Y033590D02*
X025422Y033576D01*
X025431Y033560D01*
X025437Y033543D01*
X025331Y033620D02*
X025315Y033617D01*
X025299Y033611D01*
X025284Y033603D01*
X025271Y033593D01*
X025260Y033581D01*
X025240Y033501D02*
X025240Y033270D01*
X025110Y033270D02*
X025110Y033500D01*
X024950Y033430D01*
X025110Y033515D02*
X025107Y033534D01*
X025102Y033553D01*
X025094Y033571D01*
X025083Y033587D01*
X025069Y033601D01*
X025019Y033620D02*
X024991Y033620D01*
X025019Y033620D02*
X025033Y033619D01*
X025046Y033615D01*
X025059Y033609D01*
X025070Y033601D01*
X025110Y033515D02*
X025110Y033500D01*
X024991Y033620D02*
X024975Y033617D01*
X024959Y033611D01*
X024944Y033603D01*
X024931Y033593D01*
X024920Y033581D01*
X024921Y033581D02*
X024900Y033550D01*
X024760Y033515D02*
X024760Y033270D01*
X024890Y033320D02*
X024894Y033307D01*
X024900Y033295D01*
X024909Y033285D01*
X024920Y033277D01*
X024933Y033271D01*
X024946Y033269D01*
X024960Y033270D01*
X025030Y033280D01*
X024890Y033320D02*
X024886Y033337D01*
X024887Y033354D01*
X024890Y033372D01*
X024897Y033388D01*
X024907Y033402D01*
X024919Y033414D01*
X024934Y033424D01*
X024950Y033430D01*
X024720Y033601D02*
X024709Y033609D01*
X024696Y033615D01*
X024683Y033619D01*
X024669Y033620D01*
X024641Y033620D01*
X024571Y033581D02*
X024550Y033550D01*
X024550Y033770D01*
X024550Y033550D02*
X024550Y033270D01*
X024760Y033515D02*
X024757Y033534D01*
X024752Y033553D01*
X024744Y033571D01*
X024733Y033587D01*
X024719Y033601D01*
X024641Y033620D02*
X024625Y033617D01*
X024609Y033611D01*
X024594Y033603D01*
X024581Y033593D01*
X024570Y033581D01*
X025568Y033558D02*
X025581Y033581D01*
X025580Y033581D02*
X025591Y033593D01*
X025604Y033603D01*
X025619Y033611D01*
X025635Y033617D01*
X025651Y033620D01*
X026090Y033354D02*
X026091Y033339D01*
X026095Y033324D01*
X026101Y033309D01*
X026195Y033260D02*
X026213Y033262D01*
X026231Y033267D01*
X026248Y033275D01*
X026263Y033286D01*
X026275Y033300D01*
X026420Y033320D02*
X026424Y033307D01*
X026430Y033295D01*
X026439Y033285D01*
X026450Y033277D01*
X026463Y033271D01*
X026476Y033269D01*
X026490Y033270D01*
X026560Y033280D01*
X026420Y033320D02*
X026416Y033337D01*
X026417Y033354D01*
X026420Y033372D01*
X026427Y033388D01*
X026437Y033402D01*
X026449Y033414D01*
X026464Y033424D01*
X026480Y033430D01*
X026778Y033558D02*
X026791Y033581D01*
X026861Y033620D02*
X026879Y033620D01*
X026930Y033600D02*
X026940Y033590D01*
X026930Y033601D02*
X026919Y033609D01*
X026906Y033615D01*
X026893Y033619D01*
X026879Y033620D01*
X026941Y033590D02*
X026952Y033576D01*
X026961Y033560D01*
X026967Y033543D01*
X026861Y033620D02*
X026845Y033617D01*
X026829Y033611D01*
X026814Y033603D01*
X026801Y033593D01*
X026790Y033581D01*
X027131Y033319D02*
X027140Y033305D01*
X027151Y033293D01*
X027164Y033283D01*
X027178Y033276D01*
X027194Y033271D01*
X027210Y033270D01*
X027225Y033270D01*
X027305Y033310D02*
X027313Y033324D01*
X027318Y033339D01*
X027320Y033355D01*
X027305Y033310D02*
X027293Y033296D01*
X027278Y033285D01*
X027261Y033277D01*
X027243Y033272D01*
X027225Y033270D01*
X027131Y033319D02*
X027125Y033334D01*
X027121Y033349D01*
X027120Y033364D01*
X026400Y031150D02*
X025100Y031150D01*
X025100Y029950D01*
X026400Y029950D01*
X025600Y029950D01*
X025600Y029550D01*
X026400Y029550D01*
X026400Y029950D01*
X026400Y031150D01*
X026400Y031080D01*
X026330Y031150D01*
X026400Y031150D01*
X026400Y031111D02*
X026369Y031111D01*
X025100Y030000D02*
X024700Y030000D01*
X024700Y029200D01*
X025100Y029200D01*
X025100Y030000D01*
X024700Y030000D02*
X024300Y030000D01*
X024300Y029200D01*
X024700Y029200D01*
X024700Y030000D01*
X025150Y029550D02*
X026550Y029550D01*
X026550Y028750D01*
X025150Y028750D01*
X025150Y029550D01*
X024950Y028300D02*
X025950Y028300D01*
X025950Y026500D01*
X024950Y026500D01*
X024950Y028300D01*
X025944Y027103D02*
X025944Y026197D01*
X027756Y026197D01*
X027756Y027103D01*
X025944Y027103D01*
X028500Y027750D02*
X028500Y025750D01*
X029750Y028250D02*
X032500Y028250D01*
D13*
X027101Y027220D02*
X026915Y027220D01*
X027008Y027220D02*
X027008Y027500D01*
X026915Y027407D01*
X026807Y027220D02*
X026620Y027220D01*
X026620Y027500D01*
X024634Y027927D02*
X024104Y027396D01*
X023396Y028104D01*
X023927Y028634D01*
X023950Y028654D01*
X023975Y028671D01*
X024001Y028685D01*
X024030Y028696D01*
X024059Y028703D01*
X024089Y028707D01*
X024119Y028707D01*
X024149Y028703D01*
X024178Y028696D01*
X024207Y028685D01*
X024233Y028671D01*
X024258Y028654D01*
X024281Y028634D01*
X024280Y028634D02*
X024634Y028280D01*
X024634Y028281D02*
X024654Y028258D01*
X024671Y028233D01*
X024685Y028207D01*
X024696Y028178D01*
X024703Y028149D01*
X024707Y028119D01*
X024707Y028089D01*
X024703Y028059D01*
X024696Y028030D01*
X024685Y028001D01*
X024671Y027975D01*
X024654Y027950D01*
X024634Y027927D01*
X024104Y027396D02*
X023573Y026866D01*
X023550Y026846D01*
X023525Y026829D01*
X023499Y026815D01*
X023470Y026804D01*
X023441Y026797D01*
X023411Y026793D01*
X023381Y026793D01*
X023351Y026797D01*
X023322Y026804D01*
X023293Y026815D01*
X023267Y026829D01*
X023242Y026846D01*
X023219Y026866D01*
X023220Y026866D02*
X022866Y027220D01*
X022866Y027219D02*
X022846Y027242D01*
X022829Y027267D01*
X022815Y027293D01*
X022804Y027322D01*
X022797Y027351D01*
X022793Y027381D01*
X022793Y027411D01*
X022797Y027441D01*
X022804Y027470D01*
X022815Y027499D01*
X022829Y027525D01*
X022846Y027550D01*
X022866Y027573D01*
X023396Y028104D01*
D14*
X023396Y027750D03*
X023043Y027396D03*
X023396Y027043D03*
X023750Y027396D03*
X024104Y027750D03*
X024104Y028457D03*
D15*
X023220Y033150D02*
X023220Y033391D01*
X023220Y033529D01*
X023220Y033530D01*
X023249Y033599D02*
X023251Y033601D01*
X023321Y033630D02*
X023349Y033630D01*
X023419Y033601D02*
X023421Y033599D01*
X023450Y033529D02*
X023450Y033391D01*
X023421Y033321D02*
X023419Y033319D01*
X023349Y033290D02*
X023321Y033290D01*
X023251Y033319D02*
X023249Y033321D01*
X023250Y033319D02*
X023262Y033309D01*
X023276Y033301D01*
X023290Y033295D01*
X023305Y033291D01*
X023321Y033290D01*
X023249Y033320D02*
X023237Y033335D01*
X023228Y033353D01*
X023222Y033371D01*
X023220Y033391D01*
X023349Y033290D02*
X023365Y033291D01*
X023380Y033295D01*
X023394Y033301D01*
X023408Y033309D01*
X023420Y033319D01*
X023421Y033320D02*
X023433Y033335D01*
X023442Y033353D01*
X023448Y033371D01*
X023450Y033391D01*
X023590Y033391D02*
X023590Y033529D01*
X023619Y033599D02*
X023621Y033601D01*
X023691Y033630D02*
X023719Y033630D01*
X023789Y033601D02*
X023791Y033599D01*
X023810Y033540D02*
X023599Y033410D01*
X023619Y033321D02*
X023621Y033319D01*
X023691Y033290D02*
X023719Y033290D01*
X023789Y033319D02*
X023791Y033321D01*
X023791Y033320D02*
X023799Y033331D01*
X023805Y033344D01*
X023809Y033357D01*
X023810Y033371D01*
X023790Y033319D02*
X023778Y033309D01*
X023764Y033301D01*
X023750Y033295D01*
X023735Y033291D01*
X023719Y033290D01*
X023691Y033290D02*
X023675Y033291D01*
X023660Y033295D01*
X023646Y033301D01*
X023632Y033309D01*
X023620Y033319D01*
X023619Y033320D02*
X023607Y033335D01*
X023598Y033353D01*
X023592Y033371D01*
X023590Y033391D01*
X023590Y033529D02*
X023592Y033549D01*
X023598Y033567D01*
X023607Y033585D01*
X023619Y033600D01*
X023620Y033601D02*
X023632Y033611D01*
X023646Y033619D01*
X023660Y033625D01*
X023675Y033629D01*
X023691Y033630D01*
X023791Y033600D02*
X023799Y033589D01*
X023805Y033576D01*
X023809Y033563D01*
X023810Y033549D01*
X023790Y033601D02*
X023778Y033611D01*
X023764Y033619D01*
X023750Y033625D01*
X023735Y033629D01*
X023719Y033630D01*
X023960Y033529D02*
X023960Y033331D01*
X023960Y033529D02*
X023962Y033549D01*
X023968Y033567D01*
X023977Y033585D01*
X023989Y033600D01*
X023989Y033599D02*
X023991Y033601D01*
X024061Y033630D02*
X024089Y033630D01*
X024159Y033601D02*
X024161Y033599D01*
X024190Y033529D02*
X024190Y033291D01*
X024190Y033529D02*
X024188Y033549D01*
X024182Y033567D01*
X024173Y033585D01*
X024161Y033600D01*
X024160Y033601D02*
X024148Y033611D01*
X024134Y033619D01*
X024120Y033625D01*
X024105Y033629D01*
X024089Y033630D01*
X024061Y033630D02*
X024045Y033629D01*
X024030Y033625D01*
X024016Y033619D01*
X024002Y033611D01*
X023990Y033601D01*
X024070Y034100D02*
X023810Y034350D01*
X024040Y034680D01*
X023900Y035040D01*
X023500Y035110D01*
X023500Y035470D01*
X023910Y035540D01*
X024050Y035890D01*
X023820Y036230D01*
X024060Y036480D01*
X024410Y036240D01*
X024750Y036380D01*
X024830Y036800D01*
X025180Y036800D01*
X025260Y036380D01*
X025590Y036240D01*
X025950Y036480D01*
X026200Y036230D01*
X025960Y035890D01*
X026100Y035550D01*
X026510Y035470D01*
X026510Y035110D01*
X026110Y035040D01*
X025970Y034680D01*
X026200Y034350D01*
X025950Y034100D01*
X025630Y034320D01*
X025480Y034230D01*
X025230Y034860D01*
X025300Y034840D02*
X025500Y034320D01*
X025620Y034380D01*
X025920Y034190D01*
X025950Y034170D01*
X026130Y034370D01*
X025900Y034700D01*
X026070Y035080D01*
X026460Y035160D01*
X026460Y035440D01*
X026040Y035530D01*
X025900Y035920D01*
X026140Y036230D01*
X025960Y036420D01*
X025590Y036160D01*
X025220Y036350D01*
X025130Y036770D01*
X024870Y036760D01*
X024790Y036360D01*
X024460Y036200D01*
X024400Y036160D01*
X024180Y036330D01*
X024070Y036430D01*
X024040Y036420D01*
X023880Y036240D01*
X024110Y035890D01*
X023970Y035510D01*
X023570Y035420D01*
X023570Y035150D01*
X023920Y035070D01*
X024090Y034690D01*
X023880Y034340D01*
X024070Y034180D01*
X024380Y034380D01*
X024490Y034310D01*
X024700Y034850D01*
X024500Y035090D01*
X024450Y035400D01*
X024610Y035680D01*
X024940Y035840D01*
X025250Y035780D01*
X025440Y035620D01*
X025530Y035370D01*
X025530Y035170D01*
X025390Y034900D01*
X025300Y034840D01*
X025315Y034850D02*
X025967Y034850D01*
X025923Y034752D02*
X025334Y034752D01*
X025372Y034653D02*
X025933Y034653D01*
X026001Y034555D02*
X025410Y034555D01*
X025448Y034456D02*
X026070Y034456D01*
X026119Y034358D02*
X025655Y034358D01*
X025575Y034358D02*
X025486Y034358D01*
X025811Y034259D02*
X026030Y034259D01*
X026011Y034949D02*
X025415Y034949D01*
X025466Y035047D02*
X026055Y035047D01*
X026389Y035146D02*
X025517Y035146D01*
X025530Y035244D02*
X026460Y035244D01*
X026460Y035343D02*
X025530Y035343D01*
X025504Y035441D02*
X026455Y035441D01*
X026037Y035540D02*
X025469Y035540D01*
X025419Y035638D02*
X026001Y035638D01*
X025966Y035737D02*
X025302Y035737D01*
X024966Y035835D02*
X025931Y035835D01*
X025910Y035934D02*
X024081Y035934D01*
X024090Y035835D02*
X024930Y035835D01*
X024727Y035737D02*
X024053Y035737D01*
X024017Y035638D02*
X024586Y035638D01*
X024530Y035540D02*
X023981Y035540D01*
X023663Y035441D02*
X024473Y035441D01*
X024459Y035343D02*
X023570Y035343D01*
X023570Y035244D02*
X024475Y035244D01*
X024491Y035146D02*
X023590Y035146D01*
X023930Y035047D02*
X024536Y035047D01*
X024618Y034949D02*
X023974Y034949D01*
X024018Y034850D02*
X024700Y034850D01*
X024780Y034860D02*
X024530Y034230D01*
X024390Y034320D01*
X024070Y034100D01*
X023976Y034259D02*
X024192Y034259D01*
X024345Y034358D02*
X023891Y034358D01*
X023950Y034456D02*
X024547Y034456D01*
X024585Y034555D02*
X024009Y034555D01*
X024068Y034653D02*
X024623Y034653D01*
X024662Y034752D02*
X024062Y034752D01*
X024415Y034358D02*
X024508Y034358D01*
X024770Y034860D02*
X024733Y034882D01*
X024698Y034908D01*
X024666Y034936D01*
X024637Y034967D01*
X024610Y035001D01*
X024587Y035037D01*
X024567Y035075D01*
X024550Y035114D01*
X024537Y035155D01*
X024527Y035197D01*
X024522Y035240D01*
X024520Y035283D01*
X024522Y035326D01*
X024528Y035368D01*
X024538Y035410D01*
X024551Y035451D01*
X024568Y035490D01*
X024589Y035528D01*
X024612Y035564D01*
X024639Y035598D01*
X024669Y035629D01*
X024701Y035657D01*
X024736Y035682D01*
X024773Y035704D01*
X024812Y035723D01*
X024852Y035738D01*
X024893Y035749D01*
X024936Y035757D01*
X024979Y035761D01*
X025021Y035761D01*
X025064Y035757D01*
X025107Y035749D01*
X025148Y035738D01*
X025188Y035723D01*
X025227Y035704D01*
X025264Y035682D01*
X025299Y035657D01*
X025331Y035629D01*
X025361Y035598D01*
X025388Y035564D01*
X025411Y035528D01*
X025432Y035490D01*
X025449Y035451D01*
X025462Y035410D01*
X025472Y035368D01*
X025478Y035326D01*
X025480Y035283D01*
X025478Y035240D01*
X025473Y035197D01*
X025463Y035155D01*
X025450Y035114D01*
X025433Y035075D01*
X025413Y035037D01*
X025390Y035001D01*
X025363Y034967D01*
X025334Y034936D01*
X025302Y034908D01*
X025267Y034882D01*
X025230Y034860D01*
X025987Y036032D02*
X024017Y036032D01*
X023952Y036131D02*
X026063Y036131D01*
X026139Y036229D02*
X025688Y036229D01*
X025828Y036328D02*
X026048Y036328D01*
X025456Y036229D02*
X024520Y036229D01*
X024311Y036229D02*
X023887Y036229D01*
X023958Y036328D02*
X024183Y036328D01*
X024074Y036426D02*
X024058Y036426D01*
X024723Y036328D02*
X025264Y036328D01*
X025204Y036426D02*
X024803Y036426D01*
X024823Y036525D02*
X025183Y036525D01*
X025161Y036623D02*
X024843Y036623D01*
X024862Y036722D02*
X025140Y036722D01*
X023420Y033601D02*
X023408Y033611D01*
X023394Y033619D01*
X023380Y033625D01*
X023365Y033629D01*
X023349Y033630D01*
X023421Y033600D02*
X023433Y033585D01*
X023442Y033567D01*
X023448Y033549D01*
X023450Y033529D01*
X023321Y033630D02*
X023305Y033629D01*
X023290Y033625D01*
X023276Y033619D01*
X023262Y033611D01*
X023250Y033601D01*
X023249Y033600D02*
X023237Y033585D01*
X023228Y033567D01*
X023222Y033549D01*
X023220Y033529D01*
X023060Y033529D02*
X023060Y033391D01*
X023031Y033321D02*
X023029Y033319D01*
X022959Y033290D02*
X022931Y033290D01*
X022861Y033319D02*
X022859Y033321D01*
X022830Y033391D02*
X022830Y033529D01*
X022859Y033599D02*
X022861Y033601D01*
X022931Y033630D02*
X022959Y033630D01*
X023029Y033601D02*
X023031Y033599D01*
X023030Y033601D02*
X023018Y033611D01*
X023004Y033619D01*
X022990Y033625D01*
X022975Y033629D01*
X022959Y033630D01*
X023031Y033600D02*
X023043Y033585D01*
X023052Y033567D01*
X023058Y033549D01*
X023060Y033529D01*
X022931Y033630D02*
X022915Y033629D01*
X022900Y033625D01*
X022886Y033619D01*
X022872Y033611D01*
X022860Y033601D01*
X022859Y033600D02*
X022847Y033585D01*
X022838Y033567D01*
X022832Y033549D01*
X022830Y033529D01*
X022830Y033391D02*
X022832Y033371D01*
X022838Y033353D01*
X022847Y033335D01*
X022859Y033320D01*
X022860Y033319D02*
X022872Y033309D01*
X022886Y033301D01*
X022900Y033295D01*
X022915Y033291D01*
X022931Y033290D01*
X022959Y033290D02*
X022975Y033291D01*
X022990Y033295D01*
X023004Y033301D01*
X023018Y033309D01*
X023030Y033319D01*
X023031Y033320D02*
X023043Y033335D01*
X023052Y033353D01*
X023058Y033371D01*
X023060Y033391D01*
M02*
