G75*
%MOIN*%
%OFA0B0*%
%FSLAX24Y24*%
%IPPOS*%
%LPD*%
%AMOC8*
5,1,8,0,0,1.08239X$1,22.5*
%
%ADD10C,0.0000*%
%ADD11C,0.1260*%
%ADD12R,0.0472X0.0551*%
%ADD13R,0.0394X0.0551*%
%ADD14R,0.0450X0.0700*%
%ADD15R,0.0200X0.0200*%
%ADD16R,0.0551X0.0709*%
%ADD17R,0.0400X0.0600*%
%ADD18R,0.0748X0.0394*%
%ADD19R,0.1181X0.0354*%
%ADD20R,0.2047X0.1181*%
%ADD21C,0.0551*%
%ADD22R,0.0740X0.0740*%
%ADD23C,0.0740*%
D10*
X022500Y025000D02*
X022500Y038000D01*
X032500Y038000D01*
X032500Y025000D01*
X022500Y025000D01*
X028974Y030605D02*
X028976Y030638D01*
X028982Y030670D01*
X028991Y030701D01*
X029004Y030731D01*
X029021Y030759D01*
X029041Y030785D01*
X029064Y030809D01*
X029089Y030829D01*
X029117Y030847D01*
X029146Y030861D01*
X029177Y030871D01*
X029209Y030878D01*
X029242Y030881D01*
X029275Y030880D01*
X029307Y030875D01*
X029338Y030866D01*
X029369Y030854D01*
X029397Y030838D01*
X029424Y030819D01*
X029448Y030797D01*
X029469Y030772D01*
X029488Y030745D01*
X029503Y030716D01*
X029514Y030686D01*
X029522Y030654D01*
X029526Y030621D01*
X029526Y030589D01*
X029522Y030556D01*
X029514Y030524D01*
X029503Y030494D01*
X029488Y030465D01*
X029469Y030438D01*
X029448Y030413D01*
X029424Y030391D01*
X029397Y030372D01*
X029369Y030356D01*
X029338Y030344D01*
X029307Y030335D01*
X029275Y030330D01*
X029242Y030329D01*
X029209Y030332D01*
X029177Y030339D01*
X029146Y030349D01*
X029117Y030363D01*
X029089Y030381D01*
X029064Y030401D01*
X029041Y030425D01*
X029021Y030451D01*
X029004Y030479D01*
X028991Y030509D01*
X028982Y030540D01*
X028976Y030572D01*
X028974Y030605D01*
X028974Y032495D02*
X028976Y032528D01*
X028982Y032560D01*
X028991Y032591D01*
X029004Y032621D01*
X029021Y032649D01*
X029041Y032675D01*
X029064Y032699D01*
X029089Y032719D01*
X029117Y032737D01*
X029146Y032751D01*
X029177Y032761D01*
X029209Y032768D01*
X029242Y032771D01*
X029275Y032770D01*
X029307Y032765D01*
X029338Y032756D01*
X029369Y032744D01*
X029397Y032728D01*
X029424Y032709D01*
X029448Y032687D01*
X029469Y032662D01*
X029488Y032635D01*
X029503Y032606D01*
X029514Y032576D01*
X029522Y032544D01*
X029526Y032511D01*
X029526Y032479D01*
X029522Y032446D01*
X029514Y032414D01*
X029503Y032384D01*
X029488Y032355D01*
X029469Y032328D01*
X029448Y032303D01*
X029424Y032281D01*
X029397Y032262D01*
X029369Y032246D01*
X029338Y032234D01*
X029307Y032225D01*
X029275Y032220D01*
X029242Y032219D01*
X029209Y032222D01*
X029177Y032229D01*
X029146Y032239D01*
X029117Y032253D01*
X029089Y032271D01*
X029064Y032291D01*
X029041Y032315D01*
X029021Y032341D01*
X029004Y032369D01*
X028991Y032399D01*
X028982Y032430D01*
X028976Y032462D01*
X028974Y032495D01*
X030705Y027362D02*
X030707Y027412D01*
X030713Y027462D01*
X030723Y027511D01*
X030737Y027559D01*
X030754Y027606D01*
X030775Y027651D01*
X030800Y027695D01*
X030828Y027736D01*
X030860Y027775D01*
X030894Y027812D01*
X030931Y027846D01*
X030971Y027876D01*
X031013Y027903D01*
X031057Y027927D01*
X031103Y027948D01*
X031150Y027964D01*
X031198Y027977D01*
X031248Y027986D01*
X031297Y027991D01*
X031348Y027992D01*
X031398Y027989D01*
X031447Y027982D01*
X031496Y027971D01*
X031544Y027956D01*
X031590Y027938D01*
X031635Y027916D01*
X031678Y027890D01*
X031719Y027861D01*
X031758Y027829D01*
X031794Y027794D01*
X031826Y027756D01*
X031856Y027716D01*
X031883Y027673D01*
X031906Y027629D01*
X031925Y027583D01*
X031941Y027535D01*
X031953Y027486D01*
X031961Y027437D01*
X031965Y027387D01*
X031965Y027337D01*
X031961Y027287D01*
X031953Y027238D01*
X031941Y027189D01*
X031925Y027141D01*
X031906Y027095D01*
X031883Y027051D01*
X031856Y027008D01*
X031826Y026968D01*
X031794Y026930D01*
X031758Y026895D01*
X031719Y026863D01*
X031678Y026834D01*
X031635Y026808D01*
X031590Y026786D01*
X031544Y026768D01*
X031496Y026753D01*
X031447Y026742D01*
X031398Y026735D01*
X031348Y026732D01*
X031297Y026733D01*
X031248Y026738D01*
X031198Y026747D01*
X031150Y026760D01*
X031103Y026776D01*
X031057Y026797D01*
X031013Y026821D01*
X030971Y026848D01*
X030931Y026878D01*
X030894Y026912D01*
X030860Y026949D01*
X030828Y026988D01*
X030800Y027029D01*
X030775Y027073D01*
X030754Y027118D01*
X030737Y027165D01*
X030723Y027213D01*
X030713Y027262D01*
X030707Y027312D01*
X030705Y027362D01*
D11*
X031335Y027362D03*
D12*
X026049Y031983D03*
D13*
X025372Y031983D03*
X025372Y031117D03*
X026128Y031117D03*
D14*
X028600Y036050D03*
X029800Y036050D03*
D15*
X024800Y031750D03*
X024500Y031750D03*
X024500Y031350D03*
X024800Y031350D03*
X025700Y030550D03*
X026000Y030550D03*
D16*
X026819Y026650D03*
X027881Y026650D03*
D17*
X026100Y029950D03*
X025400Y029950D03*
D18*
X025950Y027991D03*
X025950Y026809D03*
D19*
X027518Y030172D03*
X027518Y031156D03*
X027518Y031944D03*
X027518Y032928D03*
D20*
X028581Y034503D03*
X028581Y028597D03*
D21*
X029250Y030605D03*
X029250Y032495D03*
D22*
X023000Y037500D03*
X023000Y025500D03*
D23*
X024000Y025500D03*
X025000Y025500D03*
X026000Y025500D03*
X027000Y025500D03*
X028000Y025500D03*
X029000Y025500D03*
X030000Y025500D03*
X031000Y025500D03*
X032000Y025500D03*
X032000Y037500D03*
X031000Y037500D03*
X030000Y037500D03*
X029000Y037500D03*
X028000Y037500D03*
X027000Y037500D03*
X026000Y037500D03*
X025000Y037500D03*
X024000Y037500D03*
M02*
