G75*
%MOIN*%
%OFA0B0*%
%FSLAX24Y24*%
%IPPOS*%
%LPD*%
%AMOC8*
5,1,8,0,0,1.08239X$1,22.5*
%
%ADD10C,0.0000*%
%ADD11C,0.1260*%
%ADD12R,0.0394X0.0276*%
%ADD13R,0.0236X0.0276*%
%ADD14R,0.0450X0.0700*%
%ADD15R,0.0200X0.0200*%
%ADD16R,0.0709X0.0551*%
%ADD17R,0.0400X0.0600*%
%ADD18R,0.1181X0.0354*%
%ADD19R,0.2047X0.1181*%
%ADD20C,0.0551*%
%ADD21R,0.0740X0.0740*%
%ADD22C,0.0740*%
%ADD23R,0.0250X0.0350*%
%ADD24R,0.0472X0.0236*%
%ADD25R,0.0600X0.0400*%
D10*
X022500Y025000D02*
X022500Y038000D01*
X032500Y038000D01*
X032500Y025000D01*
X022500Y025000D01*
X028974Y030555D02*
X028976Y030588D01*
X028982Y030620D01*
X028991Y030651D01*
X029004Y030681D01*
X029021Y030709D01*
X029041Y030735D01*
X029064Y030759D01*
X029089Y030779D01*
X029117Y030797D01*
X029146Y030811D01*
X029177Y030821D01*
X029209Y030828D01*
X029242Y030831D01*
X029275Y030830D01*
X029307Y030825D01*
X029338Y030816D01*
X029369Y030804D01*
X029397Y030788D01*
X029424Y030769D01*
X029448Y030747D01*
X029469Y030722D01*
X029488Y030695D01*
X029503Y030666D01*
X029514Y030636D01*
X029522Y030604D01*
X029526Y030571D01*
X029526Y030539D01*
X029522Y030506D01*
X029514Y030474D01*
X029503Y030444D01*
X029488Y030415D01*
X029469Y030388D01*
X029448Y030363D01*
X029424Y030341D01*
X029397Y030322D01*
X029369Y030306D01*
X029338Y030294D01*
X029307Y030285D01*
X029275Y030280D01*
X029242Y030279D01*
X029209Y030282D01*
X029177Y030289D01*
X029146Y030299D01*
X029117Y030313D01*
X029089Y030331D01*
X029064Y030351D01*
X029041Y030375D01*
X029021Y030401D01*
X029004Y030429D01*
X028991Y030459D01*
X028982Y030490D01*
X028976Y030522D01*
X028974Y030555D01*
X028974Y032445D02*
X028976Y032478D01*
X028982Y032510D01*
X028991Y032541D01*
X029004Y032571D01*
X029021Y032599D01*
X029041Y032625D01*
X029064Y032649D01*
X029089Y032669D01*
X029117Y032687D01*
X029146Y032701D01*
X029177Y032711D01*
X029209Y032718D01*
X029242Y032721D01*
X029275Y032720D01*
X029307Y032715D01*
X029338Y032706D01*
X029369Y032694D01*
X029397Y032678D01*
X029424Y032659D01*
X029448Y032637D01*
X029469Y032612D01*
X029488Y032585D01*
X029503Y032556D01*
X029514Y032526D01*
X029522Y032494D01*
X029526Y032461D01*
X029526Y032429D01*
X029522Y032396D01*
X029514Y032364D01*
X029503Y032334D01*
X029488Y032305D01*
X029469Y032278D01*
X029448Y032253D01*
X029424Y032231D01*
X029397Y032212D01*
X029369Y032196D01*
X029338Y032184D01*
X029307Y032175D01*
X029275Y032170D01*
X029242Y032169D01*
X029209Y032172D01*
X029177Y032179D01*
X029146Y032189D01*
X029117Y032203D01*
X029089Y032221D01*
X029064Y032241D01*
X029041Y032265D01*
X029021Y032291D01*
X029004Y032319D01*
X028991Y032349D01*
X028982Y032380D01*
X028976Y032412D01*
X028974Y032445D01*
X030705Y027362D02*
X030707Y027412D01*
X030713Y027462D01*
X030723Y027511D01*
X030737Y027559D01*
X030754Y027606D01*
X030775Y027651D01*
X030800Y027695D01*
X030828Y027736D01*
X030860Y027775D01*
X030894Y027812D01*
X030931Y027846D01*
X030971Y027876D01*
X031013Y027903D01*
X031057Y027927D01*
X031103Y027948D01*
X031150Y027964D01*
X031198Y027977D01*
X031248Y027986D01*
X031297Y027991D01*
X031348Y027992D01*
X031398Y027989D01*
X031447Y027982D01*
X031496Y027971D01*
X031544Y027956D01*
X031590Y027938D01*
X031635Y027916D01*
X031678Y027890D01*
X031719Y027861D01*
X031758Y027829D01*
X031794Y027794D01*
X031826Y027756D01*
X031856Y027716D01*
X031883Y027673D01*
X031906Y027629D01*
X031925Y027583D01*
X031941Y027535D01*
X031953Y027486D01*
X031961Y027437D01*
X031965Y027387D01*
X031965Y027337D01*
X031961Y027287D01*
X031953Y027238D01*
X031941Y027189D01*
X031925Y027141D01*
X031906Y027095D01*
X031883Y027051D01*
X031856Y027008D01*
X031826Y026968D01*
X031794Y026930D01*
X031758Y026895D01*
X031719Y026863D01*
X031678Y026834D01*
X031635Y026808D01*
X031590Y026786D01*
X031544Y026768D01*
X031496Y026753D01*
X031447Y026742D01*
X031398Y026735D01*
X031348Y026732D01*
X031297Y026733D01*
X031248Y026738D01*
X031198Y026747D01*
X031150Y026760D01*
X031103Y026776D01*
X031057Y026797D01*
X031013Y026821D01*
X030971Y026848D01*
X030931Y026878D01*
X030894Y026912D01*
X030860Y026949D01*
X030828Y026988D01*
X030800Y027029D01*
X030775Y027073D01*
X030754Y027118D01*
X030737Y027165D01*
X030723Y027213D01*
X030713Y027262D01*
X030707Y027312D01*
X030705Y027362D01*
D11*
X031335Y027362D03*
D12*
X026045Y030944D03*
D13*
X025376Y030944D03*
X025376Y030156D03*
X026124Y030156D03*
D14*
X028600Y036050D03*
X029800Y036050D03*
D15*
X024050Y030200D03*
X023750Y030200D03*
X023750Y029800D03*
X024050Y029800D03*
X024050Y029400D03*
X023750Y029400D03*
X023250Y029400D03*
X022950Y029400D03*
X024500Y029450D03*
X024500Y029750D03*
X024900Y029750D03*
X024900Y029450D03*
X025850Y029750D03*
X026150Y029750D03*
D16*
X026200Y027931D03*
X026200Y026869D03*
D17*
X026200Y029150D03*
X025500Y029150D03*
D18*
X027518Y030122D03*
X027518Y031106D03*
X027518Y031894D03*
X027518Y032878D03*
D19*
X028581Y034453D03*
X028581Y028547D03*
D20*
X029250Y030555D03*
X029250Y032445D03*
D21*
X023000Y037500D03*
X023000Y025500D03*
D22*
X024000Y025500D03*
X025000Y025500D03*
X026000Y025500D03*
X027000Y025500D03*
X028000Y025500D03*
X029000Y025500D03*
X030000Y025500D03*
X031000Y025500D03*
X032000Y025500D03*
X032000Y037500D03*
X031000Y037500D03*
X030000Y037500D03*
X029000Y037500D03*
X028000Y037500D03*
X027000Y037500D03*
X026000Y037500D03*
X025000Y037500D03*
X024000Y037500D03*
D23*
X024150Y027550D03*
X023650Y027550D03*
D24*
X024062Y028126D03*
X024062Y028500D03*
X024062Y028874D03*
X023038Y028874D03*
X023038Y028500D03*
X023038Y028126D03*
D25*
X022900Y027400D03*
X022900Y026700D03*
M02*
