%
M48
M72
T01C0.0118
T02C0.0217
T03C0.0315
T04C0.0400
T05C0.1260
%
T01
X24500Y25500
X25500Y25500
X25800Y26600
X25050Y26600
X24250Y26600
X24000Y26800
X23850Y27050
X24500Y27500
X25500Y27500
X25500Y28500
X24500Y28500
X23700Y28650
X23400Y29450
X24500Y29500
X25500Y29500
X25500Y30500
X24500Y30500
X24100Y31300
X22500Y31400
X20950Y31350
X20750Y31550
X20950Y31750
X20600Y31950
X20850Y32350
X20600Y32650
X20350Y32350
X20000Y32147
X19650Y32147
X19850Y32550
X19550Y32750
X20200Y32750
X19150Y33450
X18800Y33950
X18500Y34200
X18500Y33650
X18500Y33250
X19300Y34100
X19600Y34100
X21000Y34350
X21400Y34350
X21350Y33850
X21850Y33850
X21850Y34950
X21600Y35300
X21350Y34950
X20500Y35500
X20500Y36500
X21500Y36500
X23500Y36500
X23900Y35850
X24300Y35450
X24000Y35150
X23800Y34950
X23800Y34650
X23000Y33750
X23000Y33000
X24500Y32500
X24500Y33500
X25500Y33500
X25500Y32500
X26500Y32500
X26500Y33500
X27500Y33500
X27500Y32500
X28500Y32500
X28500Y33500
X28500Y34500
X27500Y34500
X26500Y34500
X26650Y35450
X25850Y35450
X25500Y35500
X25000Y35450
X25500Y34500
X27450Y35450
X28200Y35450
X29000Y35450
X29800Y35450
X30600Y35450
X30500Y34500
X29500Y34500
X29500Y33500
X29500Y32500
X30500Y32500
X30500Y33500
X31500Y33500
X31500Y32500
X32500Y32500
X32500Y33500
X33500Y33500
X33500Y32500
X33500Y31500
X32500Y31500
X31500Y31500
X30500Y30500
X29500Y30500
X29500Y29500
X30500Y29500
X30500Y28500
X29500Y28500
X29500Y27500
X30500Y27500
X31500Y27500
X32500Y27500
X33500Y27500
X32500Y26500
X31000Y26500
X29500Y26500
X28500Y26500
X27500Y26500
X26600Y26600
X26500Y27500
X27500Y27500
X28500Y27500
X28500Y28500
X27500Y28500
X26500Y28500
X26500Y29500
X27500Y29500
X28500Y29500
X28500Y30500
X27500Y30500
X26500Y30500
X22500Y28500
X22500Y27500
X23150Y26600
X21950Y26500
X20500Y26500
X19500Y26500
X18500Y26500
X17500Y26500
X17500Y27500
X18300Y27600
X18600Y27600
X20350Y28150
X20350Y28450
X20800Y28500
X20800Y29550
X20900Y30550
X20900Y30950
X19450Y30650
X19050Y30350
X18650Y30700
X18450Y30500
X18200Y30350
X18500Y30000
X19500Y30000
X16700Y33200
X16700Y36000
X18000Y36000
X18500Y36500
X31500Y34500
X32500Y34500
X33500Y34500
X33750Y35450
X34500Y35450
X35300Y35450
X36500Y35500
X36500Y34500
X35500Y34500
X34500Y34500
X34500Y33500
X34500Y32500
X35500Y32500
X35500Y33500
X36500Y33500
X36500Y32500
X36500Y31500
X35500Y31500
X34500Y31500
X34500Y30500
X35500Y30500
X36500Y30500
X36500Y29500
X35500Y29500
X34500Y29500
X34500Y28500
X35500Y28500
X36500Y28500
X36500Y27500
X35500Y27500
X35000Y26900
X36500Y26500
X36500Y25500
X37500Y25500
X38500Y25500
X39500Y25500
X40500Y26500
X41500Y26500
X41500Y25500
X42500Y26500
X42500Y27500
X42125Y27500
X42125Y28000
X42125Y28500
X42125Y29000
X42125Y29500
X42125Y30000
X42125Y30500
X42125Y31000
X42125Y31500
X42125Y32000
X42125Y32500
X42125Y33000
X42125Y33500
X41500Y33500
X41500Y32500
X40500Y32500
X40500Y33500
X40050Y33900
X40500Y34225
X41025Y34075
X41550Y34075
X42125Y34125
X42125Y34875
X42125Y35500
X42500Y35750
X43000Y35750
X43500Y35750
X44000Y35750
X44250Y36000
X44250Y36500
X43500Y36500
X41500Y34800
X41000Y34800
X40500Y34800
X39900Y34750
X39500Y34510
X39000Y34500
X38750Y34300
X38750Y34000
X39000Y33750
X39500Y33750
X38500Y33500
X38500Y32500
X37500Y32500
X37500Y33500
X37500Y34500
X38500Y34500
X38500Y35500
X37500Y35500
X39500Y35500
X40500Y35500
X40500Y31500
X41500Y31500
X41500Y30500
X40500Y30500
X40500Y29500
X41500Y29500
X41500Y28500
X40500Y27500
X38500Y28500
X37500Y28500
X37500Y27500
X37500Y29500
X38500Y29500
X38500Y30500
X38850Y31000
X38850Y31800
X37800Y31750
X37500Y31500
X37500Y30500
X33500Y30500
X32500Y30500
X31500Y29500
X31500Y28500
X32500Y28500
X33500Y29500
X32950Y35450
X32500Y35500
X32150Y35450
X44000Y27500
X44250Y27000
X44250Y26500
X44250Y26000
X44250Y25500
X43500Y25500
T02
X17917Y30213
X17917Y31787
T03
X16850Y34315
X16850Y34985
X17250Y27941
X17250Y26759
T04
X17000Y25000
X18000Y25000
X19000Y25000
X20000Y25000
X21000Y25000
X22000Y25000
X23000Y25000
X24000Y25000
X25000Y25000
X26000Y25000
X27000Y25000
X28000Y25000
X29000Y25000
X30000Y25000
X31000Y25000
X32000Y25000
X33000Y25000
X34000Y25000
X35000Y25000
X36000Y25000
X37000Y25000
X38000Y25000
X39000Y25000
X40000Y25000
X41000Y25000
X42000Y25000
X43000Y25000
X44000Y25000
X44000Y37000
X43000Y37000
X42000Y37000
X41000Y37000
X40000Y37000
X39000Y37000
X38000Y37000
X37000Y37000
X36000Y37000
X35000Y37000
X34000Y37000
X33000Y37000
X32000Y37000
X31000Y37000
X30000Y37000
X29000Y37000
X28000Y37000
X27000Y37000
X26000Y37000
X25000Y37000
X24000Y37000
X23000Y37000
X22000Y37000
X21000Y37000
X20000Y37000
X19000Y37000
X18000Y37000
X17000Y37000
T05
X19000Y35700
X43335Y26862
M30
