G75*
%MOIN*%
%OFA0B0*%
%FSLAX24Y24*%
%IPPOS*%
%LPD*%
%AMOC8*
5,1,8,0,0,1.08239X$1,22.5*
%
%ADD10C,0.0000*%
%ADD11R,0.0740X0.0740*%
%ADD12C,0.0740*%
%ADD13R,0.0315X0.0394*%
%ADD14R,0.0551X0.0315*%
%ADD15C,0.0100*%
%ADD16C,0.0197*%
%ADD17C,0.0080*%
%ADD18C,0.0400*%
%ADD19C,0.0500*%
D10*
X016500Y024500D02*
X016500Y037500D01*
X044500Y037500D01*
X044500Y024500D01*
X016500Y024500D01*
X017093Y026759D02*
X017095Y026784D01*
X017101Y026808D01*
X017110Y026830D01*
X017123Y026851D01*
X017139Y026870D01*
X017158Y026886D01*
X017179Y026899D01*
X017201Y026908D01*
X017225Y026914D01*
X017250Y026916D01*
X017275Y026914D01*
X017299Y026908D01*
X017321Y026899D01*
X017342Y026886D01*
X017361Y026870D01*
X017377Y026851D01*
X017390Y026830D01*
X017399Y026808D01*
X017405Y026784D01*
X017407Y026759D01*
X017405Y026734D01*
X017399Y026710D01*
X017390Y026688D01*
X017377Y026667D01*
X017361Y026648D01*
X017342Y026632D01*
X017321Y026619D01*
X017299Y026610D01*
X017275Y026604D01*
X017250Y026602D01*
X017225Y026604D01*
X017201Y026610D01*
X017179Y026619D01*
X017158Y026632D01*
X017139Y026648D01*
X017123Y026667D01*
X017110Y026688D01*
X017101Y026710D01*
X017095Y026734D01*
X017093Y026759D01*
X017093Y027941D02*
X017095Y027966D01*
X017101Y027990D01*
X017110Y028012D01*
X017123Y028033D01*
X017139Y028052D01*
X017158Y028068D01*
X017179Y028081D01*
X017201Y028090D01*
X017225Y028096D01*
X017250Y028098D01*
X017275Y028096D01*
X017299Y028090D01*
X017321Y028081D01*
X017342Y028068D01*
X017361Y028052D01*
X017377Y028033D01*
X017390Y028012D01*
X017399Y027990D01*
X017405Y027966D01*
X017407Y027941D01*
X017405Y027916D01*
X017399Y027892D01*
X017390Y027870D01*
X017377Y027849D01*
X017361Y027830D01*
X017342Y027814D01*
X017321Y027801D01*
X017299Y027792D01*
X017275Y027786D01*
X017250Y027784D01*
X017225Y027786D01*
X017201Y027792D01*
X017179Y027801D01*
X017158Y027814D01*
X017139Y027830D01*
X017123Y027849D01*
X017110Y027870D01*
X017101Y027892D01*
X017095Y027916D01*
X017093Y027941D01*
X017809Y030213D02*
X017811Y030233D01*
X017817Y030253D01*
X017826Y030271D01*
X017839Y030288D01*
X017854Y030301D01*
X017872Y030311D01*
X017892Y030318D01*
X017912Y030321D01*
X017932Y030320D01*
X017952Y030315D01*
X017971Y030307D01*
X017988Y030295D01*
X018002Y030280D01*
X018013Y030262D01*
X018021Y030243D01*
X018025Y030223D01*
X018025Y030203D01*
X018021Y030183D01*
X018013Y030164D01*
X018002Y030146D01*
X017988Y030131D01*
X017971Y030119D01*
X017952Y030111D01*
X017932Y030106D01*
X017912Y030105D01*
X017892Y030108D01*
X017872Y030115D01*
X017854Y030125D01*
X017839Y030138D01*
X017826Y030155D01*
X017817Y030173D01*
X017811Y030193D01*
X017809Y030213D01*
X017809Y031787D02*
X017811Y031807D01*
X017817Y031827D01*
X017826Y031845D01*
X017839Y031862D01*
X017854Y031875D01*
X017872Y031885D01*
X017892Y031892D01*
X017912Y031895D01*
X017932Y031894D01*
X017952Y031889D01*
X017971Y031881D01*
X017988Y031869D01*
X018002Y031854D01*
X018013Y031836D01*
X018021Y031817D01*
X018025Y031797D01*
X018025Y031777D01*
X018021Y031757D01*
X018013Y031738D01*
X018002Y031720D01*
X017988Y031705D01*
X017971Y031693D01*
X017952Y031685D01*
X017932Y031680D01*
X017912Y031679D01*
X017892Y031682D01*
X017872Y031689D01*
X017854Y031699D01*
X017839Y031712D01*
X017826Y031729D01*
X017817Y031747D01*
X017811Y031767D01*
X017809Y031787D01*
X016693Y034315D02*
X016695Y034340D01*
X016701Y034364D01*
X016710Y034386D01*
X016723Y034407D01*
X016739Y034426D01*
X016758Y034442D01*
X016779Y034455D01*
X016801Y034464D01*
X016825Y034470D01*
X016850Y034472D01*
X016875Y034470D01*
X016899Y034464D01*
X016921Y034455D01*
X016942Y034442D01*
X016961Y034426D01*
X016977Y034407D01*
X016990Y034386D01*
X016999Y034364D01*
X017005Y034340D01*
X017007Y034315D01*
X017005Y034290D01*
X016999Y034266D01*
X016990Y034244D01*
X016977Y034223D01*
X016961Y034204D01*
X016942Y034188D01*
X016921Y034175D01*
X016899Y034166D01*
X016875Y034160D01*
X016850Y034158D01*
X016825Y034160D01*
X016801Y034166D01*
X016779Y034175D01*
X016758Y034188D01*
X016739Y034204D01*
X016723Y034223D01*
X016710Y034244D01*
X016701Y034266D01*
X016695Y034290D01*
X016693Y034315D01*
X016693Y034985D02*
X016695Y035010D01*
X016701Y035034D01*
X016710Y035056D01*
X016723Y035077D01*
X016739Y035096D01*
X016758Y035112D01*
X016779Y035125D01*
X016801Y035134D01*
X016825Y035140D01*
X016850Y035142D01*
X016875Y035140D01*
X016899Y035134D01*
X016921Y035125D01*
X016942Y035112D01*
X016961Y035096D01*
X016977Y035077D01*
X016990Y035056D01*
X016999Y035034D01*
X017005Y035010D01*
X017007Y034985D01*
X017005Y034960D01*
X016999Y034936D01*
X016990Y034914D01*
X016977Y034893D01*
X016961Y034874D01*
X016942Y034858D01*
X016921Y034845D01*
X016899Y034836D01*
X016875Y034830D01*
X016850Y034828D01*
X016825Y034830D01*
X016801Y034836D01*
X016779Y034845D01*
X016758Y034858D01*
X016739Y034874D01*
X016723Y034893D01*
X016710Y034914D01*
X016701Y034936D01*
X016695Y034960D01*
X016693Y034985D01*
X018370Y035700D02*
X018372Y035750D01*
X018378Y035800D01*
X018388Y035849D01*
X018402Y035897D01*
X018419Y035944D01*
X018440Y035989D01*
X018465Y036033D01*
X018493Y036074D01*
X018525Y036113D01*
X018559Y036150D01*
X018596Y036184D01*
X018636Y036214D01*
X018678Y036241D01*
X018722Y036265D01*
X018768Y036286D01*
X018815Y036302D01*
X018863Y036315D01*
X018913Y036324D01*
X018962Y036329D01*
X019013Y036330D01*
X019063Y036327D01*
X019112Y036320D01*
X019161Y036309D01*
X019209Y036294D01*
X019255Y036276D01*
X019300Y036254D01*
X019343Y036228D01*
X019384Y036199D01*
X019423Y036167D01*
X019459Y036132D01*
X019491Y036094D01*
X019521Y036054D01*
X019548Y036011D01*
X019571Y035967D01*
X019590Y035921D01*
X019606Y035873D01*
X019618Y035824D01*
X019626Y035775D01*
X019630Y035725D01*
X019630Y035675D01*
X019626Y035625D01*
X019618Y035576D01*
X019606Y035527D01*
X019590Y035479D01*
X019571Y035433D01*
X019548Y035389D01*
X019521Y035346D01*
X019491Y035306D01*
X019459Y035268D01*
X019423Y035233D01*
X019384Y035201D01*
X019343Y035172D01*
X019300Y035146D01*
X019255Y035124D01*
X019209Y035106D01*
X019161Y035091D01*
X019112Y035080D01*
X019063Y035073D01*
X019013Y035070D01*
X018962Y035071D01*
X018913Y035076D01*
X018863Y035085D01*
X018815Y035098D01*
X018768Y035114D01*
X018722Y035135D01*
X018678Y035159D01*
X018636Y035186D01*
X018596Y035216D01*
X018559Y035250D01*
X018525Y035287D01*
X018493Y035326D01*
X018465Y035367D01*
X018440Y035411D01*
X018419Y035456D01*
X018402Y035503D01*
X018388Y035551D01*
X018378Y035600D01*
X018372Y035650D01*
X018370Y035700D01*
X042705Y026862D02*
X042707Y026912D01*
X042713Y026962D01*
X042723Y027011D01*
X042737Y027059D01*
X042754Y027106D01*
X042775Y027151D01*
X042800Y027195D01*
X042828Y027236D01*
X042860Y027275D01*
X042894Y027312D01*
X042931Y027346D01*
X042971Y027376D01*
X043013Y027403D01*
X043057Y027427D01*
X043103Y027448D01*
X043150Y027464D01*
X043198Y027477D01*
X043248Y027486D01*
X043297Y027491D01*
X043348Y027492D01*
X043398Y027489D01*
X043447Y027482D01*
X043496Y027471D01*
X043544Y027456D01*
X043590Y027438D01*
X043635Y027416D01*
X043678Y027390D01*
X043719Y027361D01*
X043758Y027329D01*
X043794Y027294D01*
X043826Y027256D01*
X043856Y027216D01*
X043883Y027173D01*
X043906Y027129D01*
X043925Y027083D01*
X043941Y027035D01*
X043953Y026986D01*
X043961Y026937D01*
X043965Y026887D01*
X043965Y026837D01*
X043961Y026787D01*
X043953Y026738D01*
X043941Y026689D01*
X043925Y026641D01*
X043906Y026595D01*
X043883Y026551D01*
X043856Y026508D01*
X043826Y026468D01*
X043794Y026430D01*
X043758Y026395D01*
X043719Y026363D01*
X043678Y026334D01*
X043635Y026308D01*
X043590Y026286D01*
X043544Y026268D01*
X043496Y026253D01*
X043447Y026242D01*
X043398Y026235D01*
X043348Y026232D01*
X043297Y026233D01*
X043248Y026238D01*
X043198Y026247D01*
X043150Y026260D01*
X043103Y026276D01*
X043057Y026297D01*
X043013Y026321D01*
X042971Y026348D01*
X042931Y026378D01*
X042894Y026412D01*
X042860Y026449D01*
X042828Y026488D01*
X042800Y026529D01*
X042775Y026573D01*
X042754Y026618D01*
X042737Y026665D01*
X042723Y026713D01*
X042713Y026762D01*
X042707Y026812D01*
X042705Y026862D01*
D11*
X017000Y025000D03*
X017000Y037000D03*
D12*
X018000Y037000D03*
X019000Y037000D03*
X020000Y037000D03*
X021000Y037000D03*
X022000Y037000D03*
X023000Y037000D03*
X024000Y037000D03*
X025000Y037000D03*
X026000Y037000D03*
X027000Y037000D03*
X028000Y037000D03*
X029000Y037000D03*
X030000Y037000D03*
X031000Y037000D03*
X032000Y037000D03*
X033000Y037000D03*
X034000Y037000D03*
X035000Y037000D03*
X036000Y037000D03*
X037000Y037000D03*
X038000Y037000D03*
X039000Y037000D03*
X040000Y037000D03*
X041000Y037000D03*
X042000Y037000D03*
X043000Y037000D03*
X044000Y037000D03*
X044000Y025000D03*
X043000Y025000D03*
X042000Y025000D03*
X041000Y025000D03*
X040000Y025000D03*
X039000Y025000D03*
X038000Y025000D03*
X037000Y025000D03*
X036000Y025000D03*
X035000Y025000D03*
X034000Y025000D03*
X033000Y025000D03*
X032000Y025000D03*
X031000Y025000D03*
X030000Y025000D03*
X029000Y025000D03*
X028000Y025000D03*
X027000Y025000D03*
X026000Y025000D03*
X025000Y025000D03*
X024000Y025000D03*
X023000Y025000D03*
X022000Y025000D03*
X021000Y025000D03*
X020000Y025000D03*
X019000Y025000D03*
X018000Y025000D03*
D13*
X017703Y025913D03*
X016797Y025913D03*
X016797Y028787D03*
X017703Y028787D03*
D14*
X017998Y028236D03*
X017998Y027645D03*
X017998Y026464D03*
D15*
X017612Y026470D02*
X017351Y026470D01*
X017311Y026454D02*
X017423Y026500D01*
X017509Y026586D01*
X017556Y026699D01*
X017556Y026820D01*
X017509Y026933D01*
X017423Y027019D01*
X017311Y027065D01*
X017189Y027065D01*
X017077Y027019D01*
X016991Y026933D01*
X016944Y026820D01*
X016944Y026699D01*
X016991Y026586D01*
X017077Y026500D01*
X017189Y026454D01*
X017311Y026454D01*
X017149Y026470D02*
X016648Y026470D01*
X016648Y026372D02*
X017612Y026372D01*
X017612Y026273D02*
X016648Y026273D01*
X016648Y026175D02*
X022112Y026175D01*
X022038Y026100D02*
X021288Y026100D01*
X021138Y025950D01*
X020338Y025950D01*
X020188Y025800D01*
X019388Y025800D01*
X019238Y025650D01*
X018438Y025650D01*
X018217Y025430D01*
X018095Y025480D01*
X017905Y025480D01*
X017728Y025407D01*
X017593Y025272D01*
X017520Y025095D01*
X017520Y024905D01*
X017593Y024728D01*
X017673Y024648D01*
X016648Y024648D01*
X016648Y034084D01*
X016677Y034056D01*
X016789Y034009D01*
X016911Y034009D01*
X017023Y034056D01*
X017090Y034123D01*
X017090Y029928D01*
X017145Y029796D01*
X017840Y029101D01*
X017840Y028587D01*
X017756Y028503D01*
X017677Y028503D01*
X017612Y028439D01*
X017612Y028033D01*
X017677Y027968D01*
X017756Y027968D01*
X017794Y027931D01*
X017835Y027913D01*
X017834Y027913D01*
X017677Y027913D01*
X017612Y027848D01*
X017612Y027442D01*
X017677Y027378D01*
X017834Y027378D01*
X017936Y027335D01*
X018129Y027335D01*
X018238Y027290D01*
X018662Y027290D01*
X018776Y027337D01*
X018863Y027424D01*
X018898Y027510D01*
X020228Y028840D01*
X021062Y028840D01*
X021176Y028887D01*
X021263Y028974D01*
X024313Y032024D01*
X024360Y032138D01*
X024360Y033662D01*
X024313Y033776D01*
X024226Y033863D01*
X024226Y033863D01*
X023563Y034526D01*
X023476Y034613D01*
X023362Y034660D01*
X020938Y034660D01*
X020824Y034613D01*
X020737Y034526D01*
X020690Y034412D01*
X020690Y034288D01*
X020737Y034174D01*
X020824Y034087D01*
X020938Y034040D01*
X023172Y034040D01*
X023740Y033472D01*
X023740Y032328D01*
X020872Y029460D01*
X020038Y029460D01*
X019924Y029413D01*
X018467Y027955D01*
X018227Y027955D01*
X018240Y027968D01*
X018319Y027968D01*
X018384Y028033D01*
X018384Y028112D01*
X018505Y028234D01*
X018560Y028366D01*
X018560Y029322D01*
X018505Y029454D01*
X018404Y029555D01*
X017993Y029966D01*
X018063Y029995D01*
X018135Y030067D01*
X018174Y030162D01*
X018174Y030264D01*
X018135Y030358D01*
X018063Y030430D01*
X017968Y030469D01*
X017866Y030469D01*
X017810Y030446D01*
X017810Y031554D01*
X017866Y031531D01*
X017968Y031531D01*
X018063Y031570D01*
X018135Y031642D01*
X018174Y031736D01*
X018174Y031837D01*
X020062Y031837D01*
X020176Y031884D01*
X020263Y031971D01*
X020310Y032085D01*
X020310Y032209D01*
X020263Y032322D01*
X020176Y032410D01*
X020062Y032457D01*
X018332Y032457D01*
X018326Y032463D01*
X018212Y032510D01*
X017810Y032510D01*
X017810Y034340D01*
X018522Y034340D01*
X018708Y034153D01*
X017810Y034153D01*
X017810Y034055D02*
X018392Y034055D01*
X018350Y034012D02*
X018150Y033812D01*
X018150Y033088D01*
X018238Y033000D01*
X018250Y032988D01*
X018338Y032900D01*
X018638Y032900D01*
X018650Y032888D01*
X018738Y032800D01*
X021738Y032800D01*
X022350Y032188D01*
X022350Y031611D01*
X022338Y031586D01*
X022341Y031577D01*
X022319Y031514D01*
X022292Y031486D01*
X022292Y031435D01*
X022283Y031410D01*
X022283Y031410D01*
X022283Y031410D01*
X022292Y031392D01*
X022292Y031314D01*
X022414Y031192D01*
X022586Y031192D01*
X022708Y031314D01*
X022708Y031392D01*
X022717Y031410D01*
X022717Y031410D01*
X022717Y031410D01*
X022708Y031435D01*
X022708Y031486D01*
X022681Y031514D01*
X022659Y031577D01*
X022662Y031586D01*
X022650Y031611D01*
X022650Y032312D01*
X022562Y032400D01*
X022262Y032700D01*
X022738Y032700D01*
X022788Y032650D01*
X023162Y032650D01*
X023262Y032750D01*
X023350Y032838D01*
X023350Y033162D01*
X023150Y033362D01*
X023150Y033539D01*
X023162Y033564D01*
X023159Y033573D01*
X023181Y033636D01*
X023208Y033664D01*
X023208Y033715D01*
X023217Y033740D01*
X023208Y033758D01*
X023208Y033836D01*
X023086Y033958D01*
X022914Y033958D01*
X022792Y033836D01*
X022792Y033758D01*
X022783Y033740D01*
X022783Y033740D01*
X022783Y033740D01*
X022792Y033715D01*
X022792Y033664D01*
X022819Y033636D01*
X022841Y033573D01*
X022838Y033564D01*
X022850Y033539D01*
X022850Y033238D01*
X022897Y033191D01*
X022886Y033181D01*
X022823Y033159D01*
X022814Y033162D01*
X022789Y033150D01*
X022212Y033150D01*
X022050Y033312D01*
X021962Y033400D01*
X018962Y033400D01*
X018775Y033587D01*
X018756Y033607D01*
X018746Y033633D01*
X018738Y033637D01*
X018708Y033698D01*
X018708Y033736D01*
X018672Y033772D01*
X018672Y033774D01*
X018686Y033769D01*
X018714Y033742D01*
X018765Y033742D01*
X018790Y033733D01*
X018808Y033742D01*
X018886Y033742D01*
X019003Y033858D01*
X019024Y033837D01*
X019138Y033790D01*
X019662Y033790D01*
X019776Y033837D01*
X019863Y033924D01*
X019910Y034038D01*
X019910Y034162D01*
X019863Y034276D01*
X019776Y034363D01*
X019662Y034410D01*
X019328Y034410D01*
X018913Y034826D01*
X018826Y034913D01*
X018712Y034960D01*
X017810Y034960D01*
X017810Y036559D01*
X017905Y036520D01*
X018095Y036520D01*
X018272Y036593D01*
X018383Y036705D01*
X018650Y036438D01*
X018679Y036409D01*
X018559Y036360D01*
X018340Y036141D01*
X018222Y035855D01*
X018222Y035545D01*
X018340Y035259D01*
X018559Y035040D01*
X018845Y034922D01*
X019155Y034922D01*
X019441Y035040D01*
X019660Y035259D01*
X019778Y035545D01*
X019778Y035855D01*
X019669Y036119D01*
X019900Y035888D01*
X019988Y035800D01*
X023038Y035800D01*
X023450Y035388D01*
X023450Y034788D01*
X023538Y034700D01*
X023544Y034693D01*
X023554Y034667D01*
X023562Y034663D01*
X023592Y034602D01*
X023592Y034564D01*
X023628Y034528D01*
X023636Y034511D01*
X023639Y034504D01*
X023658Y034497D01*
X023714Y034442D01*
X023886Y034442D01*
X024008Y034564D01*
X024008Y034736D01*
X023953Y034792D01*
X023949Y034804D01*
X024008Y034864D01*
X024008Y034941D01*
X024010Y034941D01*
X024008Y034941D02*
X024054Y034939D01*
X024100Y034938D01*
X024550Y034488D01*
X024550Y032538D01*
X024638Y032450D01*
X025188Y031900D01*
X023638Y030350D01*
X023550Y030262D01*
X023550Y028861D01*
X023538Y028836D01*
X023541Y028827D01*
X023519Y028764D01*
X023492Y028736D01*
X023492Y028685D01*
X023483Y028660D01*
X023483Y028660D01*
X023483Y028660D01*
X023492Y028642D01*
X023492Y028564D01*
X023614Y028442D01*
X023786Y028442D01*
X023908Y028564D01*
X023908Y028642D01*
X023917Y028660D01*
X023917Y028660D01*
X023917Y028660D01*
X023908Y028685D01*
X023908Y028736D01*
X023881Y028764D01*
X023859Y028827D01*
X023862Y028836D01*
X023850Y028861D01*
X023850Y030138D01*
X025362Y031650D01*
X037572Y031650D01*
X037575Y031647D01*
X037585Y031648D01*
X037665Y031591D01*
X037714Y031542D01*
X037886Y031542D01*
X037991Y031647D01*
X038594Y031043D01*
X038604Y031017D01*
X038612Y031013D01*
X038642Y030952D01*
X038642Y030914D01*
X038678Y030878D01*
X038686Y030861D01*
X038689Y030854D01*
X038708Y030847D01*
X038764Y030792D01*
X038936Y030792D01*
X039058Y030914D01*
X039058Y031086D01*
X039003Y031142D01*
X038996Y031161D01*
X038972Y031172D01*
X038936Y031208D01*
X038898Y031208D01*
X038837Y031238D01*
X038833Y031246D01*
X038807Y031256D01*
X038112Y031950D01*
X038488Y031950D01*
X038594Y031843D01*
X038604Y031817D01*
X038612Y031813D01*
X038642Y031752D01*
X038642Y031714D01*
X038678Y031678D01*
X038686Y031661D01*
X038689Y031654D01*
X038708Y031647D01*
X038764Y031592D01*
X038936Y031592D01*
X039058Y031714D01*
X039058Y031886D01*
X039003Y031942D01*
X038996Y031961D01*
X038972Y031972D01*
X038936Y032008D01*
X038898Y032008D01*
X038837Y032038D01*
X038833Y032046D01*
X038807Y032056D01*
X038700Y032162D01*
X038612Y032250D01*
X025462Y032250D01*
X025000Y032712D01*
X025000Y034662D01*
X024912Y034750D01*
X024403Y035259D01*
X024508Y035364D01*
X024508Y035442D01*
X024517Y035460D01*
X024517Y035460D01*
X024517Y035460D01*
X024508Y035485D01*
X024508Y035536D01*
X024481Y035564D01*
X024459Y035627D01*
X024462Y035636D01*
X024450Y035661D01*
X024450Y036238D01*
X024783Y036570D01*
X024905Y036520D01*
X025095Y036520D01*
X025272Y036593D01*
X025407Y036728D01*
X025480Y036905D01*
X025480Y037095D01*
X025407Y037272D01*
X025327Y037352D01*
X025673Y037352D01*
X025593Y037272D01*
X025520Y037095D01*
X025520Y036905D01*
X025570Y036783D01*
X024850Y036062D01*
X024850Y035661D01*
X024838Y035636D01*
X024841Y035627D01*
X024819Y035564D01*
X024792Y035536D01*
X024792Y035485D01*
X024783Y035460D01*
X024783Y035460D01*
X024783Y035460D01*
X024792Y035442D01*
X024792Y035364D01*
X024914Y035242D01*
X025086Y035242D01*
X025208Y035364D01*
X025208Y035442D01*
X025217Y035460D01*
X025217Y035460D01*
X025217Y035460D01*
X025208Y035485D01*
X025208Y035536D01*
X025181Y035564D01*
X025159Y035627D01*
X025162Y035636D01*
X025150Y035661D01*
X025150Y035938D01*
X025783Y036570D01*
X025905Y036520D01*
X026095Y036520D01*
X026272Y036593D01*
X026407Y036728D01*
X026480Y036905D01*
X026480Y037095D01*
X026407Y037272D01*
X026327Y037352D01*
X026673Y037352D01*
X026593Y037272D01*
X026520Y037095D01*
X026520Y036905D01*
X026570Y036783D01*
X025788Y036000D01*
X025700Y035912D01*
X025700Y035661D01*
X025688Y035636D01*
X025691Y035627D01*
X025669Y035564D01*
X025642Y035536D01*
X025642Y035485D01*
X025633Y035460D01*
X025633Y035460D01*
X025633Y035460D01*
X025642Y035442D01*
X025642Y035364D01*
X025764Y035242D01*
X025936Y035242D01*
X026058Y035364D01*
X026058Y035442D01*
X026067Y035460D01*
X026067Y035460D01*
X026067Y035460D01*
X026058Y035485D01*
X026058Y035536D01*
X026031Y035564D01*
X026009Y035627D01*
X026012Y035636D01*
X026000Y035661D01*
X026000Y035788D01*
X026783Y036570D01*
X026905Y036520D01*
X027095Y036520D01*
X027272Y036593D01*
X027407Y036728D01*
X027480Y036905D01*
X027480Y037095D01*
X027407Y037272D01*
X027327Y037352D01*
X027673Y037352D01*
X027593Y037272D01*
X027520Y037095D01*
X027520Y036905D01*
X027570Y036783D01*
X026500Y035712D01*
X026500Y035661D01*
X026488Y035636D01*
X026491Y035627D01*
X026469Y035564D01*
X026442Y035536D01*
X026442Y035485D01*
X026433Y035460D01*
X026442Y035442D01*
X026442Y035364D01*
X026564Y035242D01*
X026736Y035242D01*
X026858Y035364D01*
X026858Y035442D01*
X026867Y035460D01*
X026867Y035460D01*
X026867Y035460D01*
X026858Y035485D01*
X026858Y035536D01*
X026831Y035564D01*
X026817Y035605D01*
X027783Y036570D01*
X027905Y036520D01*
X028095Y036520D01*
X028272Y036593D01*
X028407Y036728D01*
X028480Y036905D01*
X028480Y037095D01*
X028407Y037272D01*
X028327Y037352D01*
X028673Y037352D01*
X028593Y037272D01*
X028520Y037095D01*
X028520Y036905D01*
X028570Y036783D01*
X027493Y035706D01*
X027467Y035696D01*
X027463Y035688D01*
X027415Y035665D01*
X027402Y035658D01*
X027364Y035658D01*
X027328Y035622D01*
X027304Y035611D01*
X027297Y035592D01*
X027242Y035536D01*
X027242Y035364D01*
X027364Y035242D01*
X027536Y035242D01*
X027592Y035297D01*
X027611Y035304D01*
X027622Y035328D01*
X027658Y035364D01*
X027658Y035402D01*
X027665Y035415D01*
X027688Y035463D01*
X027696Y035467D01*
X027706Y035493D01*
X028783Y036570D01*
X028905Y036520D01*
X029095Y036520D01*
X029272Y036593D01*
X029407Y036728D01*
X029480Y036905D01*
X029480Y037095D01*
X029407Y037272D01*
X029327Y037352D01*
X029673Y037352D01*
X029593Y037272D01*
X029520Y037095D01*
X029520Y036905D01*
X029570Y036783D01*
X028396Y035608D01*
X028386Y035612D01*
X028377Y035609D01*
X028314Y035631D01*
X028286Y035658D01*
X028235Y035658D01*
X028210Y035667D01*
X028210Y035667D01*
X028210Y035667D01*
X028192Y035658D01*
X028114Y035658D01*
X027992Y035536D01*
X027992Y035364D01*
X028114Y035242D01*
X028192Y035242D01*
X028210Y035233D01*
X028210Y035233D01*
X028210Y035233D01*
X028235Y035242D01*
X028286Y035242D01*
X028314Y035269D01*
X028377Y035291D01*
X028386Y035288D01*
X028411Y035300D01*
X028512Y035300D01*
X028600Y035388D01*
X029783Y036570D01*
X029905Y036520D01*
X030095Y036520D01*
X030272Y036593D01*
X030407Y036728D01*
X030480Y036905D01*
X030480Y037095D01*
X030407Y037272D01*
X030327Y037352D01*
X030673Y037352D01*
X030593Y037272D01*
X030520Y037095D01*
X030520Y036905D01*
X030570Y036783D01*
X029388Y035600D01*
X029211Y035600D01*
X029186Y035612D01*
X029177Y035609D01*
X029114Y035631D01*
X029086Y035658D01*
X029035Y035658D01*
X029010Y035667D01*
X029010Y035667D01*
X029010Y035667D01*
X028992Y035658D01*
X028914Y035658D01*
X028792Y035536D01*
X028792Y035364D01*
X028914Y035242D01*
X028992Y035242D01*
X029010Y035233D01*
X029010Y035233D01*
X029010Y035233D01*
X029035Y035242D01*
X029086Y035242D01*
X029114Y035269D01*
X029177Y035291D01*
X029186Y035288D01*
X029211Y035300D01*
X029512Y035300D01*
X029592Y035379D01*
X029592Y035364D01*
X029714Y035242D01*
X029886Y035242D01*
X030008Y035364D01*
X030008Y035417D01*
X030016Y035429D01*
X030016Y035429D01*
X030016Y035429D01*
X030008Y035470D01*
X030008Y035536D01*
X029992Y035552D01*
X029988Y035576D01*
X030762Y036350D01*
X031562Y036350D01*
X031650Y036438D01*
X031783Y036570D01*
X031905Y036520D01*
X032095Y036520D01*
X032272Y036593D01*
X032407Y036728D01*
X032480Y036905D01*
X032480Y037095D01*
X032407Y037272D01*
X032327Y037352D01*
X032673Y037352D01*
X032593Y037272D01*
X032520Y037095D01*
X032520Y036905D01*
X032570Y036783D01*
X031388Y035600D01*
X030811Y035600D01*
X030786Y035612D01*
X030777Y035609D01*
X030714Y035631D01*
X030686Y035658D01*
X030635Y035658D01*
X030610Y035667D01*
X030610Y035667D01*
X030610Y035667D01*
X030592Y035658D01*
X030514Y035658D01*
X030392Y035536D01*
X030392Y035364D01*
X030514Y035242D01*
X030592Y035242D01*
X030610Y035233D01*
X030610Y035233D01*
X030610Y035233D01*
X030635Y035242D01*
X030686Y035242D01*
X030714Y035269D01*
X030777Y035291D01*
X030786Y035288D01*
X030811Y035300D01*
X031512Y035300D01*
X032783Y036570D01*
X032905Y036520D01*
X032958Y036520D01*
X032155Y035717D01*
X032118Y035695D01*
X032115Y035685D01*
X032080Y035658D01*
X032064Y035658D01*
X032013Y035607D01*
X031974Y035578D01*
X031973Y035568D01*
X031942Y035536D01*
X031942Y035364D01*
X032064Y035242D01*
X032236Y035242D01*
X032328Y035333D01*
X032337Y035339D01*
X032338Y035343D01*
X032358Y035364D01*
X032358Y035424D01*
X032363Y035443D01*
X032380Y035510D01*
X032388Y035516D01*
X032390Y035527D01*
X033212Y036350D01*
X033538Y036350D01*
X032948Y035760D01*
X032942Y035760D01*
X032907Y035719D01*
X032867Y035683D01*
X032867Y035679D01*
X032865Y035677D01*
X032800Y035612D01*
X032800Y035595D01*
X032797Y035592D01*
X032742Y035536D01*
X032742Y035364D01*
X032864Y035242D01*
X033036Y035242D01*
X033158Y035364D01*
X033158Y035446D01*
X033162Y035550D01*
X033812Y036200D01*
X034288Y036200D01*
X033793Y035706D01*
X033767Y035696D01*
X033763Y035688D01*
X033715Y035665D01*
X033702Y035658D01*
X033664Y035658D01*
X033628Y035622D01*
X033604Y035611D01*
X033597Y035592D01*
X033542Y035536D01*
X033542Y035364D01*
X033664Y035242D01*
X033836Y035242D01*
X033892Y035297D01*
X033911Y035304D01*
X033922Y035328D01*
X033958Y035364D01*
X033958Y035402D01*
X033965Y035415D01*
X033988Y035463D01*
X033996Y035467D01*
X034006Y035493D01*
X034562Y036050D01*
X034938Y036050D01*
X034577Y035690D01*
X034566Y035688D01*
X034560Y035680D01*
X034493Y035663D01*
X034474Y035658D01*
X034414Y035658D01*
X034393Y035638D01*
X034389Y035637D01*
X034383Y035628D01*
X034292Y035536D01*
X034292Y035364D01*
X034414Y035242D01*
X034586Y035242D01*
X034618Y035273D01*
X034628Y035274D01*
X034657Y035313D01*
X034708Y035364D01*
X034708Y035380D01*
X034735Y035415D01*
X034745Y035418D01*
X034767Y035455D01*
X035212Y035900D01*
X035538Y035900D01*
X035343Y035706D01*
X035317Y035696D01*
X035313Y035688D01*
X035265Y035665D01*
X035252Y035658D01*
X035214Y035658D01*
X035178Y035622D01*
X035154Y035611D01*
X035147Y035592D01*
X035092Y035536D01*
X035092Y035364D01*
X035214Y035242D01*
X035386Y035242D01*
X035442Y035297D01*
X035461Y035304D01*
X035472Y035328D01*
X035508Y035364D01*
X035508Y035402D01*
X035515Y035415D01*
X035538Y035463D01*
X035546Y035467D01*
X035556Y035493D01*
X035812Y035750D01*
X036712Y035750D01*
X037012Y036050D01*
X037762Y036050D01*
X037912Y036200D01*
X038662Y036200D01*
X038812Y036350D01*
X042562Y036350D01*
X042783Y036570D01*
X042905Y036520D01*
X043095Y036520D01*
X043272Y036593D01*
X043407Y036728D01*
X043480Y036905D01*
X043480Y037095D01*
X043407Y037272D01*
X043327Y037352D01*
X044352Y037352D01*
X044352Y035664D01*
X042306Y035664D01*
X042277Y035634D01*
X042277Y034798D01*
X041909Y034798D01*
X041879Y034768D01*
X041879Y034294D01*
X041909Y034264D01*
X042277Y034264D01*
X042277Y027719D01*
X042306Y027690D01*
X044352Y027690D01*
X044352Y024648D01*
X043327Y024648D01*
X043407Y024728D01*
X043480Y024905D01*
X043480Y025095D01*
X043407Y025272D01*
X043272Y025407D01*
X043095Y025480D01*
X042905Y025480D01*
X042728Y025407D01*
X042593Y025272D01*
X042520Y025095D01*
X042520Y024905D01*
X042593Y024728D01*
X042673Y024648D01*
X042327Y024648D01*
X042407Y024728D01*
X042480Y024905D01*
X042480Y025095D01*
X042407Y025272D01*
X042272Y025407D01*
X042095Y025480D01*
X041905Y025480D01*
X041728Y025407D01*
X041593Y025272D01*
X041520Y025095D01*
X041520Y024905D01*
X041593Y024728D01*
X041673Y024648D01*
X041327Y024648D01*
X041407Y024728D01*
X041480Y024905D01*
X041480Y025095D01*
X041407Y025272D01*
X041272Y025407D01*
X041095Y025480D01*
X041029Y025480D01*
X038305Y028204D01*
X038204Y028305D01*
X038072Y028360D01*
X020749Y028360D01*
X020710Y028399D01*
X020710Y028522D01*
X020655Y028654D01*
X020554Y028755D01*
X020422Y028810D01*
X020278Y028810D01*
X020146Y028755D01*
X020045Y028654D01*
X019990Y028522D01*
X019990Y028178D01*
X020045Y028046D01*
X019434Y028046D01*
X019336Y027948D02*
X020143Y027948D01*
X020146Y027945D02*
X020396Y027695D01*
X020528Y027640D01*
X037851Y027640D01*
X040520Y024971D01*
X040520Y024905D01*
X040593Y024728D01*
X040673Y024648D01*
X039327Y024648D01*
X039407Y024728D01*
X039480Y024905D01*
X039480Y025095D01*
X039407Y025272D01*
X039272Y025407D01*
X039095Y025480D01*
X038905Y025480D01*
X038728Y025407D01*
X038593Y025272D01*
X038520Y025095D01*
X038520Y024905D01*
X038593Y024728D01*
X038673Y024648D01*
X038327Y024648D01*
X038407Y024728D01*
X038480Y024905D01*
X038480Y025095D01*
X038407Y025272D01*
X038272Y025407D01*
X038095Y025480D01*
X037905Y025480D01*
X037728Y025407D01*
X037593Y025272D01*
X037520Y025095D01*
X037520Y024905D01*
X037593Y024728D01*
X037673Y024648D01*
X037327Y024648D01*
X037407Y024728D01*
X037480Y024905D01*
X037480Y025095D01*
X037407Y025272D01*
X037272Y025407D01*
X037095Y025480D01*
X036905Y025480D01*
X036728Y025407D01*
X036593Y025272D01*
X036520Y025095D01*
X036520Y024905D01*
X036593Y024728D01*
X036673Y024648D01*
X036327Y024648D01*
X036407Y024728D01*
X036480Y024905D01*
X036480Y025095D01*
X036407Y025272D01*
X036272Y025407D01*
X036095Y025480D01*
X035905Y025480D01*
X035728Y025407D01*
X035593Y025272D01*
X035520Y025095D01*
X035520Y024905D01*
X035593Y024728D01*
X035673Y024648D01*
X035327Y024648D01*
X035407Y024728D01*
X035480Y024905D01*
X035480Y025095D01*
X035407Y025272D01*
X035310Y025369D01*
X035310Y026962D01*
X035263Y027076D01*
X035176Y027163D01*
X035062Y027210D01*
X034938Y027210D01*
X034824Y027163D01*
X034737Y027076D01*
X034690Y026962D01*
X034690Y025369D01*
X034593Y025272D01*
X034520Y025095D01*
X034520Y024905D01*
X034593Y024728D01*
X034673Y024648D01*
X034327Y024648D01*
X034407Y024728D01*
X034480Y024905D01*
X034480Y025095D01*
X034407Y025272D01*
X034272Y025407D01*
X034095Y025480D01*
X033905Y025480D01*
X033728Y025407D01*
X033593Y025272D01*
X033520Y025095D01*
X033520Y024905D01*
X033593Y024728D01*
X033673Y024648D01*
X033327Y024648D01*
X033407Y024728D01*
X033480Y024905D01*
X033480Y025095D01*
X033407Y025272D01*
X033272Y025407D01*
X033095Y025480D01*
X032905Y025480D01*
X032728Y025407D01*
X032593Y025272D01*
X032520Y025095D01*
X032520Y024905D01*
X032593Y024728D01*
X032673Y024648D01*
X032327Y024648D01*
X032407Y024728D01*
X032480Y024905D01*
X032480Y025095D01*
X032407Y025272D01*
X032272Y025407D01*
X032095Y025480D01*
X031905Y025480D01*
X031728Y025407D01*
X031593Y025272D01*
X031520Y025095D01*
X031520Y024905D01*
X031593Y024728D01*
X031673Y024648D01*
X031327Y024648D01*
X031407Y024728D01*
X031480Y024905D01*
X031480Y025095D01*
X031407Y025272D01*
X031272Y025407D01*
X031095Y025480D01*
X030905Y025480D01*
X030728Y025407D01*
X030593Y025272D01*
X030520Y025095D01*
X030520Y024905D01*
X030593Y024728D01*
X030673Y024648D01*
X030327Y024648D01*
X030407Y024728D01*
X030480Y024905D01*
X030480Y025095D01*
X030407Y025272D01*
X030272Y025407D01*
X030095Y025480D01*
X029905Y025480D01*
X029728Y025407D01*
X029593Y025272D01*
X029520Y025095D01*
X029520Y024905D01*
X029593Y024728D01*
X029673Y024648D01*
X029327Y024648D01*
X029407Y024728D01*
X029480Y024905D01*
X029480Y025095D01*
X029407Y025272D01*
X029272Y025407D01*
X029095Y025480D01*
X028905Y025480D01*
X028728Y025407D01*
X028593Y025272D01*
X028520Y025095D01*
X028520Y024905D01*
X028593Y024728D01*
X028673Y024648D01*
X028327Y024648D01*
X028407Y024728D01*
X028480Y024905D01*
X028480Y025095D01*
X028407Y025272D01*
X028272Y025407D01*
X028095Y025480D01*
X027905Y025480D01*
X027728Y025407D01*
X027593Y025272D01*
X027520Y025095D01*
X027520Y024905D01*
X027593Y024728D01*
X027673Y024648D01*
X027327Y024648D01*
X027407Y024728D01*
X027480Y024905D01*
X027480Y025095D01*
X027407Y025272D01*
X027272Y025407D01*
X027095Y025480D01*
X026905Y025480D01*
X026728Y025407D01*
X026593Y025272D01*
X026520Y025095D01*
X026520Y024905D01*
X026593Y024728D01*
X026673Y024648D01*
X026327Y024648D01*
X026407Y024728D01*
X026480Y024905D01*
X026480Y025095D01*
X026407Y025272D01*
X026272Y025407D01*
X026095Y025480D01*
X025905Y025480D01*
X025728Y025407D01*
X025593Y025272D01*
X025520Y025095D01*
X025520Y024905D01*
X025593Y024728D01*
X025673Y024648D01*
X024327Y024648D01*
X024407Y024728D01*
X024480Y024905D01*
X024480Y025095D01*
X024407Y025272D01*
X024272Y025407D01*
X024095Y025480D01*
X023905Y025480D01*
X023728Y025407D01*
X023593Y025272D01*
X023520Y025095D01*
X023520Y024905D01*
X023593Y024728D01*
X023673Y024648D01*
X023327Y024648D01*
X023407Y024728D01*
X023480Y024905D01*
X023480Y025095D01*
X023430Y025217D01*
X024162Y025950D01*
X024512Y025950D01*
X024600Y026038D01*
X024662Y026100D01*
X025262Y026100D01*
X025350Y026188D01*
X025412Y026250D01*
X025962Y026250D01*
X026050Y026338D01*
X026162Y026450D01*
X026389Y026450D01*
X026414Y026438D01*
X026423Y026441D01*
X026486Y026419D01*
X026514Y026392D01*
X026565Y026392D01*
X026590Y026383D01*
X026608Y026392D01*
X026686Y026392D01*
X026808Y026514D01*
X026808Y026686D01*
X026686Y026808D01*
X026608Y026808D01*
X026590Y026817D01*
X026590Y026817D01*
X026590Y026817D01*
X026565Y026808D01*
X026514Y026808D01*
X026486Y026781D01*
X026423Y026759D01*
X026414Y026762D01*
X026389Y026750D01*
X026038Y026750D01*
X025991Y026703D01*
X025886Y026808D01*
X025808Y026808D01*
X025790Y026817D01*
X025790Y026817D01*
X025790Y026817D01*
X025765Y026808D01*
X025714Y026808D01*
X025686Y026781D01*
X025623Y026759D01*
X025614Y026762D01*
X025589Y026750D01*
X025288Y026750D01*
X025241Y026703D01*
X025136Y026808D01*
X025058Y026808D01*
X025040Y026817D01*
X025040Y026817D01*
X025040Y026817D01*
X025015Y026808D01*
X024964Y026808D01*
X024936Y026781D01*
X024873Y026759D01*
X024864Y026762D01*
X024839Y026750D01*
X024488Y026750D01*
X024441Y026703D01*
X024336Y026808D01*
X024258Y026808D01*
X024240Y026817D01*
X024240Y026817D01*
X024240Y026817D01*
X024215Y026808D01*
X024208Y026808D01*
X024208Y026886D01*
X024086Y027008D01*
X024058Y027008D01*
X024058Y027136D01*
X023936Y027258D01*
X023764Y027258D01*
X023642Y027136D01*
X023642Y027105D01*
X023639Y027102D01*
X023639Y027102D01*
X023639Y027102D01*
X023641Y027052D01*
X023642Y027045D01*
X023642Y026964D01*
X023646Y026959D01*
X023648Y026925D01*
X023642Y026917D01*
X023650Y026868D01*
X023650Y026862D01*
X023038Y026250D01*
X022188Y026250D01*
X022038Y026100D01*
X021264Y026076D02*
X016648Y026076D01*
X016648Y025978D02*
X021165Y025978D01*
X020267Y025879D02*
X016648Y025879D01*
X016648Y025781D02*
X019368Y025781D01*
X019270Y025682D02*
X016648Y025682D01*
X016648Y025584D02*
X018371Y025584D01*
X018273Y025485D02*
X016648Y025485D01*
X016648Y025387D02*
X017708Y025387D01*
X017609Y025288D02*
X016648Y025288D01*
X016648Y025190D02*
X017559Y025190D01*
X017520Y025091D02*
X016648Y025091D01*
X016648Y024993D02*
X017520Y024993D01*
X017524Y024894D02*
X016648Y024894D01*
X016648Y024796D02*
X017565Y024796D01*
X017624Y024697D02*
X016648Y024697D01*
X017677Y026197D02*
X018319Y026197D01*
X018384Y026261D01*
X018384Y026667D01*
X023455Y026667D01*
X023553Y026766D02*
X017556Y026766D01*
X017538Y026864D02*
X023650Y026864D01*
X023643Y026963D02*
X017480Y026963D01*
X017321Y027061D02*
X023641Y027061D01*
X023665Y027160D02*
X016648Y027160D01*
X016648Y027258D02*
X023763Y027258D01*
X023937Y027258D02*
X038233Y027258D01*
X038331Y027160D02*
X035179Y027160D01*
X035269Y027061D02*
X038430Y027061D01*
X038528Y026963D02*
X035310Y026963D01*
X035310Y026864D02*
X038627Y026864D01*
X038725Y026766D02*
X035310Y026766D01*
X035310Y026667D02*
X038824Y026667D01*
X038922Y026569D02*
X035310Y026569D01*
X035310Y026470D02*
X039021Y026470D01*
X039119Y026372D02*
X035310Y026372D01*
X035310Y026273D02*
X039218Y026273D01*
X039316Y026175D02*
X035310Y026175D01*
X035310Y026076D02*
X039415Y026076D01*
X039513Y025978D02*
X035310Y025978D01*
X035310Y025879D02*
X039612Y025879D01*
X039710Y025781D02*
X035310Y025781D01*
X035310Y025682D02*
X039809Y025682D01*
X039907Y025584D02*
X035310Y025584D01*
X035310Y025485D02*
X040006Y025485D01*
X040104Y025387D02*
X039292Y025387D01*
X039391Y025288D02*
X040203Y025288D01*
X040301Y025190D02*
X039441Y025190D01*
X039480Y025091D02*
X040400Y025091D01*
X040498Y024993D02*
X039480Y024993D01*
X039476Y024894D02*
X040524Y024894D01*
X040565Y024796D02*
X039435Y024796D01*
X039376Y024697D02*
X040624Y024697D01*
X041376Y024697D02*
X041624Y024697D01*
X041565Y024796D02*
X041435Y024796D01*
X041476Y024894D02*
X041524Y024894D01*
X041520Y024993D02*
X041480Y024993D01*
X041480Y025091D02*
X041520Y025091D01*
X041559Y025190D02*
X041441Y025190D01*
X041391Y025288D02*
X041609Y025288D01*
X041708Y025387D02*
X041292Y025387D01*
X041024Y025485D02*
X044352Y025485D01*
X044352Y025387D02*
X043292Y025387D01*
X043391Y025288D02*
X044352Y025288D01*
X044352Y025190D02*
X043441Y025190D01*
X043480Y025091D02*
X044352Y025091D01*
X044352Y024993D02*
X043480Y024993D01*
X043476Y024894D02*
X044352Y024894D01*
X044352Y024796D02*
X043435Y024796D01*
X043376Y024697D02*
X044352Y024697D01*
X044352Y025584D02*
X040926Y025584D01*
X040827Y025682D02*
X044352Y025682D01*
X044352Y025781D02*
X040729Y025781D01*
X040630Y025879D02*
X044352Y025879D01*
X044352Y025978D02*
X040532Y025978D01*
X040433Y026076D02*
X044352Y026076D01*
X044352Y026175D02*
X043708Y026175D01*
X043776Y026202D02*
X043994Y026421D01*
X044113Y026707D01*
X044113Y027017D01*
X043994Y027303D01*
X043776Y027522D01*
X043489Y027641D01*
X043180Y027641D01*
X042894Y027522D01*
X042675Y027303D01*
X042556Y027017D01*
X042556Y026707D01*
X042675Y026421D01*
X042894Y026202D01*
X043180Y026084D01*
X043489Y026084D01*
X043776Y026202D01*
X043846Y026273D02*
X044352Y026273D01*
X044352Y026372D02*
X043945Y026372D01*
X044015Y026470D02*
X044352Y026470D01*
X044352Y026569D02*
X044055Y026569D01*
X044096Y026667D02*
X044352Y026667D01*
X044352Y026766D02*
X044113Y026766D01*
X044113Y026864D02*
X044352Y026864D01*
X044352Y026963D02*
X044113Y026963D01*
X044095Y027061D02*
X044352Y027061D01*
X044352Y027160D02*
X044054Y027160D01*
X044013Y027258D02*
X044352Y027258D01*
X044352Y027357D02*
X043941Y027357D01*
X043843Y027455D02*
X044352Y027455D01*
X044352Y027554D02*
X043700Y027554D01*
X044352Y027652D02*
X038857Y027652D01*
X038759Y027751D02*
X042277Y027751D01*
X042277Y027849D02*
X038660Y027849D01*
X038562Y027948D02*
X042277Y027948D01*
X042277Y028046D02*
X038463Y028046D01*
X038365Y028145D02*
X042277Y028145D01*
X042277Y028243D02*
X038266Y028243D01*
X038305Y028204D02*
X038305Y028204D01*
X038116Y028342D02*
X042277Y028342D01*
X042277Y028440D02*
X020710Y028440D01*
X020703Y028539D02*
X023517Y028539D01*
X023492Y028637D02*
X020662Y028637D01*
X020574Y028736D02*
X023492Y028736D01*
X023539Y028834D02*
X020222Y028834D01*
X020126Y028736D02*
X020124Y028736D01*
X020038Y028637D02*
X020025Y028637D01*
X019997Y028539D02*
X019927Y028539D01*
X019990Y028440D02*
X019828Y028440D01*
X019730Y028342D02*
X019990Y028342D01*
X019990Y028243D02*
X019631Y028243D01*
X019533Y028145D02*
X020004Y028145D01*
X020045Y028046D02*
X020146Y027945D01*
X020242Y027849D02*
X019237Y027849D01*
X019139Y027751D02*
X020340Y027751D01*
X020499Y027652D02*
X019040Y027652D01*
X018942Y027554D02*
X037937Y027554D01*
X038036Y027455D02*
X018875Y027455D01*
X018795Y027357D02*
X038134Y027357D01*
X038956Y027554D02*
X042970Y027554D01*
X042827Y027455D02*
X039054Y027455D01*
X039153Y027357D02*
X042728Y027357D01*
X042656Y027258D02*
X039251Y027258D01*
X039350Y027160D02*
X042615Y027160D01*
X042575Y027061D02*
X039448Y027061D01*
X039547Y026963D02*
X042556Y026963D01*
X042556Y026864D02*
X039645Y026864D01*
X039744Y026766D02*
X042556Y026766D01*
X042573Y026667D02*
X039842Y026667D01*
X039941Y026569D02*
X042614Y026569D01*
X042655Y026470D02*
X040039Y026470D01*
X040138Y026372D02*
X042725Y026372D01*
X042823Y026273D02*
X040236Y026273D01*
X040335Y026175D02*
X042961Y026175D01*
X042708Y025387D02*
X042292Y025387D01*
X042391Y025288D02*
X042609Y025288D01*
X042559Y025190D02*
X042441Y025190D01*
X042480Y025091D02*
X042520Y025091D01*
X042520Y024993D02*
X042480Y024993D01*
X042476Y024894D02*
X042524Y024894D01*
X042565Y024796D02*
X042435Y024796D01*
X042376Y024697D02*
X042624Y024697D01*
X038708Y025387D02*
X038292Y025387D01*
X038391Y025288D02*
X038609Y025288D01*
X038559Y025190D02*
X038441Y025190D01*
X038480Y025091D02*
X038520Y025091D01*
X038520Y024993D02*
X038480Y024993D01*
X038476Y024894D02*
X038524Y024894D01*
X038565Y024796D02*
X038435Y024796D01*
X038376Y024697D02*
X038624Y024697D01*
X037624Y024697D02*
X037376Y024697D01*
X037435Y024796D02*
X037565Y024796D01*
X037524Y024894D02*
X037476Y024894D01*
X037480Y024993D02*
X037520Y024993D01*
X037520Y025091D02*
X037480Y025091D01*
X037441Y025190D02*
X037559Y025190D01*
X037609Y025288D02*
X037391Y025288D01*
X037292Y025387D02*
X037708Y025387D01*
X036708Y025387D02*
X036292Y025387D01*
X036391Y025288D02*
X036609Y025288D01*
X036559Y025190D02*
X036441Y025190D01*
X036480Y025091D02*
X036520Y025091D01*
X036520Y024993D02*
X036480Y024993D01*
X036476Y024894D02*
X036524Y024894D01*
X036565Y024796D02*
X036435Y024796D01*
X036376Y024697D02*
X036624Y024697D01*
X035624Y024697D02*
X035376Y024697D01*
X035435Y024796D02*
X035565Y024796D01*
X035524Y024894D02*
X035476Y024894D01*
X035480Y024993D02*
X035520Y024993D01*
X035520Y025091D02*
X035480Y025091D01*
X035441Y025190D02*
X035559Y025190D01*
X035609Y025288D02*
X035391Y025288D01*
X035310Y025387D02*
X035708Y025387D01*
X034690Y025387D02*
X034292Y025387D01*
X034391Y025288D02*
X034609Y025288D01*
X034559Y025190D02*
X034441Y025190D01*
X034480Y025091D02*
X034520Y025091D01*
X034520Y024993D02*
X034480Y024993D01*
X034476Y024894D02*
X034524Y024894D01*
X034565Y024796D02*
X034435Y024796D01*
X034376Y024697D02*
X034624Y024697D01*
X034690Y025485D02*
X023697Y025485D01*
X023708Y025387D02*
X023599Y025387D01*
X023609Y025288D02*
X023500Y025288D01*
X023441Y025190D02*
X023559Y025190D01*
X023520Y025091D02*
X023480Y025091D01*
X023480Y024993D02*
X023520Y024993D01*
X023524Y024894D02*
X023476Y024894D01*
X023435Y024796D02*
X023565Y024796D01*
X023624Y024697D02*
X023376Y024697D01*
X023796Y025584D02*
X034690Y025584D01*
X034690Y025682D02*
X023894Y025682D01*
X023993Y025781D02*
X034690Y025781D01*
X034690Y025879D02*
X024091Y025879D01*
X024540Y025978D02*
X034690Y025978D01*
X034690Y026076D02*
X024638Y026076D01*
X025337Y026175D02*
X034690Y026175D01*
X034690Y026273D02*
X025985Y026273D01*
X026084Y026372D02*
X034690Y026372D01*
X034690Y026470D02*
X026765Y026470D01*
X026808Y026569D02*
X034690Y026569D01*
X034690Y026667D02*
X026808Y026667D01*
X026729Y026766D02*
X034690Y026766D01*
X034690Y026864D02*
X024208Y026864D01*
X024132Y026963D02*
X034690Y026963D01*
X034731Y027061D02*
X024058Y027061D01*
X024035Y027160D02*
X034821Y027160D01*
X033708Y025387D02*
X033292Y025387D01*
X033391Y025288D02*
X033609Y025288D01*
X033559Y025190D02*
X033441Y025190D01*
X033480Y025091D02*
X033520Y025091D01*
X033520Y024993D02*
X033480Y024993D01*
X033476Y024894D02*
X033524Y024894D01*
X033565Y024796D02*
X033435Y024796D01*
X033376Y024697D02*
X033624Y024697D01*
X032624Y024697D02*
X032376Y024697D01*
X032435Y024796D02*
X032565Y024796D01*
X032524Y024894D02*
X032476Y024894D01*
X032480Y024993D02*
X032520Y024993D01*
X032520Y025091D02*
X032480Y025091D01*
X032441Y025190D02*
X032559Y025190D01*
X032609Y025288D02*
X032391Y025288D01*
X032292Y025387D02*
X032708Y025387D01*
X031708Y025387D02*
X031292Y025387D01*
X031391Y025288D02*
X031609Y025288D01*
X031559Y025190D02*
X031441Y025190D01*
X031480Y025091D02*
X031520Y025091D01*
X031520Y024993D02*
X031480Y024993D01*
X031476Y024894D02*
X031524Y024894D01*
X031565Y024796D02*
X031435Y024796D01*
X031376Y024697D02*
X031624Y024697D01*
X030624Y024697D02*
X030376Y024697D01*
X030435Y024796D02*
X030565Y024796D01*
X030524Y024894D02*
X030476Y024894D01*
X030480Y024993D02*
X030520Y024993D01*
X030520Y025091D02*
X030480Y025091D01*
X030441Y025190D02*
X030559Y025190D01*
X030609Y025288D02*
X030391Y025288D01*
X030292Y025387D02*
X030708Y025387D01*
X029708Y025387D02*
X029292Y025387D01*
X029391Y025288D02*
X029609Y025288D01*
X029559Y025190D02*
X029441Y025190D01*
X029480Y025091D02*
X029520Y025091D01*
X029520Y024993D02*
X029480Y024993D01*
X029476Y024894D02*
X029524Y024894D01*
X029565Y024796D02*
X029435Y024796D01*
X029376Y024697D02*
X029624Y024697D01*
X028624Y024697D02*
X028376Y024697D01*
X028435Y024796D02*
X028565Y024796D01*
X028524Y024894D02*
X028476Y024894D01*
X028480Y024993D02*
X028520Y024993D01*
X028520Y025091D02*
X028480Y025091D01*
X028441Y025190D02*
X028559Y025190D01*
X028609Y025288D02*
X028391Y025288D01*
X028292Y025387D02*
X028708Y025387D01*
X027708Y025387D02*
X027292Y025387D01*
X027391Y025288D02*
X027609Y025288D01*
X027559Y025190D02*
X027441Y025190D01*
X027480Y025091D02*
X027520Y025091D01*
X027520Y024993D02*
X027480Y024993D01*
X027476Y024894D02*
X027524Y024894D01*
X027565Y024796D02*
X027435Y024796D01*
X027376Y024697D02*
X027624Y024697D01*
X026624Y024697D02*
X026376Y024697D01*
X026435Y024796D02*
X026565Y024796D01*
X026524Y024894D02*
X026476Y024894D01*
X026480Y024993D02*
X026520Y024993D01*
X026520Y025091D02*
X026480Y025091D01*
X026441Y025190D02*
X026559Y025190D01*
X026609Y025288D02*
X026391Y025288D01*
X026292Y025387D02*
X026708Y025387D01*
X025708Y025387D02*
X024292Y025387D01*
X024391Y025288D02*
X025609Y025288D01*
X025559Y025190D02*
X024441Y025190D01*
X024480Y025091D02*
X025520Y025091D01*
X025520Y024993D02*
X024480Y024993D01*
X024476Y024894D02*
X025524Y024894D01*
X025565Y024796D02*
X024435Y024796D01*
X024376Y024697D02*
X025624Y024697D01*
X026590Y026383D02*
X026590Y026383D01*
X026590Y026383D01*
X026442Y026766D02*
X025929Y026766D01*
X025642Y026766D02*
X025179Y026766D01*
X024892Y026766D02*
X024379Y026766D01*
X023356Y026569D02*
X018384Y026569D01*
X018384Y026667D02*
X018319Y026732D01*
X017677Y026732D01*
X017612Y026667D01*
X017543Y026667D01*
X017612Y026667D02*
X017612Y026261D01*
X017677Y026197D01*
X017612Y026569D02*
X017492Y026569D01*
X017008Y026569D02*
X016648Y026569D01*
X016648Y026667D02*
X016957Y026667D01*
X016944Y026766D02*
X016648Y026766D01*
X016648Y026864D02*
X016962Y026864D01*
X017020Y026963D02*
X016648Y026963D01*
X016648Y027061D02*
X017179Y027061D01*
X017189Y027635D02*
X017311Y027635D01*
X017423Y027681D01*
X017509Y027767D01*
X017556Y027880D01*
X017556Y028001D01*
X017509Y028114D01*
X017423Y028200D01*
X017311Y028246D01*
X017189Y028246D01*
X017077Y028200D01*
X016991Y028114D01*
X016944Y028001D01*
X016944Y027880D01*
X016991Y027767D01*
X017077Y027681D01*
X017189Y027635D01*
X017147Y027652D02*
X016648Y027652D01*
X016648Y027554D02*
X017612Y027554D01*
X017612Y027652D02*
X017353Y027652D01*
X017493Y027751D02*
X017612Y027751D01*
X017613Y027849D02*
X017543Y027849D01*
X017556Y027948D02*
X017777Y027948D01*
X017612Y028046D02*
X017537Y028046D01*
X017479Y028145D02*
X017612Y028145D01*
X017612Y028243D02*
X017319Y028243D01*
X017181Y028243D02*
X016648Y028243D01*
X016648Y028145D02*
X017021Y028145D01*
X016963Y028046D02*
X016648Y028046D01*
X016648Y027948D02*
X016944Y027948D01*
X016957Y027849D02*
X016648Y027849D01*
X016648Y027751D02*
X017007Y027751D01*
X016648Y027455D02*
X017612Y027455D01*
X017885Y027357D02*
X016648Y027357D01*
X016648Y028342D02*
X017612Y028342D01*
X017614Y028440D02*
X016648Y028440D01*
X016648Y028539D02*
X017792Y028539D01*
X017840Y028637D02*
X016648Y028637D01*
X016648Y028736D02*
X017840Y028736D01*
X017840Y028834D02*
X016648Y028834D01*
X016648Y028933D02*
X017840Y028933D01*
X017840Y029031D02*
X016648Y029031D01*
X016648Y029130D02*
X017811Y029130D01*
X017713Y029228D02*
X016648Y029228D01*
X016648Y029327D02*
X017614Y029327D01*
X017516Y029425D02*
X016648Y029425D01*
X016648Y029524D02*
X017417Y029524D01*
X017319Y029622D02*
X016648Y029622D01*
X016648Y029721D02*
X017220Y029721D01*
X017135Y029819D02*
X016648Y029819D01*
X016648Y029918D02*
X017095Y029918D01*
X017090Y030016D02*
X016648Y030016D01*
X016648Y030115D02*
X017090Y030115D01*
X017090Y030213D02*
X016648Y030213D01*
X016648Y030312D02*
X017090Y030312D01*
X017090Y030410D02*
X016648Y030410D01*
X016648Y030509D02*
X017090Y030509D01*
X017090Y030607D02*
X016648Y030607D01*
X016648Y030706D02*
X017090Y030706D01*
X017090Y030804D02*
X016648Y030804D01*
X016648Y030903D02*
X017090Y030903D01*
X017090Y031001D02*
X016648Y031001D01*
X016648Y031100D02*
X017090Y031100D01*
X017090Y031198D02*
X016648Y031198D01*
X016648Y031297D02*
X017090Y031297D01*
X017090Y031395D02*
X016648Y031395D01*
X016648Y031494D02*
X017090Y031494D01*
X017090Y031592D02*
X016648Y031592D01*
X016648Y031691D02*
X017090Y031691D01*
X017090Y031789D02*
X016648Y031789D01*
X016648Y031888D02*
X017090Y031888D01*
X017090Y031986D02*
X016648Y031986D01*
X016648Y032085D02*
X017090Y032085D01*
X017090Y032183D02*
X016648Y032183D01*
X016648Y032282D02*
X017090Y032282D01*
X017090Y032380D02*
X016648Y032380D01*
X016648Y032479D02*
X017090Y032479D01*
X017090Y032577D02*
X016648Y032577D01*
X016648Y032676D02*
X017090Y032676D01*
X017090Y032774D02*
X016648Y032774D01*
X016648Y032873D02*
X017090Y032873D01*
X017090Y032971D02*
X016648Y032971D01*
X016648Y033070D02*
X017090Y033070D01*
X017090Y033168D02*
X016648Y033168D01*
X016648Y033267D02*
X017090Y033267D01*
X017090Y033365D02*
X016648Y033365D01*
X016648Y033464D02*
X017090Y033464D01*
X017090Y033562D02*
X016648Y033562D01*
X016648Y033661D02*
X017090Y033661D01*
X017090Y033759D02*
X016648Y033759D01*
X016648Y033858D02*
X017090Y033858D01*
X017090Y033956D02*
X016648Y033956D01*
X016648Y034055D02*
X016680Y034055D01*
X017020Y034055D02*
X017090Y034055D01*
X017810Y033956D02*
X018294Y033956D01*
X018350Y034012D02*
X018438Y034100D01*
X018589Y034100D01*
X018614Y034112D01*
X018623Y034109D01*
X018686Y034131D01*
X018708Y034153D01*
X018610Y034252D02*
X017810Y034252D01*
X017810Y033858D02*
X018195Y033858D01*
X018150Y033759D02*
X017810Y033759D01*
X017810Y033661D02*
X018150Y033661D01*
X018150Y033562D02*
X017810Y033562D01*
X017810Y033464D02*
X018150Y033464D01*
X018150Y033365D02*
X017810Y033365D01*
X017810Y033267D02*
X018150Y033267D01*
X018150Y033168D02*
X017810Y033168D01*
X017810Y033070D02*
X018168Y033070D01*
X018267Y032971D02*
X017810Y032971D01*
X017810Y032873D02*
X018665Y032873D01*
X018288Y032479D02*
X022059Y032479D01*
X021961Y032577D02*
X017810Y032577D01*
X017810Y032676D02*
X021862Y032676D01*
X021764Y032774D02*
X017810Y032774D01*
X018899Y033464D02*
X022850Y033464D01*
X022839Y033562D02*
X018800Y033562D01*
X018726Y033661D02*
X022795Y033661D01*
X022792Y033759D02*
X018904Y033759D01*
X018790Y033733D02*
X018790Y033733D01*
X018790Y033733D01*
X018696Y033759D02*
X018686Y033759D01*
X019002Y033858D02*
X019004Y033858D01*
X019290Y034449D02*
X020705Y034449D01*
X020690Y034350D02*
X019788Y034350D01*
X019873Y034252D02*
X020705Y034252D01*
X020759Y034153D02*
X019910Y034153D01*
X019910Y034055D02*
X020903Y034055D01*
X020759Y034547D02*
X019191Y034547D01*
X019093Y034646D02*
X020903Y034646D01*
X019773Y035532D02*
X023306Y035532D01*
X023404Y035434D02*
X019732Y035434D01*
X019691Y035335D02*
X023450Y035335D01*
X023450Y035237D02*
X019637Y035237D01*
X019539Y035138D02*
X023450Y035138D01*
X023450Y035040D02*
X019439Y035040D01*
X019202Y034941D02*
X023450Y034941D01*
X023450Y034843D02*
X018896Y034843D01*
X018798Y034941D02*
X018757Y034941D01*
X018561Y035040D02*
X017810Y035040D01*
X017810Y035138D02*
X018461Y035138D01*
X018363Y035237D02*
X017810Y035237D01*
X017810Y035335D02*
X018309Y035335D01*
X018268Y035434D02*
X017810Y035434D01*
X017810Y035532D02*
X018227Y035532D01*
X018222Y035631D02*
X017810Y035631D01*
X017810Y035729D02*
X018222Y035729D01*
X018222Y035828D02*
X017810Y035828D01*
X017810Y035926D02*
X018251Y035926D01*
X018292Y036025D02*
X017810Y036025D01*
X017810Y036123D02*
X018333Y036123D01*
X018421Y036222D02*
X017810Y036222D01*
X017810Y036320D02*
X018519Y036320D01*
X018669Y036419D02*
X017810Y036419D01*
X017810Y036517D02*
X018571Y036517D01*
X018472Y036616D02*
X018294Y036616D01*
X017090Y036401D02*
X017090Y035177D01*
X017023Y035244D01*
X016911Y035291D01*
X016789Y035291D01*
X016677Y035244D01*
X016648Y035216D01*
X016648Y036520D01*
X016971Y036520D01*
X017090Y036401D01*
X017072Y036419D02*
X016648Y036419D01*
X016648Y036517D02*
X016974Y036517D01*
X017090Y036320D02*
X016648Y036320D01*
X016648Y036222D02*
X017090Y036222D01*
X017090Y036123D02*
X016648Y036123D01*
X016648Y036025D02*
X017090Y036025D01*
X017090Y035926D02*
X016648Y035926D01*
X016648Y035828D02*
X017090Y035828D01*
X017090Y035729D02*
X016648Y035729D01*
X016648Y035631D02*
X017090Y035631D01*
X017090Y035532D02*
X016648Y035532D01*
X016648Y035434D02*
X017090Y035434D01*
X017090Y035335D02*
X016648Y035335D01*
X016648Y035237D02*
X016669Y035237D01*
X017031Y035237D02*
X017090Y035237D01*
X018994Y034744D02*
X023494Y034744D01*
X023571Y034646D02*
X023397Y034646D01*
X023541Y034547D02*
X023608Y034547D01*
X023563Y034526D02*
X023563Y034526D01*
X023640Y034449D02*
X023707Y034449D01*
X023738Y034350D02*
X024550Y034350D01*
X024550Y034252D02*
X023837Y034252D01*
X023935Y034153D02*
X024550Y034153D01*
X024550Y034055D02*
X024034Y034055D01*
X024132Y033956D02*
X024550Y033956D01*
X024550Y033858D02*
X024231Y033858D01*
X024320Y033759D02*
X024550Y033759D01*
X024550Y033661D02*
X024360Y033661D01*
X024360Y033562D02*
X024550Y033562D01*
X024550Y033464D02*
X024360Y033464D01*
X024360Y033365D02*
X024550Y033365D01*
X024550Y033267D02*
X024360Y033267D01*
X024360Y033168D02*
X024550Y033168D01*
X024550Y033070D02*
X024360Y033070D01*
X024360Y032971D02*
X024550Y032971D01*
X024550Y032873D02*
X024360Y032873D01*
X024360Y032774D02*
X024550Y032774D01*
X024550Y032676D02*
X024360Y032676D01*
X024360Y032577D02*
X024550Y032577D01*
X024609Y032479D02*
X024360Y032479D01*
X024360Y032380D02*
X024708Y032380D01*
X024806Y032282D02*
X024360Y032282D01*
X024360Y032183D02*
X024905Y032183D01*
X025003Y032085D02*
X024338Y032085D01*
X024274Y031986D02*
X025102Y031986D01*
X025175Y031888D02*
X024176Y031888D01*
X024077Y031789D02*
X025077Y031789D01*
X024978Y031691D02*
X023979Y031691D01*
X023880Y031592D02*
X024880Y031592D01*
X024781Y031494D02*
X023782Y031494D01*
X023683Y031395D02*
X024683Y031395D01*
X024584Y031297D02*
X023585Y031297D01*
X023486Y031198D02*
X024486Y031198D01*
X024387Y031100D02*
X023388Y031100D01*
X023289Y031001D02*
X024289Y031001D01*
X024190Y030903D02*
X023191Y030903D01*
X023092Y030804D02*
X024092Y030804D01*
X023993Y030706D02*
X022994Y030706D01*
X022895Y030607D02*
X023895Y030607D01*
X023796Y030509D02*
X022797Y030509D01*
X022698Y030410D02*
X023698Y030410D01*
X023599Y030312D02*
X022600Y030312D01*
X022501Y030213D02*
X023550Y030213D01*
X023550Y030115D02*
X022403Y030115D01*
X022304Y030016D02*
X023550Y030016D01*
X023550Y029918D02*
X022206Y029918D01*
X022107Y029819D02*
X023550Y029819D01*
X023550Y029721D02*
X022009Y029721D01*
X021910Y029622D02*
X023550Y029622D01*
X023550Y029524D02*
X021812Y029524D01*
X021713Y029425D02*
X023550Y029425D01*
X023550Y029327D02*
X021615Y029327D01*
X021516Y029228D02*
X023550Y029228D01*
X023550Y029130D02*
X021418Y029130D01*
X021319Y029031D02*
X023550Y029031D01*
X023550Y028933D02*
X021221Y028933D01*
X020935Y029524D02*
X018436Y029524D01*
X018517Y029425D02*
X019954Y029425D01*
X019838Y029327D02*
X018558Y029327D01*
X018560Y029228D02*
X019740Y029228D01*
X019641Y029130D02*
X018560Y029130D01*
X018560Y029031D02*
X019543Y029031D01*
X019444Y028933D02*
X018560Y028933D01*
X018560Y028834D02*
X019346Y028834D01*
X019247Y028736D02*
X018560Y028736D01*
X018560Y028637D02*
X019149Y028637D01*
X019050Y028539D02*
X018560Y028539D01*
X018560Y028440D02*
X018952Y028440D01*
X018853Y028342D02*
X018550Y028342D01*
X018509Y028243D02*
X018755Y028243D01*
X018656Y028145D02*
X018416Y028145D01*
X018384Y028046D02*
X018558Y028046D01*
X018384Y026470D02*
X023258Y026470D01*
X023159Y026372D02*
X018384Y026372D01*
X018384Y026273D02*
X023061Y026273D01*
X023883Y028539D02*
X042277Y028539D01*
X042277Y028637D02*
X023908Y028637D01*
X023908Y028736D02*
X042277Y028736D01*
X042277Y028834D02*
X023861Y028834D01*
X023850Y028933D02*
X042277Y028933D01*
X042277Y029031D02*
X023850Y029031D01*
X023850Y029130D02*
X042277Y029130D01*
X042277Y029228D02*
X023850Y029228D01*
X023850Y029327D02*
X042277Y029327D01*
X042277Y029425D02*
X023850Y029425D01*
X023850Y029524D02*
X042277Y029524D01*
X042277Y029622D02*
X023850Y029622D01*
X023850Y029721D02*
X042277Y029721D01*
X042277Y029819D02*
X023850Y029819D01*
X023850Y029918D02*
X042277Y029918D01*
X042277Y030016D02*
X023850Y030016D01*
X023850Y030115D02*
X042277Y030115D01*
X042277Y030213D02*
X023925Y030213D01*
X024024Y030312D02*
X042277Y030312D01*
X042277Y030410D02*
X024122Y030410D01*
X024221Y030509D02*
X042277Y030509D01*
X042277Y030607D02*
X024319Y030607D01*
X024418Y030706D02*
X042277Y030706D01*
X042277Y030804D02*
X038949Y030804D01*
X039047Y030903D02*
X042277Y030903D01*
X042277Y031001D02*
X039058Y031001D01*
X039045Y031100D02*
X042277Y031100D01*
X042277Y031198D02*
X038947Y031198D01*
X038996Y031161D02*
X038996Y031161D01*
X038996Y031161D01*
X038766Y031297D02*
X042277Y031297D01*
X042277Y031395D02*
X038667Y031395D01*
X038569Y031494D02*
X042277Y031494D01*
X042277Y031592D02*
X038937Y031592D01*
X039035Y031691D02*
X042277Y031691D01*
X042277Y031789D02*
X039058Y031789D01*
X039057Y031888D02*
X042277Y031888D01*
X042277Y031986D02*
X038959Y031986D01*
X038996Y031961D02*
X038996Y031961D01*
X038996Y031961D01*
X038778Y032085D02*
X042277Y032085D01*
X042277Y032183D02*
X038679Y032183D01*
X038550Y031888D02*
X038175Y031888D01*
X038273Y031789D02*
X038624Y031789D01*
X038665Y031691D02*
X038372Y031691D01*
X038470Y031592D02*
X038763Y031592D01*
X038440Y031198D02*
X024910Y031198D01*
X024812Y031100D02*
X038538Y031100D01*
X038618Y031001D02*
X024713Y031001D01*
X024615Y030903D02*
X038653Y030903D01*
X038751Y030804D02*
X024516Y030804D01*
X025009Y031297D02*
X038341Y031297D01*
X038243Y031395D02*
X025107Y031395D01*
X025206Y031494D02*
X038144Y031494D01*
X038046Y031592D02*
X037937Y031592D01*
X037663Y031592D02*
X025304Y031592D01*
X025431Y032282D02*
X042277Y032282D01*
X042277Y032380D02*
X025332Y032380D01*
X025234Y032479D02*
X042277Y032479D01*
X042277Y032577D02*
X025135Y032577D01*
X025037Y032676D02*
X042277Y032676D01*
X042277Y032774D02*
X025000Y032774D01*
X025000Y032873D02*
X042277Y032873D01*
X042277Y032971D02*
X025000Y032971D01*
X025000Y033070D02*
X042277Y033070D01*
X042277Y033168D02*
X025000Y033168D01*
X025000Y033267D02*
X042277Y033267D01*
X042277Y033365D02*
X025000Y033365D01*
X025000Y033464D02*
X042277Y033464D01*
X042277Y033562D02*
X025000Y033562D01*
X025000Y033661D02*
X042277Y033661D01*
X042277Y033759D02*
X025000Y033759D01*
X025000Y033858D02*
X042277Y033858D01*
X042277Y033956D02*
X025000Y033956D01*
X025000Y034055D02*
X042277Y034055D01*
X042277Y034153D02*
X025000Y034153D01*
X025000Y034252D02*
X042277Y034252D01*
X041879Y034350D02*
X025000Y034350D01*
X025000Y034449D02*
X041879Y034449D01*
X041879Y034547D02*
X025000Y034547D01*
X025000Y034646D02*
X041879Y034646D01*
X041879Y034744D02*
X024918Y034744D01*
X024820Y034843D02*
X042277Y034843D01*
X042277Y034941D02*
X024721Y034941D01*
X024623Y035040D02*
X042277Y035040D01*
X042277Y035138D02*
X024524Y035138D01*
X024426Y035237D02*
X028202Y035237D01*
X028221Y035237D02*
X029002Y035237D01*
X029021Y035237D02*
X030602Y035237D01*
X030621Y035237D02*
X042277Y035237D01*
X042277Y035335D02*
X035480Y035335D01*
X035515Y035415D02*
X035515Y035415D01*
X035523Y035434D02*
X042277Y035434D01*
X042277Y035532D02*
X035594Y035532D01*
X035693Y035631D02*
X042277Y035631D01*
X042631Y036419D02*
X044352Y036419D01*
X044352Y036517D02*
X042729Y036517D01*
X043294Y036616D02*
X044352Y036616D01*
X044352Y036714D02*
X043393Y036714D01*
X043442Y036813D02*
X044352Y036813D01*
X044352Y036911D02*
X043480Y036911D01*
X043480Y037010D02*
X044352Y037010D01*
X044352Y037108D02*
X043475Y037108D01*
X043434Y037207D02*
X044352Y037207D01*
X044352Y037305D02*
X043374Y037305D01*
X044352Y036320D02*
X038782Y036320D01*
X038684Y036222D02*
X044352Y036222D01*
X044352Y036123D02*
X037835Y036123D01*
X036987Y036025D02*
X044352Y036025D01*
X044352Y035926D02*
X036888Y035926D01*
X036790Y035828D02*
X044352Y035828D01*
X044352Y035729D02*
X035791Y035729D01*
X035465Y035828D02*
X035140Y035828D01*
X035041Y035729D02*
X035367Y035729D01*
X035265Y035665D02*
X035265Y035665D01*
X035186Y035631D02*
X034943Y035631D01*
X034844Y035532D02*
X035092Y035532D01*
X035092Y035434D02*
X034754Y035434D01*
X034680Y035335D02*
X035120Y035335D01*
X034715Y035828D02*
X034340Y035828D01*
X034438Y035926D02*
X034814Y035926D01*
X034912Y036025D02*
X034537Y036025D01*
X034617Y035729D02*
X034241Y035729D01*
X034143Y035631D02*
X034385Y035631D01*
X034292Y035532D02*
X034044Y035532D01*
X033973Y035434D02*
X034292Y035434D01*
X034320Y035335D02*
X033930Y035335D01*
X033965Y035415D02*
X033965Y035415D01*
X033817Y035729D02*
X033341Y035729D01*
X033243Y035631D02*
X033636Y035631D01*
X033715Y035665D02*
X033715Y035665D01*
X033542Y035532D02*
X033162Y035532D01*
X033158Y035434D02*
X033542Y035434D01*
X033570Y035335D02*
X033130Y035335D01*
X032770Y035335D02*
X032331Y035335D01*
X032361Y035434D02*
X032742Y035434D01*
X032742Y035532D02*
X032394Y035532D01*
X032493Y035631D02*
X032818Y035631D01*
X032915Y035729D02*
X032591Y035729D01*
X032690Y035828D02*
X033015Y035828D01*
X033114Y035926D02*
X032788Y035926D01*
X032887Y036025D02*
X033212Y036025D01*
X033311Y036123D02*
X032985Y036123D01*
X033084Y036222D02*
X033409Y036222D01*
X033508Y036320D02*
X033182Y036320D01*
X032955Y036517D02*
X032729Y036517D01*
X032631Y036419D02*
X032856Y036419D01*
X032758Y036320D02*
X032532Y036320D01*
X032434Y036222D02*
X032659Y036222D01*
X032561Y036123D02*
X032335Y036123D01*
X032237Y036025D02*
X032462Y036025D01*
X032364Y035926D02*
X032138Y035926D01*
X032040Y035828D02*
X032265Y035828D01*
X032167Y035729D02*
X031941Y035729D01*
X032036Y035631D02*
X031843Y035631D01*
X031744Y035532D02*
X031942Y035532D01*
X031942Y035434D02*
X031646Y035434D01*
X031547Y035335D02*
X031970Y035335D01*
X031517Y035729D02*
X030141Y035729D01*
X030043Y035631D02*
X030486Y035631D01*
X030392Y035532D02*
X030008Y035532D01*
X030016Y035434D02*
X030392Y035434D01*
X030420Y035335D02*
X029980Y035335D01*
X029620Y035335D02*
X029547Y035335D01*
X029418Y035631D02*
X029115Y035631D01*
X028941Y035729D02*
X029517Y035729D01*
X029615Y035828D02*
X029040Y035828D01*
X029138Y035926D02*
X029714Y035926D01*
X029812Y036025D02*
X029237Y036025D01*
X029335Y036123D02*
X029911Y036123D01*
X030009Y036222D02*
X029434Y036222D01*
X029532Y036320D02*
X030108Y036320D01*
X030206Y036419D02*
X029631Y036419D01*
X029729Y036517D02*
X030305Y036517D01*
X030294Y036616D02*
X030403Y036616D01*
X030393Y036714D02*
X030502Y036714D01*
X030558Y036813D02*
X030442Y036813D01*
X030480Y036911D02*
X030520Y036911D01*
X030520Y037010D02*
X030480Y037010D01*
X030475Y037108D02*
X030525Y037108D01*
X030566Y037207D02*
X030434Y037207D01*
X030374Y037305D02*
X030626Y037305D01*
X029626Y037305D02*
X029374Y037305D01*
X029434Y037207D02*
X029566Y037207D01*
X029525Y037108D02*
X029475Y037108D01*
X029480Y037010D02*
X029520Y037010D01*
X029520Y036911D02*
X029480Y036911D01*
X029442Y036813D02*
X029558Y036813D01*
X029502Y036714D02*
X029393Y036714D01*
X029403Y036616D02*
X029294Y036616D01*
X029305Y036517D02*
X028729Y036517D01*
X028631Y036419D02*
X029206Y036419D01*
X029108Y036320D02*
X028532Y036320D01*
X028434Y036222D02*
X029009Y036222D01*
X028911Y036123D02*
X028335Y036123D01*
X028237Y036025D02*
X028812Y036025D01*
X028714Y035926D02*
X028138Y035926D01*
X028040Y035828D02*
X028615Y035828D01*
X028517Y035729D02*
X027941Y035729D01*
X027843Y035631D02*
X028086Y035631D01*
X027992Y035532D02*
X027744Y035532D01*
X027673Y035434D02*
X027992Y035434D01*
X028020Y035335D02*
X027630Y035335D01*
X027665Y035415D02*
X027665Y035415D01*
X027517Y035729D02*
X026941Y035729D01*
X026843Y035631D02*
X027336Y035631D01*
X027415Y035665D02*
X027415Y035665D01*
X027242Y035532D02*
X026858Y035532D01*
X026858Y035434D02*
X027242Y035434D01*
X027270Y035335D02*
X026830Y035335D01*
X026470Y035335D02*
X026030Y035335D01*
X026058Y035434D02*
X026442Y035434D01*
X026433Y035460D02*
X026433Y035460D01*
X026442Y035532D02*
X026058Y035532D01*
X026010Y035631D02*
X026490Y035631D01*
X026517Y035729D02*
X026000Y035729D01*
X026040Y035828D02*
X026615Y035828D01*
X026714Y035926D02*
X026138Y035926D01*
X026237Y036025D02*
X026812Y036025D01*
X026911Y036123D02*
X026335Y036123D01*
X026434Y036222D02*
X027009Y036222D01*
X027108Y036320D02*
X026532Y036320D01*
X026631Y036419D02*
X027206Y036419D01*
X027305Y036517D02*
X026729Y036517D01*
X026502Y036714D02*
X026393Y036714D01*
X026403Y036616D02*
X026294Y036616D01*
X026305Y036517D02*
X025729Y036517D01*
X025631Y036419D02*
X026206Y036419D01*
X026108Y036320D02*
X025532Y036320D01*
X025434Y036222D02*
X026009Y036222D01*
X025911Y036123D02*
X025335Y036123D01*
X025237Y036025D02*
X025812Y036025D01*
X025714Y035926D02*
X025150Y035926D01*
X025150Y035828D02*
X025700Y035828D01*
X025700Y035729D02*
X025150Y035729D01*
X025160Y035631D02*
X025690Y035631D01*
X025642Y035532D02*
X025208Y035532D01*
X025208Y035434D02*
X025642Y035434D01*
X025670Y035335D02*
X025180Y035335D01*
X024820Y035335D02*
X024480Y035335D01*
X024508Y035434D02*
X024792Y035434D01*
X024792Y035532D02*
X024508Y035532D01*
X024460Y035631D02*
X024840Y035631D01*
X024850Y035729D02*
X024450Y035729D01*
X024450Y035828D02*
X024850Y035828D01*
X024850Y035926D02*
X024450Y035926D01*
X024450Y036025D02*
X024850Y036025D01*
X024911Y036123D02*
X024450Y036123D01*
X024450Y036222D02*
X025009Y036222D01*
X025108Y036320D02*
X024532Y036320D01*
X024631Y036419D02*
X025206Y036419D01*
X025305Y036517D02*
X024729Y036517D01*
X024502Y036714D02*
X024393Y036714D01*
X024407Y036728D02*
X024272Y036593D01*
X024095Y036520D01*
X023905Y036520D01*
X023728Y036593D01*
X023593Y036728D01*
X023520Y036905D01*
X023520Y037095D01*
X023593Y037272D01*
X023673Y037352D01*
X023327Y037352D01*
X023407Y037272D01*
X023480Y037095D01*
X023480Y036905D01*
X023407Y036728D01*
X023272Y036593D01*
X023168Y036550D01*
X023312Y036550D01*
X023400Y036462D01*
X023800Y036062D01*
X023904Y036058D01*
X023986Y036058D01*
X024108Y035936D01*
X024108Y035764D01*
X024003Y035659D01*
X024109Y035553D01*
X024119Y035564D01*
X024141Y035627D01*
X024138Y035636D01*
X024150Y035661D01*
X024150Y036362D01*
X024570Y036783D01*
X024520Y036905D01*
X024520Y037095D01*
X024593Y037272D01*
X024673Y037352D01*
X024327Y037352D01*
X024407Y037272D01*
X024480Y037095D01*
X024480Y036905D01*
X024407Y036728D01*
X024442Y036813D02*
X024558Y036813D01*
X024520Y036911D02*
X024480Y036911D01*
X024480Y037010D02*
X024520Y037010D01*
X024525Y037108D02*
X024475Y037108D01*
X024434Y037207D02*
X024566Y037207D01*
X024626Y037305D02*
X024374Y037305D01*
X023626Y037305D02*
X023374Y037305D01*
X023434Y037207D02*
X023566Y037207D01*
X023525Y037108D02*
X023475Y037108D01*
X023480Y037010D02*
X023520Y037010D01*
X023520Y036911D02*
X023480Y036911D01*
X023442Y036813D02*
X023558Y036813D01*
X023607Y036714D02*
X023393Y036714D01*
X023294Y036616D02*
X023706Y036616D01*
X023444Y036419D02*
X024206Y036419D01*
X024150Y036320D02*
X023542Y036320D01*
X023641Y036222D02*
X024150Y036222D01*
X024150Y036123D02*
X023739Y036123D01*
X024020Y036025D02*
X024150Y036025D01*
X024150Y035926D02*
X024108Y035926D01*
X024108Y035828D02*
X024150Y035828D01*
X024150Y035729D02*
X024074Y035729D01*
X024032Y035631D02*
X024140Y035631D01*
X024195Y034843D02*
X023987Y034843D01*
X024001Y034744D02*
X024294Y034744D01*
X024392Y034646D02*
X024008Y034646D01*
X023992Y034547D02*
X024491Y034547D01*
X024550Y034449D02*
X023893Y034449D01*
X023354Y033858D02*
X023187Y033858D01*
X023208Y033759D02*
X023453Y033759D01*
X023551Y033661D02*
X023205Y033661D01*
X023217Y033740D02*
X023217Y033740D01*
X023217Y033740D01*
X023161Y033562D02*
X023650Y033562D01*
X023740Y033464D02*
X023150Y033464D01*
X023150Y033365D02*
X023740Y033365D01*
X023740Y033267D02*
X023246Y033267D01*
X023344Y033168D02*
X023740Y033168D01*
X023740Y033070D02*
X023350Y033070D01*
X023350Y032971D02*
X023740Y032971D01*
X023740Y032873D02*
X023350Y032873D01*
X023286Y032774D02*
X023740Y032774D01*
X023740Y032676D02*
X023188Y032676D01*
X022762Y032676D02*
X022287Y032676D01*
X022385Y032577D02*
X023740Y032577D01*
X023740Y032479D02*
X022484Y032479D01*
X022562Y032400D02*
X022562Y032400D01*
X022582Y032380D02*
X023740Y032380D01*
X023693Y032282D02*
X022650Y032282D01*
X022650Y032183D02*
X023595Y032183D01*
X023496Y032085D02*
X022650Y032085D01*
X022650Y031986D02*
X023398Y031986D01*
X023299Y031888D02*
X022650Y031888D01*
X022650Y031789D02*
X023201Y031789D01*
X023102Y031691D02*
X022650Y031691D01*
X022659Y031592D02*
X023004Y031592D01*
X022905Y031494D02*
X022701Y031494D01*
X022710Y031395D02*
X022807Y031395D01*
X022708Y031297D02*
X022691Y031297D01*
X022610Y031198D02*
X022593Y031198D01*
X022511Y031100D02*
X017810Y031100D01*
X017810Y031198D02*
X022407Y031198D01*
X022309Y031297D02*
X017810Y031297D01*
X017810Y031395D02*
X022290Y031395D01*
X022299Y031494D02*
X017810Y031494D01*
X018085Y031592D02*
X022341Y031592D01*
X022350Y031691D02*
X018155Y031691D01*
X018174Y031789D02*
X022350Y031789D01*
X022350Y031888D02*
X020179Y031888D01*
X020269Y031986D02*
X022350Y031986D01*
X022350Y032085D02*
X020310Y032085D01*
X020310Y032183D02*
X022350Y032183D01*
X022256Y032282D02*
X020280Y032282D01*
X020205Y032380D02*
X022158Y032380D01*
X022194Y033168D02*
X022849Y033168D01*
X022850Y033267D02*
X022096Y033267D01*
X021997Y033365D02*
X022850Y033365D01*
X022813Y033858D02*
X019796Y033858D01*
X019876Y033956D02*
X022911Y033956D01*
X023089Y033956D02*
X023256Y033956D01*
X023207Y035631D02*
X019778Y035631D01*
X019778Y035729D02*
X023109Y035729D01*
X023345Y036517D02*
X024305Y036517D01*
X024294Y036616D02*
X024403Y036616D01*
X025294Y036616D02*
X025403Y036616D01*
X025393Y036714D02*
X025502Y036714D01*
X025558Y036813D02*
X025442Y036813D01*
X025480Y036911D02*
X025520Y036911D01*
X025520Y037010D02*
X025480Y037010D01*
X025475Y037108D02*
X025525Y037108D01*
X025566Y037207D02*
X025434Y037207D01*
X025374Y037305D02*
X025626Y037305D01*
X026374Y037305D02*
X026626Y037305D01*
X026566Y037207D02*
X026434Y037207D01*
X026475Y037108D02*
X026525Y037108D01*
X026520Y037010D02*
X026480Y037010D01*
X026480Y036911D02*
X026520Y036911D01*
X026558Y036813D02*
X026442Y036813D01*
X027294Y036616D02*
X027403Y036616D01*
X027393Y036714D02*
X027502Y036714D01*
X027558Y036813D02*
X027442Y036813D01*
X027480Y036911D02*
X027520Y036911D01*
X027520Y037010D02*
X027480Y037010D01*
X027475Y037108D02*
X027525Y037108D01*
X027566Y037207D02*
X027434Y037207D01*
X027374Y037305D02*
X027626Y037305D01*
X028374Y037305D02*
X028626Y037305D01*
X028566Y037207D02*
X028434Y037207D01*
X028475Y037108D02*
X028525Y037108D01*
X028520Y037010D02*
X028480Y037010D01*
X028480Y036911D02*
X028520Y036911D01*
X028558Y036813D02*
X028442Y036813D01*
X028393Y036714D02*
X028502Y036714D01*
X028403Y036616D02*
X028294Y036616D01*
X028305Y036517D02*
X027729Y036517D01*
X027631Y036419D02*
X028206Y036419D01*
X028108Y036320D02*
X027532Y036320D01*
X027434Y036222D02*
X028009Y036222D01*
X027911Y036123D02*
X027335Y036123D01*
X027237Y036025D02*
X027812Y036025D01*
X027714Y035926D02*
X027138Y035926D01*
X027040Y035828D02*
X027615Y035828D01*
X028315Y035631D02*
X028418Y035631D01*
X028646Y035434D02*
X028792Y035434D01*
X028792Y035532D02*
X028744Y035532D01*
X028843Y035631D02*
X028886Y035631D01*
X028820Y035335D02*
X028547Y035335D01*
X030240Y035828D02*
X031615Y035828D01*
X031714Y035926D02*
X030338Y035926D01*
X030437Y036025D02*
X031812Y036025D01*
X031911Y036123D02*
X030535Y036123D01*
X030634Y036222D02*
X032009Y036222D01*
X032108Y036320D02*
X030732Y036320D01*
X030715Y035631D02*
X031418Y035631D01*
X031631Y036419D02*
X032206Y036419D01*
X032305Y036517D02*
X031729Y036517D01*
X032294Y036616D02*
X032403Y036616D01*
X032393Y036714D02*
X032502Y036714D01*
X032558Y036813D02*
X032442Y036813D01*
X032480Y036911D02*
X032520Y036911D01*
X032520Y037010D02*
X032480Y037010D01*
X032475Y037108D02*
X032525Y037108D01*
X032566Y037207D02*
X032434Y037207D01*
X032374Y037305D02*
X032626Y037305D01*
X033327Y037352D02*
X034673Y037352D01*
X034593Y037272D01*
X034520Y037095D01*
X034520Y036905D01*
X034593Y036728D01*
X034671Y036650D01*
X033329Y036650D01*
X033407Y036728D01*
X033480Y036905D01*
X033480Y037095D01*
X033407Y037272D01*
X033327Y037352D01*
X033374Y037305D02*
X034626Y037305D01*
X034566Y037207D02*
X033434Y037207D01*
X033475Y037108D02*
X034525Y037108D01*
X034520Y037010D02*
X033480Y037010D01*
X033480Y036911D02*
X034520Y036911D01*
X034558Y036813D02*
X033442Y036813D01*
X033393Y036714D02*
X034607Y036714D01*
X034211Y036123D02*
X033735Y036123D01*
X033637Y036025D02*
X034112Y036025D01*
X034014Y035926D02*
X033538Y035926D01*
X033440Y035828D02*
X033915Y035828D01*
X022832Y036550D02*
X021962Y036550D01*
X021480Y037032D01*
X021480Y037095D01*
X021407Y037272D01*
X021327Y037352D01*
X022673Y037352D01*
X022593Y037272D01*
X022520Y037095D01*
X022520Y036905D01*
X022593Y036728D01*
X022728Y036593D01*
X022832Y036550D01*
X022706Y036616D02*
X021897Y036616D01*
X021798Y036714D02*
X022607Y036714D01*
X022558Y036813D02*
X021700Y036813D01*
X021601Y036911D02*
X022520Y036911D01*
X022520Y037010D02*
X021503Y037010D01*
X021475Y037108D02*
X022525Y037108D01*
X022566Y037207D02*
X021434Y037207D01*
X021374Y037305D02*
X022626Y037305D01*
X021688Y036400D02*
X020212Y036400D01*
X020150Y036462D01*
X020150Y036543D01*
X020272Y036593D01*
X020407Y036728D01*
X020480Y036905D01*
X020480Y037095D01*
X020407Y037272D01*
X020327Y037352D01*
X020673Y037352D01*
X020593Y037272D01*
X020520Y037095D01*
X020520Y036905D01*
X020593Y036728D01*
X020728Y036593D01*
X020905Y036520D01*
X021095Y036520D01*
X021272Y036593D01*
X021383Y036705D01*
X021688Y036400D01*
X021669Y036419D02*
X020194Y036419D01*
X020150Y036517D02*
X021571Y036517D01*
X021472Y036616D02*
X021294Y036616D01*
X020706Y036616D02*
X020294Y036616D01*
X020393Y036714D02*
X020607Y036714D01*
X020558Y036813D02*
X020442Y036813D01*
X020480Y036911D02*
X020520Y036911D01*
X020520Y037010D02*
X020480Y037010D01*
X020475Y037108D02*
X020525Y037108D01*
X020566Y037207D02*
X020434Y037207D01*
X020374Y037305D02*
X020626Y037305D01*
X019763Y036025D02*
X019708Y036025D01*
X019749Y035926D02*
X019862Y035926D01*
X019778Y035828D02*
X019960Y035828D01*
X017810Y031001D02*
X022413Y031001D01*
X022314Y030903D02*
X017810Y030903D01*
X017810Y030804D02*
X022216Y030804D01*
X022117Y030706D02*
X017810Y030706D01*
X017810Y030607D02*
X022019Y030607D01*
X021920Y030509D02*
X017810Y030509D01*
X018083Y030410D02*
X021822Y030410D01*
X021723Y030312D02*
X018154Y030312D01*
X018174Y030213D02*
X021625Y030213D01*
X021526Y030115D02*
X018155Y030115D01*
X018084Y030016D02*
X021428Y030016D01*
X021329Y029918D02*
X018042Y029918D01*
X018140Y029819D02*
X021231Y029819D01*
X021132Y029721D02*
X018239Y029721D01*
X018337Y029622D02*
X021034Y029622D01*
D16*
X020800Y029550D03*
X020900Y030550D03*
X020900Y030950D03*
X020950Y031350D03*
X020750Y031550D03*
X020950Y031750D03*
X020600Y031950D03*
X020850Y032350D03*
X020600Y032650D03*
X020350Y032350D03*
X020000Y032147D03*
X019650Y032147D03*
X019850Y032550D03*
X019550Y032750D03*
X020200Y032750D03*
X019150Y033450D03*
X018800Y033950D03*
X018500Y034200D03*
X018500Y033650D03*
X018500Y033250D03*
X019300Y034100D03*
X019600Y034100D03*
X021000Y034350D03*
X021400Y034350D03*
X021350Y033850D03*
X021850Y033850D03*
X021850Y034950D03*
X021600Y035300D03*
X021350Y034950D03*
X020500Y035500D03*
X020500Y036500D03*
X021500Y036500D03*
X023500Y036500D03*
X023900Y035850D03*
X024300Y035450D03*
X024000Y035150D03*
X023800Y034950D03*
X023800Y034650D03*
X023000Y033750D03*
X023000Y033000D03*
X024500Y032500D03*
X024500Y033500D03*
X025500Y033500D03*
X025500Y032500D03*
X026500Y032500D03*
X026500Y033500D03*
X027500Y033500D03*
X027500Y032500D03*
X028500Y032500D03*
X028500Y033500D03*
X028500Y034500D03*
X027500Y034500D03*
X026500Y034500D03*
X026650Y035450D03*
X025850Y035450D03*
X025500Y035500D03*
X025000Y035450D03*
X025500Y034500D03*
X027450Y035450D03*
X028200Y035450D03*
X029000Y035450D03*
X029800Y035450D03*
X030600Y035450D03*
X030500Y034500D03*
X029500Y034500D03*
X029500Y033500D03*
X029500Y032500D03*
X030500Y032500D03*
X030500Y033500D03*
X031500Y033500D03*
X031500Y032500D03*
X032500Y032500D03*
X032500Y033500D03*
X033500Y033500D03*
X033500Y032500D03*
X033500Y031500D03*
X032500Y031500D03*
X031500Y031500D03*
X030500Y030500D03*
X029500Y030500D03*
X029500Y029500D03*
X030500Y029500D03*
X030500Y028500D03*
X029500Y028500D03*
X029500Y027500D03*
X030500Y027500D03*
X031500Y027500D03*
X032500Y027500D03*
X033500Y027500D03*
X032500Y026500D03*
X031000Y026500D03*
X029500Y026500D03*
X028500Y026500D03*
X027500Y026500D03*
X026600Y026600D03*
X025800Y026600D03*
X025050Y026600D03*
X024250Y026600D03*
X024000Y026800D03*
X023850Y027050D03*
X024500Y027500D03*
X025500Y027500D03*
X025500Y028500D03*
X024500Y028500D03*
X023700Y028650D03*
X023400Y029450D03*
X024500Y029500D03*
X025500Y029500D03*
X025500Y030500D03*
X024500Y030500D03*
X024100Y031300D03*
X022500Y031400D03*
X019450Y030650D03*
X019050Y030350D03*
X018650Y030700D03*
X018450Y030500D03*
X018200Y030350D03*
X018500Y030000D03*
X019500Y030000D03*
X020350Y028450D03*
X020350Y028150D03*
X020800Y028500D03*
X022500Y028500D03*
X022500Y027500D03*
X023150Y026600D03*
X021950Y026500D03*
X020500Y026500D03*
X019500Y026500D03*
X018500Y026500D03*
X017500Y026500D03*
X017500Y027500D03*
X018300Y027600D03*
X018600Y027600D03*
X024500Y025500D03*
X025500Y025500D03*
X026500Y027500D03*
X027500Y027500D03*
X028500Y027500D03*
X028500Y028500D03*
X027500Y028500D03*
X026500Y028500D03*
X026500Y029500D03*
X027500Y029500D03*
X028500Y029500D03*
X028500Y030500D03*
X027500Y030500D03*
X026500Y030500D03*
X031500Y029500D03*
X031500Y028500D03*
X032500Y028500D03*
X033500Y029500D03*
X033500Y030500D03*
X032500Y030500D03*
X034500Y030500D03*
X035500Y030500D03*
X036500Y030500D03*
X036500Y029500D03*
X035500Y029500D03*
X034500Y029500D03*
X034500Y028500D03*
X035500Y028500D03*
X036500Y028500D03*
X036500Y027500D03*
X035500Y027500D03*
X035000Y026900D03*
X036500Y026500D03*
X036500Y025500D03*
X037500Y025500D03*
X038500Y025500D03*
X039500Y025500D03*
X040500Y026500D03*
X041500Y026500D03*
X041500Y025500D03*
X042500Y026500D03*
X042500Y027500D03*
X042125Y027500D03*
X042125Y028000D03*
X042125Y028500D03*
X042125Y029000D03*
X042125Y029500D03*
X042125Y030000D03*
X042125Y030500D03*
X042125Y031000D03*
X042125Y031500D03*
X042125Y032000D03*
X042125Y032500D03*
X042125Y033000D03*
X042125Y033500D03*
X041500Y033500D03*
X041500Y032500D03*
X040500Y032500D03*
X040500Y033500D03*
X040050Y033900D03*
X040500Y034225D03*
X041025Y034075D03*
X041550Y034075D03*
X042125Y034125D03*
X042125Y034875D03*
X042125Y035500D03*
X042500Y035750D03*
X043000Y035750D03*
X043500Y035750D03*
X044000Y035750D03*
X044250Y036000D03*
X044250Y036500D03*
X043500Y036500D03*
X041500Y034800D03*
X041000Y034800D03*
X040500Y034800D03*
X039900Y034750D03*
X039500Y034510D03*
X039000Y034500D03*
X038750Y034300D03*
X038750Y034000D03*
X039000Y033750D03*
X039500Y033750D03*
X038500Y033500D03*
X038500Y032500D03*
X037500Y032500D03*
X037500Y033500D03*
X037500Y034500D03*
X038500Y034500D03*
X038500Y035500D03*
X037500Y035500D03*
X036500Y035500D03*
X035300Y035450D03*
X034500Y035450D03*
X033750Y035450D03*
X032950Y035450D03*
X032500Y035500D03*
X032150Y035450D03*
X032500Y034500D03*
X031500Y034500D03*
X033500Y034500D03*
X034500Y034500D03*
X035500Y034500D03*
X036500Y034500D03*
X036500Y033500D03*
X036500Y032500D03*
X035500Y032500D03*
X035500Y033500D03*
X034500Y033500D03*
X034500Y032500D03*
X034500Y031500D03*
X035500Y031500D03*
X036500Y031500D03*
X037500Y031500D03*
X037800Y031750D03*
X038850Y031800D03*
X038850Y031000D03*
X038500Y030500D03*
X037500Y030500D03*
X037500Y029500D03*
X038500Y029500D03*
X038500Y028500D03*
X037500Y028500D03*
X037500Y027500D03*
X040500Y027500D03*
X041500Y028500D03*
X041500Y029500D03*
X040500Y029500D03*
X040500Y030500D03*
X041500Y030500D03*
X041500Y031500D03*
X040500Y031500D03*
X040500Y035500D03*
X039500Y035500D03*
X044000Y027500D03*
X044250Y027000D03*
X044250Y026500D03*
X044250Y026000D03*
X044250Y025500D03*
X043500Y025500D03*
X018500Y036500D03*
X018000Y036000D03*
X016700Y036000D03*
X016700Y033200D03*
D17*
X018300Y033150D02*
X018300Y033750D01*
X018500Y033950D01*
X018623Y033950D01*
X018781Y034005D01*
X018800Y033950D01*
X018781Y033895D01*
X018623Y033950D01*
X018800Y033950D01*
X018553Y033675D02*
X018500Y033650D01*
X018475Y033597D01*
X018625Y033525D01*
X018553Y033675D01*
X018500Y033650D02*
X018625Y033525D01*
X018900Y033250D01*
X021900Y033250D01*
X022150Y033000D01*
X022823Y033000D01*
X022981Y033055D01*
X023000Y033000D01*
X022981Y032945D01*
X022823Y033000D01*
X023000Y033000D01*
X023200Y033100D02*
X023000Y033300D01*
X023000Y033573D01*
X022945Y033731D01*
X023000Y033750D01*
X023055Y033731D01*
X023000Y033573D01*
X023000Y033750D01*
X023200Y033100D02*
X023200Y032900D01*
X023100Y032800D01*
X022850Y032800D01*
X022800Y032850D01*
X022100Y032850D01*
X021850Y033100D01*
X018850Y033100D01*
X018700Y033250D01*
X018677Y033250D01*
X018519Y033195D01*
X018500Y033250D01*
X018519Y033305D01*
X018677Y033250D01*
X018500Y033250D01*
X018400Y033050D02*
X018700Y033050D01*
X018800Y032950D01*
X021800Y032950D01*
X022500Y032250D01*
X022500Y031577D01*
X022555Y031419D01*
X022500Y031400D01*
X022445Y031419D01*
X022500Y031577D01*
X022500Y031400D01*
X023700Y030200D02*
X023700Y028827D01*
X023755Y028669D01*
X023700Y028650D01*
X023645Y028669D01*
X023700Y028827D01*
X023700Y028650D01*
X023700Y030200D02*
X025300Y031800D01*
X037630Y031800D01*
X037797Y031808D01*
X037800Y031750D01*
X037766Y031703D01*
X037630Y031800D01*
X037750Y031800D01*
X037800Y031750D01*
X037900Y031950D02*
X025350Y031950D01*
X024700Y032600D01*
X024700Y034550D01*
X024165Y035085D01*
X023998Y035092D01*
X024000Y035150D01*
X024038Y035194D01*
X024165Y035085D01*
X024100Y035150D01*
X024000Y035150D01*
X023847Y034984D02*
X023800Y034950D01*
X023742Y034953D01*
X023750Y035120D01*
X023847Y034984D01*
X023800Y034950D02*
X023787Y034952D01*
X023775Y034957D01*
X023765Y034965D01*
X023757Y034975D01*
X023752Y034987D01*
X023750Y035000D01*
X023750Y035120D01*
X023750Y035500D01*
X023150Y036100D01*
X020100Y036100D01*
X019200Y037000D01*
X019000Y037000D01*
X018800Y036500D02*
X019500Y036500D01*
X020050Y035950D01*
X023100Y035950D01*
X023600Y035450D01*
X023600Y034850D01*
X023675Y034775D01*
X023825Y034703D01*
X023800Y034650D01*
X023747Y034625D01*
X023675Y034775D01*
X023800Y034650D01*
X024245Y035469D02*
X024300Y035450D01*
X024355Y035469D01*
X024300Y035627D01*
X024245Y035469D01*
X024300Y035450D02*
X024300Y035627D01*
X024300Y036300D01*
X025000Y037000D01*
X025000Y036000D02*
X026000Y037000D01*
X027000Y037000D02*
X025850Y035850D01*
X025850Y035627D01*
X025905Y035469D01*
X025850Y035450D01*
X025795Y035469D01*
X025850Y035627D01*
X025850Y035450D01*
X026595Y035469D02*
X026650Y035450D01*
X026705Y035469D01*
X026650Y035627D01*
X026595Y035469D01*
X026650Y035450D02*
X026650Y035627D01*
X026650Y035650D01*
X028000Y037000D01*
X029000Y037000D02*
X027575Y035575D01*
X027503Y035425D01*
X027450Y035450D01*
X027425Y035503D01*
X027575Y035575D01*
X027450Y035450D01*
X028200Y035450D02*
X028219Y035395D01*
X028377Y035450D01*
X028219Y035505D01*
X028200Y035450D01*
X028377Y035450D01*
X028450Y035450D01*
X030000Y037000D01*
X030700Y036500D02*
X029825Y035625D01*
X029857Y035461D01*
X029800Y035450D01*
X029748Y035477D01*
X029825Y035625D01*
X029800Y035600D01*
X029800Y035450D01*
X029450Y035450D02*
X029177Y035450D01*
X029019Y035395D01*
X029000Y035450D01*
X029019Y035505D01*
X029177Y035450D01*
X029000Y035450D01*
X029450Y035450D02*
X031000Y037000D01*
X030700Y036500D02*
X031500Y036500D01*
X032000Y037000D01*
X033000Y037000D02*
X031450Y035450D01*
X030777Y035450D01*
X030619Y035395D01*
X030600Y035450D01*
X030619Y035505D01*
X030777Y035450D01*
X030600Y035450D01*
X032115Y035497D02*
X032150Y035450D01*
X032207Y035436D01*
X032248Y035598D01*
X032115Y035497D01*
X032150Y035500D02*
X032248Y035598D01*
X033150Y036500D01*
X035500Y036500D01*
X036000Y037000D01*
X035750Y036500D02*
X036500Y036500D01*
X037000Y037000D01*
X036750Y036500D02*
X036600Y036350D01*
X035850Y036350D01*
X035700Y036200D01*
X034500Y036200D01*
X033875Y035575D01*
X033803Y035425D01*
X033750Y035450D01*
X033725Y035503D01*
X033875Y035575D01*
X033750Y035450D01*
X034486Y035507D02*
X034500Y035450D01*
X034547Y035415D01*
X034648Y035548D01*
X034486Y035507D01*
X034500Y035450D02*
X034550Y035450D01*
X034648Y035548D01*
X035150Y036050D01*
X035800Y036050D01*
X035900Y036150D01*
X036650Y036150D01*
X036850Y036350D01*
X037600Y036350D01*
X037750Y036500D01*
X038500Y036500D01*
X039000Y037000D01*
X038750Y036500D02*
X042500Y036500D01*
X043000Y037000D01*
X038750Y036500D02*
X038600Y036350D01*
X037850Y036350D01*
X037700Y036200D01*
X036950Y036200D01*
X036650Y035900D01*
X035750Y035900D01*
X035425Y035575D01*
X035353Y035425D01*
X035300Y035450D01*
X035275Y035503D01*
X035425Y035575D01*
X035300Y035450D01*
X035600Y036350D02*
X033750Y036350D01*
X033015Y035615D01*
X033008Y035448D01*
X032950Y035450D01*
X032906Y035488D01*
X033015Y035615D01*
X032950Y035550D01*
X032950Y035450D01*
X032150Y035450D02*
X032150Y035500D01*
X035600Y036350D02*
X035750Y036500D01*
X036750Y036500D02*
X037500Y036500D01*
X038000Y037000D01*
X038550Y032100D02*
X025400Y032100D01*
X024850Y032650D01*
X024850Y034600D01*
X023200Y036250D01*
X020150Y036250D01*
X020000Y036400D01*
X020000Y037000D01*
X021000Y037000D02*
X021300Y037000D01*
X021900Y036400D01*
X023250Y036400D01*
X023735Y035915D01*
X023902Y035908D01*
X023900Y035850D01*
X023862Y035806D01*
X023735Y035915D01*
X023800Y035850D01*
X023900Y035850D01*
X025000Y036000D02*
X025000Y035627D01*
X025055Y035469D01*
X025000Y035450D01*
X024945Y035469D01*
X025000Y035627D01*
X025000Y035450D01*
X018800Y036500D02*
X018300Y037000D01*
X018000Y037000D01*
X018300Y033150D02*
X018400Y033050D01*
X023792Y027047D02*
X023850Y027050D01*
X023897Y027016D01*
X023800Y026880D01*
X023792Y027047D01*
X023800Y027000D02*
X023850Y027050D01*
X023800Y027000D02*
X023800Y026880D01*
X023800Y026800D01*
X023100Y026100D01*
X022250Y026100D01*
X022100Y025950D01*
X021350Y025950D01*
X021200Y025800D01*
X020400Y025800D01*
X020250Y025650D01*
X019450Y025650D01*
X019300Y025500D01*
X018500Y025500D01*
X018000Y025000D01*
X019000Y025000D02*
X019500Y025500D01*
X020300Y025500D01*
X020450Y025650D01*
X021250Y025650D01*
X021400Y025800D01*
X022150Y025800D01*
X022300Y025950D01*
X023150Y025950D01*
X024000Y026800D01*
X024000Y026600D02*
X023200Y025800D01*
X022350Y025800D01*
X022200Y025650D01*
X021450Y025650D01*
X021300Y025500D01*
X020500Y025500D01*
X020000Y025000D01*
X021000Y025000D02*
X021500Y025500D01*
X022250Y025500D01*
X022400Y025650D01*
X023250Y025650D01*
X024000Y026400D01*
X024350Y026400D01*
X024550Y026600D01*
X024873Y026600D01*
X025031Y026655D01*
X025050Y026600D01*
X025031Y026545D01*
X024873Y026600D01*
X025050Y026600D01*
X025150Y026400D02*
X024550Y026400D01*
X024400Y026250D01*
X024050Y026250D01*
X023300Y025500D01*
X022500Y025500D01*
X022000Y025000D01*
X023000Y025000D02*
X024100Y026100D01*
X024450Y026100D01*
X024600Y026250D01*
X025200Y026250D01*
X025350Y026400D01*
X025900Y026400D01*
X026100Y026600D01*
X026423Y026600D01*
X026581Y026655D01*
X026600Y026600D01*
X026581Y026545D01*
X026423Y026600D01*
X026600Y026600D01*
X025800Y026600D02*
X025781Y026655D01*
X025623Y026600D01*
X025781Y026545D01*
X025800Y026600D01*
X025623Y026600D01*
X025350Y026600D01*
X025150Y026400D01*
X024250Y026600D02*
X024231Y026655D01*
X024073Y026600D01*
X024231Y026545D01*
X024250Y026600D01*
X024073Y026600D01*
X024000Y026600D01*
X037900Y031950D02*
X038725Y031125D01*
X038875Y031053D01*
X038850Y031000D01*
X038797Y030975D01*
X038725Y031125D01*
X038850Y031000D01*
X038797Y031775D02*
X038850Y031800D01*
X038875Y031853D01*
X038725Y031925D01*
X038797Y031775D01*
X038850Y031800D02*
X038725Y031925D01*
X038550Y032100D01*
D18*
X035000Y026900D02*
X035000Y025000D01*
X024050Y032200D02*
X021000Y029150D01*
X020100Y029150D01*
X018595Y027645D01*
X018550Y027600D01*
X018600Y027600D01*
X018595Y027645D02*
X018255Y027645D01*
X018300Y027600D01*
X018350Y027600D02*
X018550Y027600D01*
X018255Y027645D02*
X017998Y027645D01*
X018203Y032147D02*
X018150Y032200D01*
X017500Y032200D01*
X017450Y032250D01*
X018203Y032147D02*
X020000Y032147D01*
X019600Y034100D02*
X019300Y034100D01*
X019200Y034100D01*
X018650Y034650D01*
X017450Y034650D01*
X021000Y034350D02*
X023300Y034350D01*
X024050Y033600D01*
X024050Y032200D01*
D19*
X020350Y028450D02*
X020350Y028250D01*
X020600Y028000D01*
X038000Y028000D01*
X041000Y025000D01*
X018200Y028438D02*
X017998Y028236D01*
X018200Y028438D02*
X018200Y029250D01*
X017450Y030000D01*
X017450Y032250D01*
X017450Y034650D01*
X017450Y036550D01*
X017000Y037000D01*
M02*
