G75*
%MOIN*%
%OFA0B0*%
%FSLAX24Y24*%
%IPPOS*%
%LPD*%
%AMOC8*
5,1,8,0,0,1.08239X$1,22.5*
%
%ADD10C,0.0000*%
%ADD11R,0.0600X0.0400*%
%ADD12R,0.0200X0.0200*%
%ADD13R,0.0250X0.0350*%
%ADD14R,0.0276X0.0197*%
%ADD15C,0.0400*%
%ADD16C,0.0394*%
%ADD17R,0.0531X0.0157*%
%ADD18R,0.0748X0.0748*%
%ADD19R,0.0740X0.0740*%
%ADD20C,0.0740*%
%ADD21R,0.0512X0.0453*%
%ADD22R,0.0472X0.0354*%
%ADD23C,0.0197*%
%ADD24R,0.0197X0.0197*%
%ADD25R,0.0480X0.0880*%
%ADD26R,0.1417X0.0866*%
%ADD27R,0.1811X0.0394*%
%ADD28R,0.1339X0.0630*%
%ADD29C,0.0100*%
%ADD30C,0.0197*%
%ADD31C,0.0400*%
%ADD32C,0.0080*%
%ADD33C,0.0260*%
%ADD34C,0.0180*%
%ADD35C,0.0500*%
%ADD36C,0.0200*%
%ADD37C,0.0145*%
%ADD38C,0.0150*%
D10*
X016500Y024500D02*
X016500Y037500D01*
X044500Y037500D01*
X044500Y024500D01*
X016500Y024500D01*
X017809Y030213D02*
X017811Y030233D01*
X017817Y030253D01*
X017826Y030271D01*
X017839Y030288D01*
X017854Y030301D01*
X017872Y030311D01*
X017892Y030318D01*
X017912Y030321D01*
X017932Y030320D01*
X017952Y030315D01*
X017971Y030307D01*
X017988Y030295D01*
X018002Y030280D01*
X018013Y030262D01*
X018021Y030243D01*
X018025Y030223D01*
X018025Y030203D01*
X018021Y030183D01*
X018013Y030164D01*
X018002Y030146D01*
X017988Y030131D01*
X017971Y030119D01*
X017952Y030111D01*
X017932Y030106D01*
X017912Y030105D01*
X017892Y030108D01*
X017872Y030115D01*
X017854Y030125D01*
X017839Y030138D01*
X017826Y030155D01*
X017817Y030173D01*
X017811Y030193D01*
X017809Y030213D01*
X017809Y031787D02*
X017811Y031807D01*
X017817Y031827D01*
X017826Y031845D01*
X017839Y031862D01*
X017854Y031875D01*
X017872Y031885D01*
X017892Y031892D01*
X017912Y031895D01*
X017932Y031894D01*
X017952Y031889D01*
X017971Y031881D01*
X017988Y031869D01*
X018002Y031854D01*
X018013Y031836D01*
X018021Y031817D01*
X018025Y031797D01*
X018025Y031777D01*
X018021Y031757D01*
X018013Y031738D01*
X018002Y031720D01*
X017988Y031705D01*
X017971Y031693D01*
X017952Y031685D01*
X017932Y031680D01*
X017912Y031679D01*
X017892Y031682D01*
X017872Y031689D01*
X017854Y031699D01*
X017839Y031712D01*
X017826Y031729D01*
X017817Y031747D01*
X017811Y031767D01*
X017809Y031787D01*
X016693Y034315D02*
X016695Y034340D01*
X016701Y034364D01*
X016710Y034386D01*
X016723Y034407D01*
X016739Y034426D01*
X016758Y034442D01*
X016779Y034455D01*
X016801Y034464D01*
X016825Y034470D01*
X016850Y034472D01*
X016875Y034470D01*
X016899Y034464D01*
X016921Y034455D01*
X016942Y034442D01*
X016961Y034426D01*
X016977Y034407D01*
X016990Y034386D01*
X016999Y034364D01*
X017005Y034340D01*
X017007Y034315D01*
X017005Y034290D01*
X016999Y034266D01*
X016990Y034244D01*
X016977Y034223D01*
X016961Y034204D01*
X016942Y034188D01*
X016921Y034175D01*
X016899Y034166D01*
X016875Y034160D01*
X016850Y034158D01*
X016825Y034160D01*
X016801Y034166D01*
X016779Y034175D01*
X016758Y034188D01*
X016739Y034204D01*
X016723Y034223D01*
X016710Y034244D01*
X016701Y034266D01*
X016695Y034290D01*
X016693Y034315D01*
X016693Y034985D02*
X016695Y035010D01*
X016701Y035034D01*
X016710Y035056D01*
X016723Y035077D01*
X016739Y035096D01*
X016758Y035112D01*
X016779Y035125D01*
X016801Y035134D01*
X016825Y035140D01*
X016850Y035142D01*
X016875Y035140D01*
X016899Y035134D01*
X016921Y035125D01*
X016942Y035112D01*
X016961Y035096D01*
X016977Y035077D01*
X016990Y035056D01*
X016999Y035034D01*
X017005Y035010D01*
X017007Y034985D01*
X017005Y034960D01*
X016999Y034936D01*
X016990Y034914D01*
X016977Y034893D01*
X016961Y034874D01*
X016942Y034858D01*
X016921Y034845D01*
X016899Y034836D01*
X016875Y034830D01*
X016850Y034828D01*
X016825Y034830D01*
X016801Y034836D01*
X016779Y034845D01*
X016758Y034858D01*
X016739Y034874D01*
X016723Y034893D01*
X016710Y034914D01*
X016701Y034936D01*
X016695Y034960D01*
X016693Y034985D01*
X018370Y035700D02*
X018372Y035750D01*
X018378Y035800D01*
X018388Y035849D01*
X018402Y035897D01*
X018419Y035944D01*
X018440Y035989D01*
X018465Y036033D01*
X018493Y036074D01*
X018525Y036113D01*
X018559Y036150D01*
X018596Y036184D01*
X018636Y036214D01*
X018678Y036241D01*
X018722Y036265D01*
X018768Y036286D01*
X018815Y036302D01*
X018863Y036315D01*
X018913Y036324D01*
X018962Y036329D01*
X019013Y036330D01*
X019063Y036327D01*
X019112Y036320D01*
X019161Y036309D01*
X019209Y036294D01*
X019255Y036276D01*
X019300Y036254D01*
X019343Y036228D01*
X019384Y036199D01*
X019423Y036167D01*
X019459Y036132D01*
X019491Y036094D01*
X019521Y036054D01*
X019548Y036011D01*
X019571Y035967D01*
X019590Y035921D01*
X019606Y035873D01*
X019618Y035824D01*
X019626Y035775D01*
X019630Y035725D01*
X019630Y035675D01*
X019626Y035625D01*
X019618Y035576D01*
X019606Y035527D01*
X019590Y035479D01*
X019571Y035433D01*
X019548Y035389D01*
X019521Y035346D01*
X019491Y035306D01*
X019459Y035268D01*
X019423Y035233D01*
X019384Y035201D01*
X019343Y035172D01*
X019300Y035146D01*
X019255Y035124D01*
X019209Y035106D01*
X019161Y035091D01*
X019112Y035080D01*
X019063Y035073D01*
X019013Y035070D01*
X018962Y035071D01*
X018913Y035076D01*
X018863Y035085D01*
X018815Y035098D01*
X018768Y035114D01*
X018722Y035135D01*
X018678Y035159D01*
X018636Y035186D01*
X018596Y035216D01*
X018559Y035250D01*
X018525Y035287D01*
X018493Y035326D01*
X018465Y035367D01*
X018440Y035411D01*
X018419Y035456D01*
X018402Y035503D01*
X018388Y035551D01*
X018378Y035600D01*
X018372Y035650D01*
X018370Y035700D01*
X042705Y026862D02*
X042707Y026912D01*
X042713Y026962D01*
X042723Y027011D01*
X042737Y027059D01*
X042754Y027106D01*
X042775Y027151D01*
X042800Y027195D01*
X042828Y027236D01*
X042860Y027275D01*
X042894Y027312D01*
X042931Y027346D01*
X042971Y027376D01*
X043013Y027403D01*
X043057Y027427D01*
X043103Y027448D01*
X043150Y027464D01*
X043198Y027477D01*
X043248Y027486D01*
X043297Y027491D01*
X043348Y027492D01*
X043398Y027489D01*
X043447Y027482D01*
X043496Y027471D01*
X043544Y027456D01*
X043590Y027438D01*
X043635Y027416D01*
X043678Y027390D01*
X043719Y027361D01*
X043758Y027329D01*
X043794Y027294D01*
X043826Y027256D01*
X043856Y027216D01*
X043883Y027173D01*
X043906Y027129D01*
X043925Y027083D01*
X043941Y027035D01*
X043953Y026986D01*
X043961Y026937D01*
X043965Y026887D01*
X043965Y026837D01*
X043961Y026787D01*
X043953Y026738D01*
X043941Y026689D01*
X043925Y026641D01*
X043906Y026595D01*
X043883Y026551D01*
X043856Y026508D01*
X043826Y026468D01*
X043794Y026430D01*
X043758Y026395D01*
X043719Y026363D01*
X043678Y026334D01*
X043635Y026308D01*
X043590Y026286D01*
X043544Y026268D01*
X043496Y026253D01*
X043447Y026242D01*
X043398Y026235D01*
X043348Y026232D01*
X043297Y026233D01*
X043248Y026238D01*
X043198Y026247D01*
X043150Y026260D01*
X043103Y026276D01*
X043057Y026297D01*
X043013Y026321D01*
X042971Y026348D01*
X042931Y026378D01*
X042894Y026412D01*
X042860Y026449D01*
X042828Y026488D01*
X042800Y026529D01*
X042775Y026573D01*
X042754Y026618D01*
X042737Y026665D01*
X042723Y026713D01*
X042713Y026762D01*
X042707Y026812D01*
X042705Y026862D01*
D11*
X019800Y033450D03*
X019800Y034150D03*
X019000Y034150D03*
X019000Y033450D03*
D12*
X018850Y032900D03*
X019150Y032900D03*
X019150Y032500D03*
X018850Y032500D03*
X019650Y032500D03*
X019950Y032500D03*
X019950Y032900D03*
X019650Y032900D03*
X018350Y033200D03*
X018050Y033200D03*
X018050Y033600D03*
X018350Y033600D03*
X018350Y034000D03*
X018050Y034000D03*
X018050Y034400D03*
X018350Y034400D03*
X018350Y034800D03*
X018050Y034800D03*
X040350Y034525D03*
X040650Y034525D03*
X041000Y034525D03*
X041000Y034225D03*
X041350Y034525D03*
X041650Y034525D03*
X042000Y034525D03*
X042000Y034225D03*
D13*
X022350Y031000D03*
X021850Y031000D03*
D14*
X017317Y033200D03*
X016883Y033200D03*
X016833Y036100D03*
X017267Y036100D03*
D15*
X021500Y026000D03*
X040900Y026000D03*
X041500Y035525D03*
D16*
X039617Y034937D02*
X039225Y034937D01*
X039225Y034150D02*
X039617Y034150D01*
X039617Y033362D02*
X039225Y033362D01*
X039225Y032575D02*
X039617Y032575D01*
X039617Y031787D02*
X039225Y031787D01*
X039225Y031000D02*
X039617Y031000D01*
X039617Y030213D02*
X039225Y030213D01*
X039225Y029425D02*
X039617Y029425D01*
X039617Y028638D02*
X039225Y028638D01*
X039225Y027850D02*
X039617Y027850D01*
X039617Y027063D02*
X039225Y027063D01*
X038437Y026275D02*
X038437Y025883D01*
X037649Y025883D02*
X037649Y026275D01*
X036862Y026275D02*
X036862Y025883D01*
X036074Y025883D02*
X036074Y026275D01*
X035287Y026275D02*
X035287Y025883D01*
X034500Y025883D02*
X034500Y026275D01*
X033712Y026275D02*
X033712Y025883D01*
X032925Y025883D02*
X032925Y026275D01*
X032137Y026275D02*
X032137Y025883D01*
X031350Y025883D02*
X031350Y026275D01*
X030563Y026275D02*
X030563Y025883D01*
X029775Y025883D02*
X029775Y026275D01*
X028988Y026275D02*
X028988Y025883D01*
X028200Y025883D02*
X028200Y026275D01*
X027413Y026275D02*
X027413Y025883D01*
X026626Y025883D02*
X026626Y026275D01*
X025838Y026275D02*
X025838Y025883D01*
X025051Y025883D02*
X025051Y026275D01*
X024263Y026275D02*
X024263Y025883D01*
X023475Y027063D02*
X023083Y027063D01*
X023083Y027850D02*
X023475Y027850D01*
X023475Y028638D02*
X023083Y028638D01*
X023083Y029425D02*
X023475Y029425D01*
X023475Y030213D02*
X023083Y030213D01*
X023083Y031000D02*
X023475Y031000D01*
X023475Y031787D02*
X023083Y031787D01*
X023083Y032575D02*
X023475Y032575D01*
X023475Y033362D02*
X023083Y033362D01*
X023083Y034150D02*
X023475Y034150D01*
X023475Y034937D02*
X023083Y034937D01*
X024263Y035725D02*
X024263Y036117D01*
X025051Y036117D02*
X025051Y035725D01*
X025838Y035725D02*
X025838Y036117D01*
X026626Y036117D02*
X026626Y035725D01*
X027413Y035725D02*
X027413Y036117D01*
X028200Y036117D02*
X028200Y035725D01*
X028988Y035725D02*
X028988Y036117D01*
X029775Y036117D02*
X029775Y035725D01*
X030563Y035725D02*
X030563Y036117D01*
X031350Y036117D02*
X031350Y035725D01*
X032137Y035725D02*
X032137Y036117D01*
X032925Y036117D02*
X032925Y035725D01*
X033712Y035725D02*
X033712Y036117D01*
X034500Y036117D02*
X034500Y035725D01*
X035287Y035725D02*
X035287Y036117D01*
X036074Y036117D02*
X036074Y035725D01*
X036862Y035725D02*
X036862Y036117D01*
X037649Y036117D02*
X037649Y035725D01*
X038437Y035725D02*
X038437Y036117D01*
D17*
X018124Y031512D03*
X018124Y031256D03*
X018124Y031000D03*
X018124Y030744D03*
X018124Y030488D03*
D18*
X017071Y030528D03*
X017071Y031472D03*
X017071Y032555D03*
X017071Y029445D03*
D19*
X017000Y025000D03*
X017000Y037000D03*
D20*
X018000Y037000D03*
X019000Y037000D03*
X020000Y037000D03*
X021000Y037000D03*
X022000Y037000D03*
X023000Y037000D03*
X024000Y037000D03*
X025000Y037000D03*
X026000Y037000D03*
X027000Y037000D03*
X028000Y037000D03*
X029000Y037000D03*
X030000Y037000D03*
X031000Y037000D03*
X032000Y037000D03*
X033000Y037000D03*
X034000Y037000D03*
X035000Y037000D03*
X036000Y037000D03*
X037000Y037000D03*
X038000Y037000D03*
X039000Y037000D03*
X040000Y037000D03*
X041000Y037000D03*
X042000Y037000D03*
X043000Y037000D03*
X044000Y037000D03*
X044000Y025000D03*
X043000Y025000D03*
X042000Y025000D03*
X041000Y025000D03*
X040000Y025000D03*
X039000Y025000D03*
X038000Y025000D03*
X037000Y025000D03*
X036000Y025000D03*
X035000Y025000D03*
X034000Y025000D03*
X033000Y025000D03*
X032000Y025000D03*
X031000Y025000D03*
X030000Y025000D03*
X029000Y025000D03*
X028000Y025000D03*
X027000Y025000D03*
X026000Y025000D03*
X025000Y025000D03*
X024000Y025000D03*
X023000Y025000D03*
X022000Y025000D03*
X021000Y025000D03*
X020000Y025000D03*
X019000Y025000D03*
X018000Y025000D03*
D21*
X017460Y033991D03*
X017460Y035309D03*
D22*
X016850Y035556D03*
X016850Y033744D03*
D23*
X041988Y034531D02*
X043862Y034531D01*
X043961Y035220D02*
X043961Y033665D01*
X042921Y033665D01*
X042921Y032681D01*
X043961Y032681D01*
X043961Y031814D01*
X042921Y031814D01*
X042921Y030830D01*
X043961Y030830D01*
X043961Y030829D02*
X043961Y029975D01*
X043961Y029964D02*
X042583Y029964D01*
X042327Y035220D02*
X043953Y035220D01*
D24*
X042327Y035220D03*
X041957Y034531D03*
D25*
X020810Y031820D03*
X019900Y031820D03*
X018990Y031820D03*
D26*
X019900Y029380D03*
D27*
X019357Y027594D03*
X019357Y026806D03*
D28*
X017309Y025861D03*
X017309Y028539D03*
D29*
X018089Y028539D02*
X021390Y028539D01*
X021390Y028637D02*
X018089Y028637D01*
X018089Y028736D02*
X021390Y028736D01*
X021390Y028834D02*
X020696Y028834D01*
X020662Y028800D02*
X020750Y028888D01*
X020750Y030962D01*
X020662Y031050D01*
X020250Y031462D01*
X020250Y032306D01*
X020186Y032370D01*
X019992Y032370D01*
X019860Y032502D01*
X019860Y032646D01*
X019850Y032656D01*
X019850Y032744D01*
X019860Y032754D01*
X019860Y032948D01*
X020002Y033090D01*
X021390Y033090D01*
X021390Y027228D01*
X021445Y027096D01*
X023061Y025480D01*
X022905Y025480D01*
X022728Y025407D01*
X022593Y025272D01*
X022520Y025095D01*
X022520Y024905D01*
X022593Y024728D01*
X022673Y024648D01*
X022327Y024648D01*
X022407Y024728D01*
X022480Y024905D01*
X022480Y025095D01*
X022407Y025272D01*
X022272Y025407D01*
X022095Y025480D01*
X021905Y025480D01*
X021728Y025407D01*
X021593Y025272D01*
X021520Y025095D01*
X021520Y024905D01*
X021593Y024728D01*
X021673Y024648D01*
X021327Y024648D01*
X021407Y024728D01*
X021480Y024905D01*
X021480Y025095D01*
X021407Y025272D01*
X021272Y025407D01*
X021095Y025480D01*
X020905Y025480D01*
X020728Y025407D01*
X020593Y025272D01*
X020520Y025095D01*
X020520Y024905D01*
X020593Y024728D01*
X020673Y024648D01*
X020327Y024648D01*
X020407Y024728D01*
X020480Y024905D01*
X020480Y025095D01*
X020407Y025272D01*
X020272Y025407D01*
X020095Y025480D01*
X019905Y025480D01*
X019728Y025407D01*
X019593Y025272D01*
X019520Y025095D01*
X019520Y024905D01*
X019593Y024728D01*
X019673Y024648D01*
X019327Y024648D01*
X019407Y024728D01*
X019480Y024905D01*
X019480Y025095D01*
X019407Y025272D01*
X019272Y025407D01*
X019095Y025480D01*
X018905Y025480D01*
X018728Y025407D01*
X018593Y025272D01*
X018520Y025095D01*
X018520Y024905D01*
X018593Y024728D01*
X018673Y024648D01*
X018327Y024648D01*
X018407Y024728D01*
X018480Y024905D01*
X018480Y025095D01*
X018407Y025272D01*
X018272Y025407D01*
X018095Y025480D01*
X018068Y025480D01*
X018089Y025501D01*
X018089Y026222D01*
X018024Y026286D01*
X016648Y026286D01*
X016648Y028114D01*
X018024Y028114D01*
X018089Y028178D01*
X018089Y028899D01*
X018024Y028964D01*
X016648Y028964D01*
X016648Y034084D01*
X016677Y034056D01*
X016789Y034009D01*
X016911Y034009D01*
X017023Y034056D01*
X017094Y034127D01*
X017094Y033719D01*
X017159Y033654D01*
X017584Y033654D01*
X017789Y033450D01*
X017844Y033450D01*
X017894Y033400D01*
X017844Y033350D01*
X017558Y033350D01*
X017500Y033408D01*
X017133Y033408D01*
X017069Y033344D01*
X017069Y033056D01*
X017133Y032992D01*
X017500Y032992D01*
X017558Y033050D01*
X017844Y033050D01*
X017904Y032990D01*
X018196Y032990D01*
X018200Y032994D01*
X018204Y032990D01*
X018496Y032990D01*
X018497Y032992D01*
X018586Y032992D01*
X018708Y033114D01*
X018708Y033140D01*
X018748Y033140D01*
X018940Y032948D01*
X018940Y032754D01*
X018942Y032753D01*
X018942Y032647D01*
X018940Y032646D01*
X018940Y032402D01*
X018908Y032370D01*
X018704Y032370D01*
X018640Y032306D01*
X018640Y032302D01*
X018600Y032262D01*
X018438Y032100D01*
X017838Y032100D01*
X017750Y032012D01*
X017750Y031983D01*
X017700Y031933D01*
X017661Y031838D01*
X017661Y031736D01*
X017700Y031642D01*
X017748Y031593D01*
X017748Y031388D01*
X017752Y031384D01*
X017748Y031380D01*
X017748Y031132D01*
X017752Y031128D01*
X017748Y031124D01*
X017748Y030876D01*
X017752Y030872D01*
X017748Y030868D01*
X017748Y030620D01*
X017813Y030555D01*
X018435Y030555D01*
X018500Y030620D01*
X018500Y030868D01*
X018496Y030872D01*
X018500Y030876D01*
X018500Y031124D01*
X018496Y031128D01*
X018500Y031132D01*
X018500Y031250D01*
X018500Y028888D01*
X018588Y028800D01*
X020662Y028800D01*
X020750Y028933D02*
X021390Y028933D01*
X021390Y029031D02*
X020750Y029031D01*
X020750Y029130D02*
X021390Y029130D01*
X021390Y029228D02*
X020750Y029228D01*
X020750Y029327D02*
X021390Y029327D01*
X021390Y029425D02*
X020750Y029425D01*
X020750Y029524D02*
X021390Y029524D01*
X021390Y029622D02*
X020750Y029622D01*
X020750Y029721D02*
X021390Y029721D01*
X021390Y029819D02*
X020750Y029819D01*
X020750Y029918D02*
X021390Y029918D01*
X021390Y030016D02*
X020750Y030016D01*
X020750Y030115D02*
X021390Y030115D01*
X021390Y030213D02*
X020750Y030213D01*
X020750Y030312D02*
X021390Y030312D01*
X021390Y030410D02*
X020750Y030410D01*
X020750Y030509D02*
X021390Y030509D01*
X021390Y030607D02*
X020750Y030607D01*
X020750Y030706D02*
X021390Y030706D01*
X021390Y030804D02*
X020750Y030804D01*
X020750Y030903D02*
X021390Y030903D01*
X021390Y031001D02*
X020711Y031001D01*
X020613Y031100D02*
X021390Y031100D01*
X021390Y031198D02*
X020514Y031198D01*
X020416Y031297D02*
X021390Y031297D01*
X021390Y031395D02*
X020317Y031395D01*
X020250Y031494D02*
X021390Y031494D01*
X021390Y031592D02*
X020250Y031592D01*
X020250Y031691D02*
X021390Y031691D01*
X021390Y031789D02*
X020250Y031789D01*
X020250Y031888D02*
X021390Y031888D01*
X021390Y031986D02*
X020250Y031986D01*
X020250Y032085D02*
X021390Y032085D01*
X021390Y032183D02*
X020250Y032183D01*
X020250Y032282D02*
X021390Y032282D01*
X021390Y032380D02*
X019982Y032380D01*
X019884Y032479D02*
X021390Y032479D01*
X021390Y032577D02*
X019860Y032577D01*
X019850Y032676D02*
X021390Y032676D01*
X021390Y032774D02*
X019860Y032774D01*
X019860Y032873D02*
X021390Y032873D01*
X021390Y032971D02*
X019883Y032971D01*
X019982Y033070D02*
X021390Y033070D01*
X022110Y033070D02*
X022792Y033070D01*
X022792Y033086D02*
X022792Y032914D01*
X022847Y032858D01*
X022854Y032839D01*
X022861Y032836D01*
X022878Y032828D01*
X022889Y032816D01*
X022822Y032749D01*
X022775Y032636D01*
X022775Y032514D01*
X022822Y032401D01*
X022908Y032315D01*
X023021Y032268D01*
X023303Y032268D01*
X023411Y032160D01*
X022110Y032160D01*
X022110Y035601D01*
X023029Y036520D01*
X023095Y036520D01*
X023272Y036593D01*
X023319Y036640D01*
X023681Y036640D01*
X023728Y036593D01*
X023905Y036520D01*
X024095Y036520D01*
X024272Y036593D01*
X024407Y036728D01*
X024480Y036905D01*
X024480Y037095D01*
X024407Y037272D01*
X024327Y037352D01*
X024673Y037352D01*
X024593Y037272D01*
X024520Y037095D01*
X024520Y036905D01*
X024593Y036728D01*
X024728Y036593D01*
X024905Y036520D01*
X025095Y036520D01*
X025272Y036593D01*
X025407Y036728D01*
X025480Y036905D01*
X025480Y037095D01*
X025407Y037272D01*
X025327Y037352D01*
X025673Y037352D01*
X025593Y037272D01*
X025520Y037095D01*
X025520Y036905D01*
X025593Y036728D01*
X025728Y036593D01*
X025905Y036520D01*
X026095Y036520D01*
X026272Y036593D01*
X026407Y036728D01*
X026480Y036905D01*
X026480Y037095D01*
X026407Y037272D01*
X026327Y037352D01*
X026673Y037352D01*
X026593Y037272D01*
X026520Y037095D01*
X026520Y036905D01*
X026593Y036728D01*
X026728Y036593D01*
X026905Y036520D01*
X027095Y036520D01*
X027272Y036593D01*
X027407Y036728D01*
X027480Y036905D01*
X027480Y037095D01*
X027407Y037272D01*
X027327Y037352D01*
X027673Y037352D01*
X027593Y037272D01*
X027520Y037095D01*
X027520Y036905D01*
X027593Y036728D01*
X027728Y036593D01*
X027905Y036520D01*
X028095Y036520D01*
X028272Y036593D01*
X028407Y036728D01*
X028480Y036905D01*
X028480Y037095D01*
X028407Y037272D01*
X028327Y037352D01*
X028673Y037352D01*
X028593Y037272D01*
X028520Y037095D01*
X028520Y036905D01*
X028593Y036728D01*
X028728Y036593D01*
X028905Y036520D01*
X029095Y036520D01*
X029272Y036593D01*
X029407Y036728D01*
X029480Y036905D01*
X029480Y037095D01*
X029407Y037272D01*
X029327Y037352D01*
X029673Y037352D01*
X029593Y037272D01*
X029520Y037095D01*
X029520Y036905D01*
X029593Y036728D01*
X029728Y036593D01*
X029905Y036520D01*
X030095Y036520D01*
X030272Y036593D01*
X030407Y036728D01*
X030480Y036905D01*
X030480Y037095D01*
X030407Y037272D01*
X030327Y037352D01*
X030673Y037352D01*
X030593Y037272D01*
X030520Y037095D01*
X030520Y036905D01*
X030593Y036728D01*
X030728Y036593D01*
X030905Y036520D01*
X031095Y036520D01*
X031272Y036593D01*
X031407Y036728D01*
X031480Y036905D01*
X031480Y037095D01*
X031407Y037272D01*
X031327Y037352D01*
X031673Y037352D01*
X031593Y037272D01*
X031520Y037095D01*
X031520Y036905D01*
X031593Y036728D01*
X031728Y036593D01*
X031905Y036520D01*
X032095Y036520D01*
X032272Y036593D01*
X032407Y036728D01*
X032480Y036905D01*
X032480Y037095D01*
X032407Y037272D01*
X032327Y037352D01*
X032673Y037352D01*
X032593Y037272D01*
X032520Y037095D01*
X032520Y036905D01*
X032593Y036728D01*
X032728Y036593D01*
X032905Y036520D01*
X033095Y036520D01*
X033272Y036593D01*
X033407Y036728D01*
X033480Y036905D01*
X033480Y037095D01*
X033407Y037272D01*
X033327Y037352D01*
X034673Y037352D01*
X034593Y037272D01*
X034520Y037095D01*
X034520Y036905D01*
X034593Y036728D01*
X034700Y036621D01*
X034700Y036352D01*
X034673Y036378D01*
X034561Y036425D01*
X034439Y036425D01*
X034326Y036378D01*
X034239Y036292D01*
X034193Y036179D01*
X034193Y035663D01*
X034239Y035551D01*
X034292Y035498D01*
X034292Y035485D01*
X034283Y035460D01*
X034283Y035460D01*
X034283Y035460D01*
X034292Y035441D01*
X034292Y035364D01*
X034411Y035244D01*
X031567Y032400D01*
X023737Y032400D01*
X023736Y032401D01*
X023783Y032514D01*
X023783Y032636D01*
X023736Y032749D01*
X023650Y032835D01*
X023537Y032882D01*
X023330Y032882D01*
X023275Y032937D01*
X023256Y032957D01*
X023246Y032983D01*
X023238Y032987D01*
X023208Y033048D01*
X023208Y033086D01*
X023172Y033122D01*
X023161Y033146D01*
X023161Y033146D01*
X023161Y033146D01*
X023142Y033153D01*
X023086Y033208D01*
X022914Y033208D01*
X022792Y033086D01*
X022792Y032971D02*
X022110Y032971D01*
X022110Y032873D02*
X022833Y032873D01*
X022848Y032774D02*
X022110Y032774D01*
X022110Y032676D02*
X022792Y032676D01*
X022775Y032577D02*
X022110Y032577D01*
X022110Y032479D02*
X022790Y032479D01*
X022843Y032380D02*
X022110Y032380D01*
X022110Y032282D02*
X022988Y032282D01*
X023388Y032183D02*
X022110Y032183D01*
X023251Y032971D02*
X032138Y032971D01*
X032040Y032873D02*
X023559Y032873D01*
X023711Y032774D02*
X031941Y032774D01*
X031843Y032676D02*
X023766Y032676D01*
X023783Y032577D02*
X031744Y032577D01*
X031646Y032479D02*
X023768Y032479D01*
X023736Y032401D02*
X023736Y032401D01*
X023800Y031477D02*
X029984Y031477D01*
X034824Y026637D01*
X034938Y026590D01*
X035062Y026590D01*
X035176Y026637D01*
X035263Y026724D01*
X035310Y026838D01*
X035310Y026962D01*
X035263Y027076D01*
X030338Y032000D01*
X031733Y032000D01*
X031850Y032117D01*
X035094Y035361D01*
X035214Y035242D01*
X035386Y035242D01*
X035508Y035364D01*
X035508Y035457D01*
X035516Y035476D01*
X035508Y035493D01*
X035508Y035512D01*
X035547Y035551D01*
X035594Y035663D01*
X035594Y036179D01*
X035547Y036292D01*
X035461Y036378D01*
X035348Y036425D01*
X035226Y036425D01*
X035113Y036378D01*
X035100Y036365D01*
X035100Y036522D01*
X035272Y036593D01*
X035407Y036728D01*
X035480Y036905D01*
X035480Y037095D01*
X035407Y037272D01*
X035327Y037352D01*
X035673Y037352D01*
X035593Y037272D01*
X035520Y037095D01*
X035520Y036905D01*
X035593Y036728D01*
X035728Y036593D01*
X035905Y036520D01*
X036058Y036520D01*
X035927Y036389D01*
X035901Y036378D01*
X035814Y036292D01*
X035768Y036179D01*
X035768Y035663D01*
X035814Y035551D01*
X035901Y035464D01*
X036013Y035418D01*
X036135Y035418D01*
X036248Y035464D01*
X036335Y035551D01*
X036381Y035663D01*
X036381Y036179D01*
X036335Y036292D01*
X036294Y036332D01*
X036312Y036350D01*
X039562Y036350D01*
X039783Y036570D01*
X039905Y036520D01*
X040095Y036520D01*
X040272Y036593D01*
X040407Y036728D01*
X040480Y036905D01*
X040480Y037095D01*
X040407Y037272D01*
X040327Y037352D01*
X040673Y037352D01*
X040593Y037272D01*
X040520Y037095D01*
X040520Y036905D01*
X040593Y036728D01*
X040728Y036593D01*
X040900Y036522D01*
X040900Y036312D01*
X040588Y036000D01*
X039138Y036000D01*
X037788Y034650D01*
X037700Y034562D01*
X037700Y031978D01*
X037697Y031975D01*
X037698Y031965D01*
X037667Y031922D01*
X037667Y031922D01*
X037663Y031917D01*
X037641Y031885D01*
X037592Y031836D01*
X037592Y031664D01*
X037714Y031542D01*
X037850Y031542D01*
X037850Y027938D01*
X038875Y026913D01*
X038954Y026913D01*
X038964Y026889D01*
X039050Y026803D01*
X039163Y026756D01*
X039679Y026756D01*
X039792Y026803D01*
X039878Y026889D01*
X039925Y027002D01*
X039925Y027124D01*
X039878Y027237D01*
X039792Y027323D01*
X039679Y027370D01*
X039163Y027370D01*
X039050Y027323D01*
X038970Y027243D01*
X038150Y028062D01*
X038150Y034388D01*
X039312Y035550D01*
X040762Y035550D01*
X041023Y035811D01*
X040950Y035634D01*
X040950Y035416D01*
X041034Y035213D01*
X041188Y035059D01*
X041391Y034975D01*
X041609Y034975D01*
X041812Y035059D01*
X041966Y035213D01*
X042050Y035416D01*
X042050Y035634D01*
X041966Y035837D01*
X041812Y035991D01*
X041609Y036075D01*
X041391Y036075D01*
X041214Y036002D01*
X041783Y036570D01*
X041905Y036520D01*
X042095Y036520D01*
X042272Y036593D01*
X042407Y036728D01*
X042480Y036905D01*
X042480Y037095D01*
X042407Y037272D01*
X042327Y037352D01*
X042673Y037352D01*
X042593Y037272D01*
X042520Y037095D01*
X042520Y036905D01*
X042593Y036728D01*
X042728Y036593D01*
X042905Y036520D01*
X043095Y036520D01*
X043272Y036593D01*
X043407Y036728D01*
X043480Y036905D01*
X043480Y037095D01*
X043407Y037272D01*
X043327Y037352D01*
X044352Y037352D01*
X044352Y035660D01*
X042302Y035660D01*
X042273Y035630D01*
X042273Y034798D01*
X041909Y034798D01*
X041879Y034768D01*
X041879Y034741D01*
X041870Y034741D01*
X041868Y034739D01*
X041813Y034739D01*
X041808Y034735D01*
X041504Y034735D01*
X041500Y034731D01*
X041496Y034735D01*
X040504Y034735D01*
X040500Y034731D01*
X040496Y034735D01*
X040470Y034735D01*
X040398Y034765D01*
X040064Y034765D01*
X039871Y034654D01*
X039871Y034654D01*
X039871Y034654D01*
X039760Y034461D01*
X039760Y034423D01*
X039679Y034456D01*
X039163Y034456D01*
X039050Y034410D01*
X038964Y034323D01*
X038917Y034211D01*
X038917Y034089D01*
X038964Y033976D01*
X039050Y033889D01*
X039163Y033843D01*
X039679Y033843D01*
X039792Y033889D01*
X039812Y033910D01*
X039918Y033910D01*
X040122Y034028D01*
X040240Y034232D01*
X040240Y034285D01*
X040398Y034285D01*
X040470Y034315D01*
X040496Y034315D01*
X040500Y034319D01*
X040504Y034315D01*
X041496Y034315D01*
X041500Y034319D01*
X041504Y034315D01*
X041879Y034315D01*
X041879Y034294D01*
X041909Y034264D01*
X042273Y034264D01*
X042273Y027715D01*
X042302Y027686D01*
X044352Y027686D01*
X044352Y024648D01*
X043327Y024648D01*
X043407Y024728D01*
X043480Y024905D01*
X043480Y025095D01*
X043407Y025272D01*
X043272Y025407D01*
X043095Y025480D01*
X042905Y025480D01*
X042815Y025443D01*
X042785Y025473D01*
X042785Y025918D01*
X042235Y026468D01*
X042235Y027068D01*
X040095Y029208D01*
X039988Y029315D01*
X039904Y029315D01*
X039925Y029364D01*
X039925Y029486D01*
X039878Y029599D01*
X039792Y029685D01*
X039679Y029732D01*
X039163Y029732D01*
X039050Y029685D01*
X038964Y029599D01*
X038917Y029486D01*
X038917Y029364D01*
X038964Y029251D01*
X039050Y029165D01*
X039163Y029118D01*
X039470Y029118D01*
X039531Y029057D01*
X039560Y029028D01*
X039477Y028945D01*
X039163Y028945D01*
X039050Y028898D01*
X038964Y028812D01*
X038917Y028699D01*
X038917Y028577D01*
X038964Y028464D01*
X039050Y028378D01*
X039163Y028331D01*
X039679Y028331D01*
X039792Y028378D01*
X039878Y028464D01*
X039923Y028574D01*
X041665Y026832D01*
X041665Y026232D01*
X041772Y026125D01*
X042215Y025682D01*
X042215Y025478D01*
X042213Y025476D01*
X042213Y025471D01*
X042185Y025443D01*
X042095Y025480D01*
X041905Y025480D01*
X041728Y025407D01*
X041593Y025272D01*
X041520Y025095D01*
X041520Y024905D01*
X041593Y024728D01*
X041673Y024648D01*
X041327Y024648D01*
X041407Y024728D01*
X041480Y024905D01*
X041480Y025095D01*
X041407Y025272D01*
X041272Y025407D01*
X041095Y025480D01*
X041082Y025480D01*
X041212Y025534D01*
X041366Y025688D01*
X041450Y025891D01*
X041450Y026109D01*
X041366Y026312D01*
X041212Y026466D01*
X041009Y026550D01*
X040791Y026550D01*
X040588Y026466D01*
X040434Y026312D01*
X040350Y026109D01*
X040350Y025891D01*
X040434Y025688D01*
X040588Y025534D01*
X040791Y025450D01*
X040832Y025450D01*
X040728Y025407D01*
X040593Y025272D01*
X040520Y025095D01*
X040520Y024905D01*
X040593Y024728D01*
X040673Y024648D01*
X039327Y024648D01*
X039407Y024728D01*
X039480Y024905D01*
X039480Y025095D01*
X039407Y025272D01*
X039272Y025407D01*
X039150Y025457D01*
X039150Y025512D01*
X039062Y025600D01*
X038743Y025919D01*
X038743Y026337D01*
X038697Y026449D01*
X038610Y026536D01*
X038498Y026582D01*
X038376Y026582D01*
X038263Y026536D01*
X038176Y026449D01*
X038130Y026337D01*
X038130Y025821D01*
X038176Y025708D01*
X038263Y025622D01*
X038376Y025575D01*
X038498Y025575D01*
X038610Y025622D01*
X038613Y025625D01*
X038801Y025437D01*
X038728Y025407D01*
X038593Y025272D01*
X038520Y025095D01*
X038520Y024905D01*
X038593Y024728D01*
X038673Y024648D01*
X038327Y024648D01*
X038407Y024728D01*
X038480Y024905D01*
X038480Y025095D01*
X038407Y025272D01*
X038272Y025407D01*
X038150Y025457D01*
X038150Y025462D01*
X038062Y025550D01*
X037907Y025705D01*
X037909Y025708D01*
X037956Y025821D01*
X037956Y026337D01*
X037909Y026449D01*
X037823Y026536D01*
X037710Y026582D01*
X037588Y026582D01*
X037475Y026536D01*
X037389Y026449D01*
X037342Y026337D01*
X037342Y025821D01*
X037389Y025708D01*
X037475Y025622D01*
X037588Y025575D01*
X037613Y025575D01*
X037765Y025422D01*
X037728Y025407D01*
X037593Y025272D01*
X037520Y025095D01*
X037520Y024905D01*
X037593Y024728D01*
X037673Y024648D01*
X037327Y024648D01*
X037407Y024728D01*
X037480Y024905D01*
X037480Y025095D01*
X037407Y025272D01*
X037272Y025407D01*
X037150Y025457D01*
X037150Y025512D01*
X037062Y025600D01*
X037038Y025624D01*
X037122Y025708D01*
X037169Y025821D01*
X037169Y026337D01*
X037122Y026449D01*
X037036Y026536D01*
X036923Y026582D01*
X036801Y026582D01*
X036688Y026536D01*
X036602Y026449D01*
X036555Y026337D01*
X036555Y025821D01*
X036602Y025708D01*
X036688Y025622D01*
X036712Y025612D01*
X036712Y025526D01*
X036801Y025437D01*
X036728Y025407D01*
X036593Y025272D01*
X036520Y025095D01*
X036520Y024905D01*
X036593Y024728D01*
X036673Y024648D01*
X036327Y024648D01*
X036407Y024728D01*
X036480Y024905D01*
X036480Y025095D01*
X036407Y025272D01*
X036272Y025407D01*
X036224Y025427D01*
X036224Y025612D01*
X036248Y025622D01*
X036335Y025708D01*
X036381Y025821D01*
X036381Y026337D01*
X036335Y026449D01*
X036248Y026536D01*
X036135Y026582D01*
X036013Y026582D01*
X035901Y026536D01*
X035814Y026449D01*
X035768Y026337D01*
X035768Y025821D01*
X035814Y025708D01*
X035901Y025622D01*
X035924Y025612D01*
X035924Y025537D01*
X035850Y025462D01*
X035850Y025457D01*
X035728Y025407D01*
X035593Y025272D01*
X035520Y025095D01*
X035520Y024905D01*
X035593Y024728D01*
X035673Y024648D01*
X035327Y024648D01*
X035407Y024728D01*
X035480Y024905D01*
X035480Y025095D01*
X035407Y025272D01*
X035272Y025407D01*
X035095Y025480D01*
X034905Y025480D01*
X034728Y025407D01*
X034593Y025272D01*
X034520Y025095D01*
X034520Y024905D01*
X034593Y024728D01*
X034673Y024648D01*
X034327Y024648D01*
X034407Y024728D01*
X034480Y024905D01*
X034480Y025095D01*
X034434Y025207D01*
X034660Y025433D01*
X034660Y025616D01*
X034673Y025622D01*
X034760Y025708D01*
X034806Y025821D01*
X034806Y026337D01*
X034760Y026449D01*
X034673Y026536D01*
X034561Y026582D01*
X034439Y026582D01*
X034326Y026536D01*
X034239Y026449D01*
X034193Y026337D01*
X034193Y025821D01*
X034239Y025708D01*
X034326Y025622D01*
X034340Y025616D01*
X034340Y025566D01*
X034207Y025434D01*
X034095Y025480D01*
X033905Y025480D01*
X033728Y025407D01*
X033593Y025272D01*
X033520Y025095D01*
X033520Y024905D01*
X033593Y024728D01*
X033673Y024648D01*
X033327Y024648D01*
X033407Y024728D01*
X033480Y024905D01*
X033480Y025095D01*
X033434Y025207D01*
X033821Y025595D01*
X033886Y025622D01*
X033972Y025708D01*
X034019Y025821D01*
X034019Y026337D01*
X033972Y026449D01*
X033886Y026536D01*
X033773Y026582D01*
X033651Y026582D01*
X033538Y026536D01*
X033452Y026449D01*
X033405Y026337D01*
X033405Y025821D01*
X033452Y025708D01*
X033467Y025693D01*
X033207Y025434D01*
X033095Y025480D01*
X032905Y025480D01*
X032728Y025407D01*
X032593Y025272D01*
X032520Y025095D01*
X032520Y024905D01*
X032593Y024728D01*
X032673Y024648D01*
X032327Y024648D01*
X032407Y024728D01*
X032480Y024905D01*
X032480Y025095D01*
X032434Y025207D01*
X032820Y025593D01*
X032864Y025575D01*
X032986Y025575D01*
X033099Y025622D01*
X033185Y025708D01*
X033232Y025821D01*
X033232Y026337D01*
X033185Y026449D01*
X033099Y026536D01*
X032986Y026582D01*
X032864Y026582D01*
X032751Y026536D01*
X032665Y026449D01*
X032618Y026337D01*
X032618Y025844D01*
X032207Y025434D01*
X032095Y025480D01*
X031905Y025480D01*
X031728Y025407D01*
X031593Y025272D01*
X031520Y025095D01*
X031520Y024905D01*
X031593Y024728D01*
X031673Y024648D01*
X031327Y024648D01*
X031407Y024728D01*
X031480Y024905D01*
X031480Y025095D01*
X031434Y025207D01*
X031906Y025680D01*
X031964Y025622D01*
X032076Y025575D01*
X032198Y025575D01*
X032311Y025622D01*
X032398Y025708D01*
X032444Y025821D01*
X032444Y026337D01*
X032398Y026449D01*
X032311Y026536D01*
X032198Y026582D01*
X032076Y026582D01*
X031964Y026536D01*
X031877Y026449D01*
X031831Y026337D01*
X031831Y026057D01*
X031657Y025883D01*
X031657Y026337D01*
X031610Y026449D01*
X031524Y026536D01*
X031411Y026582D01*
X031289Y026582D01*
X031176Y026536D01*
X031090Y026449D01*
X031043Y026337D01*
X031043Y026119D01*
X030869Y025946D01*
X030869Y026337D01*
X030823Y026449D01*
X030736Y026536D01*
X030624Y026582D01*
X030502Y026582D01*
X030389Y026536D01*
X030302Y026449D01*
X030256Y026337D01*
X030256Y026132D01*
X030082Y025958D01*
X030082Y026337D01*
X030035Y026449D01*
X029949Y026536D01*
X029836Y026582D01*
X029714Y026582D01*
X029601Y026536D01*
X029515Y026449D01*
X029468Y026337D01*
X029468Y026145D01*
X029295Y025971D01*
X029295Y026337D01*
X029248Y026449D01*
X029162Y026536D01*
X029049Y026582D01*
X028927Y026582D01*
X028814Y026536D01*
X028728Y026449D01*
X028681Y026337D01*
X028681Y026107D01*
X028507Y025934D01*
X028507Y026337D01*
X028461Y026449D01*
X028374Y026536D01*
X028261Y026582D01*
X028139Y026582D01*
X028027Y026536D01*
X027940Y026449D01*
X027894Y026337D01*
X027894Y026120D01*
X027484Y025710D01*
X026887Y025710D01*
X026932Y025821D01*
X026932Y026337D01*
X026886Y026449D01*
X026808Y026527D01*
X026808Y026586D01*
X026812Y026614D01*
X026815Y026638D01*
X026815Y026638D01*
X026808Y026647D01*
X026808Y026686D01*
X026686Y026808D01*
X026514Y026808D01*
X026392Y026686D01*
X026392Y026598D01*
X026383Y026575D01*
X026392Y026555D01*
X026392Y026514D01*
X026411Y026495D01*
X026365Y026449D01*
X026319Y026337D01*
X026319Y025821D01*
X026365Y025708D01*
X026424Y025650D01*
X026207Y025434D01*
X026095Y025480D01*
X025905Y025480D01*
X025728Y025407D01*
X025593Y025272D01*
X025520Y025095D01*
X025520Y024905D01*
X025593Y024728D01*
X025673Y024648D01*
X024327Y024648D01*
X024407Y024728D01*
X024480Y024905D01*
X024480Y025095D01*
X024407Y025272D01*
X024272Y025407D01*
X024095Y025480D01*
X024079Y025480D01*
X022110Y027449D01*
X022110Y029900D01*
X023163Y029900D01*
X023187Y029890D01*
X023319Y029890D01*
X023343Y029900D01*
X023712Y029900D01*
X023800Y029988D01*
X023800Y031477D01*
X023800Y031395D02*
X030067Y031395D01*
X030165Y031297D02*
X023800Y031297D01*
X023800Y031198D02*
X030264Y031198D01*
X030362Y031100D02*
X023800Y031100D01*
X023800Y031001D02*
X030461Y031001D01*
X030559Y030903D02*
X023800Y030903D01*
X023800Y030804D02*
X030658Y030804D01*
X030756Y030706D02*
X023800Y030706D01*
X023800Y030607D02*
X030855Y030607D01*
X030953Y030509D02*
X023800Y030509D01*
X023800Y030410D02*
X031052Y030410D01*
X031150Y030312D02*
X023800Y030312D01*
X023800Y030213D02*
X031249Y030213D01*
X031347Y030115D02*
X023800Y030115D01*
X023800Y030016D02*
X031446Y030016D01*
X031544Y029918D02*
X023730Y029918D01*
X023537Y028945D02*
X023021Y028945D01*
X022908Y028898D01*
X022822Y028812D01*
X022775Y028699D01*
X022775Y028577D01*
X022822Y028464D01*
X022908Y028378D01*
X023021Y028331D01*
X023537Y028331D01*
X023650Y028378D01*
X023714Y028442D01*
X023786Y028442D01*
X023908Y028564D01*
X023908Y028736D01*
X023786Y028858D01*
X023708Y028858D01*
X023690Y028867D01*
X023690Y028867D01*
X023690Y028867D01*
X023683Y028865D01*
X023650Y028898D01*
X023537Y028945D01*
X023566Y028933D02*
X032529Y028933D01*
X032431Y029031D02*
X022110Y029031D01*
X022110Y028933D02*
X022992Y028933D01*
X022845Y028834D02*
X022110Y028834D01*
X022110Y028736D02*
X022791Y028736D01*
X022775Y028637D02*
X022110Y028637D01*
X022110Y028539D02*
X022791Y028539D01*
X022846Y028440D02*
X022110Y028440D01*
X022110Y028342D02*
X022996Y028342D01*
X023021Y028157D02*
X022908Y028111D01*
X022822Y028024D01*
X022775Y027911D01*
X022775Y027789D01*
X022822Y027677D01*
X022908Y027590D01*
X023021Y027544D01*
X023294Y027544D01*
X023468Y027370D01*
X023021Y027370D01*
X022908Y027323D01*
X022822Y027237D01*
X022775Y027124D01*
X022775Y027002D01*
X022822Y026889D01*
X022908Y026803D01*
X023021Y026756D01*
X023537Y026756D01*
X023604Y026784D01*
X023650Y026738D01*
X023738Y026650D01*
X023789Y026650D01*
X023814Y026638D01*
X023823Y026641D01*
X023886Y026619D01*
X023914Y026592D01*
X023965Y026592D01*
X023990Y026583D01*
X024008Y026592D01*
X024032Y026592D01*
X024032Y026590D01*
X024034Y026582D01*
X024042Y026563D01*
X024042Y026514D01*
X024055Y026501D01*
X024003Y026449D01*
X023957Y026337D01*
X023957Y025821D01*
X024003Y025708D01*
X024090Y025622D01*
X024202Y025575D01*
X024324Y025575D01*
X024437Y025622D01*
X024524Y025708D01*
X024570Y025821D01*
X024570Y026337D01*
X024524Y026449D01*
X024458Y026515D01*
X024458Y026579D01*
X024467Y026623D01*
X024467Y026623D01*
X024467Y026623D01*
X024458Y026637D01*
X024458Y026686D01*
X024336Y026808D01*
X024208Y026808D01*
X024208Y026886D01*
X024086Y027008D01*
X024058Y027008D01*
X024058Y027075D01*
X024064Y027091D01*
X024058Y027101D01*
X024058Y027136D01*
X024020Y027175D01*
X024000Y027213D01*
X024000Y027262D01*
X023947Y027315D01*
X023929Y027350D01*
X023920Y027353D01*
X023914Y027361D01*
X023898Y027364D01*
X023887Y027375D01*
X023661Y027601D01*
X023736Y027677D01*
X023783Y027789D01*
X023783Y027911D01*
X023736Y028024D01*
X023650Y028111D01*
X023537Y028157D01*
X023021Y028157D01*
X022991Y028145D02*
X022110Y028145D01*
X022110Y028243D02*
X033219Y028243D01*
X033317Y028145D02*
X023568Y028145D01*
X023714Y028046D02*
X033416Y028046D01*
X033514Y027948D02*
X023768Y027948D01*
X023783Y027849D02*
X033613Y027849D01*
X033711Y027751D02*
X023767Y027751D01*
X023712Y027652D02*
X033810Y027652D01*
X033908Y027554D02*
X023709Y027554D01*
X023807Y027455D02*
X034007Y027455D01*
X034105Y027357D02*
X023917Y027357D01*
X024000Y027258D02*
X034204Y027258D01*
X034302Y027160D02*
X024035Y027160D01*
X024064Y027091D02*
X024064Y027091D01*
X024064Y027091D01*
X024058Y027061D02*
X034401Y027061D01*
X034499Y026963D02*
X024132Y026963D01*
X024208Y026864D02*
X034598Y026864D01*
X034696Y026766D02*
X026729Y026766D01*
X026808Y026667D02*
X034795Y026667D01*
X034739Y026470D02*
X035835Y026470D01*
X035782Y026372D02*
X034792Y026372D01*
X034806Y026273D02*
X035768Y026273D01*
X035768Y026175D02*
X034806Y026175D01*
X034806Y026076D02*
X035768Y026076D01*
X035768Y025978D02*
X034806Y025978D01*
X034806Y025879D02*
X035768Y025879D01*
X035784Y025781D02*
X034790Y025781D01*
X034734Y025682D02*
X035840Y025682D01*
X035924Y025584D02*
X034660Y025584D01*
X034660Y025485D02*
X035873Y025485D01*
X035708Y025387D02*
X035292Y025387D01*
X035391Y025288D02*
X035609Y025288D01*
X035559Y025190D02*
X035441Y025190D01*
X035480Y025091D02*
X035520Y025091D01*
X035520Y024993D02*
X035480Y024993D01*
X035476Y024894D02*
X035524Y024894D01*
X035565Y024796D02*
X035435Y024796D01*
X035376Y024697D02*
X035624Y024697D01*
X036376Y024697D02*
X036624Y024697D01*
X036565Y024796D02*
X036435Y024796D01*
X036476Y024894D02*
X036524Y024894D01*
X036520Y024993D02*
X036480Y024993D01*
X036480Y025091D02*
X036520Y025091D01*
X036559Y025190D02*
X036441Y025190D01*
X036391Y025288D02*
X036609Y025288D01*
X036708Y025387D02*
X036292Y025387D01*
X036224Y025485D02*
X036753Y025485D01*
X036712Y025584D02*
X036224Y025584D01*
X036308Y025682D02*
X036628Y025682D01*
X036572Y025781D02*
X036365Y025781D01*
X036381Y025879D02*
X036555Y025879D01*
X036555Y025978D02*
X036381Y025978D01*
X036381Y026076D02*
X036555Y026076D01*
X036555Y026175D02*
X036381Y026175D01*
X036381Y026273D02*
X036555Y026273D01*
X036569Y026372D02*
X036367Y026372D01*
X036314Y026470D02*
X036622Y026470D01*
X036767Y026569D02*
X036169Y026569D01*
X035980Y026569D02*
X034594Y026569D01*
X034405Y026569D02*
X033807Y026569D01*
X033952Y026470D02*
X034260Y026470D01*
X034207Y026372D02*
X034005Y026372D01*
X034019Y026273D02*
X034193Y026273D01*
X034193Y026175D02*
X034019Y026175D01*
X034019Y026076D02*
X034193Y026076D01*
X034193Y025978D02*
X034019Y025978D01*
X034019Y025879D02*
X034193Y025879D01*
X034209Y025781D02*
X034002Y025781D01*
X033946Y025682D02*
X034266Y025682D01*
X034340Y025584D02*
X033810Y025584D01*
X033711Y025485D02*
X034259Y025485D01*
X034500Y025500D02*
X034000Y025000D01*
X034441Y025190D02*
X034559Y025190D01*
X034520Y025091D02*
X034480Y025091D01*
X034480Y024993D02*
X034520Y024993D01*
X034524Y024894D02*
X034476Y024894D01*
X034435Y024796D02*
X034565Y024796D01*
X034624Y024697D02*
X034376Y024697D01*
X034514Y025288D02*
X034609Y025288D01*
X034613Y025387D02*
X034708Y025387D01*
X034500Y025500D02*
X034500Y026079D01*
X033712Y026079D02*
X033712Y025712D01*
X033000Y025000D01*
X033441Y025190D02*
X033559Y025190D01*
X033520Y025091D02*
X033480Y025091D01*
X033480Y024993D02*
X033520Y024993D01*
X033524Y024894D02*
X033476Y024894D01*
X033435Y024796D02*
X033565Y024796D01*
X033624Y024697D02*
X033376Y024697D01*
X033514Y025288D02*
X033609Y025288D01*
X033613Y025387D02*
X033708Y025387D01*
X033456Y025682D02*
X033159Y025682D01*
X033215Y025781D02*
X033422Y025781D01*
X033405Y025879D02*
X033232Y025879D01*
X033232Y025978D02*
X033405Y025978D01*
X033405Y026076D02*
X033232Y026076D01*
X033232Y026175D02*
X033405Y026175D01*
X033405Y026273D02*
X033232Y026273D01*
X033217Y026372D02*
X033420Y026372D01*
X033473Y026470D02*
X033164Y026470D01*
X033019Y026569D02*
X033618Y026569D01*
X032830Y026569D02*
X032232Y026569D01*
X032377Y026470D02*
X032685Y026470D01*
X032632Y026372D02*
X032430Y026372D01*
X032444Y026273D02*
X032618Y026273D01*
X032618Y026175D02*
X032444Y026175D01*
X032444Y026076D02*
X032618Y026076D01*
X032618Y025978D02*
X032444Y025978D01*
X032444Y025879D02*
X032618Y025879D01*
X032554Y025781D02*
X032428Y025781D01*
X032456Y025682D02*
X032371Y025682D01*
X032357Y025584D02*
X032219Y025584D01*
X032259Y025485D02*
X031711Y025485D01*
X031708Y025387D02*
X031613Y025387D01*
X031609Y025288D02*
X031514Y025288D01*
X031559Y025190D02*
X031441Y025190D01*
X031480Y025091D02*
X031520Y025091D01*
X031520Y024993D02*
X031480Y024993D01*
X031476Y024894D02*
X031524Y024894D01*
X031565Y024796D02*
X031435Y024796D01*
X031376Y024697D02*
X031624Y024697D01*
X032000Y025000D02*
X032925Y025925D01*
X032925Y026079D01*
X033006Y025584D02*
X033357Y025584D01*
X033259Y025485D02*
X032711Y025485D01*
X032708Y025387D02*
X032613Y025387D01*
X032609Y025288D02*
X032514Y025288D01*
X032559Y025190D02*
X032441Y025190D01*
X032480Y025091D02*
X032520Y025091D01*
X032520Y024993D02*
X032480Y024993D01*
X032476Y024894D02*
X032524Y024894D01*
X032565Y024796D02*
X032435Y024796D01*
X032376Y024697D02*
X032624Y024697D01*
X032810Y025584D02*
X032843Y025584D01*
X032056Y025584D02*
X031810Y025584D01*
X031751Y025978D02*
X031657Y025978D01*
X031657Y026076D02*
X031831Y026076D01*
X031831Y026175D02*
X031657Y026175D01*
X031657Y026273D02*
X031831Y026273D01*
X031845Y026372D02*
X031642Y026372D01*
X031590Y026470D02*
X031898Y026470D01*
X032043Y026569D02*
X031445Y026569D01*
X031255Y026569D02*
X030657Y026569D01*
X030802Y026470D02*
X031110Y026470D01*
X031058Y026372D02*
X030855Y026372D01*
X030869Y026273D02*
X031043Y026273D01*
X031043Y026175D02*
X030869Y026175D01*
X030869Y026076D02*
X031000Y026076D01*
X030901Y025978D02*
X030869Y025978D01*
X030563Y026079D02*
X030429Y026079D01*
X029900Y025550D01*
X029550Y025550D01*
X029000Y025000D01*
X028600Y025550D02*
X028050Y025000D01*
X028000Y025000D01*
X027800Y025550D02*
X027250Y025000D01*
X027000Y025000D01*
X026550Y025550D02*
X026000Y025000D01*
X025559Y025190D02*
X024441Y025190D01*
X024480Y025091D02*
X025520Y025091D01*
X025520Y024993D02*
X024480Y024993D01*
X024476Y024894D02*
X025524Y024894D01*
X025565Y024796D02*
X024435Y024796D01*
X024376Y024697D02*
X025624Y024697D01*
X025609Y025288D02*
X024391Y025288D01*
X024292Y025387D02*
X025708Y025387D01*
X025777Y025575D02*
X025899Y025575D01*
X026012Y025622D01*
X026098Y025708D01*
X026145Y025821D01*
X026145Y026337D01*
X026098Y026449D01*
X026012Y026536D01*
X026008Y026537D01*
X026008Y026594D01*
X026012Y026654D01*
X026008Y026658D01*
X026008Y026686D01*
X025886Y026808D01*
X025714Y026808D01*
X025592Y026686D01*
X025592Y026581D01*
X025585Y026559D01*
X025592Y026547D01*
X025592Y026514D01*
X025617Y026488D01*
X025578Y026449D01*
X025531Y026337D01*
X025531Y025821D01*
X025578Y025708D01*
X025664Y025622D01*
X025777Y025575D01*
X025757Y025584D02*
X025132Y025584D01*
X025112Y025575D02*
X025225Y025622D01*
X025311Y025708D01*
X025358Y025821D01*
X025358Y026337D01*
X025311Y026449D01*
X025253Y026508D01*
X025258Y026514D01*
X025258Y026571D01*
X025269Y026608D01*
X025258Y026626D01*
X025258Y026686D01*
X025136Y026808D01*
X024964Y026808D01*
X024842Y026686D01*
X024842Y026624D01*
X024831Y026606D01*
X024842Y026570D01*
X024842Y026514D01*
X024848Y026507D01*
X024791Y026449D01*
X024744Y026337D01*
X024744Y025821D01*
X024791Y025708D01*
X024877Y025622D01*
X024990Y025575D01*
X025112Y025575D01*
X024969Y025584D02*
X024345Y025584D01*
X024182Y025584D02*
X023976Y025584D01*
X024029Y025682D02*
X023877Y025682D01*
X023973Y025781D02*
X023779Y025781D01*
X023680Y025879D02*
X023957Y025879D01*
X023957Y025978D02*
X023582Y025978D01*
X023483Y026076D02*
X023957Y026076D01*
X023957Y026175D02*
X023385Y026175D01*
X023286Y026273D02*
X023957Y026273D01*
X023971Y026372D02*
X023188Y026372D01*
X023089Y026470D02*
X024024Y026470D01*
X024040Y026569D02*
X022991Y026569D01*
X022892Y026667D02*
X023721Y026667D01*
X023622Y026766D02*
X023560Y026766D01*
X023990Y026583D02*
X023990Y026583D01*
X023990Y026583D01*
X024205Y026583D02*
X024250Y026600D01*
X024297Y026590D01*
X024263Y026423D01*
X024205Y026583D01*
X024250Y026600D02*
X024263Y026587D01*
X024263Y026423D01*
X024263Y026079D01*
X024570Y026076D02*
X024744Y026076D01*
X024744Y025978D02*
X024570Y025978D01*
X024570Y025879D02*
X024744Y025879D01*
X024761Y025781D02*
X024554Y025781D01*
X024497Y025682D02*
X024817Y025682D01*
X025051Y026079D02*
X025051Y026423D01*
X025003Y026587D01*
X025050Y026600D01*
X025097Y026587D01*
X025051Y026423D01*
X025051Y026599D01*
X025050Y026600D01*
X025179Y026766D02*
X025671Y026766D01*
X025592Y026667D02*
X025258Y026667D01*
X025269Y026608D02*
X025269Y026608D01*
X025269Y026608D01*
X025258Y026569D02*
X025588Y026569D01*
X025599Y026470D02*
X025290Y026470D01*
X025343Y026372D02*
X025546Y026372D01*
X025531Y026273D02*
X025358Y026273D01*
X025358Y026175D02*
X025531Y026175D01*
X025531Y026076D02*
X025358Y026076D01*
X025358Y025978D02*
X025531Y025978D01*
X025531Y025879D02*
X025358Y025879D01*
X025341Y025781D02*
X025548Y025781D01*
X025604Y025682D02*
X025285Y025682D01*
X025920Y025584D02*
X026357Y025584D01*
X026392Y025682D02*
X026072Y025682D01*
X026128Y025781D02*
X026335Y025781D01*
X026319Y025879D02*
X026145Y025879D01*
X026145Y025978D02*
X026319Y025978D01*
X026319Y026076D02*
X026145Y026076D01*
X026145Y026175D02*
X026319Y026175D01*
X026319Y026273D02*
X026145Y026273D01*
X026131Y026372D02*
X026333Y026372D01*
X026386Y026470D02*
X026078Y026470D01*
X026008Y026569D02*
X026386Y026569D01*
X026383Y026575D02*
X026383Y026575D01*
X026392Y026667D02*
X026008Y026667D01*
X026012Y026654D02*
X026012Y026654D01*
X026012Y026654D01*
X025929Y026766D02*
X026471Y026766D01*
X026556Y026580D02*
X026600Y026600D01*
X026648Y026594D01*
X026626Y026425D01*
X026556Y026580D01*
X026600Y026600D02*
X026626Y026574D01*
X026626Y026425D01*
X026626Y026079D01*
X026932Y026076D02*
X027850Y026076D01*
X027894Y026175D02*
X026932Y026175D01*
X026932Y026273D02*
X027894Y026273D01*
X027908Y026372D02*
X026918Y026372D01*
X026865Y026470D02*
X027961Y026470D01*
X028106Y026569D02*
X026808Y026569D01*
X026932Y025978D02*
X027751Y025978D01*
X027653Y025879D02*
X026932Y025879D01*
X026916Y025781D02*
X027554Y025781D01*
X027550Y025550D02*
X026550Y025550D01*
X026259Y025485D02*
X024074Y025485D01*
X023056Y025485D02*
X021694Y025485D01*
X021609Y025450D02*
X021812Y025534D01*
X021966Y025688D01*
X022050Y025891D01*
X022050Y026109D01*
X021966Y026312D01*
X021812Y026466D01*
X021609Y026550D01*
X021391Y026550D01*
X021188Y026466D01*
X021034Y026312D01*
X020950Y026109D01*
X020950Y025891D01*
X021034Y025688D01*
X021188Y025534D01*
X021391Y025450D01*
X021609Y025450D01*
X021708Y025387D02*
X021292Y025387D01*
X021306Y025485D02*
X018073Y025485D01*
X018089Y025584D02*
X021139Y025584D01*
X021040Y025682D02*
X018089Y025682D01*
X018089Y025781D02*
X020996Y025781D01*
X020955Y025879D02*
X018089Y025879D01*
X018089Y025978D02*
X020950Y025978D01*
X020950Y026076D02*
X018089Y026076D01*
X018089Y026175D02*
X020977Y026175D01*
X021018Y026273D02*
X018038Y026273D01*
X017799Y025436D02*
X016648Y025436D01*
X016648Y024648D01*
X017673Y024648D01*
X017593Y024728D01*
X017520Y024905D01*
X017520Y025095D01*
X017593Y025272D01*
X017728Y025407D01*
X017799Y025436D01*
X017708Y025387D02*
X016648Y025387D01*
X016648Y025288D02*
X017609Y025288D01*
X017559Y025190D02*
X016648Y025190D01*
X016648Y025091D02*
X017520Y025091D01*
X017520Y024993D02*
X016648Y024993D01*
X016648Y024894D02*
X017524Y024894D01*
X017565Y024796D02*
X016648Y024796D01*
X016648Y024697D02*
X017624Y024697D01*
X018376Y024697D02*
X018624Y024697D01*
X018565Y024796D02*
X018435Y024796D01*
X018476Y024894D02*
X018524Y024894D01*
X018520Y024993D02*
X018480Y024993D01*
X018480Y025091D02*
X018520Y025091D01*
X018559Y025190D02*
X018441Y025190D01*
X018391Y025288D02*
X018609Y025288D01*
X018708Y025387D02*
X018292Y025387D01*
X019292Y025387D02*
X019708Y025387D01*
X019609Y025288D02*
X019391Y025288D01*
X019441Y025190D02*
X019559Y025190D01*
X019520Y025091D02*
X019480Y025091D01*
X019480Y024993D02*
X019520Y024993D01*
X019524Y024894D02*
X019476Y024894D01*
X019435Y024796D02*
X019565Y024796D01*
X019624Y024697D02*
X019376Y024697D01*
X020376Y024697D02*
X020624Y024697D01*
X020565Y024796D02*
X020435Y024796D01*
X020476Y024894D02*
X020524Y024894D01*
X020520Y024993D02*
X020480Y024993D01*
X020480Y025091D02*
X020520Y025091D01*
X020559Y025190D02*
X020441Y025190D01*
X020391Y025288D02*
X020609Y025288D01*
X020708Y025387D02*
X020292Y025387D01*
X021391Y025288D02*
X021609Y025288D01*
X021559Y025190D02*
X021441Y025190D01*
X021480Y025091D02*
X021520Y025091D01*
X021520Y024993D02*
X021480Y024993D01*
X021476Y024894D02*
X021524Y024894D01*
X021565Y024796D02*
X021435Y024796D01*
X021376Y024697D02*
X021624Y024697D01*
X022376Y024697D02*
X022624Y024697D01*
X022565Y024796D02*
X022435Y024796D01*
X022476Y024894D02*
X022524Y024894D01*
X022520Y024993D02*
X022480Y024993D01*
X022480Y025091D02*
X022520Y025091D01*
X022559Y025190D02*
X022441Y025190D01*
X022391Y025288D02*
X022609Y025288D01*
X022708Y025387D02*
X022292Y025387D01*
X021960Y025682D02*
X022859Y025682D01*
X022957Y025584D02*
X021861Y025584D01*
X022004Y025781D02*
X022760Y025781D01*
X022662Y025879D02*
X022045Y025879D01*
X022050Y025978D02*
X022563Y025978D01*
X022465Y026076D02*
X022050Y026076D01*
X022023Y026175D02*
X022366Y026175D01*
X022268Y026273D02*
X021982Y026273D01*
X021906Y026372D02*
X022169Y026372D01*
X022071Y026470D02*
X021803Y026470D01*
X021972Y026569D02*
X016648Y026569D01*
X016648Y026667D02*
X021874Y026667D01*
X021775Y026766D02*
X016648Y026766D01*
X016648Y026864D02*
X021677Y026864D01*
X021578Y026963D02*
X016648Y026963D01*
X016648Y027061D02*
X021480Y027061D01*
X021419Y027160D02*
X016648Y027160D01*
X016648Y027258D02*
X021390Y027258D01*
X021390Y027357D02*
X020372Y027357D01*
X020372Y027360D02*
X020400Y027388D01*
X020400Y028262D01*
X020312Y028350D01*
X018438Y028350D01*
X018350Y028262D01*
X018350Y027845D01*
X018341Y027836D01*
X018341Y027351D01*
X018406Y027287D01*
X020308Y027287D01*
X020372Y027351D01*
X020372Y027360D01*
X020400Y027455D02*
X021390Y027455D01*
X021390Y027554D02*
X020400Y027554D01*
X020400Y027652D02*
X021390Y027652D01*
X021390Y027751D02*
X020400Y027751D01*
X020400Y027849D02*
X021390Y027849D01*
X021390Y027948D02*
X020400Y027948D01*
X020400Y028046D02*
X021390Y028046D01*
X021390Y028145D02*
X020400Y028145D01*
X020400Y028243D02*
X021390Y028243D01*
X021390Y028342D02*
X020321Y028342D01*
X021390Y028440D02*
X018089Y028440D01*
X018089Y028342D02*
X018429Y028342D01*
X018350Y028243D02*
X018089Y028243D01*
X018055Y028145D02*
X018350Y028145D01*
X018350Y028046D02*
X016648Y028046D01*
X016648Y027948D02*
X018350Y027948D01*
X018350Y027849D02*
X016648Y027849D01*
X016648Y027751D02*
X018341Y027751D01*
X018341Y027652D02*
X016648Y027652D01*
X016648Y027554D02*
X018341Y027554D01*
X018341Y027455D02*
X016648Y027455D01*
X016648Y027357D02*
X018341Y027357D01*
X018554Y028834D02*
X018089Y028834D01*
X018055Y028933D02*
X018500Y028933D01*
X018500Y029031D02*
X016648Y029031D01*
X016648Y029130D02*
X018500Y029130D01*
X018500Y029228D02*
X016648Y029228D01*
X016648Y029327D02*
X018500Y029327D01*
X018500Y029425D02*
X016648Y029425D01*
X016648Y029524D02*
X018500Y029524D01*
X018500Y029622D02*
X016648Y029622D01*
X016648Y029721D02*
X018500Y029721D01*
X018500Y029819D02*
X016648Y029819D01*
X016648Y029918D02*
X018500Y029918D01*
X018500Y030016D02*
X018084Y030016D01*
X018063Y029995D02*
X018135Y030067D01*
X018174Y030162D01*
X018174Y030264D01*
X018135Y030358D01*
X018063Y030430D01*
X017968Y030469D01*
X017866Y030469D01*
X017772Y030430D01*
X017700Y030358D01*
X017661Y030264D01*
X017661Y030162D01*
X017700Y030067D01*
X017772Y029995D01*
X017866Y029956D01*
X017968Y029956D01*
X018063Y029995D01*
X018155Y030115D02*
X018500Y030115D01*
X018500Y030213D02*
X018174Y030213D01*
X018154Y030312D02*
X018500Y030312D01*
X018500Y030410D02*
X018083Y030410D01*
X017752Y030410D02*
X016648Y030410D01*
X016648Y030312D02*
X017680Y030312D01*
X017661Y030213D02*
X016648Y030213D01*
X016648Y030115D02*
X017680Y030115D01*
X017751Y030016D02*
X016648Y030016D01*
X016648Y030509D02*
X018500Y030509D01*
X018487Y030607D02*
X018500Y030607D01*
X018500Y030706D02*
X018500Y030706D01*
X018500Y030804D02*
X018500Y030804D01*
X018500Y030903D02*
X018500Y030903D01*
X018500Y031001D02*
X018500Y031001D01*
X018500Y031100D02*
X018500Y031100D01*
X018500Y031198D02*
X018500Y031198D01*
X018500Y031250D02*
X018500Y031250D01*
X017748Y031297D02*
X016648Y031297D01*
X016648Y031395D02*
X017748Y031395D01*
X017748Y031494D02*
X016648Y031494D01*
X016648Y031592D02*
X017748Y031592D01*
X017680Y031691D02*
X016648Y031691D01*
X016648Y031789D02*
X017661Y031789D01*
X017681Y031888D02*
X016648Y031888D01*
X016648Y031986D02*
X017750Y031986D01*
X017822Y032085D02*
X016648Y032085D01*
X016648Y032183D02*
X018521Y032183D01*
X018619Y032282D02*
X016648Y032282D01*
X016648Y032380D02*
X018918Y032380D01*
X018940Y032479D02*
X016648Y032479D01*
X016648Y032577D02*
X018940Y032577D01*
X018942Y032676D02*
X016648Y032676D01*
X016648Y032774D02*
X018940Y032774D01*
X018940Y032873D02*
X016648Y032873D01*
X016648Y032971D02*
X018917Y032971D01*
X018818Y033070D02*
X018664Y033070D01*
X018645Y033750D02*
X018586Y033808D01*
X018497Y033808D01*
X018496Y033810D01*
X018216Y033810D01*
X018260Y033854D01*
X018260Y034146D01*
X018206Y034200D01*
X018260Y034254D01*
X018260Y034450D01*
X019312Y034450D01*
X021062Y036200D01*
X021150Y036288D01*
X021150Y036543D01*
X021272Y036593D01*
X021407Y036728D01*
X021480Y036905D01*
X021480Y037095D01*
X021407Y037272D01*
X021327Y037352D01*
X022673Y037352D01*
X022593Y037272D01*
X022520Y037095D01*
X022520Y037029D01*
X021445Y035954D01*
X021390Y035822D01*
X021390Y033810D01*
X019728Y033810D01*
X019669Y033785D01*
X019568Y033794D01*
X019562Y033800D01*
X019507Y033800D01*
X019452Y033805D01*
X019446Y033800D01*
X019438Y033800D01*
X019399Y033761D01*
X019373Y033739D01*
X019362Y033750D01*
X019356Y033750D01*
X019346Y033760D01*
X018654Y033760D01*
X018645Y033750D01*
X018636Y033759D02*
X018653Y033759D01*
X018260Y033858D02*
X021390Y033858D01*
X021390Y033956D02*
X018260Y033956D01*
X018260Y034055D02*
X021390Y034055D01*
X021390Y034153D02*
X018253Y034153D01*
X018257Y034252D02*
X021390Y034252D01*
X021390Y034350D02*
X018260Y034350D01*
X018260Y034449D02*
X021390Y034449D01*
X021390Y034547D02*
X019409Y034547D01*
X019508Y034646D02*
X021390Y034646D01*
X021390Y034744D02*
X019606Y034744D01*
X019705Y034843D02*
X021390Y034843D01*
X021390Y034941D02*
X019803Y034941D01*
X019902Y035040D02*
X021390Y035040D01*
X021390Y035138D02*
X020000Y035138D01*
X020099Y035237D02*
X021390Y035237D01*
X021390Y035335D02*
X020197Y035335D01*
X020296Y035434D02*
X021390Y035434D01*
X021390Y035532D02*
X020394Y035532D01*
X020493Y035631D02*
X021390Y035631D01*
X021390Y035729D02*
X020591Y035729D01*
X020690Y035828D02*
X021392Y035828D01*
X021433Y035926D02*
X020788Y035926D01*
X020887Y036025D02*
X021515Y036025D01*
X021614Y036123D02*
X020985Y036123D01*
X021084Y036222D02*
X021712Y036222D01*
X021811Y036320D02*
X021150Y036320D01*
X021150Y036419D02*
X021909Y036419D01*
X022008Y036517D02*
X021150Y036517D01*
X021294Y036616D02*
X022106Y036616D01*
X022205Y036714D02*
X021393Y036714D01*
X021442Y036813D02*
X022303Y036813D01*
X022402Y036911D02*
X021480Y036911D01*
X021480Y037010D02*
X022500Y037010D01*
X022525Y037108D02*
X021475Y037108D01*
X021434Y037207D02*
X022566Y037207D01*
X022626Y037305D02*
X021374Y037305D01*
X020673Y037352D02*
X020593Y037272D01*
X020520Y037095D01*
X020520Y036905D01*
X020593Y036728D01*
X020728Y036593D01*
X020850Y036543D01*
X020850Y036412D01*
X019188Y034750D01*
X018708Y034750D01*
X018708Y034886D01*
X018586Y035008D01*
X018497Y035008D01*
X018496Y035010D01*
X018204Y035010D01*
X018200Y035006D01*
X018196Y035010D01*
X018150Y035010D01*
X018150Y035712D01*
X018062Y035800D01*
X017612Y036250D01*
X017508Y036250D01*
X017450Y036308D01*
X017083Y036308D01*
X017019Y036244D01*
X017019Y035956D01*
X017083Y035892D01*
X017450Y035892D01*
X017498Y035940D01*
X017850Y035588D01*
X017850Y034956D01*
X017840Y034946D01*
X017840Y034910D01*
X017776Y034988D01*
X017826Y035038D01*
X017826Y035581D01*
X017762Y035646D01*
X017159Y035646D01*
X017094Y035581D01*
X017094Y035173D01*
X017023Y035244D01*
X016911Y035291D01*
X016789Y035291D01*
X016677Y035244D01*
X016648Y035216D01*
X016648Y036520D01*
X017416Y036520D01*
X017480Y036584D01*
X017480Y037352D01*
X017673Y037352D01*
X017593Y037272D01*
X017520Y037095D01*
X017520Y036905D01*
X017593Y036728D01*
X017728Y036593D01*
X017905Y036520D01*
X018095Y036520D01*
X018272Y036593D01*
X018407Y036728D01*
X018480Y036905D01*
X018480Y037095D01*
X018407Y037272D01*
X018327Y037352D01*
X018673Y037352D01*
X018593Y037272D01*
X018520Y037095D01*
X018520Y036905D01*
X018593Y036728D01*
X018728Y036593D01*
X018905Y036520D01*
X019095Y036520D01*
X019272Y036593D01*
X019407Y036728D01*
X019480Y036905D01*
X019480Y037095D01*
X019407Y037272D01*
X019327Y037352D01*
X019673Y037352D01*
X019593Y037272D01*
X019520Y037095D01*
X019520Y036905D01*
X019593Y036728D01*
X019728Y036593D01*
X019905Y036520D01*
X020095Y036520D01*
X020272Y036593D01*
X020407Y036728D01*
X020480Y036905D01*
X020480Y037095D01*
X020407Y037272D01*
X020327Y037352D01*
X020673Y037352D01*
X020626Y037305D02*
X020374Y037305D01*
X020434Y037207D02*
X020566Y037207D01*
X020525Y037108D02*
X020475Y037108D01*
X020480Y037010D02*
X020520Y037010D01*
X020520Y036911D02*
X020480Y036911D01*
X020442Y036813D02*
X020558Y036813D01*
X020607Y036714D02*
X020393Y036714D01*
X020294Y036616D02*
X020706Y036616D01*
X020850Y036517D02*
X016648Y036517D01*
X016648Y036419D02*
X018701Y036419D01*
X018559Y036360D02*
X018340Y036141D01*
X018222Y035855D01*
X018222Y035545D01*
X018340Y035259D01*
X018559Y035040D01*
X018845Y034922D01*
X019155Y034922D01*
X019441Y035040D01*
X019660Y035259D01*
X019778Y035545D01*
X019778Y035855D01*
X019660Y036141D01*
X019441Y036360D01*
X019155Y036478D01*
X018845Y036478D01*
X018559Y036360D01*
X018519Y036320D02*
X016648Y036320D01*
X016648Y036222D02*
X017019Y036222D01*
X017019Y036123D02*
X016648Y036123D01*
X016648Y036025D02*
X017019Y036025D01*
X017049Y035926D02*
X016648Y035926D01*
X016648Y035828D02*
X017610Y035828D01*
X017512Y035926D02*
X017484Y035926D01*
X017709Y035729D02*
X016648Y035729D01*
X016648Y035631D02*
X017143Y035631D01*
X017094Y035532D02*
X016648Y035532D01*
X016648Y035434D02*
X017094Y035434D01*
X017094Y035335D02*
X016648Y035335D01*
X016648Y035237D02*
X016669Y035237D01*
X017031Y035237D02*
X017094Y035237D01*
X017826Y035237D02*
X017850Y035237D01*
X017850Y035335D02*
X017826Y035335D01*
X017826Y035434D02*
X017850Y035434D01*
X017850Y035532D02*
X017826Y035532D01*
X017807Y035631D02*
X017777Y035631D01*
X018035Y035828D02*
X018222Y035828D01*
X018222Y035729D02*
X018133Y035729D01*
X018150Y035631D02*
X018222Y035631D01*
X018227Y035532D02*
X018150Y035532D01*
X018150Y035434D02*
X018268Y035434D01*
X018309Y035335D02*
X018150Y035335D01*
X018150Y035237D02*
X018363Y035237D01*
X018461Y035138D02*
X018150Y035138D01*
X018150Y035040D02*
X018561Y035040D01*
X018654Y034941D02*
X018798Y034941D01*
X018708Y034843D02*
X019280Y034843D01*
X019202Y034941D02*
X019379Y034941D01*
X019439Y035040D02*
X019477Y035040D01*
X019539Y035138D02*
X019576Y035138D01*
X019637Y035237D02*
X019674Y035237D01*
X019691Y035335D02*
X019773Y035335D01*
X019732Y035434D02*
X019871Y035434D01*
X019773Y035532D02*
X019970Y035532D01*
X020068Y035631D02*
X019778Y035631D01*
X019778Y035729D02*
X020167Y035729D01*
X020265Y035828D02*
X019778Y035828D01*
X019749Y035926D02*
X020364Y035926D01*
X020462Y036025D02*
X019708Y036025D01*
X019667Y036123D02*
X020561Y036123D01*
X020659Y036222D02*
X019579Y036222D01*
X019481Y036320D02*
X020758Y036320D01*
X020850Y036419D02*
X019299Y036419D01*
X019294Y036616D02*
X019706Y036616D01*
X019607Y036714D02*
X019393Y036714D01*
X019442Y036813D02*
X019558Y036813D01*
X019520Y036911D02*
X019480Y036911D01*
X019480Y037010D02*
X019520Y037010D01*
X019525Y037108D02*
X019475Y037108D01*
X019434Y037207D02*
X019566Y037207D01*
X019626Y037305D02*
X019374Y037305D01*
X018626Y037305D02*
X018374Y037305D01*
X018434Y037207D02*
X018566Y037207D01*
X018525Y037108D02*
X018475Y037108D01*
X018480Y037010D02*
X018520Y037010D01*
X018520Y036911D02*
X018480Y036911D01*
X018442Y036813D02*
X018558Y036813D01*
X018607Y036714D02*
X018393Y036714D01*
X018294Y036616D02*
X018706Y036616D01*
X018421Y036222D02*
X017641Y036222D01*
X017739Y036123D02*
X018333Y036123D01*
X018292Y036025D02*
X017838Y036025D01*
X017936Y035926D02*
X018251Y035926D01*
X017706Y036616D02*
X017480Y036616D01*
X017480Y036714D02*
X017607Y036714D01*
X017558Y036813D02*
X017480Y036813D01*
X017480Y036911D02*
X017520Y036911D01*
X017520Y037010D02*
X017480Y037010D01*
X017480Y037108D02*
X017525Y037108D01*
X017566Y037207D02*
X017480Y037207D01*
X017480Y037305D02*
X017626Y037305D01*
X017826Y035138D02*
X017850Y035138D01*
X017850Y035040D02*
X017826Y035040D01*
X017815Y034941D02*
X017840Y034941D01*
X017094Y034055D02*
X017020Y034055D01*
X017094Y033956D02*
X016648Y033956D01*
X016648Y033858D02*
X017094Y033858D01*
X017094Y033759D02*
X016648Y033759D01*
X016648Y033661D02*
X017152Y033661D01*
X017090Y033365D02*
X016648Y033365D01*
X016648Y033267D02*
X017069Y033267D01*
X017069Y033168D02*
X016648Y033168D01*
X016648Y033070D02*
X017069Y033070D01*
X017543Y033365D02*
X017859Y033365D01*
X017775Y033464D02*
X016648Y033464D01*
X016648Y033562D02*
X017677Y033562D01*
X016680Y034055D02*
X016648Y034055D01*
X019347Y033759D02*
X019397Y033759D01*
X022110Y033759D02*
X022792Y033759D01*
X022792Y033836D02*
X022792Y033664D01*
X022914Y033542D01*
X022992Y033542D01*
X023010Y033533D01*
X023035Y033542D01*
X023086Y033542D01*
X023114Y033569D01*
X023177Y033591D01*
X023186Y033588D01*
X023211Y033600D01*
X023612Y033600D01*
X023862Y033850D01*
X023950Y033938D01*
X023950Y034288D01*
X024062Y034400D01*
X024150Y034488D01*
X024150Y034738D01*
X024312Y034900D01*
X024400Y034988D01*
X024400Y035222D01*
X024403Y035225D01*
X024402Y035235D01*
X024459Y035315D01*
X024508Y035364D01*
X024508Y035442D01*
X024517Y035460D01*
X024517Y035460D01*
X024517Y035460D01*
X024508Y035485D01*
X024508Y035535D01*
X024524Y035551D01*
X024570Y035663D01*
X024570Y036179D01*
X024524Y036292D01*
X024437Y036378D01*
X024324Y036425D01*
X024202Y036425D01*
X024090Y036378D01*
X024003Y036292D01*
X023957Y036179D01*
X023957Y036058D01*
X023814Y036058D01*
X023692Y035936D01*
X023692Y035858D01*
X023683Y035840D01*
X023683Y035840D01*
X023683Y035840D01*
X023692Y035815D01*
X023692Y035764D01*
X023719Y035736D01*
X023741Y035673D01*
X023738Y035664D01*
X023750Y035639D01*
X023750Y035346D01*
X023742Y035335D01*
X022110Y035335D01*
X022110Y035237D02*
X023004Y035237D01*
X023021Y035244D02*
X022908Y035197D01*
X022822Y035111D01*
X022775Y034998D01*
X022775Y034876D01*
X022822Y034763D01*
X022908Y034677D01*
X023021Y034630D01*
X023537Y034630D01*
X023565Y034642D01*
X023562Y034637D01*
X023554Y034633D01*
X023544Y034607D01*
X023525Y034587D01*
X023394Y034456D01*
X023021Y034456D01*
X022908Y034410D01*
X022822Y034323D01*
X022775Y034211D01*
X022775Y034089D01*
X022822Y033976D01*
X022877Y033921D01*
X022792Y033836D01*
X022813Y033858D02*
X022110Y033858D01*
X022110Y033956D02*
X022842Y033956D01*
X022790Y034055D02*
X022110Y034055D01*
X022110Y034153D02*
X022775Y034153D01*
X022792Y034252D02*
X022110Y034252D01*
X022110Y034350D02*
X022849Y034350D01*
X023002Y034449D02*
X022110Y034449D01*
X022110Y034547D02*
X023485Y034547D01*
X022984Y034646D02*
X022110Y034646D01*
X022110Y034744D02*
X022841Y034744D01*
X022789Y034843D02*
X022110Y034843D01*
X022110Y034941D02*
X022775Y034941D01*
X022793Y035040D02*
X022110Y035040D01*
X022110Y035138D02*
X022849Y035138D01*
X023021Y035244D02*
X023537Y035244D01*
X023650Y035197D01*
X023701Y035146D01*
X023714Y035158D01*
X023765Y035158D01*
X023776Y035162D01*
X023750Y035188D01*
X023750Y035276D01*
X023739Y035317D01*
X023744Y035326D01*
X023742Y035335D01*
X023750Y035237D02*
X023555Y035237D01*
X023750Y035434D02*
X022110Y035434D01*
X022110Y035532D02*
X023750Y035532D01*
X023750Y035631D02*
X022140Y035631D01*
X022238Y035729D02*
X023721Y035729D01*
X023687Y035828D02*
X022337Y035828D01*
X022435Y035926D02*
X023692Y035926D01*
X023780Y036025D02*
X022534Y036025D01*
X022632Y036123D02*
X023957Y036123D01*
X023974Y036222D02*
X022731Y036222D01*
X022829Y036320D02*
X024031Y036320D01*
X024187Y036419D02*
X022928Y036419D01*
X023026Y036517D02*
X034700Y036517D01*
X034700Y036419D02*
X034576Y036419D01*
X034423Y036419D02*
X033789Y036419D01*
X033773Y036425D02*
X033886Y036378D01*
X033972Y036292D01*
X034019Y036179D01*
X034019Y035663D01*
X033972Y035551D01*
X033958Y035537D01*
X033958Y035536D01*
X033958Y035509D01*
X033960Y035506D01*
X033960Y035506D01*
X033958Y035499D01*
X033958Y035364D01*
X033836Y035242D01*
X033664Y035242D01*
X033542Y035364D01*
X033542Y035406D01*
X033536Y035413D01*
X033536Y035413D01*
X033537Y035426D01*
X033542Y035463D01*
X033542Y035463D01*
X033538Y035464D01*
X033452Y035551D01*
X033405Y035663D01*
X033405Y036179D01*
X033452Y036292D01*
X033538Y036378D01*
X033651Y036425D01*
X033773Y036425D01*
X033636Y036419D02*
X033001Y036419D01*
X032986Y036425D02*
X033099Y036378D01*
X033185Y036292D01*
X033232Y036179D01*
X033232Y035663D01*
X033185Y035551D01*
X033158Y035524D01*
X033158Y035501D01*
X033164Y035491D01*
X033164Y035491D01*
X033164Y035491D01*
X033158Y035474D01*
X033158Y035364D01*
X033036Y035242D01*
X032864Y035242D01*
X032742Y035364D01*
X032742Y035417D01*
X032734Y035429D01*
X032734Y035429D01*
X032742Y035470D01*
X032742Y035474D01*
X032665Y035551D01*
X032618Y035663D01*
X032618Y036179D01*
X032665Y036292D01*
X032751Y036378D01*
X032864Y036425D01*
X032986Y036425D01*
X032848Y036419D02*
X032214Y036419D01*
X032198Y036425D02*
X032311Y036378D01*
X032398Y036292D01*
X032444Y036179D01*
X032444Y035663D01*
X032398Y035551D01*
X032358Y035511D01*
X032358Y035493D01*
X032366Y035476D01*
X032366Y035476D01*
X032366Y035476D01*
X032358Y035456D01*
X032358Y035364D01*
X032236Y035242D01*
X032064Y035242D01*
X031942Y035364D01*
X031942Y035429D01*
X031933Y035445D01*
X031942Y035478D01*
X031942Y035486D01*
X031877Y035551D01*
X031831Y035663D01*
X031831Y036179D01*
X031877Y036292D01*
X031964Y036378D01*
X032076Y036425D01*
X032198Y036425D01*
X032061Y036419D02*
X030639Y036419D01*
X030624Y036425D02*
X030736Y036378D01*
X030823Y036292D01*
X030869Y036179D01*
X030869Y035663D01*
X030823Y035551D01*
X030808Y035536D01*
X030808Y035509D01*
X030810Y035506D01*
X030810Y035506D01*
X030810Y035506D01*
X030808Y035498D01*
X030808Y035364D01*
X030686Y035242D01*
X030514Y035242D01*
X030392Y035364D01*
X030392Y035406D01*
X030386Y035414D01*
X030392Y035463D01*
X030392Y035463D01*
X030389Y035464D01*
X030302Y035551D01*
X030256Y035663D01*
X030256Y036179D01*
X030302Y036292D01*
X030389Y036378D01*
X030502Y036425D01*
X030624Y036425D01*
X030486Y036419D02*
X029852Y036419D01*
X029836Y036425D02*
X029949Y036378D01*
X030035Y036292D01*
X030082Y036179D01*
X030082Y035663D01*
X030035Y035551D01*
X030008Y035524D01*
X030008Y035501D01*
X030014Y035490D01*
X030008Y035474D01*
X030008Y035364D01*
X029886Y035242D01*
X029714Y035242D01*
X029592Y035364D01*
X029592Y035417D01*
X029583Y035430D01*
X029592Y035470D01*
X029592Y035474D01*
X029515Y035551D01*
X029468Y035663D01*
X029468Y036179D01*
X029515Y036292D01*
X029601Y036378D01*
X029714Y036425D01*
X029836Y036425D01*
X029699Y036419D02*
X029064Y036419D01*
X029049Y036425D02*
X029162Y036378D01*
X029248Y036292D01*
X029295Y036179D01*
X029295Y035663D01*
X029248Y035551D01*
X029208Y035511D01*
X029208Y035493D01*
X029216Y035475D01*
X029216Y035475D01*
X029216Y035475D01*
X029208Y035456D01*
X029208Y035364D01*
X029086Y035242D01*
X028914Y035242D01*
X028792Y035364D01*
X028792Y035429D01*
X028783Y035445D01*
X028783Y035445D01*
X028792Y035478D01*
X028792Y035487D01*
X028728Y035551D01*
X028681Y035663D01*
X028681Y036179D01*
X028728Y036292D01*
X028814Y036378D01*
X028927Y036425D01*
X029049Y036425D01*
X028911Y036419D02*
X028277Y036419D01*
X028261Y036425D02*
X028374Y036378D01*
X028461Y036292D01*
X028507Y036179D01*
X028507Y035663D01*
X028461Y035551D01*
X028408Y035498D01*
X028408Y035485D01*
X028417Y035460D01*
X028417Y035460D01*
X028408Y035441D01*
X028408Y035364D01*
X028286Y035242D01*
X028114Y035242D01*
X027992Y035364D01*
X027992Y035442D01*
X027983Y035461D01*
X027983Y035461D01*
X027992Y035486D01*
X027992Y035499D01*
X027940Y035551D01*
X027894Y035663D01*
X027894Y036179D01*
X027940Y036292D01*
X028027Y036378D01*
X028139Y036425D01*
X028261Y036425D01*
X028124Y036419D02*
X027490Y036419D01*
X027474Y036425D02*
X027352Y036425D01*
X027239Y036378D01*
X027153Y036292D01*
X027106Y036179D01*
X027106Y035663D01*
X027153Y035551D01*
X027239Y035464D01*
X027242Y035463D01*
X027238Y035435D01*
X027235Y035414D01*
X027242Y035407D01*
X027242Y035364D01*
X027364Y035242D01*
X027536Y035242D01*
X027658Y035364D01*
X027658Y035497D01*
X027660Y035505D01*
X027660Y035505D01*
X027658Y035508D01*
X027658Y035536D01*
X027673Y035551D01*
X027720Y035663D01*
X027720Y036179D01*
X027673Y036292D01*
X027587Y036378D01*
X027474Y036425D01*
X027336Y036419D02*
X026702Y036419D01*
X026687Y036425D02*
X026565Y036425D01*
X026452Y036378D01*
X026365Y036292D01*
X026319Y036179D01*
X026319Y035663D01*
X026365Y035551D01*
X026442Y035474D01*
X026442Y035471D01*
X026441Y035468D01*
X026433Y035430D01*
X026442Y035418D01*
X026442Y035364D01*
X026564Y035242D01*
X026736Y035242D01*
X026858Y035364D01*
X026858Y035473D01*
X026864Y035490D01*
X026858Y035500D01*
X026858Y035523D01*
X026886Y035551D01*
X026932Y035663D01*
X026932Y036179D01*
X026886Y036292D01*
X026799Y036378D01*
X026687Y036425D01*
X026549Y036419D02*
X025915Y036419D01*
X025899Y036425D02*
X026012Y036378D01*
X026098Y036292D01*
X026145Y036179D01*
X026145Y035663D01*
X026098Y035551D01*
X026058Y035511D01*
X026058Y035493D01*
X026066Y035475D01*
X026066Y035475D01*
X026066Y035475D01*
X026058Y035455D01*
X026058Y035364D01*
X025936Y035242D01*
X025764Y035242D01*
X025642Y035364D01*
X025642Y035430D01*
X025633Y035446D01*
X025633Y035448D01*
X025642Y035478D01*
X025642Y035487D01*
X025578Y035551D01*
X025531Y035663D01*
X025531Y036179D01*
X025578Y036292D01*
X025664Y036378D01*
X025777Y036425D01*
X025899Y036425D01*
X025762Y036419D02*
X025127Y036419D01*
X025112Y036425D02*
X025225Y036378D01*
X025311Y036292D01*
X025358Y036179D01*
X025358Y035663D01*
X025311Y035551D01*
X025225Y035464D01*
X025208Y035458D01*
X025208Y035455D01*
X025211Y035404D01*
X025211Y035397D01*
X025211Y035397D01*
X025208Y035395D01*
X025208Y035364D01*
X025086Y035242D01*
X024914Y035242D01*
X024792Y035364D01*
X024792Y035536D01*
X024798Y035543D01*
X024791Y035551D01*
X024744Y035663D01*
X024744Y036179D01*
X024791Y036292D01*
X024877Y036378D01*
X024990Y036425D01*
X025112Y036425D01*
X024974Y036419D02*
X024340Y036419D01*
X024495Y036320D02*
X024819Y036320D01*
X024761Y036222D02*
X024553Y036222D01*
X024570Y036123D02*
X024744Y036123D01*
X024744Y036025D02*
X024570Y036025D01*
X024570Y035926D02*
X024744Y035926D01*
X024744Y035828D02*
X024570Y035828D01*
X024570Y035729D02*
X024744Y035729D01*
X024758Y035631D02*
X024557Y035631D01*
X024508Y035532D02*
X024792Y035532D01*
X024792Y035434D02*
X024508Y035434D01*
X024480Y035335D02*
X024820Y035335D01*
X025180Y035335D02*
X025670Y035335D01*
X025639Y035434D02*
X025209Y035434D01*
X025292Y035532D02*
X025597Y035532D01*
X025545Y035631D02*
X025344Y035631D01*
X025358Y035729D02*
X025531Y035729D01*
X025531Y035828D02*
X025358Y035828D01*
X025358Y035926D02*
X025531Y035926D01*
X025531Y036025D02*
X025358Y036025D01*
X025358Y036123D02*
X025531Y036123D01*
X025549Y036222D02*
X025340Y036222D01*
X025283Y036320D02*
X025606Y036320D01*
X025706Y036616D02*
X025294Y036616D01*
X025393Y036714D02*
X025607Y036714D01*
X025558Y036813D02*
X025442Y036813D01*
X025480Y036911D02*
X025520Y036911D01*
X025520Y037010D02*
X025480Y037010D01*
X025475Y037108D02*
X025525Y037108D01*
X025566Y037207D02*
X025434Y037207D01*
X025374Y037305D02*
X025626Y037305D01*
X024626Y037305D02*
X024374Y037305D01*
X024434Y037207D02*
X024566Y037207D01*
X024525Y037108D02*
X024475Y037108D01*
X024480Y037010D02*
X024520Y037010D01*
X024520Y036911D02*
X024480Y036911D01*
X024442Y036813D02*
X024558Y036813D01*
X024607Y036714D02*
X024393Y036714D01*
X024294Y036616D02*
X024706Y036616D01*
X023706Y036616D02*
X023294Y036616D01*
X024403Y035237D02*
X034404Y035237D01*
X034320Y035335D02*
X033930Y035335D01*
X033958Y035434D02*
X034292Y035434D01*
X034258Y035532D02*
X033958Y035532D01*
X034005Y035631D02*
X034206Y035631D01*
X034193Y035729D02*
X034019Y035729D01*
X034019Y035828D02*
X034193Y035828D01*
X034193Y035926D02*
X034019Y035926D01*
X034019Y036025D02*
X034193Y036025D01*
X034193Y036123D02*
X034019Y036123D01*
X034001Y036222D02*
X034210Y036222D01*
X034268Y036320D02*
X033944Y036320D01*
X033480Y036320D02*
X033157Y036320D01*
X033214Y036222D02*
X033423Y036222D01*
X033405Y036123D02*
X033232Y036123D01*
X033232Y036025D02*
X033405Y036025D01*
X033405Y035926D02*
X033232Y035926D01*
X033232Y035828D02*
X033405Y035828D01*
X033405Y035729D02*
X033232Y035729D01*
X033218Y035631D02*
X033419Y035631D01*
X033471Y035532D02*
X033166Y035532D01*
X033158Y035434D02*
X033538Y035434D01*
X033570Y035335D02*
X033130Y035335D01*
X032770Y035335D02*
X032330Y035335D01*
X032358Y035434D02*
X032734Y035434D01*
X032683Y035532D02*
X032379Y035532D01*
X032431Y035631D02*
X032632Y035631D01*
X032618Y035729D02*
X032444Y035729D01*
X032444Y035828D02*
X032618Y035828D01*
X032618Y035926D02*
X032444Y035926D01*
X032444Y036025D02*
X032618Y036025D01*
X032618Y036123D02*
X032444Y036123D01*
X032427Y036222D02*
X032636Y036222D01*
X032693Y036320D02*
X032369Y036320D01*
X032294Y036616D02*
X032706Y036616D01*
X032607Y036714D02*
X032393Y036714D01*
X032442Y036813D02*
X032558Y036813D01*
X032520Y036911D02*
X032480Y036911D01*
X032480Y037010D02*
X032520Y037010D01*
X032525Y037108D02*
X032475Y037108D01*
X032434Y037207D02*
X032566Y037207D01*
X032626Y037305D02*
X032374Y037305D01*
X031626Y037305D02*
X031374Y037305D01*
X031434Y037207D02*
X031566Y037207D01*
X031525Y037108D02*
X031475Y037108D01*
X031480Y037010D02*
X031520Y037010D01*
X031520Y036911D02*
X031480Y036911D01*
X031442Y036813D02*
X031558Y036813D01*
X031607Y036714D02*
X031393Y036714D01*
X031294Y036616D02*
X031706Y036616D01*
X031905Y036320D02*
X030795Y036320D01*
X030852Y036222D02*
X031848Y036222D01*
X031831Y036123D02*
X030869Y036123D01*
X030869Y036025D02*
X031831Y036025D01*
X031831Y035926D02*
X030869Y035926D01*
X030869Y035828D02*
X031831Y035828D01*
X031831Y035729D02*
X030869Y035729D01*
X030856Y035631D02*
X031844Y035631D01*
X031896Y035532D02*
X030808Y035532D01*
X030808Y035434D02*
X031939Y035434D01*
X031970Y035335D02*
X030780Y035335D01*
X030420Y035335D02*
X029980Y035335D01*
X030008Y035434D02*
X030388Y035434D01*
X030321Y035532D02*
X030017Y035532D01*
X030068Y035631D02*
X030269Y035631D01*
X030256Y035729D02*
X030082Y035729D01*
X030082Y035828D02*
X030256Y035828D01*
X030256Y035926D02*
X030082Y035926D01*
X030082Y036025D02*
X030256Y036025D01*
X030256Y036123D02*
X030082Y036123D01*
X030064Y036222D02*
X030273Y036222D01*
X030331Y036320D02*
X030007Y036320D01*
X030294Y036616D02*
X030706Y036616D01*
X030607Y036714D02*
X030393Y036714D01*
X030442Y036813D02*
X030558Y036813D01*
X030520Y036911D02*
X030480Y036911D01*
X030480Y037010D02*
X030520Y037010D01*
X030525Y037108D02*
X030475Y037108D01*
X030434Y037207D02*
X030566Y037207D01*
X030626Y037305D02*
X030374Y037305D01*
X029626Y037305D02*
X029374Y037305D01*
X029434Y037207D02*
X029566Y037207D01*
X029525Y037108D02*
X029475Y037108D01*
X029480Y037010D02*
X029520Y037010D01*
X029520Y036911D02*
X029480Y036911D01*
X029442Y036813D02*
X029558Y036813D01*
X029607Y036714D02*
X029393Y036714D01*
X029294Y036616D02*
X029706Y036616D01*
X029543Y036320D02*
X029220Y036320D01*
X029277Y036222D02*
X029486Y036222D01*
X029468Y036123D02*
X029295Y036123D01*
X029295Y036025D02*
X029468Y036025D01*
X029468Y035926D02*
X029295Y035926D01*
X029295Y035828D02*
X029468Y035828D01*
X029468Y035729D02*
X029295Y035729D01*
X029281Y035631D02*
X029482Y035631D01*
X029534Y035532D02*
X029229Y035532D01*
X029208Y035434D02*
X029584Y035434D01*
X029620Y035335D02*
X029180Y035335D01*
X028820Y035335D02*
X028380Y035335D01*
X028408Y035434D02*
X028789Y035434D01*
X028746Y035532D02*
X028442Y035532D01*
X028494Y035631D02*
X028695Y035631D01*
X028681Y035729D02*
X028507Y035729D01*
X028507Y035828D02*
X028681Y035828D01*
X028681Y035926D02*
X028507Y035926D01*
X028507Y036025D02*
X028681Y036025D01*
X028681Y036123D02*
X028507Y036123D01*
X028490Y036222D02*
X028699Y036222D01*
X028756Y036320D02*
X028432Y036320D01*
X028294Y036616D02*
X028706Y036616D01*
X028607Y036714D02*
X028393Y036714D01*
X028442Y036813D02*
X028558Y036813D01*
X028520Y036911D02*
X028480Y036911D01*
X028480Y037010D02*
X028520Y037010D01*
X028525Y037108D02*
X028475Y037108D01*
X028434Y037207D02*
X028566Y037207D01*
X028626Y037305D02*
X028374Y037305D01*
X027626Y037305D02*
X027374Y037305D01*
X027434Y037207D02*
X027566Y037207D01*
X027525Y037108D02*
X027475Y037108D01*
X027480Y037010D02*
X027520Y037010D01*
X027520Y036911D02*
X027480Y036911D01*
X027442Y036813D02*
X027558Y036813D01*
X027607Y036714D02*
X027393Y036714D01*
X027294Y036616D02*
X027706Y036616D01*
X027645Y036320D02*
X027968Y036320D01*
X027911Y036222D02*
X027702Y036222D01*
X027720Y036123D02*
X027894Y036123D01*
X027894Y036025D02*
X027720Y036025D01*
X027720Y035926D02*
X027894Y035926D01*
X027894Y035828D02*
X027720Y035828D01*
X027720Y035729D02*
X027894Y035729D01*
X027907Y035631D02*
X027706Y035631D01*
X027658Y035532D02*
X027959Y035532D01*
X027992Y035434D02*
X027658Y035434D01*
X027630Y035335D02*
X028020Y035335D01*
X027270Y035335D02*
X026830Y035335D01*
X026858Y035434D02*
X027238Y035434D01*
X027235Y035414D02*
X027235Y035414D01*
X027242Y035463D02*
X027242Y035463D01*
X027171Y035532D02*
X026867Y035532D01*
X026864Y035490D02*
X026864Y035490D01*
X026864Y035490D01*
X026919Y035631D02*
X027120Y035631D01*
X027106Y035729D02*
X026932Y035729D01*
X026932Y035828D02*
X027106Y035828D01*
X027106Y035926D02*
X026932Y035926D01*
X026932Y036025D02*
X027106Y036025D01*
X027106Y036123D02*
X026932Y036123D01*
X026915Y036222D02*
X027124Y036222D01*
X027181Y036320D02*
X026858Y036320D01*
X026706Y036616D02*
X026294Y036616D01*
X026393Y036714D02*
X026607Y036714D01*
X026558Y036813D02*
X026442Y036813D01*
X026480Y036911D02*
X026520Y036911D01*
X026520Y037010D02*
X026480Y037010D01*
X026475Y037108D02*
X026525Y037108D01*
X026566Y037207D02*
X026434Y037207D01*
X026374Y037305D02*
X026626Y037305D01*
X026394Y036320D02*
X026070Y036320D01*
X026127Y036222D02*
X026336Y036222D01*
X026319Y036123D02*
X026145Y036123D01*
X026145Y036025D02*
X026319Y036025D01*
X026319Y035926D02*
X026145Y035926D01*
X026145Y035828D02*
X026319Y035828D01*
X026319Y035729D02*
X026145Y035729D01*
X026131Y035631D02*
X026332Y035631D01*
X026384Y035532D02*
X026080Y035532D01*
X026058Y035434D02*
X026434Y035434D01*
X026433Y035430D02*
X026433Y035430D01*
X026433Y035430D01*
X026470Y035335D02*
X026030Y035335D01*
X024400Y035138D02*
X034305Y035138D01*
X034207Y035040D02*
X024400Y035040D01*
X024353Y034941D02*
X034108Y034941D01*
X034010Y034843D02*
X024255Y034843D01*
X024156Y034744D02*
X033911Y034744D01*
X033813Y034646D02*
X024150Y034646D01*
X024150Y034547D02*
X033714Y034547D01*
X033616Y034449D02*
X024111Y034449D01*
X024012Y034350D02*
X033517Y034350D01*
X033419Y034252D02*
X023950Y034252D01*
X023950Y034153D02*
X033320Y034153D01*
X033222Y034055D02*
X023950Y034055D01*
X023950Y033956D02*
X033123Y033956D01*
X033025Y033858D02*
X023870Y033858D01*
X023771Y033759D02*
X032926Y033759D01*
X032828Y033661D02*
X023673Y033661D01*
X023107Y033562D02*
X032729Y033562D01*
X032631Y033464D02*
X022110Y033464D01*
X022110Y033562D02*
X022893Y033562D01*
X023010Y033533D02*
X023010Y033533D01*
X022795Y033661D02*
X022110Y033661D01*
X022110Y033365D02*
X032532Y033365D01*
X032434Y033267D02*
X022110Y033267D01*
X022110Y033168D02*
X022873Y033168D01*
X023127Y033168D02*
X032335Y033168D01*
X032237Y033070D02*
X023208Y033070D01*
X022110Y029819D02*
X031643Y029819D01*
X031741Y029721D02*
X022110Y029721D01*
X022110Y029622D02*
X031840Y029622D01*
X031938Y029524D02*
X022110Y029524D01*
X022110Y029425D02*
X032037Y029425D01*
X032135Y029327D02*
X022110Y029327D01*
X022110Y029228D02*
X032234Y029228D01*
X032332Y029130D02*
X022110Y029130D01*
X022110Y028046D02*
X022844Y028046D01*
X022790Y027948D02*
X022110Y027948D01*
X022110Y027849D02*
X022775Y027849D01*
X022792Y027751D02*
X022110Y027751D01*
X022110Y027652D02*
X022847Y027652D01*
X022997Y027554D02*
X022110Y027554D01*
X022110Y027455D02*
X023383Y027455D01*
X022989Y027357D02*
X022203Y027357D01*
X022301Y027258D02*
X022843Y027258D01*
X022790Y027160D02*
X022400Y027160D01*
X022498Y027061D02*
X022775Y027061D01*
X022792Y026963D02*
X022597Y026963D01*
X022695Y026864D02*
X022847Y026864D01*
X022794Y026766D02*
X022999Y026766D01*
X024379Y026766D02*
X024921Y026766D01*
X024842Y026667D02*
X024458Y026667D01*
X024458Y026569D02*
X024842Y026569D01*
X024811Y026470D02*
X024503Y026470D01*
X024556Y026372D02*
X024758Y026372D01*
X024744Y026273D02*
X024570Y026273D01*
X024570Y026175D02*
X024744Y026175D01*
X025757Y026577D02*
X025800Y026600D01*
X025848Y026597D01*
X025838Y026427D01*
X025757Y026577D01*
X025800Y026600D02*
X025838Y026562D01*
X025838Y026427D01*
X025838Y026079D01*
X027550Y025550D02*
X028079Y026079D01*
X028200Y026079D01*
X028507Y026076D02*
X028650Y026076D01*
X028681Y026175D02*
X028507Y026175D01*
X028507Y026273D02*
X028681Y026273D01*
X028695Y026372D02*
X028493Y026372D01*
X028440Y026470D02*
X028748Y026470D01*
X028893Y026569D02*
X028295Y026569D01*
X028507Y025978D02*
X028551Y025978D01*
X028879Y026079D02*
X028350Y025550D01*
X027800Y025550D01*
X028600Y025550D02*
X029100Y025550D01*
X029629Y026079D01*
X029775Y026079D01*
X030082Y026076D02*
X030200Y026076D01*
X030256Y026175D02*
X030082Y026175D01*
X030082Y026273D02*
X030256Y026273D01*
X030270Y026372D02*
X030068Y026372D01*
X030015Y026470D02*
X030323Y026470D01*
X030468Y026569D02*
X029870Y026569D01*
X029681Y026569D02*
X029082Y026569D01*
X029227Y026470D02*
X029536Y026470D01*
X029483Y026372D02*
X029280Y026372D01*
X029295Y026273D02*
X029468Y026273D01*
X029468Y026175D02*
X029295Y026175D01*
X029295Y026076D02*
X029400Y026076D01*
X029301Y025978D02*
X029295Y025978D01*
X028988Y026079D02*
X028879Y026079D01*
X030082Y025978D02*
X030101Y025978D01*
X030550Y025550D02*
X030000Y025000D01*
X030550Y025550D02*
X030700Y025550D01*
X031229Y026079D01*
X031350Y026079D01*
X032079Y026079D02*
X031000Y025000D01*
X032079Y026079D02*
X032137Y026079D01*
X034194Y028145D02*
X037850Y028145D01*
X037850Y028243D02*
X034095Y028243D01*
X033997Y028342D02*
X037850Y028342D01*
X037850Y028440D02*
X033898Y028440D01*
X033800Y028539D02*
X037850Y028539D01*
X037850Y028637D02*
X033701Y028637D01*
X033603Y028736D02*
X037850Y028736D01*
X037850Y028834D02*
X033504Y028834D01*
X033406Y028933D02*
X037850Y028933D01*
X037850Y029031D02*
X033307Y029031D01*
X033209Y029130D02*
X037850Y029130D01*
X037850Y029228D02*
X033110Y029228D01*
X033012Y029327D02*
X037850Y029327D01*
X037850Y029425D02*
X032913Y029425D01*
X032815Y029524D02*
X037850Y029524D01*
X037850Y029622D02*
X032716Y029622D01*
X032618Y029721D02*
X037850Y029721D01*
X037850Y029819D02*
X032519Y029819D01*
X032421Y029918D02*
X037850Y029918D01*
X037850Y030016D02*
X032322Y030016D01*
X032224Y030115D02*
X037850Y030115D01*
X037850Y030213D02*
X032125Y030213D01*
X032027Y030312D02*
X037850Y030312D01*
X037850Y030410D02*
X031928Y030410D01*
X031830Y030509D02*
X037850Y030509D01*
X037850Y030607D02*
X031731Y030607D01*
X031633Y030706D02*
X037850Y030706D01*
X037850Y030804D02*
X031534Y030804D01*
X031436Y030903D02*
X037850Y030903D01*
X037850Y031001D02*
X031337Y031001D01*
X031239Y031100D02*
X037850Y031100D01*
X037850Y031198D02*
X031140Y031198D01*
X031042Y031297D02*
X037850Y031297D01*
X037850Y031395D02*
X030943Y031395D01*
X030845Y031494D02*
X037850Y031494D01*
X037663Y031592D02*
X030746Y031592D01*
X030648Y031691D02*
X037592Y031691D01*
X037592Y031789D02*
X030549Y031789D01*
X030451Y031888D02*
X037642Y031888D01*
X037700Y031986D02*
X030352Y031986D01*
X031817Y032085D02*
X037700Y032085D01*
X037700Y032183D02*
X031916Y032183D01*
X032014Y032282D02*
X037700Y032282D01*
X037700Y032380D02*
X032113Y032380D01*
X032211Y032479D02*
X037700Y032479D01*
X037700Y032577D02*
X032310Y032577D01*
X032408Y032676D02*
X037700Y032676D01*
X037700Y032774D02*
X032507Y032774D01*
X032605Y032873D02*
X037700Y032873D01*
X037700Y032971D02*
X032704Y032971D01*
X032802Y033070D02*
X037700Y033070D01*
X037700Y033168D02*
X032901Y033168D01*
X032999Y033267D02*
X037700Y033267D01*
X037700Y033365D02*
X033098Y033365D01*
X033196Y033464D02*
X037700Y033464D01*
X037700Y033562D02*
X033295Y033562D01*
X033393Y033661D02*
X037700Y033661D01*
X037700Y033759D02*
X033492Y033759D01*
X033590Y033858D02*
X037700Y033858D01*
X037700Y033956D02*
X033689Y033956D01*
X033787Y034055D02*
X037700Y034055D01*
X037700Y034153D02*
X033886Y034153D01*
X033984Y034252D02*
X037700Y034252D01*
X037700Y034350D02*
X034083Y034350D01*
X034181Y034449D02*
X037700Y034449D01*
X037700Y034547D02*
X034280Y034547D01*
X034378Y034646D02*
X037783Y034646D01*
X037882Y034744D02*
X034477Y034744D01*
X034575Y034843D02*
X037980Y034843D01*
X038079Y034941D02*
X034674Y034941D01*
X034772Y035040D02*
X038177Y035040D01*
X038276Y035138D02*
X034871Y035138D01*
X034969Y035237D02*
X038374Y035237D01*
X038473Y035335D02*
X035480Y035335D01*
X035508Y035434D02*
X035975Y035434D01*
X035833Y035532D02*
X035529Y035532D01*
X035516Y035476D02*
X035516Y035476D01*
X035580Y035631D02*
X035781Y035631D01*
X035768Y035729D02*
X035594Y035729D01*
X035594Y035828D02*
X035768Y035828D01*
X035768Y035926D02*
X035594Y035926D01*
X035594Y036025D02*
X035768Y036025D01*
X035768Y036123D02*
X035594Y036123D01*
X035576Y036222D02*
X035785Y036222D01*
X035842Y036320D02*
X035519Y036320D01*
X035364Y036419D02*
X035956Y036419D01*
X036055Y036517D02*
X035100Y036517D01*
X035100Y036419D02*
X035210Y036419D01*
X035294Y036616D02*
X035706Y036616D01*
X035607Y036714D02*
X035393Y036714D01*
X035442Y036813D02*
X035558Y036813D01*
X035520Y036911D02*
X035480Y036911D01*
X035480Y037010D02*
X035520Y037010D01*
X035525Y037108D02*
X035475Y037108D01*
X035434Y037207D02*
X035566Y037207D01*
X035626Y037305D02*
X035374Y037305D01*
X034626Y037305D02*
X033374Y037305D01*
X033434Y037207D02*
X034566Y037207D01*
X034525Y037108D02*
X033475Y037108D01*
X033480Y037010D02*
X034520Y037010D01*
X034520Y036911D02*
X033480Y036911D01*
X033442Y036813D02*
X034558Y036813D01*
X034607Y036714D02*
X033393Y036714D01*
X033294Y036616D02*
X034700Y036616D01*
X035068Y035335D02*
X035120Y035335D01*
X036174Y035434D02*
X038571Y035434D01*
X038670Y035532D02*
X036316Y035532D01*
X036368Y035631D02*
X038768Y035631D01*
X038867Y035729D02*
X036381Y035729D01*
X036381Y035828D02*
X038965Y035828D01*
X039064Y035926D02*
X036381Y035926D01*
X036381Y036025D02*
X040612Y036025D01*
X040711Y036123D02*
X036381Y036123D01*
X036364Y036222D02*
X040809Y036222D01*
X040900Y036320D02*
X036306Y036320D01*
X038408Y034646D02*
X039866Y034646D01*
X039810Y034547D02*
X038309Y034547D01*
X038211Y034449D02*
X039144Y034449D01*
X038990Y034350D02*
X038150Y034350D01*
X038150Y034252D02*
X038934Y034252D01*
X038917Y034153D02*
X038150Y034153D01*
X038150Y034055D02*
X038931Y034055D01*
X038984Y033956D02*
X038150Y033956D01*
X038150Y033858D02*
X039127Y033858D01*
X039714Y033858D02*
X042273Y033858D01*
X042273Y033956D02*
X039998Y033956D01*
X040122Y034028D02*
X040122Y034028D01*
X040122Y034028D01*
X040138Y034055D02*
X042273Y034055D01*
X042273Y034153D02*
X040194Y034153D01*
X040240Y034252D02*
X042273Y034252D01*
X042273Y033759D02*
X038150Y033759D01*
X038150Y033661D02*
X042273Y033661D01*
X042273Y033562D02*
X038150Y033562D01*
X038150Y033464D02*
X042273Y033464D01*
X042273Y033365D02*
X038150Y033365D01*
X038150Y033267D02*
X042273Y033267D01*
X042273Y033168D02*
X038150Y033168D01*
X038150Y033070D02*
X042273Y033070D01*
X042273Y032971D02*
X038150Y032971D01*
X038150Y032873D02*
X042273Y032873D01*
X042273Y032774D02*
X038150Y032774D01*
X038150Y032676D02*
X042273Y032676D01*
X042273Y032577D02*
X038150Y032577D01*
X038150Y032479D02*
X042273Y032479D01*
X042273Y032380D02*
X038150Y032380D01*
X038150Y032282D02*
X042273Y032282D01*
X042273Y032183D02*
X038150Y032183D01*
X038150Y032085D02*
X039139Y032085D01*
X039163Y032094D02*
X039050Y032048D01*
X038979Y031976D01*
X038964Y031981D01*
X038936Y032008D01*
X038885Y032008D01*
X038860Y032017D01*
X038860Y032017D01*
X038860Y032017D01*
X038842Y032008D01*
X038764Y032008D01*
X038642Y031886D01*
X038642Y031714D01*
X038764Y031592D01*
X038842Y031592D01*
X038860Y031583D01*
X038885Y031592D01*
X038936Y031592D01*
X038962Y031618D01*
X038964Y031614D01*
X039050Y031527D01*
X039163Y031481D01*
X039679Y031481D01*
X039792Y031527D01*
X039878Y031614D01*
X039925Y031726D01*
X039925Y031848D01*
X039878Y031961D01*
X039792Y032048D01*
X039679Y032094D01*
X039163Y032094D01*
X038989Y031986D02*
X038959Y031986D01*
X038741Y031986D02*
X038150Y031986D01*
X038150Y031888D02*
X038643Y031888D01*
X038642Y031789D02*
X038150Y031789D01*
X038150Y031691D02*
X038665Y031691D01*
X038763Y031592D02*
X038150Y031592D01*
X038150Y031494D02*
X039132Y031494D01*
X038985Y031592D02*
X038937Y031592D01*
X038860Y031583D02*
X038860Y031583D01*
X038860Y031217D02*
X038842Y031208D01*
X038764Y031208D01*
X038642Y031086D01*
X038642Y030914D01*
X038764Y030792D01*
X038842Y030792D01*
X038860Y030783D01*
X038860Y030783D01*
X038860Y030783D01*
X038885Y030792D01*
X038936Y030792D01*
X038964Y030819D01*
X038969Y030821D01*
X039050Y030740D01*
X039163Y030693D01*
X039679Y030693D01*
X039792Y030740D01*
X039878Y030826D01*
X039925Y030939D01*
X039925Y031061D01*
X039878Y031174D01*
X039792Y031260D01*
X039679Y031307D01*
X039163Y031307D01*
X039050Y031260D01*
X038969Y031179D01*
X038964Y031181D01*
X038936Y031208D01*
X038885Y031208D01*
X038860Y031217D01*
X038860Y031217D01*
X038860Y031217D01*
X038947Y031198D02*
X038988Y031198D01*
X039138Y031297D02*
X038150Y031297D01*
X038150Y031395D02*
X042273Y031395D01*
X042273Y031297D02*
X039704Y031297D01*
X039854Y031198D02*
X042273Y031198D01*
X042273Y031100D02*
X039909Y031100D01*
X039925Y031001D02*
X042273Y031001D01*
X042273Y030903D02*
X039909Y030903D01*
X039856Y030804D02*
X042273Y030804D01*
X042273Y030706D02*
X039709Y030706D01*
X039133Y030706D02*
X038150Y030706D01*
X038150Y030804D02*
X038751Y030804D01*
X038653Y030903D02*
X038150Y030903D01*
X038150Y031001D02*
X038642Y031001D01*
X038655Y031100D02*
X038150Y031100D01*
X038150Y031198D02*
X038753Y031198D01*
X038949Y030804D02*
X038986Y030804D01*
X038150Y030607D02*
X042273Y030607D01*
X042273Y030509D02*
X038150Y030509D01*
X038150Y030410D02*
X042273Y030410D01*
X042273Y030312D02*
X038150Y030312D01*
X038150Y030213D02*
X042273Y030213D01*
X042273Y030115D02*
X038150Y030115D01*
X038150Y030016D02*
X042273Y030016D01*
X042273Y029918D02*
X038150Y029918D01*
X038150Y029819D02*
X042273Y029819D01*
X042273Y029721D02*
X039707Y029721D01*
X039855Y029622D02*
X042273Y029622D01*
X042273Y029524D02*
X039909Y029524D01*
X039925Y029425D02*
X042273Y029425D01*
X042273Y029327D02*
X039909Y029327D01*
X040075Y029228D02*
X042273Y029228D01*
X042273Y029130D02*
X040174Y029130D01*
X040272Y029031D02*
X042273Y029031D01*
X042273Y028933D02*
X040371Y028933D01*
X040469Y028834D02*
X042273Y028834D01*
X042273Y028736D02*
X040568Y028736D01*
X040666Y028637D02*
X042273Y028637D01*
X042273Y028539D02*
X040765Y028539D01*
X040863Y028440D02*
X042273Y028440D01*
X042273Y028342D02*
X040962Y028342D01*
X041060Y028243D02*
X042273Y028243D01*
X042273Y028145D02*
X041159Y028145D01*
X041257Y028046D02*
X042273Y028046D01*
X042273Y027948D02*
X041356Y027948D01*
X041454Y027849D02*
X042273Y027849D01*
X042273Y027751D02*
X041553Y027751D01*
X041651Y027652D02*
X044352Y027652D01*
X044352Y027554D02*
X043700Y027554D01*
X043776Y027522D02*
X043489Y027641D01*
X043180Y027641D01*
X042894Y027522D01*
X042675Y027303D01*
X042556Y027017D01*
X042556Y026707D01*
X042675Y026421D01*
X042894Y026202D01*
X043180Y026084D01*
X043489Y026084D01*
X043776Y026202D01*
X043994Y026421D01*
X044113Y026707D01*
X044113Y027017D01*
X043994Y027303D01*
X043776Y027522D01*
X043843Y027455D02*
X044352Y027455D01*
X044352Y027357D02*
X043941Y027357D01*
X044013Y027258D02*
X044352Y027258D01*
X044352Y027160D02*
X044054Y027160D01*
X044095Y027061D02*
X044352Y027061D01*
X044352Y026963D02*
X044113Y026963D01*
X044113Y026864D02*
X044352Y026864D01*
X044352Y026766D02*
X044113Y026766D01*
X044096Y026667D02*
X044352Y026667D01*
X044352Y026569D02*
X044055Y026569D01*
X044015Y026470D02*
X044352Y026470D01*
X044352Y026372D02*
X043945Y026372D01*
X043846Y026273D02*
X044352Y026273D01*
X044352Y026175D02*
X043708Y026175D01*
X044352Y026076D02*
X042627Y026076D01*
X042529Y026175D02*
X042961Y026175D01*
X042823Y026273D02*
X042430Y026273D01*
X042332Y026372D02*
X042725Y026372D01*
X042655Y026470D02*
X042235Y026470D01*
X042235Y026569D02*
X042614Y026569D01*
X042573Y026667D02*
X042235Y026667D01*
X042235Y026766D02*
X042556Y026766D01*
X042556Y026864D02*
X042235Y026864D01*
X042235Y026963D02*
X042556Y026963D01*
X042575Y027061D02*
X042235Y027061D01*
X042144Y027160D02*
X042615Y027160D01*
X042656Y027258D02*
X042045Y027258D01*
X041947Y027357D02*
X042728Y027357D01*
X042827Y027455D02*
X041848Y027455D01*
X041750Y027554D02*
X042970Y027554D01*
X041633Y026864D02*
X039853Y026864D01*
X039908Y026963D02*
X041534Y026963D01*
X041436Y027061D02*
X039925Y027061D01*
X039910Y027160D02*
X041337Y027160D01*
X041239Y027258D02*
X039857Y027258D01*
X039711Y027357D02*
X041140Y027357D01*
X041042Y027455D02*
X038757Y027455D01*
X038659Y027554D02*
X040943Y027554D01*
X040845Y027652D02*
X038560Y027652D01*
X038462Y027751D02*
X040746Y027751D01*
X040648Y027849D02*
X038363Y027849D01*
X038265Y027948D02*
X040549Y027948D01*
X040451Y028046D02*
X038166Y028046D01*
X038150Y028145D02*
X040352Y028145D01*
X040254Y028243D02*
X038150Y028243D01*
X038150Y028342D02*
X039137Y028342D01*
X038988Y028440D02*
X038150Y028440D01*
X038150Y028539D02*
X038933Y028539D01*
X038917Y028637D02*
X038150Y028637D01*
X038150Y028736D02*
X038932Y028736D01*
X038986Y028834D02*
X038150Y028834D01*
X038150Y028933D02*
X039134Y028933D01*
X039136Y029130D02*
X038150Y029130D01*
X038150Y029228D02*
X038987Y029228D01*
X038933Y029327D02*
X038150Y029327D01*
X038150Y029425D02*
X038917Y029425D01*
X038933Y029524D02*
X038150Y029524D01*
X038150Y029622D02*
X038987Y029622D01*
X039135Y029721D02*
X038150Y029721D01*
X038150Y029031D02*
X039557Y029031D01*
X039909Y028539D02*
X039958Y028539D01*
X040057Y028440D02*
X039854Y028440D01*
X039704Y028342D02*
X040155Y028342D01*
X039131Y027357D02*
X038856Y027357D01*
X038954Y027258D02*
X038985Y027258D01*
X038727Y027061D02*
X035269Y027061D01*
X035310Y026963D02*
X038825Y026963D01*
X038989Y026864D02*
X035310Y026864D01*
X035280Y026766D02*
X039140Y026766D01*
X038676Y026470D02*
X040597Y026470D01*
X040494Y026372D02*
X038729Y026372D01*
X038743Y026273D02*
X040418Y026273D01*
X040377Y026175D02*
X038743Y026175D01*
X038743Y026076D02*
X040350Y026076D01*
X040350Y025978D02*
X038743Y025978D01*
X038783Y025879D02*
X040355Y025879D01*
X040396Y025781D02*
X038882Y025781D01*
X038980Y025682D02*
X040440Y025682D01*
X040539Y025584D02*
X039079Y025584D01*
X039150Y025485D02*
X040706Y025485D01*
X040708Y025387D02*
X039292Y025387D01*
X039391Y025288D02*
X040609Y025288D01*
X040559Y025190D02*
X039441Y025190D01*
X039480Y025091D02*
X040520Y025091D01*
X040520Y024993D02*
X039480Y024993D01*
X039476Y024894D02*
X040524Y024894D01*
X040565Y024796D02*
X039435Y024796D01*
X039376Y024697D02*
X040624Y024697D01*
X041376Y024697D02*
X041624Y024697D01*
X041565Y024796D02*
X041435Y024796D01*
X041476Y024894D02*
X041524Y024894D01*
X041520Y024993D02*
X041480Y024993D01*
X041480Y025091D02*
X041520Y025091D01*
X041559Y025190D02*
X041441Y025190D01*
X041391Y025288D02*
X041609Y025288D01*
X041708Y025387D02*
X041292Y025387D01*
X041261Y025584D02*
X042215Y025584D01*
X042215Y025682D02*
X041360Y025682D01*
X041404Y025781D02*
X042116Y025781D01*
X042018Y025879D02*
X041445Y025879D01*
X041450Y025978D02*
X041919Y025978D01*
X041821Y026076D02*
X041450Y026076D01*
X041423Y026175D02*
X041722Y026175D01*
X041665Y026273D02*
X041382Y026273D01*
X041306Y026372D02*
X041665Y026372D01*
X041665Y026470D02*
X041203Y026470D01*
X041665Y026569D02*
X038531Y026569D01*
X038342Y026569D02*
X037744Y026569D01*
X037889Y026470D02*
X038197Y026470D01*
X038144Y026372D02*
X037942Y026372D01*
X037956Y026273D02*
X038130Y026273D01*
X038130Y026175D02*
X037956Y026175D01*
X037956Y026076D02*
X038130Y026076D01*
X038130Y025978D02*
X037956Y025978D01*
X037956Y025879D02*
X038130Y025879D01*
X038146Y025781D02*
X037939Y025781D01*
X037930Y025682D02*
X038203Y025682D01*
X038355Y025584D02*
X038029Y025584D01*
X038127Y025485D02*
X038753Y025485D01*
X038708Y025387D02*
X038292Y025387D01*
X038391Y025288D02*
X038609Y025288D01*
X038559Y025190D02*
X038441Y025190D01*
X038480Y025091D02*
X038520Y025091D01*
X038520Y024993D02*
X038480Y024993D01*
X038476Y024894D02*
X038524Y024894D01*
X038565Y024796D02*
X038435Y024796D01*
X038376Y024697D02*
X038624Y024697D01*
X037624Y024697D02*
X037376Y024697D01*
X037435Y024796D02*
X037565Y024796D01*
X037524Y024894D02*
X037476Y024894D01*
X037480Y024993D02*
X037520Y024993D01*
X037520Y025091D02*
X037480Y025091D01*
X037441Y025190D02*
X037559Y025190D01*
X037609Y025288D02*
X037391Y025288D01*
X037292Y025387D02*
X037708Y025387D01*
X037703Y025485D02*
X037150Y025485D01*
X037079Y025584D02*
X037568Y025584D01*
X037415Y025682D02*
X037096Y025682D01*
X037152Y025781D02*
X037359Y025781D01*
X037342Y025879D02*
X037169Y025879D01*
X037169Y025978D02*
X037342Y025978D01*
X037342Y026076D02*
X037169Y026076D01*
X037169Y026175D02*
X037342Y026175D01*
X037342Y026273D02*
X037169Y026273D01*
X037154Y026372D02*
X037357Y026372D01*
X037410Y026470D02*
X037101Y026470D01*
X036956Y026569D02*
X037555Y026569D01*
X038518Y025584D02*
X038654Y025584D01*
X039701Y026766D02*
X041665Y026766D01*
X041665Y026667D02*
X035205Y026667D01*
X035179Y027160D02*
X038628Y027160D01*
X038530Y027258D02*
X035080Y027258D01*
X034982Y027357D02*
X038431Y027357D01*
X038333Y027455D02*
X034883Y027455D01*
X034785Y027554D02*
X038234Y027554D01*
X038136Y027652D02*
X034686Y027652D01*
X034588Y027751D02*
X038037Y027751D01*
X037939Y027849D02*
X034489Y027849D01*
X034391Y027948D02*
X037850Y027948D01*
X037850Y028046D02*
X034292Y028046D01*
X033120Y028342D02*
X023563Y028342D01*
X023712Y028440D02*
X033022Y028440D01*
X032923Y028539D02*
X023883Y028539D01*
X023908Y028637D02*
X032825Y028637D01*
X032726Y028736D02*
X023908Y028736D01*
X023811Y028834D02*
X032628Y028834D01*
X039710Y031494D02*
X042273Y031494D01*
X042273Y031592D02*
X039856Y031592D01*
X039910Y031691D02*
X042273Y031691D01*
X042273Y031789D02*
X039925Y031789D01*
X039908Y031888D02*
X042273Y031888D01*
X042273Y031986D02*
X039853Y031986D01*
X039702Y032085D02*
X042273Y032085D01*
X039760Y034449D02*
X039698Y034449D01*
X040027Y034744D02*
X038506Y034744D01*
X038605Y034843D02*
X042273Y034843D01*
X042273Y034941D02*
X038703Y034941D01*
X038802Y035040D02*
X041235Y035040D01*
X041109Y035138D02*
X038900Y035138D01*
X038999Y035237D02*
X041024Y035237D01*
X040983Y035335D02*
X039097Y035335D01*
X039196Y035434D02*
X040950Y035434D01*
X040950Y035532D02*
X039294Y035532D01*
X039631Y036419D02*
X040900Y036419D01*
X040900Y036517D02*
X039729Y036517D01*
X040294Y036616D02*
X040706Y036616D01*
X040607Y036714D02*
X040393Y036714D01*
X040442Y036813D02*
X040558Y036813D01*
X040520Y036911D02*
X040480Y036911D01*
X040480Y037010D02*
X040520Y037010D01*
X040525Y037108D02*
X040475Y037108D01*
X040434Y037207D02*
X040566Y037207D01*
X040626Y037305D02*
X040374Y037305D01*
X041434Y036222D02*
X044352Y036222D01*
X044352Y036320D02*
X041532Y036320D01*
X041631Y036419D02*
X044352Y036419D01*
X044352Y036517D02*
X041729Y036517D01*
X041731Y036025D02*
X044352Y036025D01*
X044352Y036123D02*
X041335Y036123D01*
X041269Y036025D02*
X041237Y036025D01*
X040989Y035729D02*
X040941Y035729D01*
X040950Y035631D02*
X040843Y035631D01*
X040448Y034744D02*
X041879Y034744D01*
X041765Y035040D02*
X042273Y035040D01*
X042273Y035138D02*
X041891Y035138D01*
X041976Y035237D02*
X042273Y035237D01*
X042273Y035335D02*
X042017Y035335D01*
X042050Y035434D02*
X042273Y035434D01*
X042273Y035532D02*
X042050Y035532D01*
X042050Y035631D02*
X042273Y035631D01*
X042011Y035729D02*
X044352Y035729D01*
X044352Y035828D02*
X041970Y035828D01*
X041877Y035926D02*
X044352Y035926D01*
X044352Y036616D02*
X043294Y036616D01*
X043393Y036714D02*
X044352Y036714D01*
X044352Y036813D02*
X043442Y036813D01*
X043480Y036911D02*
X044352Y036911D01*
X044352Y037010D02*
X043480Y037010D01*
X043475Y037108D02*
X044352Y037108D01*
X044352Y037207D02*
X043434Y037207D01*
X043374Y037305D02*
X044352Y037305D01*
X042626Y037305D02*
X042374Y037305D01*
X042434Y037207D02*
X042566Y037207D01*
X042525Y037108D02*
X042475Y037108D01*
X042480Y037010D02*
X042520Y037010D01*
X042520Y036911D02*
X042480Y036911D01*
X042442Y036813D02*
X042558Y036813D01*
X042607Y036714D02*
X042393Y036714D01*
X042294Y036616D02*
X042706Y036616D01*
X042726Y025978D02*
X044352Y025978D01*
X044352Y025879D02*
X042785Y025879D01*
X042785Y025781D02*
X044352Y025781D01*
X044352Y025682D02*
X042785Y025682D01*
X042785Y025584D02*
X044352Y025584D01*
X044352Y025485D02*
X042785Y025485D01*
X043292Y025387D02*
X044352Y025387D01*
X044352Y025288D02*
X043391Y025288D01*
X043441Y025190D02*
X044352Y025190D01*
X044352Y025091D02*
X043480Y025091D01*
X043480Y024993D02*
X044352Y024993D01*
X044352Y024894D02*
X043476Y024894D01*
X043435Y024796D02*
X044352Y024796D01*
X044352Y024697D02*
X043376Y024697D01*
X042215Y025485D02*
X041094Y025485D01*
X021197Y026470D02*
X016648Y026470D01*
X016648Y026372D02*
X021094Y026372D01*
X017761Y030607D02*
X016648Y030607D01*
X016648Y030706D02*
X017748Y030706D01*
X017748Y030804D02*
X016648Y030804D01*
X016648Y030903D02*
X017748Y030903D01*
X017748Y031001D02*
X016648Y031001D01*
X016648Y031100D02*
X017748Y031100D01*
X017748Y031198D02*
X016648Y031198D01*
D30*
X017800Y030500D03*
X018200Y030350D03*
X018450Y030500D03*
X020500Y031800D03*
X020800Y031300D03*
X021100Y031800D03*
X020800Y032300D03*
X020100Y032500D03*
X020100Y032900D03*
X019150Y032700D03*
X019150Y032300D03*
X018700Y032750D03*
X018400Y032750D03*
X018500Y033200D03*
X018500Y033600D03*
X018500Y034000D03*
X019000Y033900D03*
X019400Y034150D03*
X019800Y033900D03*
X020150Y034150D03*
X019800Y034400D03*
X019000Y034400D03*
X018500Y034800D03*
X020500Y035500D03*
X020500Y036500D03*
X021500Y036500D03*
X023500Y036500D03*
X023900Y035850D03*
X024300Y035450D03*
X024000Y035150D03*
X023800Y034950D03*
X023800Y034650D03*
X023000Y033750D03*
X023000Y033000D03*
X024500Y032500D03*
X024500Y033500D03*
X025500Y033500D03*
X025500Y032500D03*
X026500Y032500D03*
X026500Y033500D03*
X027500Y033500D03*
X027500Y032500D03*
X028500Y032500D03*
X028500Y033500D03*
X028500Y034500D03*
X027500Y034500D03*
X026500Y034500D03*
X026650Y035450D03*
X025850Y035450D03*
X025500Y035500D03*
X025000Y035450D03*
X025500Y034500D03*
X027450Y035450D03*
X028200Y035450D03*
X029000Y035450D03*
X029800Y035450D03*
X030600Y035450D03*
X030500Y034500D03*
X029500Y034500D03*
X029500Y033500D03*
X029500Y032500D03*
X030500Y032500D03*
X030500Y033500D03*
X031500Y033500D03*
X031500Y032500D03*
X032500Y032500D03*
X032500Y033500D03*
X033500Y033500D03*
X033500Y032500D03*
X033500Y031500D03*
X032500Y031500D03*
X031500Y031500D03*
X030500Y030500D03*
X029500Y030500D03*
X029500Y029500D03*
X030500Y029500D03*
X030500Y028500D03*
X029500Y028500D03*
X029500Y027500D03*
X030500Y027500D03*
X031500Y027500D03*
X032500Y027500D03*
X033500Y027500D03*
X032500Y026500D03*
X031000Y026500D03*
X029500Y026500D03*
X028500Y026500D03*
X027500Y026500D03*
X026600Y026600D03*
X025800Y026600D03*
X025050Y026600D03*
X024250Y026600D03*
X024000Y026800D03*
X023850Y027050D03*
X024500Y027500D03*
X025500Y027500D03*
X025500Y028500D03*
X024500Y028500D03*
X023700Y028650D03*
X023400Y029450D03*
X024500Y029500D03*
X025500Y029500D03*
X025500Y030500D03*
X024500Y030500D03*
X024100Y031300D03*
X022650Y031000D03*
X022500Y028500D03*
X022500Y027500D03*
X023150Y026600D03*
X021950Y026500D03*
X020500Y026500D03*
X019500Y026500D03*
X018500Y026500D03*
X017500Y026500D03*
X017500Y027500D03*
X018500Y028500D03*
X019150Y028050D03*
X019600Y028050D03*
X020100Y028050D03*
X024500Y025500D03*
X025500Y025500D03*
X026500Y027500D03*
X027500Y027500D03*
X028500Y027500D03*
X028500Y028500D03*
X027500Y028500D03*
X026500Y028500D03*
X026500Y029500D03*
X027500Y029500D03*
X028500Y029500D03*
X028500Y030500D03*
X027500Y030500D03*
X026500Y030500D03*
X031500Y029500D03*
X031500Y028500D03*
X032500Y028500D03*
X033500Y029500D03*
X033500Y030500D03*
X032500Y030500D03*
X034500Y030500D03*
X035500Y030500D03*
X036500Y030500D03*
X036500Y029500D03*
X035500Y029500D03*
X034500Y029500D03*
X034500Y028500D03*
X035500Y028500D03*
X036500Y028500D03*
X036500Y027500D03*
X035500Y027500D03*
X035000Y026900D03*
X036500Y026500D03*
X036500Y025500D03*
X037500Y025500D03*
X038500Y025500D03*
X039500Y025500D03*
X040500Y026500D03*
X041500Y026500D03*
X041500Y025500D03*
X042500Y026500D03*
X042500Y027500D03*
X042125Y027500D03*
X042125Y028000D03*
X042125Y028500D03*
X042125Y029000D03*
X042125Y029500D03*
X042125Y030000D03*
X042125Y030500D03*
X042125Y031000D03*
X042125Y031500D03*
X042125Y032000D03*
X042125Y032500D03*
X042125Y033000D03*
X042125Y033500D03*
X041500Y033500D03*
X041500Y032500D03*
X040500Y032500D03*
X040500Y033500D03*
X040050Y033900D03*
X040500Y034225D03*
X041025Y034075D03*
X041550Y034075D03*
X042125Y034125D03*
X042125Y034875D03*
X042125Y035500D03*
X042500Y035750D03*
X043000Y035750D03*
X043500Y035750D03*
X044000Y035750D03*
X044250Y036000D03*
X044250Y036500D03*
X043500Y036500D03*
X041500Y034800D03*
X041000Y034800D03*
X040500Y034800D03*
X039900Y034750D03*
X039500Y034510D03*
X039000Y034500D03*
X038750Y034300D03*
X038750Y034000D03*
X039000Y033750D03*
X039500Y033750D03*
X038500Y033500D03*
X038500Y032500D03*
X037500Y032500D03*
X037500Y033500D03*
X037500Y034500D03*
X038500Y034500D03*
X038500Y035500D03*
X037500Y035500D03*
X036500Y035500D03*
X035300Y035450D03*
X034500Y035450D03*
X033750Y035450D03*
X032950Y035450D03*
X032500Y035500D03*
X032150Y035450D03*
X032500Y034500D03*
X031500Y034500D03*
X033500Y034500D03*
X034500Y034500D03*
X035500Y034500D03*
X036500Y034500D03*
X036500Y033500D03*
X036500Y032500D03*
X035500Y032500D03*
X035500Y033500D03*
X034500Y033500D03*
X034500Y032500D03*
X034500Y031500D03*
X035500Y031500D03*
X036500Y031500D03*
X037500Y031500D03*
X037800Y031750D03*
X038850Y031800D03*
X038850Y031000D03*
X038500Y030500D03*
X037500Y030500D03*
X037500Y029500D03*
X038500Y029500D03*
X038500Y028500D03*
X037500Y028500D03*
X037500Y027500D03*
X040500Y027500D03*
X041500Y028500D03*
X041500Y029500D03*
X040500Y029500D03*
X040500Y030500D03*
X041500Y030500D03*
X041500Y031500D03*
X040500Y031500D03*
X040500Y035500D03*
X039500Y035500D03*
X044000Y027500D03*
X044250Y027000D03*
X044250Y026500D03*
X044250Y026000D03*
X044250Y025500D03*
X043500Y025500D03*
X018500Y036500D03*
X016700Y036000D03*
X016700Y033200D03*
D31*
X017116Y032600D02*
X017071Y032555D01*
X017071Y030528D01*
X017071Y029445D01*
X017071Y030528D02*
X017071Y031472D01*
X023103Y031787D02*
X023279Y031787D01*
X023277Y031790D01*
X023279Y031787D02*
X023400Y031787D01*
X030113Y031787D01*
X035000Y026900D01*
X023279Y030213D02*
X023270Y030206D01*
X023260Y030201D01*
X023249Y030200D01*
X023000Y036950D02*
X023000Y037000D01*
D32*
X023845Y035831D02*
X023900Y035850D01*
X023955Y035831D01*
X023900Y035673D01*
X023845Y035831D01*
X023900Y035850D02*
X023900Y035673D01*
X023900Y035296D01*
X024035Y035197D01*
X024000Y035150D01*
X023944Y035135D01*
X023900Y035296D01*
X023900Y035250D01*
X024000Y035150D01*
X023781Y035005D02*
X023800Y034950D01*
X023781Y034895D01*
X023623Y034950D01*
X023781Y035005D01*
X023800Y034950D02*
X023623Y034950D01*
X023292Y034950D01*
X023279Y034937D01*
X023747Y034675D02*
X023675Y034525D01*
X023825Y034597D01*
X023800Y034650D01*
X023747Y034675D01*
X023800Y034650D02*
X023675Y034525D01*
X023300Y034150D01*
X023280Y034150D01*
X023279Y034150D01*
X023177Y033750D02*
X023019Y033695D01*
X023000Y033750D01*
X023019Y033805D01*
X023177Y033750D01*
X023550Y033750D01*
X023800Y034000D01*
X023800Y034350D01*
X024000Y034550D01*
X024000Y034800D01*
X024250Y035050D01*
X024250Y035280D01*
X024242Y035447D01*
X024300Y035450D01*
X024347Y035416D01*
X024250Y035280D01*
X024250Y035400D01*
X024300Y035450D01*
X024355Y035469D01*
X024300Y035627D01*
X024245Y035469D01*
X024300Y035450D01*
X024300Y035627D01*
X024300Y035885D01*
X024263Y035921D01*
X025051Y035921D02*
X025051Y035620D01*
X025058Y035453D01*
X025000Y035450D01*
X024953Y035484D01*
X025051Y035620D01*
X025051Y035501D01*
X025000Y035450D01*
X025794Y035466D02*
X025850Y035450D01*
X025904Y035473D01*
X025838Y035627D01*
X025794Y035466D01*
X025838Y035462D02*
X025850Y035450D01*
X025838Y035462D02*
X025838Y035627D01*
X025838Y035921D01*
X026626Y035921D02*
X026626Y035625D01*
X026702Y035477D01*
X026650Y035450D01*
X026593Y035461D01*
X026626Y035625D01*
X026626Y035474D01*
X026650Y035450D01*
X027392Y035457D02*
X027450Y035450D01*
X027500Y035480D01*
X027413Y035623D01*
X027392Y035457D01*
X027413Y035487D02*
X027450Y035450D01*
X027413Y035487D02*
X027413Y035623D01*
X027413Y035921D01*
X028200Y035921D02*
X028200Y035627D01*
X028255Y035469D01*
X028200Y035450D01*
X028145Y035469D01*
X028200Y035627D01*
X028200Y035450D01*
X028200Y035450D01*
X028944Y035465D02*
X029000Y035450D01*
X029054Y035473D01*
X028988Y035627D01*
X028944Y035465D01*
X028988Y035462D02*
X029000Y035450D01*
X028988Y035462D02*
X028988Y035627D01*
X028988Y035921D01*
X029775Y035921D02*
X029775Y035625D01*
X029852Y035477D01*
X029800Y035450D01*
X029743Y035461D01*
X029775Y035625D01*
X029775Y035475D01*
X029800Y035450D01*
X030542Y035457D02*
X030600Y035450D01*
X030650Y035480D01*
X030563Y035623D01*
X030542Y035457D01*
X030563Y035487D02*
X030600Y035450D01*
X030563Y035487D02*
X030563Y035623D01*
X030563Y035921D01*
X032137Y035921D02*
X032137Y035627D01*
X032204Y035473D01*
X032150Y035450D01*
X032094Y035465D01*
X032137Y035627D01*
X032137Y035463D01*
X032150Y035450D01*
X032893Y035461D02*
X032950Y035450D01*
X033002Y035477D01*
X032925Y035625D01*
X032893Y035461D01*
X032925Y035475D02*
X032950Y035450D01*
X032925Y035475D02*
X032925Y035625D01*
X032925Y035921D01*
X033712Y035921D02*
X033712Y035623D01*
X033800Y035481D01*
X033750Y035450D01*
X033692Y035457D01*
X033712Y035623D01*
X033712Y035488D01*
X033750Y035450D01*
X034445Y035469D02*
X034500Y035450D01*
X034555Y035469D01*
X034500Y035627D01*
X034445Y035469D01*
X034500Y035450D02*
X034500Y035450D01*
X034500Y035627D01*
X034500Y035921D01*
X035287Y035921D02*
X035287Y035627D01*
X035354Y035473D01*
X035300Y035450D01*
X035244Y035465D01*
X035287Y035627D01*
X035287Y035463D01*
X035300Y035450D01*
X036074Y035921D02*
X036074Y036324D01*
X036250Y036500D01*
X039500Y036500D01*
X040000Y037000D01*
X041000Y037000D02*
X041050Y036950D01*
X041050Y036250D01*
X040650Y035850D01*
X039200Y035850D01*
X037850Y034500D01*
X037850Y031920D01*
X037858Y031753D01*
X037800Y031750D01*
X037753Y031784D01*
X037850Y031920D01*
X037850Y031800D01*
X037800Y031750D01*
X038850Y031800D02*
X038869Y031745D01*
X039027Y031800D01*
X038869Y031855D01*
X038850Y031800D01*
X039027Y031800D01*
X039408Y031800D01*
X039421Y031787D01*
X039421Y031000D02*
X039027Y031000D01*
X038869Y030945D01*
X038850Y031000D01*
X038869Y031055D01*
X039027Y031000D01*
X038850Y031000D01*
X038000Y028000D02*
X038937Y027063D01*
X039421Y027063D01*
X038437Y026079D02*
X038437Y026013D01*
X039000Y025450D01*
X039000Y025000D01*
X038000Y025000D02*
X038000Y025400D01*
X037649Y025751D01*
X037649Y026079D01*
X036862Y026079D02*
X036862Y025588D01*
X037000Y025450D01*
X037000Y025000D01*
X036000Y025000D02*
X036000Y025400D01*
X036074Y025474D01*
X036074Y026079D01*
X038000Y028000D02*
X038000Y034450D01*
X039250Y035700D01*
X040700Y035700D01*
X042000Y037000D01*
X023650Y031450D02*
X023650Y030050D01*
X022100Y030050D01*
X022100Y031450D01*
X023300Y031450D01*
X023330Y031437D01*
X023470Y031437D01*
X023500Y031450D01*
X023650Y031450D01*
X023650Y031408D02*
X022100Y031408D01*
X022100Y031330D02*
X023650Y031330D01*
X023650Y031251D02*
X022100Y031251D01*
X022100Y031173D02*
X023650Y031173D01*
X023650Y031094D02*
X022100Y031094D01*
X022100Y031016D02*
X023650Y031016D01*
X023650Y030937D02*
X022100Y030937D01*
X022100Y030859D02*
X023650Y030859D01*
X023650Y030780D02*
X022100Y030780D01*
X022100Y030702D02*
X023650Y030702D01*
X023650Y030623D02*
X022100Y030623D01*
X022100Y030545D02*
X023650Y030545D01*
X023650Y030466D02*
X022100Y030466D01*
X022100Y030388D02*
X023650Y030388D01*
X023650Y030309D02*
X022100Y030309D01*
X022100Y030231D02*
X023650Y030231D01*
X023650Y030152D02*
X022100Y030152D01*
X022100Y030074D02*
X023650Y030074D01*
X023681Y028705D02*
X023700Y028650D01*
X023681Y028595D01*
X023523Y028650D01*
X023681Y028705D01*
X023700Y028650D02*
X023523Y028650D01*
X023291Y028650D01*
X023279Y028638D01*
X023279Y027850D02*
X023279Y027771D01*
X023825Y027225D01*
X023902Y027077D01*
X023850Y027050D01*
X023793Y027061D01*
X023825Y027225D01*
X023850Y027200D01*
X023850Y027050D01*
X023981Y026855D02*
X024000Y026800D01*
X023981Y026745D01*
X023823Y026800D01*
X023981Y026855D01*
X024000Y026800D02*
X023823Y026800D01*
X023800Y026800D01*
X023537Y027063D01*
X023279Y027063D01*
X020250Y027450D02*
X020250Y028200D01*
X018500Y028200D01*
X018500Y027450D01*
X020250Y027450D01*
X020250Y027483D02*
X018500Y027483D01*
X018500Y027562D02*
X020250Y027562D01*
X020250Y027640D02*
X018500Y027640D01*
X018500Y027719D02*
X020250Y027719D01*
X020250Y027797D02*
X018500Y027797D01*
X018500Y027876D02*
X020250Y027876D01*
X020250Y027954D02*
X018500Y027954D01*
X018500Y028033D02*
X020250Y028033D01*
X020250Y028111D02*
X018500Y028111D01*
X018500Y028190D02*
X020250Y028190D01*
X020600Y028950D02*
X018650Y028950D01*
X018650Y031250D01*
X019500Y031250D01*
X019500Y033650D01*
X020050Y033600D01*
X020050Y033300D01*
X020000Y033300D01*
X019700Y033000D01*
X019700Y032450D01*
X019750Y032400D01*
X019750Y032359D01*
X019809Y032300D01*
X019850Y032300D01*
X019950Y032200D01*
X020100Y032200D01*
X020100Y031400D01*
X020600Y030900D01*
X020600Y028950D01*
X020600Y028975D02*
X018650Y028975D01*
X018650Y029053D02*
X020600Y029053D01*
X020600Y029132D02*
X018650Y029132D01*
X018650Y029210D02*
X020600Y029210D01*
X020600Y029289D02*
X018650Y029289D01*
X018650Y029367D02*
X020600Y029367D01*
X020600Y029446D02*
X018650Y029446D01*
X018650Y029524D02*
X020600Y029524D01*
X020600Y029603D02*
X018650Y029603D01*
X018650Y029681D02*
X020600Y029681D01*
X020600Y029760D02*
X018650Y029760D01*
X018650Y029838D02*
X020600Y029838D01*
X020600Y029917D02*
X018650Y029917D01*
X018650Y029995D02*
X020600Y029995D01*
X020600Y030074D02*
X018650Y030074D01*
X018650Y030152D02*
X020600Y030152D01*
X020600Y030231D02*
X018650Y030231D01*
X018650Y030309D02*
X020600Y030309D01*
X020600Y030388D02*
X018650Y030388D01*
X018650Y030466D02*
X020600Y030466D01*
X020600Y030545D02*
X018650Y030545D01*
X018650Y030623D02*
X020600Y030623D01*
X020600Y030702D02*
X018650Y030702D01*
X018650Y030780D02*
X020600Y030780D01*
X020600Y030859D02*
X018650Y030859D01*
X018650Y030937D02*
X020563Y030937D01*
X020484Y031016D02*
X018650Y031016D01*
X018650Y031094D02*
X020406Y031094D01*
X020327Y031173D02*
X018650Y031173D01*
X018500Y031400D02*
X018450Y031450D01*
X017900Y031450D01*
X017900Y031541D01*
X017966Y031541D01*
X018057Y031578D01*
X018126Y031648D01*
X018164Y031738D01*
X018164Y031836D01*
X018126Y031927D01*
X018104Y031950D01*
X018500Y031950D01*
X018750Y032200D01*
X018950Y032200D01*
X019100Y032350D01*
X019100Y033000D01*
X018800Y033300D01*
X018750Y033300D01*
X018750Y033600D01*
X019300Y033600D01*
X019300Y031400D01*
X018500Y031400D01*
X018492Y031408D02*
X019300Y031408D01*
X019300Y031487D02*
X017900Y031487D01*
X018025Y031565D02*
X019300Y031565D01*
X019300Y031644D02*
X018122Y031644D01*
X018157Y031722D02*
X019300Y031722D01*
X019300Y031801D02*
X018164Y031801D01*
X018146Y031879D02*
X019300Y031879D01*
X019300Y031958D02*
X018508Y031958D01*
X018586Y032036D02*
X019300Y032036D01*
X019300Y032115D02*
X018665Y032115D01*
X018743Y032193D02*
X019300Y032193D01*
X019300Y032272D02*
X019022Y032272D01*
X019100Y032350D02*
X019300Y032350D01*
X019300Y032429D02*
X019100Y032429D01*
X019100Y032507D02*
X019300Y032507D01*
X019300Y032586D02*
X019100Y032586D01*
X019100Y032664D02*
X019300Y032664D01*
X019300Y032743D02*
X019100Y032743D01*
X019100Y032821D02*
X019300Y032821D01*
X019300Y032900D02*
X019100Y032900D01*
X019100Y032978D02*
X019300Y032978D01*
X019300Y033057D02*
X019043Y033057D01*
X018965Y033135D02*
X019300Y033135D01*
X019300Y033214D02*
X018886Y033214D01*
X018808Y033292D02*
X019300Y033292D01*
X019300Y033371D02*
X018750Y033371D01*
X018750Y033449D02*
X019300Y033449D01*
X019300Y033528D02*
X018750Y033528D01*
X018500Y033600D02*
X018350Y033600D01*
X018050Y033600D02*
X017851Y033600D01*
X017460Y033991D01*
X017450Y034001D01*
X018050Y034000D02*
X018050Y034400D01*
X018050Y034600D01*
X017900Y034600D01*
X017450Y035150D01*
X017450Y035299D01*
X017460Y035309D01*
X018000Y035650D02*
X017550Y036100D01*
X017267Y036100D01*
X018000Y035650D02*
X018000Y034850D01*
X018050Y034800D01*
X018050Y034600D02*
X019250Y034600D01*
X021000Y036350D01*
X021000Y037000D01*
X018500Y034800D02*
X018350Y034800D01*
X019500Y033606D02*
X019984Y033606D01*
X020050Y033528D02*
X019500Y033528D01*
X019500Y033449D02*
X020050Y033449D01*
X020050Y033371D02*
X019500Y033371D01*
X019500Y033292D02*
X019992Y033292D01*
X019914Y033214D02*
X019500Y033214D01*
X019500Y033135D02*
X019835Y033135D01*
X019757Y033057D02*
X019500Y033057D01*
X019500Y032978D02*
X019700Y032978D01*
X019700Y032900D02*
X019500Y032900D01*
X019500Y032821D02*
X019700Y032821D01*
X019700Y032743D02*
X019500Y032743D01*
X019500Y032664D02*
X019700Y032664D01*
X019700Y032586D02*
X019500Y032586D01*
X019500Y032507D02*
X019700Y032507D01*
X019721Y032429D02*
X019500Y032429D01*
X019500Y032350D02*
X019759Y032350D01*
X019878Y032272D02*
X019500Y032272D01*
X019500Y032193D02*
X020100Y032193D01*
X020100Y032115D02*
X019500Y032115D01*
X019500Y032036D02*
X020100Y032036D01*
X020100Y031958D02*
X019500Y031958D01*
X019500Y031879D02*
X020100Y031879D01*
X020100Y031801D02*
X019500Y031801D01*
X019500Y031722D02*
X020100Y031722D01*
X020100Y031644D02*
X019500Y031644D01*
X019500Y031565D02*
X020100Y031565D01*
X020100Y031487D02*
X019500Y031487D01*
X019500Y031408D02*
X020100Y031408D01*
X020170Y031330D02*
X019500Y031330D01*
X019500Y031251D02*
X020249Y031251D01*
X021750Y031000D02*
X021750Y031700D01*
X021750Y031000D02*
X021850Y031000D01*
X023279Y032575D02*
X023279Y032721D01*
X023125Y032875D01*
X022975Y032947D01*
X023000Y033000D01*
X023053Y033025D01*
X023125Y032875D01*
X023000Y033000D01*
X023000Y033750D02*
X023177Y033750D01*
X018500Y033200D02*
X018350Y033200D01*
X018050Y033200D02*
X017317Y033200D01*
D33*
X039250Y034150D02*
X039421Y034150D01*
X039421Y034150D01*
X039800Y034150D01*
X039826Y034152D01*
X039852Y034157D01*
X039877Y034165D01*
X039900Y034177D01*
X039922Y034191D01*
X039941Y034209D01*
X039959Y034228D01*
X039973Y034250D01*
X039985Y034273D01*
X039993Y034298D01*
X039998Y034324D01*
X040000Y034350D01*
X040002Y034375D01*
X040007Y034399D01*
X040016Y034423D01*
X040028Y034445D01*
X040043Y034465D01*
X040060Y034482D01*
X040080Y034497D01*
X040102Y034509D01*
X040126Y034518D01*
X040150Y034523D01*
X040175Y034525D01*
X040350Y034525D01*
D34*
X034900Y035450D02*
X031650Y032200D01*
X023654Y032200D01*
X023279Y032575D01*
X034900Y035450D02*
X034900Y036900D01*
X035000Y037000D01*
D35*
X024000Y037000D02*
X023000Y037000D01*
X021750Y035750D01*
X021750Y033450D01*
X021750Y031800D01*
X021750Y031700D01*
X021750Y027300D01*
X023950Y025100D01*
X024000Y025100D01*
X024000Y025000D01*
X023400Y031787D02*
X023400Y031800D01*
X021750Y031800D01*
X021750Y033450D02*
X019800Y033450D01*
D36*
X040650Y034525D02*
X041000Y034525D01*
X041350Y034525D01*
X041650Y034525D02*
X042000Y034525D01*
X041951Y034525D01*
X041957Y034531D01*
D37*
X039421Y029425D02*
X039714Y029132D01*
X039912Y029132D01*
X042053Y026992D01*
X042053Y026392D01*
X042603Y025842D01*
X042603Y025398D01*
X043000Y025000D01*
X042398Y025398D02*
X042398Y025403D01*
X042398Y025758D01*
X041848Y026308D01*
X041848Y026908D01*
X039838Y028918D01*
X039708Y028918D01*
X039428Y028638D01*
X042395Y025400D02*
X042398Y025403D01*
X042398Y025398D02*
X042000Y025000D01*
D38*
X039428Y028638D02*
X039421Y028638D01*
M02*
