G75*
%MOIN*%
%OFA0B0*%
%FSLAX24Y24*%
%IPPOS*%
%LPD*%
%AMOC8*
5,1,8,0,0,1.08239X$1,22.5*
%
%ADD10C,0.0000*%
%ADD11R,0.0425X0.0425*%
%ADD12C,0.0425*%
%ADD13C,0.0709*%
%ADD14C,0.0482*%
%ADD15R,0.0200X0.0200*%
%ADD16R,0.0472X0.0472*%
%ADD17C,0.0472*%
%ADD18R,0.0740X0.0740*%
%ADD19C,0.0740*%
%ADD20C,0.0197*%
%ADD21C,0.0100*%
%ADD22C,0.0050*%
%ADD23C,0.0080*%
D10*
X022500Y025000D02*
X022500Y037000D01*
X028500Y037000D01*
X028500Y036000D01*
X030000Y036000D01*
X030000Y025000D01*
X022500Y025000D01*
X023360Y028000D02*
X023362Y028050D01*
X023368Y028100D01*
X023378Y028149D01*
X023391Y028198D01*
X023409Y028245D01*
X023430Y028291D01*
X023454Y028334D01*
X023482Y028376D01*
X023513Y028416D01*
X023547Y028453D01*
X023584Y028487D01*
X023624Y028518D01*
X023666Y028546D01*
X023709Y028570D01*
X023755Y028591D01*
X023802Y028609D01*
X023851Y028622D01*
X023900Y028632D01*
X023950Y028638D01*
X024000Y028640D01*
X024050Y028638D01*
X024100Y028632D01*
X024149Y028622D01*
X024198Y028609D01*
X024245Y028591D01*
X024291Y028570D01*
X024334Y028546D01*
X024376Y028518D01*
X024416Y028487D01*
X024453Y028453D01*
X024487Y028416D01*
X024518Y028376D01*
X024546Y028334D01*
X024570Y028291D01*
X024591Y028245D01*
X024609Y028198D01*
X024622Y028149D01*
X024632Y028100D01*
X024638Y028050D01*
X024640Y028000D01*
X024638Y027950D01*
X024632Y027900D01*
X024622Y027851D01*
X024609Y027802D01*
X024591Y027755D01*
X024570Y027709D01*
X024546Y027666D01*
X024518Y027624D01*
X024487Y027584D01*
X024453Y027547D01*
X024416Y027513D01*
X024376Y027482D01*
X024334Y027454D01*
X024291Y027430D01*
X024245Y027409D01*
X024198Y027391D01*
X024149Y027378D01*
X024100Y027368D01*
X024050Y027362D01*
X024000Y027360D01*
X023950Y027362D01*
X023900Y027368D01*
X023851Y027378D01*
X023802Y027391D01*
X023755Y027409D01*
X023709Y027430D01*
X023666Y027454D01*
X023624Y027482D01*
X023584Y027513D01*
X023547Y027547D01*
X023513Y027584D01*
X023482Y027624D01*
X023454Y027666D01*
X023430Y027709D01*
X023409Y027755D01*
X023391Y027802D01*
X023378Y027851D01*
X023368Y027900D01*
X023362Y027950D01*
X023360Y028000D01*
X027860Y028000D02*
X027862Y028050D01*
X027868Y028100D01*
X027878Y028149D01*
X027891Y028198D01*
X027909Y028245D01*
X027930Y028291D01*
X027954Y028334D01*
X027982Y028376D01*
X028013Y028416D01*
X028047Y028453D01*
X028084Y028487D01*
X028124Y028518D01*
X028166Y028546D01*
X028209Y028570D01*
X028255Y028591D01*
X028302Y028609D01*
X028351Y028622D01*
X028400Y028632D01*
X028450Y028638D01*
X028500Y028640D01*
X028550Y028638D01*
X028600Y028632D01*
X028649Y028622D01*
X028698Y028609D01*
X028745Y028591D01*
X028791Y028570D01*
X028834Y028546D01*
X028876Y028518D01*
X028916Y028487D01*
X028953Y028453D01*
X028987Y028416D01*
X029018Y028376D01*
X029046Y028334D01*
X029070Y028291D01*
X029091Y028245D01*
X029109Y028198D01*
X029122Y028149D01*
X029132Y028100D01*
X029138Y028050D01*
X029140Y028000D01*
X029138Y027950D01*
X029132Y027900D01*
X029122Y027851D01*
X029109Y027802D01*
X029091Y027755D01*
X029070Y027709D01*
X029046Y027666D01*
X029018Y027624D01*
X028987Y027584D01*
X028953Y027547D01*
X028916Y027513D01*
X028876Y027482D01*
X028834Y027454D01*
X028791Y027430D01*
X028745Y027409D01*
X028698Y027391D01*
X028649Y027378D01*
X028600Y027368D01*
X028550Y027362D01*
X028500Y027360D01*
X028450Y027362D01*
X028400Y027368D01*
X028351Y027378D01*
X028302Y027391D01*
X028255Y027409D01*
X028209Y027430D01*
X028166Y027454D01*
X028124Y027482D01*
X028084Y027513D01*
X028047Y027547D01*
X028013Y027584D01*
X027982Y027624D01*
X027954Y027666D01*
X027930Y027709D01*
X027909Y027755D01*
X027891Y027802D01*
X027878Y027851D01*
X027868Y027900D01*
X027862Y027950D01*
X027860Y028000D01*
X022870Y034750D02*
X022872Y034800D01*
X022878Y034850D01*
X022888Y034899D01*
X022902Y034947D01*
X022919Y034994D01*
X022940Y035039D01*
X022965Y035083D01*
X022993Y035124D01*
X023025Y035163D01*
X023059Y035200D01*
X023096Y035234D01*
X023136Y035264D01*
X023178Y035291D01*
X023222Y035315D01*
X023268Y035336D01*
X023315Y035352D01*
X023363Y035365D01*
X023413Y035374D01*
X023462Y035379D01*
X023513Y035380D01*
X023563Y035377D01*
X023612Y035370D01*
X023661Y035359D01*
X023709Y035344D01*
X023755Y035326D01*
X023800Y035304D01*
X023843Y035278D01*
X023884Y035249D01*
X023923Y035217D01*
X023959Y035182D01*
X023991Y035144D01*
X024021Y035104D01*
X024048Y035061D01*
X024071Y035017D01*
X024090Y034971D01*
X024106Y034923D01*
X024118Y034874D01*
X024126Y034825D01*
X024130Y034775D01*
X024130Y034725D01*
X024126Y034675D01*
X024118Y034626D01*
X024106Y034577D01*
X024090Y034529D01*
X024071Y034483D01*
X024048Y034439D01*
X024021Y034396D01*
X023991Y034356D01*
X023959Y034318D01*
X023923Y034283D01*
X023884Y034251D01*
X023843Y034222D01*
X023800Y034196D01*
X023755Y034174D01*
X023709Y034156D01*
X023661Y034141D01*
X023612Y034130D01*
X023563Y034123D01*
X023513Y034120D01*
X023462Y034121D01*
X023413Y034126D01*
X023363Y034135D01*
X023315Y034148D01*
X023268Y034164D01*
X023222Y034185D01*
X023178Y034209D01*
X023136Y034236D01*
X023096Y034266D01*
X023059Y034300D01*
X023025Y034337D01*
X022993Y034376D01*
X022965Y034417D01*
X022940Y034461D01*
X022919Y034506D01*
X022902Y034553D01*
X022888Y034601D01*
X022878Y034650D01*
X022872Y034700D01*
X022870Y034750D01*
D11*
X024000Y031500D03*
D12*
X025000Y031500D03*
X026000Y031500D03*
X027000Y031500D03*
X028000Y031500D03*
X027500Y030500D03*
X026500Y030500D03*
X025500Y030500D03*
X024500Y030500D03*
X028500Y030500D03*
D13*
X029301Y029201D03*
X023199Y029201D03*
D14*
X024636Y026669D03*
X023636Y026071D03*
X027864Y026071D03*
X028864Y026669D03*
D15*
X027800Y033000D03*
X027500Y033000D03*
X027000Y033000D03*
X026700Y033000D03*
X024250Y033000D03*
X024250Y033300D03*
D16*
X026450Y034550D03*
D17*
X027450Y034550D03*
X028450Y034550D03*
X028450Y035550D03*
X027450Y035550D03*
X026450Y035550D03*
X029450Y035550D03*
X029450Y034550D03*
D18*
X023000Y036500D03*
D19*
X024000Y036500D03*
X025000Y036500D03*
X026000Y036500D03*
X027000Y036500D03*
X028000Y036500D03*
D20*
X028000Y035500D03*
X027500Y035000D03*
X028500Y035000D03*
X029000Y035500D03*
X029500Y035000D03*
X028000Y033000D03*
X026500Y033000D03*
X026000Y033500D03*
X025000Y033500D03*
X025000Y033000D03*
X025000Y032500D03*
X023500Y033000D03*
X023000Y032500D03*
X023000Y033500D03*
X023000Y031500D03*
X023000Y035500D03*
X023500Y036000D03*
X024000Y035500D03*
X025000Y035500D03*
X025500Y036000D03*
D21*
X025000Y036500D02*
X024580Y036080D01*
X024580Y034733D01*
X025333Y033980D01*
X026933Y033980D01*
X027330Y033583D01*
X027330Y033170D01*
X027500Y033000D01*
X027330Y032830D01*
X027330Y030670D01*
X027500Y030500D01*
X027000Y031500D02*
X027170Y031670D01*
X027170Y032830D01*
X027000Y033000D01*
X027170Y033170D01*
X027170Y033517D01*
X026867Y033820D01*
X025267Y033820D01*
X024420Y034667D01*
X024420Y036080D01*
X024000Y036500D01*
X023513Y033047D02*
X023500Y033000D01*
X023513Y032953D01*
X023677Y033000D01*
X023513Y033047D01*
X023500Y033000D02*
X023677Y033000D01*
X024250Y033000D01*
X024823Y033000D01*
X024987Y033047D01*
X025000Y033000D01*
X024987Y032953D01*
X024823Y033000D01*
X025000Y033000D01*
X026500Y033000D02*
X026513Y032953D01*
X026677Y033000D01*
X026513Y033047D01*
X026500Y033000D01*
X026677Y033000D01*
X026700Y033000D01*
X027800Y033000D02*
X027823Y033000D01*
X027987Y033047D01*
X028000Y033000D01*
X027987Y032953D01*
X027823Y033000D01*
X028000Y033000D01*
D22*
X028183Y033003D02*
X028271Y033003D01*
X028222Y033051D02*
X028183Y033051D01*
X028183Y033076D02*
X028076Y033183D01*
X028019Y033183D01*
X028004Y033192D01*
X028004Y033192D01*
X027974Y033183D01*
X027937Y033183D01*
X027935Y033185D01*
X027665Y033185D01*
X027650Y033170D01*
X027635Y033185D01*
X027506Y033185D01*
X027465Y033226D01*
X027465Y033639D01*
X027386Y033718D01*
X027386Y033718D01*
X026989Y034115D01*
X025389Y034115D01*
X024715Y034789D01*
X024715Y036024D01*
X024787Y036096D01*
X024909Y036045D01*
X025091Y036045D01*
X025258Y036114D01*
X025386Y036242D01*
X025455Y036409D01*
X025455Y036591D01*
X025386Y036758D01*
X025267Y036877D01*
X025733Y036877D01*
X025614Y036758D01*
X025545Y036591D01*
X025545Y036409D01*
X025614Y036242D01*
X025742Y036114D01*
X025909Y036045D01*
X026091Y036045D01*
X026258Y036114D01*
X026386Y036242D01*
X026455Y036409D01*
X026455Y036591D01*
X026386Y036758D01*
X026267Y036877D01*
X026733Y036877D01*
X026614Y036758D01*
X026545Y036591D01*
X026545Y036409D01*
X026614Y036242D01*
X026742Y036114D01*
X026909Y036045D01*
X027091Y036045D01*
X027258Y036114D01*
X027386Y036242D01*
X027455Y036409D01*
X027455Y036591D01*
X027386Y036758D01*
X027267Y036877D01*
X027733Y036877D01*
X027614Y036758D01*
X027545Y036591D01*
X027545Y036409D01*
X027614Y036242D01*
X027742Y036114D01*
X027909Y036045D01*
X028091Y036045D01*
X028258Y036114D01*
X028377Y036233D01*
X028377Y035949D01*
X028449Y035877D01*
X029877Y035877D01*
X029877Y032001D01*
X029825Y032001D01*
X029825Y033802D01*
X029438Y034189D01*
X029522Y034189D01*
X029655Y034244D01*
X029756Y034345D01*
X029811Y034478D01*
X029811Y034622D01*
X029756Y034755D01*
X029655Y034856D01*
X029522Y034911D01*
X029378Y034911D01*
X029245Y034856D01*
X029175Y034786D01*
X029175Y035098D01*
X029329Y035252D01*
X029386Y035229D01*
X029514Y035229D01*
X029632Y035278D01*
X029722Y035368D01*
X029771Y035486D01*
X029771Y035614D01*
X029722Y035732D01*
X029632Y035822D01*
X029514Y035871D01*
X029386Y035871D01*
X029268Y035822D01*
X029178Y035732D01*
X029129Y035614D01*
X029129Y035486D01*
X029152Y035429D01*
X028950Y035227D01*
X028748Y035429D01*
X028771Y035486D01*
X028771Y035614D01*
X028722Y035732D01*
X028632Y035822D01*
X028514Y035871D01*
X028386Y035871D01*
X028268Y035822D01*
X028178Y035732D01*
X028129Y035614D01*
X028129Y035486D01*
X028178Y035368D01*
X028268Y035278D01*
X028386Y035229D01*
X028514Y035229D01*
X028571Y035252D01*
X028775Y035048D01*
X028775Y034709D01*
X028756Y034755D01*
X028655Y034856D01*
X028522Y034911D01*
X028378Y034911D01*
X028245Y034856D01*
X028144Y034755D01*
X028125Y034709D01*
X028125Y035052D01*
X027748Y035429D01*
X027771Y035486D01*
X027771Y035614D01*
X027722Y035732D01*
X027632Y035822D01*
X027514Y035871D01*
X027386Y035871D01*
X027268Y035822D01*
X027178Y035732D01*
X027129Y035614D01*
X027129Y035486D01*
X027178Y035368D01*
X027268Y035278D01*
X027386Y035229D01*
X027514Y035229D01*
X027571Y035252D01*
X027875Y034948D01*
X027875Y034398D01*
X027948Y034325D01*
X027948Y034325D01*
X029275Y032998D01*
X029275Y032352D01*
X027438Y034189D01*
X027522Y034189D01*
X027655Y034244D01*
X027756Y034345D01*
X027811Y034478D01*
X027811Y034622D01*
X027756Y034755D01*
X027655Y034856D01*
X027522Y034911D01*
X027378Y034911D01*
X027245Y034856D01*
X027144Y034755D01*
X027125Y034709D01*
X027125Y035052D01*
X026748Y035429D01*
X026771Y035486D01*
X026771Y035614D01*
X026722Y035732D01*
X026632Y035822D01*
X026514Y035871D01*
X026386Y035871D01*
X026268Y035822D01*
X026178Y035732D01*
X026129Y035614D01*
X026129Y035486D01*
X026178Y035368D01*
X026268Y035278D01*
X026386Y035229D01*
X026514Y035229D01*
X026571Y035252D01*
X026875Y034948D01*
X026875Y034398D01*
X026948Y034325D01*
X029125Y032148D01*
X029125Y032007D01*
X027465Y032020D01*
X027465Y032774D01*
X027506Y032815D01*
X027635Y032815D01*
X027650Y032830D01*
X027665Y032815D01*
X027935Y032815D01*
X027937Y032817D01*
X027974Y032817D01*
X028004Y032808D01*
X028019Y032817D01*
X028076Y032817D01*
X028183Y032924D01*
X028183Y033076D01*
X028174Y033100D02*
X028160Y033100D01*
X028125Y033148D02*
X028111Y033148D01*
X028077Y033197D02*
X027494Y033197D01*
X027465Y033245D02*
X028028Y033245D01*
X028004Y033192D02*
X028004Y033192D01*
X027980Y033294D02*
X027465Y033294D01*
X027465Y033342D02*
X027931Y033342D01*
X027883Y033391D02*
X027465Y033391D01*
X027465Y033439D02*
X027834Y033439D01*
X027786Y033488D02*
X027465Y033488D01*
X027465Y033536D02*
X027737Y033536D01*
X027689Y033585D02*
X027465Y033585D01*
X027465Y033633D02*
X027640Y033633D01*
X027592Y033682D02*
X027423Y033682D01*
X027374Y033730D02*
X027543Y033730D01*
X027495Y033779D02*
X027326Y033779D01*
X027277Y033827D02*
X027446Y033827D01*
X027398Y033876D02*
X027229Y033876D01*
X027180Y033924D02*
X027349Y033924D01*
X027301Y033973D02*
X027132Y033973D01*
X027083Y034021D02*
X027252Y034021D01*
X027204Y034070D02*
X027035Y034070D01*
X027107Y034167D02*
X025338Y034167D01*
X025386Y034118D02*
X027155Y034118D01*
X027058Y034215D02*
X026764Y034215D01*
X026738Y034189D02*
X026811Y034262D01*
X026811Y034838D01*
X026738Y034911D01*
X026162Y034911D01*
X026089Y034838D01*
X026089Y034262D01*
X026162Y034189D01*
X026738Y034189D01*
X026811Y034264D02*
X027010Y034264D01*
X026961Y034312D02*
X026811Y034312D01*
X026811Y034361D02*
X026913Y034361D01*
X026875Y034409D02*
X026811Y034409D01*
X026811Y034458D02*
X026875Y034458D01*
X026875Y034506D02*
X026811Y034506D01*
X026811Y034555D02*
X026875Y034555D01*
X026875Y034603D02*
X026811Y034603D01*
X026811Y034652D02*
X026875Y034652D01*
X026875Y034700D02*
X026811Y034700D01*
X026811Y034749D02*
X026875Y034749D01*
X026875Y034797D02*
X026811Y034797D01*
X026804Y034846D02*
X026875Y034846D01*
X026875Y034894D02*
X026755Y034894D01*
X026832Y034991D02*
X024715Y034991D01*
X024715Y034943D02*
X026875Y034943D01*
X026784Y035040D02*
X024715Y035040D01*
X024715Y035088D02*
X026735Y035088D01*
X026687Y035137D02*
X024715Y035137D01*
X024715Y035185D02*
X026638Y035185D01*
X026590Y035234D02*
X026525Y035234D01*
X026375Y035234D02*
X024715Y035234D01*
X024715Y035282D02*
X026264Y035282D01*
X026215Y035331D02*
X024715Y035331D01*
X024715Y035379D02*
X026173Y035379D01*
X026153Y035428D02*
X024715Y035428D01*
X024715Y035476D02*
X026133Y035476D01*
X026129Y035525D02*
X024715Y035525D01*
X024715Y035573D02*
X026129Y035573D01*
X026132Y035622D02*
X024715Y035622D01*
X024715Y035670D02*
X026152Y035670D01*
X026172Y035719D02*
X024715Y035719D01*
X024715Y035767D02*
X026213Y035767D01*
X026261Y035816D02*
X024715Y035816D01*
X024715Y035864D02*
X026369Y035864D01*
X026531Y035864D02*
X027369Y035864D01*
X027261Y035816D02*
X026639Y035816D01*
X026687Y035767D02*
X027213Y035767D01*
X027172Y035719D02*
X026728Y035719D01*
X026748Y035670D02*
X027152Y035670D01*
X027132Y035622D02*
X026768Y035622D01*
X026771Y035573D02*
X027129Y035573D01*
X027129Y035525D02*
X026771Y035525D01*
X026767Y035476D02*
X027133Y035476D01*
X027153Y035428D02*
X026749Y035428D01*
X026798Y035379D02*
X027173Y035379D01*
X027215Y035331D02*
X026846Y035331D01*
X026895Y035282D02*
X027264Y035282D01*
X027375Y035234D02*
X026943Y035234D01*
X026992Y035185D02*
X027638Y035185D01*
X027590Y035234D02*
X027525Y035234D01*
X027687Y035137D02*
X027040Y035137D01*
X027089Y035088D02*
X027735Y035088D01*
X027784Y035040D02*
X027125Y035040D01*
X027125Y034991D02*
X027832Y034991D01*
X027875Y034943D02*
X027125Y034943D01*
X027125Y034894D02*
X027337Y034894D01*
X027235Y034846D02*
X027125Y034846D01*
X027125Y034797D02*
X027186Y034797D01*
X027141Y034749D02*
X027125Y034749D01*
X027563Y034894D02*
X027875Y034894D01*
X027875Y034846D02*
X027665Y034846D01*
X027714Y034797D02*
X027875Y034797D01*
X027875Y034749D02*
X027759Y034749D01*
X027779Y034700D02*
X027875Y034700D01*
X027875Y034652D02*
X027799Y034652D01*
X027811Y034603D02*
X027875Y034603D01*
X027875Y034555D02*
X027811Y034555D01*
X027811Y034506D02*
X027875Y034506D01*
X027875Y034458D02*
X027803Y034458D01*
X027783Y034409D02*
X027875Y034409D01*
X027913Y034361D02*
X027763Y034361D01*
X027723Y034312D02*
X027961Y034312D01*
X028010Y034264D02*
X027674Y034264D01*
X027585Y034215D02*
X028058Y034215D01*
X028107Y034167D02*
X027460Y034167D01*
X027509Y034118D02*
X028155Y034118D01*
X028204Y034070D02*
X027557Y034070D01*
X027606Y034021D02*
X028252Y034021D01*
X028301Y033973D02*
X027654Y033973D01*
X027703Y033924D02*
X028349Y033924D01*
X028398Y033876D02*
X027751Y033876D01*
X027800Y033827D02*
X028446Y033827D01*
X028495Y033779D02*
X027848Y033779D01*
X027897Y033730D02*
X028543Y033730D01*
X028592Y033682D02*
X027945Y033682D01*
X027994Y033633D02*
X028640Y033633D01*
X028689Y033585D02*
X028042Y033585D01*
X028091Y033536D02*
X028737Y033536D01*
X028786Y033488D02*
X028139Y033488D01*
X028188Y033439D02*
X028834Y033439D01*
X028883Y033391D02*
X028236Y033391D01*
X028285Y033342D02*
X028931Y033342D01*
X028980Y033294D02*
X028333Y033294D01*
X028382Y033245D02*
X029028Y033245D01*
X029077Y033197D02*
X028430Y033197D01*
X028479Y033148D02*
X029125Y033148D01*
X029174Y033100D02*
X028527Y033100D01*
X028576Y033051D02*
X029222Y033051D01*
X029271Y033003D02*
X028624Y033003D01*
X028673Y032954D02*
X029275Y032954D01*
X029275Y032906D02*
X028721Y032906D01*
X028770Y032857D02*
X029275Y032857D01*
X029275Y032809D02*
X028818Y032809D01*
X028867Y032760D02*
X029275Y032760D01*
X029275Y032712D02*
X028915Y032712D01*
X028964Y032663D02*
X029275Y032663D01*
X029275Y032615D02*
X029012Y032615D01*
X029061Y032566D02*
X029275Y032566D01*
X029275Y032518D02*
X029109Y032518D01*
X029158Y032469D02*
X029275Y032469D01*
X029275Y032421D02*
X029206Y032421D01*
X029255Y032372D02*
X029275Y032372D01*
X029095Y032178D02*
X027465Y032178D01*
X027465Y032130D02*
X029125Y032130D01*
X029125Y032081D02*
X027465Y032081D01*
X027465Y032033D02*
X029125Y032033D01*
X029047Y032227D02*
X027465Y032227D01*
X027465Y032275D02*
X028998Y032275D01*
X028950Y032324D02*
X027465Y032324D01*
X027465Y032372D02*
X028901Y032372D01*
X028853Y032421D02*
X027465Y032421D01*
X027465Y032469D02*
X028804Y032469D01*
X028756Y032518D02*
X027465Y032518D01*
X027465Y032566D02*
X028707Y032566D01*
X028659Y032615D02*
X027465Y032615D01*
X027465Y032663D02*
X028610Y032663D01*
X028562Y032712D02*
X027465Y032712D01*
X027465Y032760D02*
X028513Y032760D01*
X028465Y032809D02*
X028004Y032809D01*
X028004Y032808D02*
X028004Y032808D01*
X028004Y032808D01*
X028003Y032809D02*
X027499Y032809D01*
X027035Y032774D02*
X027035Y032023D01*
X023600Y032050D01*
X023600Y030850D01*
X023480Y030850D01*
X022623Y030841D01*
X022623Y036877D01*
X023733Y036877D01*
X023614Y036758D01*
X023545Y036591D01*
X023545Y036409D01*
X023614Y036242D01*
X023742Y036114D01*
X023909Y036045D01*
X024091Y036045D01*
X024213Y036096D01*
X024285Y036024D01*
X024285Y034611D01*
X025132Y033764D01*
X025211Y033685D01*
X026811Y033685D01*
X027035Y033461D01*
X027035Y033226D01*
X026994Y033185D01*
X026865Y033185D01*
X026850Y033170D01*
X026835Y033185D01*
X026565Y033185D01*
X026563Y033183D01*
X026526Y033183D01*
X026496Y033192D01*
X026481Y033183D01*
X026424Y033183D01*
X026317Y033076D01*
X026317Y032924D01*
X026424Y032817D01*
X026481Y032817D01*
X026496Y032808D01*
X026502Y032810D01*
X026526Y032817D01*
X026563Y032817D01*
X026565Y032815D01*
X026835Y032815D01*
X026850Y032830D01*
X026865Y032815D01*
X026994Y032815D01*
X027035Y032774D01*
X027035Y032760D02*
X022623Y032760D01*
X022623Y032712D02*
X027035Y032712D01*
X027035Y032663D02*
X022623Y032663D01*
X022623Y032615D02*
X027035Y032615D01*
X027035Y032566D02*
X022623Y032566D01*
X022623Y032518D02*
X027035Y032518D01*
X027035Y032469D02*
X022623Y032469D01*
X022623Y032421D02*
X027035Y032421D01*
X027035Y032372D02*
X022623Y032372D01*
X022623Y032324D02*
X027035Y032324D01*
X027035Y032275D02*
X022623Y032275D01*
X022623Y032227D02*
X027035Y032227D01*
X027035Y032178D02*
X022623Y032178D01*
X022623Y032130D02*
X027035Y032130D01*
X027035Y032081D02*
X022623Y032081D01*
X022623Y032033D02*
X023600Y032033D01*
X023600Y031984D02*
X022623Y031984D01*
X022623Y031936D02*
X023600Y031936D01*
X023600Y031887D02*
X022623Y031887D01*
X022623Y031839D02*
X023600Y031839D01*
X023600Y031790D02*
X022623Y031790D01*
X022623Y031742D02*
X023600Y031742D01*
X023600Y031693D02*
X022623Y031693D01*
X022623Y031645D02*
X023600Y031645D01*
X023600Y031596D02*
X022623Y031596D01*
X022623Y031548D02*
X023600Y031548D01*
X023600Y031499D02*
X022623Y031499D01*
X022623Y031451D02*
X023600Y031451D01*
X023600Y031402D02*
X022623Y031402D01*
X022623Y031354D02*
X023600Y031354D01*
X023600Y031305D02*
X022623Y031305D01*
X022623Y031257D02*
X023600Y031257D01*
X023600Y031208D02*
X022623Y031208D01*
X022623Y031160D02*
X023600Y031160D01*
X023600Y031111D02*
X022623Y031111D01*
X022623Y031063D02*
X023600Y031063D01*
X023600Y031014D02*
X022623Y031014D01*
X022623Y030966D02*
X023600Y030966D01*
X023600Y030917D02*
X022623Y030917D01*
X022623Y030869D02*
X023600Y030869D01*
X023496Y032808D02*
X023502Y032810D01*
X023526Y032817D01*
X023576Y032817D01*
X023596Y032837D01*
X023677Y032860D01*
X023694Y032855D01*
X023712Y032865D01*
X024065Y032865D01*
X024065Y032865D01*
X024115Y032815D01*
X024385Y032815D01*
X024435Y032865D01*
X024788Y032865D01*
X024806Y032855D01*
X024823Y032860D01*
X024904Y032837D01*
X024924Y032817D01*
X024974Y032817D01*
X025004Y032808D01*
X025019Y032817D01*
X025076Y032817D01*
X025183Y032924D01*
X025183Y033076D01*
X025076Y033183D01*
X025019Y033183D01*
X025004Y033192D01*
X025004Y033192D01*
X024974Y033183D01*
X024924Y033183D01*
X024904Y033163D01*
X024823Y033140D01*
X024806Y033145D01*
X024788Y033135D01*
X024435Y033135D01*
X024435Y033135D01*
X024385Y033185D01*
X024115Y033185D01*
X024065Y033135D01*
X023712Y033135D01*
X023694Y033145D01*
X023677Y033140D01*
X023596Y033163D01*
X023576Y033183D01*
X023526Y033183D01*
X023496Y033192D01*
X023481Y033183D01*
X023424Y033183D01*
X023317Y033076D01*
X023317Y032924D01*
X023424Y032817D01*
X023481Y032817D01*
X023496Y032808D01*
X023496Y032809D02*
X022623Y032809D01*
X022623Y032857D02*
X023384Y032857D01*
X023335Y032906D02*
X022623Y032906D01*
X022623Y032954D02*
X023317Y032954D01*
X023317Y033003D02*
X022623Y033003D01*
X022623Y033051D02*
X023317Y033051D01*
X023340Y033100D02*
X022623Y033100D01*
X022623Y033148D02*
X023389Y033148D01*
X023496Y033192D02*
X023496Y033192D01*
X023496Y033192D01*
X023650Y033148D02*
X024078Y033148D01*
X024065Y033135D02*
X024065Y033135D01*
X024073Y032857D02*
X023698Y032857D01*
X023686Y032857D02*
X023668Y032857D01*
X023497Y032809D02*
X025003Y032809D01*
X025004Y032808D02*
X025004Y032808D01*
X025004Y032808D01*
X025004Y032809D02*
X026496Y032809D01*
X026497Y032809D02*
X027001Y032809D01*
X027006Y033197D02*
X022623Y033197D01*
X022623Y033245D02*
X027035Y033245D01*
X027035Y033294D02*
X022623Y033294D01*
X022623Y033342D02*
X027035Y033342D01*
X027035Y033391D02*
X022623Y033391D01*
X022623Y033439D02*
X027035Y033439D01*
X027008Y033488D02*
X022623Y033488D01*
X022623Y033536D02*
X026960Y033536D01*
X026911Y033585D02*
X022623Y033585D01*
X022623Y033633D02*
X026863Y033633D01*
X026814Y033682D02*
X022623Y033682D01*
X022623Y033730D02*
X025166Y033730D01*
X025117Y033779D02*
X022623Y033779D01*
X022623Y033827D02*
X025069Y033827D01*
X025020Y033876D02*
X022623Y033876D01*
X022623Y033924D02*
X024972Y033924D01*
X024923Y033973D02*
X022623Y033973D01*
X022623Y034021D02*
X023291Y034021D01*
X023350Y033997D02*
X023650Y033997D01*
X023927Y034111D01*
X024139Y034323D01*
X024253Y034600D01*
X024253Y034900D01*
X024139Y035177D01*
X023927Y035389D01*
X023650Y035503D01*
X023350Y035503D01*
X023073Y035389D01*
X022861Y035177D01*
X022747Y034900D01*
X022747Y034600D01*
X022861Y034323D01*
X023073Y034111D01*
X023350Y033997D01*
X023174Y034070D02*
X022623Y034070D01*
X022623Y034118D02*
X023067Y034118D01*
X023018Y034167D02*
X022623Y034167D01*
X022623Y034215D02*
X022970Y034215D01*
X022921Y034264D02*
X022623Y034264D01*
X022623Y034312D02*
X022873Y034312D01*
X022846Y034361D02*
X022623Y034361D01*
X022623Y034409D02*
X022826Y034409D01*
X022806Y034458D02*
X022623Y034458D01*
X022623Y034506D02*
X022786Y034506D01*
X022766Y034555D02*
X022623Y034555D01*
X022623Y034603D02*
X022747Y034603D01*
X022747Y034652D02*
X022623Y034652D01*
X022623Y034700D02*
X022747Y034700D01*
X022747Y034749D02*
X022623Y034749D01*
X022623Y034797D02*
X022747Y034797D01*
X022747Y034846D02*
X022623Y034846D01*
X022623Y034894D02*
X022747Y034894D01*
X022764Y034943D02*
X022623Y034943D01*
X022623Y034991D02*
X022784Y034991D01*
X022805Y035040D02*
X022623Y035040D01*
X022623Y035088D02*
X022825Y035088D01*
X022845Y035137D02*
X022623Y035137D01*
X022623Y035185D02*
X022870Y035185D01*
X022918Y035234D02*
X022623Y035234D01*
X022623Y035282D02*
X022967Y035282D01*
X023015Y035331D02*
X022623Y035331D01*
X022623Y035379D02*
X023064Y035379D01*
X023167Y035428D02*
X022623Y035428D01*
X022623Y035476D02*
X023284Y035476D01*
X023716Y035476D02*
X024285Y035476D01*
X024285Y035428D02*
X023833Y035428D01*
X023936Y035379D02*
X024285Y035379D01*
X024285Y035331D02*
X023985Y035331D01*
X024033Y035282D02*
X024285Y035282D01*
X024285Y035234D02*
X024082Y035234D01*
X024130Y035185D02*
X024285Y035185D01*
X024285Y035137D02*
X024155Y035137D01*
X024175Y035088D02*
X024285Y035088D01*
X024285Y035040D02*
X024195Y035040D01*
X024216Y034991D02*
X024285Y034991D01*
X024285Y034943D02*
X024236Y034943D01*
X024253Y034894D02*
X024285Y034894D01*
X024285Y034846D02*
X024253Y034846D01*
X024253Y034797D02*
X024285Y034797D01*
X024285Y034749D02*
X024253Y034749D01*
X024253Y034700D02*
X024285Y034700D01*
X024285Y034652D02*
X024253Y034652D01*
X024253Y034603D02*
X024293Y034603D01*
X024341Y034555D02*
X024234Y034555D01*
X024214Y034506D02*
X024390Y034506D01*
X024438Y034458D02*
X024194Y034458D01*
X024174Y034409D02*
X024487Y034409D01*
X024535Y034361D02*
X024154Y034361D01*
X024127Y034312D02*
X024584Y034312D01*
X024632Y034264D02*
X024079Y034264D01*
X024030Y034215D02*
X024681Y034215D01*
X024729Y034167D02*
X023982Y034167D01*
X023933Y034118D02*
X024778Y034118D01*
X024826Y034070D02*
X023826Y034070D01*
X023709Y034021D02*
X024875Y034021D01*
X025192Y034312D02*
X026089Y034312D01*
X026089Y034264D02*
X025241Y034264D01*
X025289Y034215D02*
X026136Y034215D01*
X026089Y034361D02*
X025144Y034361D01*
X025095Y034409D02*
X026089Y034409D01*
X026089Y034458D02*
X025047Y034458D01*
X024998Y034506D02*
X026089Y034506D01*
X026089Y034555D02*
X024950Y034555D01*
X024901Y034603D02*
X026089Y034603D01*
X026089Y034652D02*
X024853Y034652D01*
X024804Y034700D02*
X026089Y034700D01*
X026089Y034749D02*
X024756Y034749D01*
X024715Y034797D02*
X026089Y034797D01*
X026096Y034846D02*
X024715Y034846D01*
X024715Y034894D02*
X026145Y034894D01*
X026122Y036058D02*
X026878Y036058D01*
X026761Y036107D02*
X026239Y036107D01*
X026299Y036155D02*
X026701Y036155D01*
X026653Y036204D02*
X026347Y036204D01*
X026390Y036252D02*
X026610Y036252D01*
X026590Y036301D02*
X026410Y036301D01*
X026430Y036349D02*
X026570Y036349D01*
X026550Y036398D02*
X026450Y036398D01*
X026455Y036446D02*
X026545Y036446D01*
X026545Y036495D02*
X026455Y036495D01*
X026455Y036543D02*
X026545Y036543D01*
X026545Y036592D02*
X026455Y036592D01*
X026434Y036640D02*
X026566Y036640D01*
X026586Y036689D02*
X026414Y036689D01*
X026394Y036737D02*
X026606Y036737D01*
X026642Y036786D02*
X026358Y036786D01*
X026309Y036834D02*
X026691Y036834D01*
X027309Y036834D02*
X027691Y036834D01*
X027642Y036786D02*
X027358Y036786D01*
X027394Y036737D02*
X027606Y036737D01*
X027586Y036689D02*
X027414Y036689D01*
X027434Y036640D02*
X027566Y036640D01*
X027545Y036592D02*
X027455Y036592D01*
X027455Y036543D02*
X027545Y036543D01*
X027545Y036495D02*
X027455Y036495D01*
X027455Y036446D02*
X027545Y036446D01*
X027550Y036398D02*
X027450Y036398D01*
X027430Y036349D02*
X027570Y036349D01*
X027590Y036301D02*
X027410Y036301D01*
X027390Y036252D02*
X027610Y036252D01*
X027653Y036204D02*
X027347Y036204D01*
X027299Y036155D02*
X027701Y036155D01*
X027761Y036107D02*
X027239Y036107D01*
X027122Y036058D02*
X027878Y036058D01*
X028122Y036058D02*
X028377Y036058D01*
X028377Y036010D02*
X024715Y036010D01*
X024715Y035961D02*
X028377Y035961D01*
X028413Y035913D02*
X024715Y035913D01*
X024749Y036058D02*
X024878Y036058D01*
X025122Y036058D02*
X025878Y036058D01*
X025761Y036107D02*
X025239Y036107D01*
X025299Y036155D02*
X025701Y036155D01*
X025653Y036204D02*
X025347Y036204D01*
X025390Y036252D02*
X025610Y036252D01*
X025590Y036301D02*
X025410Y036301D01*
X025430Y036349D02*
X025570Y036349D01*
X025550Y036398D02*
X025450Y036398D01*
X025455Y036446D02*
X025545Y036446D01*
X025545Y036495D02*
X025455Y036495D01*
X025455Y036543D02*
X025545Y036543D01*
X025545Y036592D02*
X025455Y036592D01*
X025434Y036640D02*
X025566Y036640D01*
X025586Y036689D02*
X025414Y036689D01*
X025394Y036737D02*
X025606Y036737D01*
X025642Y036786D02*
X025358Y036786D01*
X025309Y036834D02*
X025691Y036834D01*
X024285Y036010D02*
X022623Y036010D01*
X022623Y036058D02*
X023878Y036058D01*
X023761Y036107D02*
X022623Y036107D01*
X022623Y036155D02*
X023701Y036155D01*
X023653Y036204D02*
X022623Y036204D01*
X022623Y036252D02*
X023610Y036252D01*
X023590Y036301D02*
X022623Y036301D01*
X022623Y036349D02*
X023570Y036349D01*
X023550Y036398D02*
X022623Y036398D01*
X022623Y036446D02*
X023545Y036446D01*
X023545Y036495D02*
X022623Y036495D01*
X022623Y036543D02*
X023545Y036543D01*
X023545Y036592D02*
X022623Y036592D01*
X022623Y036640D02*
X023566Y036640D01*
X023586Y036689D02*
X022623Y036689D01*
X022623Y036737D02*
X023606Y036737D01*
X023642Y036786D02*
X022623Y036786D01*
X022623Y036834D02*
X023691Y036834D01*
X024122Y036058D02*
X024251Y036058D01*
X024285Y035961D02*
X022623Y035961D01*
X022623Y035913D02*
X024285Y035913D01*
X024285Y035864D02*
X022623Y035864D01*
X022623Y035816D02*
X024285Y035816D01*
X024285Y035767D02*
X022623Y035767D01*
X022623Y035719D02*
X024285Y035719D01*
X024285Y035670D02*
X022623Y035670D01*
X022623Y035622D02*
X024285Y035622D01*
X024285Y035573D02*
X022623Y035573D01*
X022623Y035525D02*
X024285Y035525D01*
X024422Y033148D02*
X024850Y033148D01*
X025004Y033192D02*
X025004Y033192D01*
X025111Y033148D02*
X026389Y033148D01*
X026340Y033100D02*
X025160Y033100D01*
X025183Y033051D02*
X026317Y033051D01*
X026317Y033003D02*
X025183Y033003D01*
X025183Y032954D02*
X026317Y032954D01*
X026335Y032906D02*
X025165Y032906D01*
X025116Y032857D02*
X026384Y032857D01*
X026496Y033192D02*
X026496Y033192D01*
X026496Y033192D01*
X027035Y032033D02*
X025835Y032033D01*
X024832Y032857D02*
X024814Y032857D01*
X024802Y032857D02*
X024427Y032857D01*
X024435Y032865D02*
X024435Y032865D01*
X028116Y032857D02*
X028416Y032857D01*
X028368Y032906D02*
X028165Y032906D01*
X028183Y032954D02*
X028319Y032954D01*
X029825Y032954D02*
X029877Y032954D01*
X029877Y032906D02*
X029825Y032906D01*
X029825Y032857D02*
X029877Y032857D01*
X029877Y032809D02*
X029825Y032809D01*
X029825Y032760D02*
X029877Y032760D01*
X029877Y032712D02*
X029825Y032712D01*
X029825Y032663D02*
X029877Y032663D01*
X029877Y032615D02*
X029825Y032615D01*
X029825Y032566D02*
X029877Y032566D01*
X029877Y032518D02*
X029825Y032518D01*
X029825Y032469D02*
X029877Y032469D01*
X029877Y032421D02*
X029825Y032421D01*
X029825Y032372D02*
X029877Y032372D01*
X029877Y032324D02*
X029825Y032324D01*
X029825Y032275D02*
X029877Y032275D01*
X029877Y032227D02*
X029825Y032227D01*
X029825Y032178D02*
X029877Y032178D01*
X029877Y032130D02*
X029825Y032130D01*
X029825Y032081D02*
X029877Y032081D01*
X029877Y032033D02*
X029825Y032033D01*
X029825Y033003D02*
X029877Y033003D01*
X029877Y033051D02*
X029825Y033051D01*
X029825Y033100D02*
X029877Y033100D01*
X029877Y033148D02*
X029825Y033148D01*
X029825Y033197D02*
X029877Y033197D01*
X029877Y033245D02*
X029825Y033245D01*
X029825Y033294D02*
X029877Y033294D01*
X029877Y033342D02*
X029825Y033342D01*
X029825Y033391D02*
X029877Y033391D01*
X029877Y033439D02*
X029825Y033439D01*
X029825Y033488D02*
X029877Y033488D01*
X029877Y033536D02*
X029825Y033536D01*
X029825Y033585D02*
X029877Y033585D01*
X029877Y033633D02*
X029825Y033633D01*
X029825Y033682D02*
X029877Y033682D01*
X029877Y033730D02*
X029825Y033730D01*
X029825Y033779D02*
X029877Y033779D01*
X029877Y033827D02*
X029800Y033827D01*
X029751Y033876D02*
X029877Y033876D01*
X029877Y033924D02*
X029703Y033924D01*
X029654Y033973D02*
X029877Y033973D01*
X029877Y034021D02*
X029606Y034021D01*
X029557Y034070D02*
X029877Y034070D01*
X029877Y034118D02*
X029509Y034118D01*
X029460Y034167D02*
X029877Y034167D01*
X029877Y034215D02*
X029585Y034215D01*
X029674Y034264D02*
X029877Y034264D01*
X029877Y034312D02*
X029723Y034312D01*
X029763Y034361D02*
X029877Y034361D01*
X029877Y034409D02*
X029783Y034409D01*
X029803Y034458D02*
X029877Y034458D01*
X029877Y034506D02*
X029811Y034506D01*
X029811Y034555D02*
X029877Y034555D01*
X029877Y034603D02*
X029811Y034603D01*
X029799Y034652D02*
X029877Y034652D01*
X029877Y034700D02*
X029779Y034700D01*
X029759Y034749D02*
X029877Y034749D01*
X029877Y034797D02*
X029714Y034797D01*
X029665Y034846D02*
X029877Y034846D01*
X029877Y034894D02*
X029563Y034894D01*
X029337Y034894D02*
X029175Y034894D01*
X029175Y034846D02*
X029235Y034846D01*
X029186Y034797D02*
X029175Y034797D01*
X029175Y034943D02*
X029877Y034943D01*
X029877Y034991D02*
X029175Y034991D01*
X029175Y035040D02*
X029877Y035040D01*
X029877Y035088D02*
X029175Y035088D01*
X029213Y035137D02*
X029877Y035137D01*
X029877Y035185D02*
X029262Y035185D01*
X029310Y035234D02*
X029375Y035234D01*
X029525Y035234D02*
X029877Y035234D01*
X029877Y035282D02*
X029636Y035282D01*
X029685Y035331D02*
X029877Y035331D01*
X029877Y035379D02*
X029727Y035379D01*
X029747Y035428D02*
X029877Y035428D01*
X029877Y035476D02*
X029767Y035476D01*
X029771Y035525D02*
X029877Y035525D01*
X029877Y035573D02*
X029771Y035573D01*
X029768Y035622D02*
X029877Y035622D01*
X029877Y035670D02*
X029748Y035670D01*
X029728Y035719D02*
X029877Y035719D01*
X029877Y035767D02*
X029687Y035767D01*
X029639Y035816D02*
X029877Y035816D01*
X029877Y035864D02*
X029531Y035864D01*
X029369Y035864D02*
X028531Y035864D01*
X028639Y035816D02*
X029261Y035816D01*
X029213Y035767D02*
X028687Y035767D01*
X028728Y035719D02*
X029172Y035719D01*
X029152Y035670D02*
X028748Y035670D01*
X028768Y035622D02*
X029132Y035622D01*
X029129Y035573D02*
X028771Y035573D01*
X028771Y035525D02*
X029129Y035525D01*
X029133Y035476D02*
X028767Y035476D01*
X028749Y035428D02*
X029151Y035428D01*
X029102Y035379D02*
X028798Y035379D01*
X028846Y035331D02*
X029054Y035331D01*
X029005Y035282D02*
X028895Y035282D01*
X028943Y035234D02*
X028957Y035234D01*
X028735Y035088D02*
X028089Y035088D01*
X028125Y035040D02*
X028775Y035040D01*
X028775Y034991D02*
X028125Y034991D01*
X028125Y034943D02*
X028775Y034943D01*
X028775Y034894D02*
X028563Y034894D01*
X028665Y034846D02*
X028775Y034846D01*
X028775Y034797D02*
X028714Y034797D01*
X028759Y034749D02*
X028775Y034749D01*
X028687Y035137D02*
X028040Y035137D01*
X027992Y035185D02*
X028638Y035185D01*
X028590Y035234D02*
X028525Y035234D01*
X028375Y035234D02*
X027943Y035234D01*
X027895Y035282D02*
X028264Y035282D01*
X028215Y035331D02*
X027846Y035331D01*
X027798Y035379D02*
X028173Y035379D01*
X028153Y035428D02*
X027749Y035428D01*
X027767Y035476D02*
X028133Y035476D01*
X028129Y035525D02*
X027771Y035525D01*
X027771Y035573D02*
X028129Y035573D01*
X028132Y035622D02*
X027768Y035622D01*
X027748Y035670D02*
X028152Y035670D01*
X028172Y035719D02*
X027728Y035719D01*
X027687Y035767D02*
X028213Y035767D01*
X028261Y035816D02*
X027639Y035816D01*
X027531Y035864D02*
X028369Y035864D01*
X028377Y036107D02*
X028239Y036107D01*
X028299Y036155D02*
X028377Y036155D01*
X028377Y036204D02*
X028347Y036204D01*
X028337Y034894D02*
X028125Y034894D01*
X028125Y034846D02*
X028235Y034846D01*
X028186Y034797D02*
X028125Y034797D01*
X028125Y034749D02*
X028141Y034749D01*
D23*
X028000Y035000D02*
X027450Y035550D01*
X027000Y035000D02*
X026450Y035550D01*
X027000Y035000D02*
X027000Y034450D01*
X029250Y032200D01*
X029250Y030550D01*
X025750Y027050D01*
X024500Y027050D01*
X023636Y026186D01*
X023636Y026071D01*
X024636Y026669D02*
X025569Y026669D01*
X029400Y030500D01*
X029400Y033050D01*
X028000Y034450D01*
X028000Y035000D01*
X028450Y035550D02*
X028900Y035100D01*
X028900Y034350D01*
X029550Y033700D01*
X029550Y030450D01*
X027550Y028450D01*
X027550Y027600D01*
X027864Y027286D01*
X027864Y026071D01*
X028681Y026669D02*
X027700Y027650D01*
X027700Y028400D01*
X029700Y030400D01*
X029700Y033750D01*
X029050Y034400D01*
X029050Y035150D01*
X029450Y035550D01*
X028864Y026669D02*
X028681Y026669D01*
M02*
