G75*
%MOIN*%
%OFA0B0*%
%FSLAX24Y24*%
%IPPOS*%
%LPD*%
%AMOC8*
5,1,8,0,0,1.08239X$1,22.5*
%
%ADD10C,0.0000*%
%ADD11R,0.0425X0.0425*%
%ADD12C,0.0425*%
%ADD13C,0.0709*%
%ADD14C,0.0482*%
%ADD15R,0.0200X0.0200*%
%ADD16R,0.0450X0.0700*%
%ADD17R,0.0250X0.0350*%
%ADD18R,0.0740X0.0740*%
%ADD19C,0.0740*%
%ADD20R,0.0400X0.0400*%
%ADD21C,0.0197*%
%ADD22C,0.0100*%
%ADD23C,0.0050*%
%ADD24C,0.0080*%
%ADD25C,0.0200*%
%ADD26C,0.0400*%
D10*
X022500Y025000D02*
X022500Y038000D01*
X040500Y038000D01*
X040500Y025000D01*
X022500Y025000D01*
X024860Y029250D02*
X024862Y029300D01*
X024868Y029350D01*
X024878Y029399D01*
X024891Y029448D01*
X024909Y029495D01*
X024930Y029541D01*
X024954Y029584D01*
X024982Y029626D01*
X025013Y029666D01*
X025047Y029703D01*
X025084Y029737D01*
X025124Y029768D01*
X025166Y029796D01*
X025209Y029820D01*
X025255Y029841D01*
X025302Y029859D01*
X025351Y029872D01*
X025400Y029882D01*
X025450Y029888D01*
X025500Y029890D01*
X025550Y029888D01*
X025600Y029882D01*
X025649Y029872D01*
X025698Y029859D01*
X025745Y029841D01*
X025791Y029820D01*
X025834Y029796D01*
X025876Y029768D01*
X025916Y029737D01*
X025953Y029703D01*
X025987Y029666D01*
X026018Y029626D01*
X026046Y029584D01*
X026070Y029541D01*
X026091Y029495D01*
X026109Y029448D01*
X026122Y029399D01*
X026132Y029350D01*
X026138Y029300D01*
X026140Y029250D01*
X026138Y029200D01*
X026132Y029150D01*
X026122Y029101D01*
X026109Y029052D01*
X026091Y029005D01*
X026070Y028959D01*
X026046Y028916D01*
X026018Y028874D01*
X025987Y028834D01*
X025953Y028797D01*
X025916Y028763D01*
X025876Y028732D01*
X025834Y028704D01*
X025791Y028680D01*
X025745Y028659D01*
X025698Y028641D01*
X025649Y028628D01*
X025600Y028618D01*
X025550Y028612D01*
X025500Y028610D01*
X025450Y028612D01*
X025400Y028618D01*
X025351Y028628D01*
X025302Y028641D01*
X025255Y028659D01*
X025209Y028680D01*
X025166Y028704D01*
X025124Y028732D01*
X025084Y028763D01*
X025047Y028797D01*
X025013Y028834D01*
X024982Y028874D01*
X024954Y028916D01*
X024930Y028959D01*
X024909Y029005D01*
X024891Y029052D01*
X024878Y029101D01*
X024868Y029150D01*
X024862Y029200D01*
X024860Y029250D01*
X024860Y033750D02*
X024862Y033800D01*
X024868Y033850D01*
X024878Y033899D01*
X024891Y033948D01*
X024909Y033995D01*
X024930Y034041D01*
X024954Y034084D01*
X024982Y034126D01*
X025013Y034166D01*
X025047Y034203D01*
X025084Y034237D01*
X025124Y034268D01*
X025166Y034296D01*
X025209Y034320D01*
X025255Y034341D01*
X025302Y034359D01*
X025351Y034372D01*
X025400Y034382D01*
X025450Y034388D01*
X025500Y034390D01*
X025550Y034388D01*
X025600Y034382D01*
X025649Y034372D01*
X025698Y034359D01*
X025745Y034341D01*
X025791Y034320D01*
X025834Y034296D01*
X025876Y034268D01*
X025916Y034237D01*
X025953Y034203D01*
X025987Y034166D01*
X026018Y034126D01*
X026046Y034084D01*
X026070Y034041D01*
X026091Y033995D01*
X026109Y033948D01*
X026122Y033899D01*
X026132Y033850D01*
X026138Y033800D01*
X026140Y033750D01*
X026138Y033700D01*
X026132Y033650D01*
X026122Y033601D01*
X026109Y033552D01*
X026091Y033505D01*
X026070Y033459D01*
X026046Y033416D01*
X026018Y033374D01*
X025987Y033334D01*
X025953Y033297D01*
X025916Y033263D01*
X025876Y033232D01*
X025834Y033204D01*
X025791Y033180D01*
X025745Y033159D01*
X025698Y033141D01*
X025649Y033128D01*
X025600Y033118D01*
X025550Y033112D01*
X025500Y033110D01*
X025450Y033112D01*
X025400Y033118D01*
X025351Y033128D01*
X025302Y033141D01*
X025255Y033159D01*
X025209Y033180D01*
X025166Y033204D01*
X025124Y033232D01*
X025084Y033263D01*
X025047Y033297D01*
X025013Y033334D01*
X024982Y033374D01*
X024954Y033416D01*
X024930Y033459D01*
X024909Y033505D01*
X024891Y033552D01*
X024878Y033601D01*
X024868Y033650D01*
X024862Y033700D01*
X024860Y033750D01*
X024370Y036200D02*
X024372Y036250D01*
X024378Y036300D01*
X024388Y036349D01*
X024402Y036397D01*
X024419Y036444D01*
X024440Y036489D01*
X024465Y036533D01*
X024493Y036574D01*
X024525Y036613D01*
X024559Y036650D01*
X024596Y036684D01*
X024636Y036714D01*
X024678Y036741D01*
X024722Y036765D01*
X024768Y036786D01*
X024815Y036802D01*
X024863Y036815D01*
X024913Y036824D01*
X024962Y036829D01*
X025013Y036830D01*
X025063Y036827D01*
X025112Y036820D01*
X025161Y036809D01*
X025209Y036794D01*
X025255Y036776D01*
X025300Y036754D01*
X025343Y036728D01*
X025384Y036699D01*
X025423Y036667D01*
X025459Y036632D01*
X025491Y036594D01*
X025521Y036554D01*
X025548Y036511D01*
X025571Y036467D01*
X025590Y036421D01*
X025606Y036373D01*
X025618Y036324D01*
X025626Y036275D01*
X025630Y036225D01*
X025630Y036175D01*
X025626Y036125D01*
X025618Y036076D01*
X025606Y036027D01*
X025590Y035979D01*
X025571Y035933D01*
X025548Y035889D01*
X025521Y035846D01*
X025491Y035806D01*
X025459Y035768D01*
X025423Y035733D01*
X025384Y035701D01*
X025343Y035672D01*
X025300Y035646D01*
X025255Y035624D01*
X025209Y035606D01*
X025161Y035591D01*
X025112Y035580D01*
X025063Y035573D01*
X025013Y035570D01*
X024962Y035571D01*
X024913Y035576D01*
X024863Y035585D01*
X024815Y035598D01*
X024768Y035614D01*
X024722Y035635D01*
X024678Y035659D01*
X024636Y035686D01*
X024596Y035716D01*
X024559Y035750D01*
X024525Y035787D01*
X024493Y035826D01*
X024465Y035867D01*
X024440Y035911D01*
X024419Y035956D01*
X024402Y036003D01*
X024388Y036051D01*
X024378Y036100D01*
X024372Y036150D01*
X024370Y036200D01*
D11*
X029000Y033750D03*
D12*
X028000Y033250D03*
X029000Y032750D03*
X028000Y032250D03*
X029000Y031750D03*
X028000Y031250D03*
X029000Y030750D03*
X028000Y030250D03*
X029000Y029750D03*
X028000Y029250D03*
D13*
X026701Y028449D03*
X026701Y034551D03*
D14*
X024169Y033114D03*
X023571Y034114D03*
X023571Y029886D03*
X024169Y028886D03*
D15*
X030350Y030450D03*
X030350Y030750D03*
X030350Y031250D03*
X030350Y031550D03*
X030800Y031000D03*
X031100Y031000D03*
X030350Y033450D03*
X030350Y033750D03*
X030350Y034250D03*
X030350Y034550D03*
X030800Y034000D03*
X031100Y034000D03*
X030150Y035450D03*
X030150Y035750D03*
D16*
X029200Y036000D03*
X028000Y036000D03*
D17*
X029750Y036750D03*
X030250Y036750D03*
X030750Y036750D03*
X031250Y036750D03*
X031750Y036750D03*
X032250Y036750D03*
X032750Y036750D03*
X033250Y036750D03*
X033750Y036750D03*
X034250Y036750D03*
X034750Y036750D03*
X035250Y036750D03*
X035750Y036750D03*
X036250Y036750D03*
X036750Y036750D03*
X037250Y036750D03*
X037750Y036750D03*
X038250Y036750D03*
X038750Y036750D03*
X039250Y036750D03*
D18*
X023000Y037500D03*
X023000Y025500D03*
D19*
X024000Y025500D03*
X025000Y025500D03*
X026000Y025500D03*
X027000Y025500D03*
X028000Y025500D03*
X029000Y025500D03*
X030000Y025500D03*
X031000Y025500D03*
X032000Y025500D03*
X033000Y025500D03*
X034000Y025500D03*
X035000Y025500D03*
X036000Y025500D03*
X037000Y025500D03*
X038000Y025500D03*
X039000Y025500D03*
X040000Y025500D03*
X040000Y037500D03*
X039000Y037500D03*
X038000Y037500D03*
X037000Y037500D03*
X036000Y037500D03*
X035000Y037500D03*
X034000Y037500D03*
X033000Y037500D03*
X032000Y037500D03*
X031000Y037500D03*
X030000Y037500D03*
X029000Y037500D03*
X028000Y037500D03*
X027000Y037500D03*
X026000Y037500D03*
X025000Y037500D03*
X024000Y037500D03*
D20*
X031000Y036150D03*
X031000Y035550D03*
X032000Y035550D03*
X032000Y036150D03*
X033000Y036150D03*
X033000Y035550D03*
X034000Y035550D03*
X034000Y036150D03*
X035000Y036150D03*
X035000Y035550D03*
X036000Y035550D03*
X036000Y036150D03*
X037000Y036150D03*
X037000Y035550D03*
X038000Y035550D03*
X038000Y036150D03*
X039000Y036150D03*
X039000Y035550D03*
D21*
X038500Y036000D03*
X037500Y036000D03*
X036750Y035550D03*
X036500Y035000D03*
X035500Y035000D03*
X034500Y035000D03*
X034500Y034000D03*
X034500Y033000D03*
X035500Y033000D03*
X035500Y034000D03*
X036500Y034000D03*
X036500Y033000D03*
X036500Y032000D03*
X035500Y032000D03*
X034500Y031000D03*
X033500Y031000D03*
X032500Y031000D03*
X031500Y031000D03*
X031500Y032000D03*
X032500Y032000D03*
X033500Y032000D03*
X032500Y033000D03*
X031500Y033000D03*
X031500Y034000D03*
X030350Y033850D03*
X030350Y034150D03*
X030500Y033000D03*
X030500Y032000D03*
X030350Y031150D03*
X030350Y030850D03*
X030350Y030250D03*
X030500Y030000D03*
X030500Y029000D03*
X030500Y028000D03*
X030500Y027000D03*
X030500Y026000D03*
X031500Y026000D03*
X031500Y027000D03*
X031500Y028000D03*
X031500Y029000D03*
X032500Y030000D03*
X033500Y030000D03*
X033500Y029000D03*
X033500Y028000D03*
X033500Y027000D03*
X033500Y026000D03*
X035500Y026000D03*
X036500Y026000D03*
X036500Y027000D03*
X035500Y027000D03*
X035500Y028000D03*
X036500Y028000D03*
X036500Y029000D03*
X035500Y029000D03*
X035500Y030000D03*
X036500Y030000D03*
X036500Y031000D03*
X037500Y031000D03*
X038500Y031000D03*
X039500Y031000D03*
X039500Y030000D03*
X038500Y030000D03*
X037500Y030000D03*
X037500Y029000D03*
X038500Y029000D03*
X039500Y029000D03*
X039500Y028000D03*
X038500Y028000D03*
X037500Y028000D03*
X037500Y027000D03*
X038500Y027000D03*
X039500Y027000D03*
X039500Y026000D03*
X038500Y026000D03*
X037500Y026000D03*
X037500Y032000D03*
X038500Y032000D03*
X039500Y032000D03*
X039500Y033000D03*
X039500Y034000D03*
X038500Y034000D03*
X038500Y033000D03*
X037500Y033000D03*
X037500Y034000D03*
X037500Y035000D03*
X038500Y035000D03*
X039500Y035000D03*
X039500Y036000D03*
X033500Y035000D03*
X032500Y035000D03*
X033500Y034000D03*
X030350Y035750D03*
X029950Y035750D03*
X030150Y035350D03*
X029400Y036700D03*
X029100Y036800D03*
D22*
X030350Y034550D02*
X030600Y034550D01*
X030800Y034350D01*
X030800Y034000D01*
X030800Y033650D01*
X030600Y033450D01*
X030350Y033450D01*
X030350Y033750D02*
X030350Y033850D01*
X030350Y034150D02*
X030350Y034250D01*
X030350Y031550D02*
X030600Y031550D01*
X030800Y031350D01*
X030800Y031000D01*
X030800Y030650D01*
X030600Y030450D01*
X030350Y030450D01*
X030350Y030427D01*
X030397Y030263D01*
X030350Y030250D01*
X030303Y030263D01*
X030350Y030427D01*
X030350Y030250D01*
X030350Y030750D02*
X030350Y030850D01*
X030350Y031150D02*
X030350Y031250D01*
D23*
X030165Y031257D02*
X029534Y031257D01*
X029534Y031305D02*
X030165Y031305D01*
X030165Y031354D02*
X029535Y031354D01*
X029535Y031402D02*
X030178Y031402D01*
X030180Y031400D02*
X030165Y031385D01*
X030165Y031115D01*
X030167Y031113D01*
X030167Y031074D01*
X030241Y031000D01*
X030167Y030926D01*
X030167Y030887D01*
X030165Y030885D01*
X030165Y030615D01*
X030180Y030600D01*
X030165Y030585D01*
X030165Y030315D01*
X030167Y030313D01*
X030167Y030276D01*
X030160Y030252D01*
X030158Y030246D01*
X030167Y030231D01*
X030167Y030174D01*
X030274Y030067D01*
X030426Y030067D01*
X030533Y030174D01*
X030533Y030231D01*
X030542Y030246D01*
X030542Y030246D01*
X030533Y030276D01*
X030533Y030313D01*
X030535Y030315D01*
X030656Y030315D01*
X030856Y030515D01*
X030935Y030594D01*
X030935Y030815D01*
X030935Y030815D01*
X030937Y030817D01*
X030960Y030803D01*
X030986Y030796D01*
X031075Y030796D01*
X031075Y030975D01*
X031125Y030975D01*
X031125Y031025D01*
X031075Y031025D01*
X031075Y031204D01*
X030986Y031204D01*
X030960Y031197D01*
X030937Y031183D01*
X030935Y031185D01*
X030935Y031406D01*
X030856Y031485D01*
X030656Y031685D01*
X030535Y031685D01*
X030535Y031685D01*
X030485Y031735D01*
X030215Y031735D01*
X030165Y031685D01*
X030165Y031415D01*
X030180Y031400D01*
X030165Y031451D02*
X029535Y031451D01*
X029535Y031499D02*
X030165Y031499D01*
X030165Y031548D02*
X029536Y031548D01*
X029536Y031596D02*
X030165Y031596D01*
X030165Y031645D02*
X029536Y031645D01*
X029536Y031693D02*
X030173Y031693D01*
X030527Y031693D02*
X040377Y031693D01*
X040377Y031645D02*
X030696Y031645D01*
X030745Y031596D02*
X040377Y031596D01*
X040377Y031548D02*
X030793Y031548D01*
X030842Y031499D02*
X040377Y031499D01*
X040377Y031451D02*
X030890Y031451D01*
X030935Y031402D02*
X040377Y031402D01*
X040377Y031354D02*
X030935Y031354D01*
X030935Y031305D02*
X040377Y031305D01*
X040377Y031257D02*
X030935Y031257D01*
X030935Y031208D02*
X040377Y031208D01*
X040377Y031160D02*
X031285Y031160D01*
X031283Y031164D02*
X031264Y031183D01*
X031240Y031197D01*
X031214Y031204D01*
X031125Y031204D01*
X031125Y031025D01*
X031304Y031025D01*
X031304Y031114D01*
X031297Y031140D01*
X031283Y031164D01*
X031304Y031111D02*
X040377Y031111D01*
X040377Y031063D02*
X031304Y031063D01*
X031304Y030975D02*
X031125Y030975D01*
X031125Y030796D01*
X031214Y030796D01*
X031240Y030803D01*
X031264Y030817D01*
X031283Y030836D01*
X031297Y030860D01*
X031304Y030886D01*
X031304Y030975D01*
X031304Y030966D02*
X040377Y030966D01*
X040377Y031014D02*
X031125Y031014D01*
X031125Y030966D02*
X031075Y030966D01*
X031075Y030917D02*
X031125Y030917D01*
X031125Y030869D02*
X031075Y030869D01*
X031075Y030820D02*
X031125Y030820D01*
X031267Y030820D02*
X040377Y030820D01*
X040377Y030772D02*
X030935Y030772D01*
X030935Y030723D02*
X040377Y030723D01*
X040377Y030675D02*
X030935Y030675D01*
X030935Y030626D02*
X040377Y030626D01*
X040377Y030578D02*
X030918Y030578D01*
X030870Y030529D02*
X040377Y030529D01*
X040377Y030481D02*
X030821Y030481D01*
X030773Y030432D02*
X040377Y030432D01*
X040377Y030384D02*
X030724Y030384D01*
X030676Y030335D02*
X040377Y030335D01*
X040377Y030287D02*
X030533Y030287D01*
X030535Y030315D02*
X030535Y030315D01*
X030542Y030246D02*
X030542Y030246D01*
X030537Y030238D02*
X040377Y030238D01*
X040377Y030190D02*
X030533Y030190D01*
X030500Y030141D02*
X040377Y030141D01*
X040377Y030093D02*
X030452Y030093D01*
X030248Y030093D02*
X029528Y030093D01*
X029528Y030141D02*
X030200Y030141D01*
X030167Y030190D02*
X029528Y030190D01*
X029528Y030238D02*
X030163Y030238D01*
X030167Y030287D02*
X029529Y030287D01*
X029529Y030335D02*
X030165Y030335D01*
X030165Y030384D02*
X029529Y030384D01*
X029530Y030432D02*
X030165Y030432D01*
X030165Y030481D02*
X029530Y030481D01*
X029530Y030529D02*
X030165Y030529D01*
X030165Y030578D02*
X029530Y030578D01*
X029531Y030626D02*
X030165Y030626D01*
X030165Y030675D02*
X029531Y030675D01*
X029531Y030723D02*
X030165Y030723D01*
X030165Y030772D02*
X029531Y030772D01*
X029532Y030820D02*
X030165Y030820D01*
X030165Y030869D02*
X029532Y030869D01*
X029532Y030917D02*
X030167Y030917D01*
X030206Y030966D02*
X029532Y030966D01*
X029533Y031014D02*
X030227Y031014D01*
X030178Y031063D02*
X029533Y031063D01*
X029533Y031111D02*
X030167Y031111D01*
X030165Y031160D02*
X029533Y031160D01*
X029534Y031208D02*
X030165Y031208D01*
X030935Y031185D02*
X030935Y031185D01*
X031075Y031160D02*
X031125Y031160D01*
X031125Y031111D02*
X031075Y031111D01*
X031075Y031063D02*
X031125Y031063D01*
X031304Y030917D02*
X040377Y030917D01*
X040377Y030869D02*
X031299Y030869D01*
X029527Y030044D02*
X040377Y030044D01*
X040377Y029996D02*
X029527Y029996D01*
X029527Y029947D02*
X040377Y029947D01*
X040377Y029899D02*
X029527Y029899D01*
X029526Y029850D02*
X040377Y029850D01*
X040377Y029802D02*
X029526Y029802D01*
X029526Y029753D02*
X040377Y029753D01*
X040377Y029705D02*
X029526Y029705D01*
X029525Y029656D02*
X040377Y029656D01*
X040377Y029608D02*
X029525Y029608D01*
X029525Y029559D02*
X040377Y029559D01*
X040377Y029511D02*
X029525Y029511D01*
X029524Y029462D02*
X040377Y029462D01*
X040377Y029414D02*
X029524Y029414D01*
X029524Y029365D02*
X040377Y029365D01*
X040377Y029317D02*
X029523Y029317D01*
X029523Y029268D02*
X040377Y029268D01*
X040377Y029220D02*
X029523Y029220D01*
X029523Y029171D02*
X040377Y029171D01*
X040377Y029123D02*
X029522Y029123D01*
X029522Y029074D02*
X040377Y029074D01*
X040377Y029026D02*
X029522Y029026D01*
X029522Y028977D02*
X040377Y028977D01*
X040377Y028929D02*
X029521Y028929D01*
X029521Y028880D02*
X040377Y028880D01*
X040377Y028832D02*
X029521Y028832D01*
X029521Y028783D02*
X040377Y028783D01*
X040377Y028735D02*
X029520Y028735D01*
X029520Y028686D02*
X040377Y028686D01*
X040377Y028638D02*
X029520Y028638D01*
X029520Y028589D02*
X040377Y028589D01*
X040377Y028541D02*
X029519Y028541D01*
X029519Y028492D02*
X040377Y028492D01*
X040377Y028444D02*
X029519Y028444D01*
X029518Y028395D02*
X040377Y028395D01*
X040377Y028347D02*
X029518Y028347D01*
X029518Y028298D02*
X040377Y028298D01*
X040377Y028250D02*
X029518Y028250D01*
X029517Y028201D02*
X040377Y028201D01*
X040377Y028153D02*
X029517Y028153D01*
X029517Y028104D02*
X040377Y028104D01*
X040377Y028056D02*
X029517Y028056D01*
X029516Y028007D02*
X040377Y028007D01*
X040377Y027959D02*
X029516Y027959D01*
X029516Y027910D02*
X040377Y027910D01*
X040377Y027862D02*
X029516Y027862D01*
X029515Y027813D02*
X040377Y027813D01*
X040377Y027765D02*
X029515Y027765D01*
X029515Y027716D02*
X040377Y027716D01*
X040377Y027668D02*
X029514Y027668D01*
X029514Y027619D02*
X040377Y027619D01*
X040377Y027571D02*
X029514Y027571D01*
X029514Y027522D02*
X040377Y027522D01*
X040377Y027474D02*
X029513Y027474D01*
X029513Y027425D02*
X040377Y027425D01*
X040377Y027377D02*
X029513Y027377D01*
X029513Y027328D02*
X040377Y027328D01*
X040377Y027280D02*
X029512Y027280D01*
X029512Y027231D02*
X040377Y027231D01*
X040377Y027183D02*
X029512Y027183D01*
X029512Y027134D02*
X040377Y027134D01*
X040377Y027086D02*
X029511Y027086D01*
X029511Y027037D02*
X040377Y027037D01*
X040377Y026989D02*
X029511Y026989D01*
X029511Y026940D02*
X040377Y026940D01*
X040377Y026892D02*
X029510Y026892D01*
X029510Y026843D02*
X040377Y026843D01*
X040377Y026795D02*
X029510Y026795D01*
X029509Y026746D02*
X040377Y026746D01*
X040377Y026698D02*
X029509Y026698D01*
X029509Y026649D02*
X040377Y026649D01*
X040377Y026601D02*
X029509Y026601D01*
X029508Y026552D02*
X040377Y026552D01*
X040377Y026504D02*
X029508Y026504D01*
X029508Y026455D02*
X040377Y026455D01*
X040377Y026407D02*
X029508Y026407D01*
X029507Y026358D02*
X040377Y026358D01*
X040377Y026310D02*
X029507Y026310D01*
X029507Y026261D02*
X040377Y026261D01*
X040377Y026213D02*
X029507Y026213D01*
X029506Y026164D02*
X040377Y026164D01*
X040377Y026116D02*
X029506Y026116D01*
X029506Y026067D02*
X040377Y026067D01*
X040377Y026019D02*
X029506Y026019D01*
X029505Y025970D02*
X030939Y025970D01*
X030963Y025974D02*
X030889Y025962D01*
X030818Y025939D01*
X030752Y025905D01*
X030691Y025861D01*
X030639Y025809D01*
X030595Y025748D01*
X030561Y025682D01*
X030538Y025611D01*
X030526Y025537D01*
X030526Y025525D01*
X030975Y025525D01*
X030975Y025974D01*
X030963Y025974D01*
X030975Y025970D02*
X031025Y025970D01*
X031025Y025974D02*
X031025Y025525D01*
X030975Y025525D01*
X030975Y025475D01*
X030526Y025475D01*
X030526Y025463D01*
X030538Y025389D01*
X030561Y025318D01*
X030595Y025252D01*
X030639Y025191D01*
X030691Y025139D01*
X030712Y025123D01*
X030267Y025123D01*
X030386Y025242D01*
X030455Y025409D01*
X030455Y025591D01*
X030386Y025758D01*
X030258Y025886D01*
X030091Y025955D01*
X029909Y025955D01*
X029742Y025886D01*
X029614Y025758D01*
X029545Y025591D01*
X029545Y025409D01*
X029614Y025242D01*
X029733Y025123D01*
X029501Y025123D01*
X029550Y034200D01*
X029000Y034750D01*
X029000Y035546D01*
X029175Y035546D01*
X029175Y035975D01*
X029225Y035975D01*
X029225Y036025D01*
X029529Y036025D01*
X029529Y036325D01*
X030098Y036325D01*
X030696Y035727D01*
X030696Y035575D01*
X030975Y035575D01*
X030975Y035525D01*
X031025Y035525D01*
X031025Y035575D01*
X031304Y035575D01*
X031304Y035725D01*
X031696Y035725D01*
X031696Y035575D01*
X031975Y035575D01*
X031975Y035525D01*
X032025Y035525D01*
X032025Y035575D01*
X032304Y035575D01*
X032304Y035725D01*
X032696Y035725D01*
X032696Y035575D01*
X032975Y035575D01*
X032975Y035525D01*
X033025Y035525D01*
X033025Y035575D01*
X033304Y035575D01*
X033304Y035725D01*
X033696Y035725D01*
X033696Y035575D01*
X033975Y035575D01*
X033975Y035525D01*
X034025Y035525D01*
X034025Y035575D01*
X034304Y035575D01*
X034304Y035725D01*
X034696Y035725D01*
X034696Y035575D01*
X034975Y035575D01*
X034975Y035525D01*
X035025Y035525D01*
X035025Y035575D01*
X035304Y035575D01*
X035304Y035725D01*
X035696Y035725D01*
X035696Y035575D01*
X035975Y035575D01*
X035975Y035525D01*
X036025Y035525D01*
X036025Y035575D01*
X036304Y035575D01*
X036304Y035725D01*
X036666Y035725D01*
X036567Y035626D01*
X036567Y035474D01*
X036674Y035367D01*
X036715Y035367D01*
X036715Y035315D01*
X036765Y035265D01*
X037235Y035265D01*
X037285Y035315D01*
X037285Y035425D01*
X037715Y035425D01*
X037715Y035315D01*
X037765Y035265D01*
X038235Y035265D01*
X038285Y035315D01*
X038285Y035425D01*
X038715Y035425D01*
X038715Y035315D01*
X038765Y035265D01*
X039235Y035265D01*
X039285Y035315D01*
X039285Y035785D01*
X039235Y035835D01*
X038765Y035835D01*
X038715Y035785D01*
X038715Y035675D01*
X038285Y035675D01*
X038285Y035785D01*
X038235Y035835D01*
X037765Y035835D01*
X037715Y035785D01*
X037715Y035675D01*
X037285Y035675D01*
X037285Y035785D01*
X037235Y035835D01*
X036862Y035835D01*
X036892Y035865D01*
X037235Y035865D01*
X037285Y035915D01*
X037285Y036385D01*
X037235Y036435D01*
X036892Y036435D01*
X036875Y036452D01*
X036875Y036490D01*
X036910Y036490D01*
X036960Y036540D01*
X036960Y036863D01*
X037040Y036783D01*
X037040Y036540D01*
X037090Y036490D01*
X037410Y036490D01*
X037460Y036540D01*
X037460Y036960D01*
X037410Y037010D01*
X037167Y037010D01*
X037125Y037052D01*
X037125Y037059D01*
X037258Y037114D01*
X037386Y037242D01*
X037455Y037409D01*
X037455Y037591D01*
X037386Y037758D01*
X037267Y037877D01*
X037733Y037877D01*
X037614Y037758D01*
X037545Y037591D01*
X037545Y037409D01*
X037614Y037242D01*
X037742Y037114D01*
X037875Y037059D01*
X037875Y037010D01*
X037590Y037010D01*
X037540Y036960D01*
X037540Y036540D01*
X037590Y036490D01*
X037625Y036490D01*
X037625Y036348D01*
X037715Y036258D01*
X037715Y035915D01*
X037765Y035865D01*
X038235Y035865D01*
X038285Y035915D01*
X038285Y036385D01*
X038235Y036435D01*
X037892Y036435D01*
X037875Y036452D01*
X037875Y036490D01*
X037910Y036490D01*
X037960Y036540D01*
X037960Y036863D01*
X038040Y036783D01*
X038040Y036540D01*
X038090Y036490D01*
X038410Y036490D01*
X038460Y036540D01*
X038460Y036960D01*
X038410Y037010D01*
X038167Y037010D01*
X038125Y037052D01*
X038125Y037059D01*
X038258Y037114D01*
X038386Y037242D01*
X038455Y037409D01*
X038455Y037591D01*
X038386Y037758D01*
X038267Y037877D01*
X038733Y037877D01*
X038614Y037758D01*
X038545Y037591D01*
X038545Y037409D01*
X038614Y037242D01*
X038742Y037114D01*
X038875Y037059D01*
X038875Y037010D01*
X038590Y037010D01*
X038540Y036960D01*
X038540Y036540D01*
X038590Y036490D01*
X038625Y036490D01*
X038625Y036348D01*
X038698Y036275D01*
X038698Y036275D01*
X038715Y036258D01*
X038715Y035915D01*
X038765Y035865D01*
X039235Y035865D01*
X039285Y035915D01*
X039285Y036385D01*
X039235Y036435D01*
X038892Y036435D01*
X038875Y036452D01*
X038875Y036490D01*
X038910Y036490D01*
X038960Y036540D01*
X038960Y036863D01*
X039040Y036783D01*
X039040Y036540D01*
X039090Y036490D01*
X039410Y036490D01*
X039460Y036540D01*
X039460Y036960D01*
X039410Y037010D01*
X039167Y037010D01*
X039125Y037052D01*
X039125Y037059D01*
X039258Y037114D01*
X039386Y037242D01*
X039455Y037409D01*
X039455Y037591D01*
X039386Y037758D01*
X039267Y037877D01*
X039712Y037877D01*
X039691Y037861D01*
X039639Y037809D01*
X039595Y037748D01*
X039561Y037682D01*
X039538Y037611D01*
X039526Y037537D01*
X039526Y037525D01*
X039975Y037525D01*
X039975Y037475D01*
X040025Y037475D01*
X040025Y037026D01*
X040037Y037026D01*
X040111Y037038D01*
X040182Y037061D01*
X040248Y037095D01*
X040309Y037139D01*
X040361Y037191D01*
X040377Y037212D01*
X040377Y025767D01*
X040258Y025886D01*
X040091Y025955D01*
X039909Y025955D01*
X039742Y025886D01*
X039614Y025758D01*
X039545Y025591D01*
X039545Y025409D01*
X039614Y025242D01*
X039733Y025123D01*
X039267Y025123D01*
X039386Y025242D01*
X039455Y025409D01*
X039455Y025591D01*
X039386Y025758D01*
X039258Y025886D01*
X039091Y025955D01*
X038909Y025955D01*
X038742Y025886D01*
X038614Y025758D01*
X038545Y025591D01*
X038545Y025409D01*
X038614Y025242D01*
X038733Y025123D01*
X038267Y025123D01*
X038386Y025242D01*
X038455Y025409D01*
X038455Y025591D01*
X038386Y025758D01*
X038258Y025886D01*
X038091Y025955D01*
X037909Y025955D01*
X037742Y025886D01*
X037614Y025758D01*
X037545Y025591D01*
X037545Y025409D01*
X037614Y025242D01*
X037733Y025123D01*
X037267Y025123D01*
X037386Y025242D01*
X037455Y025409D01*
X037455Y025591D01*
X037386Y025758D01*
X037258Y025886D01*
X037091Y025955D01*
X036909Y025955D01*
X036742Y025886D01*
X036614Y025758D01*
X036545Y025591D01*
X036545Y025409D01*
X036614Y025242D01*
X036733Y025123D01*
X036267Y025123D01*
X036386Y025242D01*
X036455Y025409D01*
X036455Y025591D01*
X036386Y025758D01*
X036258Y025886D01*
X036091Y025955D01*
X035909Y025955D01*
X035742Y025886D01*
X035614Y025758D01*
X035545Y025591D01*
X035545Y025409D01*
X035614Y025242D01*
X035733Y025123D01*
X035267Y025123D01*
X035386Y025242D01*
X035455Y025409D01*
X035455Y025591D01*
X035386Y025758D01*
X035258Y025886D01*
X035091Y025955D01*
X034909Y025955D01*
X034742Y025886D01*
X034614Y025758D01*
X034545Y025591D01*
X034545Y025409D01*
X034614Y025242D01*
X034733Y025123D01*
X034267Y025123D01*
X034386Y025242D01*
X034455Y025409D01*
X034455Y025591D01*
X034386Y025758D01*
X034258Y025886D01*
X034091Y025955D01*
X033909Y025955D01*
X033742Y025886D01*
X033614Y025758D01*
X033545Y025591D01*
X033545Y025409D01*
X033614Y025242D01*
X033733Y025123D01*
X033267Y025123D01*
X033386Y025242D01*
X033455Y025409D01*
X033455Y025591D01*
X033386Y025758D01*
X033258Y025886D01*
X033091Y025955D01*
X032909Y025955D01*
X032742Y025886D01*
X032614Y025758D01*
X032545Y025591D01*
X032545Y025409D01*
X032614Y025242D01*
X032733Y025123D01*
X032267Y025123D01*
X032386Y025242D01*
X032455Y025409D01*
X032455Y025591D01*
X032386Y025758D01*
X032258Y025886D01*
X032091Y025955D01*
X031909Y025955D01*
X031742Y025886D01*
X031614Y025758D01*
X031545Y025591D01*
X031545Y025409D01*
X031614Y025242D01*
X031733Y025123D01*
X031288Y025123D01*
X031309Y025139D01*
X031361Y025191D01*
X031405Y025252D01*
X031439Y025318D01*
X031462Y025389D01*
X031474Y025463D01*
X031474Y025475D01*
X031025Y025475D01*
X031025Y025525D01*
X031474Y025525D01*
X031474Y025537D01*
X031462Y025611D01*
X031439Y025682D01*
X031405Y025748D01*
X031361Y025809D01*
X031309Y025861D01*
X031248Y025905D01*
X031182Y025939D01*
X031111Y025962D01*
X031037Y025974D01*
X031025Y025974D01*
X031061Y025970D02*
X040377Y025970D01*
X040377Y025922D02*
X040171Y025922D01*
X040270Y025873D02*
X040377Y025873D01*
X040377Y025825D02*
X040319Y025825D01*
X040367Y025776D02*
X040377Y025776D01*
X039829Y025922D02*
X039171Y025922D01*
X039270Y025873D02*
X039730Y025873D01*
X039681Y025825D02*
X039319Y025825D01*
X039367Y025776D02*
X039633Y025776D01*
X039602Y025728D02*
X039398Y025728D01*
X039418Y025679D02*
X039582Y025679D01*
X039562Y025631D02*
X039438Y025631D01*
X039455Y025582D02*
X039545Y025582D01*
X039545Y025534D02*
X039455Y025534D01*
X039455Y025485D02*
X039545Y025485D01*
X039545Y025437D02*
X039455Y025437D01*
X039446Y025388D02*
X039554Y025388D01*
X039574Y025340D02*
X039426Y025340D01*
X039406Y025291D02*
X039594Y025291D01*
X039614Y025243D02*
X039386Y025243D01*
X039337Y025194D02*
X039663Y025194D01*
X039711Y025146D02*
X039289Y025146D01*
X038711Y025146D02*
X038289Y025146D01*
X038337Y025194D02*
X038663Y025194D01*
X038614Y025243D02*
X038386Y025243D01*
X038406Y025291D02*
X038594Y025291D01*
X038574Y025340D02*
X038426Y025340D01*
X038446Y025388D02*
X038554Y025388D01*
X038545Y025437D02*
X038455Y025437D01*
X038455Y025485D02*
X038545Y025485D01*
X038545Y025534D02*
X038455Y025534D01*
X038455Y025582D02*
X038545Y025582D01*
X038562Y025631D02*
X038438Y025631D01*
X038418Y025679D02*
X038582Y025679D01*
X038602Y025728D02*
X038398Y025728D01*
X038367Y025776D02*
X038633Y025776D01*
X038681Y025825D02*
X038319Y025825D01*
X038270Y025873D02*
X038730Y025873D01*
X038829Y025922D02*
X038171Y025922D01*
X037829Y025922D02*
X037171Y025922D01*
X037270Y025873D02*
X037730Y025873D01*
X037681Y025825D02*
X037319Y025825D01*
X037367Y025776D02*
X037633Y025776D01*
X037602Y025728D02*
X037398Y025728D01*
X037418Y025679D02*
X037582Y025679D01*
X037562Y025631D02*
X037438Y025631D01*
X037455Y025582D02*
X037545Y025582D01*
X037545Y025534D02*
X037455Y025534D01*
X037455Y025485D02*
X037545Y025485D01*
X037545Y025437D02*
X037455Y025437D01*
X037446Y025388D02*
X037554Y025388D01*
X037574Y025340D02*
X037426Y025340D01*
X037406Y025291D02*
X037594Y025291D01*
X037614Y025243D02*
X037386Y025243D01*
X037337Y025194D02*
X037663Y025194D01*
X037711Y025146D02*
X037289Y025146D01*
X036711Y025146D02*
X036289Y025146D01*
X036337Y025194D02*
X036663Y025194D01*
X036614Y025243D02*
X036386Y025243D01*
X036406Y025291D02*
X036594Y025291D01*
X036574Y025340D02*
X036426Y025340D01*
X036446Y025388D02*
X036554Y025388D01*
X036545Y025437D02*
X036455Y025437D01*
X036455Y025485D02*
X036545Y025485D01*
X036545Y025534D02*
X036455Y025534D01*
X036455Y025582D02*
X036545Y025582D01*
X036562Y025631D02*
X036438Y025631D01*
X036418Y025679D02*
X036582Y025679D01*
X036602Y025728D02*
X036398Y025728D01*
X036367Y025776D02*
X036633Y025776D01*
X036681Y025825D02*
X036319Y025825D01*
X036270Y025873D02*
X036730Y025873D01*
X036829Y025922D02*
X036171Y025922D01*
X035829Y025922D02*
X035171Y025922D01*
X035270Y025873D02*
X035730Y025873D01*
X035681Y025825D02*
X035319Y025825D01*
X035367Y025776D02*
X035633Y025776D01*
X035602Y025728D02*
X035398Y025728D01*
X035418Y025679D02*
X035582Y025679D01*
X035562Y025631D02*
X035438Y025631D01*
X035455Y025582D02*
X035545Y025582D01*
X035545Y025534D02*
X035455Y025534D01*
X035455Y025485D02*
X035545Y025485D01*
X035545Y025437D02*
X035455Y025437D01*
X035446Y025388D02*
X035554Y025388D01*
X035574Y025340D02*
X035426Y025340D01*
X035406Y025291D02*
X035594Y025291D01*
X035614Y025243D02*
X035386Y025243D01*
X035337Y025194D02*
X035663Y025194D01*
X035711Y025146D02*
X035289Y025146D01*
X034711Y025146D02*
X034289Y025146D01*
X034337Y025194D02*
X034663Y025194D01*
X034614Y025243D02*
X034386Y025243D01*
X034406Y025291D02*
X034594Y025291D01*
X034574Y025340D02*
X034426Y025340D01*
X034446Y025388D02*
X034554Y025388D01*
X034545Y025437D02*
X034455Y025437D01*
X034455Y025485D02*
X034545Y025485D01*
X034545Y025534D02*
X034455Y025534D01*
X034455Y025582D02*
X034545Y025582D01*
X034562Y025631D02*
X034438Y025631D01*
X034418Y025679D02*
X034582Y025679D01*
X034602Y025728D02*
X034398Y025728D01*
X034367Y025776D02*
X034633Y025776D01*
X034681Y025825D02*
X034319Y025825D01*
X034270Y025873D02*
X034730Y025873D01*
X034829Y025922D02*
X034171Y025922D01*
X033829Y025922D02*
X033171Y025922D01*
X033270Y025873D02*
X033730Y025873D01*
X033681Y025825D02*
X033319Y025825D01*
X033367Y025776D02*
X033633Y025776D01*
X033602Y025728D02*
X033398Y025728D01*
X033418Y025679D02*
X033582Y025679D01*
X033562Y025631D02*
X033438Y025631D01*
X033455Y025582D02*
X033545Y025582D01*
X033545Y025534D02*
X033455Y025534D01*
X033455Y025485D02*
X033545Y025485D01*
X033545Y025437D02*
X033455Y025437D01*
X033446Y025388D02*
X033554Y025388D01*
X033574Y025340D02*
X033426Y025340D01*
X033406Y025291D02*
X033594Y025291D01*
X033614Y025243D02*
X033386Y025243D01*
X033337Y025194D02*
X033663Y025194D01*
X033711Y025146D02*
X033289Y025146D01*
X032711Y025146D02*
X032289Y025146D01*
X032337Y025194D02*
X032663Y025194D01*
X032614Y025243D02*
X032386Y025243D01*
X032406Y025291D02*
X032594Y025291D01*
X032574Y025340D02*
X032426Y025340D01*
X032446Y025388D02*
X032554Y025388D01*
X032545Y025437D02*
X032455Y025437D01*
X032455Y025485D02*
X032545Y025485D01*
X032545Y025534D02*
X032455Y025534D01*
X032455Y025582D02*
X032545Y025582D01*
X032562Y025631D02*
X032438Y025631D01*
X032418Y025679D02*
X032582Y025679D01*
X032602Y025728D02*
X032398Y025728D01*
X032367Y025776D02*
X032633Y025776D01*
X032681Y025825D02*
X032319Y025825D01*
X032270Y025873D02*
X032730Y025873D01*
X032829Y025922D02*
X032171Y025922D01*
X031829Y025922D02*
X031216Y025922D01*
X031293Y025873D02*
X031730Y025873D01*
X031681Y025825D02*
X031345Y025825D01*
X031385Y025776D02*
X031633Y025776D01*
X031602Y025728D02*
X031416Y025728D01*
X031440Y025679D02*
X031582Y025679D01*
X031562Y025631D02*
X031456Y025631D01*
X031467Y025582D02*
X031545Y025582D01*
X031545Y025534D02*
X031474Y025534D01*
X031545Y025485D02*
X031025Y025485D01*
X031025Y025534D02*
X030975Y025534D01*
X030975Y025582D02*
X031025Y025582D01*
X031025Y025631D02*
X030975Y025631D01*
X030975Y025679D02*
X031025Y025679D01*
X031025Y025728D02*
X030975Y025728D01*
X030975Y025776D02*
X031025Y025776D01*
X031025Y025825D02*
X030975Y025825D01*
X030975Y025873D02*
X031025Y025873D01*
X031025Y025922D02*
X030975Y025922D01*
X030784Y025922D02*
X030171Y025922D01*
X030270Y025873D02*
X030707Y025873D01*
X030655Y025825D02*
X030319Y025825D01*
X030367Y025776D02*
X030615Y025776D01*
X030584Y025728D02*
X030398Y025728D01*
X030418Y025679D02*
X030560Y025679D01*
X030544Y025631D02*
X030438Y025631D01*
X030455Y025582D02*
X030533Y025582D01*
X030526Y025534D02*
X030455Y025534D01*
X030455Y025485D02*
X030975Y025485D01*
X030575Y025291D02*
X030406Y025291D01*
X030426Y025340D02*
X030554Y025340D01*
X030538Y025388D02*
X030446Y025388D01*
X030455Y025437D02*
X030530Y025437D01*
X030602Y025243D02*
X030386Y025243D01*
X030337Y025194D02*
X030637Y025194D01*
X030685Y025146D02*
X030289Y025146D01*
X029711Y025146D02*
X029501Y025146D01*
X029501Y025194D02*
X029663Y025194D01*
X029614Y025243D02*
X029501Y025243D01*
X029502Y025291D02*
X029594Y025291D01*
X029574Y025340D02*
X029502Y025340D01*
X029502Y025388D02*
X029554Y025388D01*
X029545Y025437D02*
X029502Y025437D01*
X029503Y025485D02*
X029545Y025485D01*
X029545Y025534D02*
X029503Y025534D01*
X029503Y025582D02*
X029545Y025582D01*
X029562Y025631D02*
X029503Y025631D01*
X029504Y025679D02*
X029582Y025679D01*
X029602Y025728D02*
X029504Y025728D01*
X029504Y025776D02*
X029633Y025776D01*
X029681Y025825D02*
X029504Y025825D01*
X029505Y025873D02*
X029730Y025873D01*
X029829Y025922D02*
X029505Y025922D01*
X031315Y025146D02*
X031711Y025146D01*
X031663Y025194D02*
X031363Y025194D01*
X031398Y025243D02*
X031614Y025243D01*
X031594Y025291D02*
X031425Y025291D01*
X031446Y025340D02*
X031574Y025340D01*
X031554Y025388D02*
X031462Y025388D01*
X031470Y025437D02*
X031545Y025437D01*
X029537Y031742D02*
X040377Y031742D01*
X040377Y031790D02*
X029537Y031790D01*
X029537Y031839D02*
X040377Y031839D01*
X040377Y031887D02*
X029537Y031887D01*
X029538Y031936D02*
X040377Y031936D01*
X040377Y031984D02*
X029538Y031984D01*
X029538Y032033D02*
X040377Y032033D01*
X040377Y032081D02*
X029538Y032081D01*
X029539Y032130D02*
X040377Y032130D01*
X040377Y032178D02*
X029539Y032178D01*
X029539Y032227D02*
X040377Y032227D01*
X040377Y032275D02*
X029540Y032275D01*
X029540Y032324D02*
X040377Y032324D01*
X040377Y032372D02*
X029540Y032372D01*
X029540Y032421D02*
X040377Y032421D01*
X040377Y032469D02*
X029541Y032469D01*
X029541Y032518D02*
X040377Y032518D01*
X040377Y032566D02*
X029541Y032566D01*
X029541Y032615D02*
X040377Y032615D01*
X040377Y032663D02*
X029542Y032663D01*
X029542Y032712D02*
X040377Y032712D01*
X040377Y032760D02*
X029542Y032760D01*
X029542Y032809D02*
X040377Y032809D01*
X040377Y032857D02*
X029543Y032857D01*
X029543Y032906D02*
X040377Y032906D01*
X040377Y032954D02*
X029543Y032954D01*
X029543Y033003D02*
X040377Y033003D01*
X040377Y033051D02*
X029544Y033051D01*
X029544Y033100D02*
X040377Y033100D01*
X040377Y033148D02*
X029544Y033148D01*
X029545Y033197D02*
X040377Y033197D01*
X040377Y033245D02*
X029545Y033245D01*
X029545Y033294D02*
X030186Y033294D01*
X030165Y033315D02*
X030215Y033265D01*
X030485Y033265D01*
X030535Y033315D01*
X030656Y033315D01*
X030856Y033515D01*
X030935Y033594D01*
X030935Y033815D01*
X030935Y033815D01*
X030937Y033817D01*
X030960Y033803D01*
X030986Y033796D01*
X031075Y033796D01*
X031075Y033975D01*
X031125Y033975D01*
X031125Y034025D01*
X031075Y034025D01*
X031075Y034204D01*
X030986Y034204D01*
X030960Y034197D01*
X030937Y034183D01*
X030935Y034185D01*
X030935Y034406D01*
X030856Y034485D01*
X030656Y034685D01*
X030535Y034685D01*
X030535Y034685D01*
X030485Y034735D01*
X030215Y034735D01*
X030165Y034685D01*
X030165Y034415D01*
X030180Y034400D01*
X030165Y034385D01*
X030165Y034115D01*
X030167Y034113D01*
X030167Y034074D01*
X030241Y034000D01*
X030167Y033926D01*
X030167Y033887D01*
X030165Y033885D01*
X030165Y033615D01*
X030180Y033600D01*
X030165Y033585D01*
X030165Y033315D01*
X030165Y033342D02*
X029545Y033342D01*
X029546Y033391D02*
X030165Y033391D01*
X030165Y033439D02*
X029546Y033439D01*
X029546Y033488D02*
X030165Y033488D01*
X030165Y033536D02*
X029546Y033536D01*
X029547Y033585D02*
X030165Y033585D01*
X030165Y033633D02*
X029547Y033633D01*
X029547Y033682D02*
X030165Y033682D01*
X030165Y033730D02*
X029547Y033730D01*
X029548Y033779D02*
X030165Y033779D01*
X030165Y033827D02*
X029548Y033827D01*
X029548Y033876D02*
X030165Y033876D01*
X030167Y033924D02*
X029548Y033924D01*
X029549Y033973D02*
X030213Y033973D01*
X030220Y034021D02*
X029549Y034021D01*
X029549Y034070D02*
X030171Y034070D01*
X030165Y034118D02*
X029550Y034118D01*
X029550Y034167D02*
X030165Y034167D01*
X030165Y034215D02*
X029535Y034215D01*
X029486Y034264D02*
X030165Y034264D01*
X030165Y034312D02*
X029438Y034312D01*
X029389Y034361D02*
X030165Y034361D01*
X030171Y034409D02*
X029341Y034409D01*
X029292Y034458D02*
X030165Y034458D01*
X030165Y034506D02*
X029244Y034506D01*
X029195Y034555D02*
X030165Y034555D01*
X030165Y034603D02*
X029147Y034603D01*
X029098Y034652D02*
X030165Y034652D01*
X030180Y034700D02*
X029050Y034700D01*
X029001Y034749D02*
X040377Y034749D01*
X040377Y034797D02*
X029000Y034797D01*
X029000Y034846D02*
X040377Y034846D01*
X040377Y034894D02*
X029000Y034894D01*
X029000Y034943D02*
X040377Y034943D01*
X040377Y034991D02*
X029000Y034991D01*
X029000Y035040D02*
X040377Y035040D01*
X040377Y035088D02*
X029000Y035088D01*
X029000Y035137D02*
X040377Y035137D01*
X040377Y035185D02*
X030247Y035185D01*
X030227Y035165D02*
X030335Y035273D01*
X030335Y035585D01*
X030333Y035587D01*
X030347Y035610D01*
X030354Y035636D01*
X030354Y035725D01*
X030175Y035725D01*
X030175Y035775D01*
X030125Y035775D01*
X030125Y035954D01*
X030036Y035954D01*
X030010Y035947D01*
X029986Y035933D01*
X029967Y035914D01*
X029953Y035890D01*
X029946Y035864D01*
X029529Y035864D01*
X029529Y035816D02*
X029946Y035816D01*
X029946Y035775D02*
X030125Y035775D01*
X030125Y035725D01*
X029946Y035725D01*
X029946Y035636D01*
X029953Y035610D01*
X029967Y035587D01*
X029965Y035585D01*
X029965Y035273D01*
X030073Y035165D01*
X030227Y035165D01*
X030295Y035234D02*
X040377Y035234D01*
X040377Y035282D02*
X039252Y035282D01*
X039285Y035331D02*
X040377Y035331D01*
X040377Y035379D02*
X039285Y035379D01*
X039285Y035428D02*
X040377Y035428D01*
X040377Y035476D02*
X039285Y035476D01*
X039285Y035525D02*
X040377Y035525D01*
X040377Y035573D02*
X039285Y035573D01*
X039285Y035622D02*
X040377Y035622D01*
X040377Y035670D02*
X039285Y035670D01*
X039285Y035719D02*
X040377Y035719D01*
X040377Y035767D02*
X039285Y035767D01*
X039255Y035816D02*
X040377Y035816D01*
X040377Y035864D02*
X036891Y035864D01*
X036659Y035719D02*
X036304Y035719D01*
X036304Y035670D02*
X036611Y035670D01*
X036567Y035622D02*
X036304Y035622D01*
X036304Y035525D02*
X036025Y035525D01*
X036025Y035246D01*
X036214Y035246D01*
X036240Y035253D01*
X036264Y035267D01*
X036283Y035286D01*
X036297Y035310D01*
X036304Y035336D01*
X036304Y035525D01*
X036567Y035525D01*
X036567Y035573D02*
X036025Y035573D01*
X036025Y035525D02*
X035975Y035525D01*
X035975Y035246D01*
X035786Y035246D01*
X035760Y035253D01*
X035736Y035267D01*
X035717Y035286D01*
X035703Y035310D01*
X035696Y035336D01*
X035696Y035525D01*
X035975Y035525D01*
X035975Y035573D02*
X035025Y035573D01*
X035025Y035525D02*
X035304Y035525D01*
X035304Y035336D01*
X035297Y035310D01*
X035283Y035286D01*
X035264Y035267D01*
X035240Y035253D01*
X035214Y035246D01*
X035025Y035246D01*
X035025Y035525D01*
X034975Y035525D01*
X034975Y035246D01*
X034786Y035246D01*
X034760Y035253D01*
X034736Y035267D01*
X034717Y035286D01*
X034703Y035310D01*
X034696Y035336D01*
X034696Y035525D01*
X034975Y035525D01*
X034975Y035573D02*
X034025Y035573D01*
X034025Y035525D02*
X034304Y035525D01*
X034304Y035336D01*
X034297Y035310D01*
X034283Y035286D01*
X034264Y035267D01*
X034240Y035253D01*
X034214Y035246D01*
X034025Y035246D01*
X034025Y035525D01*
X033975Y035525D01*
X033975Y035246D01*
X033786Y035246D01*
X033760Y035253D01*
X033736Y035267D01*
X033717Y035286D01*
X033703Y035310D01*
X033696Y035336D01*
X033696Y035525D01*
X033975Y035525D01*
X033975Y035573D02*
X033025Y035573D01*
X033025Y035525D02*
X033304Y035525D01*
X033304Y035336D01*
X033297Y035310D01*
X033283Y035286D01*
X033264Y035267D01*
X033240Y035253D01*
X033214Y035246D01*
X033025Y035246D01*
X033025Y035525D01*
X032975Y035525D01*
X032975Y035246D01*
X032786Y035246D01*
X032760Y035253D01*
X032736Y035267D01*
X032717Y035286D01*
X032703Y035310D01*
X032696Y035336D01*
X032696Y035525D01*
X032975Y035525D01*
X032975Y035573D02*
X032025Y035573D01*
X032025Y035525D02*
X032304Y035525D01*
X032304Y035336D01*
X032297Y035310D01*
X032283Y035286D01*
X032264Y035267D01*
X032240Y035253D01*
X032214Y035246D01*
X032025Y035246D01*
X032025Y035525D01*
X031975Y035525D01*
X031975Y035246D01*
X031786Y035246D01*
X031760Y035253D01*
X031736Y035267D01*
X031717Y035286D01*
X031703Y035310D01*
X031696Y035336D01*
X031696Y035525D01*
X031975Y035525D01*
X031975Y035573D02*
X031025Y035573D01*
X031025Y035525D02*
X031304Y035525D01*
X031304Y035336D01*
X031297Y035310D01*
X031283Y035286D01*
X031264Y035267D01*
X031240Y035253D01*
X031214Y035246D01*
X031025Y035246D01*
X031025Y035525D01*
X030975Y035525D01*
X030975Y035246D01*
X030786Y035246D01*
X030760Y035253D01*
X030736Y035267D01*
X030717Y035286D01*
X030703Y035310D01*
X030696Y035336D01*
X030696Y035525D01*
X030975Y035525D01*
X030975Y035573D02*
X030335Y035573D01*
X030335Y035525D02*
X030696Y035525D01*
X030696Y035476D02*
X030335Y035476D01*
X030335Y035428D02*
X030696Y035428D01*
X030696Y035379D02*
X030335Y035379D01*
X030335Y035331D02*
X030698Y035331D01*
X030721Y035282D02*
X030335Y035282D01*
X030053Y035185D02*
X029000Y035185D01*
X029000Y035234D02*
X030005Y035234D01*
X029965Y035282D02*
X029000Y035282D01*
X029000Y035331D02*
X029965Y035331D01*
X029965Y035379D02*
X029000Y035379D01*
X029000Y035428D02*
X029965Y035428D01*
X029965Y035476D02*
X029000Y035476D01*
X029000Y035525D02*
X029965Y035525D01*
X029965Y035573D02*
X029495Y035573D01*
X029489Y035567D02*
X029508Y035586D01*
X029522Y035610D01*
X029529Y035636D01*
X029529Y035975D01*
X029225Y035975D01*
X029225Y035546D01*
X029439Y035546D01*
X029465Y035553D01*
X029489Y035567D01*
X029525Y035622D02*
X029950Y035622D01*
X029946Y035670D02*
X029529Y035670D01*
X029529Y035719D02*
X029946Y035719D01*
X029946Y035775D02*
X029946Y035864D01*
X029966Y035913D02*
X029529Y035913D01*
X029529Y035961D02*
X030462Y035961D01*
X030414Y036010D02*
X029225Y036010D01*
X029225Y035961D02*
X029175Y035961D01*
X029175Y035913D02*
X029225Y035913D01*
X029225Y035864D02*
X029175Y035864D01*
X029175Y035816D02*
X029225Y035816D01*
X029225Y035767D02*
X029175Y035767D01*
X029175Y035719D02*
X029225Y035719D01*
X029225Y035670D02*
X029175Y035670D01*
X029175Y035622D02*
X029225Y035622D01*
X029225Y035573D02*
X029175Y035573D01*
X029529Y035767D02*
X030125Y035767D01*
X030125Y035816D02*
X030175Y035816D01*
X030175Y035775D02*
X030175Y035954D01*
X030264Y035954D01*
X030290Y035947D01*
X030314Y035933D01*
X030333Y035914D01*
X030347Y035890D01*
X030354Y035864D01*
X030559Y035864D01*
X030511Y035913D02*
X030334Y035913D01*
X030354Y035864D02*
X030354Y035775D01*
X030175Y035775D01*
X030175Y035767D02*
X030656Y035767D01*
X030696Y035719D02*
X030354Y035719D01*
X030354Y035670D02*
X030696Y035670D01*
X030696Y035622D02*
X030350Y035622D01*
X030354Y035816D02*
X030608Y035816D01*
X030365Y036058D02*
X029529Y036058D01*
X029529Y036107D02*
X030317Y036107D01*
X030268Y036155D02*
X029529Y036155D01*
X029529Y036204D02*
X030220Y036204D01*
X030171Y036252D02*
X029529Y036252D01*
X029529Y036301D02*
X030123Y036301D01*
X030125Y035913D02*
X030175Y035913D01*
X030175Y035864D02*
X030125Y035864D01*
X030975Y035476D02*
X031025Y035476D01*
X031025Y035428D02*
X030975Y035428D01*
X030975Y035379D02*
X031025Y035379D01*
X031025Y035331D02*
X030975Y035331D01*
X030975Y035282D02*
X031025Y035282D01*
X031279Y035282D02*
X031721Y035282D01*
X031698Y035331D02*
X031302Y035331D01*
X031304Y035379D02*
X031696Y035379D01*
X031696Y035428D02*
X031304Y035428D01*
X031304Y035476D02*
X031696Y035476D01*
X031696Y035525D02*
X031304Y035525D01*
X031304Y035622D02*
X031696Y035622D01*
X031696Y035670D02*
X031304Y035670D01*
X031304Y035719D02*
X031696Y035719D01*
X031975Y035476D02*
X032025Y035476D01*
X032025Y035428D02*
X031975Y035428D01*
X031975Y035379D02*
X032025Y035379D01*
X032025Y035331D02*
X031975Y035331D01*
X031975Y035282D02*
X032025Y035282D01*
X032279Y035282D02*
X032721Y035282D01*
X032698Y035331D02*
X032302Y035331D01*
X032304Y035379D02*
X032696Y035379D01*
X032696Y035428D02*
X032304Y035428D01*
X032304Y035476D02*
X032696Y035476D01*
X032696Y035525D02*
X032304Y035525D01*
X032304Y035622D02*
X032696Y035622D01*
X032696Y035670D02*
X032304Y035670D01*
X032304Y035719D02*
X032696Y035719D01*
X032975Y035476D02*
X033025Y035476D01*
X033025Y035428D02*
X032975Y035428D01*
X032975Y035379D02*
X033025Y035379D01*
X033025Y035331D02*
X032975Y035331D01*
X032975Y035282D02*
X033025Y035282D01*
X033279Y035282D02*
X033721Y035282D01*
X033698Y035331D02*
X033302Y035331D01*
X033304Y035379D02*
X033696Y035379D01*
X033696Y035428D02*
X033304Y035428D01*
X033304Y035476D02*
X033696Y035476D01*
X033696Y035525D02*
X033304Y035525D01*
X033304Y035622D02*
X033696Y035622D01*
X033696Y035670D02*
X033304Y035670D01*
X033304Y035719D02*
X033696Y035719D01*
X033975Y035476D02*
X034025Y035476D01*
X034025Y035428D02*
X033975Y035428D01*
X033975Y035379D02*
X034025Y035379D01*
X034025Y035331D02*
X033975Y035331D01*
X033975Y035282D02*
X034025Y035282D01*
X034279Y035282D02*
X034721Y035282D01*
X034698Y035331D02*
X034302Y035331D01*
X034304Y035379D02*
X034696Y035379D01*
X034696Y035428D02*
X034304Y035428D01*
X034304Y035476D02*
X034696Y035476D01*
X034696Y035525D02*
X034304Y035525D01*
X034304Y035622D02*
X034696Y035622D01*
X034696Y035670D02*
X034304Y035670D01*
X034304Y035719D02*
X034696Y035719D01*
X034975Y035476D02*
X035025Y035476D01*
X035025Y035428D02*
X034975Y035428D01*
X034975Y035379D02*
X035025Y035379D01*
X035025Y035331D02*
X034975Y035331D01*
X034975Y035282D02*
X035025Y035282D01*
X035279Y035282D02*
X035721Y035282D01*
X035698Y035331D02*
X035302Y035331D01*
X035304Y035379D02*
X035696Y035379D01*
X035696Y035428D02*
X035304Y035428D01*
X035304Y035476D02*
X035696Y035476D01*
X035696Y035525D02*
X035304Y035525D01*
X035304Y035622D02*
X035696Y035622D01*
X035696Y035670D02*
X035304Y035670D01*
X035304Y035719D02*
X035696Y035719D01*
X035975Y035476D02*
X036025Y035476D01*
X036025Y035428D02*
X035975Y035428D01*
X035975Y035379D02*
X036025Y035379D01*
X036025Y035331D02*
X035975Y035331D01*
X035975Y035282D02*
X036025Y035282D01*
X036279Y035282D02*
X036748Y035282D01*
X036715Y035331D02*
X036302Y035331D01*
X036304Y035379D02*
X036662Y035379D01*
X036613Y035428D02*
X036304Y035428D01*
X036304Y035476D02*
X036567Y035476D01*
X037252Y035282D02*
X037748Y035282D01*
X037715Y035331D02*
X037285Y035331D01*
X037285Y035379D02*
X037715Y035379D01*
X037715Y035719D02*
X037285Y035719D01*
X037285Y035767D02*
X037715Y035767D01*
X037745Y035816D02*
X037255Y035816D01*
X037283Y035913D02*
X037717Y035913D01*
X037715Y035961D02*
X037285Y035961D01*
X037285Y036010D02*
X037715Y036010D01*
X037715Y036058D02*
X037285Y036058D01*
X037285Y036107D02*
X037715Y036107D01*
X037715Y036155D02*
X037285Y036155D01*
X037285Y036204D02*
X037715Y036204D01*
X037715Y036252D02*
X037285Y036252D01*
X037285Y036301D02*
X037673Y036301D01*
X037625Y036349D02*
X037285Y036349D01*
X037273Y036398D02*
X037625Y036398D01*
X037625Y036446D02*
X036881Y036446D01*
X036915Y036495D02*
X037085Y036495D01*
X037040Y036543D02*
X036960Y036543D01*
X036960Y036592D02*
X037040Y036592D01*
X037040Y036640D02*
X036960Y036640D01*
X036960Y036689D02*
X037040Y036689D01*
X037040Y036737D02*
X036960Y036737D01*
X036960Y036786D02*
X037038Y036786D01*
X036989Y036834D02*
X036960Y036834D01*
X037149Y037028D02*
X037875Y037028D01*
X037833Y037077D02*
X037167Y037077D01*
X037269Y037125D02*
X037731Y037125D01*
X037683Y037174D02*
X037317Y037174D01*
X037366Y037222D02*
X037634Y037222D01*
X037603Y037271D02*
X037397Y037271D01*
X037418Y037319D02*
X037582Y037319D01*
X037562Y037368D02*
X037438Y037368D01*
X037455Y037416D02*
X037545Y037416D01*
X037545Y037465D02*
X037455Y037465D01*
X037455Y037513D02*
X037545Y037513D01*
X037545Y037562D02*
X037455Y037562D01*
X037447Y037610D02*
X037553Y037610D01*
X037573Y037659D02*
X037427Y037659D01*
X037407Y037707D02*
X037593Y037707D01*
X037613Y037756D02*
X037387Y037756D01*
X037339Y037804D02*
X037661Y037804D01*
X037709Y037853D02*
X037291Y037853D01*
X037441Y036980D02*
X037559Y036980D01*
X037540Y036931D02*
X037460Y036931D01*
X037460Y036883D02*
X037540Y036883D01*
X037540Y036834D02*
X037460Y036834D01*
X037460Y036786D02*
X037540Y036786D01*
X037540Y036737D02*
X037460Y036737D01*
X037460Y036689D02*
X037540Y036689D01*
X037540Y036640D02*
X037460Y036640D01*
X037460Y036592D02*
X037540Y036592D01*
X037540Y036543D02*
X037460Y036543D01*
X037415Y036495D02*
X037585Y036495D01*
X037881Y036446D02*
X038625Y036446D01*
X038625Y036398D02*
X038273Y036398D01*
X038285Y036349D02*
X038625Y036349D01*
X038673Y036301D02*
X038285Y036301D01*
X038285Y036252D02*
X038715Y036252D01*
X038715Y036204D02*
X038285Y036204D01*
X038285Y036155D02*
X038715Y036155D01*
X038715Y036107D02*
X038285Y036107D01*
X038285Y036058D02*
X038715Y036058D01*
X038715Y036010D02*
X038285Y036010D01*
X038285Y035961D02*
X038715Y035961D01*
X038717Y035913D02*
X038283Y035913D01*
X038255Y035816D02*
X038745Y035816D01*
X038715Y035767D02*
X038285Y035767D01*
X038285Y035719D02*
X038715Y035719D01*
X038715Y035379D02*
X038285Y035379D01*
X038285Y035331D02*
X038715Y035331D01*
X038748Y035282D02*
X038252Y035282D01*
X039283Y035913D02*
X040377Y035913D01*
X040377Y035961D02*
X039285Y035961D01*
X039285Y036010D02*
X040377Y036010D01*
X040377Y036058D02*
X039285Y036058D01*
X039285Y036107D02*
X040377Y036107D01*
X040377Y036155D02*
X039285Y036155D01*
X039285Y036204D02*
X040377Y036204D01*
X040377Y036252D02*
X039285Y036252D01*
X039285Y036301D02*
X040377Y036301D01*
X040377Y036349D02*
X039285Y036349D01*
X039273Y036398D02*
X040377Y036398D01*
X040377Y036446D02*
X038881Y036446D01*
X038915Y036495D02*
X039085Y036495D01*
X039040Y036543D02*
X038960Y036543D01*
X038960Y036592D02*
X039040Y036592D01*
X039040Y036640D02*
X038960Y036640D01*
X038960Y036689D02*
X039040Y036689D01*
X039040Y036737D02*
X038960Y036737D01*
X038960Y036786D02*
X039038Y036786D01*
X038989Y036834D02*
X038960Y036834D01*
X038875Y037028D02*
X038149Y037028D01*
X038167Y037077D02*
X038833Y037077D01*
X038731Y037125D02*
X038269Y037125D01*
X038317Y037174D02*
X038683Y037174D01*
X038634Y037222D02*
X038366Y037222D01*
X038397Y037271D02*
X038603Y037271D01*
X038582Y037319D02*
X038418Y037319D01*
X038438Y037368D02*
X038562Y037368D01*
X038545Y037416D02*
X038455Y037416D01*
X038455Y037465D02*
X038545Y037465D01*
X038545Y037513D02*
X038455Y037513D01*
X038455Y037562D02*
X038545Y037562D01*
X038553Y037610D02*
X038447Y037610D01*
X038427Y037659D02*
X038573Y037659D01*
X038593Y037707D02*
X038407Y037707D01*
X038387Y037756D02*
X038613Y037756D01*
X038661Y037804D02*
X038339Y037804D01*
X038291Y037853D02*
X038709Y037853D01*
X039291Y037853D02*
X039683Y037853D01*
X039635Y037804D02*
X039339Y037804D01*
X039387Y037756D02*
X039600Y037756D01*
X039574Y037707D02*
X039407Y037707D01*
X039427Y037659D02*
X039553Y037659D01*
X039538Y037610D02*
X039447Y037610D01*
X039455Y037562D02*
X039530Y037562D01*
X039526Y037475D02*
X039526Y037463D01*
X039538Y037389D01*
X039561Y037318D01*
X039595Y037252D01*
X039639Y037191D01*
X039691Y037139D01*
X039752Y037095D01*
X039818Y037061D01*
X039889Y037038D01*
X039963Y037026D01*
X039975Y037026D01*
X039975Y037475D01*
X039526Y037475D01*
X039526Y037465D02*
X039455Y037465D01*
X039455Y037513D02*
X039975Y037513D01*
X039975Y037465D02*
X040025Y037465D01*
X040025Y037416D02*
X039975Y037416D01*
X039975Y037368D02*
X040025Y037368D01*
X040025Y037319D02*
X039975Y037319D01*
X039975Y037271D02*
X040025Y037271D01*
X040025Y037222D02*
X039975Y037222D01*
X039975Y037174D02*
X040025Y037174D01*
X040025Y037125D02*
X039975Y037125D01*
X039975Y037077D02*
X040025Y037077D01*
X040025Y037028D02*
X039975Y037028D01*
X039951Y037028D02*
X039149Y037028D01*
X039167Y037077D02*
X039788Y037077D01*
X039710Y037125D02*
X039269Y037125D01*
X039317Y037174D02*
X039656Y037174D01*
X039616Y037222D02*
X039366Y037222D01*
X039397Y037271D02*
X039585Y037271D01*
X039561Y037319D02*
X039418Y037319D01*
X039438Y037368D02*
X039545Y037368D01*
X039534Y037416D02*
X039455Y037416D01*
X039441Y036980D02*
X040377Y036980D01*
X040377Y037028D02*
X040049Y037028D01*
X040212Y037077D02*
X040377Y037077D01*
X040377Y037125D02*
X040290Y037125D01*
X040344Y037174D02*
X040377Y037174D01*
X040377Y036931D02*
X039460Y036931D01*
X039460Y036883D02*
X040377Y036883D01*
X040377Y036834D02*
X039460Y036834D01*
X039460Y036786D02*
X040377Y036786D01*
X040377Y036737D02*
X039460Y036737D01*
X039460Y036689D02*
X040377Y036689D01*
X040377Y036640D02*
X039460Y036640D01*
X039460Y036592D02*
X040377Y036592D01*
X040377Y036543D02*
X039460Y036543D01*
X039415Y036495D02*
X040377Y036495D01*
X038585Y036495D02*
X038415Y036495D01*
X038460Y036543D02*
X038540Y036543D01*
X038540Y036592D02*
X038460Y036592D01*
X038460Y036640D02*
X038540Y036640D01*
X038540Y036689D02*
X038460Y036689D01*
X038460Y036737D02*
X038540Y036737D01*
X038540Y036786D02*
X038460Y036786D01*
X038460Y036834D02*
X038540Y036834D01*
X038540Y036883D02*
X038460Y036883D01*
X038460Y036931D02*
X038540Y036931D01*
X038559Y036980D02*
X038441Y036980D01*
X038038Y036786D02*
X037960Y036786D01*
X037960Y036834D02*
X037989Y036834D01*
X037960Y036737D02*
X038040Y036737D01*
X038040Y036689D02*
X037960Y036689D01*
X037960Y036640D02*
X038040Y036640D01*
X038040Y036592D02*
X037960Y036592D01*
X037960Y036543D02*
X038040Y036543D01*
X038085Y036495D02*
X037915Y036495D01*
X040377Y034700D02*
X030520Y034700D01*
X030689Y034652D02*
X040377Y034652D01*
X040377Y034603D02*
X030738Y034603D01*
X030786Y034555D02*
X040377Y034555D01*
X040377Y034506D02*
X030835Y034506D01*
X030883Y034458D02*
X040377Y034458D01*
X040377Y034409D02*
X030932Y034409D01*
X030935Y034361D02*
X040377Y034361D01*
X040377Y034312D02*
X030935Y034312D01*
X030935Y034264D02*
X040377Y034264D01*
X040377Y034215D02*
X030935Y034215D01*
X030935Y034185D02*
X030935Y034185D01*
X031075Y034167D02*
X031125Y034167D01*
X031125Y034204D02*
X031125Y034025D01*
X031304Y034025D01*
X031304Y034114D01*
X031297Y034140D01*
X031283Y034164D01*
X031264Y034183D01*
X031240Y034197D01*
X031214Y034204D01*
X031125Y034204D01*
X031125Y034118D02*
X031075Y034118D01*
X031075Y034070D02*
X031125Y034070D01*
X031125Y034021D02*
X040377Y034021D01*
X040377Y033973D02*
X031304Y033973D01*
X031304Y033975D02*
X031125Y033975D01*
X031125Y033796D01*
X031214Y033796D01*
X031240Y033803D01*
X031264Y033817D01*
X031283Y033836D01*
X031297Y033860D01*
X031304Y033886D01*
X031304Y033975D01*
X031304Y033924D02*
X040377Y033924D01*
X040377Y033876D02*
X031301Y033876D01*
X031274Y033827D02*
X040377Y033827D01*
X040377Y033779D02*
X030935Y033779D01*
X030935Y033730D02*
X040377Y033730D01*
X040377Y033682D02*
X030935Y033682D01*
X030935Y033633D02*
X040377Y033633D01*
X040377Y033585D02*
X030925Y033585D01*
X030877Y033536D02*
X040377Y033536D01*
X040377Y033488D02*
X030828Y033488D01*
X030856Y033515D02*
X030856Y033515D01*
X030780Y033439D02*
X040377Y033439D01*
X040377Y033391D02*
X030731Y033391D01*
X030683Y033342D02*
X040377Y033342D01*
X040377Y033294D02*
X030514Y033294D01*
X030535Y033315D02*
X030535Y033315D01*
X031075Y033827D02*
X031125Y033827D01*
X031125Y033876D02*
X031075Y033876D01*
X031075Y033924D02*
X031125Y033924D01*
X031125Y033973D02*
X031075Y033973D01*
X031304Y034070D02*
X040377Y034070D01*
X040377Y034118D02*
X031303Y034118D01*
X031280Y034167D02*
X040377Y034167D01*
X029316Y036875D02*
X029293Y036852D01*
X029283Y036850D01*
X029272Y036836D01*
X029261Y036820D01*
X029217Y036776D01*
X029217Y036760D01*
X029191Y036725D01*
X029000Y036725D01*
X029000Y036875D01*
X029316Y036875D01*
X029283Y036850D02*
X029283Y036850D01*
X029283Y036850D01*
X029271Y036834D02*
X029000Y036834D01*
X029000Y036786D02*
X029226Y036786D01*
X029199Y036737D02*
X029000Y036737D01*
D24*
X029081Y036745D02*
X029100Y036800D01*
X029081Y036855D01*
X028923Y036800D01*
X029081Y036745D01*
X029100Y036800D02*
X028923Y036800D01*
X027000Y036800D01*
X024400Y034200D01*
X024400Y033350D01*
X024169Y033119D01*
X024169Y033114D01*
X024114Y034114D02*
X027000Y037000D01*
X029500Y037000D01*
X029750Y036750D01*
X029415Y036644D02*
X029254Y036600D01*
X029353Y036735D01*
X029400Y036700D01*
X029415Y036644D01*
X029400Y036700D02*
X029300Y036600D01*
X029254Y036600D01*
X027000Y036600D01*
X024550Y034150D01*
X024550Y030865D01*
X023571Y029886D01*
X024169Y028886D02*
X024700Y029417D01*
X024700Y034100D01*
X027050Y036450D01*
X030150Y036450D01*
X030750Y035850D01*
X036700Y035850D01*
X037000Y036150D01*
X036750Y036400D01*
X036750Y036750D01*
X037000Y037000D02*
X037250Y036750D01*
X037000Y037000D02*
X037000Y037500D01*
X036000Y037500D02*
X036000Y037000D01*
X036250Y036750D01*
X035750Y036750D02*
X035750Y036400D01*
X036000Y036150D01*
X036769Y035605D02*
X036750Y035550D01*
X036769Y035495D01*
X036927Y035550D01*
X036769Y035605D01*
X036750Y035550D02*
X036927Y035550D01*
X037000Y035550D01*
X038000Y035550D01*
X039000Y035550D01*
X039000Y036150D02*
X038750Y036400D01*
X038750Y036750D01*
X039000Y037000D02*
X039000Y037500D01*
X039000Y037000D02*
X039250Y036750D01*
X038250Y036750D02*
X038000Y037000D01*
X038000Y037500D01*
X037750Y036750D02*
X037750Y036400D01*
X038000Y036150D01*
X035250Y036750D02*
X035000Y037000D01*
X035000Y037500D01*
X034750Y036750D02*
X034750Y036400D01*
X035000Y036150D01*
X034000Y036150D02*
X033750Y036400D01*
X033750Y036750D01*
X034000Y037000D02*
X034250Y036750D01*
X034000Y037000D02*
X034000Y037500D01*
X033000Y037500D02*
X033000Y037000D01*
X033250Y036750D01*
X032750Y036750D02*
X032750Y036400D01*
X033000Y036150D01*
X032250Y036750D02*
X032000Y037000D01*
X032000Y037500D01*
X031750Y036750D02*
X031750Y036400D01*
X032000Y036150D01*
X031000Y036150D02*
X030750Y036400D01*
X030750Y036750D01*
X031000Y037000D02*
X031000Y037500D01*
X031000Y037000D02*
X031250Y036750D01*
X030250Y036750D02*
X030000Y037000D01*
X030000Y037500D01*
X024114Y034114D02*
X023571Y034114D01*
D25*
X030150Y035350D02*
X030150Y035450D01*
D26*
X028000Y036000D02*
X026701Y034701D01*
X026701Y034551D01*
M02*
