G75*
%MOIN*%
%OFA0B0*%
%FSLAX24Y24*%
%IPPOS*%
%LPD*%
%AMOC8*
5,1,8,0,0,1.08239X$1,22.5*
%
%ADD10C,0.0000*%
%ADD11R,0.0425X0.0425*%
%ADD12C,0.0425*%
%ADD13C,0.0709*%
%ADD14C,0.0482*%
%ADD15R,0.0200X0.0200*%
%ADD16R,0.0250X0.0350*%
%ADD17R,0.0740X0.0740*%
%ADD18C,0.0740*%
%ADD19R,0.0400X0.0400*%
%ADD20C,0.0100*%
%ADD21C,0.0197*%
%ADD22C,0.0050*%
%ADD23C,0.0080*%
%ADD24C,0.0240*%
%ADD25C,0.0200*%
D10*
X022500Y025000D02*
X022500Y038000D01*
X040500Y038000D01*
X040500Y025000D01*
X022500Y025000D01*
X024860Y029250D02*
X024862Y029300D01*
X024868Y029350D01*
X024878Y029399D01*
X024891Y029448D01*
X024909Y029495D01*
X024930Y029541D01*
X024954Y029584D01*
X024982Y029626D01*
X025013Y029666D01*
X025047Y029703D01*
X025084Y029737D01*
X025124Y029768D01*
X025166Y029796D01*
X025209Y029820D01*
X025255Y029841D01*
X025302Y029859D01*
X025351Y029872D01*
X025400Y029882D01*
X025450Y029888D01*
X025500Y029890D01*
X025550Y029888D01*
X025600Y029882D01*
X025649Y029872D01*
X025698Y029859D01*
X025745Y029841D01*
X025791Y029820D01*
X025834Y029796D01*
X025876Y029768D01*
X025916Y029737D01*
X025953Y029703D01*
X025987Y029666D01*
X026018Y029626D01*
X026046Y029584D01*
X026070Y029541D01*
X026091Y029495D01*
X026109Y029448D01*
X026122Y029399D01*
X026132Y029350D01*
X026138Y029300D01*
X026140Y029250D01*
X026138Y029200D01*
X026132Y029150D01*
X026122Y029101D01*
X026109Y029052D01*
X026091Y029005D01*
X026070Y028959D01*
X026046Y028916D01*
X026018Y028874D01*
X025987Y028834D01*
X025953Y028797D01*
X025916Y028763D01*
X025876Y028732D01*
X025834Y028704D01*
X025791Y028680D01*
X025745Y028659D01*
X025698Y028641D01*
X025649Y028628D01*
X025600Y028618D01*
X025550Y028612D01*
X025500Y028610D01*
X025450Y028612D01*
X025400Y028618D01*
X025351Y028628D01*
X025302Y028641D01*
X025255Y028659D01*
X025209Y028680D01*
X025166Y028704D01*
X025124Y028732D01*
X025084Y028763D01*
X025047Y028797D01*
X025013Y028834D01*
X024982Y028874D01*
X024954Y028916D01*
X024930Y028959D01*
X024909Y029005D01*
X024891Y029052D01*
X024878Y029101D01*
X024868Y029150D01*
X024862Y029200D01*
X024860Y029250D01*
X024860Y033750D02*
X024862Y033800D01*
X024868Y033850D01*
X024878Y033899D01*
X024891Y033948D01*
X024909Y033995D01*
X024930Y034041D01*
X024954Y034084D01*
X024982Y034126D01*
X025013Y034166D01*
X025047Y034203D01*
X025084Y034237D01*
X025124Y034268D01*
X025166Y034296D01*
X025209Y034320D01*
X025255Y034341D01*
X025302Y034359D01*
X025351Y034372D01*
X025400Y034382D01*
X025450Y034388D01*
X025500Y034390D01*
X025550Y034388D01*
X025600Y034382D01*
X025649Y034372D01*
X025698Y034359D01*
X025745Y034341D01*
X025791Y034320D01*
X025834Y034296D01*
X025876Y034268D01*
X025916Y034237D01*
X025953Y034203D01*
X025987Y034166D01*
X026018Y034126D01*
X026046Y034084D01*
X026070Y034041D01*
X026091Y033995D01*
X026109Y033948D01*
X026122Y033899D01*
X026132Y033850D01*
X026138Y033800D01*
X026140Y033750D01*
X026138Y033700D01*
X026132Y033650D01*
X026122Y033601D01*
X026109Y033552D01*
X026091Y033505D01*
X026070Y033459D01*
X026046Y033416D01*
X026018Y033374D01*
X025987Y033334D01*
X025953Y033297D01*
X025916Y033263D01*
X025876Y033232D01*
X025834Y033204D01*
X025791Y033180D01*
X025745Y033159D01*
X025698Y033141D01*
X025649Y033128D01*
X025600Y033118D01*
X025550Y033112D01*
X025500Y033110D01*
X025450Y033112D01*
X025400Y033118D01*
X025351Y033128D01*
X025302Y033141D01*
X025255Y033159D01*
X025209Y033180D01*
X025166Y033204D01*
X025124Y033232D01*
X025084Y033263D01*
X025047Y033297D01*
X025013Y033334D01*
X024982Y033374D01*
X024954Y033416D01*
X024930Y033459D01*
X024909Y033505D01*
X024891Y033552D01*
X024878Y033601D01*
X024868Y033650D01*
X024862Y033700D01*
X024860Y033750D01*
X024370Y036200D02*
X024372Y036250D01*
X024378Y036300D01*
X024388Y036349D01*
X024402Y036397D01*
X024419Y036444D01*
X024440Y036489D01*
X024465Y036533D01*
X024493Y036574D01*
X024525Y036613D01*
X024559Y036650D01*
X024596Y036684D01*
X024636Y036714D01*
X024678Y036741D01*
X024722Y036765D01*
X024768Y036786D01*
X024815Y036802D01*
X024863Y036815D01*
X024913Y036824D01*
X024962Y036829D01*
X025013Y036830D01*
X025063Y036827D01*
X025112Y036820D01*
X025161Y036809D01*
X025209Y036794D01*
X025255Y036776D01*
X025300Y036754D01*
X025343Y036728D01*
X025384Y036699D01*
X025423Y036667D01*
X025459Y036632D01*
X025491Y036594D01*
X025521Y036554D01*
X025548Y036511D01*
X025571Y036467D01*
X025590Y036421D01*
X025606Y036373D01*
X025618Y036324D01*
X025626Y036275D01*
X025630Y036225D01*
X025630Y036175D01*
X025626Y036125D01*
X025618Y036076D01*
X025606Y036027D01*
X025590Y035979D01*
X025571Y035933D01*
X025548Y035889D01*
X025521Y035846D01*
X025491Y035806D01*
X025459Y035768D01*
X025423Y035733D01*
X025384Y035701D01*
X025343Y035672D01*
X025300Y035646D01*
X025255Y035624D01*
X025209Y035606D01*
X025161Y035591D01*
X025112Y035580D01*
X025063Y035573D01*
X025013Y035570D01*
X024962Y035571D01*
X024913Y035576D01*
X024863Y035585D01*
X024815Y035598D01*
X024768Y035614D01*
X024722Y035635D01*
X024678Y035659D01*
X024636Y035686D01*
X024596Y035716D01*
X024559Y035750D01*
X024525Y035787D01*
X024493Y035826D01*
X024465Y035867D01*
X024440Y035911D01*
X024419Y035956D01*
X024402Y036003D01*
X024388Y036051D01*
X024378Y036100D01*
X024372Y036150D01*
X024370Y036200D01*
D11*
X029000Y033750D03*
D12*
X028000Y033250D03*
X029000Y032750D03*
X028000Y032250D03*
X029000Y031750D03*
X028000Y031250D03*
X029000Y030750D03*
X028000Y030250D03*
X029000Y029750D03*
X028000Y029250D03*
D13*
X026701Y028449D03*
X026701Y034551D03*
D14*
X024169Y033114D03*
X023571Y034114D03*
X023571Y029886D03*
X024169Y028886D03*
D15*
X030350Y031000D03*
X030650Y031000D03*
X030650Y034000D03*
X030350Y034000D03*
D16*
X030000Y036800D03*
X029500Y036800D03*
D17*
X023000Y037500D03*
X023000Y025500D03*
D18*
X024000Y025500D03*
X025000Y025500D03*
X026000Y025500D03*
X027000Y025500D03*
X028000Y025500D03*
X029000Y025500D03*
X030000Y025500D03*
X031000Y025500D03*
X032000Y025500D03*
X033000Y025500D03*
X034000Y025500D03*
X035000Y025500D03*
X036000Y025500D03*
X037000Y025500D03*
X038000Y025500D03*
X039000Y025500D03*
X040000Y025500D03*
X040000Y037500D03*
X039000Y037500D03*
X038000Y037500D03*
X037000Y037500D03*
X036000Y037500D03*
X035000Y037500D03*
X034000Y037500D03*
X033000Y037500D03*
X032000Y037500D03*
X031000Y037500D03*
X030000Y037500D03*
X029000Y037500D03*
X028000Y037500D03*
X027000Y037500D03*
X026000Y037500D03*
X025000Y037500D03*
X024000Y037500D03*
D19*
X031000Y036600D03*
X031000Y036000D03*
X032000Y036000D03*
X032000Y036600D03*
X033000Y036600D03*
X033000Y036000D03*
X034000Y036000D03*
X034000Y036600D03*
X035000Y036600D03*
X035000Y036000D03*
X036000Y036000D03*
X036000Y036600D03*
X037000Y036650D03*
X037000Y036050D03*
X038000Y036050D03*
X038000Y036650D03*
X039000Y036650D03*
X039000Y036050D03*
D20*
X030397Y034637D02*
X030350Y034473D01*
X030303Y034637D01*
X030350Y034650D01*
X030397Y034637D01*
X030350Y034650D02*
X030350Y034473D01*
X030350Y034000D01*
X030350Y033477D01*
X030397Y033313D01*
X030350Y033300D01*
X030303Y033313D01*
X030350Y033477D01*
X030350Y033300D01*
X030350Y031750D02*
X030303Y031737D01*
X030350Y031573D01*
X030397Y031737D01*
X030350Y031750D01*
X030350Y031573D01*
X030350Y031000D01*
X030350Y030427D01*
X030397Y030263D01*
X030350Y030250D01*
X030303Y030263D01*
X030350Y030427D01*
X030350Y030250D01*
D21*
X030350Y030250D03*
X030500Y030000D03*
X030650Y030650D03*
X030650Y031350D03*
X030350Y031750D03*
X031500Y032000D03*
X032500Y032000D03*
X033500Y032000D03*
X033500Y031000D03*
X032500Y031000D03*
X031500Y031000D03*
X032500Y030000D03*
X033500Y030000D03*
X033500Y029000D03*
X033500Y028000D03*
X033500Y027000D03*
X033500Y026000D03*
X031500Y026000D03*
X031500Y027000D03*
X031500Y028000D03*
X031500Y029000D03*
X030500Y029000D03*
X030500Y028000D03*
X030500Y027000D03*
X030500Y026000D03*
X035500Y026000D03*
X036500Y026000D03*
X036500Y027000D03*
X035500Y027000D03*
X035500Y028000D03*
X036500Y028000D03*
X036500Y029000D03*
X035500Y029000D03*
X035500Y030000D03*
X036500Y030000D03*
X036500Y031000D03*
X036500Y032000D03*
X035500Y032000D03*
X035500Y033000D03*
X035500Y034000D03*
X034500Y034000D03*
X034500Y033000D03*
X033500Y034000D03*
X032500Y033000D03*
X031500Y033000D03*
X031500Y034000D03*
X030650Y034300D03*
X030350Y034650D03*
X030650Y033650D03*
X030350Y033300D03*
X032500Y035000D03*
X033500Y035000D03*
X033000Y035750D03*
X033500Y036000D03*
X034000Y035750D03*
X034500Y036000D03*
X035000Y035750D03*
X035500Y036000D03*
X036000Y035750D03*
X037000Y035800D03*
X037500Y036000D03*
X038000Y035800D03*
X038500Y036000D03*
X039000Y035800D03*
X039500Y036000D03*
X039500Y035000D03*
X038500Y035000D03*
X037500Y035000D03*
X037500Y034000D03*
X037500Y033000D03*
X038500Y033000D03*
X038500Y034000D03*
X039500Y034000D03*
X039500Y033000D03*
X039500Y032000D03*
X038500Y032000D03*
X037500Y032000D03*
X037500Y031000D03*
X038500Y031000D03*
X039500Y031000D03*
X039500Y030000D03*
X038500Y030000D03*
X037500Y030000D03*
X037500Y029000D03*
X038500Y029000D03*
X039500Y029000D03*
X039500Y028000D03*
X038500Y028000D03*
X037500Y028000D03*
X037500Y027000D03*
X038500Y027000D03*
X039500Y027000D03*
X039500Y026000D03*
X038500Y026000D03*
X037500Y026000D03*
X034500Y031000D03*
X036500Y033000D03*
X036500Y034000D03*
X036500Y035000D03*
X035500Y035000D03*
X034500Y035000D03*
X032500Y036000D03*
X032000Y035750D03*
X031500Y036000D03*
X031000Y035750D03*
X030500Y036000D03*
X029550Y035750D03*
X029300Y036000D03*
X029050Y035750D03*
X029050Y036600D03*
X029200Y037000D03*
X030500Y037000D03*
X031500Y037000D03*
X032500Y037000D03*
X033500Y037000D03*
X034500Y037000D03*
X035500Y037000D03*
X036500Y037000D03*
X037500Y037000D03*
X038500Y037000D03*
X039500Y037000D03*
D22*
X039656Y037174D02*
X039317Y037174D01*
X039366Y037222D02*
X039616Y037222D01*
X039595Y037252D02*
X039639Y037191D01*
X039691Y037139D01*
X039752Y037095D01*
X039818Y037061D01*
X039889Y037038D01*
X039963Y037026D01*
X039975Y037026D01*
X039975Y037475D01*
X040025Y037475D01*
X040025Y037026D01*
X040037Y037026D01*
X040111Y037038D01*
X040182Y037061D01*
X040248Y037095D01*
X040309Y037139D01*
X040361Y037191D01*
X040377Y037212D01*
X040377Y025767D01*
X040258Y025886D01*
X040091Y025955D01*
X039909Y025955D01*
X039742Y025886D01*
X039614Y025758D01*
X039545Y025591D01*
X039545Y025409D01*
X039614Y025242D01*
X039733Y025123D01*
X039267Y025123D01*
X039386Y025242D01*
X039455Y025409D01*
X039455Y025591D01*
X039386Y025758D01*
X039258Y025886D01*
X039091Y025955D01*
X038909Y025955D01*
X038742Y025886D01*
X038614Y025758D01*
X038545Y025591D01*
X038545Y025409D01*
X038614Y025242D01*
X038733Y025123D01*
X038267Y025123D01*
X038386Y025242D01*
X038455Y025409D01*
X038455Y025591D01*
X038386Y025758D01*
X038258Y025886D01*
X038091Y025955D01*
X037909Y025955D01*
X037742Y025886D01*
X037614Y025758D01*
X037545Y025591D01*
X037545Y025409D01*
X037614Y025242D01*
X037733Y025123D01*
X037267Y025123D01*
X037386Y025242D01*
X037455Y025409D01*
X037455Y025591D01*
X037386Y025758D01*
X037258Y025886D01*
X037091Y025955D01*
X036909Y025955D01*
X036742Y025886D01*
X036614Y025758D01*
X036545Y025591D01*
X036545Y025409D01*
X036614Y025242D01*
X036733Y025123D01*
X036267Y025123D01*
X036386Y025242D01*
X036455Y025409D01*
X036455Y025591D01*
X036386Y025758D01*
X036258Y025886D01*
X036091Y025955D01*
X035909Y025955D01*
X035742Y025886D01*
X035614Y025758D01*
X035545Y025591D01*
X035545Y025409D01*
X035614Y025242D01*
X035733Y025123D01*
X035267Y025123D01*
X035386Y025242D01*
X035455Y025409D01*
X035455Y025591D01*
X035386Y025758D01*
X035258Y025886D01*
X035091Y025955D01*
X034909Y025955D01*
X034742Y025886D01*
X034614Y025758D01*
X034545Y025591D01*
X034545Y025409D01*
X034614Y025242D01*
X034733Y025123D01*
X034267Y025123D01*
X034386Y025242D01*
X034455Y025409D01*
X034455Y025591D01*
X034386Y025758D01*
X034258Y025886D01*
X034091Y025955D01*
X033909Y025955D01*
X033742Y025886D01*
X033614Y025758D01*
X033545Y025591D01*
X033545Y025409D01*
X033614Y025242D01*
X033733Y025123D01*
X033267Y025123D01*
X033386Y025242D01*
X033455Y025409D01*
X033455Y025591D01*
X033386Y025758D01*
X033258Y025886D01*
X033091Y025955D01*
X032909Y025955D01*
X032742Y025886D01*
X032614Y025758D01*
X032545Y025591D01*
X032545Y025409D01*
X032614Y025242D01*
X032733Y025123D01*
X032267Y025123D01*
X032386Y025242D01*
X032455Y025409D01*
X032455Y025591D01*
X032386Y025758D01*
X032258Y025886D01*
X032091Y025955D01*
X031909Y025955D01*
X031742Y025886D01*
X031614Y025758D01*
X031545Y025591D01*
X031545Y025409D01*
X031614Y025242D01*
X031733Y025123D01*
X031288Y025123D01*
X031309Y025139D01*
X031361Y025191D01*
X031405Y025252D01*
X031439Y025318D01*
X031462Y025389D01*
X031474Y025463D01*
X031474Y025475D01*
X031025Y025475D01*
X031025Y025525D01*
X030975Y025525D01*
X030975Y025974D01*
X030963Y025974D01*
X030889Y025962D01*
X030818Y025939D01*
X030752Y025905D01*
X030691Y025861D01*
X030639Y025809D01*
X030595Y025748D01*
X030561Y025682D01*
X030538Y025611D01*
X030526Y025537D01*
X030526Y025525D01*
X030975Y025525D01*
X030975Y025475D01*
X030526Y025475D01*
X030526Y025463D01*
X030538Y025389D01*
X030561Y025318D01*
X030595Y025252D01*
X030639Y025191D01*
X030691Y025139D01*
X030712Y025123D01*
X030267Y025123D01*
X030386Y025242D01*
X030455Y025409D01*
X030455Y025591D01*
X030386Y025758D01*
X030258Y025886D01*
X030091Y025955D01*
X029909Y025955D01*
X029742Y025886D01*
X029614Y025758D01*
X029545Y025591D01*
X029545Y025409D01*
X029614Y025242D01*
X029733Y025123D01*
X029501Y025123D01*
X029550Y034200D01*
X029000Y034750D01*
X029000Y036075D01*
X029498Y036075D01*
X030425Y035148D01*
X030498Y035075D01*
X036452Y035075D01*
X036927Y035550D01*
X036943Y035566D01*
X036965Y035574D01*
X036968Y035581D01*
X036997Y035595D01*
X037085Y035595D01*
X037205Y035715D01*
X037205Y035765D01*
X037235Y035765D01*
X037285Y035815D01*
X037285Y036285D01*
X037235Y036335D01*
X036775Y036335D01*
X036805Y036365D01*
X037235Y036365D01*
X037285Y036415D01*
X037285Y036445D01*
X037715Y036445D01*
X037715Y036415D01*
X037765Y036365D01*
X038235Y036365D01*
X038285Y036415D01*
X038285Y036465D01*
X038715Y036465D01*
X038715Y036415D01*
X038765Y036365D01*
X039235Y036365D01*
X039285Y036415D01*
X039285Y036885D01*
X039235Y036935D01*
X038765Y036935D01*
X038715Y036885D01*
X038715Y036835D01*
X038285Y036835D01*
X038285Y036885D01*
X038235Y036935D01*
X037765Y036935D01*
X037715Y036885D01*
X037715Y036855D01*
X037285Y036855D01*
X037285Y036885D01*
X037235Y036935D01*
X036765Y036935D01*
X036715Y036885D01*
X036715Y036855D01*
X036595Y036735D01*
X036304Y036444D01*
X036304Y036575D01*
X036025Y036575D01*
X036025Y036625D01*
X035975Y036625D01*
X035975Y036904D01*
X035786Y036904D01*
X035760Y036897D01*
X035736Y036883D01*
X035717Y036864D01*
X035703Y036840D01*
X035696Y036814D01*
X035696Y036625D01*
X035975Y036625D01*
X035975Y036575D01*
X036025Y036575D01*
X036025Y036296D01*
X036214Y036296D01*
X036240Y036303D01*
X036264Y036317D01*
X036283Y036336D01*
X036295Y036357D01*
X036295Y035735D01*
X036190Y035630D01*
X036170Y035630D01*
X036205Y035665D01*
X036205Y035715D01*
X036235Y035715D01*
X036285Y035765D01*
X036285Y036235D01*
X036235Y036285D01*
X035765Y036285D01*
X035715Y036235D01*
X035715Y035765D01*
X035765Y035715D01*
X035795Y035715D01*
X035795Y035665D01*
X035830Y035630D01*
X035170Y035630D01*
X035205Y035665D01*
X035205Y035715D01*
X035235Y035715D01*
X035285Y035765D01*
X035285Y036235D01*
X035235Y036285D01*
X034765Y036285D01*
X034715Y036235D01*
X034715Y035765D01*
X034765Y035715D01*
X034795Y035715D01*
X034795Y035665D01*
X034830Y035630D01*
X034170Y035630D01*
X034205Y035665D01*
X034205Y035715D01*
X034235Y035715D01*
X034285Y035765D01*
X034285Y036235D01*
X034235Y036285D01*
X033765Y036285D01*
X033715Y036235D01*
X033715Y035765D01*
X033765Y035715D01*
X033795Y035715D01*
X033795Y035665D01*
X033830Y035630D01*
X033170Y035630D01*
X033205Y035665D01*
X033205Y035715D01*
X033235Y035715D01*
X033285Y035765D01*
X033285Y036235D01*
X033235Y036285D01*
X032765Y036285D01*
X032715Y036235D01*
X032715Y035765D01*
X032765Y035715D01*
X032795Y035715D01*
X032795Y035665D01*
X032830Y035630D01*
X032170Y035630D01*
X032205Y035665D01*
X032205Y035715D01*
X032235Y035715D01*
X032285Y035765D01*
X032285Y036235D01*
X032235Y036285D01*
X031765Y036285D01*
X031715Y036235D01*
X031715Y035765D01*
X031765Y035715D01*
X031795Y035715D01*
X031795Y035665D01*
X031830Y035630D01*
X031170Y035630D01*
X031205Y035665D01*
X031205Y035715D01*
X031235Y035715D01*
X031285Y035765D01*
X031285Y036235D01*
X031235Y036285D01*
X030765Y036285D01*
X030715Y036235D01*
X030715Y035765D01*
X030765Y035715D01*
X030795Y035715D01*
X030795Y035665D01*
X030830Y035630D01*
X030760Y035630D01*
X030205Y036185D01*
X030205Y036585D01*
X030210Y036590D01*
X030210Y037010D01*
X030205Y037015D01*
X030205Y037092D01*
X030258Y037114D01*
X030386Y037242D01*
X030455Y037409D01*
X030455Y037591D01*
X030386Y037758D01*
X030267Y037877D01*
X030733Y037877D01*
X030614Y037758D01*
X030545Y037591D01*
X030545Y037409D01*
X030614Y037242D01*
X030742Y037114D01*
X030909Y037045D01*
X031091Y037045D01*
X031258Y037114D01*
X031386Y037242D01*
X031455Y037409D01*
X031455Y037591D01*
X031386Y037758D01*
X031267Y037877D01*
X031733Y037877D01*
X031614Y037758D01*
X031545Y037591D01*
X031545Y037409D01*
X031614Y037242D01*
X031742Y037114D01*
X031909Y037045D01*
X032091Y037045D01*
X032258Y037114D01*
X032386Y037242D01*
X032455Y037409D01*
X032455Y037591D01*
X032386Y037758D01*
X032267Y037877D01*
X032733Y037877D01*
X032614Y037758D01*
X032545Y037591D01*
X032545Y037409D01*
X032614Y037242D01*
X032742Y037114D01*
X032909Y037045D01*
X033091Y037045D01*
X033258Y037114D01*
X033386Y037242D01*
X033455Y037409D01*
X033455Y037591D01*
X033386Y037758D01*
X033267Y037877D01*
X033733Y037877D01*
X033614Y037758D01*
X033545Y037591D01*
X033545Y037409D01*
X033614Y037242D01*
X033742Y037114D01*
X033909Y037045D01*
X034091Y037045D01*
X034258Y037114D01*
X034386Y037242D01*
X034455Y037409D01*
X034455Y037591D01*
X034386Y037758D01*
X034267Y037877D01*
X034733Y037877D01*
X034614Y037758D01*
X034545Y037591D01*
X034545Y037409D01*
X034614Y037242D01*
X034742Y037114D01*
X034909Y037045D01*
X035091Y037045D01*
X035258Y037114D01*
X035386Y037242D01*
X035455Y037409D01*
X035455Y037591D01*
X035386Y037758D01*
X035267Y037877D01*
X035733Y037877D01*
X035614Y037758D01*
X035545Y037591D01*
X035545Y037409D01*
X035614Y037242D01*
X035742Y037114D01*
X035909Y037045D01*
X036091Y037045D01*
X036258Y037114D01*
X036386Y037242D01*
X036455Y037409D01*
X036455Y037591D01*
X036386Y037758D01*
X036267Y037877D01*
X036733Y037877D01*
X036614Y037758D01*
X036545Y037591D01*
X036545Y037409D01*
X036614Y037242D01*
X036742Y037114D01*
X036909Y037045D01*
X037091Y037045D01*
X037258Y037114D01*
X037386Y037242D01*
X037455Y037409D01*
X037455Y037591D01*
X037386Y037758D01*
X037267Y037877D01*
X037733Y037877D01*
X037614Y037758D01*
X037545Y037591D01*
X037545Y037409D01*
X037614Y037242D01*
X037742Y037114D01*
X037909Y037045D01*
X038091Y037045D01*
X038258Y037114D01*
X038386Y037242D01*
X038455Y037409D01*
X038455Y037591D01*
X038386Y037758D01*
X038267Y037877D01*
X038733Y037877D01*
X038614Y037758D01*
X038545Y037591D01*
X038545Y037409D01*
X038614Y037242D01*
X038742Y037114D01*
X038909Y037045D01*
X039091Y037045D01*
X039258Y037114D01*
X039386Y037242D01*
X039455Y037409D01*
X039455Y037591D01*
X039386Y037758D01*
X039267Y037877D01*
X039712Y037877D01*
X039691Y037861D01*
X039639Y037809D01*
X039595Y037748D01*
X039561Y037682D01*
X039538Y037611D01*
X039526Y037537D01*
X039526Y037525D01*
X039975Y037525D01*
X039975Y037475D01*
X039526Y037475D01*
X039526Y037463D01*
X039538Y037389D01*
X039561Y037318D01*
X039595Y037252D01*
X039585Y037271D02*
X039397Y037271D01*
X039418Y037319D02*
X039561Y037319D01*
X039545Y037368D02*
X039438Y037368D01*
X039455Y037416D02*
X039534Y037416D01*
X039526Y037465D02*
X039455Y037465D01*
X039455Y037513D02*
X039975Y037513D01*
X039975Y037465D02*
X040025Y037465D01*
X040025Y037416D02*
X039975Y037416D01*
X039975Y037368D02*
X040025Y037368D01*
X040025Y037319D02*
X039975Y037319D01*
X039975Y037271D02*
X040025Y037271D01*
X040025Y037222D02*
X039975Y037222D01*
X039975Y037174D02*
X040025Y037174D01*
X040025Y037125D02*
X039975Y037125D01*
X039975Y037077D02*
X040025Y037077D01*
X040025Y037028D02*
X039975Y037028D01*
X039951Y037028D02*
X030205Y037028D01*
X030205Y037077D02*
X030833Y037077D01*
X030731Y037125D02*
X030269Y037125D01*
X030317Y037174D02*
X030683Y037174D01*
X030634Y037222D02*
X030366Y037222D01*
X030397Y037271D02*
X030603Y037271D01*
X030582Y037319D02*
X030418Y037319D01*
X030438Y037368D02*
X030562Y037368D01*
X030545Y037416D02*
X030455Y037416D01*
X030455Y037465D02*
X030545Y037465D01*
X030545Y037513D02*
X030455Y037513D01*
X030455Y037562D02*
X030545Y037562D01*
X030553Y037610D02*
X030447Y037610D01*
X030427Y037659D02*
X030573Y037659D01*
X030593Y037707D02*
X030407Y037707D01*
X030387Y037756D02*
X030613Y037756D01*
X030661Y037804D02*
X030339Y037804D01*
X030291Y037853D02*
X030709Y037853D01*
X031291Y037853D02*
X031709Y037853D01*
X031661Y037804D02*
X031339Y037804D01*
X031387Y037756D02*
X031613Y037756D01*
X031593Y037707D02*
X031407Y037707D01*
X031427Y037659D02*
X031573Y037659D01*
X031553Y037610D02*
X031447Y037610D01*
X031455Y037562D02*
X031545Y037562D01*
X031545Y037513D02*
X031455Y037513D01*
X031455Y037465D02*
X031545Y037465D01*
X031545Y037416D02*
X031455Y037416D01*
X031438Y037368D02*
X031562Y037368D01*
X031582Y037319D02*
X031418Y037319D01*
X031397Y037271D02*
X031603Y037271D01*
X031634Y037222D02*
X031366Y037222D01*
X031317Y037174D02*
X031683Y037174D01*
X031731Y037125D02*
X031269Y037125D01*
X031167Y037077D02*
X031833Y037077D01*
X031786Y036904D02*
X031760Y036897D01*
X031736Y036883D01*
X031717Y036864D01*
X031703Y036840D01*
X031696Y036814D01*
X031696Y036625D01*
X031975Y036625D01*
X031975Y036904D01*
X031786Y036904D01*
X031736Y036883D02*
X031264Y036883D01*
X031240Y036897D01*
X031214Y036904D01*
X031025Y036904D01*
X031025Y036625D01*
X030975Y036625D01*
X030975Y036904D01*
X030786Y036904D01*
X030760Y036897D01*
X030736Y036883D01*
X030717Y036864D01*
X030703Y036840D01*
X030696Y036814D01*
X030696Y036625D01*
X030975Y036625D01*
X030975Y036575D01*
X031025Y036575D01*
X031025Y036625D01*
X031304Y036625D01*
X031304Y036814D01*
X031297Y036840D01*
X031283Y036864D01*
X031264Y036883D01*
X031298Y036834D02*
X031702Y036834D01*
X031696Y036786D02*
X031304Y036786D01*
X031304Y036737D02*
X031696Y036737D01*
X031696Y036689D02*
X031304Y036689D01*
X031304Y036640D02*
X031696Y036640D01*
X031696Y036575D02*
X031696Y036386D01*
X031703Y036360D01*
X031717Y036336D01*
X031736Y036317D01*
X031760Y036303D01*
X031786Y036296D01*
X031975Y036296D01*
X031975Y036575D01*
X032025Y036575D01*
X032025Y036625D01*
X031975Y036625D01*
X031975Y036575D01*
X031696Y036575D01*
X031696Y036543D02*
X031304Y036543D01*
X031304Y036575D02*
X031304Y036386D01*
X031297Y036360D01*
X031283Y036336D01*
X031264Y036317D01*
X031240Y036303D01*
X031214Y036296D01*
X031025Y036296D01*
X031025Y036575D01*
X031304Y036575D01*
X031304Y036495D02*
X031696Y036495D01*
X031696Y036446D02*
X031304Y036446D01*
X031304Y036398D02*
X031696Y036398D01*
X031710Y036349D02*
X031290Y036349D01*
X031230Y036301D02*
X031770Y036301D01*
X031732Y036252D02*
X031268Y036252D01*
X031285Y036204D02*
X031715Y036204D01*
X031715Y036155D02*
X031285Y036155D01*
X031285Y036107D02*
X031715Y036107D01*
X031715Y036058D02*
X031285Y036058D01*
X031285Y036010D02*
X031715Y036010D01*
X031715Y035961D02*
X031285Y035961D01*
X031285Y035913D02*
X031715Y035913D01*
X031715Y035864D02*
X031285Y035864D01*
X031285Y035816D02*
X031715Y035816D01*
X031715Y035767D02*
X031285Y035767D01*
X031239Y035719D02*
X031761Y035719D01*
X031795Y035670D02*
X031205Y035670D01*
X030795Y035670D02*
X030720Y035670D01*
X030761Y035719D02*
X030671Y035719D01*
X030715Y035767D02*
X030623Y035767D01*
X030574Y035816D02*
X030715Y035816D01*
X030715Y035864D02*
X030526Y035864D01*
X030477Y035913D02*
X030715Y035913D01*
X030715Y035961D02*
X030429Y035961D01*
X030380Y036010D02*
X030715Y036010D01*
X030715Y036058D02*
X030332Y036058D01*
X030283Y036107D02*
X030715Y036107D01*
X030715Y036155D02*
X030235Y036155D01*
X030205Y036204D02*
X030715Y036204D01*
X030732Y036252D02*
X030205Y036252D01*
X030205Y036301D02*
X030770Y036301D01*
X030760Y036303D02*
X030786Y036296D01*
X030975Y036296D01*
X030975Y036575D01*
X030696Y036575D01*
X030696Y036386D01*
X030703Y036360D01*
X030717Y036336D01*
X030736Y036317D01*
X030760Y036303D01*
X030710Y036349D02*
X030205Y036349D01*
X030205Y036398D02*
X030696Y036398D01*
X030696Y036446D02*
X030205Y036446D01*
X030205Y036495D02*
X030696Y036495D01*
X030696Y036543D02*
X030205Y036543D01*
X030210Y036592D02*
X030975Y036592D01*
X030975Y036640D02*
X031025Y036640D01*
X031025Y036592D02*
X031975Y036592D01*
X031975Y036640D02*
X032025Y036640D01*
X032025Y036625D02*
X032025Y036904D01*
X032214Y036904D01*
X032240Y036897D01*
X032264Y036883D01*
X032283Y036864D01*
X032297Y036840D01*
X032304Y036814D01*
X032304Y036625D01*
X032025Y036625D01*
X032025Y036592D02*
X032975Y036592D01*
X032975Y036575D02*
X032696Y036575D01*
X032696Y036386D01*
X032703Y036360D01*
X032717Y036336D01*
X032736Y036317D01*
X032760Y036303D01*
X032786Y036296D01*
X032975Y036296D01*
X032975Y036575D01*
X033025Y036575D01*
X033025Y036625D01*
X032975Y036625D01*
X032975Y036904D01*
X032786Y036904D01*
X032760Y036897D01*
X032736Y036883D01*
X032717Y036864D01*
X032703Y036840D01*
X032696Y036814D01*
X032696Y036625D01*
X032975Y036625D01*
X032975Y036575D01*
X032975Y036543D02*
X033025Y036543D01*
X033025Y036575D02*
X033025Y036296D01*
X033214Y036296D01*
X033240Y036303D01*
X033264Y036317D01*
X033283Y036336D01*
X033297Y036360D01*
X033304Y036386D01*
X033304Y036575D01*
X033025Y036575D01*
X033025Y036592D02*
X033975Y036592D01*
X033975Y036575D02*
X033696Y036575D01*
X033696Y036386D01*
X033703Y036360D01*
X033717Y036336D01*
X033736Y036317D01*
X033760Y036303D01*
X033786Y036296D01*
X033975Y036296D01*
X033975Y036575D01*
X034025Y036575D01*
X034025Y036625D01*
X033975Y036625D01*
X033975Y036904D01*
X033786Y036904D01*
X033760Y036897D01*
X033736Y036883D01*
X033717Y036864D01*
X033703Y036840D01*
X033696Y036814D01*
X033696Y036625D01*
X033975Y036625D01*
X033975Y036575D01*
X033975Y036543D02*
X034025Y036543D01*
X034025Y036575D02*
X034025Y036296D01*
X034214Y036296D01*
X034240Y036303D01*
X034264Y036317D01*
X034283Y036336D01*
X034297Y036360D01*
X034304Y036386D01*
X034304Y036575D01*
X034025Y036575D01*
X034025Y036592D02*
X034975Y036592D01*
X034975Y036575D02*
X034696Y036575D01*
X034696Y036386D01*
X034703Y036360D01*
X034717Y036336D01*
X034736Y036317D01*
X034760Y036303D01*
X034786Y036296D01*
X034975Y036296D01*
X034975Y036575D01*
X035025Y036575D01*
X035025Y036625D01*
X034975Y036625D01*
X034975Y036904D01*
X034786Y036904D01*
X034760Y036897D01*
X034736Y036883D01*
X034717Y036864D01*
X034703Y036840D01*
X034696Y036814D01*
X034696Y036625D01*
X034975Y036625D01*
X034975Y036575D01*
X034975Y036543D02*
X035025Y036543D01*
X035025Y036575D02*
X035025Y036296D01*
X035214Y036296D01*
X035240Y036303D01*
X035264Y036317D01*
X035283Y036336D01*
X035297Y036360D01*
X035304Y036386D01*
X035304Y036575D01*
X035025Y036575D01*
X035025Y036592D02*
X035975Y036592D01*
X035975Y036575D02*
X035696Y036575D01*
X035696Y036386D01*
X035703Y036360D01*
X035717Y036336D01*
X035736Y036317D01*
X035760Y036303D01*
X035786Y036296D01*
X035975Y036296D01*
X035975Y036575D01*
X035975Y036543D02*
X036025Y036543D01*
X036025Y036495D02*
X035975Y036495D01*
X035975Y036446D02*
X036025Y036446D01*
X036025Y036398D02*
X035975Y036398D01*
X035975Y036349D02*
X036025Y036349D01*
X036025Y036301D02*
X035975Y036301D01*
X035770Y036301D02*
X035230Y036301D01*
X035268Y036252D02*
X035732Y036252D01*
X035715Y036204D02*
X035285Y036204D01*
X035285Y036155D02*
X035715Y036155D01*
X035715Y036107D02*
X035285Y036107D01*
X035285Y036058D02*
X035715Y036058D01*
X035715Y036010D02*
X035285Y036010D01*
X035285Y035961D02*
X035715Y035961D01*
X035715Y035913D02*
X035285Y035913D01*
X035285Y035864D02*
X035715Y035864D01*
X035715Y035816D02*
X035285Y035816D01*
X035285Y035767D02*
X035715Y035767D01*
X035761Y035719D02*
X035239Y035719D01*
X035205Y035670D02*
X035795Y035670D01*
X036205Y035670D02*
X036230Y035670D01*
X036239Y035719D02*
X036279Y035719D01*
X036285Y035767D02*
X036295Y035767D01*
X036295Y035816D02*
X036285Y035816D01*
X036285Y035864D02*
X036295Y035864D01*
X036295Y035913D02*
X036285Y035913D01*
X036285Y035961D02*
X036295Y035961D01*
X036295Y036010D02*
X036285Y036010D01*
X036285Y036058D02*
X036295Y036058D01*
X036295Y036107D02*
X036285Y036107D01*
X036285Y036155D02*
X036295Y036155D01*
X036295Y036204D02*
X036285Y036204D01*
X036295Y036252D02*
X036268Y036252D01*
X036295Y036301D02*
X036230Y036301D01*
X036290Y036349D02*
X036295Y036349D01*
X036304Y036446D02*
X036306Y036446D01*
X036304Y036495D02*
X036355Y036495D01*
X036403Y036543D02*
X036304Y036543D01*
X036304Y036625D02*
X036304Y036814D01*
X036297Y036840D01*
X036283Y036864D01*
X036264Y036883D01*
X036240Y036897D01*
X036214Y036904D01*
X036025Y036904D01*
X036025Y036625D01*
X036304Y036625D01*
X036304Y036640D02*
X036500Y036640D01*
X036452Y036592D02*
X036025Y036592D01*
X036025Y036640D02*
X035975Y036640D01*
X035975Y036689D02*
X036025Y036689D01*
X036025Y036737D02*
X035975Y036737D01*
X035975Y036786D02*
X036025Y036786D01*
X036025Y036834D02*
X035975Y036834D01*
X035975Y036883D02*
X036025Y036883D01*
X036264Y036883D02*
X036715Y036883D01*
X036694Y036834D02*
X036298Y036834D01*
X036304Y036786D02*
X036646Y036786D01*
X036597Y036737D02*
X036304Y036737D01*
X036304Y036689D02*
X036549Y036689D01*
X036761Y036931D02*
X030210Y036931D01*
X030210Y036883D02*
X030736Y036883D01*
X030702Y036834D02*
X030210Y036834D01*
X030210Y036786D02*
X030696Y036786D01*
X030696Y036737D02*
X030210Y036737D01*
X030210Y036689D02*
X030696Y036689D01*
X030696Y036640D02*
X030210Y036640D01*
X030210Y036980D02*
X040377Y036980D01*
X040377Y037028D02*
X040049Y037028D01*
X040212Y037077D02*
X040377Y037077D01*
X040377Y037125D02*
X040290Y037125D01*
X040344Y037174D02*
X040377Y037174D01*
X040377Y036931D02*
X039239Y036931D01*
X039285Y036883D02*
X040377Y036883D01*
X040377Y036834D02*
X039285Y036834D01*
X039285Y036786D02*
X040377Y036786D01*
X040377Y036737D02*
X039285Y036737D01*
X039285Y036689D02*
X040377Y036689D01*
X040377Y036640D02*
X039285Y036640D01*
X039285Y036592D02*
X040377Y036592D01*
X040377Y036543D02*
X039285Y036543D01*
X039285Y036495D02*
X040377Y036495D01*
X040377Y036446D02*
X039285Y036446D01*
X039268Y036398D02*
X040377Y036398D01*
X040377Y036349D02*
X036789Y036349D01*
X037268Y036398D02*
X037732Y036398D01*
X037765Y036335D02*
X037715Y036285D01*
X037715Y035815D01*
X037765Y035765D01*
X037795Y035765D01*
X037795Y035715D01*
X037915Y035595D01*
X038085Y035595D01*
X038205Y035715D01*
X038205Y035765D01*
X038235Y035765D01*
X038285Y035815D01*
X038285Y036285D01*
X038235Y036335D01*
X037765Y036335D01*
X037730Y036301D02*
X037270Y036301D01*
X037285Y036252D02*
X037715Y036252D01*
X037715Y036204D02*
X037285Y036204D01*
X037285Y036155D02*
X037715Y036155D01*
X037715Y036107D02*
X037285Y036107D01*
X037285Y036058D02*
X037715Y036058D01*
X037715Y036010D02*
X037285Y036010D01*
X037285Y035961D02*
X037715Y035961D01*
X037715Y035913D02*
X037285Y035913D01*
X037285Y035864D02*
X037715Y035864D01*
X037715Y035816D02*
X037285Y035816D01*
X037237Y035767D02*
X037763Y035767D01*
X037795Y035719D02*
X037205Y035719D01*
X037160Y035670D02*
X037840Y035670D01*
X037889Y035622D02*
X037111Y035622D01*
X036963Y035573D02*
X040377Y035573D01*
X040377Y035525D02*
X036901Y035525D01*
X036853Y035476D02*
X040377Y035476D01*
X040377Y035428D02*
X036804Y035428D01*
X036756Y035379D02*
X040377Y035379D01*
X040377Y035331D02*
X036707Y035331D01*
X036659Y035282D02*
X040377Y035282D01*
X040377Y035234D02*
X036610Y035234D01*
X036562Y035185D02*
X040377Y035185D01*
X040377Y035137D02*
X036513Y035137D01*
X036465Y035088D02*
X040377Y035088D01*
X040377Y035040D02*
X029000Y035040D01*
X029000Y035088D02*
X030485Y035088D01*
X030437Y035137D02*
X029000Y035137D01*
X029000Y035185D02*
X030388Y035185D01*
X030340Y035234D02*
X029000Y035234D01*
X029000Y035282D02*
X030291Y035282D01*
X030243Y035331D02*
X029000Y035331D01*
X029000Y035379D02*
X030194Y035379D01*
X030146Y035428D02*
X029000Y035428D01*
X029000Y035476D02*
X030097Y035476D01*
X030049Y035525D02*
X029000Y035525D01*
X029000Y035573D02*
X030000Y035573D01*
X029952Y035622D02*
X029000Y035622D01*
X029000Y035670D02*
X029903Y035670D01*
X029855Y035719D02*
X029000Y035719D01*
X029000Y035767D02*
X029806Y035767D01*
X029758Y035816D02*
X029000Y035816D01*
X029000Y035864D02*
X029709Y035864D01*
X029661Y035913D02*
X029000Y035913D01*
X029000Y035961D02*
X029612Y035961D01*
X029564Y036010D02*
X029000Y036010D01*
X029000Y036058D02*
X029515Y036058D01*
X029795Y036475D02*
X029052Y036475D01*
X029000Y036527D01*
X029000Y036675D01*
X029290Y036675D01*
X029290Y036590D01*
X029340Y036540D01*
X029660Y036540D01*
X029710Y036590D01*
X029710Y037010D01*
X029660Y037060D01*
X029340Y037060D01*
X029290Y037010D01*
X029290Y036925D01*
X029000Y036925D01*
X029000Y037045D01*
X029091Y037045D01*
X029258Y037114D01*
X029386Y037242D01*
X029455Y037409D01*
X029455Y037591D01*
X029386Y037758D01*
X029267Y037877D01*
X029733Y037877D01*
X029614Y037758D01*
X029545Y037591D01*
X029545Y037409D01*
X029614Y037242D01*
X029742Y037114D01*
X029795Y037092D01*
X029795Y037015D01*
X029790Y037010D01*
X029790Y036590D01*
X029795Y036585D01*
X029795Y036475D01*
X029795Y036495D02*
X029032Y036495D01*
X029000Y036543D02*
X029337Y036543D01*
X029290Y036592D02*
X029000Y036592D01*
X029000Y036640D02*
X029290Y036640D01*
X029290Y036931D02*
X029000Y036931D01*
X029000Y036980D02*
X029290Y036980D01*
X029308Y037028D02*
X029000Y037028D01*
X029167Y037077D02*
X029795Y037077D01*
X029795Y037028D02*
X029692Y037028D01*
X029710Y036980D02*
X029790Y036980D01*
X029790Y036931D02*
X029710Y036931D01*
X029710Y036883D02*
X029790Y036883D01*
X029790Y036834D02*
X029710Y036834D01*
X029710Y036786D02*
X029790Y036786D01*
X029790Y036737D02*
X029710Y036737D01*
X029710Y036689D02*
X029790Y036689D01*
X029790Y036640D02*
X029710Y036640D01*
X029710Y036592D02*
X029790Y036592D01*
X029795Y036543D02*
X029663Y036543D01*
X029731Y037125D02*
X029269Y037125D01*
X029317Y037174D02*
X029683Y037174D01*
X029634Y037222D02*
X029366Y037222D01*
X029397Y037271D02*
X029603Y037271D01*
X029582Y037319D02*
X029418Y037319D01*
X029438Y037368D02*
X029562Y037368D01*
X029545Y037416D02*
X029455Y037416D01*
X029455Y037465D02*
X029545Y037465D01*
X029545Y037513D02*
X029455Y037513D01*
X029455Y037562D02*
X029545Y037562D01*
X029553Y037610D02*
X029447Y037610D01*
X029427Y037659D02*
X029573Y037659D01*
X029593Y037707D02*
X029407Y037707D01*
X029387Y037756D02*
X029613Y037756D01*
X029661Y037804D02*
X029339Y037804D01*
X029291Y037853D02*
X029709Y037853D01*
X030975Y036883D02*
X031025Y036883D01*
X031025Y036834D02*
X030975Y036834D01*
X030975Y036786D02*
X031025Y036786D01*
X031025Y036737D02*
X030975Y036737D01*
X030975Y036689D02*
X031025Y036689D01*
X031025Y036543D02*
X030975Y036543D01*
X030975Y036495D02*
X031025Y036495D01*
X031025Y036446D02*
X030975Y036446D01*
X030975Y036398D02*
X031025Y036398D01*
X031025Y036349D02*
X030975Y036349D01*
X030975Y036301D02*
X031025Y036301D01*
X031975Y036301D02*
X032025Y036301D01*
X032025Y036296D02*
X032214Y036296D01*
X032240Y036303D01*
X032264Y036317D01*
X032283Y036336D01*
X032297Y036360D01*
X032304Y036386D01*
X032304Y036575D01*
X032025Y036575D01*
X032025Y036296D01*
X032025Y036349D02*
X031975Y036349D01*
X031975Y036398D02*
X032025Y036398D01*
X032025Y036446D02*
X031975Y036446D01*
X031975Y036495D02*
X032025Y036495D01*
X032025Y036543D02*
X031975Y036543D01*
X031975Y036689D02*
X032025Y036689D01*
X032025Y036737D02*
X031975Y036737D01*
X031975Y036786D02*
X032025Y036786D01*
X032025Y036834D02*
X031975Y036834D01*
X031975Y036883D02*
X032025Y036883D01*
X032264Y036883D02*
X032736Y036883D01*
X032702Y036834D02*
X032298Y036834D01*
X032304Y036786D02*
X032696Y036786D01*
X032696Y036737D02*
X032304Y036737D01*
X032304Y036689D02*
X032696Y036689D01*
X032696Y036640D02*
X032304Y036640D01*
X032304Y036543D02*
X032696Y036543D01*
X032696Y036495D02*
X032304Y036495D01*
X032304Y036446D02*
X032696Y036446D01*
X032696Y036398D02*
X032304Y036398D01*
X032290Y036349D02*
X032710Y036349D01*
X032770Y036301D02*
X032230Y036301D01*
X032268Y036252D02*
X032732Y036252D01*
X032715Y036204D02*
X032285Y036204D01*
X032285Y036155D02*
X032715Y036155D01*
X032715Y036107D02*
X032285Y036107D01*
X032285Y036058D02*
X032715Y036058D01*
X032715Y036010D02*
X032285Y036010D01*
X032285Y035961D02*
X032715Y035961D01*
X032715Y035913D02*
X032285Y035913D01*
X032285Y035864D02*
X032715Y035864D01*
X032715Y035816D02*
X032285Y035816D01*
X032285Y035767D02*
X032715Y035767D01*
X032761Y035719D02*
X032239Y035719D01*
X032205Y035670D02*
X032795Y035670D01*
X033205Y035670D02*
X033795Y035670D01*
X033761Y035719D02*
X033239Y035719D01*
X033285Y035767D02*
X033715Y035767D01*
X033715Y035816D02*
X033285Y035816D01*
X033285Y035864D02*
X033715Y035864D01*
X033715Y035913D02*
X033285Y035913D01*
X033285Y035961D02*
X033715Y035961D01*
X033715Y036010D02*
X033285Y036010D01*
X033285Y036058D02*
X033715Y036058D01*
X033715Y036107D02*
X033285Y036107D01*
X033285Y036155D02*
X033715Y036155D01*
X033715Y036204D02*
X033285Y036204D01*
X033268Y036252D02*
X033732Y036252D01*
X033770Y036301D02*
X033230Y036301D01*
X033290Y036349D02*
X033710Y036349D01*
X033696Y036398D02*
X033304Y036398D01*
X033304Y036446D02*
X033696Y036446D01*
X033696Y036495D02*
X033304Y036495D01*
X033304Y036543D02*
X033696Y036543D01*
X033696Y036640D02*
X033304Y036640D01*
X033304Y036625D02*
X033304Y036814D01*
X033297Y036840D01*
X033283Y036864D01*
X033264Y036883D01*
X033240Y036897D01*
X033214Y036904D01*
X033025Y036904D01*
X033025Y036625D01*
X033304Y036625D01*
X033304Y036689D02*
X033696Y036689D01*
X033696Y036737D02*
X033304Y036737D01*
X033304Y036786D02*
X033696Y036786D01*
X033702Y036834D02*
X033298Y036834D01*
X033264Y036883D02*
X033736Y036883D01*
X033833Y037077D02*
X033167Y037077D01*
X033269Y037125D02*
X033731Y037125D01*
X033683Y037174D02*
X033317Y037174D01*
X033366Y037222D02*
X033634Y037222D01*
X033603Y037271D02*
X033397Y037271D01*
X033418Y037319D02*
X033582Y037319D01*
X033562Y037368D02*
X033438Y037368D01*
X033455Y037416D02*
X033545Y037416D01*
X033545Y037465D02*
X033455Y037465D01*
X033455Y037513D02*
X033545Y037513D01*
X033545Y037562D02*
X033455Y037562D01*
X033447Y037610D02*
X033553Y037610D01*
X033573Y037659D02*
X033427Y037659D01*
X033407Y037707D02*
X033593Y037707D01*
X033613Y037756D02*
X033387Y037756D01*
X033339Y037804D02*
X033661Y037804D01*
X033709Y037853D02*
X033291Y037853D01*
X032709Y037853D02*
X032291Y037853D01*
X032339Y037804D02*
X032661Y037804D01*
X032613Y037756D02*
X032387Y037756D01*
X032407Y037707D02*
X032593Y037707D01*
X032573Y037659D02*
X032427Y037659D01*
X032447Y037610D02*
X032553Y037610D01*
X032545Y037562D02*
X032455Y037562D01*
X032455Y037513D02*
X032545Y037513D01*
X032545Y037465D02*
X032455Y037465D01*
X032455Y037416D02*
X032545Y037416D01*
X032562Y037368D02*
X032438Y037368D01*
X032418Y037319D02*
X032582Y037319D01*
X032603Y037271D02*
X032397Y037271D01*
X032366Y037222D02*
X032634Y037222D01*
X032683Y037174D02*
X032317Y037174D01*
X032269Y037125D02*
X032731Y037125D01*
X032833Y037077D02*
X032167Y037077D01*
X032975Y036883D02*
X033025Y036883D01*
X033025Y036834D02*
X032975Y036834D01*
X032975Y036786D02*
X033025Y036786D01*
X033025Y036737D02*
X032975Y036737D01*
X032975Y036689D02*
X033025Y036689D01*
X033025Y036640D02*
X032975Y036640D01*
X032975Y036495D02*
X033025Y036495D01*
X033025Y036446D02*
X032975Y036446D01*
X032975Y036398D02*
X033025Y036398D01*
X033025Y036349D02*
X032975Y036349D01*
X032975Y036301D02*
X033025Y036301D01*
X033975Y036301D02*
X034025Y036301D01*
X034025Y036349D02*
X033975Y036349D01*
X033975Y036398D02*
X034025Y036398D01*
X034025Y036446D02*
X033975Y036446D01*
X033975Y036495D02*
X034025Y036495D01*
X034025Y036625D02*
X034304Y036625D01*
X034304Y036814D01*
X034297Y036840D01*
X034283Y036864D01*
X034264Y036883D01*
X034240Y036897D01*
X034214Y036904D01*
X034025Y036904D01*
X034025Y036625D01*
X034025Y036640D02*
X033975Y036640D01*
X033975Y036689D02*
X034025Y036689D01*
X034025Y036737D02*
X033975Y036737D01*
X033975Y036786D02*
X034025Y036786D01*
X034025Y036834D02*
X033975Y036834D01*
X033975Y036883D02*
X034025Y036883D01*
X034264Y036883D02*
X034736Y036883D01*
X034702Y036834D02*
X034298Y036834D01*
X034304Y036786D02*
X034696Y036786D01*
X034696Y036737D02*
X034304Y036737D01*
X034304Y036689D02*
X034696Y036689D01*
X034696Y036640D02*
X034304Y036640D01*
X034304Y036543D02*
X034696Y036543D01*
X034696Y036495D02*
X034304Y036495D01*
X034304Y036446D02*
X034696Y036446D01*
X034696Y036398D02*
X034304Y036398D01*
X034290Y036349D02*
X034710Y036349D01*
X034770Y036301D02*
X034230Y036301D01*
X034268Y036252D02*
X034732Y036252D01*
X034715Y036204D02*
X034285Y036204D01*
X034285Y036155D02*
X034715Y036155D01*
X034715Y036107D02*
X034285Y036107D01*
X034285Y036058D02*
X034715Y036058D01*
X034715Y036010D02*
X034285Y036010D01*
X034285Y035961D02*
X034715Y035961D01*
X034715Y035913D02*
X034285Y035913D01*
X034285Y035864D02*
X034715Y035864D01*
X034715Y035816D02*
X034285Y035816D01*
X034285Y035767D02*
X034715Y035767D01*
X034761Y035719D02*
X034239Y035719D01*
X034205Y035670D02*
X034795Y035670D01*
X034975Y036301D02*
X035025Y036301D01*
X035025Y036349D02*
X034975Y036349D01*
X034975Y036398D02*
X035025Y036398D01*
X035025Y036446D02*
X034975Y036446D01*
X034975Y036495D02*
X035025Y036495D01*
X035025Y036625D02*
X035304Y036625D01*
X035304Y036814D01*
X035297Y036840D01*
X035283Y036864D01*
X035264Y036883D01*
X035240Y036897D01*
X035214Y036904D01*
X035025Y036904D01*
X035025Y036625D01*
X035025Y036640D02*
X034975Y036640D01*
X034975Y036689D02*
X035025Y036689D01*
X035025Y036737D02*
X034975Y036737D01*
X034975Y036786D02*
X035025Y036786D01*
X035025Y036834D02*
X034975Y036834D01*
X034975Y036883D02*
X035025Y036883D01*
X035264Y036883D02*
X035736Y036883D01*
X035702Y036834D02*
X035298Y036834D01*
X035304Y036786D02*
X035696Y036786D01*
X035696Y036737D02*
X035304Y036737D01*
X035304Y036689D02*
X035696Y036689D01*
X035696Y036640D02*
X035304Y036640D01*
X035304Y036543D02*
X035696Y036543D01*
X035696Y036495D02*
X035304Y036495D01*
X035304Y036446D02*
X035696Y036446D01*
X035696Y036398D02*
X035304Y036398D01*
X035290Y036349D02*
X035710Y036349D01*
X035833Y037077D02*
X035167Y037077D01*
X035269Y037125D02*
X035731Y037125D01*
X035683Y037174D02*
X035317Y037174D01*
X035366Y037222D02*
X035634Y037222D01*
X035603Y037271D02*
X035397Y037271D01*
X035418Y037319D02*
X035582Y037319D01*
X035562Y037368D02*
X035438Y037368D01*
X035455Y037416D02*
X035545Y037416D01*
X035545Y037465D02*
X035455Y037465D01*
X035455Y037513D02*
X035545Y037513D01*
X035545Y037562D02*
X035455Y037562D01*
X035447Y037610D02*
X035553Y037610D01*
X035573Y037659D02*
X035427Y037659D01*
X035407Y037707D02*
X035593Y037707D01*
X035613Y037756D02*
X035387Y037756D01*
X035339Y037804D02*
X035661Y037804D01*
X035709Y037853D02*
X035291Y037853D01*
X034709Y037853D02*
X034291Y037853D01*
X034339Y037804D02*
X034661Y037804D01*
X034613Y037756D02*
X034387Y037756D01*
X034407Y037707D02*
X034593Y037707D01*
X034573Y037659D02*
X034427Y037659D01*
X034447Y037610D02*
X034553Y037610D01*
X034545Y037562D02*
X034455Y037562D01*
X034455Y037513D02*
X034545Y037513D01*
X034545Y037465D02*
X034455Y037465D01*
X034455Y037416D02*
X034545Y037416D01*
X034562Y037368D02*
X034438Y037368D01*
X034418Y037319D02*
X034582Y037319D01*
X034603Y037271D02*
X034397Y037271D01*
X034366Y037222D02*
X034634Y037222D01*
X034683Y037174D02*
X034317Y037174D01*
X034269Y037125D02*
X034731Y037125D01*
X034833Y037077D02*
X034167Y037077D01*
X036167Y037077D02*
X036833Y037077D01*
X036731Y037125D02*
X036269Y037125D01*
X036317Y037174D02*
X036683Y037174D01*
X036634Y037222D02*
X036366Y037222D01*
X036397Y037271D02*
X036603Y037271D01*
X036582Y037319D02*
X036418Y037319D01*
X036438Y037368D02*
X036562Y037368D01*
X036545Y037416D02*
X036455Y037416D01*
X036455Y037465D02*
X036545Y037465D01*
X036545Y037513D02*
X036455Y037513D01*
X036455Y037562D02*
X036545Y037562D01*
X036553Y037610D02*
X036447Y037610D01*
X036427Y037659D02*
X036573Y037659D01*
X036593Y037707D02*
X036407Y037707D01*
X036387Y037756D02*
X036613Y037756D01*
X036661Y037804D02*
X036339Y037804D01*
X036291Y037853D02*
X036709Y037853D01*
X037291Y037853D02*
X037709Y037853D01*
X037661Y037804D02*
X037339Y037804D01*
X037387Y037756D02*
X037613Y037756D01*
X037593Y037707D02*
X037407Y037707D01*
X037427Y037659D02*
X037573Y037659D01*
X037553Y037610D02*
X037447Y037610D01*
X037455Y037562D02*
X037545Y037562D01*
X037545Y037513D02*
X037455Y037513D01*
X037455Y037465D02*
X037545Y037465D01*
X037545Y037416D02*
X037455Y037416D01*
X037438Y037368D02*
X037562Y037368D01*
X037582Y037319D02*
X037418Y037319D01*
X037397Y037271D02*
X037603Y037271D01*
X037634Y037222D02*
X037366Y037222D01*
X037317Y037174D02*
X037683Y037174D01*
X037731Y037125D02*
X037269Y037125D01*
X037167Y037077D02*
X037833Y037077D01*
X037761Y036931D02*
X037239Y036931D01*
X037285Y036883D02*
X037715Y036883D01*
X038167Y037077D02*
X038833Y037077D01*
X038731Y037125D02*
X038269Y037125D01*
X038317Y037174D02*
X038683Y037174D01*
X038634Y037222D02*
X038366Y037222D01*
X038397Y037271D02*
X038603Y037271D01*
X038582Y037319D02*
X038418Y037319D01*
X038438Y037368D02*
X038562Y037368D01*
X038545Y037416D02*
X038455Y037416D01*
X038455Y037465D02*
X038545Y037465D01*
X038545Y037513D02*
X038455Y037513D01*
X038455Y037562D02*
X038545Y037562D01*
X038553Y037610D02*
X038447Y037610D01*
X038427Y037659D02*
X038573Y037659D01*
X038593Y037707D02*
X038407Y037707D01*
X038387Y037756D02*
X038613Y037756D01*
X038661Y037804D02*
X038339Y037804D01*
X038291Y037853D02*
X038709Y037853D01*
X039291Y037853D02*
X039683Y037853D01*
X039635Y037804D02*
X039339Y037804D01*
X039387Y037756D02*
X039600Y037756D01*
X039574Y037707D02*
X039407Y037707D01*
X039427Y037659D02*
X039553Y037659D01*
X039538Y037610D02*
X039447Y037610D01*
X039455Y037562D02*
X039530Y037562D01*
X039710Y037125D02*
X039269Y037125D01*
X039167Y037077D02*
X039788Y037077D01*
X039235Y036335D02*
X039285Y036285D01*
X039285Y035815D01*
X039235Y035765D01*
X039205Y035765D01*
X039205Y035715D01*
X039085Y035595D01*
X038915Y035595D01*
X038795Y035715D01*
X038795Y035765D01*
X038765Y035765D01*
X038715Y035815D01*
X038715Y036285D01*
X038765Y036335D01*
X039235Y036335D01*
X039270Y036301D02*
X040377Y036301D01*
X040377Y036252D02*
X039285Y036252D01*
X039285Y036204D02*
X040377Y036204D01*
X040377Y036155D02*
X039285Y036155D01*
X039285Y036107D02*
X040377Y036107D01*
X040377Y036058D02*
X039285Y036058D01*
X039285Y036010D02*
X040377Y036010D01*
X040377Y035961D02*
X039285Y035961D01*
X039285Y035913D02*
X040377Y035913D01*
X040377Y035864D02*
X039285Y035864D01*
X039285Y035816D02*
X040377Y035816D01*
X040377Y035767D02*
X039237Y035767D01*
X039205Y035719D02*
X040377Y035719D01*
X040377Y035670D02*
X039160Y035670D01*
X039111Y035622D02*
X040377Y035622D01*
X040377Y034991D02*
X029000Y034991D01*
X029000Y034943D02*
X040377Y034943D01*
X040377Y034894D02*
X029000Y034894D01*
X029000Y034846D02*
X040377Y034846D01*
X040377Y034797D02*
X030462Y034797D01*
X030426Y034833D02*
X030274Y034833D01*
X030167Y034726D01*
X030167Y034669D01*
X030158Y034654D01*
X030158Y034654D01*
X030167Y034624D01*
X030167Y034574D01*
X030187Y034554D01*
X030210Y034473D01*
X030205Y034456D01*
X030215Y034438D01*
X030215Y034185D01*
X030215Y034185D01*
X030165Y034135D01*
X030165Y033865D01*
X030215Y033815D01*
X030215Y033512D01*
X030205Y033494D01*
X030210Y033477D01*
X030187Y033396D01*
X030167Y033376D01*
X030167Y033326D01*
X030160Y033302D01*
X030158Y033296D01*
X030167Y033281D01*
X030167Y033224D01*
X030274Y033117D01*
X030426Y033117D01*
X030533Y033224D01*
X030533Y033281D01*
X030542Y033296D01*
X030542Y033296D01*
X030533Y033326D01*
X030533Y033376D01*
X030513Y033396D01*
X030490Y033477D01*
X030495Y033494D01*
X030485Y033512D01*
X030485Y033815D01*
X030485Y033815D01*
X030487Y033817D01*
X030510Y033803D01*
X030536Y033796D01*
X030625Y033796D01*
X030625Y033975D01*
X030675Y033975D01*
X030675Y034025D01*
X030625Y034025D01*
X030625Y034204D01*
X030536Y034204D01*
X030510Y034197D01*
X030487Y034183D01*
X030485Y034185D01*
X030485Y034438D01*
X030495Y034456D01*
X030490Y034473D01*
X030513Y034554D01*
X030533Y034574D01*
X030533Y034624D01*
X030542Y034654D01*
X030533Y034669D01*
X030533Y034726D01*
X030426Y034833D01*
X030511Y034749D02*
X040377Y034749D01*
X040377Y034700D02*
X030533Y034700D01*
X030542Y034654D02*
X030542Y034654D01*
X030542Y034654D01*
X030541Y034652D02*
X040377Y034652D01*
X040377Y034603D02*
X030533Y034603D01*
X030514Y034555D02*
X040377Y034555D01*
X040377Y034506D02*
X030500Y034506D01*
X030495Y034458D02*
X040377Y034458D01*
X040377Y034409D02*
X030485Y034409D01*
X030485Y034361D02*
X040377Y034361D01*
X040377Y034312D02*
X030485Y034312D01*
X030485Y034264D02*
X040377Y034264D01*
X040377Y034215D02*
X030485Y034215D01*
X030485Y034185D02*
X030485Y034185D01*
X030625Y034167D02*
X030675Y034167D01*
X030675Y034204D02*
X030675Y034025D01*
X030854Y034025D01*
X030854Y034114D01*
X030847Y034140D01*
X030833Y034164D01*
X030814Y034183D01*
X030790Y034197D01*
X030764Y034204D01*
X030675Y034204D01*
X030675Y034118D02*
X030625Y034118D01*
X030625Y034070D02*
X030675Y034070D01*
X030675Y034021D02*
X040377Y034021D01*
X040377Y033973D02*
X030854Y033973D01*
X030854Y033975D02*
X030675Y033975D01*
X030675Y033796D01*
X030764Y033796D01*
X030790Y033803D01*
X030814Y033817D01*
X030833Y033836D01*
X030847Y033860D01*
X030854Y033886D01*
X030854Y033975D01*
X030854Y033924D02*
X040377Y033924D01*
X040377Y033876D02*
X030851Y033876D01*
X030824Y033827D02*
X040377Y033827D01*
X040377Y033779D02*
X030485Y033779D01*
X030485Y033730D02*
X040377Y033730D01*
X040377Y033682D02*
X030485Y033682D01*
X030485Y033633D02*
X040377Y033633D01*
X040377Y033585D02*
X030485Y033585D01*
X030485Y033536D02*
X040377Y033536D01*
X040377Y033488D02*
X030493Y033488D01*
X030501Y033439D02*
X040377Y033439D01*
X040377Y033391D02*
X030519Y033391D01*
X030533Y033342D02*
X040377Y033342D01*
X040377Y033294D02*
X030540Y033294D01*
X030542Y033296D02*
X030542Y033296D01*
X030533Y033245D02*
X040377Y033245D01*
X040377Y033197D02*
X030506Y033197D01*
X030457Y033148D02*
X040377Y033148D01*
X040377Y033100D02*
X029544Y033100D01*
X029544Y033148D02*
X030243Y033148D01*
X030194Y033197D02*
X029545Y033197D01*
X029545Y033245D02*
X030167Y033245D01*
X030160Y033294D02*
X029545Y033294D01*
X029545Y033342D02*
X030167Y033342D01*
X030181Y033391D02*
X029546Y033391D01*
X029546Y033439D02*
X030199Y033439D01*
X030207Y033488D02*
X029546Y033488D01*
X029546Y033536D02*
X030215Y033536D01*
X030215Y033585D02*
X029547Y033585D01*
X029547Y033633D02*
X030215Y033633D01*
X030215Y033682D02*
X029547Y033682D01*
X029547Y033730D02*
X030215Y033730D01*
X030215Y033779D02*
X029548Y033779D01*
X029548Y033827D02*
X030203Y033827D01*
X030215Y033815D02*
X030215Y033815D01*
X030165Y033876D02*
X029548Y033876D01*
X029548Y033924D02*
X030165Y033924D01*
X030165Y033973D02*
X029549Y033973D01*
X029549Y034021D02*
X030165Y034021D01*
X030165Y034070D02*
X029549Y034070D01*
X029550Y034118D02*
X030165Y034118D01*
X030196Y034167D02*
X029550Y034167D01*
X029535Y034215D02*
X030215Y034215D01*
X030215Y034264D02*
X029486Y034264D01*
X029438Y034312D02*
X030215Y034312D01*
X030215Y034361D02*
X029389Y034361D01*
X029341Y034409D02*
X030215Y034409D01*
X030205Y034458D02*
X029292Y034458D01*
X029244Y034506D02*
X030200Y034506D01*
X030186Y034555D02*
X029195Y034555D01*
X029147Y034603D02*
X030167Y034603D01*
X030159Y034652D02*
X029098Y034652D01*
X029050Y034700D02*
X030167Y034700D01*
X030158Y034654D02*
X030158Y034654D01*
X030189Y034749D02*
X029001Y034749D01*
X029000Y034797D02*
X030238Y034797D01*
X030830Y034167D02*
X040377Y034167D01*
X040377Y034118D02*
X030853Y034118D01*
X030854Y034070D02*
X040377Y034070D01*
X040377Y033051D02*
X029544Y033051D01*
X029543Y033003D02*
X040377Y033003D01*
X040377Y032954D02*
X029543Y032954D01*
X029543Y032906D02*
X040377Y032906D01*
X040377Y032857D02*
X029543Y032857D01*
X029542Y032809D02*
X040377Y032809D01*
X040377Y032760D02*
X029542Y032760D01*
X029542Y032712D02*
X040377Y032712D01*
X040377Y032663D02*
X029542Y032663D01*
X029541Y032615D02*
X040377Y032615D01*
X040377Y032566D02*
X029541Y032566D01*
X029541Y032518D02*
X040377Y032518D01*
X040377Y032469D02*
X029541Y032469D01*
X029540Y032421D02*
X040377Y032421D01*
X040377Y032372D02*
X029540Y032372D01*
X029540Y032324D02*
X040377Y032324D01*
X040377Y032275D02*
X029540Y032275D01*
X029539Y032227D02*
X040377Y032227D01*
X040377Y032178D02*
X029539Y032178D01*
X029539Y032130D02*
X040377Y032130D01*
X040377Y032081D02*
X029538Y032081D01*
X029538Y032033D02*
X040377Y032033D01*
X040377Y031984D02*
X029538Y031984D01*
X029538Y031936D02*
X040377Y031936D01*
X040377Y031887D02*
X030472Y031887D01*
X030426Y031933D02*
X030533Y031826D01*
X030533Y031769D01*
X030542Y031754D01*
X030542Y031754D01*
X030542Y031754D01*
X030533Y031724D01*
X030533Y031674D01*
X030513Y031654D01*
X030490Y031573D01*
X030495Y031556D01*
X030485Y031538D01*
X030485Y031185D01*
X030485Y031185D01*
X030487Y031183D01*
X030510Y031197D01*
X030536Y031204D01*
X030625Y031204D01*
X030625Y031025D01*
X030675Y031025D01*
X030675Y031204D01*
X030764Y031204D01*
X030790Y031197D01*
X030814Y031183D01*
X030833Y031164D01*
X030847Y031140D01*
X030854Y031114D01*
X030854Y031025D01*
X030675Y031025D01*
X030675Y030975D01*
X030854Y030975D01*
X030854Y030886D01*
X030847Y030860D01*
X030833Y030836D01*
X030814Y030817D01*
X030790Y030803D01*
X030764Y030796D01*
X030675Y030796D01*
X030675Y030975D01*
X030625Y030975D01*
X030625Y030796D01*
X030536Y030796D01*
X030510Y030803D01*
X030487Y030817D01*
X030485Y030815D01*
X030485Y030815D01*
X030485Y030462D01*
X030495Y030444D01*
X030490Y030427D01*
X030513Y030346D01*
X030533Y030326D01*
X030533Y030276D01*
X030542Y030246D01*
X030542Y030246D01*
X030533Y030231D01*
X030533Y030174D01*
X030426Y030067D01*
X030274Y030067D01*
X030167Y030174D01*
X030167Y030231D01*
X030158Y030246D01*
X030160Y030252D01*
X030167Y030276D01*
X030167Y030326D01*
X030187Y030346D01*
X030210Y030427D01*
X030205Y030444D01*
X030215Y030462D01*
X030215Y030815D01*
X030215Y030815D01*
X030165Y030865D01*
X030165Y031135D01*
X030215Y031185D01*
X030215Y031185D01*
X030215Y031538D01*
X030205Y031556D01*
X030210Y031573D01*
X030187Y031654D01*
X030167Y031674D01*
X030167Y031724D01*
X030158Y031754D01*
X030158Y031754D01*
X030167Y031769D01*
X030167Y031826D01*
X030274Y031933D01*
X030426Y031933D01*
X030521Y031839D02*
X040377Y031839D01*
X040377Y031790D02*
X030533Y031790D01*
X030538Y031742D02*
X040377Y031742D01*
X040377Y031693D02*
X030533Y031693D01*
X030511Y031645D02*
X040377Y031645D01*
X040377Y031596D02*
X030497Y031596D01*
X030490Y031548D02*
X040377Y031548D01*
X040377Y031499D02*
X030485Y031499D01*
X030485Y031451D02*
X040377Y031451D01*
X040377Y031402D02*
X030485Y031402D01*
X030485Y031354D02*
X040377Y031354D01*
X040377Y031305D02*
X030485Y031305D01*
X030485Y031257D02*
X040377Y031257D01*
X040377Y031208D02*
X030485Y031208D01*
X030625Y031160D02*
X030675Y031160D01*
X030675Y031111D02*
X030625Y031111D01*
X030625Y031063D02*
X030675Y031063D01*
X030675Y031014D02*
X040377Y031014D01*
X040377Y030966D02*
X030854Y030966D01*
X030854Y030917D02*
X040377Y030917D01*
X040377Y030869D02*
X030849Y030869D01*
X030817Y030820D02*
X040377Y030820D01*
X040377Y030772D02*
X030485Y030772D01*
X030485Y030723D02*
X040377Y030723D01*
X040377Y030675D02*
X030485Y030675D01*
X030485Y030626D02*
X040377Y030626D01*
X040377Y030578D02*
X030485Y030578D01*
X030485Y030529D02*
X040377Y030529D01*
X040377Y030481D02*
X030485Y030481D01*
X030492Y030432D02*
X040377Y030432D01*
X040377Y030384D02*
X030503Y030384D01*
X030524Y030335D02*
X040377Y030335D01*
X040377Y030287D02*
X030533Y030287D01*
X030542Y030246D02*
X030542Y030246D01*
X030537Y030238D02*
X040377Y030238D01*
X040377Y030190D02*
X030533Y030190D01*
X030500Y030141D02*
X040377Y030141D01*
X040377Y030093D02*
X030452Y030093D01*
X030248Y030093D02*
X029528Y030093D01*
X029528Y030141D02*
X030200Y030141D01*
X030167Y030190D02*
X029528Y030190D01*
X029528Y030238D02*
X030163Y030238D01*
X030167Y030287D02*
X029529Y030287D01*
X029529Y030335D02*
X030176Y030335D01*
X030197Y030384D02*
X029529Y030384D01*
X029530Y030432D02*
X030208Y030432D01*
X030215Y030481D02*
X029530Y030481D01*
X029530Y030529D02*
X030215Y030529D01*
X030215Y030578D02*
X029530Y030578D01*
X029531Y030626D02*
X030215Y030626D01*
X030215Y030675D02*
X029531Y030675D01*
X029531Y030723D02*
X030215Y030723D01*
X030215Y030772D02*
X029531Y030772D01*
X029532Y030820D02*
X030210Y030820D01*
X030165Y030869D02*
X029532Y030869D01*
X029532Y030917D02*
X030165Y030917D01*
X030165Y030966D02*
X029532Y030966D01*
X029533Y031014D02*
X030165Y031014D01*
X030165Y031063D02*
X029533Y031063D01*
X029533Y031111D02*
X030165Y031111D01*
X030189Y031160D02*
X029533Y031160D01*
X029534Y031208D02*
X030215Y031208D01*
X030215Y031257D02*
X029534Y031257D01*
X029534Y031305D02*
X030215Y031305D01*
X030215Y031354D02*
X029535Y031354D01*
X029535Y031402D02*
X030215Y031402D01*
X030215Y031451D02*
X029535Y031451D01*
X029535Y031499D02*
X030215Y031499D01*
X030210Y031548D02*
X029536Y031548D01*
X029536Y031596D02*
X030203Y031596D01*
X030189Y031645D02*
X029536Y031645D01*
X029536Y031693D02*
X030167Y031693D01*
X030162Y031742D02*
X029537Y031742D01*
X029537Y031790D02*
X030167Y031790D01*
X030158Y031754D02*
X030158Y031754D01*
X030179Y031839D02*
X029537Y031839D01*
X029537Y031887D02*
X030228Y031887D01*
X030835Y031160D02*
X040377Y031160D01*
X040377Y031111D02*
X030854Y031111D01*
X030854Y031063D02*
X040377Y031063D01*
X040377Y030044D02*
X029527Y030044D01*
X029527Y029996D02*
X040377Y029996D01*
X040377Y029947D02*
X029527Y029947D01*
X029527Y029899D02*
X040377Y029899D01*
X040377Y029850D02*
X029526Y029850D01*
X029526Y029802D02*
X040377Y029802D01*
X040377Y029753D02*
X029526Y029753D01*
X029526Y029705D02*
X040377Y029705D01*
X040377Y029656D02*
X029525Y029656D01*
X029525Y029608D02*
X040377Y029608D01*
X040377Y029559D02*
X029525Y029559D01*
X029525Y029511D02*
X040377Y029511D01*
X040377Y029462D02*
X029524Y029462D01*
X029524Y029414D02*
X040377Y029414D01*
X040377Y029365D02*
X029524Y029365D01*
X029523Y029317D02*
X040377Y029317D01*
X040377Y029268D02*
X029523Y029268D01*
X029523Y029220D02*
X040377Y029220D01*
X040377Y029171D02*
X029523Y029171D01*
X029522Y029123D02*
X040377Y029123D01*
X040377Y029074D02*
X029522Y029074D01*
X029522Y029026D02*
X040377Y029026D01*
X040377Y028977D02*
X029522Y028977D01*
X029521Y028929D02*
X040377Y028929D01*
X040377Y028880D02*
X029521Y028880D01*
X029521Y028832D02*
X040377Y028832D01*
X040377Y028783D02*
X029521Y028783D01*
X029520Y028735D02*
X040377Y028735D01*
X040377Y028686D02*
X029520Y028686D01*
X029520Y028638D02*
X040377Y028638D01*
X040377Y028589D02*
X029520Y028589D01*
X029519Y028541D02*
X040377Y028541D01*
X040377Y028492D02*
X029519Y028492D01*
X029519Y028444D02*
X040377Y028444D01*
X040377Y028395D02*
X029518Y028395D01*
X029518Y028347D02*
X040377Y028347D01*
X040377Y028298D02*
X029518Y028298D01*
X029518Y028250D02*
X040377Y028250D01*
X040377Y028201D02*
X029517Y028201D01*
X029517Y028153D02*
X040377Y028153D01*
X040377Y028104D02*
X029517Y028104D01*
X029517Y028056D02*
X040377Y028056D01*
X040377Y028007D02*
X029516Y028007D01*
X029516Y027959D02*
X040377Y027959D01*
X040377Y027910D02*
X029516Y027910D01*
X029516Y027862D02*
X040377Y027862D01*
X040377Y027813D02*
X029515Y027813D01*
X029515Y027765D02*
X040377Y027765D01*
X040377Y027716D02*
X029515Y027716D01*
X029514Y027668D02*
X040377Y027668D01*
X040377Y027619D02*
X029514Y027619D01*
X029514Y027571D02*
X040377Y027571D01*
X040377Y027522D02*
X029514Y027522D01*
X029513Y027474D02*
X040377Y027474D01*
X040377Y027425D02*
X029513Y027425D01*
X029513Y027377D02*
X040377Y027377D01*
X040377Y027328D02*
X029513Y027328D01*
X029512Y027280D02*
X040377Y027280D01*
X040377Y027231D02*
X029512Y027231D01*
X029512Y027183D02*
X040377Y027183D01*
X040377Y027134D02*
X029512Y027134D01*
X029511Y027086D02*
X040377Y027086D01*
X040377Y027037D02*
X029511Y027037D01*
X029511Y026989D02*
X040377Y026989D01*
X040377Y026940D02*
X029511Y026940D01*
X029510Y026892D02*
X040377Y026892D01*
X040377Y026843D02*
X029510Y026843D01*
X029510Y026795D02*
X040377Y026795D01*
X040377Y026746D02*
X029509Y026746D01*
X029509Y026698D02*
X040377Y026698D01*
X040377Y026649D02*
X029509Y026649D01*
X029509Y026601D02*
X040377Y026601D01*
X040377Y026552D02*
X029508Y026552D01*
X029508Y026504D02*
X040377Y026504D01*
X040377Y026455D02*
X029508Y026455D01*
X029508Y026407D02*
X040377Y026407D01*
X040377Y026358D02*
X029507Y026358D01*
X029507Y026310D02*
X040377Y026310D01*
X040377Y026261D02*
X029507Y026261D01*
X029507Y026213D02*
X040377Y026213D01*
X040377Y026164D02*
X029506Y026164D01*
X029506Y026116D02*
X040377Y026116D01*
X040377Y026067D02*
X029506Y026067D01*
X029506Y026019D02*
X040377Y026019D01*
X040377Y025970D02*
X031061Y025970D01*
X031037Y025974D02*
X031025Y025974D01*
X031025Y025525D01*
X031474Y025525D01*
X031474Y025537D01*
X031462Y025611D01*
X031439Y025682D01*
X031405Y025748D01*
X031361Y025809D01*
X031309Y025861D01*
X031248Y025905D01*
X031182Y025939D01*
X031111Y025962D01*
X031037Y025974D01*
X031025Y025970D02*
X030975Y025970D01*
X030939Y025970D02*
X029505Y025970D01*
X029505Y025922D02*
X029829Y025922D01*
X029730Y025873D02*
X029505Y025873D01*
X029504Y025825D02*
X029681Y025825D01*
X029633Y025776D02*
X029504Y025776D01*
X029504Y025728D02*
X029602Y025728D01*
X029582Y025679D02*
X029504Y025679D01*
X029503Y025631D02*
X029562Y025631D01*
X029545Y025582D02*
X029503Y025582D01*
X029503Y025534D02*
X029545Y025534D01*
X029545Y025485D02*
X029503Y025485D01*
X029502Y025437D02*
X029545Y025437D01*
X029554Y025388D02*
X029502Y025388D01*
X029502Y025340D02*
X029574Y025340D01*
X029594Y025291D02*
X029502Y025291D01*
X029501Y025243D02*
X029614Y025243D01*
X029663Y025194D02*
X029501Y025194D01*
X029501Y025146D02*
X029711Y025146D01*
X030289Y025146D02*
X030685Y025146D01*
X030637Y025194D02*
X030337Y025194D01*
X030386Y025243D02*
X030602Y025243D01*
X030575Y025291D02*
X030406Y025291D01*
X030426Y025340D02*
X030554Y025340D01*
X030538Y025388D02*
X030446Y025388D01*
X030455Y025437D02*
X030530Y025437D01*
X030455Y025485D02*
X030975Y025485D01*
X030975Y025534D02*
X031025Y025534D01*
X031025Y025582D02*
X030975Y025582D01*
X030975Y025631D02*
X031025Y025631D01*
X031025Y025679D02*
X030975Y025679D01*
X030975Y025728D02*
X031025Y025728D01*
X031025Y025776D02*
X030975Y025776D01*
X030975Y025825D02*
X031025Y025825D01*
X031025Y025873D02*
X030975Y025873D01*
X030975Y025922D02*
X031025Y025922D01*
X031216Y025922D02*
X031829Y025922D01*
X031730Y025873D02*
X031293Y025873D01*
X031345Y025825D02*
X031681Y025825D01*
X031633Y025776D02*
X031385Y025776D01*
X031416Y025728D02*
X031602Y025728D01*
X031582Y025679D02*
X031440Y025679D01*
X031456Y025631D02*
X031562Y025631D01*
X031545Y025582D02*
X031467Y025582D01*
X031474Y025534D02*
X031545Y025534D01*
X031545Y025485D02*
X031025Y025485D01*
X031425Y025291D02*
X031594Y025291D01*
X031574Y025340D02*
X031446Y025340D01*
X031462Y025388D02*
X031554Y025388D01*
X031545Y025437D02*
X031470Y025437D01*
X031398Y025243D02*
X031614Y025243D01*
X031663Y025194D02*
X031363Y025194D01*
X031315Y025146D02*
X031711Y025146D01*
X032289Y025146D02*
X032711Y025146D01*
X032663Y025194D02*
X032337Y025194D01*
X032386Y025243D02*
X032614Y025243D01*
X032594Y025291D02*
X032406Y025291D01*
X032426Y025340D02*
X032574Y025340D01*
X032554Y025388D02*
X032446Y025388D01*
X032455Y025437D02*
X032545Y025437D01*
X032545Y025485D02*
X032455Y025485D01*
X032455Y025534D02*
X032545Y025534D01*
X032545Y025582D02*
X032455Y025582D01*
X032438Y025631D02*
X032562Y025631D01*
X032582Y025679D02*
X032418Y025679D01*
X032398Y025728D02*
X032602Y025728D01*
X032633Y025776D02*
X032367Y025776D01*
X032319Y025825D02*
X032681Y025825D01*
X032730Y025873D02*
X032270Y025873D01*
X032171Y025922D02*
X032829Y025922D01*
X033171Y025922D02*
X033829Y025922D01*
X033730Y025873D02*
X033270Y025873D01*
X033319Y025825D02*
X033681Y025825D01*
X033633Y025776D02*
X033367Y025776D01*
X033398Y025728D02*
X033602Y025728D01*
X033582Y025679D02*
X033418Y025679D01*
X033438Y025631D02*
X033562Y025631D01*
X033545Y025582D02*
X033455Y025582D01*
X033455Y025534D02*
X033545Y025534D01*
X033545Y025485D02*
X033455Y025485D01*
X033455Y025437D02*
X033545Y025437D01*
X033554Y025388D02*
X033446Y025388D01*
X033426Y025340D02*
X033574Y025340D01*
X033594Y025291D02*
X033406Y025291D01*
X033386Y025243D02*
X033614Y025243D01*
X033663Y025194D02*
X033337Y025194D01*
X033289Y025146D02*
X033711Y025146D01*
X034289Y025146D02*
X034711Y025146D01*
X034663Y025194D02*
X034337Y025194D01*
X034386Y025243D02*
X034614Y025243D01*
X034594Y025291D02*
X034406Y025291D01*
X034426Y025340D02*
X034574Y025340D01*
X034554Y025388D02*
X034446Y025388D01*
X034455Y025437D02*
X034545Y025437D01*
X034545Y025485D02*
X034455Y025485D01*
X034455Y025534D02*
X034545Y025534D01*
X034545Y025582D02*
X034455Y025582D01*
X034438Y025631D02*
X034562Y025631D01*
X034582Y025679D02*
X034418Y025679D01*
X034398Y025728D02*
X034602Y025728D01*
X034633Y025776D02*
X034367Y025776D01*
X034319Y025825D02*
X034681Y025825D01*
X034730Y025873D02*
X034270Y025873D01*
X034171Y025922D02*
X034829Y025922D01*
X035171Y025922D02*
X035829Y025922D01*
X035730Y025873D02*
X035270Y025873D01*
X035319Y025825D02*
X035681Y025825D01*
X035633Y025776D02*
X035367Y025776D01*
X035398Y025728D02*
X035602Y025728D01*
X035582Y025679D02*
X035418Y025679D01*
X035438Y025631D02*
X035562Y025631D01*
X035545Y025582D02*
X035455Y025582D01*
X035455Y025534D02*
X035545Y025534D01*
X035545Y025485D02*
X035455Y025485D01*
X035455Y025437D02*
X035545Y025437D01*
X035554Y025388D02*
X035446Y025388D01*
X035426Y025340D02*
X035574Y025340D01*
X035594Y025291D02*
X035406Y025291D01*
X035386Y025243D02*
X035614Y025243D01*
X035663Y025194D02*
X035337Y025194D01*
X035289Y025146D02*
X035711Y025146D01*
X036289Y025146D02*
X036711Y025146D01*
X036663Y025194D02*
X036337Y025194D01*
X036386Y025243D02*
X036614Y025243D01*
X036594Y025291D02*
X036406Y025291D01*
X036426Y025340D02*
X036574Y025340D01*
X036554Y025388D02*
X036446Y025388D01*
X036455Y025437D02*
X036545Y025437D01*
X036545Y025485D02*
X036455Y025485D01*
X036455Y025534D02*
X036545Y025534D01*
X036545Y025582D02*
X036455Y025582D01*
X036438Y025631D02*
X036562Y025631D01*
X036582Y025679D02*
X036418Y025679D01*
X036398Y025728D02*
X036602Y025728D01*
X036633Y025776D02*
X036367Y025776D01*
X036319Y025825D02*
X036681Y025825D01*
X036730Y025873D02*
X036270Y025873D01*
X036171Y025922D02*
X036829Y025922D01*
X037171Y025922D02*
X037829Y025922D01*
X037730Y025873D02*
X037270Y025873D01*
X037319Y025825D02*
X037681Y025825D01*
X037633Y025776D02*
X037367Y025776D01*
X037398Y025728D02*
X037602Y025728D01*
X037582Y025679D02*
X037418Y025679D01*
X037438Y025631D02*
X037562Y025631D01*
X037545Y025582D02*
X037455Y025582D01*
X037455Y025534D02*
X037545Y025534D01*
X037545Y025485D02*
X037455Y025485D01*
X037455Y025437D02*
X037545Y025437D01*
X037554Y025388D02*
X037446Y025388D01*
X037426Y025340D02*
X037574Y025340D01*
X037594Y025291D02*
X037406Y025291D01*
X037386Y025243D02*
X037614Y025243D01*
X037663Y025194D02*
X037337Y025194D01*
X037289Y025146D02*
X037711Y025146D01*
X038289Y025146D02*
X038711Y025146D01*
X038663Y025194D02*
X038337Y025194D01*
X038386Y025243D02*
X038614Y025243D01*
X038594Y025291D02*
X038406Y025291D01*
X038426Y025340D02*
X038574Y025340D01*
X038554Y025388D02*
X038446Y025388D01*
X038455Y025437D02*
X038545Y025437D01*
X038545Y025485D02*
X038455Y025485D01*
X038455Y025534D02*
X038545Y025534D01*
X038545Y025582D02*
X038455Y025582D01*
X038438Y025631D02*
X038562Y025631D01*
X038582Y025679D02*
X038418Y025679D01*
X038398Y025728D02*
X038602Y025728D01*
X038633Y025776D02*
X038367Y025776D01*
X038319Y025825D02*
X038681Y025825D01*
X038730Y025873D02*
X038270Y025873D01*
X038171Y025922D02*
X038829Y025922D01*
X039171Y025922D02*
X039829Y025922D01*
X039730Y025873D02*
X039270Y025873D01*
X039319Y025825D02*
X039681Y025825D01*
X039633Y025776D02*
X039367Y025776D01*
X039398Y025728D02*
X039602Y025728D01*
X039582Y025679D02*
X039418Y025679D01*
X039438Y025631D02*
X039562Y025631D01*
X039545Y025582D02*
X039455Y025582D01*
X039455Y025534D02*
X039545Y025534D01*
X039545Y025485D02*
X039455Y025485D01*
X039455Y025437D02*
X039545Y025437D01*
X039554Y025388D02*
X039446Y025388D01*
X039426Y025340D02*
X039574Y025340D01*
X039594Y025291D02*
X039406Y025291D01*
X039386Y025243D02*
X039614Y025243D01*
X039663Y025194D02*
X039337Y025194D01*
X039289Y025146D02*
X039711Y025146D01*
X040171Y025922D02*
X040377Y025922D01*
X040377Y025873D02*
X040270Y025873D01*
X040319Y025825D02*
X040377Y025825D01*
X040377Y025776D02*
X040367Y025776D01*
X030784Y025922D02*
X030171Y025922D01*
X030270Y025873D02*
X030707Y025873D01*
X030655Y025825D02*
X030319Y025825D01*
X030367Y025776D02*
X030615Y025776D01*
X030584Y025728D02*
X030398Y025728D01*
X030418Y025679D02*
X030560Y025679D01*
X030544Y025631D02*
X030438Y025631D01*
X030455Y025582D02*
X030533Y025582D01*
X030526Y025534D02*
X030455Y025534D01*
X030625Y030820D02*
X030675Y030820D01*
X030675Y030869D02*
X030625Y030869D01*
X030625Y030917D02*
X030675Y030917D01*
X030675Y030966D02*
X030625Y030966D01*
X030625Y033827D02*
X030675Y033827D01*
X030675Y033876D02*
X030625Y033876D01*
X030625Y033924D02*
X030675Y033924D01*
X030675Y033973D02*
X030625Y033973D01*
X038111Y035622D02*
X038889Y035622D01*
X038840Y035670D02*
X038160Y035670D01*
X038205Y035719D02*
X038795Y035719D01*
X038763Y035767D02*
X038237Y035767D01*
X038285Y035816D02*
X038715Y035816D01*
X038715Y035864D02*
X038285Y035864D01*
X038285Y035913D02*
X038715Y035913D01*
X038715Y035961D02*
X038285Y035961D01*
X038285Y036010D02*
X038715Y036010D01*
X038715Y036058D02*
X038285Y036058D01*
X038285Y036107D02*
X038715Y036107D01*
X038715Y036155D02*
X038285Y036155D01*
X038285Y036204D02*
X038715Y036204D01*
X038715Y036252D02*
X038285Y036252D01*
X038270Y036301D02*
X038730Y036301D01*
X038732Y036398D02*
X038268Y036398D01*
X038285Y036446D02*
X038715Y036446D01*
X038715Y036883D02*
X038285Y036883D01*
X038239Y036931D02*
X038761Y036931D01*
D23*
X037000Y035800D02*
X036947Y035825D01*
X036875Y035675D01*
X037025Y035747D01*
X037000Y035800D01*
X036875Y035675D01*
X036400Y035200D01*
X030550Y035200D01*
X029550Y036200D01*
X028950Y036200D01*
X028800Y036350D01*
X026950Y036350D01*
X024700Y034100D01*
X024700Y029417D01*
X024169Y028886D01*
X023571Y029886D02*
X024550Y030865D01*
X024550Y034150D01*
X026900Y036500D01*
X028850Y036500D01*
X029000Y036350D01*
X030000Y036350D01*
X029500Y036800D02*
X026800Y036800D01*
X024114Y034114D01*
X023571Y034114D01*
X024400Y034200D02*
X026850Y036650D01*
X028880Y036650D01*
X029047Y036658D01*
X029050Y036600D01*
X029016Y036553D01*
X028880Y036650D01*
X029000Y036650D01*
X029050Y036600D01*
X024400Y034200D02*
X024400Y033350D01*
X024169Y033119D01*
X024169Y033114D01*
D24*
X030000Y036100D02*
X030675Y035425D01*
X036275Y035425D01*
X036500Y035650D01*
X036500Y036350D01*
X036800Y036650D01*
X037000Y036650D01*
X038000Y036650D01*
X038000Y036050D02*
X038000Y035800D01*
X037000Y035800D02*
X037000Y036050D01*
X036000Y036000D02*
X036000Y035750D01*
X035000Y035750D02*
X035000Y036000D01*
X034000Y036000D02*
X034000Y035750D01*
X033000Y035750D02*
X033000Y036000D01*
X032000Y036000D02*
X032000Y035750D01*
X031000Y035750D02*
X031000Y036000D01*
X030000Y036100D02*
X030000Y036350D01*
X030000Y036800D01*
X030000Y037500D01*
X039000Y036050D02*
X039000Y035800D01*
D25*
X039000Y036650D02*
X038000Y036650D01*
M02*
