%
M48
M72
T01C0.0118
T02C0.0354
T03C0.0400
T04C0.0402
T05C0.0591
T06C0.1260
T07C0.1280
%
T01
X30500Y26000
X30500Y27000
X30500Y28000
X30500Y29000
X30500Y30000
X30350Y30250
X30350Y30850
X30350Y31150
X30500Y32000
X30500Y33000
X30350Y33850
X30350Y34150
X31500Y34000
X31500Y33000
X32500Y33000
X33500Y34000
X33500Y35000
X32500Y35000
X34500Y35000
X35500Y35000
X36500Y35000
X36750Y35550
X37500Y36000
X38500Y36000
X39500Y36000
X39500Y35000
X38500Y35000
X37500Y35000
X37500Y34000
X37500Y33000
X38500Y33000
X38500Y34000
X39500Y34000
X39500Y33000
X39500Y32000
X38500Y32000
X37500Y32000
X37500Y31000
X38500Y31000
X39500Y31000
X39500Y30000
X38500Y30000
X37500Y30000
X37500Y29000
X38500Y29000
X39500Y29000
X39500Y28000
X38500Y28000
X37500Y28000
X37500Y27000
X38500Y27000
X39500Y27000
X39500Y26000
X38500Y26000
X37500Y26000
X36500Y26000
X35500Y26000
X35500Y27000
X36500Y27000
X36500Y28000
X35500Y28000
X35500Y29000
X36500Y29000
X36500Y30000
X35500Y30000
X34500Y31000
X33500Y31000
X32500Y31000
X31500Y31000
X31500Y32000
X32500Y32000
X33500Y32000
X34500Y33000
X34500Y34000
X35500Y34000
X35500Y33000
X36500Y33000
X36500Y34000
X36500Y32000
X35500Y32000
X36500Y31000
X33500Y30000
X32500Y30000
X31500Y29000
X31500Y28000
X31500Y27000
X31500Y26000
X33500Y26000
X33500Y27000
X33500Y28000
X33500Y29000
X30150Y35350
X29950Y35750
X30350Y35750
X29400Y36700
X29100Y36800
T02
X29000Y33750
X28000Y33250
X29000Y32750
X28000Y32250
X29000Y31750
X28000Y31250
X29000Y30750
X28000Y30250
X29000Y29750
X28000Y29250
T03
X23000Y25500
X24000Y25500
X25000Y25500
X26000Y25500
X27000Y25500
X28000Y25500
X29000Y25500
X30000Y25500
X31000Y25500
X32000Y25500
X33000Y25500
X34000Y25500
X35000Y25500
X36000Y25500
X37000Y25500
X38000Y25500
X39000Y25500
X40000Y25500
X40000Y37500
X39000Y37500
X38000Y37500
X37000Y37500
X36000Y37500
X35000Y37500
X34000Y37500
X33000Y37500
X32000Y37500
X31000Y37500
X30000Y37500
X29000Y37500
X28000Y37500
X27000Y37500
X26000Y37500
X25000Y37500
X24000Y37500
X23000Y37500
T04
X23571Y34114
X24169Y33114
X23571Y29886
X24169Y28886
T05
X26701Y28449
X26701Y34551
T06
X25000Y36200
T07
X25500Y33750
X25500Y29250
M30
