G75*
%MOIN*%
%OFA0B0*%
%FSLAX24Y24*%
%IPPOS*%
%LPD*%
%AMOC8*
5,1,8,0,0,1.08239X$1,22.5*
%
%ADD10C,0.0000*%
%ADD11R,0.0200X0.0200*%
%ADD12C,0.0500*%
%ADD13R,0.0680X0.0680*%
D10*
X022500Y025000D02*
X022500Y037000D01*
X028500Y037000D01*
X028500Y036000D01*
X030000Y036000D01*
X030000Y025000D01*
X022500Y025000D01*
X023360Y028000D02*
X023362Y028050D01*
X023368Y028100D01*
X023378Y028149D01*
X023391Y028198D01*
X023409Y028245D01*
X023430Y028291D01*
X023454Y028334D01*
X023482Y028376D01*
X023513Y028416D01*
X023547Y028453D01*
X023584Y028487D01*
X023624Y028518D01*
X023666Y028546D01*
X023709Y028570D01*
X023755Y028591D01*
X023802Y028609D01*
X023851Y028622D01*
X023900Y028632D01*
X023950Y028638D01*
X024000Y028640D01*
X024050Y028638D01*
X024100Y028632D01*
X024149Y028622D01*
X024198Y028609D01*
X024245Y028591D01*
X024291Y028570D01*
X024334Y028546D01*
X024376Y028518D01*
X024416Y028487D01*
X024453Y028453D01*
X024487Y028416D01*
X024518Y028376D01*
X024546Y028334D01*
X024570Y028291D01*
X024591Y028245D01*
X024609Y028198D01*
X024622Y028149D01*
X024632Y028100D01*
X024638Y028050D01*
X024640Y028000D01*
X024638Y027950D01*
X024632Y027900D01*
X024622Y027851D01*
X024609Y027802D01*
X024591Y027755D01*
X024570Y027709D01*
X024546Y027666D01*
X024518Y027624D01*
X024487Y027584D01*
X024453Y027547D01*
X024416Y027513D01*
X024376Y027482D01*
X024334Y027454D01*
X024291Y027430D01*
X024245Y027409D01*
X024198Y027391D01*
X024149Y027378D01*
X024100Y027368D01*
X024050Y027362D01*
X024000Y027360D01*
X023950Y027362D01*
X023900Y027368D01*
X023851Y027378D01*
X023802Y027391D01*
X023755Y027409D01*
X023709Y027430D01*
X023666Y027454D01*
X023624Y027482D01*
X023584Y027513D01*
X023547Y027547D01*
X023513Y027584D01*
X023482Y027624D01*
X023454Y027666D01*
X023430Y027709D01*
X023409Y027755D01*
X023391Y027802D01*
X023378Y027851D01*
X023368Y027900D01*
X023362Y027950D01*
X023360Y028000D01*
X027860Y028000D02*
X027862Y028050D01*
X027868Y028100D01*
X027878Y028149D01*
X027891Y028198D01*
X027909Y028245D01*
X027930Y028291D01*
X027954Y028334D01*
X027982Y028376D01*
X028013Y028416D01*
X028047Y028453D01*
X028084Y028487D01*
X028124Y028518D01*
X028166Y028546D01*
X028209Y028570D01*
X028255Y028591D01*
X028302Y028609D01*
X028351Y028622D01*
X028400Y028632D01*
X028450Y028638D01*
X028500Y028640D01*
X028550Y028638D01*
X028600Y028632D01*
X028649Y028622D01*
X028698Y028609D01*
X028745Y028591D01*
X028791Y028570D01*
X028834Y028546D01*
X028876Y028518D01*
X028916Y028487D01*
X028953Y028453D01*
X028987Y028416D01*
X029018Y028376D01*
X029046Y028334D01*
X029070Y028291D01*
X029091Y028245D01*
X029109Y028198D01*
X029122Y028149D01*
X029132Y028100D01*
X029138Y028050D01*
X029140Y028000D01*
X029138Y027950D01*
X029132Y027900D01*
X029122Y027851D01*
X029109Y027802D01*
X029091Y027755D01*
X029070Y027709D01*
X029046Y027666D01*
X029018Y027624D01*
X028987Y027584D01*
X028953Y027547D01*
X028916Y027513D01*
X028876Y027482D01*
X028834Y027454D01*
X028791Y027430D01*
X028745Y027409D01*
X028698Y027391D01*
X028649Y027378D01*
X028600Y027368D01*
X028550Y027362D01*
X028500Y027360D01*
X028450Y027362D01*
X028400Y027368D01*
X028351Y027378D01*
X028302Y027391D01*
X028255Y027409D01*
X028209Y027430D01*
X028166Y027454D01*
X028124Y027482D01*
X028084Y027513D01*
X028047Y027547D01*
X028013Y027584D01*
X027982Y027624D01*
X027954Y027666D01*
X027930Y027709D01*
X027909Y027755D01*
X027891Y027802D01*
X027878Y027851D01*
X027868Y027900D01*
X027862Y027950D01*
X027860Y028000D01*
X022870Y034750D02*
X022872Y034800D01*
X022878Y034850D01*
X022888Y034899D01*
X022902Y034947D01*
X022919Y034994D01*
X022940Y035039D01*
X022965Y035083D01*
X022993Y035124D01*
X023025Y035163D01*
X023059Y035200D01*
X023096Y035234D01*
X023136Y035264D01*
X023178Y035291D01*
X023222Y035315D01*
X023268Y035336D01*
X023315Y035352D01*
X023363Y035365D01*
X023413Y035374D01*
X023462Y035379D01*
X023513Y035380D01*
X023563Y035377D01*
X023612Y035370D01*
X023661Y035359D01*
X023709Y035344D01*
X023755Y035326D01*
X023800Y035304D01*
X023843Y035278D01*
X023884Y035249D01*
X023923Y035217D01*
X023959Y035182D01*
X023991Y035144D01*
X024021Y035104D01*
X024048Y035061D01*
X024071Y035017D01*
X024090Y034971D01*
X024106Y034923D01*
X024118Y034874D01*
X024126Y034825D01*
X024130Y034775D01*
X024130Y034725D01*
X024126Y034675D01*
X024118Y034626D01*
X024106Y034577D01*
X024090Y034529D01*
X024071Y034483D01*
X024048Y034439D01*
X024021Y034396D01*
X023991Y034356D01*
X023959Y034318D01*
X023923Y034283D01*
X023884Y034251D01*
X023843Y034222D01*
X023800Y034196D01*
X023755Y034174D01*
X023709Y034156D01*
X023661Y034141D01*
X023612Y034130D01*
X023563Y034123D01*
X023513Y034120D01*
X023462Y034121D01*
X023413Y034126D01*
X023363Y034135D01*
X023315Y034148D01*
X023268Y034164D01*
X023222Y034185D01*
X023178Y034209D01*
X023136Y034236D01*
X023096Y034266D01*
X023059Y034300D01*
X023025Y034337D01*
X022993Y034376D01*
X022965Y034417D01*
X022940Y034461D01*
X022919Y034506D01*
X022902Y034553D01*
X022888Y034601D01*
X022878Y034650D01*
X022872Y034700D01*
X022870Y034750D01*
D11*
X024250Y033300D03*
X024250Y033000D03*
X026700Y033000D03*
X027000Y033000D03*
X027500Y033000D03*
X027800Y033000D03*
D12*
X027361Y034550D02*
X027363Y034569D01*
X027369Y034586D01*
X027378Y034602D01*
X027390Y034616D01*
X027405Y034627D01*
X027422Y034635D01*
X027441Y034639D01*
X027459Y034639D01*
X027478Y034635D01*
X027494Y034627D01*
X027510Y034616D01*
X027522Y034602D01*
X027531Y034586D01*
X027537Y034569D01*
X027539Y034550D01*
X027537Y034531D01*
X027531Y034514D01*
X027522Y034498D01*
X027510Y034484D01*
X027495Y034473D01*
X027478Y034465D01*
X027459Y034461D01*
X027441Y034461D01*
X027422Y034465D01*
X027406Y034473D01*
X027390Y034484D01*
X027378Y034498D01*
X027369Y034514D01*
X027363Y034531D01*
X027361Y034550D01*
X028361Y034550D02*
X028363Y034569D01*
X028369Y034586D01*
X028378Y034602D01*
X028390Y034616D01*
X028405Y034627D01*
X028422Y034635D01*
X028441Y034639D01*
X028459Y034639D01*
X028478Y034635D01*
X028494Y034627D01*
X028510Y034616D01*
X028522Y034602D01*
X028531Y034586D01*
X028537Y034569D01*
X028539Y034550D01*
X028537Y034531D01*
X028531Y034514D01*
X028522Y034498D01*
X028510Y034484D01*
X028495Y034473D01*
X028478Y034465D01*
X028459Y034461D01*
X028441Y034461D01*
X028422Y034465D01*
X028406Y034473D01*
X028390Y034484D01*
X028378Y034498D01*
X028369Y034514D01*
X028363Y034531D01*
X028361Y034550D01*
X028361Y035550D02*
X028363Y035569D01*
X028369Y035586D01*
X028378Y035602D01*
X028390Y035616D01*
X028405Y035627D01*
X028422Y035635D01*
X028441Y035639D01*
X028459Y035639D01*
X028478Y035635D01*
X028494Y035627D01*
X028510Y035616D01*
X028522Y035602D01*
X028531Y035586D01*
X028537Y035569D01*
X028539Y035550D01*
X028537Y035531D01*
X028531Y035514D01*
X028522Y035498D01*
X028510Y035484D01*
X028495Y035473D01*
X028478Y035465D01*
X028459Y035461D01*
X028441Y035461D01*
X028422Y035465D01*
X028406Y035473D01*
X028390Y035484D01*
X028378Y035498D01*
X028369Y035514D01*
X028363Y035531D01*
X028361Y035550D01*
X027361Y035550D02*
X027363Y035569D01*
X027369Y035586D01*
X027378Y035602D01*
X027390Y035616D01*
X027405Y035627D01*
X027422Y035635D01*
X027441Y035639D01*
X027459Y035639D01*
X027478Y035635D01*
X027494Y035627D01*
X027510Y035616D01*
X027522Y035602D01*
X027531Y035586D01*
X027537Y035569D01*
X027539Y035550D01*
X027537Y035531D01*
X027531Y035514D01*
X027522Y035498D01*
X027510Y035484D01*
X027495Y035473D01*
X027478Y035465D01*
X027459Y035461D01*
X027441Y035461D01*
X027422Y035465D01*
X027406Y035473D01*
X027390Y035484D01*
X027378Y035498D01*
X027369Y035514D01*
X027363Y035531D01*
X027361Y035550D01*
X026361Y035550D02*
X026363Y035569D01*
X026369Y035586D01*
X026378Y035602D01*
X026390Y035616D01*
X026405Y035627D01*
X026422Y035635D01*
X026441Y035639D01*
X026459Y035639D01*
X026478Y035635D01*
X026494Y035627D01*
X026510Y035616D01*
X026522Y035602D01*
X026531Y035586D01*
X026537Y035569D01*
X026539Y035550D01*
X026537Y035531D01*
X026531Y035514D01*
X026522Y035498D01*
X026510Y035484D01*
X026495Y035473D01*
X026478Y035465D01*
X026459Y035461D01*
X026441Y035461D01*
X026422Y035465D01*
X026406Y035473D01*
X026390Y035484D01*
X026378Y035498D01*
X026369Y035514D01*
X026363Y035531D01*
X026361Y035550D01*
X029361Y035550D02*
X029363Y035569D01*
X029369Y035586D01*
X029378Y035602D01*
X029390Y035616D01*
X029405Y035627D01*
X029422Y035635D01*
X029441Y035639D01*
X029459Y035639D01*
X029478Y035635D01*
X029494Y035627D01*
X029510Y035616D01*
X029522Y035602D01*
X029531Y035586D01*
X029537Y035569D01*
X029539Y035550D01*
X029537Y035531D01*
X029531Y035514D01*
X029522Y035498D01*
X029510Y035484D01*
X029495Y035473D01*
X029478Y035465D01*
X029459Y035461D01*
X029441Y035461D01*
X029422Y035465D01*
X029406Y035473D01*
X029390Y035484D01*
X029378Y035498D01*
X029369Y035514D01*
X029363Y035531D01*
X029361Y035550D01*
X029361Y034550D02*
X029363Y034569D01*
X029369Y034586D01*
X029378Y034602D01*
X029390Y034616D01*
X029405Y034627D01*
X029422Y034635D01*
X029441Y034639D01*
X029459Y034639D01*
X029478Y034635D01*
X029494Y034627D01*
X029510Y034616D01*
X029522Y034602D01*
X029531Y034586D01*
X029537Y034569D01*
X029539Y034550D01*
X029537Y034531D01*
X029531Y034514D01*
X029522Y034498D01*
X029510Y034484D01*
X029495Y034473D01*
X029478Y034465D01*
X029459Y034461D01*
X029441Y034461D01*
X029422Y034465D01*
X029406Y034473D01*
X029390Y034484D01*
X029378Y034498D01*
X029369Y034514D01*
X029363Y034531D01*
X029361Y034550D01*
D13*
X026450Y034550D03*
M02*
