%
M48
M72
T01C0.0118
T02C0.0350
T03C0.0400
T04C0.0642
T05C0.1260
T06C0.1280
%
T01
X31500Y26000
X31500Y27000
X30800Y27050
X30500Y26600
X30500Y27500
X30500Y28000
X30500Y29000
X30550Y30250
X30550Y30550
X30500Y31000
X31500Y31000
X31500Y30000
X32500Y30000
X32500Y29000
X33500Y29000
X33500Y28000
X33500Y27000
X33500Y26000
X35500Y26000
X36500Y26000
X36500Y27000
X35500Y27000
X35500Y28000
X36500Y28000
X36500Y29000
X36500Y30000
X35500Y30000
X35500Y31000
X34500Y31000
X34500Y32000
X35500Y32000
X36500Y32000
X36500Y31000
X37500Y31000
X38500Y31000
X39500Y31000
X39500Y30000
X38500Y30000
X37500Y30000
X37500Y29000
X38500Y29000
X39500Y29000
X39500Y28000
X38500Y28000
X37500Y28000
X37500Y27000
X38500Y27000
X39500Y27000
X39500Y26000
X38500Y26000
X37500Y26000
X31500Y28000
X30550Y32300
X30550Y32600
X30500Y33000
X31500Y34000
X32500Y34000
X32500Y33000
X33500Y33000
X33500Y34000
X33500Y35000
X32500Y35000
X31500Y35000
X30500Y35000
X30500Y35600
X30800Y35950
X30500Y36350
X34500Y35000
X35500Y35000
X36500Y35000
X36500Y34000
X36500Y33000
X35500Y33000
X35500Y34000
X34500Y34000
X34500Y33000
X33500Y32000
X37500Y32000
X38500Y32000
X39500Y32000
X39500Y33000
X39500Y34000
X38500Y34000
X38500Y33000
X37500Y33000
X37500Y34000
X37500Y35000
X38500Y35000
X39500Y35000
X39500Y36000
T02
X29000Y32750
X28000Y32250
X29000Y31750
X28000Y31250
X29000Y30750
X28000Y30250
X29000Y29750
X28000Y33250
T03
X23000Y25500
X24000Y25500
X25000Y25500
X26000Y25500
X27000Y25500
X28000Y25500
X29000Y25500
X30000Y25500
X31000Y25500
X32000Y25500
X33000Y25500
X34000Y25500
X35000Y25500
X36000Y25500
X37000Y25500
X38000Y25500
X39000Y25500
X40000Y25500
X40000Y37500
X39000Y37500
X38000Y37500
X37000Y37500
X36000Y37500
X35000Y37500
X34000Y37500
X33000Y37500
X32000Y37500
X31000Y37500
X30000Y37500
X29000Y37500
X28000Y37500
X27000Y37500
X26000Y37500
X25000Y37500
X24000Y37500
X23000Y37500
T04
X26700Y34600
X26700Y28400
T05
X25000Y36200
T06
X25500Y33750
X25500Y29250
M30
