%
M48
M72
T01C0.0118
T02C0.0354
T03C0.0394
T04C0.0400
T05C0.0402
T06C0.0591
T07C0.1260
T08C0.1280
%
T01
X23000Y31500
X23000Y32500
X23500Y33000
X23000Y33500
X25000Y33500
X25000Y33000
X25000Y32500
X26000Y33500
X26500Y33000
X28000Y33000
X27500Y35000
X28000Y35500
X28500Y35000
X29000Y35500
X29500Y35000
X25500Y36000
X25000Y35500
X24000Y35500
X23500Y36000
X23000Y35500
T02
X24000Y31500
X25000Y31500
X26000Y31500
X27000Y31500
X28000Y31500
X27500Y30500
X26500Y30500
X25500Y30500
X24500Y30500
X28500Y30500
T03
X28450Y34550
X27450Y34550
X26450Y34550
X26450Y35550
X27450Y35550
X28450Y35550
X29450Y35550
X29450Y34550
T04
X28000Y36500
X27000Y36500
X26000Y36500
X25000Y36500
X24000Y36500
X23000Y36500
T05
X23636Y26071
X24636Y26669
X27864Y26071
X28864Y26669
T06
X29301Y29201
X23199Y29201
T07
X23500Y34750
T08
X24000Y28000
X28500Y28000
M30
