G75*
%MOIN*%
%OFA0B0*%
%FSLAX24Y24*%
%IPPOS*%
%LPD*%
%AMOC8*
5,1,8,0,0,1.08239X$1,22.5*
%
%ADD10C,0.0000*%
%ADD11R,0.0740X0.0740*%
%ADD12C,0.0740*%
%ADD13C,0.0420*%
%ADD14C,0.0770*%
%ADD15C,0.0050*%
%ADD16C,0.0197*%
%ADD17C,0.0100*%
D10*
X022500Y025000D02*
X022500Y038000D01*
X040500Y038000D01*
X040500Y025000D01*
X022500Y025000D01*
X024860Y029250D02*
X024862Y029300D01*
X024868Y029350D01*
X024878Y029399D01*
X024891Y029448D01*
X024909Y029495D01*
X024930Y029541D01*
X024954Y029584D01*
X024982Y029626D01*
X025013Y029666D01*
X025047Y029703D01*
X025084Y029737D01*
X025124Y029768D01*
X025166Y029796D01*
X025209Y029820D01*
X025255Y029841D01*
X025302Y029859D01*
X025351Y029872D01*
X025400Y029882D01*
X025450Y029888D01*
X025500Y029890D01*
X025550Y029888D01*
X025600Y029882D01*
X025649Y029872D01*
X025698Y029859D01*
X025745Y029841D01*
X025791Y029820D01*
X025834Y029796D01*
X025876Y029768D01*
X025916Y029737D01*
X025953Y029703D01*
X025987Y029666D01*
X026018Y029626D01*
X026046Y029584D01*
X026070Y029541D01*
X026091Y029495D01*
X026109Y029448D01*
X026122Y029399D01*
X026132Y029350D01*
X026138Y029300D01*
X026140Y029250D01*
X026138Y029200D01*
X026132Y029150D01*
X026122Y029101D01*
X026109Y029052D01*
X026091Y029005D01*
X026070Y028959D01*
X026046Y028916D01*
X026018Y028874D01*
X025987Y028834D01*
X025953Y028797D01*
X025916Y028763D01*
X025876Y028732D01*
X025834Y028704D01*
X025791Y028680D01*
X025745Y028659D01*
X025698Y028641D01*
X025649Y028628D01*
X025600Y028618D01*
X025550Y028612D01*
X025500Y028610D01*
X025450Y028612D01*
X025400Y028618D01*
X025351Y028628D01*
X025302Y028641D01*
X025255Y028659D01*
X025209Y028680D01*
X025166Y028704D01*
X025124Y028732D01*
X025084Y028763D01*
X025047Y028797D01*
X025013Y028834D01*
X024982Y028874D01*
X024954Y028916D01*
X024930Y028959D01*
X024909Y029005D01*
X024891Y029052D01*
X024878Y029101D01*
X024868Y029150D01*
X024862Y029200D01*
X024860Y029250D01*
X024860Y033750D02*
X024862Y033800D01*
X024868Y033850D01*
X024878Y033899D01*
X024891Y033948D01*
X024909Y033995D01*
X024930Y034041D01*
X024954Y034084D01*
X024982Y034126D01*
X025013Y034166D01*
X025047Y034203D01*
X025084Y034237D01*
X025124Y034268D01*
X025166Y034296D01*
X025209Y034320D01*
X025255Y034341D01*
X025302Y034359D01*
X025351Y034372D01*
X025400Y034382D01*
X025450Y034388D01*
X025500Y034390D01*
X025550Y034388D01*
X025600Y034382D01*
X025649Y034372D01*
X025698Y034359D01*
X025745Y034341D01*
X025791Y034320D01*
X025834Y034296D01*
X025876Y034268D01*
X025916Y034237D01*
X025953Y034203D01*
X025987Y034166D01*
X026018Y034126D01*
X026046Y034084D01*
X026070Y034041D01*
X026091Y033995D01*
X026109Y033948D01*
X026122Y033899D01*
X026132Y033850D01*
X026138Y033800D01*
X026140Y033750D01*
X026138Y033700D01*
X026132Y033650D01*
X026122Y033601D01*
X026109Y033552D01*
X026091Y033505D01*
X026070Y033459D01*
X026046Y033416D01*
X026018Y033374D01*
X025987Y033334D01*
X025953Y033297D01*
X025916Y033263D01*
X025876Y033232D01*
X025834Y033204D01*
X025791Y033180D01*
X025745Y033159D01*
X025698Y033141D01*
X025649Y033128D01*
X025600Y033118D01*
X025550Y033112D01*
X025500Y033110D01*
X025450Y033112D01*
X025400Y033118D01*
X025351Y033128D01*
X025302Y033141D01*
X025255Y033159D01*
X025209Y033180D01*
X025166Y033204D01*
X025124Y033232D01*
X025084Y033263D01*
X025047Y033297D01*
X025013Y033334D01*
X024982Y033374D01*
X024954Y033416D01*
X024930Y033459D01*
X024909Y033505D01*
X024891Y033552D01*
X024878Y033601D01*
X024868Y033650D01*
X024862Y033700D01*
X024860Y033750D01*
X024370Y036200D02*
X024372Y036250D01*
X024378Y036300D01*
X024388Y036349D01*
X024402Y036397D01*
X024419Y036444D01*
X024440Y036489D01*
X024465Y036533D01*
X024493Y036574D01*
X024525Y036613D01*
X024559Y036650D01*
X024596Y036684D01*
X024636Y036714D01*
X024678Y036741D01*
X024722Y036765D01*
X024768Y036786D01*
X024815Y036802D01*
X024863Y036815D01*
X024913Y036824D01*
X024962Y036829D01*
X025013Y036830D01*
X025063Y036827D01*
X025112Y036820D01*
X025161Y036809D01*
X025209Y036794D01*
X025255Y036776D01*
X025300Y036754D01*
X025343Y036728D01*
X025384Y036699D01*
X025423Y036667D01*
X025459Y036632D01*
X025491Y036594D01*
X025521Y036554D01*
X025548Y036511D01*
X025571Y036467D01*
X025590Y036421D01*
X025606Y036373D01*
X025618Y036324D01*
X025626Y036275D01*
X025630Y036225D01*
X025630Y036175D01*
X025626Y036125D01*
X025618Y036076D01*
X025606Y036027D01*
X025590Y035979D01*
X025571Y035933D01*
X025548Y035889D01*
X025521Y035846D01*
X025491Y035806D01*
X025459Y035768D01*
X025423Y035733D01*
X025384Y035701D01*
X025343Y035672D01*
X025300Y035646D01*
X025255Y035624D01*
X025209Y035606D01*
X025161Y035591D01*
X025112Y035580D01*
X025063Y035573D01*
X025013Y035570D01*
X024962Y035571D01*
X024913Y035576D01*
X024863Y035585D01*
X024815Y035598D01*
X024768Y035614D01*
X024722Y035635D01*
X024678Y035659D01*
X024636Y035686D01*
X024596Y035716D01*
X024559Y035750D01*
X024525Y035787D01*
X024493Y035826D01*
X024465Y035867D01*
X024440Y035911D01*
X024419Y035956D01*
X024402Y036003D01*
X024388Y036051D01*
X024378Y036100D01*
X024372Y036150D01*
X024370Y036200D01*
D11*
X023000Y037500D03*
X023000Y025500D03*
D12*
X024000Y025500D03*
X025000Y025500D03*
X026000Y025500D03*
X027000Y025500D03*
X028000Y025500D03*
X029000Y025500D03*
X030000Y025500D03*
X031000Y025500D03*
X032000Y025500D03*
X033000Y025500D03*
X034000Y025500D03*
X035000Y025500D03*
X036000Y025500D03*
X037000Y025500D03*
X038000Y025500D03*
X039000Y025500D03*
X040000Y025500D03*
X040000Y037500D03*
X039000Y037500D03*
X038000Y037500D03*
X037000Y037500D03*
X036000Y037500D03*
X035000Y037500D03*
X034000Y037500D03*
X033000Y037500D03*
X032000Y037500D03*
X031000Y037500D03*
X030000Y037500D03*
X029000Y037500D03*
X028000Y037500D03*
X027000Y037500D03*
X026000Y037500D03*
X025000Y037500D03*
X024000Y037500D03*
D13*
X028000Y033250D03*
X029000Y032750D03*
X028000Y032250D03*
X029000Y031750D03*
X028000Y031250D03*
X029000Y030750D03*
X028000Y030250D03*
X029000Y029750D03*
D14*
X026700Y028400D03*
X026700Y034600D03*
D15*
X030300Y034603D02*
X040377Y034603D01*
X040377Y034555D02*
X030300Y034555D01*
X030300Y034506D02*
X040377Y034506D01*
X040377Y034458D02*
X030300Y034458D01*
X030300Y034409D02*
X040377Y034409D01*
X040377Y034361D02*
X030300Y034361D01*
X030300Y034312D02*
X040377Y034312D01*
X040377Y034264D02*
X030300Y034264D01*
X030300Y034215D02*
X040377Y034215D01*
X040377Y034167D02*
X030300Y034167D01*
X030300Y034118D02*
X040377Y034118D01*
X040377Y034070D02*
X030300Y034070D01*
X030300Y034021D02*
X040377Y034021D01*
X040377Y033973D02*
X030300Y033973D01*
X030300Y033924D02*
X040377Y033924D01*
X040377Y033876D02*
X030300Y033876D01*
X030300Y033827D02*
X040377Y033827D01*
X040377Y033779D02*
X030300Y033779D01*
X030300Y033730D02*
X040377Y033730D01*
X040377Y033682D02*
X030300Y033682D01*
X030300Y033633D02*
X040377Y033633D01*
X040377Y033585D02*
X030300Y033585D01*
X030300Y033536D02*
X040377Y033536D01*
X040377Y033488D02*
X030300Y033488D01*
X030300Y033439D02*
X040377Y033439D01*
X040377Y033391D02*
X030300Y033391D01*
X030300Y033342D02*
X040377Y033342D01*
X040377Y033294D02*
X030300Y033294D01*
X030300Y033245D02*
X040377Y033245D01*
X040377Y033197D02*
X030300Y033197D01*
X030300Y033148D02*
X040377Y033148D01*
X040377Y033100D02*
X030300Y033100D01*
X030300Y033051D02*
X040377Y033051D01*
X040377Y033003D02*
X030300Y033003D01*
X030300Y032954D02*
X040377Y032954D01*
X040377Y032906D02*
X030300Y032906D01*
X030300Y032857D02*
X040377Y032857D01*
X040377Y032809D02*
X030300Y032809D01*
X030300Y032760D02*
X030451Y032760D01*
X030474Y032783D02*
X030427Y032736D01*
X030339Y032665D01*
X030300Y032665D01*
X030300Y037157D01*
X030386Y037242D01*
X030455Y037409D01*
X030455Y037591D01*
X030386Y037758D01*
X030300Y037843D01*
X030300Y037877D01*
X030733Y037877D01*
X030614Y037758D01*
X030545Y037591D01*
X030545Y037409D01*
X030614Y037242D01*
X030742Y037114D01*
X030909Y037045D01*
X031091Y037045D01*
X031258Y037114D01*
X031386Y037242D01*
X031455Y037409D01*
X031455Y037591D01*
X031386Y037758D01*
X031267Y037877D01*
X031733Y037877D01*
X031614Y037758D01*
X031545Y037591D01*
X031545Y037409D01*
X031614Y037242D01*
X031742Y037114D01*
X031909Y037045D01*
X032091Y037045D01*
X032258Y037114D01*
X032386Y037242D01*
X032455Y037409D01*
X032455Y037591D01*
X032386Y037758D01*
X032267Y037877D01*
X032733Y037877D01*
X032614Y037758D01*
X032545Y037591D01*
X032545Y037409D01*
X032614Y037242D01*
X032742Y037114D01*
X032909Y037045D01*
X033091Y037045D01*
X033258Y037114D01*
X033386Y037242D01*
X033455Y037409D01*
X033455Y037591D01*
X033386Y037758D01*
X033267Y037877D01*
X033733Y037877D01*
X033614Y037758D01*
X033545Y037591D01*
X033545Y037409D01*
X033614Y037242D01*
X033742Y037114D01*
X033909Y037045D01*
X034091Y037045D01*
X034258Y037114D01*
X034386Y037242D01*
X034455Y037409D01*
X034455Y037591D01*
X034386Y037758D01*
X034267Y037877D01*
X034733Y037877D01*
X034614Y037758D01*
X034545Y037591D01*
X034545Y037409D01*
X034614Y037242D01*
X034742Y037114D01*
X034909Y037045D01*
X035091Y037045D01*
X035258Y037114D01*
X035386Y037242D01*
X035455Y037409D01*
X035455Y037591D01*
X035386Y037758D01*
X035267Y037877D01*
X035733Y037877D01*
X035614Y037758D01*
X035545Y037591D01*
X035545Y037409D01*
X035614Y037242D01*
X035742Y037114D01*
X035909Y037045D01*
X036091Y037045D01*
X036258Y037114D01*
X036386Y037242D01*
X036455Y037409D01*
X036455Y037591D01*
X036386Y037758D01*
X036267Y037877D01*
X036733Y037877D01*
X036614Y037758D01*
X036545Y037591D01*
X036545Y037409D01*
X036614Y037242D01*
X036742Y037114D01*
X036909Y037045D01*
X037091Y037045D01*
X037258Y037114D01*
X037386Y037242D01*
X037455Y037409D01*
X037455Y037591D01*
X037386Y037758D01*
X037267Y037877D01*
X037733Y037877D01*
X037614Y037758D01*
X037545Y037591D01*
X037545Y037409D01*
X037614Y037242D01*
X037742Y037114D01*
X037909Y037045D01*
X038091Y037045D01*
X038258Y037114D01*
X038386Y037242D01*
X038455Y037409D01*
X038455Y037591D01*
X038386Y037758D01*
X038267Y037877D01*
X038733Y037877D01*
X038614Y037758D01*
X038545Y037591D01*
X038545Y037409D01*
X038614Y037242D01*
X038742Y037114D01*
X038909Y037045D01*
X039091Y037045D01*
X039258Y037114D01*
X039386Y037242D01*
X039455Y037409D01*
X039455Y037591D01*
X039386Y037758D01*
X039267Y037877D01*
X040377Y037877D01*
X040377Y025767D01*
X040258Y025886D01*
X040091Y025955D01*
X039909Y025955D01*
X039742Y025886D01*
X039614Y025758D01*
X039545Y025591D01*
X039545Y025409D01*
X039614Y025242D01*
X039733Y025123D01*
X039267Y025123D01*
X039386Y025242D01*
X039455Y025409D01*
X039455Y025591D01*
X039386Y025758D01*
X039258Y025886D01*
X039091Y025955D01*
X038909Y025955D01*
X038742Y025886D01*
X038614Y025758D01*
X038545Y025591D01*
X038545Y025409D01*
X038614Y025242D01*
X038733Y025123D01*
X038267Y025123D01*
X038386Y025242D01*
X038455Y025409D01*
X038455Y025591D01*
X038386Y025758D01*
X038258Y025886D01*
X038091Y025955D01*
X037909Y025955D01*
X037742Y025886D01*
X037614Y025758D01*
X037545Y025591D01*
X037545Y025409D01*
X037614Y025242D01*
X037733Y025123D01*
X037267Y025123D01*
X037386Y025242D01*
X037455Y025409D01*
X037455Y025591D01*
X037386Y025758D01*
X037258Y025886D01*
X037091Y025955D01*
X036909Y025955D01*
X036742Y025886D01*
X036614Y025758D01*
X036545Y025591D01*
X036545Y025409D01*
X036614Y025242D01*
X036733Y025123D01*
X036267Y025123D01*
X036386Y025242D01*
X036455Y025409D01*
X036455Y025591D01*
X036386Y025758D01*
X036258Y025886D01*
X036091Y025955D01*
X035909Y025955D01*
X035742Y025886D01*
X035614Y025758D01*
X035545Y025591D01*
X035545Y025409D01*
X035614Y025242D01*
X035733Y025123D01*
X035267Y025123D01*
X035386Y025242D01*
X035455Y025409D01*
X035455Y025591D01*
X035386Y025758D01*
X035258Y025886D01*
X035091Y025955D01*
X034909Y025955D01*
X034787Y025904D01*
X034715Y025976D01*
X034715Y028789D01*
X034636Y028868D01*
X034636Y028868D01*
X030918Y032586D01*
X030839Y032665D01*
X030761Y032665D01*
X030673Y032736D01*
X030626Y032783D01*
X030474Y032783D01*
X030396Y032712D02*
X030300Y032712D01*
X030649Y032760D02*
X040377Y032760D01*
X040377Y032712D02*
X030704Y032712D01*
X030841Y032663D02*
X040377Y032663D01*
X040377Y032615D02*
X030890Y032615D01*
X030918Y032586D02*
X030918Y032586D01*
X030938Y032566D02*
X040377Y032566D01*
X040377Y032518D02*
X030987Y032518D01*
X031035Y032469D02*
X040377Y032469D01*
X040377Y032421D02*
X031084Y032421D01*
X031132Y032372D02*
X040377Y032372D01*
X040377Y032324D02*
X031181Y032324D01*
X031229Y032275D02*
X040377Y032275D01*
X040377Y032227D02*
X031278Y032227D01*
X031326Y032178D02*
X040377Y032178D01*
X040377Y032130D02*
X031375Y032130D01*
X031423Y032081D02*
X040377Y032081D01*
X040377Y032033D02*
X031472Y032033D01*
X031520Y031984D02*
X040377Y031984D01*
X040377Y031936D02*
X031569Y031936D01*
X031617Y031887D02*
X040377Y031887D01*
X040377Y031839D02*
X031666Y031839D01*
X031714Y031790D02*
X040377Y031790D01*
X040377Y031742D02*
X031763Y031742D01*
X031811Y031693D02*
X040377Y031693D01*
X040377Y031645D02*
X031860Y031645D01*
X031908Y031596D02*
X040377Y031596D01*
X040377Y031548D02*
X031957Y031548D01*
X032005Y031499D02*
X040377Y031499D01*
X040377Y031451D02*
X032054Y031451D01*
X032102Y031402D02*
X040377Y031402D01*
X040377Y031354D02*
X032151Y031354D01*
X032199Y031305D02*
X040377Y031305D01*
X040377Y031257D02*
X032248Y031257D01*
X032296Y031208D02*
X040377Y031208D01*
X040377Y031160D02*
X032345Y031160D01*
X032393Y031111D02*
X040377Y031111D01*
X040377Y031063D02*
X032442Y031063D01*
X032490Y031014D02*
X040377Y031014D01*
X040377Y030966D02*
X032539Y030966D01*
X032587Y030917D02*
X040377Y030917D01*
X040377Y030869D02*
X032636Y030869D01*
X032684Y030820D02*
X040377Y030820D01*
X040377Y030772D02*
X032733Y030772D01*
X032781Y030723D02*
X040377Y030723D01*
X040377Y030675D02*
X032830Y030675D01*
X032878Y030626D02*
X040377Y030626D01*
X040377Y030578D02*
X032927Y030578D01*
X032975Y030529D02*
X040377Y030529D01*
X040377Y030481D02*
X033024Y030481D01*
X033072Y030432D02*
X040377Y030432D01*
X040377Y030384D02*
X033121Y030384D01*
X033169Y030335D02*
X040377Y030335D01*
X040377Y030287D02*
X033218Y030287D01*
X033266Y030238D02*
X040377Y030238D01*
X040377Y030190D02*
X033315Y030190D01*
X033363Y030141D02*
X040377Y030141D01*
X040377Y030093D02*
X033412Y030093D01*
X033460Y030044D02*
X040377Y030044D01*
X040377Y029996D02*
X033509Y029996D01*
X033557Y029947D02*
X040377Y029947D01*
X040377Y029899D02*
X033606Y029899D01*
X033654Y029850D02*
X040377Y029850D01*
X040377Y029802D02*
X033703Y029802D01*
X033751Y029753D02*
X040377Y029753D01*
X040377Y029705D02*
X033800Y029705D01*
X033848Y029656D02*
X040377Y029656D01*
X040377Y029608D02*
X033897Y029608D01*
X033945Y029559D02*
X040377Y029559D01*
X040377Y029511D02*
X033994Y029511D01*
X034042Y029462D02*
X040377Y029462D01*
X040377Y029414D02*
X034091Y029414D01*
X034139Y029365D02*
X040377Y029365D01*
X040377Y029317D02*
X034188Y029317D01*
X034236Y029268D02*
X040377Y029268D01*
X040377Y029220D02*
X034285Y029220D01*
X034333Y029171D02*
X040377Y029171D01*
X040377Y029123D02*
X034382Y029123D01*
X034430Y029074D02*
X040377Y029074D01*
X040377Y029026D02*
X034479Y029026D01*
X034527Y028977D02*
X040377Y028977D01*
X040377Y028929D02*
X034576Y028929D01*
X034624Y028880D02*
X040377Y028880D01*
X040377Y028832D02*
X034673Y028832D01*
X034715Y028783D02*
X040377Y028783D01*
X040377Y028735D02*
X034715Y028735D01*
X034715Y028686D02*
X040377Y028686D01*
X040377Y028638D02*
X034715Y028638D01*
X034715Y028589D02*
X040377Y028589D01*
X040377Y028541D02*
X034715Y028541D01*
X034715Y028492D02*
X040377Y028492D01*
X040377Y028444D02*
X034715Y028444D01*
X034715Y028395D02*
X040377Y028395D01*
X040377Y028347D02*
X034715Y028347D01*
X034715Y028298D02*
X040377Y028298D01*
X040377Y028250D02*
X034715Y028250D01*
X034715Y028201D02*
X040377Y028201D01*
X040377Y028153D02*
X034715Y028153D01*
X034715Y028104D02*
X040377Y028104D01*
X040377Y028056D02*
X034715Y028056D01*
X034715Y028007D02*
X040377Y028007D01*
X040377Y027959D02*
X034715Y027959D01*
X034715Y027910D02*
X040377Y027910D01*
X040377Y027862D02*
X034715Y027862D01*
X034715Y027813D02*
X040377Y027813D01*
X040377Y027765D02*
X034715Y027765D01*
X034715Y027716D02*
X040377Y027716D01*
X040377Y027668D02*
X034715Y027668D01*
X034715Y027619D02*
X040377Y027619D01*
X040377Y027571D02*
X034715Y027571D01*
X034715Y027522D02*
X040377Y027522D01*
X040377Y027474D02*
X034715Y027474D01*
X034715Y027425D02*
X040377Y027425D01*
X040377Y027377D02*
X034715Y027377D01*
X034715Y027328D02*
X040377Y027328D01*
X040377Y027280D02*
X034715Y027280D01*
X034715Y027231D02*
X040377Y027231D01*
X040377Y027183D02*
X034715Y027183D01*
X034715Y027134D02*
X040377Y027134D01*
X040377Y027086D02*
X034715Y027086D01*
X034715Y027037D02*
X040377Y027037D01*
X040377Y026989D02*
X034715Y026989D01*
X034715Y026940D02*
X040377Y026940D01*
X040377Y026892D02*
X034715Y026892D01*
X034715Y026843D02*
X040377Y026843D01*
X040377Y026795D02*
X034715Y026795D01*
X034715Y026746D02*
X040377Y026746D01*
X040377Y026698D02*
X034715Y026698D01*
X034715Y026649D02*
X040377Y026649D01*
X040377Y026601D02*
X034715Y026601D01*
X034715Y026552D02*
X040377Y026552D01*
X040377Y026504D02*
X034715Y026504D01*
X034715Y026455D02*
X040377Y026455D01*
X040377Y026407D02*
X034715Y026407D01*
X034715Y026358D02*
X040377Y026358D01*
X040377Y026310D02*
X034715Y026310D01*
X034715Y026261D02*
X040377Y026261D01*
X040377Y026213D02*
X034715Y026213D01*
X034715Y026164D02*
X040377Y026164D01*
X040377Y026116D02*
X034715Y026116D01*
X034715Y026067D02*
X040377Y026067D01*
X040377Y026019D02*
X034715Y026019D01*
X034721Y025970D02*
X040377Y025970D01*
X040377Y025922D02*
X040171Y025922D01*
X040270Y025873D02*
X040377Y025873D01*
X040377Y025825D02*
X040319Y025825D01*
X040367Y025776D02*
X040377Y025776D01*
X039829Y025922D02*
X039171Y025922D01*
X039270Y025873D02*
X039730Y025873D01*
X039681Y025825D02*
X039319Y025825D01*
X039367Y025776D02*
X039633Y025776D01*
X039602Y025728D02*
X039398Y025728D01*
X039418Y025679D02*
X039582Y025679D01*
X039562Y025631D02*
X039438Y025631D01*
X039455Y025582D02*
X039545Y025582D01*
X039545Y025534D02*
X039455Y025534D01*
X039455Y025485D02*
X039545Y025485D01*
X039545Y025437D02*
X039455Y025437D01*
X039446Y025388D02*
X039554Y025388D01*
X039574Y025340D02*
X039426Y025340D01*
X039406Y025291D02*
X039594Y025291D01*
X039614Y025243D02*
X039386Y025243D01*
X039337Y025194D02*
X039663Y025194D01*
X039711Y025146D02*
X039289Y025146D01*
X038711Y025146D02*
X038289Y025146D01*
X038337Y025194D02*
X038663Y025194D01*
X038614Y025243D02*
X038386Y025243D01*
X038406Y025291D02*
X038594Y025291D01*
X038574Y025340D02*
X038426Y025340D01*
X038446Y025388D02*
X038554Y025388D01*
X038545Y025437D02*
X038455Y025437D01*
X038455Y025485D02*
X038545Y025485D01*
X038545Y025534D02*
X038455Y025534D01*
X038455Y025582D02*
X038545Y025582D01*
X038562Y025631D02*
X038438Y025631D01*
X038418Y025679D02*
X038582Y025679D01*
X038602Y025728D02*
X038398Y025728D01*
X038367Y025776D02*
X038633Y025776D01*
X038681Y025825D02*
X038319Y025825D01*
X038270Y025873D02*
X038730Y025873D01*
X038829Y025922D02*
X038171Y025922D01*
X037829Y025922D02*
X037171Y025922D01*
X037270Y025873D02*
X037730Y025873D01*
X037681Y025825D02*
X037319Y025825D01*
X037367Y025776D02*
X037633Y025776D01*
X037602Y025728D02*
X037398Y025728D01*
X037418Y025679D02*
X037582Y025679D01*
X037562Y025631D02*
X037438Y025631D01*
X037455Y025582D02*
X037545Y025582D01*
X037545Y025534D02*
X037455Y025534D01*
X037455Y025485D02*
X037545Y025485D01*
X037545Y025437D02*
X037455Y025437D01*
X037446Y025388D02*
X037554Y025388D01*
X037574Y025340D02*
X037426Y025340D01*
X037406Y025291D02*
X037594Y025291D01*
X037614Y025243D02*
X037386Y025243D01*
X037337Y025194D02*
X037663Y025194D01*
X037711Y025146D02*
X037289Y025146D01*
X036711Y025146D02*
X036289Y025146D01*
X036337Y025194D02*
X036663Y025194D01*
X036614Y025243D02*
X036386Y025243D01*
X036406Y025291D02*
X036594Y025291D01*
X036574Y025340D02*
X036426Y025340D01*
X036446Y025388D02*
X036554Y025388D01*
X036545Y025437D02*
X036455Y025437D01*
X036455Y025485D02*
X036545Y025485D01*
X036545Y025534D02*
X036455Y025534D01*
X036455Y025582D02*
X036545Y025582D01*
X036562Y025631D02*
X036438Y025631D01*
X036418Y025679D02*
X036582Y025679D01*
X036602Y025728D02*
X036398Y025728D01*
X036367Y025776D02*
X036633Y025776D01*
X036681Y025825D02*
X036319Y025825D01*
X036270Y025873D02*
X036730Y025873D01*
X036829Y025922D02*
X036171Y025922D01*
X035829Y025922D02*
X035171Y025922D01*
X035270Y025873D02*
X035730Y025873D01*
X035681Y025825D02*
X035319Y025825D01*
X035367Y025776D02*
X035633Y025776D01*
X035602Y025728D02*
X035398Y025728D01*
X035418Y025679D02*
X035582Y025679D01*
X035562Y025631D02*
X035438Y025631D01*
X035455Y025582D02*
X035545Y025582D01*
X035545Y025534D02*
X035455Y025534D01*
X035455Y025485D02*
X035545Y025485D01*
X035545Y025437D02*
X035455Y025437D01*
X035446Y025388D02*
X035554Y025388D01*
X035574Y025340D02*
X035426Y025340D01*
X035406Y025291D02*
X035594Y025291D01*
X035614Y025243D02*
X035386Y025243D01*
X035337Y025194D02*
X035663Y025194D01*
X035711Y025146D02*
X035289Y025146D01*
X034829Y025922D02*
X034769Y025922D01*
X034285Y025976D02*
X034213Y025904D01*
X034091Y025955D01*
X033909Y025955D01*
X033742Y025886D01*
X033614Y025758D01*
X033545Y025591D01*
X033545Y025409D01*
X033614Y025242D01*
X033733Y025123D01*
X033267Y025123D01*
X033386Y025242D01*
X033455Y025409D01*
X033455Y025591D01*
X033386Y025758D01*
X033258Y025886D01*
X033091Y025955D01*
X032909Y025955D01*
X032787Y025904D01*
X032715Y025976D01*
X032715Y028389D01*
X030895Y030209D01*
X030895Y030396D01*
X030810Y030481D01*
X030796Y030495D01*
X030790Y030515D01*
X030775Y030524D01*
X030733Y030598D01*
X030733Y030626D01*
X032270Y030626D01*
X032318Y030578D02*
X030745Y030578D01*
X030733Y030626D02*
X030698Y030662D01*
X030683Y030688D01*
X030683Y030688D01*
X030683Y030688D01*
X030667Y030693D01*
X030626Y030733D01*
X030474Y030733D01*
X030427Y030686D01*
X030339Y030615D01*
X030300Y030615D01*
X030300Y032235D01*
X030339Y032235D01*
X030427Y032164D01*
X030474Y032117D01*
X030626Y032117D01*
X030673Y032164D01*
X030706Y032190D01*
X034285Y028611D01*
X034285Y025976D01*
X034279Y025970D02*
X032721Y025970D01*
X032715Y026019D02*
X034285Y026019D01*
X034285Y026067D02*
X032715Y026067D01*
X032715Y026116D02*
X034285Y026116D01*
X034285Y026164D02*
X032715Y026164D01*
X032715Y026213D02*
X034285Y026213D01*
X034285Y026261D02*
X032715Y026261D01*
X032715Y026310D02*
X034285Y026310D01*
X034285Y026358D02*
X032715Y026358D01*
X032715Y026407D02*
X034285Y026407D01*
X034285Y026455D02*
X032715Y026455D01*
X032715Y026504D02*
X034285Y026504D01*
X034285Y026552D02*
X032715Y026552D01*
X032715Y026601D02*
X034285Y026601D01*
X034285Y026649D02*
X032715Y026649D01*
X032715Y026698D02*
X034285Y026698D01*
X034285Y026746D02*
X032715Y026746D01*
X032715Y026795D02*
X034285Y026795D01*
X034285Y026843D02*
X032715Y026843D01*
X032715Y026892D02*
X034285Y026892D01*
X034285Y026940D02*
X032715Y026940D01*
X032715Y026989D02*
X034285Y026989D01*
X034285Y027037D02*
X032715Y027037D01*
X032715Y027086D02*
X034285Y027086D01*
X034285Y027134D02*
X032715Y027134D01*
X032715Y027183D02*
X034285Y027183D01*
X034285Y027231D02*
X032715Y027231D01*
X032715Y027280D02*
X034285Y027280D01*
X034285Y027328D02*
X032715Y027328D01*
X032715Y027377D02*
X034285Y027377D01*
X034285Y027425D02*
X032715Y027425D01*
X032715Y027474D02*
X034285Y027474D01*
X034285Y027522D02*
X032715Y027522D01*
X032715Y027571D02*
X034285Y027571D01*
X034285Y027619D02*
X032715Y027619D01*
X032715Y027668D02*
X034285Y027668D01*
X034285Y027716D02*
X032715Y027716D01*
X032715Y027765D02*
X034285Y027765D01*
X034285Y027813D02*
X032715Y027813D01*
X032715Y027862D02*
X034285Y027862D01*
X034285Y027910D02*
X032715Y027910D01*
X032715Y027959D02*
X034285Y027959D01*
X034285Y028007D02*
X032715Y028007D01*
X032715Y028056D02*
X034285Y028056D01*
X034285Y028104D02*
X032715Y028104D01*
X032715Y028153D02*
X034285Y028153D01*
X034285Y028201D02*
X032715Y028201D01*
X032715Y028250D02*
X034285Y028250D01*
X034285Y028298D02*
X032715Y028298D01*
X032715Y028347D02*
X034285Y028347D01*
X034285Y028395D02*
X032709Y028395D01*
X032661Y028444D02*
X034285Y028444D01*
X034285Y028492D02*
X032612Y028492D01*
X032564Y028541D02*
X034285Y028541D01*
X034285Y028589D02*
X032515Y028589D01*
X032467Y028638D02*
X034258Y028638D01*
X034210Y028686D02*
X032418Y028686D01*
X032370Y028735D02*
X034161Y028735D01*
X034113Y028783D02*
X032321Y028783D01*
X032273Y028832D02*
X034064Y028832D01*
X034016Y028880D02*
X032224Y028880D01*
X032176Y028929D02*
X033967Y028929D01*
X033919Y028977D02*
X032127Y028977D01*
X032079Y029026D02*
X033870Y029026D01*
X033822Y029074D02*
X032030Y029074D01*
X031982Y029123D02*
X033773Y029123D01*
X033725Y029171D02*
X031933Y029171D01*
X031885Y029220D02*
X033676Y029220D01*
X033628Y029268D02*
X031836Y029268D01*
X031788Y029317D02*
X033579Y029317D01*
X033531Y029365D02*
X031739Y029365D01*
X031691Y029414D02*
X033482Y029414D01*
X033434Y029462D02*
X031642Y029462D01*
X031594Y029511D02*
X033385Y029511D01*
X033337Y029559D02*
X031545Y029559D01*
X031497Y029608D02*
X033288Y029608D01*
X033240Y029656D02*
X031448Y029656D01*
X031400Y029705D02*
X033191Y029705D01*
X033143Y029753D02*
X031351Y029753D01*
X031303Y029802D02*
X033094Y029802D01*
X033046Y029850D02*
X031254Y029850D01*
X031206Y029899D02*
X032997Y029899D01*
X032949Y029947D02*
X031157Y029947D01*
X031109Y029996D02*
X032900Y029996D01*
X032852Y030044D02*
X031060Y030044D01*
X031012Y030093D02*
X032803Y030093D01*
X032755Y030141D02*
X030963Y030141D01*
X030915Y030190D02*
X032706Y030190D01*
X032658Y030238D02*
X030895Y030238D01*
X030895Y030287D02*
X032609Y030287D01*
X032561Y030335D02*
X030895Y030335D01*
X030895Y030384D02*
X032512Y030384D01*
X032464Y030432D02*
X030859Y030432D01*
X030810Y030481D02*
X032415Y030481D01*
X032367Y030529D02*
X030772Y030529D01*
X030691Y030675D02*
X032221Y030675D01*
X032173Y030723D02*
X030636Y030723D01*
X030464Y030723D02*
X030300Y030723D01*
X030300Y030675D02*
X030412Y030675D01*
X030353Y030626D02*
X030300Y030626D01*
X030300Y030772D02*
X032124Y030772D01*
X032076Y030820D02*
X030300Y030820D01*
X030300Y030869D02*
X032027Y030869D01*
X031979Y030917D02*
X030300Y030917D01*
X030300Y030966D02*
X031930Y030966D01*
X031882Y031014D02*
X030300Y031014D01*
X030300Y031063D02*
X031833Y031063D01*
X031785Y031111D02*
X030300Y031111D01*
X030300Y031160D02*
X031736Y031160D01*
X031688Y031208D02*
X030300Y031208D01*
X030300Y031257D02*
X031639Y031257D01*
X031591Y031305D02*
X030300Y031305D01*
X030300Y031354D02*
X031542Y031354D01*
X031494Y031402D02*
X030300Y031402D01*
X030300Y031451D02*
X031445Y031451D01*
X031397Y031499D02*
X030300Y031499D01*
X030300Y031548D02*
X031348Y031548D01*
X031300Y031596D02*
X030300Y031596D01*
X030300Y031645D02*
X031251Y031645D01*
X031203Y031693D02*
X030300Y031693D01*
X030300Y031742D02*
X031154Y031742D01*
X031106Y031790D02*
X030300Y031790D01*
X030300Y031839D02*
X031057Y031839D01*
X031009Y031887D02*
X030300Y031887D01*
X030300Y031936D02*
X030960Y031936D01*
X030912Y031984D02*
X030300Y031984D01*
X030300Y032033D02*
X030863Y032033D01*
X030815Y032081D02*
X030300Y032081D01*
X030300Y032130D02*
X030461Y032130D01*
X030409Y032178D02*
X030300Y032178D01*
X030300Y032227D02*
X030350Y032227D01*
X030639Y032130D02*
X030766Y032130D01*
X030718Y032178D02*
X030691Y032178D01*
X030339Y030182D02*
X030414Y030123D01*
X030420Y030115D01*
X030458Y030058D01*
X030458Y030038D01*
X030472Y030024D01*
X030473Y030020D01*
X030502Y029993D01*
X030525Y029960D01*
X030539Y029957D01*
X030549Y029947D01*
X030300Y029947D01*
X030300Y029899D02*
X030597Y029899D01*
X030549Y029947D02*
X032285Y028211D01*
X032285Y025976D01*
X032213Y025904D01*
X032091Y025955D01*
X031909Y025955D01*
X031742Y025886D01*
X031614Y025758D01*
X031545Y025591D01*
X031545Y025409D01*
X031614Y025242D01*
X031733Y025123D01*
X030300Y025123D01*
X030300Y025157D01*
X030386Y025242D01*
X030455Y025409D01*
X030455Y025591D01*
X030386Y025758D01*
X030300Y025843D01*
X030300Y030182D01*
X030339Y030182D01*
X030300Y030141D02*
X030392Y030141D01*
X030435Y030093D02*
X030300Y030093D01*
X030300Y030044D02*
X030458Y030044D01*
X030499Y029996D02*
X030300Y029996D01*
X030300Y029850D02*
X030646Y029850D01*
X030694Y029802D02*
X030300Y029802D01*
X030300Y029753D02*
X030743Y029753D01*
X030791Y029705D02*
X030300Y029705D01*
X030300Y029656D02*
X030840Y029656D01*
X030888Y029608D02*
X030300Y029608D01*
X030300Y029559D02*
X030937Y029559D01*
X030985Y029511D02*
X030300Y029511D01*
X030300Y029462D02*
X031034Y029462D01*
X031082Y029414D02*
X030300Y029414D01*
X030300Y029365D02*
X031131Y029365D01*
X031179Y029317D02*
X030300Y029317D01*
X030300Y029268D02*
X031228Y029268D01*
X031276Y029220D02*
X030300Y029220D01*
X030300Y029171D02*
X031325Y029171D01*
X031373Y029123D02*
X030300Y029123D01*
X030300Y029074D02*
X031422Y029074D01*
X031470Y029026D02*
X030300Y029026D01*
X030300Y028977D02*
X031519Y028977D01*
X031567Y028929D02*
X030300Y028929D01*
X030300Y028880D02*
X031616Y028880D01*
X031664Y028832D02*
X030300Y028832D01*
X030300Y028783D02*
X031713Y028783D01*
X031761Y028735D02*
X030300Y028735D01*
X030300Y028686D02*
X031810Y028686D01*
X031858Y028638D02*
X030300Y028638D01*
X030300Y028589D02*
X031907Y028589D01*
X031955Y028541D02*
X030300Y028541D01*
X030300Y028492D02*
X032004Y028492D01*
X032052Y028444D02*
X030300Y028444D01*
X030300Y028395D02*
X032101Y028395D01*
X032149Y028347D02*
X030300Y028347D01*
X030300Y028298D02*
X032198Y028298D01*
X032246Y028250D02*
X030300Y028250D01*
X030300Y028201D02*
X032285Y028201D01*
X032285Y028153D02*
X030300Y028153D01*
X030300Y028104D02*
X032285Y028104D01*
X032285Y028056D02*
X030300Y028056D01*
X030300Y028007D02*
X032285Y028007D01*
X032285Y027959D02*
X030300Y027959D01*
X030300Y027910D02*
X032285Y027910D01*
X032285Y027862D02*
X030300Y027862D01*
X030300Y027813D02*
X032285Y027813D01*
X032285Y027765D02*
X030300Y027765D01*
X030300Y027716D02*
X032285Y027716D01*
X032285Y027668D02*
X030300Y027668D01*
X030300Y027619D02*
X032285Y027619D01*
X032285Y027571D02*
X030300Y027571D01*
X030300Y027522D02*
X032285Y027522D01*
X032285Y027474D02*
X030300Y027474D01*
X030300Y027425D02*
X032285Y027425D01*
X032285Y027377D02*
X030300Y027377D01*
X030300Y027328D02*
X032285Y027328D01*
X032285Y027280D02*
X030300Y027280D01*
X030300Y027231D02*
X032285Y027231D01*
X032285Y027183D02*
X030300Y027183D01*
X030300Y027134D02*
X032285Y027134D01*
X032285Y027086D02*
X030300Y027086D01*
X030300Y027037D02*
X032285Y027037D01*
X032285Y026989D02*
X030300Y026989D01*
X030300Y026940D02*
X032285Y026940D01*
X032285Y026892D02*
X030300Y026892D01*
X030300Y026843D02*
X032285Y026843D01*
X032285Y026795D02*
X030300Y026795D01*
X030300Y026746D02*
X032285Y026746D01*
X032285Y026698D02*
X030300Y026698D01*
X030300Y026649D02*
X032285Y026649D01*
X032285Y026601D02*
X030300Y026601D01*
X030300Y026552D02*
X032285Y026552D01*
X032285Y026504D02*
X030300Y026504D01*
X030300Y026455D02*
X032285Y026455D01*
X032285Y026407D02*
X030300Y026407D01*
X030300Y026358D02*
X032285Y026358D01*
X032285Y026310D02*
X030300Y026310D01*
X030300Y026261D02*
X032285Y026261D01*
X032285Y026213D02*
X030300Y026213D01*
X030300Y026164D02*
X032285Y026164D01*
X032285Y026116D02*
X030300Y026116D01*
X030300Y026067D02*
X032285Y026067D01*
X032285Y026019D02*
X030300Y026019D01*
X030300Y025970D02*
X032279Y025970D01*
X032231Y025922D02*
X032171Y025922D01*
X031829Y025922D02*
X030300Y025922D01*
X030300Y025873D02*
X031730Y025873D01*
X031681Y025825D02*
X030319Y025825D01*
X030367Y025776D02*
X031633Y025776D01*
X031602Y025728D02*
X030398Y025728D01*
X030418Y025679D02*
X031582Y025679D01*
X031562Y025631D02*
X030438Y025631D01*
X030455Y025582D02*
X031545Y025582D01*
X031545Y025534D02*
X030455Y025534D01*
X030455Y025485D02*
X031545Y025485D01*
X031545Y025437D02*
X030455Y025437D01*
X030446Y025388D02*
X031554Y025388D01*
X031574Y025340D02*
X030426Y025340D01*
X030406Y025291D02*
X031594Y025291D01*
X031614Y025243D02*
X030386Y025243D01*
X030337Y025194D02*
X031663Y025194D01*
X031711Y025146D02*
X030300Y025146D01*
X032769Y025922D02*
X032829Y025922D01*
X033171Y025922D02*
X033829Y025922D01*
X033730Y025873D02*
X033270Y025873D01*
X033319Y025825D02*
X033681Y025825D01*
X033633Y025776D02*
X033367Y025776D01*
X033398Y025728D02*
X033602Y025728D01*
X033582Y025679D02*
X033418Y025679D01*
X033438Y025631D02*
X033562Y025631D01*
X033545Y025582D02*
X033455Y025582D01*
X033455Y025534D02*
X033545Y025534D01*
X033545Y025485D02*
X033455Y025485D01*
X033455Y025437D02*
X033545Y025437D01*
X033554Y025388D02*
X033446Y025388D01*
X033426Y025340D02*
X033574Y025340D01*
X033594Y025291D02*
X033406Y025291D01*
X033386Y025243D02*
X033614Y025243D01*
X033663Y025194D02*
X033337Y025194D01*
X033289Y025146D02*
X033711Y025146D01*
X034171Y025922D02*
X034231Y025922D01*
X030300Y034652D02*
X040377Y034652D01*
X040377Y034700D02*
X030300Y034700D01*
X030300Y034749D02*
X040377Y034749D01*
X040377Y034797D02*
X030300Y034797D01*
X030300Y034846D02*
X040377Y034846D01*
X040377Y034894D02*
X030300Y034894D01*
X030300Y034943D02*
X040377Y034943D01*
X040377Y034991D02*
X030300Y034991D01*
X030300Y035040D02*
X040377Y035040D01*
X040377Y035088D02*
X030300Y035088D01*
X030300Y035137D02*
X040377Y035137D01*
X040377Y035185D02*
X030300Y035185D01*
X030300Y035234D02*
X040377Y035234D01*
X040377Y035282D02*
X030300Y035282D01*
X030300Y035331D02*
X040377Y035331D01*
X040377Y035379D02*
X030300Y035379D01*
X030300Y035428D02*
X040377Y035428D01*
X040377Y035476D02*
X030300Y035476D01*
X030300Y035525D02*
X040377Y035525D01*
X040377Y035573D02*
X030300Y035573D01*
X030300Y035622D02*
X040377Y035622D01*
X040377Y035670D02*
X030300Y035670D01*
X030300Y035719D02*
X040377Y035719D01*
X040377Y035767D02*
X030300Y035767D01*
X030300Y035816D02*
X040377Y035816D01*
X040377Y035864D02*
X030300Y035864D01*
X030300Y035913D02*
X040377Y035913D01*
X040377Y035961D02*
X030300Y035961D01*
X030300Y036010D02*
X040377Y036010D01*
X040377Y036058D02*
X030300Y036058D01*
X030300Y036107D02*
X040377Y036107D01*
X040377Y036155D02*
X030300Y036155D01*
X030300Y036204D02*
X040377Y036204D01*
X040377Y036252D02*
X030300Y036252D01*
X030300Y036301D02*
X040377Y036301D01*
X040377Y036349D02*
X030300Y036349D01*
X030300Y036398D02*
X040377Y036398D01*
X040377Y036446D02*
X030300Y036446D01*
X030300Y036495D02*
X040377Y036495D01*
X040377Y036543D02*
X030300Y036543D01*
X030300Y036592D02*
X040377Y036592D01*
X040377Y036640D02*
X030300Y036640D01*
X030300Y036689D02*
X040377Y036689D01*
X040377Y036737D02*
X030300Y036737D01*
X030300Y036786D02*
X040377Y036786D01*
X040377Y036834D02*
X030300Y036834D01*
X030300Y036883D02*
X040377Y036883D01*
X040377Y036931D02*
X030300Y036931D01*
X030300Y036980D02*
X040377Y036980D01*
X040377Y037028D02*
X030300Y037028D01*
X030300Y037077D02*
X030833Y037077D01*
X030731Y037125D02*
X030300Y037125D01*
X030317Y037174D02*
X030683Y037174D01*
X030634Y037222D02*
X030366Y037222D01*
X030397Y037271D02*
X030603Y037271D01*
X030582Y037319D02*
X030418Y037319D01*
X030438Y037368D02*
X030562Y037368D01*
X030545Y037416D02*
X030455Y037416D01*
X030455Y037465D02*
X030545Y037465D01*
X030545Y037513D02*
X030455Y037513D01*
X030455Y037562D02*
X030545Y037562D01*
X030553Y037610D02*
X030447Y037610D01*
X030427Y037659D02*
X030573Y037659D01*
X030593Y037707D02*
X030407Y037707D01*
X030387Y037756D02*
X030613Y037756D01*
X030661Y037804D02*
X030339Y037804D01*
X030300Y037853D02*
X030709Y037853D01*
X031291Y037853D02*
X031709Y037853D01*
X031661Y037804D02*
X031339Y037804D01*
X031387Y037756D02*
X031613Y037756D01*
X031593Y037707D02*
X031407Y037707D01*
X031427Y037659D02*
X031573Y037659D01*
X031553Y037610D02*
X031447Y037610D01*
X031455Y037562D02*
X031545Y037562D01*
X031545Y037513D02*
X031455Y037513D01*
X031455Y037465D02*
X031545Y037465D01*
X031545Y037416D02*
X031455Y037416D01*
X031438Y037368D02*
X031562Y037368D01*
X031582Y037319D02*
X031418Y037319D01*
X031397Y037271D02*
X031603Y037271D01*
X031634Y037222D02*
X031366Y037222D01*
X031317Y037174D02*
X031683Y037174D01*
X031731Y037125D02*
X031269Y037125D01*
X031167Y037077D02*
X031833Y037077D01*
X032167Y037077D02*
X032833Y037077D01*
X032731Y037125D02*
X032269Y037125D01*
X032317Y037174D02*
X032683Y037174D01*
X032634Y037222D02*
X032366Y037222D01*
X032397Y037271D02*
X032603Y037271D01*
X032582Y037319D02*
X032418Y037319D01*
X032438Y037368D02*
X032562Y037368D01*
X032545Y037416D02*
X032455Y037416D01*
X032455Y037465D02*
X032545Y037465D01*
X032545Y037513D02*
X032455Y037513D01*
X032455Y037562D02*
X032545Y037562D01*
X032553Y037610D02*
X032447Y037610D01*
X032427Y037659D02*
X032573Y037659D01*
X032593Y037707D02*
X032407Y037707D01*
X032387Y037756D02*
X032613Y037756D01*
X032661Y037804D02*
X032339Y037804D01*
X032291Y037853D02*
X032709Y037853D01*
X033291Y037853D02*
X033709Y037853D01*
X033661Y037804D02*
X033339Y037804D01*
X033387Y037756D02*
X033613Y037756D01*
X033593Y037707D02*
X033407Y037707D01*
X033427Y037659D02*
X033573Y037659D01*
X033553Y037610D02*
X033447Y037610D01*
X033455Y037562D02*
X033545Y037562D01*
X033545Y037513D02*
X033455Y037513D01*
X033455Y037465D02*
X033545Y037465D01*
X033545Y037416D02*
X033455Y037416D01*
X033438Y037368D02*
X033562Y037368D01*
X033582Y037319D02*
X033418Y037319D01*
X033397Y037271D02*
X033603Y037271D01*
X033634Y037222D02*
X033366Y037222D01*
X033317Y037174D02*
X033683Y037174D01*
X033731Y037125D02*
X033269Y037125D01*
X033167Y037077D02*
X033833Y037077D01*
X034167Y037077D02*
X034833Y037077D01*
X034731Y037125D02*
X034269Y037125D01*
X034317Y037174D02*
X034683Y037174D01*
X034634Y037222D02*
X034366Y037222D01*
X034397Y037271D02*
X034603Y037271D01*
X034582Y037319D02*
X034418Y037319D01*
X034438Y037368D02*
X034562Y037368D01*
X034545Y037416D02*
X034455Y037416D01*
X034455Y037465D02*
X034545Y037465D01*
X034545Y037513D02*
X034455Y037513D01*
X034455Y037562D02*
X034545Y037562D01*
X034553Y037610D02*
X034447Y037610D01*
X034427Y037659D02*
X034573Y037659D01*
X034593Y037707D02*
X034407Y037707D01*
X034387Y037756D02*
X034613Y037756D01*
X034661Y037804D02*
X034339Y037804D01*
X034291Y037853D02*
X034709Y037853D01*
X035291Y037853D02*
X035709Y037853D01*
X035661Y037804D02*
X035339Y037804D01*
X035387Y037756D02*
X035613Y037756D01*
X035593Y037707D02*
X035407Y037707D01*
X035427Y037659D02*
X035573Y037659D01*
X035553Y037610D02*
X035447Y037610D01*
X035455Y037562D02*
X035545Y037562D01*
X035545Y037513D02*
X035455Y037513D01*
X035455Y037465D02*
X035545Y037465D01*
X035545Y037416D02*
X035455Y037416D01*
X035438Y037368D02*
X035562Y037368D01*
X035582Y037319D02*
X035418Y037319D01*
X035397Y037271D02*
X035603Y037271D01*
X035634Y037222D02*
X035366Y037222D01*
X035317Y037174D02*
X035683Y037174D01*
X035731Y037125D02*
X035269Y037125D01*
X035167Y037077D02*
X035833Y037077D01*
X036167Y037077D02*
X036833Y037077D01*
X036731Y037125D02*
X036269Y037125D01*
X036317Y037174D02*
X036683Y037174D01*
X036634Y037222D02*
X036366Y037222D01*
X036397Y037271D02*
X036603Y037271D01*
X036582Y037319D02*
X036418Y037319D01*
X036438Y037368D02*
X036562Y037368D01*
X036545Y037416D02*
X036455Y037416D01*
X036455Y037465D02*
X036545Y037465D01*
X036545Y037513D02*
X036455Y037513D01*
X036455Y037562D02*
X036545Y037562D01*
X036553Y037610D02*
X036447Y037610D01*
X036427Y037659D02*
X036573Y037659D01*
X036593Y037707D02*
X036407Y037707D01*
X036387Y037756D02*
X036613Y037756D01*
X036661Y037804D02*
X036339Y037804D01*
X036291Y037853D02*
X036709Y037853D01*
X037291Y037853D02*
X037709Y037853D01*
X037661Y037804D02*
X037339Y037804D01*
X037387Y037756D02*
X037613Y037756D01*
X037593Y037707D02*
X037407Y037707D01*
X037427Y037659D02*
X037573Y037659D01*
X037553Y037610D02*
X037447Y037610D01*
X037455Y037562D02*
X037545Y037562D01*
X037545Y037513D02*
X037455Y037513D01*
X037455Y037465D02*
X037545Y037465D01*
X037545Y037416D02*
X037455Y037416D01*
X037438Y037368D02*
X037562Y037368D01*
X037582Y037319D02*
X037418Y037319D01*
X037397Y037271D02*
X037603Y037271D01*
X037634Y037222D02*
X037366Y037222D01*
X037317Y037174D02*
X037683Y037174D01*
X037731Y037125D02*
X037269Y037125D01*
X037167Y037077D02*
X037833Y037077D01*
X038167Y037077D02*
X038833Y037077D01*
X038731Y037125D02*
X038269Y037125D01*
X038317Y037174D02*
X038683Y037174D01*
X038634Y037222D02*
X038366Y037222D01*
X038397Y037271D02*
X038603Y037271D01*
X038582Y037319D02*
X038418Y037319D01*
X038438Y037368D02*
X038562Y037368D01*
X038545Y037416D02*
X038455Y037416D01*
X038455Y037465D02*
X038545Y037465D01*
X038545Y037513D02*
X038455Y037513D01*
X038455Y037562D02*
X038545Y037562D01*
X038553Y037610D02*
X038447Y037610D01*
X038427Y037659D02*
X038573Y037659D01*
X038593Y037707D02*
X038407Y037707D01*
X038387Y037756D02*
X038613Y037756D01*
X038661Y037804D02*
X038339Y037804D01*
X038291Y037853D02*
X038709Y037853D01*
X039291Y037853D02*
X040377Y037853D01*
X040377Y037804D02*
X039339Y037804D01*
X039387Y037756D02*
X040377Y037756D01*
X040377Y037707D02*
X039407Y037707D01*
X039427Y037659D02*
X040377Y037659D01*
X040377Y037610D02*
X039447Y037610D01*
X039455Y037562D02*
X040377Y037562D01*
X040377Y037513D02*
X039455Y037513D01*
X039455Y037465D02*
X040377Y037465D01*
X040377Y037416D02*
X039455Y037416D01*
X039438Y037368D02*
X040377Y037368D01*
X040377Y037319D02*
X039418Y037319D01*
X039397Y037271D02*
X040377Y037271D01*
X040377Y037222D02*
X039366Y037222D01*
X039317Y037174D02*
X040377Y037174D01*
X040377Y037125D02*
X039269Y037125D01*
X039167Y037077D02*
X040377Y037077D01*
D16*
X039500Y036000D03*
X039500Y035000D03*
X038500Y035000D03*
X037500Y035000D03*
X037500Y034000D03*
X037500Y033000D03*
X038500Y033000D03*
X038500Y034000D03*
X039500Y034000D03*
X039500Y033000D03*
X039500Y032000D03*
X038500Y032000D03*
X037500Y032000D03*
X037500Y031000D03*
X038500Y031000D03*
X039500Y031000D03*
X039500Y030000D03*
X038500Y030000D03*
X037500Y030000D03*
X037500Y029000D03*
X038500Y029000D03*
X039500Y029000D03*
X039500Y028000D03*
X038500Y028000D03*
X037500Y028000D03*
X037500Y027000D03*
X038500Y027000D03*
X039500Y027000D03*
X039500Y026000D03*
X038500Y026000D03*
X037500Y026000D03*
X036500Y026000D03*
X035500Y026000D03*
X035500Y027000D03*
X036500Y027000D03*
X036500Y028000D03*
X035500Y028000D03*
X036500Y029000D03*
X036500Y030000D03*
X035500Y030000D03*
X035500Y031000D03*
X034500Y031000D03*
X034500Y032000D03*
X035500Y032000D03*
X036500Y032000D03*
X036500Y031000D03*
X036500Y033000D03*
X036500Y034000D03*
X035500Y034000D03*
X035500Y033000D03*
X034500Y033000D03*
X034500Y034000D03*
X034500Y035000D03*
X035500Y035000D03*
X036500Y035000D03*
X033500Y035000D03*
X032500Y035000D03*
X031500Y035000D03*
X031500Y034000D03*
X032500Y034000D03*
X032500Y033000D03*
X033500Y033000D03*
X033500Y034000D03*
X033500Y032000D03*
X031500Y031000D03*
X031500Y030000D03*
X032500Y030000D03*
X032500Y029000D03*
X033500Y029000D03*
X033500Y028000D03*
X033500Y027000D03*
X033500Y026000D03*
X031500Y026000D03*
X031500Y027000D03*
X030800Y027050D03*
X030500Y026600D03*
X030500Y027500D03*
X030500Y028000D03*
X030500Y029000D03*
X030550Y030250D03*
X030550Y030550D03*
X030500Y031000D03*
X030550Y032300D03*
X030550Y032600D03*
X030500Y033000D03*
X030500Y035000D03*
X030500Y035600D03*
X030800Y035950D03*
X030500Y036350D03*
X031500Y028000D03*
D17*
X032420Y028267D02*
X030605Y030082D01*
X030510Y030223D01*
X030550Y030250D01*
X030598Y030252D01*
X030605Y030082D01*
X030593Y030093D01*
X030593Y030207D01*
X030550Y030250D01*
X030555Y030298D01*
X030386Y030317D01*
X030520Y030212D01*
X030550Y030250D01*
X030483Y030317D01*
X030386Y030317D01*
X028933Y030317D01*
X028650Y030600D01*
X028650Y031600D01*
X028000Y032250D01*
X028880Y032370D02*
X028000Y033250D01*
X029000Y032750D02*
X029220Y032530D01*
X030387Y032530D01*
X030519Y032638D01*
X030550Y032600D01*
X030556Y032552D01*
X030387Y032530D01*
X030480Y032530D01*
X030550Y032600D01*
X030544Y032552D01*
X030713Y032530D01*
X030581Y032638D01*
X030550Y032600D01*
X030550Y032530D01*
X030713Y032530D01*
X030783Y032530D01*
X034580Y028733D01*
X034580Y025920D01*
X035000Y025500D01*
X034420Y025920D02*
X034420Y028667D01*
X030717Y032370D01*
X030713Y032370D01*
X030581Y032262D01*
X030550Y032300D01*
X030556Y032348D01*
X030387Y032370D01*
X030519Y032262D01*
X030550Y032300D01*
X030544Y032348D01*
X030713Y032370D01*
X030550Y032370D01*
X030550Y032300D01*
X030480Y032370D01*
X030387Y032370D01*
X028880Y032370D01*
X029000Y030750D02*
X029270Y030480D01*
X030387Y030480D01*
X030519Y030588D01*
X030550Y030550D01*
X030556Y030502D01*
X030387Y030480D01*
X030480Y030480D01*
X030550Y030550D01*
X030526Y030508D01*
X030675Y030425D01*
X030592Y030574D01*
X030550Y030550D01*
X030675Y030425D01*
X030760Y030340D01*
X030760Y030160D01*
X030757Y030157D01*
X032580Y028333D01*
X032580Y025920D01*
X033000Y025500D01*
X032420Y025920D02*
X032420Y028267D01*
X032420Y025920D02*
X032000Y025500D01*
X034000Y025500D02*
X034420Y025920D01*
M02*
