G75*
%MOIN*%
%OFA0B0*%
%FSLAX24Y24*%
%IPPOS*%
%LPD*%
%AMOC8*
5,1,8,0,0,1.08239X$1,22.5*
%
%ADD10C,0.0000*%
%ADD11C,0.0050*%
%ADD12C,0.0030*%
D10*
X022500Y025000D02*
X035850Y025000D01*
X035850Y038000D01*
X022500Y038000D01*
X022500Y025000D01*
X023578Y027957D02*
X023580Y028002D01*
X023586Y028046D01*
X023595Y028090D01*
X023609Y028132D01*
X023626Y028173D01*
X023647Y028213D01*
X023671Y028251D01*
X023698Y028286D01*
X023728Y028319D01*
X023761Y028349D01*
X023796Y028376D01*
X023834Y028400D01*
X023874Y028421D01*
X023915Y028438D01*
X023957Y028452D01*
X024001Y028461D01*
X024045Y028467D01*
X024090Y028469D01*
X024135Y028467D01*
X024179Y028461D01*
X024223Y028452D01*
X024265Y028438D01*
X024306Y028421D01*
X024346Y028400D01*
X024384Y028376D01*
X024419Y028349D01*
X024452Y028319D01*
X024482Y028286D01*
X024509Y028251D01*
X024533Y028213D01*
X024554Y028173D01*
X024571Y028132D01*
X024585Y028090D01*
X024594Y028046D01*
X024600Y028002D01*
X024602Y027957D01*
X024600Y027912D01*
X024594Y027868D01*
X024585Y027824D01*
X024571Y027782D01*
X024554Y027741D01*
X024533Y027701D01*
X024509Y027663D01*
X024482Y027628D01*
X024452Y027595D01*
X024419Y027565D01*
X024384Y027538D01*
X024346Y027514D01*
X024306Y027493D01*
X024265Y027476D01*
X024223Y027462D01*
X024179Y027453D01*
X024135Y027447D01*
X024090Y027445D01*
X024045Y027447D01*
X024001Y027453D01*
X023957Y027462D01*
X023915Y027476D01*
X023874Y027493D01*
X023834Y027514D01*
X023796Y027538D01*
X023761Y027565D01*
X023728Y027595D01*
X023698Y027628D01*
X023671Y027663D01*
X023647Y027701D01*
X023626Y027741D01*
X023609Y027782D01*
X023595Y027824D01*
X023586Y027868D01*
X023580Y027912D01*
X023578Y027957D01*
X023578Y030603D02*
X023580Y030648D01*
X023586Y030692D01*
X023595Y030736D01*
X023609Y030778D01*
X023626Y030819D01*
X023647Y030859D01*
X023671Y030897D01*
X023698Y030932D01*
X023728Y030965D01*
X023761Y030995D01*
X023796Y031022D01*
X023834Y031046D01*
X023874Y031067D01*
X023915Y031084D01*
X023957Y031098D01*
X024001Y031107D01*
X024045Y031113D01*
X024090Y031115D01*
X024135Y031113D01*
X024179Y031107D01*
X024223Y031098D01*
X024265Y031084D01*
X024306Y031067D01*
X024346Y031046D01*
X024384Y031022D01*
X024419Y030995D01*
X024452Y030965D01*
X024482Y030932D01*
X024509Y030897D01*
X024533Y030859D01*
X024554Y030819D01*
X024571Y030778D01*
X024585Y030736D01*
X024594Y030692D01*
X024600Y030648D01*
X024602Y030603D01*
X024600Y030558D01*
X024594Y030514D01*
X024585Y030470D01*
X024571Y030428D01*
X024554Y030387D01*
X024533Y030347D01*
X024509Y030309D01*
X024482Y030274D01*
X024452Y030241D01*
X024419Y030211D01*
X024384Y030184D01*
X024346Y030160D01*
X024306Y030139D01*
X024265Y030122D01*
X024223Y030108D01*
X024179Y030099D01*
X024135Y030093D01*
X024090Y030091D01*
X024045Y030093D01*
X024001Y030099D01*
X023957Y030108D01*
X023915Y030122D01*
X023874Y030139D01*
X023834Y030160D01*
X023796Y030184D01*
X023761Y030211D01*
X023728Y030241D01*
X023698Y030274D01*
X023671Y030309D01*
X023647Y030347D01*
X023626Y030387D01*
X023609Y030428D01*
X023595Y030470D01*
X023586Y030514D01*
X023580Y030558D01*
X023578Y030603D01*
X023335Y033850D02*
X023337Y033885D01*
X023343Y033920D01*
X023353Y033954D01*
X023366Y033987D01*
X023383Y034018D01*
X023404Y034046D01*
X023427Y034073D01*
X023454Y034096D01*
X023482Y034117D01*
X023513Y034134D01*
X023546Y034147D01*
X023580Y034157D01*
X023615Y034163D01*
X023650Y034165D01*
X023685Y034163D01*
X023720Y034157D01*
X023754Y034147D01*
X023787Y034134D01*
X023818Y034117D01*
X023846Y034096D01*
X023873Y034073D01*
X023896Y034046D01*
X023917Y034018D01*
X023934Y033987D01*
X023947Y033954D01*
X023957Y033920D01*
X023963Y033885D01*
X023965Y033850D01*
X023963Y033815D01*
X023957Y033780D01*
X023947Y033746D01*
X023934Y033713D01*
X023917Y033682D01*
X023896Y033654D01*
X023873Y033627D01*
X023846Y033604D01*
X023818Y033583D01*
X023787Y033566D01*
X023754Y033553D01*
X023720Y033543D01*
X023685Y033537D01*
X023650Y033535D01*
X023615Y033537D01*
X023580Y033543D01*
X023546Y033553D01*
X023513Y033566D01*
X023482Y033583D01*
X023454Y033604D01*
X023427Y033627D01*
X023404Y033654D01*
X023383Y033682D01*
X023366Y033713D01*
X023353Y033746D01*
X023343Y033780D01*
X023337Y033815D01*
X023335Y033850D01*
X025697Y033850D02*
X025699Y033885D01*
X025705Y033920D01*
X025715Y033954D01*
X025728Y033987D01*
X025745Y034018D01*
X025766Y034046D01*
X025789Y034073D01*
X025816Y034096D01*
X025844Y034117D01*
X025875Y034134D01*
X025908Y034147D01*
X025942Y034157D01*
X025977Y034163D01*
X026012Y034165D01*
X026047Y034163D01*
X026082Y034157D01*
X026116Y034147D01*
X026149Y034134D01*
X026180Y034117D01*
X026208Y034096D01*
X026235Y034073D01*
X026258Y034046D01*
X026279Y034018D01*
X026296Y033987D01*
X026309Y033954D01*
X026319Y033920D01*
X026325Y033885D01*
X026327Y033850D01*
X026325Y033815D01*
X026319Y033780D01*
X026309Y033746D01*
X026296Y033713D01*
X026279Y033682D01*
X026258Y033654D01*
X026235Y033627D01*
X026208Y033604D01*
X026180Y033583D01*
X026149Y033566D01*
X026116Y033553D01*
X026082Y033543D01*
X026047Y033537D01*
X026012Y033535D01*
X025977Y033537D01*
X025942Y033543D01*
X025908Y033553D01*
X025875Y033566D01*
X025844Y033583D01*
X025816Y033604D01*
X025789Y033627D01*
X025766Y033654D01*
X025745Y033682D01*
X025728Y033713D01*
X025715Y033746D01*
X025705Y033780D01*
X025699Y033815D01*
X025697Y033850D01*
D11*
X027350Y034000D02*
X027350Y032600D01*
X028150Y032600D01*
X028150Y034000D01*
X027350Y034000D01*
X027400Y034200D02*
X027400Y034600D01*
X028200Y034600D01*
X028200Y034200D01*
X027400Y034200D01*
X027350Y032550D02*
X028150Y032550D01*
X028150Y032150D01*
X027350Y032150D01*
X027350Y032550D01*
X027375Y032100D02*
X027375Y031700D01*
X028175Y031700D01*
X028175Y032100D01*
X027375Y032100D01*
X027325Y031575D02*
X028125Y031575D01*
X028125Y030175D01*
X027325Y030175D01*
X027325Y031575D01*
X027375Y030050D02*
X028175Y030050D01*
X028175Y029650D01*
X027375Y029650D01*
X027375Y030050D01*
X029400Y029950D02*
X029400Y029550D01*
X030200Y029550D01*
X030200Y029950D01*
X029400Y029950D01*
X029400Y029500D02*
X029400Y029100D01*
X030200Y029100D01*
X030200Y029500D01*
X029400Y029500D01*
X029400Y029100D02*
X030200Y029100D01*
X030200Y028700D01*
X029400Y028700D01*
X029400Y029100D01*
X029400Y028650D02*
X029400Y028250D01*
X030200Y028250D01*
X030200Y028650D01*
X029400Y028650D01*
X029400Y028200D02*
X029400Y027800D01*
X029400Y027400D01*
X030200Y027400D01*
X030200Y027800D01*
X029400Y027800D01*
X030200Y027800D01*
X030200Y028200D01*
X029400Y028200D01*
X029400Y027400D02*
X029400Y027000D01*
X030200Y027000D01*
X030200Y027400D01*
X029400Y027400D01*
X030800Y030650D02*
X031200Y030650D01*
X031200Y031450D01*
X030800Y031450D01*
X030800Y030650D01*
X030800Y031550D02*
X030800Y032350D01*
X031200Y032350D01*
X031200Y031550D01*
X030800Y031550D01*
X031000Y036050D02*
X029600Y036050D01*
X029600Y036850D01*
X031000Y036850D01*
X031000Y036050D01*
X033025Y036050D02*
X033025Y036850D01*
X034425Y036850D01*
X034425Y036050D01*
X033025Y036050D01*
D12*
X032860Y036315D02*
X032860Y036605D01*
X032667Y036605D01*
X032565Y036605D02*
X032420Y036605D01*
X032372Y036557D01*
X032372Y036508D01*
X032420Y036460D01*
X032565Y036460D01*
X032420Y036460D02*
X032372Y036412D01*
X032372Y036363D01*
X032420Y036315D01*
X032565Y036315D01*
X032565Y036605D01*
X032763Y036460D02*
X032860Y036460D01*
X032271Y036460D02*
X032174Y036508D01*
X032126Y036508D01*
X032077Y036460D01*
X032077Y036363D01*
X032126Y036315D01*
X032222Y036315D01*
X032271Y036363D01*
X032271Y036460D02*
X032271Y036605D01*
X032077Y036605D01*
X029235Y036555D02*
X029042Y036555D01*
X028940Y036555D02*
X028795Y036555D01*
X028747Y036507D01*
X028747Y036458D01*
X028795Y036410D01*
X028940Y036410D01*
X028795Y036410D02*
X028747Y036362D01*
X028747Y036313D01*
X028795Y036265D01*
X028940Y036265D01*
X028940Y036555D01*
X029138Y036410D02*
X029235Y036410D01*
X029235Y036265D02*
X029235Y036555D01*
X028646Y036410D02*
X028452Y036410D01*
X028501Y036265D02*
X028501Y036555D01*
X028646Y036410D01*
X027187Y034505D02*
X027090Y034505D01*
X027042Y034457D01*
X026940Y034408D02*
X026844Y034505D01*
X026844Y034215D01*
X026940Y034215D02*
X026747Y034215D01*
X026646Y034215D02*
X026452Y034408D01*
X026452Y034457D01*
X026501Y034505D01*
X026597Y034505D01*
X026646Y034457D01*
X026646Y034215D02*
X026452Y034215D01*
X027042Y034263D02*
X027090Y034215D01*
X027187Y034215D01*
X027235Y034263D01*
X027235Y034457D01*
X027187Y034505D01*
X027235Y033455D02*
X027042Y033455D01*
X026940Y033455D02*
X026795Y033455D01*
X026747Y033407D01*
X026747Y033358D01*
X026795Y033310D01*
X026940Y033310D01*
X026795Y033310D02*
X026747Y033262D01*
X026747Y033213D01*
X026795Y033165D01*
X026940Y033165D01*
X026940Y033455D01*
X027138Y033310D02*
X027235Y033310D01*
X027235Y033165D02*
X027235Y033455D01*
X026646Y033358D02*
X026549Y033455D01*
X026549Y033165D01*
X026646Y033165D02*
X026452Y033165D01*
X026499Y032555D02*
X026499Y032265D01*
X026596Y032265D02*
X026402Y032265D01*
X026596Y032458D02*
X026499Y032555D01*
X026794Y032555D02*
X026794Y032265D01*
X026890Y032265D02*
X026697Y032265D01*
X026890Y032458D02*
X026794Y032555D01*
X026992Y032507D02*
X026992Y032410D01*
X027040Y032362D01*
X027185Y032362D01*
X027088Y032362D02*
X026992Y032265D01*
X027185Y032265D02*
X027185Y032555D01*
X027040Y032555D01*
X026992Y032507D01*
X027015Y031955D02*
X027112Y031955D01*
X027160Y031907D01*
X027160Y031713D01*
X027112Y031665D01*
X027015Y031665D01*
X026967Y031713D01*
X026865Y031713D02*
X026865Y031762D01*
X026817Y031810D01*
X026720Y031810D01*
X026672Y031762D01*
X026672Y031713D01*
X026720Y031665D01*
X026817Y031665D01*
X026865Y031713D01*
X026817Y031810D02*
X026865Y031858D01*
X026865Y031907D01*
X026817Y031955D01*
X026720Y031955D01*
X026672Y031907D01*
X026672Y031858D01*
X026720Y031810D01*
X026967Y031907D02*
X027015Y031955D01*
X027017Y031030D02*
X027210Y031030D01*
X027210Y030740D01*
X027210Y030885D02*
X027113Y030885D01*
X026915Y030885D02*
X026770Y030885D01*
X026722Y030837D01*
X026722Y030788D01*
X026770Y030740D01*
X026915Y030740D01*
X026915Y031030D01*
X026770Y031030D01*
X026722Y030982D01*
X026722Y030933D01*
X026770Y030885D01*
X026621Y030982D02*
X026572Y031030D01*
X026476Y031030D01*
X026427Y030982D01*
X026427Y030933D01*
X026621Y030740D01*
X026427Y030740D01*
X026476Y029955D02*
X026572Y029955D01*
X026621Y029907D01*
X026476Y029955D02*
X026427Y029907D01*
X026427Y029858D01*
X026621Y029665D01*
X026427Y029665D01*
X026722Y029665D02*
X026915Y029665D01*
X026819Y029665D02*
X026819Y029955D01*
X026915Y029858D01*
X027017Y029810D02*
X027065Y029762D01*
X027210Y029762D01*
X027113Y029762D02*
X027017Y029665D01*
X027017Y029810D02*
X027017Y029907D01*
X027065Y029955D01*
X027210Y029955D01*
X027210Y029665D01*
X028797Y029655D02*
X028990Y029655D01*
X028990Y029510D01*
X028894Y029558D01*
X028845Y029558D01*
X028797Y029510D01*
X028797Y029413D01*
X028845Y029365D01*
X028942Y029365D01*
X028990Y029413D01*
X029092Y029365D02*
X029188Y029462D01*
X029140Y029462D02*
X029285Y029462D01*
X029285Y029365D02*
X029285Y029655D01*
X029140Y029655D01*
X029092Y029607D01*
X029092Y029510D01*
X029140Y029462D01*
X029140Y029155D02*
X029092Y029107D01*
X029092Y029010D01*
X029140Y028962D01*
X029285Y028962D01*
X029188Y028962D02*
X029092Y028865D01*
X028990Y028865D02*
X028990Y028913D01*
X028797Y029107D01*
X028797Y029155D01*
X028990Y029155D01*
X029140Y029155D02*
X029285Y029155D01*
X029285Y028865D01*
X029187Y028655D02*
X029235Y028607D01*
X029235Y028413D01*
X029187Y028365D01*
X029090Y028365D01*
X029042Y028413D01*
X028940Y028413D02*
X028892Y028365D01*
X028795Y028365D01*
X028747Y028413D01*
X028747Y028607D01*
X028795Y028655D01*
X028892Y028655D01*
X028940Y028607D01*
X028940Y028558D01*
X028892Y028510D01*
X028747Y028510D01*
X029042Y028607D02*
X029090Y028655D01*
X029187Y028655D01*
X029140Y028155D02*
X029237Y028155D01*
X029285Y028107D01*
X029285Y027913D01*
X029237Y027865D01*
X029140Y027865D01*
X029092Y027913D01*
X028990Y027865D02*
X028797Y027865D01*
X028894Y027865D02*
X028894Y028155D01*
X028990Y028058D01*
X029092Y028107D02*
X029140Y028155D01*
X028696Y028107D02*
X028647Y028155D01*
X028551Y028155D01*
X028502Y028107D01*
X028502Y028058D01*
X028551Y028010D01*
X028502Y027962D01*
X028502Y027913D01*
X028551Y027865D01*
X028647Y027865D01*
X028696Y027913D01*
X028599Y028010D02*
X028551Y028010D01*
X028551Y027655D02*
X028502Y027607D01*
X028696Y027413D01*
X028647Y027365D01*
X028551Y027365D01*
X028502Y027413D01*
X028502Y027607D01*
X028551Y027655D02*
X028647Y027655D01*
X028696Y027607D01*
X028696Y027413D01*
X028797Y027365D02*
X028990Y027365D01*
X028894Y027365D02*
X028894Y027655D01*
X028990Y027558D01*
X029092Y027510D02*
X029140Y027462D01*
X029285Y027462D01*
X029188Y027462D02*
X029092Y027365D01*
X029092Y027510D02*
X029092Y027607D01*
X029140Y027655D01*
X029285Y027655D01*
X029285Y027365D01*
X029285Y027205D02*
X029140Y027205D01*
X029092Y027157D01*
X029092Y027060D01*
X029140Y027012D01*
X029285Y027012D01*
X029188Y027012D02*
X029092Y026915D01*
X028990Y026915D02*
X028797Y026915D01*
X028894Y026915D02*
X028894Y027205D01*
X028990Y027108D01*
X028696Y027205D02*
X028502Y027205D01*
X028502Y027157D01*
X028696Y026963D01*
X028696Y026915D01*
X029285Y026915D02*
X029285Y027205D01*
X029237Y029865D02*
X029140Y029865D01*
X029092Y029913D01*
X028990Y029913D02*
X028990Y029865D01*
X028990Y029913D02*
X028797Y030107D01*
X028797Y030155D01*
X028990Y030155D01*
X029092Y030107D02*
X029140Y030155D01*
X029237Y030155D01*
X029285Y030107D01*
X029285Y029913D01*
X029237Y029865D01*
X031345Y030629D02*
X031345Y030726D01*
X031393Y030775D01*
X031345Y030876D02*
X031345Y031069D01*
X031345Y030972D02*
X031635Y030972D01*
X031538Y030876D01*
X031587Y030775D02*
X031635Y030726D01*
X031635Y030629D01*
X031587Y030581D01*
X031393Y030581D01*
X031345Y030629D01*
X031393Y031170D02*
X031587Y031364D01*
X031393Y031364D01*
X031345Y031315D01*
X031345Y031219D01*
X031393Y031170D01*
X031587Y031170D01*
X031635Y031219D01*
X031635Y031315D01*
X031587Y031364D01*
X031637Y031481D02*
X031443Y031481D01*
X031395Y031529D01*
X031395Y031626D01*
X031443Y031675D01*
X031395Y031776D02*
X031395Y031969D01*
X031395Y031872D02*
X031685Y031872D01*
X031588Y031776D01*
X031637Y031675D02*
X031685Y031626D01*
X031685Y031529D01*
X031637Y031481D01*
X031588Y032070D02*
X031685Y032167D01*
X031395Y032167D01*
X031395Y032070D02*
X031395Y032264D01*
M02*
