%
M48
M72
T01C0.0118
T02C0.0197
T03C0.0315
T04C0.0400
T05C0.0630
T06C0.1024
%
T01
X22700Y25275
X23925Y25275
X23850Y26275
X22700Y26775
X22700Y28025
X23850Y29500
X22700Y30100
X22700Y31625
X23775Y31625
X23775Y32850
X24925Y32275
X24925Y31050
X26450Y30900
X26900Y31700
X27075Y32125
X26650Y32225
X26625Y33250
X26650Y34100
X26650Y34650
X27200Y34625
X28300Y34950
X28625Y35400
X28900Y35875
X27925Y36050
X27475Y35750
X27000Y36225
X27175Y36925
X26750Y37800
X25825Y37750
X24375Y37675
X24300Y36475
X24925Y35325
X25275Y35325
X24975Y34975
X25675Y34250
X25975Y34625
X26500Y35625
X23800Y34850
X22700Y34875
X22700Y36375
X22700Y37625
X28850Y37800
X29800Y37775
X30750Y37800
X31700Y36725
X31125Y36625
X31600Y36175
X31425Y35250
X31425Y34750
X31700Y33825
X31450Y33275
X31425Y31975
X30700Y32025
X30750Y31500
X30125Y31500
X30100Y31050
X31175Y30675
X31800Y30125
X32075Y30175
X31549Y29351
X32651Y29351
X32651Y28249
X33175Y27825
X33600Y27925
X33450Y28525
X34250Y29300
X34475Y29625
X34475Y29975
X34050Y30425
X33575Y30975
X33300Y31150
X32875Y31150
X32450Y30900
X32375Y31400
X32000Y31150
X31825Y31350
X30550Y29900
X29375Y29525
X30250Y29175
X30350Y28900
X30350Y28475
X30350Y28050
X30525Y27825
X30475Y27450
X30975Y27425
X31000Y27875
X31549Y28249
X32750Y27450
X33100Y27375
X33550Y26975
X33950Y27325
X34500Y27425
X34875Y27925
X34750Y28800
X35100Y29750
X35625Y29400
X35625Y30925
X35625Y32150
X35100Y32525
X34150Y33050
X34000Y33825
X34625Y34250
X35075Y33700
X35625Y34225
X35650Y35750
X34825Y36525
X35625Y36950
X34750Y37800
X33775Y37800
X33800Y36900
X33775Y36175
X32900Y35975
X32525Y36775
X29850Y34925
X29600Y34150
X29850Y33025
X29425Y32850
X28600Y32250
X28200Y32725
X28125Y33300
X28425Y30475
X28100Y29650
X27400Y29325
X27475Y28825
X26600Y29000
X26700Y29575
X25950Y29550
X24925Y29525
X28500Y28500
X28725Y28825
X29375Y28675
X29325Y28250
X29375Y27825
X28450Y27550
X29600Y26800
X30150Y26650
X30600Y26125
X30850Y26275
X31200Y26400
X31800Y26000
X32500Y26000
X33225Y26400
X32800Y25200
X34450Y26025
X34925Y26500
X34750Y25200
X30750Y25200
X28825Y25200
X27850Y25200
X26750Y25200
X25825Y25225
X26300Y26050
X25675Y26450
X26975Y26675
X34075Y31525
X32750Y34275
T02
X24053Y26540
X24053Y25910
T03
X25625Y28300
X25625Y29300
X25625Y30300
X28850Y31275
X29650Y31275
X29650Y33525
X28850Y33525
T04
X29300Y37500
X30300Y37500
X31300Y37500
X32300Y37500
X33300Y37500
X34300Y37500
X35300Y37500
X28300Y37500
X27300Y37500
X26300Y37500
X26300Y25500
X27300Y25500
X28300Y25500
X29300Y25500
X30300Y25500
X31300Y25500
X32300Y25500
X33300Y25500
X34300Y25500
X35300Y25500
T05
X26012Y33850
X23650Y33850
T06
X24090Y30603
X24090Y27957
M30
