%
M48
M72
T01C0.0118
T02C0.0197
T03C0.0315
T04C0.0400
T05C0.0630
T06C0.1024
T07C0.1260
%
T01
X23465Y25240
X24535Y25230
X24475Y26000
X25050Y26475
X24900Y27050
X27090Y26040
X27505Y25255
X28505Y25245
X28245Y26140
X28180Y27045
X28125Y27375
X28995Y26655
X29285Y26375
X29750Y26250
X30175Y26565
X30800Y26010
X31500Y25775
X31530Y25225
X32500Y25240
X33515Y25245
X34525Y25225
X35525Y25225
X36500Y25225
X37500Y25225
X39500Y25225
X40500Y25225
X41450Y25200
X42300Y26700
X42300Y28215
X42300Y29815
X40200Y30625
X40500Y31550
X39300Y32400
X38325Y31500
X37475Y30950
X37300Y30700
X37300Y30400
X36850Y29975
X36850Y29425
X37775Y29675
X37900Y30075
X39050Y29575
X39090Y28340
X40200Y28310
X40070Y26715
X36475Y26825
X35250Y27775
X34600Y27400
X34525Y28025
X33900Y28800
X35025Y29325
X35325Y29425
X35550Y29775
X35675Y29100
X34775Y30125
X34350Y30775
X33725Y31325
X32950Y31120
X32475Y31290
X32650Y31625
X31500Y31090
X31930Y30810
X32740Y30300
X33750Y30100
X34975Y31325
X35640Y31590
X35940Y31890
X36350Y31650
X36625Y31675
X37000Y31850
X36340Y32340
X35840Y32915
X35200Y33000
X34650Y32790
X34475Y33025
X34050Y33150
X33670Y32680
X34075Y32050
X34350Y32075
X32625Y32700
X32290Y33220
X33090Y33870
X32685Y34685
X33320Y35320
X32900Y35625
X34325Y36250
X34975Y36825
X35475Y36525
X35840Y35890
X36190Y36340
X36515Y37795
X35525Y37800
X34525Y37800
X32510Y37785
X31500Y37800
X30520Y37790
X29500Y37790
X28510Y37795
X27510Y37795
X26510Y37790
X25510Y37795
X23465Y37790
X22765Y36345
X24125Y35550
X24480Y35565
X24950Y35400
X25120Y34555
X24625Y34350
X24820Y33475
X26135Y34105
X26760Y34110
X27100Y34300
X28400Y34390
X29290Y34190
X29945Y33745
X29935Y33015
X28850Y33350
X28515Y32595
X27125Y32105
X27135Y31650
X26540Y32110
X25550Y31050
X26815Y30440
X27125Y29325
X28400Y30025
X28425Y30895
X29040Y31895
X29825Y31485
X29800Y30720
X28160Y28720
X27100Y28430
X26250Y28565
X22750Y28100
X22750Y26600
X25510Y25255
X26495Y25255
X29515Y25245
X30520Y25270
X32090Y27235
X32075Y27625
X32525Y28050
X32790Y28075
X32075Y28350
X33500Y27115
X33000Y26455
X34725Y26475
X35875Y30400
X35850Y30675
X36100Y30900
X36575Y30900
X36765Y33490
X37315Y33515
X35840Y33765
X35740Y34890
X36965Y34865
X38190Y34890
X39665Y35615
X40165Y36365
X40740Y36890
X40490Y37290
X40515Y37790
X41465Y37790
X39515Y37790
X38515Y37790
X38765Y36865
X39340Y36640
X40425Y34575
X39650Y33550
X40500Y33235
X42280Y33350
X42290Y35100
X38775Y33175
X34400Y34900
X31380Y34190
X31240Y35890
X30355Y36170
X29910Y35845
X29815Y36725
X31260Y36765
X28105Y36545
X25360Y36460
X24780Y36450
X22840Y32765
X22765Y31205
T02
X28828Y28265
X28828Y27635
T03
X25600Y27750
X25600Y28750
X25600Y29750
X30925Y30300
X30925Y31100
X30925Y32650
X30925Y33450
T04
X23000Y25500
X24000Y25500
X25000Y25500
X26000Y25500
X27000Y25500
X28000Y25500
X29000Y25500
X30000Y25500
X31000Y25500
X32000Y25500
X33000Y25500
X34000Y25500
X35000Y25500
X36000Y25500
X37000Y25500
X38000Y25500
X39000Y25500
X40000Y25500
X41000Y25500
X42000Y25500
X39900Y30075
X39900Y31075
X40000Y37500
X39000Y37500
X38000Y37500
X37000Y37500
X36000Y37500
X35000Y37500
X34000Y37500
X33000Y37500
X32000Y37500
X31000Y37500
X30000Y37500
X29000Y37500
X28000Y37500
X27000Y37500
X26000Y37500
X25000Y37500
X24000Y37500
X23000Y37500
X41000Y37500
X42000Y37500
T05
X25762Y33275
X23400Y33275
T06
X24104Y30250
X24104Y27250
T07
X27000Y36200
M30
