G75*
%MOIN*%
%OFA0B0*%
%FSLAX24Y24*%
%IPPOS*%
%LPD*%
%AMOC8*
5,1,8,0,0,1.08239X$1,22.5*
%
%ADD10C,0.0000*%
%ADD11R,0.0335X0.0118*%
%ADD12R,0.0118X0.0335*%
%ADD13R,0.1339X0.1339*%
%ADD14R,0.0200X0.0200*%
%ADD15R,0.1969X0.0866*%
%ADD16R,0.0740X0.0740*%
%ADD17C,0.0740*%
%ADD18R,0.0551X0.0453*%
%ADD19R,0.0453X0.0551*%
%ADD20C,0.0264*%
%ADD21C,0.0382*%
%ADD22C,0.0500*%
%ADD23R,0.0531X0.0787*%
%ADD24C,0.0400*%
%ADD25C,0.0080*%
%ADD26C,0.0197*%
%ADD27C,0.0100*%
%ADD28C,0.0500*%
%ADD29C,0.0250*%
%ADD30C,0.0150*%
%ADD31C,0.0200*%
D10*
X022500Y025000D02*
X042700Y025000D01*
X042700Y038000D01*
X022500Y038000D01*
X022500Y025000D01*
X023592Y027250D02*
X023594Y027295D01*
X023600Y027339D01*
X023609Y027383D01*
X023623Y027425D01*
X023640Y027466D01*
X023661Y027506D01*
X023685Y027544D01*
X023712Y027579D01*
X023742Y027612D01*
X023775Y027642D01*
X023810Y027669D01*
X023848Y027693D01*
X023888Y027714D01*
X023929Y027731D01*
X023971Y027745D01*
X024015Y027754D01*
X024059Y027760D01*
X024104Y027762D01*
X024149Y027760D01*
X024193Y027754D01*
X024237Y027745D01*
X024279Y027731D01*
X024320Y027714D01*
X024360Y027693D01*
X024398Y027669D01*
X024433Y027642D01*
X024466Y027612D01*
X024496Y027579D01*
X024523Y027544D01*
X024547Y027506D01*
X024568Y027466D01*
X024585Y027425D01*
X024599Y027383D01*
X024608Y027339D01*
X024614Y027295D01*
X024616Y027250D01*
X024614Y027205D01*
X024608Y027161D01*
X024599Y027117D01*
X024585Y027075D01*
X024568Y027034D01*
X024547Y026994D01*
X024523Y026956D01*
X024496Y026921D01*
X024466Y026888D01*
X024433Y026858D01*
X024398Y026831D01*
X024360Y026807D01*
X024320Y026786D01*
X024279Y026769D01*
X024237Y026755D01*
X024193Y026746D01*
X024149Y026740D01*
X024104Y026738D01*
X024059Y026740D01*
X024015Y026746D01*
X023971Y026755D01*
X023929Y026769D01*
X023888Y026786D01*
X023848Y026807D01*
X023810Y026831D01*
X023775Y026858D01*
X023742Y026888D01*
X023712Y026921D01*
X023685Y026956D01*
X023661Y026994D01*
X023640Y027034D01*
X023623Y027075D01*
X023609Y027117D01*
X023600Y027161D01*
X023594Y027205D01*
X023592Y027250D01*
X023592Y030250D02*
X023594Y030295D01*
X023600Y030339D01*
X023609Y030383D01*
X023623Y030425D01*
X023640Y030466D01*
X023661Y030506D01*
X023685Y030544D01*
X023712Y030579D01*
X023742Y030612D01*
X023775Y030642D01*
X023810Y030669D01*
X023848Y030693D01*
X023888Y030714D01*
X023929Y030731D01*
X023971Y030745D01*
X024015Y030754D01*
X024059Y030760D01*
X024104Y030762D01*
X024149Y030760D01*
X024193Y030754D01*
X024237Y030745D01*
X024279Y030731D01*
X024320Y030714D01*
X024360Y030693D01*
X024398Y030669D01*
X024433Y030642D01*
X024466Y030612D01*
X024496Y030579D01*
X024523Y030544D01*
X024547Y030506D01*
X024568Y030466D01*
X024585Y030425D01*
X024599Y030383D01*
X024608Y030339D01*
X024614Y030295D01*
X024616Y030250D01*
X024614Y030205D01*
X024608Y030161D01*
X024599Y030117D01*
X024585Y030075D01*
X024568Y030034D01*
X024547Y029994D01*
X024523Y029956D01*
X024496Y029921D01*
X024466Y029888D01*
X024433Y029858D01*
X024398Y029831D01*
X024360Y029807D01*
X024320Y029786D01*
X024279Y029769D01*
X024237Y029755D01*
X024193Y029746D01*
X024149Y029740D01*
X024104Y029738D01*
X024059Y029740D01*
X024015Y029746D01*
X023971Y029755D01*
X023929Y029769D01*
X023888Y029786D01*
X023848Y029807D01*
X023810Y029831D01*
X023775Y029858D01*
X023742Y029888D01*
X023712Y029921D01*
X023685Y029956D01*
X023661Y029994D01*
X023640Y030034D01*
X023623Y030075D01*
X023609Y030117D01*
X023600Y030161D01*
X023594Y030205D01*
X023592Y030250D01*
X023085Y033275D02*
X023087Y033310D01*
X023093Y033345D01*
X023103Y033379D01*
X023116Y033412D01*
X023133Y033443D01*
X023154Y033471D01*
X023177Y033498D01*
X023204Y033521D01*
X023232Y033542D01*
X023263Y033559D01*
X023296Y033572D01*
X023330Y033582D01*
X023365Y033588D01*
X023400Y033590D01*
X023435Y033588D01*
X023470Y033582D01*
X023504Y033572D01*
X023537Y033559D01*
X023568Y033542D01*
X023596Y033521D01*
X023623Y033498D01*
X023646Y033471D01*
X023667Y033443D01*
X023684Y033412D01*
X023697Y033379D01*
X023707Y033345D01*
X023713Y033310D01*
X023715Y033275D01*
X023713Y033240D01*
X023707Y033205D01*
X023697Y033171D01*
X023684Y033138D01*
X023667Y033107D01*
X023646Y033079D01*
X023623Y033052D01*
X023596Y033029D01*
X023568Y033008D01*
X023537Y032991D01*
X023504Y032978D01*
X023470Y032968D01*
X023435Y032962D01*
X023400Y032960D01*
X023365Y032962D01*
X023330Y032968D01*
X023296Y032978D01*
X023263Y032991D01*
X023232Y033008D01*
X023204Y033029D01*
X023177Y033052D01*
X023154Y033079D01*
X023133Y033107D01*
X023116Y033138D01*
X023103Y033171D01*
X023093Y033205D01*
X023087Y033240D01*
X023085Y033275D01*
X025447Y033275D02*
X025449Y033310D01*
X025455Y033345D01*
X025465Y033379D01*
X025478Y033412D01*
X025495Y033443D01*
X025516Y033471D01*
X025539Y033498D01*
X025566Y033521D01*
X025594Y033542D01*
X025625Y033559D01*
X025658Y033572D01*
X025692Y033582D01*
X025727Y033588D01*
X025762Y033590D01*
X025797Y033588D01*
X025832Y033582D01*
X025866Y033572D01*
X025899Y033559D01*
X025930Y033542D01*
X025958Y033521D01*
X025985Y033498D01*
X026008Y033471D01*
X026029Y033443D01*
X026046Y033412D01*
X026059Y033379D01*
X026069Y033345D01*
X026075Y033310D01*
X026077Y033275D01*
X026075Y033240D01*
X026069Y033205D01*
X026059Y033171D01*
X026046Y033138D01*
X026029Y033107D01*
X026008Y033079D01*
X025985Y033052D01*
X025958Y033029D01*
X025930Y033008D01*
X025899Y032991D01*
X025866Y032978D01*
X025832Y032968D01*
X025797Y032962D01*
X025762Y032960D01*
X025727Y032962D01*
X025692Y032968D01*
X025658Y032978D01*
X025625Y032991D01*
X025594Y033008D01*
X025566Y033029D01*
X025539Y033052D01*
X025516Y033079D01*
X025495Y033107D01*
X025478Y033138D01*
X025465Y033171D01*
X025455Y033205D01*
X025449Y033240D01*
X025447Y033275D01*
X026570Y036200D02*
X026572Y036250D01*
X026578Y036300D01*
X026588Y036349D01*
X026602Y036397D01*
X026619Y036444D01*
X026640Y036489D01*
X026665Y036533D01*
X026693Y036574D01*
X026725Y036613D01*
X026759Y036650D01*
X026796Y036684D01*
X026836Y036714D01*
X026878Y036741D01*
X026922Y036765D01*
X026968Y036786D01*
X027015Y036802D01*
X027063Y036815D01*
X027113Y036824D01*
X027162Y036829D01*
X027213Y036830D01*
X027263Y036827D01*
X027312Y036820D01*
X027361Y036809D01*
X027409Y036794D01*
X027455Y036776D01*
X027500Y036754D01*
X027543Y036728D01*
X027584Y036699D01*
X027623Y036667D01*
X027659Y036632D01*
X027691Y036594D01*
X027721Y036554D01*
X027748Y036511D01*
X027771Y036467D01*
X027790Y036421D01*
X027806Y036373D01*
X027818Y036324D01*
X027826Y036275D01*
X027830Y036225D01*
X027830Y036175D01*
X027826Y036125D01*
X027818Y036076D01*
X027806Y036027D01*
X027790Y035979D01*
X027771Y035933D01*
X027748Y035889D01*
X027721Y035846D01*
X027691Y035806D01*
X027659Y035768D01*
X027623Y035733D01*
X027584Y035701D01*
X027543Y035672D01*
X027500Y035646D01*
X027455Y035624D01*
X027409Y035606D01*
X027361Y035591D01*
X027312Y035580D01*
X027263Y035573D01*
X027213Y035570D01*
X027162Y035571D01*
X027113Y035576D01*
X027063Y035585D01*
X027015Y035598D01*
X026968Y035614D01*
X026922Y035635D01*
X026878Y035659D01*
X026836Y035686D01*
X026796Y035716D01*
X026759Y035750D01*
X026725Y035787D01*
X026693Y035826D01*
X026665Y035867D01*
X026640Y035911D01*
X026619Y035956D01*
X026602Y036003D01*
X026588Y036051D01*
X026578Y036100D01*
X026572Y036150D01*
X026570Y036200D01*
D11*
X033566Y031389D03*
X033566Y031192D03*
X033566Y030995D03*
X033566Y030798D03*
X033566Y030602D03*
X033566Y030405D03*
X033566Y030208D03*
X033566Y030011D03*
X035534Y030011D03*
X035534Y030208D03*
X035534Y030405D03*
X035534Y030602D03*
X035534Y030798D03*
X035534Y030995D03*
X035534Y031192D03*
X035534Y031389D03*
D12*
X035239Y031684D03*
X035042Y031684D03*
X034845Y031684D03*
X034648Y031684D03*
X034452Y031684D03*
X034255Y031684D03*
X034058Y031684D03*
X033861Y031684D03*
X033861Y029716D03*
X034058Y029716D03*
X034255Y029716D03*
X034452Y029716D03*
X034648Y029716D03*
X034845Y029716D03*
X035042Y029716D03*
X035239Y029716D03*
D13*
X034550Y030700D03*
D14*
X033100Y029900D03*
X032800Y029900D03*
X032800Y029525D03*
X033100Y029525D03*
X033100Y029150D03*
X032800Y029150D03*
X032800Y028725D03*
X033100Y028725D03*
X033100Y028350D03*
X032800Y028350D03*
X031000Y028450D03*
X030700Y028450D03*
X030700Y028875D03*
X031000Y028875D03*
X031000Y029325D03*
X030700Y029325D03*
X030700Y028000D03*
X031000Y028000D03*
X031000Y027575D03*
X030700Y027575D03*
X030700Y027200D03*
X031000Y027200D03*
X028000Y028700D03*
X027700Y028700D03*
X027600Y029350D03*
X027900Y029350D03*
X027975Y029850D03*
X027675Y029850D03*
X027650Y031900D03*
X027950Y031900D03*
X027950Y032350D03*
X027650Y032350D03*
X027650Y034350D03*
X027950Y034350D03*
X025125Y035925D03*
X024825Y035925D03*
X023925Y035900D03*
X023625Y035900D03*
X032575Y032675D03*
X032575Y032375D03*
X032575Y031925D03*
X032575Y031625D03*
X033875Y032400D03*
X033875Y032700D03*
X034225Y032700D03*
X034225Y032400D03*
X034700Y032400D03*
X034700Y032700D03*
X035050Y032700D03*
X035050Y032400D03*
X035400Y032400D03*
X035400Y032700D03*
X035750Y032700D03*
X035750Y032400D03*
X036400Y030550D03*
X036700Y030550D03*
X036700Y030100D03*
X036400Y030100D03*
X036400Y029700D03*
X036700Y029700D03*
X036700Y029250D03*
X036400Y029250D03*
X034850Y029100D03*
X034550Y029100D03*
X034550Y028750D03*
X034850Y028750D03*
X037900Y030350D03*
X038200Y030350D03*
X038200Y030700D03*
X037900Y030700D03*
D15*
X037200Y034172D03*
X037200Y035628D03*
X034725Y035628D03*
X034725Y034172D03*
D16*
X040100Y030075D03*
X042200Y025500D03*
X042200Y037500D03*
X024200Y037500D03*
X024200Y025500D03*
D17*
X025200Y025500D03*
X026200Y025500D03*
X027200Y025500D03*
X028200Y025500D03*
X029200Y025500D03*
X030200Y025500D03*
X031200Y025500D03*
X032200Y025500D03*
X033200Y025500D03*
X034200Y025500D03*
X035200Y025500D03*
X036200Y025500D03*
X037200Y025500D03*
X038200Y025500D03*
X039200Y025500D03*
X040200Y025500D03*
X041200Y025500D03*
X040100Y031075D03*
X040200Y037500D03*
X039200Y037500D03*
X038200Y037500D03*
X037200Y037500D03*
X036200Y037500D03*
X035200Y037500D03*
X034200Y037500D03*
X033200Y037500D03*
X032200Y037500D03*
X031200Y037500D03*
X030200Y037500D03*
X029200Y037500D03*
X028200Y037500D03*
X027200Y037500D03*
X026200Y037500D03*
X025200Y037500D03*
X023200Y037500D03*
X023200Y025500D03*
X041200Y037500D03*
D18*
X041200Y035304D03*
X041200Y034596D03*
X027850Y028104D03*
X027850Y027396D03*
X027750Y030496D03*
X027750Y031204D03*
X027750Y032996D03*
X027750Y033704D03*
D19*
X028746Y036250D03*
X029454Y036250D03*
X030996Y036300D03*
X031704Y036300D03*
X035221Y028250D03*
X035929Y028250D03*
D20*
X029028Y028265D03*
X029028Y027635D03*
D21*
X025600Y027750D03*
X025600Y028750D03*
X025600Y029750D03*
D22*
X031125Y030300D03*
X031125Y031100D03*
X031125Y032650D03*
X031125Y033450D03*
D23*
X026628Y034751D03*
X024384Y034751D03*
X023144Y034751D03*
X023183Y031799D03*
X025959Y031799D03*
D24*
X029800Y034830D03*
X038775Y027425D03*
D25*
X039155Y027041D02*
X042562Y027041D01*
X042562Y026963D02*
X039070Y026963D01*
X039081Y026967D02*
X039233Y027119D01*
X039315Y027318D01*
X039315Y027532D01*
X039233Y027731D01*
X039081Y027883D01*
X038882Y027965D01*
X038668Y027965D01*
X038469Y027883D01*
X038317Y027731D01*
X038235Y027532D01*
X038235Y027318D01*
X038317Y027119D01*
X038469Y026967D01*
X038668Y026885D01*
X038882Y026885D01*
X039081Y026967D01*
X039233Y027120D02*
X042562Y027120D01*
X042562Y027198D02*
X039265Y027198D01*
X039298Y027277D02*
X042562Y027277D01*
X042562Y027355D02*
X039315Y027355D01*
X039315Y027434D02*
X042562Y027434D01*
X042562Y027512D02*
X039315Y027512D01*
X039291Y027591D02*
X042562Y027591D01*
X042562Y027669D02*
X039258Y027669D01*
X039216Y027748D02*
X042562Y027748D01*
X042562Y027826D02*
X039138Y027826D01*
X039028Y027905D02*
X042562Y027905D01*
X042562Y027983D02*
X036256Y027983D01*
X036256Y027933D02*
X036256Y028567D01*
X036198Y028625D01*
X036547Y028625D01*
X036822Y028900D01*
X036925Y029003D01*
X036925Y029228D01*
X036975Y029278D01*
X036975Y029772D01*
X036950Y029797D01*
X036950Y030062D01*
X036937Y030075D01*
X037062Y030200D01*
X037150Y030288D01*
X037150Y031562D01*
X037100Y031612D01*
X037084Y031628D01*
X037078Y031650D01*
X037061Y031660D01*
X037023Y031727D01*
X037023Y031757D01*
X036985Y031796D01*
X036968Y031826D01*
X036949Y031831D01*
X036907Y031873D01*
X036743Y031873D01*
X036627Y031757D01*
X036627Y031593D01*
X036669Y031551D01*
X036674Y031532D01*
X036674Y031532D01*
X036704Y031515D01*
X036743Y031477D01*
X036773Y031477D01*
X036840Y031439D01*
X036850Y031422D01*
X036850Y030412D01*
X036738Y030300D01*
X036559Y030300D01*
X036550Y030291D01*
X036541Y030300D01*
X036540Y030300D01*
X036540Y030350D01*
X036541Y030350D01*
X036600Y030409D01*
X036600Y030691D01*
X036541Y030750D01*
X036259Y030750D01*
X036248Y030740D01*
X036248Y030757D01*
X036132Y030873D01*
X035968Y030873D01*
X035921Y030827D01*
X035838Y030767D01*
X035829Y030768D01*
X035826Y030765D01*
X035802Y030765D01*
X035802Y030895D01*
X035802Y031042D01*
X035854Y031042D01*
X037262Y032450D01*
X037350Y032538D01*
X037350Y033639D01*
X038226Y033639D01*
X038284Y033697D01*
X038284Y034646D01*
X038226Y034705D01*
X036174Y034705D01*
X036116Y034646D01*
X036116Y033697D01*
X036174Y033639D01*
X037050Y033639D01*
X037050Y032662D01*
X035739Y031351D01*
X035326Y031351D01*
X035267Y031293D01*
X035267Y029983D01*
X034548Y029983D01*
X034489Y029924D01*
X034489Y029507D01*
X034548Y029448D01*
X034639Y029448D01*
X034750Y029338D01*
X034750Y029300D01*
X034709Y029300D01*
X034650Y029241D01*
X034650Y028959D01*
X034684Y028925D01*
X034650Y028891D01*
X034650Y028609D01*
X034709Y028550D01*
X034894Y028550D01*
X034894Y027933D01*
X034953Y027874D01*
X035027Y027874D01*
X034853Y027700D01*
X034843Y027691D01*
X034830Y027689D01*
X034800Y027650D01*
X034737Y027602D01*
X034733Y027598D01*
X034718Y027598D01*
X034669Y027550D01*
X034654Y027538D01*
X034622Y027514D01*
X034622Y027514D01*
X034620Y027501D01*
X034602Y027482D01*
X034602Y027318D01*
X034718Y027202D01*
X034882Y027202D01*
X034901Y027220D01*
X034914Y027222D01*
X034938Y027254D01*
X034950Y027269D01*
X034998Y027318D01*
X034998Y027333D01*
X035002Y027337D01*
X035050Y027400D01*
X035089Y027430D01*
X035091Y027443D01*
X035100Y027453D01*
X035293Y027646D01*
X035396Y027748D01*
X035396Y027874D01*
X035488Y027874D01*
X035547Y027933D01*
X035547Y028567D01*
X035489Y028625D01*
X035661Y028625D01*
X035603Y028567D01*
X035603Y027933D01*
X035662Y027874D01*
X035706Y027874D01*
X034882Y027050D01*
X032932Y027050D01*
X032800Y026918D01*
X031975Y026093D01*
X031975Y025916D01*
X031934Y025898D01*
X031802Y025766D01*
X031730Y025593D01*
X031730Y025407D01*
X031802Y025234D01*
X031897Y025138D01*
X031503Y025138D01*
X031598Y025234D01*
X031670Y025407D01*
X031670Y025593D01*
X031598Y025766D01*
X031466Y025898D01*
X031340Y025951D01*
X031340Y026042D01*
X032133Y026835D01*
X032215Y026917D01*
X032215Y027427D01*
X032357Y027427D01*
X032411Y027480D01*
X032429Y027487D01*
X032439Y027508D01*
X032473Y027543D01*
X032473Y027580D01*
X032479Y027591D01*
X032505Y027645D01*
X032513Y027649D01*
X032522Y027674D01*
X032540Y027692D01*
X032640Y027792D01*
X032640Y027854D01*
X032643Y027852D01*
X032807Y027852D01*
X032923Y027968D01*
X032923Y028044D01*
X032931Y028061D01*
X032931Y028062D02*
X034894Y028062D01*
X034894Y028140D02*
X032916Y028140D01*
X032923Y028132D02*
X032906Y028150D01*
X032941Y028150D01*
X032950Y028159D01*
X032959Y028150D01*
X033241Y028150D01*
X033300Y028209D01*
X033300Y028210D01*
X033383Y028210D01*
X034313Y029140D01*
X034395Y029222D01*
X034395Y029488D01*
X034414Y029507D01*
X034414Y029924D01*
X034355Y029983D01*
X033833Y029983D01*
X033833Y031417D01*
X034552Y031417D01*
X034611Y031476D01*
X034611Y031860D01*
X034628Y031877D01*
X034632Y031877D01*
X034688Y031932D01*
X034705Y031949D01*
X034705Y031912D01*
X034686Y031893D01*
X034686Y031476D01*
X034745Y031417D01*
X035339Y031417D01*
X035398Y031476D01*
X035398Y031534D01*
X035671Y031534D01*
X036262Y032125D01*
X036350Y032213D01*
X036350Y033312D01*
X035809Y033853D01*
X035809Y034646D01*
X035751Y034705D01*
X033699Y034705D01*
X033641Y034646D01*
X033641Y033697D01*
X033699Y033639D01*
X035599Y033639D01*
X036050Y033188D01*
X036050Y032337D01*
X035547Y031834D01*
X035398Y031834D01*
X035398Y031893D01*
X035339Y031952D01*
X035182Y031952D01*
X035182Y032185D01*
X035758Y032185D01*
X035773Y032200D01*
X035891Y032200D01*
X035950Y032259D01*
X035950Y032541D01*
X035941Y032550D01*
X035950Y032559D01*
X035950Y032841D01*
X035891Y032900D01*
X035890Y032900D01*
X035890Y033033D01*
X035808Y033115D01*
X035358Y033565D01*
X033008Y033565D01*
X030183Y036390D01*
X029781Y036390D01*
X029781Y036567D01*
X029722Y036626D01*
X029187Y036626D01*
X029128Y036567D01*
X029128Y035933D01*
X029187Y035874D01*
X029722Y035874D01*
X029781Y035933D01*
X029781Y036110D01*
X030067Y036110D01*
X032810Y033367D01*
X032892Y033285D01*
X035242Y033285D01*
X035329Y033198D01*
X035318Y033198D01*
X035202Y033082D01*
X035202Y033030D01*
X035194Y033019D01*
X035194Y033019D01*
X035194Y033019D01*
X035202Y032981D01*
X035202Y032918D01*
X035217Y032902D01*
X035224Y032866D01*
X035200Y032841D01*
X035200Y032591D01*
X035191Y032600D01*
X034909Y032600D01*
X034875Y032566D01*
X034841Y032600D01*
X034600Y032600D01*
X034600Y032827D01*
X034662Y032827D01*
X034710Y032820D01*
X034710Y032820D01*
X034710Y032820D01*
X034719Y032827D01*
X034757Y032827D01*
X034873Y032943D01*
X034873Y033107D01*
X034757Y033223D01*
X034672Y033223D01*
X034651Y033232D01*
X034651Y033232D01*
X034651Y033232D01*
X034633Y033223D01*
X034593Y033223D01*
X034561Y033191D01*
X034524Y033175D01*
X034463Y033175D01*
X034413Y033125D01*
X034382Y033111D01*
X034375Y033093D01*
X034359Y033081D01*
X034358Y033070D01*
X034350Y033062D01*
X034300Y033012D01*
X034300Y032612D01*
X034288Y032600D01*
X034084Y032600D01*
X034050Y032566D01*
X034016Y032600D01*
X033734Y032600D01*
X033675Y032541D01*
X033675Y032259D01*
X033700Y032234D01*
X033700Y031850D01*
X033338Y031850D01*
X033250Y031762D01*
X033048Y031561D01*
X033048Y031707D01*
X032932Y031823D01*
X032856Y031823D01*
X032839Y031831D01*
X032816Y031823D01*
X032768Y031823D01*
X032743Y031799D01*
X032716Y031825D01*
X032434Y031825D01*
X032375Y031766D01*
X032375Y031573D01*
X031361Y030559D01*
X031323Y030597D01*
X031195Y030650D01*
X031055Y030650D01*
X030927Y030597D01*
X030828Y030498D01*
X030775Y030370D01*
X030775Y030230D01*
X030828Y030102D01*
X030927Y030003D01*
X031055Y029950D01*
X031195Y029950D01*
X031323Y030003D01*
X031422Y030102D01*
X031475Y030230D01*
X031475Y030277D01*
X032623Y031425D01*
X032716Y031425D01*
X032743Y031451D01*
X032768Y031427D01*
X032816Y031427D01*
X032839Y031419D01*
X032839Y031419D01*
X032839Y031419D01*
X032856Y031427D01*
X032914Y031427D01*
X031150Y029662D01*
X031150Y028762D01*
X031038Y028650D01*
X030859Y028650D01*
X030850Y028641D01*
X030841Y028650D01*
X030840Y028650D01*
X030840Y028675D01*
X030841Y028675D01*
X030900Y028734D01*
X030900Y029016D01*
X030841Y029075D01*
X030840Y029075D01*
X030840Y029125D01*
X030841Y029125D01*
X030900Y029184D01*
X030900Y029466D01*
X030841Y029525D01*
X030559Y029525D01*
X030500Y029466D01*
X030500Y029184D01*
X030559Y029125D01*
X030560Y029125D01*
X030560Y029075D01*
X030559Y029075D01*
X030500Y029016D01*
X030500Y028734D01*
X030559Y028675D01*
X030560Y028675D01*
X030560Y028650D01*
X030559Y028650D01*
X030500Y028591D01*
X030500Y028309D01*
X030559Y028250D01*
X030560Y028250D01*
X030560Y028200D01*
X030559Y028200D01*
X030500Y028141D01*
X030500Y028140D01*
X029231Y028140D01*
X029260Y028169D01*
X029260Y028361D01*
X029124Y028497D01*
X028932Y028497D01*
X028796Y028361D01*
X028796Y028169D01*
X028888Y028077D01*
X028888Y028064D01*
X029010Y027942D01*
X029074Y027878D01*
X029062Y027867D01*
X028932Y027867D01*
X028796Y027731D01*
X028796Y027651D01*
X028775Y027672D01*
X028775Y028997D01*
X028672Y029100D01*
X028247Y029525D01*
X028066Y029525D01*
X028041Y029550D01*
X027759Y029550D01*
X027750Y029541D01*
X027741Y029550D01*
X027459Y029550D01*
X027420Y029511D01*
X027407Y029523D01*
X027344Y029523D01*
X027306Y029531D01*
X027295Y029523D01*
X027243Y029523D01*
X027127Y029407D01*
X027127Y029243D01*
X027243Y029127D01*
X027351Y029127D01*
X027365Y029122D01*
X027373Y029127D01*
X027407Y029127D01*
X027444Y029163D01*
X027445Y029164D01*
X027459Y029150D01*
X027741Y029150D01*
X027750Y029159D01*
X027759Y029150D01*
X028041Y029150D01*
X028066Y029175D01*
X028103Y029175D01*
X028425Y028853D01*
X028425Y028548D01*
X028383Y028590D01*
X028200Y028773D01*
X028200Y028841D01*
X028141Y028900D01*
X027859Y028900D01*
X027850Y028891D01*
X027841Y028900D01*
X027559Y028900D01*
X027500Y028841D01*
X027500Y028840D01*
X027133Y028840D01*
X026165Y029808D01*
X026083Y029890D01*
X025857Y029890D01*
X025847Y029915D01*
X025765Y029997D01*
X025658Y030041D01*
X025542Y030041D01*
X025435Y029997D01*
X025353Y029915D01*
X025309Y029808D01*
X025309Y029692D01*
X025353Y029585D01*
X025435Y029503D01*
X025542Y029459D01*
X025658Y029459D01*
X025765Y029503D01*
X025847Y029585D01*
X025857Y029610D01*
X025967Y029610D01*
X027017Y028560D01*
X027500Y028560D01*
X027500Y028559D01*
X027559Y028500D01*
X027841Y028500D01*
X027850Y028509D01*
X027859Y028500D01*
X028077Y028500D01*
X028185Y028392D01*
X028185Y027704D01*
X028167Y027722D01*
X027977Y027722D01*
X027920Y027746D01*
X027780Y027746D01*
X027723Y027722D01*
X027533Y027722D01*
X027511Y027700D01*
X026980Y027700D01*
X026852Y027647D01*
X026753Y027548D01*
X025175Y025970D01*
X025107Y025970D01*
X024934Y025898D01*
X024802Y025766D01*
X024730Y025593D01*
X024730Y025407D01*
X024802Y025234D01*
X024897Y025138D01*
X024670Y025138D01*
X024670Y025911D01*
X024611Y025970D01*
X024290Y025970D01*
X024290Y026142D01*
X024933Y026785D01*
X024951Y026803D01*
X024976Y026812D01*
X024980Y026820D01*
X025045Y026852D01*
X025082Y026852D01*
X025117Y026886D01*
X025138Y026896D01*
X025138Y026896D01*
X025138Y026896D01*
X025145Y026914D01*
X025198Y026968D01*
X025198Y027132D01*
X025082Y027248D01*
X024918Y027248D01*
X024864Y027195D01*
X024846Y027188D01*
X024836Y027167D01*
X024802Y027132D01*
X024802Y027095D01*
X024770Y027030D01*
X024762Y027026D01*
X024753Y027001D01*
X024735Y026983D01*
X024670Y026918D01*
X024754Y027121D01*
X024754Y027379D01*
X024655Y027618D01*
X024472Y027801D01*
X024233Y027900D01*
X023975Y027900D01*
X023736Y027801D01*
X023553Y027618D01*
X023454Y027379D01*
X023454Y027121D01*
X023553Y026882D01*
X023736Y026699D01*
X023975Y026600D01*
X024233Y026600D01*
X024436Y026684D01*
X024010Y026258D01*
X024010Y025970D01*
X023789Y025970D01*
X023730Y025911D01*
X023730Y025138D01*
X023503Y025138D01*
X023598Y025234D01*
X023670Y025407D01*
X023670Y025593D01*
X023598Y025766D01*
X023466Y025898D01*
X023293Y025970D01*
X023107Y025970D01*
X022934Y025898D01*
X022802Y025766D01*
X022730Y025593D01*
X022730Y025407D01*
X022802Y025234D01*
X022897Y025138D01*
X022638Y025138D01*
X022638Y037862D01*
X022897Y037862D01*
X022802Y037766D01*
X022730Y037593D01*
X022730Y037407D01*
X022802Y037234D01*
X022934Y037102D01*
X023107Y037030D01*
X023293Y037030D01*
X023375Y037064D01*
X023375Y036313D01*
X023725Y035963D01*
X023725Y035759D01*
X023784Y035700D01*
X023963Y035700D01*
X024066Y035597D01*
X024072Y035575D01*
X024089Y035565D01*
X024127Y035498D01*
X024127Y035468D01*
X024165Y035429D01*
X024182Y035399D01*
X024201Y035394D01*
X024243Y035352D01*
X024407Y035352D01*
X024523Y035468D01*
X024523Y035632D01*
X024481Y035674D01*
X024476Y035693D01*
X024476Y035693D01*
X024476Y035693D01*
X024446Y035710D01*
X024407Y035748D01*
X024377Y035748D01*
X024310Y035786D01*
X024300Y035803D01*
X024278Y035809D01*
X024125Y035962D01*
X024125Y036041D01*
X024066Y036100D01*
X024012Y036100D01*
X023987Y036125D01*
X023675Y036437D01*
X023675Y037237D01*
X023622Y037290D01*
X023670Y037407D01*
X023670Y037593D01*
X023598Y037766D01*
X023503Y037862D01*
X023730Y037862D01*
X023730Y037089D01*
X023675Y037089D01*
X023730Y037089D02*
X023789Y037030D01*
X024000Y037030D01*
X024000Y036538D01*
X024625Y035913D01*
X024625Y035784D01*
X024675Y035734D01*
X024675Y035663D01*
X024875Y035463D01*
X024891Y035447D01*
X024897Y035425D01*
X024914Y035415D01*
X024952Y035348D01*
X024952Y035318D01*
X024990Y035279D01*
X025007Y035249D01*
X025026Y035244D01*
X025068Y035202D01*
X025232Y035202D01*
X025348Y035318D01*
X025348Y035482D01*
X025306Y035524D01*
X025301Y035543D01*
X025301Y035543D01*
X025301Y035543D01*
X025271Y035560D01*
X025232Y035598D01*
X025202Y035598D01*
X025135Y035636D01*
X025125Y035653D01*
X025103Y035659D01*
X025087Y035675D01*
X025002Y035760D01*
X025025Y035784D01*
X025025Y036066D01*
X024966Y036125D01*
X024837Y036125D01*
X024300Y036662D01*
X024300Y037030D01*
X024611Y037030D01*
X024670Y037089D01*
X024964Y037089D01*
X024934Y037102D02*
X025107Y037030D01*
X025293Y037030D01*
X025360Y037057D01*
X025925Y036492D01*
X025925Y035867D01*
X026042Y035750D01*
X026042Y035750D01*
X026525Y035267D01*
X026547Y035245D01*
X026321Y035245D01*
X026263Y035186D01*
X026263Y034316D01*
X026321Y034258D01*
X026400Y034258D01*
X026400Y032683D01*
X026009Y032292D01*
X025652Y032292D01*
X025593Y032234D01*
X025593Y031363D01*
X025652Y031305D01*
X026266Y031305D01*
X026325Y031363D01*
X026325Y031760D01*
X027450Y031760D01*
X027450Y031759D01*
X027485Y031724D01*
X027485Y031531D01*
X027433Y031531D01*
X027374Y031472D01*
X027374Y030937D01*
X027433Y030878D01*
X028067Y030878D01*
X028126Y030937D01*
X028126Y031472D01*
X028067Y031531D01*
X027765Y031531D01*
X027765Y031700D01*
X027791Y031700D01*
X027850Y031759D01*
X027850Y032041D01*
X027791Y032100D01*
X027509Y032100D01*
X027450Y032041D01*
X027450Y032040D01*
X026325Y032040D01*
X026325Y032042D01*
X026683Y032400D01*
X026800Y032517D01*
X026800Y034258D01*
X026936Y034258D01*
X026994Y034316D01*
X026994Y035150D01*
X027933Y035150D01*
X028657Y035874D01*
X029013Y035874D01*
X029072Y035933D01*
X029072Y036567D01*
X029013Y036626D01*
X028478Y036626D01*
X028419Y036567D01*
X028419Y036202D01*
X027767Y035550D01*
X027637Y035550D01*
X027851Y035765D01*
X027968Y036047D01*
X027968Y036353D01*
X027851Y036635D01*
X027635Y036851D01*
X027353Y036968D01*
X027047Y036968D01*
X026765Y036851D01*
X026549Y036635D01*
X026432Y036353D01*
X026432Y036047D01*
X026517Y035841D01*
X026325Y036033D01*
X026325Y036658D01*
X026208Y036775D01*
X026208Y036775D01*
X025643Y037340D01*
X025670Y037407D01*
X025670Y037593D01*
X025598Y037766D01*
X025503Y037862D01*
X025897Y037862D01*
X025802Y037766D01*
X025730Y037593D01*
X025730Y037407D01*
X025802Y037234D01*
X025934Y037102D01*
X026107Y037030D01*
X026293Y037030D01*
X026466Y037102D01*
X026598Y037234D01*
X026670Y037407D01*
X026670Y037593D01*
X026598Y037766D01*
X026503Y037862D01*
X026897Y037862D01*
X026802Y037766D01*
X026730Y037593D01*
X026730Y037407D01*
X026802Y037234D01*
X026934Y037102D01*
X027107Y037030D01*
X027293Y037030D01*
X027466Y037102D01*
X027598Y037234D01*
X027670Y037407D01*
X027670Y037593D01*
X027598Y037766D01*
X027503Y037862D01*
X027897Y037862D01*
X027802Y037766D01*
X027730Y037593D01*
X027730Y037407D01*
X027802Y037234D01*
X027934Y037102D01*
X028107Y037030D01*
X028293Y037030D01*
X028466Y037102D01*
X028598Y037234D01*
X028670Y037407D01*
X028670Y037593D01*
X028598Y037766D01*
X028503Y037862D01*
X028897Y037862D01*
X028802Y037766D01*
X028730Y037593D01*
X028730Y037407D01*
X028802Y037234D01*
X028934Y037102D01*
X029107Y037030D01*
X029293Y037030D01*
X029466Y037102D01*
X029598Y037234D01*
X029670Y037407D01*
X029670Y037593D01*
X029598Y037766D01*
X029503Y037862D01*
X029897Y037862D01*
X029802Y037766D01*
X029730Y037593D01*
X029730Y037407D01*
X029802Y037234D01*
X029850Y037185D01*
X029850Y037076D01*
X029903Y036947D01*
X030002Y036849D01*
X030009Y036846D01*
X030661Y036194D01*
X030669Y036173D01*
X030669Y035983D01*
X030728Y035924D01*
X031263Y035924D01*
X031322Y035983D01*
X031322Y036173D01*
X031346Y036230D01*
X031346Y036424D01*
X031322Y036481D01*
X031322Y036617D01*
X031263Y036676D01*
X031169Y036676D01*
X030602Y037243D01*
X030670Y037407D01*
X030670Y037593D01*
X030598Y037766D01*
X030503Y037862D01*
X030897Y037862D01*
X030802Y037766D01*
X030730Y037593D01*
X030730Y037407D01*
X030802Y037234D01*
X030934Y037102D01*
X031107Y037030D01*
X031293Y037030D01*
X031466Y037102D01*
X031598Y037234D01*
X031670Y037407D01*
X031670Y037593D01*
X031598Y037766D01*
X031503Y037862D01*
X031897Y037862D01*
X031802Y037766D01*
X031730Y037593D01*
X031730Y037407D01*
X031802Y037234D01*
X031934Y037102D01*
X032107Y037030D01*
X032293Y037030D01*
X032466Y037102D01*
X032598Y037234D01*
X032670Y037407D01*
X032670Y037593D01*
X032598Y037766D01*
X032503Y037862D01*
X032897Y037862D01*
X032802Y037766D01*
X032730Y037593D01*
X032730Y037407D01*
X032802Y037234D01*
X032934Y037102D01*
X033107Y037030D01*
X033293Y037030D01*
X033466Y037102D01*
X033598Y037234D01*
X033670Y037407D01*
X033670Y037593D01*
X033598Y037766D01*
X033503Y037862D01*
X033897Y037862D01*
X033802Y037766D01*
X033730Y037593D01*
X033730Y037407D01*
X033802Y037234D01*
X033934Y037102D01*
X034107Y037030D01*
X034293Y037030D01*
X034466Y037102D01*
X034598Y037234D01*
X034670Y037407D01*
X034670Y037593D01*
X034598Y037766D01*
X034503Y037862D01*
X034897Y037862D01*
X034802Y037766D01*
X034730Y037593D01*
X034730Y037407D01*
X034802Y037234D01*
X034934Y037102D01*
X035107Y037030D01*
X035293Y037030D01*
X035466Y037102D01*
X035598Y037234D01*
X035670Y037407D01*
X035670Y037593D01*
X035598Y037766D01*
X035503Y037862D01*
X035897Y037862D01*
X035802Y037766D01*
X035730Y037593D01*
X035730Y037407D01*
X035802Y037234D01*
X035934Y037102D01*
X036107Y037030D01*
X036293Y037030D01*
X036466Y037102D01*
X036598Y037234D01*
X036670Y037407D01*
X036670Y037593D01*
X036598Y037766D01*
X036503Y037862D01*
X036897Y037862D01*
X036802Y037766D01*
X036730Y037593D01*
X036730Y037407D01*
X036802Y037234D01*
X036934Y037102D01*
X037107Y037030D01*
X037293Y037030D01*
X037466Y037102D01*
X037598Y037234D01*
X037670Y037407D01*
X037670Y037593D01*
X037598Y037766D01*
X037503Y037862D01*
X037897Y037862D01*
X037802Y037766D01*
X037730Y037593D01*
X037730Y037407D01*
X037802Y037234D01*
X037934Y037102D01*
X038107Y037030D01*
X038293Y037030D01*
X038466Y037102D01*
X038598Y037234D01*
X038670Y037407D01*
X038670Y037593D01*
X038598Y037766D01*
X038503Y037862D01*
X038897Y037862D01*
X038802Y037766D01*
X038730Y037593D01*
X038730Y037407D01*
X038802Y037234D01*
X038934Y037102D01*
X039107Y037030D01*
X039293Y037030D01*
X039466Y037102D01*
X039598Y037234D01*
X039670Y037407D01*
X039670Y037593D01*
X039598Y037766D01*
X039503Y037862D01*
X039897Y037862D01*
X039802Y037766D01*
X039730Y037593D01*
X039730Y037407D01*
X039802Y037234D01*
X039934Y037102D01*
X040107Y037030D01*
X040293Y037030D01*
X040466Y037102D01*
X040598Y037234D01*
X040670Y037407D01*
X040670Y037593D01*
X040598Y037766D01*
X040503Y037862D01*
X040897Y037862D01*
X040802Y037766D01*
X040730Y037593D01*
X040730Y037407D01*
X040802Y037234D01*
X040934Y037102D01*
X041107Y037030D01*
X041235Y037030D01*
X040953Y036748D01*
X040900Y036620D01*
X040900Y035631D01*
X040883Y035631D01*
X040824Y035572D01*
X040824Y035037D01*
X040883Y034978D01*
X041073Y034978D01*
X041130Y034954D01*
X041270Y034954D01*
X041327Y034978D01*
X041517Y034978D01*
X041576Y035037D01*
X041576Y035226D01*
X041600Y035285D01*
X041600Y036405D01*
X042225Y037030D01*
X042562Y037030D01*
X042562Y025970D01*
X041789Y025970D01*
X041730Y025911D01*
X041730Y025138D01*
X041503Y025138D01*
X041598Y025234D01*
X041670Y025407D01*
X041670Y025593D01*
X041598Y025766D01*
X041466Y025898D01*
X041293Y025970D01*
X041107Y025970D01*
X040934Y025898D01*
X040802Y025766D01*
X040730Y025593D01*
X040730Y025407D01*
X040802Y025234D01*
X040897Y025138D01*
X040503Y025138D01*
X040598Y025234D01*
X040670Y025407D01*
X040670Y025593D01*
X040598Y025766D01*
X040466Y025898D01*
X040293Y025970D01*
X040107Y025970D01*
X039934Y025898D01*
X039802Y025766D01*
X039730Y025593D01*
X039730Y025407D01*
X039802Y025234D01*
X039897Y025138D01*
X039503Y025138D01*
X039598Y025234D01*
X039670Y025407D01*
X039670Y025593D01*
X039598Y025766D01*
X039466Y025898D01*
X039293Y025970D01*
X039107Y025970D01*
X038934Y025898D01*
X038802Y025766D01*
X038730Y025593D01*
X038730Y025407D01*
X038802Y025234D01*
X038897Y025138D01*
X038503Y025138D01*
X038598Y025234D01*
X038670Y025407D01*
X038670Y025593D01*
X038598Y025766D01*
X038466Y025898D01*
X038293Y025970D01*
X038107Y025970D01*
X037934Y025898D01*
X037802Y025766D01*
X037730Y025593D01*
X037730Y025407D01*
X037802Y025234D01*
X037897Y025138D01*
X037503Y025138D01*
X037598Y025234D01*
X037670Y025407D01*
X037670Y025593D01*
X037598Y025766D01*
X037466Y025898D01*
X037293Y025970D01*
X037107Y025970D01*
X036934Y025898D01*
X036802Y025766D01*
X036730Y025593D01*
X036730Y025407D01*
X036802Y025234D01*
X036897Y025138D01*
X036503Y025138D01*
X036598Y025234D01*
X036670Y025407D01*
X036670Y025593D01*
X036598Y025766D01*
X036466Y025898D01*
X036293Y025970D01*
X036107Y025970D01*
X035934Y025898D01*
X035802Y025766D01*
X035730Y025593D01*
X035730Y025407D01*
X035802Y025234D01*
X035897Y025138D01*
X035503Y025138D01*
X035598Y025234D01*
X035670Y025407D01*
X035670Y025593D01*
X035598Y025766D01*
X035466Y025898D01*
X035293Y025970D01*
X035107Y025970D01*
X034934Y025898D01*
X034802Y025766D01*
X034730Y025593D01*
X034730Y025407D01*
X034802Y025234D01*
X034897Y025138D01*
X034503Y025138D01*
X034598Y025234D01*
X034670Y025407D01*
X034670Y025593D01*
X034598Y025766D01*
X034466Y025898D01*
X034293Y025970D01*
X034107Y025970D01*
X033934Y025898D01*
X033802Y025766D01*
X033730Y025593D01*
X033730Y025407D01*
X033802Y025234D01*
X033897Y025138D01*
X033503Y025138D01*
X033598Y025234D01*
X033670Y025407D01*
X033670Y025593D01*
X033598Y025766D01*
X033466Y025898D01*
X033293Y025970D01*
X033107Y025970D01*
X032934Y025898D01*
X032802Y025766D01*
X032730Y025593D01*
X032730Y025407D01*
X032802Y025234D01*
X032897Y025138D01*
X032503Y025138D01*
X032598Y025234D01*
X032670Y025407D01*
X032670Y025593D01*
X032598Y025766D01*
X032466Y025898D01*
X032431Y025913D01*
X033118Y026600D01*
X035068Y026600D01*
X036068Y027600D01*
X036200Y027732D01*
X036200Y027877D01*
X036256Y027933D01*
X036227Y027905D02*
X038522Y027905D01*
X038412Y027826D02*
X036200Y027826D01*
X036200Y027748D02*
X038334Y027748D01*
X038292Y027669D02*
X036137Y027669D01*
X036059Y027591D02*
X038259Y027591D01*
X038235Y027512D02*
X035980Y027512D01*
X035902Y027434D02*
X038235Y027434D01*
X038235Y027355D02*
X035823Y027355D01*
X035745Y027277D02*
X038252Y027277D01*
X038285Y027198D02*
X035666Y027198D01*
X035588Y027120D02*
X038317Y027120D01*
X038395Y027041D02*
X035509Y027041D01*
X035431Y026963D02*
X038480Y026963D01*
X038361Y025942D02*
X039039Y025942D01*
X038899Y025864D02*
X038501Y025864D01*
X038580Y025785D02*
X038820Y025785D01*
X038777Y025707D02*
X038623Y025707D01*
X038656Y025628D02*
X038744Y025628D01*
X038730Y025550D02*
X038670Y025550D01*
X038670Y025471D02*
X038730Y025471D01*
X038736Y025393D02*
X038664Y025393D01*
X038632Y025314D02*
X038768Y025314D01*
X038801Y025236D02*
X038599Y025236D01*
X038522Y025157D02*
X038878Y025157D01*
X039522Y025157D02*
X039878Y025157D01*
X039801Y025236D02*
X039599Y025236D01*
X039632Y025314D02*
X039768Y025314D01*
X039736Y025393D02*
X039664Y025393D01*
X039670Y025471D02*
X039730Y025471D01*
X039730Y025550D02*
X039670Y025550D01*
X039656Y025628D02*
X039744Y025628D01*
X039777Y025707D02*
X039623Y025707D01*
X039580Y025785D02*
X039820Y025785D01*
X039899Y025864D02*
X039501Y025864D01*
X039361Y025942D02*
X040039Y025942D01*
X040361Y025942D02*
X041039Y025942D01*
X040899Y025864D02*
X040501Y025864D01*
X040580Y025785D02*
X040820Y025785D01*
X040777Y025707D02*
X040623Y025707D01*
X040656Y025628D02*
X040744Y025628D01*
X040730Y025550D02*
X040670Y025550D01*
X040670Y025471D02*
X040730Y025471D01*
X040736Y025393D02*
X040664Y025393D01*
X040632Y025314D02*
X040768Y025314D01*
X040801Y025236D02*
X040599Y025236D01*
X040522Y025157D02*
X040878Y025157D01*
X041522Y025157D02*
X041730Y025157D01*
X041730Y025236D02*
X041599Y025236D01*
X041632Y025314D02*
X041730Y025314D01*
X041730Y025393D02*
X041664Y025393D01*
X041670Y025471D02*
X041730Y025471D01*
X041730Y025550D02*
X041670Y025550D01*
X041656Y025628D02*
X041730Y025628D01*
X041730Y025707D02*
X041623Y025707D01*
X041580Y025785D02*
X041730Y025785D01*
X041730Y025864D02*
X041501Y025864D01*
X041361Y025942D02*
X041761Y025942D01*
X042562Y026021D02*
X032539Y026021D01*
X032617Y026099D02*
X042562Y026099D01*
X042562Y026178D02*
X032696Y026178D01*
X032774Y026256D02*
X042562Y026256D01*
X042562Y026335D02*
X032853Y026335D01*
X032931Y026413D02*
X042562Y026413D01*
X042562Y026492D02*
X033010Y026492D01*
X033088Y026570D02*
X042562Y026570D01*
X042562Y026649D02*
X035117Y026649D01*
X035195Y026727D02*
X042562Y026727D01*
X042562Y026806D02*
X035274Y026806D01*
X035352Y026884D02*
X042562Y026884D01*
X042562Y028062D02*
X036256Y028062D01*
X036256Y028140D02*
X042562Y028140D01*
X042562Y028219D02*
X036256Y028219D01*
X036256Y028297D02*
X042562Y028297D01*
X042562Y028376D02*
X036256Y028376D01*
X036256Y028454D02*
X042562Y028454D01*
X042562Y028533D02*
X036256Y028533D01*
X036212Y028611D02*
X042562Y028611D01*
X042562Y028690D02*
X036612Y028690D01*
X036690Y028768D02*
X042562Y028768D01*
X042562Y028847D02*
X036769Y028847D01*
X036847Y028925D02*
X042562Y028925D01*
X042562Y029004D02*
X036925Y029004D01*
X036925Y029082D02*
X042562Y029082D01*
X042562Y029161D02*
X036925Y029161D01*
X036936Y029239D02*
X042562Y029239D01*
X042562Y029318D02*
X036975Y029318D01*
X036975Y029396D02*
X042562Y029396D01*
X042562Y029475D02*
X036975Y029475D01*
X036975Y029553D02*
X042562Y029553D01*
X042562Y029632D02*
X040538Y029632D01*
X040511Y029605D02*
X040570Y029664D01*
X040570Y030486D01*
X040511Y030545D01*
X039689Y030545D01*
X039634Y030490D01*
X038400Y030490D01*
X038400Y030491D01*
X038366Y030525D01*
X038400Y030559D01*
X038400Y030560D01*
X039858Y030560D01*
X039933Y030635D01*
X040007Y030605D01*
X040193Y030605D01*
X040366Y030677D01*
X040498Y030809D01*
X040570Y030982D01*
X040570Y031168D01*
X040498Y031341D01*
X040366Y031473D01*
X040193Y031545D01*
X040007Y031545D01*
X039834Y031473D01*
X039702Y031341D01*
X039630Y031168D01*
X039630Y030982D01*
X039689Y030840D01*
X038400Y030840D01*
X038400Y030841D01*
X038341Y030900D01*
X038059Y030900D01*
X038050Y030891D01*
X038041Y030900D01*
X037759Y030900D01*
X037702Y030843D01*
X037686Y030851D01*
X037677Y030848D01*
X037608Y030872D01*
X037582Y030898D01*
X037534Y030898D01*
X037511Y030906D01*
X037511Y030906D01*
X037511Y030906D01*
X037494Y030898D01*
X037418Y030898D01*
X037302Y030782D01*
X037302Y030618D01*
X037369Y030550D01*
X037302Y030482D01*
X037302Y030318D01*
X037418Y030202D01*
X037494Y030202D01*
X037511Y030194D01*
X037515Y030195D01*
X037534Y030202D01*
X037582Y030202D01*
X037608Y030228D01*
X037677Y030252D01*
X037686Y030249D01*
X037700Y030256D01*
X037700Y030209D01*
X037759Y030150D01*
X038041Y030150D01*
X038050Y030159D01*
X038059Y030150D01*
X038341Y030150D01*
X038400Y030209D01*
X038400Y030210D01*
X039630Y030210D01*
X039630Y029664D01*
X039689Y029605D01*
X040511Y029605D01*
X040570Y029710D02*
X042562Y029710D01*
X042562Y029789D02*
X040570Y029789D01*
X040570Y029867D02*
X042562Y029867D01*
X042562Y029946D02*
X040570Y029946D01*
X040570Y030024D02*
X042562Y030024D01*
X042562Y030103D02*
X040570Y030103D01*
X040570Y030181D02*
X042562Y030181D01*
X042562Y030260D02*
X040570Y030260D01*
X040570Y030338D02*
X042562Y030338D01*
X042562Y030417D02*
X040570Y030417D01*
X040561Y030495D02*
X042562Y030495D01*
X042562Y030574D02*
X039872Y030574D01*
X039800Y030700D02*
X040100Y031000D01*
X040100Y031075D01*
X040531Y030888D02*
X042562Y030888D01*
X042562Y030966D02*
X040564Y030966D01*
X040570Y031045D02*
X042562Y031045D01*
X042562Y031123D02*
X040570Y031123D01*
X040556Y031202D02*
X042562Y031202D01*
X042562Y031280D02*
X040524Y031280D01*
X040481Y031359D02*
X042562Y031359D01*
X042562Y031437D02*
X040403Y031437D01*
X040265Y031516D02*
X042562Y031516D01*
X042562Y031594D02*
X037118Y031594D01*
X037150Y031516D02*
X039935Y031516D01*
X039797Y031437D02*
X037150Y031437D01*
X037150Y031359D02*
X039719Y031359D01*
X039676Y031280D02*
X037150Y031280D01*
X037150Y031202D02*
X039644Y031202D01*
X039630Y031123D02*
X037150Y031123D01*
X037150Y031045D02*
X039630Y031045D01*
X039636Y030966D02*
X037150Y030966D01*
X037150Y030888D02*
X037407Y030888D01*
X037328Y030809D02*
X037150Y030809D01*
X037150Y030731D02*
X037302Y030731D01*
X037302Y030652D02*
X037150Y030652D01*
X037150Y030574D02*
X037346Y030574D01*
X037314Y030495D02*
X037150Y030495D01*
X037150Y030417D02*
X037302Y030417D01*
X037302Y030338D02*
X037150Y030338D01*
X037122Y030260D02*
X037360Y030260D01*
X037519Y030345D02*
X037500Y030400D01*
X037519Y030455D01*
X037677Y030400D01*
X037519Y030345D01*
X037500Y030400D02*
X037677Y030400D01*
X037850Y030400D01*
X037900Y030350D01*
X037728Y030181D02*
X037043Y030181D01*
X036965Y030103D02*
X039630Y030103D01*
X039630Y030181D02*
X038372Y030181D01*
X038200Y030350D02*
X039825Y030350D01*
X040100Y030075D01*
X039630Y030024D02*
X036950Y030024D01*
X036950Y029946D02*
X039630Y029946D01*
X039630Y029867D02*
X036950Y029867D01*
X036959Y029789D02*
X039630Y029789D01*
X039630Y029710D02*
X036975Y029710D01*
X036975Y029632D02*
X039662Y029632D01*
X039639Y030495D02*
X038396Y030495D01*
X038200Y030700D02*
X039800Y030700D01*
X039669Y030888D02*
X038354Y030888D01*
X037900Y030700D02*
X037677Y030700D01*
X037519Y030645D01*
X037500Y030700D01*
X037519Y030755D01*
X037677Y030700D01*
X037500Y030700D01*
X037593Y030888D02*
X037746Y030888D01*
X036850Y030888D02*
X035802Y030888D01*
X035802Y030966D02*
X036850Y030966D01*
X036850Y031045D02*
X035857Y031045D01*
X035935Y031123D02*
X036850Y031123D01*
X036850Y031202D02*
X036014Y031202D01*
X036092Y031280D02*
X036850Y031280D01*
X036850Y031359D02*
X036171Y031359D01*
X036249Y031437D02*
X036841Y031437D01*
X036850Y031422D02*
X036850Y031422D01*
X036704Y031516D02*
X036328Y031516D01*
X036406Y031594D02*
X036627Y031594D01*
X036674Y031532D02*
X036674Y031532D01*
X036627Y031673D02*
X036485Y031673D01*
X036563Y031751D02*
X036627Y031751D01*
X036642Y031830D02*
X036699Y031830D01*
X036720Y031908D02*
X042562Y031908D01*
X042562Y031830D02*
X036955Y031830D01*
X036968Y031826D02*
X036968Y031826D01*
X036968Y031826D01*
X037023Y031751D02*
X042562Y031751D01*
X042562Y031673D02*
X037054Y031673D01*
X036799Y031987D02*
X042562Y031987D01*
X042562Y032065D02*
X036877Y032065D01*
X036956Y032144D02*
X042562Y032144D01*
X042562Y032222D02*
X037034Y032222D01*
X037113Y032301D02*
X042562Y032301D01*
X042562Y032379D02*
X037191Y032379D01*
X037270Y032458D02*
X042562Y032458D01*
X042562Y032536D02*
X037348Y032536D01*
X037350Y032615D02*
X042562Y032615D01*
X042562Y032693D02*
X037350Y032693D01*
X037350Y032772D02*
X042562Y032772D01*
X042562Y032850D02*
X037350Y032850D01*
X037350Y032929D02*
X042562Y032929D01*
X042562Y033007D02*
X037350Y033007D01*
X037350Y033086D02*
X042562Y033086D01*
X042562Y033164D02*
X037350Y033164D01*
X037350Y033243D02*
X042562Y033243D01*
X042562Y033321D02*
X037350Y033321D01*
X037350Y033400D02*
X042562Y033400D01*
X042562Y033478D02*
X037350Y033478D01*
X037350Y033557D02*
X042562Y033557D01*
X042562Y033635D02*
X037350Y033635D01*
X037050Y033635D02*
X036027Y033635D01*
X035949Y033714D02*
X036116Y033714D01*
X036116Y033792D02*
X035870Y033792D01*
X035809Y033871D02*
X036116Y033871D01*
X036116Y033949D02*
X035809Y033949D01*
X035809Y034028D02*
X036116Y034028D01*
X036116Y034106D02*
X035809Y034106D01*
X035809Y034185D02*
X036116Y034185D01*
X036116Y034263D02*
X035809Y034263D01*
X035809Y034342D02*
X036116Y034342D01*
X036116Y034420D02*
X035809Y034420D01*
X035809Y034499D02*
X036116Y034499D01*
X036116Y034577D02*
X035809Y034577D01*
X035800Y034656D02*
X036125Y034656D01*
X036174Y035095D02*
X038226Y035095D01*
X038284Y035154D01*
X038284Y036103D01*
X038226Y036161D01*
X036326Y036161D01*
X035982Y036505D01*
X035980Y036507D01*
X035980Y036509D01*
X035948Y036540D01*
X035923Y036577D01*
X035906Y036581D01*
X035900Y036587D01*
X035812Y036675D01*
X035806Y036675D01*
X035757Y036723D01*
X035593Y036723D01*
X035477Y036607D01*
X035477Y036443D01*
X035570Y036350D01*
X035574Y036343D01*
X035577Y036343D01*
X035593Y036327D01*
X035655Y036327D01*
X035758Y036305D01*
X035770Y036293D01*
X036116Y035947D01*
X036116Y035154D01*
X036174Y035095D01*
X036143Y035127D02*
X035782Y035127D01*
X035809Y035154D02*
X035809Y036103D01*
X035751Y036161D01*
X033699Y036161D01*
X033641Y036103D01*
X033641Y035775D01*
X033316Y035775D01*
X033296Y035786D01*
X033277Y035781D01*
X033204Y035802D01*
X033182Y035823D01*
X033128Y035823D01*
X033127Y035824D01*
X033094Y035833D01*
X033078Y035823D01*
X033018Y035823D01*
X032902Y035707D01*
X032902Y035543D01*
X033018Y035427D01*
X033078Y035427D01*
X033094Y035417D01*
X033103Y035420D01*
X033128Y035427D01*
X033182Y035427D01*
X033204Y035448D01*
X033277Y035469D01*
X033296Y035464D01*
X033316Y035475D01*
X033641Y035475D01*
X033641Y035154D01*
X033699Y035095D01*
X035751Y035095D01*
X035809Y035154D01*
X035809Y035205D02*
X036116Y035205D01*
X036116Y035284D02*
X035809Y035284D01*
X035809Y035362D02*
X036116Y035362D01*
X036116Y035441D02*
X035809Y035441D01*
X035809Y035519D02*
X036116Y035519D01*
X036116Y035598D02*
X035809Y035598D01*
X035809Y035676D02*
X036116Y035676D01*
X036116Y035755D02*
X035809Y035755D01*
X035809Y035833D02*
X036116Y035833D01*
X036116Y035912D02*
X035809Y035912D01*
X035809Y035990D02*
X036073Y035990D01*
X035994Y036069D02*
X035809Y036069D01*
X035765Y036147D02*
X035916Y036147D01*
X035837Y036226D02*
X031344Y036226D01*
X031346Y036304D02*
X035759Y036304D01*
X035574Y036343D02*
X035574Y036343D01*
X035574Y036343D01*
X035537Y036383D02*
X031346Y036383D01*
X031330Y036461D02*
X035477Y036461D01*
X035477Y036540D02*
X031322Y036540D01*
X031321Y036618D02*
X035487Y036618D01*
X035566Y036697D02*
X031148Y036697D01*
X031070Y036775D02*
X040980Y036775D01*
X040932Y036697D02*
X035784Y036697D01*
X035869Y036618D02*
X040900Y036618D01*
X040900Y036540D02*
X035948Y036540D01*
X036026Y036461D02*
X040900Y036461D01*
X040900Y036383D02*
X036105Y036383D01*
X036183Y036304D02*
X040900Y036304D01*
X040900Y036226D02*
X036262Y036226D01*
X036436Y037089D02*
X036964Y037089D01*
X036868Y037168D02*
X036532Y037168D01*
X036604Y037246D02*
X036796Y037246D01*
X036764Y037325D02*
X036636Y037325D01*
X036669Y037403D02*
X036731Y037403D01*
X036730Y037482D02*
X036670Y037482D01*
X036670Y037560D02*
X036730Y037560D01*
X036749Y037639D02*
X036651Y037639D01*
X036619Y037717D02*
X036781Y037717D01*
X036831Y037796D02*
X036569Y037796D01*
X035831Y037796D02*
X035569Y037796D01*
X035619Y037717D02*
X035781Y037717D01*
X035749Y037639D02*
X035651Y037639D01*
X035670Y037560D02*
X035730Y037560D01*
X035730Y037482D02*
X035670Y037482D01*
X035669Y037403D02*
X035731Y037403D01*
X035764Y037325D02*
X035636Y037325D01*
X035604Y037246D02*
X035796Y037246D01*
X035868Y037168D02*
X035532Y037168D01*
X035436Y037089D02*
X035964Y037089D01*
X034964Y037089D02*
X034436Y037089D01*
X034532Y037168D02*
X034868Y037168D01*
X034796Y037246D02*
X034604Y037246D01*
X034636Y037325D02*
X034764Y037325D01*
X034731Y037403D02*
X034669Y037403D01*
X034670Y037482D02*
X034730Y037482D01*
X034730Y037560D02*
X034670Y037560D01*
X034651Y037639D02*
X034749Y037639D01*
X034781Y037717D02*
X034619Y037717D01*
X034569Y037796D02*
X034831Y037796D01*
X033831Y037796D02*
X033569Y037796D01*
X033619Y037717D02*
X033781Y037717D01*
X033749Y037639D02*
X033651Y037639D01*
X033670Y037560D02*
X033730Y037560D01*
X033730Y037482D02*
X033670Y037482D01*
X033669Y037403D02*
X033731Y037403D01*
X033764Y037325D02*
X033636Y037325D01*
X033604Y037246D02*
X033796Y037246D01*
X033868Y037168D02*
X033532Y037168D01*
X033436Y037089D02*
X033964Y037089D01*
X032964Y037089D02*
X032436Y037089D01*
X032532Y037168D02*
X032868Y037168D01*
X032796Y037246D02*
X032604Y037246D01*
X032636Y037325D02*
X032764Y037325D01*
X032731Y037403D02*
X032669Y037403D01*
X032670Y037482D02*
X032730Y037482D01*
X032730Y037560D02*
X032670Y037560D01*
X032651Y037639D02*
X032749Y037639D01*
X032781Y037717D02*
X032619Y037717D01*
X032569Y037796D02*
X032831Y037796D01*
X031831Y037796D02*
X031569Y037796D01*
X031619Y037717D02*
X031781Y037717D01*
X031749Y037639D02*
X031651Y037639D01*
X031670Y037560D02*
X031730Y037560D01*
X031730Y037482D02*
X031670Y037482D01*
X031669Y037403D02*
X031731Y037403D01*
X031764Y037325D02*
X031636Y037325D01*
X031604Y037246D02*
X031796Y037246D01*
X031868Y037168D02*
X031532Y037168D01*
X031436Y037089D02*
X031964Y037089D01*
X030964Y037089D02*
X030756Y037089D01*
X030834Y037011D02*
X041216Y037011D01*
X041137Y036932D02*
X030913Y036932D01*
X030991Y036854D02*
X041059Y036854D01*
X040964Y037089D02*
X040436Y037089D01*
X040532Y037168D02*
X040868Y037168D01*
X040796Y037246D02*
X040604Y037246D01*
X040636Y037325D02*
X040764Y037325D01*
X040731Y037403D02*
X040669Y037403D01*
X040670Y037482D02*
X040730Y037482D01*
X040730Y037560D02*
X040670Y037560D01*
X040651Y037639D02*
X040749Y037639D01*
X040781Y037717D02*
X040619Y037717D01*
X040569Y037796D02*
X040831Y037796D01*
X041503Y037862D02*
X041598Y037766D01*
X041670Y037593D01*
X041670Y037465D01*
X041730Y037525D01*
X041730Y037862D01*
X041503Y037862D01*
X041569Y037796D02*
X041730Y037796D01*
X041730Y037717D02*
X041619Y037717D01*
X041651Y037639D02*
X041730Y037639D01*
X041730Y037560D02*
X041670Y037560D01*
X041670Y037482D02*
X041687Y037482D01*
X042206Y037011D02*
X042562Y037011D01*
X042562Y036932D02*
X042127Y036932D01*
X042049Y036854D02*
X042562Y036854D01*
X042562Y036775D02*
X041970Y036775D01*
X041892Y036697D02*
X042562Y036697D01*
X042562Y036618D02*
X041813Y036618D01*
X041735Y036540D02*
X042562Y036540D01*
X042562Y036461D02*
X041656Y036461D01*
X041600Y036383D02*
X042562Y036383D01*
X042562Y036304D02*
X041600Y036304D01*
X041600Y036226D02*
X042562Y036226D01*
X042562Y036147D02*
X041600Y036147D01*
X041600Y036069D02*
X042562Y036069D01*
X042562Y035990D02*
X041600Y035990D01*
X041600Y035912D02*
X042562Y035912D01*
X042562Y035833D02*
X041600Y035833D01*
X041600Y035755D02*
X042562Y035755D01*
X042562Y035676D02*
X041600Y035676D01*
X041600Y035598D02*
X042562Y035598D01*
X042562Y035519D02*
X041600Y035519D01*
X041600Y035441D02*
X042562Y035441D01*
X042562Y035362D02*
X041600Y035362D01*
X041600Y035284D02*
X042562Y035284D01*
X042562Y035205D02*
X041576Y035205D01*
X041576Y035127D02*
X042562Y035127D01*
X042562Y035048D02*
X041576Y035048D01*
X041306Y034970D02*
X042562Y034970D01*
X042562Y034891D02*
X031682Y034891D01*
X031760Y034813D02*
X042562Y034813D01*
X042562Y034734D02*
X031839Y034734D01*
X031917Y034656D02*
X033650Y034656D01*
X033641Y034577D02*
X031996Y034577D01*
X032074Y034499D02*
X033641Y034499D01*
X033641Y034420D02*
X032153Y034420D01*
X032231Y034342D02*
X033641Y034342D01*
X033641Y034263D02*
X032310Y034263D01*
X032388Y034185D02*
X033641Y034185D01*
X033641Y034106D02*
X032467Y034106D01*
X032545Y034028D02*
X033641Y034028D01*
X033641Y033949D02*
X032624Y033949D01*
X032702Y033871D02*
X033641Y033871D01*
X033641Y033792D02*
X032781Y033792D01*
X032859Y033714D02*
X033641Y033714D01*
X032938Y033635D02*
X035603Y033635D01*
X035681Y033557D02*
X035366Y033557D01*
X035445Y033478D02*
X035760Y033478D01*
X035838Y033400D02*
X035523Y033400D01*
X035602Y033321D02*
X035917Y033321D01*
X035995Y033243D02*
X035680Y033243D01*
X035759Y033164D02*
X036050Y033164D01*
X036050Y033086D02*
X035837Y033086D01*
X035890Y033007D02*
X036050Y033007D01*
X036050Y032929D02*
X035890Y032929D01*
X035941Y032850D02*
X036050Y032850D01*
X036050Y032772D02*
X035950Y032772D01*
X035950Y032693D02*
X036050Y032693D01*
X036050Y032615D02*
X035950Y032615D01*
X035950Y032536D02*
X036050Y032536D01*
X036050Y032458D02*
X035950Y032458D01*
X035950Y032379D02*
X036050Y032379D01*
X036013Y032301D02*
X035950Y032301D01*
X035935Y032222D02*
X035913Y032222D01*
X035856Y032144D02*
X035182Y032144D01*
X035182Y032065D02*
X035778Y032065D01*
X035699Y031987D02*
X035182Y031987D01*
X035383Y031908D02*
X035621Y031908D01*
X035810Y031673D02*
X036060Y031673D01*
X036139Y031751D02*
X035888Y031751D01*
X035967Y031830D02*
X036217Y031830D01*
X036296Y031908D02*
X036045Y031908D01*
X036124Y031987D02*
X036374Y031987D01*
X036453Y032065D02*
X036202Y032065D01*
X036281Y032144D02*
X036531Y032144D01*
X036610Y032222D02*
X036350Y032222D01*
X036350Y032301D02*
X036688Y032301D01*
X036767Y032379D02*
X036350Y032379D01*
X036350Y032458D02*
X036845Y032458D01*
X036924Y032536D02*
X036350Y032536D01*
X036350Y032615D02*
X037002Y032615D01*
X037050Y032693D02*
X036350Y032693D01*
X036350Y032772D02*
X037050Y032772D01*
X037050Y032850D02*
X036350Y032850D01*
X036350Y032929D02*
X037050Y032929D01*
X037050Y033007D02*
X036350Y033007D01*
X036350Y033086D02*
X037050Y033086D01*
X037050Y033164D02*
X036350Y033164D01*
X036350Y033243D02*
X037050Y033243D01*
X037050Y033321D02*
X036341Y033321D01*
X036263Y033400D02*
X037050Y033400D01*
X037050Y033478D02*
X036184Y033478D01*
X036106Y033557D02*
X037050Y033557D01*
X038284Y033714D02*
X042562Y033714D01*
X042562Y033792D02*
X038284Y033792D01*
X038284Y033871D02*
X042562Y033871D01*
X042562Y033949D02*
X038284Y033949D01*
X038284Y034028D02*
X042562Y034028D01*
X042562Y034106D02*
X038284Y034106D01*
X038284Y034185D02*
X042562Y034185D01*
X042562Y034263D02*
X038284Y034263D01*
X038284Y034342D02*
X042562Y034342D01*
X042562Y034420D02*
X038284Y034420D01*
X038284Y034499D02*
X042562Y034499D01*
X042562Y034577D02*
X038284Y034577D01*
X038275Y034656D02*
X042562Y034656D01*
X041094Y034970D02*
X031603Y034970D01*
X031525Y035048D02*
X040824Y035048D01*
X040824Y035127D02*
X038257Y035127D01*
X038284Y035205D02*
X040824Y035205D01*
X040824Y035284D02*
X038284Y035284D01*
X038284Y035362D02*
X040824Y035362D01*
X040824Y035441D02*
X038284Y035441D01*
X038284Y035519D02*
X040824Y035519D01*
X040850Y035598D02*
X038284Y035598D01*
X038284Y035676D02*
X040900Y035676D01*
X040900Y035755D02*
X038284Y035755D01*
X038284Y035833D02*
X040900Y035833D01*
X040900Y035912D02*
X038284Y035912D01*
X038284Y035990D02*
X040900Y035990D01*
X040900Y036069D02*
X038284Y036069D01*
X038240Y036147D02*
X040900Y036147D01*
X039964Y037089D02*
X039436Y037089D01*
X039532Y037168D02*
X039868Y037168D01*
X039796Y037246D02*
X039604Y037246D01*
X039636Y037325D02*
X039764Y037325D01*
X039731Y037403D02*
X039669Y037403D01*
X039670Y037482D02*
X039730Y037482D01*
X039730Y037560D02*
X039670Y037560D01*
X039651Y037639D02*
X039749Y037639D01*
X039781Y037717D02*
X039619Y037717D01*
X039569Y037796D02*
X039831Y037796D01*
X038831Y037796D02*
X038569Y037796D01*
X038619Y037717D02*
X038781Y037717D01*
X038749Y037639D02*
X038651Y037639D01*
X038670Y037560D02*
X038730Y037560D01*
X038730Y037482D02*
X038670Y037482D01*
X038669Y037403D02*
X038731Y037403D01*
X038764Y037325D02*
X038636Y037325D01*
X038604Y037246D02*
X038796Y037246D01*
X038868Y037168D02*
X038532Y037168D01*
X038436Y037089D02*
X038964Y037089D01*
X037964Y037089D02*
X037436Y037089D01*
X037532Y037168D02*
X037868Y037168D01*
X037796Y037246D02*
X037604Y037246D01*
X037636Y037325D02*
X037764Y037325D01*
X037731Y037403D02*
X037669Y037403D01*
X037670Y037482D02*
X037730Y037482D01*
X037730Y037560D02*
X037670Y037560D01*
X037651Y037639D02*
X037749Y037639D01*
X037781Y037717D02*
X037619Y037717D01*
X037569Y037796D02*
X037831Y037796D01*
X033685Y036147D02*
X031322Y036147D01*
X031322Y036069D02*
X033641Y036069D01*
X033641Y035990D02*
X031322Y035990D01*
X030975Y035598D02*
X032902Y035598D01*
X032902Y035676D02*
X030897Y035676D01*
X030818Y035755D02*
X032949Y035755D01*
X033094Y035833D02*
X033094Y035833D01*
X033094Y035833D01*
X032925Y035519D02*
X031054Y035519D01*
X031132Y035441D02*
X033004Y035441D01*
X033196Y035441D02*
X033641Y035441D01*
X033641Y035362D02*
X031211Y035362D01*
X031289Y035284D02*
X033641Y035284D01*
X033641Y035205D02*
X031368Y035205D01*
X031446Y035127D02*
X033668Y035127D01*
X033641Y035833D02*
X030740Y035833D01*
X030661Y035912D02*
X033641Y035912D01*
X031521Y034656D02*
X030312Y034656D01*
X030340Y034723D02*
X030258Y034524D01*
X030106Y034372D01*
X029907Y034290D01*
X029693Y034290D01*
X029494Y034372D01*
X029342Y034524D01*
X029260Y034723D01*
X029260Y034937D01*
X029342Y035136D01*
X029494Y035288D01*
X029693Y035370D01*
X029907Y035370D01*
X030106Y035288D01*
X030258Y035136D01*
X030340Y034937D01*
X030340Y034723D01*
X030340Y034734D02*
X031443Y034734D01*
X031364Y034813D02*
X030340Y034813D01*
X030340Y034891D02*
X031286Y034891D01*
X031207Y034970D02*
X030327Y034970D01*
X030294Y035048D02*
X031129Y035048D01*
X031050Y035127D02*
X030262Y035127D01*
X030189Y035205D02*
X030972Y035205D01*
X030893Y035284D02*
X030110Y035284D01*
X029927Y035362D02*
X030815Y035362D01*
X030736Y035441D02*
X028223Y035441D01*
X028302Y035519D02*
X030658Y035519D01*
X030579Y035598D02*
X028380Y035598D01*
X028459Y035676D02*
X030501Y035676D01*
X030422Y035755D02*
X028537Y035755D01*
X028616Y035833D02*
X030344Y035833D01*
X030265Y035912D02*
X029759Y035912D01*
X029781Y035990D02*
X030187Y035990D01*
X030108Y036069D02*
X029781Y036069D01*
X029454Y036250D02*
X030125Y036250D01*
X032950Y033425D01*
X035300Y033425D01*
X035750Y032975D01*
X035750Y032700D01*
X035750Y032400D02*
X035750Y032375D01*
X035700Y032325D01*
X035400Y032325D01*
X035400Y032400D01*
X035325Y032325D01*
X035050Y032325D01*
X035050Y032300D01*
X035042Y032292D01*
X035042Y031684D01*
X034845Y031684D02*
X034845Y032255D01*
X034700Y032400D01*
X034600Y032615D02*
X035200Y032615D01*
X035200Y032693D02*
X034600Y032693D01*
X034600Y032772D02*
X035200Y032772D01*
X035209Y032850D02*
X034781Y032850D01*
X034859Y032929D02*
X035202Y032929D01*
X035196Y033007D02*
X034873Y033007D01*
X034873Y033086D02*
X035205Y033086D01*
X035283Y033164D02*
X034817Y033164D01*
X034452Y033164D02*
X031334Y033164D01*
X031323Y033153D02*
X031422Y033252D01*
X031475Y033380D01*
X031475Y033520D01*
X031422Y033648D01*
X031323Y033747D01*
X031195Y033800D01*
X031055Y033800D01*
X030927Y033747D01*
X030828Y033648D01*
X030804Y033590D01*
X029792Y033590D01*
X029292Y033090D01*
X028126Y033090D01*
X028126Y033263D01*
X028067Y033322D01*
X027433Y033322D01*
X027374Y033263D01*
X027374Y032728D01*
X027433Y032669D01*
X027485Y032669D01*
X027485Y032526D01*
X027450Y032491D01*
X027450Y032209D01*
X027509Y032150D01*
X027791Y032150D01*
X027850Y032209D01*
X027850Y032491D01*
X027791Y032550D01*
X027765Y032550D01*
X027765Y032669D01*
X028067Y032669D01*
X028126Y032728D01*
X028126Y032810D01*
X029408Y032810D01*
X029908Y033310D01*
X030804Y033310D01*
X030828Y033252D01*
X030927Y033153D01*
X031055Y033100D01*
X031195Y033100D01*
X031323Y033153D01*
X031413Y033243D02*
X035284Y033243D01*
X035343Y032989D02*
X035400Y033000D01*
X035452Y032973D01*
X035375Y032825D01*
X035343Y032989D01*
X035375Y032975D02*
X035400Y033000D01*
X035375Y032975D02*
X035375Y032825D01*
X035375Y032725D01*
X035400Y032700D01*
X035050Y032400D02*
X035050Y032325D01*
X034701Y031908D02*
X034664Y031908D01*
X034686Y031830D02*
X034611Y031830D01*
X034611Y031751D02*
X034686Y031751D01*
X034686Y031673D02*
X034611Y031673D01*
X034611Y031594D02*
X034686Y031594D01*
X034686Y031516D02*
X034611Y031516D01*
X034572Y031437D02*
X034725Y031437D01*
X034452Y031684D02*
X034452Y031902D01*
X034468Y031918D01*
X034492Y032083D01*
X034550Y032075D01*
X034590Y032032D01*
X034468Y031918D01*
X034550Y032000D01*
X034550Y032075D01*
X034328Y032025D02*
X034255Y031874D01*
X034218Y032037D01*
X034275Y032050D01*
X034328Y032025D01*
X034275Y032050D02*
X034255Y032030D01*
X034255Y031874D01*
X034255Y031684D01*
X033833Y031359D02*
X035746Y031359D01*
X035825Y031437D02*
X035360Y031437D01*
X035398Y031516D02*
X035903Y031516D01*
X035982Y031594D02*
X035731Y031594D01*
X035267Y031280D02*
X033833Y031280D01*
X033833Y031202D02*
X035267Y031202D01*
X035267Y031123D02*
X033833Y031123D01*
X033833Y031045D02*
X035267Y031045D01*
X035267Y030966D02*
X033833Y030966D01*
X033833Y030888D02*
X035267Y030888D01*
X035267Y030809D02*
X033833Y030809D01*
X033833Y030731D02*
X035267Y030731D01*
X035267Y030652D02*
X033833Y030652D01*
X033833Y030574D02*
X035267Y030574D01*
X035267Y030495D02*
X033833Y030495D01*
X033833Y030417D02*
X035267Y030417D01*
X035267Y030338D02*
X033833Y030338D01*
X033833Y030260D02*
X035267Y030260D01*
X035267Y030181D02*
X033833Y030181D01*
X033833Y030103D02*
X035267Y030103D01*
X035267Y030024D02*
X033833Y030024D01*
X033566Y030011D02*
X033566Y029791D01*
X033300Y029525D01*
X033100Y029525D01*
X032800Y029525D02*
X032600Y029525D01*
X032075Y029000D01*
X032075Y026975D01*
X031200Y026100D01*
X031200Y025500D01*
X031632Y025314D02*
X031768Y025314D01*
X031736Y025393D02*
X031664Y025393D01*
X031670Y025471D02*
X031730Y025471D01*
X031730Y025550D02*
X031670Y025550D01*
X031656Y025628D02*
X031744Y025628D01*
X031777Y025707D02*
X031623Y025707D01*
X031580Y025785D02*
X031820Y025785D01*
X031899Y025864D02*
X031501Y025864D01*
X031361Y025942D02*
X031975Y025942D01*
X031975Y026021D02*
X031340Y026021D01*
X031397Y026099D02*
X031981Y026099D01*
X032059Y026178D02*
X031475Y026178D01*
X031554Y026256D02*
X032138Y026256D01*
X032216Y026335D02*
X031632Y026335D01*
X031711Y026413D02*
X032295Y026413D01*
X032373Y026492D02*
X031789Y026492D01*
X031868Y026570D02*
X032452Y026570D01*
X032530Y026649D02*
X031946Y026649D01*
X032025Y026727D02*
X032609Y026727D01*
X032687Y026806D02*
X032103Y026806D01*
X032182Y026884D02*
X032766Y026884D01*
X032844Y026963D02*
X032215Y026963D01*
X032215Y027041D02*
X032923Y027041D01*
X032443Y027512D02*
X034622Y027512D01*
X034622Y027514D02*
X034622Y027514D01*
X034602Y027434D02*
X032364Y027434D01*
X032215Y027355D02*
X034602Y027355D01*
X034643Y027277D02*
X032215Y027277D01*
X032215Y027198D02*
X035030Y027198D01*
X034957Y027277D02*
X035108Y027277D01*
X035187Y027355D02*
X035015Y027355D01*
X035002Y027337D02*
X035002Y027337D01*
X035090Y027434D02*
X035265Y027434D01*
X035344Y027512D02*
X035159Y027512D01*
X035100Y027453D02*
X035100Y027453D01*
X035238Y027591D02*
X035422Y027591D01*
X035501Y027669D02*
X035316Y027669D01*
X035395Y027748D02*
X035579Y027748D01*
X035658Y027826D02*
X035396Y027826D01*
X035519Y027905D02*
X035631Y027905D01*
X035603Y027983D02*
X035547Y027983D01*
X035547Y028062D02*
X035603Y028062D01*
X035603Y028140D02*
X035547Y028140D01*
X035547Y028219D02*
X035603Y028219D01*
X035603Y028297D02*
X035547Y028297D01*
X035547Y028376D02*
X035603Y028376D01*
X035603Y028454D02*
X035547Y028454D01*
X035547Y028533D02*
X035603Y028533D01*
X035647Y028611D02*
X035503Y028611D01*
X035128Y028975D02*
X036403Y028975D01*
X036478Y029050D01*
X036259Y029050D01*
X036200Y029109D01*
X036200Y029252D01*
X036167Y029285D01*
X035734Y029285D01*
X035711Y029274D01*
X035702Y029277D01*
X035633Y029253D01*
X035607Y029227D01*
X035559Y029227D01*
X035540Y029220D01*
X035536Y029219D01*
X035519Y029227D01*
X035443Y029227D01*
X035423Y029246D01*
X035423Y029243D01*
X035307Y029127D01*
X035143Y029127D01*
X035074Y029195D01*
X035058Y029203D01*
X035054Y029216D01*
X035050Y029219D01*
X035050Y029197D01*
X035075Y029172D01*
X035075Y028975D01*
X035128Y028975D01*
X035075Y029004D02*
X036431Y029004D01*
X036227Y029082D02*
X035075Y029082D01*
X035075Y029161D02*
X035109Y029161D01*
X035170Y029305D02*
X035113Y029462D01*
X035256Y029375D01*
X035225Y029325D01*
X035170Y029305D01*
X035225Y029325D02*
X035225Y029350D01*
X035113Y029462D01*
X035042Y029533D01*
X035042Y029716D01*
X034845Y029716D02*
X034648Y029716D01*
X034489Y029710D02*
X034414Y029710D01*
X034414Y029632D02*
X034489Y029632D01*
X034489Y029553D02*
X034414Y029553D01*
X034395Y029475D02*
X034522Y029475D01*
X034395Y029396D02*
X034692Y029396D01*
X034750Y029318D02*
X034395Y029318D01*
X034395Y029239D02*
X034650Y029239D01*
X034650Y029161D02*
X034334Y029161D01*
X034255Y029082D02*
X034650Y029082D01*
X034650Y029004D02*
X034177Y029004D01*
X034098Y028925D02*
X034684Y028925D01*
X034650Y028847D02*
X034020Y028847D01*
X033941Y028768D02*
X034650Y028768D01*
X034650Y028690D02*
X033863Y028690D01*
X033784Y028611D02*
X034650Y028611D01*
X034894Y028533D02*
X033706Y028533D01*
X033627Y028454D02*
X034894Y028454D01*
X034894Y028376D02*
X033549Y028376D01*
X033470Y028297D02*
X034894Y028297D01*
X034894Y028219D02*
X033391Y028219D01*
X033325Y028350D02*
X034255Y029280D01*
X034255Y029716D01*
X034414Y029789D02*
X034489Y029789D01*
X034489Y029867D02*
X034414Y029867D01*
X034393Y029946D02*
X034510Y029946D01*
X034058Y029716D02*
X034058Y029358D01*
X033425Y028725D01*
X033100Y028725D01*
X032800Y028725D02*
X032650Y028725D01*
X032500Y028575D01*
X032500Y027850D01*
X032400Y027750D01*
X032328Y027600D01*
X032275Y027625D01*
X032250Y027678D01*
X032400Y027750D01*
X032275Y027625D01*
X032479Y027591D02*
X034710Y027591D01*
X034737Y027602D02*
X034737Y027602D01*
X034815Y027669D02*
X032520Y027669D01*
X032479Y027591D02*
X032479Y027591D01*
X032595Y027748D02*
X034900Y027748D01*
X034853Y027700D02*
X034853Y027700D01*
X034979Y027826D02*
X032640Y027826D01*
X032860Y027905D02*
X034923Y027905D01*
X034894Y027983D02*
X032923Y027983D01*
X032931Y028061D02*
X032931Y028061D01*
X032931Y028061D01*
X032923Y028084D01*
X032923Y028132D01*
X032780Y028069D02*
X032725Y028050D01*
X032670Y028069D01*
X032725Y028227D01*
X032780Y028069D01*
X032725Y028050D02*
X032725Y028227D01*
X032725Y028275D01*
X032800Y028350D01*
X033100Y028350D02*
X033325Y028350D01*
X033475Y029150D02*
X033861Y029536D01*
X033861Y029716D01*
X033566Y030208D02*
X033549Y030225D01*
X033300Y030225D01*
X033100Y030025D01*
X033100Y029900D01*
X032977Y030100D02*
X032959Y030100D01*
X032950Y030091D01*
X032941Y030100D01*
X032659Y030100D01*
X032600Y030041D01*
X032600Y029948D01*
X031785Y029133D01*
X031785Y027283D01*
X030420Y025918D01*
X030293Y025970D01*
X030107Y025970D01*
X029934Y025898D01*
X029802Y025766D01*
X029730Y025593D01*
X029730Y025407D01*
X029802Y025234D01*
X029897Y025138D01*
X029503Y025138D01*
X029598Y025234D01*
X029670Y025407D01*
X029670Y025593D01*
X029598Y025766D01*
X029466Y025898D01*
X029293Y025970D01*
X029107Y025970D01*
X028934Y025898D01*
X028802Y025766D01*
X028730Y025593D01*
X028730Y025407D01*
X028802Y025234D01*
X028897Y025138D01*
X028503Y025138D01*
X028598Y025234D01*
X028670Y025407D01*
X028670Y025593D01*
X028598Y025766D01*
X028466Y025898D01*
X028293Y025970D01*
X028107Y025970D01*
X027934Y025898D01*
X027802Y025766D01*
X027730Y025593D01*
X027730Y025407D01*
X027802Y025234D01*
X027897Y025138D01*
X027503Y025138D01*
X027598Y025234D01*
X027670Y025407D01*
X027670Y025593D01*
X027598Y025766D01*
X027466Y025898D01*
X027293Y025970D01*
X027107Y025970D01*
X026934Y025898D01*
X026802Y025766D01*
X026730Y025593D01*
X026730Y025407D01*
X026802Y025234D01*
X026897Y025138D01*
X026503Y025138D01*
X026598Y025234D01*
X026670Y025407D01*
X026670Y025593D01*
X026598Y025766D01*
X026466Y025898D01*
X026293Y025970D01*
X026165Y025970D01*
X027195Y027000D01*
X027874Y027000D01*
X028003Y027053D01*
X028019Y027069D01*
X028167Y027069D01*
X028226Y027128D01*
X028226Y027194D01*
X028243Y027177D01*
X028407Y027177D01*
X028523Y027293D01*
X028523Y027369D01*
X028531Y027386D01*
X028531Y027386D01*
X028531Y027386D01*
X028523Y027409D01*
X028523Y027429D01*
X029650Y026303D01*
X029659Y026293D01*
X029661Y026280D01*
X029700Y026250D01*
X029752Y026183D01*
X029752Y026168D01*
X029800Y026119D01*
X029812Y026104D01*
X029836Y026072D01*
X029836Y026072D01*
X029836Y026072D01*
X029849Y026070D01*
X029868Y026052D01*
X030032Y026052D01*
X030148Y026168D01*
X030148Y026332D01*
X030130Y026351D01*
X030128Y026364D01*
X030081Y026400D01*
X030032Y026448D01*
X030017Y026448D01*
X029950Y026500D01*
X029920Y026539D01*
X029907Y026541D01*
X029897Y026550D01*
X029044Y027403D01*
X029124Y027403D01*
X029260Y027539D01*
X029260Y027610D01*
X030242Y027610D01*
X030335Y027517D01*
X030417Y027435D01*
X030500Y027435D01*
X030500Y027434D01*
X030546Y027388D01*
X030500Y027341D01*
X030500Y027059D01*
X030559Y027000D01*
X030841Y027000D01*
X030900Y027059D01*
X030900Y027341D01*
X030866Y027375D01*
X031141Y027375D01*
X031200Y027434D01*
X031200Y027435D01*
X031283Y027435D01*
X031658Y027810D01*
X031740Y027892D01*
X031740Y029292D01*
X032910Y030462D01*
X033298Y030462D01*
X033298Y030365D01*
X033242Y030365D01*
X033160Y030283D01*
X032977Y030100D01*
X032980Y030103D02*
X032551Y030103D01*
X032600Y030024D02*
X032472Y030024D01*
X032394Y029946D02*
X032598Y029946D01*
X032519Y029867D02*
X032315Y029867D01*
X032237Y029789D02*
X032441Y029789D01*
X032362Y029710D02*
X032158Y029710D01*
X032080Y029632D02*
X032284Y029632D01*
X032205Y029553D02*
X032001Y029553D01*
X031923Y029475D02*
X032127Y029475D01*
X032048Y029396D02*
X031844Y029396D01*
X031766Y029318D02*
X031970Y029318D01*
X031891Y029239D02*
X031740Y029239D01*
X031740Y029161D02*
X031813Y029161D01*
X031785Y029082D02*
X031740Y029082D01*
X031740Y029004D02*
X031785Y029004D01*
X031785Y028925D02*
X031740Y028925D01*
X031740Y028847D02*
X031785Y028847D01*
X031785Y028768D02*
X031740Y028768D01*
X031740Y028690D02*
X031785Y028690D01*
X031785Y028611D02*
X031740Y028611D01*
X031740Y028533D02*
X031785Y028533D01*
X031785Y028454D02*
X031740Y028454D01*
X031740Y028376D02*
X031785Y028376D01*
X031785Y028297D02*
X031740Y028297D01*
X031740Y028219D02*
X031785Y028219D01*
X031785Y028140D02*
X031740Y028140D01*
X031740Y028062D02*
X031785Y028062D01*
X031785Y027983D02*
X031740Y027983D01*
X031740Y027905D02*
X031785Y027905D01*
X031785Y027826D02*
X031674Y027826D01*
X031595Y027748D02*
X031785Y027748D01*
X031785Y027669D02*
X031517Y027669D01*
X031438Y027591D02*
X031785Y027591D01*
X031785Y027512D02*
X031360Y027512D01*
X031225Y027575D02*
X031600Y027950D01*
X031600Y029350D01*
X032852Y030602D01*
X033566Y030602D01*
X033566Y030798D02*
X032827Y030798D01*
X032825Y030800D01*
X031450Y029425D01*
X031450Y028200D01*
X031250Y028000D01*
X031000Y028000D01*
X030700Y028000D02*
X030700Y028450D01*
X030700Y028875D01*
X030700Y029325D01*
X030900Y029318D02*
X031150Y029318D01*
X031150Y029396D02*
X030900Y029396D01*
X030892Y029475D02*
X031150Y029475D01*
X031150Y029553D02*
X026420Y029553D01*
X026498Y029475D02*
X027194Y029475D01*
X027127Y029396D02*
X026577Y029396D01*
X026655Y029318D02*
X027127Y029318D01*
X027130Y029239D02*
X026734Y029239D01*
X026812Y029161D02*
X027209Y029161D01*
X027365Y029122D02*
X027365Y029122D01*
X027441Y029161D02*
X027448Y029161D01*
X027352Y029273D02*
X027325Y029325D01*
X027336Y029382D01*
X027500Y029350D01*
X027352Y029273D01*
X027325Y029325D02*
X027350Y029350D01*
X027500Y029350D01*
X027600Y029350D01*
X027534Y029650D02*
X027816Y029650D01*
X027875Y029709D01*
X027875Y029991D01*
X027816Y030050D01*
X027790Y030050D01*
X027790Y030169D01*
X028067Y030169D01*
X028126Y030228D01*
X028126Y030310D01*
X029008Y030310D01*
X029658Y030960D01*
X030804Y030960D01*
X030828Y030902D01*
X030927Y030803D01*
X031055Y030750D01*
X031195Y030750D01*
X031323Y030803D01*
X031422Y030902D01*
X031475Y031030D01*
X031475Y031170D01*
X031422Y031298D01*
X031323Y031397D01*
X031195Y031450D01*
X031055Y031450D01*
X030927Y031397D01*
X030828Y031298D01*
X030804Y031240D01*
X029542Y031240D01*
X029460Y031158D01*
X028892Y030590D01*
X028126Y030590D01*
X028126Y030763D01*
X028067Y030822D01*
X027433Y030822D01*
X027374Y030763D01*
X027374Y030228D01*
X027433Y030169D01*
X027510Y030169D01*
X027510Y030026D01*
X027475Y029991D01*
X027475Y029709D01*
X027534Y029650D01*
X027475Y029710D02*
X026263Y029710D01*
X026341Y029632D02*
X031150Y029632D01*
X031198Y029710D02*
X027875Y029710D01*
X027875Y029789D02*
X031276Y029789D01*
X031355Y029867D02*
X027875Y029867D01*
X027875Y029946D02*
X031433Y029946D01*
X031512Y030024D02*
X031344Y030024D01*
X031422Y030103D02*
X031590Y030103D01*
X031669Y030181D02*
X031455Y030181D01*
X031475Y030260D02*
X031747Y030260D01*
X031826Y030338D02*
X031536Y030338D01*
X031615Y030417D02*
X031904Y030417D01*
X031983Y030495D02*
X031693Y030495D01*
X031772Y030574D02*
X032061Y030574D01*
X032140Y030652D02*
X031850Y030652D01*
X031929Y030731D02*
X032218Y030731D01*
X032297Y030809D02*
X032007Y030809D01*
X032086Y030888D02*
X032375Y030888D01*
X032454Y030966D02*
X032164Y030966D01*
X032243Y031045D02*
X032532Y031045D01*
X032611Y031123D02*
X032321Y031123D01*
X032400Y031202D02*
X032689Y031202D01*
X032768Y031280D02*
X032478Y031280D01*
X032557Y031359D02*
X032846Y031359D01*
X032757Y031437D02*
X032728Y031437D01*
X032831Y031570D02*
X032850Y031625D01*
X032831Y031680D01*
X032673Y031625D01*
X032831Y031570D01*
X032850Y031625D02*
X032673Y031625D01*
X032625Y031625D01*
X032575Y031625D01*
X032625Y031625D02*
X031300Y030300D01*
X031125Y030300D01*
X030795Y030181D02*
X028079Y030181D01*
X028126Y030260D02*
X030775Y030260D01*
X030775Y030338D02*
X029036Y030338D01*
X029115Y030417D02*
X030794Y030417D01*
X030827Y030495D02*
X029193Y030495D01*
X029272Y030574D02*
X030904Y030574D01*
X030921Y030809D02*
X029507Y030809D01*
X029429Y030731D02*
X031533Y030731D01*
X031611Y030809D02*
X031329Y030809D01*
X031407Y030888D02*
X031690Y030888D01*
X031768Y030966D02*
X031448Y030966D01*
X031475Y031045D02*
X031847Y031045D01*
X031925Y031123D02*
X031475Y031123D01*
X031462Y031202D02*
X032004Y031202D01*
X032082Y031280D02*
X031429Y031280D01*
X031361Y031359D02*
X032161Y031359D01*
X032239Y031437D02*
X031226Y031437D01*
X031024Y031437D02*
X028126Y031437D01*
X028126Y031359D02*
X030889Y031359D01*
X030821Y031280D02*
X028126Y031280D01*
X028126Y031202D02*
X029504Y031202D01*
X029425Y031123D02*
X028126Y031123D01*
X028126Y031045D02*
X029347Y031045D01*
X029268Y030966D02*
X028126Y030966D01*
X028077Y030888D02*
X029190Y030888D01*
X029111Y030809D02*
X028080Y030809D01*
X028126Y030731D02*
X029033Y030731D01*
X028954Y030652D02*
X028126Y030652D01*
X027796Y030450D02*
X028950Y030450D01*
X029600Y031100D01*
X031125Y031100D01*
X030843Y030888D02*
X029586Y030888D01*
X029350Y030652D02*
X031454Y030652D01*
X031376Y030574D02*
X031346Y030574D01*
X030828Y030103D02*
X027790Y030103D01*
X027842Y030024D02*
X030906Y030024D01*
X030508Y029475D02*
X028298Y029475D01*
X028376Y029396D02*
X030500Y029396D01*
X030500Y029318D02*
X028455Y029318D01*
X028533Y029239D02*
X030500Y029239D01*
X030523Y029161D02*
X028612Y029161D01*
X028690Y029082D02*
X030560Y029082D01*
X030500Y029004D02*
X028769Y029004D01*
X028775Y028925D02*
X030500Y028925D01*
X030500Y028847D02*
X028775Y028847D01*
X028775Y028768D02*
X030500Y028768D01*
X030544Y028690D02*
X028775Y028690D01*
X028775Y028611D02*
X030520Y028611D01*
X030500Y028533D02*
X028775Y028533D01*
X028775Y028454D02*
X028889Y028454D01*
X028811Y028376D02*
X028775Y028376D01*
X028775Y028297D02*
X028796Y028297D01*
X028796Y028219D02*
X028775Y028219D01*
X028775Y028140D02*
X028825Y028140D01*
X028775Y028062D02*
X028890Y028062D01*
X028969Y027983D02*
X028775Y027983D01*
X028775Y027905D02*
X029048Y027905D01*
X029150Y028000D02*
X030700Y028000D01*
X030500Y028140D02*
X029231Y028140D01*
X029260Y028219D02*
X030560Y028219D01*
X030512Y028297D02*
X029260Y028297D01*
X029246Y028376D02*
X030500Y028376D01*
X030500Y028454D02*
X029167Y028454D01*
X029028Y028265D02*
X029028Y028122D01*
X029150Y028000D01*
X029143Y027750D02*
X030300Y027750D01*
X030475Y027575D01*
X030700Y027575D01*
X030700Y027200D01*
X030900Y027198D02*
X031700Y027198D01*
X031622Y027120D02*
X030900Y027120D01*
X030882Y027041D02*
X031543Y027041D01*
X031465Y026963D02*
X029485Y026963D01*
X029406Y027041D02*
X030518Y027041D01*
X030500Y027120D02*
X029328Y027120D01*
X029249Y027198D02*
X030500Y027198D01*
X030500Y027277D02*
X029171Y027277D01*
X029092Y027355D02*
X030514Y027355D01*
X030500Y027434D02*
X029155Y027434D01*
X029233Y027512D02*
X030340Y027512D01*
X030262Y027591D02*
X029260Y027591D01*
X029143Y027750D02*
X029028Y027635D01*
X028796Y027669D02*
X028778Y027669D01*
X028775Y027748D02*
X028813Y027748D01*
X028775Y027826D02*
X028891Y027826D01*
X028598Y027355D02*
X028523Y027355D01*
X028507Y027277D02*
X028676Y027277D01*
X028755Y027198D02*
X028429Y027198D01*
X028380Y027394D02*
X028325Y027375D01*
X028270Y027394D01*
X028325Y027552D01*
X028380Y027394D01*
X028325Y027375D02*
X028325Y027552D01*
X028325Y028450D01*
X028075Y028700D01*
X028000Y028700D01*
X028205Y028768D02*
X028425Y028768D01*
X028425Y028690D02*
X028283Y028690D01*
X028362Y028611D02*
X028425Y028611D01*
X028425Y028847D02*
X028195Y028847D01*
X028274Y029004D02*
X026969Y029004D01*
X026891Y029082D02*
X028195Y029082D01*
X028117Y029161D02*
X028052Y029161D01*
X028353Y028925D02*
X027048Y028925D01*
X027126Y028847D02*
X027505Y028847D01*
X027700Y028700D02*
X027750Y028750D01*
X027700Y028700D02*
X027075Y028700D01*
X026025Y029750D01*
X025600Y029750D01*
X025334Y029867D02*
X024641Y029867D01*
X024655Y029882D02*
X024754Y030121D01*
X024754Y030379D01*
X024655Y030618D01*
X024472Y030801D01*
X024233Y030900D01*
X023975Y030900D01*
X023736Y030801D01*
X023553Y030618D01*
X023454Y030379D01*
X023454Y030121D01*
X023553Y029882D01*
X023736Y029699D01*
X023975Y029600D01*
X024233Y029600D01*
X024472Y029699D01*
X024655Y029882D01*
X024682Y029946D02*
X025384Y029946D01*
X025501Y030024D02*
X024714Y030024D01*
X024747Y030103D02*
X027510Y030103D01*
X027508Y030024D02*
X025699Y030024D01*
X025816Y029946D02*
X027475Y029946D01*
X027475Y029867D02*
X026106Y029867D01*
X026184Y029789D02*
X027475Y029789D01*
X027650Y029875D02*
X027650Y030325D01*
X027750Y030425D01*
X027750Y030496D01*
X027796Y030450D01*
X027374Y030417D02*
X024739Y030417D01*
X024754Y030338D02*
X027374Y030338D01*
X027374Y030260D02*
X024754Y030260D01*
X024754Y030181D02*
X027421Y030181D01*
X027374Y030495D02*
X024706Y030495D01*
X024674Y030574D02*
X027374Y030574D01*
X027374Y030652D02*
X024621Y030652D01*
X024543Y030731D02*
X027374Y030731D01*
X027420Y030809D02*
X024453Y030809D01*
X024264Y030888D02*
X027423Y030888D01*
X027374Y030966D02*
X022638Y030966D01*
X022638Y030888D02*
X023944Y030888D01*
X023754Y030809D02*
X022638Y030809D01*
X022638Y030731D02*
X023665Y030731D01*
X023586Y030652D02*
X022638Y030652D01*
X022638Y030574D02*
X023534Y030574D01*
X023502Y030495D02*
X022638Y030495D01*
X022638Y030417D02*
X023469Y030417D01*
X023454Y030338D02*
X022638Y030338D01*
X022638Y030260D02*
X023454Y030260D01*
X023454Y030181D02*
X022638Y030181D01*
X022638Y030103D02*
X023461Y030103D01*
X023494Y030024D02*
X022638Y030024D01*
X022638Y029946D02*
X023526Y029946D01*
X023567Y029867D02*
X022638Y029867D01*
X022638Y029789D02*
X023646Y029789D01*
X023724Y029710D02*
X022638Y029710D01*
X022638Y029632D02*
X023898Y029632D01*
X024310Y029632D02*
X025334Y029632D01*
X025309Y029710D02*
X024484Y029710D01*
X024562Y029789D02*
X025309Y029789D01*
X025386Y029553D02*
X022638Y029553D01*
X022638Y029475D02*
X025505Y029475D01*
X025695Y029475D02*
X026102Y029475D01*
X026024Y029553D02*
X025814Y029553D01*
X026181Y029396D02*
X022638Y029396D01*
X022638Y029318D02*
X026259Y029318D01*
X026338Y029239D02*
X022638Y029239D01*
X022638Y029161D02*
X026416Y029161D01*
X026495Y029082D02*
X022638Y029082D01*
X022638Y029004D02*
X025452Y029004D01*
X025435Y028997D02*
X025353Y028915D01*
X025309Y028808D01*
X025309Y028692D01*
X025353Y028585D01*
X025435Y028503D01*
X025542Y028459D01*
X025658Y028459D01*
X025765Y028503D01*
X025847Y028585D01*
X025891Y028692D01*
X025891Y028808D01*
X025847Y028915D01*
X025765Y028997D01*
X025658Y029041D01*
X025542Y029041D01*
X025435Y028997D01*
X025364Y028925D02*
X022638Y028925D01*
X022638Y028847D02*
X025325Y028847D01*
X025309Y028768D02*
X022638Y028768D01*
X022638Y028690D02*
X025310Y028690D01*
X025343Y028611D02*
X022638Y028611D01*
X022638Y028533D02*
X025406Y028533D01*
X025794Y028533D02*
X027526Y028533D01*
X026966Y028611D02*
X025857Y028611D01*
X025890Y028690D02*
X026887Y028690D01*
X026809Y028768D02*
X025891Y028768D01*
X025875Y028847D02*
X026730Y028847D01*
X026652Y028925D02*
X025836Y028925D01*
X025748Y029004D02*
X026573Y029004D01*
X027306Y029531D02*
X027306Y029531D01*
X027306Y029531D01*
X027650Y029875D02*
X027675Y029850D01*
X027374Y031045D02*
X022638Y031045D01*
X022638Y031123D02*
X027374Y031123D01*
X027374Y031202D02*
X022638Y031202D01*
X022638Y031280D02*
X027374Y031280D01*
X027374Y031359D02*
X026320Y031359D01*
X026325Y031437D02*
X027374Y031437D01*
X027418Y031516D02*
X026325Y031516D01*
X026325Y031594D02*
X027485Y031594D01*
X027485Y031673D02*
X026325Y031673D01*
X026325Y031751D02*
X027458Y031751D01*
X027625Y031900D02*
X027625Y031400D01*
X027750Y031275D01*
X027750Y031204D01*
X027765Y031594D02*
X032375Y031594D01*
X032375Y031673D02*
X027765Y031673D01*
X027842Y031751D02*
X032375Y031751D01*
X032318Y031516D02*
X028082Y031516D01*
X027850Y031830D02*
X032834Y031830D01*
X032839Y031831D02*
X032839Y031831D01*
X032839Y031831D01*
X032843Y031830D02*
X033317Y031830D01*
X033239Y031751D02*
X033005Y031751D01*
X033048Y031673D02*
X033160Y031673D01*
X033082Y031594D02*
X033048Y031594D01*
X033271Y031359D02*
X033298Y031359D01*
X033298Y031386D02*
X032852Y030940D01*
X032883Y030940D01*
X032885Y030938D01*
X033298Y030938D01*
X033298Y031386D01*
X033298Y031280D02*
X033192Y031280D01*
X033114Y031202D02*
X033298Y031202D01*
X033298Y031123D02*
X033035Y031123D01*
X032957Y031045D02*
X033298Y031045D01*
X033298Y030966D02*
X032878Y030966D01*
X032865Y030417D02*
X033298Y030417D01*
X033215Y030338D02*
X032786Y030338D01*
X032708Y030260D02*
X033137Y030260D01*
X033058Y030181D02*
X032629Y030181D01*
X032750Y029900D02*
X032800Y029900D01*
X032750Y029900D02*
X031925Y029075D01*
X031925Y027225D01*
X030200Y025500D01*
X030632Y025314D02*
X030768Y025314D01*
X030736Y025393D02*
X030664Y025393D01*
X030670Y025407D02*
X030670Y025593D01*
X030618Y025720D01*
X031935Y027037D01*
X031935Y027033D01*
X031060Y026158D01*
X031060Y025951D01*
X030934Y025898D01*
X030802Y025766D01*
X030730Y025593D01*
X030730Y025407D01*
X030802Y025234D01*
X030897Y025138D01*
X030503Y025138D01*
X030598Y025234D01*
X030670Y025407D01*
X030670Y025471D02*
X030730Y025471D01*
X030730Y025550D02*
X030670Y025550D01*
X030656Y025628D02*
X030744Y025628D01*
X030777Y025707D02*
X030623Y025707D01*
X030683Y025785D02*
X030820Y025785D01*
X030761Y025864D02*
X030899Y025864D01*
X030840Y025942D02*
X031039Y025942D01*
X031060Y026021D02*
X030918Y026021D01*
X030997Y026099D02*
X031060Y026099D01*
X031075Y026178D02*
X031080Y026178D01*
X031154Y026256D02*
X031158Y026256D01*
X031232Y026335D02*
X031237Y026335D01*
X031311Y026413D02*
X031315Y026413D01*
X031389Y026492D02*
X031394Y026492D01*
X031468Y026570D02*
X031472Y026570D01*
X031546Y026649D02*
X031551Y026649D01*
X031625Y026727D02*
X031629Y026727D01*
X031703Y026806D02*
X031708Y026806D01*
X031782Y026884D02*
X031786Y026884D01*
X031860Y026963D02*
X031865Y026963D01*
X031779Y027277D02*
X030900Y027277D01*
X030886Y027355D02*
X031785Y027355D01*
X031785Y027434D02*
X031200Y027434D01*
X031225Y027575D02*
X031000Y027575D01*
X031386Y026884D02*
X029563Y026884D01*
X029642Y026806D02*
X031308Y026806D01*
X031229Y026727D02*
X029720Y026727D01*
X029799Y026649D02*
X031151Y026649D01*
X031072Y026570D02*
X029877Y026570D01*
X029961Y026492D02*
X030994Y026492D01*
X030915Y026413D02*
X030068Y026413D01*
X030128Y026364D02*
X030128Y026364D01*
X030128Y026364D01*
X030146Y026335D02*
X030837Y026335D01*
X030758Y026256D02*
X030148Y026256D01*
X030148Y026178D02*
X030680Y026178D01*
X030601Y026099D02*
X030080Y026099D01*
X030039Y025942D02*
X029361Y025942D01*
X029501Y025864D02*
X029899Y025864D01*
X029820Y025785D02*
X029580Y025785D01*
X029623Y025707D02*
X029777Y025707D01*
X029744Y025628D02*
X029656Y025628D01*
X029670Y025550D02*
X029730Y025550D01*
X029730Y025471D02*
X029670Y025471D01*
X029664Y025393D02*
X029736Y025393D01*
X029768Y025314D02*
X029632Y025314D01*
X029599Y025236D02*
X029801Y025236D01*
X029878Y025157D02*
X029522Y025157D01*
X028878Y025157D02*
X028522Y025157D01*
X028599Y025236D02*
X028801Y025236D01*
X028768Y025314D02*
X028632Y025314D01*
X028664Y025393D02*
X028736Y025393D01*
X028730Y025471D02*
X028670Y025471D01*
X028670Y025550D02*
X028730Y025550D01*
X028744Y025628D02*
X028656Y025628D01*
X028623Y025707D02*
X028777Y025707D01*
X028820Y025785D02*
X028580Y025785D01*
X028501Y025864D02*
X028899Y025864D01*
X029039Y025942D02*
X028361Y025942D01*
X028039Y025942D02*
X027361Y025942D01*
X027501Y025864D02*
X027899Y025864D01*
X027820Y025785D02*
X027580Y025785D01*
X027623Y025707D02*
X027777Y025707D01*
X027744Y025628D02*
X027656Y025628D01*
X027670Y025550D02*
X027730Y025550D01*
X027730Y025471D02*
X027670Y025471D01*
X027664Y025393D02*
X027736Y025393D01*
X027768Y025314D02*
X027632Y025314D01*
X027599Y025236D02*
X027801Y025236D01*
X027878Y025157D02*
X027522Y025157D01*
X026878Y025157D02*
X026522Y025157D01*
X026599Y025236D02*
X026801Y025236D01*
X026768Y025314D02*
X026632Y025314D01*
X026664Y025393D02*
X026736Y025393D01*
X026730Y025471D02*
X026670Y025471D01*
X026670Y025550D02*
X026730Y025550D01*
X026744Y025628D02*
X026656Y025628D01*
X026623Y025707D02*
X026777Y025707D01*
X026820Y025785D02*
X026580Y025785D01*
X026501Y025864D02*
X026899Y025864D01*
X027039Y025942D02*
X026361Y025942D01*
X026215Y026021D02*
X030523Y026021D01*
X030444Y025942D02*
X030361Y025942D01*
X029816Y026099D02*
X026294Y026099D01*
X026372Y026178D02*
X029752Y026178D01*
X029693Y026256D02*
X026451Y026256D01*
X026529Y026335D02*
X029618Y026335D01*
X029540Y026413D02*
X026608Y026413D01*
X026686Y026492D02*
X029461Y026492D01*
X029383Y026570D02*
X026765Y026570D01*
X026843Y026649D02*
X029304Y026649D01*
X029226Y026727D02*
X026922Y026727D01*
X027000Y026806D02*
X029147Y026806D01*
X029069Y026884D02*
X027079Y026884D01*
X027157Y026963D02*
X028990Y026963D01*
X028912Y027041D02*
X027973Y027041D01*
X028217Y027120D02*
X028833Y027120D01*
X028185Y027748D02*
X024526Y027748D01*
X024604Y027669D02*
X026906Y027669D01*
X026796Y027591D02*
X024667Y027591D01*
X024699Y027512D02*
X026717Y027512D01*
X026639Y027434D02*
X024732Y027434D01*
X024754Y027355D02*
X026560Y027355D01*
X026482Y027277D02*
X024754Y027277D01*
X024754Y027198D02*
X024867Y027198D01*
X024846Y027188D02*
X024846Y027188D01*
X024846Y027188D01*
X024802Y027120D02*
X024754Y027120D01*
X024775Y027041D02*
X024721Y027041D01*
X024715Y026963D02*
X024689Y026963D01*
X024875Y026925D02*
X024947Y027075D01*
X025000Y027050D01*
X025025Y026997D01*
X024875Y026925D01*
X025000Y027050D01*
X024875Y026925D02*
X024150Y026200D01*
X024150Y025550D01*
X024200Y025500D01*
X024670Y025471D02*
X024730Y025471D01*
X024730Y025550D02*
X024670Y025550D01*
X024670Y025628D02*
X024744Y025628D01*
X024777Y025707D02*
X024670Y025707D01*
X024670Y025785D02*
X024820Y025785D01*
X024899Y025864D02*
X024670Y025864D01*
X024639Y025942D02*
X025039Y025942D01*
X025226Y026021D02*
X024290Y026021D01*
X024290Y026099D02*
X025304Y026099D01*
X025383Y026178D02*
X024325Y026178D01*
X024404Y026256D02*
X025461Y026256D01*
X025540Y026335D02*
X024482Y026335D01*
X024561Y026413D02*
X025618Y026413D01*
X025697Y026492D02*
X024639Y026492D01*
X024718Y026570D02*
X025775Y026570D01*
X025854Y026649D02*
X024796Y026649D01*
X024875Y026727D02*
X025932Y026727D01*
X026011Y026806D02*
X024958Y026806D01*
X025115Y026884D02*
X026089Y026884D01*
X026168Y026963D02*
X025193Y026963D01*
X025198Y027041D02*
X026246Y027041D01*
X026325Y027120D02*
X025198Y027120D01*
X025133Y027198D02*
X026403Y027198D01*
X028185Y027826D02*
X024412Y027826D01*
X023795Y027826D02*
X022638Y027826D01*
X022638Y027748D02*
X023682Y027748D01*
X023603Y027669D02*
X022638Y027669D01*
X022638Y027591D02*
X023541Y027591D01*
X023509Y027512D02*
X022638Y027512D01*
X022638Y027434D02*
X023476Y027434D01*
X023454Y027355D02*
X022638Y027355D01*
X022638Y027277D02*
X023454Y027277D01*
X023454Y027198D02*
X022638Y027198D01*
X022638Y027120D02*
X023454Y027120D01*
X023487Y027041D02*
X022638Y027041D01*
X022638Y026963D02*
X023519Y026963D01*
X023552Y026884D02*
X022638Y026884D01*
X022638Y026806D02*
X023629Y026806D01*
X023707Y026727D02*
X022638Y026727D01*
X022638Y026649D02*
X023857Y026649D01*
X024165Y026413D02*
X022638Y026413D01*
X022638Y026335D02*
X024087Y026335D01*
X024010Y026256D02*
X022638Y026256D01*
X022638Y026178D02*
X024010Y026178D01*
X024010Y026099D02*
X022638Y026099D01*
X022638Y026021D02*
X024010Y026021D01*
X023761Y025942D02*
X023361Y025942D01*
X023501Y025864D02*
X023730Y025864D01*
X023730Y025785D02*
X023580Y025785D01*
X023623Y025707D02*
X023730Y025707D01*
X023730Y025628D02*
X023656Y025628D01*
X023670Y025550D02*
X023730Y025550D01*
X023730Y025471D02*
X023670Y025471D01*
X023664Y025393D02*
X023730Y025393D01*
X023730Y025314D02*
X023632Y025314D01*
X023599Y025236D02*
X023730Y025236D01*
X023730Y025157D02*
X023522Y025157D01*
X022878Y025157D02*
X022638Y025157D01*
X022638Y025236D02*
X022801Y025236D01*
X022768Y025314D02*
X022638Y025314D01*
X022638Y025393D02*
X022736Y025393D01*
X022730Y025471D02*
X022638Y025471D01*
X022638Y025550D02*
X022730Y025550D01*
X022744Y025628D02*
X022638Y025628D01*
X022638Y025707D02*
X022777Y025707D01*
X022820Y025785D02*
X022638Y025785D01*
X022638Y025864D02*
X022899Y025864D01*
X023039Y025942D02*
X022638Y025942D01*
X022638Y026492D02*
X024244Y026492D01*
X024322Y026570D02*
X022638Y026570D01*
X022638Y027905D02*
X028185Y027905D01*
X028185Y027983D02*
X022638Y027983D01*
X022638Y028062D02*
X028185Y028062D01*
X028185Y028140D02*
X022638Y028140D01*
X022638Y028219D02*
X028185Y028219D01*
X028185Y028297D02*
X022638Y028297D01*
X022638Y028376D02*
X028185Y028376D01*
X028123Y028454D02*
X022638Y028454D01*
X024351Y026649D02*
X024401Y026649D01*
X024670Y025393D02*
X024736Y025393D01*
X024768Y025314D02*
X024670Y025314D01*
X024670Y025236D02*
X024801Y025236D01*
X024878Y025157D02*
X024670Y025157D01*
X025503Y025138D02*
X025598Y025234D01*
X025670Y025407D01*
X025670Y025475D01*
X025730Y025535D01*
X025730Y025407D01*
X025802Y025234D01*
X025897Y025138D01*
X025503Y025138D01*
X025522Y025157D02*
X025878Y025157D01*
X025801Y025236D02*
X025599Y025236D01*
X025632Y025314D02*
X025768Y025314D01*
X025736Y025393D02*
X025664Y025393D01*
X025670Y025471D02*
X025730Y025471D01*
X030522Y025157D02*
X030878Y025157D01*
X030801Y025236D02*
X030599Y025236D01*
X031522Y025157D02*
X031878Y025157D01*
X031801Y025236D02*
X031599Y025236D01*
X032522Y025157D02*
X032878Y025157D01*
X032801Y025236D02*
X032599Y025236D01*
X032632Y025314D02*
X032768Y025314D01*
X032736Y025393D02*
X032664Y025393D01*
X032670Y025471D02*
X032730Y025471D01*
X032730Y025550D02*
X032670Y025550D01*
X032656Y025628D02*
X032744Y025628D01*
X032777Y025707D02*
X032623Y025707D01*
X032580Y025785D02*
X032820Y025785D01*
X032899Y025864D02*
X032501Y025864D01*
X032460Y025942D02*
X033039Y025942D01*
X033361Y025942D02*
X034039Y025942D01*
X033899Y025864D02*
X033501Y025864D01*
X033580Y025785D02*
X033820Y025785D01*
X033777Y025707D02*
X033623Y025707D01*
X033656Y025628D02*
X033744Y025628D01*
X033730Y025550D02*
X033670Y025550D01*
X033670Y025471D02*
X033730Y025471D01*
X033736Y025393D02*
X033664Y025393D01*
X033632Y025314D02*
X033768Y025314D01*
X033801Y025236D02*
X033599Y025236D01*
X033522Y025157D02*
X033878Y025157D01*
X034522Y025157D02*
X034878Y025157D01*
X034801Y025236D02*
X034599Y025236D01*
X034632Y025314D02*
X034768Y025314D01*
X034736Y025393D02*
X034664Y025393D01*
X034670Y025471D02*
X034730Y025471D01*
X034730Y025550D02*
X034670Y025550D01*
X034656Y025628D02*
X034744Y025628D01*
X034777Y025707D02*
X034623Y025707D01*
X034580Y025785D02*
X034820Y025785D01*
X034899Y025864D02*
X034501Y025864D01*
X034361Y025942D02*
X035039Y025942D01*
X035361Y025942D02*
X036039Y025942D01*
X035899Y025864D02*
X035501Y025864D01*
X035580Y025785D02*
X035820Y025785D01*
X035777Y025707D02*
X035623Y025707D01*
X035656Y025628D02*
X035744Y025628D01*
X035730Y025550D02*
X035670Y025550D01*
X035670Y025471D02*
X035730Y025471D01*
X035736Y025393D02*
X035664Y025393D01*
X035632Y025314D02*
X035768Y025314D01*
X035801Y025236D02*
X035599Y025236D01*
X035522Y025157D02*
X035878Y025157D01*
X036522Y025157D02*
X036878Y025157D01*
X036801Y025236D02*
X036599Y025236D01*
X036632Y025314D02*
X036768Y025314D01*
X036736Y025393D02*
X036664Y025393D01*
X036670Y025471D02*
X036730Y025471D01*
X036730Y025550D02*
X036670Y025550D01*
X036656Y025628D02*
X036744Y025628D01*
X036777Y025707D02*
X036623Y025707D01*
X036580Y025785D02*
X036820Y025785D01*
X036899Y025864D02*
X036501Y025864D01*
X036361Y025942D02*
X037039Y025942D01*
X037361Y025942D02*
X038039Y025942D01*
X037899Y025864D02*
X037501Y025864D01*
X037580Y025785D02*
X037820Y025785D01*
X037777Y025707D02*
X037623Y025707D01*
X037656Y025628D02*
X037744Y025628D01*
X037730Y025550D02*
X037670Y025550D01*
X037670Y025471D02*
X037730Y025471D01*
X037736Y025393D02*
X037664Y025393D01*
X037632Y025314D02*
X037768Y025314D01*
X037801Y025236D02*
X037599Y025236D01*
X037522Y025157D02*
X037878Y025157D01*
X034951Y027120D02*
X032215Y027120D01*
X032275Y028350D02*
X032330Y028369D01*
X032275Y028527D01*
X032220Y028369D01*
X032275Y028350D01*
X032275Y028527D01*
X032275Y028775D01*
X032650Y029150D01*
X032800Y029150D01*
X033100Y029150D02*
X033475Y029150D01*
X035239Y029636D02*
X035368Y029507D01*
X035533Y029483D01*
X035525Y029425D01*
X035544Y029370D01*
X035702Y029425D01*
X035544Y029480D01*
X035525Y029425D01*
X035482Y029385D01*
X035368Y029507D01*
X035450Y029425D01*
X035525Y029425D01*
X035702Y029425D01*
X036225Y029425D01*
X036400Y029250D01*
X036200Y029239D02*
X035620Y029239D01*
X035430Y029239D02*
X035420Y029239D01*
X035341Y029161D02*
X036200Y029161D01*
X036400Y029700D02*
X036375Y029725D01*
X035920Y029725D01*
X035753Y029717D01*
X035750Y029775D01*
X035774Y029828D01*
X035622Y029898D01*
X035698Y029749D01*
X035750Y029775D01*
X035784Y029822D01*
X035920Y029725D01*
X035800Y029725D01*
X035750Y029775D01*
X035750Y029770D01*
X035622Y029898D01*
X035534Y029986D01*
X035534Y030011D01*
X035542Y030200D02*
X035534Y030208D01*
X035542Y030200D02*
X036300Y030200D01*
X036400Y030100D01*
X036400Y030550D01*
X036600Y030574D02*
X036850Y030574D01*
X036850Y030652D02*
X036600Y030652D01*
X036561Y030731D02*
X036850Y030731D01*
X036850Y030809D02*
X036197Y030809D01*
X036050Y030675D02*
X036016Y030722D01*
X035880Y030625D01*
X036047Y030617D01*
X036050Y030675D01*
X036000Y030625D01*
X035880Y030625D01*
X035558Y030625D01*
X035534Y030602D01*
X035555Y030425D02*
X035534Y030405D01*
X035555Y030425D02*
X035900Y030425D01*
X036064Y030457D01*
X036075Y030400D01*
X036048Y030348D01*
X035900Y030425D01*
X036050Y030425D01*
X036075Y030400D01*
X035896Y030809D02*
X035802Y030809D01*
X036600Y030495D02*
X036850Y030495D01*
X036850Y030417D02*
X036600Y030417D01*
X036540Y030338D02*
X036776Y030338D01*
X035239Y029716D02*
X035239Y029636D01*
X034914Y027222D02*
X034914Y027222D01*
X034914Y027222D01*
X031150Y028768D02*
X030900Y028768D01*
X030900Y028847D02*
X031150Y028847D01*
X031150Y028925D02*
X030900Y028925D01*
X030900Y029004D02*
X031150Y029004D01*
X031150Y029082D02*
X030840Y029082D01*
X030877Y029161D02*
X031150Y029161D01*
X031150Y029239D02*
X030900Y029239D01*
X030856Y028690D02*
X031077Y028690D01*
X033700Y031908D02*
X027850Y031908D01*
X027850Y031987D02*
X033700Y031987D01*
X033700Y032065D02*
X027826Y032065D01*
X027850Y032222D02*
X033700Y032222D01*
X033700Y032144D02*
X026426Y032144D01*
X026505Y032222D02*
X027450Y032222D01*
X027450Y032301D02*
X026583Y032301D01*
X026662Y032379D02*
X027450Y032379D01*
X027450Y032458D02*
X026740Y032458D01*
X026800Y032536D02*
X027485Y032536D01*
X027485Y032615D02*
X026800Y032615D01*
X026800Y032693D02*
X027409Y032693D01*
X027374Y032772D02*
X026800Y032772D01*
X026800Y032850D02*
X027374Y032850D01*
X027374Y032929D02*
X026800Y032929D01*
X026800Y033007D02*
X027374Y033007D01*
X027374Y033086D02*
X026800Y033086D01*
X026800Y033164D02*
X027374Y033164D01*
X027374Y033243D02*
X026800Y033243D01*
X026800Y033321D02*
X027432Y033321D01*
X027433Y033378D02*
X027374Y033437D01*
X027374Y033972D01*
X027433Y034031D01*
X027510Y034031D01*
X027510Y034150D01*
X027509Y034150D01*
X027499Y034160D01*
X027461Y034160D01*
X027419Y034138D01*
X027382Y034102D01*
X027349Y034102D01*
X027340Y034097D01*
X027340Y034097D01*
X027326Y034102D01*
X027218Y034102D01*
X027102Y034218D01*
X027102Y034382D01*
X027218Y034498D01*
X027270Y034498D01*
X027281Y034506D01*
X027281Y034506D01*
X027281Y034506D01*
X027319Y034498D01*
X027382Y034498D01*
X027397Y034483D01*
X027429Y034477D01*
X027442Y034490D01*
X027450Y034490D01*
X027450Y034491D01*
X027509Y034550D01*
X027791Y034550D01*
X027850Y034491D01*
X027850Y034209D01*
X027791Y034150D01*
X027790Y034150D01*
X027790Y034031D01*
X028067Y034031D01*
X028126Y033972D01*
X028126Y033437D01*
X028067Y033378D01*
X027433Y033378D01*
X027411Y033400D02*
X026800Y033400D01*
X026800Y033478D02*
X027374Y033478D01*
X027374Y033557D02*
X026800Y033557D01*
X026800Y033635D02*
X027374Y033635D01*
X027374Y033714D02*
X026800Y033714D01*
X026800Y033792D02*
X027374Y033792D01*
X027374Y033871D02*
X026800Y033871D01*
X026800Y033949D02*
X027374Y033949D01*
X027430Y034028D02*
X026800Y034028D01*
X026800Y034106D02*
X027213Y034106D01*
X027135Y034185D02*
X026800Y034185D01*
X026941Y034263D02*
X027102Y034263D01*
X027102Y034342D02*
X026994Y034342D01*
X026994Y034420D02*
X027139Y034420D01*
X027270Y034499D02*
X026994Y034499D01*
X026994Y034577D02*
X029320Y034577D01*
X029288Y034656D02*
X026994Y034656D01*
X026994Y034734D02*
X029260Y034734D01*
X029260Y034813D02*
X026994Y034813D01*
X026994Y034891D02*
X029260Y034891D01*
X029273Y034970D02*
X026994Y034970D01*
X026994Y035048D02*
X029306Y035048D01*
X029338Y035127D02*
X026994Y035127D01*
X026525Y035267D02*
X026525Y035267D01*
X026509Y035284D02*
X025314Y035284D01*
X025348Y035362D02*
X026430Y035362D01*
X026352Y035441D02*
X025348Y035441D01*
X025312Y035519D02*
X026273Y035519D01*
X026195Y035598D02*
X025233Y035598D01*
X025086Y035676D02*
X026116Y035676D01*
X026038Y035755D02*
X025008Y035755D01*
X025025Y035833D02*
X025959Y035833D01*
X025925Y035912D02*
X025025Y035912D01*
X025025Y035990D02*
X025925Y035990D01*
X025925Y036069D02*
X025023Y036069D01*
X024815Y036147D02*
X025925Y036147D01*
X025925Y036226D02*
X024737Y036226D01*
X024658Y036304D02*
X025925Y036304D01*
X025925Y036383D02*
X024580Y036383D01*
X024501Y036461D02*
X025925Y036461D01*
X025878Y036540D02*
X024423Y036540D01*
X024344Y036618D02*
X025799Y036618D01*
X025721Y036697D02*
X024300Y036697D01*
X024300Y036775D02*
X025642Y036775D01*
X025564Y036854D02*
X024300Y036854D01*
X024300Y036932D02*
X025485Y036932D01*
X025407Y037011D02*
X024300Y037011D01*
X024000Y037011D02*
X023675Y037011D01*
X023675Y036932D02*
X024000Y036932D01*
X024000Y036854D02*
X023675Y036854D01*
X023675Y036775D02*
X024000Y036775D01*
X024000Y036697D02*
X023675Y036697D01*
X023675Y036618D02*
X024000Y036618D01*
X024000Y036540D02*
X023675Y036540D01*
X023675Y036461D02*
X024077Y036461D01*
X024155Y036383D02*
X023730Y036383D01*
X023808Y036304D02*
X024234Y036304D01*
X024312Y036226D02*
X023887Y036226D01*
X023965Y036147D02*
X024391Y036147D01*
X024469Y036069D02*
X024098Y036069D01*
X024125Y035990D02*
X024548Y035990D01*
X024625Y035912D02*
X024176Y035912D01*
X024254Y035833D02*
X024625Y035833D01*
X024654Y035755D02*
X024366Y035755D01*
X024481Y035676D02*
X024675Y035676D01*
X024740Y035598D02*
X024523Y035598D01*
X024523Y035519D02*
X024819Y035519D01*
X024893Y035441D02*
X024496Y035441D01*
X024418Y035362D02*
X024944Y035362D01*
X024986Y035284D02*
X022638Y035284D01*
X022638Y035362D02*
X024232Y035362D01*
X024182Y035399D02*
X024182Y035399D01*
X024182Y035399D01*
X024154Y035441D02*
X022638Y035441D01*
X022638Y035519D02*
X024115Y035519D01*
X024065Y035598D02*
X022638Y035598D01*
X022638Y035676D02*
X023987Y035676D01*
X023729Y035755D02*
X022638Y035755D01*
X022638Y035833D02*
X023725Y035833D01*
X023725Y035912D02*
X022638Y035912D01*
X022638Y035990D02*
X023698Y035990D01*
X023619Y036069D02*
X022638Y036069D01*
X022638Y036147D02*
X023541Y036147D01*
X023462Y036226D02*
X022638Y036226D01*
X022638Y036304D02*
X023384Y036304D01*
X023375Y036383D02*
X022638Y036383D01*
X022638Y036461D02*
X023375Y036461D01*
X023375Y036540D02*
X022638Y036540D01*
X022638Y036618D02*
X023375Y036618D01*
X023375Y036697D02*
X022638Y036697D01*
X022638Y036775D02*
X023375Y036775D01*
X023375Y036854D02*
X022638Y036854D01*
X022638Y036932D02*
X023375Y036932D01*
X023375Y037011D02*
X022638Y037011D01*
X022638Y037089D02*
X022964Y037089D01*
X022868Y037168D02*
X022638Y037168D01*
X022638Y037246D02*
X022796Y037246D01*
X022764Y037325D02*
X022638Y037325D01*
X022638Y037403D02*
X022731Y037403D01*
X022730Y037482D02*
X022638Y037482D01*
X022638Y037560D02*
X022730Y037560D01*
X022749Y037639D02*
X022638Y037639D01*
X022638Y037717D02*
X022781Y037717D01*
X022831Y037796D02*
X022638Y037796D01*
X023569Y037796D02*
X023730Y037796D01*
X023730Y037717D02*
X023619Y037717D01*
X023651Y037639D02*
X023730Y037639D01*
X023730Y037560D02*
X023670Y037560D01*
X023670Y037482D02*
X023730Y037482D01*
X023730Y037403D02*
X023669Y037403D01*
X023636Y037325D02*
X023730Y037325D01*
X023730Y037246D02*
X023666Y037246D01*
X023675Y037168D02*
X023730Y037168D01*
X024670Y037168D02*
X024868Y037168D01*
X024802Y037234D02*
X024934Y037102D01*
X024802Y037234D02*
X024730Y037407D01*
X024730Y037593D01*
X024802Y037766D01*
X024897Y037862D01*
X024670Y037862D01*
X024670Y037089D01*
X024670Y037246D02*
X024796Y037246D01*
X024764Y037325D02*
X024670Y037325D01*
X024670Y037403D02*
X024731Y037403D01*
X024730Y037482D02*
X024670Y037482D01*
X024670Y037560D02*
X024730Y037560D01*
X024749Y037639D02*
X024670Y037639D01*
X024670Y037717D02*
X024781Y037717D01*
X024831Y037796D02*
X024670Y037796D01*
X025569Y037796D02*
X025831Y037796D01*
X025781Y037717D02*
X025619Y037717D01*
X025651Y037639D02*
X025749Y037639D01*
X025730Y037560D02*
X025670Y037560D01*
X025670Y037482D02*
X025730Y037482D01*
X025731Y037403D02*
X025669Y037403D01*
X025658Y037325D02*
X025764Y037325D01*
X025737Y037246D02*
X025796Y037246D01*
X025815Y037168D02*
X025868Y037168D01*
X025894Y037089D02*
X025964Y037089D01*
X025972Y037011D02*
X029877Y037011D01*
X029850Y037089D02*
X029436Y037089D01*
X029532Y037168D02*
X029850Y037168D01*
X029796Y037246D02*
X029604Y037246D01*
X029636Y037325D02*
X029764Y037325D01*
X029731Y037403D02*
X029669Y037403D01*
X029670Y037482D02*
X029730Y037482D01*
X029730Y037560D02*
X029670Y037560D01*
X029651Y037639D02*
X029749Y037639D01*
X029781Y037717D02*
X029619Y037717D01*
X029569Y037796D02*
X029831Y037796D01*
X030569Y037796D02*
X030831Y037796D01*
X030781Y037717D02*
X030619Y037717D01*
X030651Y037639D02*
X030749Y037639D01*
X030730Y037560D02*
X030670Y037560D01*
X030670Y037482D02*
X030730Y037482D01*
X030731Y037403D02*
X030669Y037403D01*
X030636Y037325D02*
X030764Y037325D01*
X030796Y037246D02*
X030604Y037246D01*
X030677Y037168D02*
X030868Y037168D01*
X030315Y036540D02*
X029781Y036540D01*
X029781Y036461D02*
X030394Y036461D01*
X030472Y036383D02*
X030190Y036383D01*
X030269Y036304D02*
X030551Y036304D01*
X030629Y036226D02*
X030347Y036226D01*
X030426Y036147D02*
X030669Y036147D01*
X030669Y036069D02*
X030504Y036069D01*
X030583Y035990D02*
X030669Y035990D01*
X030237Y036618D02*
X029730Y036618D01*
X029997Y036854D02*
X027630Y036854D01*
X027712Y036775D02*
X030080Y036775D01*
X030158Y036697D02*
X027790Y036697D01*
X027858Y036618D02*
X028470Y036618D01*
X028419Y036540D02*
X027891Y036540D01*
X027924Y036461D02*
X028419Y036461D01*
X028419Y036383D02*
X027956Y036383D01*
X027968Y036304D02*
X028419Y036304D01*
X028419Y036226D02*
X027968Y036226D01*
X027968Y036147D02*
X028364Y036147D01*
X028286Y036069D02*
X027968Y036069D01*
X027945Y035990D02*
X028207Y035990D01*
X028129Y035912D02*
X027912Y035912D01*
X027880Y035833D02*
X028050Y035833D01*
X027972Y035755D02*
X027841Y035755D01*
X027893Y035676D02*
X027763Y035676D01*
X027815Y035598D02*
X027684Y035598D01*
X028066Y035284D02*
X029490Y035284D01*
X029411Y035205D02*
X027988Y035205D01*
X028145Y035362D02*
X029673Y035362D01*
X029149Y035912D02*
X029051Y035912D01*
X029072Y035990D02*
X029128Y035990D01*
X029128Y036069D02*
X029072Y036069D01*
X029072Y036147D02*
X029128Y036147D01*
X029128Y036226D02*
X029072Y036226D01*
X029072Y036304D02*
X029128Y036304D01*
X029128Y036383D02*
X029072Y036383D01*
X029072Y036461D02*
X029128Y036461D01*
X029128Y036540D02*
X029072Y036540D01*
X029021Y036618D02*
X029179Y036618D01*
X028964Y037089D02*
X028436Y037089D01*
X028532Y037168D02*
X028868Y037168D01*
X028796Y037246D02*
X028604Y037246D01*
X028636Y037325D02*
X028764Y037325D01*
X028731Y037403D02*
X028669Y037403D01*
X028670Y037482D02*
X028730Y037482D01*
X028730Y037560D02*
X028670Y037560D01*
X028651Y037639D02*
X028749Y037639D01*
X028781Y037717D02*
X028619Y037717D01*
X028569Y037796D02*
X028831Y037796D01*
X027831Y037796D02*
X027569Y037796D01*
X027619Y037717D02*
X027781Y037717D01*
X027749Y037639D02*
X027651Y037639D01*
X027670Y037560D02*
X027730Y037560D01*
X027730Y037482D02*
X027670Y037482D01*
X027669Y037403D02*
X027731Y037403D01*
X027764Y037325D02*
X027636Y037325D01*
X027604Y037246D02*
X027796Y037246D01*
X027868Y037168D02*
X027532Y037168D01*
X027436Y037089D02*
X027964Y037089D01*
X027440Y036932D02*
X029919Y036932D01*
X026964Y037089D02*
X026436Y037089D01*
X026532Y037168D02*
X026868Y037168D01*
X026796Y037246D02*
X026604Y037246D01*
X026636Y037325D02*
X026764Y037325D01*
X026731Y037403D02*
X026669Y037403D01*
X026670Y037482D02*
X026730Y037482D01*
X026730Y037560D02*
X026670Y037560D01*
X026651Y037639D02*
X026749Y037639D01*
X026781Y037717D02*
X026619Y037717D01*
X026569Y037796D02*
X026831Y037796D01*
X026960Y036932D02*
X026051Y036932D01*
X026129Y036854D02*
X026770Y036854D01*
X026688Y036775D02*
X026208Y036775D01*
X026286Y036697D02*
X026610Y036697D01*
X026542Y036618D02*
X026325Y036618D01*
X026325Y036540D02*
X026509Y036540D01*
X026476Y036461D02*
X026325Y036461D01*
X026325Y036383D02*
X026444Y036383D01*
X026432Y036304D02*
X026325Y036304D01*
X026325Y036226D02*
X026432Y036226D01*
X026432Y036147D02*
X026325Y036147D01*
X026325Y036069D02*
X026432Y036069D01*
X026455Y035990D02*
X026368Y035990D01*
X026446Y035912D02*
X026488Y035912D01*
X026281Y035205D02*
X025236Y035205D01*
X025064Y035205D02*
X024731Y035205D01*
X024750Y035186D02*
X024691Y035245D01*
X024077Y035245D01*
X024019Y035186D01*
X024019Y034316D01*
X024077Y034258D01*
X024594Y034258D01*
X024642Y034210D01*
X024678Y034210D01*
X024698Y034197D01*
X024743Y034152D01*
X024907Y034152D01*
X025023Y034268D01*
X025023Y034432D01*
X024907Y034548D01*
X024873Y034548D01*
X024868Y034552D01*
X024818Y034548D01*
X024750Y034548D01*
X024750Y035186D01*
X024750Y035127D02*
X026263Y035127D01*
X026263Y035048D02*
X024750Y035048D01*
X024750Y034970D02*
X026263Y034970D01*
X026263Y034891D02*
X024750Y034891D01*
X024750Y034813D02*
X026263Y034813D01*
X026263Y034734D02*
X024750Y034734D01*
X024750Y034656D02*
X026263Y034656D01*
X026263Y034577D02*
X024750Y034577D01*
X024868Y034552D02*
X024868Y034552D01*
X024868Y034552D01*
X024957Y034499D02*
X026263Y034499D01*
X026263Y034420D02*
X025023Y034420D01*
X025023Y034342D02*
X026263Y034342D01*
X026316Y034263D02*
X025019Y034263D01*
X024940Y034185D02*
X026400Y034185D01*
X026400Y034106D02*
X022638Y034106D01*
X022638Y034028D02*
X026400Y034028D01*
X026400Y033949D02*
X022638Y033949D01*
X022638Y033871D02*
X026400Y033871D01*
X026400Y033792D02*
X022638Y033792D01*
X022638Y033714D02*
X023274Y033714D01*
X023310Y033728D02*
X023143Y033659D01*
X023016Y033532D01*
X022947Y033365D01*
X022947Y033185D01*
X023016Y033018D01*
X023143Y032891D01*
X023310Y032822D01*
X023490Y032822D01*
X023657Y032891D01*
X023784Y033018D01*
X023853Y033185D01*
X023853Y033365D01*
X023784Y033532D01*
X023657Y033659D01*
X023490Y033728D01*
X023310Y033728D01*
X023119Y033635D02*
X022638Y033635D01*
X022638Y033557D02*
X023040Y033557D01*
X022993Y033478D02*
X022638Y033478D01*
X022638Y033400D02*
X022961Y033400D01*
X022947Y033321D02*
X022638Y033321D01*
X022638Y033243D02*
X022947Y033243D01*
X022955Y033164D02*
X022638Y033164D01*
X022638Y033086D02*
X022988Y033086D01*
X023027Y033007D02*
X022638Y033007D01*
X022638Y032929D02*
X023105Y032929D01*
X023241Y032850D02*
X022638Y032850D01*
X022638Y032772D02*
X026400Y032772D01*
X026400Y032850D02*
X025921Y032850D01*
X025852Y032822D02*
X026019Y032891D01*
X026147Y033018D01*
X026216Y033185D01*
X026216Y033365D01*
X026147Y033532D01*
X026019Y033659D01*
X025852Y033728D01*
X025672Y033728D01*
X025505Y033659D01*
X025378Y033532D01*
X025309Y033365D01*
X025309Y033185D01*
X025378Y033018D01*
X025505Y032891D01*
X025672Y032822D01*
X025852Y032822D01*
X026057Y032929D02*
X026400Y032929D01*
X026400Y033007D02*
X026135Y033007D01*
X026174Y033086D02*
X026400Y033086D01*
X026400Y033164D02*
X026207Y033164D01*
X026216Y033243D02*
X026400Y033243D01*
X026400Y033321D02*
X026216Y033321D01*
X026201Y033400D02*
X026400Y033400D01*
X026400Y033478D02*
X026169Y033478D01*
X026122Y033557D02*
X026400Y033557D01*
X026400Y033635D02*
X026043Y033635D01*
X025888Y033714D02*
X026400Y033714D01*
X025636Y033714D02*
X023526Y033714D01*
X023681Y033635D02*
X025481Y033635D01*
X025403Y033557D02*
X023760Y033557D01*
X023807Y033478D02*
X025356Y033478D01*
X025323Y033400D02*
X023839Y033400D01*
X023853Y033321D02*
X025309Y033321D01*
X025309Y033243D02*
X023853Y033243D01*
X023845Y033164D02*
X025317Y033164D01*
X025350Y033086D02*
X023812Y033086D01*
X023773Y033007D02*
X025389Y033007D01*
X025467Y032929D02*
X023695Y032929D01*
X023559Y032850D02*
X025603Y032850D01*
X025593Y032222D02*
X022638Y032222D01*
X022638Y032144D02*
X025593Y032144D01*
X025593Y032065D02*
X022638Y032065D01*
X022638Y031987D02*
X025593Y031987D01*
X025593Y031908D02*
X022638Y031908D01*
X022638Y031830D02*
X025593Y031830D01*
X025593Y031751D02*
X022638Y031751D01*
X022638Y031673D02*
X025593Y031673D01*
X025593Y031594D02*
X022638Y031594D01*
X022638Y031516D02*
X025593Y031516D01*
X025593Y031437D02*
X022638Y031437D01*
X022638Y031359D02*
X025598Y031359D01*
X025959Y031799D02*
X026094Y031799D01*
X026195Y031900D01*
X027650Y031900D01*
X027625Y031900D01*
X027474Y032065D02*
X026348Y032065D01*
X026096Y032379D02*
X022638Y032379D01*
X022638Y032301D02*
X026018Y032301D01*
X026175Y032458D02*
X022638Y032458D01*
X022638Y032536D02*
X026253Y032536D01*
X026332Y032615D02*
X022638Y032615D01*
X022638Y032693D02*
X026400Y032693D01*
X027625Y032871D02*
X027625Y032375D01*
X027650Y032350D01*
X027850Y032379D02*
X030901Y032379D01*
X030927Y032353D02*
X031055Y032300D01*
X031195Y032300D01*
X031323Y032353D01*
X031422Y032452D01*
X031456Y032535D01*
X032375Y032535D01*
X032375Y032534D01*
X032434Y032475D01*
X032716Y032475D01*
X032743Y032502D01*
X032791Y032502D01*
X032814Y032494D01*
X032814Y032494D01*
X032814Y032494D01*
X032831Y032502D01*
X032907Y032502D01*
X033023Y032618D01*
X033023Y032782D01*
X032907Y032898D01*
X032831Y032898D01*
X032814Y032906D01*
X032791Y032898D01*
X032743Y032898D01*
X032718Y032874D01*
X032716Y032875D01*
X032434Y032875D01*
X032375Y032816D01*
X032375Y032815D01*
X031435Y032815D01*
X031422Y032848D01*
X031323Y032947D01*
X031195Y033000D01*
X031055Y033000D01*
X030927Y032947D01*
X030828Y032848D01*
X030775Y032720D01*
X030775Y032580D01*
X030828Y032452D01*
X030927Y032353D01*
X031054Y032301D02*
X027850Y032301D01*
X027850Y032458D02*
X030826Y032458D01*
X030793Y032536D02*
X027805Y032536D01*
X027765Y032615D02*
X030775Y032615D01*
X030775Y032693D02*
X028091Y032693D01*
X028126Y032772D02*
X030797Y032772D01*
X030830Y032850D02*
X029448Y032850D01*
X029527Y032929D02*
X030909Y032929D01*
X030916Y033164D02*
X029762Y033164D01*
X029684Y033086D02*
X034365Y033086D01*
X034300Y033007D02*
X029605Y033007D01*
X029350Y032950D02*
X029850Y033450D01*
X031125Y033450D01*
X031450Y033321D02*
X032856Y033321D01*
X032777Y033400D02*
X031475Y033400D01*
X031475Y033478D02*
X032699Y033478D01*
X032620Y033557D02*
X031460Y033557D01*
X031427Y033635D02*
X032542Y033635D01*
X032463Y033714D02*
X031356Y033714D01*
X031214Y033792D02*
X032385Y033792D01*
X032306Y033871D02*
X028126Y033871D01*
X028126Y033949D02*
X032228Y033949D01*
X032149Y034028D02*
X028070Y034028D01*
X028126Y033792D02*
X031036Y033792D01*
X030894Y033714D02*
X028126Y033714D01*
X028126Y033635D02*
X030823Y033635D01*
X030837Y033243D02*
X029841Y033243D01*
X029680Y033478D02*
X028126Y033478D01*
X028126Y033557D02*
X029759Y033557D01*
X029602Y033400D02*
X028089Y033400D01*
X028068Y033321D02*
X029523Y033321D01*
X029445Y033243D02*
X028126Y033243D01*
X028126Y033164D02*
X029366Y033164D01*
X029350Y032950D02*
X027796Y032950D01*
X027750Y032996D01*
X027625Y032871D01*
X027750Y033704D02*
X027650Y033804D01*
X027650Y034350D01*
X027500Y034350D01*
X027475Y034325D01*
X027327Y034248D01*
X027300Y034300D01*
X027311Y034357D01*
X027475Y034325D01*
X027450Y034300D01*
X027300Y034300D01*
X027319Y034499D02*
X027457Y034499D01*
X027843Y034499D02*
X029368Y034499D01*
X029446Y034420D02*
X027850Y034420D01*
X027850Y034342D02*
X029568Y034342D01*
X030032Y034342D02*
X031835Y034342D01*
X031757Y034420D02*
X030154Y034420D01*
X030232Y034499D02*
X031678Y034499D01*
X031600Y034577D02*
X030280Y034577D01*
X031914Y034263D02*
X027850Y034263D01*
X027826Y034185D02*
X031992Y034185D01*
X032071Y034106D02*
X027790Y034106D01*
X027510Y034106D02*
X027387Y034106D01*
X027340Y034097D02*
X027340Y034097D01*
X025007Y035249D02*
X025007Y035249D01*
X025007Y035249D01*
X024384Y034751D02*
X024384Y034666D01*
X024654Y034396D01*
X024821Y034408D01*
X024825Y034350D01*
X024792Y034302D01*
X024654Y034396D01*
X024700Y034350D01*
X024825Y034350D01*
X024710Y034185D02*
X022638Y034185D01*
X022638Y034263D02*
X024072Y034263D01*
X024019Y034342D02*
X022638Y034342D01*
X022638Y034420D02*
X024019Y034420D01*
X024019Y034499D02*
X022638Y034499D01*
X022638Y034577D02*
X024019Y034577D01*
X024019Y034656D02*
X022638Y034656D01*
X022638Y034734D02*
X024019Y034734D01*
X024019Y034813D02*
X022638Y034813D01*
X022638Y034891D02*
X024019Y034891D01*
X024019Y034970D02*
X022638Y034970D01*
X022638Y035048D02*
X024019Y035048D01*
X024019Y035127D02*
X022638Y035127D01*
X022638Y035205D02*
X024037Y035205D01*
X031125Y032650D02*
X031150Y032675D01*
X032575Y032675D01*
X032600Y032700D01*
X032648Y032700D01*
X032806Y032755D01*
X032825Y032700D01*
X032806Y032645D01*
X032648Y032700D01*
X032825Y032700D01*
X033023Y032693D02*
X034300Y032693D01*
X034300Y032615D02*
X033020Y032615D01*
X032942Y032536D02*
X033675Y032536D01*
X033675Y032458D02*
X031424Y032458D01*
X031349Y032379D02*
X033675Y032379D01*
X033675Y032301D02*
X031196Y032301D01*
X031420Y032850D02*
X032409Y032850D01*
X032814Y032906D02*
X032814Y032906D01*
X032814Y032906D01*
X032956Y032850D02*
X034300Y032850D01*
X034300Y032772D02*
X033023Y032772D01*
X034300Y032929D02*
X031341Y032929D01*
X040307Y030652D02*
X042562Y030652D01*
X042562Y030731D02*
X040420Y030731D01*
X040499Y030809D02*
X042562Y030809D01*
D26*
X042500Y029815D03*
X042500Y028215D03*
X042500Y026700D03*
X041650Y025200D03*
X040700Y025225D03*
X039700Y025225D03*
X040270Y026715D03*
X040400Y028310D03*
X039290Y028340D03*
X039250Y029575D03*
X038100Y030075D03*
X037975Y029675D03*
X037050Y029425D03*
X037050Y029975D03*
X037500Y030400D03*
X037500Y030700D03*
X037675Y030950D03*
X036775Y030900D03*
X036300Y030900D03*
X036050Y030675D03*
X036075Y030400D03*
X035175Y031325D03*
X035840Y031590D03*
X036140Y031890D03*
X036550Y031650D03*
X036825Y031675D03*
X037200Y031850D03*
X036540Y032340D03*
X035990Y032915D03*
X035400Y033000D03*
X034850Y032790D03*
X034675Y033025D03*
X034250Y033150D03*
X033870Y032680D03*
X034275Y032050D03*
X034550Y032075D03*
X033925Y031325D03*
X033150Y031120D03*
X032675Y031290D03*
X032850Y031625D03*
X031700Y031090D03*
X032130Y030810D03*
X032940Y030300D03*
X033950Y030100D03*
X034550Y030775D03*
X034975Y030125D03*
X035225Y029325D03*
X035525Y029425D03*
X035750Y029775D03*
X035875Y029100D03*
X035450Y027775D03*
X034800Y027400D03*
X034725Y028025D03*
X034100Y028800D03*
X032990Y028075D03*
X032725Y028050D03*
X032275Y028350D03*
X032275Y027625D03*
X032290Y027235D03*
X033200Y026455D03*
X033700Y027115D03*
X034925Y026475D03*
X034725Y025225D03*
X035725Y025225D03*
X036700Y025225D03*
X037700Y025225D03*
X036675Y026825D03*
X033715Y025245D03*
X032700Y025240D03*
X031730Y025225D03*
X031700Y025775D03*
X031000Y026010D03*
X030720Y025270D03*
X029715Y025245D03*
X028705Y025245D03*
X028445Y026140D03*
X028380Y027045D03*
X028325Y027375D03*
X029195Y026655D03*
X029485Y026375D03*
X029950Y026250D03*
X030375Y026565D03*
X028360Y028720D03*
X027300Y028430D03*
X026450Y028565D03*
X027325Y029325D03*
X027015Y030440D03*
X025750Y031050D03*
X026540Y032110D03*
X027325Y032105D03*
X027335Y031650D03*
X028625Y030895D03*
X029240Y031895D03*
X028715Y032595D03*
X029050Y033350D03*
X029490Y034190D03*
X030145Y033745D03*
X030135Y033015D03*
X031580Y034190D03*
X032885Y034685D03*
X033520Y035320D03*
X033100Y035625D03*
X034525Y036250D03*
X035175Y036825D03*
X035675Y036525D03*
X036040Y035890D03*
X036390Y036340D03*
X036715Y037795D03*
X035725Y037800D03*
X034725Y037800D03*
X032710Y037785D03*
X031700Y037800D03*
X030720Y037790D03*
X029700Y037790D03*
X028710Y037795D03*
X027710Y037795D03*
X026710Y037790D03*
X025710Y037795D03*
X025560Y036460D03*
X024980Y036450D03*
X024680Y035565D03*
X024325Y035550D03*
X025150Y035400D03*
X025320Y034555D03*
X024825Y034350D03*
X025020Y033475D03*
X026335Y034105D03*
X026960Y034110D03*
X027300Y034300D03*
X028600Y034390D03*
X030110Y035845D03*
X030555Y036120D03*
X031440Y035890D03*
X031460Y036765D03*
X030015Y036725D03*
X028305Y036545D03*
X023665Y037790D03*
X022720Y037795D03*
X022765Y036345D03*
X022840Y032765D03*
X022765Y031205D03*
X022750Y028100D03*
X022750Y026600D03*
X022725Y025250D03*
X023665Y025240D03*
X024735Y025230D03*
X024675Y026000D03*
X025250Y026475D03*
X025000Y027050D03*
X025710Y025255D03*
X026695Y025255D03*
X027290Y026040D03*
X027705Y025255D03*
X028600Y030025D03*
X030000Y030720D03*
X030025Y031485D03*
X032490Y033220D03*
X032825Y032700D03*
X033290Y033870D03*
X034600Y034900D03*
X035940Y034890D03*
X037165Y034865D03*
X038390Y034890D03*
X039865Y035615D03*
X040365Y036365D03*
X040940Y036890D03*
X040690Y037290D03*
X040715Y037790D03*
X041665Y037790D03*
X039715Y037790D03*
X038715Y037790D03*
X038965Y036865D03*
X039540Y036640D03*
X040625Y034575D03*
X039850Y033550D03*
X040700Y033235D03*
X039500Y032400D03*
X038525Y031500D03*
X038975Y033175D03*
X037515Y033515D03*
X036965Y033490D03*
X036040Y033765D03*
X040700Y031550D03*
X040400Y030625D03*
X042480Y033350D03*
X042490Y035100D03*
D27*
X037200Y035628D02*
X036647Y035628D01*
X035832Y036443D01*
X035665Y036478D01*
X035675Y036525D01*
X035708Y036560D01*
X035832Y036443D01*
X035750Y036525D01*
X035675Y036525D01*
X034725Y035628D02*
X034722Y035625D01*
X033277Y035625D01*
X033113Y035578D01*
X033100Y035625D01*
X033113Y035672D01*
X033277Y035625D01*
X033100Y035625D01*
X034725Y034172D02*
X035278Y034172D01*
X036200Y033250D01*
X036200Y032275D01*
X035609Y031684D01*
X035239Y031684D01*
X035534Y031192D02*
X035792Y031192D01*
X037200Y032600D01*
X037200Y034172D01*
X034675Y033025D02*
X034669Y032977D01*
X034500Y033000D01*
X034655Y033069D01*
X034675Y033025D01*
X034525Y033025D01*
X034500Y033000D01*
X034450Y032950D01*
X034450Y032550D01*
X034300Y032400D01*
X034225Y032400D01*
X034225Y032375D01*
X034058Y032208D01*
X034058Y031684D01*
X033861Y031684D02*
X033850Y031695D01*
X033850Y032375D01*
X033875Y032400D01*
X033845Y031700D02*
X033400Y031700D01*
X031300Y029600D01*
X031300Y028700D01*
X031050Y028450D01*
X031000Y028450D01*
X034648Y029652D02*
X034900Y029400D01*
X034900Y029150D01*
X034850Y029100D01*
X034648Y029652D02*
X034648Y029716D01*
X036700Y029700D02*
X036800Y029800D01*
X036800Y030000D01*
X036700Y030100D01*
X036750Y030100D01*
X037000Y030350D01*
X037000Y031500D01*
X036950Y031550D01*
X036801Y031633D01*
X036825Y031675D01*
X036867Y031699D01*
X036950Y031550D01*
X036825Y031675D01*
X033861Y031684D02*
X033845Y031700D01*
X025174Y035442D02*
X025150Y035400D01*
X025108Y035376D01*
X025025Y035525D01*
X025174Y035442D01*
X025150Y035400D02*
X025025Y035525D01*
X024825Y035725D01*
X024825Y035925D01*
X024150Y036600D01*
X024150Y037450D01*
X024200Y037500D01*
X023525Y037175D02*
X023525Y036375D01*
X023925Y035975D01*
X023925Y035900D01*
X023975Y035900D01*
X024200Y035675D01*
X024349Y035592D01*
X024325Y035550D01*
X024283Y035526D01*
X024200Y035675D01*
X024325Y035550D01*
X023525Y037175D02*
X023200Y037500D01*
D28*
X030200Y037500D02*
X030200Y037146D01*
X030204Y037146D01*
X030996Y036354D01*
X030996Y036300D01*
X041200Y035304D02*
X041250Y035354D01*
X041250Y036550D01*
X042200Y037500D01*
X027850Y027396D02*
X027804Y027350D01*
X027050Y027350D01*
X025200Y025500D01*
D29*
X032200Y025500D02*
X032200Y026000D01*
X033025Y026825D01*
X034975Y026825D01*
X035975Y027825D01*
X035975Y028204D01*
X035929Y028250D01*
D30*
X035221Y028250D02*
X035221Y027821D01*
X034925Y027525D01*
X034819Y027386D01*
X034800Y027400D01*
X034786Y027419D01*
X034925Y027525D01*
X034800Y027400D01*
X035221Y028250D02*
X035200Y028271D01*
X035200Y028800D01*
X036475Y028800D01*
X036750Y029075D01*
X036750Y029200D01*
X036700Y029250D01*
X036800Y029350D01*
X036800Y029700D01*
X036700Y029700D01*
X035200Y028800D02*
X034900Y028800D01*
X034850Y028800D01*
X034850Y028750D01*
X034900Y028800D01*
X034900Y029100D01*
X034850Y029100D01*
X029964Y026269D02*
X029950Y026250D01*
X029931Y026236D01*
X029825Y026375D01*
X029964Y026269D01*
X029950Y026250D02*
X029825Y026375D01*
X028600Y027600D01*
X028600Y028925D01*
X028175Y029350D01*
X027900Y029350D01*
D31*
X025959Y031799D02*
X025999Y031839D01*
X025999Y031999D01*
X026600Y032600D01*
X026600Y034450D01*
X026628Y034478D01*
X026628Y034751D01*
X026725Y035350D02*
X027850Y035350D01*
X028746Y036246D01*
X028746Y036250D01*
X026725Y035350D02*
X026125Y035950D01*
X026125Y036575D01*
X025200Y037500D01*
M02*
