G75*
%MOIN*%
%OFA0B0*%
%FSLAX24Y24*%
%IPPOS*%
%LPD*%
%AMOC8*
5,1,8,0,0,1.08239X$1,22.5*
%
%ADD10C,0.0000*%
%ADD11C,0.0050*%
%ADD12C,0.0030*%
%ADD13C,0.0080*%
D10*
X022500Y025000D02*
X035850Y025000D01*
X035850Y038000D01*
X022500Y038000D01*
X022500Y025000D01*
X023578Y027957D02*
X023580Y028002D01*
X023586Y028046D01*
X023595Y028090D01*
X023609Y028132D01*
X023626Y028173D01*
X023647Y028213D01*
X023671Y028251D01*
X023698Y028286D01*
X023728Y028319D01*
X023761Y028349D01*
X023796Y028376D01*
X023834Y028400D01*
X023874Y028421D01*
X023915Y028438D01*
X023957Y028452D01*
X024001Y028461D01*
X024045Y028467D01*
X024090Y028469D01*
X024135Y028467D01*
X024179Y028461D01*
X024223Y028452D01*
X024265Y028438D01*
X024306Y028421D01*
X024346Y028400D01*
X024384Y028376D01*
X024419Y028349D01*
X024452Y028319D01*
X024482Y028286D01*
X024509Y028251D01*
X024533Y028213D01*
X024554Y028173D01*
X024571Y028132D01*
X024585Y028090D01*
X024594Y028046D01*
X024600Y028002D01*
X024602Y027957D01*
X024600Y027912D01*
X024594Y027868D01*
X024585Y027824D01*
X024571Y027782D01*
X024554Y027741D01*
X024533Y027701D01*
X024509Y027663D01*
X024482Y027628D01*
X024452Y027595D01*
X024419Y027565D01*
X024384Y027538D01*
X024346Y027514D01*
X024306Y027493D01*
X024265Y027476D01*
X024223Y027462D01*
X024179Y027453D01*
X024135Y027447D01*
X024090Y027445D01*
X024045Y027447D01*
X024001Y027453D01*
X023957Y027462D01*
X023915Y027476D01*
X023874Y027493D01*
X023834Y027514D01*
X023796Y027538D01*
X023761Y027565D01*
X023728Y027595D01*
X023698Y027628D01*
X023671Y027663D01*
X023647Y027701D01*
X023626Y027741D01*
X023609Y027782D01*
X023595Y027824D01*
X023586Y027868D01*
X023580Y027912D01*
X023578Y027957D01*
X023578Y030603D02*
X023580Y030648D01*
X023586Y030692D01*
X023595Y030736D01*
X023609Y030778D01*
X023626Y030819D01*
X023647Y030859D01*
X023671Y030897D01*
X023698Y030932D01*
X023728Y030965D01*
X023761Y030995D01*
X023796Y031022D01*
X023834Y031046D01*
X023874Y031067D01*
X023915Y031084D01*
X023957Y031098D01*
X024001Y031107D01*
X024045Y031113D01*
X024090Y031115D01*
X024135Y031113D01*
X024179Y031107D01*
X024223Y031098D01*
X024265Y031084D01*
X024306Y031067D01*
X024346Y031046D01*
X024384Y031022D01*
X024419Y030995D01*
X024452Y030965D01*
X024482Y030932D01*
X024509Y030897D01*
X024533Y030859D01*
X024554Y030819D01*
X024571Y030778D01*
X024585Y030736D01*
X024594Y030692D01*
X024600Y030648D01*
X024602Y030603D01*
X024600Y030558D01*
X024594Y030514D01*
X024585Y030470D01*
X024571Y030428D01*
X024554Y030387D01*
X024533Y030347D01*
X024509Y030309D01*
X024482Y030274D01*
X024452Y030241D01*
X024419Y030211D01*
X024384Y030184D01*
X024346Y030160D01*
X024306Y030139D01*
X024265Y030122D01*
X024223Y030108D01*
X024179Y030099D01*
X024135Y030093D01*
X024090Y030091D01*
X024045Y030093D01*
X024001Y030099D01*
X023957Y030108D01*
X023915Y030122D01*
X023874Y030139D01*
X023834Y030160D01*
X023796Y030184D01*
X023761Y030211D01*
X023728Y030241D01*
X023698Y030274D01*
X023671Y030309D01*
X023647Y030347D01*
X023626Y030387D01*
X023609Y030428D01*
X023595Y030470D01*
X023586Y030514D01*
X023580Y030558D01*
X023578Y030603D01*
X023335Y033850D02*
X023337Y033885D01*
X023343Y033920D01*
X023353Y033954D01*
X023366Y033987D01*
X023383Y034018D01*
X023404Y034046D01*
X023427Y034073D01*
X023454Y034096D01*
X023482Y034117D01*
X023513Y034134D01*
X023546Y034147D01*
X023580Y034157D01*
X023615Y034163D01*
X023650Y034165D01*
X023685Y034163D01*
X023720Y034157D01*
X023754Y034147D01*
X023787Y034134D01*
X023818Y034117D01*
X023846Y034096D01*
X023873Y034073D01*
X023896Y034046D01*
X023917Y034018D01*
X023934Y033987D01*
X023947Y033954D01*
X023957Y033920D01*
X023963Y033885D01*
X023965Y033850D01*
X023963Y033815D01*
X023957Y033780D01*
X023947Y033746D01*
X023934Y033713D01*
X023917Y033682D01*
X023896Y033654D01*
X023873Y033627D01*
X023846Y033604D01*
X023818Y033583D01*
X023787Y033566D01*
X023754Y033553D01*
X023720Y033543D01*
X023685Y033537D01*
X023650Y033535D01*
X023615Y033537D01*
X023580Y033543D01*
X023546Y033553D01*
X023513Y033566D01*
X023482Y033583D01*
X023454Y033604D01*
X023427Y033627D01*
X023404Y033654D01*
X023383Y033682D01*
X023366Y033713D01*
X023353Y033746D01*
X023343Y033780D01*
X023337Y033815D01*
X023335Y033850D01*
X025697Y033850D02*
X025699Y033885D01*
X025705Y033920D01*
X025715Y033954D01*
X025728Y033987D01*
X025745Y034018D01*
X025766Y034046D01*
X025789Y034073D01*
X025816Y034096D01*
X025844Y034117D01*
X025875Y034134D01*
X025908Y034147D01*
X025942Y034157D01*
X025977Y034163D01*
X026012Y034165D01*
X026047Y034163D01*
X026082Y034157D01*
X026116Y034147D01*
X026149Y034134D01*
X026180Y034117D01*
X026208Y034096D01*
X026235Y034073D01*
X026258Y034046D01*
X026279Y034018D01*
X026296Y033987D01*
X026309Y033954D01*
X026319Y033920D01*
X026325Y033885D01*
X026327Y033850D01*
X026325Y033815D01*
X026319Y033780D01*
X026309Y033746D01*
X026296Y033713D01*
X026279Y033682D01*
X026258Y033654D01*
X026235Y033627D01*
X026208Y033604D01*
X026180Y033583D01*
X026149Y033566D01*
X026116Y033553D01*
X026082Y033543D01*
X026047Y033537D01*
X026012Y033535D01*
X025977Y033537D01*
X025942Y033543D01*
X025908Y033553D01*
X025875Y033566D01*
X025844Y033583D01*
X025816Y033604D01*
X025789Y033627D01*
X025766Y033654D01*
X025745Y033682D01*
X025728Y033713D01*
X025715Y033746D01*
X025705Y033780D01*
X025699Y033815D01*
X025697Y033850D01*
D11*
X027200Y032750D02*
X022450Y032750D01*
X021491Y031367D02*
X021491Y027233D01*
X027200Y027233D01*
X027200Y031367D01*
X021491Y031367D01*
X022450Y035000D02*
X027200Y035000D01*
X027200Y032750D01*
X028350Y033105D02*
X028350Y033945D01*
X028500Y034175D02*
X028500Y032875D01*
X028650Y032725D02*
X028650Y033275D01*
X028800Y033205D02*
X028800Y032655D01*
X028950Y032575D02*
X028950Y033225D01*
X029100Y033325D02*
X029100Y032555D01*
X029250Y032525D02*
X029250Y034525D01*
X029100Y034495D02*
X029100Y033725D01*
X028950Y033825D02*
X028950Y034475D01*
X028800Y034395D02*
X028800Y033845D01*
X028650Y033775D02*
X028650Y034325D01*
X028250Y033525D02*
X028252Y033588D01*
X028258Y033650D01*
X028268Y033712D01*
X028281Y033774D01*
X028299Y033834D01*
X028320Y033893D01*
X028345Y033951D01*
X028374Y034007D01*
X028406Y034061D01*
X028441Y034113D01*
X028479Y034162D01*
X028521Y034210D01*
X028565Y034254D01*
X028613Y034296D01*
X028662Y034334D01*
X028714Y034369D01*
X028768Y034401D01*
X028824Y034430D01*
X028882Y034455D01*
X028941Y034476D01*
X029001Y034494D01*
X029063Y034507D01*
X029125Y034517D01*
X029187Y034523D01*
X029250Y034525D01*
X029313Y034523D01*
X029375Y034517D01*
X029437Y034507D01*
X029499Y034494D01*
X029559Y034476D01*
X029618Y034455D01*
X029676Y034430D01*
X029732Y034401D01*
X029786Y034369D01*
X029838Y034334D01*
X029887Y034296D01*
X029935Y034254D01*
X029979Y034210D01*
X030021Y034162D01*
X030059Y034113D01*
X030094Y034061D01*
X030126Y034007D01*
X030155Y033951D01*
X030180Y033893D01*
X030201Y033834D01*
X030219Y033774D01*
X030232Y033712D01*
X030242Y033650D01*
X030248Y033588D01*
X030250Y033525D01*
X030248Y033462D01*
X030242Y033400D01*
X030232Y033338D01*
X030219Y033276D01*
X030201Y033216D01*
X030180Y033157D01*
X030155Y033099D01*
X030126Y033043D01*
X030094Y032989D01*
X030059Y032937D01*
X030021Y032888D01*
X029979Y032840D01*
X029935Y032796D01*
X029887Y032754D01*
X029838Y032716D01*
X029786Y032681D01*
X029732Y032649D01*
X029676Y032620D01*
X029618Y032595D01*
X029559Y032574D01*
X029499Y032556D01*
X029437Y032543D01*
X029375Y032533D01*
X029313Y032527D01*
X029250Y032525D01*
X029187Y032527D01*
X029125Y032533D01*
X029063Y032543D01*
X029001Y032556D01*
X028941Y032574D01*
X028882Y032595D01*
X028824Y032620D01*
X028768Y032649D01*
X028714Y032681D01*
X028662Y032716D01*
X028613Y032754D01*
X028565Y032796D01*
X028521Y032840D01*
X028479Y032888D01*
X028441Y032937D01*
X028406Y032989D01*
X028374Y033043D01*
X028345Y033099D01*
X028320Y033157D01*
X028299Y033216D01*
X028281Y033276D01*
X028268Y033338D01*
X028258Y033400D01*
X028252Y033462D01*
X028250Y033525D01*
X028950Y032225D02*
X028950Y031575D01*
X028800Y031595D02*
X028800Y032145D01*
X028650Y032075D02*
X028650Y031525D01*
X028350Y031695D02*
X028350Y030855D01*
X028500Y030625D02*
X028500Y031925D01*
X029100Y032245D02*
X029100Y031475D01*
X028250Y031275D02*
X028252Y031338D01*
X028258Y031400D01*
X028268Y031462D01*
X028281Y031524D01*
X028299Y031584D01*
X028320Y031643D01*
X028345Y031701D01*
X028374Y031757D01*
X028406Y031811D01*
X028441Y031863D01*
X028479Y031912D01*
X028521Y031960D01*
X028565Y032004D01*
X028613Y032046D01*
X028662Y032084D01*
X028714Y032119D01*
X028768Y032151D01*
X028824Y032180D01*
X028882Y032205D01*
X028941Y032226D01*
X029001Y032244D01*
X029063Y032257D01*
X029125Y032267D01*
X029187Y032273D01*
X029250Y032275D01*
X029313Y032273D01*
X029375Y032267D01*
X029437Y032257D01*
X029499Y032244D01*
X029559Y032226D01*
X029618Y032205D01*
X029676Y032180D01*
X029732Y032151D01*
X029786Y032119D01*
X029838Y032084D01*
X029887Y032046D01*
X029935Y032004D01*
X029979Y031960D01*
X030021Y031912D01*
X030059Y031863D01*
X030094Y031811D01*
X030126Y031757D01*
X030155Y031701D01*
X030180Y031643D01*
X030201Y031584D01*
X030219Y031524D01*
X030232Y031462D01*
X030242Y031400D01*
X030248Y031338D01*
X030250Y031275D01*
X030248Y031212D01*
X030242Y031150D01*
X030232Y031088D01*
X030219Y031026D01*
X030201Y030966D01*
X030180Y030907D01*
X030155Y030849D01*
X030126Y030793D01*
X030094Y030739D01*
X030059Y030687D01*
X030021Y030638D01*
X029979Y030590D01*
X029935Y030546D01*
X029887Y030504D01*
X029838Y030466D01*
X029786Y030431D01*
X029732Y030399D01*
X029676Y030370D01*
X029618Y030345D01*
X029559Y030324D01*
X029499Y030306D01*
X029437Y030293D01*
X029375Y030283D01*
X029313Y030277D01*
X029250Y030275D01*
X029187Y030277D01*
X029125Y030283D01*
X029063Y030293D01*
X029001Y030306D01*
X028941Y030324D01*
X028882Y030345D01*
X028824Y030370D01*
X028768Y030399D01*
X028714Y030431D01*
X028662Y030466D01*
X028613Y030504D01*
X028565Y030546D01*
X028521Y030590D01*
X028479Y030638D01*
X028441Y030687D01*
X028406Y030739D01*
X028374Y030793D01*
X028345Y030849D01*
X028320Y030907D01*
X028299Y030966D01*
X028281Y031026D01*
X028268Y031088D01*
X028258Y031150D01*
X028252Y031212D01*
X028250Y031275D01*
X028650Y031025D02*
X028650Y030475D01*
X028800Y030405D02*
X028800Y030955D01*
X028950Y030975D02*
X028950Y030325D01*
X029100Y030305D02*
X029100Y031075D01*
X029250Y030275D02*
X029250Y032275D01*
X031200Y031000D02*
X031600Y031000D01*
X031600Y030200D01*
X031200Y030200D01*
X031200Y031000D01*
X031575Y031000D02*
X031975Y031000D01*
X031975Y030200D01*
X031575Y030200D01*
X031575Y031000D01*
X032025Y031000D02*
X032025Y030200D01*
X032425Y030200D01*
X032425Y031000D01*
X032025Y031000D01*
X032350Y031000D02*
X032350Y030200D01*
X032750Y030200D01*
X032750Y031000D01*
X032350Y031000D01*
X032750Y031000D02*
X032750Y030200D01*
X033150Y030200D01*
X033150Y031000D01*
X032750Y031000D01*
X033100Y031000D02*
X033100Y030200D01*
X033500Y030200D01*
X033500Y031000D01*
X033100Y031000D01*
X034040Y031612D02*
X031560Y031612D01*
X031560Y033738D01*
X034040Y033738D01*
X034040Y031612D01*
X033320Y030020D02*
X030880Y030020D01*
X030880Y027580D01*
X033320Y027580D01*
X033320Y030020D01*
X033650Y029175D02*
X033650Y028775D01*
X034450Y028775D01*
X034450Y029175D01*
X033650Y029175D01*
X033650Y028750D02*
X033650Y028350D01*
X034450Y028350D01*
X034450Y028750D01*
X033650Y028750D01*
X033650Y028325D02*
X033650Y027925D01*
X034450Y027925D01*
X034450Y028325D01*
X033650Y028325D01*
X033625Y027875D02*
X033625Y027475D01*
X034425Y027475D01*
X034425Y027875D01*
X033625Y027875D01*
X033200Y027175D02*
X032800Y027175D01*
X032400Y027175D01*
X032400Y026375D01*
X032800Y026375D01*
X032800Y027175D01*
X032800Y026375D01*
X033200Y026375D01*
X033200Y027175D01*
X032350Y027225D02*
X031950Y027225D01*
X031950Y026425D01*
X032350Y026425D01*
X032350Y027225D01*
X032025Y027225D02*
X031625Y027225D01*
X031625Y026425D01*
X032025Y026425D01*
X032025Y027225D01*
X031675Y027225D02*
X031275Y027225D01*
X031275Y026425D01*
X031675Y026425D01*
X031675Y027225D01*
X031300Y027225D02*
X030900Y027225D01*
X030900Y026425D01*
X031300Y026425D01*
X031300Y027225D01*
X030950Y027225D02*
X030550Y027225D01*
X030550Y026425D01*
X030950Y026425D01*
X030950Y027225D01*
X029400Y026800D02*
X028000Y026800D01*
X028000Y026000D01*
X029400Y026000D01*
X029400Y026800D01*
X027800Y026000D02*
X027800Y025000D01*
X026800Y025000D01*
X026800Y026000D01*
X027800Y026000D01*
X026800Y026000D02*
X025800Y026000D01*
X025800Y025000D01*
X026800Y025000D01*
X023364Y026225D02*
X023366Y026284D01*
X023372Y026343D01*
X023382Y026401D01*
X023395Y026459D01*
X023413Y026516D01*
X023434Y026571D01*
X023459Y026625D01*
X023488Y026677D01*
X023520Y026726D01*
X023555Y026774D01*
X023593Y026819D01*
X023634Y026862D01*
X023678Y026902D01*
X023724Y026938D01*
X023773Y026972D01*
X023824Y027002D01*
X023877Y027029D01*
X023932Y027052D01*
X023987Y027071D01*
X024045Y027087D01*
X024103Y027099D01*
X024161Y027107D01*
X024220Y027111D01*
X024280Y027111D01*
X024339Y027107D01*
X024397Y027099D01*
X024455Y027087D01*
X024513Y027071D01*
X024568Y027052D01*
X024623Y027029D01*
X024676Y027002D01*
X024727Y026972D01*
X024776Y026938D01*
X024822Y026902D01*
X024866Y026862D01*
X024907Y026819D01*
X024945Y026774D01*
X024980Y026726D01*
X025012Y026677D01*
X025041Y026625D01*
X025066Y026571D01*
X025087Y026516D01*
X025105Y026459D01*
X025118Y026401D01*
X025128Y026343D01*
X025134Y026284D01*
X025136Y026225D01*
X025134Y026166D01*
X025128Y026107D01*
X025118Y026049D01*
X025105Y025991D01*
X025087Y025934D01*
X025066Y025879D01*
X025041Y025825D01*
X025012Y025773D01*
X024980Y025724D01*
X024945Y025676D01*
X024907Y025631D01*
X024866Y025588D01*
X024822Y025548D01*
X024776Y025512D01*
X024727Y025478D01*
X024676Y025448D01*
X024623Y025421D01*
X024568Y025398D01*
X024513Y025379D01*
X024455Y025363D01*
X024397Y025351D01*
X024339Y025343D01*
X024280Y025339D01*
X024220Y025339D01*
X024161Y025343D01*
X024103Y025351D01*
X024045Y025363D01*
X023987Y025379D01*
X023932Y025398D01*
X023877Y025421D01*
X023824Y025448D01*
X023773Y025478D01*
X023724Y025512D01*
X023678Y025548D01*
X023634Y025588D01*
X023593Y025631D01*
X023555Y025676D01*
X023520Y025724D01*
X023488Y025773D01*
X023459Y025825D01*
X023434Y025879D01*
X023413Y025934D01*
X023395Y025991D01*
X023382Y026049D01*
X023372Y026107D01*
X023366Y026166D01*
X023364Y026225D01*
X023856Y026540D02*
X023858Y026567D01*
X023864Y026594D01*
X023873Y026620D01*
X023886Y026644D01*
X023902Y026667D01*
X023921Y026686D01*
X023943Y026703D01*
X023967Y026717D01*
X023992Y026727D01*
X024019Y026734D01*
X024046Y026737D01*
X024074Y026736D01*
X024101Y026731D01*
X024127Y026723D01*
X024151Y026711D01*
X024174Y026695D01*
X024195Y026677D01*
X024212Y026656D01*
X024227Y026632D01*
X024238Y026607D01*
X024246Y026581D01*
X024250Y026554D01*
X024250Y026526D01*
X024246Y026499D01*
X024238Y026473D01*
X024227Y026448D01*
X024212Y026424D01*
X024195Y026403D01*
X024174Y026385D01*
X024152Y026369D01*
X024127Y026357D01*
X024101Y026349D01*
X024074Y026344D01*
X024046Y026343D01*
X024019Y026346D01*
X023992Y026353D01*
X023967Y026363D01*
X023943Y026377D01*
X023921Y026394D01*
X023902Y026413D01*
X023886Y026436D01*
X023873Y026460D01*
X023864Y026486D01*
X023858Y026513D01*
X023856Y026540D01*
X027550Y028350D02*
X027550Y028750D01*
X028350Y028750D01*
X028350Y028350D01*
X027550Y028350D01*
X027550Y029100D02*
X027550Y029500D01*
X028350Y029500D01*
X028350Y029100D01*
X027550Y029100D01*
X031037Y029784D02*
X031039Y029802D01*
X031045Y029818D01*
X031054Y029833D01*
X031067Y029846D01*
X031082Y029855D01*
X031098Y029861D01*
X031116Y029863D01*
X031134Y029861D01*
X031150Y029855D01*
X031165Y029846D01*
X031178Y029833D01*
X031187Y029818D01*
X031193Y029802D01*
X031195Y029784D01*
X031193Y029766D01*
X031187Y029750D01*
X031178Y029735D01*
X031165Y029722D01*
X031150Y029713D01*
X031134Y029707D01*
X031116Y029705D01*
X031098Y029707D01*
X031082Y029713D01*
X031067Y029722D01*
X031054Y029735D01*
X031045Y029750D01*
X031039Y029766D01*
X031037Y029784D01*
X034925Y028025D02*
X034925Y026625D01*
X035725Y026625D01*
X035725Y028025D01*
X034925Y028025D01*
X034040Y033912D02*
X031560Y033912D01*
X031560Y036038D01*
X034040Y036038D01*
X034040Y033912D01*
X028400Y036400D02*
X028400Y036800D01*
X027600Y036800D01*
X027600Y036400D01*
X028400Y036400D01*
X027800Y037000D02*
X027800Y038000D01*
X026800Y038000D01*
X026800Y037000D01*
X025800Y037000D01*
X025800Y038000D01*
X026800Y038000D01*
X026800Y037000D02*
X027800Y037000D01*
X027250Y036800D02*
X026450Y036800D01*
X026450Y036400D01*
X027250Y036400D01*
X027250Y036800D01*
D12*
X026135Y036749D02*
X026135Y036653D01*
X026087Y036604D01*
X025990Y036604D02*
X025942Y036701D01*
X025942Y036749D01*
X025990Y036798D01*
X026087Y036798D01*
X026135Y036749D01*
X025990Y036604D02*
X025845Y036604D01*
X025845Y036798D01*
X025845Y036406D02*
X026135Y036406D01*
X026135Y036310D02*
X026135Y036503D01*
X025942Y036310D02*
X025845Y036406D01*
X025893Y036208D02*
X025845Y036160D01*
X025845Y036063D01*
X025893Y036015D01*
X026087Y036015D01*
X026135Y036063D01*
X026135Y036160D01*
X026087Y036208D01*
X025610Y036231D02*
X025417Y036231D01*
X025514Y036231D02*
X025514Y036521D01*
X025417Y036424D01*
X025316Y036521D02*
X025122Y036521D01*
X025122Y036231D01*
X025316Y036231D01*
X025219Y036376D02*
X025122Y036376D01*
X025021Y036231D02*
X025021Y036521D01*
X024828Y036521D02*
X025021Y036231D01*
X024828Y036231D02*
X024828Y036521D01*
X024726Y036473D02*
X024678Y036521D01*
X024581Y036521D01*
X024533Y036473D01*
X024533Y036279D01*
X024581Y036231D01*
X024678Y036231D01*
X024726Y036279D01*
X024726Y036473D01*
X024432Y036521D02*
X024432Y036231D01*
X024432Y036376D02*
X024238Y036376D01*
X024137Y036376D02*
X024089Y036327D01*
X023944Y036327D01*
X023944Y036231D02*
X023944Y036521D01*
X024089Y036521D01*
X024137Y036473D01*
X024137Y036376D01*
X024238Y036231D02*
X024238Y036521D01*
X023842Y036473D02*
X023794Y036521D01*
X023649Y036521D01*
X023649Y036231D01*
X023794Y036231D01*
X023842Y036279D01*
X023842Y036473D01*
X023548Y036424D02*
X023548Y036231D01*
X023548Y036376D02*
X023354Y036376D01*
X023354Y036424D02*
X023451Y036521D01*
X023548Y036424D01*
X023354Y036424D02*
X023354Y036231D01*
X023253Y036231D02*
X023060Y036231D01*
X023060Y036521D01*
X023253Y036521D01*
X023156Y036376D02*
X023060Y036376D01*
X022958Y036376D02*
X022765Y036376D01*
X022765Y036231D02*
X022765Y036521D01*
X022958Y036521D02*
X022958Y036231D01*
X024985Y037382D02*
X024985Y037478D01*
X024985Y037430D02*
X025227Y037430D01*
X025275Y037382D01*
X025275Y037333D01*
X025227Y037285D01*
X025130Y037580D02*
X025130Y037773D01*
X025275Y037725D02*
X024985Y037725D01*
X025130Y037580D01*
X028645Y036699D02*
X028790Y036554D01*
X028790Y036748D01*
X028935Y036699D02*
X028645Y036699D01*
X028645Y036356D02*
X028935Y036356D01*
X028935Y036260D02*
X028935Y036453D01*
X028742Y036260D02*
X028645Y036356D01*
X028693Y036158D02*
X028645Y036110D01*
X028645Y036013D01*
X028693Y035965D01*
X028887Y035965D01*
X028935Y036013D01*
X028935Y036110D01*
X028887Y036158D01*
X030135Y036382D02*
X030135Y036478D01*
X030135Y036430D02*
X030377Y036430D01*
X030425Y036382D01*
X030425Y036333D01*
X030377Y036285D01*
X030377Y036580D02*
X030425Y036628D01*
X030425Y036725D01*
X030377Y036773D01*
X030280Y036773D01*
X030232Y036725D01*
X030232Y036676D01*
X030280Y036580D01*
X030135Y036580D01*
X030135Y036773D01*
X027885Y034123D02*
X027885Y033929D01*
X027885Y034026D02*
X027595Y034026D01*
X027692Y033929D01*
X027643Y033828D02*
X027595Y033780D01*
X027595Y033683D01*
X027643Y033635D01*
X027837Y033635D01*
X027885Y033683D01*
X027885Y033780D01*
X027837Y033828D01*
X027885Y033533D02*
X027885Y033340D01*
X027595Y033340D01*
X027595Y033533D01*
X027740Y033437D02*
X027740Y033340D01*
X027742Y031773D02*
X027693Y031773D01*
X027645Y031724D01*
X027645Y031628D01*
X027693Y031579D01*
X027693Y031478D02*
X027645Y031430D01*
X027645Y031333D01*
X027693Y031285D01*
X027887Y031285D01*
X027935Y031333D01*
X027935Y031430D01*
X027887Y031478D01*
X027935Y031579D02*
X027742Y031773D01*
X027935Y031773D02*
X027935Y031579D01*
X027935Y031183D02*
X027935Y030990D01*
X027645Y030990D01*
X027645Y031183D01*
X027790Y031087D02*
X027790Y030990D01*
X027745Y030398D02*
X027793Y030301D01*
X027890Y030204D01*
X027890Y030349D01*
X027938Y030398D01*
X027987Y030398D01*
X028035Y030349D01*
X028035Y030253D01*
X027987Y030204D01*
X027890Y030204D01*
X028035Y030103D02*
X028035Y029910D01*
X028035Y030006D02*
X027745Y030006D01*
X027842Y029910D01*
X027890Y029808D02*
X027938Y029760D01*
X027938Y029615D01*
X027938Y029712D02*
X028035Y029808D01*
X027890Y029808D02*
X027793Y029808D01*
X027745Y029760D01*
X027745Y029615D01*
X028035Y029615D01*
X028007Y028264D02*
X027958Y028264D01*
X027910Y028215D01*
X027910Y028070D01*
X028007Y028070D01*
X028055Y028119D01*
X028055Y028215D01*
X028007Y028264D01*
X027813Y028167D02*
X027910Y028070D01*
X027813Y028167D02*
X027765Y028264D01*
X027765Y027872D02*
X028055Y027872D01*
X028055Y027776D02*
X028055Y027969D01*
X027862Y027776D02*
X027765Y027872D01*
X027813Y027675D02*
X027765Y027626D01*
X027765Y027529D01*
X027813Y027481D01*
X028007Y027481D01*
X028055Y027529D01*
X028055Y027626D01*
X028007Y027675D01*
X028495Y027748D02*
X028543Y027651D01*
X028640Y027554D01*
X028640Y027699D01*
X028688Y027748D01*
X028737Y027748D01*
X028785Y027699D01*
X028785Y027603D01*
X028737Y027554D01*
X028640Y027554D01*
X028688Y027453D02*
X028737Y027453D01*
X028785Y027405D01*
X028785Y027260D01*
X028495Y027260D01*
X028495Y027405D01*
X028543Y027453D01*
X028592Y027453D01*
X028640Y027405D01*
X028640Y027260D01*
X028640Y027405D02*
X028688Y027453D01*
X028495Y027158D02*
X028495Y026965D01*
X028785Y026965D01*
X028640Y026965D02*
X028640Y027062D01*
X030215Y026390D02*
X030263Y026439D01*
X030312Y026439D01*
X030360Y026390D01*
X030408Y026439D01*
X030457Y026439D01*
X030505Y026390D01*
X030505Y026294D01*
X030457Y026245D01*
X030505Y026144D02*
X030408Y026047D01*
X030408Y026096D02*
X030408Y025951D01*
X030505Y025951D02*
X030215Y025951D01*
X030215Y026096D01*
X030263Y026144D01*
X030360Y026144D01*
X030408Y026096D01*
X030263Y026245D02*
X030215Y026294D01*
X030215Y026390D01*
X030360Y026390D02*
X030360Y026342D01*
X030715Y026390D02*
X030860Y026245D01*
X030860Y026439D01*
X031005Y026390D02*
X030715Y026390D01*
X030763Y026144D02*
X030715Y026096D01*
X030715Y025951D01*
X031005Y025951D01*
X030908Y025951D02*
X030908Y026096D01*
X030860Y026144D01*
X030763Y026144D01*
X030908Y026047D02*
X031005Y026144D01*
X031190Y026096D02*
X031238Y026144D01*
X031335Y026144D01*
X031383Y026096D01*
X031383Y025951D01*
X031383Y026047D02*
X031480Y026144D01*
X031432Y026245D02*
X031480Y026294D01*
X031480Y026390D01*
X031432Y026439D01*
X031383Y026439D01*
X031335Y026390D01*
X031335Y026245D01*
X031432Y026245D01*
X031335Y026245D02*
X031238Y026342D01*
X031190Y026439D01*
X031190Y026096D02*
X031190Y025951D01*
X031480Y025951D01*
X031590Y025951D02*
X031590Y026096D01*
X031638Y026144D01*
X031735Y026144D01*
X031783Y026096D01*
X031783Y025951D01*
X031783Y026047D02*
X031880Y026144D01*
X031832Y026245D02*
X031783Y026245D01*
X031735Y026294D01*
X031735Y026390D01*
X031783Y026439D01*
X031832Y026439D01*
X031880Y026390D01*
X031880Y026294D01*
X031832Y026245D01*
X031735Y026294D02*
X031687Y026245D01*
X031638Y026245D01*
X031590Y026294D01*
X031590Y026390D01*
X031638Y026439D01*
X031687Y026439D01*
X031735Y026390D01*
X032115Y026390D02*
X032115Y026294D01*
X032163Y026245D01*
X032212Y026245D01*
X032260Y026294D01*
X032260Y026439D01*
X032357Y026439D02*
X032163Y026439D01*
X032115Y026390D01*
X032357Y026439D02*
X032405Y026390D01*
X032405Y026294D01*
X032357Y026245D01*
X032405Y026144D02*
X032308Y026047D01*
X032308Y026096D02*
X032308Y025951D01*
X032405Y025951D02*
X032115Y025951D01*
X032115Y026096D01*
X032163Y026144D01*
X032260Y026144D01*
X032308Y026096D01*
X032615Y026096D02*
X032615Y025999D01*
X032663Y025951D01*
X032857Y025951D01*
X032905Y025999D01*
X032905Y026096D01*
X032857Y026144D01*
X032760Y026245D02*
X032760Y026439D01*
X032905Y026390D02*
X032615Y026390D01*
X032760Y026245D01*
X032663Y026144D02*
X032615Y026096D01*
X033065Y026046D02*
X033065Y025949D01*
X033113Y025901D01*
X033307Y025901D01*
X033355Y025949D01*
X033355Y026046D01*
X033307Y026094D01*
X033307Y026195D02*
X033355Y026244D01*
X033355Y026340D01*
X033307Y026389D01*
X033258Y026389D01*
X033210Y026340D01*
X033210Y026292D01*
X033210Y026340D02*
X033162Y026389D01*
X033113Y026389D01*
X033065Y026340D01*
X033065Y026244D01*
X033113Y026195D01*
X033113Y026094D02*
X033065Y026046D01*
X034035Y026282D02*
X034035Y026378D01*
X034035Y026330D02*
X034277Y026330D01*
X034325Y026282D01*
X034325Y026233D01*
X034277Y026185D01*
X034277Y026480D02*
X034325Y026528D01*
X034325Y026625D01*
X034277Y026673D01*
X034228Y026673D01*
X034180Y026625D01*
X034180Y026576D01*
X034180Y026625D02*
X034132Y026673D01*
X034083Y026673D01*
X034035Y026625D01*
X034035Y026528D01*
X034083Y026480D01*
X034620Y026433D02*
X034620Y026240D01*
X034910Y026240D01*
X034765Y026240D02*
X034765Y026337D01*
X034765Y026535D02*
X034765Y026680D01*
X034813Y026728D01*
X034862Y026728D01*
X034910Y026680D01*
X034910Y026535D01*
X034620Y026535D01*
X034620Y026680D01*
X034668Y026728D01*
X034717Y026728D01*
X034765Y026680D01*
X034862Y026829D02*
X034910Y026878D01*
X034910Y026974D01*
X034862Y027023D01*
X034813Y027023D01*
X034765Y026974D01*
X034765Y026926D01*
X034765Y026974D02*
X034717Y027023D01*
X034668Y027023D01*
X034620Y026974D01*
X034620Y026878D01*
X034668Y026829D01*
X034640Y028240D02*
X034640Y028530D01*
X034785Y028530D01*
X034833Y028482D01*
X034833Y028385D01*
X034785Y028337D01*
X034640Y028337D01*
X034737Y028337D02*
X034833Y028240D01*
X034935Y028240D02*
X035128Y028240D01*
X035031Y028240D02*
X035031Y028530D01*
X034935Y028433D01*
X035229Y028433D02*
X035229Y028482D01*
X035278Y028530D01*
X035374Y028530D01*
X035423Y028482D01*
X035423Y028433D01*
X035374Y028385D01*
X035278Y028385D01*
X035229Y028433D01*
X035278Y028385D02*
X035229Y028337D01*
X035229Y028288D01*
X035278Y028240D01*
X035374Y028240D01*
X035423Y028288D01*
X035423Y028337D01*
X035374Y028385D01*
X035349Y028790D02*
X035398Y028838D01*
X035398Y029032D01*
X035349Y029080D01*
X035253Y029080D01*
X035204Y029032D01*
X035204Y028983D01*
X035253Y028935D01*
X035398Y028935D01*
X035349Y028790D02*
X035253Y028790D01*
X035204Y028838D01*
X035103Y028790D02*
X034910Y028790D01*
X035006Y028790D02*
X035006Y029080D01*
X034910Y028983D01*
X034808Y028935D02*
X034760Y028887D01*
X034615Y028887D01*
X034712Y028887D02*
X034808Y028790D01*
X034808Y028935D02*
X034808Y029032D01*
X034760Y029080D01*
X034615Y029080D01*
X034615Y028790D01*
X034615Y029315D02*
X034615Y029605D01*
X034760Y029605D01*
X034808Y029557D01*
X034808Y029460D01*
X034760Y029412D01*
X034615Y029412D01*
X034712Y029412D02*
X034808Y029315D01*
X034910Y029315D02*
X035103Y029315D01*
X035006Y029315D02*
X035006Y029605D01*
X034910Y029508D01*
X035204Y029557D02*
X035253Y029605D01*
X035349Y029605D01*
X035398Y029557D01*
X035398Y029508D01*
X035349Y029460D01*
X035398Y029412D01*
X035398Y029363D01*
X035349Y029315D01*
X035253Y029315D01*
X035204Y029363D01*
X035301Y029460D02*
X035349Y029460D01*
X035349Y029840D02*
X035349Y030130D01*
X035204Y029985D01*
X035398Y029985D01*
X035103Y029840D02*
X034910Y029840D01*
X035006Y029840D02*
X035006Y030130D01*
X034910Y030033D01*
X034808Y029985D02*
X034760Y029937D01*
X034615Y029937D01*
X034712Y029937D02*
X034808Y029840D01*
X034808Y029985D02*
X034808Y030082D01*
X034760Y030130D01*
X034615Y030130D01*
X034615Y029840D01*
X033585Y031065D02*
X033295Y031065D01*
X033295Y031210D01*
X033343Y031258D01*
X033440Y031258D01*
X033488Y031210D01*
X033488Y031065D01*
X033488Y031162D02*
X033585Y031258D01*
X033585Y031360D02*
X033585Y031553D01*
X033585Y031456D02*
X033295Y031456D01*
X033392Y031360D01*
X033035Y031360D02*
X032842Y031553D01*
X032793Y031553D01*
X032745Y031505D01*
X032745Y031408D01*
X032793Y031360D01*
X032793Y031258D02*
X032890Y031258D01*
X032938Y031210D01*
X032938Y031065D01*
X032938Y031162D02*
X033035Y031258D01*
X033035Y031360D02*
X033035Y031553D01*
X032793Y031258D02*
X032745Y031210D01*
X032745Y031065D01*
X033035Y031065D01*
X032585Y031063D02*
X032585Y031160D01*
X032537Y031208D01*
X032585Y031310D02*
X032392Y031503D01*
X032343Y031503D01*
X032295Y031455D01*
X032295Y031358D01*
X032343Y031310D01*
X032343Y031208D02*
X032295Y031160D01*
X032295Y031063D01*
X032343Y031015D01*
X032537Y031015D01*
X032585Y031063D01*
X032585Y031310D02*
X032585Y031503D01*
X032060Y031505D02*
X032060Y031408D01*
X032012Y031360D01*
X031915Y031360D02*
X031867Y031456D01*
X031867Y031505D01*
X031915Y031553D01*
X032012Y031553D01*
X032060Y031505D01*
X031915Y031360D02*
X031770Y031360D01*
X031770Y031553D01*
X031560Y031553D02*
X031560Y031360D01*
X031560Y031456D02*
X031270Y031456D01*
X031367Y031360D01*
X031318Y031258D02*
X031270Y031210D01*
X031270Y031113D01*
X031318Y031065D01*
X031512Y031065D01*
X031560Y031113D01*
X031560Y031210D01*
X031512Y031258D01*
X031770Y031210D02*
X031770Y031113D01*
X031818Y031065D01*
X032012Y031065D01*
X032060Y031113D01*
X032060Y031210D01*
X032012Y031258D01*
X031818Y031258D02*
X031770Y031210D01*
X031035Y031160D02*
X030987Y031208D01*
X031035Y031160D02*
X031035Y031063D01*
X030987Y031015D01*
X030793Y031015D01*
X030745Y031063D01*
X030745Y031160D01*
X030793Y031208D01*
X030890Y031310D02*
X030890Y031455D01*
X030938Y031503D01*
X030987Y031503D01*
X031035Y031455D01*
X031035Y031358D01*
X030987Y031310D01*
X030890Y031310D01*
X030793Y031406D01*
X030745Y031503D01*
X030795Y029053D02*
X030795Y028860D01*
X030795Y028956D02*
X030505Y028956D01*
X030602Y028860D01*
X030505Y028758D02*
X030747Y028758D01*
X030795Y028710D01*
X030795Y028613D01*
X030747Y028565D01*
X030505Y028565D01*
X031590Y025951D02*
X031880Y025951D01*
X027525Y025623D02*
X027525Y025430D01*
X027525Y025526D02*
X027235Y025526D01*
X027332Y025430D01*
X027235Y025328D02*
X027235Y025232D01*
X027235Y025280D02*
X027477Y025280D01*
X027525Y025232D01*
X027525Y025183D01*
X027477Y025135D01*
X026725Y026275D02*
X026628Y026275D01*
X026580Y026323D01*
X026580Y026372D01*
X026628Y026420D01*
X026725Y026420D01*
X026773Y026372D01*
X026773Y026323D01*
X026725Y026275D01*
X026725Y026420D02*
X026773Y026468D01*
X026773Y026517D01*
X026725Y026565D01*
X026628Y026565D01*
X026580Y026517D01*
X026580Y026468D01*
X026628Y026420D01*
X026478Y026565D02*
X026382Y026565D01*
X026430Y026565D02*
X026430Y026323D01*
X026382Y026275D01*
X026333Y026275D01*
X026285Y026323D01*
X023245Y026285D02*
X023052Y026478D01*
X023003Y026478D01*
X022955Y026430D01*
X022955Y026333D01*
X023003Y026285D01*
X022955Y026183D02*
X022955Y026087D01*
X022955Y026135D02*
X023197Y026135D01*
X023245Y026087D01*
X023245Y026038D01*
X023197Y025990D01*
X023245Y026285D02*
X023245Y026478D01*
X023072Y026615D02*
X023120Y026663D01*
X023120Y026712D01*
X023072Y026760D01*
X022830Y026760D01*
X022830Y026712D02*
X022830Y026808D01*
X022975Y026910D02*
X022975Y027055D01*
X023023Y027103D01*
X023072Y027103D01*
X023120Y027055D01*
X023120Y026958D01*
X023072Y026910D01*
X022975Y026910D01*
X022878Y027006D01*
X022830Y027103D01*
X034205Y032701D02*
X034495Y032701D01*
X034495Y032894D01*
X034495Y032995D02*
X034302Y033189D01*
X034253Y033189D01*
X034205Y033140D01*
X034205Y033044D01*
X034253Y032995D01*
X034495Y032995D02*
X034495Y033189D01*
X034545Y034840D02*
X034255Y034840D01*
X034545Y034840D02*
X034545Y035033D01*
X034545Y035135D02*
X034545Y035328D01*
X034545Y035231D02*
X034255Y035231D01*
X034352Y035135D01*
X034527Y036335D02*
X034575Y036383D01*
X034575Y036432D01*
X034527Y036480D01*
X034285Y036480D01*
X034285Y036432D02*
X034285Y036528D01*
X034285Y036630D02*
X034285Y036823D01*
X034333Y036823D01*
X034527Y036630D01*
X034575Y036630D01*
D13*
X034550Y037000D02*
X034050Y037000D01*
X033800Y037250D01*
X033550Y037000D01*
X033050Y037000D01*
X032800Y037250D01*
X032550Y037000D01*
X032050Y037000D01*
X031800Y037250D01*
X031800Y037750D01*
X032050Y038000D01*
X032550Y038000D01*
X032800Y037750D01*
X033050Y038000D01*
X033550Y038000D01*
X033800Y037750D01*
X034050Y038000D01*
X034550Y038000D01*
X034800Y037750D01*
X034800Y038000D01*
X035800Y038000D01*
X035800Y037000D01*
X034800Y037000D01*
X034800Y037250D01*
X034550Y037000D01*
X031800Y037000D02*
X031800Y038000D01*
X030800Y038000D01*
X030800Y037750D01*
X030550Y038000D01*
X030050Y038000D01*
X029800Y037750D01*
X029550Y038000D01*
X029050Y038000D01*
X028800Y037750D01*
X028550Y038000D01*
X028050Y038000D01*
X027800Y037750D01*
X027800Y037250D01*
X028050Y037000D01*
X028550Y037000D01*
X028800Y037250D01*
X029050Y037000D01*
X029550Y037000D01*
X029800Y037250D01*
X030050Y037000D01*
X030550Y037000D01*
X030800Y037250D01*
X030800Y037000D01*
X031800Y037000D01*
X031800Y026000D02*
X030800Y026000D01*
X030800Y025750D01*
X030550Y026000D01*
X030050Y026000D01*
X029800Y025750D01*
X029550Y026000D01*
X029050Y026000D01*
X028800Y025750D01*
X028550Y026000D01*
X028050Y026000D01*
X027800Y025750D01*
X027800Y025250D01*
X028050Y025000D01*
X028550Y025000D01*
X028800Y025250D01*
X029050Y025000D01*
X029550Y025000D01*
X029800Y025250D01*
X030050Y025000D01*
X030550Y025000D01*
X030800Y025250D01*
X030800Y025000D01*
X031800Y025000D01*
X031800Y026000D01*
X031800Y025750D02*
X031800Y025250D01*
X032050Y025000D01*
X032550Y025000D01*
X032800Y025250D01*
X033050Y025000D01*
X033550Y025000D01*
X033800Y025250D01*
X034050Y025000D01*
X034550Y025000D01*
X034800Y025250D01*
X034800Y025000D01*
X035800Y025000D01*
X035800Y026000D01*
X034800Y026000D01*
X034800Y025750D01*
X034550Y026000D01*
X034050Y026000D01*
X033800Y025750D01*
X033550Y026000D01*
X033050Y026000D01*
X032800Y025750D01*
X032550Y026000D01*
X032050Y026000D01*
X031800Y025750D01*
M02*
