G75*
%MOIN*%
%OFA0B0*%
%FSLAX24Y24*%
%IPPOS*%
%LPD*%
%AMOC8*
5,1,8,0,0,1.08239X$1,22.5*
%
%ADD10C,0.0000*%
%ADD11C,0.0285*%
%ADD12R,0.0740X0.0740*%
%ADD13C,0.0740*%
%ADD14R,0.0551X0.0453*%
%ADD15R,0.0453X0.0551*%
%ADD16R,0.0200X0.0200*%
%ADD17C,0.0264*%
%ADD18C,0.0382*%
%ADD19C,0.0500*%
%ADD20R,0.0500X0.0500*%
%ADD21C,0.0197*%
%ADD22C,0.0080*%
%ADD23C,0.0100*%
%ADD24C,0.0150*%
%ADD25C,0.0500*%
D10*
X022500Y025000D02*
X036000Y025000D01*
X036000Y038000D01*
X022500Y038000D01*
X022500Y025000D01*
X023778Y027957D02*
X023780Y028002D01*
X023786Y028046D01*
X023795Y028090D01*
X023809Y028132D01*
X023826Y028173D01*
X023847Y028213D01*
X023871Y028251D01*
X023898Y028286D01*
X023928Y028319D01*
X023961Y028349D01*
X023996Y028376D01*
X024034Y028400D01*
X024074Y028421D01*
X024115Y028438D01*
X024157Y028452D01*
X024201Y028461D01*
X024245Y028467D01*
X024290Y028469D01*
X024335Y028467D01*
X024379Y028461D01*
X024423Y028452D01*
X024465Y028438D01*
X024506Y028421D01*
X024546Y028400D01*
X024584Y028376D01*
X024619Y028349D01*
X024652Y028319D01*
X024682Y028286D01*
X024709Y028251D01*
X024733Y028213D01*
X024754Y028173D01*
X024771Y028132D01*
X024785Y028090D01*
X024794Y028046D01*
X024800Y028002D01*
X024802Y027957D01*
X024800Y027912D01*
X024794Y027868D01*
X024785Y027824D01*
X024771Y027782D01*
X024754Y027741D01*
X024733Y027701D01*
X024709Y027663D01*
X024682Y027628D01*
X024652Y027595D01*
X024619Y027565D01*
X024584Y027538D01*
X024546Y027514D01*
X024506Y027493D01*
X024465Y027476D01*
X024423Y027462D01*
X024379Y027453D01*
X024335Y027447D01*
X024290Y027445D01*
X024245Y027447D01*
X024201Y027453D01*
X024157Y027462D01*
X024115Y027476D01*
X024074Y027493D01*
X024034Y027514D01*
X023996Y027538D01*
X023961Y027565D01*
X023928Y027595D01*
X023898Y027628D01*
X023871Y027663D01*
X023847Y027701D01*
X023826Y027741D01*
X023809Y027782D01*
X023795Y027824D01*
X023786Y027868D01*
X023780Y027912D01*
X023778Y027957D01*
X023778Y030603D02*
X023780Y030648D01*
X023786Y030692D01*
X023795Y030736D01*
X023809Y030778D01*
X023826Y030819D01*
X023847Y030859D01*
X023871Y030897D01*
X023898Y030932D01*
X023928Y030965D01*
X023961Y030995D01*
X023996Y031022D01*
X024034Y031046D01*
X024074Y031067D01*
X024115Y031084D01*
X024157Y031098D01*
X024201Y031107D01*
X024245Y031113D01*
X024290Y031115D01*
X024335Y031113D01*
X024379Y031107D01*
X024423Y031098D01*
X024465Y031084D01*
X024506Y031067D01*
X024546Y031046D01*
X024584Y031022D01*
X024619Y030995D01*
X024652Y030965D01*
X024682Y030932D01*
X024709Y030897D01*
X024733Y030859D01*
X024754Y030819D01*
X024771Y030778D01*
X024785Y030736D01*
X024794Y030692D01*
X024800Y030648D01*
X024802Y030603D01*
X024800Y030558D01*
X024794Y030514D01*
X024785Y030470D01*
X024771Y030428D01*
X024754Y030387D01*
X024733Y030347D01*
X024709Y030309D01*
X024682Y030274D01*
X024652Y030241D01*
X024619Y030211D01*
X024584Y030184D01*
X024546Y030160D01*
X024506Y030139D01*
X024465Y030122D01*
X024423Y030108D01*
X024379Y030099D01*
X024335Y030093D01*
X024290Y030091D01*
X024245Y030093D01*
X024201Y030099D01*
X024157Y030108D01*
X024115Y030122D01*
X024074Y030139D01*
X024034Y030160D01*
X023996Y030184D01*
X023961Y030211D01*
X023928Y030241D01*
X023898Y030274D01*
X023871Y030309D01*
X023847Y030347D01*
X023826Y030387D01*
X023809Y030428D01*
X023795Y030470D01*
X023786Y030514D01*
X023780Y030558D01*
X023778Y030603D01*
X023535Y033850D02*
X023537Y033885D01*
X023543Y033920D01*
X023553Y033954D01*
X023566Y033987D01*
X023583Y034018D01*
X023604Y034046D01*
X023627Y034073D01*
X023654Y034096D01*
X023682Y034117D01*
X023713Y034134D01*
X023746Y034147D01*
X023780Y034157D01*
X023815Y034163D01*
X023850Y034165D01*
X023885Y034163D01*
X023920Y034157D01*
X023954Y034147D01*
X023987Y034134D01*
X024018Y034117D01*
X024046Y034096D01*
X024073Y034073D01*
X024096Y034046D01*
X024117Y034018D01*
X024134Y033987D01*
X024147Y033954D01*
X024157Y033920D01*
X024163Y033885D01*
X024165Y033850D01*
X024163Y033815D01*
X024157Y033780D01*
X024147Y033746D01*
X024134Y033713D01*
X024117Y033682D01*
X024096Y033654D01*
X024073Y033627D01*
X024046Y033604D01*
X024018Y033583D01*
X023987Y033566D01*
X023954Y033553D01*
X023920Y033543D01*
X023885Y033537D01*
X023850Y033535D01*
X023815Y033537D01*
X023780Y033543D01*
X023746Y033553D01*
X023713Y033566D01*
X023682Y033583D01*
X023654Y033604D01*
X023627Y033627D01*
X023604Y033654D01*
X023583Y033682D01*
X023566Y033713D01*
X023553Y033746D01*
X023543Y033780D01*
X023537Y033815D01*
X023535Y033850D01*
X025897Y033850D02*
X025899Y033885D01*
X025905Y033920D01*
X025915Y033954D01*
X025928Y033987D01*
X025945Y034018D01*
X025966Y034046D01*
X025989Y034073D01*
X026016Y034096D01*
X026044Y034117D01*
X026075Y034134D01*
X026108Y034147D01*
X026142Y034157D01*
X026177Y034163D01*
X026212Y034165D01*
X026247Y034163D01*
X026282Y034157D01*
X026316Y034147D01*
X026349Y034134D01*
X026380Y034117D01*
X026408Y034096D01*
X026435Y034073D01*
X026458Y034046D01*
X026479Y034018D01*
X026496Y033987D01*
X026509Y033954D01*
X026519Y033920D01*
X026525Y033885D01*
X026527Y033850D01*
X026525Y033815D01*
X026519Y033780D01*
X026509Y033746D01*
X026496Y033713D01*
X026479Y033682D01*
X026458Y033654D01*
X026435Y033627D01*
X026408Y033604D01*
X026380Y033583D01*
X026349Y033566D01*
X026316Y033553D01*
X026282Y033543D01*
X026247Y033537D01*
X026212Y033535D01*
X026177Y033537D01*
X026142Y033543D01*
X026108Y033553D01*
X026075Y033566D01*
X026044Y033583D01*
X026016Y033604D01*
X025989Y033627D01*
X025966Y033654D01*
X025945Y033682D01*
X025928Y033713D01*
X025915Y033746D01*
X025905Y033780D01*
X025899Y033815D01*
X025897Y033850D01*
X029870Y036200D02*
X029872Y036250D01*
X029878Y036300D01*
X029888Y036349D01*
X029902Y036397D01*
X029919Y036444D01*
X029940Y036489D01*
X029965Y036533D01*
X029993Y036574D01*
X030025Y036613D01*
X030059Y036650D01*
X030096Y036684D01*
X030136Y036714D01*
X030178Y036741D01*
X030222Y036765D01*
X030268Y036786D01*
X030315Y036802D01*
X030363Y036815D01*
X030413Y036824D01*
X030462Y036829D01*
X030513Y036830D01*
X030563Y036827D01*
X030612Y036820D01*
X030661Y036809D01*
X030709Y036794D01*
X030755Y036776D01*
X030800Y036754D01*
X030843Y036728D01*
X030884Y036699D01*
X030923Y036667D01*
X030959Y036632D01*
X030991Y036594D01*
X031021Y036554D01*
X031048Y036511D01*
X031071Y036467D01*
X031090Y036421D01*
X031106Y036373D01*
X031118Y036324D01*
X031126Y036275D01*
X031130Y036225D01*
X031130Y036175D01*
X031126Y036125D01*
X031118Y036076D01*
X031106Y036027D01*
X031090Y035979D01*
X031071Y035933D01*
X031048Y035889D01*
X031021Y035846D01*
X030991Y035806D01*
X030959Y035768D01*
X030923Y035733D01*
X030884Y035701D01*
X030843Y035672D01*
X030800Y035646D01*
X030755Y035624D01*
X030709Y035606D01*
X030661Y035591D01*
X030612Y035580D01*
X030563Y035573D01*
X030513Y035570D01*
X030462Y035571D01*
X030413Y035576D01*
X030363Y035585D01*
X030315Y035598D01*
X030268Y035614D01*
X030222Y035635D01*
X030178Y035659D01*
X030136Y035686D01*
X030096Y035716D01*
X030059Y035750D01*
X030025Y035787D01*
X029993Y035826D01*
X029965Y035867D01*
X029940Y035911D01*
X029919Y035956D01*
X029902Y036003D01*
X029888Y036051D01*
X029878Y036100D01*
X029872Y036150D01*
X029870Y036200D01*
D11*
X031749Y029351D03*
X032851Y029351D03*
X032851Y028249D03*
X031749Y028249D03*
D12*
X028500Y025500D03*
X026500Y025500D03*
X026500Y037500D03*
X028500Y037500D03*
D13*
X027500Y037500D03*
X029500Y037500D03*
X030500Y037500D03*
X031500Y037500D03*
X032500Y037500D03*
X033500Y037500D03*
X034500Y037500D03*
X035500Y037500D03*
X035500Y025500D03*
X034500Y025500D03*
X033500Y025500D03*
X032500Y025500D03*
X031500Y025500D03*
X030500Y025500D03*
X029500Y025500D03*
X027500Y025500D03*
D14*
X027925Y030521D03*
X027925Y031229D03*
X027950Y032946D03*
X027950Y033654D03*
D15*
X028496Y036450D03*
X029204Y036450D03*
X033571Y036450D03*
X034279Y036450D03*
D16*
X031200Y032100D03*
X031200Y031800D03*
X031200Y031200D03*
X031200Y030900D03*
X030150Y029750D03*
X029850Y029750D03*
X029850Y029300D03*
X030150Y029300D03*
X030150Y028900D03*
X029850Y028900D03*
X029850Y028450D03*
X030150Y028450D03*
X030150Y028000D03*
X029850Y028000D03*
X029850Y027600D03*
X030150Y027600D03*
X030150Y027200D03*
X029850Y027200D03*
X028075Y029850D03*
X027775Y029850D03*
X027775Y031900D03*
X028075Y031900D03*
X028100Y032350D03*
X027800Y032350D03*
X027800Y034400D03*
X028100Y034400D03*
D17*
X024253Y026540D03*
X024253Y025910D03*
D18*
X025825Y028300D03*
X025825Y029300D03*
X025825Y030300D03*
D19*
X029050Y031275D03*
X029050Y033525D03*
D20*
X029850Y033525D03*
X029850Y031275D03*
D21*
X030300Y031050D03*
X030325Y031500D03*
X030950Y031500D03*
X030900Y032025D03*
X031625Y031975D03*
X032575Y031400D03*
X032200Y031150D03*
X032025Y031350D03*
X032650Y030900D03*
X033075Y031150D03*
X033500Y031150D03*
X033775Y030975D03*
X034250Y030425D03*
X034675Y029975D03*
X034675Y029625D03*
X034450Y029300D03*
X034950Y028800D03*
X035300Y029750D03*
X035775Y029400D03*
X035775Y030925D03*
X035775Y032150D03*
X035300Y032525D03*
X034350Y033050D03*
X034200Y033825D03*
X034825Y034250D03*
X035275Y033700D03*
X035775Y034225D03*
X035800Y035750D03*
X035025Y036525D03*
X035775Y036950D03*
X034950Y037800D03*
X033975Y037800D03*
X033000Y037800D03*
X032000Y037800D03*
X030950Y037800D03*
X030000Y037775D03*
X029050Y037800D03*
X027625Y036925D03*
X026950Y036275D03*
X026700Y035625D03*
X026850Y034650D03*
X026850Y034100D03*
X027400Y034625D03*
X027775Y035450D03*
X028500Y034650D03*
X028775Y035150D03*
X029300Y035875D03*
X030375Y035150D03*
X030050Y034675D03*
X029800Y034150D03*
X030050Y033025D03*
X029625Y032850D03*
X028800Y032250D03*
X028400Y032725D03*
X028325Y033300D03*
X026825Y033250D03*
X026850Y032225D03*
X027275Y032125D03*
X027100Y031700D03*
X026650Y030900D03*
X025125Y031050D03*
X025125Y032275D03*
X023975Y032850D03*
X023975Y031625D03*
X022700Y031625D03*
X022700Y030100D03*
X024050Y029500D03*
X025125Y029525D03*
X026150Y029550D03*
X026900Y029575D03*
X026800Y029000D03*
X027600Y029325D03*
X027675Y028825D03*
X028300Y029650D03*
X028925Y028825D03*
X028700Y028500D03*
X029525Y028250D03*
X029575Y028675D03*
X029575Y027825D03*
X028650Y027550D03*
X029800Y026800D03*
X030350Y026650D03*
X030800Y026125D03*
X031050Y026275D03*
X031400Y026400D03*
X032000Y026000D03*
X032700Y026000D03*
X033425Y026400D03*
X033750Y026975D03*
X034150Y027325D03*
X034700Y027425D03*
X035075Y027975D03*
X033800Y027925D03*
X033375Y027825D03*
X033300Y027375D03*
X032950Y027450D03*
X033650Y028525D03*
X032275Y030175D03*
X032000Y030125D03*
X031375Y030675D03*
X030750Y029900D03*
X029575Y029525D03*
X030450Y029175D03*
X030550Y028900D03*
X030550Y028475D03*
X030550Y028050D03*
X030725Y027825D03*
X030675Y027450D03*
X031175Y027425D03*
X031200Y027875D03*
X030950Y025200D03*
X032025Y025200D03*
X033000Y025200D03*
X034000Y025200D03*
X034950Y025200D03*
X034650Y026025D03*
X035125Y026500D03*
X030000Y025200D03*
X029050Y025200D03*
X027950Y025200D03*
X027050Y025200D03*
X026500Y026050D03*
X025875Y026450D03*
X025925Y025225D03*
X024125Y025275D03*
X022700Y025275D03*
X024050Y026275D03*
X022700Y026775D03*
X022700Y028025D03*
X027175Y026675D03*
X028625Y030475D03*
X031650Y033275D03*
X031900Y033825D03*
X031625Y034750D03*
X031625Y035200D03*
X031800Y036175D03*
X031325Y036625D03*
X031900Y036725D03*
X032500Y036250D03*
X032725Y036775D03*
X033100Y035975D03*
X033975Y036175D03*
X034000Y036900D03*
X032950Y034275D03*
X034275Y031525D03*
X026175Y034625D03*
X025875Y034250D03*
X025175Y034975D03*
X025125Y035325D03*
X025475Y035325D03*
X024500Y036475D03*
X024575Y037775D03*
X025925Y037750D03*
X027050Y037800D03*
X022700Y037625D03*
X022700Y036375D03*
X022700Y034875D03*
X024000Y034850D03*
D22*
X023940Y034303D02*
X023760Y034303D01*
X023593Y034234D01*
X023466Y034107D01*
X023397Y033940D01*
X023397Y033760D01*
X023466Y033593D01*
X023593Y033466D01*
X023760Y033397D01*
X023940Y033397D01*
X024107Y033466D01*
X024234Y033593D01*
X024303Y033760D01*
X024303Y033940D01*
X024234Y034107D01*
X024107Y034234D01*
X023940Y034303D01*
X024038Y034263D02*
X025975Y034263D01*
X025988Y034250D02*
X025993Y034250D01*
X025955Y034234D01*
X025828Y034107D01*
X025759Y033940D01*
X025759Y033760D01*
X025828Y033593D01*
X025955Y033466D01*
X026122Y033397D01*
X026302Y033397D01*
X026469Y033466D01*
X026597Y033593D01*
X026666Y033760D01*
X026666Y033940D01*
X026597Y034107D01*
X026469Y034234D01*
X026431Y034250D01*
X027609Y034250D01*
X027650Y034209D01*
X027650Y033981D01*
X027633Y033981D01*
X027574Y033922D01*
X027574Y033387D01*
X027633Y033328D01*
X028267Y033328D01*
X028326Y033387D01*
X028326Y033922D01*
X028267Y033981D01*
X027950Y033981D01*
X027950Y034209D01*
X028000Y034259D01*
X028000Y034541D01*
X027941Y034600D01*
X027659Y034600D01*
X027609Y034550D01*
X026112Y034550D01*
X025384Y035278D01*
X025378Y035300D01*
X025361Y035310D01*
X025323Y035377D01*
X025323Y035407D01*
X025285Y035446D01*
X025268Y035476D01*
X025249Y035481D01*
X025207Y035523D01*
X025043Y035523D01*
X024927Y035407D01*
X024927Y035243D01*
X024969Y035201D01*
X024974Y035182D01*
X024974Y035182D01*
X025004Y035165D01*
X025043Y035127D01*
X025073Y035127D01*
X025140Y035089D01*
X025150Y035072D01*
X025172Y035066D01*
X025988Y034250D01*
X025906Y034185D02*
X024157Y034185D01*
X024235Y034106D02*
X025828Y034106D01*
X025795Y034028D02*
X024267Y034028D01*
X024300Y033949D02*
X025762Y033949D01*
X025759Y033871D02*
X024303Y033871D01*
X024303Y033792D02*
X025759Y033792D01*
X025778Y033714D02*
X024284Y033714D01*
X024252Y033635D02*
X025811Y033635D01*
X025864Y033557D02*
X024198Y033557D01*
X024119Y033478D02*
X025943Y033478D01*
X026115Y033400D02*
X023947Y033400D01*
X023753Y033400D02*
X022638Y033400D01*
X022638Y033478D02*
X023581Y033478D01*
X023502Y033557D02*
X022638Y033557D01*
X022638Y033635D02*
X023448Y033635D01*
X023416Y033714D02*
X022638Y033714D01*
X022638Y033792D02*
X023397Y033792D01*
X023397Y033871D02*
X022638Y033871D01*
X022638Y033949D02*
X023400Y033949D01*
X023433Y034028D02*
X022638Y034028D01*
X022638Y034106D02*
X023465Y034106D01*
X023543Y034185D02*
X022638Y034185D01*
X022638Y034263D02*
X023662Y034263D01*
X022638Y034342D02*
X025896Y034342D01*
X025818Y034420D02*
X022638Y034420D01*
X022638Y034499D02*
X025739Y034499D01*
X025661Y034577D02*
X022638Y034577D01*
X022638Y034656D02*
X025582Y034656D01*
X025504Y034734D02*
X022638Y034734D01*
X022638Y034813D02*
X025425Y034813D01*
X025347Y034891D02*
X022638Y034891D01*
X022638Y034970D02*
X025268Y034970D01*
X025190Y035048D02*
X022638Y035048D01*
X022638Y035127D02*
X025074Y035127D01*
X024974Y035182D02*
X024974Y035182D01*
X024964Y035205D02*
X022638Y035205D01*
X022638Y035284D02*
X024927Y035284D01*
X024927Y035362D02*
X022638Y035362D01*
X022638Y035441D02*
X024960Y035441D01*
X025038Y035519D02*
X022638Y035519D01*
X022638Y035598D02*
X030016Y035598D01*
X030065Y035549D02*
X029849Y035765D01*
X029732Y036047D01*
X029732Y036353D01*
X029849Y036635D01*
X030063Y036850D01*
X029762Y036850D01*
X029531Y036619D01*
X029531Y036133D01*
X029472Y036074D01*
X028937Y036074D01*
X028878Y036133D01*
X028878Y036767D01*
X028937Y036826D01*
X029313Y036826D01*
X029518Y037030D01*
X029407Y037030D01*
X029234Y037102D01*
X029102Y037234D01*
X029030Y037407D01*
X029030Y037593D01*
X029102Y037766D01*
X029197Y037862D01*
X028970Y037862D01*
X028970Y037089D01*
X029264Y037089D01*
X029168Y037168D02*
X028970Y037168D01*
X028970Y037246D02*
X029096Y037246D01*
X029064Y037325D02*
X028970Y037325D01*
X028970Y037403D02*
X029031Y037403D01*
X029030Y037482D02*
X028970Y037482D01*
X028970Y037560D02*
X029030Y037560D01*
X029049Y037639D02*
X028970Y037639D01*
X028970Y037717D02*
X029081Y037717D01*
X029131Y037796D02*
X028970Y037796D01*
X029803Y037862D02*
X029898Y037766D01*
X029970Y037593D01*
X029970Y037407D01*
X029898Y037234D01*
X029815Y037150D01*
X030185Y037150D01*
X030102Y037234D01*
X030030Y037407D01*
X030030Y037593D01*
X030102Y037766D01*
X030197Y037862D01*
X029803Y037862D01*
X029869Y037796D02*
X030131Y037796D01*
X030081Y037717D02*
X029919Y037717D01*
X029951Y037639D02*
X030049Y037639D01*
X030030Y037560D02*
X029970Y037560D01*
X029970Y037482D02*
X030030Y037482D01*
X030031Y037403D02*
X029969Y037403D01*
X029936Y037325D02*
X030064Y037325D01*
X030096Y037246D02*
X029904Y037246D01*
X029832Y037168D02*
X030168Y037168D01*
X029988Y036775D02*
X029687Y036775D01*
X029609Y036697D02*
X029910Y036697D01*
X029842Y036618D02*
X029531Y036618D01*
X029531Y036540D02*
X029809Y036540D01*
X029776Y036461D02*
X029531Y036461D01*
X029531Y036383D02*
X029744Y036383D01*
X029732Y036304D02*
X029531Y036304D01*
X029531Y036226D02*
X029732Y036226D01*
X029732Y036147D02*
X029531Y036147D01*
X029732Y036069D02*
X022638Y036069D01*
X022638Y036147D02*
X028169Y036147D01*
X028169Y036133D02*
X028228Y036074D01*
X028763Y036074D01*
X028822Y036133D01*
X028822Y036317D01*
X028850Y036385D01*
X028850Y037030D01*
X028911Y037030D01*
X028970Y037089D01*
X028850Y037011D02*
X029498Y037011D01*
X029420Y036932D02*
X028850Y036932D01*
X028850Y036854D02*
X029341Y036854D01*
X028886Y036775D02*
X028850Y036775D01*
X028850Y036697D02*
X028878Y036697D01*
X028878Y036618D02*
X028850Y036618D01*
X028850Y036540D02*
X028878Y036540D01*
X028878Y036461D02*
X028850Y036461D01*
X028849Y036383D02*
X028878Y036383D01*
X028878Y036304D02*
X028822Y036304D01*
X028822Y036226D02*
X028878Y036226D01*
X028878Y036147D02*
X028822Y036147D01*
X028169Y036133D02*
X028169Y036323D01*
X028146Y036380D01*
X028146Y036520D01*
X028150Y036530D01*
X028150Y037030D01*
X028089Y037030D01*
X028030Y037089D01*
X027736Y037089D01*
X027766Y037102D02*
X027898Y037234D01*
X027970Y037407D01*
X027970Y037593D01*
X027898Y037766D01*
X027803Y037862D01*
X028030Y037862D01*
X028030Y037089D01*
X028030Y037168D02*
X027832Y037168D01*
X027766Y037102D02*
X027593Y037030D01*
X027407Y037030D01*
X027234Y037102D01*
X027102Y037234D01*
X027030Y037407D01*
X027030Y037593D01*
X027102Y037766D01*
X027197Y037862D01*
X026970Y037862D01*
X026970Y037089D01*
X027264Y037089D01*
X027168Y037168D02*
X026970Y037168D01*
X026970Y037246D02*
X027096Y037246D01*
X027064Y037325D02*
X026970Y037325D01*
X026970Y037403D02*
X027031Y037403D01*
X027030Y037482D02*
X026970Y037482D01*
X026970Y037560D02*
X027030Y037560D01*
X027049Y037639D02*
X026970Y037639D01*
X026970Y037717D02*
X027081Y037717D01*
X027131Y037796D02*
X026970Y037796D01*
X026030Y037796D02*
X022638Y037796D01*
X022638Y037862D02*
X026030Y037862D01*
X026030Y037089D01*
X022638Y037089D01*
X022638Y037011D02*
X028150Y037011D01*
X028150Y036932D02*
X022638Y036932D01*
X022638Y036854D02*
X028150Y036854D01*
X028150Y036775D02*
X022638Y036775D01*
X022638Y036697D02*
X028150Y036697D01*
X028150Y036618D02*
X022638Y036618D01*
X022638Y036540D02*
X028150Y036540D01*
X028146Y036461D02*
X022638Y036461D01*
X022638Y036383D02*
X028146Y036383D01*
X028169Y036304D02*
X022638Y036304D01*
X022638Y036226D02*
X028169Y036226D01*
X028030Y037246D02*
X027904Y037246D01*
X027936Y037325D02*
X028030Y037325D01*
X028030Y037403D02*
X027969Y037403D01*
X027970Y037482D02*
X028030Y037482D01*
X028030Y037560D02*
X027970Y037560D01*
X027951Y037639D02*
X028030Y037639D01*
X028030Y037717D02*
X027919Y037717D01*
X027869Y037796D02*
X028030Y037796D01*
X026970Y037089D02*
X026911Y037030D01*
X026089Y037030D01*
X026030Y037089D01*
X026030Y037168D02*
X022638Y037168D01*
X022638Y037246D02*
X026030Y037246D01*
X026030Y037325D02*
X022638Y037325D01*
X022638Y037403D02*
X026030Y037403D01*
X026030Y037482D02*
X022638Y037482D01*
X022638Y037560D02*
X026030Y037560D01*
X026030Y037639D02*
X022638Y037639D01*
X022638Y037717D02*
X026030Y037717D01*
X025212Y035519D02*
X030136Y035519D01*
X030065Y035549D02*
X030347Y035432D01*
X030653Y035432D01*
X030935Y035549D01*
X031151Y035765D01*
X031268Y036047D01*
X031268Y036353D01*
X031151Y036635D01*
X030937Y036850D01*
X031238Y036850D01*
X031400Y036688D01*
X031400Y035938D01*
X031488Y035850D01*
X033350Y033988D01*
X033350Y031366D01*
X033339Y031346D01*
X033344Y031327D01*
X033323Y031254D01*
X033302Y031232D01*
X033302Y031211D01*
X033294Y031218D01*
X033212Y031300D01*
X033206Y031300D01*
X033157Y031348D01*
X033097Y031348D01*
X033081Y031358D01*
X033081Y031358D01*
X033081Y031358D01*
X033047Y031348D01*
X032993Y031348D01*
X032971Y031327D01*
X032898Y031306D01*
X032879Y031311D01*
X032859Y031300D01*
X032416Y031300D01*
X032396Y031311D01*
X032377Y031306D01*
X032304Y031327D01*
X032282Y031348D01*
X032228Y031348D01*
X032227Y031349D01*
X032194Y031358D01*
X032178Y031348D01*
X032118Y031348D01*
X032009Y031239D01*
X031400Y031848D01*
X031400Y031941D01*
X031341Y032000D01*
X031059Y032000D01*
X031000Y031941D01*
X031000Y031890D01*
X030858Y031890D01*
X029990Y032758D01*
X029990Y033175D01*
X030141Y033175D01*
X030200Y033234D01*
X030200Y033816D01*
X030141Y033875D01*
X029559Y033875D01*
X029500Y033816D01*
X029500Y033234D01*
X029559Y033175D01*
X029710Y033175D01*
X029710Y032642D01*
X029792Y032560D01*
X030742Y031610D01*
X031049Y031610D01*
X031059Y031600D01*
X031252Y031600D01*
X032135Y030717D01*
X032135Y030627D01*
X031450Y031312D01*
X031362Y031400D01*
X031059Y031400D01*
X031049Y031390D01*
X030200Y031390D01*
X030200Y031566D01*
X030141Y031625D01*
X029559Y031625D01*
X029500Y031566D01*
X029500Y030984D01*
X029559Y030925D01*
X030141Y030925D01*
X030200Y030984D01*
X030200Y031110D01*
X031000Y031110D01*
X031000Y031059D01*
X031059Y031000D01*
X031338Y031000D01*
X031850Y030488D01*
X031850Y030341D01*
X031839Y030321D01*
X031844Y030302D01*
X031823Y030229D01*
X031802Y030207D01*
X031802Y030153D01*
X031795Y030128D01*
X031792Y030119D01*
X031802Y030103D01*
X031802Y030043D01*
X031918Y029927D01*
X032082Y029927D01*
X032163Y030007D01*
X032193Y029977D01*
X032357Y029977D01*
X032473Y030093D01*
X032473Y030169D01*
X032481Y030186D01*
X032481Y030186D01*
X032481Y030186D01*
X032473Y030209D01*
X032473Y030257D01*
X032447Y030283D01*
X032423Y030352D01*
X032426Y030361D01*
X032415Y030384D01*
X032415Y030833D01*
X032289Y030959D01*
X032304Y030973D01*
X032377Y030994D01*
X032396Y030989D01*
X032416Y031000D01*
X032859Y031000D01*
X032879Y030989D01*
X032898Y030994D01*
X032971Y030973D01*
X032974Y030968D01*
X032977Y030968D01*
X032993Y030952D01*
X033047Y030952D01*
X033081Y030942D01*
X033086Y030945D01*
X033158Y030930D01*
X034400Y029688D01*
X034416Y029672D01*
X034422Y029650D01*
X034439Y029640D01*
X034477Y029573D01*
X034477Y029543D01*
X034515Y029504D01*
X034532Y029474D01*
X034551Y029469D01*
X034593Y029427D01*
X034757Y029427D01*
X034810Y029479D01*
X034810Y029458D01*
X033442Y028090D01*
X033424Y028072D01*
X033399Y028063D01*
X033395Y028055D01*
X033341Y028029D01*
X033330Y028023D01*
X033293Y028023D01*
X033258Y027989D01*
X033237Y027979D01*
X033230Y027961D01*
X033177Y027907D01*
X033177Y027743D01*
X033293Y027627D01*
X033457Y027627D01*
X033511Y027680D01*
X033529Y027687D01*
X033539Y027708D01*
X033573Y027743D01*
X033573Y027780D01*
X033579Y027791D01*
X033603Y027841D01*
X033718Y027727D01*
X033882Y027727D01*
X033998Y027843D01*
X033998Y027877D01*
X034002Y027882D01*
X033998Y027932D01*
X033998Y028007D01*
X033993Y028013D01*
X033990Y028042D01*
X035240Y029292D01*
X035240Y033608D01*
X032705Y036143D01*
X032703Y036145D01*
X032699Y036251D01*
X032698Y036254D01*
X032698Y036332D01*
X032582Y036448D01*
X032418Y036448D01*
X032309Y036339D01*
X032240Y036408D01*
X032240Y036958D01*
X031918Y037280D01*
X031970Y037407D01*
X031970Y037593D01*
X031898Y037766D01*
X031803Y037862D01*
X032197Y037862D01*
X032102Y037766D01*
X032030Y037593D01*
X032030Y037407D01*
X032102Y037234D01*
X032234Y037102D01*
X032407Y037030D01*
X032593Y037030D01*
X032766Y037102D01*
X032898Y037234D01*
X032970Y037407D01*
X032970Y037593D01*
X032898Y037766D01*
X032803Y037862D01*
X033197Y037862D01*
X033102Y037766D01*
X033030Y037593D01*
X033030Y037407D01*
X033102Y037234D01*
X033221Y037115D01*
X033221Y036380D01*
X033244Y036323D01*
X033244Y036133D01*
X033303Y036074D01*
X033838Y036074D01*
X033897Y036133D01*
X033897Y036323D01*
X033921Y036380D01*
X033921Y037287D01*
X033970Y037407D01*
X033970Y037593D01*
X033898Y037766D01*
X033803Y037862D01*
X034197Y037862D01*
X034102Y037766D01*
X034030Y037593D01*
X034030Y037407D01*
X034102Y037234D01*
X034234Y037102D01*
X034407Y037030D01*
X034593Y037030D01*
X034766Y037102D01*
X034898Y037234D01*
X034970Y037407D01*
X034970Y037593D01*
X034898Y037766D01*
X034803Y037862D01*
X035197Y037862D01*
X035102Y037766D01*
X035030Y037593D01*
X035030Y037407D01*
X035102Y037234D01*
X035234Y037102D01*
X035407Y037030D01*
X035593Y037030D01*
X035766Y037102D01*
X035862Y037197D01*
X035862Y025803D01*
X035766Y025898D01*
X035593Y025970D01*
X035407Y025970D01*
X035234Y025898D01*
X035102Y025766D01*
X035030Y025593D01*
X035030Y025407D01*
X035102Y025234D01*
X035197Y025138D01*
X034803Y025138D01*
X034898Y025234D01*
X034970Y025407D01*
X034970Y025593D01*
X034898Y025766D01*
X034766Y025898D01*
X034593Y025970D01*
X034407Y025970D01*
X034316Y025932D01*
X034108Y026140D01*
X033558Y026140D01*
X033240Y026458D01*
X033223Y026475D01*
X033497Y026475D01*
X033600Y026578D01*
X033697Y026675D01*
X033707Y026684D01*
X033720Y026686D01*
X033750Y026725D01*
X033817Y026777D01*
X033832Y026777D01*
X033881Y026825D01*
X033928Y026861D01*
X033928Y026861D01*
X033928Y026861D01*
X033930Y026874D01*
X033948Y026893D01*
X033948Y027057D01*
X033832Y027173D01*
X033668Y027173D01*
X033649Y027155D01*
X033636Y027153D01*
X033600Y027106D01*
X033552Y027057D01*
X033552Y027042D01*
X033500Y026975D01*
X033461Y026945D01*
X033459Y026932D01*
X033450Y026922D01*
X033353Y026825D01*
X030586Y026825D01*
X030576Y026833D01*
X030527Y026827D01*
X030443Y026838D01*
X030432Y026848D01*
X030363Y026848D01*
X030304Y026856D01*
X030294Y026848D01*
X030268Y026848D01*
X030152Y026732D01*
X030152Y026568D01*
X030268Y026452D01*
X030294Y026452D01*
X030304Y026444D01*
X030304Y026444D01*
X030304Y026444D01*
X030363Y026452D01*
X030432Y026452D01*
X030443Y026462D01*
X030527Y026473D01*
X030576Y026467D01*
X030586Y026475D01*
X031202Y026475D01*
X031202Y026404D01*
X031189Y026416D01*
X031132Y026473D01*
X030968Y026473D01*
X030852Y026357D01*
X030852Y026193D01*
X030968Y026077D01*
X031040Y026077D01*
X031052Y026075D01*
X031067Y026060D01*
X031154Y026060D01*
X031154Y026059D01*
X031204Y026060D01*
X031254Y026055D01*
X031260Y026060D01*
X031802Y026060D01*
X031802Y025918D01*
X031855Y025864D01*
X031862Y025846D01*
X031865Y025845D01*
X031883Y025836D01*
X031918Y025802D01*
X031955Y025802D01*
X032020Y025770D01*
X032024Y025762D01*
X032049Y025753D01*
X032067Y025735D01*
X032082Y025720D01*
X032030Y025593D01*
X032030Y025407D01*
X032102Y025234D01*
X032197Y025138D01*
X031803Y025138D01*
X031898Y025234D01*
X031970Y025407D01*
X031970Y025593D01*
X031898Y025766D01*
X031766Y025898D01*
X031593Y025970D01*
X031407Y025970D01*
X031234Y025898D01*
X031102Y025766D01*
X031030Y025593D01*
X031030Y025407D01*
X031102Y025234D01*
X031197Y025138D01*
X030803Y025138D01*
X030898Y025234D01*
X030970Y025407D01*
X030970Y025593D01*
X030898Y025766D01*
X030766Y025898D01*
X030593Y025970D01*
X030407Y025970D01*
X030234Y025898D01*
X030102Y025766D01*
X030030Y025593D01*
X030030Y025407D01*
X030102Y025234D01*
X030197Y025138D01*
X029803Y025138D01*
X029898Y025234D01*
X029970Y025407D01*
X029970Y025593D01*
X029898Y025766D01*
X029766Y025898D01*
X029593Y025970D01*
X029407Y025970D01*
X029234Y025898D01*
X029102Y025766D01*
X029030Y025593D01*
X029030Y025407D01*
X029102Y025234D01*
X029197Y025138D01*
X028970Y025138D01*
X028970Y025911D01*
X028911Y025970D01*
X028089Y025970D01*
X028030Y025911D01*
X028030Y025138D01*
X027803Y025138D01*
X027898Y025234D01*
X027970Y025407D01*
X027970Y025593D01*
X027898Y025766D01*
X027766Y025898D01*
X027593Y025970D01*
X027407Y025970D01*
X027234Y025898D01*
X027102Y025766D01*
X027030Y025593D01*
X027030Y025407D01*
X027102Y025234D01*
X027197Y025138D01*
X026970Y025138D01*
X026970Y025911D01*
X026940Y025942D01*
X027339Y025942D01*
X027199Y025864D02*
X026970Y025864D01*
X026970Y025785D02*
X027120Y025785D01*
X027077Y025707D02*
X026970Y025707D01*
X026970Y025628D02*
X027044Y025628D01*
X027030Y025550D02*
X026970Y025550D01*
X026970Y025471D02*
X027030Y025471D01*
X027036Y025393D02*
X026970Y025393D01*
X026970Y025314D02*
X027068Y025314D01*
X027101Y025236D02*
X026970Y025236D01*
X026970Y025157D02*
X027178Y025157D01*
X027822Y025157D02*
X028030Y025157D01*
X028030Y025236D02*
X027899Y025236D01*
X027932Y025314D02*
X028030Y025314D01*
X028030Y025393D02*
X027964Y025393D01*
X027970Y025471D02*
X028030Y025471D01*
X028030Y025550D02*
X027970Y025550D01*
X027956Y025628D02*
X028030Y025628D01*
X028030Y025707D02*
X027923Y025707D01*
X027880Y025785D02*
X028030Y025785D01*
X028030Y025864D02*
X027801Y025864D01*
X027661Y025942D02*
X028061Y025942D01*
X027489Y026492D02*
X030228Y026492D01*
X030152Y026570D02*
X027568Y026570D01*
X027646Y026649D02*
X029671Y026649D01*
X029718Y026602D02*
X029602Y026718D01*
X029602Y026842D01*
X029599Y026852D01*
X029599Y026853D01*
X029602Y026857D01*
X029602Y026882D01*
X029644Y026925D01*
X029665Y026958D01*
X029665Y026958D01*
X029698Y027010D01*
X029650Y027059D01*
X029650Y027341D01*
X029709Y027400D01*
X029991Y027400D01*
X030000Y027391D01*
X030009Y027400D01*
X030291Y027400D01*
X030341Y027350D01*
X032652Y027350D01*
X032685Y027383D01*
X032703Y027401D01*
X032712Y027426D01*
X032720Y027430D01*
X032752Y027495D01*
X032752Y027532D01*
X032786Y027567D01*
X032796Y027588D01*
X032796Y027588D01*
X032796Y027588D01*
X032814Y027595D01*
X032868Y027648D01*
X033032Y027648D01*
X033148Y027532D01*
X033148Y027368D01*
X033095Y027314D01*
X033088Y027296D01*
X033088Y027296D01*
X033067Y027286D01*
X033032Y027252D01*
X032995Y027252D01*
X032930Y027220D01*
X032926Y027212D01*
X032901Y027203D01*
X032883Y027185D01*
X032758Y027060D01*
X032722Y027060D01*
X032712Y027050D01*
X030341Y027050D01*
X030291Y027000D01*
X030009Y027000D01*
X030000Y027008D01*
X030000Y026986D01*
X030010Y026942D01*
X030000Y026927D01*
X030000Y026788D01*
X029998Y026786D01*
X029998Y026718D01*
X029882Y026602D01*
X029718Y026602D01*
X029602Y026727D02*
X027725Y026727D01*
X027803Y026806D02*
X029602Y026806D01*
X029603Y026884D02*
X027882Y026884D01*
X027960Y026963D02*
X029668Y026963D01*
X029668Y027041D02*
X028039Y027041D01*
X028117Y027120D02*
X029650Y027120D01*
X029650Y027198D02*
X028196Y027198D01*
X028274Y027277D02*
X029650Y027277D01*
X029664Y027355D02*
X028353Y027355D01*
X028431Y027434D02*
X029675Y027434D01*
X029650Y027459D02*
X029709Y027400D01*
X029991Y027400D01*
X030050Y027459D01*
X030050Y027741D01*
X030000Y027791D01*
X030000Y027809D01*
X030009Y027800D01*
X030291Y027800D01*
X030350Y027859D01*
X030350Y027860D01*
X030369Y027860D01*
X030415Y027852D01*
X030422Y027858D01*
X030464Y027856D01*
X030468Y027852D01*
X030545Y027852D01*
X030598Y027849D01*
X030601Y027852D01*
X030632Y027852D01*
X030748Y027968D01*
X030748Y028132D01*
X030632Y028248D01*
X030468Y028248D01*
X030421Y028202D01*
X030345Y028147D01*
X030291Y028200D01*
X030009Y028200D01*
X030000Y028191D01*
X029991Y028200D01*
X029709Y028200D01*
X029699Y028190D01*
X028888Y028190D01*
X029008Y028310D01*
X029650Y028310D01*
X029650Y028309D01*
X029709Y028250D01*
X029991Y028250D01*
X030000Y028259D01*
X030009Y028250D01*
X030291Y028250D01*
X030350Y028309D01*
X030350Y028310D01*
X030353Y028310D01*
X030387Y028299D01*
X030396Y028303D01*
X030452Y028292D01*
X030468Y028277D01*
X030531Y028277D01*
X030569Y028269D01*
X030580Y028277D01*
X030632Y028277D01*
X030748Y028393D01*
X030748Y028557D01*
X030632Y028673D01*
X030524Y028673D01*
X030510Y028678D01*
X030502Y028673D01*
X030468Y028673D01*
X030431Y028637D01*
X030354Y028597D01*
X030345Y028599D01*
X030344Y028598D01*
X030291Y028650D01*
X030009Y028650D01*
X030000Y028641D01*
X030000Y028641D01*
X030000Y028709D01*
X030009Y028700D01*
X030291Y028700D01*
X030348Y028757D01*
X030364Y028749D01*
X030373Y028752D01*
X030442Y028728D01*
X030468Y028702D01*
X030516Y028702D01*
X030539Y028694D01*
X030539Y028694D01*
X030539Y028694D01*
X030556Y028702D01*
X030632Y028702D01*
X030748Y028818D01*
X030748Y028982D01*
X030632Y029098D01*
X030556Y029098D01*
X030539Y029106D01*
X030516Y029098D01*
X030468Y029098D01*
X030442Y029072D01*
X030373Y029048D01*
X030364Y029051D01*
X030348Y029043D01*
X030291Y029100D01*
X030009Y029100D01*
X030000Y029091D01*
X030000Y029109D01*
X030050Y029159D01*
X030050Y029441D01*
X030000Y029491D01*
X030000Y029559D01*
X030050Y029609D01*
X030050Y029891D01*
X029991Y029950D01*
X029709Y029950D01*
X029650Y029891D01*
X029650Y029609D01*
X029700Y029559D01*
X029700Y029491D01*
X029650Y029441D01*
X029650Y029159D01*
X029700Y029109D01*
X029700Y029091D01*
X029650Y029041D01*
X029650Y028759D01*
X029700Y028709D01*
X029700Y028641D01*
X029650Y028591D01*
X029650Y028590D01*
X028892Y028590D01*
X027242Y026940D01*
X027224Y026922D01*
X027199Y026913D01*
X027195Y026905D01*
X027130Y026873D01*
X027093Y026873D01*
X027077Y026858D01*
X027021Y026847D01*
X027012Y026851D01*
X026978Y026840D01*
X024355Y026840D01*
X024287Y026772D01*
X024157Y026772D01*
X024021Y026636D01*
X024021Y026444D01*
X024157Y026308D01*
X024349Y026308D01*
X024485Y026444D01*
X024485Y026560D01*
X026957Y026560D01*
X026970Y026551D01*
X026979Y026553D01*
X027056Y026513D01*
X027086Y026484D01*
X026572Y025970D01*
X026228Y025970D01*
X025658Y026540D01*
X024692Y026540D01*
X024610Y026458D01*
X024294Y026142D01*
X024157Y026142D01*
X024021Y026006D01*
X024021Y025814D01*
X024157Y025678D01*
X024349Y025678D01*
X024485Y025814D01*
X024485Y025937D01*
X024808Y026260D01*
X025542Y026260D01*
X026030Y025772D01*
X026030Y025138D01*
X022638Y025138D01*
X022638Y037862D01*
X022638Y035990D02*
X029755Y035990D01*
X029788Y035912D02*
X022638Y035912D01*
X022638Y035833D02*
X029820Y035833D01*
X029859Y035755D02*
X022638Y035755D01*
X022638Y035676D02*
X029937Y035676D01*
X030326Y035441D02*
X025290Y035441D01*
X025268Y035476D02*
X025268Y035476D01*
X025268Y035476D01*
X025332Y035362D02*
X031976Y035362D01*
X032054Y035284D02*
X025382Y035284D01*
X025457Y035205D02*
X032133Y035205D01*
X032211Y035127D02*
X025536Y035127D01*
X025614Y035048D02*
X032290Y035048D01*
X032368Y034970D02*
X025693Y034970D01*
X025771Y034891D02*
X032447Y034891D01*
X032525Y034813D02*
X025850Y034813D01*
X025928Y034734D02*
X032604Y034734D01*
X032682Y034656D02*
X026007Y034656D01*
X026085Y034577D02*
X027636Y034577D01*
X027964Y034577D02*
X032761Y034577D01*
X032839Y034499D02*
X028000Y034499D01*
X028000Y034420D02*
X032918Y034420D01*
X032996Y034342D02*
X028000Y034342D01*
X028000Y034263D02*
X033075Y034263D01*
X033153Y034185D02*
X027950Y034185D01*
X027950Y034106D02*
X033232Y034106D01*
X033310Y034028D02*
X027950Y034028D01*
X027650Y034028D02*
X026629Y034028D01*
X026597Y034106D02*
X027650Y034106D01*
X027650Y034185D02*
X026519Y034185D01*
X026662Y033949D02*
X027601Y033949D01*
X027574Y033871D02*
X026666Y033871D01*
X026666Y033792D02*
X027574Y033792D01*
X027574Y033714D02*
X026646Y033714D01*
X026614Y033635D02*
X027574Y033635D01*
X027574Y033557D02*
X026560Y033557D01*
X026481Y033478D02*
X027574Y033478D01*
X027574Y033400D02*
X026309Y033400D01*
X026768Y032423D02*
X026652Y032307D01*
X026652Y032143D01*
X026694Y032101D01*
X026699Y032082D01*
X026699Y032082D01*
X026699Y032082D01*
X026729Y032065D01*
X026768Y032027D01*
X026798Y032027D01*
X026865Y031989D01*
X026875Y031972D01*
X026897Y031966D01*
X026913Y031950D01*
X027113Y031750D01*
X027584Y031750D01*
X027625Y031709D01*
X027625Y031556D01*
X027608Y031556D01*
X027549Y031497D01*
X027549Y030962D01*
X027608Y030903D01*
X028242Y030903D01*
X028301Y030962D01*
X028301Y031497D01*
X028242Y031556D01*
X027925Y031556D01*
X027925Y031709D01*
X027975Y031759D01*
X027975Y032041D01*
X027916Y032100D01*
X027634Y032100D01*
X027584Y032050D01*
X027237Y032050D01*
X027125Y032162D01*
X027109Y032178D01*
X027103Y032200D01*
X027086Y032210D01*
X027048Y032277D01*
X027048Y032307D01*
X027010Y032346D01*
X026993Y032376D01*
X026974Y032381D01*
X026932Y032423D01*
X026768Y032423D01*
X026723Y032379D02*
X022638Y032379D01*
X022638Y032301D02*
X026652Y032301D01*
X026652Y032222D02*
X022638Y032222D01*
X022638Y032144D02*
X026652Y032144D01*
X026729Y032065D02*
X022638Y032065D01*
X022638Y031987D02*
X026867Y031987D01*
X026955Y031908D02*
X022638Y031908D01*
X022638Y031830D02*
X027033Y031830D01*
X027112Y031751D02*
X022638Y031751D01*
X022638Y031673D02*
X027625Y031673D01*
X027625Y031594D02*
X022638Y031594D01*
X022638Y031516D02*
X027568Y031516D01*
X027549Y031437D02*
X022638Y031437D01*
X022638Y031359D02*
X027549Y031359D01*
X027549Y031280D02*
X022638Y031280D01*
X022638Y031202D02*
X024035Y031202D01*
X023921Y031154D02*
X023738Y030971D01*
X023639Y030732D01*
X023639Y030474D01*
X023738Y030235D01*
X023921Y030052D01*
X024160Y029953D01*
X024419Y029953D01*
X024658Y030052D01*
X024841Y030235D01*
X024940Y030474D01*
X024940Y030732D01*
X024841Y030971D01*
X024658Y031154D01*
X024419Y031253D01*
X024160Y031253D01*
X023921Y031154D01*
X023890Y031123D02*
X022638Y031123D01*
X022638Y031045D02*
X023811Y031045D01*
X023736Y030966D02*
X022638Y030966D01*
X022638Y030888D02*
X023704Y030888D01*
X023671Y030809D02*
X022638Y030809D01*
X022638Y030731D02*
X023639Y030731D01*
X023639Y030652D02*
X022638Y030652D01*
X022638Y030574D02*
X023639Y030574D01*
X023639Y030495D02*
X022638Y030495D01*
X022638Y030417D02*
X023663Y030417D01*
X023696Y030338D02*
X022638Y030338D01*
X022638Y030260D02*
X023728Y030260D01*
X023792Y030181D02*
X022638Y030181D01*
X022638Y030103D02*
X023871Y030103D01*
X023989Y030024D02*
X022638Y030024D01*
X022638Y029946D02*
X027575Y029946D01*
X027575Y029991D02*
X027575Y029709D01*
X027634Y029650D01*
X027916Y029650D01*
X027975Y029709D01*
X027975Y029991D01*
X027925Y030041D01*
X027925Y030194D01*
X028242Y030194D01*
X028301Y030253D01*
X028301Y030350D01*
X028337Y030350D01*
X028932Y030945D01*
X028980Y030925D01*
X029120Y030925D01*
X029248Y030978D01*
X029347Y031077D01*
X029400Y031205D01*
X029400Y031345D01*
X029347Y031473D01*
X029248Y031572D01*
X029120Y031625D01*
X028980Y031625D01*
X028852Y031572D01*
X028753Y031473D01*
X028700Y031345D01*
X028700Y031205D01*
X028720Y031157D01*
X028301Y030738D01*
X028301Y030788D01*
X028242Y030847D01*
X027608Y030847D01*
X027549Y030788D01*
X027549Y030253D01*
X027608Y030194D01*
X027625Y030194D01*
X027625Y030041D01*
X027575Y029991D01*
X027608Y030024D02*
X025919Y030024D01*
X025883Y030009D02*
X025990Y030053D01*
X026072Y030135D01*
X026116Y030242D01*
X026116Y030358D01*
X026072Y030465D01*
X025990Y030547D01*
X025883Y030591D01*
X025767Y030591D01*
X025660Y030547D01*
X025578Y030465D01*
X025534Y030358D01*
X025534Y030242D01*
X025578Y030135D01*
X025660Y030053D01*
X025767Y030009D01*
X025883Y030009D01*
X025731Y030024D02*
X024591Y030024D01*
X024709Y030103D02*
X025611Y030103D01*
X025559Y030181D02*
X024787Y030181D01*
X024851Y030260D02*
X025534Y030260D01*
X025534Y030338D02*
X024884Y030338D01*
X024916Y030417D02*
X025558Y030417D01*
X025609Y030495D02*
X024940Y030495D01*
X024940Y030574D02*
X025725Y030574D01*
X025925Y030574D02*
X027549Y030574D01*
X027549Y030652D02*
X024940Y030652D01*
X024940Y030731D02*
X027549Y030731D01*
X027570Y030809D02*
X024908Y030809D01*
X024876Y030888D02*
X028450Y030888D01*
X028529Y030966D02*
X028301Y030966D01*
X028301Y031045D02*
X028607Y031045D01*
X028686Y031123D02*
X028301Y031123D01*
X028301Y031202D02*
X028702Y031202D01*
X028700Y031280D02*
X028301Y031280D01*
X028301Y031359D02*
X028706Y031359D01*
X028738Y031437D02*
X028301Y031437D01*
X028282Y031516D02*
X028796Y031516D01*
X028906Y031594D02*
X027925Y031594D01*
X027925Y031673D02*
X030679Y031673D01*
X030601Y031751D02*
X027967Y031751D01*
X027975Y031830D02*
X030522Y031830D01*
X030444Y031908D02*
X027975Y031908D01*
X027975Y031987D02*
X030365Y031987D01*
X030287Y032065D02*
X027951Y032065D01*
X027941Y032150D02*
X028000Y032209D01*
X028000Y032402D01*
X028008Y032410D01*
X028090Y032492D01*
X028090Y032619D01*
X028267Y032619D01*
X028326Y032678D01*
X028326Y032800D01*
X028537Y032800D01*
X028932Y033195D01*
X028980Y033175D01*
X029120Y033175D01*
X029248Y033228D01*
X029347Y033327D01*
X029400Y033455D01*
X029400Y033595D01*
X029347Y033723D01*
X029248Y033822D01*
X029120Y033875D01*
X028980Y033875D01*
X028852Y033822D01*
X028753Y033723D01*
X028700Y033595D01*
X028700Y033455D01*
X028720Y033407D01*
X028413Y033100D01*
X028326Y033100D01*
X028326Y033213D01*
X028267Y033272D01*
X027633Y033272D01*
X027574Y033213D01*
X027574Y032678D01*
X027633Y032619D01*
X027810Y032619D01*
X027810Y032608D01*
X027752Y032550D01*
X027659Y032550D01*
X027600Y032491D01*
X027600Y032209D01*
X027659Y032150D01*
X027941Y032150D01*
X028000Y032222D02*
X030130Y032222D01*
X030208Y032144D02*
X027144Y032144D01*
X027079Y032222D02*
X027600Y032222D01*
X027600Y032301D02*
X027048Y032301D01*
X026993Y032376D02*
X026993Y032376D01*
X026993Y032376D01*
X026982Y032379D02*
X027600Y032379D01*
X027600Y032458D02*
X022638Y032458D01*
X022638Y032536D02*
X027645Y032536D01*
X027574Y032693D02*
X022638Y032693D01*
X022638Y032615D02*
X027810Y032615D01*
X027950Y032550D02*
X027800Y032400D01*
X027800Y032350D01*
X028000Y032379D02*
X029973Y032379D01*
X030051Y032301D02*
X028000Y032301D01*
X028056Y032458D02*
X029894Y032458D01*
X029816Y032536D02*
X028090Y032536D01*
X028090Y032615D02*
X029737Y032615D01*
X029710Y032693D02*
X028326Y032693D01*
X028326Y032772D02*
X029710Y032772D01*
X029710Y032850D02*
X028587Y032850D01*
X028666Y032929D02*
X029710Y032929D01*
X029710Y033007D02*
X028744Y033007D01*
X028823Y033086D02*
X029710Y033086D01*
X029710Y033164D02*
X028901Y033164D01*
X028712Y033400D02*
X028326Y033400D01*
X028326Y033478D02*
X028700Y033478D01*
X028700Y033557D02*
X028326Y033557D01*
X028326Y033635D02*
X028717Y033635D01*
X028749Y033714D02*
X028326Y033714D01*
X028326Y033792D02*
X028822Y033792D01*
X028970Y033871D02*
X028326Y033871D01*
X028299Y033949D02*
X033350Y033949D01*
X033350Y033871D02*
X030146Y033871D01*
X030200Y033792D02*
X033350Y033792D01*
X033350Y033714D02*
X030200Y033714D01*
X030200Y033635D02*
X033350Y033635D01*
X033350Y033557D02*
X030200Y033557D01*
X030200Y033478D02*
X033350Y033478D01*
X033350Y033400D02*
X030200Y033400D01*
X030200Y033321D02*
X033350Y033321D01*
X033350Y033243D02*
X030200Y033243D01*
X029990Y033164D02*
X033350Y033164D01*
X033350Y033086D02*
X029990Y033086D01*
X029990Y033007D02*
X033350Y033007D01*
X033350Y032929D02*
X029990Y032929D01*
X029990Y032850D02*
X033350Y032850D01*
X033350Y032772D02*
X029990Y032772D01*
X030055Y032693D02*
X033350Y032693D01*
X033350Y032615D02*
X030133Y032615D01*
X030212Y032536D02*
X033350Y032536D01*
X033350Y032458D02*
X030290Y032458D01*
X030369Y032379D02*
X033350Y032379D01*
X033350Y032301D02*
X030447Y032301D01*
X030526Y032222D02*
X033350Y032222D01*
X033350Y032144D02*
X030604Y032144D01*
X030683Y032065D02*
X033350Y032065D01*
X033350Y031987D02*
X031355Y031987D01*
X031400Y031908D02*
X033350Y031908D01*
X033350Y031830D02*
X031418Y031830D01*
X031497Y031751D02*
X033350Y031751D01*
X033350Y031673D02*
X031575Y031673D01*
X031654Y031594D02*
X033350Y031594D01*
X033350Y031516D02*
X031732Y031516D01*
X031811Y031437D02*
X033350Y031437D01*
X033346Y031359D02*
X031889Y031359D01*
X031968Y031280D02*
X032049Y031280D01*
X032194Y031358D02*
X032194Y031358D01*
X032297Y030966D02*
X032978Y030966D01*
X032974Y030968D02*
X032974Y030968D01*
X032974Y030968D01*
X033081Y030942D02*
X033081Y030942D01*
X033081Y030942D01*
X033200Y030888D02*
X032360Y030888D01*
X032415Y030809D02*
X033279Y030809D01*
X033357Y030731D02*
X032415Y030731D01*
X032415Y030652D02*
X033436Y030652D01*
X033514Y030574D02*
X032415Y030574D01*
X032415Y030495D02*
X033593Y030495D01*
X033671Y030417D02*
X032415Y030417D01*
X032428Y030338D02*
X033750Y030338D01*
X033828Y030260D02*
X032471Y030260D01*
X032479Y030181D02*
X033907Y030181D01*
X033985Y030103D02*
X032473Y030103D01*
X032405Y030024D02*
X034064Y030024D01*
X034142Y029946D02*
X032101Y029946D01*
X031899Y029946D02*
X029996Y029946D01*
X030050Y029867D02*
X034221Y029867D01*
X034299Y029789D02*
X030050Y029789D01*
X030050Y029710D02*
X034378Y029710D01*
X034444Y029632D02*
X030050Y029632D01*
X030000Y029553D02*
X034477Y029553D01*
X034532Y029475D02*
X030017Y029475D01*
X030050Y029396D02*
X034748Y029396D01*
X034805Y029475D02*
X034810Y029475D01*
X034950Y029400D02*
X033500Y027950D01*
X033428Y027800D01*
X033375Y027825D01*
X033350Y027878D01*
X033500Y027950D01*
X033375Y027825D01*
X033177Y027826D02*
X030317Y027826D01*
X030380Y028000D02*
X030516Y028097D01*
X030550Y028050D01*
X030547Y027992D01*
X030380Y028000D01*
X030500Y028000D01*
X030550Y028050D01*
X030380Y028000D02*
X030150Y028000D01*
X030000Y027809D02*
X030000Y027809D01*
X030044Y027748D02*
X033177Y027748D01*
X033250Y027669D02*
X030050Y027669D01*
X030050Y027591D02*
X032802Y027591D01*
X032752Y027512D02*
X030050Y027512D01*
X030025Y027434D02*
X032722Y027434D01*
X032657Y027355D02*
X030336Y027355D01*
X030332Y027041D02*
X033551Y027041D01*
X033611Y027120D02*
X032817Y027120D01*
X032896Y027198D02*
X035862Y027198D01*
X035862Y027120D02*
X033886Y027120D01*
X033948Y027041D02*
X035862Y027041D01*
X035862Y026963D02*
X033948Y026963D01*
X033940Y026884D02*
X035862Y026884D01*
X035862Y026806D02*
X033861Y026806D01*
X033752Y026727D02*
X035862Y026727D01*
X035862Y026649D02*
X033671Y026649D01*
X033592Y026570D02*
X035862Y026570D01*
X035862Y026492D02*
X033514Y026492D01*
X033363Y026335D02*
X035862Y026335D01*
X035862Y026413D02*
X033285Y026413D01*
X033240Y026458D02*
X033240Y026458D01*
X033100Y026400D02*
X031577Y026400D01*
X031419Y026345D01*
X031400Y026400D01*
X031419Y026455D01*
X031577Y026400D01*
X031400Y026400D01*
X031202Y026413D02*
X031193Y026413D01*
X031091Y026317D02*
X031050Y026275D01*
X031044Y026217D01*
X031211Y026200D01*
X031091Y026317D01*
X031050Y026275D02*
X031125Y026200D01*
X031211Y026200D01*
X033050Y026200D01*
X033500Y025750D01*
X033500Y025500D01*
X033932Y025314D02*
X034068Y025314D01*
X034036Y025393D02*
X033964Y025393D01*
X033970Y025407D02*
X033970Y025593D01*
X033898Y025766D01*
X033805Y025860D01*
X033992Y025860D01*
X034097Y025755D01*
X034030Y025593D01*
X034030Y025407D01*
X034102Y025234D01*
X034197Y025138D01*
X033803Y025138D01*
X033898Y025234D01*
X033970Y025407D01*
X033970Y025471D02*
X034030Y025471D01*
X034030Y025550D02*
X033970Y025550D01*
X033956Y025628D02*
X034044Y025628D01*
X034077Y025707D02*
X033923Y025707D01*
X033880Y025785D02*
X034067Y025785D01*
X034050Y026000D02*
X033500Y026000D01*
X033100Y026400D01*
X032992Y026060D02*
X033194Y025858D01*
X033102Y025766D01*
X033030Y025593D01*
X033030Y025407D01*
X033102Y025234D01*
X033197Y025138D01*
X032803Y025138D01*
X032898Y025234D01*
X032970Y025407D01*
X032970Y025593D01*
X032898Y025766D01*
X032766Y025898D01*
X032593Y025970D01*
X032407Y025970D01*
X032280Y025918D01*
X032265Y025933D01*
X032247Y025951D01*
X032238Y025976D01*
X032230Y025980D01*
X032198Y026045D01*
X032198Y026060D01*
X032992Y026060D01*
X033032Y026021D02*
X032210Y026021D01*
X032256Y025942D02*
X032339Y025942D01*
X032125Y025875D02*
X032500Y025500D01*
X032932Y025314D02*
X033068Y025314D01*
X033036Y025393D02*
X032964Y025393D01*
X032970Y025471D02*
X033030Y025471D01*
X033030Y025550D02*
X032970Y025550D01*
X032956Y025628D02*
X033044Y025628D01*
X033077Y025707D02*
X032923Y025707D01*
X032880Y025785D02*
X033120Y025785D01*
X033189Y025864D02*
X032801Y025864D01*
X032661Y025942D02*
X033110Y025942D01*
X033442Y026256D02*
X035862Y026256D01*
X035862Y026178D02*
X033520Y026178D01*
X034050Y026000D02*
X034500Y025550D01*
X034500Y025500D01*
X034932Y025314D02*
X035068Y025314D01*
X035036Y025393D02*
X034964Y025393D01*
X034970Y025471D02*
X035030Y025471D01*
X035030Y025550D02*
X034970Y025550D01*
X034956Y025628D02*
X035044Y025628D01*
X035077Y025707D02*
X034923Y025707D01*
X034880Y025785D02*
X035120Y025785D01*
X035199Y025864D02*
X034801Y025864D01*
X034661Y025942D02*
X035339Y025942D01*
X035661Y025942D02*
X035862Y025942D01*
X035862Y025864D02*
X035801Y025864D01*
X035862Y026021D02*
X034227Y026021D01*
X034149Y026099D02*
X035862Y026099D01*
X035101Y025236D02*
X034899Y025236D01*
X034822Y025157D02*
X035178Y025157D01*
X034178Y025157D02*
X033822Y025157D01*
X033899Y025236D02*
X034101Y025236D01*
X034306Y025942D02*
X034339Y025942D01*
X033178Y025157D02*
X032822Y025157D01*
X032899Y025236D02*
X033101Y025236D01*
X032178Y025157D02*
X031822Y025157D01*
X031899Y025236D02*
X032101Y025236D01*
X032068Y025314D02*
X031932Y025314D01*
X031964Y025393D02*
X032036Y025393D01*
X032030Y025471D02*
X031970Y025471D01*
X031970Y025550D02*
X032030Y025550D01*
X032044Y025628D02*
X031956Y025628D01*
X031923Y025707D02*
X032077Y025707D01*
X031989Y025785D02*
X031880Y025785D01*
X031856Y025864D02*
X031801Y025864D01*
X031802Y025942D02*
X031661Y025942D01*
X031802Y026021D02*
X027018Y026021D01*
X027097Y026099D02*
X030945Y026099D01*
X030867Y026178D02*
X027175Y026178D01*
X027254Y026256D02*
X030852Y026256D01*
X030852Y026335D02*
X027332Y026335D01*
X027411Y026413D02*
X030907Y026413D01*
X030661Y025942D02*
X031339Y025942D01*
X031199Y025864D02*
X030801Y025864D01*
X030880Y025785D02*
X031120Y025785D01*
X031077Y025707D02*
X030923Y025707D01*
X030956Y025628D02*
X031044Y025628D01*
X031030Y025550D02*
X030970Y025550D01*
X030970Y025471D02*
X031030Y025471D01*
X031036Y025393D02*
X030964Y025393D01*
X030932Y025314D02*
X031068Y025314D01*
X031101Y025236D02*
X030899Y025236D01*
X030822Y025157D02*
X031178Y025157D01*
X030178Y025157D02*
X029822Y025157D01*
X029899Y025236D02*
X030101Y025236D01*
X030068Y025314D02*
X029932Y025314D01*
X029964Y025393D02*
X030036Y025393D01*
X030030Y025471D02*
X029970Y025471D01*
X029970Y025550D02*
X030030Y025550D01*
X030044Y025628D02*
X029956Y025628D01*
X029923Y025707D02*
X030077Y025707D01*
X030120Y025785D02*
X029880Y025785D01*
X029801Y025864D02*
X030199Y025864D01*
X030339Y025942D02*
X029661Y025942D01*
X029339Y025942D02*
X028939Y025942D01*
X028970Y025864D02*
X029199Y025864D01*
X029120Y025785D02*
X028970Y025785D01*
X028970Y025707D02*
X029077Y025707D01*
X029044Y025628D02*
X028970Y025628D01*
X028970Y025550D02*
X029030Y025550D01*
X029030Y025471D02*
X028970Y025471D01*
X028970Y025393D02*
X029036Y025393D01*
X029068Y025314D02*
X028970Y025314D01*
X028970Y025236D02*
X029101Y025236D01*
X029178Y025157D02*
X028970Y025157D01*
X029929Y026649D02*
X030152Y026649D01*
X030152Y026727D02*
X029998Y026727D01*
X030000Y026806D02*
X030225Y026806D01*
X030304Y026856D02*
X030304Y026856D01*
X030304Y026856D01*
X030000Y026884D02*
X033412Y026884D01*
X033484Y026963D02*
X030005Y026963D01*
X029650Y027459D02*
X029650Y027741D01*
X029700Y027791D01*
X029700Y027809D01*
X029650Y027859D01*
X029650Y027910D01*
X028908Y027910D01*
X026940Y025942D01*
X026780Y026178D02*
X026020Y026178D01*
X025942Y026256D02*
X026858Y026256D01*
X026937Y026335D02*
X025863Y026335D01*
X025785Y026413D02*
X027015Y026413D01*
X027078Y026492D02*
X025706Y026492D01*
X025600Y026400D02*
X026500Y025500D01*
X026500Y025700D01*
X028850Y028050D01*
X029800Y028050D01*
X029850Y028000D01*
X029650Y027905D02*
X028902Y027905D01*
X028824Y027826D02*
X029683Y027826D01*
X029656Y027748D02*
X028745Y027748D01*
X028667Y027669D02*
X029650Y027669D01*
X029650Y027591D02*
X028588Y027591D01*
X028510Y027512D02*
X029650Y027512D01*
X030598Y027849D02*
X030598Y027849D01*
X030598Y027849D01*
X030685Y027905D02*
X033177Y027905D01*
X033246Y027983D02*
X030748Y027983D01*
X030748Y028062D02*
X033398Y028062D01*
X033341Y028029D02*
X033341Y028029D01*
X033492Y028140D02*
X030741Y028140D01*
X030662Y028219D02*
X033571Y028219D01*
X033649Y028297D02*
X030653Y028297D01*
X030569Y028269D02*
X030569Y028269D01*
X030569Y028269D01*
X030438Y028219D02*
X028916Y028219D01*
X028995Y028297D02*
X029662Y028297D01*
X029850Y028450D02*
X028950Y028450D01*
X027300Y026800D01*
X027228Y026650D01*
X027175Y026675D01*
X027164Y026732D01*
X027000Y026700D01*
X027148Y026623D01*
X027175Y026675D01*
X027150Y026728D01*
X027300Y026800D01*
X027175Y026675D01*
X027150Y026700D01*
X027000Y026700D01*
X024413Y026700D01*
X024253Y026540D01*
X024021Y026570D02*
X022638Y026570D01*
X022638Y026492D02*
X024021Y026492D01*
X024052Y026413D02*
X022638Y026413D01*
X022638Y026335D02*
X024131Y026335D01*
X024114Y026099D02*
X022638Y026099D01*
X022638Y026021D02*
X024036Y026021D01*
X024021Y025942D02*
X022638Y025942D01*
X022638Y025864D02*
X024021Y025864D01*
X024050Y025785D02*
X022638Y025785D01*
X022638Y025707D02*
X024129Y025707D01*
X024253Y025903D02*
X024750Y026400D01*
X025600Y026400D01*
X025546Y026256D02*
X024804Y026256D01*
X024725Y026178D02*
X025625Y026178D01*
X025703Y026099D02*
X024647Y026099D01*
X024568Y026021D02*
X025782Y026021D01*
X025860Y025942D02*
X024490Y025942D01*
X024485Y025864D02*
X025939Y025864D01*
X026017Y025785D02*
X024456Y025785D01*
X024378Y025707D02*
X026030Y025707D01*
X026030Y025628D02*
X022638Y025628D01*
X022638Y025550D02*
X026030Y025550D01*
X026030Y025471D02*
X022638Y025471D01*
X022638Y025393D02*
X026030Y025393D01*
X026030Y025314D02*
X022638Y025314D01*
X022638Y025236D02*
X026030Y025236D01*
X026030Y025157D02*
X022638Y025157D01*
X022638Y026178D02*
X024330Y026178D01*
X024408Y026256D02*
X022638Y026256D01*
X022638Y026649D02*
X024034Y026649D01*
X024112Y026727D02*
X022638Y026727D01*
X022638Y026806D02*
X024321Y026806D01*
X024485Y026492D02*
X024644Y026492D01*
X024565Y026413D02*
X024454Y026413D01*
X024487Y026335D02*
X024376Y026335D01*
X024419Y027307D02*
X024160Y027307D01*
X023921Y027406D01*
X023738Y027589D01*
X023639Y027828D01*
X023639Y028087D01*
X023738Y028326D01*
X023921Y028509D01*
X024160Y028608D01*
X024419Y028608D01*
X024658Y028509D01*
X024841Y028326D01*
X024940Y028087D01*
X024940Y027828D01*
X024841Y027589D01*
X024658Y027406D01*
X024419Y027307D01*
X024534Y027355D02*
X027657Y027355D01*
X027579Y027277D02*
X022638Y027277D01*
X022638Y027355D02*
X024045Y027355D01*
X023894Y027434D02*
X022638Y027434D01*
X022638Y027512D02*
X023815Y027512D01*
X023738Y027591D02*
X022638Y027591D01*
X022638Y027669D02*
X023705Y027669D01*
X023673Y027748D02*
X022638Y027748D01*
X022638Y027826D02*
X023640Y027826D01*
X023639Y027905D02*
X022638Y027905D01*
X022638Y027983D02*
X023639Y027983D01*
X023639Y028062D02*
X022638Y028062D01*
X022638Y028140D02*
X023661Y028140D01*
X023694Y028219D02*
X022638Y028219D01*
X022638Y028297D02*
X023726Y028297D01*
X023788Y028376D02*
X022638Y028376D01*
X022638Y028454D02*
X023867Y028454D01*
X023979Y028533D02*
X022638Y028533D01*
X022638Y028611D02*
X029670Y028611D01*
X029700Y028690D02*
X022638Y028690D01*
X022638Y028768D02*
X029650Y028768D01*
X029650Y028847D02*
X022638Y028847D01*
X022638Y028925D02*
X029650Y028925D01*
X029650Y029004D02*
X022638Y029004D01*
X022638Y029082D02*
X025632Y029082D01*
X025660Y029053D02*
X025767Y029009D01*
X025883Y029009D01*
X025990Y029053D01*
X026072Y029135D01*
X026088Y029175D01*
X027384Y029175D01*
X027404Y029164D01*
X027423Y029169D01*
X027496Y029148D01*
X027518Y029127D01*
X027572Y029127D01*
X027606Y029117D01*
X027622Y029127D01*
X027682Y029127D01*
X027798Y029243D01*
X027798Y029407D01*
X027682Y029523D01*
X027622Y029523D01*
X027606Y029533D01*
X027606Y029533D01*
X027606Y029533D01*
X027572Y029523D01*
X027518Y029523D01*
X027496Y029502D01*
X027423Y029481D01*
X027404Y029486D01*
X027384Y029475D01*
X026061Y029475D01*
X025990Y029547D01*
X025883Y029591D01*
X025767Y029591D01*
X025660Y029547D01*
X025578Y029465D01*
X025534Y029358D01*
X025534Y029242D01*
X025578Y029135D01*
X025660Y029053D01*
X025568Y029161D02*
X022638Y029161D01*
X022638Y029239D02*
X025535Y029239D01*
X025534Y029318D02*
X022638Y029318D01*
X022638Y029396D02*
X025550Y029396D01*
X025588Y029475D02*
X022638Y029475D01*
X022638Y029553D02*
X025676Y029553D01*
X025974Y029553D02*
X029700Y029553D01*
X029683Y029475D02*
X027731Y029475D01*
X027798Y029396D02*
X029650Y029396D01*
X029650Y029318D02*
X027798Y029318D01*
X027795Y029239D02*
X029650Y029239D01*
X029650Y029161D02*
X027716Y029161D01*
X027606Y029117D02*
X027606Y029117D01*
X027606Y029117D01*
X027453Y029161D02*
X026082Y029161D01*
X026018Y029082D02*
X029691Y029082D01*
X030050Y029161D02*
X034513Y029161D01*
X034591Y029239D02*
X030050Y029239D01*
X030050Y029318D02*
X034670Y029318D01*
X034532Y029474D02*
X034532Y029474D01*
X034532Y029474D01*
X034727Y029823D02*
X034660Y029861D01*
X034650Y029878D01*
X034628Y029884D01*
X034612Y029900D01*
X033561Y030952D01*
X033582Y030952D01*
X033698Y031068D01*
X033698Y031128D01*
X033708Y031144D01*
X033708Y031144D01*
X033699Y031177D01*
X033698Y031178D01*
X033698Y031232D01*
X033677Y031254D01*
X033656Y031327D01*
X033661Y031346D01*
X033650Y031366D01*
X033650Y034112D01*
X033562Y034200D01*
X031700Y036062D01*
X031700Y036812D01*
X031612Y036900D01*
X031482Y037030D01*
X031593Y037030D01*
X031720Y037082D01*
X031960Y036842D01*
X031960Y036292D01*
X034810Y033442D01*
X034810Y029777D01*
X034796Y029785D01*
X034757Y029823D01*
X034727Y029823D01*
X034792Y029789D02*
X034810Y029789D01*
X034810Y029867D02*
X034656Y029867D01*
X034567Y029946D02*
X034810Y029946D01*
X034810Y030024D02*
X034488Y030024D01*
X034410Y030103D02*
X034810Y030103D01*
X034810Y030181D02*
X034331Y030181D01*
X034253Y030260D02*
X034810Y030260D01*
X034810Y030338D02*
X034174Y030338D01*
X034096Y030417D02*
X034810Y030417D01*
X034810Y030495D02*
X034017Y030495D01*
X033939Y030574D02*
X034810Y030574D01*
X034810Y030652D02*
X033860Y030652D01*
X033782Y030731D02*
X034810Y030731D01*
X034810Y030809D02*
X033703Y030809D01*
X033625Y030888D02*
X034810Y030888D01*
X034810Y030966D02*
X033597Y030966D01*
X033675Y031045D02*
X034810Y031045D01*
X034810Y031123D02*
X033698Y031123D01*
X033708Y031144D02*
X033708Y031144D01*
X033698Y031202D02*
X034810Y031202D01*
X034810Y031280D02*
X033669Y031280D01*
X033654Y031359D02*
X034810Y031359D01*
X034810Y031437D02*
X033650Y031437D01*
X033650Y031516D02*
X034810Y031516D01*
X034810Y031594D02*
X033650Y031594D01*
X033650Y031673D02*
X034810Y031673D01*
X034810Y031751D02*
X033650Y031751D01*
X033650Y031830D02*
X034810Y031830D01*
X034810Y031908D02*
X033650Y031908D01*
X033650Y031987D02*
X034810Y031987D01*
X034810Y032065D02*
X033650Y032065D01*
X033650Y032144D02*
X034810Y032144D01*
X034810Y032222D02*
X033650Y032222D01*
X033650Y032301D02*
X034810Y032301D01*
X034810Y032379D02*
X033650Y032379D01*
X033650Y032458D02*
X034810Y032458D01*
X034810Y032536D02*
X033650Y032536D01*
X033650Y032615D02*
X034810Y032615D01*
X034810Y032693D02*
X033650Y032693D01*
X033650Y032772D02*
X034810Y032772D01*
X034810Y032850D02*
X033650Y032850D01*
X033650Y032929D02*
X034810Y032929D01*
X034810Y033007D02*
X033650Y033007D01*
X033650Y033086D02*
X034810Y033086D01*
X034810Y033164D02*
X033650Y033164D01*
X033650Y033243D02*
X034810Y033243D01*
X034810Y033321D02*
X033650Y033321D01*
X033650Y033400D02*
X034810Y033400D01*
X034774Y033478D02*
X033650Y033478D01*
X033650Y033557D02*
X034695Y033557D01*
X034617Y033635D02*
X033650Y033635D01*
X033650Y033714D02*
X034538Y033714D01*
X034460Y033792D02*
X033650Y033792D01*
X033650Y033871D02*
X034381Y033871D01*
X034303Y033949D02*
X033650Y033949D01*
X033650Y034028D02*
X034224Y034028D01*
X034146Y034106D02*
X033650Y034106D01*
X033578Y034185D02*
X034067Y034185D01*
X033989Y034263D02*
X033499Y034263D01*
X033562Y034200D02*
X033562Y034200D01*
X033421Y034342D02*
X033910Y034342D01*
X033832Y034420D02*
X033342Y034420D01*
X033264Y034499D02*
X033753Y034499D01*
X033675Y034577D02*
X033185Y034577D01*
X033107Y034656D02*
X033596Y034656D01*
X033518Y034734D02*
X033028Y034734D01*
X032950Y034813D02*
X033439Y034813D01*
X033361Y034891D02*
X032871Y034891D01*
X032793Y034970D02*
X033282Y034970D01*
X033204Y035048D02*
X032714Y035048D01*
X032636Y035127D02*
X033125Y035127D01*
X033047Y035205D02*
X032557Y035205D01*
X032479Y035284D02*
X032968Y035284D01*
X032890Y035362D02*
X032400Y035362D01*
X032322Y035441D02*
X032811Y035441D01*
X032733Y035519D02*
X032243Y035519D01*
X032165Y035598D02*
X032654Y035598D01*
X032576Y035676D02*
X032086Y035676D01*
X032008Y035755D02*
X032497Y035755D01*
X032419Y035833D02*
X031929Y035833D01*
X031851Y035912D02*
X032340Y035912D01*
X032262Y035990D02*
X031772Y035990D01*
X031700Y036069D02*
X032183Y036069D01*
X032105Y036147D02*
X031700Y036147D01*
X031700Y036226D02*
X032026Y036226D01*
X031960Y036304D02*
X031700Y036304D01*
X031700Y036383D02*
X031960Y036383D01*
X031960Y036461D02*
X031700Y036461D01*
X031700Y036540D02*
X031960Y036540D01*
X031960Y036618D02*
X031700Y036618D01*
X031700Y036697D02*
X031960Y036697D01*
X031960Y036775D02*
X031700Y036775D01*
X031659Y036854D02*
X031948Y036854D01*
X031870Y036932D02*
X031580Y036932D01*
X031502Y037011D02*
X031791Y037011D01*
X031952Y037246D02*
X032096Y037246D01*
X032064Y037325D02*
X031936Y037325D01*
X031969Y037403D02*
X032031Y037403D01*
X032030Y037482D02*
X031970Y037482D01*
X031970Y037560D02*
X032030Y037560D01*
X032049Y037639D02*
X031951Y037639D01*
X031919Y037717D02*
X032081Y037717D01*
X032131Y037796D02*
X031869Y037796D01*
X031500Y037500D02*
X032100Y036900D01*
X032100Y036350D01*
X034950Y033500D01*
X034950Y029400D01*
X035100Y029350D02*
X033846Y028096D01*
X033858Y027929D01*
X033800Y027925D01*
X033752Y027958D01*
X033846Y028096D01*
X033800Y028050D01*
X033800Y027925D01*
X034000Y027905D02*
X035862Y027905D01*
X035862Y027983D02*
X033998Y027983D01*
X034009Y028062D02*
X035862Y028062D01*
X035862Y028140D02*
X034088Y028140D01*
X034166Y028219D02*
X035862Y028219D01*
X035862Y028297D02*
X034245Y028297D01*
X034323Y028376D02*
X035862Y028376D01*
X035862Y028454D02*
X034402Y028454D01*
X034480Y028533D02*
X035862Y028533D01*
X035862Y028611D02*
X034559Y028611D01*
X034638Y028690D02*
X035862Y028690D01*
X035862Y028768D02*
X034716Y028768D01*
X034795Y028847D02*
X035862Y028847D01*
X035862Y028925D02*
X034873Y028925D01*
X034952Y029004D02*
X035862Y029004D01*
X035862Y029082D02*
X035030Y029082D01*
X035109Y029161D02*
X035862Y029161D01*
X035862Y029239D02*
X035187Y029239D01*
X035240Y029318D02*
X035862Y029318D01*
X035862Y029396D02*
X035240Y029396D01*
X035240Y029475D02*
X035862Y029475D01*
X035862Y029553D02*
X035240Y029553D01*
X035240Y029632D02*
X035862Y029632D01*
X035862Y029710D02*
X035240Y029710D01*
X035240Y029789D02*
X035862Y029789D01*
X035862Y029867D02*
X035240Y029867D01*
X035240Y029946D02*
X035862Y029946D01*
X035862Y030024D02*
X035240Y030024D01*
X035240Y030103D02*
X035862Y030103D01*
X035862Y030181D02*
X035240Y030181D01*
X035240Y030260D02*
X035862Y030260D01*
X035862Y030338D02*
X035240Y030338D01*
X035240Y030417D02*
X035862Y030417D01*
X035862Y030495D02*
X035240Y030495D01*
X035240Y030574D02*
X035862Y030574D01*
X035862Y030652D02*
X035240Y030652D01*
X035240Y030731D02*
X035862Y030731D01*
X035862Y030809D02*
X035240Y030809D01*
X035240Y030888D02*
X035862Y030888D01*
X035862Y030966D02*
X035240Y030966D01*
X035240Y031045D02*
X035862Y031045D01*
X035862Y031123D02*
X035240Y031123D01*
X035240Y031202D02*
X035862Y031202D01*
X035862Y031280D02*
X035240Y031280D01*
X035240Y031359D02*
X035862Y031359D01*
X035862Y031437D02*
X035240Y031437D01*
X035240Y031516D02*
X035862Y031516D01*
X035862Y031594D02*
X035240Y031594D01*
X035240Y031673D02*
X035862Y031673D01*
X035862Y031751D02*
X035240Y031751D01*
X035240Y031830D02*
X035862Y031830D01*
X035862Y031908D02*
X035240Y031908D01*
X035240Y031987D02*
X035862Y031987D01*
X035862Y032065D02*
X035240Y032065D01*
X035240Y032144D02*
X035862Y032144D01*
X035862Y032222D02*
X035240Y032222D01*
X035240Y032301D02*
X035862Y032301D01*
X035862Y032379D02*
X035240Y032379D01*
X035240Y032458D02*
X035862Y032458D01*
X035862Y032536D02*
X035240Y032536D01*
X035240Y032615D02*
X035862Y032615D01*
X035862Y032693D02*
X035240Y032693D01*
X035240Y032772D02*
X035862Y032772D01*
X035862Y032850D02*
X035240Y032850D01*
X035240Y032929D02*
X035862Y032929D01*
X035862Y033007D02*
X035240Y033007D01*
X035240Y033086D02*
X035862Y033086D01*
X035862Y033164D02*
X035240Y033164D01*
X035240Y033243D02*
X035862Y033243D01*
X035862Y033321D02*
X035240Y033321D01*
X035240Y033400D02*
X035862Y033400D01*
X035862Y033478D02*
X035240Y033478D01*
X035240Y033557D02*
X035862Y033557D01*
X035862Y033635D02*
X035213Y033635D01*
X035134Y033714D02*
X035862Y033714D01*
X035862Y033792D02*
X035056Y033792D01*
X034977Y033871D02*
X035862Y033871D01*
X035862Y033949D02*
X034899Y033949D01*
X034820Y034028D02*
X035862Y034028D01*
X035862Y034106D02*
X034742Y034106D01*
X034663Y034185D02*
X035862Y034185D01*
X035862Y034263D02*
X034585Y034263D01*
X034506Y034342D02*
X035862Y034342D01*
X035862Y034420D02*
X034428Y034420D01*
X034349Y034499D02*
X035862Y034499D01*
X035862Y034577D02*
X034271Y034577D01*
X034192Y034656D02*
X035862Y034656D01*
X035862Y034734D02*
X034114Y034734D01*
X034035Y034813D02*
X035862Y034813D01*
X035862Y034891D02*
X033957Y034891D01*
X033878Y034970D02*
X035862Y034970D01*
X035862Y035048D02*
X033800Y035048D01*
X033721Y035127D02*
X035862Y035127D01*
X035862Y035205D02*
X033643Y035205D01*
X033564Y035284D02*
X035862Y035284D01*
X035862Y035362D02*
X033486Y035362D01*
X033407Y035441D02*
X035862Y035441D01*
X035862Y035519D02*
X033329Y035519D01*
X033250Y035598D02*
X035862Y035598D01*
X035862Y035676D02*
X033172Y035676D01*
X033093Y035755D02*
X035862Y035755D01*
X035862Y035833D02*
X033015Y035833D01*
X032936Y035912D02*
X035862Y035912D01*
X035862Y035990D02*
X032858Y035990D01*
X032779Y036069D02*
X035862Y036069D01*
X035862Y036147D02*
X033897Y036147D01*
X033897Y036226D02*
X035862Y036226D01*
X035862Y036304D02*
X033897Y036304D01*
X033921Y036383D02*
X035862Y036383D01*
X035862Y036461D02*
X033921Y036461D01*
X033921Y036540D02*
X035862Y036540D01*
X035862Y036618D02*
X033921Y036618D01*
X033921Y036697D02*
X035862Y036697D01*
X035862Y036775D02*
X033921Y036775D01*
X033921Y036854D02*
X035862Y036854D01*
X035862Y036932D02*
X033921Y036932D01*
X033921Y037011D02*
X035862Y037011D01*
X035862Y037089D02*
X035736Y037089D01*
X035832Y037168D02*
X035862Y037168D01*
X035264Y037089D02*
X034736Y037089D01*
X034832Y037168D02*
X035168Y037168D01*
X035096Y037246D02*
X034904Y037246D01*
X034936Y037325D02*
X035064Y037325D01*
X035031Y037403D02*
X034969Y037403D01*
X034970Y037482D02*
X035030Y037482D01*
X035030Y037560D02*
X034970Y037560D01*
X034951Y037639D02*
X035049Y037639D01*
X035081Y037717D02*
X034919Y037717D01*
X034869Y037796D02*
X035131Y037796D01*
X034131Y037796D02*
X033869Y037796D01*
X033919Y037717D02*
X034081Y037717D01*
X034049Y037639D02*
X033951Y037639D01*
X033970Y037560D02*
X034030Y037560D01*
X034030Y037482D02*
X033970Y037482D01*
X033969Y037403D02*
X034031Y037403D01*
X034064Y037325D02*
X033936Y037325D01*
X033921Y037246D02*
X034096Y037246D01*
X034168Y037168D02*
X033921Y037168D01*
X033921Y037089D02*
X034264Y037089D01*
X033221Y037089D02*
X032736Y037089D01*
X032832Y037168D02*
X033168Y037168D01*
X033096Y037246D02*
X032904Y037246D01*
X032936Y037325D02*
X033064Y037325D01*
X033031Y037403D02*
X032969Y037403D01*
X032970Y037482D02*
X033030Y037482D01*
X033030Y037560D02*
X032970Y037560D01*
X032951Y037639D02*
X033049Y037639D01*
X033081Y037717D02*
X032919Y037717D01*
X032869Y037796D02*
X033131Y037796D01*
X033221Y037011D02*
X032187Y037011D01*
X032240Y036932D02*
X033221Y036932D01*
X033221Y036854D02*
X032240Y036854D01*
X032240Y036775D02*
X033221Y036775D01*
X033221Y036697D02*
X032240Y036697D01*
X032240Y036618D02*
X033221Y036618D01*
X033221Y036540D02*
X032240Y036540D01*
X032240Y036461D02*
X033221Y036461D01*
X033221Y036383D02*
X032648Y036383D01*
X032698Y036304D02*
X033244Y036304D01*
X033244Y036226D02*
X032700Y036226D01*
X032703Y036147D02*
X033244Y036147D01*
X032565Y036085D02*
X032456Y036212D01*
X032500Y036250D01*
X032558Y036252D01*
X032565Y036085D01*
X032500Y036150D01*
X032500Y036250D01*
X032565Y036085D02*
X035100Y033550D01*
X035100Y029350D01*
X034434Y029082D02*
X030649Y029082D01*
X030727Y029004D02*
X034356Y029004D01*
X034277Y028925D02*
X030748Y028925D01*
X030748Y028847D02*
X034199Y028847D01*
X034120Y028768D02*
X030699Y028768D01*
X030695Y028611D02*
X033963Y028611D01*
X033885Y028533D02*
X030748Y028533D01*
X030748Y028454D02*
X033806Y028454D01*
X033728Y028376D02*
X030731Y028376D01*
X030539Y028418D02*
X030550Y028475D01*
X030523Y028527D01*
X030375Y028450D01*
X030539Y028418D01*
X030525Y028450D02*
X030550Y028475D01*
X030525Y028450D02*
X030375Y028450D01*
X030150Y028450D01*
X030330Y028611D02*
X030381Y028611D01*
X030510Y028678D02*
X030510Y028678D01*
X030510Y028678D01*
X030531Y028845D02*
X030550Y028900D01*
X030531Y028955D01*
X030373Y028900D01*
X030531Y028845D01*
X030550Y028900D02*
X030373Y028900D01*
X030150Y028900D01*
X030309Y029082D02*
X030451Y029082D01*
X030539Y029106D02*
X030539Y029106D01*
X030539Y029106D01*
X030000Y028690D02*
X034042Y028690D01*
X034002Y027882D02*
X034002Y027882D01*
X034002Y027882D01*
X033982Y027826D02*
X035862Y027826D01*
X035862Y027748D02*
X033903Y027748D01*
X033697Y027748D02*
X033573Y027748D01*
X033579Y027791D02*
X033579Y027791D01*
X033596Y027826D02*
X033618Y027826D01*
X033500Y027669D02*
X035862Y027669D01*
X035862Y027591D02*
X033090Y027591D01*
X033148Y027512D02*
X035862Y027512D01*
X035862Y027434D02*
X033148Y027434D01*
X033136Y027355D02*
X035862Y027355D01*
X035862Y027277D02*
X033057Y027277D01*
X033088Y027296D02*
X033088Y027296D01*
X032975Y027397D02*
X032950Y027450D01*
X032897Y027475D01*
X032825Y027325D01*
X032975Y027397D01*
X032950Y027450D02*
X032825Y027325D01*
X032700Y027200D01*
X032650Y027200D01*
X033636Y027153D02*
X033636Y027153D01*
X033636Y027153D01*
X032053Y026025D02*
X032000Y026000D01*
X031975Y025947D01*
X032125Y025875D01*
X032053Y026025D01*
X032000Y026000D02*
X032125Y025875D01*
X030427Y028297D02*
X030338Y028297D01*
X029650Y029632D02*
X022638Y029632D01*
X022638Y029710D02*
X027575Y029710D01*
X027575Y029789D02*
X022638Y029789D01*
X022638Y029867D02*
X027575Y029867D01*
X027625Y030103D02*
X026039Y030103D01*
X026091Y030181D02*
X027625Y030181D01*
X027549Y030260D02*
X026116Y030260D01*
X026116Y030338D02*
X027549Y030338D01*
X027549Y030417D02*
X026092Y030417D01*
X026041Y030495D02*
X027549Y030495D01*
X027549Y030966D02*
X024843Y030966D01*
X024768Y031045D02*
X027549Y031045D01*
X027549Y031123D02*
X024689Y031123D01*
X024544Y031202D02*
X027549Y031202D01*
X028280Y030809D02*
X028372Y030809D01*
X028561Y030574D02*
X031764Y030574D01*
X031686Y030652D02*
X028639Y030652D01*
X028718Y030731D02*
X031607Y030731D01*
X031529Y030809D02*
X028796Y030809D01*
X028875Y030888D02*
X031450Y030888D01*
X031372Y030966D02*
X030182Y030966D01*
X030200Y031045D02*
X031014Y031045D01*
X031200Y031200D02*
X031150Y031250D01*
X029875Y031250D01*
X029850Y031275D01*
X029500Y031280D02*
X029400Y031280D01*
X029398Y031202D02*
X029500Y031202D01*
X029500Y031123D02*
X029366Y031123D01*
X029314Y031045D02*
X029500Y031045D01*
X029518Y030966D02*
X029219Y030966D01*
X029394Y031359D02*
X029500Y031359D01*
X029500Y031437D02*
X029362Y031437D01*
X029304Y031516D02*
X029500Y031516D01*
X029528Y031594D02*
X029194Y031594D01*
X030172Y031594D02*
X031258Y031594D01*
X031336Y031516D02*
X030200Y031516D01*
X030200Y031437D02*
X031415Y031437D01*
X031404Y031359D02*
X031493Y031359D01*
X031482Y031280D02*
X031572Y031280D01*
X031561Y031202D02*
X031650Y031202D01*
X031639Y031123D02*
X031729Y031123D01*
X031718Y031045D02*
X031807Y031045D01*
X031796Y030966D02*
X031886Y030966D01*
X031875Y030888D02*
X031964Y030888D01*
X031953Y030809D02*
X032043Y030809D01*
X032032Y030731D02*
X032121Y030731D01*
X032110Y030652D02*
X032135Y030652D01*
X032275Y030775D02*
X031250Y031800D01*
X031200Y031800D01*
X031150Y031750D01*
X030800Y031750D01*
X029850Y032700D01*
X029850Y033525D01*
X029500Y033557D02*
X029400Y033557D01*
X029400Y033478D02*
X029500Y033478D01*
X029500Y033400D02*
X029377Y033400D01*
X029341Y033321D02*
X029500Y033321D01*
X029500Y033243D02*
X029263Y033243D01*
X029383Y033635D02*
X029500Y033635D01*
X029500Y033714D02*
X029351Y033714D01*
X029278Y033792D02*
X029500Y033792D01*
X029554Y033871D02*
X029130Y033871D01*
X028634Y033321D02*
X022638Y033321D01*
X022638Y033243D02*
X027603Y033243D01*
X027574Y033164D02*
X022638Y033164D01*
X022638Y033086D02*
X027574Y033086D01*
X027574Y033007D02*
X022638Y033007D01*
X022638Y032929D02*
X027574Y032929D01*
X027574Y032850D02*
X022638Y032850D01*
X022638Y032772D02*
X027574Y032772D01*
X027950Y032946D02*
X027950Y032550D01*
X027599Y032065D02*
X027222Y032065D01*
X028326Y033164D02*
X028477Y033164D01*
X028555Y033243D02*
X028297Y033243D01*
X030761Y031987D02*
X031045Y031987D01*
X031000Y031908D02*
X030840Y031908D01*
X031843Y030495D02*
X028482Y030495D01*
X028404Y030417D02*
X031850Y030417D01*
X031848Y030338D02*
X028301Y030338D01*
X028301Y030260D02*
X031832Y030260D01*
X031802Y030181D02*
X027925Y030181D01*
X027925Y030103D02*
X031802Y030103D01*
X031820Y030024D02*
X027942Y030024D01*
X027975Y029946D02*
X029704Y029946D01*
X029650Y029867D02*
X027975Y029867D01*
X027975Y029789D02*
X029650Y029789D01*
X029650Y029710D02*
X027975Y029710D01*
X028835Y028533D02*
X024600Y028533D01*
X024713Y028454D02*
X028756Y028454D01*
X028678Y028376D02*
X024791Y028376D01*
X024853Y028297D02*
X028599Y028297D01*
X028521Y028219D02*
X024885Y028219D01*
X024918Y028140D02*
X028442Y028140D01*
X028364Y028062D02*
X024940Y028062D01*
X024940Y027983D02*
X028285Y027983D01*
X028207Y027905D02*
X024940Y027905D01*
X024939Y027826D02*
X028128Y027826D01*
X028050Y027748D02*
X024906Y027748D01*
X024874Y027669D02*
X027971Y027669D01*
X027893Y027591D02*
X024841Y027591D01*
X024764Y027512D02*
X027814Y027512D01*
X027736Y027434D02*
X024685Y027434D01*
X026099Y026099D02*
X026701Y026099D01*
X026623Y026021D02*
X026177Y026021D01*
X027152Y026884D02*
X022638Y026884D01*
X022638Y026963D02*
X027265Y026963D01*
X027343Y027041D02*
X022638Y027041D01*
X022638Y027120D02*
X027422Y027120D01*
X027500Y027198D02*
X022638Y027198D01*
X032220Y030194D02*
X032275Y030175D01*
X032330Y030194D01*
X032275Y030352D01*
X032220Y030194D01*
X032275Y030175D02*
X032275Y030352D01*
X032275Y030775D01*
X033232Y031280D02*
X033331Y031280D01*
X031897Y035441D02*
X030674Y035441D01*
X030864Y035519D02*
X031819Y035519D01*
X031740Y035598D02*
X030984Y035598D01*
X031063Y035676D02*
X031662Y035676D01*
X031583Y035755D02*
X031141Y035755D01*
X031180Y035833D02*
X031505Y035833D01*
X031488Y035850D02*
X031488Y035850D01*
X031426Y035912D02*
X031212Y035912D01*
X031245Y035990D02*
X031400Y035990D01*
X031400Y036069D02*
X031268Y036069D01*
X031268Y036147D02*
X031400Y036147D01*
X031400Y036226D02*
X031268Y036226D01*
X031268Y036304D02*
X031400Y036304D01*
X031400Y036383D02*
X031256Y036383D01*
X031224Y036461D02*
X031400Y036461D01*
X031400Y036540D02*
X031191Y036540D01*
X031158Y036618D02*
X031400Y036618D01*
X031391Y036697D02*
X031090Y036697D01*
X031012Y036775D02*
X031313Y036775D01*
X031185Y037150D02*
X030815Y037150D01*
X030898Y037234D01*
X030970Y037407D01*
X030970Y037593D01*
X030898Y037766D01*
X030803Y037862D01*
X031197Y037862D01*
X031102Y037766D01*
X031030Y037593D01*
X031030Y037407D01*
X031102Y037234D01*
X031185Y037150D01*
X031168Y037168D02*
X030832Y037168D01*
X030904Y037246D02*
X031096Y037246D01*
X031064Y037325D02*
X030936Y037325D01*
X030969Y037403D02*
X031031Y037403D01*
X031030Y037482D02*
X030970Y037482D01*
X030970Y037560D02*
X031030Y037560D01*
X031049Y037639D02*
X030951Y037639D01*
X030919Y037717D02*
X031081Y037717D01*
X031131Y037796D02*
X030869Y037796D01*
X032030Y037168D02*
X032168Y037168D01*
X032109Y037089D02*
X032264Y037089D01*
X032265Y036383D02*
X032352Y036383D01*
D23*
X031550Y036750D02*
X031550Y036000D01*
X033500Y034050D01*
X033500Y031327D01*
X033547Y031163D01*
X033500Y031150D01*
X033453Y031163D01*
X033500Y031327D01*
X033500Y031150D01*
X033232Y031068D02*
X033065Y031103D01*
X033075Y031150D01*
X033108Y031185D01*
X033232Y031068D01*
X034550Y029750D01*
X034699Y029667D01*
X034675Y029625D01*
X034633Y029601D01*
X034550Y029750D01*
X034675Y029625D01*
X033232Y031068D02*
X033150Y031150D01*
X033075Y031150D01*
X033062Y031197D01*
X032898Y031150D01*
X033062Y031103D01*
X033075Y031150D01*
X032898Y031150D01*
X032377Y031150D01*
X032213Y031103D01*
X032200Y031150D01*
X032213Y031197D01*
X032377Y031150D01*
X032200Y031150D01*
X032000Y030550D02*
X031300Y031250D01*
X031200Y031250D01*
X031200Y031200D01*
X032000Y030550D02*
X032000Y030302D01*
X032047Y030138D01*
X032000Y030125D01*
X031953Y030138D01*
X032000Y030302D01*
X032000Y030125D01*
X029850Y029750D02*
X029850Y029300D01*
X029850Y028900D01*
X029850Y028450D01*
X029850Y028000D02*
X029850Y027600D01*
X029850Y027200D02*
X029850Y026970D01*
X029848Y026800D01*
X029800Y026800D01*
X029759Y026826D01*
X029850Y026970D01*
X029850Y026850D01*
X029800Y026800D01*
X030150Y027200D02*
X032650Y027200D01*
X029050Y031275D02*
X028275Y030500D01*
X028000Y030500D01*
X027950Y030550D01*
X027925Y030525D01*
X027925Y030521D01*
X027775Y030371D01*
X027775Y029850D01*
X027587Y029372D02*
X027600Y029325D01*
X027587Y029278D01*
X027423Y029325D01*
X027587Y029372D01*
X027600Y029325D02*
X027423Y029325D01*
X025850Y029325D01*
X025825Y029300D01*
X027775Y031379D02*
X027925Y031229D01*
X027775Y031379D02*
X027775Y031900D01*
X027175Y031900D01*
X026975Y032100D01*
X026826Y032183D01*
X026850Y032225D01*
X026892Y032249D01*
X026975Y032100D01*
X026850Y032225D01*
X027900Y032950D02*
X027946Y032950D01*
X028475Y032950D01*
X029050Y033525D01*
X027950Y033654D02*
X027800Y033804D01*
X027800Y034400D01*
X026050Y034400D01*
X025250Y035200D01*
X025101Y035283D01*
X025125Y035325D01*
X025167Y035349D01*
X025250Y035200D01*
X025125Y035325D01*
X027946Y032950D02*
X027950Y032946D01*
X029204Y036346D02*
X029204Y036450D01*
X029204Y036504D01*
X029700Y037000D01*
X031300Y037000D01*
X031550Y036750D01*
X024253Y025910D02*
X024253Y025903D01*
D24*
X030350Y026650D02*
X030353Y026627D01*
X030527Y026650D01*
X030353Y026673D01*
X030350Y026650D01*
X030527Y026650D01*
X033425Y026650D01*
X033625Y026850D01*
X033731Y026989D01*
X033750Y026975D01*
X033764Y026956D01*
X033625Y026850D01*
X033750Y026975D01*
D25*
X033571Y036450D02*
X033571Y037429D01*
X033500Y037500D01*
X028500Y037500D02*
X028500Y036454D01*
X028496Y036450D01*
M02*
