G75*
%MOIN*%
%OFA0B0*%
%FSLAX24Y24*%
%IPPOS*%
%LPD*%
%AMOC8*
5,1,8,0,0,1.08239X$1,22.5*
%
%ADD10C,0.0000*%
%ADD11C,0.0285*%
%ADD12R,0.0740X0.0740*%
%ADD13C,0.0740*%
%ADD14R,0.0551X0.0453*%
%ADD15R,0.0453X0.0551*%
%ADD16R,0.0200X0.0200*%
%ADD17C,0.0264*%
%ADD18C,0.0382*%
%ADD19C,0.0500*%
%ADD20R,0.0500X0.0500*%
%ADD21C,0.0197*%
%ADD22C,0.0080*%
%ADD23C,0.0100*%
%ADD24C,0.0150*%
%ADD25C,0.0200*%
%ADD26C,0.0500*%
D10*
X022500Y025000D02*
X035850Y025000D01*
X035850Y038000D01*
X022500Y038000D01*
X022500Y025000D01*
X023578Y027957D02*
X023580Y028002D01*
X023586Y028046D01*
X023595Y028090D01*
X023609Y028132D01*
X023626Y028173D01*
X023647Y028213D01*
X023671Y028251D01*
X023698Y028286D01*
X023728Y028319D01*
X023761Y028349D01*
X023796Y028376D01*
X023834Y028400D01*
X023874Y028421D01*
X023915Y028438D01*
X023957Y028452D01*
X024001Y028461D01*
X024045Y028467D01*
X024090Y028469D01*
X024135Y028467D01*
X024179Y028461D01*
X024223Y028452D01*
X024265Y028438D01*
X024306Y028421D01*
X024346Y028400D01*
X024384Y028376D01*
X024419Y028349D01*
X024452Y028319D01*
X024482Y028286D01*
X024509Y028251D01*
X024533Y028213D01*
X024554Y028173D01*
X024571Y028132D01*
X024585Y028090D01*
X024594Y028046D01*
X024600Y028002D01*
X024602Y027957D01*
X024600Y027912D01*
X024594Y027868D01*
X024585Y027824D01*
X024571Y027782D01*
X024554Y027741D01*
X024533Y027701D01*
X024509Y027663D01*
X024482Y027628D01*
X024452Y027595D01*
X024419Y027565D01*
X024384Y027538D01*
X024346Y027514D01*
X024306Y027493D01*
X024265Y027476D01*
X024223Y027462D01*
X024179Y027453D01*
X024135Y027447D01*
X024090Y027445D01*
X024045Y027447D01*
X024001Y027453D01*
X023957Y027462D01*
X023915Y027476D01*
X023874Y027493D01*
X023834Y027514D01*
X023796Y027538D01*
X023761Y027565D01*
X023728Y027595D01*
X023698Y027628D01*
X023671Y027663D01*
X023647Y027701D01*
X023626Y027741D01*
X023609Y027782D01*
X023595Y027824D01*
X023586Y027868D01*
X023580Y027912D01*
X023578Y027957D01*
X023578Y030603D02*
X023580Y030648D01*
X023586Y030692D01*
X023595Y030736D01*
X023609Y030778D01*
X023626Y030819D01*
X023647Y030859D01*
X023671Y030897D01*
X023698Y030932D01*
X023728Y030965D01*
X023761Y030995D01*
X023796Y031022D01*
X023834Y031046D01*
X023874Y031067D01*
X023915Y031084D01*
X023957Y031098D01*
X024001Y031107D01*
X024045Y031113D01*
X024090Y031115D01*
X024135Y031113D01*
X024179Y031107D01*
X024223Y031098D01*
X024265Y031084D01*
X024306Y031067D01*
X024346Y031046D01*
X024384Y031022D01*
X024419Y030995D01*
X024452Y030965D01*
X024482Y030932D01*
X024509Y030897D01*
X024533Y030859D01*
X024554Y030819D01*
X024571Y030778D01*
X024585Y030736D01*
X024594Y030692D01*
X024600Y030648D01*
X024602Y030603D01*
X024600Y030558D01*
X024594Y030514D01*
X024585Y030470D01*
X024571Y030428D01*
X024554Y030387D01*
X024533Y030347D01*
X024509Y030309D01*
X024482Y030274D01*
X024452Y030241D01*
X024419Y030211D01*
X024384Y030184D01*
X024346Y030160D01*
X024306Y030139D01*
X024265Y030122D01*
X024223Y030108D01*
X024179Y030099D01*
X024135Y030093D01*
X024090Y030091D01*
X024045Y030093D01*
X024001Y030099D01*
X023957Y030108D01*
X023915Y030122D01*
X023874Y030139D01*
X023834Y030160D01*
X023796Y030184D01*
X023761Y030211D01*
X023728Y030241D01*
X023698Y030274D01*
X023671Y030309D01*
X023647Y030347D01*
X023626Y030387D01*
X023609Y030428D01*
X023595Y030470D01*
X023586Y030514D01*
X023580Y030558D01*
X023578Y030603D01*
X023335Y033850D02*
X023337Y033885D01*
X023343Y033920D01*
X023353Y033954D01*
X023366Y033987D01*
X023383Y034018D01*
X023404Y034046D01*
X023427Y034073D01*
X023454Y034096D01*
X023482Y034117D01*
X023513Y034134D01*
X023546Y034147D01*
X023580Y034157D01*
X023615Y034163D01*
X023650Y034165D01*
X023685Y034163D01*
X023720Y034157D01*
X023754Y034147D01*
X023787Y034134D01*
X023818Y034117D01*
X023846Y034096D01*
X023873Y034073D01*
X023896Y034046D01*
X023917Y034018D01*
X023934Y033987D01*
X023947Y033954D01*
X023957Y033920D01*
X023963Y033885D01*
X023965Y033850D01*
X023963Y033815D01*
X023957Y033780D01*
X023947Y033746D01*
X023934Y033713D01*
X023917Y033682D01*
X023896Y033654D01*
X023873Y033627D01*
X023846Y033604D01*
X023818Y033583D01*
X023787Y033566D01*
X023754Y033553D01*
X023720Y033543D01*
X023685Y033537D01*
X023650Y033535D01*
X023615Y033537D01*
X023580Y033543D01*
X023546Y033553D01*
X023513Y033566D01*
X023482Y033583D01*
X023454Y033604D01*
X023427Y033627D01*
X023404Y033654D01*
X023383Y033682D01*
X023366Y033713D01*
X023353Y033746D01*
X023343Y033780D01*
X023337Y033815D01*
X023335Y033850D01*
X025697Y033850D02*
X025699Y033885D01*
X025705Y033920D01*
X025715Y033954D01*
X025728Y033987D01*
X025745Y034018D01*
X025766Y034046D01*
X025789Y034073D01*
X025816Y034096D01*
X025844Y034117D01*
X025875Y034134D01*
X025908Y034147D01*
X025942Y034157D01*
X025977Y034163D01*
X026012Y034165D01*
X026047Y034163D01*
X026082Y034157D01*
X026116Y034147D01*
X026149Y034134D01*
X026180Y034117D01*
X026208Y034096D01*
X026235Y034073D01*
X026258Y034046D01*
X026279Y034018D01*
X026296Y033987D01*
X026309Y033954D01*
X026319Y033920D01*
X026325Y033885D01*
X026327Y033850D01*
X026325Y033815D01*
X026319Y033780D01*
X026309Y033746D01*
X026296Y033713D01*
X026279Y033682D01*
X026258Y033654D01*
X026235Y033627D01*
X026208Y033604D01*
X026180Y033583D01*
X026149Y033566D01*
X026116Y033553D01*
X026082Y033543D01*
X026047Y033537D01*
X026012Y033535D01*
X025977Y033537D01*
X025942Y033543D01*
X025908Y033553D01*
X025875Y033566D01*
X025844Y033583D01*
X025816Y033604D01*
X025789Y033627D01*
X025766Y033654D01*
X025745Y033682D01*
X025728Y033713D01*
X025715Y033746D01*
X025705Y033780D01*
X025699Y033815D01*
X025697Y033850D01*
D11*
X031549Y029351D03*
X032651Y029351D03*
X032651Y028249D03*
X031549Y028249D03*
D12*
X031300Y025500D03*
X027300Y025500D03*
X035300Y025500D03*
X035300Y037500D03*
X031300Y037500D03*
X027300Y037500D03*
D13*
X028300Y037500D03*
X029300Y037500D03*
X030300Y037500D03*
X032300Y037500D03*
X033300Y037500D03*
X034300Y037500D03*
X026300Y037500D03*
X026300Y025500D03*
X028300Y025500D03*
X029300Y025500D03*
X030300Y025500D03*
X032300Y025500D03*
X033300Y025500D03*
X034300Y025500D03*
D14*
X027725Y030521D03*
X027725Y031229D03*
X027750Y032946D03*
X027750Y033654D03*
D15*
X029946Y036450D03*
X030654Y036450D03*
X033371Y036450D03*
X034079Y036450D03*
D16*
X031000Y032100D03*
X031000Y031800D03*
X031000Y031200D03*
X031000Y030900D03*
X029950Y029750D03*
X029650Y029750D03*
X029650Y029300D03*
X029950Y029300D03*
X029950Y028900D03*
X029650Y028900D03*
X029650Y028450D03*
X029950Y028450D03*
X029950Y028000D03*
X029650Y028000D03*
X029650Y027600D03*
X029950Y027600D03*
X029950Y027200D03*
X029650Y027200D03*
X027925Y029850D03*
X027625Y029850D03*
X027625Y031900D03*
X027925Y031900D03*
X027900Y032350D03*
X027600Y032350D03*
X027650Y034400D03*
X027950Y034400D03*
D17*
X024053Y026540D03*
X024053Y025910D03*
D18*
X025625Y028300D03*
X025625Y029300D03*
X025625Y030300D03*
D19*
X028850Y031275D03*
X028850Y033525D03*
D20*
X029650Y033525D03*
X029650Y031275D03*
D21*
X030100Y031050D03*
X030125Y031500D03*
X030750Y031500D03*
X030700Y032025D03*
X031425Y031975D03*
X031825Y031350D03*
X032000Y031150D03*
X032375Y031400D03*
X032450Y030900D03*
X032875Y031150D03*
X033300Y031150D03*
X033575Y030975D03*
X034050Y030425D03*
X034475Y029975D03*
X034475Y029625D03*
X034250Y029300D03*
X034750Y028800D03*
X035100Y029750D03*
X035625Y029400D03*
X035625Y030925D03*
X035625Y032150D03*
X035100Y032525D03*
X034150Y033050D03*
X034000Y033825D03*
X034625Y034250D03*
X035075Y033700D03*
X035625Y034225D03*
X035650Y035750D03*
X034825Y036525D03*
X035625Y036950D03*
X034750Y037800D03*
X033775Y037800D03*
X033800Y036900D03*
X033775Y036175D03*
X032900Y035975D03*
X031600Y036175D03*
X031125Y036625D03*
X031700Y036725D03*
X032525Y036775D03*
X031425Y035250D03*
X031425Y034750D03*
X031700Y033825D03*
X031450Y033275D03*
X029850Y033025D03*
X029425Y032850D03*
X028600Y032250D03*
X028200Y032725D03*
X028125Y033300D03*
X026625Y033250D03*
X026650Y034100D03*
X026650Y034650D03*
X027200Y034625D03*
X028300Y034950D03*
X028625Y035400D03*
X028900Y035875D03*
X027925Y036050D03*
X027475Y035750D03*
X027000Y036225D03*
X027175Y036925D03*
X026750Y037800D03*
X025825Y037750D03*
X024375Y037675D03*
X024300Y036475D03*
X024925Y035325D03*
X025275Y035325D03*
X024975Y034975D03*
X025675Y034250D03*
X025975Y034625D03*
X026500Y035625D03*
X023800Y034850D03*
X022700Y034875D03*
X022700Y036375D03*
X022700Y037625D03*
X028850Y037800D03*
X029800Y037775D03*
X030750Y037800D03*
X029850Y034925D03*
X029600Y034150D03*
X032750Y034275D03*
X034075Y031525D03*
X032075Y030175D03*
X031800Y030125D03*
X031175Y030675D03*
X030550Y029900D03*
X029375Y029525D03*
X030250Y029175D03*
X030350Y028900D03*
X030350Y028475D03*
X030350Y028050D03*
X030525Y027825D03*
X030475Y027450D03*
X030975Y027425D03*
X031000Y027875D03*
X030150Y026650D03*
X029600Y026800D03*
X030600Y026125D03*
X030850Y026275D03*
X031200Y026400D03*
X031800Y026000D03*
X032500Y026000D03*
X033225Y026400D03*
X033550Y026975D03*
X033950Y027325D03*
X034500Y027425D03*
X034875Y027925D03*
X033600Y027925D03*
X033175Y027825D03*
X033100Y027375D03*
X032750Y027450D03*
X033450Y028525D03*
X034925Y026500D03*
X034450Y026025D03*
X034750Y025200D03*
X032800Y025200D03*
X030750Y025200D03*
X028825Y025200D03*
X027850Y025200D03*
X026750Y025200D03*
X025825Y025225D03*
X026300Y026050D03*
X025675Y026450D03*
X026975Y026675D03*
X028450Y027550D03*
X028500Y028500D03*
X028725Y028825D03*
X029375Y028675D03*
X029325Y028250D03*
X029375Y027825D03*
X027475Y028825D03*
X027400Y029325D03*
X026700Y029575D03*
X026600Y029000D03*
X025950Y029550D03*
X024925Y029525D03*
X023850Y029500D03*
X022700Y030100D03*
X022700Y031625D03*
X023775Y031625D03*
X023775Y032850D03*
X024925Y032275D03*
X024925Y031050D03*
X026450Y030900D03*
X026900Y031700D03*
X027075Y032125D03*
X026650Y032225D03*
X028425Y030475D03*
X028100Y029650D03*
X023850Y026275D03*
X022700Y026775D03*
X022700Y028025D03*
X022700Y025275D03*
X023925Y025275D03*
D22*
X023957Y025678D02*
X024149Y025678D01*
X024285Y025814D01*
X024285Y025937D01*
X024608Y026260D01*
X025342Y026260D01*
X025882Y025720D01*
X025830Y025593D01*
X025830Y025407D01*
X025902Y025234D01*
X025997Y025138D01*
X022638Y025138D01*
X022638Y037862D01*
X025997Y037862D01*
X025902Y037766D01*
X025830Y037593D01*
X025830Y037407D01*
X025902Y037234D01*
X026034Y037102D01*
X026207Y037030D01*
X026393Y037030D01*
X026566Y037102D01*
X026698Y037234D01*
X026770Y037407D01*
X026770Y037593D01*
X026698Y037766D01*
X026603Y037862D01*
X026830Y037862D01*
X026830Y037089D01*
X026536Y037089D01*
X026632Y037168D02*
X026830Y037168D01*
X026830Y037246D02*
X026704Y037246D01*
X026736Y037325D02*
X026830Y037325D01*
X026830Y037403D02*
X026769Y037403D01*
X026770Y037482D02*
X026830Y037482D01*
X026830Y037560D02*
X026770Y037560D01*
X026751Y037639D02*
X026830Y037639D01*
X026830Y037717D02*
X026719Y037717D01*
X026669Y037796D02*
X026830Y037796D01*
X025931Y037796D02*
X022638Y037796D01*
X022638Y037717D02*
X025881Y037717D01*
X025849Y037639D02*
X022638Y037639D01*
X022638Y037560D02*
X025830Y037560D01*
X025830Y037482D02*
X022638Y037482D01*
X022638Y037403D02*
X025831Y037403D01*
X025864Y037325D02*
X022638Y037325D01*
X022638Y037246D02*
X025896Y037246D01*
X025968Y037168D02*
X022638Y037168D01*
X022638Y037089D02*
X026064Y037089D01*
X026830Y037089D02*
X026889Y037030D01*
X027711Y037030D01*
X027770Y037089D01*
X028064Y037089D01*
X028034Y037102D02*
X028207Y037030D01*
X028393Y037030D01*
X028460Y037057D01*
X029150Y036367D01*
X029267Y036250D01*
X029619Y036250D01*
X029619Y036133D01*
X029678Y036074D01*
X030213Y036074D01*
X030272Y036133D01*
X030272Y036767D01*
X030213Y036826D01*
X029678Y036826D01*
X029619Y036767D01*
X029619Y036650D01*
X029433Y036650D01*
X028743Y037340D01*
X028770Y037407D01*
X028770Y037593D01*
X028698Y037766D01*
X028603Y037862D01*
X028997Y037862D01*
X028902Y037766D01*
X028830Y037593D01*
X028830Y037407D01*
X028902Y037234D01*
X029034Y037102D01*
X029207Y037030D01*
X029393Y037030D01*
X029566Y037102D01*
X029698Y037234D01*
X029770Y037407D01*
X029770Y037593D01*
X029698Y037766D01*
X029603Y037862D01*
X029997Y037862D01*
X029902Y037766D01*
X029830Y037593D01*
X029830Y037407D01*
X029902Y037234D01*
X030034Y037102D01*
X030207Y037030D01*
X030393Y037030D01*
X030566Y037102D01*
X030698Y037234D01*
X030770Y037407D01*
X030770Y037593D01*
X030698Y037766D01*
X030603Y037862D01*
X030830Y037862D01*
X030830Y037089D01*
X030536Y037089D01*
X030632Y037168D02*
X030830Y037168D01*
X030830Y037246D02*
X030704Y037246D01*
X030736Y037325D02*
X030830Y037325D01*
X030830Y037403D02*
X030769Y037403D01*
X030770Y037482D02*
X030830Y037482D01*
X030830Y037560D02*
X030770Y037560D01*
X030751Y037639D02*
X030830Y037639D01*
X030830Y037717D02*
X030719Y037717D01*
X030669Y037796D02*
X030830Y037796D01*
X031300Y037500D02*
X031900Y036900D01*
X031900Y036350D01*
X034750Y033500D01*
X034750Y029400D01*
X033300Y027950D01*
X033228Y027800D01*
X033175Y027825D01*
X033150Y027878D01*
X033300Y027950D01*
X033175Y027825D01*
X032977Y027826D02*
X030117Y027826D01*
X030091Y027800D02*
X030150Y027859D01*
X030150Y027860D01*
X030169Y027860D01*
X030215Y027852D01*
X030222Y027858D01*
X030264Y027856D01*
X030268Y027852D01*
X030345Y027852D01*
X030398Y027849D01*
X030401Y027852D01*
X030432Y027852D01*
X030548Y027968D01*
X030548Y028132D01*
X030432Y028248D01*
X030268Y028248D01*
X030221Y028202D01*
X030145Y028147D01*
X030091Y028200D01*
X029809Y028200D01*
X029800Y028191D01*
X029791Y028200D01*
X029509Y028200D01*
X029499Y028190D01*
X028688Y028190D01*
X028808Y028310D01*
X029450Y028310D01*
X029450Y028309D01*
X029509Y028250D01*
X029791Y028250D01*
X029800Y028259D01*
X029809Y028250D01*
X030091Y028250D01*
X030150Y028309D01*
X030150Y028310D01*
X030153Y028310D01*
X030187Y028299D01*
X030196Y028303D01*
X030252Y028292D01*
X030268Y028277D01*
X030331Y028277D01*
X030369Y028269D01*
X030380Y028277D01*
X030432Y028277D01*
X030548Y028393D01*
X030548Y028557D01*
X030432Y028673D01*
X030324Y028673D01*
X030310Y028678D01*
X030302Y028673D01*
X030268Y028673D01*
X030231Y028637D01*
X030154Y028597D01*
X030145Y028599D01*
X030144Y028598D01*
X030091Y028650D01*
X029809Y028650D01*
X029800Y028641D01*
X029800Y028709D01*
X029809Y028700D01*
X030091Y028700D01*
X030148Y028757D01*
X030164Y028749D01*
X030173Y028752D01*
X030242Y028728D01*
X030268Y028702D01*
X030316Y028702D01*
X030339Y028694D01*
X030339Y028694D01*
X030339Y028694D01*
X030356Y028702D01*
X030432Y028702D01*
X030548Y028818D01*
X030548Y028982D01*
X030432Y029098D01*
X030356Y029098D01*
X030339Y029106D01*
X030316Y029098D01*
X030268Y029098D01*
X030242Y029072D01*
X030173Y029048D01*
X030164Y029051D01*
X030148Y029043D01*
X030091Y029100D01*
X029809Y029100D01*
X029800Y029091D01*
X029800Y029109D01*
X029850Y029159D01*
X029850Y029441D01*
X029800Y029491D01*
X029800Y029559D01*
X029850Y029609D01*
X029850Y029891D01*
X029791Y029950D01*
X029509Y029950D01*
X029450Y029891D01*
X029450Y029609D01*
X029500Y029559D01*
X029500Y029491D01*
X029450Y029441D01*
X029450Y029159D01*
X029500Y029109D01*
X029500Y029091D01*
X029450Y029041D01*
X029450Y028759D01*
X029500Y028709D01*
X029500Y028641D01*
X029450Y028591D01*
X029450Y028590D01*
X028692Y028590D01*
X027042Y026940D01*
X027024Y026922D01*
X026999Y026913D01*
X026995Y026905D01*
X026941Y026879D01*
X026930Y026873D01*
X026893Y026873D01*
X026877Y026858D01*
X026821Y026847D01*
X026812Y026851D01*
X026778Y026840D01*
X024155Y026840D01*
X024087Y026772D01*
X023957Y026772D01*
X023821Y026636D01*
X023821Y026444D01*
X023957Y026308D01*
X024149Y026308D01*
X024285Y026444D01*
X024285Y026560D01*
X026757Y026560D01*
X026770Y026551D01*
X026779Y026553D01*
X026856Y026513D01*
X026886Y026484D01*
X026372Y025970D01*
X026207Y025970D01*
X026080Y025918D01*
X025458Y026540D01*
X024492Y026540D01*
X024410Y026458D01*
X024410Y026458D01*
X024094Y026142D01*
X023957Y026142D01*
X023821Y026006D01*
X023821Y025814D01*
X023957Y025678D01*
X023929Y025707D02*
X022638Y025707D01*
X022638Y025785D02*
X023850Y025785D01*
X023821Y025864D02*
X022638Y025864D01*
X022638Y025942D02*
X023821Y025942D01*
X023836Y026021D02*
X022638Y026021D01*
X022638Y026099D02*
X023914Y026099D01*
X024130Y026178D02*
X022638Y026178D01*
X022638Y026256D02*
X024208Y026256D01*
X024176Y026335D02*
X024287Y026335D01*
X024254Y026413D02*
X024365Y026413D01*
X024444Y026492D02*
X024285Y026492D01*
X024213Y026700D02*
X024053Y026540D01*
X024213Y026700D02*
X026800Y026700D01*
X026964Y026732D01*
X026975Y026675D01*
X026948Y026623D01*
X026800Y026700D01*
X026950Y026700D01*
X026975Y026675D01*
X027028Y026650D01*
X027100Y026800D01*
X026950Y026728D01*
X026975Y026675D01*
X027100Y026800D01*
X028750Y028450D01*
X029650Y028450D01*
X029470Y028611D02*
X022638Y028611D01*
X022638Y028533D02*
X023779Y028533D01*
X023721Y028509D02*
X023538Y028326D01*
X023439Y028087D01*
X023439Y027828D01*
X023538Y027589D01*
X023721Y027406D01*
X023960Y027307D01*
X024219Y027307D01*
X024458Y027406D01*
X024641Y027589D01*
X024740Y027828D01*
X024740Y028087D01*
X024641Y028326D01*
X024458Y028509D01*
X024219Y028608D01*
X023960Y028608D01*
X023721Y028509D01*
X023667Y028454D02*
X022638Y028454D01*
X022638Y028376D02*
X023588Y028376D01*
X023526Y028297D02*
X022638Y028297D01*
X022638Y028219D02*
X023494Y028219D01*
X023461Y028140D02*
X022638Y028140D01*
X022638Y028062D02*
X023439Y028062D01*
X023439Y027983D02*
X022638Y027983D01*
X022638Y027905D02*
X023439Y027905D01*
X023440Y027826D02*
X022638Y027826D01*
X022638Y027748D02*
X023473Y027748D01*
X023505Y027669D02*
X022638Y027669D01*
X022638Y027591D02*
X023538Y027591D01*
X023615Y027512D02*
X022638Y027512D01*
X022638Y027434D02*
X023694Y027434D01*
X023845Y027355D02*
X022638Y027355D01*
X022638Y027277D02*
X027379Y027277D01*
X027457Y027355D02*
X024334Y027355D01*
X024485Y027434D02*
X027536Y027434D01*
X027614Y027512D02*
X024564Y027512D01*
X024641Y027591D02*
X027693Y027591D01*
X027771Y027669D02*
X024674Y027669D01*
X024706Y027748D02*
X027850Y027748D01*
X027928Y027826D02*
X024739Y027826D01*
X024740Y027905D02*
X028007Y027905D01*
X028085Y027983D02*
X024740Y027983D01*
X024740Y028062D02*
X028164Y028062D01*
X028242Y028140D02*
X024718Y028140D01*
X024685Y028219D02*
X028321Y028219D01*
X028399Y028297D02*
X024653Y028297D01*
X024591Y028376D02*
X028478Y028376D01*
X028556Y028454D02*
X024513Y028454D01*
X024400Y028533D02*
X028635Y028533D01*
X028795Y028297D02*
X029462Y028297D01*
X029600Y028050D02*
X028650Y028050D01*
X026300Y025700D01*
X026300Y025500D01*
X025400Y026400D01*
X024550Y026400D01*
X024053Y025903D01*
X024178Y025707D02*
X025877Y025707D01*
X025844Y025628D02*
X022638Y025628D01*
X022638Y025550D02*
X025830Y025550D01*
X025830Y025471D02*
X022638Y025471D01*
X022638Y025393D02*
X025836Y025393D01*
X025868Y025314D02*
X022638Y025314D01*
X022638Y025236D02*
X025901Y025236D01*
X025978Y025157D02*
X022638Y025157D01*
X022638Y026335D02*
X023931Y026335D01*
X023852Y026413D02*
X022638Y026413D01*
X022638Y026492D02*
X023821Y026492D01*
X023821Y026570D02*
X022638Y026570D01*
X022638Y026649D02*
X023834Y026649D01*
X023912Y026727D02*
X022638Y026727D01*
X022638Y026806D02*
X024121Y026806D01*
X024604Y026256D02*
X025346Y026256D01*
X025425Y026178D02*
X024525Y026178D01*
X024447Y026099D02*
X025503Y026099D01*
X025582Y026021D02*
X024368Y026021D01*
X024290Y025942D02*
X025660Y025942D01*
X025739Y025864D02*
X024285Y025864D01*
X024256Y025785D02*
X025817Y025785D01*
X025977Y026021D02*
X026423Y026021D01*
X026501Y026099D02*
X025899Y026099D01*
X025820Y026178D02*
X026580Y026178D01*
X026658Y026256D02*
X025742Y026256D01*
X025663Y026335D02*
X026737Y026335D01*
X026815Y026413D02*
X025585Y026413D01*
X025506Y026492D02*
X026878Y026492D01*
X027054Y026256D02*
X030652Y026256D01*
X030652Y026193D02*
X030768Y026077D01*
X030840Y026077D01*
X030852Y026075D01*
X030867Y026060D01*
X030954Y026060D01*
X030954Y026059D01*
X031004Y026060D01*
X031054Y026055D01*
X031060Y026060D01*
X031602Y026060D01*
X031602Y025970D01*
X030889Y025970D01*
X030830Y025911D01*
X030830Y025138D01*
X030603Y025138D01*
X030698Y025234D01*
X030770Y025407D01*
X030770Y025593D01*
X030698Y025766D01*
X030566Y025898D01*
X030393Y025970D01*
X030207Y025970D01*
X030034Y025898D01*
X029902Y025766D01*
X029830Y025593D01*
X029830Y025407D01*
X029902Y025234D01*
X029997Y025138D01*
X029603Y025138D01*
X029698Y025234D01*
X029770Y025407D01*
X029770Y025593D01*
X029698Y025766D01*
X029566Y025898D01*
X029393Y025970D01*
X029207Y025970D01*
X029034Y025898D01*
X028902Y025766D01*
X028830Y025593D01*
X028830Y025407D01*
X028902Y025234D01*
X028997Y025138D01*
X028603Y025138D01*
X028698Y025234D01*
X028770Y025407D01*
X028770Y025593D01*
X028698Y025766D01*
X028566Y025898D01*
X028393Y025970D01*
X028207Y025970D01*
X028034Y025898D01*
X027902Y025766D01*
X027830Y025593D01*
X027830Y025407D01*
X027902Y025234D01*
X027997Y025138D01*
X027770Y025138D01*
X027770Y025911D01*
X027711Y025970D01*
X026889Y025970D01*
X026830Y025911D01*
X026830Y025138D01*
X026603Y025138D01*
X026698Y025234D01*
X026770Y025407D01*
X026770Y025593D01*
X026698Y025766D01*
X026631Y025833D01*
X028708Y027910D01*
X029450Y027910D01*
X029450Y027859D01*
X029500Y027809D01*
X029500Y027791D01*
X029450Y027741D01*
X029450Y027459D01*
X029509Y027400D01*
X029450Y027341D01*
X029450Y027059D01*
X029498Y027010D01*
X029465Y026958D01*
X029444Y026925D01*
X029402Y026882D01*
X029402Y026857D01*
X029399Y026853D01*
X029399Y026852D01*
X029402Y026842D01*
X029402Y026718D01*
X029518Y026602D01*
X029682Y026602D01*
X029798Y026718D01*
X029798Y026786D01*
X029800Y026788D01*
X029800Y026927D01*
X029810Y026942D01*
X029800Y026986D01*
X029800Y027008D01*
X029809Y027000D01*
X030091Y027000D01*
X030141Y027050D01*
X032512Y027050D01*
X032522Y027060D01*
X032558Y027060D01*
X032683Y027185D01*
X032701Y027203D01*
X032726Y027212D01*
X032730Y027220D01*
X032795Y027252D01*
X032832Y027252D01*
X032867Y027286D01*
X032888Y027296D01*
X032888Y027296D01*
X032888Y027296D01*
X032895Y027314D01*
X032948Y027368D01*
X032948Y027532D01*
X032832Y027648D01*
X032668Y027648D01*
X032614Y027595D01*
X032596Y027588D01*
X032586Y027567D01*
X032552Y027532D01*
X032552Y027495D01*
X032520Y027430D01*
X032512Y027426D01*
X032503Y027401D01*
X032485Y027383D01*
X032452Y027350D01*
X030141Y027350D01*
X030091Y027400D01*
X029809Y027400D01*
X029800Y027391D01*
X029791Y027400D01*
X029509Y027400D01*
X029791Y027400D01*
X029850Y027459D01*
X029850Y027741D01*
X029800Y027791D01*
X029800Y027809D01*
X029809Y027800D01*
X030091Y027800D01*
X030180Y028000D02*
X030316Y028097D01*
X030350Y028050D01*
X030347Y027992D01*
X030180Y028000D01*
X030300Y028000D01*
X030350Y028050D01*
X030180Y028000D02*
X029950Y028000D01*
X029800Y027809D02*
X029800Y027809D01*
X029844Y027748D02*
X032977Y027748D01*
X032977Y027743D02*
X033093Y027627D01*
X033257Y027627D01*
X033311Y027680D01*
X033329Y027687D01*
X033339Y027708D01*
X033373Y027743D01*
X033373Y027780D01*
X033379Y027791D01*
X033403Y027841D01*
X033518Y027727D01*
X033682Y027727D01*
X033798Y027843D01*
X033798Y027877D01*
X033802Y027882D01*
X033798Y027932D01*
X033798Y028007D01*
X033793Y028013D01*
X033790Y028042D01*
X035040Y029292D01*
X035040Y033608D01*
X032440Y036208D01*
X032440Y037049D01*
X032566Y037102D01*
X032698Y037234D01*
X032770Y037407D01*
X032770Y037593D01*
X032698Y037766D01*
X032603Y037862D01*
X032997Y037862D01*
X032902Y037766D01*
X032830Y037593D01*
X032830Y037407D01*
X032902Y037234D01*
X033021Y037115D01*
X033021Y036380D01*
X033044Y036323D01*
X033044Y036133D01*
X033103Y036074D01*
X033638Y036074D01*
X033697Y036133D01*
X033697Y036323D01*
X033721Y036380D01*
X033721Y037287D01*
X033770Y037407D01*
X033770Y037593D01*
X033698Y037766D01*
X033603Y037862D01*
X033997Y037862D01*
X033902Y037766D01*
X033830Y037593D01*
X033830Y037407D01*
X033902Y037234D01*
X034034Y037102D01*
X034207Y037030D01*
X034393Y037030D01*
X034566Y037102D01*
X034698Y037234D01*
X034770Y037407D01*
X034770Y037593D01*
X034698Y037766D01*
X034603Y037862D01*
X034830Y037862D01*
X034830Y037089D01*
X034536Y037089D01*
X034632Y037168D02*
X034830Y037168D01*
X034830Y037246D02*
X034704Y037246D01*
X034736Y037325D02*
X034830Y037325D01*
X034830Y037403D02*
X034769Y037403D01*
X034770Y037482D02*
X034830Y037482D01*
X034830Y037560D02*
X034770Y037560D01*
X034751Y037639D02*
X034830Y037639D01*
X034830Y037717D02*
X034719Y037717D01*
X034669Y037796D02*
X034830Y037796D01*
X033931Y037796D02*
X033669Y037796D01*
X033719Y037717D02*
X033881Y037717D01*
X033849Y037639D02*
X033751Y037639D01*
X033770Y037560D02*
X033830Y037560D01*
X033830Y037482D02*
X033770Y037482D01*
X033769Y037403D02*
X033831Y037403D01*
X033864Y037325D02*
X033736Y037325D01*
X033721Y037246D02*
X033896Y037246D01*
X033968Y037168D02*
X033721Y037168D01*
X033721Y037089D02*
X034064Y037089D01*
X033721Y037011D02*
X035712Y037011D01*
X035711Y037030D02*
X035712Y037030D01*
X035712Y025970D01*
X035711Y025970D01*
X034889Y025970D01*
X034830Y025911D01*
X034830Y025138D01*
X034603Y025138D01*
X034698Y025234D01*
X034770Y025407D01*
X034770Y025593D01*
X034698Y025766D01*
X034566Y025898D01*
X034393Y025970D01*
X034207Y025970D01*
X034116Y025932D01*
X033908Y026140D01*
X033358Y026140D01*
X033040Y026458D01*
X033023Y026475D01*
X033297Y026475D01*
X033400Y026578D01*
X033497Y026675D01*
X033507Y026684D01*
X033520Y026686D01*
X033550Y026725D01*
X033617Y026777D01*
X033632Y026777D01*
X033681Y026825D01*
X033728Y026861D01*
X033728Y026861D01*
X033728Y026861D01*
X033730Y026874D01*
X033748Y026893D01*
X033748Y027057D01*
X033632Y027173D01*
X033468Y027173D01*
X033449Y027155D01*
X033436Y027153D01*
X033400Y027106D01*
X033352Y027057D01*
X033352Y027042D01*
X033300Y026975D01*
X033261Y026945D01*
X033259Y026932D01*
X033250Y026922D01*
X033153Y026825D01*
X030386Y026825D01*
X030376Y026833D01*
X030327Y026827D01*
X030243Y026838D01*
X030232Y026848D01*
X030163Y026848D01*
X030104Y026856D01*
X030094Y026848D01*
X030068Y026848D01*
X029952Y026732D01*
X029952Y026568D01*
X030068Y026452D01*
X030094Y026452D01*
X030104Y026444D01*
X030104Y026444D01*
X030104Y026444D01*
X030163Y026452D01*
X030232Y026452D01*
X030243Y026462D01*
X030327Y026473D01*
X030376Y026467D01*
X030386Y026475D01*
X031002Y026475D01*
X031002Y026404D01*
X030989Y026416D01*
X030932Y026473D01*
X030768Y026473D01*
X030652Y026357D01*
X030652Y026193D01*
X030667Y026178D02*
X026975Y026178D01*
X026897Y026099D02*
X030745Y026099D01*
X030844Y026217D02*
X030850Y026275D01*
X030891Y026317D01*
X031011Y026200D01*
X030844Y026217D01*
X030850Y026275D02*
X030925Y026200D01*
X031011Y026200D01*
X032850Y026200D01*
X033300Y025750D01*
X033300Y025500D01*
X032868Y025314D02*
X032732Y025314D01*
X032764Y025393D02*
X032836Y025393D01*
X032830Y025407D02*
X032902Y025234D01*
X032997Y025138D01*
X032603Y025138D01*
X032698Y025234D01*
X032770Y025407D01*
X032770Y025593D01*
X032698Y025766D01*
X032566Y025898D01*
X032393Y025970D01*
X032207Y025970D01*
X032090Y025922D01*
X032075Y025937D01*
X032059Y025953D01*
X032053Y025975D01*
X032036Y025985D01*
X031998Y026052D01*
X031998Y026060D01*
X032792Y026060D01*
X032994Y025858D01*
X032902Y025766D01*
X032830Y025593D01*
X032830Y025407D01*
X032830Y025471D02*
X032770Y025471D01*
X032770Y025550D02*
X032830Y025550D01*
X032844Y025628D02*
X032756Y025628D01*
X032723Y025707D02*
X032877Y025707D01*
X032920Y025785D02*
X032680Y025785D01*
X032601Y025864D02*
X032989Y025864D01*
X032910Y025942D02*
X032461Y025942D01*
X032139Y025942D02*
X032070Y025942D01*
X032016Y026021D02*
X032832Y026021D01*
X032900Y026400D02*
X031377Y026400D01*
X031219Y026345D01*
X031200Y026400D01*
X031219Y026455D01*
X031377Y026400D01*
X031200Y026400D01*
X031002Y026413D02*
X030993Y026413D01*
X030707Y026413D02*
X027211Y026413D01*
X027289Y026492D02*
X030028Y026492D01*
X029952Y026570D02*
X027368Y026570D01*
X027446Y026649D02*
X029471Y026649D01*
X029402Y026727D02*
X027525Y026727D01*
X027603Y026806D02*
X029402Y026806D01*
X029403Y026884D02*
X027682Y026884D01*
X027760Y026963D02*
X029468Y026963D01*
X029465Y026958D02*
X029465Y026958D01*
X029468Y027041D02*
X027839Y027041D01*
X027917Y027120D02*
X029450Y027120D01*
X029450Y027198D02*
X027996Y027198D01*
X028074Y027277D02*
X029450Y027277D01*
X029464Y027355D02*
X028153Y027355D01*
X028231Y027434D02*
X029475Y027434D01*
X029450Y027512D02*
X028310Y027512D01*
X028388Y027591D02*
X029450Y027591D01*
X029450Y027669D02*
X028467Y027669D01*
X028545Y027748D02*
X029456Y027748D01*
X029483Y027826D02*
X028624Y027826D01*
X028702Y027905D02*
X029450Y027905D01*
X029600Y028050D02*
X029650Y028000D01*
X029850Y027669D02*
X033050Y027669D01*
X032977Y027743D02*
X032977Y027907D01*
X033030Y027961D01*
X033037Y027979D01*
X033058Y027989D01*
X033093Y028023D01*
X033130Y028023D01*
X033141Y028029D01*
X033141Y028029D01*
X033195Y028055D01*
X033199Y028063D01*
X033224Y028072D01*
X033242Y028090D01*
X034610Y029458D01*
X034610Y029479D01*
X034557Y029427D01*
X034393Y029427D01*
X034351Y029469D01*
X034332Y029474D01*
X034332Y029474D01*
X034332Y029474D01*
X034315Y029504D01*
X034277Y029543D01*
X034277Y029573D01*
X034239Y029640D01*
X034222Y029650D01*
X034216Y029672D01*
X034200Y029688D01*
X032958Y030930D01*
X032886Y030945D01*
X032881Y030942D01*
X032881Y030942D01*
X032881Y030942D01*
X032847Y030952D01*
X032793Y030952D01*
X032777Y030968D01*
X032774Y030968D01*
X032774Y030968D01*
X032774Y030968D01*
X032771Y030973D01*
X032698Y030994D01*
X032679Y030989D01*
X032659Y031000D01*
X032216Y031000D01*
X032196Y030989D01*
X032177Y030994D01*
X032104Y030973D01*
X032089Y030959D01*
X032215Y030833D01*
X032215Y030384D01*
X032226Y030361D01*
X032223Y030352D01*
X032247Y030283D01*
X032273Y030257D01*
X032273Y030209D01*
X032281Y030186D01*
X032281Y030186D01*
X032281Y030186D01*
X032273Y030169D01*
X032273Y030093D01*
X032157Y029977D01*
X031993Y029977D01*
X031962Y030007D01*
X031882Y029927D01*
X031718Y029927D01*
X031602Y030043D01*
X031602Y030103D01*
X031592Y030119D01*
X031595Y030128D01*
X031602Y030153D01*
X031602Y030207D01*
X031623Y030229D01*
X031644Y030302D01*
X031639Y030321D01*
X031650Y030341D01*
X031650Y030488D01*
X031138Y031000D01*
X030859Y031000D01*
X030800Y031059D01*
X030800Y031110D01*
X030000Y031110D01*
X030000Y030984D01*
X029941Y030925D01*
X029359Y030925D01*
X029300Y030984D01*
X029300Y031566D01*
X029359Y031625D01*
X029941Y031625D01*
X030000Y031566D01*
X030000Y031390D01*
X030849Y031390D01*
X030859Y031400D01*
X031162Y031400D01*
X031250Y031312D01*
X031935Y030627D01*
X031935Y030717D01*
X031052Y031600D01*
X030859Y031600D01*
X030849Y031610D01*
X030542Y031610D01*
X029592Y032560D01*
X029510Y032642D01*
X029510Y033175D01*
X029359Y033175D01*
X029300Y033234D01*
X029300Y033816D01*
X029359Y033875D01*
X029941Y033875D01*
X030000Y033816D01*
X030000Y033234D01*
X029941Y033175D01*
X029790Y033175D01*
X029790Y032758D01*
X030658Y031890D01*
X030800Y031890D01*
X030800Y031941D01*
X030859Y032000D01*
X031141Y032000D01*
X031200Y031941D01*
X031200Y031848D01*
X031809Y031239D01*
X031918Y031348D01*
X031978Y031348D01*
X031994Y031358D01*
X031994Y031358D01*
X031994Y031358D01*
X032027Y031349D01*
X032028Y031348D01*
X032082Y031348D01*
X032104Y031327D01*
X032177Y031306D01*
X032196Y031311D01*
X032216Y031300D01*
X032659Y031300D01*
X032679Y031311D01*
X032698Y031306D01*
X032771Y031327D01*
X032793Y031348D01*
X032847Y031348D01*
X032881Y031358D01*
X032881Y031358D01*
X032897Y031348D01*
X032957Y031348D01*
X033006Y031300D01*
X033012Y031300D01*
X033094Y031218D01*
X033102Y031211D01*
X033102Y031232D01*
X033123Y031254D01*
X033144Y031327D01*
X033139Y031346D01*
X033150Y031366D01*
X033150Y033988D01*
X030981Y036157D01*
X030981Y036133D01*
X030922Y036074D01*
X030387Y036074D01*
X030328Y036133D01*
X030328Y036767D01*
X030387Y036826D01*
X030922Y036826D01*
X030981Y036767D01*
X030981Y036581D01*
X031050Y036512D01*
X033450Y034112D01*
X033450Y031366D01*
X033461Y031346D01*
X033456Y031327D01*
X033477Y031254D01*
X033498Y031232D01*
X033498Y031178D01*
X033499Y031177D01*
X033508Y031144D01*
X033508Y031144D01*
X033498Y031128D01*
X033498Y031068D01*
X033382Y030952D01*
X033361Y030952D01*
X034412Y029900D01*
X034428Y029884D01*
X034450Y029878D01*
X034460Y029861D01*
X034527Y029823D01*
X034557Y029823D01*
X034596Y029785D01*
X034610Y029777D01*
X034610Y033442D01*
X031760Y036292D01*
X031760Y036842D01*
X031572Y037030D01*
X030889Y037030D01*
X030830Y037089D01*
X030973Y036775D02*
X031760Y036775D01*
X031760Y036697D02*
X030981Y036697D01*
X030981Y036618D02*
X031760Y036618D01*
X031760Y036540D02*
X031023Y036540D01*
X031101Y036461D02*
X031760Y036461D01*
X031760Y036383D02*
X031180Y036383D01*
X031258Y036304D02*
X031760Y036304D01*
X031826Y036226D02*
X031337Y036226D01*
X031415Y036147D02*
X031905Y036147D01*
X031983Y036069D02*
X031494Y036069D01*
X031572Y035990D02*
X032062Y035990D01*
X032140Y035912D02*
X031651Y035912D01*
X031729Y035833D02*
X032219Y035833D01*
X032297Y035755D02*
X031808Y035755D01*
X031886Y035676D02*
X032376Y035676D01*
X032454Y035598D02*
X031965Y035598D01*
X032043Y035519D02*
X032533Y035519D01*
X032611Y035441D02*
X032122Y035441D01*
X032200Y035362D02*
X032690Y035362D01*
X032768Y035284D02*
X032279Y035284D01*
X032357Y035205D02*
X032847Y035205D01*
X032925Y035127D02*
X032436Y035127D01*
X032514Y035048D02*
X033004Y035048D01*
X033082Y034970D02*
X032593Y034970D01*
X032671Y034891D02*
X033161Y034891D01*
X033239Y034813D02*
X032750Y034813D01*
X032828Y034734D02*
X033318Y034734D01*
X033396Y034656D02*
X032907Y034656D01*
X032985Y034577D02*
X033475Y034577D01*
X033553Y034499D02*
X033064Y034499D01*
X033142Y034420D02*
X033632Y034420D01*
X033710Y034342D02*
X033221Y034342D01*
X033299Y034263D02*
X033789Y034263D01*
X033867Y034185D02*
X033378Y034185D01*
X033450Y034106D02*
X033946Y034106D01*
X034024Y034028D02*
X033450Y034028D01*
X033450Y033949D02*
X034103Y033949D01*
X034181Y033871D02*
X033450Y033871D01*
X033450Y033792D02*
X034260Y033792D01*
X034338Y033714D02*
X033450Y033714D01*
X033450Y033635D02*
X034417Y033635D01*
X034495Y033557D02*
X033450Y033557D01*
X033450Y033478D02*
X034574Y033478D01*
X034610Y033400D02*
X033450Y033400D01*
X033450Y033321D02*
X034610Y033321D01*
X034610Y033243D02*
X033450Y033243D01*
X033450Y033164D02*
X034610Y033164D01*
X034610Y033086D02*
X033450Y033086D01*
X033450Y033007D02*
X034610Y033007D01*
X034610Y032929D02*
X033450Y032929D01*
X033450Y032850D02*
X034610Y032850D01*
X034610Y032772D02*
X033450Y032772D01*
X033450Y032693D02*
X034610Y032693D01*
X034610Y032615D02*
X033450Y032615D01*
X033450Y032536D02*
X034610Y032536D01*
X034610Y032458D02*
X033450Y032458D01*
X033450Y032379D02*
X034610Y032379D01*
X034610Y032301D02*
X033450Y032301D01*
X033450Y032222D02*
X034610Y032222D01*
X034610Y032144D02*
X033450Y032144D01*
X033450Y032065D02*
X034610Y032065D01*
X034610Y031987D02*
X033450Y031987D01*
X033450Y031908D02*
X034610Y031908D01*
X034610Y031830D02*
X033450Y031830D01*
X033450Y031751D02*
X034610Y031751D01*
X034610Y031673D02*
X033450Y031673D01*
X033450Y031594D02*
X034610Y031594D01*
X034610Y031516D02*
X033450Y031516D01*
X033450Y031437D02*
X034610Y031437D01*
X034610Y031359D02*
X033454Y031359D01*
X033469Y031280D02*
X034610Y031280D01*
X034610Y031202D02*
X033498Y031202D01*
X033498Y031123D02*
X034610Y031123D01*
X034610Y031045D02*
X033475Y031045D01*
X033397Y030966D02*
X034610Y030966D01*
X034610Y030888D02*
X033425Y030888D01*
X033503Y030809D02*
X034610Y030809D01*
X034610Y030731D02*
X033582Y030731D01*
X033660Y030652D02*
X034610Y030652D01*
X034610Y030574D02*
X033739Y030574D01*
X033817Y030495D02*
X034610Y030495D01*
X034610Y030417D02*
X033896Y030417D01*
X033974Y030338D02*
X034610Y030338D01*
X034610Y030260D02*
X034053Y030260D01*
X034131Y030181D02*
X034610Y030181D01*
X034610Y030103D02*
X034210Y030103D01*
X034288Y030024D02*
X034610Y030024D01*
X034610Y029946D02*
X034367Y029946D01*
X034456Y029867D02*
X034610Y029867D01*
X034610Y029789D02*
X034592Y029789D01*
X034605Y029475D02*
X034610Y029475D01*
X034548Y029396D02*
X029850Y029396D01*
X029850Y029318D02*
X034470Y029318D01*
X034391Y029239D02*
X029850Y029239D01*
X029850Y029161D02*
X034313Y029161D01*
X034234Y029082D02*
X030449Y029082D01*
X030527Y029004D02*
X034156Y029004D01*
X034077Y028925D02*
X030548Y028925D01*
X030548Y028847D02*
X033999Y028847D01*
X033920Y028768D02*
X030499Y028768D01*
X030495Y028611D02*
X033763Y028611D01*
X033685Y028533D02*
X030548Y028533D01*
X030548Y028454D02*
X033606Y028454D01*
X033528Y028376D02*
X030531Y028376D01*
X030453Y028297D02*
X033449Y028297D01*
X033371Y028219D02*
X030462Y028219D01*
X030369Y028269D02*
X030369Y028269D01*
X030369Y028269D01*
X030238Y028219D02*
X028716Y028219D01*
X029500Y028690D02*
X022638Y028690D01*
X022638Y028768D02*
X029450Y028768D01*
X029450Y028847D02*
X022638Y028847D01*
X022638Y028925D02*
X029450Y028925D01*
X029450Y029004D02*
X022638Y029004D01*
X022638Y029082D02*
X025432Y029082D01*
X025460Y029053D02*
X025567Y029009D01*
X025683Y029009D01*
X025790Y029053D01*
X025872Y029135D01*
X025888Y029175D01*
X027184Y029175D01*
X027204Y029164D01*
X027223Y029169D01*
X027296Y029148D01*
X027318Y029127D01*
X027372Y029127D01*
X027406Y029117D01*
X027422Y029127D01*
X027482Y029127D01*
X027598Y029243D01*
X027598Y029407D01*
X027482Y029523D01*
X027422Y029523D01*
X027406Y029533D01*
X027406Y029533D01*
X027406Y029533D01*
X027372Y029523D01*
X027318Y029523D01*
X027296Y029502D01*
X027223Y029481D01*
X027204Y029486D01*
X027184Y029475D01*
X025861Y029475D01*
X025790Y029547D01*
X025683Y029591D01*
X025567Y029591D01*
X025460Y029547D01*
X025378Y029465D01*
X025334Y029358D01*
X025334Y029242D01*
X025378Y029135D01*
X025460Y029053D01*
X025368Y029161D02*
X022638Y029161D01*
X022638Y029239D02*
X025335Y029239D01*
X025334Y029318D02*
X022638Y029318D01*
X022638Y029396D02*
X025350Y029396D01*
X025388Y029475D02*
X022638Y029475D01*
X022638Y029553D02*
X025476Y029553D01*
X025774Y029553D02*
X029500Y029553D01*
X029483Y029475D02*
X027531Y029475D01*
X027598Y029396D02*
X029450Y029396D01*
X029450Y029318D02*
X027598Y029318D01*
X027595Y029239D02*
X029450Y029239D01*
X029450Y029161D02*
X027516Y029161D01*
X027406Y029117D02*
X027406Y029117D01*
X027406Y029117D01*
X027253Y029161D02*
X025882Y029161D01*
X025818Y029082D02*
X029491Y029082D01*
X029950Y028900D02*
X030173Y028900D01*
X030331Y028955D01*
X030350Y028900D01*
X030331Y028845D01*
X030173Y028900D01*
X030350Y028900D01*
X030339Y029106D02*
X030339Y029106D01*
X030339Y029106D01*
X030251Y029082D02*
X030109Y029082D01*
X030310Y028678D02*
X030310Y028678D01*
X030310Y028678D01*
X030181Y028611D02*
X030130Y028611D01*
X030175Y028450D02*
X030323Y028527D01*
X030350Y028475D01*
X030339Y028418D01*
X030175Y028450D01*
X030325Y028450D01*
X030350Y028475D01*
X030175Y028450D02*
X029950Y028450D01*
X030138Y028297D02*
X030227Y028297D01*
X030541Y028140D02*
X033292Y028140D01*
X033198Y028062D02*
X030548Y028062D01*
X030548Y027983D02*
X033046Y027983D01*
X032977Y027905D02*
X030485Y027905D01*
X030398Y027849D02*
X030398Y027849D01*
X030398Y027849D01*
X030136Y027355D02*
X032457Y027355D01*
X032522Y027434D02*
X029825Y027434D01*
X029850Y027512D02*
X032552Y027512D01*
X032596Y027588D02*
X032596Y027588D01*
X032596Y027588D01*
X032602Y027591D02*
X029850Y027591D01*
X030132Y027041D02*
X033351Y027041D01*
X033411Y027120D02*
X032617Y027120D01*
X032696Y027198D02*
X035712Y027198D01*
X035712Y027120D02*
X033686Y027120D01*
X033748Y027041D02*
X035712Y027041D01*
X035712Y026963D02*
X033748Y026963D01*
X033740Y026884D02*
X035712Y026884D01*
X035712Y026806D02*
X033661Y026806D01*
X033552Y026727D02*
X035712Y026727D01*
X035712Y026649D02*
X033471Y026649D01*
X033392Y026570D02*
X035712Y026570D01*
X035712Y026492D02*
X033314Y026492D01*
X033163Y026335D02*
X035712Y026335D01*
X035712Y026413D02*
X033085Y026413D01*
X033040Y026458D02*
X033040Y026458D01*
X032900Y026400D02*
X033300Y026000D01*
X033850Y026000D01*
X034300Y025550D01*
X034300Y025500D01*
X034732Y025314D02*
X034830Y025314D01*
X034830Y025236D02*
X034699Y025236D01*
X034622Y025157D02*
X034830Y025157D01*
X034830Y025393D02*
X034764Y025393D01*
X034770Y025471D02*
X034830Y025471D01*
X034830Y025550D02*
X034770Y025550D01*
X034756Y025628D02*
X034830Y025628D01*
X034830Y025707D02*
X034723Y025707D01*
X034680Y025785D02*
X034830Y025785D01*
X034830Y025864D02*
X034601Y025864D01*
X034461Y025942D02*
X034861Y025942D01*
X034139Y025942D02*
X034106Y025942D01*
X034027Y026021D02*
X035712Y026021D01*
X035712Y026099D02*
X033949Y026099D01*
X033320Y026178D02*
X035712Y026178D01*
X035712Y026256D02*
X033242Y026256D01*
X033212Y026884D02*
X029800Y026884D01*
X029800Y026806D02*
X030025Y026806D01*
X030104Y026856D02*
X030104Y026856D01*
X030104Y026856D01*
X029952Y026727D02*
X029798Y026727D01*
X029729Y026649D02*
X029952Y026649D01*
X029805Y026963D02*
X033284Y026963D01*
X033436Y027153D02*
X033436Y027153D01*
X033436Y027153D01*
X033300Y027669D02*
X035712Y027669D01*
X035712Y027591D02*
X032890Y027591D01*
X032948Y027512D02*
X035712Y027512D01*
X035712Y027434D02*
X032948Y027434D01*
X032936Y027355D02*
X035712Y027355D01*
X035712Y027277D02*
X032857Y027277D01*
X032775Y027397D02*
X032750Y027450D01*
X032697Y027475D01*
X032625Y027325D01*
X032775Y027397D01*
X032750Y027450D02*
X032625Y027325D01*
X032500Y027200D01*
X032450Y027200D01*
X033373Y027748D02*
X033497Y027748D01*
X033418Y027826D02*
X033396Y027826D01*
X033379Y027791D02*
X033379Y027791D01*
X033552Y027958D02*
X033600Y027925D01*
X033658Y027929D01*
X033646Y028096D01*
X033552Y027958D01*
X033600Y027925D02*
X033600Y028050D01*
X033646Y028096D01*
X034900Y029350D01*
X034900Y033550D01*
X032300Y036150D01*
X032300Y037500D01*
X032632Y037168D02*
X032968Y037168D01*
X033021Y037089D02*
X032536Y037089D01*
X032440Y037011D02*
X033021Y037011D01*
X033021Y036932D02*
X032440Y036932D01*
X032440Y036854D02*
X033021Y036854D01*
X033021Y036775D02*
X032440Y036775D01*
X032440Y036697D02*
X033021Y036697D01*
X033021Y036618D02*
X032440Y036618D01*
X032440Y036540D02*
X033021Y036540D01*
X033021Y036461D02*
X032440Y036461D01*
X032440Y036383D02*
X033021Y036383D01*
X033044Y036304D02*
X032440Y036304D01*
X032440Y036226D02*
X033044Y036226D01*
X033044Y036147D02*
X032501Y036147D01*
X032579Y036069D02*
X035712Y036069D01*
X035712Y036147D02*
X033697Y036147D01*
X033697Y036226D02*
X035712Y036226D01*
X035712Y036304D02*
X033697Y036304D01*
X033721Y036383D02*
X035712Y036383D01*
X035712Y036461D02*
X033721Y036461D01*
X033721Y036540D02*
X035712Y036540D01*
X035712Y036618D02*
X033721Y036618D01*
X033721Y036697D02*
X035712Y036697D01*
X035712Y036775D02*
X033721Y036775D01*
X033721Y036854D02*
X035712Y036854D01*
X035712Y036932D02*
X033721Y036932D01*
X034830Y037089D02*
X034889Y037030D01*
X035711Y037030D01*
X035712Y035990D02*
X032658Y035990D01*
X032736Y035912D02*
X035712Y035912D01*
X035712Y035833D02*
X032815Y035833D01*
X032893Y035755D02*
X035712Y035755D01*
X035712Y035676D02*
X032972Y035676D01*
X033050Y035598D02*
X035712Y035598D01*
X035712Y035519D02*
X033129Y035519D01*
X033207Y035441D02*
X035712Y035441D01*
X035712Y035362D02*
X033286Y035362D01*
X033364Y035284D02*
X035712Y035284D01*
X035712Y035205D02*
X033443Y035205D01*
X033521Y035127D02*
X035712Y035127D01*
X035712Y035048D02*
X033600Y035048D01*
X033678Y034970D02*
X035712Y034970D01*
X035712Y034891D02*
X033757Y034891D01*
X033835Y034813D02*
X035712Y034813D01*
X035712Y034734D02*
X033914Y034734D01*
X033992Y034656D02*
X035712Y034656D01*
X035712Y034577D02*
X034071Y034577D01*
X034149Y034499D02*
X035712Y034499D01*
X035712Y034420D02*
X034228Y034420D01*
X034306Y034342D02*
X035712Y034342D01*
X035712Y034263D02*
X034385Y034263D01*
X034463Y034185D02*
X035712Y034185D01*
X035712Y034106D02*
X034542Y034106D01*
X034620Y034028D02*
X035712Y034028D01*
X035712Y033949D02*
X034699Y033949D01*
X034777Y033871D02*
X035712Y033871D01*
X035712Y033792D02*
X034856Y033792D01*
X034934Y033714D02*
X035712Y033714D01*
X035712Y033635D02*
X035013Y033635D01*
X035040Y033557D02*
X035712Y033557D01*
X035712Y033478D02*
X035040Y033478D01*
X035040Y033400D02*
X035712Y033400D01*
X035712Y033321D02*
X035040Y033321D01*
X035040Y033243D02*
X035712Y033243D01*
X035712Y033164D02*
X035040Y033164D01*
X035040Y033086D02*
X035712Y033086D01*
X035712Y033007D02*
X035040Y033007D01*
X035040Y032929D02*
X035712Y032929D01*
X035712Y032850D02*
X035040Y032850D01*
X035040Y032772D02*
X035712Y032772D01*
X035712Y032693D02*
X035040Y032693D01*
X035040Y032615D02*
X035712Y032615D01*
X035712Y032536D02*
X035040Y032536D01*
X035040Y032458D02*
X035712Y032458D01*
X035712Y032379D02*
X035040Y032379D01*
X035040Y032301D02*
X035712Y032301D01*
X035712Y032222D02*
X035040Y032222D01*
X035040Y032144D02*
X035712Y032144D01*
X035712Y032065D02*
X035040Y032065D01*
X035040Y031987D02*
X035712Y031987D01*
X035712Y031908D02*
X035040Y031908D01*
X035040Y031830D02*
X035712Y031830D01*
X035712Y031751D02*
X035040Y031751D01*
X035040Y031673D02*
X035712Y031673D01*
X035712Y031594D02*
X035040Y031594D01*
X035040Y031516D02*
X035712Y031516D01*
X035712Y031437D02*
X035040Y031437D01*
X035040Y031359D02*
X035712Y031359D01*
X035712Y031280D02*
X035040Y031280D01*
X035040Y031202D02*
X035712Y031202D01*
X035712Y031123D02*
X035040Y031123D01*
X035040Y031045D02*
X035712Y031045D01*
X035712Y030966D02*
X035040Y030966D01*
X035040Y030888D02*
X035712Y030888D01*
X035712Y030809D02*
X035040Y030809D01*
X035040Y030731D02*
X035712Y030731D01*
X035712Y030652D02*
X035040Y030652D01*
X035040Y030574D02*
X035712Y030574D01*
X035712Y030495D02*
X035040Y030495D01*
X035040Y030417D02*
X035712Y030417D01*
X035712Y030338D02*
X035040Y030338D01*
X035040Y030260D02*
X035712Y030260D01*
X035712Y030181D02*
X035040Y030181D01*
X035040Y030103D02*
X035712Y030103D01*
X035712Y030024D02*
X035040Y030024D01*
X035040Y029946D02*
X035712Y029946D01*
X035712Y029867D02*
X035040Y029867D01*
X035040Y029789D02*
X035712Y029789D01*
X035712Y029710D02*
X035040Y029710D01*
X035040Y029632D02*
X035712Y029632D01*
X035712Y029553D02*
X035040Y029553D01*
X035040Y029475D02*
X035712Y029475D01*
X035712Y029396D02*
X035040Y029396D01*
X035040Y029318D02*
X035712Y029318D01*
X035712Y029239D02*
X034987Y029239D01*
X034909Y029161D02*
X035712Y029161D01*
X035712Y029082D02*
X034830Y029082D01*
X034752Y029004D02*
X035712Y029004D01*
X035712Y028925D02*
X034673Y028925D01*
X034595Y028847D02*
X035712Y028847D01*
X035712Y028768D02*
X034516Y028768D01*
X034438Y028690D02*
X035712Y028690D01*
X035712Y028611D02*
X034359Y028611D01*
X034280Y028533D02*
X035712Y028533D01*
X035712Y028454D02*
X034202Y028454D01*
X034123Y028376D02*
X035712Y028376D01*
X035712Y028297D02*
X034045Y028297D01*
X033966Y028219D02*
X035712Y028219D01*
X035712Y028140D02*
X033888Y028140D01*
X033809Y028062D02*
X035712Y028062D01*
X035712Y027983D02*
X033798Y027983D01*
X033800Y027905D02*
X035712Y027905D01*
X035712Y027826D02*
X033782Y027826D01*
X033802Y027882D02*
X033802Y027882D01*
X033802Y027882D01*
X033703Y027748D02*
X035712Y027748D01*
X033842Y028690D02*
X029800Y028690D01*
X029800Y028641D02*
X029800Y028641D01*
X029817Y029475D02*
X034332Y029475D01*
X034277Y029553D02*
X029800Y029553D01*
X029850Y029632D02*
X034244Y029632D01*
X034178Y029710D02*
X029850Y029710D01*
X029850Y029789D02*
X034099Y029789D01*
X034021Y029867D02*
X029850Y029867D01*
X029796Y029946D02*
X031699Y029946D01*
X031620Y030024D02*
X027792Y030024D01*
X027775Y030041D02*
X027775Y030194D01*
X028042Y030194D01*
X028101Y030253D01*
X028101Y030350D01*
X028137Y030350D01*
X028732Y030945D01*
X028780Y030925D01*
X028920Y030925D01*
X029048Y030978D01*
X029147Y031077D01*
X029200Y031205D01*
X029200Y031345D01*
X029147Y031473D01*
X029048Y031572D01*
X028920Y031625D01*
X028780Y031625D01*
X028652Y031572D01*
X028553Y031473D01*
X028500Y031345D01*
X028500Y031205D01*
X028520Y031157D01*
X028101Y030738D01*
X028101Y030788D01*
X028042Y030847D01*
X027408Y030847D01*
X027349Y030788D01*
X027349Y030253D01*
X027408Y030194D01*
X027475Y030194D01*
X027475Y030041D01*
X027425Y029991D01*
X027425Y029709D01*
X027484Y029650D01*
X027766Y029650D01*
X027825Y029709D01*
X027825Y029991D01*
X027775Y030041D01*
X027775Y030103D02*
X031602Y030103D01*
X031602Y030181D02*
X027775Y030181D01*
X027825Y029946D02*
X029504Y029946D01*
X029450Y029867D02*
X027825Y029867D01*
X027825Y029789D02*
X029450Y029789D01*
X029450Y029710D02*
X027825Y029710D01*
X027425Y029710D02*
X022638Y029710D01*
X022638Y029632D02*
X029450Y029632D01*
X028439Y030652D02*
X031486Y030652D01*
X031564Y030574D02*
X028361Y030574D01*
X028282Y030495D02*
X031643Y030495D01*
X031650Y030417D02*
X028204Y030417D01*
X028101Y030338D02*
X031648Y030338D01*
X031632Y030260D02*
X028101Y030260D01*
X028080Y030809D02*
X028172Y030809D01*
X028250Y030888D02*
X024676Y030888D01*
X024643Y030966D02*
X027349Y030966D01*
X027349Y030962D02*
X027408Y030903D01*
X028042Y030903D01*
X028101Y030962D01*
X028101Y031497D01*
X028042Y031556D01*
X027775Y031556D01*
X027775Y031709D01*
X027825Y031759D01*
X027825Y032041D01*
X027766Y032100D01*
X027484Y032100D01*
X027434Y032050D01*
X027037Y032050D01*
X026925Y032162D01*
X026909Y032178D01*
X026903Y032200D01*
X026886Y032210D01*
X026848Y032277D01*
X026848Y032307D01*
X026810Y032346D01*
X026793Y032376D01*
X026774Y032381D01*
X026732Y032423D01*
X026568Y032423D01*
X026452Y032307D01*
X026452Y032143D01*
X026494Y032101D01*
X026499Y032082D01*
X026499Y032082D01*
X026529Y032065D01*
X026568Y032027D01*
X026598Y032027D01*
X026665Y031989D01*
X026675Y031972D01*
X026697Y031966D01*
X026713Y031950D01*
X026913Y031750D01*
X027434Y031750D01*
X027475Y031709D01*
X027475Y031556D01*
X027408Y031556D01*
X027349Y031497D01*
X027349Y030962D01*
X027349Y031045D02*
X024568Y031045D01*
X024641Y030971D02*
X024458Y031154D01*
X024219Y031253D01*
X023960Y031253D01*
X023721Y031154D01*
X023538Y030971D01*
X023439Y030732D01*
X023439Y030474D01*
X023538Y030235D01*
X023721Y030052D01*
X023960Y029953D01*
X024219Y029953D01*
X024458Y030052D01*
X024641Y030235D01*
X024740Y030474D01*
X024740Y030732D01*
X024641Y030971D01*
X024708Y030809D02*
X027370Y030809D01*
X027349Y030731D02*
X024740Y030731D01*
X024740Y030652D02*
X027349Y030652D01*
X027349Y030574D02*
X025725Y030574D01*
X025683Y030591D02*
X025567Y030591D01*
X025460Y030547D01*
X025378Y030465D01*
X025334Y030358D01*
X025334Y030242D01*
X025378Y030135D01*
X025460Y030053D01*
X025567Y030009D01*
X025683Y030009D01*
X025790Y030053D01*
X025872Y030135D01*
X025916Y030242D01*
X025916Y030358D01*
X025872Y030465D01*
X025790Y030547D01*
X025683Y030591D01*
X025525Y030574D02*
X024740Y030574D01*
X024740Y030495D02*
X025409Y030495D01*
X025358Y030417D02*
X024716Y030417D01*
X024684Y030338D02*
X025334Y030338D01*
X025334Y030260D02*
X024651Y030260D01*
X024587Y030181D02*
X025359Y030181D01*
X025411Y030103D02*
X024509Y030103D01*
X024391Y030024D02*
X025531Y030024D01*
X025719Y030024D02*
X027458Y030024D01*
X027475Y030103D02*
X025839Y030103D01*
X025891Y030181D02*
X027475Y030181D01*
X027349Y030260D02*
X025916Y030260D01*
X025916Y030338D02*
X027349Y030338D01*
X027349Y030417D02*
X025892Y030417D01*
X025841Y030495D02*
X027349Y030495D01*
X027425Y029946D02*
X022638Y029946D01*
X022638Y030024D02*
X023789Y030024D01*
X023671Y030103D02*
X022638Y030103D01*
X022638Y030181D02*
X023592Y030181D01*
X023528Y030260D02*
X022638Y030260D01*
X022638Y030338D02*
X023496Y030338D01*
X023463Y030417D02*
X022638Y030417D01*
X022638Y030495D02*
X023439Y030495D01*
X023439Y030574D02*
X022638Y030574D01*
X022638Y030652D02*
X023439Y030652D01*
X023439Y030731D02*
X022638Y030731D01*
X022638Y030809D02*
X023471Y030809D01*
X023504Y030888D02*
X022638Y030888D01*
X022638Y030966D02*
X023536Y030966D01*
X023611Y031045D02*
X022638Y031045D01*
X022638Y031123D02*
X023690Y031123D01*
X023835Y031202D02*
X022638Y031202D01*
X022638Y031280D02*
X027349Y031280D01*
X027349Y031202D02*
X024344Y031202D01*
X024489Y031123D02*
X027349Y031123D01*
X027349Y031359D02*
X022638Y031359D01*
X022638Y031437D02*
X027349Y031437D01*
X027368Y031516D02*
X022638Y031516D01*
X022638Y031594D02*
X027475Y031594D01*
X027475Y031673D02*
X022638Y031673D01*
X022638Y031751D02*
X026912Y031751D01*
X026833Y031830D02*
X022638Y031830D01*
X022638Y031908D02*
X026755Y031908D01*
X026667Y031987D02*
X022638Y031987D01*
X022638Y032065D02*
X026529Y032065D01*
X026499Y032082D02*
X026499Y032082D01*
X026452Y032144D02*
X022638Y032144D01*
X022638Y032222D02*
X026452Y032222D01*
X026452Y032301D02*
X022638Y032301D01*
X022638Y032379D02*
X026523Y032379D01*
X026782Y032379D02*
X027400Y032379D01*
X027400Y032301D02*
X026848Y032301D01*
X026879Y032222D02*
X027400Y032222D01*
X027400Y032209D02*
X027459Y032150D01*
X027741Y032150D01*
X027800Y032209D01*
X027800Y032402D01*
X027808Y032410D01*
X027890Y032492D01*
X027890Y032619D01*
X028067Y032619D01*
X028126Y032678D01*
X028126Y032800D01*
X028337Y032800D01*
X028732Y033195D01*
X028780Y033175D01*
X028920Y033175D01*
X029048Y033228D01*
X029147Y033327D01*
X029200Y033455D01*
X029200Y033595D01*
X029147Y033723D01*
X029048Y033822D01*
X028920Y033875D01*
X028780Y033875D01*
X028652Y033822D01*
X028553Y033723D01*
X028500Y033595D01*
X028500Y033455D01*
X028520Y033407D01*
X028213Y033100D01*
X028126Y033100D01*
X028126Y033213D01*
X028067Y033272D01*
X027433Y033272D01*
X027374Y033213D01*
X027374Y032678D01*
X027433Y032619D01*
X027610Y032619D01*
X027610Y032608D01*
X027552Y032550D01*
X027459Y032550D01*
X027400Y032491D01*
X027400Y032209D01*
X027449Y032065D02*
X027022Y032065D01*
X026944Y032144D02*
X030008Y032144D01*
X029930Y032222D02*
X027800Y032222D01*
X027800Y032301D02*
X029851Y032301D01*
X029773Y032379D02*
X027800Y032379D01*
X027856Y032458D02*
X029694Y032458D01*
X029616Y032536D02*
X027890Y032536D01*
X027890Y032615D02*
X029537Y032615D01*
X029510Y032693D02*
X028126Y032693D01*
X028126Y032772D02*
X029510Y032772D01*
X029510Y032850D02*
X028387Y032850D01*
X028466Y032929D02*
X029510Y032929D01*
X029510Y033007D02*
X028544Y033007D01*
X028623Y033086D02*
X029510Y033086D01*
X029510Y033164D02*
X028701Y033164D01*
X028512Y033400D02*
X028126Y033400D01*
X028126Y033387D02*
X028126Y033922D01*
X028067Y033981D01*
X027800Y033981D01*
X027800Y034209D01*
X027850Y034259D01*
X027850Y034541D01*
X027791Y034600D01*
X027509Y034600D01*
X027459Y034550D01*
X025912Y034550D01*
X025184Y035278D01*
X025178Y035300D01*
X025161Y035310D01*
X025123Y035377D01*
X025123Y035407D01*
X025085Y035446D01*
X025068Y035476D01*
X025049Y035481D01*
X025007Y035523D01*
X024843Y035523D01*
X024727Y035407D01*
X024727Y035243D01*
X024769Y035201D01*
X024774Y035182D01*
X024774Y035182D01*
X024774Y035182D01*
X024804Y035165D01*
X024843Y035127D01*
X024873Y035127D01*
X024940Y035089D01*
X024950Y035072D01*
X024972Y035066D01*
X025788Y034250D01*
X025793Y034250D01*
X025755Y034234D01*
X025628Y034107D01*
X025559Y033940D01*
X025559Y033760D01*
X025628Y033593D01*
X025755Y033466D01*
X025922Y033397D01*
X026102Y033397D01*
X026269Y033466D01*
X026397Y033593D01*
X026466Y033760D01*
X026466Y033940D01*
X026397Y034107D01*
X026269Y034234D01*
X026231Y034250D01*
X027459Y034250D01*
X027500Y034209D01*
X027500Y033981D01*
X027433Y033981D01*
X027374Y033922D01*
X027374Y033387D01*
X027433Y033328D01*
X028067Y033328D01*
X028126Y033387D01*
X028126Y033478D02*
X028500Y033478D01*
X028500Y033557D02*
X028126Y033557D01*
X028126Y033635D02*
X028517Y033635D01*
X028549Y033714D02*
X028126Y033714D01*
X028126Y033792D02*
X028622Y033792D01*
X028770Y033871D02*
X028126Y033871D01*
X028099Y033949D02*
X033150Y033949D01*
X033150Y033871D02*
X029946Y033871D01*
X030000Y033792D02*
X033150Y033792D01*
X033150Y033714D02*
X030000Y033714D01*
X030000Y033635D02*
X033150Y033635D01*
X033150Y033557D02*
X030000Y033557D01*
X030000Y033478D02*
X033150Y033478D01*
X033150Y033400D02*
X030000Y033400D01*
X030000Y033321D02*
X033150Y033321D01*
X033150Y033243D02*
X030000Y033243D01*
X029790Y033164D02*
X033150Y033164D01*
X033150Y033086D02*
X029790Y033086D01*
X029790Y033007D02*
X033150Y033007D01*
X033150Y032929D02*
X029790Y032929D01*
X029790Y032850D02*
X033150Y032850D01*
X033150Y032772D02*
X029790Y032772D01*
X029855Y032693D02*
X033150Y032693D01*
X033150Y032615D02*
X029933Y032615D01*
X030012Y032536D02*
X033150Y032536D01*
X033150Y032458D02*
X030090Y032458D01*
X030169Y032379D02*
X033150Y032379D01*
X033150Y032301D02*
X030247Y032301D01*
X030326Y032222D02*
X033150Y032222D01*
X033150Y032144D02*
X030404Y032144D01*
X030483Y032065D02*
X033150Y032065D01*
X033150Y031987D02*
X031155Y031987D01*
X031200Y031908D02*
X033150Y031908D01*
X033150Y031830D02*
X031218Y031830D01*
X031297Y031751D02*
X033150Y031751D01*
X033150Y031673D02*
X031375Y031673D01*
X031454Y031594D02*
X033150Y031594D01*
X033150Y031516D02*
X031532Y031516D01*
X031611Y031437D02*
X033150Y031437D01*
X033146Y031359D02*
X031689Y031359D01*
X031768Y031280D02*
X031849Y031280D01*
X031607Y031045D02*
X031518Y031045D01*
X031529Y031123D02*
X031439Y031123D01*
X031450Y031202D02*
X031361Y031202D01*
X031372Y031280D02*
X031282Y031280D01*
X031293Y031359D02*
X031204Y031359D01*
X031215Y031437D02*
X030000Y031437D01*
X030000Y031516D02*
X031136Y031516D01*
X031058Y031594D02*
X029972Y031594D01*
X030244Y031908D02*
X027825Y031908D01*
X027825Y031830D02*
X030322Y031830D01*
X030401Y031751D02*
X027817Y031751D01*
X027775Y031673D02*
X030479Y031673D01*
X030600Y031750D02*
X029650Y032700D01*
X029650Y033525D01*
X029300Y033557D02*
X029200Y033557D01*
X029200Y033478D02*
X029300Y033478D01*
X029300Y033400D02*
X029177Y033400D01*
X029141Y033321D02*
X029300Y033321D01*
X029300Y033243D02*
X029063Y033243D01*
X029183Y033635D02*
X029300Y033635D01*
X029300Y033714D02*
X029151Y033714D01*
X029078Y033792D02*
X029300Y033792D01*
X029354Y033871D02*
X028930Y033871D01*
X028434Y033321D02*
X022638Y033321D01*
X022638Y033243D02*
X027403Y033243D01*
X027374Y033164D02*
X022638Y033164D01*
X022638Y033086D02*
X027374Y033086D01*
X027374Y033007D02*
X022638Y033007D01*
X022638Y032929D02*
X027374Y032929D01*
X027374Y032850D02*
X022638Y032850D01*
X022638Y032772D02*
X027374Y032772D01*
X027374Y032693D02*
X022638Y032693D01*
X022638Y032615D02*
X027610Y032615D01*
X027750Y032550D02*
X027750Y032946D01*
X027750Y032550D02*
X027600Y032400D01*
X027600Y032350D01*
X027400Y032458D02*
X022638Y032458D01*
X022638Y032536D02*
X027445Y032536D01*
X027801Y032065D02*
X030087Y032065D01*
X030165Y031987D02*
X027825Y031987D01*
X027775Y031594D02*
X028706Y031594D01*
X028596Y031516D02*
X028082Y031516D01*
X028101Y031437D02*
X028538Y031437D01*
X028506Y031359D02*
X028101Y031359D01*
X028101Y031280D02*
X028500Y031280D01*
X028502Y031202D02*
X028101Y031202D01*
X028101Y031123D02*
X028486Y031123D01*
X028407Y031045D02*
X028101Y031045D01*
X028101Y030966D02*
X028329Y030966D01*
X028518Y030731D02*
X031407Y030731D01*
X031329Y030809D02*
X028596Y030809D01*
X028675Y030888D02*
X031250Y030888D01*
X031172Y030966D02*
X029982Y030966D01*
X030000Y031045D02*
X030814Y031045D01*
X031000Y031200D02*
X030950Y031250D01*
X029675Y031250D01*
X029650Y031275D01*
X029300Y031280D02*
X029200Y031280D01*
X029198Y031202D02*
X029300Y031202D01*
X029300Y031123D02*
X029166Y031123D01*
X029114Y031045D02*
X029300Y031045D01*
X029318Y030966D02*
X029019Y030966D01*
X029194Y031359D02*
X029300Y031359D01*
X029300Y031437D02*
X029162Y031437D01*
X029104Y031516D02*
X029300Y031516D01*
X029328Y031594D02*
X028994Y031594D01*
X030600Y031750D02*
X030950Y031750D01*
X031000Y031800D01*
X031050Y031800D01*
X032075Y030775D01*
X032075Y030352D01*
X032130Y030194D01*
X032075Y030175D01*
X032020Y030194D01*
X032075Y030352D01*
X032075Y030175D01*
X032205Y030024D02*
X033864Y030024D01*
X033942Y029946D02*
X031901Y029946D01*
X032273Y030103D02*
X033785Y030103D01*
X033707Y030181D02*
X032279Y030181D01*
X032271Y030260D02*
X033628Y030260D01*
X033550Y030338D02*
X032228Y030338D01*
X032215Y030417D02*
X033471Y030417D01*
X033393Y030495D02*
X032215Y030495D01*
X032215Y030574D02*
X033314Y030574D01*
X033236Y030652D02*
X032215Y030652D01*
X032215Y030731D02*
X033157Y030731D01*
X033079Y030809D02*
X032215Y030809D01*
X032160Y030888D02*
X033000Y030888D01*
X032778Y030966D02*
X032097Y030966D01*
X031921Y030731D02*
X031832Y030731D01*
X031843Y030809D02*
X031753Y030809D01*
X031764Y030888D02*
X031675Y030888D01*
X031686Y030966D02*
X031596Y030966D01*
X031910Y030652D02*
X031935Y030652D01*
X032881Y031358D02*
X032881Y031358D01*
X033032Y031280D02*
X033131Y031280D01*
X030845Y031987D02*
X030561Y031987D01*
X030640Y031908D02*
X030800Y031908D01*
X028355Y033243D02*
X028097Y033243D01*
X028126Y033164D02*
X028277Y033164D01*
X027374Y033400D02*
X026109Y033400D01*
X026281Y033478D02*
X027374Y033478D01*
X027374Y033557D02*
X026360Y033557D01*
X026414Y033635D02*
X027374Y033635D01*
X027374Y033714D02*
X026446Y033714D01*
X026466Y033792D02*
X027374Y033792D01*
X027374Y033871D02*
X026466Y033871D01*
X026462Y033949D02*
X027401Y033949D01*
X027500Y034028D02*
X026429Y034028D01*
X026397Y034106D02*
X027500Y034106D01*
X027500Y034185D02*
X026319Y034185D01*
X025775Y034263D02*
X023838Y034263D01*
X023907Y034234D02*
X023740Y034303D01*
X023560Y034303D01*
X023393Y034234D01*
X023266Y034107D01*
X023197Y033940D01*
X023197Y033760D01*
X023266Y033593D01*
X023393Y033466D01*
X023560Y033397D01*
X023740Y033397D01*
X023907Y033466D01*
X024034Y033593D01*
X024103Y033760D01*
X024103Y033940D01*
X024034Y034107D01*
X023907Y034234D01*
X023957Y034185D02*
X025706Y034185D01*
X025628Y034106D02*
X024035Y034106D01*
X024067Y034028D02*
X025595Y034028D01*
X025562Y033949D02*
X024100Y033949D01*
X024103Y033871D02*
X025559Y033871D01*
X025559Y033792D02*
X024103Y033792D01*
X024084Y033714D02*
X025578Y033714D01*
X025611Y033635D02*
X024052Y033635D01*
X023998Y033557D02*
X025664Y033557D01*
X025743Y033478D02*
X023919Y033478D01*
X023747Y033400D02*
X025915Y033400D01*
X025696Y034342D02*
X022638Y034342D01*
X022638Y034420D02*
X025618Y034420D01*
X025539Y034499D02*
X022638Y034499D01*
X022638Y034577D02*
X025461Y034577D01*
X025382Y034656D02*
X022638Y034656D01*
X022638Y034734D02*
X025304Y034734D01*
X025225Y034813D02*
X022638Y034813D01*
X022638Y034891D02*
X025147Y034891D01*
X025068Y034970D02*
X022638Y034970D01*
X022638Y035048D02*
X024990Y035048D01*
X024874Y035127D02*
X022638Y035127D01*
X022638Y035205D02*
X024764Y035205D01*
X024727Y035284D02*
X022638Y035284D01*
X022638Y035362D02*
X024727Y035362D01*
X024760Y035441D02*
X022638Y035441D01*
X022638Y035519D02*
X024838Y035519D01*
X025012Y035519D02*
X031619Y035519D01*
X031697Y035441D02*
X025090Y035441D01*
X025068Y035476D02*
X025068Y035476D01*
X025068Y035476D01*
X025132Y035362D02*
X031776Y035362D01*
X031854Y035284D02*
X025182Y035284D01*
X025257Y035205D02*
X031933Y035205D01*
X032011Y035127D02*
X025336Y035127D01*
X025414Y035048D02*
X032090Y035048D01*
X032168Y034970D02*
X025493Y034970D01*
X025571Y034891D02*
X032247Y034891D01*
X032325Y034813D02*
X025650Y034813D01*
X025728Y034734D02*
X032404Y034734D01*
X032482Y034656D02*
X025807Y034656D01*
X025885Y034577D02*
X027486Y034577D01*
X027814Y034577D02*
X032561Y034577D01*
X032639Y034499D02*
X027850Y034499D01*
X027850Y034420D02*
X032718Y034420D01*
X032796Y034342D02*
X027850Y034342D01*
X027850Y034263D02*
X032875Y034263D01*
X032953Y034185D02*
X027800Y034185D01*
X027800Y034106D02*
X033032Y034106D01*
X033110Y034028D02*
X027800Y034028D01*
X026793Y032376D02*
X026793Y032376D01*
X026793Y032376D01*
X027425Y029867D02*
X022638Y029867D01*
X022638Y029789D02*
X027425Y029789D01*
X027300Y027198D02*
X022638Y027198D01*
X022638Y027120D02*
X027222Y027120D01*
X027143Y027041D02*
X022638Y027041D01*
X022638Y026963D02*
X027065Y026963D01*
X026952Y026884D02*
X022638Y026884D01*
X026056Y025942D02*
X026139Y025942D01*
X026661Y025864D02*
X026830Y025864D01*
X026830Y025785D02*
X026680Y025785D01*
X026723Y025707D02*
X026830Y025707D01*
X026830Y025628D02*
X026756Y025628D01*
X026770Y025550D02*
X026830Y025550D01*
X026830Y025471D02*
X026770Y025471D01*
X026764Y025393D02*
X026830Y025393D01*
X026830Y025314D02*
X026732Y025314D01*
X026699Y025236D02*
X026830Y025236D01*
X026830Y025157D02*
X026622Y025157D01*
X026740Y025942D02*
X026861Y025942D01*
X026818Y026021D02*
X031602Y026021D01*
X030861Y025942D02*
X030461Y025942D01*
X030601Y025864D02*
X030830Y025864D01*
X030830Y025785D02*
X030680Y025785D01*
X030723Y025707D02*
X030830Y025707D01*
X030830Y025628D02*
X030756Y025628D01*
X030770Y025550D02*
X030830Y025550D01*
X030830Y025471D02*
X030770Y025471D01*
X030764Y025393D02*
X030830Y025393D01*
X030830Y025314D02*
X030732Y025314D01*
X030699Y025236D02*
X030830Y025236D01*
X030830Y025157D02*
X030622Y025157D01*
X029978Y025157D02*
X029622Y025157D01*
X029699Y025236D02*
X029901Y025236D01*
X029868Y025314D02*
X029732Y025314D01*
X029764Y025393D02*
X029836Y025393D01*
X029830Y025471D02*
X029770Y025471D01*
X029770Y025550D02*
X029830Y025550D01*
X029844Y025628D02*
X029756Y025628D01*
X029723Y025707D02*
X029877Y025707D01*
X029920Y025785D02*
X029680Y025785D01*
X029601Y025864D02*
X029999Y025864D01*
X030139Y025942D02*
X029461Y025942D01*
X029139Y025942D02*
X028461Y025942D01*
X028601Y025864D02*
X028999Y025864D01*
X028920Y025785D02*
X028680Y025785D01*
X028723Y025707D02*
X028877Y025707D01*
X028844Y025628D02*
X028756Y025628D01*
X028770Y025550D02*
X028830Y025550D01*
X028830Y025471D02*
X028770Y025471D01*
X028764Y025393D02*
X028836Y025393D01*
X028868Y025314D02*
X028732Y025314D01*
X028699Y025236D02*
X028901Y025236D01*
X028978Y025157D02*
X028622Y025157D01*
X027978Y025157D02*
X027770Y025157D01*
X027770Y025236D02*
X027901Y025236D01*
X027868Y025314D02*
X027770Y025314D01*
X027770Y025393D02*
X027836Y025393D01*
X027830Y025471D02*
X027770Y025471D01*
X027770Y025550D02*
X027830Y025550D01*
X027844Y025628D02*
X027770Y025628D01*
X027770Y025707D02*
X027877Y025707D01*
X027920Y025785D02*
X027770Y025785D01*
X027770Y025864D02*
X027999Y025864D01*
X028139Y025942D02*
X027739Y025942D01*
X027132Y026335D02*
X030652Y026335D01*
X032622Y025157D02*
X032978Y025157D01*
X032901Y025236D02*
X032699Y025236D01*
X026941Y026879D02*
X026941Y026879D01*
X023553Y033400D02*
X022638Y033400D01*
X022638Y033478D02*
X023381Y033478D01*
X023302Y033557D02*
X022638Y033557D01*
X022638Y033635D02*
X023248Y033635D01*
X023216Y033714D02*
X022638Y033714D01*
X022638Y033792D02*
X023197Y033792D01*
X023197Y033871D02*
X022638Y033871D01*
X022638Y033949D02*
X023200Y033949D01*
X023233Y034028D02*
X022638Y034028D01*
X022638Y034106D02*
X023265Y034106D01*
X023343Y034185D02*
X022638Y034185D01*
X022638Y034263D02*
X023462Y034263D01*
X022638Y035598D02*
X031540Y035598D01*
X031462Y035676D02*
X022638Y035676D01*
X022638Y035755D02*
X031383Y035755D01*
X031305Y035833D02*
X022638Y035833D01*
X022638Y035912D02*
X031226Y035912D01*
X031148Y035990D02*
X022638Y035990D01*
X022638Y036069D02*
X031069Y036069D01*
X030991Y036147D02*
X030981Y036147D01*
X030328Y036147D02*
X030272Y036147D01*
X030272Y036226D02*
X030328Y036226D01*
X030328Y036304D02*
X030272Y036304D01*
X030272Y036383D02*
X030328Y036383D01*
X030328Y036461D02*
X030272Y036461D01*
X030272Y036540D02*
X030328Y036540D01*
X030328Y036618D02*
X030272Y036618D01*
X030272Y036697D02*
X030328Y036697D01*
X030336Y036775D02*
X030264Y036775D01*
X030064Y037089D02*
X029536Y037089D01*
X029632Y037168D02*
X029968Y037168D01*
X029896Y037246D02*
X029704Y037246D01*
X029736Y037325D02*
X029864Y037325D01*
X029831Y037403D02*
X029769Y037403D01*
X029770Y037482D02*
X029830Y037482D01*
X029830Y037560D02*
X029770Y037560D01*
X029751Y037639D02*
X029849Y037639D01*
X029881Y037717D02*
X029719Y037717D01*
X029669Y037796D02*
X029931Y037796D01*
X028931Y037796D02*
X028669Y037796D01*
X028719Y037717D02*
X028881Y037717D01*
X028849Y037639D02*
X028751Y037639D01*
X028770Y037560D02*
X028830Y037560D01*
X028830Y037482D02*
X028770Y037482D01*
X028769Y037403D02*
X028831Y037403D01*
X028864Y037325D02*
X028758Y037325D01*
X028837Y037246D02*
X028896Y037246D01*
X028915Y037168D02*
X028968Y037168D01*
X028994Y037089D02*
X029064Y037089D01*
X029072Y037011D02*
X031591Y037011D01*
X031670Y036932D02*
X029151Y036932D01*
X029229Y036854D02*
X031748Y036854D01*
X032704Y037246D02*
X032896Y037246D01*
X032864Y037325D02*
X032736Y037325D01*
X032769Y037403D02*
X032831Y037403D01*
X032830Y037482D02*
X032770Y037482D01*
X032770Y037560D02*
X032830Y037560D01*
X032849Y037639D02*
X032751Y037639D01*
X032719Y037717D02*
X032881Y037717D01*
X032931Y037796D02*
X032669Y037796D01*
X029627Y036775D02*
X029308Y036775D01*
X029386Y036697D02*
X029619Y036697D01*
X029619Y036226D02*
X022638Y036226D01*
X022638Y036304D02*
X029213Y036304D01*
X029135Y036383D02*
X022638Y036383D01*
X022638Y036461D02*
X029056Y036461D01*
X028978Y036540D02*
X022638Y036540D01*
X022638Y036618D02*
X028899Y036618D01*
X028821Y036697D02*
X022638Y036697D01*
X022638Y036775D02*
X028742Y036775D01*
X028664Y036854D02*
X022638Y036854D01*
X022638Y036932D02*
X028585Y036932D01*
X028507Y037011D02*
X022638Y037011D01*
X022638Y036147D02*
X029619Y036147D01*
X028034Y037102D02*
X027902Y037234D01*
X027830Y037407D01*
X027830Y037593D01*
X027902Y037766D01*
X027997Y037862D01*
X027770Y037862D01*
X027770Y037089D01*
X027770Y037168D02*
X027968Y037168D01*
X027896Y037246D02*
X027770Y037246D01*
X027770Y037325D02*
X027864Y037325D01*
X027831Y037403D02*
X027770Y037403D01*
X027770Y037482D02*
X027830Y037482D01*
X027830Y037560D02*
X027770Y037560D01*
X027770Y037639D02*
X027849Y037639D01*
X027881Y037717D02*
X027770Y037717D01*
X027770Y037796D02*
X027931Y037796D01*
D23*
X030654Y036450D02*
X030900Y036450D01*
X033300Y034050D01*
X033300Y031327D01*
X033347Y031163D01*
X033300Y031150D01*
X033253Y031163D01*
X033300Y031327D01*
X033300Y031150D01*
X033032Y031068D02*
X032865Y031103D01*
X032875Y031150D01*
X032908Y031185D01*
X033032Y031068D01*
X034350Y029750D01*
X034499Y029667D01*
X034475Y029625D01*
X034433Y029601D01*
X034350Y029750D01*
X034475Y029625D01*
X033032Y031068D02*
X032950Y031150D01*
X032875Y031150D01*
X032862Y031197D01*
X032698Y031150D01*
X032862Y031103D01*
X032875Y031150D01*
X032698Y031150D01*
X032177Y031150D01*
X032013Y031103D01*
X032000Y031150D01*
X032013Y031197D01*
X032177Y031150D01*
X032000Y031150D01*
X031800Y030550D02*
X031100Y031250D01*
X031000Y031250D01*
X031000Y031200D01*
X031800Y030550D02*
X031800Y030302D01*
X031847Y030138D01*
X031800Y030125D01*
X031753Y030138D01*
X031800Y030302D01*
X031800Y030125D01*
X029650Y029750D02*
X029650Y029300D01*
X029650Y028900D01*
X029650Y028450D01*
X029650Y028000D02*
X029650Y027600D01*
X029650Y027200D02*
X029650Y026970D01*
X029648Y026800D01*
X029600Y026800D01*
X029559Y026826D01*
X029650Y026970D01*
X029650Y026850D01*
X029600Y026800D01*
X029950Y027200D02*
X032450Y027200D01*
X031842Y026024D02*
X031800Y026000D01*
X031776Y025958D01*
X031925Y025875D01*
X031842Y026024D01*
X031800Y026000D02*
X031925Y025875D01*
X032300Y025500D01*
X027387Y029278D02*
X027400Y029325D01*
X027387Y029372D01*
X027223Y029325D01*
X027387Y029278D01*
X027400Y029325D02*
X027223Y029325D01*
X025650Y029325D01*
X025625Y029300D01*
X027625Y029850D02*
X027625Y030421D01*
X027725Y030521D01*
X027725Y030525D01*
X027750Y030550D01*
X027800Y030500D01*
X028075Y030500D01*
X028850Y031275D01*
X027725Y031229D02*
X027625Y031329D01*
X027625Y031900D01*
X026975Y031900D01*
X026775Y032100D01*
X026626Y032183D01*
X026650Y032225D01*
X026692Y032249D01*
X026775Y032100D01*
X026650Y032225D01*
X027700Y032950D02*
X027746Y032950D01*
X028275Y032950D01*
X028850Y033525D01*
X027750Y033654D02*
X027650Y033754D01*
X027650Y034400D01*
X025850Y034400D01*
X025050Y035200D01*
X024901Y035283D01*
X024925Y035325D01*
X024967Y035349D01*
X025050Y035200D01*
X024925Y035325D01*
X027746Y032950D02*
X027750Y032946D01*
X024053Y025910D02*
X024053Y025903D01*
D24*
X030150Y026650D02*
X030153Y026627D01*
X030327Y026650D01*
X030153Y026673D01*
X030150Y026650D01*
X030327Y026650D01*
X033225Y026650D01*
X033425Y026850D01*
X033531Y026989D01*
X033550Y026975D01*
X033564Y026956D01*
X033425Y026850D01*
X033550Y026975D01*
D25*
X029946Y036450D02*
X029350Y036450D01*
X028300Y037500D01*
D26*
X033300Y037500D02*
X033371Y037429D01*
X033371Y036450D01*
M02*
