G75*
%MOIN*%
%OFA0B0*%
%FSLAX24Y24*%
%IPPOS*%
%LPD*%
%AMOC8*
5,1,8,0,0,1.08239X$1,22.5*
%
%ADD10C,0.0000*%
%ADD11R,0.0551X0.0453*%
%ADD12R,0.0453X0.0551*%
%ADD13R,0.0200X0.0200*%
D10*
X022500Y025000D02*
X036000Y025000D01*
X036000Y038000D01*
X022500Y038000D01*
X022500Y025000D01*
X023778Y027957D02*
X023780Y028002D01*
X023786Y028046D01*
X023795Y028090D01*
X023809Y028132D01*
X023826Y028173D01*
X023847Y028213D01*
X023871Y028251D01*
X023898Y028286D01*
X023928Y028319D01*
X023961Y028349D01*
X023996Y028376D01*
X024034Y028400D01*
X024074Y028421D01*
X024115Y028438D01*
X024157Y028452D01*
X024201Y028461D01*
X024245Y028467D01*
X024290Y028469D01*
X024335Y028467D01*
X024379Y028461D01*
X024423Y028452D01*
X024465Y028438D01*
X024506Y028421D01*
X024546Y028400D01*
X024584Y028376D01*
X024619Y028349D01*
X024652Y028319D01*
X024682Y028286D01*
X024709Y028251D01*
X024733Y028213D01*
X024754Y028173D01*
X024771Y028132D01*
X024785Y028090D01*
X024794Y028046D01*
X024800Y028002D01*
X024802Y027957D01*
X024800Y027912D01*
X024794Y027868D01*
X024785Y027824D01*
X024771Y027782D01*
X024754Y027741D01*
X024733Y027701D01*
X024709Y027663D01*
X024682Y027628D01*
X024652Y027595D01*
X024619Y027565D01*
X024584Y027538D01*
X024546Y027514D01*
X024506Y027493D01*
X024465Y027476D01*
X024423Y027462D01*
X024379Y027453D01*
X024335Y027447D01*
X024290Y027445D01*
X024245Y027447D01*
X024201Y027453D01*
X024157Y027462D01*
X024115Y027476D01*
X024074Y027493D01*
X024034Y027514D01*
X023996Y027538D01*
X023961Y027565D01*
X023928Y027595D01*
X023898Y027628D01*
X023871Y027663D01*
X023847Y027701D01*
X023826Y027741D01*
X023809Y027782D01*
X023795Y027824D01*
X023786Y027868D01*
X023780Y027912D01*
X023778Y027957D01*
X023778Y030603D02*
X023780Y030648D01*
X023786Y030692D01*
X023795Y030736D01*
X023809Y030778D01*
X023826Y030819D01*
X023847Y030859D01*
X023871Y030897D01*
X023898Y030932D01*
X023928Y030965D01*
X023961Y030995D01*
X023996Y031022D01*
X024034Y031046D01*
X024074Y031067D01*
X024115Y031084D01*
X024157Y031098D01*
X024201Y031107D01*
X024245Y031113D01*
X024290Y031115D01*
X024335Y031113D01*
X024379Y031107D01*
X024423Y031098D01*
X024465Y031084D01*
X024506Y031067D01*
X024546Y031046D01*
X024584Y031022D01*
X024619Y030995D01*
X024652Y030965D01*
X024682Y030932D01*
X024709Y030897D01*
X024733Y030859D01*
X024754Y030819D01*
X024771Y030778D01*
X024785Y030736D01*
X024794Y030692D01*
X024800Y030648D01*
X024802Y030603D01*
X024800Y030558D01*
X024794Y030514D01*
X024785Y030470D01*
X024771Y030428D01*
X024754Y030387D01*
X024733Y030347D01*
X024709Y030309D01*
X024682Y030274D01*
X024652Y030241D01*
X024619Y030211D01*
X024584Y030184D01*
X024546Y030160D01*
X024506Y030139D01*
X024465Y030122D01*
X024423Y030108D01*
X024379Y030099D01*
X024335Y030093D01*
X024290Y030091D01*
X024245Y030093D01*
X024201Y030099D01*
X024157Y030108D01*
X024115Y030122D01*
X024074Y030139D01*
X024034Y030160D01*
X023996Y030184D01*
X023961Y030211D01*
X023928Y030241D01*
X023898Y030274D01*
X023871Y030309D01*
X023847Y030347D01*
X023826Y030387D01*
X023809Y030428D01*
X023795Y030470D01*
X023786Y030514D01*
X023780Y030558D01*
X023778Y030603D01*
X023535Y033850D02*
X023537Y033885D01*
X023543Y033920D01*
X023553Y033954D01*
X023566Y033987D01*
X023583Y034018D01*
X023604Y034046D01*
X023627Y034073D01*
X023654Y034096D01*
X023682Y034117D01*
X023713Y034134D01*
X023746Y034147D01*
X023780Y034157D01*
X023815Y034163D01*
X023850Y034165D01*
X023885Y034163D01*
X023920Y034157D01*
X023954Y034147D01*
X023987Y034134D01*
X024018Y034117D01*
X024046Y034096D01*
X024073Y034073D01*
X024096Y034046D01*
X024117Y034018D01*
X024134Y033987D01*
X024147Y033954D01*
X024157Y033920D01*
X024163Y033885D01*
X024165Y033850D01*
X024163Y033815D01*
X024157Y033780D01*
X024147Y033746D01*
X024134Y033713D01*
X024117Y033682D01*
X024096Y033654D01*
X024073Y033627D01*
X024046Y033604D01*
X024018Y033583D01*
X023987Y033566D01*
X023954Y033553D01*
X023920Y033543D01*
X023885Y033537D01*
X023850Y033535D01*
X023815Y033537D01*
X023780Y033543D01*
X023746Y033553D01*
X023713Y033566D01*
X023682Y033583D01*
X023654Y033604D01*
X023627Y033627D01*
X023604Y033654D01*
X023583Y033682D01*
X023566Y033713D01*
X023553Y033746D01*
X023543Y033780D01*
X023537Y033815D01*
X023535Y033850D01*
X025897Y033850D02*
X025899Y033885D01*
X025905Y033920D01*
X025915Y033954D01*
X025928Y033987D01*
X025945Y034018D01*
X025966Y034046D01*
X025989Y034073D01*
X026016Y034096D01*
X026044Y034117D01*
X026075Y034134D01*
X026108Y034147D01*
X026142Y034157D01*
X026177Y034163D01*
X026212Y034165D01*
X026247Y034163D01*
X026282Y034157D01*
X026316Y034147D01*
X026349Y034134D01*
X026380Y034117D01*
X026408Y034096D01*
X026435Y034073D01*
X026458Y034046D01*
X026479Y034018D01*
X026496Y033987D01*
X026509Y033954D01*
X026519Y033920D01*
X026525Y033885D01*
X026527Y033850D01*
X026525Y033815D01*
X026519Y033780D01*
X026509Y033746D01*
X026496Y033713D01*
X026479Y033682D01*
X026458Y033654D01*
X026435Y033627D01*
X026408Y033604D01*
X026380Y033583D01*
X026349Y033566D01*
X026316Y033553D01*
X026282Y033543D01*
X026247Y033537D01*
X026212Y033535D01*
X026177Y033537D01*
X026142Y033543D01*
X026108Y033553D01*
X026075Y033566D01*
X026044Y033583D01*
X026016Y033604D01*
X025989Y033627D01*
X025966Y033654D01*
X025945Y033682D01*
X025928Y033713D01*
X025915Y033746D01*
X025905Y033780D01*
X025899Y033815D01*
X025897Y033850D01*
X029870Y036200D02*
X029872Y036250D01*
X029878Y036300D01*
X029888Y036349D01*
X029902Y036397D01*
X029919Y036444D01*
X029940Y036489D01*
X029965Y036533D01*
X029993Y036574D01*
X030025Y036613D01*
X030059Y036650D01*
X030096Y036684D01*
X030136Y036714D01*
X030178Y036741D01*
X030222Y036765D01*
X030268Y036786D01*
X030315Y036802D01*
X030363Y036815D01*
X030413Y036824D01*
X030462Y036829D01*
X030513Y036830D01*
X030563Y036827D01*
X030612Y036820D01*
X030661Y036809D01*
X030709Y036794D01*
X030755Y036776D01*
X030800Y036754D01*
X030843Y036728D01*
X030884Y036699D01*
X030923Y036667D01*
X030959Y036632D01*
X030991Y036594D01*
X031021Y036554D01*
X031048Y036511D01*
X031071Y036467D01*
X031090Y036421D01*
X031106Y036373D01*
X031118Y036324D01*
X031126Y036275D01*
X031130Y036225D01*
X031130Y036175D01*
X031126Y036125D01*
X031118Y036076D01*
X031106Y036027D01*
X031090Y035979D01*
X031071Y035933D01*
X031048Y035889D01*
X031021Y035846D01*
X030991Y035806D01*
X030959Y035768D01*
X030923Y035733D01*
X030884Y035701D01*
X030843Y035672D01*
X030800Y035646D01*
X030755Y035624D01*
X030709Y035606D01*
X030661Y035591D01*
X030612Y035580D01*
X030563Y035573D01*
X030513Y035570D01*
X030462Y035571D01*
X030413Y035576D01*
X030363Y035585D01*
X030315Y035598D01*
X030268Y035614D01*
X030222Y035635D01*
X030178Y035659D01*
X030136Y035686D01*
X030096Y035716D01*
X030059Y035750D01*
X030025Y035787D01*
X029993Y035826D01*
X029965Y035867D01*
X029940Y035911D01*
X029919Y035956D01*
X029902Y036003D01*
X029888Y036051D01*
X029878Y036100D01*
X029872Y036150D01*
X029870Y036200D01*
D11*
X027950Y033654D03*
X027950Y032946D03*
X027925Y031229D03*
X027925Y030521D03*
D12*
X028496Y036450D03*
X029204Y036450D03*
X033571Y036450D03*
X034279Y036450D03*
D13*
X031200Y032100D03*
X031200Y031800D03*
X031200Y031200D03*
X031200Y030900D03*
X030150Y029750D03*
X029850Y029750D03*
X029850Y029300D03*
X030150Y029300D03*
X030150Y028900D03*
X029850Y028900D03*
X029850Y028450D03*
X030150Y028450D03*
X030150Y028000D03*
X029850Y028000D03*
X029850Y027600D03*
X030150Y027600D03*
X030150Y027200D03*
X029850Y027200D03*
X028075Y029850D03*
X027775Y029850D03*
X027775Y031900D03*
X028075Y031900D03*
X028100Y032350D03*
X027800Y032350D03*
X027800Y034400D03*
X028100Y034400D03*
M02*
