G75*
%MOIN*%
%OFA0B0*%
%FSLAX24Y24*%
%IPPOS*%
%LPD*%
%AMOC8*
5,1,8,0,0,1.08239X$1,22.5*
%
%ADD10C,0.0000*%
%ADD11R,0.0335X0.0118*%
%ADD12R,0.0118X0.0335*%
%ADD13R,0.1339X0.1339*%
%ADD14R,0.0200X0.0200*%
%ADD15R,0.1969X0.0866*%
%ADD16R,0.0551X0.0453*%
%ADD17R,0.0453X0.0551*%
%ADD18R,0.0531X0.0787*%
D10*
X022500Y025000D02*
X042700Y025000D01*
X042700Y038000D01*
X022500Y038000D01*
X022500Y025000D01*
X023592Y027250D02*
X023594Y027295D01*
X023600Y027339D01*
X023609Y027383D01*
X023623Y027425D01*
X023640Y027466D01*
X023661Y027506D01*
X023685Y027544D01*
X023712Y027579D01*
X023742Y027612D01*
X023775Y027642D01*
X023810Y027669D01*
X023848Y027693D01*
X023888Y027714D01*
X023929Y027731D01*
X023971Y027745D01*
X024015Y027754D01*
X024059Y027760D01*
X024104Y027762D01*
X024149Y027760D01*
X024193Y027754D01*
X024237Y027745D01*
X024279Y027731D01*
X024320Y027714D01*
X024360Y027693D01*
X024398Y027669D01*
X024433Y027642D01*
X024466Y027612D01*
X024496Y027579D01*
X024523Y027544D01*
X024547Y027506D01*
X024568Y027466D01*
X024585Y027425D01*
X024599Y027383D01*
X024608Y027339D01*
X024614Y027295D01*
X024616Y027250D01*
X024614Y027205D01*
X024608Y027161D01*
X024599Y027117D01*
X024585Y027075D01*
X024568Y027034D01*
X024547Y026994D01*
X024523Y026956D01*
X024496Y026921D01*
X024466Y026888D01*
X024433Y026858D01*
X024398Y026831D01*
X024360Y026807D01*
X024320Y026786D01*
X024279Y026769D01*
X024237Y026755D01*
X024193Y026746D01*
X024149Y026740D01*
X024104Y026738D01*
X024059Y026740D01*
X024015Y026746D01*
X023971Y026755D01*
X023929Y026769D01*
X023888Y026786D01*
X023848Y026807D01*
X023810Y026831D01*
X023775Y026858D01*
X023742Y026888D01*
X023712Y026921D01*
X023685Y026956D01*
X023661Y026994D01*
X023640Y027034D01*
X023623Y027075D01*
X023609Y027117D01*
X023600Y027161D01*
X023594Y027205D01*
X023592Y027250D01*
X023592Y030250D02*
X023594Y030295D01*
X023600Y030339D01*
X023609Y030383D01*
X023623Y030425D01*
X023640Y030466D01*
X023661Y030506D01*
X023685Y030544D01*
X023712Y030579D01*
X023742Y030612D01*
X023775Y030642D01*
X023810Y030669D01*
X023848Y030693D01*
X023888Y030714D01*
X023929Y030731D01*
X023971Y030745D01*
X024015Y030754D01*
X024059Y030760D01*
X024104Y030762D01*
X024149Y030760D01*
X024193Y030754D01*
X024237Y030745D01*
X024279Y030731D01*
X024320Y030714D01*
X024360Y030693D01*
X024398Y030669D01*
X024433Y030642D01*
X024466Y030612D01*
X024496Y030579D01*
X024523Y030544D01*
X024547Y030506D01*
X024568Y030466D01*
X024585Y030425D01*
X024599Y030383D01*
X024608Y030339D01*
X024614Y030295D01*
X024616Y030250D01*
X024614Y030205D01*
X024608Y030161D01*
X024599Y030117D01*
X024585Y030075D01*
X024568Y030034D01*
X024547Y029994D01*
X024523Y029956D01*
X024496Y029921D01*
X024466Y029888D01*
X024433Y029858D01*
X024398Y029831D01*
X024360Y029807D01*
X024320Y029786D01*
X024279Y029769D01*
X024237Y029755D01*
X024193Y029746D01*
X024149Y029740D01*
X024104Y029738D01*
X024059Y029740D01*
X024015Y029746D01*
X023971Y029755D01*
X023929Y029769D01*
X023888Y029786D01*
X023848Y029807D01*
X023810Y029831D01*
X023775Y029858D01*
X023742Y029888D01*
X023712Y029921D01*
X023685Y029956D01*
X023661Y029994D01*
X023640Y030034D01*
X023623Y030075D01*
X023609Y030117D01*
X023600Y030161D01*
X023594Y030205D01*
X023592Y030250D01*
X023085Y033275D02*
X023087Y033310D01*
X023093Y033345D01*
X023103Y033379D01*
X023116Y033412D01*
X023133Y033443D01*
X023154Y033471D01*
X023177Y033498D01*
X023204Y033521D01*
X023232Y033542D01*
X023263Y033559D01*
X023296Y033572D01*
X023330Y033582D01*
X023365Y033588D01*
X023400Y033590D01*
X023435Y033588D01*
X023470Y033582D01*
X023504Y033572D01*
X023537Y033559D01*
X023568Y033542D01*
X023596Y033521D01*
X023623Y033498D01*
X023646Y033471D01*
X023667Y033443D01*
X023684Y033412D01*
X023697Y033379D01*
X023707Y033345D01*
X023713Y033310D01*
X023715Y033275D01*
X023713Y033240D01*
X023707Y033205D01*
X023697Y033171D01*
X023684Y033138D01*
X023667Y033107D01*
X023646Y033079D01*
X023623Y033052D01*
X023596Y033029D01*
X023568Y033008D01*
X023537Y032991D01*
X023504Y032978D01*
X023470Y032968D01*
X023435Y032962D01*
X023400Y032960D01*
X023365Y032962D01*
X023330Y032968D01*
X023296Y032978D01*
X023263Y032991D01*
X023232Y033008D01*
X023204Y033029D01*
X023177Y033052D01*
X023154Y033079D01*
X023133Y033107D01*
X023116Y033138D01*
X023103Y033171D01*
X023093Y033205D01*
X023087Y033240D01*
X023085Y033275D01*
X025447Y033275D02*
X025449Y033310D01*
X025455Y033345D01*
X025465Y033379D01*
X025478Y033412D01*
X025495Y033443D01*
X025516Y033471D01*
X025539Y033498D01*
X025566Y033521D01*
X025594Y033542D01*
X025625Y033559D01*
X025658Y033572D01*
X025692Y033582D01*
X025727Y033588D01*
X025762Y033590D01*
X025797Y033588D01*
X025832Y033582D01*
X025866Y033572D01*
X025899Y033559D01*
X025930Y033542D01*
X025958Y033521D01*
X025985Y033498D01*
X026008Y033471D01*
X026029Y033443D01*
X026046Y033412D01*
X026059Y033379D01*
X026069Y033345D01*
X026075Y033310D01*
X026077Y033275D01*
X026075Y033240D01*
X026069Y033205D01*
X026059Y033171D01*
X026046Y033138D01*
X026029Y033107D01*
X026008Y033079D01*
X025985Y033052D01*
X025958Y033029D01*
X025930Y033008D01*
X025899Y032991D01*
X025866Y032978D01*
X025832Y032968D01*
X025797Y032962D01*
X025762Y032960D01*
X025727Y032962D01*
X025692Y032968D01*
X025658Y032978D01*
X025625Y032991D01*
X025594Y033008D01*
X025566Y033029D01*
X025539Y033052D01*
X025516Y033079D01*
X025495Y033107D01*
X025478Y033138D01*
X025465Y033171D01*
X025455Y033205D01*
X025449Y033240D01*
X025447Y033275D01*
X026570Y036200D02*
X026572Y036250D01*
X026578Y036300D01*
X026588Y036349D01*
X026602Y036397D01*
X026619Y036444D01*
X026640Y036489D01*
X026665Y036533D01*
X026693Y036574D01*
X026725Y036613D01*
X026759Y036650D01*
X026796Y036684D01*
X026836Y036714D01*
X026878Y036741D01*
X026922Y036765D01*
X026968Y036786D01*
X027015Y036802D01*
X027063Y036815D01*
X027113Y036824D01*
X027162Y036829D01*
X027213Y036830D01*
X027263Y036827D01*
X027312Y036820D01*
X027361Y036809D01*
X027409Y036794D01*
X027455Y036776D01*
X027500Y036754D01*
X027543Y036728D01*
X027584Y036699D01*
X027623Y036667D01*
X027659Y036632D01*
X027691Y036594D01*
X027721Y036554D01*
X027748Y036511D01*
X027771Y036467D01*
X027790Y036421D01*
X027806Y036373D01*
X027818Y036324D01*
X027826Y036275D01*
X027830Y036225D01*
X027830Y036175D01*
X027826Y036125D01*
X027818Y036076D01*
X027806Y036027D01*
X027790Y035979D01*
X027771Y035933D01*
X027748Y035889D01*
X027721Y035846D01*
X027691Y035806D01*
X027659Y035768D01*
X027623Y035733D01*
X027584Y035701D01*
X027543Y035672D01*
X027500Y035646D01*
X027455Y035624D01*
X027409Y035606D01*
X027361Y035591D01*
X027312Y035580D01*
X027263Y035573D01*
X027213Y035570D01*
X027162Y035571D01*
X027113Y035576D01*
X027063Y035585D01*
X027015Y035598D01*
X026968Y035614D01*
X026922Y035635D01*
X026878Y035659D01*
X026836Y035686D01*
X026796Y035716D01*
X026759Y035750D01*
X026725Y035787D01*
X026693Y035826D01*
X026665Y035867D01*
X026640Y035911D01*
X026619Y035956D01*
X026602Y036003D01*
X026588Y036051D01*
X026578Y036100D01*
X026572Y036150D01*
X026570Y036200D01*
D11*
X033566Y031389D03*
X033566Y031192D03*
X033566Y030995D03*
X033566Y030798D03*
X033566Y030602D03*
X033566Y030405D03*
X033566Y030208D03*
X033566Y030011D03*
X035534Y030011D03*
X035534Y030208D03*
X035534Y030405D03*
X035534Y030602D03*
X035534Y030798D03*
X035534Y030995D03*
X035534Y031192D03*
X035534Y031389D03*
D12*
X035239Y031684D03*
X035042Y031684D03*
X034845Y031684D03*
X034648Y031684D03*
X034452Y031684D03*
X034255Y031684D03*
X034058Y031684D03*
X033861Y031684D03*
X033861Y029716D03*
X034058Y029716D03*
X034255Y029716D03*
X034452Y029716D03*
X034648Y029716D03*
X034845Y029716D03*
X035042Y029716D03*
X035239Y029716D03*
D13*
X034550Y030700D03*
D14*
X033100Y029900D03*
X032800Y029900D03*
X032800Y029525D03*
X033100Y029525D03*
X033100Y029150D03*
X032800Y029150D03*
X032800Y028725D03*
X033100Y028725D03*
X033100Y028350D03*
X032800Y028350D03*
X031000Y028450D03*
X030700Y028450D03*
X030700Y028875D03*
X031000Y028875D03*
X031000Y029325D03*
X030700Y029325D03*
X030700Y028000D03*
X031000Y028000D03*
X031000Y027575D03*
X030700Y027575D03*
X030700Y027200D03*
X031000Y027200D03*
X028000Y028700D03*
X027700Y028700D03*
X027600Y029350D03*
X027900Y029350D03*
X027975Y029850D03*
X027675Y029850D03*
X027650Y031900D03*
X027950Y031900D03*
X027950Y032350D03*
X027650Y032350D03*
X027650Y034350D03*
X027950Y034350D03*
X025125Y035925D03*
X024825Y035925D03*
X023925Y035900D03*
X023625Y035900D03*
X032575Y032675D03*
X032575Y032375D03*
X032575Y031925D03*
X032575Y031625D03*
X033875Y032400D03*
X033875Y032700D03*
X034225Y032700D03*
X034225Y032400D03*
X034700Y032400D03*
X034700Y032700D03*
X035050Y032700D03*
X035050Y032400D03*
X035400Y032400D03*
X035400Y032700D03*
X035750Y032700D03*
X035750Y032400D03*
X036400Y030550D03*
X036700Y030550D03*
X036700Y030100D03*
X036400Y030100D03*
X036400Y029700D03*
X036700Y029700D03*
X036700Y029250D03*
X036400Y029250D03*
X034850Y029100D03*
X034550Y029100D03*
X034550Y028750D03*
X034850Y028750D03*
X037900Y030350D03*
X038200Y030350D03*
X038200Y030700D03*
X037900Y030700D03*
D15*
X037200Y034172D03*
X037200Y035628D03*
X034725Y035628D03*
X034725Y034172D03*
D16*
X041200Y034596D03*
X041200Y035304D03*
X027850Y028104D03*
X027850Y027396D03*
X027750Y030496D03*
X027750Y031204D03*
X027750Y032996D03*
X027750Y033704D03*
D17*
X028746Y036250D03*
X029454Y036250D03*
X030996Y036300D03*
X031704Y036300D03*
X035221Y028250D03*
X035929Y028250D03*
D18*
X026628Y034751D03*
X024384Y034751D03*
X023144Y034751D03*
X023183Y031799D03*
X025959Y031799D03*
M02*
