G75*
%MOIN*%
%OFA0B0*%
%FSLAX24Y24*%
%IPPOS*%
%LPD*%
%AMOC8*
5,1,8,0,0,1.08239X$1,22.5*
%
%ADD10C,0.0000*%
%ADD11R,0.0740X0.0740*%
%ADD12C,0.0740*%
%ADD13R,0.0551X0.0453*%
%ADD14R,0.0453X0.0551*%
%ADD15R,0.0200X0.0200*%
%ADD16C,0.0264*%
%ADD17C,0.0382*%
%ADD18C,0.1024*%
%ADD19C,0.0500*%
%ADD20R,0.0500X0.0500*%
%ADD21C,0.0630*%
D10*
X022500Y025000D02*
X035850Y025000D01*
X035850Y038000D01*
X022500Y038000D01*
X022500Y025000D01*
X023578Y027957D02*
X023580Y028002D01*
X023586Y028046D01*
X023595Y028090D01*
X023609Y028132D01*
X023626Y028173D01*
X023647Y028213D01*
X023671Y028251D01*
X023698Y028286D01*
X023728Y028319D01*
X023761Y028349D01*
X023796Y028376D01*
X023834Y028400D01*
X023874Y028421D01*
X023915Y028438D01*
X023957Y028452D01*
X024001Y028461D01*
X024045Y028467D01*
X024090Y028469D01*
X024135Y028467D01*
X024179Y028461D01*
X024223Y028452D01*
X024265Y028438D01*
X024306Y028421D01*
X024346Y028400D01*
X024384Y028376D01*
X024419Y028349D01*
X024452Y028319D01*
X024482Y028286D01*
X024509Y028251D01*
X024533Y028213D01*
X024554Y028173D01*
X024571Y028132D01*
X024585Y028090D01*
X024594Y028046D01*
X024600Y028002D01*
X024602Y027957D01*
X024600Y027912D01*
X024594Y027868D01*
X024585Y027824D01*
X024571Y027782D01*
X024554Y027741D01*
X024533Y027701D01*
X024509Y027663D01*
X024482Y027628D01*
X024452Y027595D01*
X024419Y027565D01*
X024384Y027538D01*
X024346Y027514D01*
X024306Y027493D01*
X024265Y027476D01*
X024223Y027462D01*
X024179Y027453D01*
X024135Y027447D01*
X024090Y027445D01*
X024045Y027447D01*
X024001Y027453D01*
X023957Y027462D01*
X023915Y027476D01*
X023874Y027493D01*
X023834Y027514D01*
X023796Y027538D01*
X023761Y027565D01*
X023728Y027595D01*
X023698Y027628D01*
X023671Y027663D01*
X023647Y027701D01*
X023626Y027741D01*
X023609Y027782D01*
X023595Y027824D01*
X023586Y027868D01*
X023580Y027912D01*
X023578Y027957D01*
X023578Y030603D02*
X023580Y030648D01*
X023586Y030692D01*
X023595Y030736D01*
X023609Y030778D01*
X023626Y030819D01*
X023647Y030859D01*
X023671Y030897D01*
X023698Y030932D01*
X023728Y030965D01*
X023761Y030995D01*
X023796Y031022D01*
X023834Y031046D01*
X023874Y031067D01*
X023915Y031084D01*
X023957Y031098D01*
X024001Y031107D01*
X024045Y031113D01*
X024090Y031115D01*
X024135Y031113D01*
X024179Y031107D01*
X024223Y031098D01*
X024265Y031084D01*
X024306Y031067D01*
X024346Y031046D01*
X024384Y031022D01*
X024419Y030995D01*
X024452Y030965D01*
X024482Y030932D01*
X024509Y030897D01*
X024533Y030859D01*
X024554Y030819D01*
X024571Y030778D01*
X024585Y030736D01*
X024594Y030692D01*
X024600Y030648D01*
X024602Y030603D01*
X024600Y030558D01*
X024594Y030514D01*
X024585Y030470D01*
X024571Y030428D01*
X024554Y030387D01*
X024533Y030347D01*
X024509Y030309D01*
X024482Y030274D01*
X024452Y030241D01*
X024419Y030211D01*
X024384Y030184D01*
X024346Y030160D01*
X024306Y030139D01*
X024265Y030122D01*
X024223Y030108D01*
X024179Y030099D01*
X024135Y030093D01*
X024090Y030091D01*
X024045Y030093D01*
X024001Y030099D01*
X023957Y030108D01*
X023915Y030122D01*
X023874Y030139D01*
X023834Y030160D01*
X023796Y030184D01*
X023761Y030211D01*
X023728Y030241D01*
X023698Y030274D01*
X023671Y030309D01*
X023647Y030347D01*
X023626Y030387D01*
X023609Y030428D01*
X023595Y030470D01*
X023586Y030514D01*
X023580Y030558D01*
X023578Y030603D01*
X023335Y033850D02*
X023337Y033885D01*
X023343Y033920D01*
X023353Y033954D01*
X023366Y033987D01*
X023383Y034018D01*
X023404Y034046D01*
X023427Y034073D01*
X023454Y034096D01*
X023482Y034117D01*
X023513Y034134D01*
X023546Y034147D01*
X023580Y034157D01*
X023615Y034163D01*
X023650Y034165D01*
X023685Y034163D01*
X023720Y034157D01*
X023754Y034147D01*
X023787Y034134D01*
X023818Y034117D01*
X023846Y034096D01*
X023873Y034073D01*
X023896Y034046D01*
X023917Y034018D01*
X023934Y033987D01*
X023947Y033954D01*
X023957Y033920D01*
X023963Y033885D01*
X023965Y033850D01*
X023963Y033815D01*
X023957Y033780D01*
X023947Y033746D01*
X023934Y033713D01*
X023917Y033682D01*
X023896Y033654D01*
X023873Y033627D01*
X023846Y033604D01*
X023818Y033583D01*
X023787Y033566D01*
X023754Y033553D01*
X023720Y033543D01*
X023685Y033537D01*
X023650Y033535D01*
X023615Y033537D01*
X023580Y033543D01*
X023546Y033553D01*
X023513Y033566D01*
X023482Y033583D01*
X023454Y033604D01*
X023427Y033627D01*
X023404Y033654D01*
X023383Y033682D01*
X023366Y033713D01*
X023353Y033746D01*
X023343Y033780D01*
X023337Y033815D01*
X023335Y033850D01*
X025697Y033850D02*
X025699Y033885D01*
X025705Y033920D01*
X025715Y033954D01*
X025728Y033987D01*
X025745Y034018D01*
X025766Y034046D01*
X025789Y034073D01*
X025816Y034096D01*
X025844Y034117D01*
X025875Y034134D01*
X025908Y034147D01*
X025942Y034157D01*
X025977Y034163D01*
X026012Y034165D01*
X026047Y034163D01*
X026082Y034157D01*
X026116Y034147D01*
X026149Y034134D01*
X026180Y034117D01*
X026208Y034096D01*
X026235Y034073D01*
X026258Y034046D01*
X026279Y034018D01*
X026296Y033987D01*
X026309Y033954D01*
X026319Y033920D01*
X026325Y033885D01*
X026327Y033850D01*
X026325Y033815D01*
X026319Y033780D01*
X026309Y033746D01*
X026296Y033713D01*
X026279Y033682D01*
X026258Y033654D01*
X026235Y033627D01*
X026208Y033604D01*
X026180Y033583D01*
X026149Y033566D01*
X026116Y033553D01*
X026082Y033543D01*
X026047Y033537D01*
X026012Y033535D01*
X025977Y033537D01*
X025942Y033543D01*
X025908Y033553D01*
X025875Y033566D01*
X025844Y033583D01*
X025816Y033604D01*
X025789Y033627D01*
X025766Y033654D01*
X025745Y033682D01*
X025728Y033713D01*
X025715Y033746D01*
X025705Y033780D01*
X025699Y033815D01*
X025697Y033850D01*
D11*
X027300Y037500D03*
X031300Y037500D03*
X035300Y037500D03*
X035300Y025500D03*
X031300Y025500D03*
X027300Y025500D03*
D12*
X028300Y025500D03*
X029300Y025500D03*
X030300Y025500D03*
X032300Y025500D03*
X033300Y025500D03*
X034300Y025500D03*
X026300Y025500D03*
X026300Y037500D03*
X028300Y037500D03*
X029300Y037500D03*
X030300Y037500D03*
X032300Y037500D03*
X033300Y037500D03*
X034300Y037500D03*
D13*
X027750Y033654D03*
X027750Y032946D03*
X027725Y031229D03*
X027725Y030521D03*
D14*
X029946Y036450D03*
X030654Y036450D03*
X033371Y036450D03*
X034079Y036450D03*
D15*
X031000Y032100D03*
X031000Y031800D03*
X031000Y031200D03*
X031000Y030900D03*
X029950Y029750D03*
X029650Y029750D03*
X029650Y029300D03*
X029950Y029300D03*
X029950Y028900D03*
X029650Y028900D03*
X029650Y028450D03*
X029950Y028450D03*
X029950Y028000D03*
X029650Y028000D03*
X029650Y027600D03*
X029950Y027600D03*
X029950Y027200D03*
X029650Y027200D03*
X027925Y029850D03*
X027625Y029850D03*
X027625Y031900D03*
X027925Y031900D03*
X027900Y032350D03*
X027600Y032350D03*
X027650Y034400D03*
X027950Y034400D03*
D16*
X024053Y026540D03*
X024053Y025910D03*
D17*
X025625Y028300D03*
X025625Y029300D03*
X025625Y030300D03*
D18*
X024090Y030603D03*
X024090Y027957D03*
D19*
X028850Y031275D03*
X028850Y033525D03*
D20*
X029650Y033525D03*
X029650Y031275D03*
D21*
X026012Y033850D03*
X023650Y033850D03*
M02*
