%
M48
M72
T01C0.0118
T02C0.0197
T03C0.0315
T04C0.0400
T05C0.0630
T06C0.1024
T07C0.1260
%
T01
X22700Y25275
X24125Y25275
X24050Y26275
X22700Y26775
X22700Y28025
X24050Y29500
X22700Y30100
X22700Y31625
X23975Y31625
X23975Y32850
X25125Y32275
X25125Y31050
X26650Y30900
X27100Y31700
X27275Y32125
X26850Y32225
X26825Y33250
X26850Y34100
X26850Y34650
X27400Y34625
X27775Y35450
X28500Y34650
X28775Y35150
X29300Y35875
X30375Y35150
X30050Y34675
X29800Y34150
X30050Y33025
X29625Y32850
X28800Y32250
X28400Y32725
X28325Y33300
X26175Y34625
X25875Y34250
X25175Y34975
X25125Y35325
X25475Y35325
X26700Y35625
X26950Y36275
X27625Y36925
X27050Y37800
X25925Y37750
X24575Y37775
X24500Y36475
X22700Y36375
X22700Y37625
X22700Y34875
X24000Y34850
X29050Y37800
X30000Y37775
X30950Y37800
X32000Y37800
X33000Y37800
X33975Y37800
X34950Y37800
X35775Y36950
X35025Y36525
X34000Y36900
X33975Y36175
X33100Y35975
X32500Y36250
X32725Y36775
X31900Y36725
X31325Y36625
X31800Y36175
X31625Y35200
X31625Y34750
X31900Y33825
X31650Y33275
X31625Y31975
X30900Y32025
X30950Y31500
X30325Y31500
X30300Y31050
X31375Y30675
X32000Y30125
X32275Y30175
X31749Y29351
X32851Y29351
X32851Y28249
X33375Y27825
X33800Y27925
X33650Y28525
X34450Y29300
X34675Y29625
X34675Y29975
X34250Y30425
X33775Y30975
X33500Y31150
X33075Y31150
X32650Y30900
X32575Y31400
X32200Y31150
X32025Y31350
X30750Y29900
X29575Y29525
X30450Y29175
X30550Y28900
X30550Y28475
X30550Y28050
X30725Y27825
X30675Y27450
X31175Y27425
X31200Y27875
X31749Y28249
X32950Y27450
X33300Y27375
X33750Y26975
X34150Y27325
X34700Y27425
X35075Y27975
X34950Y28800
X35300Y29750
X35775Y29400
X35775Y30925
X35775Y32150
X35300Y32525
X34350Y33050
X34200Y33825
X34825Y34250
X35275Y33700
X35775Y34225
X35800Y35750
X32950Y34275
X34275Y31525
X29575Y28675
X29525Y28250
X29575Y27825
X28650Y27550
X29800Y26800
X30350Y26650
X30800Y26125
X31050Y26275
X31400Y26400
X32000Y26000
X32700Y26000
X33425Y26400
X33000Y25200
X34000Y25200
X34950Y25200
X34650Y26025
X35125Y26500
X32025Y25200
X30950Y25200
X30000Y25200
X29050Y25200
X27950Y25200
X27050Y25200
X26500Y26050
X25875Y26450
X25925Y25225
X27175Y26675
X28700Y28500
X28925Y28825
X28300Y29650
X27600Y29325
X27675Y28825
X26800Y29000
X26900Y29575
X26150Y29550
X25125Y29525
X28625Y30475
T02
X24253Y26540
X24253Y25910
T03
X25825Y28300
X25825Y29300
X25825Y30300
X29050Y31275
X29850Y31275
X29850Y33525
X29050Y33525
T04
X29500Y37500
X30500Y37500
X31500Y37500
X32500Y37500
X33500Y37500
X34500Y37500
X35500Y37500
X28500Y37500
X27500Y37500
X26500Y37500
X26500Y25500
X27500Y25500
X28500Y25500
X29500Y25500
X30500Y25500
X31500Y25500
X32500Y25500
X33500Y25500
X34500Y25500
X35500Y25500
T05
X26212Y33850
X23850Y33850
T06
X24290Y30603
X24290Y27957
T07
X30500Y36200
M30
