%
M48
M72
T01C0.0118
T02C0.0197
T03C0.0315
T04C0.0400
T05C0.0630
T06C0.1024
T07C0.1260
%
T01
X22725Y25250
X23665Y25240
X24735Y25230
X24675Y26000
X25250Y26475
X25000Y27050
X25710Y25255
X26695Y25255
X27290Y26040
X27705Y25255
X28705Y25245
X29715Y25245
X30720Y25270
X31000Y26010
X31700Y25775
X31730Y25225
X32700Y25240
X33715Y25245
X34725Y25225
X35725Y25225
X36700Y25225
X37700Y25225
X36675Y26825
X35450Y27775
X34800Y27400
X34725Y28025
X34100Y28800
X35225Y29325
X35525Y29425
X35750Y29775
X35875Y29100
X37050Y29425
X37050Y29975
X37500Y30400
X37500Y30700
X37675Y30950
X36775Y30900
X36300Y30900
X36050Y30675
X36075Y30400
X35175Y31325
X35840Y31590
X36140Y31890
X36550Y31650
X36825Y31675
X37200Y31850
X36540Y32340
X35990Y32915
X35400Y33000
X34850Y32790
X34675Y33025
X34250Y33150
X33870Y32680
X34275Y32050
X34550Y32075
X33925Y31325
X33150Y31120
X32675Y31290
X32850Y31625
X31700Y31090
X32130Y30810
X32940Y30300
X33950Y30100
X34550Y30775
X34975Y30125
X32275Y28350
X32725Y28050
X32990Y28075
X32275Y27625
X32290Y27235
X33200Y26455
X33700Y27115
X34925Y26475
X37975Y29675
X38100Y30075
X39250Y29575
X39290Y28340
X40400Y28310
X40270Y26715
X40700Y25225
X41650Y25200
X39700Y25225
X42500Y26700
X42500Y28215
X42500Y29815
X40400Y30625
X40700Y31550
X39500Y32400
X38525Y31500
X38975Y33175
X39850Y33550
X40700Y33235
X40625Y34575
X39865Y35615
X40365Y36365
X40940Y36890
X40690Y37290
X40715Y37790
X41665Y37790
X39715Y37790
X38715Y37790
X38965Y36865
X39540Y36640
X38390Y34890
X37165Y34865
X35940Y34890
X36040Y35890
X36390Y36340
X35675Y36525
X35175Y36825
X34525Y36250
X33520Y35320
X33100Y35625
X32885Y34685
X31580Y34190
X32490Y33220
X32825Y32700
X33290Y33870
X34600Y34900
X36040Y33765
X36965Y33490
X37515Y33515
X42480Y33350
X42490Y35100
X36715Y37795
X35725Y37800
X34725Y37800
X32710Y37785
X31700Y37800
X30720Y37790
X29700Y37790
X28710Y37795
X27710Y37795
X26710Y37790
X25710Y37795
X25560Y36460
X24980Y36450
X24680Y35565
X24325Y35550
X25150Y35400
X25320Y34555
X24825Y34350
X25020Y33475
X26335Y34105
X26960Y34110
X27300Y34300
X28600Y34390
X29490Y34190
X30145Y33745
X30135Y33015
X29050Y33350
X28715Y32595
X29240Y31895
X28625Y30895
X30000Y30720
X28600Y30025
X27325Y29325
X27300Y28430
X26450Y28565
X28360Y28720
X28325Y27375
X28380Y27045
X29195Y26655
X29485Y26375
X29950Y26250
X30375Y26565
X28445Y26140
X22750Y26600
X22750Y28100
X27015Y30440
X25750Y31050
X26540Y32110
X27325Y32105
X27335Y31650
X30025Y31485
X30110Y35845
X30555Y36120
X31440Y35890
X31460Y36765
X30015Y36725
X28305Y36545
X23665Y37790
X22720Y37795
X22765Y36345
X22840Y32765
X22765Y31205
T02
X29028Y28265
X29028Y27635
T03
X31125Y30300
X31125Y31100
X31125Y32650
X31125Y33450
X25600Y29750
X25600Y28750
X25600Y27750
T04
X25200Y25500
X24200Y25500
X23200Y25500
X26200Y25500
X27200Y25500
X28200Y25500
X29200Y25500
X30200Y25500
X31200Y25500
X32200Y25500
X33200Y25500
X34200Y25500
X35200Y25500
X36200Y25500
X37200Y25500
X38200Y25500
X39200Y25500
X40200Y25500
X41200Y25500
X42200Y25500
X40100Y30075
X40100Y31075
X40200Y37500
X39200Y37500
X38200Y37500
X37200Y37500
X36200Y37500
X35200Y37500
X34200Y37500
X33200Y37500
X32200Y37500
X31200Y37500
X30200Y37500
X29200Y37500
X28200Y37500
X27200Y37500
X26200Y37500
X25200Y37500
X24200Y37500
X23200Y37500
X41200Y37500
X42200Y37500
T05
X25762Y33275
X23400Y33275
T06
X24104Y30250
X24104Y27250
T07
X27200Y36200
M30
