<?xml version="1.0" encoding="UTF-8" standalone="no"?>
<!-- Created with Inkscape (http://www.inkscape.org/) -->

<svg
   xmlns:dc="http://purl.org/dc/elements/1.1/"
   xmlns:cc="http://creativecommons.org/ns#"
   xmlns:rdf="http://www.w3.org/1999/02/22-rdf-syntax-ns#"
   xmlns:svg="http://www.w3.org/2000/svg"
   xmlns="http://www.w3.org/2000/svg"
   version="1.1"
   width="1551.3641"
   height="250"
   id="svg3105">
  <defs
     id="defs3107" />
  <metadata
     id="metadata3110">
    <rdf:RDF>
      <cc:Work
         rdf:about="">
        <dc:format>image/svg+xml</dc:format>
        <dc:type
           rdf:resource="http://purl.org/dc/dcmitype/StillImage" />
        <dc:title></dc:title>
      </cc:Work>
    </rdf:RDF>
  </metadata>
  <g
     transform="translate(-87.4688,-300.0625)"
     id="layer1">
    <path
       d="m 88.340356,494.85844 6.600552,0 7.831542,22.40979 7.83154,22.40979 7.82805,-22.40979 7.82805,-22.40979 6.00836,0 7.84827,22.51293 7.84827,22.51293 7.84796,-22.51293 7.84797,-22.51293 6.51432,0 -6.09484,17.15111 -6.09481,17.15103 -6.09489,17.15124 -8.12425,0 -7.27926,-21.20887 -7.27927,-21.20886 -7.23607,21.20886 -7.23606,21.20887 -8.13062,0 -6.08827,-17.15111 -6.088233,-17.15103 -6.088311,-17.15124 0,0"
       id="path3757"
       style="fill:#58595b" />
    <path
       d="m 236.23376,494.79173 6.04817,0 0,8.73656 -6.04817,0 0,-8.73656 0,0 m 0,13.60693 6.04817,0 0,18.95658 0,18.95658 -6.04817,0 0,-18.95658 0,-18.95658 0,0"
       id="path3759"
       style="fill:#58595b" />
    <path
       d="m 313.88964,546.31182 0,-17.15111 0,-17.15103 0,-17.15124 16.07875,0 16.07874,0 0,4.6376 -12.86171,0 -12.86171,0 0,18.58401 24.71206,0 0,4.63761 -24.71206,0 0,23.59416 -6.43407,0 0,0"
       id="path3761"
       style="fill:#58595b" />
    <path
       d="m 415.19306,494.79173 6.04837,0 0,8.73656 -6.04837,0 0,-8.73656 0,0 m 0,13.60693 6.04837,0 0,18.95658 0,18.95658 -6.04837,0 0,-18.95658 0,-18.95658 0,0"
       id="path3763"
       style="fill:#58595b" />
    <path
       d="m 582.57696,536.9367 7.26607,0 0,9.37557 5.93786,0 0,-9.37557 5.39095,0 0,-4.60966 -5.39095,0 0,-18.75114 0,-18.75114 -7.03168,0 -6.17225,8.04737 0,8.43801 7.26607,-9.68809 0,15.31343 0,15.39156 -7.26607,0 0,4.60966 z"
       id="path3958"
       style="fill:#58595b" />
    <path
       d="m 582.57696,536.9367 0,-4.60966 -15.70408,0 11.48507,-15.39156 4.21901,-5.62534 0,-8.43801 -8.20362,10.62564 -14.29775,18.67302 0,4.76591 14.84466,0 7.65671,0 z"
       id="path3765"
       style="fill:#58595b" />
    <path
       d="m 716.06289,494.85844 16.76075,0 16.76075,0 0,4.6376 -13.77977,0 0,23.40789 0,23.40789 -5.95499,0 0,-23.40789 0,-23.40789 -13.78674,0 0,-4.6376 0,0"
       id="path3767"
       style="fill:#58595b" />
    <path
       d="m 809.43501,494.85844 5.95538,0 0,22.68258 15.19385,0 15.19386,0 0,-22.68258 5.95498,0 0,17.15111 0,17.15103 0,17.15124 -5.95498,0 0,-24.13319 -15.19386,0 -15.19385,0 0,24.13319 -5.95538,0 0,-17.15111 0,-17.15103 0,-17.15124 0,0"
       id="path3769"
       style="fill:#58595b" />
    <path
       d="m 917.95787,494.85844 5.95539,0 0,17.15111 0,17.15103 0,17.15124 -5.95539,0 0,-17.15111 0,-17.15103 0,-17.15124 0,0"
       id="path3771"
       style="fill:#58595b" />
    <path
       d="m 989.74557,494.85844 7.99083,0 11.123,14.27669 11.1229,14.27663 11.1231,14.27681 0,-21.41507 0,-21.41506 5.9549,0 0,17.15111 0,17.15103 0,17.15124 -5.9549,0 -11.8016,-15.14169 -11.8016,-15.14162 -11.80165,-15.14181 0,22.71256 0,22.71256 -5.95498,0 0,-17.15111 0,-17.15103 0,-17.15124 0,0"
       id="path3773"
       style="fill:#58595b" />
    <path
       d="m 1159.9088,508.67165 -7.0464,0 -1.9987,-2.40302 -2.194,-2.05928 -2.3898,-1.71617 -2.5864,-1.37369 -5.724,-1.82622 -6.5324,-0.60907 -5.0429,0.40796 -4.6699,1.22391 -4.2982,2.03984 -3.9275,2.85578 -3.2709,3.41834 -2.3373,3.7577 -1.4028,4.09705 -0.4677,4.43637 0.4728,4.30684 1.4185,3.97872 2.3642,3.65185 3.3098,3.32622 3.9438,2.75477 4.2768,1.96693 4.6113,1.17971 4.9469,0.3931 4.0509,-0.26822 3.9278,-0.80521 3.8044,-1.34307 3.6802,-1.88179 3.2888,-2.28808 2.6107,-2.56255 1.9332,-2.83701 1.2563,-3.11144 -16.488,0 -16.488,0 0,-4.63758 20.0512,0 20.0513,0 -0.8536,4.94164 -1.9298,4.53493 -3.005,4.12823 -4.0794,3.72155 -4.8345,3.08277 -5.2525,2.202 -5.6717,1.3212 -6.0921,0.44041 -6.1009,-0.49145 -5.688,-1.47395 -5.2762,-2.45579 -4.8656,-3.43701 -4.0813,-4.08443 -2.9128,-4.40818 -1.7462,-4.73133 -0.5817,-5.05385 0.5727,-5.44698 1.7186,-5.00283 2.8651,-4.55869 4.0122,-4.11454 4.8209,-3.42331 5.3004,-2.44525 5.7807,-1.46716 6.2617,-0.48906 4.6147,0.26696 4.4113,0.80092 4.2066,1.33493 4.0008,1.869 3.625,2.25035 3.0886,2.47872 2.5497,2.70582 2.0083,2.93169 0,0"
       id="path3775"
       style="fill:#58595b" />
    <path
       d="m 1227.7106,531.95977 0.2057,2.09338 0.6166,1.93871 1.0273,1.78403 1.4373,1.62934 1.8079,1.34882 2.0904,0.96265 2.3735,0.57713 2.6574,0.19223 4.5654,-0.68468 3.9714,-2.05686 1.6118,-1.51582 1.1521,-1.78055 0.6916,-2.04365 0.2307,-2.30514 -0.6869,-3.25029 -2.0543,-2.91099 -1.7606,-1.35129 -2.5456,-1.27951 -7.4445,-2.3463 -6.1344,-2.11085 -2.4097,-1.35485 -1.9713,-1.55446 -1.533,-1.75407 -1.095,-1.9537 -0.6569,-2.1533 -0.219,-2.35293 0.3032,-2.88797 0.9094,-2.60479 1.5158,-2.32033 2.1219,-2.03458 2.5889,-1.67291 2.8672,-1.19572 3.1466,-0.71789 3.4273,-0.23944 3.3572,0.25833 3.0646,0.77489 2.7714,1.29128 2.4775,1.8075 2.0387,2.17102 1.4555,2.38186 0.8729,2.59392 0.2908,2.80721 -5.9554,0 -0.196,-1.86372 -0.5877,-1.72842 -0.9793,-1.59245 -1.3706,-1.45579 -1.6284,-1.22754 -1.7818,-0.87755 -4.0289,-0.70276 -4.4281,0.66888 -1.8317,0.83591 -1.5783,1.17005 -2.1741,2.93474 -0.545,1.66399 -0.1819,1.79553 0.6476,2.9825 1.9408,2.43366 4.0365,2.08172 6.8558,1.97703 3.523,1.00456 3.0539,1.25216 2.5845,1.49965 2.1149,1.74708 1.6452,1.99442 1.1754,2.24168 0.7053,2.48885 0.2352,2.73596 -0.3331,3.03668 -0.9992,2.78282 -1.6654,2.52958 -2.3319,2.27694 -2.7983,1.88422 -3.0746,1.3428 -3.3503,0.80386 -3.6254,0.26741 -3.779,-0.26218 -3.4328,-0.78683 -3.0873,-1.31196 -2.7423,-1.83756 -2.2443,-2.26075 -1.6031,-2.58072 -0.9618,-2.90133 -0.3207,-3.22255 5.9618,0 0,0"
       id="path3777"
       style="fill:#58595b" />
    <path
       d="m 850.67514,335.75357 -15.68804,15.68805 -15.68664,15.68663 -15.68728,15.68728 -15.68744,15.68744 -15.68831,15.68831 -15.6865,15.6865 -11.44424,-11.44442 15.68798,-15.68805 15.68657,-15.68665 15.68721,-15.68728 15.68737,-15.68744 15.68825,-15.68832 15.68643,-15.6865 11.44464,11.44445 0,0"
       id="path3781"
       style="fill:#5abd74" />
    <path
       d="m 780.58431,424.14855 -0.60453,5.99678 -1.73381,5.58543 -2.74345,5.05441 -3.63342,4.40376 -4.40375,3.63343 -5.05442,2.74345 -5.58544,1.73382 -5.9968,0.60454 -5.9968,-0.60454 -5.58543,-1.73382 -5.05442,-2.74345 -4.40375,-3.63343 -3.63343,-4.40376 -2.74344,-5.05441 -1.73382,-5.58543 -0.60452,-5.99678 0.60452,-5.9968 1.73382,-5.58544 2.74344,-5.05442 3.63343,-4.40375 4.40375,-3.63342 5.05442,-2.74345 5.58543,-1.73381 5.9968,-0.60453 5.9968,0.60453 5.58544,1.73381 5.05442,2.74345 4.40375,3.63342 3.63342,4.40375 2.74345,5.05442 1.73381,5.58544 0.60453,5.9968 0,0"
       id="circle3783"
       style="fill:#5abd74" />
    <path
       d="m 874.9214,329.81818 -0.60453,5.99678 -1.73382,5.58543 -2.74346,5.05442 -3.63343,4.40375 -4.40375,3.63344 -5.05442,2.74345 -5.58543,1.73382 -5.99678,0.60453 -5.9968,-0.60453 -5.58544,-1.73382 -5.05442,-2.74345 -4.40375,-3.63344 -3.63342,-4.40375 -2.74345,-5.05442 -1.73381,-5.58543 -0.60453,-5.99678 0.60453,-5.9968 1.73381,-5.58544 2.74345,-5.05443 3.63342,-4.40376 4.40375,-3.63344 5.05442,-2.74346 5.58544,-1.73382 5.9968,-0.60453 5.99678,0.60453 5.58543,1.73382 5.05442,2.74346 4.40375,3.63344 3.63343,4.40376 2.74346,5.05443 1.73382,5.58544 0.60453,5.9968 0,0"
       id="circle3785"
       style="fill:#5abd74" />
    <path
       d="m 595.81622,443.68422 -12.97509,0 -13.84591,-19.93441 -13.84467,-19.93262 -13.84522,-19.93343 -13.84538,-19.93364 -13.84614,-19.93475 -13.84454,-19.93244 -0.002,23.92014 -10e-4,23.92201 -0.002,23.91945 -0.002,23.91856 -10e-4,23.92113 -16.16866,0 0,-22.18457 0,-22.18258 0,-22.18349 0,-22.18371 0,-22.18495 0,-22.18238 13.17781,0 13.17782,0 13.24817,19.0339 13.24699,19.03219 13.24752,19.03297 13.24767,19.03317 13.2484,19.03423 13.24686,19.03202 13.31367,-19.03391 13.31246,-19.03219 13.31301,-19.03297 13.31315,-19.03317 13.31389,-19.03422 13.31234,-19.03202 12.97809,0 12.97809,0 0,22.18457 0,22.18258 0,22.18348 0,22.18372 0,22.18495 0,22.18238 -16.18201,0 0,-23.92014 0,-23.922 0,-23.91946 0,-23.91856 0,-23.92113 -13.8792,19.93441 -13.87794,19.93262 -13.87852,19.93343 -13.87866,19.93364 -13.87943,19.93475 -13.87782,19.93244 7.5e-4,0"
       id="path3791"
       style="fill:#58595b" />
    <path
       d="m 914.59109,443.68422 -16.16189,0 0,-22.18457 0,-22.18258 0,-22.18349 0,-22.18371 0,-22.18495 0,-22.18238 13.46714,0 13.46713,0 17.53295,17.19739 17.53557,17.19998 17.53379,17.19822 17.53588,17.20028 17.53524,17.19964 17.5338,17.19824 17.5348,17.19926 0,-24.07848 0,-24.08037 0,-24.07779 0,-24.07689 0,-24.07948 16.1821,0 0,22.18457 0,22.18258 0,22.18348 0,22.18372 0,22.18495 0,22.18238 -13.2711,0 -13.271,0 -17.5918,-17.28199 -17.5945,-17.28458 -17.5927,-17.28281 -17.5948,-17.28489 -17.59415,-17.28424 -17.59271,-17.28283 -17.59375,-17.28386 0,24.19692 0,24.19881 0,24.19623 0,24.19532 0,24.19792 0,0"
       id="path3793"
       style="fill:#58595b" />
    <path
       d="m 366.31379,446.30618 0.15626,0 5.85973,-0.54691 11.17255,-2.18763 5.70348,-1.71886 5.46908,-2.03137 5.23469,-2.34389 5.00031,-2.65642 5.0003,-3.20332 4.68779,-3.4377 4.29714,-3.82836 4.06274,-4.06275 3.75023,-4.4534 3.28145,-4.76591 2.8908,-5.00031 2.42202,-5.23469 1.95325,-5.39095 1.40633,-5.54722 0.85943,-5.7816 0.31252,-5.85973 -0.31252,-5.85973 -0.85943,-5.78161 -1.40633,-5.54721 -1.95325,-5.39095 -2.42202,-5.2347 -2.8908,-5.0003 -3.28145,-4.76592 -3.75023,-4.45339 -4.06274,-4.06275 -4.29714,-3.82836 -4.68779,-3.43771 -5.0003,-3.12519 -5.00031,-2.73454 -5.23469,-2.34389 -5.46908,-2.03138 -5.70348,-1.71885 -11.17255,-2.18763 -5.85973,-0.54691 -0.15626,0 0,16.0166 0.078,0 5.70347,0.62504 5.54722,1.09381 5.31282,1.40634 5.46908,2.03137 5.2347,2.3439 4.92217,2.81267 4.53153,3.04706 4.53152,3.75023 3.98462,4.06274 3.51584,4.4534 2.96893,4.68779 2.42203,5.07843 1.79698,5.31282 1.09382,5.62535 0.39064,5.70347 -0.39064,5.70347 -1.09382,5.62534 -1.79698,5.31283 -2.42203,5.07843 -2.96893,4.68779 -3.51584,4.45339 -3.98462,4.06275 -4.53152,3.6721 -4.53153,3.12519 -4.92217,2.81267 -5.2347,2.34389 -5.46908,2.03138 -5.31282,1.40633 -5.54722,1.09382 -5.70347,0.62504 -0.078,0 0,16.0166 z"
       id="path3940"
       style="fill:#58595b" />
    <path
       d="m 366.31379,446.30618 0,-16.0166 -5.70348,0.23426 -5.85973,-0.23426 -5.70347,-0.62504 -5.54721,-1.09382 -5.31283,-1.40633 -5.46908,-2.03138 -5.23469,-2.34389 -4.92218,-2.81267 -4.53152,-3.12519 -4.4534,-3.6721 -4.06275,-4.06275 -3.51584,-4.45339 -2.96893,-4.68779 -2.42202,-5.07843 -1.79699,-5.31283 -1.09381,-5.62534 -0.39065,-5.70347 0.39065,-5.70347 1.09381,-5.62535 1.79699,-5.31282 2.42202,-5.07843 2.96893,-4.68779 3.51584,-4.4534 4.06275,-4.06274 4.4534,-3.6721 4.53152,-3.12519 4.92218,-2.81267 5.23469,-2.3439 5.46908,-2.03137 5.31283,-1.40634 5.54721,-1.09381 5.70347,-0.62504 5.85973,-0.23427 5.70348,0.23427 0,-16.0166 -5.70348,-0.15626 -5.93786,0.15626 -5.85973,0.54691 -11.17255,2.18763 -5.70348,1.71885 -5.46908,2.03138 -5.23469,2.34389 -5.00031,2.73454 -5.0003,3.12519 -4.60966,3.43771 -4.37527,3.82836 -3.98461,4.06275 -3.75023,4.45339 -3.35958,4.76592 -2.8908,5.0003 -2.42203,5.2347 -1.95324,5.39095 -1.40634,5.54721 -0.85942,5.78161 -0.23427,5.85973 0.23427,5.85973 0.85942,5.7816 1.40634,5.54722 1.95324,5.39095 2.42203,5.23469 2.8908,5.00031 3.35958,4.76591 3.75023,4.4534 3.98461,4.06275 4.37527,3.82836 4.60966,3.4377 5.0003,3.20332 5.00031,2.65642 5.23469,2.34389 5.46908,2.03137 5.70348,1.71886 11.17255,2.18763 5.85973,0.54691 5.93786,0.15626 5.70348,-0.15626 z"
       id="path3797"
       style="fill:#58595b" />
    <path
       d="m 1191.364,446.07179 3.6721,-0.31252 11.1726,-2.18763 5.7035,-1.71886 5.4691,-2.03137 5.2347,-2.34389 5.0003,-2.65642 5.0003,-3.20332 4.6877,-3.4377 4.2972,-3.82836 3.9846,-4.06275 3.8284,-4.4534 3.2814,-4.76591 2.8908,-5.00031 2.422,-5.23469 1.9533,-5.39095 1.4063,-5.54722 0.8594,-5.7816 0.3126,-5.85973 -0.3126,-5.85973 -0.8594,-5.78161 -1.4063,-5.54721 -1.9533,-5.39095 -2.422,-5.2347 -2.8908,-5.0003 -3.2814,-4.76592 -3.8284,-4.45339 -3.9846,-4.06275 -4.2972,-3.82836 -4.6877,-3.43771 -5.0003,-3.12519 -5.0003,-2.73454 -5.2347,-2.34389 -5.4691,-2.03138 -5.7035,-1.71885 -11.1726,-2.18763 -3.6721,-0.31252 0,16.0166 3.4378,0.39065 5.5472,1.09381 5.3128,1.40634 5.4691,2.03137 5.2347,2.3439 4.9221,2.81267 4.5316,3.04706 4.5315,3.75023 3.9846,4.06274 3.5159,4.4534 2.9689,4.68779 2.422,5.07843 1.797,5.31282 1.0938,5.62535 0.3907,5.70347 -0.3907,5.70347 -1.0938,5.62534 -1.797,5.31283 -2.422,5.07843 -2.9689,4.68779 -3.5159,4.45339 -3.9846,4.06275 -4.5315,3.6721 -4.5316,3.12519 -4.9221,2.81267 -5.2347,2.34389 -5.4691,2.03138 -5.3128,1.40633 -5.5472,1.09382 -3.4378,0.39065 0,16.0166 z"
       id="path3949"
       style="fill:#58595b" />
    <path
       d="m 1191.364,446.07179 0,-16.0166 -2.2657,0.23426 -5.8597,0.23427 -5.7816,-0.23427 -5.7035,-0.62503 -5.5472,-1.09382 -5.3129,-1.40634 -5.469,-2.03137 -5.2347,-2.34389 -4.9222,-2.81267 -4.5315,-3.1252 -4.4534,-3.67209 -4.0628,-4.06275 -3.5158,-4.4534 -2.9689,-4.68778 -2.4221,-5.07844 -1.797,-5.31282 -1.0938,-5.62534 -0.3906,-5.70348 0.3906,-5.70347 1.0938,-5.62534 1.797,-5.31283 2.4221,-5.07843 2.9689,-4.68779 3.5158,-4.45339 4.0628,-4.06275 4.4534,-3.6721 4.5315,-3.12519 4.9222,-2.81267 5.2347,-2.34389 5.469,-2.03138 5.3129,-1.40633 5.5472,-1.09382 5.7035,-0.62504 5.7816,-0.23426 5.8597,0.23426 2.2657,0.23427 0,-16.0166 -2.1876,-0.23427 -5.9378,-0.15626 -5.8598,0.15626 -5.8597,0.54691 -11.1726,2.18763 -5.7034,1.71886 -5.4691,2.03137 -5.2347,2.3439 -5.0003,2.73454 -5.0003,3.12519 -4.6878,3.43771 -4.2971,3.82836 -3.9847,4.06274 -3.8283,4.4534 -3.2815,4.76591 -2.8908,5.00031 -2.422,5.23469 -1.9532,5.39096 -1.4064,5.54721 -0.8594,5.7816 -0.2343,5.85973 0.2343,5.85974 0.8594,5.7816 1.4064,5.54721 1.9532,5.39095 2.422,5.2347 2.8908,5.0003 3.2815,4.76592 3.8283,4.45339 3.9847,4.06275 4.2971,3.82836 4.6878,3.43771 5.0003,3.20332 5.0003,2.65641 5.2347,2.34389 5.4691,2.03138 5.7034,1.71885 11.1726,2.18764 5.8597,0.5469 5.8598,0.15626 5.9378,-0.15626 2.1876,-0.23426 z"
       id="path3801"
       style="fill:#58595b" />
    <path
       d="m 162.55137,446.46244 5.85974,-0.31252 7.57858,-0.70317 9.21931,-1.40633 10.00061,-2.3439 9.14119,-3.04706 9.14118,-4.06274 8.28175,-5.00031 3.90649,-2.96893 3.75023,-3.28145 5.85973,-6.40664 4.76592,-7.03168 3.67209,-7.65672 2.57829,-8.35988 1.40633,-8.28175 0.46878,-8.75054 -0.23426,-6.09412 -0.7813,-5.85973 -1.32821,-5.62534 -1.79698,-5.31283 -2.34389,-5.23469 -2.96894,-5.00031 -3.51583,-4.68778 -4.06275,-4.37527 -3.6721,-3.35958 -3.82836,-2.96893 -8.28175,-5.15656 -9.06306,-4.14088 -9.14118,-3.20332 -9.92248,-2.50015 -9.21931,-1.64073 -7.50046,-0.85942 -6.01599,-0.39065 -1.95324,-0.078 0,16.0166 2.73454,0.078 6.87542,0.62504 8.51614,1.25007 10.31313,2.3439 5.31283,1.64072 5.39095,2.03137 4.92217,2.3439 4.84405,2.65641 4.45339,3.12519 4.14088,3.59397 2.96893,3.20332 2.50016,3.43771 2.1095,3.59397 1.71885,3.90648 1.25008,3.82836 0.85943,4.06275 0.70316,8.75053 -0.15625,5.15657 -0.54691,4.84404 -1.01569,4.60966 -1.40634,4.37526 -1.87511,4.37527 -2.42202,4.14088 -2.8908,3.82836 -3.35958,3.59397 -4.21901,3.51583 -4.53153,3.1252 -4.84404,2.57828 -5.00031,2.26576 -5.39095,1.95324 -5.39095,1.5626 -10.39126,2.1095 -8.51614,1.09382 -6.87542,0.39065 -0.7813,0 0,16.09473 z"
       id="path3931"
       style="fill:#58595b" />
    <path
       d="m 162.55137,446.46244 0,-16.09473 -4.92217,0.078 -0.23427,-0.078 -0.93755,0 -20.31374,0 -20.31374,0 -12.42263,0 0,-16.0166 0,-24.06397 0,-24.06396 0,-24.06397 0,-16.09473 13.1258,0.078 21.17317,0.078 21.09503,0.078 0,-0.078 3.75023,0.15626 0,-16.0166 -4.06275,-0.078 -21.0169,-0.078 -20.93878,-0.078 -21.016905,-0.078 -8.047365,0 0,8.04736 0,24.06397 0,24.06397 0,24.06396 0,24.06397 0,24.06396 0,7.96924 7.969235,0 20.391865,0 20.31374,0 20.31374,0 5.85973,0.078 0.23426,0 z"
       id="path3805"
       style="fill:#58595b" />
    <path
       d="m 1462.7087,549.82811 7.8911,-0.31252 12.2664,-1.64072 12.1101,-2.8908 11.7976,-3.98462 11.2507,-5.00031 11.0163,-6.09412 6.5629,5.46909 6.016,4.53152 7.6567,4.68779 6.5629,2.65641 9.6881,2.1095 8.9068,0.70317 6.7191,0 0,-21.48568 -5.8597,-0.15626 -5.4691,-0.70317 -4.844,-1.17195 -4.2972,-1.56259 -3.9065,-1.87512 -3.5939,-2.26576 -3.2815,-2.50015 -2.8908,-2.73454 8.5162,-8.98493 7.5004,-9.21931 6.8754,-10.235 5.6254,-10.46938 4.6878,-11.32882 3.2814,-11.5632 2.0314,-11.87573 0.7032,-12.18824 -0.547,-12.3445 -1.5626,-11.95385 -2.8126,-12.03199 -3.9065,-11.48507 -5.0784,-11.09443 -6.1723,-10.54752 -7.1879,-9.76622 -8.2037,-9.21931 -7.5004,-7.18794 -7.9693,-6.40664 -8.5161,-5.70347 -9.063,-4.92217 -9.3756,-3.98462 -9.8444,-3.28145 -9.9224,-2.42202 -10.3132,-1.71886 -10.0787,-0.93756 -5.4691,-0.15625 0,21.48568 6.1723,0.31252 9.9224,1.3282 10.0006,2.42203 9.5319,3.35958 9.1412,4.37526 8.7505,5.39096 7.9692,6.01599 7.6567,7.03168 6.9536,7.57858 6.1722,7.96924 5.391,8.6724 4.3753,9.06305 3.3595,9.53183 2.4221,9.92248 1.4063,9.92248 0.4688,10.31313 -0.6251,10.07874 -1.7188,9.84435 -2.8127,9.53183 -3.9065,9.29744 -4.7659,8.67241 -5.7035,8.43801 -6.2503,7.65672 -6.9536,7.42232 -8.5161,-7.73484 -8.5943,-7.10981 -9.2193,-6.79729 -9.3756,-6.17225 -9.9225,-5.54721 -10.1568,-4.92218 -10.5476,-4.21901 -0.625,-0.23426 0,23.82958 9.9225,4.60965 10.1569,5.7816 9.9224,6.64103 9.2193,7.26607 8.9068,7.96924 -8.2036,4.60965 -8.5161,3.75023 -8.9068,2.96893 -9.1412,2.10951 -9.1412,1.17194 -4.219,0.15626 0,21.48569 z"
       id="path3967"
       style="fill:#00aeef" />
    <path
       d="m 1462.7087,549.82811 0,-21.48568 -5.3128,0.23426 -8.9068,-0.31252 -8.8287,-1.09381 -8.7505,-1.79699 -8.5943,-2.50015 -8.2817,-3.12519 -8.1255,-3.82836 -8.0474,-4.76592 -7.5005,-5.62534 -6.7972,-6.32851 -6.2504,-7.10981 -5.391,-7.50045 -4.844,-8.1255 8.9068,-3.04706 9.2974,-2.1095 9.2975,-1.17195 9.6099,-0.39065 11.9539,0.39065 11.6413,1.32821 11.6413,2.18763 11.3288,3.20332 11.0945,4.06275 0.8594,0.39065 0,-23.82958 -10.1569,-3.20332 -11.0163,-2.65641 -11.1725,-1.87512 -11.1726,-1.09381 -11.4069,-0.39065 -8.6724,0.23426 -8.5162,0.62504 -8.5161,1.17195 -8.438,1.56259 -8.2818,2.10951 -8.2036,2.57828 -1.797,-6.64103 -1.2501,-6.71916 -0.7813,-6.79729 -0.2342,-6.95355 0.4688,-10.31313 1.4063,-10.00061 2.422,-9.92248 3.4377,-9.53183 4.4534,-9.14118 5.4691,-8.6724 6.1723,-7.96924 7.0316,-7.57858 7.813,-7.03168 8.1255,-6.09412 8.9068,-5.39096 9.2974,-4.29713 9.7663,-3.35958 10.0787,-2.42203 10.0787,-1.3282 10.4694,-0.46878 4.219,0.15626 0,-21.48568 -5.0003,-0.15626 -12.5789,0.5469 -12.1882,1.5626 -12.2664,2.81267 -11.7976,3.90649 -11.3288,5.0003 -10.86,6.25038 -10.0788,7.10981 -9.5318,8.20363 -8.8287,9.14118 -7.6567,9.60996 -6.7191,10.62565 -5.391,11.17255 -4.1409,11.64134 -2.8908,12.26637 -1.6407,12.18824 -0.5469,12.65702 0.625,12.26637 1.7189,11.7976 3.0471,11.79759 4.3752,11.25069 5.4691,10.70377 6.7973,10.15687 7.5786,9.14118 8.6724,8.75054 9.6099,8.12549 10.0007,7.03168 10.86,6.17225 11.3288,5.00031 11.7195,3.90648 12.2663,2.73455 12.1102,1.56259 12.5788,0.54691 4.6878,-0.23426 z"
       id="path3811"
       style="fill:#00aeef" />
    <path
       d="m 1616.4297,307.8876 22.4032,0 0,20.20748 0,20.20748 -22.4032,0 0,-20.20748 0,-20.20748 0,0 m 0,62.97128 22.4032,0 0,21.93283 0,21.93032 0,21.93407 0,21.92986 0,21.9301 0,21.93289 0,21.93187 0,21.931 -22.4032,0 0,-21.93283 0,-21.93031 0,-21.93408 0,-21.92986 0,-21.93009 0,-21.9329 0,-21.93186 0,-21.93101 0,0"
       id="path3813"
       style="fill:#00aeef" />
  </g>
</svg>
