<?xml version="1.0" encoding="utf-8"?>
<!-- Generator: Adobe Illustrator 15.0.0, SVG Export Plug-In . SVG Version: 6.00 Build 0)  -->
<!DOCTYPE svg PUBLIC "-//W3C//DTD SVG 1.1//EN" "http://www.w3.org/Graphics/SVG/1.1/DTD/svg11.dtd">
<svg version="1.1" id="Layer_1" xmlns="http://www.w3.org/2000/svg" xmlns:xlink="http://www.w3.org/1999/xlink" x="0px" y="0px"
	 width="1977.333px" height="1894.256px" viewBox="0 0 1977.333 1894.256" enable-background="new 0 0 1977.333 1894.256"
	 xml:space="preserve">
<rect x="490.35" y="79.277" stroke="#000000" stroke-width="0.6862" width="456.094" height="242.188"/>
<g>
	<path fill="#D1D3D4" d="M628.677,212.798h0.992l2.354,6.736l2.353-6.736h0.903l2.359,6.767l2.359-6.767h0.979l-2.748,7.733h-1.221
		l-2.188-6.375l-2.175,6.375h-1.222L628.677,212.798z"/>
	<path fill="#D1D3D4" d="M650.904,212.788h0.909v1.313h-0.909V212.788z M650.904,214.833h0.909v5.698h-0.909V214.833z"/>
	<path fill="#D1D3D4" d="M662.575,220.531v-7.733h4.833v0.697h-3.866v2.793h3.714v0.697h-3.714v3.546H662.575z"/>
	<path fill="#D1D3D4" d="M677.8,212.788h0.909v1.313H677.8V212.788z M677.8,214.833h0.909v5.698H677.8V214.833z"/>
	<path fill="#D1D3D4" d="M699.572,218.404l4.308-5.606h1.06v5.627h0.807v0.697h-0.807v1.409h-0.895v-1.409h-4.473V218.404z
		 M700.602,218.425h3.443v-4.614L700.602,218.425z"/>
	<path fill="#D1D3D4" d="M723.019,212.798h5.038v0.697h-2.071v7.036h-0.895v-7.036h-2.072V212.798z"/>
	<path fill="#D1D3D4" d="M737.051,212.798h0.895v3.409h4.567v-3.409h0.895v7.733h-0.895v-3.627h-4.567v3.627h-0.895V212.798z"/>
	<path fill="#D1D3D4" d="M753.361,212.798h0.895v7.733h-0.895V212.798z"/>
	<path fill="#D1D3D4" d="M764.15,212.798h1.201l5.015,6.437v-6.437h0.895v7.733h-0.895l-5.321-6.827v6.827h-0.895V212.798z"/>
	<path fill="#D1D3D4" d="M789.725,214.874h-1.059c-0.381-0.516-0.84-0.894-1.378-1.135c-0.533-0.244-1.147-0.366-1.842-0.366
		c-1.048,0-1.946,0.327-2.696,0.981c-0.749,0.651-1.124,1.438-1.124,2.361c0,0.896,0.379,1.66,1.137,2.294
		c0.757,0.631,1.647,0.946,2.672,0.946c0.824,0,1.599-0.215,2.324-0.646c0.727-0.431,1.182-0.972,1.366-1.623h-4.956v-0.697h6.027
		c-0.063,1.031-0.558,1.899-1.483,2.604c-0.927,0.706-2.021,1.059-3.284,1.059c-1.264,0-2.362-0.394-3.296-1.181
		c-0.935-0.786-1.401-1.702-1.401-2.747c0-1.136,0.459-2.094,1.378-2.874c0.918-0.784,2.028-1.176,3.331-1.176
		c0.945,0,1.809,0.214,2.59,0.642C788.811,213.744,789.376,214.264,789.725,214.874z"/>
	<path fill="#D1D3D4" d="M799.914,218.374c0,0.435,0.165,0.808,0.494,1.119c0.334,0.309,0.781,0.463,1.342,0.463
		c0.487,0,0.915-0.137,1.283-0.412c0.369-0.277,0.554-0.661,0.554-1.149c0-0.343-0.138-0.651-0.412-0.926
		c-0.274-0.278-0.863-0.527-1.766-0.748c-1.405-0.343-2.107-1.006-2.107-1.989c0-0.607,0.243-1.101,0.729-1.48
		c0.491-0.383,1.093-0.575,1.808-0.575c0.702,0,1.287,0.207,1.754,0.621s0.7,0.912,0.7,1.496h-0.895c0-0.387-0.157-0.72-0.471-0.998
		c-0.311-0.281-0.683-0.422-1.118-0.422c-0.495,0-0.887,0.134-1.178,0.402c-0.29,0.268-0.436,0.588-0.436,0.961
		c0,0.326,0.13,0.598,0.389,0.814c0.263,0.214,0.809,0.417,1.637,0.61c1.506,0.353,2.26,1.103,2.26,2.249
		c0,0.634-0.267,1.166-0.801,1.597c-0.533,0.432-1.177,0.646-1.931,0.646c-0.792,0-1.445-0.21-1.96-0.631
		c-0.514-0.421-0.771-0.97-0.771-1.648H799.914z"/>
</g>
<g>
	<path fill="#5ABD74" d="M743.249,188.887l-14.146,14.146l-1.72-1.72l14.146-14.146L743.249,188.887z"/>
	<circle fill="#5ABD74" cx="728.243" cy="202.172" r="4.472"/>
	<circle fill="#5ABD74" cx="742.421" cy="187.995" r="4.472"/>
</g>
<g>
	<g>
		<path fill="#D1D3D4" d="M704.946,205.108h-1.95l-12.485-17.975l-0.001,17.975h-2.43v-20.004h3.961l11.946,17.163l12.005-17.163
			h3.901v20.004h-2.432v-17.975L704.946,205.108z"/>
		<path fill="#D1D3D4" d="M752.855,205.108h-2.429v-20.004h4.048l18.447,18.094v-18.094h2.432v20.004h-3.989l-18.509-18.184V205.108
			z"/>
	</g>
	<g>
		<path fill="#D1D3D4" d="M679.099,195.274c0,4.331-4.265,7.854-9.507,7.854c-5.241,0-9.506-3.523-9.506-7.854
			s4.265-7.854,9.506-7.854C674.834,187.42,679.099,190.943,679.099,195.274z M669.592,185.02c-6.565,0-11.906,4.601-11.906,10.255
			s5.341,10.255,11.906,10.255s11.907-4.601,11.907-10.255S676.157,185.02,669.592,185.02z"/>
	</g>
	<g>
		<path fill="#D1D3D4" d="M802.743,195.274c0,4.331-4.265,7.854-9.507,7.854c-5.241,0-9.506-3.523-9.506-7.854
			s4.265-7.854,9.506-7.854C798.479,187.42,802.743,190.943,802.743,195.274z M793.236,185.02c-6.565,0-11.906,4.601-11.906,10.255
			s5.341,10.255,11.906,10.255s11.907-4.601,11.907-10.255S799.802,185.02,793.236,185.02z"/>
	</g>
	<g>
		<path fill="#D1D3D4" d="M628.549,186.229v18.083v1.2h1.2h9.167c0.223,0.014,6.978,0.325,10.966-3.458
			c1.869-1.772,2.817-4.125,2.817-6.992c0-2.547-0.859-4.68-2.554-6.34c-3.841-3.763-10.635-3.669-10.922-3.663
			c0.028,0-9.471-0.03-9.471-0.03l-1.204-0.004V186.229z M639.272,187.46L639.272,187.46c0.06-0.002,6.086-0.075,9.199,2.982
			c1.229,1.208,1.827,2.719,1.827,4.62c0,2.21-0.675,3.926-2.063,5.245c-3.231,3.073-9.198,2.81-9.259,2.807l0.229,0.034
			l-0.144-0.036h-0.147h-9.167l1.2,1.2v-18.083l-1.204,1.2C629.745,187.43,639.244,187.46,639.272,187.46z"/>
	</g>
</g>
<rect x="34.258" y="79.277" fill="#FFFFFF" stroke="#000000" stroke-width="0.6862" width="456.092" height="242.188"/>
<g>
	<path fill="#58595B" d="M172.584,212.798h0.992l2.354,6.736l2.353-6.736h0.903l2.359,6.767l2.359-6.767h0.979l-2.748,7.733h-1.221
		l-2.188-6.375l-2.175,6.375h-1.222L172.584,212.798z"/>
	<path fill="#58595B" d="M194.812,212.788h0.909v1.313h-0.909V212.788z M194.812,214.833h0.909v5.698h-0.909V214.833z"/>
	<path fill="#58595B" d="M206.482,220.531v-7.733h4.833v0.697h-3.866v2.793h3.714v0.697h-3.714v3.546H206.482z"/>
	<path fill="#58595B" d="M221.707,212.788h0.909v1.313h-0.909V212.788z M221.707,214.833h0.909v5.698h-0.909V214.833z"/>
	<path fill="#58595B" d="M243.479,218.404l4.308-5.606h1.06v5.627h0.807v0.697h-0.807v1.409h-0.895v-1.409h-4.473V218.404z
		 M244.509,218.425h3.443v-4.614L244.509,218.425z"/>
	<path fill="#58595B" d="M266.926,212.798h5.038v0.697h-2.071v7.036h-0.895v-7.036h-2.072V212.798z"/>
	<path fill="#58595B" d="M280.958,212.798h0.895v3.409h4.567v-3.409h0.895v7.733h-0.895v-3.627h-4.567v3.627h-0.895V212.798z"/>
	<path fill="#58595B" d="M297.269,212.798h0.895v7.733h-0.895V212.798z"/>
	<path fill="#58595B" d="M308.058,212.798h1.201l5.015,6.437v-6.437h0.895v7.733h-0.895l-5.321-6.827v6.827h-0.895V212.798z"/>
	<path fill="#58595B" d="M333.632,214.874h-1.059c-0.381-0.516-0.84-0.894-1.378-1.135c-0.533-0.244-1.147-0.366-1.842-0.366
		c-1.048,0-1.946,0.327-2.696,0.981c-0.749,0.651-1.124,1.438-1.124,2.361c0,0.896,0.379,1.66,1.137,2.294
		c0.757,0.631,1.647,0.946,2.672,0.946c0.824,0,1.599-0.215,2.324-0.646c0.727-0.431,1.182-0.972,1.366-1.623h-4.956v-0.697h6.027
		c-0.063,1.031-0.558,1.899-1.483,2.604c-0.927,0.706-2.021,1.059-3.284,1.059c-1.264,0-2.362-0.394-3.296-1.181
		c-0.935-0.786-1.401-1.702-1.401-2.747c0-1.136,0.459-2.094,1.378-2.874c0.918-0.784,2.028-1.176,3.331-1.176
		c0.945,0,1.809,0.214,2.59,0.642C332.718,213.744,333.283,214.264,333.632,214.874z"/>
	<path fill="#58595B" d="M343.821,218.374c0,0.435,0.165,0.808,0.494,1.119c0.334,0.309,0.781,0.463,1.342,0.463
		c0.487,0,0.915-0.137,1.283-0.412c0.369-0.277,0.554-0.661,0.554-1.149c0-0.343-0.138-0.651-0.412-0.926
		c-0.274-0.278-0.863-0.527-1.766-0.748c-1.405-0.343-2.107-1.006-2.107-1.989c0-0.607,0.243-1.101,0.729-1.48
		c0.491-0.383,1.093-0.575,1.808-0.575c0.702,0,1.287,0.207,1.754,0.621s0.7,0.912,0.7,1.496h-0.895c0-0.387-0.157-0.72-0.471-0.998
		c-0.311-0.281-0.683-0.422-1.118-0.422c-0.495,0-0.887,0.134-1.178,0.402c-0.29,0.268-0.436,0.588-0.436,0.961
		c0,0.326,0.13,0.598,0.389,0.814c0.263,0.214,0.809,0.417,1.637,0.61c1.506,0.353,2.26,1.103,2.26,2.249
		c0,0.634-0.267,1.166-0.801,1.597c-0.533,0.432-1.177,0.646-1.931,0.646c-0.792,0-1.445-0.21-1.96-0.631
		c-0.514-0.421-0.771-0.97-0.771-1.648H343.821z"/>
</g>
<g>
	<path fill="#5ABD74" d="M287.156,188.887l-14.146,14.146l-1.72-1.72l14.146-14.146L287.156,188.887z"/>
	<circle fill="#5ABD74" cx="272.15" cy="202.172" r="4.472"/>
	<circle fill="#5ABD74" cx="286.328" cy="187.995" r="4.472"/>
</g>
<g>
	<g>
		<path fill="#58595B" d="M248.854,205.108h-1.95l-12.485-17.975l-0.001,17.975h-2.43v-20.004h3.961l11.946,17.163l12.005-17.163
			h3.901v20.004h-2.432v-17.975L248.854,205.108z"/>
		<path fill="#58595B" d="M296.763,205.108h-2.429v-20.004h4.048l18.447,18.094v-18.094h2.432v20.004h-3.989l-18.509-18.184V205.108
			z"/>
	</g>
	<g>
		<path fill="#58595B" d="M223.006,195.274c0,4.331-4.265,7.854-9.507,7.854c-5.241,0-9.506-3.523-9.506-7.854
			s4.265-7.854,9.506-7.854C218.741,187.42,223.006,190.943,223.006,195.274z M213.499,185.02c-6.565,0-11.906,4.601-11.906,10.255
			s5.341,10.255,11.906,10.255s11.907-4.601,11.907-10.255S220.064,185.02,213.499,185.02z"/>
	</g>
	<g>
		<path fill="#58595B" d="M346.65,195.274c0,4.331-4.265,7.854-9.507,7.854c-5.241,0-9.506-3.523-9.506-7.854
			s4.265-7.854,9.506-7.854C342.386,187.42,346.65,190.943,346.65,195.274z M337.144,185.02c-6.565,0-11.906,4.601-11.906,10.255
			s5.341,10.255,11.906,10.255s11.907-4.601,11.907-10.255S343.709,185.02,337.144,185.02z"/>
	</g>
	<g>
		<path fill="#58595B" d="M172.456,186.229v18.083v1.2h1.2h9.167c0.223,0.014,6.978,0.325,10.966-3.458
			c1.869-1.772,2.817-4.125,2.817-6.992c0-2.547-0.859-4.68-2.554-6.34c-3.841-3.763-10.635-3.669-10.922-3.663
			c0.028,0-9.471-0.03-9.471-0.03l-1.204-0.004V186.229z M183.18,187.46L183.18,187.46c0.06-0.002,6.086-0.075,9.199,2.982
			c1.229,1.208,1.827,2.719,1.827,4.62c0,2.21-0.675,3.926-2.063,5.245c-3.231,3.073-9.198,2.81-9.259,2.807l0.229,0.034
			l-0.144-0.036h-0.147h-9.167l1.2,1.2v-18.083l-1.204,1.2C173.652,187.43,183.151,187.46,183.18,187.46z"/>
	</g>
</g>
<rect x="34.258" y="324.465" fill="#FFFFFF" stroke="#000000" stroke-width="0.6632" width="456.093" height="242.188"/>
<g>
	<g>
		<path fill="#58595B" d="M131.604,457.986h0.992l2.354,6.736l2.353-6.736h0.903l2.359,6.767l2.359-6.767h0.979l-2.748,7.733h-1.221
			l-2.188-6.375l-2.175,6.375h-1.222L131.604,457.986z"/>
		<path fill="#58595B" d="M153.831,457.977h0.909v1.313h-0.909V457.977z M153.831,460.021h0.909v5.698h-0.909V460.021z"/>
		<path fill="#58595B" d="M165.502,465.72v-7.733h4.833v0.697h-3.866v2.793h3.714v0.697h-3.714v3.546H165.502z"/>
		<path fill="#58595B" d="M180.727,457.977h0.909v1.313h-0.909V457.977z M180.727,460.021h0.909v5.698h-0.909V460.021z"/>
		<path fill="#58595B" d="M202.499,463.593l4.308-5.606h1.06v5.627h0.807v0.697h-0.807v1.409h-0.895v-1.409h-4.473V463.593z
			 M203.528,463.613h3.443v-4.614L203.528,463.613z"/>
		<path fill="#58595B" d="M225.945,457.986h5.038v0.697h-2.071v7.036h-0.895v-7.036h-2.072V457.986z"/>
		<path fill="#58595B" d="M239.978,457.986h0.895v3.409h4.567v-3.409h0.895v7.733h-0.895v-3.627h-4.567v3.627h-0.895V457.986z"/>
		<path fill="#58595B" d="M256.288,457.986h0.895v7.733h-0.895V457.986z"/>
		<path fill="#58595B" d="M267.077,457.986h1.201l5.015,6.437v-6.437h0.895v7.733h-0.895l-5.321-6.827v6.827h-0.895V457.986z"/>
		<path fill="#58595B" d="M292.651,460.063h-1.059c-0.381-0.516-0.84-0.894-1.378-1.135c-0.533-0.244-1.147-0.366-1.842-0.366
			c-1.048,0-1.946,0.327-2.696,0.981c-0.749,0.651-1.124,1.438-1.124,2.361c0,0.896,0.379,1.66,1.137,2.294
			c0.757,0.631,1.647,0.946,2.672,0.946c0.824,0,1.599-0.215,2.324-0.646c0.727-0.431,1.182-0.972,1.366-1.623h-4.956v-0.697h6.027
			c-0.063,1.031-0.558,1.899-1.483,2.604c-0.927,0.706-2.021,1.059-3.284,1.059c-1.264,0-2.362-0.394-3.296-1.181
			c-0.935-0.786-1.401-1.702-1.401-2.747c0-1.136,0.459-2.094,1.378-2.874c0.918-0.784,2.028-1.176,3.331-1.176
			c0.945,0,1.809,0.214,2.59,0.642C291.737,458.933,292.303,459.452,292.651,460.063z"/>
		<path fill="#58595B" d="M302.841,463.563c0,0.435,0.165,0.808,0.494,1.119c0.334,0.309,0.781,0.463,1.342,0.463
			c0.487,0,0.915-0.137,1.283-0.412c0.369-0.277,0.554-0.661,0.554-1.149c0-0.343-0.138-0.651-0.412-0.926
			c-0.274-0.278-0.863-0.527-1.766-0.748c-1.405-0.343-2.107-1.006-2.107-1.989c0-0.607,0.243-1.101,0.729-1.48
			c0.491-0.383,1.093-0.575,1.808-0.575c0.702,0,1.287,0.207,1.754,0.621s0.7,0.912,0.7,1.496h-0.895
			c0-0.387-0.157-0.72-0.471-0.998c-0.311-0.281-0.683-0.422-1.118-0.422c-0.495,0-0.887,0.134-1.178,0.402
			c-0.29,0.268-0.436,0.588-0.436,0.961c0,0.326,0.13,0.598,0.389,0.814c0.263,0.214,0.809,0.417,1.637,0.61
			c1.506,0.353,2.26,1.103,2.26,2.249c0,0.634-0.267,1.166-0.801,1.597c-0.533,0.432-1.177,0.646-1.931,0.646
			c-0.792,0-1.445-0.21-1.96-0.631c-0.514-0.421-0.771-0.97-0.771-1.648H302.841z"/>
	</g>
	<g>
		<path fill="#5ABD74" d="M246.176,434.074l-14.146,14.146l-1.72-1.72l14.146-14.146L246.176,434.074z"/>
		<circle fill="#5ABD74" cx="231.17" cy="447.359" r="4.472"/>
		<circle fill="#5ABD74" cx="245.348" cy="433.183" r="4.472"/>
	</g>
	<g>
		<g>
			<path fill="#58595B" d="M207.873,450.296h-1.95l-12.485-17.975l-0.001,17.975h-2.43v-20.004h3.961l11.946,17.163l12.005-17.163
				h3.901v20.004h-2.432v-17.975L207.873,450.296z"/>
			<path fill="#58595B" d="M255.782,450.296h-2.429v-20.004h4.048l18.447,18.094v-18.094h2.432v20.004h-3.989l-18.509-18.184
				V450.296z"/>
		</g>
		<g>
			<path fill="#58595B" d="M182.025,440.462c0,4.331-4.265,7.854-9.507,7.854c-5.241,0-9.506-3.523-9.506-7.854
				s4.265-7.854,9.506-7.854C177.761,432.607,182.025,436.131,182.025,440.462z M172.519,430.207
				c-6.565,0-11.906,4.601-11.906,10.255s5.341,10.255,11.906,10.255s11.907-4.601,11.907-10.255S179.084,430.207,172.519,430.207z"
				/>
		</g>
		<g>
			<path fill="#58595B" d="M305.67,440.462c0,4.331-4.265,7.854-9.507,7.854c-5.241,0-9.506-3.523-9.506-7.854
				s4.265-7.854,9.506-7.854C301.405,432.607,305.67,436.131,305.67,440.462z M296.163,430.207c-6.565,0-11.906,4.601-11.906,10.255
				s5.341,10.255,11.906,10.255s11.907-4.601,11.907-10.255S302.729,430.207,296.163,430.207z"/>
		</g>
		<g>
			<path fill="#58595B" d="M131.476,431.417V449.5v1.2h1.2h9.167c0.223,0.014,6.978,0.325,10.966-3.458
				c1.869-1.772,2.817-4.125,2.817-6.992c0-2.547-0.859-4.68-2.554-6.34c-3.841-3.763-10.635-3.669-10.922-3.663
				c0.028,0-9.471-0.03-9.471-0.03l-1.204-0.004V431.417z M142.199,432.647L142.199,432.647c0.06-0.002,6.086-0.075,9.199,2.982
				c1.229,1.208,1.827,2.719,1.827,4.62c0,2.21-0.675,3.926-2.063,5.245c-3.231,3.073-9.198,2.81-9.259,2.807l0.229,0.034
				l-0.144-0.036h-0.147h-9.167l1.2,1.2v-18.083l-1.204,1.2C132.672,432.617,142.171,432.647,142.199,432.647z"/>
		</g>
	</g>
</g>
<g>
	<path fill="#D71920" d="M324.623,429.934h9.205h1.508c4.174,0,7.354,0.974,9.535,2.919c2.197,1.946,3.295,4.544,3.295,7.793
		c0,3.406-1.113,6.043-3.342,7.911s-5.533,2.802-9.912,2.802h-6.711v14.361h-3.578V429.934z M328.201,433.159v14.974h5.51h2.025
		c2.496,0,4.59-0.628,6.285-1.884c1.711-1.271,2.566-3.139,2.566-5.604c0-2.354-0.793-4.19-2.377-5.509
		c-1.57-1.318-4.012-1.978-7.322-1.978h-1.178H328.201z"/>
	<path fill="#D71920" d="M352.641,429.887h3.367v6.074h-3.367V429.887z M352.641,439.351h3.367v26.369h-3.367V439.351z"/>
</g>
<rect x="490.351" y="324.465" stroke="#000000" stroke-width="0.5" width="456.093" height="242.188"/>
<g>
	<path fill="#D1D3D4" d="M587.696,457.986h0.992l2.354,6.736l2.353-6.736h0.903l2.359,6.767l2.359-6.767h0.979l-2.748,7.733h-1.221
		l-2.188-6.375l-2.175,6.375h-1.222L587.696,457.986z"/>
	<path fill="#D1D3D4" d="M609.924,457.977h0.909v1.313h-0.909V457.977z M609.924,460.021h0.909v5.698h-0.909V460.021z"/>
	<path fill="#D1D3D4" d="M621.595,465.72v-7.733h4.833v0.697h-3.866v2.793h3.714v0.697h-3.714v3.546H621.595z"/>
	<path fill="#D1D3D4" d="M636.819,457.977h0.909v1.313h-0.909V457.977z M636.819,460.021h0.909v5.698h-0.909V460.021z"/>
	<path fill="#D1D3D4" d="M658.592,463.593l4.308-5.606h1.06v5.627h0.807v0.697h-0.807v1.409h-0.895v-1.409h-4.473V463.593z
		 M659.621,463.613h3.443v-4.614L659.621,463.613z"/>
	<path fill="#D1D3D4" d="M682.038,457.986h5.038v0.697h-2.071v7.036h-0.895v-7.036h-2.072V457.986z"/>
	<path fill="#D1D3D4" d="M696.07,457.986h0.895v3.409h4.567v-3.409h0.895v7.733h-0.895v-3.627h-4.567v3.627h-0.895V457.986z"/>
	<path fill="#D1D3D4" d="M712.381,457.986h0.895v7.733h-0.895V457.986z"/>
	<path fill="#D1D3D4" d="M723.17,457.986h1.201l5.015,6.437v-6.437h0.895v7.733h-0.895l-5.321-6.827v6.827h-0.895V457.986z"/>
	<path fill="#D1D3D4" d="M748.744,460.063h-1.059c-0.381-0.516-0.84-0.894-1.378-1.135c-0.533-0.244-1.147-0.366-1.842-0.366
		c-1.048,0-1.946,0.327-2.696,0.981c-0.749,0.651-1.124,1.438-1.124,2.361c0,0.896,0.379,1.66,1.137,2.294
		c0.757,0.631,1.647,0.946,2.672,0.946c0.824,0,1.599-0.215,2.324-0.646c0.727-0.431,1.182-0.972,1.366-1.623h-4.956v-0.697h6.027
		c-0.063,1.031-0.558,1.899-1.483,2.604c-0.927,0.706-2.021,1.059-3.284,1.059c-1.264,0-2.362-0.394-3.296-1.181
		c-0.935-0.786-1.401-1.702-1.401-2.747c0-1.136,0.459-2.094,1.378-2.874c0.918-0.784,2.028-1.176,3.331-1.176
		c0.945,0,1.809,0.214,2.59,0.642C747.83,458.933,748.396,459.452,748.744,460.063z"/>
	<path fill="#D1D3D4" d="M758.934,463.563c0,0.435,0.165,0.808,0.494,1.119c0.334,0.309,0.781,0.463,1.342,0.463
		c0.487,0,0.915-0.137,1.283-0.412c0.369-0.277,0.554-0.661,0.554-1.149c0-0.343-0.138-0.651-0.412-0.926
		c-0.274-0.278-0.863-0.527-1.766-0.748c-1.405-0.343-2.107-1.006-2.107-1.989c0-0.607,0.243-1.101,0.729-1.48
		c0.491-0.383,1.093-0.575,1.808-0.575c0.702,0,1.287,0.207,1.754,0.621s0.7,0.912,0.7,1.496h-0.895c0-0.387-0.157-0.72-0.471-0.998
		c-0.311-0.281-0.683-0.422-1.118-0.422c-0.495,0-0.887,0.134-1.178,0.402c-0.29,0.268-0.436,0.588-0.436,0.961
		c0,0.326,0.13,0.598,0.389,0.814c0.263,0.214,0.809,0.417,1.637,0.61c1.506,0.353,2.26,1.103,2.26,2.249
		c0,0.634-0.267,1.166-0.801,1.597c-0.533,0.432-1.177,0.646-1.931,0.646c-0.792,0-1.445-0.21-1.96-0.631
		c-0.514-0.421-0.771-0.97-0.771-1.648H758.934z"/>
</g>
<g>
	<path fill="#5ABD74" d="M702.269,434.074l-14.146,14.146l-1.72-1.72l14.146-14.146L702.269,434.074z"/>
	<circle fill="#5ABD74" cx="687.263" cy="447.359" r="4.472"/>
	<circle fill="#5ABD74" cx="701.44" cy="433.183" r="4.472"/>
</g>
<g>
	<g>
		<path fill="#D1D3D4" d="M663.966,450.296h-1.95l-12.485-17.975l-0.001,17.975h-2.43v-20.004h3.961l11.946,17.163l12.005-17.163
			h3.901v20.004h-2.432v-17.975L663.966,450.296z"/>
		<path fill="#D1D3D4" d="M711.875,450.296h-2.429v-20.004h4.048l18.447,18.094v-18.094h2.432v20.004h-3.989l-18.509-18.184V450.296
			z"/>
	</g>
	<g>
		<path fill="#D1D3D4" d="M638.118,440.462c0,4.331-4.265,7.854-9.507,7.854c-5.241,0-9.506-3.523-9.506-7.854
			s4.265-7.854,9.506-7.854C633.854,432.607,638.118,436.131,638.118,440.462z M628.611,430.207
			c-6.565,0-11.906,4.601-11.906,10.255s5.341,10.255,11.906,10.255s11.907-4.601,11.907-10.255S635.177,430.207,628.611,430.207z"
			/>
	</g>
	<g>
		<path fill="#D1D3D4" d="M761.763,440.462c0,4.331-4.265,7.854-9.507,7.854c-5.241,0-9.506-3.523-9.506-7.854
			s4.265-7.854,9.506-7.854C757.498,432.607,761.763,436.131,761.763,440.462z M752.256,430.207
			c-6.565,0-11.906,4.601-11.906,10.255s5.341,10.255,11.906,10.255s11.907-4.601,11.907-10.255S758.821,430.207,752.256,430.207z"
			/>
	</g>
	<g>
		<path fill="#D1D3D4" d="M587.568,431.417V449.5v1.2h1.2h9.167c0.223,0.014,6.978,0.325,10.966-3.458
			c1.869-1.772,2.817-4.125,2.817-6.992c0-2.547-0.859-4.68-2.554-6.34c-3.841-3.763-10.635-3.669-10.922-3.663
			c0.028,0-9.471-0.03-9.471-0.03l-1.204-0.004V431.417z M598.292,432.647L598.292,432.647c0.06-0.002,6.086-0.075,9.199,2.982
			c1.229,1.208,1.827,2.719,1.827,4.62c0,2.21-0.675,3.926-2.063,5.245c-3.231,3.073-9.198,2.81-9.259,2.807l0.229,0.034
			l-0.144-0.036h-0.147h-9.167l1.2,1.2v-18.083l-1.204,1.2C588.765,432.617,598.264,432.647,598.292,432.647z"/>
	</g>
</g>
<g>
	<path fill="#D71920" d="M780.717,429.934h9.205h1.506c4.176,0,7.354,0.974,9.535,2.919c2.197,1.946,3.297,4.544,3.297,7.793
		c0,3.406-1.115,6.043-3.344,7.911s-5.533,2.802-9.912,2.802h-6.709v14.361h-3.578V429.934z M784.295,433.159v14.974h5.51h2.023
		c2.496,0,4.592-0.628,6.287-1.884c1.711-1.271,2.566-3.139,2.566-5.604c0-2.354-0.793-4.19-2.379-5.509
		c-1.57-1.318-4.01-1.978-7.322-1.978h-1.176H784.295z"/>
	<path fill="#D71920" d="M808.732,429.887h3.367v6.074h-3.367V429.887z M808.732,439.351h3.367v26.369h-3.367V439.351z"/>
</g>
<rect x="34.258" y="569.652" fill="#FFFFFF" stroke="#000000" stroke-width="0.6632" width="456.093" height="242.188"/>
<g>
	<g>
		<path fill="#58595B" d="M131.604,703.174h0.992l2.354,6.736l2.353-6.736h0.903l2.359,6.767l2.359-6.767h0.979l-2.748,7.733h-1.221
			l-2.188-6.375l-2.175,6.375h-1.222L131.604,703.174z"/>
		<path fill="#58595B" d="M153.831,703.164h0.909v1.313h-0.909V703.164z M153.831,705.209h0.909v5.698h-0.909V705.209z"/>
		<path fill="#58595B" d="M165.502,710.907v-7.733h4.833v0.697h-3.866v2.793h3.714v0.697h-3.714v3.546H165.502z"/>
		<path fill="#58595B" d="M180.727,703.164h0.909v1.313h-0.909V703.164z M180.727,705.209h0.909v5.698h-0.909V705.209z"/>
		<path fill="#58595B" d="M202.499,708.78l4.308-5.606h1.06v5.627h0.807v0.697h-0.807v1.409h-0.895v-1.409h-4.473V708.78z
			 M203.528,708.801h3.443v-4.614L203.528,708.801z"/>
		<path fill="#58595B" d="M225.945,703.174h5.038v0.697h-2.071v7.036h-0.895v-7.036h-2.072V703.174z"/>
		<path fill="#58595B" d="M239.978,703.174h0.895v3.409h4.567v-3.409h0.895v7.733h-0.895v-3.627h-4.567v3.627h-0.895V703.174z"/>
		<path fill="#58595B" d="M256.288,703.174h0.895v7.733h-0.895V703.174z"/>
		<path fill="#58595B" d="M267.077,703.174h1.201l5.015,6.437v-6.437h0.895v7.733h-0.895l-5.321-6.827v6.827h-0.895V703.174z"/>
		<path fill="#58595B" d="M292.651,705.25h-1.059c-0.381-0.516-0.84-0.894-1.378-1.135c-0.533-0.244-1.147-0.366-1.842-0.366
			c-1.048,0-1.946,0.327-2.696,0.981c-0.749,0.651-1.124,1.438-1.124,2.361c0,0.896,0.379,1.66,1.137,2.294
			c0.757,0.631,1.647,0.946,2.672,0.946c0.824,0,1.599-0.215,2.324-0.646c0.727-0.431,1.182-0.972,1.366-1.623h-4.956v-0.697h6.027
			c-0.063,1.031-0.558,1.899-1.483,2.604c-0.927,0.706-2.021,1.059-3.284,1.059c-1.264,0-2.362-0.394-3.296-1.181
			c-0.935-0.786-1.401-1.702-1.401-2.747c0-1.136,0.459-2.094,1.378-2.874c0.918-0.784,2.028-1.176,3.331-1.176
			c0.945,0,1.809,0.214,2.59,0.642C291.737,704.12,292.303,704.64,292.651,705.25z"/>
		<path fill="#58595B" d="M302.841,708.75c0,0.435,0.165,0.808,0.494,1.119c0.334,0.309,0.781,0.463,1.342,0.463
			c0.487,0,0.915-0.137,1.283-0.412c0.369-0.277,0.554-0.661,0.554-1.149c0-0.343-0.138-0.651-0.412-0.926
			c-0.274-0.278-0.863-0.527-1.766-0.748c-1.405-0.343-2.107-1.006-2.107-1.989c0-0.607,0.243-1.101,0.729-1.48
			c0.491-0.383,1.093-0.575,1.808-0.575c0.702,0,1.287,0.207,1.754,0.621s0.7,0.912,0.7,1.496h-0.895
			c0-0.387-0.157-0.72-0.471-0.998c-0.311-0.281-0.683-0.422-1.118-0.422c-0.495,0-0.887,0.134-1.178,0.402
			c-0.29,0.268-0.436,0.588-0.436,0.961c0,0.326,0.13,0.598,0.389,0.814c0.263,0.214,0.809,0.417,1.637,0.61
			c1.506,0.353,2.26,1.103,2.26,2.249c0,0.634-0.267,1.166-0.801,1.597c-0.533,0.432-1.177,0.646-1.931,0.646
			c-0.792,0-1.445-0.21-1.96-0.631c-0.514-0.421-0.771-0.97-0.771-1.648H302.841z"/>
	</g>
	<g>
		<path fill="#5ABD74" d="M246.176,679.262l-14.146,14.146l-1.72-1.72l14.146-14.146L246.176,679.262z"/>
		<circle fill="#5ABD74" cx="231.17" cy="692.547" r="4.472"/>
		<circle fill="#5ABD74" cx="245.348" cy="678.37" r="4.472"/>
	</g>
	<g>
		<g>
			<path fill="#58595B" d="M207.873,695.483h-1.95l-12.485-17.975l-0.001,17.975h-2.43v-20.004h3.961l11.946,17.163l12.005-17.163
				h3.901v20.004h-2.432v-17.975L207.873,695.483z"/>
			<path fill="#58595B" d="M255.782,695.483h-2.429v-20.004h4.048l18.447,18.094v-18.094h2.432v20.004h-3.989L255.782,677.3V695.483
				z"/>
		</g>
		<g>
			<path fill="#58595B" d="M182.025,685.649c0,4.331-4.265,7.854-9.507,7.854c-5.241,0-9.506-3.523-9.506-7.854
				s4.265-7.854,9.506-7.854C177.761,677.795,182.025,681.318,182.025,685.649z M172.519,675.395
				c-6.565,0-11.906,4.601-11.906,10.255s5.341,10.255,11.906,10.255s11.907-4.601,11.907-10.255S179.084,675.395,172.519,675.395z"
				/>
		</g>
		<g>
			<path fill="#58595B" d="M305.67,685.649c0,4.331-4.265,7.854-9.507,7.854c-5.241,0-9.506-3.523-9.506-7.854
				s4.265-7.854,9.506-7.854C301.405,677.795,305.67,681.318,305.67,685.649z M296.163,675.395c-6.565,0-11.906,4.601-11.906,10.255
				s5.341,10.255,11.906,10.255s11.907-4.601,11.907-10.255S302.729,675.395,296.163,675.395z"/>
		</g>
		<g>
			<path fill="#58595B" d="M131.476,676.604v18.083v1.2h1.2h9.167c0.223,0.014,6.978,0.325,10.966-3.458
				c1.869-1.772,2.817-4.125,2.817-6.992c0-2.547-0.859-4.68-2.554-6.34c-3.841-3.763-10.635-3.669-10.922-3.663
				c0.028,0-9.471-0.03-9.471-0.03l-1.204-0.004V676.604z M142.199,677.835L142.199,677.835c0.06-0.002,6.086-0.075,9.199,2.982
				c1.229,1.208,1.827,2.719,1.827,4.62c0,2.21-0.675,3.926-2.063,5.245c-3.231,3.073-9.198,2.81-9.259,2.807l0.229,0.034
				l-0.144-0.036h-0.147h-9.167l1.2,1.2v-18.083l-1.204,1.2C132.672,677.805,142.171,677.835,142.199,677.835z"/>
		</g>
	</g>
</g>
<g>
	<g>
		<path fill="#00AEEF" d="M356.718,693.391c0,4.74-1.962,9.041-5.886,12.902c0.549,0.581,1.232,1.052,2.048,1.412
			c0.816,0.361,1.845,0.542,3.085,0.542v3.226h-1.013c-0.848,0-1.781-0.142-2.802-0.424c-1.021-0.283-2.362-1.154-4.025-2.613
			c-3.281,2.024-6.836,3.037-10.666,3.037c-5.242,0-9.778-1.758-13.607-5.274c-3.83-3.531-5.745-7.832-5.745-12.901
			c0-5.415,1.892-9.889,5.674-13.42c3.799-3.547,8.343-5.321,13.632-5.321c5.776,0,10.438,1.845,13.985,5.533
			C354.944,683.762,356.718,688.195,356.718,693.391z M353.14,693.32c0-4.285-1.53-7.942-4.592-10.972
			c-3.045-3.045-6.718-4.567-11.018-4.567c-4.38,0-8.115,1.522-11.207,4.567c-3.093,3.046-4.638,6.71-4.638,10.995
			c0,1.397,0.203,2.755,0.611,4.073c2.401-0.832,4.937-1.248,7.604-1.248c6.813,0,12.918,2.605,18.317,7.816
			C351.499,700.721,353.14,697.166,353.14,693.32z M345.394,705.986c-4.6-4.395-9.943-6.592-16.033-6.592
			c-2.01,0-3.869,0.338-5.58,1.013c1.444,2.668,3.391,4.646,5.839,5.933c2.464,1.271,5.046,1.907,7.746,1.907
			C340.3,708.247,342.977,707.493,345.394,705.986z"/>
		<path fill="#00AEEF" d="M361.262,675.074h3.367v6.074h-3.367V675.074z M361.262,684.538h3.367v26.369h-3.367V684.538z"/>
	</g>
</g>
<rect x="490.351" y="569.652" stroke="#000000" stroke-width="0.5" width="456.093" height="242.188"/>
<g>
	<path fill="#D1D3D4" d="M587.696,703.174h0.992l2.354,6.736l2.353-6.736h0.903l2.359,6.767l2.359-6.767h0.979l-2.748,7.733h-1.221
		l-2.188-6.375l-2.175,6.375h-1.222L587.696,703.174z"/>
	<path fill="#D1D3D4" d="M609.924,703.164h0.909v1.313h-0.909V703.164z M609.924,705.209h0.909v5.698h-0.909V705.209z"/>
	<path fill="#D1D3D4" d="M621.595,710.907v-7.733h4.833v0.697h-3.866v2.793h3.714v0.697h-3.714v3.546H621.595z"/>
	<path fill="#D1D3D4" d="M636.819,703.164h0.909v1.313h-0.909V703.164z M636.819,705.209h0.909v5.698h-0.909V705.209z"/>
	<path fill="#D1D3D4" d="M658.592,708.78l4.308-5.606h1.06v5.627h0.807v0.697h-0.807v1.409h-0.895v-1.409h-4.473V708.78z
		 M659.621,708.801h3.443v-4.614L659.621,708.801z"/>
	<path fill="#D1D3D4" d="M682.038,703.174h5.038v0.697h-2.071v7.036h-0.895v-7.036h-2.072V703.174z"/>
	<path fill="#D1D3D4" d="M696.07,703.174h0.895v3.409h4.567v-3.409h0.895v7.733h-0.895v-3.627h-4.567v3.627h-0.895V703.174z"/>
	<path fill="#D1D3D4" d="M712.381,703.174h0.895v7.733h-0.895V703.174z"/>
	<path fill="#D1D3D4" d="M723.17,703.174h1.201l5.015,6.437v-6.437h0.895v7.733h-0.895l-5.321-6.827v6.827h-0.895V703.174z"/>
	<path fill="#D1D3D4" d="M748.744,705.25h-1.059c-0.381-0.516-0.84-0.894-1.378-1.135c-0.533-0.244-1.147-0.366-1.842-0.366
		c-1.048,0-1.946,0.327-2.696,0.981c-0.749,0.651-1.124,1.438-1.124,2.361c0,0.896,0.379,1.66,1.137,2.294
		c0.757,0.631,1.647,0.946,2.672,0.946c0.824,0,1.599-0.215,2.324-0.646c0.727-0.431,1.182-0.972,1.366-1.623h-4.956v-0.697h6.027
		c-0.063,1.031-0.558,1.899-1.483,2.604c-0.927,0.706-2.021,1.059-3.284,1.059c-1.264,0-2.362-0.394-3.296-1.181
		c-0.935-0.786-1.401-1.702-1.401-2.747c0-1.136,0.459-2.094,1.378-2.874c0.918-0.784,2.028-1.176,3.331-1.176
		c0.945,0,1.809,0.214,2.59,0.642C747.83,704.12,748.396,704.64,748.744,705.25z"/>
	<path fill="#D1D3D4" d="M758.934,708.75c0,0.435,0.165,0.808,0.494,1.119c0.334,0.309,0.781,0.463,1.342,0.463
		c0.487,0,0.915-0.137,1.283-0.412c0.369-0.277,0.554-0.661,0.554-1.149c0-0.343-0.138-0.651-0.412-0.926
		c-0.274-0.278-0.863-0.527-1.766-0.748c-1.405-0.343-2.107-1.006-2.107-1.989c0-0.607,0.243-1.101,0.729-1.48
		c0.491-0.383,1.093-0.575,1.808-0.575c0.702,0,1.287,0.207,1.754,0.621s0.7,0.912,0.7,1.496h-0.895c0-0.387-0.157-0.72-0.471-0.998
		c-0.311-0.281-0.683-0.422-1.118-0.422c-0.495,0-0.887,0.134-1.178,0.402c-0.29,0.268-0.436,0.588-0.436,0.961
		c0,0.326,0.13,0.598,0.389,0.814c0.263,0.214,0.809,0.417,1.637,0.61c1.506,0.353,2.26,1.103,2.26,2.249
		c0,0.634-0.267,1.166-0.801,1.597c-0.533,0.432-1.177,0.646-1.931,0.646c-0.792,0-1.445-0.21-1.96-0.631
		c-0.514-0.421-0.771-0.97-0.771-1.648H758.934z"/>
</g>
<g>
	<path fill="#5ABD74" d="M702.269,679.262l-14.146,14.146l-1.72-1.72l14.146-14.146L702.269,679.262z"/>
	<circle fill="#5ABD74" cx="687.263" cy="692.547" r="4.472"/>
	<circle fill="#5ABD74" cx="701.44" cy="678.37" r="4.472"/>
</g>
<g>
	<g>
		<path fill="#D1D3D4" d="M663.966,695.483h-1.95l-12.485-17.975l-0.001,17.975h-2.43v-20.004h3.961l11.946,17.163l12.005-17.163
			h3.901v20.004h-2.432v-17.975L663.966,695.483z"/>
		<path fill="#D1D3D4" d="M711.875,695.483h-2.429v-20.004h4.048l18.447,18.094v-18.094h2.432v20.004h-3.989L711.875,677.3V695.483z
			"/>
	</g>
	<g>
		<path fill="#D1D3D4" d="M638.118,685.649c0,4.331-4.265,7.854-9.507,7.854c-5.241,0-9.506-3.523-9.506-7.854
			s4.265-7.854,9.506-7.854C633.854,677.795,638.118,681.318,638.118,685.649z M628.611,675.395
			c-6.565,0-11.906,4.601-11.906,10.255s5.341,10.255,11.906,10.255s11.907-4.601,11.907-10.255S635.177,675.395,628.611,675.395z"
			/>
	</g>
	<g>
		<path fill="#D1D3D4" d="M761.763,685.649c0,4.331-4.265,7.854-9.507,7.854c-5.241,0-9.506-3.523-9.506-7.854
			s4.265-7.854,9.506-7.854C757.498,677.795,761.763,681.318,761.763,685.649z M752.256,675.395
			c-6.565,0-11.906,4.601-11.906,10.255s5.341,10.255,11.906,10.255s11.907-4.601,11.907-10.255S758.821,675.395,752.256,675.395z"
			/>
	</g>
	<g>
		<path fill="#D1D3D4" d="M587.568,676.604v18.083v1.2h1.2h9.167c0.223,0.014,6.978,0.325,10.966-3.458
			c1.869-1.772,2.817-4.125,2.817-6.992c0-2.547-0.859-4.68-2.554-6.34c-3.841-3.763-10.635-3.669-10.922-3.663
			c0.028,0-9.471-0.03-9.471-0.03l-1.204-0.004V676.604z M598.292,677.835L598.292,677.835c0.06-0.002,6.086-0.075,9.199,2.982
			c1.229,1.208,1.827,2.719,1.827,4.62c0,2.21-0.675,3.926-2.063,5.245c-3.231,3.073-9.198,2.81-9.259,2.807l0.229,0.034
			l-0.144-0.036h-0.147h-9.167l1.2,1.2v-18.083l-1.204,1.2C588.765,677.805,598.264,677.835,598.292,677.835z"/>
	</g>
</g>
<g>
	<g>
		<path fill="#00AEEF" d="M813.811,693.391c0,4.74-1.962,9.041-5.886,12.902c0.549,0.581,1.232,1.052,2.048,1.412
			c0.816,0.361,1.845,0.542,3.085,0.542v3.226h-1.013c-0.848,0-1.781-0.142-2.802-0.424c-1.021-0.283-2.362-1.154-4.025-2.613
			c-3.281,2.024-6.836,3.037-10.666,3.037c-5.242,0-9.778-1.758-13.607-5.274c-3.83-3.531-5.745-7.832-5.745-12.901
			c0-5.415,1.892-9.889,5.674-13.42c3.799-3.547,8.343-5.321,13.632-5.321c5.776,0,10.438,1.845,13.985,5.533
			C812.037,683.762,813.811,688.195,813.811,693.391z M810.232,693.32c0-4.285-1.53-7.942-4.592-10.972
			c-3.045-3.045-6.718-4.567-11.018-4.567c-4.38,0-8.115,1.522-11.207,4.567c-3.093,3.046-4.638,6.71-4.638,10.995
			c0,1.397,0.203,2.755,0.611,4.073c2.401-0.832,4.937-1.248,7.604-1.248c6.813,0,12.918,2.605,18.317,7.816
			C808.592,700.721,810.232,697.166,810.232,693.32z M802.486,705.986c-4.6-4.395-9.943-6.592-16.033-6.592
			c-2.01,0-3.869,0.338-5.58,1.013c1.444,2.668,3.391,4.646,5.839,5.933c2.464,1.271,5.046,1.907,7.746,1.907
			C797.393,708.247,800.069,707.493,802.486,705.986z"/>
		<path fill="#00AEEF" d="M818.354,675.074h3.367v6.074h-3.367V675.074z M818.354,684.538h3.367v26.369h-3.367V684.538z"/>
	</g>
</g>
<rect x="34.258" y="814.84" fill="#FFFFFF" stroke="#000000" stroke-width="0.6632" width="456.093" height="242.188"/>
<g>
	<g>
		<path fill="#58595B" d="M131.604,948.361h0.992l2.354,6.736l2.353-6.736h0.903l2.359,6.767l2.359-6.767h0.979l-2.748,7.733h-1.221
			l-2.188-6.375l-2.175,6.375h-1.222L131.604,948.361z"/>
		<path fill="#58595B" d="M153.831,948.352h0.909v1.313h-0.909V948.352z M153.831,950.396h0.909v5.698h-0.909V950.396z"/>
		<path fill="#58595B" d="M165.502,956.095v-7.733h4.833v0.697h-3.866v2.793h3.714v0.697h-3.714v3.546H165.502z"/>
		<path fill="#58595B" d="M180.727,948.352h0.909v1.313h-0.909V948.352z M180.727,950.396h0.909v5.698h-0.909V950.396z"/>
		<path fill="#58595B" d="M202.499,953.968l4.308-5.606h1.06v5.627h0.807v0.697h-0.807v1.409h-0.895v-1.409h-4.473V953.968z
			 M203.528,953.988h3.443v-4.614L203.528,953.988z"/>
		<path fill="#58595B" d="M225.945,948.361h5.038v0.697h-2.071v7.036h-0.895v-7.036h-2.072V948.361z"/>
		<path fill="#58595B" d="M239.978,948.361h0.895v3.409h4.567v-3.409h0.895v7.733h-0.895v-3.627h-4.567v3.627h-0.895V948.361z"/>
		<path fill="#58595B" d="M256.288,948.361h0.895v7.733h-0.895V948.361z"/>
		<path fill="#58595B" d="M267.077,948.361h1.201l5.015,6.437v-6.437h0.895v7.733h-0.895l-5.321-6.827v6.827h-0.895V948.361z"/>
		<path fill="#58595B" d="M292.651,950.438h-1.059c-0.381-0.516-0.84-0.894-1.378-1.135c-0.533-0.244-1.147-0.366-1.842-0.366
			c-1.048,0-1.946,0.327-2.696,0.981c-0.749,0.651-1.124,1.438-1.124,2.361c0,0.896,0.379,1.66,1.137,2.294
			c0.757,0.631,1.647,0.946,2.672,0.946c0.824,0,1.599-0.215,2.324-0.646c0.727-0.431,1.182-0.972,1.366-1.623h-4.956v-0.697h6.027
			c-0.063,1.031-0.558,1.899-1.483,2.604c-0.927,0.706-2.021,1.059-3.284,1.059c-1.264,0-2.362-0.394-3.296-1.181
			c-0.935-0.786-1.401-1.702-1.401-2.747c0-1.136,0.459-2.094,1.378-2.874c0.918-0.784,2.028-1.176,3.331-1.176
			c0.945,0,1.809,0.214,2.59,0.642C291.737,949.308,292.303,949.827,292.651,950.438z"/>
		<path fill="#58595B" d="M302.841,953.938c0,0.435,0.165,0.808,0.494,1.119c0.334,0.309,0.781,0.463,1.342,0.463
			c0.487,0,0.915-0.137,1.283-0.412c0.369-0.277,0.554-0.661,0.554-1.149c0-0.343-0.138-0.651-0.412-0.926
			c-0.274-0.278-0.863-0.527-1.766-0.748c-1.405-0.343-2.107-1.006-2.107-1.989c0-0.607,0.243-1.101,0.729-1.48
			c0.491-0.383,1.093-0.575,1.808-0.575c0.702,0,1.287,0.207,1.754,0.621s0.7,0.912,0.7,1.496h-0.895
			c0-0.387-0.157-0.72-0.471-0.998c-0.311-0.281-0.683-0.422-1.118-0.422c-0.495,0-0.887,0.134-1.178,0.402
			c-0.29,0.268-0.436,0.588-0.436,0.961c0,0.326,0.13,0.598,0.389,0.814c0.263,0.214,0.809,0.417,1.637,0.61
			c1.506,0.353,2.26,1.103,2.26,2.249c0,0.634-0.267,1.166-0.801,1.597c-0.533,0.432-1.177,0.646-1.931,0.646
			c-0.792,0-1.445-0.21-1.96-0.631c-0.514-0.421-0.771-0.97-0.771-1.648H302.841z"/>
	</g>
	<g>
		<path fill="#5ABD74" d="M246.176,924.449l-14.146,14.146l-1.72-1.72l14.146-14.146L246.176,924.449z"/>
		<circle fill="#5ABD74" cx="231.17" cy="937.734" r="4.472"/>
		<circle fill="#5ABD74" cx="245.348" cy="923.558" r="4.472"/>
	</g>
	<g>
		<g>
			<path fill="#58595B" d="M207.873,940.671h-1.95l-12.485-17.975l-0.001,17.975h-2.43v-20.004h3.961l11.946,17.163l12.005-17.163
				h3.901v20.004h-2.432v-17.975L207.873,940.671z"/>
			<path fill="#58595B" d="M255.782,940.671h-2.429v-20.004h4.048l18.447,18.094v-18.094h2.432v20.004h-3.989l-18.509-18.184
				V940.671z"/>
		</g>
		<g>
			<path fill="#58595B" d="M182.025,930.837c0,4.331-4.265,7.854-9.507,7.854c-5.241,0-9.506-3.523-9.506-7.854
				s4.265-7.854,9.506-7.854C177.761,922.982,182.025,926.506,182.025,930.837z M172.519,920.582
				c-6.565,0-11.906,4.601-11.906,10.255s5.341,10.255,11.906,10.255s11.907-4.601,11.907-10.255S179.084,920.582,172.519,920.582z"
				/>
		</g>
		<g>
			<path fill="#58595B" d="M305.67,930.837c0,4.331-4.265,7.854-9.507,7.854c-5.241,0-9.506-3.523-9.506-7.854
				s4.265-7.854,9.506-7.854C301.405,922.982,305.67,926.506,305.67,930.837z M296.163,920.582c-6.565,0-11.906,4.601-11.906,10.255
				s5.341,10.255,11.906,10.255s11.907-4.601,11.907-10.255S302.729,920.582,296.163,920.582z"/>
		</g>
		<g>
			<path fill="#58595B" d="M131.476,921.792v18.083v1.2h1.2h9.167c0.223,0.014,6.978,0.325,10.966-3.458
				c1.869-1.772,2.817-4.125,2.817-6.992c0-2.547-0.859-4.68-2.554-6.34c-3.841-3.763-10.635-3.669-10.922-3.663
				c0.028,0-9.471-0.03-9.471-0.03l-1.204-0.004V921.792z M142.199,923.022L142.199,923.022c0.06-0.002,6.086-0.075,9.199,2.982
				c1.229,1.208,1.827,2.719,1.827,4.62c0,2.21-0.675,3.926-2.063,5.245c-3.231,3.073-9.198,2.81-9.259,2.807l0.229,0.034
				l-0.144-0.036h-0.147h-9.167l1.2,1.2v-18.083l-1.204,1.2C132.672,922.992,142.171,923.022,142.199,923.022z"/>
		</g>
	</g>
</g>
<g>
	<g>
		<path fill="#8DC63F" d="M349.443,946.865h4.002c-4.159,6.53-9.574,9.795-16.245,9.795c-5.242,0-9.716-1.773-13.42-5.321
			c-3.704-3.547-5.556-7.832-5.556-12.854c0-5.306,1.828-9.755,5.485-13.35c3.673-3.594,8.106-5.392,13.302-5.392
			c3.375,0,6.537,0.903,9.488,2.708s5.141,4.167,6.568,7.086h-4.002c-1.351-1.961-3.147-3.547-5.392-4.755
			c-2.245-1.209-4.458-1.813-6.64-1.813c-4.206,0-7.801,1.515-10.782,4.544c-2.967,3.014-4.45,6.655-4.45,10.925
			c0,4.033,1.522,7.542,4.567,10.523c3.061,2.982,6.687,4.474,10.877,4.474C341.94,953.435,346.006,951.245,349.443,946.865z"/>
		<path fill="#8DC63F" d="M357.354,943.028c0-3.846,1.326-7.134,3.979-9.865c2.668-2.746,5.886-4.12,9.652-4.12
			c3.924,0,7.212,1.374,9.865,4.12c2.652,2.731,3.979,6.02,3.979,9.865c0,3.657-1.357,6.867-4.073,9.629
			c-2.699,2.747-5.956,4.12-9.771,4.12c-3.657,0-6.844-1.326-9.559-3.979C358.711,950.131,357.354,946.874,357.354,943.028z
			 M360.721,943.075c0,2.872,0.988,5.368,2.966,7.486c1.979,2.119,4.419,3.179,7.322,3.179c2.872,0,5.329-1.027,7.369-3.084
			c2.057-2.072,3.084-4.599,3.084-7.581c0-3.312-1.027-5.972-3.084-7.981c-2.04-2.009-4.497-3.014-7.369-3.014
			c-2.684,0-5.069,1.036-7.157,3.108C361.764,937.244,360.721,939.873,360.721,943.075z"/>
		<path fill="#8DC63F" d="M390.032,956.095v-26.369h3.367v3.885c0.832-1.663,1.828-2.841,2.99-3.531
			c1.177-0.69,2.691-1.036,4.544-1.036v3.508c-2.418,0.11-4.277,0.919-5.58,2.426c-1.303,1.491-1.954,3.413-1.954,5.768v15.351
			H390.032z"/>
		<path fill="#8DC63F" d="M406.631,944.158c0.016,2.401,1.06,4.599,3.131,6.592c2.072,1.994,4.521,2.99,7.346,2.99
			c1.507,0,3.179-0.479,5.015-1.436c1.853-0.974,3.265-2.621,4.238-4.944h3.579c-1.209,3.029-2.982,5.36-5.321,6.992
			c-2.323,1.617-4.818,2.425-7.487,2.425c-3.908,0-7.196-1.381-9.864-4.144c-2.669-2.778-4.003-5.98-4.003-9.605
			c0-3.782,1.287-7.056,3.861-9.818c2.574-2.777,5.901-4.167,9.982-4.167c3.642,0,6.82,1.351,9.535,4.05
			c2.731,2.699,4.097,6.051,4.097,10.053v1.013H406.631z M406.678,941.121h20.695c-0.519-2.872-1.759-5.093-3.72-6.663
			c-1.963-1.585-4.145-2.378-6.546-2.378c-2.777,0-5.172,0.918-7.181,2.755C407.918,936.671,406.835,938.767,406.678,941.121z"/>
	</g>
</g>
<rect x="490.351" y="814.84" stroke="#000000" stroke-width="0.5" width="456.093" height="242.188"/>
<g>
	<path fill="#D1D3D4" d="M587.696,948.361h0.992l2.354,6.736l2.353-6.736h0.903l2.359,6.767l2.359-6.767h0.979l-2.748,7.733h-1.221
		l-2.188-6.375l-2.175,6.375h-1.222L587.696,948.361z"/>
	<path fill="#D1D3D4" d="M609.924,948.352h0.909v1.313h-0.909V948.352z M609.924,950.396h0.909v5.698h-0.909V950.396z"/>
	<path fill="#D1D3D4" d="M621.595,956.095v-7.733h4.833v0.697h-3.866v2.793h3.714v0.697h-3.714v3.546H621.595z"/>
	<path fill="#D1D3D4" d="M636.819,948.352h0.909v1.313h-0.909V948.352z M636.819,950.396h0.909v5.698h-0.909V950.396z"/>
	<path fill="#D1D3D4" d="M658.592,953.968l4.308-5.606h1.06v5.627h0.807v0.697h-0.807v1.409h-0.895v-1.409h-4.473V953.968z
		 M659.621,953.988h3.443v-4.614L659.621,953.988z"/>
	<path fill="#D1D3D4" d="M682.038,948.361h5.038v0.697h-2.071v7.036h-0.895v-7.036h-2.072V948.361z"/>
	<path fill="#D1D3D4" d="M696.07,948.361h0.895v3.409h4.567v-3.409h0.895v7.733h-0.895v-3.627h-4.567v3.627h-0.895V948.361z"/>
	<path fill="#D1D3D4" d="M712.381,948.361h0.895v7.733h-0.895V948.361z"/>
	<path fill="#D1D3D4" d="M723.17,948.361h1.201l5.015,6.437v-6.437h0.895v7.733h-0.895l-5.321-6.827v6.827h-0.895V948.361z"/>
	<path fill="#D1D3D4" d="M748.744,950.438h-1.059c-0.381-0.516-0.84-0.894-1.378-1.135c-0.533-0.244-1.147-0.366-1.842-0.366
		c-1.048,0-1.946,0.327-2.696,0.981c-0.749,0.651-1.124,1.438-1.124,2.361c0,0.896,0.379,1.66,1.137,2.294
		c0.757,0.631,1.647,0.946,2.672,0.946c0.824,0,1.599-0.215,2.324-0.646c0.727-0.431,1.182-0.972,1.366-1.623h-4.956v-0.697h6.027
		c-0.063,1.031-0.558,1.899-1.483,2.604c-0.927,0.706-2.021,1.059-3.284,1.059c-1.264,0-2.362-0.394-3.296-1.181
		c-0.935-0.786-1.401-1.702-1.401-2.747c0-1.136,0.459-2.094,1.378-2.874c0.918-0.784,2.028-1.176,3.331-1.176
		c0.945,0,1.809,0.214,2.59,0.642C747.83,949.308,748.396,949.827,748.744,950.438z"/>
	<path fill="#D1D3D4" d="M758.934,953.938c0,0.435,0.165,0.808,0.494,1.119c0.334,0.309,0.781,0.463,1.342,0.463
		c0.487,0,0.915-0.137,1.283-0.412c0.369-0.277,0.554-0.661,0.554-1.149c0-0.343-0.138-0.651-0.412-0.926
		c-0.274-0.278-0.863-0.527-1.766-0.748c-1.405-0.343-2.107-1.006-2.107-1.989c0-0.607,0.243-1.101,0.729-1.48
		c0.491-0.383,1.093-0.575,1.808-0.575c0.702,0,1.287,0.207,1.754,0.621s0.7,0.912,0.7,1.496h-0.895c0-0.387-0.157-0.72-0.471-0.998
		c-0.311-0.281-0.683-0.422-1.118-0.422c-0.495,0-0.887,0.134-1.178,0.402c-0.29,0.268-0.436,0.588-0.436,0.961
		c0,0.326,0.13,0.598,0.389,0.814c0.263,0.214,0.809,0.417,1.637,0.61c1.506,0.353,2.26,1.103,2.26,2.249
		c0,0.634-0.267,1.166-0.801,1.597c-0.533,0.432-1.177,0.646-1.931,0.646c-0.792,0-1.445-0.21-1.96-0.631
		c-0.514-0.421-0.771-0.97-0.771-1.648H758.934z"/>
</g>
<g>
	<path fill="#5ABD74" d="M702.269,924.449l-14.146,14.146l-1.72-1.72l14.146-14.146L702.269,924.449z"/>
	<circle fill="#5ABD74" cx="687.263" cy="937.734" r="4.472"/>
	<circle fill="#5ABD74" cx="701.44" cy="923.558" r="4.472"/>
</g>
<g>
	<g>
		<path fill="#D1D3D4" d="M663.966,940.671h-1.95l-12.485-17.975l-0.001,17.975h-2.43v-20.004h3.961l11.946,17.163l12.005-17.163
			h3.901v20.004h-2.432v-17.975L663.966,940.671z"/>
		<path fill="#D1D3D4" d="M711.875,940.671h-2.429v-20.004h4.048l18.447,18.094v-18.094h2.432v20.004h-3.989l-18.509-18.184V940.671
			z"/>
	</g>
	<g>
		<path fill="#D1D3D4" d="M638.118,930.837c0,4.331-4.265,7.854-9.507,7.854c-5.241,0-9.506-3.523-9.506-7.854
			s4.265-7.854,9.506-7.854C633.854,922.982,638.118,926.506,638.118,930.837z M628.611,920.582
			c-6.565,0-11.906,4.601-11.906,10.255s5.341,10.255,11.906,10.255s11.907-4.601,11.907-10.255S635.177,920.582,628.611,920.582z"
			/>
	</g>
	<g>
		<path fill="#D1D3D4" d="M761.763,930.837c0,4.331-4.265,7.854-9.507,7.854c-5.241,0-9.506-3.523-9.506-7.854
			s4.265-7.854,9.506-7.854C757.498,922.982,761.763,926.506,761.763,930.837z M752.256,920.582
			c-6.565,0-11.906,4.601-11.906,10.255s5.341,10.255,11.906,10.255s11.907-4.601,11.907-10.255S758.821,920.582,752.256,920.582z"
			/>
	</g>
	<g>
		<path fill="#D1D3D4" d="M587.568,921.792v18.083v1.2h1.2h9.167c0.223,0.014,6.978,0.325,10.966-3.458
			c1.869-1.772,2.817-4.125,2.817-6.992c0-2.547-0.859-4.68-2.554-6.34c-3.841-3.763-10.635-3.669-10.922-3.663
			c0.028,0-9.471-0.03-9.471-0.03l-1.204-0.004V921.792z M598.292,923.022L598.292,923.022c0.06-0.002,6.086-0.075,9.199,2.982
			c1.229,1.208,1.827,2.719,1.827,4.62c0,2.21-0.675,3.926-2.063,5.245c-3.231,3.073-9.198,2.81-9.259,2.807l0.229,0.034
			l-0.144-0.036h-0.147h-9.167l1.2,1.2v-18.083l-1.204,1.2C588.765,922.992,598.264,923.022,598.292,923.022z"/>
	</g>
</g>
<g>
	<g>
		<path fill="#8DC63F" d="M806.536,946.865h4.002c-4.159,6.53-9.574,9.795-16.245,9.795c-5.242,0-9.716-1.773-13.42-5.321
			c-3.704-3.547-5.556-7.832-5.556-12.854c0-5.306,1.828-9.755,5.485-13.35c3.673-3.594,8.106-5.392,13.302-5.392
			c3.375,0,6.537,0.903,9.488,2.708s5.141,4.167,6.568,7.086h-4.002c-1.351-1.961-3.147-3.547-5.392-4.755
			c-2.245-1.209-4.458-1.813-6.64-1.813c-4.206,0-7.801,1.515-10.782,4.544c-2.967,3.014-4.45,6.655-4.45,10.925
			c0,4.033,1.522,7.542,4.567,10.523c3.061,2.982,6.687,4.474,10.877,4.474C799.033,953.435,803.099,951.245,806.536,946.865z"/>
		<path fill="#8DC63F" d="M814.446,943.028c0-3.846,1.326-7.134,3.979-9.865c2.668-2.746,5.886-4.12,9.652-4.12
			c3.924,0,7.212,1.374,9.865,4.12c2.652,2.731,3.979,6.02,3.979,9.865c0,3.657-1.357,6.867-4.073,9.629
			c-2.699,2.747-5.956,4.12-9.771,4.12c-3.657,0-6.844-1.326-9.559-3.979C815.804,950.131,814.446,946.874,814.446,943.028z
			 M817.813,943.075c0,2.872,0.988,5.368,2.966,7.486c1.979,2.119,4.419,3.179,7.322,3.179c2.872,0,5.329-1.027,7.369-3.084
			c2.057-2.072,3.084-4.599,3.084-7.581c0-3.312-1.027-5.972-3.084-7.981c-2.04-2.009-4.497-3.014-7.369-3.014
			c-2.684,0-5.069,1.036-7.157,3.108C818.856,937.244,817.813,939.873,817.813,943.075z"/>
		<path fill="#8DC63F" d="M847.125,956.095v-26.369h3.367v3.885c0.832-1.663,1.828-2.841,2.99-3.531
			c1.177-0.69,2.691-1.036,4.544-1.036v3.508c-2.418,0.11-4.277,0.919-5.58,2.426c-1.303,1.491-1.954,3.413-1.954,5.768v15.351
			H847.125z"/>
		<path fill="#8DC63F" d="M863.724,944.158c0.016,2.401,1.06,4.599,3.131,6.592c2.072,1.994,4.521,2.99,7.346,2.99
			c1.507,0,3.179-0.479,5.015-1.436c1.853-0.974,3.265-2.621,4.238-4.944h3.579c-1.209,3.029-2.982,5.36-5.321,6.992
			c-2.323,1.617-4.818,2.425-7.487,2.425c-3.908,0-7.196-1.381-9.864-4.144c-2.669-2.778-4.003-5.98-4.003-9.605
			c0-3.782,1.287-7.056,3.861-9.818c2.574-2.777,5.901-4.167,9.982-4.167c3.642,0,6.82,1.351,9.535,4.05
			c2.731,2.699,4.097,6.051,4.097,10.053v1.013H863.724z M863.771,941.121h20.695c-0.519-2.872-1.759-5.093-3.72-6.663
			c-1.963-1.585-4.145-2.378-6.546-2.378c-2.777,0-5.172,0.918-7.181,2.755C865.011,936.671,863.928,938.767,863.771,941.121z"/>
	</g>
</g>
</svg>
