<?xml version="1.0" encoding="UTF-8" standalone="no"?>
<!-- Created with Inkscape (http://www.inkscape.org/) -->

<svg
   xmlns:dc="http://purl.org/dc/elements/1.1/"
   xmlns:cc="http://creativecommons.org/ns#"
   xmlns:rdf="http://www.w3.org/1999/02/22-rdf-syntax-ns#"
   xmlns:svg="http://www.w3.org/2000/svg"
   xmlns="http://www.w3.org/2000/svg"
   version="1.1"
   width="210mm"
   height="297mm"
   id="svg3908">
  <defs
     id="defs3910" />
  <metadata
     id="metadata3913">
    <rdf:RDF>
      <cc:Work
         rdf:about="">
        <dc:format>image/svg+xml</dc:format>
        <dc:type
           rdf:resource="http://purl.org/dc/dcmitype/StillImage" />
        <dc:title></dc:title>
      </cc:Work>
    </rdf:RDF>
  </metadata>
  <g
     id="layer1">
    <path
       d="m 325.0431,535.84722 0.33148,0 0.78659,2.25085 0.78626,-2.25085 0.30174,0 0.78827,2.26121 0.78826,-2.26121 0.32714,0 -0.91825,2.584 -0.408,0 -0.73113,-2.13022 -0.72678,2.13022 -0.40833,0 -0.91725,-2.584 0,0"
       id="path3883"
       style="fill:#58595b" />
    <path
       d="m 332.4703,535.84422 0.30374,0 0,0.43874 -0.30374,0 0,-0.43874 0,0 m 0,0.683 0.30374,0 0,1.904 -0.30374,0 0,-1.904 0,0"
       id="path3885"
       style="fill:#58595b" />
    <path
       d="m 336.37019,538.43156 0,-2.584 1.61495,0 0,0.2329 -1.29183,0 0,0.93329 1.24104,0 0,0.2329 -1.24104,0 0,1.18491 -0.32312,0 0,0"
       id="path3887"
       style="fill:#58595b" />
    <path
       d="m 341.45765,535.84422 0.30374,0 0,0.43874 -0.30374,0 0,-0.43874 0,0 m 0,0.683 0.30374,0 0,1.904 -0.30374,0 0,-1.904 0,0"
       id="path3889"
       style="fill:#58595b" />
    <path
       d="m 349.65625,537.96875 0.5625,0 0,0.46875 0.3125,0 0,-0.46875 0.25,0 0,-0.25 -0.25,0 0,-1.875 -0.34375,0 -0.53125,0.6875 0,0.40625 0.5625,-0.75 0,1.53125 -0.5625,0 0,0.25 z"
       id="path4107"
       style="fill:#58595b" />
    <path
       d="m 349.65625,537.96875 0,-0.25 -0.59375,0 0.59375,-0.78125 0,-0.40625 -0.9375,1.1875 0,0.25 0.9375,0 z"
       id="path3891"
       style="fill:#58595b" />
    <path
       d="m 356.56734,535.84722 1.68345,0 0,0.23291 -0.69203,0 0,2.35109 -0.29906,0 0,-2.35109 -0.69236,0 0,-0.23291 0,0"
       id="path3893"
       style="fill:#58595b" />
    <path
       d="m 361.25649,535.84722 0.29907,0 0,1.13913 1.52607,0 0,-1.13913 0.29907,0 0,2.584 -0.29907,0 0,-1.21197 -1.52607,0 0,1.21197 -0.29907,0 0,-2.584 0,0"
       id="path3895"
       style="fill:#58595b" />
    <path
       d="m 366.70651,535.84722 0.29907,0 0,2.584 -0.29907,0 0,-2.584 0,0"
       id="path3897"
       style="fill:#58595b" />
    <path
       d="m 370.31168,535.84722 0.40131,0 1.67578,2.15094 0,-2.15094 0.29906,0 0,2.584 -0.29906,0 -1.77803,-2.28125 0,2.28125 -0.29906,0 0,-2.584 0,0"
       id="path3899"
       style="fill:#58595b" />
    <path
       d="m 378.85728,536.54126 -0.35387,0 -0.10037,-0.12067 -0.11018,-0.10342 -0.12002,-0.0862 -0.12989,-0.069 -0.13865,-0.0535 -0.1488,-0.0382 -0.15896,-0.0229 -0.1691,-0.008 -0.25326,0.0205 -0.23452,0.0615 -0.21585,0.10243 -0.19724,0.14342 -0.16427,0.17167 -0.11738,0.18871 -0.0704,0.20576 -0.0235,0.22279 0.0238,0.21629 0.0712,0.19981 0.11873,0.1834 0.16622,0.16705 0.19806,0.13834 0.21479,0.0988 0.23158,0.0592 0.24843,0.0197 0.20343,-0.0135 0.19726,-0.0404 0.19106,-0.0675 0.18482,-0.0945 0.16516,-0.11491 0.1311,-0.12869 0.0971,-0.14247 0.0631,-0.15626 -1.65606,0 0,-0.2329 2.01394,0 -0.0429,0.24817 -0.0969,0.22774 -0.15091,0.20732 -0.20486,0.1869 -0.24279,0.15482 -0.26379,0.11058 -0.28483,0.0664 -0.30595,0.0221 -0.30639,-0.0247 -0.28564,-0.074 -0.26497,-0.12333 -0.24436,-0.17261 -0.20495,-0.20512 -0.14629,-0.22138 -0.0512,-0.11678 -0.0365,-0.12083 -0.0292,-0.2538 0.0288,-0.27355 0.036,-0.12841 0.0504,-0.12283 0.0647,-0.11725 0.0791,-0.11168 0.2015,-0.20663 0.2421,-0.17192 0.26619,-0.12281 0.29031,-0.0737 0.31446,-0.0246 0.23175,0.0134 0.22153,0.0402 0.21126,0.067 0.20092,0.0939 0.18205,0.11297 0.1551,0.1244 0.12805,0.13587 0.10085,0.14737 0,0"
       id="path3901"
       style="fill:#58595b" />
    <path
       d="m 382.26229,537.71079 0.0103,0.10513 0.031,0.0974 0.0516,0.0896 0.0722,0.0818 0.0908,0.0677 0.10498,0.0483 0.1192,0.029 0.13346,0.01 0.11835,-0.009 0.11092,-0.0258 0.10347,-0.043 0.096,-0.0603 0.0809,-0.0761 0.0579,-0.0894 0.0347,-0.10263 0.0116,-0.11576 -0.009,-0.0838 -0.0259,-0.0795 -0.043,-0.0752 -0.0601,-0.071 -0.0884,-0.0679 -0.12783,-0.0643 -0.16724,-0.0607 -0.20662,-0.0571 -0.16505,-0.048 -0.14303,-0.058 -0.12101,-0.068 -0.099,-0.0781 -0.077,-0.0881 -0.055,-0.0981 -0.033,-0.10814 -0.011,-0.11816 0.0152,-0.14503 0.0457,-0.13081 0.0761,-0.11653 0.10657,-0.10218 0.13002,-0.084 0.14399,-0.0601 0.15802,-0.036 0.17212,-0.012 0.1686,0.013 0.1539,0.0389 0.13918,0.0648 0.12442,0.0908 0.10238,0.10903 0.0731,0.11962 0.0438,0.13027 0.0146,0.14098 -0.29907,0 -0.01,-0.0936 -0.0295,-0.0868 -0.0492,-0.08 -0.0688,-0.0731 -0.0818,-0.0617 -0.0895,-0.0441 -0.0973,-0.0265 -0.10508,-0.009 -0.11761,0.008 -0.10477,0.0252 -0.092,0.042 -0.0793,0.0588 -0.0636,0.0705 -0.0455,0.077 -0.0274,0.0835 -0.009,0.0902 0.008,0.0783 0.0244,0.0715 0.0406,0.0646 0.0568,0.0576 0.0836,0.0529 0.11907,0.0516 0.3443,0.0993 0.17693,0.0504 0.15337,0.0629 0.12979,0.0753 0.10621,0.0877 0.0826,0.10016 0.059,0.11257 0.0354,0.12499 0.0118,0.1374 -0.0167,0.1525 -0.0502,0.13976 -0.0836,0.12703 -0.1171,0.11435 -0.14053,0.0946 -0.15441,0.0674 -0.16825,0.0404 -0.18206,0.0134 -0.18978,-0.0132 -0.1724,-0.0395 -0.15504,-0.0659 -0.13772,-0.0923 -0.11271,-0.11353 -0.0805,-0.12961 -0.0483,-0.1457 -0.0161,-0.16184 0.2994,0 0,0"
       id="path3903"
       style="fill:#58595b" />
    <path
       d="m 363.32757,527.85698 -4.72692,4.72692 -0.57474,-0.57475 4.72691,-4.72691 0.57475,0.57474 0,0"
       id="path3907"
       style="fill:#5abd74" />
    <path
       d="m 235.642,937.73401 -0.0231,0.45724 -0.0678,0.44402 -0.11019,0.42858 -0.15038,0.41087 -0.18832,0.39091 -0.224,0.36872 -0.25744,0.34427 -0.28863,0.31757 -0.31757,0.28863 -0.34427,0.25744 -0.36872,0.224 -0.39091,0.18832 -0.41087,0.15038 -0.42858,0.11019 -0.44402,0.0678 -0.45724,0.0231 -0.45724,-0.0231 -0.44402,-0.0678 -0.42858,-0.11019 -0.41087,-0.15038 -0.39091,-0.18832 -0.36872,-0.224 -0.34427,-0.25744 -0.31757,-0.28863 -0.28863,-0.31757 -0.25744,-0.34427 -0.224,-0.36872 -0.18832,-0.39091 -0.15038,-0.41087 -0.11019,-0.42858 -0.0678,-0.44402 -0.0231,-0.45724 0.0231,-0.45724 0.0678,-0.44402 0.11019,-0.42858 0.15038,-0.41087 0.18832,-0.39091 0.224,-0.36872 0.25744,-0.34427 0.28863,-0.31757 0.31757,-0.28863 0.34427,-0.25744 0.36872,-0.224 0.39091,-0.18832 0.41087,-0.15038 0.42858,-0.11019 0.44402,-0.0678 0.45724,-0.0231 0.45724,0.0231 0.44402,0.0678 0.42858,0.11019 0.41087,0.15038 0.39091,0.18832 0.36872,0.224 0.34427,0.25744 0.31757,0.28863 0.28863,0.31757 0.25744,0.34427 0.224,0.36872 0.18832,0.39091 0.15038,0.41087 0.11019,0.42858 0.0678,0.44402 0.0231,0.45724 0,0"
       transform="matrix(0.33415201,0,0,0.33415201,281.06736,218.95048)"
       id="circle3909"
       style="fill:#5abd74" />
    <path
       d="m 249.82001,923.55798 -0.0231,0.45724 -0.0678,0.44402 -0.11019,0.42858 -0.15038,0.41087 -0.18832,0.39091 -0.224,0.36872 -0.25744,0.34427 -0.28863,0.31757 -0.31758,0.28863 -0.34427,0.25744 -0.36871,0.224 -0.39092,0.18832 -0.41087,0.15038 -0.42857,0.11019 -0.44403,0.0678 -0.45723,0.0231 -0.45724,-0.0231 -0.44402,-0.0678 -0.42858,-0.11019 -0.41087,-0.15038 -0.39091,-0.18832 -0.36872,-0.224 -0.34427,-0.25744 -0.31757,-0.28863 -0.28863,-0.31757 -0.25744,-0.34427 -0.224,-0.36872 -0.18832,-0.39091 -0.15038,-0.41087 -0.11019,-0.42858 -0.0678,-0.44402 -0.0231,-0.45724 0.0231,-0.45723 0.0678,-0.44403 0.11019,-0.42857 0.15038,-0.41087 0.18832,-0.39092 0.224,-0.36871 0.25744,-0.34427 0.28863,-0.31758 0.31757,-0.28863 0.34427,-0.25744 0.36872,-0.224 0.39091,-0.18832 0.41087,-0.15038 0.42858,-0.11019 0.44402,-0.0678 0.45724,-0.0231 0.45723,0.0231 0.44403,0.0678 0.42857,0.11019 0.41087,0.15038 0.39092,0.18832 0.36871,0.224 0.34427,0.25744 0.31758,0.28863 0.28863,0.31758 0.25744,0.34427 0.224,0.36871 0.18832,0.39092 0.15038,0.41087 0.11019,0.42857 0.0678,0.44403 0.0231,0.45723 0,0"
       transform="matrix(0.33415201,0,0,0.33415201,281.06736,218.95048)"
       id="circle3911"
       style="fill:#5abd74" />
    <path
       d="m 350.52854,533.2776 -0.6516,0 -4.17188,-6.00639 -3.4e-4,6.00639 -0.81199,0 0,-6.68438 1.32358,0 3.99178,5.73505 4.01149,-5.73505 1.30353,0 0,6.68438 -0.81266,0 0,-6.00639 -4.18191,6.00639 0,0"
       id="path3917"
       style="fill:#58595b" />
    <path
       d="m 366.53743,533.2776 -0.81166,0 0,-6.68438 1.35265,0 6.1641,6.04615 0,-6.04615 0.81266,0 0,6.68438 -1.33293,0 -6.18482,-6.07622 0,6.07622 0,0"
       id="path3919"
       style="fill:#58595b" />
    <path
       d="m 339.4375,533.34375 0.0937,0 0.375,-0.0937 0.34375,-0.0937 0.375,-0.15625 0.3125,-0.15625 0.3125,-0.21875 0.28125,-0.21875 0.25,-0.25 0.21875,-0.25 0.21875,-0.28125 0.15625,-0.3125 0.125,-0.3125 0.125,-0.3125 0.0625,-0.34375 0,-0.34375 0,-0.34375 -0.0625,-0.34375 -0.125,-0.34375 -0.125,-0.3125 -0.15625,-0.28125 -0.21875,-0.3125 -0.21875,-0.25 -0.25,-0.25 -0.28125,-0.21875 -0.3125,-0.1875 -0.3125,-0.1875 -0.375,-0.125 -0.34375,-0.125 -0.375,-0.0937 -0.0937,0 0,0.8125 0.21875,0.0625 0.28125,0.0625 0.28125,0.125 0.28125,0.125 0.21875,0.15625 0.25,0.15625 0.1875,0.1875 0.1875,0.21875 0.15625,0.21875 0.15625,0.21875 0.0937,0.25 0.0625,0.25 0.0625,0.25 0.0312,0.28125 -0.0312,0.25 -0.0625,0.28125 -0.0625,0.25 -0.0937,0.21875 -0.15625,0.25 -0.15625,0.21875 -0.1875,0.1875 -0.1875,0.1875 -0.25,0.1875 -0.21875,0.125 -0.28125,0.15625 -0.28125,0.0937 -0.28125,0.0937 -0.21875,0.0312 0,0.8125 z"
       id="path4089"
       style="fill:#58595b" />
    <path
       d="m 339.4375,533.34375 0,-0.8125 -0.0937,0.0312 -0.3125,0.0312 -0.3125,0.0312 -0.34375,-0.0312 -0.3125,-0.0312 -0.28125,-0.0625 -0.3125,-0.0937 -0.28125,-0.0937 -0.25,-0.15625 -0.25,-0.125 -0.21875,-0.1875 -0.21875,-0.1875 -0.15625,-0.1875 -0.15625,-0.21875 -0.15625,-0.25 -0.0937,-0.21875 -0.0937,-0.25 -0.0312,-0.28125 -0.0312,-0.25 0.0312,-0.28125 0.0312,-0.25 0.0937,-0.25 0.0937,-0.25 0.15625,-0.21875 0.15625,-0.21875 0.15625,-0.21875 0.21875,-0.1875 0.21875,-0.15625 0.25,-0.15625 0.25,-0.125 0.28125,-0.125 0.3125,-0.0625 0.28125,-0.0937 0.3125,-0.0312 0.34375,0 0.3125,0 0.3125,0.0312 0.0937,0.0312 0,-0.8125 -0.3125,-0.0312 -0.40625,-0.0312 -0.40625,0.0312 -0.40625,0.0312 -0.375,0.0937 -0.375,0.125 -0.34375,0.125 -0.3125,0.1875 -0.3125,0.1875 -0.28125,0.21875 -0.25,0.25 -0.25,0.25 -0.1875,0.3125 -0.15625,0.28125 -0.15625,0.3125 -0.0937,0.34375 -0.0625,0.34375 0,0.34375 0,0.34375 0.0625,0.34375 0.0937,0.3125 0.15625,0.3125 0.15625,0.3125 0.1875,0.28125 0.25,0.25 0.25,0.25 0.28125,0.21875 0.3125,0.21875 0.3125,0.15625 0.34375,0.15625 0.375,0.0937 0.375,0.0937 0.40625,0.0625 0.40625,0 0.40625,0 0.3125,-0.0625 z"
       id="path3923"
       style="fill:#58595b" />
    <path
       d="m 380.21875,533.40625 0.21875,0 0.40625,-0.0625 0.375,-0.0937 0.34375,-0.0937 0.375,-0.15625 0.3125,-0.15625 0.3125,-0.21875 0.28125,-0.21875 0.25,-0.25 0.25,-0.25 0.1875,-0.28125 0.15625,-0.3125 0.15625,-0.3125 0.0937,-0.3125 L 384,530.34375 384,530 l 0,-0.34375 -0.0625,-0.34375 -0.0937,-0.34375 -0.15625,-0.3125 -0.15625,-0.28125 -0.1875,-0.3125 -0.25,-0.25 -0.25,-0.25 -0.28125,-0.21875 -0.3125,-0.1875 -0.3125,-0.1875 -0.375,-0.125 -0.34375,-0.125 -0.375,-0.0937 -0.40625,-0.0312 -0.21875,-0.0312 0,0.8125 0.125,0 0.3125,0.0312 0.3125,0.0937 0.3125,0.0625 0.25,0.125 0.28125,0.125 0.25,0.15625 0.21875,0.15625 0.1875,0.1875 0.1875,0.21875 0.15625,0.21875 0.15625,0.21875 0.0937,0.25 0.0937,0.25 0.0312,0.25 0.0312,0.28125 -0.0312,0.25 -0.0312,0.28125 -0.0937,0.25 -0.0937,0.21875 -0.15625,0.25 -0.15625,0.21875 -0.1875,0.1875 -0.1875,0.1875 -0.21875,0.1875 -0.25,0.125 -0.28125,0.15625 -0.25,0.0937 -0.3125,0.0937 -0.3125,0.0625 -0.3125,0.0312 -0.125,0 0,0.8125 z"
       id="path4098"
       style="fill:#58595b" />
    <path
       d="m 380.21875,533.40625 0,-0.8125 -0.1875,0.0312 -0.3125,-0.0312 -0.3125,-0.0312 -0.3125,-0.0625 -0.3125,-0.0937 -0.25,-0.0937 -0.28125,-0.15625 -0.25,-0.125 -0.21875,-0.1875 -0.1875,-0.1875 -0.1875,-0.1875 L 377.25,531.25 377.09375,531 377,530.78125 l -0.0937,-0.25 -0.0312,-0.28125 -0.0312,-0.25 0.0312,-0.28125 0.0312,-0.25 0.0937,-0.25 0.0937,-0.25 0.15625,-0.21875 0.15625,-0.21875 0.1875,-0.21875 0.1875,-0.1875 0.21875,-0.15625 0.25,-0.15625 0.28125,-0.125 0.25,-0.125 0.3125,-0.0625 0.3125,-0.0937 0.3125,-0.0312 0.3125,0 0.1875,0 0,-0.8125 -0.1875,0 -0.40625,0.0312 -0.40625,0.0312 -0.375,0.0937 -0.375,0.125 -0.34375,0.125 -0.3125,0.1875 -0.3125,0.1875 -0.28125,0.21875 -0.25,0.25 -0.25,0.25 -0.1875,0.3125 -0.15625,0.28125 -0.15625,0.3125 -0.0937,0.34375 -0.0625,0.34375 0,0.34375 0,0.34375 0.0625,0.34375 0.0937,0.3125 0.15625,0.3125 0.15625,0.3125 0.1875,0.28125 0.25,0.25 0.25,0.25 0.28125,0.21875 0.3125,0.21875 0.3125,0.15625 0.34375,0.15625 0.375,0.0937 0.375,0.0937 0.40625,0.0625 0.40625,0 0.1875,0 z"
       id="path3927"
       style="fill:#58595b" />
    <path
       d="m 328.875,533.40625 0.4375,-0.0312 0.5,-0.0625 0.28125,-0.0625 0.3125,-0.0625 0.3125,-0.0937 0.28125,-0.125 0.3125,-0.125 0.28125,-0.1875 0.28125,-0.1875 0.25,-0.21875 0.21875,-0.21875 0.1875,-0.25 0.15625,-0.28125 0.15625,-0.28125 0.0937,-0.28125 0.0625,-0.34375 0.0625,-0.3125 0,-0.375 0,-0.3125 -0.0312,-0.28125 -0.0937,-0.28125 -0.0937,-0.28125 -0.0937,-0.25 -0.15625,-0.25 -0.1875,-0.21875 -0.1875,-0.21875 -0.25,-0.21875 -0.28125,-0.21875 -0.28125,-0.15625 -0.28125,-0.125 -0.3125,-0.125 -0.28125,-0.0937 -0.59375,-0.15625 -0.5,-0.0937 -0.4375,-0.0312 -0.125,0 0,0.8125 0.0625,0 0.34375,0.0312 0.46875,0.0625 0.46875,0.125 0.28125,0.0625 0.25,0.0937 0.25,0.125 0.21875,0.125 0.21875,0.15625 0.21875,0.1875 0.15625,0.15625 0.125,0.15625 0.0937,0.1875 0.0937,0.1875 0.0625,0.1875 0.0312,0.21875 0.0312,0.21875 0.0312,0.21875 -0.0312,0.28125 -0.0312,0.25 -0.0312,0.25 -0.0937,0.21875 -0.0937,0.21875 -0.125,0.1875 -0.125,0.1875 -0.15625,0.1875 -0.21875,0.15625 -0.25,0.15625 -0.21875,0.15625 -0.25,0.0937 -0.28125,0.0937 -0.25,0.0625 -0.5,0.125 -0.4375,0.0625 -0.3125,0 0,0.8125 z"
       id="path4080"
       style="fill:#58595b" />
    <path
       d="m 328.875,533.40625 0,-0.8125 -0.0625,0 -0.3125,0.0312 -0.0312,0 -2.65625,0 0,-5.25 2.78125,0 0.28125,0.0312 0,-0.8125 -0.3125,0 -3.15625,-0.0312 -0.40625,0 0,0.40625 0,6.03125 0,0.40625 0.40625,0 3.0625,0 0.40625,0 z"
       id="path3931"
       style="fill:#58595b" />
    <path
       d="m 397.83444,535.34733 1.33728,0 -0.26549,0.39634 -0.27534,0.37078 -0.28516,0.3452 -0.29501,0.31963 -0.30484,0.29406 -0.31467,0.26849 -0.32452,0.24292 -0.33435,0.21735 -0.34419,0.19178 -0.35402,0.1662 -0.36386,0.14064 -0.3737,0.11507 -0.38353,0.0895 -0.39337,0.0639 -0.40321,0.0384 -0.41304,0.0128 -0.64483,-0.0278 -0.62076,-0.0833 -0.59669,-0.13889 -0.28931,-0.0903 -0.28329,-0.10417 -0.27727,-0.11806 -0.27125,-0.13196 -0.26522,-0.14585 -0.25919,-0.15975 -0.50031,-0.36119 -0.4762,-0.41679 -0.43513,-0.45602 -0.37711,-0.47914 -0.1668,-0.24824 -0.1523,-0.25401 -0.13779,-0.25979 -0.12328,-0.26557 -0.10878,-0.27134 -0.0943,-0.27712 -0.0798,-0.28289 -0.0653,-0.28867 -0.0508,-0.29444 -0.0363,-0.30021 -0.029,-0.61775 0.0286,-0.65146 0.0358,-0.31566 0.0501,-0.30896 0.0644,-0.30225 0.0788,-0.29555 0.0931,-0.28884 0.10738,-0.28214 0.12171,-0.27545 0.13603,-0.26874 0.15035,-0.26205 0.16466,-0.25535 0.179,-0.24866 0.19331,-0.24196 0.20764,-0.23528 0.22196,-0.22858 0.47216,-0.42222 0.49598,-0.36595 0.25692,-0.16187 0.26289,-0.1478 0.26885,-0.13373 0.2748,-0.11966 0.28078,-0.10558 0.28673,-0.0915 0.29271,-0.0774 0.29867,-0.0634 0.61526,-0.0845 0.63914,-0.0282 0.41958,0.0141 0.41291,0.0424 0.40625,0.0707 0.39961,0.099 0.39296,0.12726 0.38633,0.15553 0.37971,0.18379 0.37309,0.21205 0.35786,0.2349 0.33401,0.25235 0.31016,0.26981 0.28629,0.28725 0.26242,0.3047 0.23855,0.32215 0.21466,0.33959 0.19076,0.35705 -1.33728,0 -0.17626,-0.23985 -0.19022,-0.2281 -0.20419,-0.21632 -0.21818,-0.20454 -0.23218,-0.19274 -0.2462,-0.18094 -0.26024,-0.16912 -0.27428,-0.15729 -0.28081,-0.14202 -0.27982,-0.12307 -0.27882,-0.10413 -0.27783,-0.0852 -0.27684,-0.0663 -0.27586,-0.0473 -0.27488,-0.0284 -0.27391,-0.009 -0.51747,0.0237 -0.49831,0.0712 -0.47916,0.11864 -0.45997,0.16609 -0.44079,0.21353 -0.42159,0.26097 -0.40238,0.3084 -0.38315,0.35584 -0.34854,0.3875 -0.30206,0.40715 -0.25558,0.4268 -0.2091,0.44647 -0.16262,0.46614 -0.11616,0.48583 -0.0697,0.50551 -0.0232,0.52521 0.0238,0.49715 0.0715,0.48073 0.11921,0.46427 0.16691,0.44782 0.21459,0.43133 0.2623,0.41485 0.31,0.39833 0.3577,0.38181 0.39241,0.35033 0.41011,0.30364 0.42781,0.25694 0.44549,0.21025 0.46317,0.16354 0.48085,0.11682 0.49853,0.0701 0.5162,0.0234 0.2917,-0.009 0.28677,-0.0257 0.28184,-0.0429 0.27692,-0.06 0.27199,-0.0772 0.26706,-0.0943 0.26214,-0.11149 0.25721,-0.12863 0.25229,-0.14579 0.24736,-0.16294 0.24243,-0.18009 0.23751,-0.19724 0.23258,-0.21439 0.22766,-0.23155 0.44053,-0.51454 0,0"
       id="path3937"
       style="fill:#8dc63f" />
    <path
       d="m 405.4375,538.625 0.0625,0 0.46875,-0.0625 0.40625,-0.0937 0.4375,-0.15625 0.40625,-0.1875 0.375,-0.25 0.34375,-0.28125 0.375,-0.3125 0.3125,-0.34375 0.28125,-0.375 0.21875,-0.375 0.1875,-0.40625 0.15625,-0.40625 0.0937,-0.40625 0.0625,-0.4375 0.0312,-0.46875 -0.0312,-0.46875 -0.0625,-0.46875 -0.0937,-0.4375 -0.15625,-0.40625 -0.1875,-0.40625 -0.21875,-0.375 -0.25,-0.375 -0.3125,-0.34375 -0.34375,-0.3438 -0.375,-0.28125 -0.375,-0.21875 -0.40625,-0.1875 -0.4375,-0.15625 -0.4375,-0.125 -0.46875,-0.0625 -0.0625,0 0,1.03125 0.3125,0.0312 0.3125,0.0937 0.3125,0.0937 0.3125,0.15625 0.28125,0.15625 0.28125,0.21875 0.25,0.21875 0.25,0.28125 0.21875,0.28125 0.15625,0.28125 0.15625,0.34375 0.0937,0.34375 0.0937,0.34375 0.0625,0.40625 0,0.40625 0,0.34375 -0.0625,0.375 -0.0937,0.3125 -0.0937,0.34375 -0.15625,0.3125 -0.15625,0.28125 -0.21875,0.28125 -0.25,0.28125 -0.25,0.21875 -0.28125,0.21875 -0.28125,0.1875 -0.3125,0.125 -0.3125,0.125 -0.3125,0.0937 -0.3125,0.0312 0,1 z"
       id="path4116"
       style="fill:#8dc63f" />
    <path
       d="m 405.4375,538.625 0,-1 -0.0312,0 -0.375,0.0312 -0.34375,-0.0312 -0.34375,-0.0312 L 404,537.5 l -0.3125,-0.125 -0.28125,-0.15625 -0.28125,-0.15625 -0.28125,-0.21875 -0.25,-0.25 -0.21875,-0.28125 -0.21875,-0.28125 -0.15625,-0.3125 -0.15625,-0.28125 -0.0937,-0.34375 -0.0937,-0.3125 -0.0312,-0.34375 -0.0312,-0.34375 0.0312,-0.40625 0.0312,-0.375 0.0937,-0.34375 0.125,-0.34375 0.125,-0.3125 0.1875,-0.3125 0.21875,-0.28125 0.25,-0.28125 0.25,-0.25 0.28125,-0.1875 0.28125,-0.1875 0.3125,-0.15625 0.28125,-0.0937 0.3125,-0.0937 0.34375,-0.0312 0.3125,-0.0312 0.375,0.0312 0.0312,0 0,-1.03125 -0.40625,0 -0.46875,0 -0.4375,0.0625 -0.4375,0.125 -0.40625,0.15625 -0.40625,0.1875 -0.375,0.21875 -0.34375,0.28125 -0.34375,0.34375 -0.3125,0.34375 -0.28125,0.375 -0.21875,0.375 -0.1875,0.40625 -0.15625,0.40625 -0.0937,0.4375 -0.0625,0.46875 -0.0312,0.46875 0.0312,0.46875 0.0625,0.46875 0.0937,0.4375 0.15625,0.40625 0.1875,0.40625 0.25,0.375 0.28125,0.375 0.3125,0.34375 0.34375,0.3125 0.375,0.25 0.375,0.21875 0.375,0.1875 0.40625,0.15625 0.4375,0.0937 0.4375,0.0625 0.4375,0.0312 0.40625,-0.0312 z"
       id="path3939"
       style="fill:#8dc63f" />
    <path
       d="m 411.39734,538.43156 0,-8.81126 1.12509,0 0,1.29818 0.21879,-0.38637 0.23941,-0.32549 0.26009,-0.26454 0.13781,-0.10938 0.14301,-0.0941 0.3161,-0.15136 0.35839,-0.10819 0.40074,-0.065 0.44316,-0.0217 0,1.17221 -0.29424,0.0247 -0.27674,0.0466 -0.25925,0.0685 -0.24177,0.0904 -0.22431,0.11227 -0.20686,0.13416 -0.18941,0.15603 -0.17199,0.1779 -0.15306,0.19358 -0.13264,0.2071 -0.11223,0.22061 -0.0918,0.23414 -0.0714,0.24767 -0.051,0.26121 -0.0306,0.27476 -0.0102,0.28832 0,5.12956 -1.12509,0 0,-6.6e-4"
       id="path3941"
       style="fill:#8dc63f" />
    <path
       d="m 416.94393,534.44278 0.018,0.29768 0.0503,0.29132 0.0825,0.28494 0.11472,0.27855 0.14692,0.27217 0.17911,0.26576 0.21128,0.25936 0.24344,0.25295 0.26554,0.23423 0.27735,0.20298 0.28914,0.17173 0.30095,0.14048 0.31274,0.10926 0.32454,0.078 0.33632,0.0468 0.3481,0.0156 0.38801,-0.03 0.40865,-0.09 0.42926,-0.14996 0.44985,-0.20988 0.22529,-0.13259 0.21148,-0.15369 0.19768,-0.1748 0.18389,-0.19591 0.17011,-0.21704 0.15633,-0.23818 0.14256,-0.25934 0.1288,-0.2805 1.19593,0 -0.16033,0.36862 -0.17801,0.34675 -0.19569,0.32488 -0.21339,0.303 -0.23108,0.28111 -0.24879,0.25924 -0.26651,0.23734 -0.28423,0.21545 -0.29378,0.18995 -0.29918,0.16461 -0.30458,0.13928 -0.31,0.11394 -0.31541,0.0886 -0.32084,0.0633 -0.32628,0.038 -0.33172,0.0127 -0.47999,-0.0216 -0.46057,-0.0649 -0.44114,-0.10817 -0.42172,-0.15144 -0.4023,-0.19472 -0.38288,-0.23801 -0.36345,-0.28128 -0.34403,-0.32458 -0.31353,-0.35474 -0.27172,-0.36802 -0.2299,-0.3813 -0.1881,-0.39457 -0.14629,-0.40783 -0.10448,-0.4211 -0.0627,-0.43436 -0.0209,-0.44761 0.0202,-0.46595 0.0605,-0.45002 0.1008,-0.43408 0.14111,-0.41811 0.18143,-0.40214 0.22174,-0.38615 0.26207,-0.37013 0.30238,-0.35412 0.33434,-0.32625 0.35792,-0.28279 0.38153,-0.23931 0.40513,-0.19583 0.42873,-0.15233 0.45234,-0.10883 0.47595,-0.0653 0.49957,-0.0218 0.4491,0.0212 0.43457,0.0635 0.42004,0.10577 0.40552,0.14805 0.39099,0.19033 0.37649,0.2326 0.36197,0.27484 0.34746,0.31709 0.32083,0.34843 0.27807,0.36888 0.2353,0.3893 0.19252,0.40973 0.14975,0.43014 0.10697,0.45054 0.0642,0.47092 0.0214,0.49129 0,0.3385 -8.05607,0 0,-3.4e-4 m 0.0157,-1.01482 6.91528,0 -0.0763,-0.34968 -0.0989,-0.32929 -0.1215,-0.3089 -0.14409,-0.2885 -0.16667,-0.26811 -0.18926,-0.24772 -0.21185,-0.22732 -0.23443,-0.20693 -0.24941,-0.18621 -0.25627,-0.16139 -0.26313,-0.13657 -0.26998,-0.11175 -0.27686,-0.0869 -0.28371,-0.0621 -0.29057,-0.0373 -0.29743,-0.0124 -0.34199,0.0144 -0.33001,0.0431 -0.31801,0.0719 -0.306,0.10067 -0.29396,0.12945 -0.28192,0.15823 -0.26987,0.18701 -0.25778,0.21579 -0.23713,0.23414 -0.20815,0.24227 -0.17916,0.2504 -0.15017,0.25852 -0.12118,0.26664 -0.0922,0.27474 -0.0632,0.28284 -0.0342,0.29093 0,0"
       id="path3943"
       style="fill:#8dc63f" />
  </g>
</svg>
