<?xml version="1.0" encoding="UTF-8" standalone="no"?>
<!-- Created with Inkscape (http://www.inkscape.org/) -->

<svg
   xmlns:dc="http://purl.org/dc/elements/1.1/"
   xmlns:cc="http://creativecommons.org/ns#"
   xmlns:rdf="http://www.w3.org/1999/02/22-rdf-syntax-ns#"
   xmlns:svg="http://www.w3.org/2000/svg"
   xmlns="http://www.w3.org/2000/svg"
   version="1.1"
   width="1977.333"
   height="1894.256"
   viewBox="0 0 1977.333 1894.256"
   id="Layer_1"
   xml:space="preserve"><metadata
   id="metadata4015"><rdf:RDF><cc:Work
       rdf:about=""><dc:format>image/svg+xml</dc:format><dc:type
         rdf:resource="http://purl.org/dc/dcmitype/StillImage" /><dc:title></dc:title></cc:Work></rdf:RDF></metadata><defs
   id="defs4013">
	
	
	

		
		
		
		
	
			
		
			
			
		
	
	

			
		
			
		
		
		
		
	
		
		
		
		
		
		
		
		
		
		
		
	
	
	
	
	

	
	
	

		
	
		
	
		
		
	
		
	
	
	
	
	
	
	
	
	
	
	
	

	
	
	

		
		
		
		
	
			
		
			
			
		
		
		
		
		
		
		
		
		
		
		
		
	
			
		
			
		
		
		
		
	
	

		
		
	
	

	
	
	

		
		
		
		
	
			
		
			
		
		
		
		
	
			
		
		
		
		
		
		
		
		
		
		
		
		
	
		
		
		
		
	
			
			
		</defs>





<path
   d="m 899.04823,701.73187 h 0.33148 l 0.78659,2.25085 0.78626,-2.25085 h 0.30174 l 0.78827,2.26121 0.78826,-2.26121 h 0.32714 l -0.91825,2.584 h -0.408 l -0.73113,-2.13022 -0.72678,2.13022 h -0.40833 l -0.91725,-2.584 z"
   id="path3579"
   style="fill:#58595b" /><path
   d="m 906.47576,701.72853 h 0.30375 v 0.43874 h -0.30375 v -0.43874 z m 0,0.68334 h 0.30375 v 1.904 h -0.30375 v -1.904 z"
   id="path3581"
   style="fill:#58595b" /><path
   d="m 910.37532,704.31587 v -2.584 h 1.61495 v 0.2329 h -1.29183 v 0.93329 h 1.24104 v 0.2329 h -1.24104 v 1.18491 h -0.32312 z"
   id="path3583"
   style="fill:#58595b" /><path
   d="m 915.46278,701.72853 h 0.30374 v 0.43874 h -0.30374 v -0.43874 z m 0,0.68334 h 0.30374 v 1.904 h -0.30374 v -1.904 z"
   id="path3585"
   style="fill:#58595b" /><path
   d="m 922.73794,703.60513 1.43952,-1.87326 h 0.35421 v 1.88027 h 0.26966 v 0.23291 h -0.26966 v 0.47082 h -0.29907 v -0.47082 h -1.49466 v -0.23992 z m 0.34417,0.007 h 1.15049 v -1.54177 l -1.15049,1.54177 z"
   id="path3587"
   style="fill:#58595b" /><path
   d="m 930.5728,701.73187 h 1.68346 v 0.2329 h -0.69203 v 2.3511 h -0.29907 v -2.3511 h -0.69236 v -0.2329 z"
   id="path3589"
   style="fill:#58595b" /><path
   d="m 935.26162,701.73187 h 0.29907 v 1.13912 h 1.52607 v -1.13912 h 0.29906 v 2.584 h -0.29906 v -1.21197 h -1.52607 v 1.21197 h -0.29907 v -2.584 z"
   id="path3591"
   style="fill:#58595b" /><path
   d="m 940.71197,701.73187 h 0.29907 v 2.584 h -0.29907 v -2.584 z"
   id="path3593"
   style="fill:#58595b" /><path
   d="m 944.31714,701.73187 h 0.40132 l 1.67577,2.15094 v -2.15094 h 0.29906 v 2.584 h -0.29906 l -1.77802,-2.28126 v 2.28126 h -0.29907 v -2.584 z"
   id="path3595"
   style="fill:#58595b" /><path
   d="m 952.86274,702.42557 h -0.35386 c -0.12732,-0.17242 -0.28069,-0.29873 -0.46047,-0.37926 -0.1781,-0.0815 -0.38327,-0.1223 -0.6155,-0.1223 -0.35019,0 -0.65026,0.10926 -0.90088,0.3278 -0.25028,0.21753 -0.37558,0.48051 -0.37558,0.78893 0,0.2994 0.12664,0.5547 0.37993,0.76655 0.25295,0.21085 0.55035,0.31611 0.89285,0.31611 0.27534,0 0.53431,-0.0718 0.77657,-0.21587 0.24293,-0.14402 0.39497,-0.32479 0.45645,-0.54233 h -1.65606 v -0.2329 h 2.01394 c -0.021,0.34451 -0.18646,0.63456 -0.49555,0.87013 -0.30976,0.23591 -0.67532,0.35387 -1.09735,0.35387 -0.42237,0 -0.78927,-0.13166 -1.10137,-0.39463 -0.31243,-0.26265 -0.46815,-0.56873 -0.46815,-0.91792 0,-0.3796 0.15338,-0.69971 0.46047,-0.96035 0.30675,-0.26198 0.67766,-0.39297 1.11306,-0.39297 0.31577,0 0.60448,0.0715 0.86545,0.21453 0.26064,0.14302 0.44943,0.31678 0.56605,0.52061 z"
   id="path3597"
   style="fill:#58595b" /><path
   d="m 956.26742,703.5951 c 0,0.14536 0.0551,0.27 0.16507,0.37392 0.11161,0.10325 0.26097,0.15471 0.44843,0.15471 0.16273,0 0.30575,-0.0458 0.42872,-0.13767 0.1233,-0.0926 0.18512,-0.22088 0.18512,-0.38394 0,-0.11462 -0.0461,-0.21753 -0.13767,-0.30943 -0.0916,-0.0929 -0.28838,-0.17609 -0.59011,-0.24994 -0.46949,-0.11462 -0.70406,-0.33616 -0.70406,-0.66463 0,-0.20283 0.0812,-0.3679 0.24359,-0.49455 0.16407,-0.12798 0.36523,-0.19213 0.60415,-0.19213 0.23458,0 0.43005,0.0692 0.5861,0.20751 0.15605,0.13833 0.23391,0.30474 0.23391,0.49989 h -0.29907 c 0,-0.12932 -0.0525,-0.24059 -0.15738,-0.33349 -0.10392,-0.0939 -0.22823,-0.14101 -0.37358,-0.14101 -0.16541,0 -0.2964,0.0448 -0.39363,0.13433 -0.0969,0.0896 -0.1457,0.19648 -0.1457,0.32112 0,0.10893 0.0434,0.19982 0.12999,0.272 0.0879,0.0715 0.27033,0.13934 0.54701,0.20383 0.50323,0.11796 0.75518,0.36857 0.75518,0.75151 0,0.21185 -0.0892,0.38962 -0.26766,0.53364 -0.1781,0.14435 -0.39329,0.21586 -0.64524,0.21586 -0.26465,0 -0.48285,-0.0702 -0.65494,-0.21085 -0.17175,-0.14067 -0.25763,-0.32412 -0.25763,-0.55068 h 0.2994 z"
   id="path3599"
   style="fill:#58595b" />
<path
   d="m 937.33269,693.74196 -4.72691,4.72692 -0.57474,-0.57475 4.72691,-4.72691 0.57474,0.57474 z"
   id="path3603"
   style="fill:#5abd74" /><circle
   cx="272.14999"
   cy="202.172"
   r="4.4720001"
   transform="matrix(0.33415201,0,0,0.33415201,841.37894,630.62499)"
   id="circle3605"
   style="fill:#5abd74" /><circle
   cx="286.328"
   cy="187.995"
   r="4.4720001"
   transform="matrix(0.33415201,0,0,0.33415201,841.37894,630.62499)"
   id="circle3607"
   style="fill:#5abd74" />
<path
   d="m 924.534,699.16224 h -0.65159 l -4.17189,-6.00638 -3.3e-4,6.00638 h -0.81199 v -6.68438 h 1.32357 l 3.99178,5.73505 4.0115,-5.73505 h 1.30352 v 6.68438 h -0.81265 v -6.00638 l -4.18192,6.00638 z"
   id="path3613"
   style="fill:#58595b" /><path
   d="m 940.54289,699.16224 h -0.81165 v -6.68438 h 1.35265 l 6.1641,6.04615 v -6.04615 h 0.81265 v 6.68438 h -1.33293 l -6.18482,-6.07622 v 6.07622 z"
   id="path3615"
   style="fill:#58595b" /><path
   d="m 915.89684,695.87619 c 0,1.44721 -1.42516,2.62443 -3.17678,2.62443 -1.75129,0 -3.17645,-1.17722 -3.17645,-2.62443 0,-1.44721 1.42516,-2.62443 3.17645,-2.62443 1.75162,0 3.17678,1.17722 3.17678,2.62443 z m -3.17678,-3.4264 c -2.19371,0 -3.97841,1.53744 -3.97841,3.42673 0,1.8893 1.7847,3.42673 3.97841,3.42673 2.19371,0 3.97875,-1.53743 3.97875,-3.42673 0,-1.88929 -1.78504,-3.42673 -3.97875,-3.42673 z"
   id="path3619"
   style="fill:#58595b" /><path
   d="m 957.21273,695.87619 c 0,1.44721 -1.42515,2.62443 -3.17678,2.62443 -1.75129,0 -3.17645,-1.17722 -3.17645,-2.62443 0,-1.44721 1.42516,-2.62443 3.17645,-2.62443 1.75196,0 3.17678,1.17722 3.17678,2.62443 z m -3.17644,-3.4264 c -2.19371,0 -3.97842,1.53744 -3.97842,3.42673 0,1.8893 1.78471,3.42673 3.97842,3.42673 2.1937,0 3.97874,-1.53743 3.97874,-3.42673 0,-1.88929 -1.78504,-3.42673 -3.97874,-3.42673 z"
   id="path3623"
   style="fill:#58595b" /><path
   d="m 899.00546,692.85378 v 6.04248 0.40098 h 0.40098 3.06317 c 0.0745,0.005 2.33172,0.1086 3.66431,-1.1555 0.62453,-0.59212 0.94131,-1.37838 0.94131,-2.33639 0,-0.85109 -0.28704,-1.56383 -0.85342,-2.11852 -1.28348,-1.25742 -3.55371,-1.22601 -3.64961,-1.224 0.009,0 -3.16476,-0.01 -3.16476,-0.01 l -0.40232,-10e-4 v 0.40231 z m 3.58345,0.41135 0,0 c 0.02,-6.7e-4 2.03364,-0.0251 3.07386,0.99644 0.41067,0.40365 0.6105,0.90856 0.6105,1.54378 0,0.73848 -0.22556,1.31188 -0.68936,1.75263 -1.07965,1.02685 -3.07353,0.93896 -3.09391,0.93796 l 0.0765,0.0114 -0.0481,-0.012 h -0.0491 -3.06317 l 0.40098,0.40099 v -6.04248 l -0.40232,0.40099 c 3.3e-4,3.3e-4 3.17444,0.0104 3.18414,0.0104 z"
   id="path3627"
   style="fill:#58595b" />

<path
   d="m 885.35468,783.66193 h 0.33148 l 0.78659,2.25085 0.78626,-2.25085 h 0.30174 l 0.78827,2.26121 0.78826,-2.26121 h 0.32714 l -0.91825,2.584 h -0.408 l -0.73113,-2.13022 -0.72678,2.13022 h -0.40833 l -0.91725,-2.584 z"
   id="path3635"
   style="fill:#58595b" /><path
   d="m 892.78188,783.65893 h 0.30374 v 0.43874 h -0.30374 v -0.43874 z m 0,0.683 h 0.30374 v 1.904 h -0.30374 v -1.904 z"
   id="path3637"
   style="fill:#58595b" /><path
   d="m 896.68177,786.24626 v -2.58399 h 1.61495 v 0.2329 h -1.29183 v 0.93329 h 1.24104 v 0.2329 h -1.24104 v 1.1849 h -0.32312 z"
   id="path3639"
   style="fill:#58595b" /><path
   d="m 901.76923,783.65893 h 0.30374 v 0.43874 h -0.30374 v -0.43874 z m 0,0.683 h 0.30374 v 1.904 h -0.30374 v -1.904 z"
   id="path3641"
   style="fill:#58595b" /><path
   d="m 909.04439,785.53552 1.43952,-1.87325 h 0.35421 v 1.88027 h 0.26966 v 0.2329 h -0.26966 v 0.47082 h -0.29907 v -0.47082 h -1.49466 v -0.23992 z m 0.34384,0.007 h 1.15049 v -1.54178 l -1.15049,1.54178 z"
   id="path3643"
   style="fill:#58595b" /><path
   d="m 916.87892,783.66193 h 1.68345 v 0.23291 h -0.69203 v 2.35109 h -0.29906 v -2.35109 h -0.69236 v -0.23291 z"
   id="path3645"
   style="fill:#58595b" /><path
   d="m 921.56807,783.66193 h 0.29907 v 1.13913 h 1.52607 v -1.13913 h 0.29907 v 2.584 h -0.29907 v -1.21197 h -1.52607 v 1.21197 h -0.29907 v -2.584 z"
   id="path3647"
   style="fill:#58595b" /><path
   d="m 927.01809,783.66193 h 0.29907 v 2.584 h -0.29907 v -2.584 z"
   id="path3649"
   style="fill:#58595b" /><path
   d="m 930.62326,783.66193 h 0.40131 l 1.67578,2.15094 v -2.15094 h 0.29906 v 2.584 h -0.29906 l -1.77803,-2.28126 v 2.28126 h -0.29906 v -2.584 z"
   id="path3651"
   style="fill:#58595b" /><path
   d="m 939.16886,784.35597 h -0.35387 c -0.12731,-0.17243 -0.28068,-0.29874 -0.46046,-0.37927 -0.1781,-0.0815 -0.38327,-0.1223 -0.61551,-0.1223 -0.35019,0 -0.65026,0.10927 -0.90087,0.32781 -0.25028,0.21753 -0.37559,0.48051 -0.37559,0.78893 0,0.2994 0.12665,0.55469 0.37993,0.76654 0.25296,0.21085 0.55035,0.31611 0.89286,0.31611 0.27534,0 0.53431,-0.0718 0.77657,-0.21586 0.24293,-0.14402 0.39496,-0.3248 0.45645,-0.54233 h -1.65606 v -0.2329 h 2.01394 c -0.0211,0.34451 -0.18646,0.63455 -0.49555,0.87013 -0.30976,0.23591 -0.67532,0.35387 -1.09736,0.35387 -0.42237,0 -0.78926,-0.13166 -1.10136,-0.39464 -0.31243,-0.26264 -0.46815,-0.56872 -0.46815,-0.91791 0,-0.3796 0.15338,-0.69972 0.46046,-0.96036 0.30675,-0.26197 0.67766,-0.39296 1.11306,-0.39296 0.31578,0 0.60448,0.0715 0.86546,0.21453 0.26063,0.14301 0.44976,0.31644 0.56605,0.52061 z"
   id="path3653"
   style="fill:#58595b" /><path
   d="m 942.57387,785.5255 c 0,0.14535 0.0551,0.26999 0.16507,0.37391 0.11161,0.10326 0.26097,0.15472 0.44843,0.15472 0.16273,0 0.30575,-0.0458 0.42872,-0.13767 0.1233,-0.0926 0.18512,-0.22088 0.18512,-0.38394 0,-0.11462 -0.0461,-0.21754 -0.13767,-0.30943 -0.0916,-0.0929 -0.28837,-0.1761 -0.59011,-0.24995 -0.46949,-0.11461 -0.70406,-0.33615 -0.70406,-0.66462 0,-0.20283 0.0812,-0.3679 0.24359,-0.49455 0.16407,-0.12798 0.36523,-0.19214 0.60415,-0.19214 0.23458,0 0.43006,0.0692 0.5861,0.20751 0.15605,0.13834 0.23391,0.30475 0.23391,0.49989 h -0.29907 c 0,-0.12931 -0.0525,-0.24059 -0.15738,-0.33348 -0.10392,-0.0939 -0.22823,-0.14101 -0.37358,-0.14101 -0.16541,0 -0.2964,0.0448 -0.39363,0.13433 -0.0969,0.0896 -0.14569,0.19648 -0.14569,0.32112 0,0.10893 0.0434,0.19982 0.12998,0.272 0.0879,0.0715 0.27033,0.13934 0.54701,0.20383 0.50323,0.11796 0.75518,0.36857 0.75518,0.75151 0,0.21185 -0.0892,0.38962 -0.26765,0.53364 -0.17811,0.14435 -0.3933,0.21586 -0.64525,0.21586 -0.26465,0 -0.48285,-0.0702 -0.65494,-0.21085 -0.17175,-0.14068 -0.25763,-0.32413 -0.25763,-0.55068 h 0.2994 z"
   id="path3655"
   style="fill:#58595b" /><path
   d="m 923.63915,775.67169 -4.72692,4.72691 -0.57474,-0.57474 4.72691,-4.72691 0.57475,0.57474 z"
   id="path3659"
   style="fill:#5abd74" /><circle
   cx="231.17"
   cy="447.35901"
   r="4.4720001"
   transform="matrix(0.33415201,0,0,0.33415201,841.37894,630.62499)"
   id="circle3661"
   style="fill:#5abd74" /><circle
   cx="245.34801"
   cy="433.18301"
   r="4.4720001"
   transform="matrix(0.33415201,0,0,0.33415201,841.37894,630.62499)"
   id="circle3663"
   style="fill:#5abd74" /><path
   d="m 910.84012,781.0923 h -0.6516 l -4.17188,-6.00638 -3.4e-4,6.00638 h -0.81199 v -6.68437 h 1.32358 l 3.99178,5.73505 4.01149,-5.73505 h 1.30353 v 6.68437 h -0.81266 v -6.00638 l -4.18191,6.00638 z"
   id="path3669"
   style="fill:#58595b" /><path
   d="m 926.84901,781.0923 h -0.81166 v -6.68437 H 927.39 l 6.1641,6.04614 v -6.04614 h 0.81266 v 6.68437 h -1.33293 l -6.18482,-6.07622 v 6.07622 z"
   id="path3671"
   style="fill:#58595b" /><path
   d="m 902.20296,777.80625 c 0,1.44721 -1.42516,2.62443 -3.17678,2.62443 -1.75129,0 -3.17645,-1.17722 -3.17645,-2.62443 0,-1.44721 1.42516,-2.62443 3.17645,-2.62443 1.75196,-3.3e-4 3.17678,1.17722 3.17678,2.62443 z m -3.17645,-3.42673 c -2.19371,0 -3.97841,1.53744 -3.97841,3.42673 0,1.8893 1.7847,3.42673 3.97841,3.42673 2.19371,0 3.97875,-1.53743 3.97875,-3.42673 0,-1.88929 -1.78504,-3.42673 -3.97875,-3.42673 z"
   id="path3675"
   style="fill:#58595b" /><path
   d="m 943.51918,777.80625 c 0,1.44721 -1.42515,2.62443 -3.17678,2.62443 -1.75129,0 -3.17645,-1.17722 -3.17645,-2.62443 0,-1.44721 1.42516,-2.62443 3.17645,-2.62443 1.75163,-3.3e-4 3.17678,1.17722 3.17678,2.62443 z m -3.17678,-3.42673 c -2.19371,0 -3.97841,1.53744 -3.97841,3.42673 0,1.8893 1.7847,3.42673 3.97841,3.42673 2.19371,0 3.97875,-1.53743 3.97875,-3.42673 0,-1.88929 -1.78471,-3.42673 -3.97875,-3.42673 z"
   id="path3679"
   style="fill:#58595b" /><path
   d="m 885.31191,774.78385 v 6.04247 0.40098 h 0.40098 3.06317 c 0.0745,0.005 2.33172,0.1086 3.66431,-1.1555 0.62453,-0.59211 0.94131,-1.37837 0.94131,-2.33639 0,-0.85108 -0.28704,-1.56383 -0.85342,-2.11852 -1.28348,-1.25742 -3.55371,-1.22601 -3.64961,-1.224 0.009,0 -3.16476,-0.01 -3.16476,-0.01 l -0.40231,-10e-4 v 0.40232 z m 3.58311,0.411 0,0 c 0.02,-6.6e-4 2.03365,-0.0251 3.07387,0.99645 0.41067,0.40365 0.61049,0.90856 0.61049,1.54378 0,0.73847 -0.22555,1.31188 -0.68935,1.75263 -1.07965,1.02684 -3.07353,0.93896 -3.09392,0.93796 l 0.0765,0.0114 -0.0481,-0.012 h -0.0491 -3.06318 l 0.40099,0.40098 v -6.04247 l -0.40232,0.40099 c 6.7e-4,3.3e-4 3.17478,0.0104 3.18413,0.0104 z"
   id="path3683"
   style="fill:#58595b" />
<path
   d="m 949.85237,774.2883 h 3.07587 0.5039 c 1.39475,0 2.45735,0.32546 3.18614,0.97539 0.73413,0.65026 1.10103,1.51839 1.10103,2.60405 0,1.13812 -0.37191,2.01928 -1.11674,2.64347 -0.74482,0.6242 -1.84886,0.9363 -3.31211,0.9363 h -2.2425 v 4.79875 h -1.19559 V 774.2883 z m 1.19559,1.07764 v 5.00359 h 1.84118 0.67666 c 0.83404,0 1.53376,-0.20984 2.10014,-0.62954 0.57174,-0.42471 0.85744,-1.0489 0.85744,-1.87259 0,-0.78659 -0.26498,-1.40009 -0.79428,-1.84084 -0.52462,-0.44041 -1.34062,-0.66095 -2.44666,-0.66095 h -0.39363 -1.84085 z"
   id="path3687"
   style="fill:#d71920" /><path
   d="m 959.21464,774.2726 h 1.12509 v 2.02963 h -1.12509 v -2.02963 z m 0,3.16241 h 1.12509 v 8.81125 h -1.12509 v -8.81125 z"
   id="path3689"
   style="fill:#d71920" />






<path
   d="m 885.35468,865.592 h 0.33148 l 0.78659,2.25084 0.78626,-2.25084 h 0.30174 l 0.78827,2.2612 0.78826,-2.2612 h 0.32714 l -0.91825,2.58399 h -0.408 l -0.73113,-2.13022 -0.72678,2.13022 h -0.40833 l -0.91725,-2.58399 z"
   id="path3757"
   style="fill:#58595b" /><path
   d="m 892.78188,865.58865 h 0.30374 v 0.43875 h -0.30374 v -0.43875 z m 0,0.68334 h 0.30374 v 1.904 h -0.30374 v -1.904 z"
   id="path3759"
   style="fill:#58595b" /><path
   d="M 896.68177,868.17599 V 865.592 h 1.61495 v 0.2329 h -1.29183 v 0.93329 h 1.24104 v 0.2329 h -1.24104 v 1.1849 h -0.32312 z"
   id="path3761"
   style="fill:#58595b" /><path
   d="m 901.76923,865.58865 h 0.30374 v 0.43875 h -0.30374 v -0.43875 z m 0,0.68334 h 0.30374 v 1.904 h -0.30374 v -1.904 z"
   id="path3763"
   style="fill:#58595b" /><path
   d="m 909.04439,867.46525 1.43952,-1.87325 h 0.35421 v 1.88027 h 0.26966 v 0.2329 h -0.26966 v 0.47082 h -0.29907 v -0.47082 h -1.49466 v -0.23992 z m 0.34384,0.007 h 1.15049 v -1.54178 l -1.15049,1.54178 z"
   id="path3765"
   style="fill:#58595b" /><path
   d="m 916.87892,865.592 h 1.68345 v 0.2329 h -0.69203 v 2.35109 h -0.29906 v -2.35109 h -0.69236 v -0.2329 z"
   id="path3767"
   style="fill:#58595b" /><path
   d="m 921.56807,865.592 h 0.29907 v 1.13912 h 1.52607 V 865.592 h 0.29907 v 2.58399 h -0.29907 v -1.21197 h -1.52607 v 1.21197 h -0.29907 V 865.592 z"
   id="path3769"
   style="fill:#58595b" /><path
   d="m 927.01809,865.592 h 0.29907 v 2.58399 h -0.29907 V 865.592 z"
   id="path3771"
   style="fill:#58595b" /><path
   d="m 930.62326,865.592 h 0.40131 l 1.67578,2.15093 V 865.592 h 0.29906 v 2.58399 h -0.29906 l -1.77803,-2.28125 v 2.28125 h -0.29906 V 865.592 z"
   id="path3773"
   style="fill:#58595b" /><path
   d="m 939.16886,866.2857 h -0.35387 c -0.12731,-0.17243 -0.28068,-0.29874 -0.46046,-0.37927 -0.1781,-0.0815 -0.38327,-0.1223 -0.61551,-0.1223 -0.35019,0 -0.65026,0.10927 -0.90087,0.32781 -0.25028,0.21753 -0.37559,0.48051 -0.37559,0.78893 0,0.2994 0.12665,0.55469 0.37993,0.76654 0.25296,0.21085 0.55035,0.31611 0.89286,0.31611 0.27534,0 0.53431,-0.0718 0.77657,-0.21586 0.24293,-0.14402 0.39496,-0.3248 0.45645,-0.54233 h -1.65606 v -0.2329 h 2.01394 c -0.0211,0.34451 -0.18646,0.63455 -0.49555,0.87013 -0.30976,0.23591 -0.67532,0.35387 -1.09736,0.35387 -0.42237,0 -0.78926,-0.13166 -1.10136,-0.39464 -0.31243,-0.26264 -0.46815,-0.56872 -0.46815,-0.91791 0,-0.3796 0.15338,-0.69972 0.46046,-0.96036 0.30675,-0.26197 0.67766,-0.39296 1.11306,-0.39296 0.31578,0 0.60448,0.0715 0.86546,0.21453 0.26063,0.14301 0.44976,0.31677 0.56605,0.52061 z"
   id="path3775"
   style="fill:#58595b" /><path
   d="m 942.57387,867.45523 c 0,0.14535 0.0551,0.26999 0.16507,0.37391 0.11161,0.10326 0.26097,0.15472 0.44843,0.15472 0.16273,0 0.30575,-0.0458 0.42872,-0.13768 0.1233,-0.0926 0.18512,-0.22087 0.18512,-0.38394 0,-0.11461 -0.0461,-0.21753 -0.13767,-0.30942 -0.0916,-0.0929 -0.28837,-0.1761 -0.59011,-0.24995 -0.46949,-0.11461 -0.70406,-0.33615 -0.70406,-0.66462 0,-0.20283 0.0812,-0.36791 0.24359,-0.49455 0.16407,-0.12798 0.36523,-0.19214 0.60415,-0.19214 0.23458,0 0.43006,0.0692 0.5861,0.20751 0.15605,0.13834 0.23391,0.30475 0.23391,0.49989 h -0.29907 c 0,-0.12931 -0.0525,-0.24059 -0.15738,-0.33348 -0.10392,-0.0939 -0.22823,-0.14101 -0.37358,-0.14101 -0.16541,0 -0.2964,0.0448 -0.39363,0.13433 -0.0969,0.0895 -0.14569,0.19648 -0.14569,0.32112 0,0.10893 0.0434,0.19982 0.12998,0.272 0.0879,0.0715 0.27033,0.13934 0.54701,0.20383 0.50323,0.11795 0.75518,0.36857 0.75518,0.75151 0,0.21185 -0.0892,0.38962 -0.26765,0.53364 -0.17811,0.14435 -0.3933,0.21586 -0.64525,0.21586 -0.26465,0 -0.48285,-0.0702 -0.65494,-0.21085 -0.17175,-0.14068 -0.25763,-0.32413 -0.25763,-0.55068 h 0.2994 z"
   id="path3777"
   style="fill:#58595b" /><path
   d="m 923.63915,857.60175 -4.72692,4.72692 -0.57474,-0.57474 4.72691,-4.72692 0.57475,0.57474 z"
   id="path3781"
   style="fill:#5abd74" /><circle
   cx="231.17"
   cy="692.547"
   r="4.4720001"
   transform="matrix(0.33415201,0,0,0.33415201,841.37894,630.62499)"
   id="circle3783"
   style="fill:#5abd74" /><circle
   cx="245.34801"
   cy="678.37"
   r="4.4720001"
   transform="matrix(0.33415201,0,0,0.33415201,841.37894,630.62499)"
   id="circle3785"
   style="fill:#5abd74" /><path
   d="m 910.84012,863.02203 h -0.6516 l -4.17188,-6.00638 -3.4e-4,6.00638 h -0.81199 v -6.68437 h 1.32358 l 3.99178,5.73505 4.01149,-5.73505 h 1.30353 v 6.68437 h -0.81266 v -6.00638 l -4.18191,6.00638 z"
   id="path3791"
   style="fill:#58595b" /><path
   d="m 926.84901,863.02203 h -0.81166 v -6.68437 H 927.39 l 6.1641,6.04614 v -6.04614 h 0.81266 v 6.68437 h -1.33293 l -6.18482,-6.07588 v 6.07588 z"
   id="path3793"
   style="fill:#58595b" /><path
   d="m 902.20296,859.73598 c 0,1.44721 -1.42516,2.62443 -3.17678,2.62443 -1.75129,0 -3.17645,-1.17722 -3.17645,-2.62443 0,-1.44721 1.42516,-2.62443 3.17645,-2.62443 1.75196,0 3.17678,1.17722 3.17678,2.62443 z m -3.17645,-3.42639 c -2.19371,0 -3.97841,1.53743 -3.97841,3.42673 0,1.88929 1.7847,3.42672 3.97841,3.42672 2.19371,0 3.97875,-1.53743 3.97875,-3.42672 0,-1.8893 -1.78504,-3.42673 -3.97875,-3.42673 z"
   id="path3797"
   style="fill:#58595b" /><path
   d="m 943.51918,859.73598 c 0,1.44721 -1.42515,2.62443 -3.17678,2.62443 -1.75129,0 -3.17645,-1.17722 -3.17645,-2.62443 0,-1.44721 1.42516,-2.62443 3.17645,-2.62443 1.75163,0 3.17678,1.17722 3.17678,2.62443 z m -3.17678,-3.42639 c -2.19371,0 -3.97841,1.53743 -3.97841,3.42673 0,1.88929 1.7847,3.42672 3.97841,3.42672 2.19371,0 3.97875,-1.53743 3.97875,-3.42672 0,-1.8893 -1.78471,-3.42673 -3.97875,-3.42673 z"
   id="path3801"
   style="fill:#58595b" /><path
   d="m 885.31191,856.71358 v 6.04247 0.40098 h 0.40098 3.06317 c 0.0745,0.005 2.33172,0.1086 3.66431,-1.1555 0.62453,-0.59212 0.94131,-1.37837 0.94131,-2.33639 0,-0.85108 -0.28704,-1.56383 -0.85342,-2.11852 -1.28348,-1.25742 -3.55371,-1.22601 -3.64961,-1.224 0.009,0 -3.16476,-0.01 -3.16476,-0.01 l -0.40231,-0.001 v 0.40232 z m 3.58311,0.41134 0,0 c 0.02,-6.7e-4 2.03365,-0.0251 3.07387,0.99644 0.41067,0.40365 0.61049,0.90856 0.61049,1.54378 0,0.73848 -0.22555,1.31188 -0.68935,1.75263 -1.07965,1.02685 -3.07353,0.93897 -3.09392,0.93796 l 0.0765,0.0114 -0.0481,-0.012 h -0.0491 -3.06318 l 0.40099,0.40099 v -6.04247 l -0.40232,0.40098 c 6.7e-4,3.3e-4 3.17478,0.0104 3.18413,0.0104 z"
   id="path3805"
   style="fill:#58595b" />
<path
   d="m 960.57698,862.32299 c 0,1.58388 -0.65561,3.02106 -1.96682,4.31123 0.18345,0.19414 0.41167,0.35152 0.68434,0.47182 0.27267,0.12063 0.61651,0.18111 1.03086,0.18111 v 1.07797 h -0.3385 c -0.28336,0 -0.59512,-0.0475 -0.93629,-0.14168 -0.34117,-0.0946 -0.78927,-0.38561 -1.34496,-0.87314 -1.09635,0.67633 -2.28426,1.01482 -3.56407,1.01482 -1.75162,0 -3.26734,-0.58744 -4.5468,-1.76231 -1.27981,-1.1799 -1.91971,-2.61708 -1.91971,-4.3109 0,-1.80943 0.63222,-3.30443 1.89598,-4.48432 1.26945,-1.18524 2.78783,-1.77802 4.55516,-1.77802 1.93006,0 3.48788,0.61651 4.67312,1.84886 1.1849,1.22701 1.77769,2.7083 1.77769,4.44456 z m -1.1956,-0.0237 c 0,-1.43184 -0.51125,-2.65383 -1.53443,-3.66631 -1.01749,-1.0175 -2.24483,-1.52608 -3.68168,-1.52608 -1.46359,0 -2.71165,0.50858 -3.74484,1.52608 -1.03354,1.01782 -1.5498,2.24216 -1.5498,3.674 0,0.46681 0.0678,0.92059 0.20417,1.361 0.8023,-0.27802 1.6497,-0.41702 2.54089,-0.41702 2.27658,0 4.31657,0.87046 6.12066,2.61173 1.09669,-1.09034 1.64503,-2.27825 1.64503,-3.5634 z m -2.58834,4.23237 c -1.5371,-1.4686 -3.32247,-2.20273 -5.35746,-2.20273 -0.67165,0 -1.29283,0.11294 -1.86457,0.3385 0.48252,0.89151 1.13311,1.55247 1.95112,1.98252 0.82335,0.42471 1.68613,0.63723 2.58834,0.63723 0.9804,0 1.87492,-0.25195 2.68257,-0.75552 z"
   id="path3811"
   style="fill:#00aeef" /><path
   d="m 962.09536,856.20232 h 1.12509 v 2.02964 h -1.12509 v -2.02964 z m 0,3.16242 h 1.12509 v 8.81125 h -1.12509 v -8.81125 z"
   id="path3813"
   style="fill:#00aeef" />






<path
   d="m 885.35468,947.52172 h 0.33148 l 0.78659,2.25085 0.78626,-2.25085 h 0.30174 l 0.78827,2.26121 0.78826,-2.26121 h 0.32714 l -0.91825,2.584 h -0.408 l -0.73113,-2.13022 -0.72678,2.13022 h -0.40833 l -0.91725,-2.584 z"
   id="path3883"
   style="fill:#58595b" /><path
   d="m 892.78188,947.51872 h 0.30374 v 0.43874 h -0.30374 v -0.43874 z m 0,0.683 h 0.30374 v 1.904 h -0.30374 v -1.904 z"
   id="path3885"
   style="fill:#58595b" /><path
   d="m 896.68177,950.10606 v -2.584 h 1.61495 v 0.2329 h -1.29183 v 0.93329 h 1.24104 v 0.2329 h -1.24104 v 1.18491 h -0.32312 z"
   id="path3887"
   style="fill:#58595b" /><path
   d="m 901.76923,947.51872 h 0.30374 v 0.43874 h -0.30374 v -0.43874 z m 0,0.683 h 0.30374 v 1.904 h -0.30374 v -1.904 z"
   id="path3889"
   style="fill:#58595b" /><path
   d="m 909.04439,949.39531 1.43952,-1.87325 h 0.35421 v 1.88027 h 0.26966 v 0.23291 h -0.26966 v 0.47082 h -0.29907 v -0.47082 h -1.49466 v -0.23993 z m 0.34384,0.007 h 1.15049 v -1.54178 l -1.15049,1.54178 z"
   id="path3891"
   style="fill:#58595b" /><path
   d="m 916.87892,947.52172 h 1.68345 v 0.23291 h -0.69203 v 2.35109 h -0.29906 v -2.35109 h -0.69236 v -0.23291 z"
   id="path3893"
   style="fill:#58595b" /><path
   d="m 921.56807,947.52172 h 0.29907 v 1.13913 h 1.52607 v -1.13913 h 0.29907 v 2.584 h -0.29907 v -1.21197 h -1.52607 v 1.21197 h -0.29907 v -2.584 z"
   id="path3895"
   style="fill:#58595b" /><path
   d="m 927.01809,947.52172 h 0.29907 v 2.584 h -0.29907 v -2.584 z"
   id="path3897"
   style="fill:#58595b" /><path
   d="m 930.62326,947.52172 h 0.40131 l 1.67578,2.15094 v -2.15094 h 0.29906 v 2.584 h -0.29906 l -1.77803,-2.28125 v 2.28125 h -0.29906 v -2.584 z"
   id="path3899"
   style="fill:#58595b" /><path
   d="m 939.16886,948.21576 h -0.35387 c -0.12731,-0.17242 -0.28068,-0.29873 -0.46046,-0.37926 -0.1781,-0.0815 -0.38327,-0.1223 -0.61551,-0.1223 -0.35019,0 -0.65026,0.10926 -0.90087,0.3278 -0.25028,0.21753 -0.37559,0.48051 -0.37559,0.78893 0,0.2994 0.12665,0.55469 0.37993,0.76655 0.25296,0.21085 0.55035,0.3161 0.89286,0.3161 0.27534,0 0.53431,-0.0718 0.77657,-0.21586 0.24293,-0.14402 0.39496,-0.32479 0.45645,-0.54233 h -1.65606 v -0.2329 h 2.01394 c -0.0211,0.34451 -0.18646,0.63455 -0.49555,0.87013 -0.30976,0.23591 -0.67532,0.35387 -1.09736,0.35387 -0.42237,0 -0.78926,-0.13166 -1.10136,-0.39464 -0.31243,-0.26264 -0.46815,-0.56872 -0.46815,-0.91791 0,-0.3796 0.15338,-0.69972 0.46046,-0.96035 0.30675,-0.26198 0.67766,-0.39297 1.11306,-0.39297 0.31578,0 0.60448,0.0715 0.86546,0.21453 0.26063,0.14302 0.44976,0.31644 0.56605,0.52061 z"
   id="path3901"
   style="fill:#58595b" /><path
   d="m 942.57387,949.38529 c 0,0.14536 0.0551,0.26999 0.16507,0.37392 0.11161,0.10325 0.26097,0.15471 0.44843,0.15471 0.16273,0 0.30575,-0.0458 0.42872,-0.13767 0.1233,-0.0926 0.18512,-0.22088 0.18512,-0.38394 0,-0.11462 -0.0461,-0.21754 -0.13767,-0.30943 -0.0916,-0.0929 -0.28837,-0.1761 -0.59011,-0.24994 -0.46949,-0.11462 -0.70406,-0.33616 -0.70406,-0.66463 0,-0.20283 0.0812,-0.3679 0.24359,-0.49455 0.16407,-0.12798 0.36523,-0.19213 0.60415,-0.19213 0.23458,0 0.43006,0.0692 0.5861,0.2075 0.15605,0.13834 0.23391,0.30475 0.23391,0.4999 h -0.29907 c 0,-0.12932 -0.0525,-0.24059 -0.15738,-0.33349 -0.10392,-0.0939 -0.22823,-0.14101 -0.37358,-0.14101 -0.16541,0 -0.2964,0.0448 -0.39363,0.13433 -0.0969,0.0896 -0.14569,0.19648 -0.14569,0.32112 0,0.10893 0.0434,0.19982 0.12998,0.272 0.0879,0.0715 0.27033,0.13934 0.54701,0.20383 0.50323,0.11796 0.75518,0.36857 0.75518,0.75151 0,0.21185 -0.0892,0.38962 -0.26765,0.53364 -0.17811,0.14435 -0.3933,0.21586 -0.64525,0.21586 -0.26465,0 -0.48285,-0.0702 -0.65494,-0.21085 -0.17175,-0.14068 -0.25763,-0.32412 -0.25763,-0.55068 h 0.2994 z"
   id="path3903"
   style="fill:#58595b" /><path
   d="m 923.63915,939.53148 -4.72692,4.72692 -0.57474,-0.57475 4.72691,-4.72691 0.57475,0.57474 z"
   id="path3907"
   style="fill:#5abd74" /><circle
   cx="231.17"
   cy="937.73401"
   r="4.4720001"
   transform="matrix(0.33415201,0,0,0.33415201,841.37894,630.62499)"
   id="circle3909"
   style="fill:#5abd74" /><circle
   cx="245.34801"
   cy="923.55798"
   r="4.4720001"
   transform="matrix(0.33415201,0,0,0.33415201,841.37894,630.62499)"
   id="circle3911"
   style="fill:#5abd74" /><path
   d="m 910.84012,944.9521 h -0.6516 l -4.17188,-6.00639 -3.4e-4,6.00639 h -0.81199 v -6.68438 h 1.32358 l 3.99178,5.73505 4.01149,-5.73505 h 1.30353 v 6.68438 h -0.81266 v -6.00639 l -4.18191,6.00639 z"
   id="path3917"
   style="fill:#58595b" /><path
   d="m 926.84901,944.9521 h -0.81166 v -6.68438 H 927.39 l 6.1641,6.04615 v -6.04615 h 0.81266 v 6.68438 h -1.33293 l -6.18482,-6.07622 v 6.07622 z"
   id="path3919"
   style="fill:#58595b" /><path
   d="m 902.20296,941.66604 c 0,1.44722 -1.42516,2.62443 -3.17678,2.62443 -1.75129,0 -3.17645,-1.17721 -3.17645,-2.62443 0,-1.44721 1.42516,-2.62443 3.17645,-2.62443 1.75196,-3.3e-4 3.17678,1.17722 3.17678,2.62443 z m -3.17645,-3.42672 c -2.19371,0 -3.97841,1.53743 -3.97841,3.42672 0,1.8893 1.7847,3.42673 3.97841,3.42673 2.19371,0 3.97875,-1.53743 3.97875,-3.42673 0,-1.88929 -1.78504,-3.42672 -3.97875,-3.42672 z"
   id="path3923"
   style="fill:#58595b" /><path
   d="m 943.51918,941.66604 c 0,1.44722 -1.42515,2.62443 -3.17678,2.62443 -1.75129,0 -3.17645,-1.17721 -3.17645,-2.62443 0,-1.44721 1.42516,-2.62443 3.17645,-2.62443 1.75163,-3.3e-4 3.17678,1.17722 3.17678,2.62443 z m -3.17678,-3.42672 c -2.19371,0 -3.97841,1.53743 -3.97841,3.42672 0,1.8893 1.7847,3.42673 3.97841,3.42673 2.19371,0 3.97875,-1.53743 3.97875,-3.42673 0,-1.88929 -1.78471,-3.42672 -3.97875,-3.42672 z"
   id="path3927"
   style="fill:#58595b" /><path
   d="m 885.31191,938.64364 v 6.04247 0.40098 h 0.40098 3.06317 c 0.0745,0.005 2.33172,0.1086 3.66431,-1.15549 0.62453,-0.59212 0.94131,-1.37838 0.94131,-2.3364 0,-0.85108 -0.28704,-1.56383 -0.85342,-2.11852 -1.28348,-1.25741 -3.55371,-1.226 -3.64961,-1.224 0.009,0 -3.16476,-0.01 -3.16476,-0.01 l -0.40231,-10e-4 v 0.40232 z m 3.58311,0.41101 0,0 c 0.02,-6.7e-4 2.03365,-0.0251 3.07387,0.99644 0.41067,0.40365 0.61049,0.90856 0.61049,1.54378 0,0.73848 -0.22555,1.31188 -0.68935,1.75263 -1.07965,1.02685 -3.07353,0.93896 -3.09392,0.93796 l 0.0765,0.0114 -0.0481,-0.012 h -0.0491 -3.06318 l 0.40099,0.40099 v -6.04247 l -0.40232,0.40098 c 6.7e-4,3.3e-4 3.17478,0.0104 3.18413,0.0104 z"
   id="path3931"
   style="fill:#58595b" />
<path
   d="m 958.14602,947.02183 h 1.33728 c -1.38974,2.18202 -3.19917,3.27302 -5.4283,3.27302 -1.75163,0 -3.24662,-0.59245 -4.48432,-1.77802 -1.2377,-1.18524 -1.85655,-2.61708 -1.85655,-4.29519 0,-1.77301 0.61083,-3.25965 1.83282,-4.46093 1.22734,-1.20094 2.70864,-1.80175 4.44489,-1.80175 1.12777,0 2.18435,0.30174 3.17044,0.90489 0.98608,0.60314 1.71787,1.39241 2.19471,2.3678 h -1.33728 c -0.45144,-0.65528 -1.05158,-1.18524 -1.80175,-1.5889 -0.75017,-0.40399 -1.48965,-0.60581 -2.21877,-0.60581 -1.40544,0 -2.60672,0.50624 -3.60282,1.51838 -0.99143,1.00714 -1.48698,2.22378 -1.48698,3.65061 0,1.34764 0.50858,2.52018 1.52607,3.51629 1.02284,0.99644 2.23448,1.49499 3.63457,1.49499 1.56885,0 2.92751,-0.73179 4.07599,-2.19538 z"
   id="path3937"
   style="fill:#8dc63f" /><path
   d="m 960.7895,945.73969 c 0,-1.28515 0.44308,-2.38384 1.32959,-3.29641 0.89152,-0.91758 1.96682,-1.3767 3.22523,-1.3767 1.31122,0 2.40991,0.45912 3.29641,1.3767 0.88617,0.91257 1.32959,2.0116 1.32959,3.29641 0,1.222 -0.45344,2.29462 -1.361,3.21755 -0.90187,0.91792 -1.99021,1.37671 -3.265,1.37671 -1.22199,0 -2.28693,-0.44309 -3.19416,-1.32959 -0.90722,-0.89119 -1.36066,-1.97952 -1.36066,-3.26467 z m 1.12509,0.0157 c 0,0.95968 0.33014,1.79372 0.99109,2.50146 0.66129,0.70807 1.47662,1.06227 2.44666,1.06227 0.95969,0 1.7807,-0.34318 2.46237,-1.03053 0.68735,-0.69236 1.03052,-1.53676 1.03052,-2.5332 0,-1.10671 -0.34317,-1.99556 -1.03052,-2.66687 -0.68167,-0.67131 -1.50268,-1.00713 -2.46237,-1.00713 -0.89686,0 -1.69381,0.34618 -2.39152,1.03854 -0.69771,0.68702 -1.04623,1.5655 -1.04623,2.63546 z"
   id="path3939"
   style="fill:#8dc63f" /><path
   d="m 971.70892,950.10606 v -8.81126 h 1.12509 v 1.29818 c 0.27801,-0.55569 0.61083,-0.94932 0.99911,-1.17989 0.3933,-0.23056 0.8992,-0.34618 1.51839,-0.34618 v 1.17221 c -0.80798,0.0368 -1.42917,0.30708 -1.86457,0.81065 -0.4354,0.49822 -0.65293,1.14046 -0.65293,1.92739 v 5.12956 h -1.12509 z"
   id="path3941"
   style="fill:#8dc63f" /><path
   d="m 977.25551,946.11728 c 0.005,0.8023 0.3542,1.53677 1.04623,2.20273 0.69236,0.6663 1.5107,0.99912 2.45468,0.99912 0.50356,0 1.06227,-0.16006 1.67577,-0.47984 0.61918,-0.32547 1.09101,-0.87582 1.41614,-1.65205 h 1.19593 c -0.40399,1.01214 -0.99645,1.79105 -1.77803,2.33639 -0.77623,0.54032 -1.60994,0.81032 -2.50179,0.81032 -1.30587,0 -2.40456,-0.46147 -3.29608,-1.38473 -0.89185,-0.92827 -1.33761,-1.99823 -1.33761,-3.20953 0,-1.26376 0.43005,-2.35777 1.29016,-3.2807 0.86011,-0.92794 1.97183,-1.39241 3.33551,-1.39241 1.21698,0 2.27891,0.45144 3.18614,1.35331 0.91257,0.90188 1.36902,2.02196 1.36902,3.35923 v 0.3385 h -8.05607 z m 0.0157,-1.01482 h 6.91528 c -0.17343,-0.95968 -0.58778,-1.70183 -1.24305,-2.22645 -0.65594,-0.52963 -1.38506,-0.79461 -2.18736,-0.79461 -0.92794,0 -1.72823,0.30675 -2.39954,0.92058 -0.67098,0.61351 -1.03287,1.31389 -1.08533,2.10048 z"
   id="path3943"
   style="fill:#8dc63f" />





</svg>