<?xml version="1.0" encoding="UTF-8" standalone="no"?>
<!-- Created with Inkscape (http://www.inkscape.org/) -->

<svg
   xmlns:dc="http://purl.org/dc/elements/1.1/"
   xmlns:cc="http://creativecommons.org/ns#"
   xmlns:rdf="http://www.w3.org/1999/02/22-rdf-syntax-ns#"
   xmlns:svg="http://www.w3.org/2000/svg"
   xmlns="http://www.w3.org/2000/svg"
   version="1.1"
   width="1511.7611"
   height="250"
   id="svg4248">
  <defs
     id="defs4250" />
  <metadata
     id="metadata4253">
    <rdf:RDF>
      <cc:Work
         rdf:about="">
        <dc:format>image/svg+xml</dc:format>
        <dc:type
           rdf:resource="http://purl.org/dc/dcmitype/StillImage" />
        <dc:title></dc:title>
      </cc:Work>
    </rdf:RDF>
  </metadata>
  <g
     transform="translate(-319.62878,-245.70874)"
     id="layer1">
    <path
       d="m 320.49721,442.81492 6.67908,0 3.16983,9.07055 3.17007,9.07125 3.16974,9.07029 3.16961,9.06995 3.16996,9.07092 3.1685,-9.07055 3.16874,-9.07125 3.16841,-9.07029 3.16828,-9.06995 3.16863,-9.07092 6.07983,0 3.1766,9.1123 3.17684,9.113 3.17651,9.11204 3.17638,9.1117 3.17673,9.11267 3.17656,-9.1123 3.1768,-9.113 3.17647,-9.11204 3.17634,-9.1117 3.17669,-9.11267 6.59163,0 -3.08381,8.67799 -3.08353,8.67721 -3.08366,8.67756 -3.08369,8.67766 -3.08386,8.67814 -3.08351,8.67713 -8.2209,0 -2.94633,-8.58443 -2.94656,-8.5851 -2.94625,-8.58418 -2.94661,-8.58526 -2.94598,-8.58339 -2.9288,8.58443 -2.92903,8.5851 -2.92872,8.58418 -2.92908,8.58526 -2.92845,8.58339 -8.22755,0 -3.08045,-8.67799 -3.08018,-8.67721 -3.0803,-8.67756 -3.08033,-8.67766 -3.0805,-8.67814 -3.08015,-8.67713 0,0"
       id="path3635"
       style="fill:#58595b" />
    <path
       d="m 470.1498,442.75447 6.12014,0 0,8.84028 -6.12014,0 0,-8.84028 0,0 m 0,13.76194 6.12014,0 0,9.59121 0,9.5902 0,9.59118 0,9.59161 -6.12014,0 0,-9.59121 0,-9.5902 0,-9.59118 0,-9.59161 0,0"
       id="path3637"
       style="fill:#58595b" />
    <path
       d="m 548.7297,494.88725 0,-8.67796 0,-8.67717 0,-8.67753 0,-8.67762 0,-8.6781 0,-8.6771 8.13515,0 8.13429,0 8.13512,0 8.13549,0 0,4.69276 -8.67646,0 -8.67643,0 -8.67653,0 0,9.40255 0,9.40255 8.33534,0 8.3353,0 8.3354,0 0,4.69277 -8.33534,0 -8.3353,0 -8.3354,0 0,7.95827 0,7.95824 0,7.95834 -6.51063,0 0,0"
       id="path3639"
       style="fill:#58595b" />
    <path
       d="m 651.23826,442.75447 6.12014,0 0,8.84028 -6.12014,0 0,-8.84028 0,0 m 0,13.76194 6.12014,0 0,9.59121 0,9.5902 0,9.59118 0,9.59161 -6.12014,0 0,-9.59121 0,-9.5902 0,-9.59118 0,-9.59161 0,0"
       id="path3641"
       style="fill:#58595b" />
    <path
       d="m 816.78503,485.39624 3.625,0 7.53125,0 0,9.5 6.03125,0 0,-9.5 5.4375,0 0,-4.6875 -5.4375,0 0,-9.46875 0,-9.46875 0,-9.46875 0,-9.46875 -7.125,0 -5.8125,7.53125 -4.25,5.53125 0,8.6875 5.34375,-7.1875 5.8125,-7.75 0,7.75 0,7.78125 0,7.75 0,7.78125 -7.71875,0 -3.4375,0 0,4.6875 z"
       id="path4485"
       style="fill:#58595b" />
    <path
       d="m 816.78503,485.39624 0,-4.6875 -4.3125,0 -7.71875,0 5.78125,-7.78125 5.8125,-7.75 0.4375,-0.59375 0,-8.6875 -1.5625,2.03125 -5.78125,7.53125 -5.8125,7.5625 -5.8125,7.53125 0,4.84375 7.53125,0 7.53125,0 3.90625,0 z"
       id="path3643"
       style="fill:#58595b" />
    <path
       d="m 955.68694,442.81492 8.48046,0 8.47957,0 8.48044,0 8.48082,0 0,4.69296 -6.97265,0 -6.97266,0 0,9.4745 0,9.47524 0,9.47422 0,9.47388 0,9.47489 -6.02463,0 0,-9.4745 0,-9.47524 0,-9.47422 0,-9.47388 0,-9.47489 -6.97568,0 -6.97567,0 0,-4.69296 0,0"
       id="path3645"
       style="fill:#58595b" />
    <path
       d="m 1050.1709,442.81492 6.0246,0 0,7.65087 0,7.65083 0,7.65092 7.6876,0 7.6867,0 7.6876,0 7.6879,0 0,-7.65087 0,-7.65083 0,-7.65092 6.0266,0 0,8.67799 0,8.67721 0,8.67756 0,8.67766 0,8.67814 0,8.67713 -6.0266,0 0,-8.14009 0,-8.14006 0,-8.14015 -7.6876,0 -7.6867,0 -7.6876,0 -7.6879,0 0,8.14009 0,8.14006 0,8.14015 -6.0246,0 0,-8.67799 0,-8.67721 0,-8.67756 0,-8.67766 0,-8.67814 0,-8.67713 0,0"
       id="path3647"
       style="fill:#58595b" />
    <path
       d="m 1159.9843,442.81492 6.0267,0 0,8.67799 0,8.67721 0,8.67756 0,8.67766 0,8.67814 0,8.67713 -6.0267,0 0,-8.67799 0,-8.67721 0,-8.67756 0,-8.67766 0,-8.67814 0,-8.67713 0,0"
       id="path3649"
       style="fill:#58595b" />
    <path
       d="m 1232.6264,442.81492 8.0859,0 5.6279,7.22362 5.6275,7.22297 5.6276,7.22327 5.6278,7.22334 5.628,7.22374 5.6274,7.22291 0,-8.66793 0,-8.6686 0,-8.66768 0,-8.66876 0,-8.66688 6.0246,0 0,8.67799 0,8.67721 0,8.67756 0,8.67766 0,8.67814 0,8.67713 -6.0246,0 -5.9715,-7.66128 -5.9709,-7.6606 -5.9712,-7.6609 -5.9713,-7.66099 -5.9716,-7.66141 -5.9709,-7.66053 0,9.19309 0,9.19382 0,9.19283 0,9.19398 0,9.19199 -6.0247,0 0,-8.67799 0,-8.67721 0,-8.67756 0,-8.67766 0,-8.67814 0,-8.67713 0,0"
       id="path3651"
       style="fill:#58595b" />
    <path
       d="m 1404.814,456.79931 -7.1309,0 -1.9759,-2.38193 -2.165,-2.0492 -2.4651,-1.78642 -2.6727,-1.42446 -2.921,-1.11814 -3.1437,-0.78277 -3.0748,-0.42249 -3.2624,-0.14086 -2.5622,0.10028 -2.4703,0.30083 -2.3786,0.50139 -2.2869,0.70195 -2.2578,0.93165 -2.1612,1.14399 -2.0648,1.35635 -1.9686,1.56869 -1.7388,1.65071 -1.5123,1.73303 -1.2858,1.81535 -1.0591,1.89768 -0.8627,2.06574 -0.6163,2.15517 -0.3698,2.24462 -0.1233,2.33406 0.1264,2.2823 0.3794,2.19436 0.6323,2.1066 0.8852,2.019 1.069,1.82746 1.2949,1.74955 1.5208,1.67178 1.7467,1.59416 1.975,1.50842 2.0607,1.30474 2.1467,1.10113 2.2329,0.8976 2.2692,0.68152 2.3523,0.48671 2.4355,0.29196 2.519,0.0973 4.1232,-0.27473 3.9976,-0.82477 3.8248,-1.35571 3.7003,-1.89421 3.1436,-2.16484 2.5388,-2.40945 1.1684,-1.47096 0.9753,-1.54921 0.7824,-1.62743 0.5896,-1.70566 -8.3424,0 -8.3415,0 -8.3424,0 -8.3428,0 0,-4.69276 8.1161,0 8.1167,0 8.1169,0 8.1164,0 8.1145,0 -0.4759,3.48081 -0.991,3.28641 -1.4992,3.08105 -2.0094,2.8881 -2.2911,2.4792 -2.7194,2.3169 -3.2837,2.21979 -3.479,1.80703 -3.6562,1.38828 -3.8506,0.97964 -3.8332,0.55161 -4.0091,0.18387 -4.0726,-0.21149 -3.8949,-0.63433 -3.8692,-1.11044 -3.677,-1.56902 -3.4311,-1.99139 -3.2456,-2.43503 -2.6952,-2.51924 -2.2424,-2.64482 -1.953,-3.07115 -1.4,-3.22438 -0.8576,-3.43867 -0.2857,-3.59695 0.2615,-3.75144 0.7844,-3.54871 1.3423,-3.41727 1.889,-3.20553 2.2616,-2.80641 2.74,-2.62119 3.2576,-2.45898 3.4815,-2.00309 3.7081,-1.54811 3.9324,-1.09155 3.924,-0.61209 4.1245,-0.20403 4.5983,0.26189 4.3994,0.7857 4.3269,1.35893 4.1126,1.9161 3.4571,2.12892 2.9798,2.33176 1.4738,1.40943 1.3198,1.47462 1.1654,1.5399 1.0106,1.60528 0,0"
       id="path3653"
       style="fill:#58595b" />
    <path
       d="m 1473.4222,480.36447 0.2078,2.11828 0.6234,1.96177 1.0389,1.80525 1.4545,1.64871 1.8303,1.36487 2.1155,0.97411 2.4018,0.584 2.6894,0.19452 2.3842,-0.17312 2.2348,-0.51969 2.0847,-0.86677 1.9343,-1.21437 1.6309,-1.53388 1.1655,-1.80178 0.6998,-2.06798 0.2334,-2.33247 -0.1737,-1.68814 -0.5207,-1.601 -0.8672,-1.51512 -1.213,-1.43052 -0.9808,-0.83263 -1.2675,-0.80616 -3.3967,-1.5335 -2.8712,-0.9545 -3.3738,-0.90952 -3.5892,-1.05898 -3.0663,-1.29697 -1.6852,-0.95311 -1.4719,-1.05024 -1.2587,-1.14736 -1.0455,-1.24448 -0.905,-1.48333 -0.6463,-1.60118 -0.3878,-1.71905 -0.1292,-1.8369 0.077,-1.50331 0.2317,-1.4312 0.3863,-1.35892 0.5412,-1.28649 0.6893,-1.20359 0.8416,-1.13212 0.9942,-1.06049 1.1468,-0.9887 1.3236,-0.93846 1.3994,-0.80858 3.0267,-1.22716 3.0798,-0.67286 3.3427,-0.22442 3.2917,0.24471 3.0145,0.73402 1.4948,0.59178 1.4155,0.73102 1.3362,0.87023 1.2568,1.00941 2.0295,2.15302 1.4612,2.35829 0.5349,1.30632 0.3819,1.36218 0.2291,1.41821 0.076,1.4744 -6.0246,0 -0.1997,-1.88589 -0.5972,-1.74899 -0.9916,-1.61138 -1.383,-1.47312 -1.6477,-1.24214 -1.8034,-0.88799 -1.9598,-0.53324 -2.1169,-0.17788 -2.3697,0.16923 -2.111,0.50761 -1.8532,0.84585 -1.5968,1.18396 -1.2833,1.41947 -0.9175,1.55094 -0.5511,1.68332 -0.1839,1.81661 0.1628,1.57777 0.4895,1.4402 0.8183,1.30137 1.1488,1.16125 2.135,1.28935 3.1819,1.24977 5.7048,1.56791 3.9674,1.15783 3.3696,1.4732 1.8088,1.08531 1.5734,1.2094 1.3378,1.33345 1.1022,1.45749 0.8992,1.65379 0.6423,1.7889 0.3855,1.92398 0.1285,2.05902 -0.088,1.60417 -0.2642,1.53686 -0.4405,1.46963 -0.617,1.40248 -0.7538,1.27633 -0.9149,1.21528 -1.0761,1.1543 -1.2375,1.0934 -1.4174,1.04658 -1.4911,0.90212 -1.5647,0.75798 -1.6382,0.6142 -3.3133,0.77179 -3.5776,0.25675 -3.6502,-0.24075 -3.3325,-0.72254 -1.6969,-0.60256 -1.601,-0.74833 -1.5053,-0.89419 -1.4098,-1.0401 -1.223,-1.11009 -1.059,-1.19191 -0.8949,-1.2738 -0.7309,-1.35579 -0.5611,-1.42063 -0.4009,-1.50085 -0.2405,-1.58117 -0.08,-1.66156 6.0327,0 0,0"
       id="path3655"
       style="fill:#58595b" />
    <path
       d="m 1091.902,281.81749 -6.8033,6.80312 -6.8032,6.80316 -6.8028,6.80267 -6.803,6.80283 -6.8027,6.80258 -6.8036,6.80347 -6.8037,6.80361 -6.8027,6.80255 -6.8035,6.8033 -6.8034,6.80326 -6.8029,6.80283 -6.8038,6.80363 -6.8035,6.8034 -6.80346,6.80333 -5.78989,-5.7903 -5.78989,-5.79029 6.80311,-6.80312 6.80314,-6.80316 6.80269,-6.80267 6.8028,-6.80283 6.8026,-6.80258 6.8034,-6.80347 6.8036,-6.80361 6.8025,-6.80255 6.8033,-6.8033 6.8033,-6.80326 6.8028,-6.80283 6.8036,-6.80363 6.8034,-6.8034 6.8033,-6.80333 5.7909,5.79029 5.7909,5.7903 0,0"
       id="path3659"
       style="fill:#5abd74" />
    <path
       d="m 235.642,447.35901 -0.0909,0.90126 -0.26057,0.83945 -0.41232,0.75963 -0.54607,0.66184 -0.66184,0.54607 -0.75963,0.41232 -0.83945,0.26057 -0.90126,0.0909 -0.90126,-0.0909 -0.83945,-0.26057 -0.75963,-0.41232 -0.66184,-0.54607 -0.54607,-0.66184 -0.41232,-0.75963 -0.26057,-0.83945 -0.0909,-0.90126 0.0909,-0.90126 0.26057,-0.83945 0.41232,-0.75963 0.54607,-0.66184 0.66184,-0.54607 0.75963,-0.41232 0.83945,-0.26057 0.90126,-0.0909 0.90126,0.0909 0.83945,0.26057 0.75963,0.41232 0.66184,0.54607 0.54607,0.66184 0.41232,0.75963 0.26057,0.83945 0.0909,0.90126 0,0"
       transform="matrix(6.732916,0,0,6.732916,-565.58144,-2640.7665)"
       id="circle3661"
       style="fill:#5abd74" />
    <path
       d="m 249.82001,433.18301 -0.0909,0.90126 -0.26057,0.83945 -0.41232,0.75963 -0.54607,0.66184 -0.66185,0.54607 -0.75963,0.41232 -0.83944,0.26057 -0.90126,0.0909 -0.90126,-0.0909 -0.83945,-0.26057 -0.75963,-0.41232 -0.66184,-0.54607 -0.54607,-0.66184 -0.41232,-0.75963 -0.26057,-0.83945 -0.0909,-0.90126 0.0909,-0.90126 0.26057,-0.83944 0.41232,-0.75963 0.54607,-0.66185 0.66184,-0.54607 0.75963,-0.41232 0.83945,-0.26057 0.90126,-0.0909 0.90126,0.0909 0.83944,0.26057 0.75963,0.41232 0.66185,0.54607 0.54607,0.66185 0.41232,0.75963 0.26057,0.83944 0.0909,0.90126 0,0"
       transform="matrix(6.732916,0,0,6.732916,-565.58144,-2640.7665)"
       id="circle3663"
       style="fill:#5abd74" />
    <path
       d="m 834.00959,391.03877 -6.56463,0 -6.56463,0 -5.60403,-8.06826 -5.60364,-8.06768 -5.60409,-8.06834 -5.60364,-8.06769 -5.60443,-8.06883 -5.6039,-8.06805 -5.60383,-8.06797 -5.60406,-8.06829 -5.60437,-8.06875 -5.60371,-8.06778 -5.60438,-8.06876 -5.60436,-8.06873 -5.60419,-8.06847 -5.60377,-8.06788 -5.6043,-8.06864 -4.6e-4,9.30968 -4.6e-4,9.30893 -4.6e-4,9.31001 -4.7e-4,9.30929 -4.6e-4,9.30861 -4.6e-4,9.3094 -4.6e-4,9.30954 -4.6e-4,9.3096 -4.6e-4,9.30942 -4.7e-4,9.30939 -4.6e-4,9.31017 -4.6e-4,9.31045 -4.6e-4,9.30963 -8.18052,0 -8.18052,0 0,-9.62036 0,-9.62041 0,-9.61972 0,-9.61995 0,-9.61961 0,-9.62084 0,-9.62106 0,-9.61956 0,-9.6206 0,-9.62056 0,-9.61995 0,-9.62108 0,-9.62075 0,-9.62066 8.88978,0 8.88973,0 8.88985,0 5.36211,7.70378 5.36173,7.70324 5.36216,7.70386 5.36173,7.70324 5.36249,7.70433 5.36198,7.70359 5.36192,7.70351 5.36213,7.70382 5.36243,7.70425 5.3618,7.70333 5.36244,7.70426 5.36242,7.70424 5.36226,7.70399 5.36186,7.70342 5.36236,7.70415 5.38857,-7.70378 5.38819,-7.70324 5.38863,-7.70386 5.38819,-7.70324 5.38895,-7.70433 5.38844,-7.70359 5.38838,-7.70351 5.38859,-7.70382 5.3889,-7.70425 5.38825,-7.70333 5.38891,-7.70426 5.38889,-7.70424 5.38871,-7.70399 5.38832,-7.70342 5.38883,-7.70415 8.75485,0 8.7548,0 8.75492,0 0,9.62036 0,9.62041 0,9.61972 0,9.61995 0,9.61961 0,9.62084 0,9.62106 0,9.61956 0,9.6206 0,9.62056 0,9.61995 0,9.62108 0,9.62075 0,9.62066 -8.18766,0 -8.18765,0 0,-9.30968 0,-9.30893 0,-9.31001 0,-9.30929 0,-9.30861 0,-9.3094 0,-9.30954 0,-9.3096 0,-9.30942 0,-9.30939 0,-9.31017 0,-9.31045 0,-9.30963 -5.61747,8.06826 -5.61706,8.06768 -5.61753,8.06834 -5.61707,8.06769 -5.61787,8.06883 -5.61732,8.06805 -5.61727,8.06797 -5.61749,8.06829 -5.61781,8.06875 -5.61713,8.06778 -5.61782,8.06876 -5.61779,8.06873 -5.61762,8.06847 -5.61721,8.06788 -5.61773,8.06864 0,0"
       id="path3669"
       style="fill:#58595b" />
    <path
       d="m 1156.5771,391.03877 -8.1765,0 -8.1766,0 0,-9.62036 0,-9.62041 0,-9.61972 0,-9.61995 0,-9.61961 0,-9.62084 0,-9.62106 0,-9.61956 0,-9.6206 0,-9.62056 0,-9.61995 0,-9.62108 0,-9.62075 0,-9.62066 9.0846,0 9.0845,0 9.0847,0 6.9005,6.76845 6.8998,6.76776 6.9002,6.76814 6.9001,6.76805 6.9003,6.76826 6.9004,6.76839 6.9001,6.768 6.9001,6.76806 6.8994,6.76735 6.8995,6.76746 6.8996,6.76755 6.9008,6.76876 6.9003,6.76828 6.9,6.76792 6.8998,6.76777 6.9004,6.76833 6.9,6.76803 6.9008,6.76869 0,-9.3713 0,-9.37055 0,-9.37165 0,-9.37091 0,-9.37023 0,-9.37103 0,-9.37116 0,-9.37122 0,-9.37105 0,-9.37101 0,-9.3718 0,-9.37208 0,-9.37126 8.1877,0 8.1876,0 0,9.62036 0,9.62041 0,9.61972 0,9.61995 0,9.61961 0,9.62084 0,9.62106 0,9.61956 0,9.6206 0,9.62056 0,9.61995 0,9.62108 0,9.62075 0,9.62066 -8.953,0 -8.9529,0 -8.9531,0 -6.9237,-6.80212 -6.9229,-6.80144 -6.9234,-6.80181 -6.9233,-6.80171 -6.9234,-6.80194 -6.9236,-6.80206 -6.9233,-6.80168 -6.9232,-6.80173 -6.9226,-6.80101 -6.9226,-6.80113 -6.9228,-6.80123 -6.924,-6.80243 -6.9235,-6.80195 -6.9231,-6.80159 -6.923,-6.80144 -6.9235,-6.802 -6.9233,-6.8017 -6.9239,-6.80237 0,9.41792 0,9.41718 0,9.41826 0,9.41754 0,9.41684 0,9.41766 0,9.41778 0,9.41785 0,9.41766 0,9.41764 0,9.41842 0,9.41871 0,9.41788 0,0"
       id="path3671"
       style="fill:#58595b" />
    <path
       d="m 603.91003,393.48999 1.8125,-0.125 4.875,-0.65625 4.78125,-0.875 4.78125,-1.1875 4.65625,-1.40625 4.625,-1.6875 4.46875,-1.90625 4.375,-2.1875 4.21875,-2.4375 4.09375,-2.71875 3.90625,-2.90625 3.71875,-3.1875 3.5,-3.40625 3.28125,-3.625 3,-3.84375 2.71875,-4.0625 2.4375,-4.25 2.09375,-4.40625 1.71875,-4.5625 1.375,-4.6875 1,-4.8125 0.59375,-4.8125 0.1875,-4.90625 -0.1875,-4.90625 -0.59375,-4.84375 -1,-4.78125 -1.375,-4.6875 -1.71875,-4.5625 -2.09375,-4.4375 -2.4375,-4.21875 -2.71875,-4.0625 -3,-3.84375 -3.28125,-3.65625 -3.5,-3.375 -3.71875,-3.1875 -3.90625,-2.9375 -4.09375,-2.6875 -4.21875,-2.4375 -4.375,-2.1875 -4.46875,-1.9375 -4.625,-1.6875 -4.65625,-1.40625 -4.78125,-1.15625 -4.78125,-0.90625 -4.875,-0.625 -1.8125,-0.15625 0,16.21875 1.25,0.125 4.5625,0.6875 4.46875,0.9375 4.46875,1.25 4.3125,1.5 4.25,1.8125 4.09375,2.0625 3.96875,2.375 3.75,2.625 3.59375,2.90625 3.3125,3.15625 3.0625,3.46875 2.75,3.65625 2.4375,3.90625 2.03125,4.125 1.625,4.28125 1.1875,4.4375 0.6875,4.53125 0.25,4.625 -0.25,4.625 -0.6875,4.5 -1.1875,4.4375 -1.625,4.3125 -2.03125,4.09375 -2.4375,3.9375 -2.75,3.65625 -3.0625,3.4375 -3.3125,3.15625 -3.59375,2.9375 -3.75,2.59375 -3.96875,2.375 -4.09375,2.0625 -4.25,1.8125 -4.3125,1.5 -4.46875,1.25 -4.46875,0.96875 -4.5625,0.6875 -1.25,0.125 0,16.1875 z"
       id="path4467"
       style="fill:#58595b" />
    <path
       d="m 603.91003,393.48999 0,-16.1875 -3.3125,0.28125 -4.625,0.125 -4.625,-0.125 -4.5625,-0.40625 -4.59375,-0.6875 -4.4375,-0.96875 -4.46875,-1.25 -4.3125,-1.5 -4.28125,-1.8125 -4.0625,-2.0625 -3.96875,-2.375 -3.75,-2.59375 -3.59375,-2.9375 -3.3125,-3.15625 -3.0625,-3.4375 -2.75,-3.65625 -2.4375,-3.9375 -2.03125,-4.09375 -1.625,-4.3125 -1.1875,-4.4375 -0.6875,-4.5 -0.25,-4.625 0.25,-4.625 0.6875,-4.5 1.1875,-4.46875 1.625,-4.28125 2.03125,-4.125 2.4375,-3.90625 2.75,-3.65625 3.0625,-3.46875 3.3125,-3.125 3.59375,-2.9375 3.75,-2.625 3.96875,-2.34375 4.0625,-2.0625 4.28125,-1.8125 4.3125,-1.53125 4.46875,-1.21875 4.4375,-0.96875 4.59375,-0.6875 4.5625,-0.40625 4.625,-0.125 4.625,0.125 3.3125,0.28125 0,-16.21875 -3.03125,-0.25 -4.90625,-0.125 -4.90625,0.125 -4.84375,0.40625 -4.875,0.625 -4.78125,0.90625 -4.78125,1.15625 -4.65625,1.40625 -4.625,1.6875 -4.46875,1.9375 -4.375,2.1875 -4.21875,2.4375 -4.09375,2.6875 -3.90625,2.9375 -3.71875,3.1875 -3.5,3.375 -3.28125,3.65625 -3,3.84375 -2.71875,4.0625 -2.40625,4.25 -2.09375,4.40625 -1.75,4.5625 -1.375,4.6875 -1,4.78125 -0.59375,4.84375 -0.1875,4.90625 0.1875,4.90625 0.59375,4.8125 1,4.8125 1.375,4.6875 1.75,4.5625 2.09375,4.40625 2.40625,4.25 2.71875,4.0625 3,3.84375 3.28125,3.625 3.5,3.40625 3.71875,3.1875 3.90625,2.90625 4.09375,2.71875 4.21875,2.4375 4.40625,2.1875 4.4375,1.90625 4.625,1.6875 4.65625,1.40625 4.78125,1.1875 4.78125,0.875 4.875,0.65625 4.84375,0.375 4.90625,0.125 4.90625,-0.125 3.03125,-0.25 z"
       id="path3675"
       style="fill:#58595b" />
    <path
       d="m 1436.785,393.48999 1.4376,-0.125 4.875,-0.65625 4.7812,-0.875 4.7812,-1.1875 4.6563,-1.40625 4.5937,-1.6875 4.4688,-1.90625 4.4062,-2.1875 4.2188,-2.4375 4.0938,-2.71875 3.875,-2.90625 3.75,-3.1875 3.5,-3.40625 3.2812,-3.625 2.9688,-3.84375 2.75,-4.0625 2.4062,-4.25 2.0938,-4.40625 1.75,-4.5625 1.375,-4.6875 1,-4.8125 0.5937,-4.8125 0.1875,-4.90625 -0.1875,-4.90625 -0.5937,-4.84375 -1,-4.78125 -1.375,-4.6875 -1.75,-4.5625 -2.0938,-4.4375 -2.4062,-4.21875 -2.75,-4.0625 -2.9688,-3.84375 -3.2812,-3.65625 -3.5,-3.375 -3.75,-3.1875 -3.875,-2.9375 -4.0938,-2.6875 -4.2188,-2.4375 -4.4062,-2.1875 -4.4688,-1.9375 -4.5937,-1.6875 -4.6563,-1.40625 -4.7812,-1.15625 -4.7812,-0.90625 -4.875,-0.625 -1.4376,-0.125 0,16.25 0.8438,0.0625 4.5938,0.6875 4.4687,0.9375 4.4687,1.25 4.3126,1.53125 4.25,1.78125 4.0624,2.0625 4,2.375 3.75,2.625 3.5938,2.90625 3.2812,3.15625 3.0938,3.46875 2.75,3.65625 2.4062,3.90625 2.0313,4.125 1.625,4.28125 1.1875,4.4375 0.7188,4.53125 0.25,4.625 -0.25,4.625 -0.7188,4.5 -1.1875,4.4375 -1.625,4.3125 -2.0313,4.09375 -2.4062,3.9375 -2.75,3.65625 -3.0938,3.4375 -3.2812,3.15625 -3.5938,2.9375 -3.75,2.59375 -4,2.375 -4.0624,2.0625 -4.25,1.8125 -4.3126,1.5 -4.4687,1.25 -4.4687,0.96875 -4.5938,0.6875 -0.8438,0.0625 0,16.25 z"
       id="path4476"
       style="fill:#58595b" />
    <path
       d="m 1436.785,393.48999 0,-16.25 -3.6874,0.34375 -4.625,0.125 -4.6563,-0.125 -4.5313,-0.40625 -4.5937,-0.6875 -4.4687,-0.96875 -4.4376,-1.25 -4.3124,-1.5 -4.2813,-1.8125 -4.0625,-2.0625 -4,-2.375 -3.7188,-2.59375 -3.5937,-2.9375 -3.3125,-3.15625 -3.0938,-3.4375 -2.7187,-3.65625 -2.4375,-3.9375 -2.0312,-4.09375 -1.625,-4.3125 -1.1876,-4.4375 -0.7187,-4.5 -0.2187,-4.625 0.2187,-4.625 0.7187,-4.5 1.1876,-4.46875 1.625,-4.28125 2.0312,-4.125 2.4375,-3.90625 2.7187,-3.65625 3.0938,-3.46875 3.3125,-3.125 3.5937,-2.9375 3.7188,-2.625 4,-2.34375 4.0625,-2.0625 4.2813,-1.8125 4.3124,-1.53125 4.4376,-1.21875 4.4687,-0.96875 4.5937,-0.6875 4.5313,-0.40625 4.6563,-0.125 4.625,0.125 3.6874,0.34375 0,-16.25 -3.4062,-0.28125 -4.9062,-0.125 -4.9376,0.125 -4.8437,0.40625 -4.875,0.625 -4.7813,0.90625 -4.7812,1.15625 -4.625,1.40625 -4.625,1.6875 -4.4688,1.9375 -4.4062,2.1875 -4.1875,2.4375 -4.125,2.6875 -3.875,2.9375 -3.75,3.1875 -3.4687,3.375 -3.2813,3.65625 -3,3.84375 -2.75,4.0625 -2.4063,4.25 -2.0937,4.40625 -1.75,4.5625 -1.3437,4.6875 -1,4.78125 -0.5938,4.84375 -0.2188,4.90625 0.2188,4.90625 0.5938,4.8125 1,4.8125 1.3437,4.6875 1.75,4.5625 2.0937,4.40625 2.4063,4.25 2.75,4.0625 3,3.84375 3.2813,3.625 3.4687,3.40625 3.75,3.1875 3.875,2.90625 4.125,2.71875 4.1875,2.4375 4.4062,2.1875 4.4688,1.90625 4.625,1.6875 4.6562,1.40625 4.75,1.1875 4.7813,0.875 4.875,0.65625 4.8437,0.375 4.9376,0.125 4.9062,-0.125 3.4062,-0.25 z"
       id="path3679"
       style="fill:#58595b" />
    <path
       d="m 401.06628,393.55249 2.90625,-0.1875 5.25,-0.53125 4.75,-0.65625 5.03125,-0.875 4.78125,-1.03125 4.875,-1.25 4.6875,-1.4375 4.71875,-1.6875 4.53125,-1.875 4.5,-2.1875 4.3125,-2.40625 4.1875,-2.6875 3.9375,-2.96875 3.71875,-3.28125 3.09375,-3.125 2.8125,-3.3125 2.5625,-3.5 2.28125,-3.71875 2.03125,-3.84375 1.71875,-4 1.40625,-4.09375 1.15625,-4.21875 0.875,-4.21875 0.59375,-4.375 0.34375,-4.28125 0.0937,-4.40625 -0.15625,-4.78125 -0.4375,-4.65625 -0.84375,-4.71875 -1.15625,-4.53125 -1.5625,-4.46875 -1.90625,-4.3125 -2.28125,-4.15625 -2.625,-3.9375 -2.9375,-3.65625 -3.28125,-3.46875 -3.6875,-3.34375 -3.90625,-3 -4.15625,-2.78125 -4.28125,-2.46875 -4.46875,-2.21875 -4.5,-1.9375 -4.71875,-1.75 -4.65625,-1.53125 -4.875,-1.34375 -4.75,-1.09375 -5,-1 -4.75,-0.75 -5.25,-0.65625 -4.625,-0.40625 -0.34375,-0.0312 0,16.25 0.25,0 4.4375,0.4375 5,0.6875 4.5625,0.8125 4.78125,1 4.5625,1.1875 4.59375,1.40625 4.4375,1.625 4.375,1.90625 4.25,2.15625 4.0625,2.46875 3.84375,2.8125 3.53125,3.15625 2.96875,3.1875 2.53125,3.40625 2.1875,3.6875 1.75,3.9375 1.3125,4.03125 0.90625,4.28125 0.5,4.15625 0.15625,4.40625 -0.1875,5 -0.53125,4.71875 -1,4.875 -1.4375,4.59375 -1.96875,4.46875 -2.46875,4.21875 -2.90625,3.84375 -3.375,3.59375 -3.625,3.125 -3.875,2.75 -4.09375,2.40625 -4.28125,2.125 -4.40625,1.84375 -4.46875,1.53125 -4.65625,1.34375 -4.5625,1.09375 -4.8125,0.9375 -4.5625,0.6875 -5.03125,0.5625 -2.75,0.21875 0,16.21875 z"
       id="path4458"
       style="fill:#58595b" />
    <path
       d="m 401.06628,393.55249 0,-16.21875 -1.71875,0.125 -6.84375,0.1875 -1.9375,-0.0312 -0.15625,-0.0312 -1,0 -8.8125,0 -8.8125,0 -8.8125,0 -8.8125,0 -8.8125,0 -8.84375,0 -0.71875,0 0,-1.28125 0,-9.34375 0,-9.375 0,-9.375 0,-9.375 0,-9.34375 0,-9.375 0,-9.375 0,-9.34375 0,-9.375 0,-9.375 0,-9.34375 0,-1.28125 1.0625,0 9.15625,0.0312 9.15625,0.0312 9.1875,0.0312 9.15625,0.0312 9.15625,0.0312 9.1875,0.0312 2.65625,0.0312 6.5625,0.40625 0,-16.25 -6.53125,-0.34375 -3.03125,0 -9.125,-0.0312 -9.09375,-0.0312 -9.125,-0.0312 -9.09375,-0.0312 -9.125,-0.0312 -9.09375,-0.0312 -9.125,-0.0312 -8.09375,0 0,8.09375 0,9.375 0,9.34375 0,9.375 0,9.375 0,9.34375 0,9.375 0,9.375 0,9.375 0,9.34375 0,9.375 0,9.375 0,9.34375 0,9.375 0,8.09375 8.09375,0 8.8125,0 8.8125,0 8.8125,0 8.8125,0 8.84375,0 8.8125,0 8.8125,0 2.9375,0.0625 6.96875,-0.15625 1.71875,-0.125 z"
       id="path3683"
       style="fill:#58595b" />
    <path
       d="m 1706.785,397.36499 0.2188,0 8.7812,-1.15625 4.4063,-0.8125 4.25,-0.9375 4.3437,-1.15625 4.1563,-1.3125 4.2187,-1.5625 4,-1.71875 4,-2 3.7813,-2.1875 3.6875,-2.5 3.4688,-2.6875 3.7187,-3.375 3.375,-3.625 3.0937,-3.90625 2.75,-4.125 2.4063,-4.375 2.0313,-4.5625 1.6562,-4.65625 1.3125,-4.84375 0.9687,-4.84375 0.6876,-5 0.375,-4.875 0.125,-5.09375 -0.125,-4.96875 -0.4063,-4.8125 -0.6875,-4.90625 -1,-4.75 -1.3438,-4.75 -1.6562,-4.5625 -2.0312,-4.46875 -2.375,-4.28125 -2.6876,-4.0625 -3.0312,-3.90625 -3.25,-3.59375 -3.5938,-3.40625 -3.7812,-3.09375 -4.0312,-2.84375 -4.1563,-2.46875 -4.4063,-2.25 -4.4687,-1.90625 -4.6563,-1.65625 -4.625,-1.375 -4.8437,-1.1875 -4.75,-0.90625 -4.9063,-0.75 -4.8124,-0.53125 -0.1876,0 0,22.09375 4.0938,0.65625 4.1875,0.84375 4.2813,1.09375 4.0312,1.28125 4.125,1.65625 3.8125,1.875 3.7813,2.28125 3.4062,2.5625 3.0938,2.84375 2.7812,3.09375 2.5,3.34375 2.125,3.59375 1.7812,3.75 1.4063,3.96875 1.0313,3.96875 0.75,4.1875 0.375,4.09375 0.1562,4.25 -0.1562,4.40625 -0.4063,4.21875 -0.7813,4.3125 -1.125,4.09375 -1.5,4.09375 -1.9062,3.8125 -2.3125,3.625 -2.7187,3.375 -3,3.03125 -3.375,2.78125 -3.7188,2.53125 -3.875,2.25 -4.0312,1.96875 -4.1876,1.65625 -4.25,1.375 -4.4062,1.09375 -4.3438,0.8125 -1.625,0.1875 0,21.6875 z"
       id="path4494"
       style="fill:#d71920" />
    <path
       d="m 1706.785,397.36499 0,-21.6875 -2.9062,0.375 -4.4062,0.3125 -4.5626,0.125 -6.8124,0 -6.8438,0 -9.25,0 -9.2812,0 -9.2813,0 -9.2813,0 0,-9.1875 0,-9.15625 0,-9.15625 0,-9.1875 0,-9.15625 0,-9.15625 0,-9.1875 0,-9.15625 0,-9.15625 0,-9.15625 0,-9.1875 9.2813,0 9.2813,0 9.25,0 9.2812,0 7.9375,0 8.6875,0.25 4.4062,0.3125 4.2188,0.46875 0.2812,0.0312 0,-22.09375 -4.7812,-0.375 -9.8125,-0.28125 -5.0625,0 -5.0625,0 -8.875,0 -8.8437,0 -8.8438,0 -8.875,0 -8.8438,0 -8.8437,0 -8.875,0 0,9.625 0,9.625 0,9.65625 0,9.625 0,9.65625 0,9.625 0,9.625 0,9.65625 0,9.625 0,9.65625 0,9.625 0,9.625 0,9.65625 0,9.625 0,9.65625 0,9.625 0,9.625 0,9.65625 0,9.625 0,9.65625 0,9.625 0,9.625 0,9.65625 0,9.625 0,9.65625 8.0313,0 8.0312,0 8.0312,0 0,-9.6875 0,-9.65625 0,-9.6875 0,-9.65625 0,-9.65625 0,-9.6875 0,-9.65625 0,-9.6875 0,-9.65625 0,-9.65625 9.0313,0 9.0625,0 9.0312,0 9.0313,0 9.0313,0 8.8437,-0.21875 8.5937,-0.625 z"
       id="path3687"
       style="fill:#d71920" />
    <path
       d="m 1808.72,253.62686 7.5566,0 7.5566,0 7.5567,0 0,8.17907 0,8.1797 0,8.17988 0,8.17939 0,8.1775 -7.5566,0 -7.5566,0 -7.5567,0 0,-8.17907 0,-8.1797 0,-8.17988 0,-8.17939 0,-8.1775 0,0 m 0,63.72022 7.5566,0 7.5566,0 7.5567,0 0,9.86389 0,9.8629 0,9.86345 0,9.8633 0,9.86363 0,9.86381 0,9.86324 0,9.86334 0,9.86228 0,9.86246 0,9.86259 0,9.86435 0,9.86365 0,9.86312 0,9.8629 0,9.86372 0,9.86329 0,9.86425 -7.5566,0 -7.5566,0 -7.5567,0 0,-9.86389 0,-9.8629 0,-9.86345 0,-9.8633 0,-9.86363 0,-9.86381 0,-9.86324 0,-9.86334 0,-9.86228 0,-9.86246 0,-9.86259 0,-9.86435 0,-9.86365 0,-9.86312 0,-9.8629 0,-9.86372 0,-9.86329 0,-9.86425 0,0"
       id="path3689"
       style="fill:#d71920" />
  </g>
</svg>
