%
M48
M72
T01C0.0118
T02C0.0315
T03C0.0394
T04C0.0400
T05C0.0531
T06C0.1260
%
T01
X23500Y26000
X24500Y26000
X25500Y26000
X25500Y27000
X24500Y27000
X23500Y27000
X23500Y28000
X24500Y28000
X25500Y28000
X26500Y28000
X27500Y28000
X28400Y27950
X28600Y27500
X28500Y27000
X27500Y27000
X27500Y26000
X26500Y26000
X28500Y26000
X29500Y26000
X30500Y26000
X30300Y26900
X30300Y27300
X29600Y27400
X29650Y27750
X29000Y28800
X28700Y28800
X28500Y29000
X29250Y29350
X29500Y30000
X29000Y30550
X28500Y30000
X27900Y29600
X30250Y28850
X30352Y30098
X31400Y29950
X31900Y29850
X32500Y29350
X32750Y29850
X32950Y30050
X31900Y29050
X32500Y28000
X31500Y27000
X31500Y26000
X32480Y26000
X31000Y31100
X31350Y31700
X31400Y32000
X31350Y32600
X30600Y32700
X30200Y32570
X28350Y32550
X27510Y34000
X28350Y35100
X28650Y35100
X29500Y34700
X29200Y34250
X29950Y35100
X30250Y35100
X30500Y36000
X30500Y37000
X29500Y37000
X27500Y37000
X27500Y36000
X26500Y35000
X25500Y31000
X25500Y30000
X23500Y30000
X23500Y31000
X31500Y35000
X32500Y35000
X32550Y35700
X31900Y36300
X31500Y36000
X31500Y37000
X32550Y36950
X33200Y36300
X32400Y32050
T02
X24500Y31886
X24500Y31098
X24500Y30311
X24500Y29524
T03
X27451Y26575
X30601Y26575
X31000Y36000
X31000Y37000
X30000Y37000
X29000Y37000
X28000Y37000
X28000Y36000
X29000Y36000
X30000Y36000
X27000Y36000
X27000Y37000
T04
X26000Y37000
X25000Y37000
X24000Y37000
X23000Y37000
T05
X23437Y32083
X25563Y32083
X25563Y29327
X23437Y29327
T06
X23500Y35000
M30
