G75*
%MOIN*%
%OFA0B0*%
%FSLAX24Y24*%
%IPPOS*%
%LPD*%
%AMOC8*
5,1,8,0,0,1.08239X$1,22.5*
%
%ADD10C,0.0000*%
%ADD11R,0.0118X0.0571*%
%ADD12R,0.0571X0.0118*%
%ADD13R,0.0472X0.0472*%
%ADD14C,0.0472*%
%ADD15C,0.0382*%
%ADD16C,0.0638*%
%ADD17R,0.0500X0.0550*%
%ADD18R,0.0200X0.0200*%
%ADD19R,0.0250X0.0350*%
%ADD20R,0.0740X0.0740*%
%ADD21C,0.0740*%
%ADD22R,0.0400X0.0600*%
%ADD23C,0.0400*%
%ADD24C,0.0080*%
%ADD25C,0.0197*%
%ADD26C,0.0145*%
%ADD27C,0.0180*%
%ADD28C,0.0100*%
%ADD29C,0.0160*%
%ADD30C,0.0300*%
D10*
X022500Y025000D02*
X022500Y037500D01*
X033500Y037500D01*
X033500Y025000D01*
X022500Y025000D01*
X027254Y026575D02*
X027256Y026602D01*
X027262Y026629D01*
X027271Y026655D01*
X027284Y026679D01*
X027300Y026702D01*
X027319Y026721D01*
X027341Y026738D01*
X027365Y026752D01*
X027390Y026762D01*
X027417Y026769D01*
X027444Y026772D01*
X027472Y026771D01*
X027499Y026766D01*
X027525Y026758D01*
X027549Y026746D01*
X027572Y026730D01*
X027593Y026712D01*
X027610Y026691D01*
X027625Y026667D01*
X027636Y026642D01*
X027644Y026616D01*
X027648Y026589D01*
X027648Y026561D01*
X027644Y026534D01*
X027636Y026508D01*
X027625Y026483D01*
X027610Y026459D01*
X027593Y026438D01*
X027572Y026420D01*
X027550Y026404D01*
X027525Y026392D01*
X027499Y026384D01*
X027472Y026379D01*
X027444Y026378D01*
X027417Y026381D01*
X027390Y026388D01*
X027365Y026398D01*
X027341Y026412D01*
X027319Y026429D01*
X027300Y026448D01*
X027284Y026471D01*
X027271Y026495D01*
X027262Y026521D01*
X027256Y026548D01*
X027254Y026575D01*
X030404Y026575D02*
X030406Y026602D01*
X030412Y026629D01*
X030421Y026655D01*
X030434Y026679D01*
X030450Y026702D01*
X030469Y026721D01*
X030491Y026738D01*
X030515Y026752D01*
X030540Y026762D01*
X030567Y026769D01*
X030594Y026772D01*
X030622Y026771D01*
X030649Y026766D01*
X030675Y026758D01*
X030699Y026746D01*
X030722Y026730D01*
X030743Y026712D01*
X030760Y026691D01*
X030775Y026667D01*
X030786Y026642D01*
X030794Y026616D01*
X030798Y026589D01*
X030798Y026561D01*
X030794Y026534D01*
X030786Y026508D01*
X030775Y026483D01*
X030760Y026459D01*
X030743Y026438D01*
X030722Y026420D01*
X030700Y026404D01*
X030675Y026392D01*
X030649Y026384D01*
X030622Y026379D01*
X030594Y026378D01*
X030567Y026381D01*
X030540Y026388D01*
X030515Y026398D01*
X030491Y026412D01*
X030469Y026429D01*
X030450Y026448D01*
X030434Y026471D01*
X030421Y026495D01*
X030412Y026521D01*
X030406Y026548D01*
X030404Y026575D01*
X022870Y035000D02*
X022872Y035050D01*
X022878Y035100D01*
X022888Y035149D01*
X022902Y035197D01*
X022919Y035244D01*
X022940Y035289D01*
X022965Y035333D01*
X022993Y035374D01*
X023025Y035413D01*
X023059Y035450D01*
X023096Y035484D01*
X023136Y035514D01*
X023178Y035541D01*
X023222Y035565D01*
X023268Y035586D01*
X023315Y035602D01*
X023363Y035615D01*
X023413Y035624D01*
X023462Y035629D01*
X023513Y035630D01*
X023563Y035627D01*
X023612Y035620D01*
X023661Y035609D01*
X023709Y035594D01*
X023755Y035576D01*
X023800Y035554D01*
X023843Y035528D01*
X023884Y035499D01*
X023923Y035467D01*
X023959Y035432D01*
X023991Y035394D01*
X024021Y035354D01*
X024048Y035311D01*
X024071Y035267D01*
X024090Y035221D01*
X024106Y035173D01*
X024118Y035124D01*
X024126Y035075D01*
X024130Y035025D01*
X024130Y034975D01*
X024126Y034925D01*
X024118Y034876D01*
X024106Y034827D01*
X024090Y034779D01*
X024071Y034733D01*
X024048Y034689D01*
X024021Y034646D01*
X023991Y034606D01*
X023959Y034568D01*
X023923Y034533D01*
X023884Y034501D01*
X023843Y034472D01*
X023800Y034446D01*
X023755Y034424D01*
X023709Y034406D01*
X023661Y034391D01*
X023612Y034380D01*
X023563Y034373D01*
X023513Y034370D01*
X023462Y034371D01*
X023413Y034376D01*
X023363Y034385D01*
X023315Y034398D01*
X023268Y034414D01*
X023222Y034435D01*
X023178Y034459D01*
X023136Y034486D01*
X023096Y034516D01*
X023059Y034550D01*
X023025Y034587D01*
X022993Y034626D01*
X022965Y034667D01*
X022940Y034711D01*
X022919Y034756D01*
X022902Y034803D01*
X022888Y034851D01*
X022878Y034900D01*
X022872Y034950D01*
X022870Y035000D01*
D11*
X028017Y031654D03*
X028214Y031654D03*
X028411Y031654D03*
X028608Y031654D03*
X028805Y031654D03*
X029002Y031654D03*
X029198Y031654D03*
X029395Y031654D03*
X029592Y031654D03*
X029789Y031654D03*
X029986Y031654D03*
X030183Y031654D03*
X030183Y028346D03*
X029986Y028346D03*
X029789Y028346D03*
X029592Y028346D03*
X029395Y028346D03*
X029198Y028346D03*
X029002Y028346D03*
X028805Y028346D03*
X028608Y028346D03*
X028411Y028346D03*
X028214Y028346D03*
X028017Y028346D03*
D12*
X027446Y028917D03*
X027446Y029114D03*
X027446Y029311D03*
X027446Y029508D03*
X027446Y029705D03*
X027446Y029902D03*
X027446Y030098D03*
X027446Y030295D03*
X027446Y030492D03*
X027446Y030689D03*
X027446Y030886D03*
X027446Y031083D03*
X030754Y031083D03*
X030754Y030886D03*
X030754Y030689D03*
X030754Y030492D03*
X030754Y030295D03*
X030754Y030098D03*
X030754Y029902D03*
X030754Y029705D03*
X030754Y029508D03*
X030754Y029311D03*
X030754Y029114D03*
X030754Y028917D03*
D13*
X027000Y036000D03*
D14*
X027000Y037000D03*
X028000Y037000D03*
X029000Y037000D03*
X030000Y037000D03*
X030000Y036000D03*
X029000Y036000D03*
X028000Y036000D03*
X031000Y036000D03*
X031000Y037000D03*
D15*
X024500Y031886D03*
X024500Y031098D03*
X024500Y030311D03*
X024500Y029524D03*
D16*
X023437Y029327D03*
X025563Y029327D03*
X025563Y032083D03*
X023437Y032083D03*
D17*
X026850Y032400D03*
X027550Y032400D03*
X027550Y033300D03*
X026850Y033300D03*
D18*
X028100Y033400D03*
X028100Y033100D03*
X028500Y033100D03*
X028500Y033400D03*
X028900Y033400D03*
X028900Y033100D03*
X029300Y033100D03*
X029300Y033400D03*
X029700Y033400D03*
X029700Y033100D03*
X029700Y032600D03*
X029700Y032300D03*
X030100Y032300D03*
X030100Y032600D03*
X030500Y032600D03*
X030500Y032300D03*
X030900Y032300D03*
X030900Y032600D03*
X031300Y032600D03*
X031300Y032300D03*
X031350Y031400D03*
X031350Y031100D03*
X031350Y030600D03*
X031350Y030300D03*
X031400Y029850D03*
X031700Y029850D03*
X031700Y029450D03*
X031400Y029450D03*
X031400Y029050D03*
X031700Y029050D03*
X031700Y028650D03*
X031400Y028650D03*
X031400Y028250D03*
X031700Y028250D03*
X031700Y027850D03*
X031400Y027850D03*
X032200Y028650D03*
X032500Y028650D03*
X032500Y029050D03*
X032200Y029050D03*
X032200Y029450D03*
X032500Y029450D03*
X032500Y029850D03*
X032200Y029850D03*
X029500Y027700D03*
X029500Y027400D03*
X029100Y027400D03*
X029100Y027700D03*
X029550Y026450D03*
X029850Y026450D03*
X026450Y028650D03*
X026450Y028950D03*
X026450Y029450D03*
X026450Y029750D03*
X026500Y030200D03*
X026800Y030200D03*
X026800Y030600D03*
X026500Y030600D03*
X026500Y031000D03*
X026800Y031000D03*
X026800Y031400D03*
X026500Y031400D03*
X026500Y031800D03*
X026800Y031800D03*
X024700Y035950D03*
X024700Y036250D03*
X024300Y036250D03*
X024300Y035950D03*
D19*
X029550Y026900D03*
X030050Y026900D03*
D20*
X023000Y037000D03*
D21*
X024000Y037000D03*
X025000Y037000D03*
X026000Y037000D03*
D22*
X031900Y031250D03*
X032600Y031250D03*
X032600Y030450D03*
X031900Y030450D03*
X030750Y027550D03*
X030050Y027550D03*
D23*
X023975Y028393D03*
X023287Y033661D03*
X032736Y034055D03*
D24*
X032529Y033557D02*
X029885Y033557D01*
X029900Y033541D02*
X029841Y033600D01*
X029782Y033600D01*
X029782Y033654D01*
X030264Y034135D01*
X030365Y034236D01*
X030365Y034890D01*
X030412Y034981D01*
X030448Y035018D01*
X030448Y035052D01*
X030459Y035072D01*
X030459Y035072D01*
X030459Y035072D01*
X030448Y035106D01*
X030448Y035182D01*
X030332Y035298D01*
X030168Y035298D01*
X030100Y035231D01*
X030032Y035298D01*
X029868Y035298D01*
X029752Y035182D01*
X029752Y035124D01*
X029750Y035121D01*
X029750Y035748D01*
X029774Y035724D01*
X029832Y035685D01*
X029896Y035659D01*
X029960Y035646D01*
X029960Y035960D01*
X030040Y035960D01*
X030040Y036040D01*
X029960Y036040D01*
X029960Y036354D01*
X029896Y036341D01*
X029832Y036315D01*
X029774Y036276D01*
X029750Y036252D01*
X029750Y036300D01*
X029712Y036392D01*
X029642Y036462D01*
X029392Y036712D01*
X029300Y036750D01*
X029225Y036750D01*
X029285Y036810D01*
X029336Y036933D01*
X029336Y037067D01*
X029285Y037190D01*
X029190Y037285D01*
X029067Y037336D01*
X028933Y037336D01*
X028810Y037285D01*
X028715Y037190D01*
X028664Y037067D01*
X028664Y036933D01*
X028715Y036810D01*
X028775Y036750D01*
X028225Y036750D01*
X028285Y036810D01*
X028336Y036933D01*
X028336Y037067D01*
X028285Y037190D01*
X028190Y037285D01*
X028067Y037336D01*
X027933Y037336D01*
X027810Y037285D01*
X027715Y037190D01*
X027664Y037067D01*
X027664Y036933D01*
X027715Y036810D01*
X027775Y036750D01*
X027604Y036750D01*
X027336Y037017D01*
X027336Y037067D01*
X027285Y037190D01*
X027190Y037285D01*
X027067Y037336D01*
X026933Y037336D01*
X026810Y037285D01*
X026715Y037190D01*
X026664Y037067D01*
X026664Y036933D01*
X026715Y036810D01*
X026810Y036715D01*
X026933Y036664D01*
X026983Y036664D01*
X027288Y036358D01*
X027358Y036288D01*
X027450Y036250D01*
X027775Y036250D01*
X027715Y036190D01*
X027664Y036067D01*
X027664Y035933D01*
X027715Y035810D01*
X027810Y035715D01*
X027933Y035664D01*
X028067Y035664D01*
X028190Y035715D01*
X028285Y035810D01*
X028336Y035933D01*
X028336Y036067D01*
X028285Y036190D01*
X028225Y036250D01*
X028775Y036250D01*
X028715Y036190D01*
X028664Y036067D01*
X028664Y035933D01*
X028715Y035810D01*
X028810Y035715D01*
X028933Y035664D01*
X029067Y035664D01*
X029190Y035715D01*
X029250Y035775D01*
X029250Y034650D01*
X029288Y034558D01*
X029358Y034488D01*
X029450Y034450D01*
X029550Y034450D01*
X029642Y034488D01*
X029712Y034558D01*
X029750Y034650D01*
X029750Y035068D01*
X029752Y035064D01*
X029752Y035018D01*
X029779Y034990D01*
X029815Y034895D01*
X029815Y034464D01*
X029319Y033967D01*
X029319Y033967D01*
X029218Y033866D01*
X029218Y033600D01*
X029159Y033600D01*
X029100Y033541D01*
X029041Y033600D01*
X028975Y033600D01*
X028975Y034164D01*
X028775Y034364D01*
X028775Y034893D01*
X028816Y034986D01*
X028848Y035018D01*
X028848Y035058D01*
X028860Y035085D01*
X028848Y035116D01*
X028848Y035182D01*
X028732Y035298D01*
X028568Y035298D01*
X028500Y035231D01*
X028432Y035298D01*
X028268Y035298D01*
X028152Y035182D01*
X028152Y035116D01*
X028140Y035085D01*
X028152Y035058D01*
X028152Y035018D01*
X028184Y034986D01*
X028192Y034966D01*
X028198Y034954D01*
X028225Y034893D01*
X028225Y034136D01*
X028425Y033936D01*
X028425Y033600D01*
X028359Y033600D01*
X028308Y033550D01*
X028295Y033573D01*
X028273Y033595D01*
X028246Y033611D01*
X028216Y033619D01*
X028110Y033619D01*
X028110Y033410D01*
X028090Y033410D01*
X028090Y033619D01*
X027984Y033619D01*
X027954Y033611D01*
X027927Y033595D01*
X027905Y033573D01*
X027900Y033564D01*
X027900Y033616D01*
X027841Y033675D01*
X027259Y033675D01*
X027208Y033625D01*
X027195Y033648D01*
X027173Y033670D01*
X027146Y033686D01*
X027116Y033694D01*
X026890Y033694D01*
X026890Y033340D01*
X026810Y033340D01*
X026810Y033694D01*
X026584Y033694D01*
X026554Y033686D01*
X026527Y033670D01*
X026505Y033648D01*
X026489Y033621D01*
X026481Y033591D01*
X026481Y033340D01*
X026810Y033340D01*
X026810Y033260D01*
X026890Y033260D01*
X026890Y032906D01*
X027116Y032906D01*
X027146Y032914D01*
X027173Y032930D01*
X027195Y032952D01*
X027208Y032975D01*
X027259Y032925D01*
X027841Y032925D01*
X027876Y032960D01*
X027900Y032960D01*
X027900Y032959D01*
X027959Y032900D01*
X027960Y032900D01*
X027960Y032042D01*
X027963Y032039D01*
X027917Y032039D01*
X027858Y031980D01*
X027858Y031540D01*
X027792Y031540D01*
X027742Y031490D01*
X027258Y031490D01*
X027000Y031748D01*
X027000Y031941D01*
X026941Y032000D01*
X026940Y032000D01*
X026940Y032025D01*
X027141Y032025D01*
X027192Y032075D01*
X027205Y032052D01*
X027227Y032030D01*
X027254Y032014D01*
X027284Y032006D01*
X027510Y032006D01*
X027510Y032360D01*
X027590Y032360D01*
X027590Y032440D01*
X027510Y032440D01*
X027510Y032794D01*
X027284Y032794D01*
X027254Y032786D01*
X027227Y032770D01*
X027205Y032748D01*
X027192Y032725D01*
X027141Y032775D01*
X026559Y032775D01*
X026500Y032716D01*
X026500Y032084D01*
X026559Y032025D01*
X026660Y032025D01*
X026660Y032002D01*
X026646Y032011D01*
X026616Y032019D01*
X026510Y032019D01*
X026510Y031810D01*
X026490Y031810D01*
X026490Y032019D01*
X026384Y032019D01*
X026354Y032011D01*
X026327Y031995D01*
X026305Y031973D01*
X026289Y031946D01*
X026281Y031916D01*
X026281Y031810D01*
X026490Y031810D01*
X026490Y031790D01*
X026281Y031790D01*
X026281Y031684D01*
X026289Y031654D01*
X026305Y031627D01*
X026327Y031605D01*
X026336Y031600D01*
X026327Y031595D01*
X026305Y031573D01*
X026289Y031546D01*
X026281Y031516D01*
X026281Y031410D01*
X026490Y031410D01*
X026490Y031790D01*
X026510Y031790D01*
X026510Y031619D01*
X026510Y031410D01*
X026490Y031410D01*
X026490Y031390D01*
X026510Y031390D01*
X026510Y031010D01*
X026490Y031010D01*
X026490Y031219D01*
X026490Y031390D01*
X026281Y031390D01*
X026281Y031284D01*
X026289Y031254D01*
X026305Y031227D01*
X026327Y031205D01*
X026336Y031200D01*
X026327Y031195D01*
X026305Y031173D01*
X026289Y031146D01*
X026281Y031116D01*
X026281Y031010D01*
X026490Y031010D01*
X026490Y030990D01*
X026281Y030990D01*
X026281Y030884D01*
X026289Y030854D01*
X026305Y030827D01*
X026327Y030805D01*
X026350Y030792D01*
X026300Y030741D01*
X026300Y030689D01*
X026286Y030675D01*
X024839Y030675D01*
X024672Y030841D01*
X024672Y030859D01*
X024747Y030934D01*
X024791Y031041D01*
X024791Y031156D01*
X024747Y031263D01*
X024665Y031345D01*
X024558Y031389D01*
X024442Y031389D01*
X024335Y031345D01*
X024325Y031335D01*
X024325Y031630D01*
X024353Y031611D01*
X024410Y031588D01*
X024461Y031578D01*
X024461Y031847D01*
X024539Y031847D01*
X024539Y031925D01*
X024808Y031925D01*
X024798Y031976D01*
X024774Y032033D01*
X024741Y032083D01*
X024697Y032126D01*
X024647Y032160D01*
X024590Y032184D01*
X024575Y032187D01*
X024775Y032386D01*
X024775Y035750D01*
X024841Y035750D01*
X024900Y035809D01*
X024900Y036091D01*
X024891Y036100D01*
X024900Y036109D01*
X024900Y036391D01*
X024841Y036450D01*
X024782Y036450D01*
X024782Y036539D01*
X024813Y036569D01*
X024907Y036530D01*
X025093Y036530D01*
X025266Y036602D01*
X025398Y036734D01*
X025470Y036907D01*
X025470Y037093D01*
X025398Y037266D01*
X025303Y037362D01*
X025697Y037362D01*
X025602Y037266D01*
X025530Y037093D01*
X025530Y036907D01*
X025602Y036734D01*
X025734Y036602D01*
X025907Y036530D01*
X026093Y036530D01*
X026266Y036602D01*
X026398Y036734D01*
X026470Y036907D01*
X026470Y037093D01*
X026398Y037266D01*
X026303Y037362D01*
X033362Y037362D01*
X033362Y025138D01*
X022638Y025138D01*
X022638Y036530D01*
X023411Y036530D01*
X023470Y036589D01*
X023470Y037362D01*
X023697Y037362D01*
X023602Y037266D01*
X023530Y037093D01*
X023530Y036907D01*
X023602Y036734D01*
X023734Y036602D01*
X023907Y036530D01*
X024093Y036530D01*
X024187Y036569D01*
X024215Y036541D01*
X024215Y036450D01*
X024159Y036450D01*
X024100Y036391D01*
X024100Y036109D01*
X024109Y036100D01*
X024100Y036091D01*
X024100Y035809D01*
X024159Y035750D01*
X024225Y035750D01*
X024225Y035257D01*
X024151Y035435D01*
X023935Y035651D01*
X023653Y035768D01*
X023347Y035768D01*
X023065Y035651D01*
X022849Y035435D01*
X022732Y035153D01*
X022732Y034847D01*
X022849Y034565D01*
X023065Y034349D01*
X023347Y034232D01*
X023653Y034232D01*
X023935Y034349D01*
X024151Y034565D01*
X024225Y034743D01*
X024225Y032614D01*
X023876Y032265D01*
X023847Y032236D01*
X023843Y032251D01*
X023811Y032312D01*
X023771Y032368D01*
X023722Y032416D01*
X023666Y032457D01*
X023605Y032488D01*
X023539Y032510D01*
X023477Y032519D01*
X023477Y032123D01*
X023397Y032123D01*
X023397Y032519D01*
X023335Y032510D01*
X023269Y032488D01*
X023208Y032457D01*
X023152Y032416D01*
X023103Y032368D01*
X023063Y032312D01*
X023031Y032251D01*
X023010Y032185D01*
X023000Y032123D01*
X023397Y032123D01*
X023397Y032043D01*
X023000Y032043D01*
X023010Y031980D01*
X023031Y031915D01*
X023063Y031853D01*
X023103Y031798D01*
X023152Y031749D01*
X023208Y031708D01*
X023269Y031677D01*
X023335Y031656D01*
X023397Y031646D01*
X023397Y032043D01*
X023477Y032043D01*
X023477Y031646D01*
X023539Y031656D01*
X023605Y031677D01*
X023666Y031708D01*
X023722Y031749D01*
X023771Y031798D01*
X023775Y031803D01*
X023775Y029606D01*
X023771Y029612D01*
X023722Y029661D01*
X023666Y029701D01*
X023605Y029732D01*
X023539Y029754D01*
X023477Y029764D01*
X023477Y029367D01*
X023397Y029367D01*
X023397Y029764D01*
X023335Y029754D01*
X023269Y029732D01*
X023208Y029701D01*
X023152Y029661D01*
X023103Y029612D01*
X023063Y029556D01*
X023031Y029495D01*
X023010Y029429D01*
X023000Y029367D01*
X023397Y029367D01*
X023397Y029287D01*
X023000Y029287D01*
X023010Y029224D01*
X023031Y029159D01*
X023063Y029097D01*
X023103Y029042D01*
X023152Y028993D01*
X023208Y028952D01*
X023269Y028921D01*
X023335Y028900D01*
X023397Y028890D01*
X023397Y029287D01*
X023477Y029287D01*
X023477Y028890D01*
X023539Y028900D01*
X023605Y028921D01*
X023666Y028952D01*
X023722Y028993D01*
X023771Y029042D01*
X023811Y029097D01*
X023843Y029159D01*
X023845Y029166D01*
X024078Y028933D01*
X023867Y028933D01*
X023669Y028851D01*
X023517Y028699D01*
X023435Y028501D01*
X023435Y028286D01*
X023517Y028087D01*
X023669Y027936D01*
X023867Y027853D01*
X024082Y027853D01*
X024281Y027936D01*
X024433Y028087D01*
X024515Y028286D01*
X024515Y028496D01*
X024536Y028475D01*
X025914Y028475D01*
X026246Y028807D01*
X026239Y028796D01*
X026231Y028766D01*
X026231Y028660D01*
X026440Y028660D01*
X026440Y028640D01*
X026460Y028640D01*
X026460Y028660D01*
X026669Y028660D01*
X026669Y028766D01*
X026661Y028796D01*
X026650Y028814D01*
X026650Y028918D01*
X026891Y028918D01*
X026992Y029019D01*
X027061Y029087D01*
X027061Y028817D01*
X027120Y028758D01*
X027773Y028758D01*
X027832Y028817D01*
X027832Y029161D01*
X027892Y029161D01*
X027932Y029121D01*
X028090Y029121D01*
X028340Y029371D01*
X028340Y029927D01*
X028090Y030177D01*
X028090Y031010D01*
X029521Y031010D01*
X030221Y030310D01*
X030368Y030310D01*
X030368Y030300D01*
X030346Y030306D01*
X030329Y030297D01*
X030269Y030297D01*
X030153Y030181D01*
X030153Y030016D01*
X030269Y029900D01*
X030329Y029900D01*
X030346Y029891D01*
X030354Y029893D01*
X030368Y029897D01*
X030368Y029254D01*
X030156Y029254D01*
X030074Y029172D01*
X030042Y029140D01*
X028709Y029140D01*
X028686Y029151D01*
X028677Y029148D01*
X028608Y029172D01*
X028582Y029198D01*
X028534Y029198D01*
X028511Y029206D01*
X028511Y029206D01*
X028511Y029206D01*
X028494Y029198D01*
X028418Y029198D01*
X028302Y029082D01*
X027832Y029082D01*
X027832Y029004D02*
X028302Y029004D01*
X028302Y029082D02*
X028302Y028918D01*
X028418Y028802D01*
X028494Y028802D01*
X028502Y028798D01*
X028502Y028732D01*
X027917Y028732D01*
X027858Y028673D01*
X027858Y028020D01*
X027917Y027961D01*
X028200Y027961D01*
X028202Y027956D01*
X028202Y027868D01*
X028318Y027752D01*
X028468Y027752D01*
X028468Y027712D01*
X028457Y027692D01*
X028460Y027684D01*
X028437Y027628D01*
X028431Y027612D01*
X028402Y027582D01*
X028402Y027538D01*
X028394Y027520D01*
X028394Y027520D01*
X028402Y027503D01*
X028402Y027418D01*
X028518Y027302D01*
X028682Y027302D01*
X028798Y027418D01*
X028798Y027486D01*
X028807Y027502D01*
X028798Y027529D01*
X028798Y027582D01*
X028776Y027605D01*
X028756Y027670D01*
X028759Y027679D01*
X028748Y027706D01*
X028748Y027961D01*
X029163Y027961D01*
X029102Y027900D01*
X028959Y027900D01*
X028900Y027841D01*
X028900Y027564D01*
X028889Y027546D01*
X028881Y027516D01*
X028881Y027410D01*
X029090Y027410D01*
X029090Y027390D01*
X029110Y027390D01*
X029110Y027181D01*
X029216Y027181D01*
X029246Y027189D01*
X029273Y027205D01*
X029295Y027227D01*
X029308Y027250D01*
X029310Y027249D01*
X029310Y026871D01*
X029325Y026856D01*
X029325Y026684D01*
X029360Y026649D01*
X029360Y026601D01*
X029350Y026591D01*
X029350Y026309D01*
X029409Y026250D01*
X029686Y026250D01*
X029704Y026239D01*
X029734Y026231D01*
X029840Y026231D01*
X029840Y026440D01*
X029860Y026440D01*
X029860Y026460D01*
X030069Y026460D01*
X030069Y026566D01*
X030061Y026596D01*
X030045Y026623D01*
X030043Y026625D01*
X030216Y026625D01*
X030275Y026684D01*
X030275Y026702D01*
X030290Y026702D01*
X030266Y026641D01*
X030266Y026508D01*
X030317Y026385D01*
X030411Y026291D01*
X030534Y026240D01*
X030667Y026240D01*
X030791Y026291D01*
X030885Y026385D01*
X030936Y026508D01*
X030936Y026641D01*
X030885Y026765D01*
X030791Y026859D01*
X030667Y026910D01*
X030534Y026910D01*
X030498Y026895D01*
X030498Y026982D01*
X030382Y027098D01*
X030275Y027098D01*
X030275Y027102D01*
X030382Y027102D01*
X030456Y027176D01*
X030477Y027155D01*
X030504Y027139D01*
X030534Y027131D01*
X030710Y027131D01*
X030710Y027510D01*
X030431Y027510D01*
X030431Y027449D01*
X030382Y027498D01*
X030370Y027498D01*
X030350Y027519D01*
X030350Y027891D01*
X030291Y027950D01*
X030136Y027950D01*
X030136Y027961D01*
X030283Y027961D01*
X030342Y028020D01*
X030342Y028160D01*
X030892Y028160D01*
X031200Y027852D01*
X031200Y027709D01*
X031259Y027650D01*
X031541Y027650D01*
X031550Y027659D01*
X031559Y027650D01*
X031841Y027650D01*
X031900Y027709D01*
X031900Y027991D01*
X031841Y028050D01*
X031900Y028109D01*
X031900Y028391D01*
X031850Y028442D01*
X031873Y028455D01*
X031895Y028477D01*
X031911Y028504D01*
X031919Y028534D01*
X031919Y028640D01*
X031710Y028640D01*
X031710Y028660D01*
X031919Y028660D01*
X031919Y028766D01*
X031911Y028796D01*
X031895Y028823D01*
X031873Y028845D01*
X031862Y028852D01*
X031866Y028852D01*
X031889Y028844D01*
X031889Y028844D01*
X031889Y028844D01*
X031906Y028852D01*
X031982Y028852D01*
X032020Y028889D01*
X032059Y028850D01*
X032000Y028791D01*
X032000Y028509D01*
X032059Y028450D01*
X032336Y028450D01*
X032354Y028439D01*
X032384Y028431D01*
X032490Y028431D01*
X032490Y028640D01*
X032510Y028640D01*
X032510Y028660D01*
X032719Y028660D01*
X032719Y028766D01*
X032711Y028796D01*
X032695Y028823D01*
X032673Y028845D01*
X032664Y028850D01*
X032673Y028855D01*
X032695Y028877D01*
X032711Y028904D01*
X032719Y028934D01*
X032719Y029040D01*
X032510Y029040D01*
X032510Y029060D01*
X032719Y029060D01*
X032719Y029166D01*
X032711Y029196D01*
X032695Y029223D01*
X032674Y029244D01*
X032698Y029268D01*
X032698Y029307D01*
X032700Y029309D01*
X032700Y029510D01*
X032908Y029510D01*
X033008Y029610D01*
X033090Y029692D01*
X033090Y029841D01*
X033101Y029864D01*
X033098Y029873D01*
X033122Y029942D01*
X033148Y029968D01*
X033148Y030016D01*
X033156Y030039D01*
X033156Y030039D01*
X033156Y030039D01*
X033148Y030056D01*
X033148Y030132D01*
X033032Y030248D01*
X032919Y030248D01*
X032919Y030410D01*
X032640Y030410D01*
X032640Y030490D01*
X032560Y030490D01*
X032560Y030869D01*
X032560Y031210D01*
X032640Y031210D01*
X032640Y031290D01*
X032560Y031290D01*
X032560Y031669D01*
X032384Y031669D01*
X032354Y031661D01*
X032327Y031645D01*
X032305Y031623D01*
X032289Y031596D01*
X032281Y031566D01*
X032281Y031290D01*
X032560Y031290D01*
X032560Y031210D01*
X032281Y031210D01*
X032281Y030934D01*
X032289Y030904D01*
X032305Y030877D01*
X032327Y030855D01*
X032336Y030850D01*
X032327Y030845D01*
X032305Y030823D01*
X032289Y030796D01*
X032281Y030766D01*
X032281Y030490D01*
X032560Y030490D01*
X032560Y030410D01*
X032281Y030410D01*
X032281Y030190D01*
X032258Y030190D01*
X032200Y030248D01*
X032200Y030791D01*
X032141Y030850D01*
X032200Y030909D01*
X032200Y031591D01*
X032141Y031650D01*
X031659Y031650D01*
X031600Y031591D01*
X031600Y031290D01*
X031569Y031290D01*
X031569Y031390D01*
X031360Y031390D01*
X031360Y031410D01*
X031569Y031410D01*
X031569Y031516D01*
X031561Y031546D01*
X031545Y031573D01*
X031524Y031594D01*
X031548Y031618D01*
X031548Y031782D01*
X031432Y031898D01*
X031268Y031898D01*
X031213Y031844D01*
X030342Y031844D01*
X030342Y031944D01*
X030498Y032100D01*
X030641Y032100D01*
X030700Y032159D01*
X030759Y032100D01*
X031041Y032100D01*
X031092Y032150D01*
X031105Y032127D01*
X031127Y032105D01*
X031154Y032089D01*
X031184Y032081D01*
X031290Y032081D01*
X031290Y032290D01*
X031310Y032290D01*
X031310Y032310D01*
X031519Y032310D01*
X031519Y032416D01*
X031511Y032446D01*
X031500Y032464D01*
X031500Y032469D01*
X031548Y032518D01*
X031548Y032682D01*
X031500Y032731D01*
X031500Y032741D01*
X031441Y032800D01*
X031159Y032800D01*
X031149Y032790D01*
X031051Y032790D01*
X031041Y032800D01*
X030759Y032800D01*
X030708Y032750D01*
X030695Y032773D01*
X030673Y032795D01*
X030646Y032811D01*
X030616Y032819D01*
X030510Y032819D01*
X030510Y032610D01*
X030490Y032610D01*
X030490Y032819D01*
X030384Y032819D01*
X030354Y032811D01*
X030327Y032795D01*
X030305Y032773D01*
X030295Y032756D01*
X030282Y032768D01*
X030273Y032768D01*
X030241Y032800D01*
X029959Y032800D01*
X029908Y032750D01*
X029895Y032773D01*
X029873Y032795D01*
X029846Y032811D01*
X029816Y032819D01*
X029758Y032819D01*
X029839Y032900D01*
X029841Y032900D01*
X029900Y032959D01*
X029900Y033241D01*
X029891Y033250D01*
X029900Y033259D01*
X029900Y033541D01*
X029900Y033478D02*
X033362Y033478D01*
X033362Y033400D02*
X029900Y033400D01*
X029900Y033321D02*
X033362Y033321D01*
X033362Y033243D02*
X029899Y033243D01*
X029900Y033164D02*
X033362Y033164D01*
X033362Y033086D02*
X029900Y033086D01*
X029900Y033007D02*
X033362Y033007D01*
X033362Y032929D02*
X029870Y032929D01*
X029789Y032850D02*
X033362Y032850D01*
X033362Y032772D02*
X031470Y032772D01*
X031538Y032693D02*
X033362Y032693D01*
X033362Y032615D02*
X031548Y032615D01*
X031548Y032536D02*
X033362Y032536D01*
X033362Y032458D02*
X031504Y032458D01*
X031519Y032379D02*
X033362Y032379D01*
X033362Y032301D02*
X031310Y032301D01*
X031310Y032290D02*
X031519Y032290D01*
X031519Y032184D01*
X031511Y032154D01*
X031495Y032127D01*
X031473Y032105D01*
X031446Y032089D01*
X031416Y032081D01*
X031310Y032081D01*
X031310Y032290D01*
X031310Y032222D02*
X031290Y032222D01*
X031290Y032144D02*
X031310Y032144D01*
X031505Y032144D02*
X033362Y032144D01*
X033362Y032222D02*
X031519Y032222D01*
X031501Y031830D02*
X033362Y031830D01*
X033362Y031908D02*
X030342Y031908D01*
X030385Y031987D02*
X033362Y031987D01*
X033362Y032065D02*
X030463Y032065D01*
X030250Y032050D02*
X030500Y032300D01*
X030500Y032290D01*
X030500Y032300D02*
X030900Y032300D01*
X031085Y032144D02*
X031095Y032144D01*
X030715Y032144D02*
X030685Y032144D01*
X030700Y032159D02*
X030700Y032160D01*
X030700Y032159D01*
X030700Y032160D02*
X030700Y032160D01*
X030700Y032590D02*
X030510Y032590D01*
X030510Y032610D01*
X030700Y032610D01*
X030700Y032590D01*
X030696Y032772D02*
X030730Y032772D01*
X030510Y032772D02*
X030490Y032772D01*
X030490Y032693D02*
X030510Y032693D01*
X030510Y032615D02*
X030490Y032615D01*
X030304Y032772D02*
X030270Y032772D01*
X030182Y032625D02*
X030200Y032570D01*
X030180Y032515D01*
X030023Y032573D01*
X030182Y032625D01*
X030170Y032600D02*
X030200Y032570D01*
X030170Y032600D02*
X030100Y032600D01*
X030050Y032600D01*
X030023Y032573D01*
X029750Y032300D01*
X029700Y032300D01*
X029700Y032200D01*
X029592Y032092D01*
X029592Y031654D01*
X029789Y031654D02*
X029789Y031989D01*
X030100Y032300D01*
X030090Y032050D02*
X030250Y032050D01*
X030090Y032050D02*
X029986Y031946D01*
X029986Y031654D01*
X030342Y031460D02*
X030342Y031327D01*
X030283Y031268D01*
X029801Y031268D01*
X030349Y030719D01*
X030349Y030764D01*
X030357Y030794D01*
X030368Y030812D01*
X030368Y031183D01*
X030427Y031242D01*
X030818Y031242D01*
X030889Y031270D01*
X030918Y031298D01*
X030962Y031298D01*
X030985Y031307D01*
X030985Y031307D01*
X030985Y031307D01*
X031006Y031298D01*
X031082Y031298D01*
X031091Y031290D01*
X031131Y031290D01*
X031131Y031390D01*
X031340Y031390D01*
X031340Y031410D01*
X031131Y031410D01*
X031131Y031464D01*
X030382Y031464D01*
X030379Y031460D01*
X030342Y031460D01*
X030342Y031437D02*
X031131Y031437D01*
X031131Y031359D02*
X030342Y031359D01*
X030295Y031280D02*
X030899Y031280D01*
X031139Y030910D02*
X031199Y030910D01*
X031209Y030900D01*
X031247Y030900D01*
X031254Y030893D01*
X031411Y030893D01*
X031419Y030900D01*
X031491Y030900D01*
X031501Y030910D01*
X031600Y030910D01*
X031600Y030909D01*
X031659Y030850D01*
X032141Y030850D01*
X031659Y030850D01*
X031600Y030791D01*
X031600Y030790D01*
X031501Y030790D01*
X031491Y030800D01*
X031209Y030800D01*
X031158Y030749D01*
X031158Y030764D01*
X031150Y030794D01*
X031139Y030812D01*
X031139Y030910D01*
X031139Y030888D02*
X031621Y030888D01*
X031618Y030809D02*
X031141Y030809D01*
X031250Y030850D02*
X032200Y030850D01*
X032600Y030450D01*
X032640Y030417D02*
X033362Y030417D01*
X033362Y030495D02*
X032919Y030495D01*
X032919Y030490D02*
X032919Y030766D01*
X032911Y030796D01*
X032895Y030823D01*
X032873Y030845D01*
X032864Y030850D01*
X032873Y030855D01*
X032895Y030877D01*
X032911Y030904D01*
X032919Y030934D01*
X032919Y031210D01*
X032640Y031210D01*
X032640Y030490D01*
X032919Y030490D01*
X032919Y030574D02*
X033362Y030574D01*
X033362Y030652D02*
X032919Y030652D01*
X032919Y030731D02*
X033362Y030731D01*
X033362Y030809D02*
X032903Y030809D01*
X032901Y030888D02*
X033362Y030888D01*
X033362Y030966D02*
X032919Y030966D01*
X032919Y031045D02*
X033362Y031045D01*
X033362Y031123D02*
X032919Y031123D01*
X032919Y031202D02*
X033362Y031202D01*
X033362Y031280D02*
X032640Y031280D01*
X032640Y031290D02*
X032919Y031290D01*
X032919Y031566D01*
X032911Y031596D01*
X032895Y031623D01*
X032873Y031645D01*
X032846Y031661D01*
X032816Y031669D01*
X032640Y031669D01*
X032640Y031290D01*
X032640Y031359D02*
X032560Y031359D01*
X032560Y031437D02*
X032640Y031437D01*
X032640Y031516D02*
X032560Y031516D01*
X032560Y031594D02*
X032640Y031594D01*
X032911Y031594D02*
X033362Y031594D01*
X033362Y031516D02*
X032919Y031516D01*
X032919Y031437D02*
X033362Y031437D01*
X033362Y031359D02*
X032919Y031359D01*
X032640Y031202D02*
X032560Y031202D01*
X032560Y031280D02*
X032200Y031280D01*
X032200Y031202D02*
X032281Y031202D01*
X032281Y031123D02*
X032200Y031123D01*
X032200Y031045D02*
X032281Y031045D01*
X032281Y030966D02*
X032200Y030966D01*
X032179Y030888D02*
X032299Y030888D01*
X032297Y030809D02*
X032182Y030809D01*
X032200Y030731D02*
X032281Y030731D01*
X032281Y030652D02*
X032200Y030652D01*
X032200Y030574D02*
X032281Y030574D01*
X032281Y030495D02*
X032200Y030495D01*
X032200Y030417D02*
X032560Y030417D01*
X032560Y030495D02*
X032640Y030495D01*
X032640Y030574D02*
X032560Y030574D01*
X032560Y030652D02*
X032640Y030652D01*
X032640Y030731D02*
X032560Y030731D01*
X032560Y030809D02*
X032640Y030809D01*
X032640Y030888D02*
X032560Y030888D01*
X032560Y030966D02*
X032640Y030966D01*
X032640Y031045D02*
X032560Y031045D01*
X032560Y031123D02*
X032640Y031123D01*
X032281Y031359D02*
X032200Y031359D01*
X032200Y031437D02*
X032281Y031437D01*
X032281Y031516D02*
X032200Y031516D01*
X032197Y031594D02*
X032289Y031594D01*
X031603Y031594D02*
X031525Y031594D01*
X031548Y031673D02*
X033362Y031673D01*
X033362Y031751D02*
X031548Y031751D01*
X031569Y031516D02*
X031600Y031516D01*
X031600Y031437D02*
X031569Y031437D01*
X031569Y031359D02*
X031600Y031359D01*
X031350Y031100D02*
X031333Y031083D01*
X031250Y030850D02*
X031089Y030689D01*
X030754Y030689D01*
X031127Y030689D01*
X031127Y030689D01*
X030754Y030689D01*
X030754Y030689D01*
X030754Y030295D02*
X031345Y030295D01*
X031350Y030300D01*
X031366Y029998D02*
X031400Y029950D01*
X031397Y029892D01*
X031230Y029902D01*
X031366Y029998D01*
X031400Y029950D02*
X031400Y029850D01*
X031348Y029902D01*
X031230Y029902D01*
X030754Y029902D01*
X030754Y029705D02*
X031045Y029705D01*
X031100Y029650D01*
X032200Y029650D01*
X032850Y029650D01*
X032950Y029750D01*
X032950Y029873D01*
X032895Y030031D01*
X032950Y030050D01*
X033005Y030031D01*
X032950Y029873D01*
X032950Y030050D01*
X033100Y030181D02*
X033362Y030181D01*
X033362Y030103D02*
X033148Y030103D01*
X033151Y030024D02*
X033362Y030024D01*
X033362Y029946D02*
X033126Y029946D01*
X033100Y029867D02*
X033362Y029867D01*
X033362Y029789D02*
X033090Y029789D01*
X033090Y029710D02*
X033362Y029710D01*
X033362Y029632D02*
X033030Y029632D01*
X032951Y029553D02*
X033362Y029553D01*
X033362Y029475D02*
X032700Y029475D01*
X032700Y029396D02*
X033362Y029396D01*
X033362Y029318D02*
X032700Y029318D01*
X032679Y029239D02*
X033362Y029239D01*
X033362Y029161D02*
X032719Y029161D01*
X032719Y029082D02*
X033362Y029082D01*
X033362Y029004D02*
X032719Y029004D01*
X032716Y028925D02*
X033362Y028925D01*
X033362Y028847D02*
X032670Y028847D01*
X032718Y028768D02*
X033362Y028768D01*
X033362Y028690D02*
X032719Y028690D01*
X032719Y028640D02*
X032510Y028640D01*
X032510Y028431D01*
X032616Y028431D01*
X032646Y028439D01*
X032673Y028455D01*
X032695Y028477D01*
X032711Y028504D01*
X032719Y028534D01*
X032719Y028640D01*
X032719Y028611D02*
X033362Y028611D01*
X033362Y028533D02*
X032718Y028533D01*
X032671Y028454D02*
X033362Y028454D01*
X033362Y028376D02*
X031900Y028376D01*
X031900Y028297D02*
X033362Y028297D01*
X033362Y028219D02*
X031900Y028219D01*
X031900Y028140D02*
X033362Y028140D01*
X033362Y028062D02*
X031853Y028062D01*
X031841Y028050D02*
X031840Y028050D01*
X031840Y028050D01*
X031841Y028050D01*
X031900Y027983D02*
X033362Y027983D01*
X033362Y027905D02*
X031900Y027905D01*
X031900Y027826D02*
X033362Y027826D01*
X033362Y027748D02*
X031900Y027748D01*
X031860Y027669D02*
X033362Y027669D01*
X033362Y027591D02*
X031069Y027591D01*
X031069Y027590D02*
X031069Y027866D01*
X031061Y027896D01*
X031045Y027923D01*
X031023Y027945D01*
X030996Y027961D01*
X030966Y027969D01*
X030790Y027969D01*
X030790Y027590D01*
X030710Y027590D01*
X030710Y027969D01*
X030534Y027969D01*
X030504Y027961D01*
X030477Y027945D01*
X030455Y027923D01*
X030439Y027896D01*
X030431Y027866D01*
X030431Y027590D01*
X030710Y027590D01*
X030710Y027510D01*
X030790Y027510D01*
X030790Y027590D01*
X031069Y027590D01*
X031069Y027669D02*
X031240Y027669D01*
X031200Y027748D02*
X031069Y027748D01*
X031069Y027826D02*
X031200Y027826D01*
X031148Y027905D02*
X031056Y027905D01*
X031069Y027983D02*
X030305Y027983D01*
X030337Y027905D02*
X030444Y027905D01*
X030431Y027826D02*
X030350Y027826D01*
X030350Y027748D02*
X030431Y027748D01*
X030431Y027669D02*
X030350Y027669D01*
X030350Y027591D02*
X030431Y027591D01*
X030357Y027512D02*
X030710Y027512D01*
X030710Y027434D02*
X030790Y027434D01*
X030790Y027510D02*
X030790Y027131D01*
X030966Y027131D01*
X030996Y027139D01*
X031023Y027155D01*
X031045Y027177D01*
X031061Y027204D01*
X031069Y027234D01*
X031069Y027510D01*
X030790Y027510D01*
X030790Y027512D02*
X033362Y027512D01*
X033362Y027434D02*
X031069Y027434D01*
X031069Y027355D02*
X033362Y027355D01*
X033362Y027277D02*
X031069Y027277D01*
X031057Y027198D02*
X033362Y027198D01*
X033362Y027120D02*
X030400Y027120D01*
X030440Y027041D02*
X033362Y027041D01*
X033362Y026963D02*
X030498Y026963D01*
X030730Y026884D02*
X033362Y026884D01*
X033362Y026806D02*
X030844Y026806D01*
X030901Y026727D02*
X033362Y026727D01*
X033362Y026649D02*
X030933Y026649D01*
X030936Y026570D02*
X033362Y026570D01*
X033362Y026492D02*
X030929Y026492D01*
X030897Y026413D02*
X033362Y026413D01*
X033362Y026335D02*
X030835Y026335D01*
X030707Y026256D02*
X033362Y026256D01*
X033362Y026178D02*
X022638Y026178D01*
X022638Y026256D02*
X027345Y026256D01*
X027384Y026240D02*
X027518Y026240D01*
X027641Y026291D01*
X027735Y026385D01*
X027786Y026508D01*
X027786Y026641D01*
X027735Y026765D01*
X027641Y026859D01*
X027518Y026910D01*
X027384Y026910D01*
X027261Y026859D01*
X027167Y026765D01*
X027116Y026641D01*
X027116Y026508D01*
X027167Y026385D01*
X027261Y026291D01*
X027384Y026240D01*
X027558Y026256D02*
X029403Y026256D01*
X029350Y026335D02*
X027685Y026335D01*
X027747Y026413D02*
X029350Y026413D01*
X029350Y026492D02*
X027780Y026492D01*
X027786Y026570D02*
X029350Y026570D01*
X029360Y026649D02*
X027784Y026649D01*
X027751Y026727D02*
X029325Y026727D01*
X029325Y026806D02*
X027695Y026806D01*
X027581Y026884D02*
X029310Y026884D01*
X029310Y026963D02*
X022638Y026963D01*
X022638Y027041D02*
X029310Y027041D01*
X029310Y027120D02*
X022638Y027120D01*
X022638Y027198D02*
X028939Y027198D01*
X028927Y027205D02*
X028954Y027189D01*
X028984Y027181D01*
X029090Y027181D01*
X029090Y027390D01*
X028881Y027390D01*
X028881Y027284D01*
X028889Y027254D01*
X028905Y027227D01*
X028927Y027205D01*
X028883Y027277D02*
X022638Y027277D01*
X022638Y027355D02*
X028464Y027355D01*
X028402Y027434D02*
X022638Y027434D01*
X022638Y027512D02*
X028398Y027512D01*
X028394Y027520D02*
X028394Y027520D01*
X028410Y027591D02*
X022638Y027591D01*
X022638Y027669D02*
X028454Y027669D01*
X028437Y027628D02*
X028437Y027628D01*
X028468Y027748D02*
X022638Y027748D01*
X022638Y027826D02*
X028243Y027826D01*
X028202Y027905D02*
X024206Y027905D01*
X024328Y027983D02*
X027895Y027983D01*
X027858Y028062D02*
X024407Y028062D01*
X024454Y028140D02*
X027858Y028140D01*
X027858Y028219D02*
X024487Y028219D01*
X024515Y028297D02*
X027858Y028297D01*
X027858Y028376D02*
X024515Y028376D01*
X024515Y028454D02*
X026279Y028454D01*
X026277Y028455D02*
X026304Y028439D01*
X026334Y028431D01*
X026440Y028431D01*
X026440Y028640D01*
X026231Y028640D01*
X026231Y028534D01*
X026239Y028504D01*
X026255Y028477D01*
X026277Y028455D01*
X026232Y028533D02*
X025971Y028533D01*
X026050Y028611D02*
X026231Y028611D01*
X026231Y028690D02*
X026128Y028690D01*
X026207Y028768D02*
X026232Y028768D01*
X026440Y028611D02*
X026460Y028611D01*
X026460Y028640D02*
X026460Y028431D01*
X026566Y028431D01*
X026596Y028439D01*
X026623Y028455D01*
X026645Y028477D01*
X026661Y028504D01*
X026669Y028534D01*
X026669Y028640D01*
X026460Y028640D01*
X026460Y028533D02*
X026440Y028533D01*
X026440Y028454D02*
X026460Y028454D01*
X026621Y028454D02*
X027858Y028454D01*
X027858Y028533D02*
X026668Y028533D01*
X026669Y028611D02*
X027858Y028611D01*
X027874Y028690D02*
X026669Y028690D01*
X026668Y028768D02*
X027110Y028768D01*
X027061Y028847D02*
X026650Y028847D01*
X026899Y028925D02*
X027061Y028925D01*
X027061Y029004D02*
X026977Y029004D01*
X027056Y029082D02*
X027061Y029082D01*
X027446Y029508D02*
X027446Y029508D01*
X027851Y029508D01*
X027851Y029583D01*
X027843Y029613D01*
X027832Y029631D01*
X027832Y029898D01*
X027960Y029770D01*
X027960Y029529D01*
X027892Y029461D01*
X027851Y029461D01*
X027851Y029508D01*
X027446Y029508D01*
X027832Y029632D02*
X027960Y029632D01*
X027960Y029710D02*
X027832Y029710D01*
X027832Y029789D02*
X027941Y029789D01*
X027863Y029867D02*
X027832Y029867D01*
X027851Y029553D02*
X027960Y029553D01*
X027906Y029475D02*
X027851Y029475D01*
X027832Y029161D02*
X027893Y029161D01*
X028129Y029161D02*
X028380Y029161D01*
X028519Y029055D02*
X028500Y029000D01*
X028519Y028945D01*
X028677Y029000D01*
X028519Y029055D01*
X028500Y029000D02*
X028677Y029000D01*
X030100Y029000D01*
X030214Y029114D01*
X030754Y029114D01*
X030739Y029100D01*
X030754Y029114D02*
X031086Y029114D01*
X031150Y029050D01*
X031150Y028900D01*
X031400Y028650D01*
X031400Y028250D02*
X031200Y028250D01*
X031000Y028450D01*
X030650Y028450D01*
X030375Y028725D01*
X030225Y028797D01*
X030250Y028850D01*
X030303Y028875D01*
X030375Y028725D01*
X030250Y028850D01*
X030063Y029161D02*
X029341Y029161D01*
X029332Y029152D02*
X029448Y029268D01*
X029448Y029432D01*
X029332Y029548D01*
X029320Y029548D01*
X029190Y029679D01*
X029190Y030459D01*
X029198Y030468D01*
X029198Y030632D01*
X029082Y030748D01*
X028918Y030748D01*
X028802Y030632D01*
X028802Y030468D01*
X028810Y030459D01*
X028810Y029521D01*
X028921Y029410D01*
X029052Y029280D01*
X029052Y029268D01*
X029168Y029152D01*
X029332Y029152D01*
X029420Y029239D02*
X030141Y029239D01*
X030368Y029318D02*
X029448Y029318D01*
X029448Y029396D02*
X030368Y029396D01*
X030368Y029475D02*
X029406Y029475D01*
X029316Y029553D02*
X030368Y029553D01*
X030368Y029632D02*
X029237Y029632D01*
X029190Y029710D02*
X030368Y029710D01*
X030368Y029789D02*
X029190Y029789D01*
X029190Y029867D02*
X030368Y029867D01*
X030224Y029946D02*
X029190Y029946D01*
X029190Y030024D02*
X030153Y030024D01*
X030153Y030103D02*
X029190Y030103D01*
X029190Y030181D02*
X030154Y030181D01*
X030232Y030260D02*
X029190Y030260D01*
X029190Y030338D02*
X030193Y030338D01*
X030115Y030417D02*
X029190Y030417D01*
X029198Y030495D02*
X030036Y030495D01*
X029958Y030574D02*
X029198Y030574D01*
X029179Y030652D02*
X029879Y030652D01*
X029801Y030731D02*
X029100Y030731D01*
X028900Y030731D02*
X028090Y030731D01*
X028090Y030809D02*
X029722Y030809D01*
X029644Y030888D02*
X028090Y030888D01*
X028090Y030966D02*
X029565Y030966D01*
X029867Y031202D02*
X030386Y031202D01*
X030368Y031123D02*
X029946Y031123D01*
X030024Y031045D02*
X030368Y031045D01*
X030368Y030966D02*
X030103Y030966D01*
X030181Y030888D02*
X030368Y030888D01*
X030366Y030809D02*
X030260Y030809D01*
X030338Y030731D02*
X030349Y030731D01*
X030346Y030306D02*
X030346Y030306D01*
X030346Y030306D01*
X030754Y029508D02*
X031342Y029508D01*
X031400Y029450D01*
X031139Y029311D02*
X031400Y029050D01*
X031700Y029050D02*
X031723Y029050D01*
X031881Y029105D01*
X031900Y029050D01*
X031881Y028995D01*
X031723Y029050D01*
X031900Y029050D01*
X031895Y028847D02*
X032055Y028847D01*
X032060Y028850D02*
X032059Y028850D01*
X032060Y028850D01*
X032060Y028850D01*
X032000Y028768D02*
X031918Y028768D01*
X031919Y028690D02*
X032000Y028690D01*
X032000Y028611D02*
X031919Y028611D01*
X031918Y028533D02*
X032000Y028533D01*
X032055Y028454D02*
X031871Y028454D01*
X031700Y028250D02*
X031700Y027850D01*
X031400Y027850D02*
X030950Y028300D01*
X030229Y028300D01*
X030183Y028346D01*
X030342Y028140D02*
X030912Y028140D01*
X030990Y028062D02*
X030342Y028062D01*
X030710Y027905D02*
X030790Y027905D01*
X030790Y027826D02*
X030710Y027826D01*
X030710Y027748D02*
X030790Y027748D01*
X030790Y027669D02*
X030710Y027669D01*
X030710Y027591D02*
X030790Y027591D01*
X030790Y027355D02*
X030710Y027355D01*
X030710Y027277D02*
X030790Y027277D01*
X030790Y027198D02*
X030710Y027198D01*
X030268Y026649D02*
X030240Y026649D01*
X030266Y026570D02*
X030068Y026570D01*
X030069Y026492D02*
X030272Y026492D01*
X030305Y026413D02*
X030069Y026413D01*
X030069Y026440D02*
X029860Y026440D01*
X029860Y026231D01*
X029966Y026231D01*
X029996Y026239D01*
X030023Y026255D01*
X030045Y026277D01*
X030061Y026304D01*
X030069Y026334D01*
X030069Y026440D01*
X030069Y026335D02*
X030367Y026335D01*
X030494Y026256D02*
X030024Y026256D01*
X029860Y026256D02*
X029840Y026256D01*
X029840Y026335D02*
X029860Y026335D01*
X029860Y026413D02*
X029840Y026413D01*
X029310Y027198D02*
X029261Y027198D01*
X029110Y027198D02*
X029090Y027198D01*
X029090Y027277D02*
X029110Y027277D01*
X029110Y027355D02*
X029090Y027355D01*
X028881Y027355D02*
X028736Y027355D01*
X028798Y027434D02*
X028881Y027434D01*
X028881Y027512D02*
X028804Y027512D01*
X028807Y027502D02*
X028807Y027502D01*
X028807Y027502D01*
X028790Y027591D02*
X028900Y027591D01*
X028900Y027669D02*
X028756Y027669D01*
X028748Y027748D02*
X028900Y027748D01*
X028900Y027826D02*
X028748Y027826D01*
X028748Y027905D02*
X029107Y027905D01*
X029100Y027700D02*
X029395Y027995D01*
X029395Y028346D01*
X029002Y028346D02*
X029002Y028448D01*
X029000Y028450D01*
X029000Y028623D01*
X028945Y028781D01*
X029000Y028800D01*
X029055Y028781D01*
X029000Y028623D01*
X029000Y028800D01*
X028800Y028700D02*
X028700Y028800D01*
X028665Y028753D01*
X028800Y028654D01*
X028756Y028815D01*
X028700Y028800D01*
X028800Y028700D02*
X028800Y028654D01*
X028800Y028351D01*
X028805Y028346D01*
X029000Y028348D02*
X029000Y028450D01*
X028608Y028346D02*
X028608Y027677D01*
X028656Y027517D01*
X028600Y027500D01*
X028546Y027522D01*
X028608Y027677D01*
X028608Y027508D01*
X028600Y027500D01*
X028456Y027966D02*
X028400Y027950D01*
X028346Y027973D01*
X028411Y028127D01*
X028456Y027966D01*
X028411Y027961D02*
X028400Y027950D01*
X028411Y027961D02*
X028411Y028127D01*
X028411Y028346D01*
X028502Y028768D02*
X027783Y028768D01*
X027832Y028847D02*
X028373Y028847D01*
X028302Y028925D02*
X027832Y028925D01*
X028208Y029239D02*
X029080Y029239D01*
X029014Y029318D02*
X028286Y029318D01*
X028340Y029396D02*
X028935Y029396D01*
X028857Y029475D02*
X028340Y029475D01*
X028340Y029553D02*
X028810Y029553D01*
X028810Y029632D02*
X028340Y029632D01*
X028340Y029710D02*
X028810Y029710D01*
X028810Y029789D02*
X028340Y029789D01*
X028340Y029867D02*
X028810Y029867D01*
X028810Y029946D02*
X028322Y029946D01*
X028243Y030024D02*
X028810Y030024D01*
X028810Y030103D02*
X028165Y030103D01*
X028090Y030181D02*
X028810Y030181D01*
X028810Y030260D02*
X028090Y030260D01*
X028090Y030338D02*
X028810Y030338D01*
X028810Y030417D02*
X028090Y030417D01*
X028090Y030495D02*
X028802Y030495D01*
X028802Y030574D02*
X028090Y030574D01*
X028090Y030652D02*
X028821Y030652D01*
X029000Y031652D02*
X029002Y031654D01*
X029016Y032039D02*
X028975Y032039D01*
X028975Y032900D01*
X029041Y032900D01*
X029100Y032959D01*
X029100Y033241D01*
X029091Y033250D01*
X029100Y033259D01*
X029100Y033541D01*
X029100Y033259D01*
X029109Y033250D01*
X029100Y033241D01*
X029100Y032959D01*
X029110Y032949D01*
X029016Y032855D01*
X029016Y032039D01*
X029016Y032065D02*
X028975Y032065D01*
X028975Y032144D02*
X029016Y032144D01*
X029016Y032222D02*
X028975Y032222D01*
X028975Y032301D02*
X029016Y032301D01*
X029016Y032379D02*
X028975Y032379D01*
X028975Y032458D02*
X029016Y032458D01*
X029016Y032536D02*
X028975Y032536D01*
X028975Y032615D02*
X029016Y032615D01*
X029016Y032693D02*
X028975Y032693D01*
X028975Y032772D02*
X029016Y032772D01*
X029016Y032850D02*
X028975Y032850D01*
X029070Y032929D02*
X029090Y032929D01*
X029100Y033007D02*
X029100Y033007D01*
X029100Y033086D02*
X029100Y033086D01*
X029100Y033164D02*
X029100Y033164D01*
X029099Y033243D02*
X029101Y033243D01*
X029100Y033321D02*
X029100Y033321D01*
X029100Y033400D02*
X029100Y033400D01*
X029100Y033478D02*
X029100Y033478D01*
X029085Y033557D02*
X029115Y033557D01*
X029218Y033635D02*
X028975Y033635D01*
X028975Y033714D02*
X029218Y033714D01*
X029218Y033792D02*
X028975Y033792D01*
X028975Y033871D02*
X029222Y033871D01*
X029300Y033949D02*
X028975Y033949D01*
X028975Y034028D02*
X029379Y034028D01*
X029457Y034106D02*
X028975Y034106D01*
X028954Y034185D02*
X029536Y034185D01*
X029614Y034263D02*
X028876Y034263D01*
X028797Y034342D02*
X029693Y034342D01*
X029771Y034420D02*
X028775Y034420D01*
X028775Y034499D02*
X029348Y034499D01*
X029280Y034577D02*
X028775Y034577D01*
X028775Y034656D02*
X029250Y034656D01*
X029250Y034734D02*
X028775Y034734D01*
X028775Y034813D02*
X029250Y034813D01*
X029250Y034891D02*
X028775Y034891D01*
X028809Y034970D02*
X029250Y034970D01*
X029250Y035048D02*
X028848Y035048D01*
X028860Y035085D02*
X028860Y035085D01*
X028860Y035085D01*
X028848Y035127D02*
X029250Y035127D01*
X029250Y035205D02*
X028826Y035205D01*
X028747Y035284D02*
X029250Y035284D01*
X029250Y035362D02*
X024775Y035362D01*
X024775Y035284D02*
X028253Y035284D01*
X028174Y035205D02*
X024775Y035205D01*
X024775Y035127D02*
X028152Y035127D01*
X028152Y035048D02*
X024775Y035048D01*
X024775Y034970D02*
X028191Y034970D01*
X028198Y034954D02*
X028198Y034954D01*
X028225Y034891D02*
X024775Y034891D01*
X024775Y034813D02*
X028225Y034813D01*
X028225Y034734D02*
X024775Y034734D01*
X024775Y034656D02*
X028225Y034656D01*
X028225Y034577D02*
X024775Y034577D01*
X024775Y034499D02*
X028225Y034499D01*
X028225Y034420D02*
X024775Y034420D01*
X024775Y034342D02*
X028225Y034342D01*
X028225Y034263D02*
X024775Y034263D01*
X024775Y034185D02*
X028225Y034185D01*
X028255Y034106D02*
X024775Y034106D01*
X024775Y034028D02*
X028334Y034028D01*
X028412Y033949D02*
X024775Y033949D01*
X024775Y033871D02*
X028425Y033871D01*
X028425Y033792D02*
X024775Y033792D01*
X024775Y033714D02*
X028425Y033714D01*
X028425Y033635D02*
X027881Y033635D01*
X028090Y033557D02*
X028110Y033557D01*
X028110Y033478D02*
X028090Y033478D01*
X028304Y033557D02*
X028315Y033557D01*
X028300Y033236D02*
X028300Y032959D01*
X028359Y032900D01*
X028425Y032900D01*
X028425Y032058D01*
X028411Y032058D01*
X028340Y032058D01*
X028240Y032158D01*
X028240Y032900D01*
X028241Y032900D01*
X028300Y032959D01*
X028300Y033236D01*
X028300Y033236D01*
X028300Y033164D02*
X028300Y033164D01*
X028300Y033086D02*
X028300Y033086D01*
X028300Y033007D02*
X028300Y033007D01*
X028270Y032929D02*
X028330Y032929D01*
X028240Y032850D02*
X028425Y032850D01*
X028425Y032772D02*
X028240Y032772D01*
X028240Y032693D02*
X028425Y032693D01*
X028425Y032615D02*
X028240Y032615D01*
X028240Y032536D02*
X028425Y032536D01*
X028425Y032458D02*
X028240Y032458D01*
X028240Y032379D02*
X028425Y032379D01*
X028425Y032301D02*
X028240Y032301D01*
X028240Y032222D02*
X028425Y032222D01*
X028425Y032144D02*
X028254Y032144D01*
X028333Y032065D02*
X028425Y032065D01*
X028411Y032058D02*
X028411Y031654D01*
X028411Y032058D01*
X028411Y031987D02*
X028411Y031987D01*
X028411Y031908D02*
X028411Y031908D01*
X028411Y031830D02*
X028411Y031830D01*
X028411Y031751D02*
X028411Y031751D01*
X028411Y031673D02*
X028411Y031673D01*
X028411Y031654D02*
X028411Y031654D01*
X028214Y031654D02*
X028214Y031986D01*
X028100Y032100D01*
X028100Y033100D01*
X027750Y033100D01*
X027550Y033300D01*
X027219Y033635D02*
X027202Y033635D01*
X026890Y033635D02*
X026810Y033635D01*
X026810Y033557D02*
X026890Y033557D01*
X026890Y033478D02*
X026810Y033478D01*
X026810Y033400D02*
X026890Y033400D01*
X026810Y033321D02*
X024775Y033321D01*
X024775Y033243D02*
X026481Y033243D01*
X026481Y033260D02*
X026481Y033009D01*
X026489Y032979D01*
X026505Y032952D01*
X026527Y032930D01*
X026554Y032914D01*
X026584Y032906D01*
X026810Y032906D01*
X026810Y033260D01*
X026481Y033260D01*
X026481Y033164D02*
X024775Y033164D01*
X024775Y033086D02*
X026481Y033086D01*
X026482Y033007D02*
X024775Y033007D01*
X024775Y032929D02*
X026530Y032929D01*
X026555Y032772D02*
X024775Y032772D01*
X024775Y032850D02*
X027960Y032850D01*
X027960Y032772D02*
X027870Y032772D01*
X027873Y032770D02*
X027846Y032786D01*
X027816Y032794D01*
X027590Y032794D01*
X027590Y032440D01*
X027919Y032440D01*
X027919Y032691D01*
X027911Y032721D01*
X027895Y032748D01*
X027873Y032770D01*
X027918Y032693D02*
X027960Y032693D01*
X027960Y032615D02*
X027919Y032615D01*
X027919Y032536D02*
X027960Y032536D01*
X027960Y032458D02*
X027919Y032458D01*
X027960Y032379D02*
X027590Y032379D01*
X027590Y032360D02*
X027919Y032360D01*
X027919Y032109D01*
X027911Y032079D01*
X027895Y032052D01*
X027873Y032030D01*
X027846Y032014D01*
X027816Y032006D01*
X027590Y032006D01*
X027590Y032360D01*
X027590Y032301D02*
X027510Y032301D01*
X027510Y032222D02*
X027590Y032222D01*
X027590Y032144D02*
X027510Y032144D01*
X027510Y032065D02*
X027590Y032065D01*
X027864Y031987D02*
X026955Y031987D01*
X027000Y031908D02*
X027858Y031908D01*
X027858Y031830D02*
X027000Y031830D01*
X027000Y031751D02*
X027858Y031751D01*
X027858Y031673D02*
X027075Y031673D01*
X027154Y031594D02*
X027858Y031594D01*
X027768Y031516D02*
X027232Y031516D01*
X027200Y031350D02*
X027800Y031350D01*
X027850Y031400D01*
X027950Y031400D01*
X028000Y031450D01*
X028000Y031636D01*
X028017Y031654D01*
X028017Y031783D01*
X028000Y031800D01*
X027960Y032065D02*
X027902Y032065D01*
X027919Y032144D02*
X027960Y032144D01*
X027960Y032222D02*
X027919Y032222D01*
X027919Y032301D02*
X027960Y032301D01*
X027590Y032458D02*
X027510Y032458D01*
X027510Y032536D02*
X027590Y032536D01*
X027590Y032615D02*
X027510Y032615D01*
X027510Y032693D02*
X027590Y032693D01*
X027590Y032772D02*
X027510Y032772D01*
X027230Y032772D02*
X027145Y032772D01*
X027170Y032929D02*
X027255Y032929D01*
X026890Y032929D02*
X026810Y032929D01*
X026810Y033007D02*
X026890Y033007D01*
X026890Y033086D02*
X026810Y033086D01*
X026810Y033164D02*
X026890Y033164D01*
X026890Y033243D02*
X026810Y033243D01*
X026481Y033400D02*
X024775Y033400D01*
X024775Y033478D02*
X026481Y033478D01*
X026481Y033557D02*
X024775Y033557D01*
X024775Y033635D02*
X026498Y033635D01*
X026500Y032693D02*
X024775Y032693D01*
X024775Y032615D02*
X026500Y032615D01*
X026500Y032536D02*
X024775Y032536D01*
X024775Y032458D02*
X025335Y032458D01*
X025334Y032457D02*
X025278Y032416D01*
X025229Y032368D01*
X025189Y032312D01*
X025157Y032251D01*
X025136Y032185D01*
X025126Y032123D01*
X025523Y032123D01*
X025523Y032519D01*
X025461Y032510D01*
X025395Y032488D01*
X025334Y032457D01*
X025240Y032379D02*
X024768Y032379D01*
X024689Y032301D02*
X025183Y032301D01*
X025148Y032222D02*
X024611Y032222D01*
X024672Y032144D02*
X025130Y032144D01*
X025126Y032043D02*
X025136Y031980D01*
X025157Y031915D01*
X025189Y031853D01*
X025229Y031798D01*
X025278Y031749D01*
X025334Y031708D01*
X025395Y031677D01*
X025461Y031656D01*
X025523Y031646D01*
X025523Y032043D01*
X025126Y032043D01*
X025135Y031987D02*
X024793Y031987D01*
X024753Y032065D02*
X025523Y032065D01*
X025523Y032043D02*
X025523Y032123D01*
X025603Y032123D01*
X025603Y032519D01*
X025665Y032510D01*
X025731Y032488D01*
X025792Y032457D01*
X025848Y032416D01*
X025897Y032368D01*
X025937Y032312D01*
X025969Y032251D01*
X025990Y032185D01*
X026000Y032123D01*
X025603Y032123D01*
X025603Y032043D01*
X026000Y032043D01*
X025990Y031980D01*
X025969Y031915D01*
X025937Y031853D01*
X025897Y031798D01*
X025848Y031749D01*
X025792Y031708D01*
X025731Y031677D01*
X025665Y031656D01*
X025603Y031646D01*
X025603Y032043D01*
X025523Y032043D01*
X025523Y031987D02*
X025603Y031987D01*
X025603Y032065D02*
X026519Y032065D01*
X026510Y031987D02*
X026490Y031987D01*
X026490Y031908D02*
X026510Y031908D01*
X026510Y031830D02*
X026490Y031830D01*
X026490Y031751D02*
X026510Y031751D01*
X026510Y031673D02*
X026490Y031673D01*
X026490Y031594D02*
X026510Y031594D01*
X026510Y031516D02*
X026490Y031516D01*
X026490Y031437D02*
X026510Y031437D01*
X026510Y031359D02*
X026490Y031359D01*
X026490Y031280D02*
X026510Y031280D01*
X026510Y031202D02*
X026490Y031202D01*
X026490Y031123D02*
X026510Y031123D01*
X026510Y031045D02*
X026490Y031045D01*
X026281Y031045D02*
X024791Y031045D01*
X024791Y031123D02*
X026283Y031123D01*
X026333Y031202D02*
X024772Y031202D01*
X024730Y031280D02*
X026282Y031280D01*
X026281Y031359D02*
X024632Y031359D01*
X024590Y031588D02*
X024647Y031611D01*
X024697Y031645D01*
X024741Y031688D01*
X024774Y031739D01*
X024798Y031795D01*
X024808Y031847D01*
X024539Y031847D01*
X024539Y031578D01*
X024590Y031588D01*
X024605Y031594D02*
X026326Y031594D01*
X026284Y031673D02*
X025717Y031673D01*
X025603Y031673D02*
X025523Y031673D01*
X025523Y031751D02*
X025603Y031751D01*
X025603Y031830D02*
X025523Y031830D01*
X025523Y031908D02*
X025603Y031908D01*
X025603Y032144D02*
X025523Y032144D01*
X025523Y032222D02*
X025603Y032222D01*
X025603Y032301D02*
X025523Y032301D01*
X025523Y032379D02*
X025603Y032379D01*
X025603Y032458D02*
X025523Y032458D01*
X025791Y032458D02*
X026500Y032458D01*
X026500Y032379D02*
X025886Y032379D01*
X025943Y032301D02*
X026500Y032301D01*
X026500Y032222D02*
X025978Y032222D01*
X025996Y032144D02*
X026500Y032144D01*
X026319Y031987D02*
X025991Y031987D01*
X025965Y031908D02*
X026281Y031908D01*
X026281Y031830D02*
X025920Y031830D01*
X025850Y031751D02*
X026281Y031751D01*
X026281Y031516D02*
X024325Y031516D01*
X024325Y031594D02*
X024395Y031594D01*
X024461Y031594D02*
X024539Y031594D01*
X024539Y031673D02*
X024461Y031673D01*
X024461Y031751D02*
X024539Y031751D01*
X024539Y031830D02*
X024461Y031830D01*
X024539Y031908D02*
X025161Y031908D01*
X025206Y031830D02*
X024805Y031830D01*
X024779Y031751D02*
X025276Y031751D01*
X025409Y031673D02*
X024725Y031673D01*
X024325Y031437D02*
X026281Y031437D01*
X026281Y030966D02*
X024760Y030966D01*
X024701Y030888D02*
X026281Y030888D01*
X026323Y030809D02*
X024705Y030809D01*
X024783Y030731D02*
X026300Y030731D01*
X026800Y031000D02*
X026914Y030886D01*
X027446Y030886D01*
X027200Y031350D02*
X026800Y031750D01*
X026800Y031800D01*
X026800Y032350D01*
X026850Y032400D01*
X027181Y032065D02*
X027198Y032065D01*
X027845Y032929D02*
X027930Y032929D01*
X029690Y032751D02*
X029710Y032771D01*
X029710Y032610D01*
X029690Y032610D01*
X029690Y032751D01*
X029690Y032693D02*
X029710Y032693D01*
X029710Y032615D02*
X029690Y032615D01*
X029896Y032772D02*
X029930Y032772D01*
X029782Y033635D02*
X032393Y033635D01*
X032430Y033597D02*
X032629Y033515D01*
X032844Y033515D01*
X033042Y033597D01*
X033194Y033749D01*
X033276Y033948D01*
X033276Y034163D01*
X033194Y034361D01*
X033042Y034513D01*
X032844Y034595D01*
X032629Y034595D01*
X032430Y034513D01*
X032278Y034361D01*
X032196Y034163D01*
X032196Y033948D01*
X032278Y033749D01*
X032430Y033597D01*
X032314Y033714D02*
X029842Y033714D01*
X029921Y033792D02*
X032261Y033792D01*
X032228Y033871D02*
X029999Y033871D01*
X030078Y033949D02*
X032196Y033949D01*
X032196Y034028D02*
X030156Y034028D01*
X030235Y034106D02*
X032196Y034106D01*
X032205Y034185D02*
X030313Y034185D01*
X030365Y034263D02*
X032238Y034263D01*
X032270Y034342D02*
X030365Y034342D01*
X030365Y034420D02*
X032337Y034420D01*
X032416Y034499D02*
X030365Y034499D01*
X030365Y034577D02*
X032585Y034577D01*
X032887Y034577D02*
X033362Y034577D01*
X033362Y034499D02*
X033056Y034499D01*
X033135Y034420D02*
X033362Y034420D01*
X033362Y034342D02*
X033202Y034342D01*
X033235Y034263D02*
X033362Y034263D01*
X033362Y034185D02*
X033267Y034185D01*
X033276Y034106D02*
X033362Y034106D01*
X033362Y034028D02*
X033276Y034028D01*
X033276Y033949D02*
X033362Y033949D01*
X033362Y033871D02*
X033244Y033871D01*
X033212Y033792D02*
X033362Y033792D01*
X033362Y033714D02*
X033158Y033714D01*
X033080Y033635D02*
X033362Y033635D01*
X033362Y033557D02*
X032944Y033557D01*
X033362Y034656D02*
X030365Y034656D01*
X030365Y034734D02*
X033362Y034734D01*
X033362Y034813D02*
X030365Y034813D01*
X030365Y034891D02*
X033362Y034891D01*
X033362Y034970D02*
X030406Y034970D01*
X030448Y035048D02*
X033362Y035048D01*
X033362Y035127D02*
X030448Y035127D01*
X030426Y035205D02*
X033362Y035205D01*
X033362Y035284D02*
X030347Y035284D01*
X030153Y035284D02*
X030047Y035284D01*
X029853Y035284D02*
X029750Y035284D01*
X029750Y035362D02*
X033362Y035362D01*
X033362Y035441D02*
X029750Y035441D01*
X029750Y035519D02*
X033362Y035519D01*
X033362Y035598D02*
X029750Y035598D01*
X029750Y035676D02*
X029855Y035676D01*
X029960Y035676D02*
X030040Y035676D01*
X030040Y035646D02*
X030104Y035659D01*
X030168Y035685D01*
X030226Y035724D01*
X030276Y035774D01*
X030315Y035832D01*
X030341Y035896D01*
X030354Y035960D01*
X030040Y035960D01*
X030040Y035646D01*
X030040Y035755D02*
X029960Y035755D01*
X029960Y035833D02*
X030040Y035833D01*
X030040Y035912D02*
X029960Y035912D01*
X030040Y035990D02*
X030664Y035990D01*
X030664Y035933D02*
X030715Y035810D01*
X030810Y035715D01*
X030933Y035664D01*
X031067Y035664D01*
X031190Y035715D01*
X031285Y035810D01*
X031336Y035933D01*
X031336Y036067D01*
X031285Y036190D01*
X031190Y036285D01*
X031067Y036336D01*
X030933Y036336D01*
X030810Y036285D01*
X030715Y036190D01*
X030664Y036067D01*
X030664Y035933D01*
X030673Y035912D02*
X030344Y035912D01*
X030315Y035833D02*
X030705Y035833D01*
X030770Y035755D02*
X030257Y035755D01*
X030145Y035676D02*
X030904Y035676D01*
X031096Y035676D02*
X033362Y035676D01*
X033362Y035755D02*
X031230Y035755D01*
X031295Y035833D02*
X033362Y035833D01*
X033362Y035912D02*
X031327Y035912D01*
X031336Y035990D02*
X033362Y035990D01*
X033362Y036069D02*
X031336Y036069D01*
X031303Y036147D02*
X033362Y036147D01*
X033362Y036226D02*
X031250Y036226D01*
X031145Y036304D02*
X033362Y036304D01*
X033362Y036383D02*
X029716Y036383D01*
X029748Y036304D02*
X029816Y036304D01*
X029960Y036304D02*
X030040Y036304D01*
X030040Y036354D02*
X030040Y036040D01*
X030354Y036040D01*
X030341Y036104D01*
X030315Y036168D01*
X030276Y036226D01*
X030226Y036276D01*
X030168Y036315D01*
X030104Y036341D01*
X030040Y036354D01*
X030040Y036226D02*
X029960Y036226D01*
X029960Y036147D02*
X030040Y036147D01*
X030040Y036069D02*
X029960Y036069D01*
X030184Y036304D02*
X030855Y036304D01*
X030750Y036226D02*
X030276Y036226D01*
X030323Y036147D02*
X030697Y036147D01*
X030664Y036069D02*
X030348Y036069D01*
X030104Y036659D02*
X030168Y036685D01*
X030226Y036724D01*
X030276Y036774D01*
X030315Y036832D01*
X030341Y036896D01*
X030354Y036960D01*
X030040Y036960D01*
X030040Y037040D01*
X030354Y037040D01*
X030341Y037104D01*
X030315Y037168D01*
X030276Y037226D01*
X030226Y037276D01*
X030168Y037315D01*
X030104Y037341D01*
X030040Y037354D01*
X030040Y037040D01*
X029960Y037040D01*
X029960Y037354D01*
X029896Y037341D01*
X029832Y037315D01*
X029774Y037276D01*
X029724Y037226D01*
X029685Y037168D01*
X029659Y037104D01*
X029646Y037040D01*
X029960Y037040D01*
X029960Y036960D01*
X030040Y036960D01*
X030040Y036646D01*
X030104Y036659D01*
X030040Y036697D02*
X029960Y036697D01*
X029960Y036646D02*
X029960Y036960D01*
X029646Y036960D01*
X029659Y036896D01*
X029685Y036832D01*
X029724Y036774D01*
X029774Y036724D01*
X029832Y036685D01*
X029896Y036659D01*
X029960Y036646D01*
X029960Y036775D02*
X030040Y036775D01*
X030040Y036854D02*
X029960Y036854D01*
X029960Y036932D02*
X030040Y036932D01*
X030040Y037011D02*
X030664Y037011D01*
X030664Y037067D02*
X030664Y036933D01*
X030715Y036810D01*
X030810Y036715D01*
X030933Y036664D01*
X031067Y036664D01*
X031190Y036715D01*
X031285Y036810D01*
X031336Y036933D01*
X031336Y037067D01*
X031285Y037190D01*
X031190Y037285D01*
X031067Y037336D01*
X030933Y037336D01*
X030810Y037285D01*
X030715Y037190D01*
X030664Y037067D01*
X030673Y037089D02*
X030344Y037089D01*
X030315Y037168D02*
X030705Y037168D01*
X030771Y037246D02*
X030256Y037246D01*
X030144Y037325D02*
X030905Y037325D01*
X031095Y037325D02*
X033362Y037325D01*
X033362Y037246D02*
X031229Y037246D01*
X031295Y037168D02*
X033362Y037168D01*
X033362Y037089D02*
X031327Y037089D01*
X031336Y037011D02*
X033362Y037011D01*
X033362Y036932D02*
X031336Y036932D01*
X031303Y036854D02*
X033362Y036854D01*
X033362Y036775D02*
X031251Y036775D01*
X031146Y036697D02*
X033362Y036697D01*
X033362Y036618D02*
X029486Y036618D01*
X029564Y036540D02*
X033362Y036540D01*
X033362Y036461D02*
X029643Y036461D01*
X029815Y036697D02*
X029407Y036697D01*
X029251Y036775D02*
X029723Y036775D01*
X029676Y036854D02*
X029303Y036854D01*
X029336Y036932D02*
X029652Y036932D01*
X029656Y037089D02*
X029327Y037089D01*
X029336Y037011D02*
X029960Y037011D01*
X029960Y037089D02*
X030040Y037089D01*
X030040Y037168D02*
X029960Y037168D01*
X029960Y037246D02*
X030040Y037246D01*
X030040Y037325D02*
X029960Y037325D01*
X029856Y037325D02*
X029095Y037325D01*
X029229Y037246D02*
X029744Y037246D01*
X029685Y037168D02*
X029295Y037168D01*
X028905Y037325D02*
X028095Y037325D01*
X028229Y037246D02*
X028771Y037246D01*
X028705Y037168D02*
X028295Y037168D01*
X028327Y037089D02*
X028673Y037089D01*
X028664Y037011D02*
X028336Y037011D01*
X028336Y036932D02*
X028664Y036932D01*
X028697Y036854D02*
X028303Y036854D01*
X028251Y036775D02*
X028749Y036775D01*
X028750Y036226D02*
X028250Y036226D01*
X028303Y036147D02*
X028697Y036147D01*
X028664Y036069D02*
X028336Y036069D01*
X028336Y035990D02*
X028664Y035990D01*
X028673Y035912D02*
X028327Y035912D01*
X028295Y035833D02*
X028705Y035833D01*
X028770Y035755D02*
X028230Y035755D01*
X028096Y035676D02*
X028904Y035676D01*
X029096Y035676D02*
X029250Y035676D01*
X029250Y035598D02*
X024775Y035598D01*
X024775Y035676D02*
X026710Y035676D01*
X026722Y035664D02*
X027278Y035664D01*
X027336Y035722D01*
X027336Y036278D01*
X027278Y036336D01*
X026722Y036336D01*
X026664Y036278D01*
X026664Y035722D01*
X026722Y035664D01*
X026664Y035755D02*
X024846Y035755D01*
X024900Y035833D02*
X026664Y035833D01*
X026664Y035912D02*
X024900Y035912D01*
X024900Y035990D02*
X026664Y035990D01*
X026664Y036069D02*
X024900Y036069D01*
X024900Y036147D02*
X026664Y036147D01*
X026664Y036226D02*
X024900Y036226D01*
X024900Y036304D02*
X026690Y036304D01*
X026854Y036697D02*
X026361Y036697D01*
X026416Y036775D02*
X026749Y036775D01*
X026697Y036854D02*
X026448Y036854D01*
X026470Y036932D02*
X026664Y036932D01*
X026664Y037011D02*
X026470Y037011D01*
X026470Y037089D02*
X026673Y037089D01*
X026705Y037168D02*
X026439Y037168D01*
X026407Y037246D02*
X026771Y037246D01*
X026905Y037325D02*
X026340Y037325D01*
X025660Y037325D02*
X025340Y037325D01*
X025407Y037246D02*
X025593Y037246D01*
X025561Y037168D02*
X025439Y037168D01*
X025470Y037089D02*
X025530Y037089D01*
X025530Y037011D02*
X025470Y037011D01*
X025470Y036932D02*
X025530Y036932D01*
X025552Y036854D02*
X025448Y036854D01*
X025416Y036775D02*
X025584Y036775D01*
X025639Y036697D02*
X025361Y036697D01*
X025283Y036618D02*
X025717Y036618D01*
X025883Y036540D02*
X025117Y036540D01*
X024883Y036540D02*
X024783Y036540D01*
X024782Y036461D02*
X027185Y036461D01*
X027107Y036540D02*
X026117Y036540D01*
X026283Y036618D02*
X027028Y036618D01*
X027264Y036383D02*
X024900Y036383D01*
X024215Y036461D02*
X022638Y036461D01*
X022638Y036383D02*
X024100Y036383D01*
X024100Y036304D02*
X022638Y036304D01*
X022638Y036226D02*
X024100Y036226D01*
X024100Y036147D02*
X022638Y036147D01*
X022638Y036069D02*
X024100Y036069D01*
X024100Y035990D02*
X022638Y035990D01*
X022638Y035912D02*
X024100Y035912D01*
X024100Y035833D02*
X022638Y035833D01*
X022638Y035755D02*
X023314Y035755D01*
X023124Y035676D02*
X022638Y035676D01*
X022638Y035598D02*
X023011Y035598D01*
X022932Y035519D02*
X022638Y035519D01*
X022638Y035441D02*
X022854Y035441D01*
X022818Y035362D02*
X022638Y035362D01*
X022638Y035284D02*
X022786Y035284D01*
X022753Y035205D02*
X022638Y035205D01*
X022638Y035127D02*
X022732Y035127D01*
X022732Y035048D02*
X022638Y035048D01*
X022638Y034970D02*
X022732Y034970D01*
X022732Y034891D02*
X022638Y034891D01*
X022638Y034813D02*
X022746Y034813D01*
X022779Y034734D02*
X022638Y034734D01*
X022638Y034656D02*
X022811Y034656D01*
X022844Y034577D02*
X022638Y034577D01*
X022638Y034499D02*
X022915Y034499D01*
X022993Y034420D02*
X022638Y034420D01*
X022638Y034342D02*
X023082Y034342D01*
X023139Y034185D02*
X022638Y034185D01*
X022638Y034263D02*
X023271Y034263D01*
X023180Y034201D02*
X022982Y034119D01*
X022830Y033967D01*
X022747Y033769D01*
X022747Y033554D01*
X022830Y033356D01*
X022982Y033204D01*
X023180Y033121D01*
X023395Y033121D01*
X023593Y033204D01*
X023745Y033356D01*
X023827Y033554D01*
X023827Y033769D01*
X023745Y033967D01*
X023593Y034119D01*
X023395Y034201D01*
X023180Y034201D01*
X022968Y034106D02*
X022638Y034106D01*
X022638Y034028D02*
X022890Y034028D01*
X022822Y033949D02*
X022638Y033949D01*
X022638Y033871D02*
X022790Y033871D01*
X022757Y033792D02*
X022638Y033792D01*
X022638Y033714D02*
X022747Y033714D01*
X022747Y033635D02*
X022638Y033635D01*
X022638Y033557D02*
X022747Y033557D01*
X022779Y033478D02*
X022638Y033478D01*
X022638Y033400D02*
X022811Y033400D01*
X022864Y033321D02*
X022638Y033321D01*
X022638Y033243D02*
X022943Y033243D01*
X023077Y033164D02*
X022638Y033164D01*
X022638Y033086D02*
X024225Y033086D01*
X024225Y033164D02*
X023498Y033164D01*
X023632Y033243D02*
X024225Y033243D01*
X024225Y033321D02*
X023711Y033321D01*
X023763Y033400D02*
X024225Y033400D01*
X024225Y033478D02*
X023796Y033478D01*
X023827Y033557D02*
X024225Y033557D01*
X024225Y033635D02*
X023827Y033635D01*
X023827Y033714D02*
X024225Y033714D01*
X024225Y033792D02*
X023818Y033792D01*
X023785Y033871D02*
X024225Y033871D01*
X024225Y033949D02*
X023753Y033949D01*
X023685Y034028D02*
X024225Y034028D01*
X024225Y034106D02*
X023606Y034106D01*
X023436Y034185D02*
X024225Y034185D01*
X024225Y034263D02*
X023729Y034263D01*
X023918Y034342D02*
X024225Y034342D01*
X024225Y034420D02*
X024007Y034420D01*
X024085Y034499D02*
X024225Y034499D01*
X024225Y034577D02*
X024156Y034577D01*
X024189Y034656D02*
X024225Y034656D01*
X024221Y034734D02*
X024225Y034734D01*
X024214Y035284D02*
X024225Y035284D01*
X024225Y035362D02*
X024182Y035362D01*
X024146Y035441D02*
X024225Y035441D01*
X024225Y035519D02*
X024068Y035519D01*
X023989Y035598D02*
X024225Y035598D01*
X024225Y035676D02*
X023876Y035676D01*
X023686Y035755D02*
X024154Y035755D01*
X024775Y035519D02*
X029250Y035519D01*
X029250Y035441D02*
X024775Y035441D01*
X024215Y036540D02*
X024117Y036540D01*
X023883Y036540D02*
X023421Y036540D01*
X023470Y036618D02*
X023717Y036618D01*
X023639Y036697D02*
X023470Y036697D01*
X023470Y036775D02*
X023584Y036775D01*
X023552Y036854D02*
X023470Y036854D01*
X023470Y036932D02*
X023530Y036932D01*
X023530Y037011D02*
X023470Y037011D01*
X023470Y037089D02*
X023530Y037089D01*
X023561Y037168D02*
X023470Y037168D01*
X023470Y037246D02*
X023593Y037246D01*
X023660Y037325D02*
X023470Y037325D01*
X027095Y037325D02*
X027905Y037325D01*
X027771Y037246D02*
X027229Y037246D01*
X027295Y037168D02*
X027705Y037168D01*
X027673Y037089D02*
X027327Y037089D01*
X027343Y037011D02*
X027664Y037011D01*
X027664Y036932D02*
X027422Y036932D01*
X027500Y036854D02*
X027697Y036854D01*
X027749Y036775D02*
X027579Y036775D01*
X027342Y036304D02*
X027310Y036304D01*
X027336Y036226D02*
X027750Y036226D01*
X027697Y036147D02*
X027336Y036147D01*
X027336Y036069D02*
X027664Y036069D01*
X027664Y035990D02*
X027336Y035990D01*
X027336Y035912D02*
X027673Y035912D01*
X027705Y035833D02*
X027336Y035833D01*
X027336Y035755D02*
X027770Y035755D01*
X027904Y035676D02*
X027290Y035676D01*
X028447Y035284D02*
X028553Y035284D01*
X029230Y035755D02*
X029250Y035755D01*
X029750Y035205D02*
X029774Y035205D01*
X029750Y035127D02*
X029752Y035127D01*
X029750Y035048D02*
X029752Y035048D01*
X029750Y034970D02*
X029787Y034970D01*
X029815Y034891D02*
X029750Y034891D01*
X029750Y034813D02*
X029815Y034813D01*
X029815Y034734D02*
X029750Y034734D01*
X029750Y034656D02*
X029815Y034656D01*
X029815Y034577D02*
X029720Y034577D01*
X029652Y034499D02*
X029815Y034499D01*
X030185Y036697D02*
X030854Y036697D01*
X030749Y036775D02*
X030277Y036775D01*
X030324Y036854D02*
X030697Y036854D01*
X030664Y036932D02*
X030348Y036932D01*
X024225Y033007D02*
X022638Y033007D01*
X022638Y032929D02*
X024225Y032929D01*
X024225Y032850D02*
X022638Y032850D01*
X022638Y032772D02*
X024225Y032772D01*
X024225Y032693D02*
X022638Y032693D01*
X022638Y032615D02*
X024225Y032615D01*
X024147Y032536D02*
X022638Y032536D01*
X022638Y032458D02*
X023209Y032458D01*
X023114Y032379D02*
X022638Y032379D01*
X022638Y032301D02*
X023057Y032301D01*
X023022Y032222D02*
X022638Y032222D01*
X022638Y032144D02*
X023004Y032144D01*
X023009Y031987D02*
X022638Y031987D01*
X022638Y032065D02*
X023397Y032065D01*
X023397Y031987D02*
X023477Y031987D01*
X023477Y031908D02*
X023397Y031908D01*
X023397Y031830D02*
X023477Y031830D01*
X023477Y031751D02*
X023397Y031751D01*
X023397Y031673D02*
X023477Y031673D01*
X023591Y031673D02*
X023775Y031673D01*
X023775Y031751D02*
X023724Y031751D01*
X023775Y031594D02*
X022638Y031594D01*
X022638Y031516D02*
X023775Y031516D01*
X023775Y031437D02*
X022638Y031437D01*
X022638Y031359D02*
X023775Y031359D01*
X023775Y031280D02*
X022638Y031280D01*
X022638Y031202D02*
X023775Y031202D01*
X023775Y031123D02*
X022638Y031123D01*
X022638Y031045D02*
X023775Y031045D01*
X023775Y030966D02*
X022638Y030966D01*
X022638Y030888D02*
X023775Y030888D01*
X023775Y030809D02*
X022638Y030809D01*
X022638Y030731D02*
X023775Y030731D01*
X023775Y030652D02*
X022638Y030652D01*
X022638Y030574D02*
X023775Y030574D01*
X023775Y030495D02*
X022638Y030495D01*
X022638Y030417D02*
X023775Y030417D01*
X023775Y030338D02*
X022638Y030338D01*
X022638Y030260D02*
X023775Y030260D01*
X023775Y030181D02*
X022638Y030181D01*
X022638Y030103D02*
X023775Y030103D01*
X023775Y030024D02*
X022638Y030024D01*
X022638Y029946D02*
X023775Y029946D01*
X023775Y029867D02*
X022638Y029867D01*
X022638Y029789D02*
X023775Y029789D01*
X023775Y029710D02*
X023649Y029710D01*
X023751Y029632D02*
X023775Y029632D01*
X023477Y029632D02*
X023397Y029632D01*
X023397Y029710D02*
X023477Y029710D01*
X023477Y029553D02*
X023397Y029553D01*
X023397Y029475D02*
X023477Y029475D01*
X023477Y029396D02*
X023397Y029396D01*
X023397Y029318D02*
X022638Y029318D01*
X022638Y029396D02*
X023005Y029396D01*
X023025Y029475D02*
X022638Y029475D01*
X022638Y029553D02*
X023061Y029553D01*
X023123Y029632D02*
X022638Y029632D01*
X022638Y029710D02*
X023225Y029710D01*
X023397Y029239D02*
X023477Y029239D01*
X023477Y029161D02*
X023397Y029161D01*
X023397Y029082D02*
X023477Y029082D01*
X023477Y029004D02*
X023397Y029004D01*
X023397Y028925D02*
X023477Y028925D01*
X023612Y028925D02*
X023847Y028925D01*
X023733Y029004D02*
X024008Y029004D01*
X023929Y029082D02*
X023800Y029082D01*
X023843Y029161D02*
X023851Y029161D01*
X023664Y028847D02*
X022638Y028847D01*
X022638Y028925D02*
X023262Y028925D01*
X023141Y029004D02*
X022638Y029004D01*
X022638Y029082D02*
X023074Y029082D01*
X023031Y029161D02*
X022638Y029161D01*
X022638Y029239D02*
X023008Y029239D01*
X022638Y028768D02*
X023586Y028768D01*
X023513Y028690D02*
X022638Y028690D01*
X022638Y028611D02*
X023480Y028611D01*
X023448Y028533D02*
X022638Y028533D01*
X022638Y028454D02*
X023435Y028454D01*
X023435Y028376D02*
X022638Y028376D01*
X022638Y028297D02*
X023435Y028297D01*
X023463Y028219D02*
X022638Y028219D01*
X022638Y028140D02*
X023495Y028140D01*
X023543Y028062D02*
X022638Y028062D01*
X022638Y027983D02*
X023621Y027983D01*
X023744Y027905D02*
X022638Y027905D01*
X022638Y026884D02*
X027322Y026884D01*
X027208Y026806D02*
X022638Y026806D01*
X022638Y026727D02*
X027151Y026727D01*
X027119Y026649D02*
X022638Y026649D01*
X022638Y026570D02*
X027116Y026570D01*
X027123Y026492D02*
X022638Y026492D01*
X022638Y026413D02*
X027155Y026413D01*
X027217Y026335D02*
X022638Y026335D01*
X022638Y026099D02*
X033362Y026099D01*
X033362Y026021D02*
X022638Y026021D01*
X022638Y025942D02*
X033362Y025942D01*
X033362Y025864D02*
X022638Y025864D01*
X022638Y025785D02*
X033362Y025785D01*
X033362Y025707D02*
X022638Y025707D01*
X022638Y025628D02*
X033362Y025628D01*
X033362Y025550D02*
X022638Y025550D01*
X022638Y025471D02*
X033362Y025471D01*
X033362Y025393D02*
X022638Y025393D01*
X022638Y025314D02*
X033362Y025314D01*
X033362Y025236D02*
X022638Y025236D01*
X022638Y025157D02*
X033362Y025157D01*
X029708Y027748D02*
X029650Y027750D01*
X029606Y027788D01*
X029715Y027915D01*
X029708Y027748D01*
X029650Y027750D02*
X029600Y027700D01*
X029500Y027700D01*
X029715Y027915D01*
X029789Y027989D01*
X029789Y028346D01*
X029800Y028357D01*
X029159Y029161D02*
X028642Y029161D01*
X026861Y030000D02*
X026833Y029971D01*
X026726Y029865D01*
X026669Y029808D01*
X026669Y029866D01*
X026661Y029896D01*
X026645Y029923D01*
X026623Y029945D01*
X026596Y029961D01*
X026566Y029969D01*
X026460Y029969D01*
X026460Y029760D01*
X026440Y029760D01*
X026440Y029969D01*
X026334Y029969D01*
X026304Y029961D01*
X026277Y029945D01*
X026255Y029923D01*
X026239Y029896D01*
X026231Y029866D01*
X026231Y029760D01*
X026440Y029760D01*
X026440Y029740D01*
X026231Y029740D01*
X026231Y029634D01*
X026239Y029604D01*
X026250Y029586D01*
X026250Y029494D01*
X026241Y029485D01*
X026146Y029485D01*
X026045Y029384D01*
X025948Y029287D01*
X025603Y029287D01*
X025603Y029367D01*
X025523Y029367D01*
X025523Y029764D01*
X025461Y029754D01*
X025395Y029732D01*
X025334Y029701D01*
X025278Y029661D01*
X025229Y029612D01*
X025189Y029556D01*
X025157Y029495D01*
X025136Y029429D01*
X025126Y029367D01*
X025523Y029367D01*
X025523Y029287D01*
X025126Y029287D01*
X025136Y029224D01*
X025157Y029159D01*
X025189Y029097D01*
X025229Y029042D01*
X025246Y029025D01*
X024764Y029025D01*
X024556Y029233D01*
X024558Y029233D01*
X024665Y029277D01*
X024747Y029359D01*
X024791Y029466D01*
X024791Y029581D01*
X024747Y029688D01*
X024665Y029770D01*
X024558Y029815D01*
X024442Y029815D01*
X024335Y029770D01*
X024325Y029760D01*
X024325Y030075D01*
X024335Y030064D01*
X024442Y030020D01*
X024558Y030020D01*
X024665Y030064D01*
X024725Y030125D01*
X026281Y030125D01*
X026300Y030106D01*
X026300Y030059D01*
X026359Y030000D01*
X026641Y030000D01*
X026650Y030009D01*
X026659Y030000D01*
X026861Y030000D01*
X026833Y029971D02*
X026833Y029971D01*
X026807Y029946D02*
X026622Y029946D01*
X026668Y029867D02*
X026728Y029867D01*
X026460Y029867D02*
X026440Y029867D01*
X026440Y029789D02*
X026460Y029789D01*
X026460Y029946D02*
X026440Y029946D01*
X026335Y030024D02*
X024567Y030024D01*
X024433Y030024D02*
X024325Y030024D01*
X024325Y029946D02*
X026278Y029946D01*
X026232Y029867D02*
X024325Y029867D01*
X024325Y029789D02*
X024379Y029789D01*
X024621Y029789D02*
X026231Y029789D01*
X026231Y029710D02*
X025775Y029710D01*
X025792Y029701D02*
X025731Y029732D01*
X025665Y029754D01*
X025603Y029764D01*
X025603Y029367D01*
X026000Y029367D01*
X025990Y029429D01*
X025969Y029495D01*
X025937Y029556D01*
X025897Y029612D01*
X025848Y029661D01*
X025792Y029701D01*
X025877Y029632D02*
X026232Y029632D01*
X026250Y029553D02*
X025939Y029553D01*
X025975Y029475D02*
X026136Y029475D01*
X026057Y029396D02*
X025995Y029396D01*
X025979Y029318D02*
X025603Y029318D01*
X025603Y029396D02*
X025523Y029396D01*
X025523Y029318D02*
X024705Y029318D01*
X024762Y029396D02*
X025131Y029396D01*
X025151Y029475D02*
X024791Y029475D01*
X024791Y029553D02*
X025187Y029553D01*
X025249Y029632D02*
X024770Y029632D01*
X024725Y029710D02*
X025351Y029710D01*
X025523Y029710D02*
X025603Y029710D01*
X025603Y029632D02*
X025523Y029632D01*
X025523Y029553D02*
X025603Y029553D01*
X025603Y029475D02*
X025523Y029475D01*
X025134Y029239D02*
X024573Y029239D01*
X024628Y029161D02*
X025157Y029161D01*
X025200Y029082D02*
X024707Y029082D01*
X024703Y030103D02*
X026300Y030103D01*
X024368Y031359D02*
X024325Y031359D01*
X023912Y032301D02*
X023817Y032301D01*
X023760Y032379D02*
X023990Y032379D01*
X024069Y032458D02*
X023665Y032458D01*
X023477Y032458D02*
X023397Y032458D01*
X023397Y032379D02*
X023477Y032379D01*
X023477Y032301D02*
X023397Y032301D01*
X023397Y032222D02*
X023477Y032222D01*
X023477Y032144D02*
X023397Y032144D01*
X023035Y031908D02*
X022638Y031908D01*
X022638Y031830D02*
X023080Y031830D01*
X023150Y031751D02*
X022638Y031751D01*
X022638Y031673D02*
X023283Y031673D01*
X030754Y029311D02*
X031139Y029311D01*
X031700Y029450D02*
X032200Y029450D01*
X032200Y029050D01*
X032200Y028650D01*
X032490Y028660D02*
X032490Y028869D01*
X032490Y029040D01*
X032510Y029040D01*
X032510Y028660D01*
X032490Y028660D01*
X032490Y028690D02*
X032510Y028690D01*
X032510Y028768D02*
X032490Y028768D01*
X032490Y028847D02*
X032510Y028847D01*
X032510Y028925D02*
X032490Y028925D01*
X032490Y029004D02*
X032510Y029004D01*
X032500Y029350D02*
X032500Y029450D01*
X032200Y029650D02*
X032200Y029850D01*
X032200Y030050D02*
X031950Y030300D01*
X031950Y030400D01*
X031900Y030450D01*
X032200Y030338D02*
X032281Y030338D01*
X032281Y030260D02*
X032200Y030260D01*
X032200Y030050D02*
X032350Y030050D01*
X032500Y029900D01*
X032500Y029850D01*
X032573Y029850D01*
X032731Y029905D01*
X032750Y029850D01*
X032731Y029795D01*
X032573Y029850D01*
X032750Y029850D01*
X032919Y030260D02*
X033362Y030260D01*
X033362Y030338D02*
X032919Y030338D01*
X031881Y029905D02*
X031900Y029850D01*
X031881Y029795D01*
X031723Y029850D01*
X031881Y029905D01*
X031900Y029850D02*
X031723Y029850D01*
X031700Y029850D01*
X031870Y028847D02*
X031881Y028847D01*
X032490Y028611D02*
X032510Y028611D01*
X032510Y028533D02*
X032490Y028533D01*
X032490Y028454D02*
X032510Y028454D01*
D25*
X032500Y028000D03*
X031900Y029050D03*
X032500Y029350D03*
X032750Y029850D03*
X032950Y030050D03*
X031900Y029850D03*
X031400Y029950D03*
X030352Y030098D03*
X029500Y030000D03*
X029250Y029350D03*
X029000Y028800D03*
X028700Y028800D03*
X028500Y029000D03*
X027900Y029600D03*
X028500Y030000D03*
X029000Y030550D03*
X031000Y031100D03*
X031350Y031700D03*
X031400Y032000D03*
X031350Y032600D03*
X030600Y032700D03*
X030200Y032570D03*
X028350Y032550D03*
X027510Y034000D03*
X028350Y035100D03*
X028650Y035100D03*
X029500Y034700D03*
X029200Y034250D03*
X029950Y035100D03*
X030250Y035100D03*
X030500Y036000D03*
X030500Y037000D03*
X029500Y037000D03*
X027500Y037000D03*
X027500Y036000D03*
X026500Y035000D03*
X025500Y031000D03*
X025500Y030000D03*
X023500Y030000D03*
X023500Y031000D03*
X023500Y028000D03*
X024500Y028000D03*
X025500Y028000D03*
X025500Y027000D03*
X024500Y027000D03*
X023500Y027000D03*
X023500Y026000D03*
X024500Y026000D03*
X025500Y026000D03*
X026500Y026000D03*
X027500Y026000D03*
X028500Y026000D03*
X028500Y027000D03*
X028600Y027500D03*
X028400Y027950D03*
X027500Y028000D03*
X026500Y028000D03*
X027500Y027000D03*
X029600Y027400D03*
X029650Y027750D03*
X030300Y027300D03*
X030300Y026900D03*
X030500Y026000D03*
X029500Y026000D03*
X031500Y026000D03*
X032480Y026000D03*
X031500Y027000D03*
X030250Y028850D03*
X032400Y032050D03*
X032500Y035000D03*
X031500Y035000D03*
X031500Y036000D03*
X031900Y036300D03*
X031500Y037000D03*
X032550Y036950D03*
X033200Y036300D03*
X032550Y035700D03*
D26*
X030273Y035088D02*
X030250Y035100D01*
X030225Y035105D01*
X030193Y034932D01*
X030273Y035088D01*
X030250Y035100D02*
X030193Y035043D01*
X030193Y034932D01*
X030193Y034308D01*
X029610Y033725D01*
X029610Y033490D01*
X029700Y033400D01*
X029700Y033100D02*
X029700Y033005D01*
X029395Y032700D01*
X029395Y032005D01*
X029188Y032012D02*
X029188Y032783D01*
X029300Y032895D01*
X029300Y033100D01*
X029300Y033400D02*
X029390Y033490D01*
X029390Y033795D01*
X029988Y034392D01*
X029988Y034927D01*
X029926Y035091D01*
X029950Y035100D01*
X029976Y035102D01*
X029988Y034927D01*
X029988Y035063D01*
X029950Y035100D01*
X028674Y035089D02*
X028650Y035100D01*
X028624Y035103D01*
X028603Y034929D01*
X028674Y035089D01*
X028650Y035100D02*
X028603Y035053D01*
X028603Y034929D01*
X028603Y034292D01*
X028803Y034092D01*
X028803Y033498D01*
X028900Y033400D01*
X028900Y033100D02*
X028900Y033098D01*
X028805Y033002D01*
X028803Y033000D01*
X028803Y032050D01*
X028803Y032000D01*
X028598Y032000D02*
X028598Y033000D01*
X028500Y033098D01*
X028500Y033100D01*
X028500Y033400D02*
X028598Y033498D01*
X028598Y034008D01*
X028398Y034208D01*
X028398Y034929D01*
X028326Y035089D01*
X028350Y035100D01*
X028376Y035103D01*
X028398Y034929D01*
X028398Y035053D01*
X028350Y035100D01*
X028805Y033005D02*
X028805Y033002D01*
X029700Y032650D02*
X029950Y032900D01*
X029700Y032650D02*
X029700Y032600D01*
X027118Y030502D02*
X026898Y030502D01*
X026800Y030600D01*
X026500Y030600D02*
X026455Y030600D01*
X026358Y030503D01*
X024768Y030503D01*
X024500Y030770D01*
X024500Y031098D01*
X024500Y030311D02*
X024514Y030298D01*
X026353Y030298D01*
X026450Y030200D01*
X026500Y030200D01*
X026800Y030200D02*
X026885Y030285D01*
X027125Y030285D01*
X027100Y029900D02*
X027005Y029900D01*
X026798Y029692D01*
X026798Y029358D01*
X026750Y029310D01*
X026540Y029310D01*
X026450Y029400D01*
X026450Y029450D01*
X026312Y029312D01*
X026218Y029312D01*
X025758Y028853D01*
X024692Y028853D01*
X024153Y029392D01*
X024153Y032008D01*
X024603Y032458D01*
X024603Y035853D01*
X024700Y035950D01*
X024700Y036250D02*
X024610Y036340D01*
X024610Y036610D01*
X025000Y037000D01*
X024388Y036613D02*
X024388Y036338D01*
X024300Y036250D01*
X024300Y035950D02*
X024398Y035853D01*
X024398Y032542D01*
X023948Y032092D01*
X023948Y029308D01*
X024608Y028648D01*
X025842Y028648D01*
X026282Y029088D01*
X026312Y029088D01*
X026450Y028950D01*
X026450Y029050D01*
X026490Y029090D01*
X026820Y029090D01*
X027003Y029273D01*
X027003Y029598D01*
X027100Y029695D01*
X024388Y036613D02*
X024000Y037000D01*
D27*
X026800Y031400D02*
X026850Y031400D01*
X027117Y031133D01*
X027450Y031133D01*
X027900Y031133D01*
X027900Y030650D01*
X027900Y030100D01*
X027900Y030098D02*
X028150Y029848D01*
X028150Y029450D01*
X028011Y029311D01*
X029000Y029600D02*
X029000Y030550D01*
X029050Y031200D02*
X027967Y031200D01*
X029050Y031200D02*
X029550Y031200D01*
X029600Y031200D02*
X030300Y030500D01*
X031000Y031100D02*
X031315Y031100D01*
X031333Y031083D01*
X031350Y031100D02*
X031750Y031100D01*
X031900Y031250D01*
X031750Y030600D02*
X031350Y030600D01*
X031750Y030600D02*
X031900Y030450D01*
X031304Y031654D02*
X030304Y031654D01*
X030300Y031650D01*
X031304Y031654D02*
X031350Y031700D01*
X031350Y032600D02*
X031300Y032600D01*
X030900Y032600D01*
X029000Y029600D02*
X029250Y029350D01*
X029500Y027400D02*
X029500Y026950D01*
X029550Y026900D01*
X029550Y026450D01*
X030050Y026900D02*
X030300Y026900D01*
X030300Y027300D02*
X030050Y027550D01*
X029600Y027400D02*
X029500Y027400D01*
D28*
X029986Y027614D02*
X030050Y027550D01*
X029986Y027614D02*
X029986Y028346D01*
X028011Y029311D02*
X027446Y029311D01*
X027446Y029705D02*
X027110Y029705D01*
X027100Y029695D01*
X027100Y029900D02*
X027102Y029902D01*
X027446Y029902D01*
X027445Y029900D01*
X027446Y030098D02*
X027900Y030098D01*
X027900Y030100D01*
X027446Y030295D02*
X027135Y030295D01*
X027125Y030285D01*
X027128Y030492D02*
X027118Y030502D01*
X027128Y030492D02*
X027446Y030492D01*
X027446Y030689D02*
X027900Y030689D01*
X027900Y030650D01*
X027446Y031083D02*
X027446Y031129D01*
X027450Y031133D01*
X028608Y031654D02*
X028608Y031990D01*
X028598Y032000D01*
X028803Y032050D02*
X028805Y032048D01*
X028805Y031654D01*
X029000Y031654D02*
X029002Y031654D01*
X029002Y031248D01*
X029050Y031200D01*
X029198Y031654D02*
X029198Y032002D01*
X029188Y032012D01*
X029395Y032005D02*
X029395Y031654D01*
X029592Y031654D02*
X029592Y031242D01*
X029550Y031200D01*
X029592Y031654D02*
X029600Y031654D01*
X030183Y031654D02*
X030186Y031650D01*
X030300Y031650D01*
X030754Y031083D02*
X030824Y031083D01*
X030982Y031145D01*
X031000Y031100D01*
X030991Y031052D01*
X030824Y031083D01*
X030983Y031083D01*
X031000Y031100D01*
X030754Y031083D02*
X030754Y030886D01*
X030754Y030492D02*
X030308Y030492D01*
X030300Y030500D01*
X030365Y030145D02*
X030352Y030098D01*
X030365Y030052D01*
X030529Y030098D01*
X030365Y030145D01*
X030350Y030100D02*
X030352Y030098D01*
X030529Y030098D01*
X030754Y030098D01*
X030754Y030492D02*
X031142Y030492D01*
X031250Y030600D01*
X031350Y030600D01*
D29*
X029600Y031200D02*
X029550Y031200D01*
X027967Y031200D02*
X027900Y031133D01*
D30*
X029500Y034700D02*
X029500Y036250D01*
X029250Y036500D01*
X027500Y036500D01*
X027000Y037000D01*
M02*
