G75*
%MOIN*%
%OFA0B0*%
%FSLAX24Y24*%
%IPPOS*%
%LPD*%
%AMOC8*
5,1,8,0,0,1.08239X$1,22.5*
%
%ADD10C,0.0000*%
%ADD11R,0.0425X0.0425*%
%ADD12C,0.0425*%
%ADD13C,0.0709*%
%ADD14C,0.0482*%
%ADD15R,0.0200X0.0200*%
%ADD16R,0.1063X0.0630*%
%ADD17R,0.0472X0.0472*%
%ADD18C,0.0472*%
%ADD19R,0.0740X0.0740*%
%ADD20C,0.0740*%
%ADD21C,0.0100*%
%ADD22C,0.0197*%
%ADD23C,0.0050*%
%ADD24C,0.0180*%
%ADD25C,0.0240*%
%ADD26C,0.0400*%
%ADD27C,0.0080*%
D10*
X022500Y025000D02*
X022500Y037000D01*
X032500Y037000D01*
X032500Y036000D01*
X037500Y036000D01*
X037500Y025000D01*
X022500Y025000D01*
X023360Y028000D02*
X023362Y028050D01*
X023368Y028100D01*
X023378Y028149D01*
X023391Y028198D01*
X023409Y028245D01*
X023430Y028291D01*
X023454Y028334D01*
X023482Y028376D01*
X023513Y028416D01*
X023547Y028453D01*
X023584Y028487D01*
X023624Y028518D01*
X023666Y028546D01*
X023709Y028570D01*
X023755Y028591D01*
X023802Y028609D01*
X023851Y028622D01*
X023900Y028632D01*
X023950Y028638D01*
X024000Y028640D01*
X024050Y028638D01*
X024100Y028632D01*
X024149Y028622D01*
X024198Y028609D01*
X024245Y028591D01*
X024291Y028570D01*
X024334Y028546D01*
X024376Y028518D01*
X024416Y028487D01*
X024453Y028453D01*
X024487Y028416D01*
X024518Y028376D01*
X024546Y028334D01*
X024570Y028291D01*
X024591Y028245D01*
X024609Y028198D01*
X024622Y028149D01*
X024632Y028100D01*
X024638Y028050D01*
X024640Y028000D01*
X024638Y027950D01*
X024632Y027900D01*
X024622Y027851D01*
X024609Y027802D01*
X024591Y027755D01*
X024570Y027709D01*
X024546Y027666D01*
X024518Y027624D01*
X024487Y027584D01*
X024453Y027547D01*
X024416Y027513D01*
X024376Y027482D01*
X024334Y027454D01*
X024291Y027430D01*
X024245Y027409D01*
X024198Y027391D01*
X024149Y027378D01*
X024100Y027368D01*
X024050Y027362D01*
X024000Y027360D01*
X023950Y027362D01*
X023900Y027368D01*
X023851Y027378D01*
X023802Y027391D01*
X023755Y027409D01*
X023709Y027430D01*
X023666Y027454D01*
X023624Y027482D01*
X023584Y027513D01*
X023547Y027547D01*
X023513Y027584D01*
X023482Y027624D01*
X023454Y027666D01*
X023430Y027709D01*
X023409Y027755D01*
X023391Y027802D01*
X023378Y027851D01*
X023368Y027900D01*
X023362Y027950D01*
X023360Y028000D01*
X027860Y028000D02*
X027862Y028050D01*
X027868Y028100D01*
X027878Y028149D01*
X027891Y028198D01*
X027909Y028245D01*
X027930Y028291D01*
X027954Y028334D01*
X027982Y028376D01*
X028013Y028416D01*
X028047Y028453D01*
X028084Y028487D01*
X028124Y028518D01*
X028166Y028546D01*
X028209Y028570D01*
X028255Y028591D01*
X028302Y028609D01*
X028351Y028622D01*
X028400Y028632D01*
X028450Y028638D01*
X028500Y028640D01*
X028550Y028638D01*
X028600Y028632D01*
X028649Y028622D01*
X028698Y028609D01*
X028745Y028591D01*
X028791Y028570D01*
X028834Y028546D01*
X028876Y028518D01*
X028916Y028487D01*
X028953Y028453D01*
X028987Y028416D01*
X029018Y028376D01*
X029046Y028334D01*
X029070Y028291D01*
X029091Y028245D01*
X029109Y028198D01*
X029122Y028149D01*
X029132Y028100D01*
X029138Y028050D01*
X029140Y028000D01*
X029138Y027950D01*
X029132Y027900D01*
X029122Y027851D01*
X029109Y027802D01*
X029091Y027755D01*
X029070Y027709D01*
X029046Y027666D01*
X029018Y027624D01*
X028987Y027584D01*
X028953Y027547D01*
X028916Y027513D01*
X028876Y027482D01*
X028834Y027454D01*
X028791Y027430D01*
X028745Y027409D01*
X028698Y027391D01*
X028649Y027378D01*
X028600Y027368D01*
X028550Y027362D01*
X028500Y027360D01*
X028450Y027362D01*
X028400Y027368D01*
X028351Y027378D01*
X028302Y027391D01*
X028255Y027409D01*
X028209Y027430D01*
X028166Y027454D01*
X028124Y027482D01*
X028084Y027513D01*
X028047Y027547D01*
X028013Y027584D01*
X027982Y027624D01*
X027954Y027666D01*
X027930Y027709D01*
X027909Y027755D01*
X027891Y027802D01*
X027878Y027851D01*
X027868Y027900D01*
X027862Y027950D01*
X027860Y028000D01*
X030860Y028000D02*
X030862Y028050D01*
X030868Y028100D01*
X030878Y028149D01*
X030891Y028198D01*
X030909Y028245D01*
X030930Y028291D01*
X030954Y028334D01*
X030982Y028376D01*
X031013Y028416D01*
X031047Y028453D01*
X031084Y028487D01*
X031124Y028518D01*
X031166Y028546D01*
X031209Y028570D01*
X031255Y028591D01*
X031302Y028609D01*
X031351Y028622D01*
X031400Y028632D01*
X031450Y028638D01*
X031500Y028640D01*
X031550Y028638D01*
X031600Y028632D01*
X031649Y028622D01*
X031698Y028609D01*
X031745Y028591D01*
X031791Y028570D01*
X031834Y028546D01*
X031876Y028518D01*
X031916Y028487D01*
X031953Y028453D01*
X031987Y028416D01*
X032018Y028376D01*
X032046Y028334D01*
X032070Y028291D01*
X032091Y028245D01*
X032109Y028198D01*
X032122Y028149D01*
X032132Y028100D01*
X032138Y028050D01*
X032140Y028000D01*
X032138Y027950D01*
X032132Y027900D01*
X032122Y027851D01*
X032109Y027802D01*
X032091Y027755D01*
X032070Y027709D01*
X032046Y027666D01*
X032018Y027624D01*
X031987Y027584D01*
X031953Y027547D01*
X031916Y027513D01*
X031876Y027482D01*
X031834Y027454D01*
X031791Y027430D01*
X031745Y027409D01*
X031698Y027391D01*
X031649Y027378D01*
X031600Y027368D01*
X031550Y027362D01*
X031500Y027360D01*
X031450Y027362D01*
X031400Y027368D01*
X031351Y027378D01*
X031302Y027391D01*
X031255Y027409D01*
X031209Y027430D01*
X031166Y027454D01*
X031124Y027482D01*
X031084Y027513D01*
X031047Y027547D01*
X031013Y027584D01*
X030982Y027624D01*
X030954Y027666D01*
X030930Y027709D01*
X030909Y027755D01*
X030891Y027802D01*
X030878Y027851D01*
X030868Y027900D01*
X030862Y027950D01*
X030860Y028000D01*
X035360Y028000D02*
X035362Y028050D01*
X035368Y028100D01*
X035378Y028149D01*
X035391Y028198D01*
X035409Y028245D01*
X035430Y028291D01*
X035454Y028334D01*
X035482Y028376D01*
X035513Y028416D01*
X035547Y028453D01*
X035584Y028487D01*
X035624Y028518D01*
X035666Y028546D01*
X035709Y028570D01*
X035755Y028591D01*
X035802Y028609D01*
X035851Y028622D01*
X035900Y028632D01*
X035950Y028638D01*
X036000Y028640D01*
X036050Y028638D01*
X036100Y028632D01*
X036149Y028622D01*
X036198Y028609D01*
X036245Y028591D01*
X036291Y028570D01*
X036334Y028546D01*
X036376Y028518D01*
X036416Y028487D01*
X036453Y028453D01*
X036487Y028416D01*
X036518Y028376D01*
X036546Y028334D01*
X036570Y028291D01*
X036591Y028245D01*
X036609Y028198D01*
X036622Y028149D01*
X036632Y028100D01*
X036638Y028050D01*
X036640Y028000D01*
X036638Y027950D01*
X036632Y027900D01*
X036622Y027851D01*
X036609Y027802D01*
X036591Y027755D01*
X036570Y027709D01*
X036546Y027666D01*
X036518Y027624D01*
X036487Y027584D01*
X036453Y027547D01*
X036416Y027513D01*
X036376Y027482D01*
X036334Y027454D01*
X036291Y027430D01*
X036245Y027409D01*
X036198Y027391D01*
X036149Y027378D01*
X036100Y027368D01*
X036050Y027362D01*
X036000Y027360D01*
X035950Y027362D01*
X035900Y027368D01*
X035851Y027378D01*
X035802Y027391D01*
X035755Y027409D01*
X035709Y027430D01*
X035666Y027454D01*
X035624Y027482D01*
X035584Y027513D01*
X035547Y027547D01*
X035513Y027584D01*
X035482Y027624D01*
X035454Y027666D01*
X035430Y027709D01*
X035409Y027755D01*
X035391Y027802D01*
X035378Y027851D01*
X035368Y027900D01*
X035362Y027950D01*
X035360Y028000D01*
X022870Y034750D02*
X022872Y034800D01*
X022878Y034850D01*
X022888Y034899D01*
X022902Y034947D01*
X022919Y034994D01*
X022940Y035039D01*
X022965Y035083D01*
X022993Y035124D01*
X023025Y035163D01*
X023059Y035200D01*
X023096Y035234D01*
X023136Y035264D01*
X023178Y035291D01*
X023222Y035315D01*
X023268Y035336D01*
X023315Y035352D01*
X023363Y035365D01*
X023413Y035374D01*
X023462Y035379D01*
X023513Y035380D01*
X023563Y035377D01*
X023612Y035370D01*
X023661Y035359D01*
X023709Y035344D01*
X023755Y035326D01*
X023800Y035304D01*
X023843Y035278D01*
X023884Y035249D01*
X023923Y035217D01*
X023959Y035182D01*
X023991Y035144D01*
X024021Y035104D01*
X024048Y035061D01*
X024071Y035017D01*
X024090Y034971D01*
X024106Y034923D01*
X024118Y034874D01*
X024126Y034825D01*
X024130Y034775D01*
X024130Y034725D01*
X024126Y034675D01*
X024118Y034626D01*
X024106Y034577D01*
X024090Y034529D01*
X024071Y034483D01*
X024048Y034439D01*
X024021Y034396D01*
X023991Y034356D01*
X023959Y034318D01*
X023923Y034283D01*
X023884Y034251D01*
X023843Y034222D01*
X023800Y034196D01*
X023755Y034174D01*
X023709Y034156D01*
X023661Y034141D01*
X023612Y034130D01*
X023563Y034123D01*
X023513Y034120D01*
X023462Y034121D01*
X023413Y034126D01*
X023363Y034135D01*
X023315Y034148D01*
X023268Y034164D01*
X023222Y034185D01*
X023178Y034209D01*
X023136Y034236D01*
X023096Y034266D01*
X023059Y034300D01*
X023025Y034337D01*
X022993Y034376D01*
X022965Y034417D01*
X022940Y034461D01*
X022919Y034506D01*
X022902Y034553D01*
X022888Y034601D01*
X022878Y034650D01*
X022872Y034700D01*
X022870Y034750D01*
D11*
X024000Y031500D03*
X031500Y031500D03*
D12*
X032500Y031500D03*
X033500Y031500D03*
X034500Y031500D03*
X035500Y031500D03*
X035000Y030500D03*
X034000Y030500D03*
X033000Y030500D03*
X032000Y030500D03*
X028500Y030500D03*
X027500Y030500D03*
X026500Y030500D03*
X025500Y030500D03*
X024500Y030500D03*
X025000Y031500D03*
X026000Y031500D03*
X027000Y031500D03*
X028000Y031500D03*
X036000Y030500D03*
D13*
X036801Y029201D03*
X030699Y029201D03*
X029301Y029201D03*
X023199Y029201D03*
D14*
X024636Y026669D03*
X023636Y026071D03*
X027864Y026071D03*
X028864Y026669D03*
X031136Y026071D03*
X032136Y026669D03*
X035364Y026071D03*
X036364Y026669D03*
D15*
X034750Y033000D03*
X034750Y033300D03*
X033100Y033000D03*
X032800Y033000D03*
X031750Y033000D03*
X031750Y033300D03*
X027250Y033300D03*
X027250Y033000D03*
X025600Y033000D03*
X025300Y033000D03*
X024800Y033000D03*
X024500Y033000D03*
X024000Y033000D03*
X023700Y033000D03*
D16*
X030000Y031051D03*
X030000Y029949D03*
D17*
X028000Y034500D03*
X034000Y034500D03*
D18*
X035000Y034500D03*
X035000Y035500D03*
X034000Y035500D03*
X036000Y035500D03*
X037000Y035500D03*
X037000Y034500D03*
X036000Y034500D03*
X031000Y034500D03*
X030000Y034500D03*
X029000Y034500D03*
D19*
X023000Y036500D03*
D20*
X024000Y036500D03*
X025000Y036500D03*
X026000Y036500D03*
X027000Y036500D03*
X028000Y036500D03*
X029000Y036500D03*
X030000Y036500D03*
X031000Y036500D03*
X032000Y036500D03*
D21*
X032487Y033047D02*
X032500Y033000D01*
X032487Y032953D01*
X032323Y033000D01*
X032487Y033047D01*
X032500Y033000D02*
X032323Y033000D01*
X031750Y033000D01*
X031177Y033000D01*
X031013Y032953D01*
X031000Y033000D01*
X031013Y033047D01*
X031177Y033000D01*
X031000Y033000D01*
X028000Y033000D02*
X027987Y032953D01*
X027823Y033000D01*
X027987Y033047D01*
X028000Y033000D01*
X027823Y033000D01*
X027250Y033000D01*
X026677Y033000D01*
X026513Y032953D01*
X026500Y033000D01*
X026513Y033047D01*
X026677Y033000D01*
X026500Y033000D01*
X025000Y033000D02*
X024987Y032953D01*
X024823Y033000D01*
X024987Y033047D01*
X025000Y033000D01*
X024823Y033000D01*
X024800Y033000D01*
X024500Y033000D02*
X024330Y033170D01*
X024330Y033267D01*
X026580Y035517D01*
X026580Y036080D01*
X027000Y036500D01*
X026420Y036080D02*
X026000Y036500D01*
X026420Y036080D02*
X026420Y035583D01*
X024170Y033333D01*
X024170Y033170D01*
X024000Y033000D01*
X024170Y032830D01*
X024170Y031700D01*
X024170Y031680D01*
X024170Y031670D01*
X024000Y031500D01*
X024330Y030670D02*
X024330Y032830D01*
X024500Y033000D01*
X023700Y033000D02*
X023677Y033000D01*
X023513Y032953D01*
X023500Y033000D01*
X023513Y033047D01*
X023677Y033000D01*
X023500Y033000D01*
X024330Y030670D02*
X024500Y030500D01*
X034000Y033000D02*
X034013Y032953D01*
X034177Y033000D01*
X034013Y033047D01*
X034000Y033000D01*
X034177Y033000D01*
X034750Y033000D01*
X035323Y033000D01*
X035487Y033047D01*
X035500Y033000D01*
X035487Y032953D01*
X035323Y033000D01*
X035500Y033000D01*
D22*
X035500Y033000D03*
X035000Y033500D03*
X034000Y033000D03*
X034000Y032500D03*
X032500Y033000D03*
X031000Y033000D03*
X031000Y033500D03*
X030500Y034000D03*
X030500Y033000D03*
X030000Y032500D03*
X029500Y032000D03*
X030000Y031500D03*
X030500Y032000D03*
X031000Y032500D03*
X029500Y034000D03*
X028000Y033000D03*
X026500Y033000D03*
X026000Y033500D03*
X026500Y034000D03*
X025000Y033500D03*
X025000Y033000D03*
X025000Y032500D03*
X024500Y034000D03*
X025000Y034500D03*
X024000Y035500D03*
X023500Y036000D03*
X023000Y035500D03*
X025500Y036000D03*
X026000Y035500D03*
X027000Y035500D03*
X027500Y036000D03*
X028500Y036000D03*
X029000Y035500D03*
X030000Y035500D03*
X030500Y036000D03*
X033000Y035500D03*
X023500Y033000D03*
X023000Y032500D03*
X023000Y033500D03*
D23*
X022623Y033488D02*
X024133Y033488D01*
X024085Y033439D02*
X022623Y033439D01*
X022623Y033391D02*
X024036Y033391D01*
X024035Y033389D02*
X024035Y033226D01*
X023994Y033185D01*
X023865Y033185D01*
X023850Y033170D01*
X023835Y033185D01*
X023565Y033185D01*
X023563Y033183D01*
X023526Y033183D01*
X023496Y033192D01*
X023481Y033183D01*
X023424Y033183D01*
X023317Y033076D01*
X023317Y032924D01*
X023424Y032817D01*
X023481Y032817D01*
X023496Y032808D01*
X023502Y032810D01*
X023526Y032817D01*
X023563Y032817D01*
X023565Y032815D01*
X023835Y032815D01*
X023850Y032830D01*
X023865Y032815D01*
X023994Y032815D01*
X024035Y032774D01*
X024035Y032011D01*
X022623Y032001D01*
X022623Y036877D01*
X023733Y036877D01*
X023614Y036758D01*
X023545Y036591D01*
X023545Y036409D01*
X023614Y036242D01*
X023742Y036114D01*
X023909Y036045D01*
X024091Y036045D01*
X024258Y036114D01*
X024386Y036242D01*
X024455Y036409D01*
X024455Y036591D01*
X024386Y036758D01*
X024267Y036877D01*
X024733Y036877D01*
X024614Y036758D01*
X024545Y036591D01*
X024545Y036409D01*
X024614Y036242D01*
X024742Y036114D01*
X024909Y036045D01*
X025091Y036045D01*
X025258Y036114D01*
X025386Y036242D01*
X025455Y036409D01*
X025455Y036591D01*
X025386Y036758D01*
X025267Y036877D01*
X025733Y036877D01*
X025614Y036758D01*
X025545Y036591D01*
X025545Y036409D01*
X025614Y036242D01*
X025742Y036114D01*
X025909Y036045D01*
X026091Y036045D01*
X026213Y036096D01*
X026285Y036024D01*
X026285Y035639D01*
X024035Y033389D01*
X024035Y033342D02*
X022623Y033342D01*
X022623Y033294D02*
X024035Y033294D01*
X024035Y033245D02*
X022623Y033245D01*
X022623Y033197D02*
X024006Y033197D01*
X024182Y033536D02*
X022623Y033536D01*
X022623Y033585D02*
X024230Y033585D01*
X024279Y033633D02*
X022623Y033633D01*
X022623Y033682D02*
X024327Y033682D01*
X024376Y033730D02*
X022623Y033730D01*
X022623Y033779D02*
X024424Y033779D01*
X024473Y033827D02*
X022623Y033827D01*
X022623Y033876D02*
X024521Y033876D01*
X024570Y033924D02*
X022623Y033924D01*
X022623Y033973D02*
X024618Y033973D01*
X024667Y034021D02*
X023709Y034021D01*
X023650Y033997D02*
X023927Y034111D01*
X024139Y034323D01*
X024253Y034600D01*
X024253Y034900D01*
X024139Y035177D01*
X023927Y035389D01*
X023650Y035503D01*
X023350Y035503D01*
X023073Y035389D01*
X022861Y035177D01*
X022747Y034900D01*
X022747Y034600D01*
X022861Y034323D01*
X023073Y034111D01*
X023350Y033997D01*
X023650Y033997D01*
X023826Y034070D02*
X024715Y034070D01*
X024764Y034118D02*
X023933Y034118D01*
X023982Y034167D02*
X024812Y034167D01*
X024861Y034215D02*
X024030Y034215D01*
X024079Y034264D02*
X024909Y034264D01*
X024958Y034312D02*
X024127Y034312D01*
X024154Y034361D02*
X025006Y034361D01*
X025055Y034409D02*
X024174Y034409D01*
X024194Y034458D02*
X025103Y034458D01*
X025152Y034506D02*
X024214Y034506D01*
X024234Y034555D02*
X025200Y034555D01*
X025249Y034603D02*
X024253Y034603D01*
X024253Y034652D02*
X025297Y034652D01*
X025346Y034700D02*
X024253Y034700D01*
X024253Y034749D02*
X025394Y034749D01*
X025443Y034797D02*
X024253Y034797D01*
X024253Y034846D02*
X025491Y034846D01*
X025540Y034894D02*
X024253Y034894D01*
X024236Y034943D02*
X025588Y034943D01*
X025637Y034991D02*
X024216Y034991D01*
X024195Y035040D02*
X025685Y035040D01*
X025734Y035088D02*
X024175Y035088D01*
X024155Y035137D02*
X025782Y035137D01*
X025831Y035185D02*
X024130Y035185D01*
X024082Y035234D02*
X025879Y035234D01*
X025928Y035282D02*
X024033Y035282D01*
X023985Y035331D02*
X025976Y035331D01*
X026025Y035379D02*
X023936Y035379D01*
X023833Y035428D02*
X026073Y035428D01*
X026122Y035476D02*
X023716Y035476D01*
X023284Y035476D02*
X022623Y035476D01*
X022623Y035428D02*
X023167Y035428D01*
X023064Y035379D02*
X022623Y035379D01*
X022623Y035331D02*
X023015Y035331D01*
X022967Y035282D02*
X022623Y035282D01*
X022623Y035234D02*
X022918Y035234D01*
X022870Y035185D02*
X022623Y035185D01*
X022623Y035137D02*
X022845Y035137D01*
X022825Y035088D02*
X022623Y035088D01*
X022623Y035040D02*
X022805Y035040D01*
X022784Y034991D02*
X022623Y034991D01*
X022623Y034943D02*
X022764Y034943D01*
X022747Y034894D02*
X022623Y034894D01*
X022623Y034846D02*
X022747Y034846D01*
X022747Y034797D02*
X022623Y034797D01*
X022623Y034749D02*
X022747Y034749D01*
X022747Y034700D02*
X022623Y034700D01*
X022623Y034652D02*
X022747Y034652D01*
X022747Y034603D02*
X022623Y034603D01*
X022623Y034555D02*
X022766Y034555D01*
X022786Y034506D02*
X022623Y034506D01*
X022623Y034458D02*
X022806Y034458D01*
X022826Y034409D02*
X022623Y034409D01*
X022623Y034361D02*
X022846Y034361D01*
X022873Y034312D02*
X022623Y034312D01*
X022623Y034264D02*
X022921Y034264D01*
X022970Y034215D02*
X022623Y034215D01*
X022623Y034167D02*
X023018Y034167D01*
X023067Y034118D02*
X022623Y034118D01*
X022623Y034070D02*
X023174Y034070D01*
X023291Y034021D02*
X022623Y034021D01*
X022623Y033148D02*
X023389Y033148D01*
X023340Y033100D02*
X022623Y033100D01*
X022623Y033051D02*
X023317Y033051D01*
X023317Y033003D02*
X022623Y033003D01*
X022623Y032954D02*
X023317Y032954D01*
X023335Y032906D02*
X022623Y032906D01*
X022623Y032857D02*
X023384Y032857D01*
X023496Y032809D02*
X022623Y032809D01*
X022623Y032760D02*
X024035Y032760D01*
X024035Y032712D02*
X022623Y032712D01*
X022623Y032663D02*
X024035Y032663D01*
X024035Y032615D02*
X022623Y032615D01*
X022623Y032566D02*
X024035Y032566D01*
X024035Y032518D02*
X022623Y032518D01*
X022623Y032469D02*
X024035Y032469D01*
X024035Y032421D02*
X022623Y032421D01*
X022623Y032372D02*
X024035Y032372D01*
X024035Y032324D02*
X022623Y032324D01*
X022623Y032275D02*
X024035Y032275D01*
X024035Y032227D02*
X022623Y032227D01*
X022623Y032178D02*
X024035Y032178D01*
X024035Y032130D02*
X022623Y032130D01*
X022623Y032081D02*
X024035Y032081D01*
X024035Y032033D02*
X022623Y032033D01*
X023497Y032809D02*
X024001Y032809D01*
X024465Y032774D02*
X024465Y032014D01*
X025021Y032018D01*
X025125Y032122D01*
X025125Y032855D01*
X025120Y032860D01*
X025076Y032817D01*
X025019Y032817D01*
X025004Y032808D01*
X025004Y032808D01*
X025004Y032808D01*
X024974Y032817D01*
X024937Y032817D01*
X024935Y032815D01*
X024665Y032815D01*
X024650Y032830D01*
X024635Y032815D01*
X024506Y032815D01*
X024465Y032774D01*
X024465Y032760D02*
X025125Y032760D01*
X025125Y032712D02*
X024465Y032712D01*
X024465Y032663D02*
X025125Y032663D01*
X025125Y032615D02*
X024465Y032615D01*
X024465Y032566D02*
X025125Y032566D01*
X025125Y032518D02*
X024465Y032518D01*
X024465Y032469D02*
X025125Y032469D01*
X025125Y032421D02*
X024465Y032421D01*
X024465Y032372D02*
X025125Y032372D01*
X025125Y032324D02*
X024465Y032324D01*
X024465Y032275D02*
X025125Y032275D01*
X025125Y032227D02*
X024465Y032227D01*
X024465Y032178D02*
X025125Y032178D01*
X025125Y032130D02*
X024465Y032130D01*
X024465Y032081D02*
X025084Y032081D01*
X025035Y032033D02*
X024465Y032033D01*
X024499Y032809D02*
X025003Y032809D01*
X025004Y032809D02*
X025125Y032809D01*
X025116Y032857D02*
X025123Y032857D01*
X025120Y033140D02*
X025076Y033183D01*
X025019Y033183D01*
X025004Y033192D01*
X025004Y033192D01*
X024974Y033183D01*
X024937Y033183D01*
X024935Y033185D01*
X024665Y033185D01*
X024650Y033170D01*
X024635Y033185D01*
X024506Y033185D01*
X024472Y033218D01*
X026636Y035382D01*
X026715Y035461D01*
X026715Y036024D01*
X026787Y036096D01*
X026909Y036045D01*
X027091Y036045D01*
X027258Y036114D01*
X027386Y036242D01*
X027455Y036409D01*
X027455Y036591D01*
X027386Y036758D01*
X027267Y036877D01*
X027733Y036877D01*
X027614Y036758D01*
X027545Y036591D01*
X027545Y036409D01*
X027614Y036242D01*
X027742Y036114D01*
X027825Y036080D01*
X027825Y035325D01*
X026828Y035325D01*
X025125Y033622D01*
X025125Y033145D01*
X025120Y033140D01*
X025125Y033148D02*
X025111Y033148D01*
X025125Y033197D02*
X024494Y033197D01*
X024499Y033245D02*
X025125Y033245D01*
X025125Y033294D02*
X024548Y033294D01*
X024596Y033342D02*
X025125Y033342D01*
X025125Y033391D02*
X024645Y033391D01*
X024693Y033439D02*
X025125Y033439D01*
X025125Y033488D02*
X024742Y033488D01*
X024790Y033536D02*
X025125Y033536D01*
X025125Y033585D02*
X024839Y033585D01*
X024887Y033633D02*
X025136Y033633D01*
X025184Y033682D02*
X024936Y033682D01*
X024984Y033730D02*
X025233Y033730D01*
X025281Y033779D02*
X025033Y033779D01*
X025081Y033827D02*
X025330Y033827D01*
X025378Y033876D02*
X025130Y033876D01*
X025178Y033924D02*
X025427Y033924D01*
X025475Y033973D02*
X025227Y033973D01*
X025275Y034021D02*
X025524Y034021D01*
X025572Y034070D02*
X025324Y034070D01*
X025372Y034118D02*
X025621Y034118D01*
X025669Y034167D02*
X025421Y034167D01*
X025469Y034215D02*
X025718Y034215D01*
X025766Y034264D02*
X025518Y034264D01*
X025566Y034312D02*
X025815Y034312D01*
X025863Y034361D02*
X025615Y034361D01*
X025663Y034409D02*
X025912Y034409D01*
X025960Y034458D02*
X025712Y034458D01*
X025760Y034506D02*
X026009Y034506D01*
X026057Y034555D02*
X025809Y034555D01*
X025857Y034603D02*
X026106Y034603D01*
X026154Y034652D02*
X025906Y034652D01*
X025954Y034700D02*
X026203Y034700D01*
X026251Y034749D02*
X026003Y034749D01*
X026051Y034797D02*
X026300Y034797D01*
X026348Y034846D02*
X026100Y034846D01*
X026148Y034894D02*
X026397Y034894D01*
X026445Y034943D02*
X026197Y034943D01*
X026245Y034991D02*
X026494Y034991D01*
X026542Y035040D02*
X026294Y035040D01*
X026342Y035088D02*
X026591Y035088D01*
X026639Y035137D02*
X026391Y035137D01*
X026439Y035185D02*
X026688Y035185D01*
X026736Y035234D02*
X026488Y035234D01*
X026536Y035282D02*
X026785Y035282D01*
X026682Y035428D02*
X027825Y035428D01*
X027825Y035476D02*
X026715Y035476D01*
X026715Y035525D02*
X027825Y035525D01*
X027825Y035573D02*
X026715Y035573D01*
X026715Y035622D02*
X027825Y035622D01*
X027825Y035670D02*
X026715Y035670D01*
X026715Y035719D02*
X027825Y035719D01*
X027825Y035767D02*
X026715Y035767D01*
X026715Y035816D02*
X027825Y035816D01*
X027825Y035864D02*
X026715Y035864D01*
X026715Y035913D02*
X027825Y035913D01*
X027825Y035961D02*
X026715Y035961D01*
X026715Y036010D02*
X027825Y036010D01*
X027825Y036058D02*
X027122Y036058D01*
X027239Y036107D02*
X027761Y036107D01*
X027701Y036155D02*
X027299Y036155D01*
X027347Y036204D02*
X027653Y036204D01*
X027610Y036252D02*
X027390Y036252D01*
X027410Y036301D02*
X027590Y036301D01*
X027570Y036349D02*
X027430Y036349D01*
X027450Y036398D02*
X027550Y036398D01*
X027545Y036446D02*
X027455Y036446D01*
X027455Y036495D02*
X027545Y036495D01*
X027545Y036543D02*
X027455Y036543D01*
X027455Y036592D02*
X027545Y036592D01*
X027566Y036640D02*
X027434Y036640D01*
X027414Y036689D02*
X027586Y036689D01*
X027606Y036737D02*
X027394Y036737D01*
X027358Y036786D02*
X027642Y036786D01*
X027691Y036834D02*
X027309Y036834D01*
X028267Y036877D02*
X028733Y036877D01*
X028614Y036758D01*
X028545Y036591D01*
X028545Y036409D01*
X028614Y036242D01*
X028742Y036114D01*
X028909Y036045D01*
X029091Y036045D01*
X029258Y036114D01*
X029386Y036242D01*
X029455Y036409D01*
X029455Y036591D01*
X029386Y036758D01*
X029267Y036877D01*
X029733Y036877D01*
X029614Y036758D01*
X029545Y036591D01*
X029545Y036409D01*
X029614Y036242D01*
X029742Y036114D01*
X029909Y036045D01*
X030091Y036045D01*
X030258Y036114D01*
X030386Y036242D01*
X030455Y036409D01*
X030455Y036591D01*
X030386Y036758D01*
X030267Y036877D01*
X030733Y036877D01*
X030614Y036758D01*
X030545Y036591D01*
X030545Y036409D01*
X030614Y036242D01*
X030742Y036114D01*
X030909Y036045D01*
X031091Y036045D01*
X031258Y036114D01*
X031386Y036242D01*
X031455Y036409D01*
X031455Y036591D01*
X031386Y036758D01*
X031267Y036877D01*
X031733Y036877D01*
X031614Y036758D01*
X031545Y036591D01*
X031545Y036409D01*
X031614Y036242D01*
X031742Y036114D01*
X031909Y036045D01*
X032091Y036045D01*
X032258Y036114D01*
X032377Y036233D01*
X032377Y035949D01*
X032449Y035877D01*
X037377Y035877D01*
X037377Y032004D01*
X032882Y032034D01*
X032975Y032128D01*
X032975Y032855D01*
X032985Y032865D01*
X032985Y033135D01*
X032975Y033145D01*
X032975Y034122D01*
X031772Y035325D01*
X028175Y035325D01*
X028175Y036080D01*
X028258Y036114D01*
X028386Y036242D01*
X028455Y036409D01*
X028455Y036591D01*
X028386Y036758D01*
X028267Y036877D01*
X028309Y036834D02*
X028691Y036834D01*
X028642Y036786D02*
X028358Y036786D01*
X028394Y036737D02*
X028606Y036737D01*
X028586Y036689D02*
X028414Y036689D01*
X028434Y036640D02*
X028566Y036640D01*
X028545Y036592D02*
X028455Y036592D01*
X028455Y036543D02*
X028545Y036543D01*
X028545Y036495D02*
X028455Y036495D01*
X028455Y036446D02*
X028545Y036446D01*
X028550Y036398D02*
X028450Y036398D01*
X028430Y036349D02*
X028570Y036349D01*
X028590Y036301D02*
X028410Y036301D01*
X028390Y036252D02*
X028610Y036252D01*
X028653Y036204D02*
X028347Y036204D01*
X028299Y036155D02*
X028701Y036155D01*
X028761Y036107D02*
X028239Y036107D01*
X028175Y036058D02*
X028878Y036058D01*
X029122Y036058D02*
X029878Y036058D01*
X029761Y036107D02*
X029239Y036107D01*
X029299Y036155D02*
X029701Y036155D01*
X029653Y036204D02*
X029347Y036204D01*
X029390Y036252D02*
X029610Y036252D01*
X029590Y036301D02*
X029410Y036301D01*
X029430Y036349D02*
X029570Y036349D01*
X029550Y036398D02*
X029450Y036398D01*
X029455Y036446D02*
X029545Y036446D01*
X029545Y036495D02*
X029455Y036495D01*
X029455Y036543D02*
X029545Y036543D01*
X029545Y036592D02*
X029455Y036592D01*
X029434Y036640D02*
X029566Y036640D01*
X029586Y036689D02*
X029414Y036689D01*
X029394Y036737D02*
X029606Y036737D01*
X029642Y036786D02*
X029358Y036786D01*
X029309Y036834D02*
X029691Y036834D01*
X030309Y036834D02*
X030691Y036834D01*
X030642Y036786D02*
X030358Y036786D01*
X030394Y036737D02*
X030606Y036737D01*
X030586Y036689D02*
X030414Y036689D01*
X030434Y036640D02*
X030566Y036640D01*
X030545Y036592D02*
X030455Y036592D01*
X030455Y036543D02*
X030545Y036543D01*
X030545Y036495D02*
X030455Y036495D01*
X030455Y036446D02*
X030545Y036446D01*
X030550Y036398D02*
X030450Y036398D01*
X030430Y036349D02*
X030570Y036349D01*
X030590Y036301D02*
X030410Y036301D01*
X030390Y036252D02*
X030610Y036252D01*
X030653Y036204D02*
X030347Y036204D01*
X030299Y036155D02*
X030701Y036155D01*
X030761Y036107D02*
X030239Y036107D01*
X030122Y036058D02*
X030878Y036058D01*
X031122Y036058D02*
X031878Y036058D01*
X031761Y036107D02*
X031239Y036107D01*
X031299Y036155D02*
X031701Y036155D01*
X031653Y036204D02*
X031347Y036204D01*
X031390Y036252D02*
X031610Y036252D01*
X031590Y036301D02*
X031410Y036301D01*
X031430Y036349D02*
X031570Y036349D01*
X031550Y036398D02*
X031450Y036398D01*
X031455Y036446D02*
X031545Y036446D01*
X031545Y036495D02*
X031455Y036495D01*
X031455Y036543D02*
X031545Y036543D01*
X031545Y036592D02*
X031455Y036592D01*
X031434Y036640D02*
X031566Y036640D01*
X031586Y036689D02*
X031414Y036689D01*
X031394Y036737D02*
X031606Y036737D01*
X031642Y036786D02*
X031358Y036786D01*
X031309Y036834D02*
X031691Y036834D01*
X032347Y036204D02*
X032377Y036204D01*
X032377Y036155D02*
X032299Y036155D01*
X032239Y036107D02*
X032377Y036107D01*
X032377Y036058D02*
X032122Y036058D01*
X032377Y036010D02*
X028175Y036010D01*
X028175Y035961D02*
X032377Y035961D01*
X032413Y035913D02*
X028175Y035913D01*
X028175Y035864D02*
X037377Y035864D01*
X037377Y035816D02*
X037078Y035816D01*
X037064Y035821D02*
X036936Y035821D01*
X036818Y035772D01*
X036728Y035682D01*
X036679Y035564D01*
X036679Y035436D01*
X036728Y035318D01*
X036818Y035228D01*
X036936Y035179D01*
X037064Y035179D01*
X037182Y035228D01*
X037272Y035318D01*
X037321Y035436D01*
X037321Y035564D01*
X037272Y035682D01*
X037182Y035772D01*
X037064Y035821D01*
X037187Y035767D02*
X037377Y035767D01*
X037377Y035719D02*
X037236Y035719D01*
X037277Y035670D02*
X037377Y035670D01*
X037377Y035622D02*
X037297Y035622D01*
X037317Y035573D02*
X037377Y035573D01*
X037377Y035525D02*
X037321Y035525D01*
X037321Y035476D02*
X037377Y035476D01*
X037377Y035428D02*
X037318Y035428D01*
X037298Y035379D02*
X037377Y035379D01*
X037377Y035331D02*
X037277Y035331D01*
X037236Y035282D02*
X037377Y035282D01*
X037377Y035234D02*
X037188Y035234D01*
X037079Y035185D02*
X037377Y035185D01*
X037377Y035137D02*
X031961Y035137D01*
X031912Y035185D02*
X033921Y035185D01*
X033936Y035179D02*
X034064Y035179D01*
X034182Y035228D01*
X034272Y035318D01*
X034321Y035436D01*
X034321Y035564D01*
X034272Y035682D01*
X034182Y035772D01*
X034064Y035821D01*
X033936Y035821D01*
X033818Y035772D01*
X033728Y035682D01*
X033679Y035564D01*
X033679Y035436D01*
X033728Y035318D01*
X033818Y035228D01*
X033936Y035179D01*
X033812Y035234D02*
X031864Y035234D01*
X031815Y035282D02*
X033764Y035282D01*
X033723Y035331D02*
X028175Y035331D01*
X028175Y035379D02*
X033702Y035379D01*
X033682Y035428D02*
X028175Y035428D01*
X028175Y035476D02*
X033679Y035476D01*
X033679Y035525D02*
X028175Y035525D01*
X028175Y035573D02*
X033683Y035573D01*
X033703Y035622D02*
X028175Y035622D01*
X028175Y035670D02*
X033723Y035670D01*
X033764Y035719D02*
X028175Y035719D01*
X028175Y035767D02*
X033813Y035767D01*
X033922Y035816D02*
X028175Y035816D01*
X027825Y035379D02*
X026633Y035379D01*
X026636Y035382D02*
X026636Y035382D01*
X026585Y035331D02*
X027825Y035331D01*
X027835Y034975D02*
X027865Y034945D01*
X028035Y034945D01*
X028065Y034975D01*
X031628Y034975D01*
X032625Y033978D01*
X032625Y033145D01*
X032620Y033140D01*
X032576Y033183D01*
X032519Y033183D01*
X032504Y033192D01*
X032504Y033192D01*
X032474Y033183D01*
X032424Y033183D01*
X032404Y033163D01*
X032323Y033140D01*
X032306Y033145D01*
X032288Y033135D01*
X031935Y033135D01*
X031935Y033135D01*
X031885Y033185D01*
X031615Y033185D01*
X031565Y033135D01*
X031212Y033135D01*
X031194Y033145D01*
X031177Y033140D01*
X031096Y033163D01*
X031076Y033183D01*
X031026Y033183D01*
X031006Y033189D01*
X030996Y033192D01*
X030981Y033183D01*
X030924Y033183D01*
X030817Y033076D01*
X030817Y032924D01*
X030924Y032817D01*
X030981Y032817D01*
X030996Y032808D01*
X031002Y032810D01*
X031026Y032817D01*
X031076Y032817D01*
X031096Y032837D01*
X031177Y032860D01*
X031194Y032855D01*
X031212Y032865D01*
X031565Y032865D01*
X031565Y032865D01*
X031615Y032815D01*
X031885Y032815D01*
X031935Y032865D01*
X032288Y032865D01*
X032306Y032855D01*
X032323Y032860D01*
X032404Y032837D01*
X032424Y032817D01*
X032474Y032817D01*
X032504Y032808D01*
X032519Y032817D01*
X032576Y032817D01*
X032620Y032860D01*
X032625Y032855D01*
X032625Y032272D01*
X032428Y032075D01*
X032390Y032038D01*
X030550Y032050D01*
X030550Y030850D01*
X029400Y030850D01*
X029400Y032050D01*
X029354Y032050D01*
X031089Y033785D01*
X031215Y033911D01*
X031215Y034204D01*
X031306Y034295D01*
X031361Y034428D01*
X031361Y034572D01*
X031306Y034705D01*
X031205Y034806D01*
X031072Y034861D01*
X030928Y034861D01*
X030795Y034806D01*
X030694Y034705D01*
X030639Y034572D01*
X030639Y034428D01*
X030694Y034295D01*
X030785Y034204D01*
X030785Y034089D01*
X030215Y033519D01*
X030215Y034204D01*
X030306Y034295D01*
X030361Y034428D01*
X030361Y034572D01*
X030306Y034705D01*
X030205Y034806D01*
X030072Y034861D01*
X029928Y034861D01*
X029795Y034806D01*
X029694Y034705D01*
X029639Y034572D01*
X029639Y034428D01*
X029694Y034295D01*
X029785Y034204D01*
X029785Y033589D01*
X029245Y033049D01*
X029245Y034234D01*
X029306Y034295D01*
X029361Y034428D01*
X029361Y034572D01*
X029306Y034705D01*
X029205Y034806D01*
X029072Y034861D01*
X028928Y034861D01*
X028795Y034806D01*
X028694Y034705D01*
X028639Y034572D01*
X028639Y034428D01*
X028694Y034295D01*
X028755Y034234D01*
X028755Y033101D01*
X028565Y032911D01*
X028565Y034239D01*
X028361Y034443D01*
X028361Y034788D01*
X028288Y034861D01*
X027712Y034861D01*
X027639Y034788D01*
X027639Y034212D01*
X027712Y034139D01*
X028057Y034139D01*
X028135Y034061D01*
X028135Y033124D01*
X028076Y033183D01*
X028019Y033183D01*
X028004Y033192D01*
X028004Y033192D01*
X027974Y033183D01*
X027924Y033183D01*
X027904Y033163D01*
X027823Y033140D01*
X027806Y033145D01*
X027788Y033135D01*
X027435Y033135D01*
X027435Y033135D01*
X027385Y033185D01*
X027115Y033185D01*
X027065Y033135D01*
X026712Y033135D01*
X026694Y033145D01*
X026677Y033140D01*
X026596Y033163D01*
X026576Y033183D01*
X026526Y033183D01*
X026496Y033192D01*
X026481Y033183D01*
X026424Y033183D01*
X026317Y033076D01*
X026317Y032924D01*
X026424Y032817D01*
X026481Y032817D01*
X026496Y032808D01*
X026502Y032810D01*
X026526Y032817D01*
X026576Y032817D01*
X026596Y032837D01*
X026677Y032860D01*
X026694Y032855D01*
X026712Y032865D01*
X027065Y032865D01*
X027065Y032865D01*
X027115Y032815D01*
X027385Y032815D01*
X027435Y032865D01*
X027788Y032865D01*
X027806Y032855D01*
X027823Y032860D01*
X027904Y032837D01*
X027924Y032817D01*
X027974Y032817D01*
X028004Y032808D01*
X028005Y032809D01*
X027761Y032565D01*
X026111Y032565D01*
X025985Y032439D01*
X025568Y032022D01*
X025475Y032022D01*
X025475Y032855D01*
X025485Y032865D01*
X025485Y033135D01*
X025475Y033145D01*
X025475Y033478D01*
X026972Y034975D01*
X027835Y034975D01*
X027696Y034846D02*
X026843Y034846D01*
X026892Y034894D02*
X031708Y034894D01*
X031660Y034943D02*
X026940Y034943D01*
X026795Y034797D02*
X027648Y034797D01*
X027639Y034749D02*
X026746Y034749D01*
X026698Y034700D02*
X027639Y034700D01*
X027639Y034652D02*
X026649Y034652D01*
X026601Y034603D02*
X027639Y034603D01*
X027639Y034555D02*
X026552Y034555D01*
X026504Y034506D02*
X027639Y034506D01*
X027639Y034458D02*
X026455Y034458D01*
X026407Y034409D02*
X027639Y034409D01*
X027639Y034361D02*
X026358Y034361D01*
X026310Y034312D02*
X027639Y034312D01*
X027639Y034264D02*
X026261Y034264D01*
X026213Y034215D02*
X027639Y034215D01*
X027684Y034167D02*
X026164Y034167D01*
X026116Y034118D02*
X028078Y034118D01*
X028126Y034070D02*
X026067Y034070D01*
X026019Y034021D02*
X028135Y034021D01*
X028135Y033973D02*
X025970Y033973D01*
X025922Y033924D02*
X028135Y033924D01*
X028135Y033876D02*
X025873Y033876D01*
X025825Y033827D02*
X028135Y033827D01*
X028135Y033779D02*
X025776Y033779D01*
X025728Y033730D02*
X028135Y033730D01*
X028135Y033682D02*
X025679Y033682D01*
X025631Y033633D02*
X028135Y033633D01*
X028135Y033585D02*
X025582Y033585D01*
X025534Y033536D02*
X028135Y033536D01*
X028135Y033488D02*
X025485Y033488D01*
X025475Y033439D02*
X028135Y033439D01*
X028135Y033391D02*
X025475Y033391D01*
X025475Y033342D02*
X028135Y033342D01*
X028135Y033294D02*
X025475Y033294D01*
X025475Y033245D02*
X028135Y033245D01*
X028135Y033197D02*
X025475Y033197D01*
X025475Y033148D02*
X026389Y033148D01*
X026340Y033100D02*
X025485Y033100D01*
X025485Y033051D02*
X026317Y033051D01*
X026317Y033003D02*
X025485Y033003D01*
X025485Y032954D02*
X026317Y032954D01*
X026335Y032906D02*
X025485Y032906D01*
X025477Y032857D02*
X026384Y032857D01*
X026496Y032809D02*
X025475Y032809D01*
X025475Y032760D02*
X027956Y032760D01*
X028003Y032809D02*
X026497Y032809D01*
X026668Y032857D02*
X026686Y032857D01*
X026698Y032857D02*
X027073Y032857D01*
X027065Y033135D02*
X027065Y033135D01*
X027078Y033148D02*
X026650Y033148D01*
X026496Y033192D02*
X026496Y033192D01*
X026496Y033192D01*
X026063Y032518D02*
X025475Y032518D01*
X025475Y032566D02*
X027762Y032566D01*
X027810Y032615D02*
X025475Y032615D01*
X025475Y032663D02*
X027859Y032663D01*
X027907Y032712D02*
X025475Y032712D01*
X025475Y032469D02*
X026015Y032469D01*
X025966Y032421D02*
X025475Y032421D01*
X025475Y032372D02*
X025918Y032372D01*
X025869Y032324D02*
X025475Y032324D01*
X025475Y032275D02*
X025821Y032275D01*
X025772Y032227D02*
X025475Y032227D01*
X025475Y032178D02*
X025724Y032178D01*
X025675Y032130D02*
X025475Y032130D01*
X025475Y032081D02*
X025627Y032081D01*
X025578Y032033D02*
X025475Y032033D01*
X025004Y033192D02*
X025004Y033192D01*
X023496Y033192D02*
X023496Y033192D01*
X023496Y033192D01*
X022623Y035525D02*
X026170Y035525D01*
X026219Y035573D02*
X022623Y035573D01*
X022623Y035622D02*
X026267Y035622D01*
X026285Y035670D02*
X022623Y035670D01*
X022623Y035719D02*
X026285Y035719D01*
X026285Y035767D02*
X022623Y035767D01*
X022623Y035816D02*
X026285Y035816D01*
X026285Y035864D02*
X022623Y035864D01*
X022623Y035913D02*
X026285Y035913D01*
X026285Y035961D02*
X022623Y035961D01*
X022623Y036010D02*
X026285Y036010D01*
X026251Y036058D02*
X026122Y036058D01*
X025878Y036058D02*
X025122Y036058D01*
X025239Y036107D02*
X025761Y036107D01*
X025701Y036155D02*
X025299Y036155D01*
X025347Y036204D02*
X025653Y036204D01*
X025610Y036252D02*
X025390Y036252D01*
X025410Y036301D02*
X025590Y036301D01*
X025570Y036349D02*
X025430Y036349D01*
X025450Y036398D02*
X025550Y036398D01*
X025545Y036446D02*
X025455Y036446D01*
X025455Y036495D02*
X025545Y036495D01*
X025545Y036543D02*
X025455Y036543D01*
X025455Y036592D02*
X025545Y036592D01*
X025566Y036640D02*
X025434Y036640D01*
X025414Y036689D02*
X025586Y036689D01*
X025606Y036737D02*
X025394Y036737D01*
X025358Y036786D02*
X025642Y036786D01*
X025691Y036834D02*
X025309Y036834D01*
X024691Y036834D02*
X024309Y036834D01*
X024358Y036786D02*
X024642Y036786D01*
X024606Y036737D02*
X024394Y036737D01*
X024414Y036689D02*
X024586Y036689D01*
X024566Y036640D02*
X024434Y036640D01*
X024455Y036592D02*
X024545Y036592D01*
X024545Y036543D02*
X024455Y036543D01*
X024455Y036495D02*
X024545Y036495D01*
X024545Y036446D02*
X024455Y036446D01*
X024450Y036398D02*
X024550Y036398D01*
X024570Y036349D02*
X024430Y036349D01*
X024410Y036301D02*
X024590Y036301D01*
X024610Y036252D02*
X024390Y036252D01*
X024347Y036204D02*
X024653Y036204D01*
X024701Y036155D02*
X024299Y036155D01*
X024239Y036107D02*
X024761Y036107D01*
X024878Y036058D02*
X024122Y036058D01*
X023878Y036058D02*
X022623Y036058D01*
X022623Y036107D02*
X023761Y036107D01*
X023701Y036155D02*
X022623Y036155D01*
X022623Y036204D02*
X023653Y036204D01*
X023610Y036252D02*
X022623Y036252D01*
X022623Y036301D02*
X023590Y036301D01*
X023570Y036349D02*
X022623Y036349D01*
X022623Y036398D02*
X023550Y036398D01*
X023545Y036446D02*
X022623Y036446D01*
X022623Y036495D02*
X023545Y036495D01*
X023545Y036543D02*
X022623Y036543D01*
X022623Y036592D02*
X023545Y036592D01*
X023566Y036640D02*
X022623Y036640D01*
X022623Y036689D02*
X023586Y036689D01*
X023606Y036737D02*
X022623Y036737D01*
X022623Y036786D02*
X023642Y036786D01*
X023691Y036834D02*
X022623Y036834D01*
X026749Y036058D02*
X026878Y036058D01*
X028304Y034846D02*
X028890Y034846D01*
X028786Y034797D02*
X028352Y034797D01*
X028361Y034749D02*
X028738Y034749D01*
X028692Y034700D02*
X028361Y034700D01*
X028361Y034652D02*
X028672Y034652D01*
X028652Y034603D02*
X028361Y034603D01*
X028361Y034555D02*
X028639Y034555D01*
X028639Y034506D02*
X028361Y034506D01*
X028361Y034458D02*
X028639Y034458D01*
X028647Y034409D02*
X028395Y034409D01*
X028444Y034361D02*
X028667Y034361D01*
X028687Y034312D02*
X028492Y034312D01*
X028541Y034264D02*
X028726Y034264D01*
X028755Y034215D02*
X028565Y034215D01*
X028565Y034167D02*
X028755Y034167D01*
X028755Y034118D02*
X028565Y034118D01*
X028565Y034070D02*
X028755Y034070D01*
X028755Y034021D02*
X028565Y034021D01*
X028565Y033973D02*
X028755Y033973D01*
X028755Y033924D02*
X028565Y033924D01*
X028565Y033876D02*
X028755Y033876D01*
X028755Y033827D02*
X028565Y033827D01*
X028565Y033779D02*
X028755Y033779D01*
X028755Y033730D02*
X028565Y033730D01*
X028565Y033682D02*
X028755Y033682D01*
X028755Y033633D02*
X028565Y033633D01*
X028565Y033585D02*
X028755Y033585D01*
X028755Y033536D02*
X028565Y033536D01*
X028565Y033488D02*
X028755Y033488D01*
X028755Y033439D02*
X028565Y033439D01*
X028565Y033391D02*
X028755Y033391D01*
X028755Y033342D02*
X028565Y033342D01*
X028565Y033294D02*
X028755Y033294D01*
X028755Y033245D02*
X028565Y033245D01*
X028565Y033197D02*
X028755Y033197D01*
X028755Y033148D02*
X028565Y033148D01*
X028565Y033100D02*
X028753Y033100D01*
X028705Y033051D02*
X028565Y033051D01*
X028565Y033003D02*
X028656Y033003D01*
X028608Y032954D02*
X028565Y032954D01*
X028135Y033148D02*
X028111Y033148D01*
X028004Y033192D02*
X028004Y033192D01*
X027850Y033148D02*
X027422Y033148D01*
X027435Y032865D02*
X027435Y032865D01*
X027427Y032857D02*
X027802Y032857D01*
X027814Y032857D02*
X027832Y032857D01*
X028004Y032808D02*
X028004Y032808D01*
X028004Y032808D01*
X028004Y032809D02*
X028004Y032809D01*
X029245Y033051D02*
X029247Y033051D01*
X029245Y033100D02*
X029295Y033100D01*
X029344Y033148D02*
X029245Y033148D01*
X029245Y033197D02*
X029392Y033197D01*
X029441Y033245D02*
X029245Y033245D01*
X029245Y033294D02*
X029489Y033294D01*
X029538Y033342D02*
X029245Y033342D01*
X029245Y033391D02*
X029586Y033391D01*
X029635Y033439D02*
X029245Y033439D01*
X029245Y033488D02*
X029683Y033488D01*
X029732Y033536D02*
X029245Y033536D01*
X029245Y033585D02*
X029780Y033585D01*
X029785Y033633D02*
X029245Y033633D01*
X029245Y033682D02*
X029785Y033682D01*
X029785Y033730D02*
X029245Y033730D01*
X029245Y033779D02*
X029785Y033779D01*
X029785Y033827D02*
X029245Y033827D01*
X029245Y033876D02*
X029785Y033876D01*
X029785Y033924D02*
X029245Y033924D01*
X029245Y033973D02*
X029785Y033973D01*
X029785Y034021D02*
X029245Y034021D01*
X029245Y034070D02*
X029785Y034070D01*
X029785Y034118D02*
X029245Y034118D01*
X029245Y034167D02*
X029785Y034167D01*
X029774Y034215D02*
X029245Y034215D01*
X029274Y034264D02*
X029726Y034264D01*
X029687Y034312D02*
X029313Y034312D01*
X029333Y034361D02*
X029667Y034361D01*
X029647Y034409D02*
X029353Y034409D01*
X029361Y034458D02*
X029639Y034458D01*
X029639Y034506D02*
X029361Y034506D01*
X029361Y034555D02*
X029639Y034555D01*
X029652Y034603D02*
X029348Y034603D01*
X029328Y034652D02*
X029672Y034652D01*
X029692Y034700D02*
X029308Y034700D01*
X029262Y034749D02*
X029738Y034749D01*
X029786Y034797D02*
X029214Y034797D01*
X029110Y034846D02*
X029890Y034846D01*
X030110Y034846D02*
X030890Y034846D01*
X030786Y034797D02*
X030214Y034797D01*
X030262Y034749D02*
X030738Y034749D01*
X030692Y034700D02*
X030308Y034700D01*
X030328Y034652D02*
X030672Y034652D01*
X030652Y034603D02*
X030348Y034603D01*
X030361Y034555D02*
X030639Y034555D01*
X030639Y034506D02*
X030361Y034506D01*
X030361Y034458D02*
X030639Y034458D01*
X030647Y034409D02*
X030353Y034409D01*
X030333Y034361D02*
X030667Y034361D01*
X030687Y034312D02*
X030313Y034312D01*
X030274Y034264D02*
X030726Y034264D01*
X030774Y034215D02*
X030226Y034215D01*
X030215Y034167D02*
X030785Y034167D01*
X030785Y034118D02*
X030215Y034118D01*
X030215Y034070D02*
X030765Y034070D01*
X030717Y034021D02*
X030215Y034021D01*
X030215Y033973D02*
X030668Y033973D01*
X030620Y033924D02*
X030215Y033924D01*
X030215Y033876D02*
X030571Y033876D01*
X030523Y033827D02*
X030215Y033827D01*
X030215Y033779D02*
X030474Y033779D01*
X030426Y033730D02*
X030215Y033730D01*
X030215Y033682D02*
X030377Y033682D01*
X030329Y033633D02*
X030215Y033633D01*
X030215Y033585D02*
X030280Y033585D01*
X030232Y033536D02*
X030215Y033536D01*
X030549Y033245D02*
X032625Y033245D01*
X032625Y033197D02*
X030501Y033197D01*
X030452Y033148D02*
X030889Y033148D01*
X030840Y033100D02*
X030404Y033100D01*
X030355Y033051D02*
X030817Y033051D01*
X030817Y033003D02*
X030307Y033003D01*
X030258Y032954D02*
X030817Y032954D01*
X030835Y032906D02*
X030210Y032906D01*
X030161Y032857D02*
X030884Y032857D01*
X030996Y032809D02*
X030113Y032809D01*
X030064Y032760D02*
X032625Y032760D01*
X032625Y032712D02*
X030016Y032712D01*
X029967Y032663D02*
X032625Y032663D01*
X032625Y032615D02*
X029919Y032615D01*
X029870Y032566D02*
X032625Y032566D01*
X032625Y032518D02*
X029822Y032518D01*
X029773Y032469D02*
X032625Y032469D01*
X032625Y032421D02*
X029725Y032421D01*
X029676Y032372D02*
X032625Y032372D01*
X032625Y032324D02*
X029628Y032324D01*
X029579Y032275D02*
X032625Y032275D01*
X032579Y032227D02*
X029531Y032227D01*
X029482Y032178D02*
X032531Y032178D01*
X032482Y032130D02*
X029434Y032130D01*
X029385Y032081D02*
X032434Y032081D01*
X032929Y032081D02*
X037377Y032081D01*
X037377Y032033D02*
X033152Y032033D01*
X032975Y032130D02*
X037377Y032130D01*
X037377Y032178D02*
X032975Y032178D01*
X032975Y032227D02*
X037377Y032227D01*
X037377Y032275D02*
X032975Y032275D01*
X032975Y032324D02*
X037377Y032324D01*
X037377Y032372D02*
X032975Y032372D01*
X032975Y032421D02*
X037377Y032421D01*
X037377Y032469D02*
X032975Y032469D01*
X032975Y032518D02*
X037377Y032518D01*
X037377Y032566D02*
X032975Y032566D01*
X032975Y032615D02*
X037377Y032615D01*
X037377Y032663D02*
X032975Y032663D01*
X032975Y032712D02*
X037377Y032712D01*
X037377Y032760D02*
X032975Y032760D01*
X032975Y032809D02*
X033996Y032809D01*
X033996Y032808D02*
X034002Y032810D01*
X034026Y032817D01*
X034076Y032817D01*
X034096Y032837D01*
X034177Y032860D01*
X034194Y032855D01*
X034212Y032865D01*
X034565Y032865D01*
X034565Y032865D01*
X034615Y032815D01*
X034885Y032815D01*
X034935Y032865D01*
X035288Y032865D01*
X035306Y032855D01*
X035323Y032860D01*
X035404Y032837D01*
X035424Y032817D01*
X035474Y032817D01*
X035504Y032808D01*
X035519Y032817D01*
X035576Y032817D01*
X035683Y032924D01*
X035683Y033076D01*
X035576Y033183D01*
X035519Y033183D01*
X035504Y033192D01*
X035504Y033192D01*
X035474Y033183D01*
X035424Y033183D01*
X035404Y033163D01*
X035323Y033140D01*
X035306Y033145D01*
X035288Y033135D01*
X034935Y033135D01*
X034935Y033135D01*
X034885Y033185D01*
X034615Y033185D01*
X034565Y033135D01*
X034212Y033135D01*
X034194Y033145D01*
X034177Y033140D01*
X034096Y033163D01*
X034076Y033183D01*
X034026Y033183D01*
X033996Y033192D01*
X033981Y033183D01*
X033924Y033183D01*
X033817Y033076D01*
X033817Y032924D01*
X033924Y032817D01*
X033981Y032817D01*
X033996Y032808D01*
X033997Y032809D02*
X035503Y032809D01*
X035504Y032808D02*
X035504Y032808D01*
X035504Y032808D01*
X035504Y032809D02*
X037377Y032809D01*
X037377Y032857D02*
X035616Y032857D01*
X035665Y032906D02*
X037377Y032906D01*
X037377Y032954D02*
X035683Y032954D01*
X035683Y033003D02*
X037377Y033003D01*
X037377Y033051D02*
X035683Y033051D01*
X035660Y033100D02*
X037377Y033100D01*
X037377Y033148D02*
X035611Y033148D01*
X035504Y033192D02*
X035504Y033192D01*
X035350Y033148D02*
X034922Y033148D01*
X034935Y032865D02*
X034935Y032865D01*
X034927Y032857D02*
X035302Y032857D01*
X035314Y032857D02*
X035332Y032857D01*
X034573Y032857D02*
X034198Y032857D01*
X034186Y032857D02*
X034168Y032857D01*
X033884Y032857D02*
X032977Y032857D01*
X032985Y032906D02*
X033835Y032906D01*
X033817Y032954D02*
X032985Y032954D01*
X032985Y033003D02*
X033817Y033003D01*
X033817Y033051D02*
X032985Y033051D01*
X032985Y033100D02*
X033840Y033100D01*
X033889Y033148D02*
X032975Y033148D01*
X032975Y033197D02*
X037377Y033197D01*
X037377Y033245D02*
X032975Y033245D01*
X032975Y033294D02*
X037377Y033294D01*
X037377Y033342D02*
X032975Y033342D01*
X032975Y033391D02*
X037377Y033391D01*
X037377Y033439D02*
X032975Y033439D01*
X032975Y033488D02*
X037377Y033488D01*
X037377Y033536D02*
X032975Y033536D01*
X032975Y033585D02*
X037377Y033585D01*
X037377Y033633D02*
X032975Y033633D01*
X032975Y033682D02*
X037377Y033682D01*
X037377Y033730D02*
X032975Y033730D01*
X032975Y033779D02*
X037377Y033779D01*
X037377Y033827D02*
X032975Y033827D01*
X032975Y033876D02*
X037377Y033876D01*
X037377Y033924D02*
X032975Y033924D01*
X032975Y033973D02*
X037377Y033973D01*
X037377Y034021D02*
X032975Y034021D01*
X032975Y034070D02*
X037377Y034070D01*
X037377Y034118D02*
X032975Y034118D01*
X032931Y034167D02*
X037377Y034167D01*
X037377Y034215D02*
X037151Y034215D01*
X037182Y034228D02*
X037272Y034318D01*
X037321Y034436D01*
X037321Y034564D01*
X037272Y034682D01*
X037182Y034772D01*
X037064Y034821D01*
X036936Y034821D01*
X036818Y034772D01*
X036728Y034682D01*
X036679Y034564D01*
X036679Y034436D01*
X036728Y034318D01*
X036818Y034228D01*
X036936Y034179D01*
X037064Y034179D01*
X037182Y034228D01*
X037218Y034264D02*
X037377Y034264D01*
X037377Y034312D02*
X037266Y034312D01*
X037290Y034361D02*
X037377Y034361D01*
X037377Y034409D02*
X037310Y034409D01*
X037321Y034458D02*
X037377Y034458D01*
X037377Y034506D02*
X037321Y034506D01*
X037321Y034555D02*
X037377Y034555D01*
X037377Y034603D02*
X037305Y034603D01*
X037285Y034652D02*
X037377Y034652D01*
X037377Y034700D02*
X037254Y034700D01*
X037206Y034749D02*
X037377Y034749D01*
X037377Y034797D02*
X037122Y034797D01*
X036878Y034797D02*
X036122Y034797D01*
X036064Y034821D02*
X035936Y034821D01*
X035818Y034772D01*
X035728Y034682D01*
X035679Y034564D01*
X035679Y034436D01*
X035728Y034318D01*
X035818Y034228D01*
X035936Y034179D01*
X036064Y034179D01*
X036182Y034228D01*
X036272Y034318D01*
X036321Y034436D01*
X036321Y034564D01*
X036272Y034682D01*
X036182Y034772D01*
X036064Y034821D01*
X036206Y034749D02*
X036794Y034749D01*
X036746Y034700D02*
X036254Y034700D01*
X036285Y034652D02*
X036715Y034652D01*
X036695Y034603D02*
X036305Y034603D01*
X036321Y034555D02*
X036679Y034555D01*
X036679Y034506D02*
X036321Y034506D01*
X036321Y034458D02*
X036679Y034458D01*
X036690Y034409D02*
X036310Y034409D01*
X036290Y034361D02*
X036710Y034361D01*
X036734Y034312D02*
X036266Y034312D01*
X036218Y034264D02*
X036782Y034264D01*
X036849Y034215D02*
X036151Y034215D01*
X035849Y034215D02*
X035151Y034215D01*
X035182Y034228D02*
X035272Y034318D01*
X035321Y034436D01*
X035321Y034564D01*
X035272Y034682D01*
X035182Y034772D01*
X035064Y034821D01*
X034936Y034821D01*
X034818Y034772D01*
X034728Y034682D01*
X034679Y034564D01*
X034679Y034436D01*
X034728Y034318D01*
X034818Y034228D01*
X034936Y034179D01*
X035064Y034179D01*
X035182Y034228D01*
X035218Y034264D02*
X035782Y034264D01*
X035734Y034312D02*
X035266Y034312D01*
X035290Y034361D02*
X035710Y034361D01*
X035690Y034409D02*
X035310Y034409D01*
X035321Y034458D02*
X035679Y034458D01*
X035679Y034506D02*
X035321Y034506D01*
X035321Y034555D02*
X035679Y034555D01*
X035695Y034603D02*
X035305Y034603D01*
X035285Y034652D02*
X035715Y034652D01*
X035746Y034700D02*
X035254Y034700D01*
X035206Y034749D02*
X035794Y034749D01*
X035878Y034797D02*
X035122Y034797D01*
X034878Y034797D02*
X034296Y034797D01*
X034271Y034821D02*
X033729Y034821D01*
X033679Y034771D01*
X033679Y034229D01*
X033729Y034179D01*
X034271Y034179D01*
X034321Y034229D01*
X034321Y034771D01*
X034271Y034821D01*
X034321Y034749D02*
X034794Y034749D01*
X034746Y034700D02*
X034321Y034700D01*
X034321Y034652D02*
X034715Y034652D01*
X034695Y034603D02*
X034321Y034603D01*
X034321Y034555D02*
X034679Y034555D01*
X034679Y034506D02*
X034321Y034506D01*
X034321Y034458D02*
X034679Y034458D01*
X034690Y034409D02*
X034321Y034409D01*
X034321Y034361D02*
X034710Y034361D01*
X034734Y034312D02*
X034321Y034312D01*
X034321Y034264D02*
X034782Y034264D01*
X034849Y034215D02*
X034308Y034215D01*
X033692Y034215D02*
X032882Y034215D01*
X032834Y034264D02*
X033679Y034264D01*
X033679Y034312D02*
X032785Y034312D01*
X032737Y034361D02*
X033679Y034361D01*
X033679Y034409D02*
X032688Y034409D01*
X032640Y034458D02*
X033679Y034458D01*
X033679Y034506D02*
X032591Y034506D01*
X032543Y034555D02*
X033679Y034555D01*
X033679Y034603D02*
X032494Y034603D01*
X032446Y034652D02*
X033679Y034652D01*
X033679Y034700D02*
X032397Y034700D01*
X032349Y034749D02*
X033679Y034749D01*
X033704Y034797D02*
X032300Y034797D01*
X032252Y034846D02*
X037377Y034846D01*
X037377Y034894D02*
X032203Y034894D01*
X032155Y034943D02*
X037377Y034943D01*
X037377Y034991D02*
X032106Y034991D01*
X032058Y035040D02*
X037377Y035040D01*
X037377Y035088D02*
X032009Y035088D01*
X031757Y034846D02*
X031110Y034846D01*
X031214Y034797D02*
X031805Y034797D01*
X031854Y034749D02*
X031262Y034749D01*
X031308Y034700D02*
X031902Y034700D01*
X031951Y034652D02*
X031328Y034652D01*
X031348Y034603D02*
X031999Y034603D01*
X032048Y034555D02*
X031361Y034555D01*
X031361Y034506D02*
X032096Y034506D01*
X032145Y034458D02*
X031361Y034458D01*
X031353Y034409D02*
X032193Y034409D01*
X032242Y034361D02*
X031333Y034361D01*
X031313Y034312D02*
X032290Y034312D01*
X032339Y034264D02*
X031274Y034264D01*
X031226Y034215D02*
X032387Y034215D01*
X032436Y034167D02*
X031215Y034167D01*
X031215Y034118D02*
X032484Y034118D01*
X032533Y034070D02*
X031215Y034070D01*
X031215Y034021D02*
X032581Y034021D01*
X032625Y033973D02*
X031215Y033973D01*
X031215Y033924D02*
X032625Y033924D01*
X032625Y033876D02*
X031180Y033876D01*
X031131Y033827D02*
X032625Y033827D01*
X032625Y033779D02*
X031083Y033779D01*
X031034Y033730D02*
X032625Y033730D01*
X032625Y033682D02*
X030986Y033682D01*
X030937Y033633D02*
X032625Y033633D01*
X032625Y033585D02*
X030889Y033585D01*
X030840Y033536D02*
X032625Y033536D01*
X032625Y033488D02*
X030792Y033488D01*
X030743Y033439D02*
X032625Y033439D01*
X032625Y033391D02*
X030695Y033391D01*
X030646Y033342D02*
X032625Y033342D01*
X032625Y033294D02*
X030598Y033294D01*
X030996Y033192D02*
X030996Y033192D01*
X030996Y033192D01*
X031150Y033148D02*
X031578Y033148D01*
X031565Y033135D02*
X031565Y033135D01*
X031573Y032857D02*
X031198Y032857D01*
X031186Y032857D02*
X031168Y032857D01*
X030997Y032809D02*
X032503Y032809D01*
X032504Y032808D02*
X032504Y032808D01*
X032504Y032808D01*
X032504Y032809D02*
X032625Y032809D01*
X032616Y032857D02*
X032623Y032857D01*
X032332Y032857D02*
X032314Y032857D01*
X032302Y032857D02*
X031927Y032857D01*
X031935Y032865D02*
X031935Y032865D01*
X031922Y033148D02*
X032350Y033148D01*
X032504Y033192D02*
X032504Y033192D01*
X032611Y033148D02*
X032625Y033148D01*
X033996Y033192D02*
X033996Y033192D01*
X033996Y033192D01*
X034150Y033148D02*
X034578Y033148D01*
X034565Y033135D02*
X034565Y033135D01*
X034936Y035179D02*
X035064Y035179D01*
X035182Y035228D01*
X035272Y035318D01*
X035321Y035436D01*
X035321Y035564D01*
X035272Y035682D01*
X035182Y035772D01*
X035064Y035821D01*
X034936Y035821D01*
X034818Y035772D01*
X034728Y035682D01*
X034679Y035564D01*
X034679Y035436D01*
X034728Y035318D01*
X034818Y035228D01*
X034936Y035179D01*
X034921Y035185D02*
X034079Y035185D01*
X034188Y035234D02*
X034812Y035234D01*
X034764Y035282D02*
X034236Y035282D01*
X034277Y035331D02*
X034723Y035331D01*
X034702Y035379D02*
X034298Y035379D01*
X034318Y035428D02*
X034682Y035428D01*
X034679Y035476D02*
X034321Y035476D01*
X034321Y035525D02*
X034679Y035525D01*
X034683Y035573D02*
X034317Y035573D01*
X034297Y035622D02*
X034703Y035622D01*
X034723Y035670D02*
X034277Y035670D01*
X034236Y035719D02*
X034764Y035719D01*
X034813Y035767D02*
X034187Y035767D01*
X034078Y035816D02*
X034922Y035816D01*
X035078Y035816D02*
X035922Y035816D01*
X035936Y035821D02*
X035818Y035772D01*
X035728Y035682D01*
X035679Y035564D01*
X035679Y035436D01*
X035728Y035318D01*
X035818Y035228D01*
X035936Y035179D01*
X036064Y035179D01*
X036182Y035228D01*
X036272Y035318D01*
X036321Y035436D01*
X036321Y035564D01*
X036272Y035682D01*
X036182Y035772D01*
X036064Y035821D01*
X035936Y035821D01*
X035813Y035767D02*
X035187Y035767D01*
X035236Y035719D02*
X035764Y035719D01*
X035723Y035670D02*
X035277Y035670D01*
X035297Y035622D02*
X035703Y035622D01*
X035683Y035573D02*
X035317Y035573D01*
X035321Y035525D02*
X035679Y035525D01*
X035679Y035476D02*
X035321Y035476D01*
X035318Y035428D02*
X035682Y035428D01*
X035702Y035379D02*
X035298Y035379D01*
X035277Y035331D02*
X035723Y035331D01*
X035764Y035282D02*
X035236Y035282D01*
X035188Y035234D02*
X035812Y035234D01*
X035921Y035185D02*
X035079Y035185D01*
X036079Y035185D02*
X036921Y035185D01*
X036812Y035234D02*
X036188Y035234D01*
X036236Y035282D02*
X036764Y035282D01*
X036723Y035331D02*
X036277Y035331D01*
X036298Y035379D02*
X036702Y035379D01*
X036682Y035428D02*
X036318Y035428D01*
X036321Y035476D02*
X036679Y035476D01*
X036679Y035525D02*
X036321Y035525D01*
X036317Y035573D02*
X036683Y035573D01*
X036703Y035622D02*
X036297Y035622D01*
X036277Y035670D02*
X036723Y035670D01*
X036764Y035719D02*
X036236Y035719D01*
X036187Y035767D02*
X036813Y035767D01*
X036922Y035816D02*
X036078Y035816D01*
X030550Y032033D02*
X029400Y032033D01*
X029400Y031984D02*
X030550Y031984D01*
X030550Y031936D02*
X029400Y031936D01*
X029400Y031887D02*
X030550Y031887D01*
X030550Y031839D02*
X029400Y031839D01*
X029400Y031790D02*
X030550Y031790D01*
X030550Y031742D02*
X029400Y031742D01*
X029400Y031693D02*
X030550Y031693D01*
X030550Y031645D02*
X029400Y031645D01*
X029400Y031596D02*
X030550Y031596D01*
X030550Y031548D02*
X029400Y031548D01*
X029400Y031499D02*
X030550Y031499D01*
X030550Y031451D02*
X029400Y031451D01*
X029400Y031402D02*
X030550Y031402D01*
X030550Y031354D02*
X029400Y031354D01*
X029400Y031305D02*
X030550Y031305D01*
X030550Y031257D02*
X029400Y031257D01*
X029400Y031208D02*
X030550Y031208D01*
X030550Y031160D02*
X029400Y031160D01*
X029400Y031111D02*
X030550Y031111D01*
X030550Y031063D02*
X029400Y031063D01*
X029400Y031014D02*
X030550Y031014D01*
X030550Y030966D02*
X029400Y030966D01*
X029400Y030917D02*
X030550Y030917D01*
X030550Y030869D02*
X029400Y030869D01*
D24*
X028500Y030500D02*
X028500Y031500D01*
X031000Y034000D01*
X031000Y034500D01*
X031700Y035150D02*
X032800Y034050D01*
X032800Y033000D01*
X032800Y032200D01*
X032500Y031900D01*
X032500Y031500D01*
X030000Y033500D02*
X030000Y034500D01*
X030000Y033500D02*
X028000Y031500D01*
X027850Y032350D02*
X028350Y032850D01*
X028350Y034150D01*
X028000Y034500D01*
X027950Y035150D02*
X026900Y035150D01*
X025300Y033550D01*
X025300Y033000D01*
X025300Y032050D01*
X025000Y031750D01*
X025000Y031500D01*
X025500Y031650D02*
X026200Y032350D01*
X027850Y032350D01*
X025500Y031650D02*
X025500Y030500D01*
X027950Y035150D02*
X031700Y035150D01*
X028000Y035200D02*
X028000Y036500D01*
D25*
X028000Y035200D02*
X027950Y035150D01*
X029000Y034500D02*
X029000Y033000D01*
X028000Y032000D01*
X026500Y032000D01*
X026000Y031500D01*
D26*
X026500Y030500D02*
X026500Y029201D01*
X029301Y029201D01*
X030699Y029201D01*
X030000Y029201D01*
X029601Y029201D01*
X030000Y029201D02*
X030000Y029949D01*
X030699Y029201D02*
X034000Y029201D01*
X036801Y029201D01*
X034000Y029201D02*
X034000Y030500D01*
X026500Y029201D02*
X023199Y029201D01*
D27*
X023636Y026071D02*
X023657Y026050D01*
X027864Y026071D02*
X027879Y026071D01*
M02*
