%
M48
M72
T01C0.0118
T02C0.0354
T03C0.0400
T04C0.0630
T05C0.1260
%
T01
X31500Y26000
X31200Y26650
X31500Y27050
X33500Y27000
X33500Y26000
X35500Y27000
X36500Y27000
X36500Y26000
X38500Y26000
X38500Y27000
X39500Y28000
X39500Y29000
X38500Y29000
X38500Y30000
X37500Y30000
X37500Y31000
X38500Y31000
X39500Y31000
X39500Y30000
X39500Y32000
X38500Y32000
X37500Y32000
X37500Y33000
X37500Y34000
X38500Y34000
X38500Y33000
X39500Y33000
X39500Y34000
X39500Y35000
X38500Y35000
X37500Y35000
X36500Y35000
X35500Y35000
X34500Y35000
X34500Y34000
X34500Y33000
X35500Y33000
X35500Y34000
X36500Y34000
X36500Y33000
X36500Y32000
X35500Y32000
X36500Y31000
X35500Y29000
X35500Y28000
X36500Y28000
X33500Y28000
X33050Y29300
X33050Y29600
X33050Y30650
X33050Y30950
X33050Y32000
X33050Y32300
X33050Y33350
X33050Y33650
X33500Y34000
X33500Y35000
X30800Y35950
X30500Y35600
X30500Y36350
X39500Y36000
T02
X31602Y32750
X31602Y31750
X31602Y30750
X31602Y29750
X30602Y30250
X30602Y31250
X30602Y32250
X30602Y33250
X29000Y32750
X28000Y32250
X29000Y31750
X28000Y31250
X29000Y30750
X28000Y30250
X29000Y29750
X28000Y33250
T03
X23000Y25500
X24000Y25500
X25000Y25500
X26000Y25500
X27000Y25500
X28000Y25500
X29000Y25500
X30000Y25500
X31000Y25500
X32000Y25500
X33000Y25500
X34000Y25500
X35000Y25500
X36000Y25500
X37000Y25500
X38000Y25500
X39000Y25500
X40000Y25500
X40000Y37500
X39000Y37500
X38000Y37500
X37000Y37500
X36000Y37500
X35000Y37500
X34000Y37500
X33000Y37500
X32000Y37500
X31000Y37500
X30000Y37500
X29000Y37500
X28000Y37500
X27000Y37500
X26000Y37500
X25000Y37500
X24000Y37500
X23000Y37500
T04
X23701Y34848
X31602Y34848
X30000Y28152
X23701Y28152
T05
X25500Y29250
X25500Y33750
X25000Y36200
M30
