G75*
%MOIN*%
%OFA0B0*%
%FSLAX24Y24*%
%IPPOS*%
%LPD*%
%AMOC8*
5,1,8,0,0,1.08239X$1,22.5*
%
%ADD10C,0.0000*%
%ADD11R,0.0425X0.0425*%
%ADD12C,0.0425*%
%ADD13C,0.0709*%
%ADD14C,0.0482*%
%ADD15R,0.0200X0.0200*%
%ADD16R,0.0472X0.0472*%
%ADD17C,0.0472*%
%ADD18R,0.0740X0.0740*%
%ADD19C,0.0740*%
%ADD20C,0.0197*%
%ADD21C,0.0100*%
%ADD22C,0.0050*%
%ADD23C,0.0080*%
D10*
X022500Y025000D02*
X022500Y037000D01*
X032500Y037000D01*
X032500Y036000D01*
X037500Y036000D01*
X037500Y025000D01*
X022500Y025000D01*
X023360Y028000D02*
X023362Y028050D01*
X023368Y028100D01*
X023378Y028149D01*
X023391Y028198D01*
X023409Y028245D01*
X023430Y028291D01*
X023454Y028334D01*
X023482Y028376D01*
X023513Y028416D01*
X023547Y028453D01*
X023584Y028487D01*
X023624Y028518D01*
X023666Y028546D01*
X023709Y028570D01*
X023755Y028591D01*
X023802Y028609D01*
X023851Y028622D01*
X023900Y028632D01*
X023950Y028638D01*
X024000Y028640D01*
X024050Y028638D01*
X024100Y028632D01*
X024149Y028622D01*
X024198Y028609D01*
X024245Y028591D01*
X024291Y028570D01*
X024334Y028546D01*
X024376Y028518D01*
X024416Y028487D01*
X024453Y028453D01*
X024487Y028416D01*
X024518Y028376D01*
X024546Y028334D01*
X024570Y028291D01*
X024591Y028245D01*
X024609Y028198D01*
X024622Y028149D01*
X024632Y028100D01*
X024638Y028050D01*
X024640Y028000D01*
X024638Y027950D01*
X024632Y027900D01*
X024622Y027851D01*
X024609Y027802D01*
X024591Y027755D01*
X024570Y027709D01*
X024546Y027666D01*
X024518Y027624D01*
X024487Y027584D01*
X024453Y027547D01*
X024416Y027513D01*
X024376Y027482D01*
X024334Y027454D01*
X024291Y027430D01*
X024245Y027409D01*
X024198Y027391D01*
X024149Y027378D01*
X024100Y027368D01*
X024050Y027362D01*
X024000Y027360D01*
X023950Y027362D01*
X023900Y027368D01*
X023851Y027378D01*
X023802Y027391D01*
X023755Y027409D01*
X023709Y027430D01*
X023666Y027454D01*
X023624Y027482D01*
X023584Y027513D01*
X023547Y027547D01*
X023513Y027584D01*
X023482Y027624D01*
X023454Y027666D01*
X023430Y027709D01*
X023409Y027755D01*
X023391Y027802D01*
X023378Y027851D01*
X023368Y027900D01*
X023362Y027950D01*
X023360Y028000D01*
X027860Y028000D02*
X027862Y028050D01*
X027868Y028100D01*
X027878Y028149D01*
X027891Y028198D01*
X027909Y028245D01*
X027930Y028291D01*
X027954Y028334D01*
X027982Y028376D01*
X028013Y028416D01*
X028047Y028453D01*
X028084Y028487D01*
X028124Y028518D01*
X028166Y028546D01*
X028209Y028570D01*
X028255Y028591D01*
X028302Y028609D01*
X028351Y028622D01*
X028400Y028632D01*
X028450Y028638D01*
X028500Y028640D01*
X028550Y028638D01*
X028600Y028632D01*
X028649Y028622D01*
X028698Y028609D01*
X028745Y028591D01*
X028791Y028570D01*
X028834Y028546D01*
X028876Y028518D01*
X028916Y028487D01*
X028953Y028453D01*
X028987Y028416D01*
X029018Y028376D01*
X029046Y028334D01*
X029070Y028291D01*
X029091Y028245D01*
X029109Y028198D01*
X029122Y028149D01*
X029132Y028100D01*
X029138Y028050D01*
X029140Y028000D01*
X029138Y027950D01*
X029132Y027900D01*
X029122Y027851D01*
X029109Y027802D01*
X029091Y027755D01*
X029070Y027709D01*
X029046Y027666D01*
X029018Y027624D01*
X028987Y027584D01*
X028953Y027547D01*
X028916Y027513D01*
X028876Y027482D01*
X028834Y027454D01*
X028791Y027430D01*
X028745Y027409D01*
X028698Y027391D01*
X028649Y027378D01*
X028600Y027368D01*
X028550Y027362D01*
X028500Y027360D01*
X028450Y027362D01*
X028400Y027368D01*
X028351Y027378D01*
X028302Y027391D01*
X028255Y027409D01*
X028209Y027430D01*
X028166Y027454D01*
X028124Y027482D01*
X028084Y027513D01*
X028047Y027547D01*
X028013Y027584D01*
X027982Y027624D01*
X027954Y027666D01*
X027930Y027709D01*
X027909Y027755D01*
X027891Y027802D01*
X027878Y027851D01*
X027868Y027900D01*
X027862Y027950D01*
X027860Y028000D01*
X030860Y028000D02*
X030862Y028050D01*
X030868Y028100D01*
X030878Y028149D01*
X030891Y028198D01*
X030909Y028245D01*
X030930Y028291D01*
X030954Y028334D01*
X030982Y028376D01*
X031013Y028416D01*
X031047Y028453D01*
X031084Y028487D01*
X031124Y028518D01*
X031166Y028546D01*
X031209Y028570D01*
X031255Y028591D01*
X031302Y028609D01*
X031351Y028622D01*
X031400Y028632D01*
X031450Y028638D01*
X031500Y028640D01*
X031550Y028638D01*
X031600Y028632D01*
X031649Y028622D01*
X031698Y028609D01*
X031745Y028591D01*
X031791Y028570D01*
X031834Y028546D01*
X031876Y028518D01*
X031916Y028487D01*
X031953Y028453D01*
X031987Y028416D01*
X032018Y028376D01*
X032046Y028334D01*
X032070Y028291D01*
X032091Y028245D01*
X032109Y028198D01*
X032122Y028149D01*
X032132Y028100D01*
X032138Y028050D01*
X032140Y028000D01*
X032138Y027950D01*
X032132Y027900D01*
X032122Y027851D01*
X032109Y027802D01*
X032091Y027755D01*
X032070Y027709D01*
X032046Y027666D01*
X032018Y027624D01*
X031987Y027584D01*
X031953Y027547D01*
X031916Y027513D01*
X031876Y027482D01*
X031834Y027454D01*
X031791Y027430D01*
X031745Y027409D01*
X031698Y027391D01*
X031649Y027378D01*
X031600Y027368D01*
X031550Y027362D01*
X031500Y027360D01*
X031450Y027362D01*
X031400Y027368D01*
X031351Y027378D01*
X031302Y027391D01*
X031255Y027409D01*
X031209Y027430D01*
X031166Y027454D01*
X031124Y027482D01*
X031084Y027513D01*
X031047Y027547D01*
X031013Y027584D01*
X030982Y027624D01*
X030954Y027666D01*
X030930Y027709D01*
X030909Y027755D01*
X030891Y027802D01*
X030878Y027851D01*
X030868Y027900D01*
X030862Y027950D01*
X030860Y028000D01*
X035360Y028000D02*
X035362Y028050D01*
X035368Y028100D01*
X035378Y028149D01*
X035391Y028198D01*
X035409Y028245D01*
X035430Y028291D01*
X035454Y028334D01*
X035482Y028376D01*
X035513Y028416D01*
X035547Y028453D01*
X035584Y028487D01*
X035624Y028518D01*
X035666Y028546D01*
X035709Y028570D01*
X035755Y028591D01*
X035802Y028609D01*
X035851Y028622D01*
X035900Y028632D01*
X035950Y028638D01*
X036000Y028640D01*
X036050Y028638D01*
X036100Y028632D01*
X036149Y028622D01*
X036198Y028609D01*
X036245Y028591D01*
X036291Y028570D01*
X036334Y028546D01*
X036376Y028518D01*
X036416Y028487D01*
X036453Y028453D01*
X036487Y028416D01*
X036518Y028376D01*
X036546Y028334D01*
X036570Y028291D01*
X036591Y028245D01*
X036609Y028198D01*
X036622Y028149D01*
X036632Y028100D01*
X036638Y028050D01*
X036640Y028000D01*
X036638Y027950D01*
X036632Y027900D01*
X036622Y027851D01*
X036609Y027802D01*
X036591Y027755D01*
X036570Y027709D01*
X036546Y027666D01*
X036518Y027624D01*
X036487Y027584D01*
X036453Y027547D01*
X036416Y027513D01*
X036376Y027482D01*
X036334Y027454D01*
X036291Y027430D01*
X036245Y027409D01*
X036198Y027391D01*
X036149Y027378D01*
X036100Y027368D01*
X036050Y027362D01*
X036000Y027360D01*
X035950Y027362D01*
X035900Y027368D01*
X035851Y027378D01*
X035802Y027391D01*
X035755Y027409D01*
X035709Y027430D01*
X035666Y027454D01*
X035624Y027482D01*
X035584Y027513D01*
X035547Y027547D01*
X035513Y027584D01*
X035482Y027624D01*
X035454Y027666D01*
X035430Y027709D01*
X035409Y027755D01*
X035391Y027802D01*
X035378Y027851D01*
X035368Y027900D01*
X035362Y027950D01*
X035360Y028000D01*
X022870Y034750D02*
X022872Y034800D01*
X022878Y034850D01*
X022888Y034899D01*
X022902Y034947D01*
X022919Y034994D01*
X022940Y035039D01*
X022965Y035083D01*
X022993Y035124D01*
X023025Y035163D01*
X023059Y035200D01*
X023096Y035234D01*
X023136Y035264D01*
X023178Y035291D01*
X023222Y035315D01*
X023268Y035336D01*
X023315Y035352D01*
X023363Y035365D01*
X023413Y035374D01*
X023462Y035379D01*
X023513Y035380D01*
X023563Y035377D01*
X023612Y035370D01*
X023661Y035359D01*
X023709Y035344D01*
X023755Y035326D01*
X023800Y035304D01*
X023843Y035278D01*
X023884Y035249D01*
X023923Y035217D01*
X023959Y035182D01*
X023991Y035144D01*
X024021Y035104D01*
X024048Y035061D01*
X024071Y035017D01*
X024090Y034971D01*
X024106Y034923D01*
X024118Y034874D01*
X024126Y034825D01*
X024130Y034775D01*
X024130Y034725D01*
X024126Y034675D01*
X024118Y034626D01*
X024106Y034577D01*
X024090Y034529D01*
X024071Y034483D01*
X024048Y034439D01*
X024021Y034396D01*
X023991Y034356D01*
X023959Y034318D01*
X023923Y034283D01*
X023884Y034251D01*
X023843Y034222D01*
X023800Y034196D01*
X023755Y034174D01*
X023709Y034156D01*
X023661Y034141D01*
X023612Y034130D01*
X023563Y034123D01*
X023513Y034120D01*
X023462Y034121D01*
X023413Y034126D01*
X023363Y034135D01*
X023315Y034148D01*
X023268Y034164D01*
X023222Y034185D01*
X023178Y034209D01*
X023136Y034236D01*
X023096Y034266D01*
X023059Y034300D01*
X023025Y034337D01*
X022993Y034376D01*
X022965Y034417D01*
X022940Y034461D01*
X022919Y034506D01*
X022902Y034553D01*
X022888Y034601D01*
X022878Y034650D01*
X022872Y034700D01*
X022870Y034750D01*
D11*
X024000Y031500D03*
X031500Y031500D03*
D12*
X032500Y031500D03*
X033500Y031500D03*
X034500Y031500D03*
X035500Y031500D03*
X035000Y030500D03*
X034000Y030500D03*
X033000Y030500D03*
X032000Y030500D03*
X028500Y030500D03*
X027500Y030500D03*
X026500Y030500D03*
X025500Y030500D03*
X024500Y030500D03*
X025000Y031500D03*
X026000Y031500D03*
X027000Y031500D03*
X028000Y031500D03*
X036000Y030500D03*
D13*
X036801Y029201D03*
X030699Y029201D03*
X029301Y029201D03*
X023199Y029201D03*
D14*
X024636Y026669D03*
X023636Y026071D03*
X027864Y026071D03*
X028864Y026669D03*
X031136Y026071D03*
X032136Y026669D03*
X035364Y026071D03*
X036364Y026669D03*
D15*
X035300Y033000D03*
X035000Y033000D03*
X034500Y033000D03*
X034200Y033000D03*
X032300Y033000D03*
X032000Y033000D03*
X031500Y033000D03*
X031200Y033000D03*
X027800Y033000D03*
X027500Y033000D03*
X027000Y033000D03*
X026700Y033000D03*
X024250Y033000D03*
X024250Y033300D03*
D16*
X028000Y034500D03*
X034000Y034500D03*
D17*
X035000Y034500D03*
X035000Y035500D03*
X034000Y035500D03*
X036000Y035500D03*
X037000Y035500D03*
X037000Y034500D03*
X036000Y034500D03*
X031000Y034500D03*
X030000Y034500D03*
X029000Y034500D03*
D18*
X023000Y036500D03*
D19*
X024000Y036500D03*
X025000Y036500D03*
X026000Y036500D03*
X027000Y036500D03*
X028000Y036500D03*
X029000Y036500D03*
X030000Y036500D03*
X031000Y036500D03*
X032000Y036500D03*
D20*
X033000Y035500D03*
X032500Y033000D03*
X031000Y033000D03*
X031000Y033500D03*
X030500Y034000D03*
X030500Y033000D03*
X030000Y032500D03*
X029500Y032000D03*
X030000Y031500D03*
X030500Y032000D03*
X031000Y032500D03*
X029500Y034000D03*
X028000Y033000D03*
X026500Y033000D03*
X026000Y033500D03*
X026500Y034000D03*
X025000Y033500D03*
X025000Y033000D03*
X025000Y032500D03*
X024500Y034000D03*
X025000Y034500D03*
X024000Y035500D03*
X023500Y036000D03*
X023000Y035500D03*
X025500Y036000D03*
X026000Y035500D03*
X027000Y035500D03*
X027500Y036000D03*
X028500Y036000D03*
X029000Y035500D03*
X030000Y035500D03*
X030500Y036000D03*
X034000Y033000D03*
X034000Y032500D03*
X035000Y033500D03*
X035500Y033000D03*
X023500Y033000D03*
X023000Y032500D03*
X023000Y033500D03*
D21*
X023513Y033047D02*
X023500Y033000D01*
X023513Y032953D01*
X023677Y033000D01*
X023513Y033047D01*
X023500Y033000D02*
X023677Y033000D01*
X024250Y033000D01*
X024823Y033000D01*
X024987Y033047D01*
X025000Y033000D01*
X024987Y032953D01*
X024823Y033000D01*
X025000Y033000D01*
X026500Y033000D02*
X026513Y032953D01*
X026677Y033000D01*
X026513Y033047D01*
X026500Y033000D01*
X026677Y033000D01*
X026700Y033000D01*
X027000Y033000D02*
X027170Y033170D01*
X027170Y034467D01*
X026767Y034870D01*
X025217Y034870D01*
X024420Y035667D01*
X024420Y036080D01*
X024000Y036500D01*
X024580Y036080D02*
X025000Y036500D01*
X024580Y036080D02*
X024580Y035733D01*
X025283Y035030D01*
X026833Y035030D01*
X027330Y034533D01*
X027330Y033170D01*
X027500Y033000D01*
X027500Y032970D01*
X027330Y032800D01*
X027330Y030670D01*
X027500Y030500D01*
X027000Y031500D02*
X027170Y031670D01*
X027170Y032800D01*
X027000Y032970D01*
X027000Y033000D01*
X027800Y033000D02*
X027823Y033000D01*
X027987Y033047D01*
X028000Y033000D01*
X027987Y032953D01*
X027823Y033000D01*
X028000Y033000D01*
X029817Y034920D02*
X031217Y034920D01*
X031670Y034467D01*
X031670Y033170D01*
X031500Y033000D01*
X031670Y032830D01*
X031670Y031670D01*
X031500Y031500D01*
X031830Y030670D02*
X032000Y030500D01*
X031830Y030670D02*
X031830Y032830D01*
X032000Y033000D01*
X031830Y033170D01*
X031830Y034533D01*
X031283Y035080D01*
X029883Y035080D01*
X029580Y035383D01*
X029580Y036080D01*
X030000Y036500D01*
X029420Y036080D02*
X029000Y036500D01*
X029420Y036080D02*
X029420Y035317D01*
X029817Y034920D01*
X031420Y035717D02*
X033267Y033870D01*
X033900Y033870D01*
X034610Y033160D01*
X034610Y033110D01*
X034500Y033000D01*
X034670Y032830D01*
X034670Y031670D01*
X034500Y031500D01*
X034830Y030670D02*
X035000Y030500D01*
X034830Y030670D02*
X034830Y032830D01*
X035000Y033000D01*
X033970Y034030D01*
X033333Y034030D01*
X031580Y035783D01*
X031580Y036080D01*
X032000Y036500D01*
X031420Y036080D02*
X031000Y036500D01*
X031420Y036080D02*
X031420Y035717D01*
X031013Y033047D02*
X031000Y033000D01*
X031013Y032953D01*
X031177Y033000D01*
X031013Y033047D01*
X031000Y033000D02*
X031177Y033000D01*
X031200Y033000D01*
X032300Y033000D02*
X032323Y033000D01*
X032487Y033047D01*
X032500Y033000D01*
X032487Y032953D01*
X032323Y033000D01*
X032500Y033000D01*
X034000Y033000D02*
X034013Y032953D01*
X034177Y033000D01*
X034013Y033047D01*
X034000Y033000D01*
X034177Y033000D01*
X034200Y033000D01*
X035300Y033000D02*
X035323Y033000D01*
X035487Y033047D01*
X035500Y033000D01*
X035487Y032953D01*
X035323Y033000D01*
X035500Y033000D01*
D22*
X035683Y033003D02*
X035775Y033003D01*
X035775Y033051D02*
X035683Y033051D01*
X035683Y033076D02*
X035576Y033183D01*
X035519Y033183D01*
X035504Y033192D01*
X035504Y033192D01*
X035474Y033183D01*
X035437Y033183D01*
X035435Y033185D01*
X035165Y033185D01*
X035150Y033170D01*
X035135Y033185D01*
X035006Y033185D01*
X034105Y034086D01*
X034026Y034165D01*
X033389Y034165D01*
X031715Y035839D01*
X031715Y036024D01*
X031787Y036096D01*
X031909Y036045D01*
X032091Y036045D01*
X032258Y036114D01*
X032377Y036233D01*
X032377Y035949D01*
X032449Y035877D01*
X037377Y035877D01*
X037377Y032004D01*
X037075Y032006D01*
X037075Y034183D01*
X037182Y034228D01*
X037272Y034318D01*
X037321Y034436D01*
X037321Y034564D01*
X037272Y034682D01*
X037182Y034772D01*
X037064Y034821D01*
X036936Y034821D01*
X036818Y034772D01*
X036728Y034682D01*
X036725Y034675D01*
X036725Y035048D01*
X036879Y035202D01*
X036936Y035179D01*
X037064Y035179D01*
X037182Y035228D01*
X037272Y035318D01*
X037321Y035436D01*
X037321Y035564D01*
X037272Y035682D01*
X037182Y035772D01*
X037064Y035821D01*
X036936Y035821D01*
X036818Y035772D01*
X036728Y035682D01*
X036679Y035564D01*
X036679Y035436D01*
X036702Y035379D01*
X036298Y035379D01*
X036321Y035436D01*
X036321Y035564D01*
X036272Y035682D01*
X036182Y035772D01*
X036064Y035821D01*
X035936Y035821D01*
X035818Y035772D01*
X035728Y035682D01*
X035679Y035564D01*
X035679Y035436D01*
X035728Y035318D01*
X035818Y035228D01*
X035936Y035179D01*
X036064Y035179D01*
X036121Y035202D01*
X036325Y034998D01*
X036325Y034352D01*
X036298Y034379D01*
X036321Y034436D01*
X036321Y034564D01*
X036272Y034682D01*
X036182Y034772D01*
X036064Y034821D01*
X035936Y034821D01*
X035818Y034772D01*
X035728Y034682D01*
X035679Y034564D01*
X035679Y034498D01*
X035575Y034602D01*
X035575Y035102D01*
X035298Y035379D01*
X035702Y035379D01*
X035682Y035428D02*
X035318Y035428D01*
X035321Y035436D02*
X035298Y035379D01*
X035321Y035436D02*
X035321Y035564D01*
X035272Y035682D01*
X035182Y035772D01*
X035064Y035821D01*
X034936Y035821D01*
X034818Y035772D01*
X034728Y035682D01*
X034679Y035564D01*
X034679Y035436D01*
X034728Y035318D01*
X034818Y035228D01*
X034936Y035179D01*
X035064Y035179D01*
X035121Y035202D01*
X035325Y034998D01*
X035325Y034625D01*
X035296Y034625D01*
X035272Y034682D01*
X035182Y034772D01*
X035064Y034821D01*
X034936Y034821D01*
X034818Y034772D01*
X034728Y034682D01*
X034679Y034564D01*
X034679Y034448D01*
X034475Y034652D01*
X034475Y035202D01*
X034402Y035275D01*
X034298Y035379D01*
X034702Y035379D01*
X034682Y035428D02*
X034318Y035428D01*
X034321Y035436D02*
X034321Y035564D01*
X034272Y035682D01*
X034182Y035772D01*
X034064Y035821D01*
X033936Y035821D01*
X033818Y035772D01*
X033728Y035682D01*
X033679Y035564D01*
X033679Y035436D01*
X033728Y035318D01*
X033818Y035228D01*
X033936Y035179D01*
X034064Y035179D01*
X034121Y035202D01*
X034225Y035098D01*
X034225Y034821D01*
X033729Y034821D01*
X033679Y034771D01*
X033679Y034229D01*
X033729Y034179D01*
X034271Y034179D01*
X034321Y034229D01*
X034321Y034252D01*
X034625Y033948D01*
X034698Y033875D01*
X035348Y033875D01*
X035775Y033448D01*
X035775Y032015D01*
X034965Y032021D01*
X034965Y032774D01*
X035006Y032815D01*
X035135Y032815D01*
X035150Y032830D01*
X035165Y032815D01*
X035435Y032815D01*
X035437Y032817D01*
X035474Y032817D01*
X035504Y032808D01*
X035519Y032817D01*
X035576Y032817D01*
X035683Y032924D01*
X035683Y033076D01*
X035660Y033100D02*
X035775Y033100D01*
X035775Y033148D02*
X035611Y033148D01*
X035504Y033192D02*
X035504Y033192D01*
X035775Y033197D02*
X034994Y033197D01*
X034946Y033245D02*
X035775Y033245D01*
X035775Y033294D02*
X034897Y033294D01*
X034849Y033342D02*
X035775Y033342D01*
X035775Y033391D02*
X034800Y033391D01*
X034752Y033439D02*
X035775Y033439D01*
X035736Y033488D02*
X034703Y033488D01*
X034655Y033536D02*
X035687Y033536D01*
X035639Y033585D02*
X034606Y033585D01*
X034558Y033633D02*
X035590Y033633D01*
X035542Y033682D02*
X034509Y033682D01*
X034461Y033730D02*
X035493Y033730D01*
X035445Y033779D02*
X034412Y033779D01*
X034364Y033827D02*
X035396Y033827D01*
X034698Y033876D02*
X034315Y033876D01*
X034267Y033924D02*
X034649Y033924D01*
X034601Y033973D02*
X034218Y033973D01*
X034170Y034021D02*
X034552Y034021D01*
X034504Y034070D02*
X034121Y034070D01*
X034073Y034118D02*
X034455Y034118D01*
X034407Y034167D02*
X033388Y034167D01*
X033339Y034215D02*
X033692Y034215D01*
X033679Y034264D02*
X033291Y034264D01*
X033242Y034312D02*
X033679Y034312D01*
X033679Y034361D02*
X033194Y034361D01*
X033145Y034409D02*
X033679Y034409D01*
X033679Y034458D02*
X033097Y034458D01*
X033048Y034506D02*
X033679Y034506D01*
X033679Y034555D02*
X033000Y034555D01*
X032951Y034603D02*
X033679Y034603D01*
X033679Y034652D02*
X032903Y034652D01*
X032854Y034700D02*
X033679Y034700D01*
X033679Y034749D02*
X032806Y034749D01*
X032757Y034797D02*
X033704Y034797D01*
X033921Y035185D02*
X032369Y035185D01*
X032418Y035137D02*
X034187Y035137D01*
X034225Y035088D02*
X032466Y035088D01*
X032515Y035040D02*
X034225Y035040D01*
X034225Y034991D02*
X032563Y034991D01*
X032612Y034943D02*
X034225Y034943D01*
X034225Y034894D02*
X032660Y034894D01*
X032709Y034846D02*
X034225Y034846D01*
X034475Y034846D02*
X035325Y034846D01*
X035325Y034894D02*
X034475Y034894D01*
X034475Y034943D02*
X035325Y034943D01*
X035325Y034991D02*
X034475Y034991D01*
X034475Y035040D02*
X035284Y035040D01*
X035235Y035088D02*
X034475Y035088D01*
X034475Y035137D02*
X035187Y035137D01*
X035138Y035185D02*
X035079Y035185D01*
X034921Y035185D02*
X034475Y035185D01*
X034443Y035234D02*
X034812Y035234D01*
X034764Y035282D02*
X034395Y035282D01*
X034346Y035331D02*
X034723Y035331D01*
X034679Y035476D02*
X034321Y035476D01*
X034321Y035436D02*
X034298Y035379D01*
X034321Y035525D02*
X034679Y035525D01*
X034683Y035573D02*
X034317Y035573D01*
X034297Y035622D02*
X034703Y035622D01*
X034723Y035670D02*
X034277Y035670D01*
X034236Y035719D02*
X034764Y035719D01*
X034813Y035767D02*
X034187Y035767D01*
X034078Y035816D02*
X034922Y035816D01*
X035078Y035816D02*
X035922Y035816D01*
X035813Y035767D02*
X035187Y035767D01*
X035236Y035719D02*
X035764Y035719D01*
X035723Y035670D02*
X035277Y035670D01*
X035297Y035622D02*
X035703Y035622D01*
X035683Y035573D02*
X035317Y035573D01*
X035321Y035525D02*
X035679Y035525D01*
X035679Y035476D02*
X035321Y035476D01*
X035346Y035331D02*
X035723Y035331D01*
X035764Y035282D02*
X035395Y035282D01*
X035443Y035234D02*
X035812Y035234D01*
X035921Y035185D02*
X035492Y035185D01*
X035540Y035137D02*
X036187Y035137D01*
X036138Y035185D02*
X036079Y035185D01*
X036235Y035088D02*
X035575Y035088D01*
X035575Y035040D02*
X036284Y035040D01*
X036325Y034991D02*
X035575Y034991D01*
X035575Y034943D02*
X036325Y034943D01*
X036325Y034894D02*
X035575Y034894D01*
X035575Y034846D02*
X036325Y034846D01*
X036325Y034797D02*
X036122Y034797D01*
X036206Y034749D02*
X036325Y034749D01*
X036325Y034700D02*
X036254Y034700D01*
X036285Y034652D02*
X036325Y034652D01*
X036325Y034603D02*
X036305Y034603D01*
X036321Y034555D02*
X036325Y034555D01*
X036321Y034506D02*
X036325Y034506D01*
X036321Y034458D02*
X036325Y034458D01*
X036325Y034409D02*
X036310Y034409D01*
X036316Y034361D02*
X036325Y034361D01*
X036725Y034700D02*
X036746Y034700D01*
X036725Y034749D02*
X036794Y034749D01*
X036725Y034797D02*
X036878Y034797D01*
X036725Y034846D02*
X037377Y034846D01*
X037377Y034894D02*
X036725Y034894D01*
X036725Y034943D02*
X037377Y034943D01*
X037377Y034991D02*
X036725Y034991D01*
X036725Y035040D02*
X037377Y035040D01*
X037377Y035088D02*
X036765Y035088D01*
X036813Y035137D02*
X037377Y035137D01*
X037377Y035185D02*
X037079Y035185D01*
X037188Y035234D02*
X037377Y035234D01*
X037377Y035282D02*
X037236Y035282D01*
X037277Y035331D02*
X037377Y035331D01*
X037377Y035379D02*
X037298Y035379D01*
X037318Y035428D02*
X037377Y035428D01*
X037377Y035476D02*
X037321Y035476D01*
X037321Y035525D02*
X037377Y035525D01*
X037377Y035573D02*
X037317Y035573D01*
X037297Y035622D02*
X037377Y035622D01*
X037377Y035670D02*
X037277Y035670D01*
X037236Y035719D02*
X037377Y035719D01*
X037377Y035767D02*
X037187Y035767D01*
X037078Y035816D02*
X037377Y035816D01*
X037377Y035864D02*
X031715Y035864D01*
X031715Y035913D02*
X032413Y035913D01*
X032377Y035961D02*
X031715Y035961D01*
X031715Y036010D02*
X032377Y036010D01*
X032377Y036058D02*
X032122Y036058D01*
X032239Y036107D02*
X032377Y036107D01*
X032377Y036155D02*
X032299Y036155D01*
X032347Y036204D02*
X032377Y036204D01*
X031878Y036058D02*
X031749Y036058D01*
X031738Y035816D02*
X033922Y035816D01*
X033813Y035767D02*
X031787Y035767D01*
X031835Y035719D02*
X033764Y035719D01*
X033723Y035670D02*
X031884Y035670D01*
X031933Y035622D02*
X033703Y035622D01*
X033683Y035573D02*
X031981Y035573D01*
X032030Y035525D02*
X033679Y035525D01*
X033679Y035476D02*
X032078Y035476D01*
X032127Y035428D02*
X033682Y035428D01*
X033702Y035379D02*
X032175Y035379D01*
X032224Y035331D02*
X033723Y035331D01*
X033764Y035282D02*
X032272Y035282D01*
X032321Y035234D02*
X033812Y035234D01*
X034079Y035185D02*
X034138Y035185D01*
X034475Y034797D02*
X034878Y034797D01*
X034794Y034749D02*
X034475Y034749D01*
X034475Y034700D02*
X034746Y034700D01*
X034715Y034652D02*
X034475Y034652D01*
X034524Y034603D02*
X034695Y034603D01*
X034679Y034555D02*
X034572Y034555D01*
X034621Y034506D02*
X034679Y034506D01*
X034679Y034458D02*
X034669Y034458D01*
X034358Y034215D02*
X034308Y034215D01*
X033844Y033735D02*
X033211Y033735D01*
X031285Y035661D01*
X031285Y036024D01*
X031213Y036096D01*
X031091Y036045D01*
X030909Y036045D01*
X030742Y036114D01*
X030614Y036242D01*
X030545Y036409D01*
X030545Y036591D01*
X030614Y036758D01*
X030733Y036877D01*
X030267Y036877D01*
X030386Y036758D01*
X030455Y036591D01*
X030455Y036409D01*
X030386Y036242D01*
X030258Y036114D01*
X030091Y036045D01*
X029909Y036045D01*
X029787Y036096D01*
X029715Y036024D01*
X029715Y035439D01*
X029939Y035215D01*
X031339Y035215D01*
X031886Y034668D01*
X031965Y034589D01*
X031965Y033226D01*
X032006Y033185D01*
X032135Y033185D01*
X032150Y033170D01*
X032165Y033185D01*
X032435Y033185D01*
X032437Y033183D01*
X032474Y033183D01*
X032504Y033192D01*
X032504Y033192D01*
X032519Y033183D01*
X032576Y033183D01*
X032683Y033076D01*
X032683Y032924D01*
X032576Y032817D01*
X032519Y032817D01*
X032504Y032808D01*
X032504Y032808D01*
X032504Y032808D01*
X032474Y032817D01*
X032437Y032817D01*
X032435Y032815D01*
X032165Y032815D01*
X032150Y032830D01*
X032135Y032815D01*
X032006Y032815D01*
X031965Y032774D01*
X031965Y032041D01*
X034535Y032023D01*
X034535Y032774D01*
X034494Y032815D01*
X034365Y032815D01*
X034350Y032830D01*
X034335Y032815D01*
X034065Y032815D01*
X034063Y032817D01*
X034026Y032817D01*
X034002Y032810D01*
X033996Y032808D01*
X033981Y032817D01*
X033924Y032817D01*
X033817Y032924D01*
X033817Y033076D01*
X033924Y033183D01*
X033981Y033183D01*
X033996Y033192D01*
X033996Y033192D01*
X033996Y033192D01*
X034026Y033183D01*
X034063Y033183D01*
X034065Y033185D01*
X034335Y033185D01*
X034350Y033170D01*
X034365Y033185D01*
X034394Y033185D01*
X033844Y033735D01*
X033849Y033730D02*
X031965Y033730D01*
X031965Y033682D02*
X033898Y033682D01*
X033946Y033633D02*
X031965Y033633D01*
X031965Y033585D02*
X033995Y033585D01*
X034043Y033536D02*
X031965Y033536D01*
X031965Y033488D02*
X034092Y033488D01*
X034140Y033439D02*
X031965Y033439D01*
X031965Y033391D02*
X034189Y033391D01*
X034237Y033342D02*
X031965Y033342D01*
X031965Y033294D02*
X034286Y033294D01*
X034334Y033245D02*
X031965Y033245D01*
X031994Y033197D02*
X034383Y033197D01*
X034501Y032809D02*
X033997Y032809D01*
X033996Y032809D02*
X032504Y032809D01*
X032503Y032809D02*
X031999Y032809D01*
X031965Y032760D02*
X034535Y032760D01*
X034535Y032712D02*
X031965Y032712D01*
X031965Y032663D02*
X034535Y032663D01*
X034535Y032615D02*
X031965Y032615D01*
X031965Y032566D02*
X034535Y032566D01*
X034535Y032518D02*
X031965Y032518D01*
X031965Y032469D02*
X034535Y032469D01*
X034535Y032421D02*
X031965Y032421D01*
X031965Y032372D02*
X034535Y032372D01*
X034535Y032324D02*
X031965Y032324D01*
X031965Y032275D02*
X034535Y032275D01*
X034535Y032227D02*
X031965Y032227D01*
X031965Y032178D02*
X034535Y032178D01*
X034535Y032130D02*
X031965Y032130D01*
X031965Y032081D02*
X034535Y032081D01*
X034535Y032033D02*
X033185Y032033D01*
X032616Y032857D02*
X033884Y032857D01*
X033835Y032906D02*
X032665Y032906D01*
X032683Y032954D02*
X033817Y032954D01*
X033817Y033003D02*
X032683Y033003D01*
X032683Y033051D02*
X033817Y033051D01*
X033840Y033100D02*
X032660Y033100D01*
X032611Y033148D02*
X033889Y033148D01*
X033167Y033779D02*
X031965Y033779D01*
X031965Y033827D02*
X033119Y033827D01*
X033070Y033876D02*
X031965Y033876D01*
X031965Y033924D02*
X033022Y033924D01*
X032973Y033973D02*
X031965Y033973D01*
X031965Y034021D02*
X032925Y034021D01*
X032876Y034070D02*
X031965Y034070D01*
X031965Y034118D02*
X032828Y034118D01*
X032779Y034167D02*
X031965Y034167D01*
X031965Y034215D02*
X032731Y034215D01*
X032682Y034264D02*
X031965Y034264D01*
X031965Y034312D02*
X032634Y034312D01*
X032585Y034361D02*
X031965Y034361D01*
X031965Y034409D02*
X032537Y034409D01*
X032488Y034458D02*
X031965Y034458D01*
X031965Y034506D02*
X032440Y034506D01*
X032391Y034555D02*
X031965Y034555D01*
X031951Y034603D02*
X032343Y034603D01*
X032294Y034652D02*
X031903Y034652D01*
X031854Y034700D02*
X032246Y034700D01*
X032197Y034749D02*
X031806Y034749D01*
X031757Y034797D02*
X032149Y034797D01*
X032100Y034846D02*
X031709Y034846D01*
X031660Y034894D02*
X032052Y034894D01*
X032003Y034943D02*
X031612Y034943D01*
X031563Y034991D02*
X031955Y034991D01*
X031906Y035040D02*
X031515Y035040D01*
X031466Y035088D02*
X031858Y035088D01*
X031809Y035137D02*
X031418Y035137D01*
X031369Y035185D02*
X031761Y035185D01*
X031712Y035234D02*
X029921Y035234D01*
X029872Y035282D02*
X031664Y035282D01*
X031615Y035331D02*
X029824Y035331D01*
X029775Y035379D02*
X031567Y035379D01*
X031518Y035428D02*
X029727Y035428D01*
X029715Y035476D02*
X031470Y035476D01*
X031421Y035525D02*
X029715Y035525D01*
X029715Y035573D02*
X031373Y035573D01*
X031324Y035622D02*
X029715Y035622D01*
X029715Y035670D02*
X031285Y035670D01*
X031285Y035719D02*
X029715Y035719D01*
X029715Y035767D02*
X031285Y035767D01*
X031285Y035816D02*
X029715Y035816D01*
X029715Y035864D02*
X031285Y035864D01*
X031285Y035913D02*
X029715Y035913D01*
X029715Y035961D02*
X031285Y035961D01*
X031285Y036010D02*
X029715Y036010D01*
X029749Y036058D02*
X029878Y036058D01*
X030122Y036058D02*
X030878Y036058D01*
X030761Y036107D02*
X030239Y036107D01*
X030299Y036155D02*
X030701Y036155D01*
X030653Y036204D02*
X030347Y036204D01*
X030390Y036252D02*
X030610Y036252D01*
X030590Y036301D02*
X030410Y036301D01*
X030430Y036349D02*
X030570Y036349D01*
X030550Y036398D02*
X030450Y036398D01*
X030455Y036446D02*
X030545Y036446D01*
X030545Y036495D02*
X030455Y036495D01*
X030455Y036543D02*
X030545Y036543D01*
X030545Y036592D02*
X030455Y036592D01*
X030434Y036640D02*
X030566Y036640D01*
X030586Y036689D02*
X030414Y036689D01*
X030394Y036737D02*
X030606Y036737D01*
X030642Y036786D02*
X030358Y036786D01*
X030309Y036834D02*
X030691Y036834D01*
X031122Y036058D02*
X031251Y036058D01*
X030774Y034785D02*
X030694Y034705D01*
X030639Y034572D01*
X030639Y034428D01*
X030694Y034295D01*
X030795Y034194D01*
X030928Y034139D01*
X031072Y034139D01*
X031205Y034194D01*
X031306Y034295D01*
X031361Y034428D01*
X031361Y034572D01*
X031352Y034594D01*
X031535Y034411D01*
X031535Y033226D01*
X031494Y033185D01*
X031365Y033185D01*
X031350Y033170D01*
X031335Y033185D01*
X031065Y033185D01*
X031063Y033183D01*
X031026Y033183D01*
X030996Y033192D01*
X030981Y033183D01*
X030924Y033183D01*
X030817Y033076D01*
X030817Y032924D01*
X030924Y032817D01*
X030981Y032817D01*
X030996Y032808D01*
X031002Y032810D01*
X031026Y032817D01*
X031063Y032817D01*
X031065Y032815D01*
X031335Y032815D01*
X031350Y032830D01*
X031365Y032815D01*
X031494Y032815D01*
X031535Y032774D01*
X031535Y032044D01*
X030600Y032050D01*
X030600Y030850D01*
X029400Y030850D01*
X029400Y032050D01*
X027465Y032036D01*
X027465Y032744D01*
X027536Y032815D01*
X027635Y032815D01*
X027650Y032830D01*
X027665Y032815D01*
X027935Y032815D01*
X027937Y032817D01*
X027974Y032817D01*
X028004Y032808D01*
X028019Y032817D01*
X028076Y032817D01*
X028183Y032924D01*
X028183Y033076D01*
X028076Y033183D01*
X028019Y033183D01*
X028004Y033192D01*
X028004Y033192D01*
X027974Y033183D01*
X027937Y033183D01*
X027935Y033185D01*
X027665Y033185D01*
X027650Y033170D01*
X027635Y033185D01*
X027506Y033185D01*
X027465Y033226D01*
X027465Y034589D01*
X027386Y034668D01*
X026889Y035165D01*
X025339Y035165D01*
X024715Y035789D01*
X024715Y036024D01*
X024787Y036096D01*
X024909Y036045D01*
X025091Y036045D01*
X025258Y036114D01*
X025386Y036242D01*
X025455Y036409D01*
X025455Y036591D01*
X025386Y036758D01*
X025267Y036877D01*
X025733Y036877D01*
X025614Y036758D01*
X025545Y036591D01*
X025545Y036409D01*
X025614Y036242D01*
X025742Y036114D01*
X025909Y036045D01*
X026091Y036045D01*
X026258Y036114D01*
X026386Y036242D01*
X026455Y036409D01*
X026455Y036591D01*
X026386Y036758D01*
X026267Y036877D01*
X026733Y036877D01*
X026614Y036758D01*
X026545Y036591D01*
X026545Y036409D01*
X026614Y036242D01*
X026742Y036114D01*
X026909Y036045D01*
X027091Y036045D01*
X027258Y036114D01*
X027386Y036242D01*
X027455Y036409D01*
X027455Y036591D01*
X027386Y036758D01*
X027267Y036877D01*
X027733Y036877D01*
X027614Y036758D01*
X027545Y036591D01*
X027545Y036409D01*
X027614Y036242D01*
X027742Y036114D01*
X027909Y036045D01*
X028091Y036045D01*
X028258Y036114D01*
X028386Y036242D01*
X028455Y036409D01*
X028455Y036591D01*
X028386Y036758D01*
X028267Y036877D01*
X028733Y036877D01*
X028614Y036758D01*
X028545Y036591D01*
X028545Y036409D01*
X028614Y036242D01*
X028742Y036114D01*
X028909Y036045D01*
X029091Y036045D01*
X029213Y036096D01*
X029285Y036024D01*
X029285Y035261D01*
X029682Y034864D01*
X029761Y034785D01*
X029774Y034785D01*
X029694Y034705D01*
X029639Y034572D01*
X029639Y034428D01*
X029694Y034295D01*
X029795Y034194D01*
X029928Y034139D01*
X030072Y034139D01*
X030205Y034194D01*
X030306Y034295D01*
X030361Y034428D01*
X030361Y034572D01*
X030306Y034705D01*
X030226Y034785D01*
X030774Y034785D01*
X030738Y034749D02*
X030262Y034749D01*
X030308Y034700D02*
X030692Y034700D01*
X030672Y034652D02*
X030328Y034652D01*
X030348Y034603D02*
X030652Y034603D01*
X030639Y034555D02*
X030361Y034555D01*
X030361Y034506D02*
X030639Y034506D01*
X030639Y034458D02*
X030361Y034458D01*
X030353Y034409D02*
X030647Y034409D01*
X030667Y034361D02*
X030333Y034361D01*
X030313Y034312D02*
X030687Y034312D01*
X030726Y034264D02*
X030274Y034264D01*
X030226Y034215D02*
X030774Y034215D01*
X030861Y034167D02*
X030139Y034167D01*
X029861Y034167D02*
X029139Y034167D01*
X029205Y034194D02*
X029306Y034295D01*
X029361Y034428D01*
X029361Y034572D01*
X029306Y034705D01*
X029205Y034806D01*
X029072Y034861D01*
X028928Y034861D01*
X028795Y034806D01*
X028694Y034705D01*
X028639Y034572D01*
X028639Y034428D01*
X028694Y034295D01*
X028795Y034194D01*
X028928Y034139D01*
X029072Y034139D01*
X029205Y034194D01*
X029226Y034215D02*
X029774Y034215D01*
X029726Y034264D02*
X029274Y034264D01*
X029313Y034312D02*
X029687Y034312D01*
X029667Y034361D02*
X029333Y034361D01*
X029353Y034409D02*
X029647Y034409D01*
X029639Y034458D02*
X029361Y034458D01*
X029361Y034506D02*
X029639Y034506D01*
X029639Y034555D02*
X029361Y034555D01*
X029348Y034603D02*
X029652Y034603D01*
X029672Y034652D02*
X029328Y034652D01*
X029308Y034700D02*
X029692Y034700D01*
X029738Y034749D02*
X029262Y034749D01*
X029214Y034797D02*
X029749Y034797D01*
X029700Y034846D02*
X029110Y034846D01*
X028890Y034846D02*
X028304Y034846D01*
X028288Y034861D02*
X027712Y034861D01*
X027639Y034788D01*
X027639Y034212D01*
X027712Y034139D01*
X028288Y034139D01*
X028361Y034212D01*
X028361Y034788D01*
X028288Y034861D01*
X028352Y034797D02*
X028786Y034797D01*
X028738Y034749D02*
X028361Y034749D01*
X028361Y034700D02*
X028692Y034700D01*
X028672Y034652D02*
X028361Y034652D01*
X028361Y034603D02*
X028652Y034603D01*
X028639Y034555D02*
X028361Y034555D01*
X028361Y034506D02*
X028639Y034506D01*
X028639Y034458D02*
X028361Y034458D01*
X028361Y034409D02*
X028647Y034409D01*
X028667Y034361D02*
X028361Y034361D01*
X028361Y034312D02*
X028687Y034312D01*
X028726Y034264D02*
X028361Y034264D01*
X028361Y034215D02*
X028774Y034215D01*
X028861Y034167D02*
X028316Y034167D01*
X027684Y034167D02*
X027465Y034167D01*
X027465Y034215D02*
X027639Y034215D01*
X027639Y034264D02*
X027465Y034264D01*
X027465Y034312D02*
X027639Y034312D01*
X027639Y034361D02*
X027465Y034361D01*
X027465Y034409D02*
X027639Y034409D01*
X027639Y034458D02*
X027465Y034458D01*
X027465Y034506D02*
X027639Y034506D01*
X027639Y034555D02*
X027465Y034555D01*
X027451Y034603D02*
X027639Y034603D01*
X027639Y034652D02*
X027403Y034652D01*
X027354Y034700D02*
X027639Y034700D01*
X027639Y034749D02*
X027306Y034749D01*
X027257Y034797D02*
X027648Y034797D01*
X027696Y034846D02*
X027209Y034846D01*
X027160Y034894D02*
X029652Y034894D01*
X029603Y034943D02*
X027112Y034943D01*
X027063Y034991D02*
X029555Y034991D01*
X029506Y035040D02*
X027015Y035040D01*
X026966Y035088D02*
X029458Y035088D01*
X029409Y035137D02*
X026918Y035137D01*
X026711Y034735D02*
X027035Y034411D01*
X027035Y033226D01*
X026994Y033185D01*
X026865Y033185D01*
X026850Y033170D01*
X026835Y033185D01*
X026565Y033185D01*
X026563Y033183D01*
X026526Y033183D01*
X026496Y033192D01*
X026481Y033183D01*
X026424Y033183D01*
X026317Y033076D01*
X026317Y032924D01*
X026424Y032817D01*
X026481Y032817D01*
X026496Y032808D01*
X026502Y032810D01*
X026526Y032817D01*
X026563Y032817D01*
X026565Y032815D01*
X026835Y032815D01*
X026850Y032830D01*
X026865Y032815D01*
X026964Y032815D01*
X027035Y032744D01*
X027035Y032033D01*
X022623Y032001D01*
X022623Y036877D01*
X023733Y036877D01*
X023614Y036758D01*
X023545Y036591D01*
X023545Y036409D01*
X023614Y036242D01*
X023742Y036114D01*
X023909Y036045D01*
X024091Y036045D01*
X024213Y036096D01*
X024285Y036024D01*
X024285Y035611D01*
X024364Y035532D01*
X025082Y034814D01*
X025161Y034735D01*
X026711Y034735D01*
X026746Y034700D02*
X024253Y034700D01*
X024253Y034652D02*
X026794Y034652D01*
X026843Y034603D02*
X024253Y034603D01*
X024253Y034600D02*
X024139Y034323D01*
X023927Y034111D01*
X023650Y033997D01*
X023350Y033997D01*
X023073Y034111D01*
X022861Y034323D01*
X022747Y034600D01*
X022747Y034900D01*
X022861Y035177D01*
X023073Y035389D01*
X023350Y035503D01*
X023650Y035503D01*
X023927Y035389D01*
X024139Y035177D01*
X024253Y034900D01*
X024253Y034600D01*
X024234Y034555D02*
X026891Y034555D01*
X026940Y034506D02*
X024214Y034506D01*
X024194Y034458D02*
X026988Y034458D01*
X027035Y034409D02*
X024174Y034409D01*
X024154Y034361D02*
X027035Y034361D01*
X027035Y034312D02*
X024127Y034312D01*
X024079Y034264D02*
X027035Y034264D01*
X027035Y034215D02*
X024030Y034215D01*
X023982Y034167D02*
X027035Y034167D01*
X027035Y034118D02*
X023933Y034118D01*
X023826Y034070D02*
X027035Y034070D01*
X027035Y034021D02*
X023709Y034021D01*
X023291Y034021D02*
X022623Y034021D01*
X022623Y033973D02*
X027035Y033973D01*
X027035Y033924D02*
X022623Y033924D01*
X022623Y033876D02*
X027035Y033876D01*
X027035Y033827D02*
X022623Y033827D01*
X022623Y033779D02*
X027035Y033779D01*
X027035Y033730D02*
X022623Y033730D01*
X022623Y033682D02*
X027035Y033682D01*
X027035Y033633D02*
X022623Y033633D01*
X022623Y033585D02*
X027035Y033585D01*
X027035Y033536D02*
X022623Y033536D01*
X022623Y033488D02*
X027035Y033488D01*
X027035Y033439D02*
X022623Y033439D01*
X022623Y033391D02*
X027035Y033391D01*
X027035Y033342D02*
X022623Y033342D01*
X022623Y033294D02*
X027035Y033294D01*
X027035Y033245D02*
X022623Y033245D01*
X022623Y033197D02*
X027006Y033197D01*
X026971Y032809D02*
X026497Y032809D01*
X026496Y032809D02*
X025004Y032809D01*
X025004Y032808D02*
X025019Y032817D01*
X025076Y032817D01*
X025183Y032924D01*
X025183Y033076D01*
X025076Y033183D01*
X025019Y033183D01*
X025004Y033192D01*
X025004Y033192D01*
X024974Y033183D01*
X024924Y033183D01*
X024904Y033163D01*
X024823Y033140D01*
X024806Y033145D01*
X024788Y033135D01*
X024435Y033135D01*
X024435Y033135D01*
X024385Y033185D01*
X024115Y033185D01*
X024065Y033135D01*
X023712Y033135D01*
X023694Y033145D01*
X023677Y033140D01*
X023596Y033163D01*
X023576Y033183D01*
X023526Y033183D01*
X023496Y033192D01*
X023481Y033183D01*
X023424Y033183D01*
X023317Y033076D01*
X023317Y032924D01*
X023424Y032817D01*
X023481Y032817D01*
X023496Y032808D01*
X023502Y032810D01*
X023526Y032817D01*
X023576Y032817D01*
X023596Y032837D01*
X023677Y032860D01*
X023694Y032855D01*
X023712Y032865D01*
X024065Y032865D01*
X024065Y032865D01*
X024115Y032815D01*
X024385Y032815D01*
X024435Y032865D01*
X024788Y032865D01*
X024806Y032855D01*
X024823Y032860D01*
X024904Y032837D01*
X024924Y032817D01*
X024974Y032817D01*
X025004Y032808D01*
X025004Y032808D01*
X025004Y032808D01*
X025003Y032809D02*
X023497Y032809D01*
X023496Y032809D02*
X022623Y032809D01*
X022623Y032857D02*
X023384Y032857D01*
X023335Y032906D02*
X022623Y032906D01*
X022623Y032954D02*
X023317Y032954D01*
X023317Y033003D02*
X022623Y033003D01*
X022623Y033051D02*
X023317Y033051D01*
X023340Y033100D02*
X022623Y033100D01*
X022623Y033148D02*
X023389Y033148D01*
X023496Y033192D02*
X023496Y033192D01*
X023496Y033192D01*
X023650Y033148D02*
X024078Y033148D01*
X024065Y033135D02*
X024065Y033135D01*
X024073Y032857D02*
X023698Y032857D01*
X023686Y032857D02*
X023668Y032857D01*
X024427Y032857D02*
X024802Y032857D01*
X024814Y032857D02*
X024832Y032857D01*
X025116Y032857D02*
X026384Y032857D01*
X026335Y032906D02*
X025165Y032906D01*
X025183Y032954D02*
X026317Y032954D01*
X026317Y033003D02*
X025183Y033003D01*
X025183Y033051D02*
X026317Y033051D01*
X026340Y033100D02*
X025160Y033100D01*
X025111Y033148D02*
X026389Y033148D01*
X026496Y033192D02*
X026496Y033192D01*
X026496Y033192D01*
X027019Y032760D02*
X022623Y032760D01*
X022623Y032712D02*
X027035Y032712D01*
X027035Y032663D02*
X022623Y032663D01*
X022623Y032615D02*
X027035Y032615D01*
X027035Y032566D02*
X022623Y032566D01*
X022623Y032518D02*
X027035Y032518D01*
X027035Y032469D02*
X022623Y032469D01*
X022623Y032421D02*
X027035Y032421D01*
X027035Y032372D02*
X022623Y032372D01*
X022623Y032324D02*
X027035Y032324D01*
X027035Y032275D02*
X022623Y032275D01*
X022623Y032227D02*
X027035Y032227D01*
X027035Y032178D02*
X022623Y032178D01*
X022623Y032130D02*
X027035Y032130D01*
X027035Y032081D02*
X022623Y032081D01*
X022623Y032033D02*
X026990Y032033D01*
X027465Y032081D02*
X031535Y032081D01*
X031535Y032130D02*
X027465Y032130D01*
X027465Y032178D02*
X031535Y032178D01*
X031535Y032227D02*
X027465Y032227D01*
X027465Y032275D02*
X031535Y032275D01*
X031535Y032324D02*
X027465Y032324D01*
X027465Y032372D02*
X031535Y032372D01*
X031535Y032421D02*
X027465Y032421D01*
X027465Y032469D02*
X031535Y032469D01*
X031535Y032518D02*
X027465Y032518D01*
X027465Y032566D02*
X031535Y032566D01*
X031535Y032615D02*
X027465Y032615D01*
X027465Y032663D02*
X031535Y032663D01*
X031535Y032712D02*
X027465Y032712D01*
X027481Y032760D02*
X031535Y032760D01*
X031501Y032809D02*
X030997Y032809D01*
X030996Y032809D02*
X028004Y032809D01*
X028004Y032808D02*
X028004Y032808D01*
X028004Y032808D01*
X028003Y032809D02*
X027529Y032809D01*
X027494Y033197D02*
X031506Y033197D01*
X031535Y033245D02*
X027465Y033245D01*
X027465Y033294D02*
X031535Y033294D01*
X031535Y033342D02*
X027465Y033342D01*
X027465Y033391D02*
X031535Y033391D01*
X031535Y033439D02*
X027465Y033439D01*
X027465Y033488D02*
X031535Y033488D01*
X031535Y033536D02*
X027465Y033536D01*
X027465Y033585D02*
X031535Y033585D01*
X031535Y033633D02*
X027465Y033633D01*
X027465Y033682D02*
X031535Y033682D01*
X031535Y033730D02*
X027465Y033730D01*
X027465Y033779D02*
X031535Y033779D01*
X031535Y033827D02*
X027465Y033827D01*
X027465Y033876D02*
X031535Y033876D01*
X031535Y033924D02*
X027465Y033924D01*
X027465Y033973D02*
X031535Y033973D01*
X031535Y034021D02*
X027465Y034021D01*
X027465Y034070D02*
X031535Y034070D01*
X031535Y034118D02*
X027465Y034118D01*
X028004Y033192D02*
X028004Y033192D01*
X028111Y033148D02*
X030889Y033148D01*
X030840Y033100D02*
X028160Y033100D01*
X028183Y033051D02*
X030817Y033051D01*
X030817Y033003D02*
X028183Y033003D01*
X028183Y032954D02*
X030817Y032954D01*
X030835Y032906D02*
X028165Y032906D01*
X028116Y032857D02*
X030884Y032857D01*
X030996Y033192D02*
X030996Y033192D01*
X030996Y033192D01*
X031139Y034167D02*
X031535Y034167D01*
X031535Y034215D02*
X031226Y034215D01*
X031274Y034264D02*
X031535Y034264D01*
X031535Y034312D02*
X031313Y034312D01*
X031333Y034361D02*
X031535Y034361D01*
X031535Y034409D02*
X031353Y034409D01*
X031361Y034458D02*
X031488Y034458D01*
X031440Y034506D02*
X031361Y034506D01*
X031361Y034555D02*
X031391Y034555D01*
X032504Y033192D02*
X032504Y033192D01*
X030600Y032033D02*
X029400Y032033D01*
X029400Y031984D02*
X030600Y031984D01*
X030600Y031936D02*
X029400Y031936D01*
X029400Y031887D02*
X030600Y031887D01*
X030600Y031839D02*
X029400Y031839D01*
X029400Y031790D02*
X030600Y031790D01*
X030600Y031742D02*
X029400Y031742D01*
X029400Y031693D02*
X030600Y031693D01*
X030600Y031645D02*
X029400Y031645D01*
X029400Y031596D02*
X030600Y031596D01*
X030600Y031548D02*
X029400Y031548D01*
X029400Y031499D02*
X030600Y031499D01*
X030600Y031451D02*
X029400Y031451D01*
X029400Y031402D02*
X030600Y031402D01*
X030600Y031354D02*
X029400Y031354D01*
X029400Y031305D02*
X030600Y031305D01*
X030600Y031257D02*
X029400Y031257D01*
X029400Y031208D02*
X030600Y031208D01*
X030600Y031160D02*
X029400Y031160D01*
X029400Y031111D02*
X030600Y031111D01*
X030600Y031063D02*
X029400Y031063D01*
X029400Y031014D02*
X030600Y031014D01*
X030600Y030966D02*
X029400Y030966D01*
X029400Y030917D02*
X030600Y030917D01*
X030600Y030869D02*
X029400Y030869D01*
X025004Y033192D02*
X025004Y033192D01*
X024850Y033148D02*
X024422Y033148D01*
X024435Y032865D02*
X024435Y032865D01*
X023174Y034070D02*
X022623Y034070D01*
X022623Y034118D02*
X023067Y034118D01*
X023018Y034167D02*
X022623Y034167D01*
X022623Y034215D02*
X022970Y034215D01*
X022921Y034264D02*
X022623Y034264D01*
X022623Y034312D02*
X022873Y034312D01*
X022846Y034361D02*
X022623Y034361D01*
X022623Y034409D02*
X022826Y034409D01*
X022806Y034458D02*
X022623Y034458D01*
X022623Y034506D02*
X022786Y034506D01*
X022766Y034555D02*
X022623Y034555D01*
X022623Y034603D02*
X022747Y034603D01*
X022747Y034652D02*
X022623Y034652D01*
X022623Y034700D02*
X022747Y034700D01*
X022747Y034749D02*
X022623Y034749D01*
X022623Y034797D02*
X022747Y034797D01*
X022747Y034846D02*
X022623Y034846D01*
X022623Y034894D02*
X022747Y034894D01*
X022764Y034943D02*
X022623Y034943D01*
X022623Y034991D02*
X022784Y034991D01*
X022805Y035040D02*
X022623Y035040D01*
X022623Y035088D02*
X022825Y035088D01*
X022845Y035137D02*
X022623Y035137D01*
X022623Y035185D02*
X022870Y035185D01*
X022918Y035234D02*
X022623Y035234D01*
X022623Y035282D02*
X022967Y035282D01*
X023015Y035331D02*
X022623Y035331D01*
X022623Y035379D02*
X023064Y035379D01*
X023167Y035428D02*
X022623Y035428D01*
X022623Y035476D02*
X023284Y035476D01*
X023716Y035476D02*
X024420Y035476D01*
X024468Y035428D02*
X023833Y035428D01*
X023936Y035379D02*
X024517Y035379D01*
X024565Y035331D02*
X023985Y035331D01*
X024033Y035282D02*
X024614Y035282D01*
X024662Y035234D02*
X024082Y035234D01*
X024130Y035185D02*
X024711Y035185D01*
X024759Y035137D02*
X024155Y035137D01*
X024175Y035088D02*
X024808Y035088D01*
X024856Y035040D02*
X024195Y035040D01*
X024216Y034991D02*
X024905Y034991D01*
X024953Y034943D02*
X024236Y034943D01*
X024253Y034894D02*
X025002Y034894D01*
X025050Y034846D02*
X024253Y034846D01*
X024253Y034797D02*
X025099Y034797D01*
X025082Y034814D02*
X025082Y034814D01*
X025147Y034749D02*
X024253Y034749D01*
X024371Y035525D02*
X022623Y035525D01*
X022623Y035573D02*
X024323Y035573D01*
X024364Y035532D02*
X024364Y035532D01*
X024285Y035622D02*
X022623Y035622D01*
X022623Y035670D02*
X024285Y035670D01*
X024285Y035719D02*
X022623Y035719D01*
X022623Y035767D02*
X024285Y035767D01*
X024285Y035816D02*
X022623Y035816D01*
X022623Y035864D02*
X024285Y035864D01*
X024285Y035913D02*
X022623Y035913D01*
X022623Y035961D02*
X024285Y035961D01*
X024285Y036010D02*
X022623Y036010D01*
X022623Y036058D02*
X023878Y036058D01*
X023761Y036107D02*
X022623Y036107D01*
X022623Y036155D02*
X023701Y036155D01*
X023653Y036204D02*
X022623Y036204D01*
X022623Y036252D02*
X023610Y036252D01*
X023590Y036301D02*
X022623Y036301D01*
X022623Y036349D02*
X023570Y036349D01*
X023550Y036398D02*
X022623Y036398D01*
X022623Y036446D02*
X023545Y036446D01*
X023545Y036495D02*
X022623Y036495D01*
X022623Y036543D02*
X023545Y036543D01*
X023545Y036592D02*
X022623Y036592D01*
X022623Y036640D02*
X023566Y036640D01*
X023586Y036689D02*
X022623Y036689D01*
X022623Y036737D02*
X023606Y036737D01*
X023642Y036786D02*
X022623Y036786D01*
X022623Y036834D02*
X023691Y036834D01*
X024122Y036058D02*
X024251Y036058D01*
X024715Y036010D02*
X029285Y036010D01*
X029285Y035961D02*
X024715Y035961D01*
X024715Y035913D02*
X029285Y035913D01*
X029285Y035864D02*
X024715Y035864D01*
X024715Y035816D02*
X029285Y035816D01*
X029285Y035767D02*
X024737Y035767D01*
X024785Y035719D02*
X029285Y035719D01*
X029285Y035670D02*
X024834Y035670D01*
X024883Y035622D02*
X029285Y035622D01*
X029285Y035573D02*
X024931Y035573D01*
X024980Y035525D02*
X029285Y035525D01*
X029285Y035476D02*
X025028Y035476D01*
X025077Y035428D02*
X029285Y035428D01*
X029285Y035379D02*
X025125Y035379D01*
X025174Y035331D02*
X029285Y035331D01*
X029285Y035282D02*
X025222Y035282D01*
X025271Y035234D02*
X029312Y035234D01*
X029361Y035185D02*
X025319Y035185D01*
X025122Y036058D02*
X025878Y036058D01*
X025761Y036107D02*
X025239Y036107D01*
X025299Y036155D02*
X025701Y036155D01*
X025653Y036204D02*
X025347Y036204D01*
X025390Y036252D02*
X025610Y036252D01*
X025590Y036301D02*
X025410Y036301D01*
X025430Y036349D02*
X025570Y036349D01*
X025550Y036398D02*
X025450Y036398D01*
X025455Y036446D02*
X025545Y036446D01*
X025545Y036495D02*
X025455Y036495D01*
X025455Y036543D02*
X025545Y036543D01*
X025545Y036592D02*
X025455Y036592D01*
X025434Y036640D02*
X025566Y036640D01*
X025586Y036689D02*
X025414Y036689D01*
X025394Y036737D02*
X025606Y036737D01*
X025642Y036786D02*
X025358Y036786D01*
X025309Y036834D02*
X025691Y036834D01*
X026309Y036834D02*
X026691Y036834D01*
X026642Y036786D02*
X026358Y036786D01*
X026394Y036737D02*
X026606Y036737D01*
X026586Y036689D02*
X026414Y036689D01*
X026434Y036640D02*
X026566Y036640D01*
X026545Y036592D02*
X026455Y036592D01*
X026455Y036543D02*
X026545Y036543D01*
X026545Y036495D02*
X026455Y036495D01*
X026455Y036446D02*
X026545Y036446D01*
X026550Y036398D02*
X026450Y036398D01*
X026430Y036349D02*
X026570Y036349D01*
X026590Y036301D02*
X026410Y036301D01*
X026390Y036252D02*
X026610Y036252D01*
X026653Y036204D02*
X026347Y036204D01*
X026299Y036155D02*
X026701Y036155D01*
X026761Y036107D02*
X026239Y036107D01*
X026122Y036058D02*
X026878Y036058D01*
X027122Y036058D02*
X027878Y036058D01*
X027761Y036107D02*
X027239Y036107D01*
X027299Y036155D02*
X027701Y036155D01*
X027653Y036204D02*
X027347Y036204D01*
X027390Y036252D02*
X027610Y036252D01*
X027590Y036301D02*
X027410Y036301D01*
X027430Y036349D02*
X027570Y036349D01*
X027550Y036398D02*
X027450Y036398D01*
X027455Y036446D02*
X027545Y036446D01*
X027545Y036495D02*
X027455Y036495D01*
X027455Y036543D02*
X027545Y036543D01*
X027545Y036592D02*
X027455Y036592D01*
X027434Y036640D02*
X027566Y036640D01*
X027586Y036689D02*
X027414Y036689D01*
X027394Y036737D02*
X027606Y036737D01*
X027642Y036786D02*
X027358Y036786D01*
X027309Y036834D02*
X027691Y036834D01*
X028309Y036834D02*
X028691Y036834D01*
X028642Y036786D02*
X028358Y036786D01*
X028394Y036737D02*
X028606Y036737D01*
X028586Y036689D02*
X028414Y036689D01*
X028434Y036640D02*
X028566Y036640D01*
X028545Y036592D02*
X028455Y036592D01*
X028455Y036543D02*
X028545Y036543D01*
X028545Y036495D02*
X028455Y036495D01*
X028455Y036446D02*
X028545Y036446D01*
X028550Y036398D02*
X028450Y036398D01*
X028430Y036349D02*
X028570Y036349D01*
X028590Y036301D02*
X028410Y036301D01*
X028390Y036252D02*
X028610Y036252D01*
X028653Y036204D02*
X028347Y036204D01*
X028299Y036155D02*
X028701Y036155D01*
X028761Y036107D02*
X028239Y036107D01*
X028122Y036058D02*
X028878Y036058D01*
X029122Y036058D02*
X029251Y036058D01*
X024878Y036058D02*
X024749Y036058D01*
X035122Y034797D02*
X035325Y034797D01*
X035325Y034749D02*
X035206Y034749D01*
X035254Y034700D02*
X035325Y034700D01*
X035325Y034652D02*
X035285Y034652D01*
X035575Y034652D02*
X035715Y034652D01*
X035695Y034603D02*
X035575Y034603D01*
X035622Y034555D02*
X035679Y034555D01*
X035671Y034506D02*
X035679Y034506D01*
X035746Y034700D02*
X035575Y034700D01*
X035575Y034749D02*
X035794Y034749D01*
X035878Y034797D02*
X035575Y034797D01*
X036298Y035379D02*
X036500Y035177D01*
X036702Y035379D01*
X036682Y035428D02*
X036318Y035428D01*
X036321Y035476D02*
X036679Y035476D01*
X036679Y035525D02*
X036321Y035525D01*
X036317Y035573D02*
X036683Y035573D01*
X036703Y035622D02*
X036297Y035622D01*
X036277Y035670D02*
X036723Y035670D01*
X036764Y035719D02*
X036236Y035719D01*
X036187Y035767D02*
X036813Y035767D01*
X036922Y035816D02*
X036078Y035816D01*
X036346Y035331D02*
X036654Y035331D01*
X036605Y035282D02*
X036395Y035282D01*
X036443Y035234D02*
X036557Y035234D01*
X036508Y035185D02*
X036492Y035185D01*
X036862Y035185D02*
X036921Y035185D01*
X037122Y034797D02*
X037377Y034797D01*
X037377Y034749D02*
X037206Y034749D01*
X037254Y034700D02*
X037377Y034700D01*
X037377Y034652D02*
X037285Y034652D01*
X037305Y034603D02*
X037377Y034603D01*
X037377Y034555D02*
X037321Y034555D01*
X037321Y034506D02*
X037377Y034506D01*
X037377Y034458D02*
X037321Y034458D01*
X037310Y034409D02*
X037377Y034409D01*
X037377Y034361D02*
X037290Y034361D01*
X037266Y034312D02*
X037377Y034312D01*
X037377Y034264D02*
X037218Y034264D01*
X037151Y034215D02*
X037377Y034215D01*
X037377Y034167D02*
X037075Y034167D01*
X037075Y034118D02*
X037377Y034118D01*
X037377Y034070D02*
X037075Y034070D01*
X037075Y034021D02*
X037377Y034021D01*
X037377Y033973D02*
X037075Y033973D01*
X037075Y033924D02*
X037377Y033924D01*
X037377Y033876D02*
X037075Y033876D01*
X037075Y033827D02*
X037377Y033827D01*
X037377Y033779D02*
X037075Y033779D01*
X037075Y033730D02*
X037377Y033730D01*
X037377Y033682D02*
X037075Y033682D01*
X037075Y033633D02*
X037377Y033633D01*
X037377Y033585D02*
X037075Y033585D01*
X037075Y033536D02*
X037377Y033536D01*
X037377Y033488D02*
X037075Y033488D01*
X037075Y033439D02*
X037377Y033439D01*
X037377Y033391D02*
X037075Y033391D01*
X037075Y033342D02*
X037377Y033342D01*
X037377Y033294D02*
X037075Y033294D01*
X037075Y033245D02*
X037377Y033245D01*
X037377Y033197D02*
X037075Y033197D01*
X037075Y033148D02*
X037377Y033148D01*
X037377Y033100D02*
X037075Y033100D01*
X037075Y033051D02*
X037377Y033051D01*
X037377Y033003D02*
X037075Y033003D01*
X037075Y032954D02*
X037377Y032954D01*
X037377Y032906D02*
X037075Y032906D01*
X037075Y032857D02*
X037377Y032857D01*
X037377Y032809D02*
X037075Y032809D01*
X037075Y032760D02*
X037377Y032760D01*
X037377Y032712D02*
X037075Y032712D01*
X037075Y032663D02*
X037377Y032663D01*
X037377Y032615D02*
X037075Y032615D01*
X037075Y032566D02*
X037377Y032566D01*
X037377Y032518D02*
X037075Y032518D01*
X037075Y032469D02*
X037377Y032469D01*
X037377Y032421D02*
X037075Y032421D01*
X037075Y032372D02*
X037377Y032372D01*
X037377Y032324D02*
X037075Y032324D01*
X037075Y032275D02*
X037377Y032275D01*
X037377Y032227D02*
X037075Y032227D01*
X037075Y032178D02*
X037377Y032178D01*
X037377Y032130D02*
X037075Y032130D01*
X037075Y032081D02*
X037377Y032081D01*
X037377Y032033D02*
X037075Y032033D01*
X035775Y032033D02*
X034965Y032033D01*
X034965Y032081D02*
X035775Y032081D01*
X035775Y032130D02*
X034965Y032130D01*
X034965Y032178D02*
X035775Y032178D01*
X035775Y032227D02*
X034965Y032227D01*
X034965Y032275D02*
X035775Y032275D01*
X035775Y032324D02*
X034965Y032324D01*
X034965Y032372D02*
X035775Y032372D01*
X035775Y032421D02*
X034965Y032421D01*
X034965Y032469D02*
X035775Y032469D01*
X035775Y032518D02*
X034965Y032518D01*
X034965Y032566D02*
X035775Y032566D01*
X035775Y032615D02*
X034965Y032615D01*
X034965Y032663D02*
X035775Y032663D01*
X035775Y032712D02*
X034965Y032712D01*
X034965Y032760D02*
X035775Y032760D01*
X035775Y032809D02*
X035504Y032809D01*
X035504Y032808D02*
X035504Y032808D01*
X035504Y032808D01*
X035503Y032809D02*
X034999Y032809D01*
X035616Y032857D02*
X035775Y032857D01*
X035775Y032906D02*
X035665Y032906D01*
X035683Y032954D02*
X035775Y032954D01*
D23*
X035900Y033500D02*
X035900Y031250D01*
X035350Y030700D01*
X035350Y029900D01*
X032650Y027200D01*
X028300Y027200D01*
X027300Y026200D01*
X025105Y026200D01*
X024636Y026669D01*
X023657Y026050D02*
X023636Y026071D01*
X023657Y026050D02*
X027350Y026050D01*
X028350Y027050D01*
X032700Y027050D01*
X035500Y029850D01*
X035500Y030650D01*
X036050Y031200D01*
X036050Y033550D01*
X035450Y034150D01*
X034800Y034150D01*
X034350Y034600D01*
X034350Y035150D01*
X034000Y035500D01*
X035000Y035500D02*
X035450Y035050D01*
X035450Y034550D01*
X036350Y033650D01*
X036350Y030300D01*
X032121Y026071D01*
X031136Y026071D01*
X031950Y025700D02*
X036500Y030250D01*
X036500Y034000D01*
X036000Y034500D01*
X036450Y034300D02*
X036450Y035050D01*
X036000Y035500D01*
X036600Y035100D02*
X037000Y035500D01*
X036600Y035100D02*
X036600Y034350D01*
X036800Y034150D01*
X036800Y030150D01*
X035050Y028400D01*
X035050Y026385D01*
X035364Y026071D01*
X036181Y026669D02*
X035200Y027650D01*
X035200Y028350D01*
X036950Y030100D01*
X036950Y034450D01*
X037000Y034500D01*
X036650Y034100D02*
X036450Y034300D01*
X036650Y034100D02*
X036650Y030200D01*
X032000Y025550D01*
X028385Y025550D01*
X027864Y026071D01*
X028864Y026669D02*
X029833Y025700D01*
X031950Y025700D01*
X032136Y026669D02*
X032519Y026669D01*
X035650Y029800D01*
X035650Y030600D01*
X036200Y031150D01*
X036200Y033600D01*
X035300Y034500D01*
X035000Y034500D01*
X034750Y034000D02*
X035400Y034000D01*
X035900Y033500D01*
X034750Y034000D02*
X034250Y034500D01*
X034000Y034500D01*
X036181Y026669D02*
X036364Y026669D01*
M02*
