G75*
%MOIN*%
%OFA0B0*%
%FSLAX24Y24*%
%IPPOS*%
%LPD*%
%AMOC8*
5,1,8,0,0,1.08239X$1,22.5*
%
%ADD10C,0.0000*%
%ADD11C,0.1260*%
%ADD12R,0.0740X0.0740*%
%ADD13C,0.0740*%
%ADD14C,0.1280*%
%ADD15C,0.0420*%
%ADD16C,0.0756*%
D10*
X022500Y025000D02*
X022500Y038000D01*
X040500Y038000D01*
X040500Y025000D01*
X022500Y025000D01*
X024860Y029250D02*
X024862Y029300D01*
X024868Y029350D01*
X024878Y029399D01*
X024891Y029448D01*
X024909Y029495D01*
X024930Y029541D01*
X024954Y029584D01*
X024982Y029626D01*
X025013Y029666D01*
X025047Y029703D01*
X025084Y029737D01*
X025124Y029768D01*
X025166Y029796D01*
X025209Y029820D01*
X025255Y029841D01*
X025302Y029859D01*
X025351Y029872D01*
X025400Y029882D01*
X025450Y029888D01*
X025500Y029890D01*
X025550Y029888D01*
X025600Y029882D01*
X025649Y029872D01*
X025698Y029859D01*
X025745Y029841D01*
X025791Y029820D01*
X025834Y029796D01*
X025876Y029768D01*
X025916Y029737D01*
X025953Y029703D01*
X025987Y029666D01*
X026018Y029626D01*
X026046Y029584D01*
X026070Y029541D01*
X026091Y029495D01*
X026109Y029448D01*
X026122Y029399D01*
X026132Y029350D01*
X026138Y029300D01*
X026140Y029250D01*
X026138Y029200D01*
X026132Y029150D01*
X026122Y029101D01*
X026109Y029052D01*
X026091Y029005D01*
X026070Y028959D01*
X026046Y028916D01*
X026018Y028874D01*
X025987Y028834D01*
X025953Y028797D01*
X025916Y028763D01*
X025876Y028732D01*
X025834Y028704D01*
X025791Y028680D01*
X025745Y028659D01*
X025698Y028641D01*
X025649Y028628D01*
X025600Y028618D01*
X025550Y028612D01*
X025500Y028610D01*
X025450Y028612D01*
X025400Y028618D01*
X025351Y028628D01*
X025302Y028641D01*
X025255Y028659D01*
X025209Y028680D01*
X025166Y028704D01*
X025124Y028732D01*
X025084Y028763D01*
X025047Y028797D01*
X025013Y028834D01*
X024982Y028874D01*
X024954Y028916D01*
X024930Y028959D01*
X024909Y029005D01*
X024891Y029052D01*
X024878Y029101D01*
X024868Y029150D01*
X024862Y029200D01*
X024860Y029250D01*
X024860Y033750D02*
X024862Y033800D01*
X024868Y033850D01*
X024878Y033899D01*
X024891Y033948D01*
X024909Y033995D01*
X024930Y034041D01*
X024954Y034084D01*
X024982Y034126D01*
X025013Y034166D01*
X025047Y034203D01*
X025084Y034237D01*
X025124Y034268D01*
X025166Y034296D01*
X025209Y034320D01*
X025255Y034341D01*
X025302Y034359D01*
X025351Y034372D01*
X025400Y034382D01*
X025450Y034388D01*
X025500Y034390D01*
X025550Y034388D01*
X025600Y034382D01*
X025649Y034372D01*
X025698Y034359D01*
X025745Y034341D01*
X025791Y034320D01*
X025834Y034296D01*
X025876Y034268D01*
X025916Y034237D01*
X025953Y034203D01*
X025987Y034166D01*
X026018Y034126D01*
X026046Y034084D01*
X026070Y034041D01*
X026091Y033995D01*
X026109Y033948D01*
X026122Y033899D01*
X026132Y033850D01*
X026138Y033800D01*
X026140Y033750D01*
X026138Y033700D01*
X026132Y033650D01*
X026122Y033601D01*
X026109Y033552D01*
X026091Y033505D01*
X026070Y033459D01*
X026046Y033416D01*
X026018Y033374D01*
X025987Y033334D01*
X025953Y033297D01*
X025916Y033263D01*
X025876Y033232D01*
X025834Y033204D01*
X025791Y033180D01*
X025745Y033159D01*
X025698Y033141D01*
X025649Y033128D01*
X025600Y033118D01*
X025550Y033112D01*
X025500Y033110D01*
X025450Y033112D01*
X025400Y033118D01*
X025351Y033128D01*
X025302Y033141D01*
X025255Y033159D01*
X025209Y033180D01*
X025166Y033204D01*
X025124Y033232D01*
X025084Y033263D01*
X025047Y033297D01*
X025013Y033334D01*
X024982Y033374D01*
X024954Y033416D01*
X024930Y033459D01*
X024909Y033505D01*
X024891Y033552D01*
X024878Y033601D01*
X024868Y033650D01*
X024862Y033700D01*
X024860Y033750D01*
X024370Y036200D02*
X024372Y036250D01*
X024378Y036300D01*
X024388Y036349D01*
X024402Y036397D01*
X024419Y036444D01*
X024440Y036489D01*
X024465Y036533D01*
X024493Y036574D01*
X024525Y036613D01*
X024559Y036650D01*
X024596Y036684D01*
X024636Y036714D01*
X024678Y036741D01*
X024722Y036765D01*
X024768Y036786D01*
X024815Y036802D01*
X024863Y036815D01*
X024913Y036824D01*
X024962Y036829D01*
X025013Y036830D01*
X025063Y036827D01*
X025112Y036820D01*
X025161Y036809D01*
X025209Y036794D01*
X025255Y036776D01*
X025300Y036754D01*
X025343Y036728D01*
X025384Y036699D01*
X025423Y036667D01*
X025459Y036632D01*
X025491Y036594D01*
X025521Y036554D01*
X025548Y036511D01*
X025571Y036467D01*
X025590Y036421D01*
X025606Y036373D01*
X025618Y036324D01*
X025626Y036275D01*
X025630Y036225D01*
X025630Y036175D01*
X025626Y036125D01*
X025618Y036076D01*
X025606Y036027D01*
X025590Y035979D01*
X025571Y035933D01*
X025548Y035889D01*
X025521Y035846D01*
X025491Y035806D01*
X025459Y035768D01*
X025423Y035733D01*
X025384Y035701D01*
X025343Y035672D01*
X025300Y035646D01*
X025255Y035624D01*
X025209Y035606D01*
X025161Y035591D01*
X025112Y035580D01*
X025063Y035573D01*
X025013Y035570D01*
X024962Y035571D01*
X024913Y035576D01*
X024863Y035585D01*
X024815Y035598D01*
X024768Y035614D01*
X024722Y035635D01*
X024678Y035659D01*
X024636Y035686D01*
X024596Y035716D01*
X024559Y035750D01*
X024525Y035787D01*
X024493Y035826D01*
X024465Y035867D01*
X024440Y035911D01*
X024419Y035956D01*
X024402Y036003D01*
X024388Y036051D01*
X024378Y036100D01*
X024372Y036150D01*
X024370Y036200D01*
D11*
X025000Y036200D03*
D12*
X023000Y037500D03*
X023000Y025500D03*
D13*
X024000Y025500D03*
X025000Y025500D03*
X026000Y025500D03*
X027000Y025500D03*
X028000Y025500D03*
X029000Y025500D03*
X030000Y025500D03*
X031000Y025500D03*
X032000Y025500D03*
X033000Y025500D03*
X034000Y025500D03*
X035000Y025500D03*
X036000Y025500D03*
X037000Y025500D03*
X038000Y025500D03*
X039000Y025500D03*
X040000Y025500D03*
X040000Y037500D03*
X039000Y037500D03*
X038000Y037500D03*
X037000Y037500D03*
X036000Y037500D03*
X035000Y037500D03*
X034000Y037500D03*
X033000Y037500D03*
X032000Y037500D03*
X031000Y037500D03*
X030000Y037500D03*
X029000Y037500D03*
X028000Y037500D03*
X027000Y037500D03*
X026000Y037500D03*
X025000Y037500D03*
X024000Y037500D03*
D14*
X025500Y033750D03*
X025500Y029250D03*
D15*
X028000Y030250D03*
X029000Y029750D03*
X029000Y030750D03*
X028000Y031250D03*
X029000Y031750D03*
X028000Y032250D03*
X029000Y032750D03*
X028000Y033250D03*
X030563Y033250D03*
X030563Y032250D03*
X030563Y031250D03*
X030563Y030250D03*
X031563Y029750D03*
X031563Y030750D03*
X031563Y031750D03*
X031563Y032750D03*
D16*
X031591Y034850D03*
X023701Y034850D03*
X023701Y028150D03*
X029988Y028150D03*
M02*
