G75*
%MOIN*%
%OFA0B0*%
%FSLAX24Y24*%
%IPPOS*%
%LPD*%
%AMOC8*
5,1,8,0,0,1.08239X$1,22.5*
%
%ADD10C,0.0000*%
%ADD11R,0.0740X0.0740*%
%ADD12C,0.0740*%
%ADD13C,0.0425*%
%ADD14C,0.0756*%
%ADD15C,0.0050*%
%ADD16C,0.0197*%
%ADD17C,0.0080*%
%ADD18C,0.0100*%
%ADD19C,0.0400*%
D10*
X022500Y025000D02*
X022500Y038000D01*
X040500Y038000D01*
X040500Y025000D01*
X022500Y025000D01*
X024860Y029250D02*
X024862Y029300D01*
X024868Y029350D01*
X024878Y029399D01*
X024891Y029448D01*
X024909Y029495D01*
X024930Y029541D01*
X024954Y029584D01*
X024982Y029626D01*
X025013Y029666D01*
X025047Y029703D01*
X025084Y029737D01*
X025124Y029768D01*
X025166Y029796D01*
X025209Y029820D01*
X025255Y029841D01*
X025302Y029859D01*
X025351Y029872D01*
X025400Y029882D01*
X025450Y029888D01*
X025500Y029890D01*
X025550Y029888D01*
X025600Y029882D01*
X025649Y029872D01*
X025698Y029859D01*
X025745Y029841D01*
X025791Y029820D01*
X025834Y029796D01*
X025876Y029768D01*
X025916Y029737D01*
X025953Y029703D01*
X025987Y029666D01*
X026018Y029626D01*
X026046Y029584D01*
X026070Y029541D01*
X026091Y029495D01*
X026109Y029448D01*
X026122Y029399D01*
X026132Y029350D01*
X026138Y029300D01*
X026140Y029250D01*
X026138Y029200D01*
X026132Y029150D01*
X026122Y029101D01*
X026109Y029052D01*
X026091Y029005D01*
X026070Y028959D01*
X026046Y028916D01*
X026018Y028874D01*
X025987Y028834D01*
X025953Y028797D01*
X025916Y028763D01*
X025876Y028732D01*
X025834Y028704D01*
X025791Y028680D01*
X025745Y028659D01*
X025698Y028641D01*
X025649Y028628D01*
X025600Y028618D01*
X025550Y028612D01*
X025500Y028610D01*
X025450Y028612D01*
X025400Y028618D01*
X025351Y028628D01*
X025302Y028641D01*
X025255Y028659D01*
X025209Y028680D01*
X025166Y028704D01*
X025124Y028732D01*
X025084Y028763D01*
X025047Y028797D01*
X025013Y028834D01*
X024982Y028874D01*
X024954Y028916D01*
X024930Y028959D01*
X024909Y029005D01*
X024891Y029052D01*
X024878Y029101D01*
X024868Y029150D01*
X024862Y029200D01*
X024860Y029250D01*
X024860Y033750D02*
X024862Y033800D01*
X024868Y033850D01*
X024878Y033899D01*
X024891Y033948D01*
X024909Y033995D01*
X024930Y034041D01*
X024954Y034084D01*
X024982Y034126D01*
X025013Y034166D01*
X025047Y034203D01*
X025084Y034237D01*
X025124Y034268D01*
X025166Y034296D01*
X025209Y034320D01*
X025255Y034341D01*
X025302Y034359D01*
X025351Y034372D01*
X025400Y034382D01*
X025450Y034388D01*
X025500Y034390D01*
X025550Y034388D01*
X025600Y034382D01*
X025649Y034372D01*
X025698Y034359D01*
X025745Y034341D01*
X025791Y034320D01*
X025834Y034296D01*
X025876Y034268D01*
X025916Y034237D01*
X025953Y034203D01*
X025987Y034166D01*
X026018Y034126D01*
X026046Y034084D01*
X026070Y034041D01*
X026091Y033995D01*
X026109Y033948D01*
X026122Y033899D01*
X026132Y033850D01*
X026138Y033800D01*
X026140Y033750D01*
X026138Y033700D01*
X026132Y033650D01*
X026122Y033601D01*
X026109Y033552D01*
X026091Y033505D01*
X026070Y033459D01*
X026046Y033416D01*
X026018Y033374D01*
X025987Y033334D01*
X025953Y033297D01*
X025916Y033263D01*
X025876Y033232D01*
X025834Y033204D01*
X025791Y033180D01*
X025745Y033159D01*
X025698Y033141D01*
X025649Y033128D01*
X025600Y033118D01*
X025550Y033112D01*
X025500Y033110D01*
X025450Y033112D01*
X025400Y033118D01*
X025351Y033128D01*
X025302Y033141D01*
X025255Y033159D01*
X025209Y033180D01*
X025166Y033204D01*
X025124Y033232D01*
X025084Y033263D01*
X025047Y033297D01*
X025013Y033334D01*
X024982Y033374D01*
X024954Y033416D01*
X024930Y033459D01*
X024909Y033505D01*
X024891Y033552D01*
X024878Y033601D01*
X024868Y033650D01*
X024862Y033700D01*
X024860Y033750D01*
X024370Y036200D02*
X024372Y036250D01*
X024378Y036300D01*
X024388Y036349D01*
X024402Y036397D01*
X024419Y036444D01*
X024440Y036489D01*
X024465Y036533D01*
X024493Y036574D01*
X024525Y036613D01*
X024559Y036650D01*
X024596Y036684D01*
X024636Y036714D01*
X024678Y036741D01*
X024722Y036765D01*
X024768Y036786D01*
X024815Y036802D01*
X024863Y036815D01*
X024913Y036824D01*
X024962Y036829D01*
X025013Y036830D01*
X025063Y036827D01*
X025112Y036820D01*
X025161Y036809D01*
X025209Y036794D01*
X025255Y036776D01*
X025300Y036754D01*
X025343Y036728D01*
X025384Y036699D01*
X025423Y036667D01*
X025459Y036632D01*
X025491Y036594D01*
X025521Y036554D01*
X025548Y036511D01*
X025571Y036467D01*
X025590Y036421D01*
X025606Y036373D01*
X025618Y036324D01*
X025626Y036275D01*
X025630Y036225D01*
X025630Y036175D01*
X025626Y036125D01*
X025618Y036076D01*
X025606Y036027D01*
X025590Y035979D01*
X025571Y035933D01*
X025548Y035889D01*
X025521Y035846D01*
X025491Y035806D01*
X025459Y035768D01*
X025423Y035733D01*
X025384Y035701D01*
X025343Y035672D01*
X025300Y035646D01*
X025255Y035624D01*
X025209Y035606D01*
X025161Y035591D01*
X025112Y035580D01*
X025063Y035573D01*
X025013Y035570D01*
X024962Y035571D01*
X024913Y035576D01*
X024863Y035585D01*
X024815Y035598D01*
X024768Y035614D01*
X024722Y035635D01*
X024678Y035659D01*
X024636Y035686D01*
X024596Y035716D01*
X024559Y035750D01*
X024525Y035787D01*
X024493Y035826D01*
X024465Y035867D01*
X024440Y035911D01*
X024419Y035956D01*
X024402Y036003D01*
X024388Y036051D01*
X024378Y036100D01*
X024372Y036150D01*
X024370Y036200D01*
D11*
X023000Y037500D03*
X023000Y025500D03*
D12*
X024000Y025500D03*
X025000Y025500D03*
X026000Y025500D03*
X027000Y025500D03*
X028000Y025500D03*
X029000Y025500D03*
X030000Y025500D03*
X031000Y025500D03*
X032000Y025500D03*
X033000Y025500D03*
X034000Y025500D03*
X035000Y025500D03*
X036000Y025500D03*
X037000Y025500D03*
X038000Y025500D03*
X039000Y025500D03*
X040000Y025500D03*
X040000Y037500D03*
X039000Y037500D03*
X038000Y037500D03*
X037000Y037500D03*
X036000Y037500D03*
X035000Y037500D03*
X034000Y037500D03*
X033000Y037500D03*
X032000Y037500D03*
X031000Y037500D03*
X030000Y037500D03*
X029000Y037500D03*
X028000Y037500D03*
X027000Y037500D03*
X026000Y037500D03*
X025000Y037500D03*
X024000Y037500D03*
D13*
X025898Y032699D03*
X026606Y032699D03*
X027350Y032799D03*
X027850Y032299D03*
X028350Y032799D03*
X028850Y032299D03*
X029350Y032799D03*
X029850Y032299D03*
X030350Y032799D03*
X030850Y032299D03*
X031350Y032799D03*
X031850Y032299D03*
X031850Y030701D03*
X031350Y030201D03*
X030850Y030701D03*
X030350Y030201D03*
X029850Y030701D03*
X029350Y030201D03*
X028850Y030701D03*
X028350Y030201D03*
X027850Y030701D03*
X027350Y030201D03*
X026606Y030301D03*
X025898Y030301D03*
X025898Y031100D03*
X026606Y031100D03*
X026606Y031900D03*
X025898Y031900D03*
D14*
X023701Y034850D03*
X031591Y034850D03*
X029988Y028150D03*
X023701Y028150D03*
D15*
X029500Y027500D02*
X029500Y025123D01*
X029733Y025123D01*
X029614Y025242D01*
X029545Y025409D01*
X029545Y025591D01*
X029614Y025758D01*
X029742Y025886D01*
X029909Y025955D01*
X030091Y025955D01*
X030258Y025886D01*
X030386Y025758D01*
X030455Y025591D01*
X030455Y025409D01*
X030386Y025242D01*
X030267Y025123D01*
X030712Y025123D01*
X030691Y025139D01*
X030639Y025191D01*
X030595Y025252D01*
X030561Y025318D01*
X030538Y025389D01*
X030526Y025463D01*
X030526Y025475D01*
X030975Y025475D01*
X030975Y025525D01*
X030975Y025974D01*
X030963Y025974D01*
X030889Y025962D01*
X030818Y025939D01*
X030752Y025905D01*
X030691Y025861D01*
X030639Y025809D01*
X030595Y025748D01*
X030561Y025682D01*
X030538Y025611D01*
X030526Y025537D01*
X030526Y025525D01*
X030975Y025525D01*
X031025Y025525D01*
X031025Y025974D01*
X031037Y025974D01*
X031111Y025962D01*
X031182Y025939D01*
X031248Y025905D01*
X031309Y025861D01*
X031361Y025809D01*
X031405Y025748D01*
X031439Y025682D01*
X031462Y025611D01*
X031474Y025537D01*
X031474Y025525D01*
X031025Y025525D01*
X031025Y025475D01*
X031474Y025475D01*
X031474Y025463D01*
X031462Y025389D01*
X031439Y025318D01*
X031405Y025252D01*
X031361Y025191D01*
X031309Y025139D01*
X031288Y025123D01*
X031733Y025123D01*
X031614Y025242D01*
X031545Y025409D01*
X031545Y025591D01*
X031614Y025758D01*
X031742Y025886D01*
X031909Y025955D01*
X032091Y025955D01*
X032213Y025904D01*
X032285Y025976D01*
X032285Y026477D01*
X032285Y026589D01*
X032958Y027262D01*
X032958Y029075D01*
X032957Y029076D01*
X032957Y029094D01*
X032908Y029179D01*
X032839Y029235D01*
X032500Y029235D01*
X032500Y027500D01*
X029500Y027500D01*
X029500Y027474D02*
X032958Y027474D01*
X032958Y027522D02*
X032500Y027522D01*
X032500Y027571D02*
X032958Y027571D01*
X032958Y027619D02*
X032500Y027619D01*
X032500Y027668D02*
X032958Y027668D01*
X032958Y027716D02*
X032500Y027716D01*
X032500Y027765D02*
X032958Y027765D01*
X032958Y027813D02*
X032500Y027813D01*
X032500Y027862D02*
X032958Y027862D01*
X032958Y027910D02*
X032500Y027910D01*
X032500Y027959D02*
X032958Y027959D01*
X032958Y028007D02*
X032500Y028007D01*
X032500Y028056D02*
X032958Y028056D01*
X032958Y028104D02*
X032500Y028104D01*
X032500Y028153D02*
X032958Y028153D01*
X032958Y028201D02*
X032500Y028201D01*
X032500Y028250D02*
X032958Y028250D01*
X032958Y028298D02*
X032500Y028298D01*
X032500Y028347D02*
X032958Y028347D01*
X032958Y028395D02*
X032500Y028395D01*
X032500Y028444D02*
X032958Y028444D01*
X032958Y028492D02*
X032500Y028492D01*
X032500Y028541D02*
X032958Y028541D01*
X032958Y028589D02*
X032500Y028589D01*
X032500Y028638D02*
X032958Y028638D01*
X032958Y028686D02*
X032500Y028686D01*
X032500Y028735D02*
X032958Y028735D01*
X032958Y028783D02*
X032500Y028783D01*
X032500Y028832D02*
X032958Y028832D01*
X032958Y028880D02*
X032500Y028880D01*
X032500Y028929D02*
X032958Y028929D01*
X032958Y028977D02*
X032500Y028977D01*
X032500Y029026D02*
X032958Y029026D01*
X032958Y029074D02*
X032500Y029074D01*
X032500Y029123D02*
X032941Y029123D01*
X032913Y029171D02*
X032500Y029171D01*
X032500Y029220D02*
X032858Y029220D01*
X032839Y029665D02*
X032500Y029665D01*
X032500Y030585D01*
X032839Y030585D01*
X032927Y030514D01*
X032974Y030467D01*
X033126Y030467D01*
X033173Y030514D01*
X033206Y030540D01*
X034285Y029461D01*
X034285Y025976D01*
X034213Y025904D01*
X034091Y025955D01*
X033909Y025955D01*
X033742Y025886D01*
X033614Y025758D01*
X033545Y025591D01*
X033545Y025409D01*
X033614Y025242D01*
X033733Y025123D01*
X033267Y025123D01*
X033386Y025242D01*
X033455Y025409D01*
X033455Y025591D01*
X033386Y025758D01*
X033258Y025886D01*
X033091Y025955D01*
X032909Y025955D01*
X032787Y025904D01*
X032715Y025976D01*
X032715Y026411D01*
X033312Y027008D01*
X033392Y027088D01*
X033392Y029151D01*
X033395Y029154D01*
X033395Y029446D01*
X033310Y029531D01*
X033296Y029545D01*
X033290Y029565D01*
X033275Y029574D01*
X033233Y029648D01*
X033233Y029676D01*
X033198Y029712D01*
X033183Y029738D01*
X033183Y029738D01*
X033183Y029738D01*
X033167Y029743D01*
X033126Y029783D01*
X032974Y029783D01*
X032927Y029736D01*
X032839Y029665D01*
X032888Y029705D02*
X032500Y029705D01*
X032500Y029753D02*
X032944Y029753D01*
X033156Y029753D02*
X033993Y029753D01*
X034041Y029705D02*
X033205Y029705D01*
X033233Y029656D02*
X034090Y029656D01*
X034138Y029608D02*
X033256Y029608D01*
X033292Y029559D02*
X034187Y029559D01*
X034235Y029511D02*
X033330Y029511D01*
X033379Y029462D02*
X034284Y029462D01*
X034285Y029414D02*
X033395Y029414D01*
X033395Y029365D02*
X034285Y029365D01*
X034285Y029317D02*
X033395Y029317D01*
X033395Y029268D02*
X034285Y029268D01*
X034285Y029220D02*
X033395Y029220D01*
X033395Y029171D02*
X034285Y029171D01*
X034285Y029123D02*
X033392Y029123D01*
X033392Y029074D02*
X034285Y029074D01*
X034285Y029026D02*
X033392Y029026D01*
X033392Y028977D02*
X034285Y028977D01*
X034285Y028929D02*
X033392Y028929D01*
X033392Y028880D02*
X034285Y028880D01*
X034285Y028832D02*
X033392Y028832D01*
X033392Y028783D02*
X034285Y028783D01*
X034285Y028735D02*
X033392Y028735D01*
X033392Y028686D02*
X034285Y028686D01*
X034285Y028638D02*
X033392Y028638D01*
X033392Y028589D02*
X034285Y028589D01*
X034285Y028541D02*
X033392Y028541D01*
X033392Y028492D02*
X034285Y028492D01*
X034285Y028444D02*
X033392Y028444D01*
X033392Y028395D02*
X034285Y028395D01*
X034285Y028347D02*
X033392Y028347D01*
X033392Y028298D02*
X034285Y028298D01*
X034285Y028250D02*
X033392Y028250D01*
X033392Y028201D02*
X034285Y028201D01*
X034285Y028153D02*
X033392Y028153D01*
X033392Y028104D02*
X034285Y028104D01*
X034285Y028056D02*
X033392Y028056D01*
X033392Y028007D02*
X034285Y028007D01*
X034285Y027959D02*
X033392Y027959D01*
X033392Y027910D02*
X034285Y027910D01*
X034285Y027862D02*
X033392Y027862D01*
X033392Y027813D02*
X034285Y027813D01*
X034285Y027765D02*
X033392Y027765D01*
X033392Y027716D02*
X034285Y027716D01*
X034285Y027668D02*
X033392Y027668D01*
X033392Y027619D02*
X034285Y027619D01*
X034285Y027571D02*
X033392Y027571D01*
X033392Y027522D02*
X034285Y027522D01*
X034285Y027474D02*
X033392Y027474D01*
X033392Y027425D02*
X034285Y027425D01*
X034285Y027377D02*
X033392Y027377D01*
X033392Y027328D02*
X034285Y027328D01*
X034285Y027280D02*
X033392Y027280D01*
X033392Y027231D02*
X034285Y027231D01*
X034285Y027183D02*
X033392Y027183D01*
X033392Y027134D02*
X034285Y027134D01*
X034285Y027086D02*
X033390Y027086D01*
X033341Y027037D02*
X034285Y027037D01*
X034285Y026989D02*
X033293Y026989D01*
X033244Y026940D02*
X034285Y026940D01*
X034285Y026892D02*
X033196Y026892D01*
X033147Y026843D02*
X034285Y026843D01*
X034285Y026795D02*
X033099Y026795D01*
X033050Y026746D02*
X034285Y026746D01*
X034285Y026698D02*
X033002Y026698D01*
X032953Y026649D02*
X034285Y026649D01*
X034285Y026601D02*
X032905Y026601D01*
X032856Y026552D02*
X034285Y026552D01*
X034285Y026504D02*
X032808Y026504D01*
X032759Y026455D02*
X034285Y026455D01*
X034285Y026407D02*
X032715Y026407D01*
X032715Y026358D02*
X034285Y026358D01*
X034285Y026310D02*
X032715Y026310D01*
X032715Y026261D02*
X034285Y026261D01*
X034285Y026213D02*
X032715Y026213D01*
X032715Y026164D02*
X034285Y026164D01*
X034285Y026116D02*
X032715Y026116D01*
X032715Y026067D02*
X034285Y026067D01*
X034285Y026019D02*
X032715Y026019D01*
X032721Y025970D02*
X034279Y025970D01*
X034231Y025922D02*
X034171Y025922D01*
X033829Y025922D02*
X033171Y025922D01*
X033270Y025873D02*
X033730Y025873D01*
X033681Y025825D02*
X033319Y025825D01*
X033367Y025776D02*
X033633Y025776D01*
X033602Y025728D02*
X033398Y025728D01*
X033418Y025679D02*
X033582Y025679D01*
X033562Y025631D02*
X033438Y025631D01*
X033455Y025582D02*
X033545Y025582D01*
X033545Y025534D02*
X033455Y025534D01*
X033455Y025485D02*
X033545Y025485D01*
X033545Y025437D02*
X033455Y025437D01*
X033446Y025388D02*
X033554Y025388D01*
X033574Y025340D02*
X033426Y025340D01*
X033406Y025291D02*
X033594Y025291D01*
X033614Y025243D02*
X033386Y025243D01*
X033337Y025194D02*
X033663Y025194D01*
X033711Y025146D02*
X033289Y025146D01*
X032829Y025922D02*
X032769Y025922D01*
X032279Y025970D02*
X031061Y025970D01*
X031025Y025970D02*
X030975Y025970D01*
X030939Y025970D02*
X029500Y025970D01*
X029500Y025922D02*
X029829Y025922D01*
X029730Y025873D02*
X029500Y025873D01*
X029500Y025825D02*
X029681Y025825D01*
X029633Y025776D02*
X029500Y025776D01*
X029500Y025728D02*
X029602Y025728D01*
X029582Y025679D02*
X029500Y025679D01*
X029500Y025631D02*
X029562Y025631D01*
X029545Y025582D02*
X029500Y025582D01*
X029500Y025534D02*
X029545Y025534D01*
X029545Y025485D02*
X029500Y025485D01*
X029500Y025437D02*
X029545Y025437D01*
X029554Y025388D02*
X029500Y025388D01*
X029500Y025340D02*
X029574Y025340D01*
X029594Y025291D02*
X029500Y025291D01*
X029500Y025243D02*
X029614Y025243D01*
X029663Y025194D02*
X029500Y025194D01*
X029500Y025146D02*
X029711Y025146D01*
X030289Y025146D02*
X030685Y025146D01*
X030637Y025194D02*
X030337Y025194D01*
X030386Y025243D02*
X030602Y025243D01*
X030575Y025291D02*
X030406Y025291D01*
X030426Y025340D02*
X030554Y025340D01*
X030538Y025388D02*
X030446Y025388D01*
X030455Y025437D02*
X030530Y025437D01*
X030455Y025485D02*
X030975Y025485D01*
X030975Y025534D02*
X031025Y025534D01*
X031025Y025582D02*
X030975Y025582D01*
X030975Y025631D02*
X031025Y025631D01*
X031025Y025679D02*
X030975Y025679D01*
X030975Y025728D02*
X031025Y025728D01*
X031025Y025776D02*
X030975Y025776D01*
X030975Y025825D02*
X031025Y025825D01*
X031025Y025873D02*
X030975Y025873D01*
X030975Y025922D02*
X031025Y025922D01*
X031216Y025922D02*
X031829Y025922D01*
X031730Y025873D02*
X031293Y025873D01*
X031345Y025825D02*
X031681Y025825D01*
X031633Y025776D02*
X031385Y025776D01*
X031416Y025728D02*
X031602Y025728D01*
X031582Y025679D02*
X031440Y025679D01*
X031456Y025631D02*
X031562Y025631D01*
X031545Y025582D02*
X031467Y025582D01*
X031474Y025534D02*
X031545Y025534D01*
X031545Y025485D02*
X031025Y025485D01*
X031425Y025291D02*
X031594Y025291D01*
X031574Y025340D02*
X031446Y025340D01*
X031462Y025388D02*
X031554Y025388D01*
X031545Y025437D02*
X031470Y025437D01*
X031398Y025243D02*
X031614Y025243D01*
X031663Y025194D02*
X031363Y025194D01*
X031315Y025146D02*
X031711Y025146D01*
X032171Y025922D02*
X032231Y025922D01*
X032285Y026019D02*
X029500Y026019D01*
X029500Y026067D02*
X032285Y026067D01*
X032285Y026116D02*
X029500Y026116D01*
X029500Y026164D02*
X032285Y026164D01*
X032285Y026213D02*
X029500Y026213D01*
X029500Y026261D02*
X032285Y026261D01*
X032285Y026310D02*
X029500Y026310D01*
X029500Y026358D02*
X032285Y026358D01*
X032285Y026407D02*
X029500Y026407D01*
X029500Y026455D02*
X032285Y026455D01*
X032285Y026504D02*
X029500Y026504D01*
X029500Y026552D02*
X032285Y026552D01*
X032296Y026601D02*
X029500Y026601D01*
X029500Y026649D02*
X032345Y026649D01*
X032393Y026698D02*
X029500Y026698D01*
X029500Y026746D02*
X032442Y026746D01*
X032490Y026795D02*
X029500Y026795D01*
X029500Y026843D02*
X032539Y026843D01*
X032587Y026892D02*
X029500Y026892D01*
X029500Y026940D02*
X032636Y026940D01*
X032684Y026989D02*
X029500Y026989D01*
X029500Y027037D02*
X032733Y027037D01*
X032781Y027086D02*
X029500Y027086D01*
X029500Y027134D02*
X032830Y027134D01*
X032878Y027183D02*
X029500Y027183D01*
X029500Y027231D02*
X032927Y027231D01*
X032958Y027280D02*
X029500Y027280D01*
X029500Y027328D02*
X032958Y027328D01*
X032958Y027377D02*
X029500Y027377D01*
X029500Y027425D02*
X032958Y027425D01*
X034715Y027425D02*
X037285Y027425D01*
X037285Y027377D02*
X034715Y027377D01*
X034715Y027328D02*
X037285Y027328D01*
X037285Y027280D02*
X034715Y027280D01*
X034715Y027231D02*
X037285Y027231D01*
X037285Y027183D02*
X034715Y027183D01*
X034715Y027134D02*
X037285Y027134D01*
X037285Y027086D02*
X034715Y027086D01*
X034715Y027037D02*
X037285Y027037D01*
X037285Y026989D02*
X034715Y026989D01*
X034715Y026940D02*
X037285Y026940D01*
X037285Y026892D02*
X034715Y026892D01*
X034715Y026843D02*
X037285Y026843D01*
X037285Y026795D02*
X034715Y026795D01*
X034715Y026746D02*
X037285Y026746D01*
X037285Y026698D02*
X034715Y026698D01*
X034715Y026649D02*
X037285Y026649D01*
X037285Y026601D02*
X034715Y026601D01*
X034715Y026552D02*
X037285Y026552D01*
X037285Y026504D02*
X034715Y026504D01*
X034715Y026455D02*
X037285Y026455D01*
X037285Y026407D02*
X034715Y026407D01*
X034715Y026358D02*
X037285Y026358D01*
X037285Y026310D02*
X034715Y026310D01*
X034715Y026261D02*
X037285Y026261D01*
X037285Y026213D02*
X034715Y026213D01*
X034715Y026164D02*
X037285Y026164D01*
X037285Y026116D02*
X034715Y026116D01*
X034715Y026067D02*
X037285Y026067D01*
X037285Y026019D02*
X034715Y026019D01*
X034715Y025976D02*
X034715Y029639D01*
X033418Y030936D01*
X033339Y031015D01*
X033261Y031015D01*
X033173Y031086D01*
X033126Y031133D01*
X032974Y031133D01*
X032927Y031086D01*
X032839Y031015D01*
X032639Y031015D01*
X032500Y031154D01*
X032500Y031696D01*
X032739Y031935D01*
X032839Y031935D01*
X032927Y031864D01*
X032974Y031817D01*
X033126Y031817D01*
X033173Y031864D01*
X033206Y031890D01*
X037285Y027811D01*
X037285Y025976D01*
X037213Y025904D01*
X037091Y025955D01*
X036909Y025955D01*
X036742Y025886D01*
X036614Y025758D01*
X036545Y025591D01*
X036545Y025409D01*
X036614Y025242D01*
X036733Y025123D01*
X036267Y025123D01*
X036386Y025242D01*
X036455Y025409D01*
X036455Y025591D01*
X036386Y025758D01*
X036258Y025886D01*
X036091Y025955D01*
X035909Y025955D01*
X035742Y025886D01*
X035614Y025758D01*
X035545Y025591D01*
X035545Y025409D01*
X035614Y025242D01*
X035733Y025123D01*
X035267Y025123D01*
X035386Y025242D01*
X035455Y025409D01*
X035455Y025591D01*
X035386Y025758D01*
X035258Y025886D01*
X035091Y025955D01*
X034909Y025955D01*
X034787Y025904D01*
X034715Y025976D01*
X034721Y025970D02*
X037279Y025970D01*
X037231Y025922D02*
X037171Y025922D01*
X036829Y025922D02*
X036171Y025922D01*
X036270Y025873D02*
X036730Y025873D01*
X036681Y025825D02*
X036319Y025825D01*
X036367Y025776D02*
X036633Y025776D01*
X036602Y025728D02*
X036398Y025728D01*
X036418Y025679D02*
X036582Y025679D01*
X036562Y025631D02*
X036438Y025631D01*
X036455Y025582D02*
X036545Y025582D01*
X036545Y025534D02*
X036455Y025534D01*
X036455Y025485D02*
X036545Y025485D01*
X036545Y025437D02*
X036455Y025437D01*
X036446Y025388D02*
X036554Y025388D01*
X036574Y025340D02*
X036426Y025340D01*
X036406Y025291D02*
X036594Y025291D01*
X036614Y025243D02*
X036386Y025243D01*
X036337Y025194D02*
X036663Y025194D01*
X036711Y025146D02*
X036289Y025146D01*
X035711Y025146D02*
X035289Y025146D01*
X035337Y025194D02*
X035663Y025194D01*
X035614Y025243D02*
X035386Y025243D01*
X035406Y025291D02*
X035594Y025291D01*
X035574Y025340D02*
X035426Y025340D01*
X035446Y025388D02*
X035554Y025388D01*
X035545Y025437D02*
X035455Y025437D01*
X035455Y025485D02*
X035545Y025485D01*
X035545Y025534D02*
X035455Y025534D01*
X035455Y025582D02*
X035545Y025582D01*
X035562Y025631D02*
X035438Y025631D01*
X035418Y025679D02*
X035582Y025679D01*
X035602Y025728D02*
X035398Y025728D01*
X035367Y025776D02*
X035633Y025776D01*
X035681Y025825D02*
X035319Y025825D01*
X035270Y025873D02*
X035730Y025873D01*
X035829Y025922D02*
X035171Y025922D01*
X034829Y025922D02*
X034769Y025922D01*
X034715Y027474D02*
X037285Y027474D01*
X037285Y027522D02*
X034715Y027522D01*
X034715Y027571D02*
X037285Y027571D01*
X037285Y027619D02*
X034715Y027619D01*
X034715Y027668D02*
X037285Y027668D01*
X037285Y027716D02*
X034715Y027716D01*
X034715Y027765D02*
X037285Y027765D01*
X037283Y027813D02*
X034715Y027813D01*
X034715Y027862D02*
X037234Y027862D01*
X037186Y027910D02*
X034715Y027910D01*
X034715Y027959D02*
X037137Y027959D01*
X037089Y028007D02*
X034715Y028007D01*
X034715Y028056D02*
X037040Y028056D01*
X036992Y028104D02*
X034715Y028104D01*
X034715Y028153D02*
X036943Y028153D01*
X036895Y028201D02*
X034715Y028201D01*
X034715Y028250D02*
X036846Y028250D01*
X036798Y028298D02*
X034715Y028298D01*
X034715Y028347D02*
X036749Y028347D01*
X036701Y028395D02*
X034715Y028395D01*
X034715Y028444D02*
X036652Y028444D01*
X036604Y028492D02*
X034715Y028492D01*
X034715Y028541D02*
X036555Y028541D01*
X036507Y028589D02*
X034715Y028589D01*
X034715Y028638D02*
X036458Y028638D01*
X036410Y028686D02*
X034715Y028686D01*
X034715Y028735D02*
X036361Y028735D01*
X036313Y028783D02*
X034715Y028783D01*
X034715Y028832D02*
X036264Y028832D01*
X036216Y028880D02*
X034715Y028880D01*
X034715Y028929D02*
X036167Y028929D01*
X036119Y028977D02*
X034715Y028977D01*
X034715Y029026D02*
X036070Y029026D01*
X036022Y029074D02*
X034715Y029074D01*
X034715Y029123D02*
X035973Y029123D01*
X035925Y029171D02*
X034715Y029171D01*
X034715Y029220D02*
X035876Y029220D01*
X035828Y029268D02*
X034715Y029268D01*
X034715Y029317D02*
X035779Y029317D01*
X035731Y029365D02*
X034715Y029365D01*
X034715Y029414D02*
X035682Y029414D01*
X035634Y029462D02*
X034715Y029462D01*
X034715Y029511D02*
X035585Y029511D01*
X035537Y029559D02*
X034715Y029559D01*
X034715Y029608D02*
X035488Y029608D01*
X035440Y029656D02*
X034698Y029656D01*
X034650Y029705D02*
X035391Y029705D01*
X035343Y029753D02*
X034601Y029753D01*
X034553Y029802D02*
X035294Y029802D01*
X035246Y029850D02*
X034504Y029850D01*
X034456Y029899D02*
X035197Y029899D01*
X035149Y029947D02*
X034407Y029947D01*
X034359Y029996D02*
X035100Y029996D01*
X035052Y030044D02*
X034310Y030044D01*
X034262Y030093D02*
X035003Y030093D01*
X034955Y030141D02*
X034213Y030141D01*
X034165Y030190D02*
X034906Y030190D01*
X034858Y030238D02*
X034116Y030238D01*
X034068Y030287D02*
X034809Y030287D01*
X034761Y030335D02*
X034019Y030335D01*
X033971Y030384D02*
X034712Y030384D01*
X034664Y030432D02*
X033922Y030432D01*
X033874Y030481D02*
X034615Y030481D01*
X034567Y030529D02*
X033825Y030529D01*
X033777Y030578D02*
X034518Y030578D01*
X034470Y030626D02*
X033728Y030626D01*
X033680Y030675D02*
X034421Y030675D01*
X034373Y030723D02*
X033631Y030723D01*
X033583Y030772D02*
X034324Y030772D01*
X034276Y030820D02*
X033534Y030820D01*
X033486Y030869D02*
X034227Y030869D01*
X034179Y030917D02*
X033437Y030917D01*
X033389Y030966D02*
X034130Y030966D01*
X034082Y031014D02*
X033340Y031014D01*
X033202Y031063D02*
X034033Y031063D01*
X033985Y031111D02*
X033148Y031111D01*
X032952Y031111D02*
X032543Y031111D01*
X032500Y031160D02*
X033936Y031160D01*
X033888Y031208D02*
X032500Y031208D01*
X032500Y031257D02*
X033839Y031257D01*
X033791Y031305D02*
X032500Y031305D01*
X032500Y031354D02*
X033742Y031354D01*
X033694Y031402D02*
X032500Y031402D01*
X032500Y031451D02*
X033645Y031451D01*
X033597Y031499D02*
X032500Y031499D01*
X032500Y031548D02*
X033548Y031548D01*
X033500Y031596D02*
X032500Y031596D01*
X032500Y031645D02*
X033451Y031645D01*
X033403Y031693D02*
X032500Y031693D01*
X032546Y031742D02*
X033354Y031742D01*
X033306Y031790D02*
X032594Y031790D01*
X032643Y031839D02*
X032952Y031839D01*
X032898Y031887D02*
X032691Y031887D01*
X032500Y032304D02*
X032500Y033285D01*
X032839Y033285D01*
X032927Y033214D01*
X032974Y033167D01*
X033126Y033167D01*
X033173Y033214D01*
X033206Y033240D01*
X039285Y027161D01*
X039285Y025976D01*
X039213Y025904D01*
X039091Y025955D01*
X038909Y025955D01*
X038742Y025886D01*
X038614Y025758D01*
X038545Y025591D01*
X038545Y025409D01*
X038614Y025242D01*
X038733Y025123D01*
X038267Y025123D01*
X038386Y025242D01*
X038455Y025409D01*
X038455Y025591D01*
X038386Y025758D01*
X038258Y025886D01*
X038091Y025955D01*
X037909Y025955D01*
X037787Y025904D01*
X037715Y025976D01*
X037715Y027989D01*
X033339Y032365D01*
X033261Y032365D01*
X033173Y032436D01*
X033126Y032483D01*
X032974Y032483D01*
X032927Y032436D01*
X032839Y032365D01*
X032561Y032365D01*
X032500Y032304D01*
X032500Y032324D02*
X032519Y032324D01*
X032500Y032372D02*
X032848Y032372D01*
X032908Y032421D02*
X032500Y032421D01*
X032500Y032469D02*
X032960Y032469D01*
X033140Y032469D02*
X033977Y032469D01*
X034025Y032421D02*
X033192Y032421D01*
X033252Y032372D02*
X034074Y032372D01*
X034122Y032324D02*
X033381Y032324D01*
X033429Y032275D02*
X034171Y032275D01*
X034219Y032227D02*
X033478Y032227D01*
X033526Y032178D02*
X034268Y032178D01*
X034316Y032130D02*
X033575Y032130D01*
X033623Y032081D02*
X034365Y032081D01*
X034413Y032033D02*
X033672Y032033D01*
X033720Y031984D02*
X034462Y031984D01*
X034510Y031936D02*
X033769Y031936D01*
X033817Y031887D02*
X034559Y031887D01*
X034607Y031839D02*
X033866Y031839D01*
X033914Y031790D02*
X034656Y031790D01*
X034704Y031742D02*
X033963Y031742D01*
X034011Y031693D02*
X034753Y031693D01*
X034801Y031645D02*
X034060Y031645D01*
X034108Y031596D02*
X034850Y031596D01*
X034898Y031548D02*
X034157Y031548D01*
X034205Y031499D02*
X034947Y031499D01*
X034995Y031451D02*
X034254Y031451D01*
X034302Y031402D02*
X035044Y031402D01*
X035092Y031354D02*
X034351Y031354D01*
X034399Y031305D02*
X035141Y031305D01*
X035189Y031257D02*
X034448Y031257D01*
X034496Y031208D02*
X035238Y031208D01*
X035286Y031160D02*
X034545Y031160D01*
X034593Y031111D02*
X035335Y031111D01*
X035383Y031063D02*
X034642Y031063D01*
X034690Y031014D02*
X035432Y031014D01*
X035480Y030966D02*
X034739Y030966D01*
X034787Y030917D02*
X035529Y030917D01*
X035577Y030869D02*
X034836Y030869D01*
X034884Y030820D02*
X035626Y030820D01*
X035674Y030772D02*
X034933Y030772D01*
X034981Y030723D02*
X035723Y030723D01*
X035771Y030675D02*
X035030Y030675D01*
X035078Y030626D02*
X035820Y030626D01*
X035868Y030578D02*
X035127Y030578D01*
X035175Y030529D02*
X035917Y030529D01*
X035965Y030481D02*
X035224Y030481D01*
X035272Y030432D02*
X036014Y030432D01*
X036062Y030384D02*
X035321Y030384D01*
X035369Y030335D02*
X036111Y030335D01*
X036159Y030287D02*
X035418Y030287D01*
X035466Y030238D02*
X036208Y030238D01*
X036256Y030190D02*
X035515Y030190D01*
X035563Y030141D02*
X036305Y030141D01*
X036353Y030093D02*
X035612Y030093D01*
X035660Y030044D02*
X036402Y030044D01*
X036450Y029996D02*
X035709Y029996D01*
X035757Y029947D02*
X036499Y029947D01*
X036547Y029899D02*
X035806Y029899D01*
X035854Y029850D02*
X036596Y029850D01*
X036644Y029802D02*
X035903Y029802D01*
X035951Y029753D02*
X036693Y029753D01*
X036741Y029705D02*
X036000Y029705D01*
X036048Y029656D02*
X036790Y029656D01*
X036838Y029608D02*
X036097Y029608D01*
X036145Y029559D02*
X036887Y029559D01*
X036935Y029511D02*
X036194Y029511D01*
X036242Y029462D02*
X036984Y029462D01*
X037032Y029414D02*
X036291Y029414D01*
X036339Y029365D02*
X037081Y029365D01*
X037129Y029317D02*
X036388Y029317D01*
X036436Y029268D02*
X037178Y029268D01*
X037226Y029220D02*
X036485Y029220D01*
X036533Y029171D02*
X037275Y029171D01*
X037323Y029123D02*
X036582Y029123D01*
X036630Y029074D02*
X037372Y029074D01*
X037420Y029026D02*
X036679Y029026D01*
X036727Y028977D02*
X037469Y028977D01*
X037517Y028929D02*
X036776Y028929D01*
X036824Y028880D02*
X037566Y028880D01*
X037614Y028832D02*
X036873Y028832D01*
X036921Y028783D02*
X037663Y028783D01*
X037711Y028735D02*
X036970Y028735D01*
X037018Y028686D02*
X037760Y028686D01*
X037808Y028638D02*
X037067Y028638D01*
X037115Y028589D02*
X037857Y028589D01*
X037905Y028541D02*
X037164Y028541D01*
X037212Y028492D02*
X037954Y028492D01*
X038002Y028444D02*
X037261Y028444D01*
X037309Y028395D02*
X038051Y028395D01*
X038099Y028347D02*
X037358Y028347D01*
X037406Y028298D02*
X038148Y028298D01*
X038196Y028250D02*
X037455Y028250D01*
X037503Y028201D02*
X038245Y028201D01*
X038293Y028153D02*
X037552Y028153D01*
X037600Y028104D02*
X038342Y028104D01*
X038390Y028056D02*
X037649Y028056D01*
X037697Y028007D02*
X038439Y028007D01*
X038487Y027959D02*
X037715Y027959D01*
X037715Y027910D02*
X038536Y027910D01*
X038584Y027862D02*
X037715Y027862D01*
X037715Y027813D02*
X038633Y027813D01*
X038681Y027765D02*
X037715Y027765D01*
X037715Y027716D02*
X038730Y027716D01*
X038778Y027668D02*
X037715Y027668D01*
X037715Y027619D02*
X038827Y027619D01*
X038875Y027571D02*
X037715Y027571D01*
X037715Y027522D02*
X038924Y027522D01*
X038972Y027474D02*
X037715Y027474D01*
X037715Y027425D02*
X039021Y027425D01*
X039069Y027377D02*
X037715Y027377D01*
X037715Y027328D02*
X039118Y027328D01*
X039166Y027280D02*
X037715Y027280D01*
X037715Y027231D02*
X039215Y027231D01*
X039263Y027183D02*
X037715Y027183D01*
X037715Y027134D02*
X039285Y027134D01*
X039285Y027086D02*
X037715Y027086D01*
X037715Y027037D02*
X039285Y027037D01*
X039285Y026989D02*
X037715Y026989D01*
X037715Y026940D02*
X039285Y026940D01*
X039285Y026892D02*
X037715Y026892D01*
X037715Y026843D02*
X039285Y026843D01*
X039285Y026795D02*
X037715Y026795D01*
X037715Y026746D02*
X039285Y026746D01*
X039285Y026698D02*
X037715Y026698D01*
X037715Y026649D02*
X039285Y026649D01*
X039285Y026601D02*
X037715Y026601D01*
X037715Y026552D02*
X039285Y026552D01*
X039285Y026504D02*
X037715Y026504D01*
X037715Y026455D02*
X039285Y026455D01*
X039285Y026407D02*
X037715Y026407D01*
X037715Y026358D02*
X039285Y026358D01*
X039285Y026310D02*
X037715Y026310D01*
X037715Y026261D02*
X039285Y026261D01*
X039285Y026213D02*
X037715Y026213D01*
X037715Y026164D02*
X039285Y026164D01*
X039285Y026116D02*
X037715Y026116D01*
X037715Y026067D02*
X039285Y026067D01*
X039285Y026019D02*
X037715Y026019D01*
X037721Y025970D02*
X039279Y025970D01*
X039231Y025922D02*
X039171Y025922D01*
X038829Y025922D02*
X038171Y025922D01*
X038270Y025873D02*
X038730Y025873D01*
X038681Y025825D02*
X038319Y025825D01*
X038367Y025776D02*
X038633Y025776D01*
X038602Y025728D02*
X038398Y025728D01*
X038418Y025679D02*
X038582Y025679D01*
X038562Y025631D02*
X038438Y025631D01*
X038455Y025582D02*
X038545Y025582D01*
X038545Y025534D02*
X038455Y025534D01*
X038455Y025485D02*
X038545Y025485D01*
X038545Y025437D02*
X038455Y025437D01*
X038446Y025388D02*
X038554Y025388D01*
X038574Y025340D02*
X038426Y025340D01*
X038406Y025291D02*
X038594Y025291D01*
X038614Y025243D02*
X038386Y025243D01*
X038337Y025194D02*
X038663Y025194D01*
X038711Y025146D02*
X038289Y025146D01*
X037829Y025922D02*
X037769Y025922D01*
X039715Y025976D02*
X039715Y027339D01*
X033339Y033715D01*
X033261Y033715D01*
X033173Y033786D01*
X033126Y033833D01*
X032974Y033833D01*
X032927Y033786D01*
X032839Y033715D01*
X032500Y033715D01*
X032500Y035500D01*
X029000Y035500D01*
X029000Y036275D01*
X030098Y036275D01*
X030248Y036125D01*
X030844Y036125D01*
X030865Y036115D01*
X030873Y036118D01*
X030950Y036091D01*
X030974Y036067D01*
X031019Y036067D01*
X031038Y036060D01*
X031038Y036060D01*
X031038Y036060D01*
X031053Y036067D01*
X031126Y036067D01*
X031233Y036174D01*
X031233Y036326D01*
X031126Y036433D01*
X031053Y036433D01*
X031038Y036440D01*
X031019Y036433D01*
X030974Y036433D01*
X030950Y036409D01*
X030873Y036382D01*
X030865Y036385D01*
X030844Y036375D01*
X030352Y036375D01*
X030202Y036525D01*
X029000Y036525D01*
X029000Y036575D01*
X030832Y036575D01*
X030835Y036573D01*
X030843Y036573D01*
X030901Y036531D01*
X030931Y036510D01*
X030974Y036467D01*
X031126Y036467D01*
X031169Y036510D01*
X031184Y036520D01*
X031199Y036531D01*
X031199Y036531D01*
X031257Y036573D01*
X031265Y036573D01*
X031268Y036575D01*
X034298Y036575D01*
X034425Y036448D01*
X034498Y036375D01*
X035748Y036375D01*
X036566Y035557D01*
X036574Y035535D01*
X036581Y035532D01*
X036612Y035467D01*
X036617Y035458D01*
X036617Y035424D01*
X036648Y035392D01*
X036657Y035374D01*
X036672Y035369D01*
X036724Y035317D01*
X036876Y035317D01*
X036983Y035424D01*
X036983Y035576D01*
X036931Y035628D01*
X036926Y035643D01*
X036908Y035652D01*
X036876Y035683D01*
X036842Y035683D01*
X036768Y035719D01*
X036765Y035726D01*
X036743Y035734D01*
X035925Y036552D01*
X035852Y036625D01*
X034734Y036625D01*
X034783Y036674D01*
X034783Y036826D01*
X034734Y036875D01*
X036298Y036875D01*
X036350Y036823D01*
X036366Y036807D01*
X036374Y036785D01*
X036381Y036782D01*
X036412Y036717D01*
X036417Y036708D01*
X036417Y036674D01*
X036448Y036642D01*
X036457Y036624D01*
X036472Y036619D01*
X036524Y036567D01*
X036676Y036567D01*
X036783Y036674D01*
X036783Y036826D01*
X036731Y036878D01*
X036726Y036893D01*
X036708Y036902D01*
X036676Y036933D01*
X036642Y036933D01*
X036568Y036969D01*
X036565Y036976D01*
X036543Y036984D01*
X036527Y037000D01*
X036402Y037125D01*
X036268Y037125D01*
X036386Y037242D01*
X036455Y037409D01*
X036455Y037591D01*
X036386Y037758D01*
X036267Y037877D01*
X036733Y037877D01*
X036614Y037758D01*
X036545Y037591D01*
X036545Y037409D01*
X036614Y037242D01*
X036742Y037114D01*
X036909Y037045D01*
X037091Y037045D01*
X037258Y037114D01*
X037386Y037242D01*
X037455Y037409D01*
X037455Y037591D01*
X037386Y037758D01*
X037267Y037877D01*
X037733Y037877D01*
X037614Y037758D01*
X037545Y037591D01*
X037545Y037409D01*
X037614Y037242D01*
X037742Y037114D01*
X037909Y037045D01*
X038091Y037045D01*
X038258Y037114D01*
X038386Y037242D01*
X038455Y037409D01*
X038455Y037591D01*
X038386Y037758D01*
X038267Y037877D01*
X038733Y037877D01*
X038614Y037758D01*
X038545Y037591D01*
X038545Y037409D01*
X038614Y037242D01*
X038742Y037114D01*
X038909Y037045D01*
X039091Y037045D01*
X039258Y037114D01*
X039386Y037242D01*
X039455Y037409D01*
X039455Y037591D01*
X039386Y037758D01*
X039267Y037877D01*
X039712Y037877D01*
X039691Y037861D01*
X039639Y037809D01*
X039595Y037748D01*
X039561Y037682D01*
X039538Y037611D01*
X039526Y037537D01*
X039526Y037525D01*
X039975Y037525D01*
X039975Y037475D01*
X040025Y037475D01*
X040025Y037026D01*
X040037Y037026D01*
X040111Y037038D01*
X040182Y037061D01*
X040248Y037095D01*
X040309Y037139D01*
X040361Y037191D01*
X040377Y037212D01*
X040377Y025767D01*
X040258Y025886D01*
X040091Y025955D01*
X039909Y025955D01*
X039787Y025904D01*
X039715Y025976D01*
X039721Y025970D02*
X040377Y025970D01*
X040377Y025922D02*
X040171Y025922D01*
X040270Y025873D02*
X040377Y025873D01*
X040377Y025825D02*
X040319Y025825D01*
X040367Y025776D02*
X040377Y025776D01*
X040377Y026019D02*
X039715Y026019D01*
X039715Y026067D02*
X040377Y026067D01*
X040377Y026116D02*
X039715Y026116D01*
X039715Y026164D02*
X040377Y026164D01*
X040377Y026213D02*
X039715Y026213D01*
X039715Y026261D02*
X040377Y026261D01*
X040377Y026310D02*
X039715Y026310D01*
X039715Y026358D02*
X040377Y026358D01*
X040377Y026407D02*
X039715Y026407D01*
X039715Y026455D02*
X040377Y026455D01*
X040377Y026504D02*
X039715Y026504D01*
X039715Y026552D02*
X040377Y026552D01*
X040377Y026601D02*
X039715Y026601D01*
X039715Y026649D02*
X040377Y026649D01*
X040377Y026698D02*
X039715Y026698D01*
X039715Y026746D02*
X040377Y026746D01*
X040377Y026795D02*
X039715Y026795D01*
X039715Y026843D02*
X040377Y026843D01*
X040377Y026892D02*
X039715Y026892D01*
X039715Y026940D02*
X040377Y026940D01*
X040377Y026989D02*
X039715Y026989D01*
X039715Y027037D02*
X040377Y027037D01*
X040377Y027086D02*
X039715Y027086D01*
X039715Y027134D02*
X040377Y027134D01*
X040377Y027183D02*
X039715Y027183D01*
X039715Y027231D02*
X040377Y027231D01*
X040377Y027280D02*
X039715Y027280D01*
X039715Y027328D02*
X040377Y027328D01*
X040377Y027377D02*
X039678Y027377D01*
X039629Y027425D02*
X040377Y027425D01*
X040377Y027474D02*
X039581Y027474D01*
X039532Y027522D02*
X040377Y027522D01*
X040377Y027571D02*
X039484Y027571D01*
X039435Y027619D02*
X040377Y027619D01*
X040377Y027668D02*
X039387Y027668D01*
X039338Y027716D02*
X040377Y027716D01*
X040377Y027765D02*
X039290Y027765D01*
X039241Y027813D02*
X040377Y027813D01*
X040377Y027862D02*
X039193Y027862D01*
X039144Y027910D02*
X040377Y027910D01*
X040377Y027959D02*
X039096Y027959D01*
X039047Y028007D02*
X040377Y028007D01*
X040377Y028056D02*
X038999Y028056D01*
X038950Y028104D02*
X040377Y028104D01*
X040377Y028153D02*
X038902Y028153D01*
X038853Y028201D02*
X040377Y028201D01*
X040377Y028250D02*
X038805Y028250D01*
X038756Y028298D02*
X040377Y028298D01*
X040377Y028347D02*
X038708Y028347D01*
X038659Y028395D02*
X040377Y028395D01*
X040377Y028444D02*
X038611Y028444D01*
X038562Y028492D02*
X040377Y028492D01*
X040377Y028541D02*
X038514Y028541D01*
X038465Y028589D02*
X040377Y028589D01*
X040377Y028638D02*
X038417Y028638D01*
X038368Y028686D02*
X040377Y028686D01*
X040377Y028735D02*
X038320Y028735D01*
X038271Y028783D02*
X040377Y028783D01*
X040377Y028832D02*
X038223Y028832D01*
X038174Y028880D02*
X040377Y028880D01*
X040377Y028929D02*
X038126Y028929D01*
X038077Y028977D02*
X040377Y028977D01*
X040377Y029026D02*
X038029Y029026D01*
X037980Y029074D02*
X040377Y029074D01*
X040377Y029123D02*
X037932Y029123D01*
X037883Y029171D02*
X040377Y029171D01*
X040377Y029220D02*
X037835Y029220D01*
X037786Y029268D02*
X040377Y029268D01*
X040377Y029317D02*
X037738Y029317D01*
X037689Y029365D02*
X040377Y029365D01*
X040377Y029414D02*
X037641Y029414D01*
X037592Y029462D02*
X040377Y029462D01*
X040377Y029511D02*
X037544Y029511D01*
X037495Y029559D02*
X040377Y029559D01*
X040377Y029608D02*
X037447Y029608D01*
X037398Y029656D02*
X040377Y029656D01*
X040377Y029705D02*
X037350Y029705D01*
X037301Y029753D02*
X040377Y029753D01*
X040377Y029802D02*
X037253Y029802D01*
X037204Y029850D02*
X040377Y029850D01*
X040377Y029899D02*
X037156Y029899D01*
X037107Y029947D02*
X040377Y029947D01*
X040377Y029996D02*
X037059Y029996D01*
X037010Y030044D02*
X040377Y030044D01*
X040377Y030093D02*
X036962Y030093D01*
X036913Y030141D02*
X040377Y030141D01*
X040377Y030190D02*
X036865Y030190D01*
X036816Y030238D02*
X040377Y030238D01*
X040377Y030287D02*
X036768Y030287D01*
X036719Y030335D02*
X040377Y030335D01*
X040377Y030384D02*
X036671Y030384D01*
X036622Y030432D02*
X040377Y030432D01*
X040377Y030481D02*
X036574Y030481D01*
X036525Y030529D02*
X040377Y030529D01*
X040377Y030578D02*
X036477Y030578D01*
X036428Y030626D02*
X040377Y030626D01*
X040377Y030675D02*
X036380Y030675D01*
X036331Y030723D02*
X040377Y030723D01*
X040377Y030772D02*
X036283Y030772D01*
X036234Y030820D02*
X040377Y030820D01*
X040377Y030869D02*
X036186Y030869D01*
X036137Y030917D02*
X040377Y030917D01*
X040377Y030966D02*
X036089Y030966D01*
X036040Y031014D02*
X040377Y031014D01*
X040377Y031063D02*
X035992Y031063D01*
X035943Y031111D02*
X040377Y031111D01*
X040377Y031160D02*
X035895Y031160D01*
X035846Y031208D02*
X040377Y031208D01*
X040377Y031257D02*
X035798Y031257D01*
X035749Y031305D02*
X040377Y031305D01*
X040377Y031354D02*
X035701Y031354D01*
X035652Y031402D02*
X040377Y031402D01*
X040377Y031451D02*
X035604Y031451D01*
X035555Y031499D02*
X040377Y031499D01*
X040377Y031548D02*
X035507Y031548D01*
X035458Y031596D02*
X040377Y031596D01*
X040377Y031645D02*
X035410Y031645D01*
X035361Y031693D02*
X040377Y031693D01*
X040377Y031742D02*
X035313Y031742D01*
X035264Y031790D02*
X040377Y031790D01*
X040377Y031839D02*
X035216Y031839D01*
X035167Y031887D02*
X040377Y031887D01*
X040377Y031936D02*
X035119Y031936D01*
X035070Y031984D02*
X040377Y031984D01*
X040377Y032033D02*
X035022Y032033D01*
X034973Y032081D02*
X040377Y032081D01*
X040377Y032130D02*
X034925Y032130D01*
X034876Y032178D02*
X040377Y032178D01*
X040377Y032227D02*
X034828Y032227D01*
X034779Y032275D02*
X040377Y032275D01*
X040377Y032324D02*
X034731Y032324D01*
X034682Y032372D02*
X040377Y032372D01*
X040377Y032421D02*
X034634Y032421D01*
X034585Y032469D02*
X040377Y032469D01*
X040377Y032518D02*
X034537Y032518D01*
X034488Y032566D02*
X040377Y032566D01*
X040377Y032615D02*
X034440Y032615D01*
X034391Y032663D02*
X040377Y032663D01*
X040377Y032712D02*
X034343Y032712D01*
X034294Y032760D02*
X040377Y032760D01*
X040377Y032809D02*
X034246Y032809D01*
X034197Y032857D02*
X040377Y032857D01*
X040377Y032906D02*
X034149Y032906D01*
X034100Y032954D02*
X040377Y032954D01*
X040377Y033003D02*
X034052Y033003D01*
X034003Y033051D02*
X040377Y033051D01*
X040377Y033100D02*
X033955Y033100D01*
X033906Y033148D02*
X040377Y033148D01*
X040377Y033197D02*
X033858Y033197D01*
X033809Y033245D02*
X040377Y033245D01*
X040377Y033294D02*
X033761Y033294D01*
X033712Y033342D02*
X040377Y033342D01*
X040377Y033391D02*
X033664Y033391D01*
X033615Y033439D02*
X040377Y033439D01*
X040377Y033488D02*
X033567Y033488D01*
X033518Y033536D02*
X040377Y033536D01*
X040377Y033585D02*
X033470Y033585D01*
X033421Y033633D02*
X040377Y033633D01*
X040377Y033682D02*
X033373Y033682D01*
X033242Y033730D02*
X040377Y033730D01*
X040377Y033779D02*
X033183Y033779D01*
X033132Y033827D02*
X040377Y033827D01*
X040377Y033876D02*
X032500Y033876D01*
X032500Y033924D02*
X040377Y033924D01*
X040377Y033973D02*
X032500Y033973D01*
X032500Y034021D02*
X040377Y034021D01*
X040377Y034070D02*
X032500Y034070D01*
X032500Y034118D02*
X040377Y034118D01*
X040377Y034167D02*
X032500Y034167D01*
X032500Y034215D02*
X040377Y034215D01*
X040377Y034264D02*
X032500Y034264D01*
X032500Y034312D02*
X040377Y034312D01*
X040377Y034361D02*
X032500Y034361D01*
X032500Y034409D02*
X040377Y034409D01*
X040377Y034458D02*
X032500Y034458D01*
X032500Y034506D02*
X040377Y034506D01*
X040377Y034555D02*
X032500Y034555D01*
X032500Y034603D02*
X040377Y034603D01*
X040377Y034652D02*
X032500Y034652D01*
X032500Y034700D02*
X040377Y034700D01*
X040377Y034749D02*
X032500Y034749D01*
X032500Y034797D02*
X040377Y034797D01*
X040377Y034846D02*
X032500Y034846D01*
X032500Y034894D02*
X040377Y034894D01*
X040377Y034943D02*
X032500Y034943D01*
X032500Y034991D02*
X040377Y034991D01*
X040377Y035040D02*
X032500Y035040D01*
X032500Y035088D02*
X040377Y035088D01*
X040377Y035137D02*
X032500Y035137D01*
X032500Y035185D02*
X040377Y035185D01*
X040377Y035234D02*
X032500Y035234D01*
X032500Y035282D02*
X040377Y035282D01*
X040377Y035331D02*
X036890Y035331D01*
X036938Y035379D02*
X040377Y035379D01*
X040377Y035428D02*
X036983Y035428D01*
X036983Y035476D02*
X040377Y035476D01*
X040377Y035525D02*
X036983Y035525D01*
X036983Y035573D02*
X040377Y035573D01*
X040377Y035622D02*
X036938Y035622D01*
X036926Y035643D02*
X036926Y035643D01*
X036926Y035643D01*
X036889Y035670D02*
X040377Y035670D01*
X040377Y035719D02*
X036769Y035719D01*
X036710Y035767D02*
X040377Y035767D01*
X040377Y035816D02*
X036661Y035816D01*
X036613Y035864D02*
X040377Y035864D01*
X040377Y035913D02*
X036564Y035913D01*
X036516Y035961D02*
X040377Y035961D01*
X040377Y036010D02*
X036467Y036010D01*
X036419Y036058D02*
X040377Y036058D01*
X040377Y036107D02*
X036370Y036107D01*
X036322Y036155D02*
X040377Y036155D01*
X040377Y036204D02*
X036273Y036204D01*
X036225Y036252D02*
X040377Y036252D01*
X040377Y036301D02*
X036176Y036301D01*
X036128Y036349D02*
X040377Y036349D01*
X040377Y036398D02*
X036079Y036398D01*
X036031Y036446D02*
X040377Y036446D01*
X040377Y036495D02*
X035982Y036495D01*
X035934Y036543D02*
X040377Y036543D01*
X040377Y036592D02*
X036701Y036592D01*
X036749Y036640D02*
X040377Y036640D01*
X040377Y036689D02*
X036783Y036689D01*
X036783Y036737D02*
X040377Y036737D01*
X040377Y036786D02*
X036783Y036786D01*
X036775Y036834D02*
X040377Y036834D01*
X040377Y036883D02*
X036730Y036883D01*
X036726Y036893D02*
X036726Y036893D01*
X036726Y036893D01*
X036678Y036931D02*
X040377Y036931D01*
X040377Y036980D02*
X036555Y036980D01*
X036499Y037028D02*
X039951Y037028D01*
X039963Y037026D02*
X039975Y037026D01*
X039975Y037475D01*
X039526Y037475D01*
X039526Y037463D01*
X039538Y037389D01*
X039561Y037318D01*
X039595Y037252D01*
X039639Y037191D01*
X039691Y037139D01*
X039752Y037095D01*
X039818Y037061D01*
X039889Y037038D01*
X039963Y037026D01*
X039975Y037028D02*
X040025Y037028D01*
X040049Y037028D02*
X040377Y037028D01*
X040377Y037077D02*
X040212Y037077D01*
X040290Y037125D02*
X040377Y037125D01*
X040377Y037174D02*
X040344Y037174D01*
X040025Y037174D02*
X039975Y037174D01*
X039975Y037222D02*
X040025Y037222D01*
X040025Y037271D02*
X039975Y037271D01*
X039975Y037319D02*
X040025Y037319D01*
X040025Y037368D02*
X039975Y037368D01*
X039975Y037416D02*
X040025Y037416D01*
X040025Y037465D02*
X039975Y037465D01*
X039975Y037513D02*
X039455Y037513D01*
X039455Y037465D02*
X039526Y037465D01*
X039534Y037416D02*
X039455Y037416D01*
X039438Y037368D02*
X039545Y037368D01*
X039561Y037319D02*
X039418Y037319D01*
X039397Y037271D02*
X039585Y037271D01*
X039616Y037222D02*
X039366Y037222D01*
X039317Y037174D02*
X039656Y037174D01*
X039710Y037125D02*
X039269Y037125D01*
X039167Y037077D02*
X039788Y037077D01*
X039975Y037077D02*
X040025Y037077D01*
X040025Y037125D02*
X039975Y037125D01*
X039530Y037562D02*
X039455Y037562D01*
X039447Y037610D02*
X039538Y037610D01*
X039553Y037659D02*
X039427Y037659D01*
X039407Y037707D02*
X039574Y037707D01*
X039600Y037756D02*
X039387Y037756D01*
X039339Y037804D02*
X039635Y037804D01*
X039683Y037853D02*
X039291Y037853D01*
X038709Y037853D02*
X038291Y037853D01*
X038339Y037804D02*
X038661Y037804D01*
X038613Y037756D02*
X038387Y037756D01*
X038407Y037707D02*
X038593Y037707D01*
X038573Y037659D02*
X038427Y037659D01*
X038447Y037610D02*
X038553Y037610D01*
X038545Y037562D02*
X038455Y037562D01*
X038455Y037513D02*
X038545Y037513D01*
X038545Y037465D02*
X038455Y037465D01*
X038455Y037416D02*
X038545Y037416D01*
X038562Y037368D02*
X038438Y037368D01*
X038418Y037319D02*
X038582Y037319D01*
X038603Y037271D02*
X038397Y037271D01*
X038366Y037222D02*
X038634Y037222D01*
X038683Y037174D02*
X038317Y037174D01*
X038269Y037125D02*
X038731Y037125D01*
X038833Y037077D02*
X038167Y037077D01*
X037833Y037077D02*
X037167Y037077D01*
X037269Y037125D02*
X037731Y037125D01*
X037683Y037174D02*
X037317Y037174D01*
X037366Y037222D02*
X037634Y037222D01*
X037603Y037271D02*
X037397Y037271D01*
X037418Y037319D02*
X037582Y037319D01*
X037562Y037368D02*
X037438Y037368D01*
X037455Y037416D02*
X037545Y037416D01*
X037545Y037465D02*
X037455Y037465D01*
X037455Y037513D02*
X037545Y037513D01*
X037545Y037562D02*
X037455Y037562D01*
X037447Y037610D02*
X037553Y037610D01*
X037573Y037659D02*
X037427Y037659D01*
X037407Y037707D02*
X037593Y037707D01*
X037613Y037756D02*
X037387Y037756D01*
X037339Y037804D02*
X037661Y037804D01*
X037709Y037853D02*
X037291Y037853D01*
X036709Y037853D02*
X036291Y037853D01*
X036339Y037804D02*
X036661Y037804D01*
X036613Y037756D02*
X036387Y037756D01*
X036407Y037707D02*
X036593Y037707D01*
X036573Y037659D02*
X036427Y037659D01*
X036447Y037610D02*
X036553Y037610D01*
X036545Y037562D02*
X036455Y037562D01*
X036455Y037513D02*
X036545Y037513D01*
X036545Y037465D02*
X036455Y037465D01*
X036455Y037416D02*
X036545Y037416D01*
X036562Y037368D02*
X036438Y037368D01*
X036418Y037319D02*
X036582Y037319D01*
X036603Y037271D02*
X036397Y037271D01*
X036366Y037222D02*
X036634Y037222D01*
X036683Y037174D02*
X036317Y037174D01*
X036269Y037125D02*
X036731Y037125D01*
X036833Y037077D02*
X036450Y037077D01*
X036339Y036834D02*
X034775Y036834D01*
X034783Y036786D02*
X036374Y036786D01*
X036403Y036737D02*
X034783Y036737D01*
X034783Y036689D02*
X036417Y036689D01*
X036412Y036717D02*
X036412Y036717D01*
X036449Y036640D02*
X034749Y036640D01*
X034476Y036398D02*
X033412Y036398D01*
X033376Y036433D02*
X033303Y036433D01*
X033288Y036440D01*
X033269Y036433D01*
X033224Y036433D01*
X033200Y036409D01*
X033123Y036382D01*
X033115Y036385D01*
X033094Y036375D01*
X032656Y036375D01*
X032635Y036385D01*
X032627Y036382D01*
X032550Y036409D01*
X032526Y036433D01*
X032481Y036433D01*
X032462Y036440D01*
X032462Y036440D01*
X032462Y036440D01*
X032447Y036433D01*
X032374Y036433D01*
X032267Y036326D01*
X032267Y036174D01*
X032374Y036067D01*
X032447Y036067D01*
X032462Y036060D01*
X032470Y036063D01*
X032481Y036067D01*
X032526Y036067D01*
X032550Y036091D01*
X032627Y036118D01*
X032635Y036115D01*
X032656Y036125D01*
X033094Y036125D01*
X033115Y036115D01*
X033123Y036118D01*
X033200Y036091D01*
X033224Y036067D01*
X033269Y036067D01*
X033288Y036060D01*
X033288Y036060D01*
X033288Y036060D01*
X033303Y036067D01*
X033376Y036067D01*
X033483Y036174D01*
X033483Y036326D01*
X033376Y036433D01*
X033288Y036440D02*
X033288Y036440D01*
X033288Y036440D01*
X033166Y036398D02*
X032584Y036398D01*
X032338Y036398D02*
X031162Y036398D01*
X031210Y036349D02*
X032290Y036349D01*
X032267Y036301D02*
X031233Y036301D01*
X031233Y036252D02*
X032267Y036252D01*
X032267Y036204D02*
X031233Y036204D01*
X031214Y036155D02*
X032286Y036155D01*
X032334Y036107D02*
X031166Y036107D01*
X030904Y036107D02*
X029000Y036107D01*
X029000Y036155D02*
X030218Y036155D01*
X030170Y036204D02*
X029000Y036204D01*
X029000Y036252D02*
X030121Y036252D01*
X030281Y036446D02*
X034427Y036446D01*
X034379Y036495D02*
X031154Y036495D01*
X031216Y036543D02*
X034330Y036543D01*
X033483Y036301D02*
X035823Y036301D01*
X035774Y036349D02*
X033460Y036349D01*
X033483Y036252D02*
X035871Y036252D01*
X035920Y036204D02*
X033483Y036204D01*
X033464Y036155D02*
X035968Y036155D01*
X036017Y036107D02*
X033416Y036107D01*
X033154Y036107D02*
X032596Y036107D01*
X032500Y035476D02*
X036608Y035476D01*
X036612Y035467D02*
X036612Y035467D01*
X036617Y035428D02*
X032500Y035428D01*
X032500Y035379D02*
X036655Y035379D01*
X036710Y035331D02*
X032500Y035331D01*
X031038Y036440D02*
X031038Y036440D01*
X031038Y036440D01*
X030946Y036495D02*
X030232Y036495D01*
X030329Y036398D02*
X030916Y036398D01*
X030901Y036531D02*
X030901Y036531D01*
X030884Y036543D02*
X029000Y036543D01*
X029000Y036058D02*
X036065Y036058D01*
X036114Y036010D02*
X029000Y036010D01*
X029000Y035961D02*
X036162Y035961D01*
X036211Y035913D02*
X029000Y035913D01*
X029000Y035864D02*
X036259Y035864D01*
X036308Y035816D02*
X029000Y035816D01*
X029000Y035767D02*
X036356Y035767D01*
X036405Y035719D02*
X029000Y035719D01*
X029000Y035670D02*
X036453Y035670D01*
X036502Y035622D02*
X029000Y035622D01*
X029000Y035573D02*
X036550Y035573D01*
X036585Y035525D02*
X029000Y035525D01*
X032500Y033827D02*
X032968Y033827D01*
X032917Y033779D02*
X032500Y033779D01*
X032500Y033730D02*
X032858Y033730D01*
X032888Y033245D02*
X032500Y033245D01*
X032500Y033197D02*
X032944Y033197D01*
X033156Y033197D02*
X033249Y033197D01*
X033298Y033148D02*
X032500Y033148D01*
X032500Y033100D02*
X033346Y033100D01*
X033395Y033051D02*
X032500Y033051D01*
X032500Y033003D02*
X033443Y033003D01*
X033492Y032954D02*
X032500Y032954D01*
X032500Y032906D02*
X033540Y032906D01*
X033589Y032857D02*
X032500Y032857D01*
X032500Y032809D02*
X033637Y032809D01*
X033686Y032760D02*
X032500Y032760D01*
X032500Y032712D02*
X033734Y032712D01*
X033783Y032663D02*
X032500Y032663D01*
X032500Y032615D02*
X033831Y032615D01*
X033880Y032566D02*
X032500Y032566D01*
X032500Y032518D02*
X033928Y032518D01*
X033257Y031839D02*
X033148Y031839D01*
X033202Y031887D02*
X033209Y031887D01*
X032898Y031063D02*
X032592Y031063D01*
X032500Y030578D02*
X032848Y030578D01*
X032908Y030529D02*
X032500Y030529D01*
X032500Y030481D02*
X032960Y030481D01*
X033140Y030481D02*
X033265Y030481D01*
X033217Y030529D02*
X033192Y030529D01*
X033314Y030432D02*
X032500Y030432D01*
X032500Y030384D02*
X033362Y030384D01*
X033411Y030335D02*
X032500Y030335D01*
X032500Y030287D02*
X033459Y030287D01*
X033508Y030238D02*
X032500Y030238D01*
X032500Y030190D02*
X033556Y030190D01*
X033605Y030141D02*
X032500Y030141D01*
X032500Y030093D02*
X033653Y030093D01*
X033702Y030044D02*
X032500Y030044D01*
X032500Y029996D02*
X033750Y029996D01*
X033799Y029947D02*
X032500Y029947D01*
X032500Y029899D02*
X033847Y029899D01*
X033896Y029850D02*
X032500Y029850D01*
X032500Y029802D02*
X033944Y029802D01*
X030784Y025922D02*
X030171Y025922D01*
X030270Y025873D02*
X030707Y025873D01*
X030655Y025825D02*
X030319Y025825D01*
X030367Y025776D02*
X030615Y025776D01*
X030584Y025728D02*
X030398Y025728D01*
X030418Y025679D02*
X030560Y025679D01*
X030544Y025631D02*
X030438Y025631D01*
X030455Y025582D02*
X030533Y025582D01*
X030526Y025534D02*
X030455Y025534D01*
X039769Y025922D02*
X039829Y025922D01*
X036499Y036592D02*
X035885Y036592D01*
X035925Y036552D02*
X035925Y036552D01*
D16*
X036600Y036750D03*
X034600Y036750D03*
X033300Y036250D03*
X032450Y036250D03*
X031050Y036250D03*
X031050Y036650D03*
X029950Y036050D03*
X029700Y036200D03*
X029500Y036000D03*
X029200Y035600D03*
X033050Y033650D03*
X033050Y033350D03*
X033500Y034000D03*
X033500Y035000D03*
X034500Y035000D03*
X035500Y035000D03*
X036500Y035000D03*
X036800Y035500D03*
X037500Y035000D03*
X038500Y035000D03*
X039500Y035000D03*
X039500Y034000D03*
X039500Y033000D03*
X038500Y033000D03*
X038500Y034000D03*
X037500Y034000D03*
X037500Y033000D03*
X037500Y032000D03*
X038500Y032000D03*
X039500Y032000D03*
X039500Y031000D03*
X038500Y031000D03*
X037500Y031000D03*
X037500Y030000D03*
X038500Y030000D03*
X039500Y030000D03*
X039500Y029000D03*
X038500Y029000D03*
X039500Y028000D03*
X038500Y027000D03*
X038500Y026000D03*
X036500Y026000D03*
X036500Y027000D03*
X035500Y027000D03*
X035500Y028000D03*
X036500Y028000D03*
X035500Y029000D03*
X033500Y028000D03*
X033500Y027000D03*
X033500Y026000D03*
X031500Y026000D03*
X031500Y027000D03*
X030500Y027000D03*
X029850Y026950D03*
X029600Y026700D03*
X030500Y026000D03*
X033050Y029300D03*
X033050Y029600D03*
X033050Y030650D03*
X033050Y030950D03*
X033050Y032000D03*
X033050Y032300D03*
X034500Y033000D03*
X034500Y034000D03*
X035500Y034000D03*
X035500Y033000D03*
X036500Y033000D03*
X036500Y034000D03*
X036500Y032000D03*
X035500Y032000D03*
X036500Y031000D03*
X039500Y036000D03*
D17*
X036825Y035553D02*
X036800Y035500D01*
X036747Y035475D01*
X036675Y035625D01*
X036825Y035553D01*
X036800Y035500D02*
X036675Y035625D01*
X035800Y036500D01*
X034550Y036500D01*
X034350Y036700D01*
X031220Y036700D01*
X031084Y036603D01*
X031050Y036650D01*
X031053Y036708D01*
X031220Y036700D01*
X031100Y036700D01*
X031050Y036650D01*
X031047Y036708D01*
X030880Y036700D01*
X031016Y036603D01*
X031050Y036650D01*
X031000Y036700D01*
X030880Y036700D01*
X027400Y036700D01*
X025550Y034850D01*
X025050Y034850D01*
X024300Y034100D01*
X024300Y032200D01*
X025000Y031500D01*
X026207Y031500D01*
X026606Y031100D01*
X026207Y030700D02*
X025800Y030700D01*
X025550Y030950D01*
X025550Y031100D01*
X025450Y031200D01*
X024900Y031200D01*
X024000Y032100D01*
X024000Y034200D01*
X024950Y035150D01*
X025450Y035150D01*
X027300Y037000D01*
X036350Y037000D01*
X036475Y036875D01*
X036625Y036803D01*
X036600Y036750D01*
X036547Y036725D01*
X036475Y036875D01*
X036600Y036750D01*
X034615Y036806D02*
X034600Y036750D01*
X034553Y036715D01*
X034454Y036850D01*
X034615Y036806D01*
X034600Y036750D02*
X034500Y036850D01*
X034454Y036850D01*
X027350Y036850D01*
X025500Y035000D01*
X025000Y035000D01*
X024150Y034150D01*
X024150Y032150D01*
X024950Y031350D01*
X025648Y031350D01*
X025898Y031100D01*
X026207Y030700D02*
X026606Y030301D01*
X026606Y031900D02*
X025898Y031900D01*
X025648Y031650D01*
X025050Y031650D01*
X024450Y032250D01*
X024450Y034050D01*
X025100Y034700D01*
X025600Y034700D01*
X027450Y036550D01*
X030700Y036550D01*
X030873Y036250D02*
X030300Y036250D01*
X030150Y036400D01*
X027500Y036400D01*
X025650Y034550D01*
X025150Y034550D01*
X024600Y034000D01*
X024600Y032300D01*
X025100Y031800D01*
X025450Y031800D01*
X025550Y031900D01*
X025550Y032351D01*
X025898Y032699D01*
X026606Y032699D01*
X030873Y036250D02*
X031031Y036305D01*
X031050Y036250D01*
X031031Y036195D01*
X030873Y036250D01*
X031050Y036250D01*
X032450Y036250D02*
X032469Y036195D01*
X032627Y036250D01*
X032469Y036305D01*
X032450Y036250D01*
X032627Y036250D01*
X033123Y036250D01*
X033281Y036305D01*
X033300Y036250D01*
X033281Y036195D01*
X033123Y036250D01*
X033300Y036250D01*
D18*
X033081Y033688D02*
X033050Y033650D01*
X033044Y033602D01*
X033213Y033580D01*
X033081Y033688D01*
X033050Y033650D02*
X033019Y033688D01*
X032887Y033580D01*
X033056Y033602D01*
X033050Y033650D01*
X033050Y033580D01*
X033213Y033580D01*
X033283Y033580D01*
X039580Y027283D01*
X039580Y025920D01*
X040000Y025500D01*
X039420Y025920D02*
X039420Y027217D01*
X033217Y033420D01*
X033213Y033420D01*
X033081Y033312D01*
X033050Y033350D01*
X033044Y033398D01*
X033213Y033420D01*
X033050Y033420D01*
X033050Y033350D01*
X033056Y033398D01*
X032887Y033420D01*
X033019Y033312D01*
X033050Y033350D01*
X033050Y033420D02*
X032887Y033420D01*
X029133Y033420D01*
X028930Y033217D01*
X028930Y032379D01*
X028850Y032299D01*
X028740Y031950D02*
X028500Y032190D01*
X028500Y032450D01*
X028770Y032720D01*
X028770Y033283D01*
X029067Y033580D01*
X032887Y033580D01*
X033050Y033580D01*
X033019Y032338D02*
X032887Y032230D01*
X033056Y032252D01*
X033050Y032300D01*
X033044Y032252D01*
X033213Y032230D01*
X033081Y032338D01*
X033050Y032300D01*
X033019Y032338D01*
X033050Y032300D02*
X033050Y032230D01*
X033213Y032230D01*
X033283Y032230D01*
X037580Y027933D01*
X037580Y025920D01*
X038000Y025500D01*
X037420Y025920D02*
X037420Y027867D01*
X033217Y032070D01*
X033213Y032070D01*
X033081Y031962D01*
X033050Y032000D01*
X033044Y032048D01*
X033213Y032070D01*
X033050Y032070D01*
X033050Y032000D01*
X033056Y032048D01*
X032887Y032070D01*
X033019Y031962D01*
X033050Y032000D01*
X033050Y032070D02*
X032887Y032070D01*
X032683Y032070D01*
X032133Y031520D01*
X027717Y031520D01*
X027350Y031886D01*
X027350Y032799D01*
X027520Y032457D02*
X027520Y031943D01*
X027783Y031680D01*
X032067Y031680D01*
X032617Y032230D01*
X032887Y032230D01*
X033050Y032230D01*
X033019Y030988D02*
X032887Y030880D01*
X033056Y030902D01*
X033050Y030950D01*
X033044Y030902D01*
X033213Y030880D01*
X033081Y030988D01*
X033050Y030950D01*
X033019Y030988D01*
X033050Y030950D02*
X033050Y030880D01*
X033213Y030880D01*
X033283Y030880D01*
X034580Y029583D01*
X034580Y025920D01*
X035000Y025500D01*
X034420Y025920D02*
X034420Y029517D01*
X033217Y030720D01*
X033213Y030720D01*
X033081Y030612D01*
X033050Y030650D01*
X033044Y030698D01*
X033213Y030720D01*
X033050Y030720D01*
X033050Y030650D01*
X033056Y030698D01*
X032887Y030720D01*
X033019Y030612D01*
X033050Y030650D01*
X033050Y030720D02*
X032887Y030720D01*
X032517Y030720D01*
X032117Y031120D01*
X027783Y031120D01*
X027350Y030687D01*
X027350Y030201D01*
X027220Y029870D02*
X027020Y030070D01*
X027020Y030583D01*
X027717Y031280D01*
X032183Y031280D01*
X032583Y030880D01*
X032887Y030880D01*
X033050Y030880D01*
X033019Y029638D02*
X032887Y029530D01*
X033056Y029552D01*
X033050Y029600D01*
X033026Y029558D01*
X033175Y029475D01*
X033092Y029624D01*
X033050Y029600D01*
X033019Y029638D01*
X033050Y029600D02*
X033175Y029475D01*
X033260Y029390D01*
X033260Y029210D01*
X033257Y029207D01*
X033257Y027143D01*
X032580Y026467D01*
X032580Y025920D01*
X033000Y025500D01*
X032420Y025920D02*
X032420Y026533D01*
X033093Y027207D01*
X033093Y029128D01*
X033008Y029276D01*
X033050Y029300D01*
X033098Y029299D01*
X033093Y029128D01*
X033093Y029257D01*
X033050Y029300D01*
X033056Y029348D01*
X032887Y029370D01*
X033019Y029262D01*
X033050Y029300D01*
X032980Y029370D01*
X032887Y029370D01*
X030467Y029370D01*
X029680Y030157D01*
X029680Y030357D01*
X029336Y030701D01*
X028850Y030701D01*
X028350Y030201D02*
X028350Y030200D01*
X027810Y030200D01*
X027480Y029870D01*
X027220Y029870D01*
X029850Y030213D02*
X030533Y029530D01*
X032887Y029530D01*
X032980Y029530D01*
X033050Y029600D01*
X029850Y030213D02*
X029850Y030701D01*
X029501Y031950D02*
X028740Y031950D01*
X029501Y031950D02*
X029850Y032299D01*
X028350Y032799D02*
X027862Y032799D01*
X027520Y032457D01*
X032420Y025920D02*
X032000Y025500D01*
X034000Y025500D02*
X034420Y025920D01*
X037000Y025500D02*
X037420Y025920D01*
X039000Y025500D02*
X039420Y025920D01*
D19*
X029988Y028150D02*
X023701Y028150D01*
M02*
