G75*
%MOIN*%
%OFA0B0*%
%FSLAX24Y24*%
%IPPOS*%
%LPD*%
%AMOC8*
5,1,8,0,0,1.08239X$1,22.5*
%
%ADD10C,0.0000*%
%ADD11R,0.0200X0.0200*%
%ADD12R,0.0740X0.0740*%
%ADD13C,0.0740*%
%ADD14R,0.0400X0.0400*%
%ADD15R,0.0350X0.0250*%
%ADD16R,0.0250X0.0350*%
%ADD17R,0.0450X0.0700*%
%ADD18C,0.0420*%
%ADD19C,0.0756*%
%ADD20C,0.0100*%
%ADD21C,0.0050*%
%ADD22C,0.0197*%
%ADD23C,0.0200*%
%ADD24C,0.0400*%
%ADD25C,0.0080*%
D10*
X022500Y025000D02*
X022500Y038000D01*
X040500Y038000D01*
X040500Y025000D01*
X022500Y025000D01*
X024860Y029250D02*
X024862Y029300D01*
X024868Y029350D01*
X024878Y029399D01*
X024891Y029448D01*
X024909Y029495D01*
X024930Y029541D01*
X024954Y029584D01*
X024982Y029626D01*
X025013Y029666D01*
X025047Y029703D01*
X025084Y029737D01*
X025124Y029768D01*
X025166Y029796D01*
X025209Y029820D01*
X025255Y029841D01*
X025302Y029859D01*
X025351Y029872D01*
X025400Y029882D01*
X025450Y029888D01*
X025500Y029890D01*
X025550Y029888D01*
X025600Y029882D01*
X025649Y029872D01*
X025698Y029859D01*
X025745Y029841D01*
X025791Y029820D01*
X025834Y029796D01*
X025876Y029768D01*
X025916Y029737D01*
X025953Y029703D01*
X025987Y029666D01*
X026018Y029626D01*
X026046Y029584D01*
X026070Y029541D01*
X026091Y029495D01*
X026109Y029448D01*
X026122Y029399D01*
X026132Y029350D01*
X026138Y029300D01*
X026140Y029250D01*
X026138Y029200D01*
X026132Y029150D01*
X026122Y029101D01*
X026109Y029052D01*
X026091Y029005D01*
X026070Y028959D01*
X026046Y028916D01*
X026018Y028874D01*
X025987Y028834D01*
X025953Y028797D01*
X025916Y028763D01*
X025876Y028732D01*
X025834Y028704D01*
X025791Y028680D01*
X025745Y028659D01*
X025698Y028641D01*
X025649Y028628D01*
X025600Y028618D01*
X025550Y028612D01*
X025500Y028610D01*
X025450Y028612D01*
X025400Y028618D01*
X025351Y028628D01*
X025302Y028641D01*
X025255Y028659D01*
X025209Y028680D01*
X025166Y028704D01*
X025124Y028732D01*
X025084Y028763D01*
X025047Y028797D01*
X025013Y028834D01*
X024982Y028874D01*
X024954Y028916D01*
X024930Y028959D01*
X024909Y029005D01*
X024891Y029052D01*
X024878Y029101D01*
X024868Y029150D01*
X024862Y029200D01*
X024860Y029250D01*
X024860Y033750D02*
X024862Y033800D01*
X024868Y033850D01*
X024878Y033899D01*
X024891Y033948D01*
X024909Y033995D01*
X024930Y034041D01*
X024954Y034084D01*
X024982Y034126D01*
X025013Y034166D01*
X025047Y034203D01*
X025084Y034237D01*
X025124Y034268D01*
X025166Y034296D01*
X025209Y034320D01*
X025255Y034341D01*
X025302Y034359D01*
X025351Y034372D01*
X025400Y034382D01*
X025450Y034388D01*
X025500Y034390D01*
X025550Y034388D01*
X025600Y034382D01*
X025649Y034372D01*
X025698Y034359D01*
X025745Y034341D01*
X025791Y034320D01*
X025834Y034296D01*
X025876Y034268D01*
X025916Y034237D01*
X025953Y034203D01*
X025987Y034166D01*
X026018Y034126D01*
X026046Y034084D01*
X026070Y034041D01*
X026091Y033995D01*
X026109Y033948D01*
X026122Y033899D01*
X026132Y033850D01*
X026138Y033800D01*
X026140Y033750D01*
X026138Y033700D01*
X026132Y033650D01*
X026122Y033601D01*
X026109Y033552D01*
X026091Y033505D01*
X026070Y033459D01*
X026046Y033416D01*
X026018Y033374D01*
X025987Y033334D01*
X025953Y033297D01*
X025916Y033263D01*
X025876Y033232D01*
X025834Y033204D01*
X025791Y033180D01*
X025745Y033159D01*
X025698Y033141D01*
X025649Y033128D01*
X025600Y033118D01*
X025550Y033112D01*
X025500Y033110D01*
X025450Y033112D01*
X025400Y033118D01*
X025351Y033128D01*
X025302Y033141D01*
X025255Y033159D01*
X025209Y033180D01*
X025166Y033204D01*
X025124Y033232D01*
X025084Y033263D01*
X025047Y033297D01*
X025013Y033334D01*
X024982Y033374D01*
X024954Y033416D01*
X024930Y033459D01*
X024909Y033505D01*
X024891Y033552D01*
X024878Y033601D01*
X024868Y033650D01*
X024862Y033700D01*
X024860Y033750D01*
X024370Y036200D02*
X024372Y036250D01*
X024378Y036300D01*
X024388Y036349D01*
X024402Y036397D01*
X024419Y036444D01*
X024440Y036489D01*
X024465Y036533D01*
X024493Y036574D01*
X024525Y036613D01*
X024559Y036650D01*
X024596Y036684D01*
X024636Y036714D01*
X024678Y036741D01*
X024722Y036765D01*
X024768Y036786D01*
X024815Y036802D01*
X024863Y036815D01*
X024913Y036824D01*
X024962Y036829D01*
X025013Y036830D01*
X025063Y036827D01*
X025112Y036820D01*
X025161Y036809D01*
X025209Y036794D01*
X025255Y036776D01*
X025300Y036754D01*
X025343Y036728D01*
X025384Y036699D01*
X025423Y036667D01*
X025459Y036632D01*
X025491Y036594D01*
X025521Y036554D01*
X025548Y036511D01*
X025571Y036467D01*
X025590Y036421D01*
X025606Y036373D01*
X025618Y036324D01*
X025626Y036275D01*
X025630Y036225D01*
X025630Y036175D01*
X025626Y036125D01*
X025618Y036076D01*
X025606Y036027D01*
X025590Y035979D01*
X025571Y035933D01*
X025548Y035889D01*
X025521Y035846D01*
X025491Y035806D01*
X025459Y035768D01*
X025423Y035733D01*
X025384Y035701D01*
X025343Y035672D01*
X025300Y035646D01*
X025255Y035624D01*
X025209Y035606D01*
X025161Y035591D01*
X025112Y035580D01*
X025063Y035573D01*
X025013Y035570D01*
X024962Y035571D01*
X024913Y035576D01*
X024863Y035585D01*
X024815Y035598D01*
X024768Y035614D01*
X024722Y035635D01*
X024678Y035659D01*
X024636Y035686D01*
X024596Y035716D01*
X024559Y035750D01*
X024525Y035787D01*
X024493Y035826D01*
X024465Y035867D01*
X024440Y035911D01*
X024419Y035956D01*
X024402Y036003D01*
X024388Y036051D01*
X024378Y036100D01*
X024372Y036150D01*
X024370Y036200D01*
D11*
X024000Y036150D03*
X024000Y036450D03*
X025950Y036900D03*
X026250Y036900D03*
X026300Y036450D03*
X026300Y036150D03*
X033150Y033700D03*
X033450Y033700D03*
X033450Y033300D03*
X033150Y033300D03*
X033900Y033350D03*
X033900Y033650D03*
X033900Y032300D03*
X033900Y032000D03*
X033450Y031950D03*
X033150Y031950D03*
X033150Y032350D03*
X033450Y032350D03*
X033450Y031000D03*
X033150Y031000D03*
X033150Y030600D03*
X033450Y030600D03*
X033900Y030650D03*
X033900Y030950D03*
X033900Y029600D03*
X033900Y029300D03*
X033450Y029250D03*
X033150Y029250D03*
X033150Y029650D03*
X033450Y029650D03*
X032246Y027291D03*
X031946Y027291D03*
D12*
X023000Y025500D03*
X029000Y036400D03*
X023000Y037500D03*
D13*
X024000Y037500D03*
X025000Y037500D03*
X026000Y037500D03*
X027000Y037500D03*
X028000Y037500D03*
X029000Y037500D03*
X030000Y037500D03*
X031000Y037500D03*
X032000Y037500D03*
X033000Y037500D03*
X034000Y037500D03*
X035000Y037500D03*
X036000Y037500D03*
X037000Y037500D03*
X038000Y037500D03*
X039000Y037500D03*
X040000Y037500D03*
X028000Y036400D03*
X027000Y036400D03*
X027000Y025500D03*
X026000Y025500D03*
X025000Y025500D03*
X024000Y025500D03*
X028000Y025500D03*
X029000Y025500D03*
X030000Y025500D03*
X031000Y025500D03*
X032000Y025500D03*
X033000Y025500D03*
X034000Y025500D03*
X035000Y025500D03*
X036000Y025500D03*
X037000Y025500D03*
X038000Y025500D03*
X039000Y025500D03*
X040000Y025500D03*
D14*
X038450Y035500D03*
X038450Y036100D03*
X037750Y036100D03*
X037750Y035500D03*
X037050Y035500D03*
X037050Y036100D03*
X036350Y036150D03*
X036350Y035550D03*
X035650Y035550D03*
X035650Y036150D03*
X034950Y036150D03*
X034950Y035550D03*
X034250Y035550D03*
X034250Y036150D03*
X033550Y036150D03*
X033550Y035550D03*
X032850Y035550D03*
X032850Y036150D03*
D15*
X032250Y036250D03*
X032250Y036750D03*
X031750Y036750D03*
X031750Y036250D03*
D16*
X032750Y036750D03*
X033250Y036750D03*
X033750Y036750D03*
X034250Y036750D03*
X034750Y036750D03*
X035250Y036750D03*
X035750Y036750D03*
X036250Y036750D03*
X036750Y036750D03*
X037250Y036750D03*
X037750Y036750D03*
X038250Y036750D03*
X038750Y036750D03*
X039250Y036750D03*
D17*
X031200Y027050D03*
X030000Y027050D03*
D18*
X029000Y029750D03*
X028000Y030250D03*
X029000Y030750D03*
X028000Y031250D03*
X029000Y031750D03*
X028000Y032250D03*
X029000Y032750D03*
X028000Y033250D03*
X030563Y033250D03*
X030563Y032250D03*
X030563Y031250D03*
X030563Y030250D03*
X031563Y029750D03*
X031563Y030750D03*
X031563Y031750D03*
X031563Y032750D03*
D19*
X031591Y034850D03*
X023701Y034850D03*
X023701Y028150D03*
X029988Y028150D03*
D20*
X033050Y029300D02*
X033100Y029250D01*
X033150Y029250D01*
X033450Y029250D02*
X033450Y029650D01*
X033500Y029600D01*
X033900Y029600D01*
X033150Y029650D02*
X033100Y029650D01*
X033050Y029600D01*
X033100Y030600D02*
X033050Y030650D01*
X033100Y030600D02*
X033150Y030600D01*
X033450Y030600D02*
X033500Y030650D01*
X033900Y030650D01*
X033450Y030600D02*
X033450Y031000D01*
X033150Y031000D02*
X033100Y031000D01*
X033050Y030950D01*
X033100Y031950D02*
X033050Y032000D01*
X033100Y031950D02*
X033150Y031950D01*
X033450Y031950D02*
X033450Y032350D01*
X033500Y032300D01*
X033900Y032300D01*
X033150Y032350D02*
X033100Y032350D01*
X033050Y032300D01*
X033100Y033300D02*
X033050Y033350D01*
X033100Y033300D02*
X033150Y033300D01*
X033450Y033300D02*
X033500Y033350D01*
X033900Y033350D01*
X033450Y033300D02*
X033450Y033700D01*
X033150Y033700D02*
X033100Y033700D01*
X033050Y033650D01*
D21*
X032919Y033779D02*
X032500Y033779D01*
X032500Y033827D02*
X032965Y033827D01*
X032965Y033824D02*
X032867Y033726D01*
X032867Y033574D01*
X032941Y033500D01*
X032867Y033426D01*
X032867Y033274D01*
X032965Y033176D01*
X032965Y033165D01*
X033015Y033115D01*
X033285Y033115D01*
X033300Y033130D01*
X033315Y033115D01*
X033585Y033115D01*
X033635Y033165D01*
X033635Y033215D01*
X033715Y033215D01*
X033715Y033215D01*
X033765Y033165D01*
X034035Y033165D01*
X034085Y033215D01*
X034085Y033485D01*
X034035Y033535D01*
X033765Y033535D01*
X033715Y033485D01*
X033585Y033485D01*
X033585Y033515D01*
X033585Y033515D01*
X033635Y033565D01*
X033635Y033835D01*
X033585Y033885D01*
X033315Y033885D01*
X033300Y033870D01*
X033285Y033885D01*
X033015Y033885D01*
X032965Y033835D01*
X032965Y033824D01*
X033005Y033876D02*
X032500Y033876D01*
X032500Y033924D02*
X040377Y033924D01*
X040377Y033876D02*
X033595Y033876D01*
X033635Y033827D02*
X040377Y033827D01*
X040377Y033779D02*
X033635Y033779D01*
X033635Y033730D02*
X040377Y033730D01*
X040377Y033682D02*
X033635Y033682D01*
X033635Y033633D02*
X040377Y033633D01*
X040377Y033585D02*
X033635Y033585D01*
X033606Y033536D02*
X040377Y033536D01*
X040377Y033488D02*
X034083Y033488D01*
X034085Y033439D02*
X040377Y033439D01*
X040377Y033391D02*
X034085Y033391D01*
X034085Y033342D02*
X040377Y033342D01*
X040377Y033294D02*
X034085Y033294D01*
X034085Y033245D02*
X040377Y033245D01*
X040377Y033197D02*
X034067Y033197D01*
X033733Y033197D02*
X033635Y033197D01*
X033618Y033148D02*
X040377Y033148D01*
X040377Y033100D02*
X032500Y033100D01*
X032500Y033148D02*
X032982Y033148D01*
X032944Y033197D02*
X032500Y033197D01*
X032500Y033245D02*
X032896Y033245D01*
X032867Y033294D02*
X032500Y033294D01*
X032500Y033342D02*
X032867Y033342D01*
X032867Y033391D02*
X032500Y033391D01*
X032500Y033439D02*
X032880Y033439D01*
X032928Y033488D02*
X032500Y033488D01*
X032500Y033536D02*
X032905Y033536D01*
X032867Y033585D02*
X032500Y033585D01*
X032500Y033633D02*
X032867Y033633D01*
X032867Y033682D02*
X032500Y033682D01*
X032500Y033730D02*
X032871Y033730D01*
X032500Y033973D02*
X040377Y033973D01*
X040377Y034021D02*
X032500Y034021D01*
X032500Y034070D02*
X040377Y034070D01*
X040377Y034118D02*
X032500Y034118D01*
X032500Y034167D02*
X040377Y034167D01*
X040377Y034215D02*
X032500Y034215D01*
X032500Y034264D02*
X040377Y034264D01*
X040377Y034312D02*
X032500Y034312D01*
X032500Y034361D02*
X040377Y034361D01*
X040377Y034409D02*
X032500Y034409D01*
X032500Y034458D02*
X040377Y034458D01*
X040377Y034506D02*
X032500Y034506D01*
X032500Y034555D02*
X040377Y034555D01*
X040377Y034603D02*
X032500Y034603D01*
X032500Y034652D02*
X040377Y034652D01*
X040377Y034700D02*
X032500Y034700D01*
X032500Y034749D02*
X040377Y034749D01*
X040377Y034797D02*
X032500Y034797D01*
X032500Y034846D02*
X040377Y034846D01*
X040377Y034894D02*
X032500Y034894D01*
X032500Y034943D02*
X040377Y034943D01*
X040377Y034991D02*
X032500Y034991D01*
X032500Y035040D02*
X040377Y035040D01*
X040377Y035088D02*
X036815Y035088D01*
X036802Y035075D02*
X036942Y035215D01*
X037285Y035215D01*
X037335Y035265D01*
X037335Y035375D01*
X037465Y035375D01*
X037465Y035265D01*
X037515Y035215D01*
X037985Y035215D01*
X038035Y035265D01*
X038035Y035375D01*
X038165Y035375D01*
X038165Y035265D01*
X038215Y035215D01*
X038685Y035215D01*
X038735Y035265D01*
X038735Y035735D01*
X038685Y035785D01*
X038215Y035785D01*
X038165Y035735D01*
X038165Y035625D01*
X038035Y035625D01*
X038035Y035735D01*
X037985Y035785D01*
X037515Y035785D01*
X037465Y035735D01*
X037465Y035625D01*
X037335Y035625D01*
X037335Y035735D01*
X037285Y035785D01*
X036815Y035785D01*
X036765Y035735D01*
X036765Y035392D01*
X036698Y035325D01*
X032652Y035325D01*
X032625Y035352D01*
X032625Y035725D01*
X033302Y035725D01*
X033442Y035865D01*
X033785Y035865D01*
X033835Y035915D01*
X033835Y036238D01*
X033965Y036108D01*
X033965Y035915D01*
X034015Y035865D01*
X034485Y035865D01*
X034535Y035915D01*
X034535Y036325D01*
X034598Y036325D01*
X034665Y036258D01*
X034665Y035915D01*
X034715Y035865D01*
X035185Y035865D01*
X035235Y035915D01*
X035235Y036325D01*
X035298Y036325D01*
X035365Y036258D01*
X035365Y035915D01*
X035415Y035865D01*
X035885Y035865D01*
X035935Y035915D01*
X035935Y036385D01*
X035885Y036435D01*
X035542Y036435D01*
X035448Y036528D01*
X035460Y036540D01*
X035460Y036960D01*
X035410Y037010D01*
X035167Y037010D01*
X035125Y037052D01*
X035125Y037059D01*
X035258Y037114D01*
X035386Y037242D01*
X035455Y037409D01*
X035455Y037591D01*
X035386Y037758D01*
X035267Y037877D01*
X035733Y037877D01*
X035614Y037758D01*
X035545Y037591D01*
X035545Y037409D01*
X035614Y037242D01*
X035742Y037114D01*
X035875Y037059D01*
X035875Y037010D01*
X035590Y037010D01*
X035540Y036960D01*
X035540Y036540D01*
X035590Y036490D01*
X035833Y036490D01*
X036065Y036258D01*
X036065Y035915D01*
X036115Y035865D01*
X036585Y035865D01*
X036635Y035915D01*
X036635Y036338D01*
X036765Y036208D01*
X036765Y035865D01*
X036815Y035815D01*
X037285Y035815D01*
X037335Y035865D01*
X037335Y036335D01*
X037285Y036385D01*
X036942Y036385D01*
X036875Y036452D01*
X036875Y036490D01*
X036910Y036490D01*
X036960Y036540D01*
X036960Y036863D01*
X037040Y036783D01*
X037040Y036540D01*
X037090Y036490D01*
X037410Y036490D01*
X037460Y036540D01*
X037460Y036960D01*
X037410Y037010D01*
X037167Y037010D01*
X037125Y037052D01*
X037125Y037059D01*
X037258Y037114D01*
X037386Y037242D01*
X037455Y037409D01*
X037455Y037591D01*
X037386Y037758D01*
X037267Y037877D01*
X037733Y037877D01*
X037614Y037758D01*
X037545Y037591D01*
X037545Y037409D01*
X037614Y037242D01*
X037742Y037114D01*
X037875Y037059D01*
X037875Y037010D01*
X037590Y037010D01*
X037540Y036960D01*
X037540Y036540D01*
X037590Y036490D01*
X037625Y036490D01*
X037625Y036385D01*
X037515Y036385D01*
X037465Y036335D01*
X037465Y035865D01*
X037515Y035815D01*
X037985Y035815D01*
X038035Y035865D01*
X038035Y036335D01*
X037985Y036385D01*
X037875Y036385D01*
X037875Y036490D01*
X037910Y036490D01*
X037960Y036540D01*
X037960Y036863D01*
X038040Y036783D01*
X038040Y036540D01*
X038090Y036490D01*
X038410Y036490D01*
X038460Y036540D01*
X038460Y036960D01*
X038410Y037010D01*
X038167Y037010D01*
X038125Y037052D01*
X038125Y037059D01*
X038258Y037114D01*
X038386Y037242D01*
X038455Y037409D01*
X038455Y037591D01*
X038386Y037758D01*
X038267Y037877D01*
X038733Y037877D01*
X038614Y037758D01*
X038545Y037591D01*
X038545Y037409D01*
X038614Y037242D01*
X038742Y037114D01*
X038875Y037059D01*
X038875Y037010D01*
X038590Y037010D01*
X038540Y036960D01*
X038540Y036540D01*
X038590Y036490D01*
X038625Y036490D01*
X038625Y036452D01*
X038558Y036385D01*
X038215Y036385D01*
X038165Y036335D01*
X038165Y035865D01*
X038215Y035815D01*
X038685Y035815D01*
X038735Y035865D01*
X038735Y036208D01*
X038875Y036348D01*
X038875Y036490D01*
X038910Y036490D01*
X038960Y036540D01*
X038960Y036863D01*
X039040Y036783D01*
X039040Y036540D01*
X039090Y036490D01*
X039410Y036490D01*
X039460Y036540D01*
X039460Y036960D01*
X039410Y037010D01*
X039167Y037010D01*
X039125Y037052D01*
X039125Y037059D01*
X039258Y037114D01*
X039386Y037242D01*
X039455Y037409D01*
X039455Y037591D01*
X039386Y037758D01*
X039267Y037877D01*
X040377Y037877D01*
X040377Y025767D01*
X040258Y025886D01*
X040091Y025955D01*
X039909Y025955D01*
X039742Y025886D01*
X039614Y025758D01*
X039545Y025591D01*
X039545Y025409D01*
X039614Y025242D01*
X039733Y025123D01*
X039267Y025123D01*
X039386Y025242D01*
X039455Y025409D01*
X039455Y025591D01*
X039386Y025758D01*
X039258Y025886D01*
X039091Y025955D01*
X038909Y025955D01*
X038742Y025886D01*
X038614Y025758D01*
X038545Y025591D01*
X038545Y025409D01*
X038614Y025242D01*
X038733Y025123D01*
X038267Y025123D01*
X038386Y025242D01*
X038455Y025409D01*
X038455Y025591D01*
X038386Y025758D01*
X038258Y025886D01*
X038091Y025955D01*
X037909Y025955D01*
X037742Y025886D01*
X037614Y025758D01*
X037545Y025591D01*
X037545Y025409D01*
X037614Y025242D01*
X037733Y025123D01*
X037267Y025123D01*
X037386Y025242D01*
X037455Y025409D01*
X037455Y025591D01*
X037386Y025758D01*
X037258Y025886D01*
X037091Y025955D01*
X036909Y025955D01*
X036742Y025886D01*
X036614Y025758D01*
X036545Y025591D01*
X036545Y025409D01*
X036614Y025242D01*
X036733Y025123D01*
X036267Y025123D01*
X036386Y025242D01*
X036455Y025409D01*
X036455Y025591D01*
X036386Y025758D01*
X036258Y025886D01*
X036091Y025955D01*
X035909Y025955D01*
X035837Y025925D01*
X034389Y027373D01*
X034281Y027481D01*
X032444Y027481D01*
X032444Y027500D01*
X032500Y027500D01*
X032500Y035123D01*
X032548Y035075D01*
X036802Y035075D01*
X036863Y035137D02*
X040377Y035137D01*
X040377Y035185D02*
X036912Y035185D01*
X036752Y035379D02*
X032625Y035379D01*
X032625Y035428D02*
X036765Y035428D01*
X036765Y035476D02*
X032625Y035476D01*
X032625Y035525D02*
X036765Y035525D01*
X036765Y035573D02*
X032625Y035573D01*
X032625Y035622D02*
X036765Y035622D01*
X036765Y035670D02*
X032625Y035670D01*
X032625Y035719D02*
X036765Y035719D01*
X036797Y035767D02*
X033344Y035767D01*
X033392Y035816D02*
X036814Y035816D01*
X036766Y035864D02*
X033441Y035864D01*
X033833Y035913D02*
X033967Y035913D01*
X033965Y035961D02*
X033835Y035961D01*
X033835Y036010D02*
X033965Y036010D01*
X033965Y036058D02*
X033835Y036058D01*
X033835Y036107D02*
X033965Y036107D01*
X033918Y036155D02*
X033835Y036155D01*
X033835Y036204D02*
X033870Y036204D01*
X034535Y036204D02*
X034665Y036204D01*
X034665Y036252D02*
X034535Y036252D01*
X034535Y036301D02*
X034623Y036301D01*
X034665Y036155D02*
X034535Y036155D01*
X034535Y036107D02*
X034665Y036107D01*
X034665Y036058D02*
X034535Y036058D01*
X034535Y036010D02*
X034665Y036010D01*
X034665Y035961D02*
X034535Y035961D01*
X034533Y035913D02*
X034667Y035913D01*
X035233Y035913D02*
X035367Y035913D01*
X035365Y035961D02*
X035235Y035961D01*
X035235Y036010D02*
X035365Y036010D01*
X035365Y036058D02*
X035235Y036058D01*
X035235Y036107D02*
X035365Y036107D01*
X035365Y036155D02*
X035235Y036155D01*
X035235Y036204D02*
X035365Y036204D01*
X035365Y036252D02*
X035235Y036252D01*
X035235Y036301D02*
X035323Y036301D01*
X035482Y036495D02*
X035585Y036495D01*
X035540Y036543D02*
X035460Y036543D01*
X035460Y036592D02*
X035540Y036592D01*
X035540Y036640D02*
X035460Y036640D01*
X035460Y036689D02*
X035540Y036689D01*
X035540Y036737D02*
X035460Y036737D01*
X035460Y036786D02*
X035540Y036786D01*
X035540Y036834D02*
X035460Y036834D01*
X035460Y036883D02*
X035540Y036883D01*
X035540Y036931D02*
X035460Y036931D01*
X035441Y036980D02*
X035559Y036980D01*
X035731Y037125D02*
X035269Y037125D01*
X035317Y037174D02*
X035683Y037174D01*
X035634Y037222D02*
X035366Y037222D01*
X035397Y037271D02*
X035603Y037271D01*
X035582Y037319D02*
X035418Y037319D01*
X035438Y037368D02*
X035562Y037368D01*
X035545Y037416D02*
X035455Y037416D01*
X035455Y037465D02*
X035545Y037465D01*
X035545Y037513D02*
X035455Y037513D01*
X035455Y037562D02*
X035545Y037562D01*
X035553Y037610D02*
X035447Y037610D01*
X035427Y037659D02*
X035573Y037659D01*
X035593Y037707D02*
X035407Y037707D01*
X035387Y037756D02*
X035613Y037756D01*
X035661Y037804D02*
X035339Y037804D01*
X035291Y037853D02*
X035709Y037853D01*
X035833Y037077D02*
X035167Y037077D01*
X035149Y037028D02*
X035875Y037028D01*
X035877Y036446D02*
X035531Y036446D01*
X035923Y036398D02*
X035926Y036398D01*
X035935Y036349D02*
X035974Y036349D01*
X035935Y036301D02*
X036023Y036301D01*
X036065Y036252D02*
X035935Y036252D01*
X035935Y036204D02*
X036065Y036204D01*
X036065Y036155D02*
X035935Y036155D01*
X035935Y036107D02*
X036065Y036107D01*
X036065Y036058D02*
X035935Y036058D01*
X035935Y036010D02*
X036065Y036010D01*
X036065Y035961D02*
X035935Y035961D01*
X035933Y035913D02*
X036067Y035913D01*
X036633Y035913D02*
X036765Y035913D01*
X036765Y035961D02*
X036635Y035961D01*
X036635Y036010D02*
X036765Y036010D01*
X036765Y036058D02*
X036635Y036058D01*
X036635Y036107D02*
X036765Y036107D01*
X036765Y036155D02*
X036635Y036155D01*
X036635Y036204D02*
X036765Y036204D01*
X036721Y036252D02*
X036635Y036252D01*
X036635Y036301D02*
X036673Y036301D01*
X036881Y036446D02*
X037625Y036446D01*
X037625Y036398D02*
X036929Y036398D01*
X036915Y036495D02*
X037085Y036495D01*
X037040Y036543D02*
X036960Y036543D01*
X036960Y036592D02*
X037040Y036592D01*
X037040Y036640D02*
X036960Y036640D01*
X036960Y036689D02*
X037040Y036689D01*
X037040Y036737D02*
X036960Y036737D01*
X036960Y036786D02*
X037038Y036786D01*
X036989Y036834D02*
X036960Y036834D01*
X037149Y037028D02*
X037875Y037028D01*
X037833Y037077D02*
X037167Y037077D01*
X037269Y037125D02*
X037731Y037125D01*
X037683Y037174D02*
X037317Y037174D01*
X037366Y037222D02*
X037634Y037222D01*
X037603Y037271D02*
X037397Y037271D01*
X037418Y037319D02*
X037582Y037319D01*
X037562Y037368D02*
X037438Y037368D01*
X037455Y037416D02*
X037545Y037416D01*
X037545Y037465D02*
X037455Y037465D01*
X037455Y037513D02*
X037545Y037513D01*
X037545Y037562D02*
X037455Y037562D01*
X037447Y037610D02*
X037553Y037610D01*
X037573Y037659D02*
X037427Y037659D01*
X037407Y037707D02*
X037593Y037707D01*
X037613Y037756D02*
X037387Y037756D01*
X037339Y037804D02*
X037661Y037804D01*
X037709Y037853D02*
X037291Y037853D01*
X037441Y036980D02*
X037559Y036980D01*
X037540Y036931D02*
X037460Y036931D01*
X037460Y036883D02*
X037540Y036883D01*
X037540Y036834D02*
X037460Y036834D01*
X037460Y036786D02*
X037540Y036786D01*
X037540Y036737D02*
X037460Y036737D01*
X037460Y036689D02*
X037540Y036689D01*
X037540Y036640D02*
X037460Y036640D01*
X037460Y036592D02*
X037540Y036592D01*
X037540Y036543D02*
X037460Y036543D01*
X037415Y036495D02*
X037585Y036495D01*
X037479Y036349D02*
X037321Y036349D01*
X037335Y036301D02*
X037465Y036301D01*
X037465Y036252D02*
X037335Y036252D01*
X037335Y036204D02*
X037465Y036204D01*
X037465Y036155D02*
X037335Y036155D01*
X037335Y036107D02*
X037465Y036107D01*
X037465Y036058D02*
X037335Y036058D01*
X037335Y036010D02*
X037465Y036010D01*
X037465Y035961D02*
X037335Y035961D01*
X037335Y035913D02*
X037465Y035913D01*
X037466Y035864D02*
X037334Y035864D01*
X037286Y035816D02*
X037514Y035816D01*
X037497Y035767D02*
X037303Y035767D01*
X037335Y035719D02*
X037465Y035719D01*
X037465Y035670D02*
X037335Y035670D01*
X037335Y035331D02*
X037465Y035331D01*
X037465Y035282D02*
X037335Y035282D01*
X037304Y035234D02*
X037496Y035234D01*
X038004Y035234D02*
X038196Y035234D01*
X038165Y035282D02*
X038035Y035282D01*
X038035Y035331D02*
X038165Y035331D01*
X038165Y035670D02*
X038035Y035670D01*
X038035Y035719D02*
X038165Y035719D01*
X038197Y035767D02*
X038003Y035767D01*
X037986Y035816D02*
X038214Y035816D01*
X038166Y035864D02*
X038034Y035864D01*
X038035Y035913D02*
X038165Y035913D01*
X038165Y035961D02*
X038035Y035961D01*
X038035Y036010D02*
X038165Y036010D01*
X038165Y036058D02*
X038035Y036058D01*
X038035Y036107D02*
X038165Y036107D01*
X038165Y036155D02*
X038035Y036155D01*
X038035Y036204D02*
X038165Y036204D01*
X038165Y036252D02*
X038035Y036252D01*
X038035Y036301D02*
X038165Y036301D01*
X038179Y036349D02*
X038021Y036349D01*
X037875Y036398D02*
X038571Y036398D01*
X038619Y036446D02*
X037875Y036446D01*
X037915Y036495D02*
X038085Y036495D01*
X038040Y036543D02*
X037960Y036543D01*
X037960Y036592D02*
X038040Y036592D01*
X038040Y036640D02*
X037960Y036640D01*
X037960Y036689D02*
X038040Y036689D01*
X038040Y036737D02*
X037960Y036737D01*
X037960Y036786D02*
X038038Y036786D01*
X037989Y036834D02*
X037960Y036834D01*
X038149Y037028D02*
X038875Y037028D01*
X038833Y037077D02*
X038167Y037077D01*
X038269Y037125D02*
X038731Y037125D01*
X038683Y037174D02*
X038317Y037174D01*
X038366Y037222D02*
X038634Y037222D01*
X038603Y037271D02*
X038397Y037271D01*
X038418Y037319D02*
X038582Y037319D01*
X038562Y037368D02*
X038438Y037368D01*
X038455Y037416D02*
X038545Y037416D01*
X038545Y037465D02*
X038455Y037465D01*
X038455Y037513D02*
X038545Y037513D01*
X038545Y037562D02*
X038455Y037562D01*
X038447Y037610D02*
X038553Y037610D01*
X038573Y037659D02*
X038427Y037659D01*
X038407Y037707D02*
X038593Y037707D01*
X038613Y037756D02*
X038387Y037756D01*
X038339Y037804D02*
X038661Y037804D01*
X038709Y037853D02*
X038291Y037853D01*
X039291Y037853D02*
X040377Y037853D01*
X040377Y037804D02*
X039339Y037804D01*
X039387Y037756D02*
X040377Y037756D01*
X040377Y037707D02*
X039407Y037707D01*
X039427Y037659D02*
X040377Y037659D01*
X040377Y037610D02*
X039447Y037610D01*
X039455Y037562D02*
X040377Y037562D01*
X040377Y037513D02*
X039455Y037513D01*
X039455Y037465D02*
X040377Y037465D01*
X040377Y037416D02*
X039455Y037416D01*
X039438Y037368D02*
X040377Y037368D01*
X040377Y037319D02*
X039418Y037319D01*
X039397Y037271D02*
X040377Y037271D01*
X040377Y037222D02*
X039366Y037222D01*
X039317Y037174D02*
X040377Y037174D01*
X040377Y037125D02*
X039269Y037125D01*
X039167Y037077D02*
X040377Y037077D01*
X040377Y037028D02*
X039149Y037028D01*
X038989Y036834D02*
X038960Y036834D01*
X038960Y036786D02*
X039038Y036786D01*
X039040Y036737D02*
X038960Y036737D01*
X038960Y036689D02*
X039040Y036689D01*
X039040Y036640D02*
X038960Y036640D01*
X038960Y036592D02*
X039040Y036592D01*
X039040Y036543D02*
X038960Y036543D01*
X038915Y036495D02*
X039085Y036495D01*
X038875Y036446D02*
X040377Y036446D01*
X040377Y036398D02*
X038875Y036398D01*
X038875Y036349D02*
X040377Y036349D01*
X040377Y036301D02*
X038827Y036301D01*
X038779Y036252D02*
X040377Y036252D01*
X040377Y036204D02*
X038735Y036204D01*
X038735Y036155D02*
X040377Y036155D01*
X040377Y036107D02*
X038735Y036107D01*
X038735Y036058D02*
X040377Y036058D01*
X040377Y036010D02*
X038735Y036010D01*
X038735Y035961D02*
X040377Y035961D01*
X040377Y035913D02*
X038735Y035913D01*
X038734Y035864D02*
X040377Y035864D01*
X040377Y035816D02*
X038686Y035816D01*
X038703Y035767D02*
X040377Y035767D01*
X040377Y035719D02*
X038735Y035719D01*
X038735Y035670D02*
X040377Y035670D01*
X040377Y035622D02*
X038735Y035622D01*
X038735Y035573D02*
X040377Y035573D01*
X040377Y035525D02*
X038735Y035525D01*
X038735Y035476D02*
X040377Y035476D01*
X040377Y035428D02*
X038735Y035428D01*
X038735Y035379D02*
X040377Y035379D01*
X040377Y035331D02*
X038735Y035331D01*
X038735Y035282D02*
X040377Y035282D01*
X040377Y035234D02*
X038704Y035234D01*
X038585Y036495D02*
X038415Y036495D01*
X038460Y036543D02*
X038540Y036543D01*
X038540Y036592D02*
X038460Y036592D01*
X038460Y036640D02*
X038540Y036640D01*
X038540Y036689D02*
X038460Y036689D01*
X038460Y036737D02*
X038540Y036737D01*
X038540Y036786D02*
X038460Y036786D01*
X038460Y036834D02*
X038540Y036834D01*
X038540Y036883D02*
X038460Y036883D01*
X038460Y036931D02*
X038540Y036931D01*
X038559Y036980D02*
X038441Y036980D01*
X039441Y036980D02*
X040377Y036980D01*
X040377Y036931D02*
X039460Y036931D01*
X039460Y036883D02*
X040377Y036883D01*
X040377Y036834D02*
X039460Y036834D01*
X039460Y036786D02*
X040377Y036786D01*
X040377Y036737D02*
X039460Y036737D01*
X039460Y036689D02*
X040377Y036689D01*
X040377Y036640D02*
X039460Y036640D01*
X039460Y036592D02*
X040377Y036592D01*
X040377Y036543D02*
X039460Y036543D01*
X039415Y036495D02*
X040377Y036495D01*
X036704Y035331D02*
X032646Y035331D01*
X032535Y035088D02*
X032500Y035088D01*
X032375Y035500D02*
X026277Y035500D01*
X026777Y036000D01*
X026909Y035945D01*
X027091Y035945D01*
X027258Y036014D01*
X027386Y036142D01*
X027455Y036309D01*
X027455Y036491D01*
X027386Y036658D01*
X027268Y036775D01*
X027448Y036775D01*
X027600Y036623D01*
X027545Y036491D01*
X027545Y036309D01*
X027614Y036142D01*
X027742Y036014D01*
X027909Y035945D01*
X028091Y035945D01*
X028258Y036014D01*
X028386Y036142D01*
X028455Y036309D01*
X028455Y036491D01*
X028386Y036658D01*
X028258Y036786D01*
X028091Y036855D01*
X027909Y036855D01*
X027777Y036800D01*
X027552Y037025D01*
X026435Y037025D01*
X026435Y037035D01*
X026385Y037085D01*
X026187Y037085D01*
X026258Y037114D01*
X026386Y037242D01*
X026455Y037409D01*
X026455Y037591D01*
X026386Y037758D01*
X026267Y037877D01*
X026733Y037877D01*
X026614Y037758D01*
X026545Y037591D01*
X026545Y037409D01*
X026614Y037242D01*
X026742Y037114D01*
X026909Y037045D01*
X027091Y037045D01*
X027258Y037114D01*
X027386Y037242D01*
X027455Y037409D01*
X027455Y037591D01*
X027386Y037758D01*
X027267Y037877D01*
X027733Y037877D01*
X027614Y037758D01*
X027545Y037591D01*
X027545Y037409D01*
X027614Y037242D01*
X027742Y037114D01*
X027909Y037045D01*
X028091Y037045D01*
X028258Y037114D01*
X028386Y037242D01*
X028455Y037409D01*
X028455Y037591D01*
X028386Y037758D01*
X028267Y037877D01*
X028733Y037877D01*
X028614Y037758D01*
X028545Y037591D01*
X028545Y037409D01*
X028614Y037242D01*
X028742Y037114D01*
X028909Y037045D01*
X029091Y037045D01*
X029258Y037114D01*
X029386Y037242D01*
X029455Y037409D01*
X029455Y037591D01*
X029386Y037758D01*
X029267Y037877D01*
X029733Y037877D01*
X029614Y037758D01*
X029545Y037591D01*
X029545Y037409D01*
X029614Y037242D01*
X029742Y037114D01*
X029909Y037045D01*
X030091Y037045D01*
X030258Y037114D01*
X030383Y037240D01*
X030675Y036948D01*
X030748Y036875D01*
X031198Y036875D01*
X031325Y036748D01*
X031325Y036048D01*
X031425Y035948D01*
X031498Y035875D01*
X032148Y035875D01*
X032375Y035648D01*
X032375Y035500D01*
X032375Y035525D02*
X026301Y035525D01*
X026350Y035573D02*
X032375Y035573D01*
X032375Y035622D02*
X026398Y035622D01*
X026447Y035670D02*
X032353Y035670D01*
X032305Y035719D02*
X026495Y035719D01*
X026544Y035767D02*
X032256Y035767D01*
X032208Y035816D02*
X026592Y035816D01*
X026641Y035864D02*
X032159Y035864D01*
X031461Y035913D02*
X026689Y035913D01*
X026738Y035961D02*
X026871Y035961D01*
X027129Y035961D02*
X027871Y035961D01*
X027754Y036010D02*
X027246Y036010D01*
X027302Y036058D02*
X027698Y036058D01*
X027650Y036107D02*
X027350Y036107D01*
X027391Y036155D02*
X027609Y036155D01*
X027589Y036204D02*
X027411Y036204D01*
X027431Y036252D02*
X027569Y036252D01*
X027549Y036301D02*
X027451Y036301D01*
X027455Y036349D02*
X027545Y036349D01*
X027545Y036398D02*
X027455Y036398D01*
X027455Y036446D02*
X027545Y036446D01*
X027547Y036495D02*
X027453Y036495D01*
X027433Y036543D02*
X027567Y036543D01*
X027587Y036592D02*
X027413Y036592D01*
X027393Y036640D02*
X027583Y036640D01*
X027535Y036689D02*
X027355Y036689D01*
X027306Y036737D02*
X027486Y036737D01*
X027646Y036931D02*
X030692Y036931D01*
X030644Y036980D02*
X027597Y036980D01*
X027694Y036883D02*
X030741Y036883D01*
X030595Y037028D02*
X026435Y037028D01*
X026394Y037077D02*
X026833Y037077D01*
X026731Y037125D02*
X026269Y037125D01*
X026317Y037174D02*
X026683Y037174D01*
X026634Y037222D02*
X026366Y037222D01*
X026397Y037271D02*
X026603Y037271D01*
X026582Y037319D02*
X026418Y037319D01*
X026438Y037368D02*
X026562Y037368D01*
X026545Y037416D02*
X026455Y037416D01*
X026455Y037465D02*
X026545Y037465D01*
X026545Y037513D02*
X026455Y037513D01*
X026455Y037562D02*
X026545Y037562D01*
X026553Y037610D02*
X026447Y037610D01*
X026427Y037659D02*
X026573Y037659D01*
X026593Y037707D02*
X026407Y037707D01*
X026387Y037756D02*
X026613Y037756D01*
X026661Y037804D02*
X026339Y037804D01*
X026291Y037853D02*
X026709Y037853D01*
X027291Y037853D02*
X027709Y037853D01*
X027661Y037804D02*
X027339Y037804D01*
X027387Y037756D02*
X027613Y037756D01*
X027593Y037707D02*
X027407Y037707D01*
X027427Y037659D02*
X027573Y037659D01*
X027553Y037610D02*
X027447Y037610D01*
X027455Y037562D02*
X027545Y037562D01*
X027545Y037513D02*
X027455Y037513D01*
X027455Y037465D02*
X027545Y037465D01*
X027545Y037416D02*
X027455Y037416D01*
X027438Y037368D02*
X027562Y037368D01*
X027582Y037319D02*
X027418Y037319D01*
X027397Y037271D02*
X027603Y037271D01*
X027634Y037222D02*
X027366Y037222D01*
X027317Y037174D02*
X027683Y037174D01*
X027731Y037125D02*
X027269Y037125D01*
X027167Y037077D02*
X027833Y037077D01*
X027859Y036834D02*
X027743Y036834D01*
X028141Y036834D02*
X031239Y036834D01*
X031288Y036786D02*
X028258Y036786D01*
X028306Y036737D02*
X031325Y036737D01*
X031325Y036689D02*
X028355Y036689D01*
X028393Y036640D02*
X031325Y036640D01*
X031325Y036592D02*
X028413Y036592D01*
X028433Y036543D02*
X031325Y036543D01*
X031325Y036495D02*
X028453Y036495D01*
X028455Y036446D02*
X031325Y036446D01*
X031325Y036398D02*
X028455Y036398D01*
X028455Y036349D02*
X031325Y036349D01*
X031325Y036301D02*
X028451Y036301D01*
X028431Y036252D02*
X031325Y036252D01*
X031325Y036204D02*
X028411Y036204D01*
X028391Y036155D02*
X031325Y036155D01*
X031325Y036107D02*
X028350Y036107D01*
X028302Y036058D02*
X031325Y036058D01*
X031364Y036010D02*
X028246Y036010D01*
X028129Y035961D02*
X031412Y035961D01*
X030547Y037077D02*
X030167Y037077D01*
X030269Y037125D02*
X030498Y037125D01*
X030450Y037174D02*
X030317Y037174D01*
X030366Y037222D02*
X030401Y037222D01*
X029833Y037077D02*
X029167Y037077D01*
X029269Y037125D02*
X029731Y037125D01*
X029683Y037174D02*
X029317Y037174D01*
X029366Y037222D02*
X029634Y037222D01*
X029603Y037271D02*
X029397Y037271D01*
X029418Y037319D02*
X029582Y037319D01*
X029562Y037368D02*
X029438Y037368D01*
X029455Y037416D02*
X029545Y037416D01*
X029545Y037465D02*
X029455Y037465D01*
X029455Y037513D02*
X029545Y037513D01*
X029545Y037562D02*
X029455Y037562D01*
X029447Y037610D02*
X029553Y037610D01*
X029573Y037659D02*
X029427Y037659D01*
X029407Y037707D02*
X029593Y037707D01*
X029613Y037756D02*
X029387Y037756D01*
X029339Y037804D02*
X029661Y037804D01*
X029709Y037853D02*
X029291Y037853D01*
X028709Y037853D02*
X028291Y037853D01*
X028339Y037804D02*
X028661Y037804D01*
X028613Y037756D02*
X028387Y037756D01*
X028407Y037707D02*
X028593Y037707D01*
X028573Y037659D02*
X028427Y037659D01*
X028447Y037610D02*
X028553Y037610D01*
X028545Y037562D02*
X028455Y037562D01*
X028455Y037513D02*
X028545Y037513D01*
X028545Y037465D02*
X028455Y037465D01*
X028455Y037416D02*
X028545Y037416D01*
X028562Y037368D02*
X028438Y037368D01*
X028418Y037319D02*
X028582Y037319D01*
X028603Y037271D02*
X028397Y037271D01*
X028366Y037222D02*
X028634Y037222D01*
X028683Y037174D02*
X028317Y037174D01*
X028269Y037125D02*
X028731Y037125D01*
X028833Y037077D02*
X028167Y037077D01*
X026732Y036775D02*
X026614Y036658D01*
X026545Y036491D01*
X026545Y036309D01*
X026600Y036177D01*
X026100Y035677D01*
X026100Y036473D01*
X026115Y036458D01*
X026115Y036315D01*
X026165Y036265D01*
X026435Y036265D01*
X026485Y036315D01*
X026485Y036585D01*
X026435Y036635D01*
X026292Y036635D01*
X026212Y036715D01*
X026385Y036715D01*
X026435Y036765D01*
X026435Y036775D01*
X026732Y036775D01*
X026694Y036737D02*
X026407Y036737D01*
X026287Y036640D02*
X026607Y036640D01*
X026587Y036592D02*
X026479Y036592D01*
X026485Y036543D02*
X026567Y036543D01*
X026547Y036495D02*
X026485Y036495D01*
X026485Y036446D02*
X026545Y036446D01*
X026545Y036398D02*
X026485Y036398D01*
X026485Y036349D02*
X026545Y036349D01*
X026549Y036301D02*
X026471Y036301D01*
X026569Y036252D02*
X026100Y036252D01*
X026100Y036204D02*
X026589Y036204D01*
X026578Y036155D02*
X026100Y036155D01*
X026100Y036107D02*
X026530Y036107D01*
X026481Y036058D02*
X026100Y036058D01*
X026100Y036010D02*
X026433Y036010D01*
X026384Y035961D02*
X026100Y035961D01*
X026100Y035913D02*
X026336Y035913D01*
X026287Y035864D02*
X026100Y035864D01*
X026100Y035816D02*
X026239Y035816D01*
X026190Y035767D02*
X026100Y035767D01*
X026100Y035719D02*
X026142Y035719D01*
X026129Y036301D02*
X026100Y036301D01*
X026100Y036349D02*
X026115Y036349D01*
X026115Y036398D02*
X026100Y036398D01*
X026100Y036446D02*
X026115Y036446D01*
X026238Y036689D02*
X026645Y036689D01*
X032500Y033051D02*
X040377Y033051D01*
X040377Y033003D02*
X032500Y033003D01*
X032500Y032954D02*
X040377Y032954D01*
X040377Y032906D02*
X032500Y032906D01*
X032500Y032857D02*
X040377Y032857D01*
X040377Y032809D02*
X032500Y032809D01*
X032500Y032760D02*
X040377Y032760D01*
X040377Y032712D02*
X032500Y032712D01*
X032500Y032663D02*
X040377Y032663D01*
X040377Y032615D02*
X032500Y032615D01*
X032500Y032566D02*
X040377Y032566D01*
X040377Y032518D02*
X033603Y032518D01*
X033585Y032535D02*
X033315Y032535D01*
X033300Y032520D01*
X033285Y032535D01*
X033015Y032535D01*
X032965Y032485D01*
X032965Y032474D01*
X032867Y032376D01*
X032867Y032224D01*
X032941Y032150D01*
X032867Y032076D01*
X032867Y031924D01*
X032965Y031826D01*
X032965Y031815D01*
X033015Y031765D01*
X033285Y031765D01*
X033300Y031780D01*
X033315Y031765D01*
X033585Y031765D01*
X033635Y031815D01*
X033635Y032085D01*
X033585Y032135D01*
X033585Y032165D01*
X033715Y032165D01*
X033715Y032165D01*
X033765Y032115D01*
X034035Y032115D01*
X034085Y032165D01*
X034085Y032435D01*
X034035Y032485D01*
X033765Y032485D01*
X033715Y032435D01*
X033635Y032435D01*
X033635Y032485D01*
X033585Y032535D01*
X033635Y032469D02*
X033749Y032469D01*
X033715Y032435D02*
X033715Y032435D01*
X033750Y032130D02*
X033591Y032130D01*
X033585Y032135D02*
X033585Y032135D01*
X033635Y032081D02*
X040377Y032081D01*
X040377Y032033D02*
X033635Y032033D01*
X033635Y031984D02*
X040377Y031984D01*
X040377Y031936D02*
X033635Y031936D01*
X033635Y031887D02*
X040377Y031887D01*
X040377Y031839D02*
X033635Y031839D01*
X033610Y031790D02*
X040377Y031790D01*
X040377Y031742D02*
X032500Y031742D01*
X032500Y031790D02*
X032990Y031790D01*
X032952Y031839D02*
X032500Y031839D01*
X032500Y031887D02*
X032904Y031887D01*
X032867Y031936D02*
X032500Y031936D01*
X032500Y031984D02*
X032867Y031984D01*
X032867Y032033D02*
X032500Y032033D01*
X032500Y032081D02*
X032872Y032081D01*
X032920Y032130D02*
X032500Y032130D01*
X032500Y032178D02*
X032913Y032178D01*
X032867Y032227D02*
X032500Y032227D01*
X032500Y032275D02*
X032867Y032275D01*
X032867Y032324D02*
X032500Y032324D01*
X032500Y032372D02*
X032867Y032372D01*
X032911Y032421D02*
X032500Y032421D01*
X032500Y032469D02*
X032960Y032469D01*
X032997Y032518D02*
X032500Y032518D01*
X033585Y033488D02*
X033717Y033488D01*
X033715Y033485D02*
X033715Y033485D01*
X033305Y033876D02*
X033295Y033876D01*
X034051Y032469D02*
X040377Y032469D01*
X040377Y032421D02*
X034085Y032421D01*
X034085Y032372D02*
X040377Y032372D01*
X040377Y032324D02*
X034085Y032324D01*
X034085Y032275D02*
X040377Y032275D01*
X040377Y032227D02*
X034085Y032227D01*
X034085Y032178D02*
X040377Y032178D01*
X040377Y032130D02*
X034050Y032130D01*
X033585Y031185D02*
X033315Y031185D01*
X033300Y031170D01*
X033285Y031185D01*
X033015Y031185D01*
X032965Y031135D01*
X032965Y031124D01*
X032867Y031026D01*
X032867Y030874D01*
X032941Y030800D01*
X032867Y030726D01*
X032867Y030574D01*
X032965Y030476D01*
X032965Y030465D01*
X033015Y030415D01*
X033285Y030415D01*
X033300Y030430D01*
X033315Y030415D01*
X033585Y030415D01*
X033635Y030465D01*
X033635Y030515D01*
X033715Y030515D01*
X033715Y030515D01*
X033765Y030465D01*
X034035Y030465D01*
X034085Y030515D01*
X034085Y030785D01*
X034035Y030835D01*
X033765Y030835D01*
X033715Y030785D01*
X033585Y030785D01*
X033585Y030815D01*
X033585Y030815D01*
X033635Y030865D01*
X033635Y031135D01*
X033585Y031185D01*
X033611Y031160D02*
X040377Y031160D01*
X040377Y031208D02*
X032500Y031208D01*
X032500Y031160D02*
X032989Y031160D01*
X032952Y031111D02*
X032500Y031111D01*
X032500Y031063D02*
X032903Y031063D01*
X032867Y031014D02*
X032500Y031014D01*
X032500Y030966D02*
X032867Y030966D01*
X032867Y030917D02*
X032500Y030917D01*
X032500Y030869D02*
X032872Y030869D01*
X032921Y030820D02*
X032500Y030820D01*
X032500Y030772D02*
X032912Y030772D01*
X032867Y030723D02*
X032500Y030723D01*
X032500Y030675D02*
X032867Y030675D01*
X032867Y030626D02*
X032500Y030626D01*
X032500Y030578D02*
X032867Y030578D01*
X032912Y030529D02*
X032500Y030529D01*
X032500Y030481D02*
X032960Y030481D01*
X032998Y030432D02*
X032500Y030432D01*
X032500Y030384D02*
X040377Y030384D01*
X040377Y030432D02*
X033602Y030432D01*
X033635Y030481D02*
X033749Y030481D01*
X034051Y030481D02*
X040377Y030481D01*
X040377Y030529D02*
X034085Y030529D01*
X034085Y030578D02*
X040377Y030578D01*
X040377Y030626D02*
X034085Y030626D01*
X034085Y030675D02*
X040377Y030675D01*
X040377Y030723D02*
X034085Y030723D01*
X034085Y030772D02*
X040377Y030772D01*
X040377Y030820D02*
X034050Y030820D01*
X033750Y030820D02*
X033590Y030820D01*
X033635Y030869D02*
X040377Y030869D01*
X040377Y030917D02*
X033635Y030917D01*
X033635Y030966D02*
X040377Y030966D01*
X040377Y031014D02*
X033635Y031014D01*
X033635Y031063D02*
X040377Y031063D01*
X040377Y031111D02*
X033635Y031111D01*
X033715Y030785D02*
X033715Y030785D01*
X033585Y029835D02*
X033315Y029835D01*
X033300Y029820D01*
X033285Y029835D01*
X033015Y029835D01*
X032965Y029785D01*
X032965Y029774D01*
X032867Y029676D01*
X032867Y029524D01*
X032941Y029450D01*
X032867Y029376D01*
X032867Y029224D01*
X032965Y029126D01*
X032965Y029115D01*
X033015Y029065D01*
X033285Y029065D01*
X033300Y029080D01*
X033315Y029065D01*
X033585Y029065D01*
X033635Y029115D01*
X033635Y029385D01*
X033585Y029435D01*
X033585Y029465D01*
X033715Y029465D01*
X033715Y029465D01*
X033765Y029415D01*
X034035Y029415D01*
X034085Y029465D01*
X034085Y029735D01*
X034035Y029785D01*
X033765Y029785D01*
X033715Y029735D01*
X033635Y029735D01*
X033635Y029785D01*
X033585Y029835D01*
X033619Y029802D02*
X040377Y029802D01*
X040377Y029850D02*
X032500Y029850D01*
X032500Y029802D02*
X032981Y029802D01*
X032944Y029753D02*
X032500Y029753D01*
X032500Y029705D02*
X032895Y029705D01*
X032867Y029656D02*
X032500Y029656D01*
X032500Y029608D02*
X032867Y029608D01*
X032867Y029559D02*
X032500Y029559D01*
X032500Y029511D02*
X032880Y029511D01*
X032929Y029462D02*
X032500Y029462D01*
X032500Y029414D02*
X032904Y029414D01*
X032867Y029365D02*
X032500Y029365D01*
X032500Y029317D02*
X032867Y029317D01*
X032867Y029268D02*
X032500Y029268D01*
X032500Y029220D02*
X032871Y029220D01*
X032920Y029171D02*
X032500Y029171D01*
X032500Y029123D02*
X032965Y029123D01*
X033006Y029074D02*
X032500Y029074D01*
X032500Y029026D02*
X040377Y029026D01*
X040377Y029074D02*
X033594Y029074D01*
X033635Y029123D02*
X040377Y029123D01*
X040377Y029171D02*
X033635Y029171D01*
X033635Y029220D02*
X040377Y029220D01*
X040377Y029268D02*
X033635Y029268D01*
X033635Y029317D02*
X040377Y029317D01*
X040377Y029365D02*
X033635Y029365D01*
X033607Y029414D02*
X040377Y029414D01*
X040377Y029462D02*
X034082Y029462D01*
X034085Y029511D02*
X040377Y029511D01*
X040377Y029559D02*
X034085Y029559D01*
X034085Y029608D02*
X040377Y029608D01*
X040377Y029656D02*
X034085Y029656D01*
X034085Y029705D02*
X040377Y029705D01*
X040377Y029753D02*
X034067Y029753D01*
X033733Y029753D02*
X033635Y029753D01*
X033715Y029735D02*
X033715Y029735D01*
X033718Y029462D02*
X033585Y029462D01*
X033585Y029435D02*
X033585Y029435D01*
X033306Y029074D02*
X033294Y029074D01*
X032500Y028977D02*
X040377Y028977D01*
X040377Y028929D02*
X032500Y028929D01*
X032500Y028880D02*
X040377Y028880D01*
X040377Y028832D02*
X032500Y028832D01*
X032500Y028783D02*
X040377Y028783D01*
X040377Y028735D02*
X032500Y028735D01*
X032500Y028686D02*
X040377Y028686D01*
X040377Y028638D02*
X032500Y028638D01*
X032500Y028589D02*
X040377Y028589D01*
X040377Y028541D02*
X032500Y028541D01*
X032500Y028492D02*
X040377Y028492D01*
X040377Y028444D02*
X032500Y028444D01*
X032500Y028395D02*
X040377Y028395D01*
X040377Y028347D02*
X032500Y028347D01*
X032500Y028298D02*
X040377Y028298D01*
X040377Y028250D02*
X032500Y028250D01*
X032500Y028201D02*
X040377Y028201D01*
X040377Y028153D02*
X032500Y028153D01*
X032500Y028104D02*
X040377Y028104D01*
X040377Y028056D02*
X032500Y028056D01*
X032500Y028007D02*
X040377Y028007D01*
X040377Y027959D02*
X032500Y027959D01*
X032500Y027910D02*
X040377Y027910D01*
X040377Y027862D02*
X032500Y027862D01*
X032500Y027813D02*
X040377Y027813D01*
X040377Y027765D02*
X032500Y027765D01*
X032500Y027716D02*
X040377Y027716D01*
X040377Y027668D02*
X032500Y027668D01*
X032500Y027619D02*
X040377Y027619D01*
X040377Y027571D02*
X032500Y027571D01*
X032500Y027522D02*
X040377Y027522D01*
X040377Y027474D02*
X034288Y027474D01*
X034337Y027425D02*
X040377Y027425D01*
X040377Y027377D02*
X034385Y027377D01*
X034434Y027328D02*
X040377Y027328D01*
X040377Y027280D02*
X034482Y027280D01*
X034531Y027231D02*
X040377Y027231D01*
X040377Y027183D02*
X034579Y027183D01*
X034628Y027134D02*
X040377Y027134D01*
X040377Y027086D02*
X034676Y027086D01*
X034725Y027037D02*
X040377Y027037D01*
X040377Y026989D02*
X034773Y026989D01*
X034822Y026940D02*
X040377Y026940D01*
X040377Y026892D02*
X034870Y026892D01*
X034919Y026843D02*
X040377Y026843D01*
X040377Y026795D02*
X034967Y026795D01*
X035016Y026746D02*
X040377Y026746D01*
X040377Y026698D02*
X035064Y026698D01*
X035113Y026649D02*
X040377Y026649D01*
X040377Y026601D02*
X035161Y026601D01*
X035210Y026552D02*
X040377Y026552D01*
X040377Y026504D02*
X035258Y026504D01*
X035307Y026455D02*
X040377Y026455D01*
X040377Y026407D02*
X035355Y026407D01*
X035404Y026358D02*
X040377Y026358D01*
X040377Y026310D02*
X035452Y026310D01*
X035501Y026261D02*
X040377Y026261D01*
X040377Y026213D02*
X035549Y026213D01*
X035598Y026164D02*
X040377Y026164D01*
X040377Y026116D02*
X035646Y026116D01*
X035695Y026067D02*
X040377Y026067D01*
X040377Y026019D02*
X035743Y026019D01*
X035792Y025970D02*
X040377Y025970D01*
X040377Y025922D02*
X040171Y025922D01*
X040270Y025873D02*
X040377Y025873D01*
X040377Y025825D02*
X040319Y025825D01*
X040367Y025776D02*
X040377Y025776D01*
X039829Y025922D02*
X039171Y025922D01*
X039270Y025873D02*
X039730Y025873D01*
X039681Y025825D02*
X039319Y025825D01*
X039367Y025776D02*
X039633Y025776D01*
X039602Y025728D02*
X039398Y025728D01*
X039418Y025679D02*
X039582Y025679D01*
X039562Y025631D02*
X039438Y025631D01*
X039455Y025582D02*
X039545Y025582D01*
X039545Y025534D02*
X039455Y025534D01*
X039455Y025485D02*
X039545Y025485D01*
X039545Y025437D02*
X039455Y025437D01*
X039446Y025388D02*
X039554Y025388D01*
X039574Y025340D02*
X039426Y025340D01*
X039406Y025291D02*
X039594Y025291D01*
X039614Y025243D02*
X039386Y025243D01*
X039337Y025194D02*
X039663Y025194D01*
X039711Y025146D02*
X039289Y025146D01*
X038711Y025146D02*
X038289Y025146D01*
X038337Y025194D02*
X038663Y025194D01*
X038614Y025243D02*
X038386Y025243D01*
X038406Y025291D02*
X038594Y025291D01*
X038574Y025340D02*
X038426Y025340D01*
X038446Y025388D02*
X038554Y025388D01*
X038545Y025437D02*
X038455Y025437D01*
X038455Y025485D02*
X038545Y025485D01*
X038545Y025534D02*
X038455Y025534D01*
X038455Y025582D02*
X038545Y025582D01*
X038562Y025631D02*
X038438Y025631D01*
X038418Y025679D02*
X038582Y025679D01*
X038602Y025728D02*
X038398Y025728D01*
X038367Y025776D02*
X038633Y025776D01*
X038681Y025825D02*
X038319Y025825D01*
X038270Y025873D02*
X038730Y025873D01*
X038829Y025922D02*
X038171Y025922D01*
X037829Y025922D02*
X037171Y025922D01*
X037270Y025873D02*
X037730Y025873D01*
X037681Y025825D02*
X037319Y025825D01*
X037367Y025776D02*
X037633Y025776D01*
X037602Y025728D02*
X037398Y025728D01*
X037418Y025679D02*
X037582Y025679D01*
X037562Y025631D02*
X037438Y025631D01*
X037455Y025582D02*
X037545Y025582D01*
X037545Y025534D02*
X037455Y025534D01*
X037455Y025485D02*
X037545Y025485D01*
X037545Y025437D02*
X037455Y025437D01*
X037446Y025388D02*
X037554Y025388D01*
X037574Y025340D02*
X037426Y025340D01*
X037406Y025291D02*
X037594Y025291D01*
X037614Y025243D02*
X037386Y025243D01*
X037337Y025194D02*
X037663Y025194D01*
X037711Y025146D02*
X037289Y025146D01*
X036711Y025146D02*
X036289Y025146D01*
X036337Y025194D02*
X036663Y025194D01*
X036614Y025243D02*
X036386Y025243D01*
X036406Y025291D02*
X036594Y025291D01*
X036574Y025340D02*
X036426Y025340D01*
X036446Y025388D02*
X036554Y025388D01*
X036545Y025437D02*
X036455Y025437D01*
X036455Y025485D02*
X036545Y025485D01*
X036545Y025534D02*
X036455Y025534D01*
X036455Y025582D02*
X036545Y025582D01*
X036562Y025631D02*
X036438Y025631D01*
X036418Y025679D02*
X036582Y025679D01*
X036602Y025728D02*
X036398Y025728D01*
X036367Y025776D02*
X036633Y025776D01*
X036681Y025825D02*
X036319Y025825D01*
X036270Y025873D02*
X036730Y025873D01*
X036829Y025922D02*
X036171Y025922D01*
X035575Y025663D02*
X035545Y025591D01*
X035545Y025409D01*
X035614Y025242D01*
X035733Y025123D01*
X035267Y025123D01*
X035386Y025242D01*
X035455Y025409D01*
X035455Y025591D01*
X035386Y025758D01*
X035258Y025886D01*
X035091Y025955D01*
X034909Y025955D01*
X034742Y025886D01*
X034614Y025758D01*
X034545Y025591D01*
X034545Y025409D01*
X034614Y025242D01*
X034733Y025123D01*
X034267Y025123D01*
X034386Y025242D01*
X034455Y025409D01*
X034455Y025591D01*
X034386Y025758D01*
X034258Y025886D01*
X034091Y025955D01*
X033909Y025955D01*
X033742Y025886D01*
X033614Y025758D01*
X033545Y025591D01*
X033545Y025409D01*
X033614Y025242D01*
X033733Y025123D01*
X033267Y025123D01*
X033386Y025242D01*
X033455Y025409D01*
X033455Y025591D01*
X033386Y025758D01*
X033258Y025886D01*
X033091Y025955D01*
X032909Y025955D01*
X032742Y025886D01*
X032614Y025758D01*
X032545Y025591D01*
X032545Y025409D01*
X032614Y025242D01*
X032733Y025123D01*
X032267Y025123D01*
X032386Y025242D01*
X032455Y025409D01*
X032455Y025591D01*
X032386Y025758D01*
X032258Y025886D01*
X032091Y025955D01*
X031909Y025955D01*
X031742Y025886D01*
X031614Y025758D01*
X031545Y025591D01*
X031545Y025409D01*
X031614Y025242D01*
X031733Y025123D01*
X030450Y025123D01*
X030450Y025397D01*
X030455Y025409D01*
X030455Y025591D01*
X030450Y025603D01*
X030450Y026150D01*
X031000Y026700D01*
X031000Y027500D01*
X031988Y027500D01*
X032061Y027427D01*
X032061Y027156D01*
X032111Y027106D01*
X032381Y027106D01*
X032386Y027111D01*
X034127Y027111D01*
X035575Y025663D01*
X035559Y025679D02*
X035418Y025679D01*
X035398Y025728D02*
X035511Y025728D01*
X035462Y025776D02*
X035367Y025776D01*
X035414Y025825D02*
X035319Y025825D01*
X035365Y025873D02*
X035270Y025873D01*
X035317Y025922D02*
X035171Y025922D01*
X035220Y026019D02*
X030450Y026019D01*
X030450Y026067D02*
X035171Y026067D01*
X035123Y026116D02*
X030450Y026116D01*
X030464Y026164D02*
X035074Y026164D01*
X035026Y026213D02*
X030513Y026213D01*
X030561Y026261D02*
X034977Y026261D01*
X034929Y026310D02*
X030610Y026310D01*
X030658Y026358D02*
X034880Y026358D01*
X034832Y026407D02*
X030707Y026407D01*
X030755Y026455D02*
X034783Y026455D01*
X034735Y026504D02*
X030804Y026504D01*
X030852Y026552D02*
X034686Y026552D01*
X034638Y026601D02*
X030901Y026601D01*
X030949Y026649D02*
X034589Y026649D01*
X034541Y026698D02*
X030998Y026698D01*
X031000Y026746D02*
X034492Y026746D01*
X034444Y026795D02*
X031000Y026795D01*
X031000Y026843D02*
X034395Y026843D01*
X034347Y026892D02*
X031000Y026892D01*
X031000Y026940D02*
X034298Y026940D01*
X034250Y026989D02*
X031000Y026989D01*
X031000Y027037D02*
X034201Y027037D01*
X034153Y027086D02*
X031000Y027086D01*
X031000Y027134D02*
X032083Y027134D01*
X032061Y027183D02*
X031000Y027183D01*
X031000Y027231D02*
X032061Y027231D01*
X032061Y027280D02*
X031000Y027280D01*
X031000Y027328D02*
X032061Y027328D01*
X032061Y027377D02*
X031000Y027377D01*
X031000Y027425D02*
X032061Y027425D01*
X032015Y027474D02*
X031000Y027474D01*
X030450Y025970D02*
X035268Y025970D01*
X035438Y025631D02*
X035562Y025631D01*
X035545Y025582D02*
X035455Y025582D01*
X035455Y025534D02*
X035545Y025534D01*
X035545Y025485D02*
X035455Y025485D01*
X035455Y025437D02*
X035545Y025437D01*
X035554Y025388D02*
X035446Y025388D01*
X035426Y025340D02*
X035574Y025340D01*
X035594Y025291D02*
X035406Y025291D01*
X035386Y025243D02*
X035614Y025243D01*
X035663Y025194D02*
X035337Y025194D01*
X035289Y025146D02*
X035711Y025146D01*
X034711Y025146D02*
X034289Y025146D01*
X034337Y025194D02*
X034663Y025194D01*
X034614Y025243D02*
X034386Y025243D01*
X034406Y025291D02*
X034594Y025291D01*
X034574Y025340D02*
X034426Y025340D01*
X034446Y025388D02*
X034554Y025388D01*
X034545Y025437D02*
X034455Y025437D01*
X034455Y025485D02*
X034545Y025485D01*
X034545Y025534D02*
X034455Y025534D01*
X034455Y025582D02*
X034545Y025582D01*
X034562Y025631D02*
X034438Y025631D01*
X034418Y025679D02*
X034582Y025679D01*
X034602Y025728D02*
X034398Y025728D01*
X034367Y025776D02*
X034633Y025776D01*
X034681Y025825D02*
X034319Y025825D01*
X034270Y025873D02*
X034730Y025873D01*
X034829Y025922D02*
X034171Y025922D01*
X033829Y025922D02*
X033171Y025922D01*
X033270Y025873D02*
X033730Y025873D01*
X033681Y025825D02*
X033319Y025825D01*
X033367Y025776D02*
X033633Y025776D01*
X033602Y025728D02*
X033398Y025728D01*
X033418Y025679D02*
X033582Y025679D01*
X033562Y025631D02*
X033438Y025631D01*
X033455Y025582D02*
X033545Y025582D01*
X033545Y025534D02*
X033455Y025534D01*
X033455Y025485D02*
X033545Y025485D01*
X033545Y025437D02*
X033455Y025437D01*
X033446Y025388D02*
X033554Y025388D01*
X033574Y025340D02*
X033426Y025340D01*
X033406Y025291D02*
X033594Y025291D01*
X033614Y025243D02*
X033386Y025243D01*
X033337Y025194D02*
X033663Y025194D01*
X033711Y025146D02*
X033289Y025146D01*
X032711Y025146D02*
X032289Y025146D01*
X032337Y025194D02*
X032663Y025194D01*
X032614Y025243D02*
X032386Y025243D01*
X032406Y025291D02*
X032594Y025291D01*
X032574Y025340D02*
X032426Y025340D01*
X032446Y025388D02*
X032554Y025388D01*
X032545Y025437D02*
X032455Y025437D01*
X032455Y025485D02*
X032545Y025485D01*
X032545Y025534D02*
X032455Y025534D01*
X032455Y025582D02*
X032545Y025582D01*
X032562Y025631D02*
X032438Y025631D01*
X032418Y025679D02*
X032582Y025679D01*
X032602Y025728D02*
X032398Y025728D01*
X032367Y025776D02*
X032633Y025776D01*
X032681Y025825D02*
X032319Y025825D01*
X032270Y025873D02*
X032730Y025873D01*
X032829Y025922D02*
X032171Y025922D01*
X031829Y025922D02*
X030450Y025922D01*
X030450Y025873D02*
X031730Y025873D01*
X031681Y025825D02*
X030450Y025825D01*
X030450Y025776D02*
X031633Y025776D01*
X031602Y025728D02*
X030450Y025728D01*
X030450Y025679D02*
X031582Y025679D01*
X031562Y025631D02*
X030450Y025631D01*
X030455Y025582D02*
X031545Y025582D01*
X031545Y025534D02*
X030455Y025534D01*
X030455Y025485D02*
X031545Y025485D01*
X031545Y025437D02*
X030455Y025437D01*
X030450Y025388D02*
X031554Y025388D01*
X031574Y025340D02*
X030450Y025340D01*
X030450Y025291D02*
X031594Y025291D01*
X031614Y025243D02*
X030450Y025243D01*
X030450Y025194D02*
X031663Y025194D01*
X031711Y025146D02*
X030450Y025146D01*
X032500Y029899D02*
X040377Y029899D01*
X040377Y029947D02*
X032500Y029947D01*
X032500Y029996D02*
X040377Y029996D01*
X040377Y030044D02*
X032500Y030044D01*
X032500Y030093D02*
X040377Y030093D01*
X040377Y030141D02*
X032500Y030141D01*
X032500Y030190D02*
X040377Y030190D01*
X040377Y030238D02*
X032500Y030238D01*
X032500Y030287D02*
X040377Y030287D01*
X040377Y030335D02*
X032500Y030335D01*
X032500Y031257D02*
X040377Y031257D01*
X040377Y031305D02*
X032500Y031305D01*
X032500Y031354D02*
X040377Y031354D01*
X040377Y031402D02*
X032500Y031402D01*
X032500Y031451D02*
X040377Y031451D01*
X040377Y031499D02*
X032500Y031499D01*
X032500Y031548D02*
X040377Y031548D01*
X040377Y031596D02*
X032500Y031596D01*
X032500Y031645D02*
X040377Y031645D01*
X040377Y031693D02*
X032500Y031693D01*
D22*
X033050Y032000D03*
X033050Y032300D03*
X033050Y033350D03*
X033050Y033650D03*
X033500Y034000D03*
X033500Y035000D03*
X034500Y035000D03*
X035500Y035000D03*
X036500Y035000D03*
X036500Y034000D03*
X036500Y033000D03*
X035500Y033000D03*
X035500Y034000D03*
X034500Y034000D03*
X034500Y033000D03*
X035500Y032000D03*
X036500Y032000D03*
X036500Y031000D03*
X037500Y031000D03*
X038500Y031000D03*
X039500Y031000D03*
X039500Y030000D03*
X038500Y030000D03*
X037500Y030000D03*
X038500Y029000D03*
X039500Y029000D03*
X039500Y028000D03*
X038500Y027000D03*
X038500Y026000D03*
X036500Y026000D03*
X036500Y027000D03*
X035500Y027000D03*
X035500Y028000D03*
X036500Y028000D03*
X035500Y029000D03*
X033500Y028000D03*
X033500Y027000D03*
X033500Y026000D03*
X031500Y026000D03*
X031200Y026650D03*
X031500Y027050D03*
X033050Y029300D03*
X033050Y029600D03*
X033050Y030650D03*
X033050Y030950D03*
X037500Y032000D03*
X038500Y032000D03*
X039500Y032000D03*
X039500Y033000D03*
X039500Y034000D03*
X038500Y034000D03*
X038500Y033000D03*
X037500Y033000D03*
X037500Y034000D03*
X037500Y035000D03*
X038500Y035000D03*
X039500Y035000D03*
X039500Y036000D03*
X030500Y036000D03*
X029500Y036000D03*
X029500Y037000D03*
X030500Y037000D03*
X026250Y036000D03*
D23*
X029000Y032750D02*
X028500Y032250D01*
X028500Y031750D01*
X028000Y031250D01*
X029000Y032750D02*
X030150Y032750D01*
X030750Y032750D01*
X031563Y031937D01*
X031563Y031750D01*
X030150Y032750D02*
X030150Y030663D01*
X030563Y030250D01*
X030563Y029187D01*
X032246Y027504D01*
X032259Y027491D01*
X032259Y027296D01*
X034204Y027296D01*
X036000Y025500D01*
X032246Y027291D02*
X032246Y027504D01*
D24*
X030000Y027050D02*
X029988Y027050D01*
X029988Y028150D01*
X029000Y028150D01*
X029000Y029750D01*
X029000Y028150D02*
X023701Y028150D01*
X023701Y034850D01*
X029300Y034850D01*
X030563Y034850D01*
X030563Y033250D01*
X030563Y034850D02*
X031591Y034850D01*
D25*
X032500Y035300D02*
X032600Y035200D01*
X036750Y035200D01*
X037050Y035500D01*
X037750Y035500D01*
X038450Y035500D01*
X038450Y036100D02*
X038750Y036400D01*
X038750Y036750D01*
X039000Y037000D02*
X039000Y037500D01*
X039000Y037000D02*
X039250Y036750D01*
X038250Y036750D02*
X038000Y037000D01*
X038000Y037500D01*
X037750Y036750D02*
X037750Y036100D01*
X037050Y036100D02*
X036750Y036400D01*
X036750Y036750D01*
X037000Y037000D02*
X037250Y036750D01*
X037000Y037000D02*
X037000Y037500D01*
X036000Y037500D02*
X036000Y037000D01*
X036250Y036750D01*
X035750Y036750D02*
X036350Y036150D01*
X035650Y036150D02*
X035350Y036450D01*
X035000Y036450D01*
X034750Y036700D01*
X034750Y036750D01*
X034650Y036450D02*
X034000Y036450D01*
X033750Y036700D01*
X033750Y036750D01*
X033800Y036450D02*
X033000Y036450D01*
X032750Y036700D01*
X032750Y036750D01*
X032500Y036500D02*
X032050Y036500D01*
X031800Y036250D01*
X031750Y036250D01*
X031550Y036000D02*
X031450Y036100D01*
X031450Y036800D01*
X031250Y037000D01*
X030800Y037000D01*
X030300Y037500D01*
X030000Y037500D01*
X031000Y037500D02*
X031750Y036750D01*
X032000Y037000D02*
X032250Y036750D01*
X032000Y037000D02*
X032000Y037500D01*
X033000Y037500D02*
X033000Y037000D01*
X033250Y036750D01*
X033800Y036450D02*
X034100Y036150D01*
X034250Y036150D01*
X034650Y036450D02*
X034950Y036150D01*
X035250Y036750D02*
X035000Y037000D01*
X035000Y037500D01*
X034000Y037500D02*
X034000Y037000D01*
X034250Y036750D01*
X033550Y036150D02*
X033250Y035850D01*
X032600Y035850D01*
X032250Y036200D01*
X032250Y036250D01*
X032200Y036000D02*
X032500Y035700D01*
X032500Y035300D01*
X032200Y036000D02*
X031550Y036000D01*
X032500Y036500D02*
X032850Y036150D01*
X028000Y036400D02*
X027500Y036900D01*
X026250Y036900D01*
X025950Y036900D02*
X025950Y036800D01*
X026300Y036450D01*
X025950Y036900D02*
X025600Y036900D01*
X025000Y037500D01*
X024000Y037500D02*
X024000Y036450D01*
X024000Y036150D02*
X024000Y035900D01*
X024500Y035400D01*
X026000Y035400D01*
X027000Y036400D01*
M02*
