G75*
%MOIN*%
%OFA0B0*%
%FSLAX24Y24*%
%IPPOS*%
%LPD*%
%AMOC8*
5,1,8,0,0,1.08239X$1,22.5*
%
%ADD10C,0.0000*%
%ADD11R,0.0200X0.0200*%
%ADD12R,0.0450X0.0700*%
%ADD13R,0.0740X0.0740*%
%ADD14C,0.0740*%
%ADD15R,0.0400X0.0400*%
%ADD16R,0.0350X0.0250*%
%ADD17R,0.0250X0.0350*%
%ADD18C,0.0425*%
%ADD19C,0.0756*%
%ADD20C,0.0100*%
%ADD21C,0.0050*%
%ADD22C,0.0197*%
%ADD23C,0.0200*%
%ADD24C,0.0400*%
%ADD25C,0.0080*%
D10*
X022500Y025000D02*
X022500Y038000D01*
X040500Y038000D01*
X040500Y025000D01*
X022500Y025000D01*
X024870Y029250D02*
X024872Y029300D01*
X024878Y029350D01*
X024888Y029399D01*
X024902Y029447D01*
X024919Y029494D01*
X024940Y029539D01*
X024965Y029583D01*
X024993Y029624D01*
X025025Y029663D01*
X025059Y029700D01*
X025096Y029734D01*
X025136Y029764D01*
X025178Y029791D01*
X025222Y029815D01*
X025268Y029836D01*
X025315Y029852D01*
X025363Y029865D01*
X025413Y029874D01*
X025462Y029879D01*
X025513Y029880D01*
X025563Y029877D01*
X025612Y029870D01*
X025661Y029859D01*
X025709Y029844D01*
X025755Y029826D01*
X025800Y029804D01*
X025843Y029778D01*
X025884Y029749D01*
X025923Y029717D01*
X025959Y029682D01*
X025991Y029644D01*
X026021Y029604D01*
X026048Y029561D01*
X026071Y029517D01*
X026090Y029471D01*
X026106Y029423D01*
X026118Y029374D01*
X026126Y029325D01*
X026130Y029275D01*
X026130Y029225D01*
X026126Y029175D01*
X026118Y029126D01*
X026106Y029077D01*
X026090Y029029D01*
X026071Y028983D01*
X026048Y028939D01*
X026021Y028896D01*
X025991Y028856D01*
X025959Y028818D01*
X025923Y028783D01*
X025884Y028751D01*
X025843Y028722D01*
X025800Y028696D01*
X025755Y028674D01*
X025709Y028656D01*
X025661Y028641D01*
X025612Y028630D01*
X025563Y028623D01*
X025513Y028620D01*
X025462Y028621D01*
X025413Y028626D01*
X025363Y028635D01*
X025315Y028648D01*
X025268Y028664D01*
X025222Y028685D01*
X025178Y028709D01*
X025136Y028736D01*
X025096Y028766D01*
X025059Y028800D01*
X025025Y028837D01*
X024993Y028876D01*
X024965Y028917D01*
X024940Y028961D01*
X024919Y029006D01*
X024902Y029053D01*
X024888Y029101D01*
X024878Y029150D01*
X024872Y029200D01*
X024870Y029250D01*
X024870Y033750D02*
X024872Y033800D01*
X024878Y033850D01*
X024888Y033899D01*
X024902Y033947D01*
X024919Y033994D01*
X024940Y034039D01*
X024965Y034083D01*
X024993Y034124D01*
X025025Y034163D01*
X025059Y034200D01*
X025096Y034234D01*
X025136Y034264D01*
X025178Y034291D01*
X025222Y034315D01*
X025268Y034336D01*
X025315Y034352D01*
X025363Y034365D01*
X025413Y034374D01*
X025462Y034379D01*
X025513Y034380D01*
X025563Y034377D01*
X025612Y034370D01*
X025661Y034359D01*
X025709Y034344D01*
X025755Y034326D01*
X025800Y034304D01*
X025843Y034278D01*
X025884Y034249D01*
X025923Y034217D01*
X025959Y034182D01*
X025991Y034144D01*
X026021Y034104D01*
X026048Y034061D01*
X026071Y034017D01*
X026090Y033971D01*
X026106Y033923D01*
X026118Y033874D01*
X026126Y033825D01*
X026130Y033775D01*
X026130Y033725D01*
X026126Y033675D01*
X026118Y033626D01*
X026106Y033577D01*
X026090Y033529D01*
X026071Y033483D01*
X026048Y033439D01*
X026021Y033396D01*
X025991Y033356D01*
X025959Y033318D01*
X025923Y033283D01*
X025884Y033251D01*
X025843Y033222D01*
X025800Y033196D01*
X025755Y033174D01*
X025709Y033156D01*
X025661Y033141D01*
X025612Y033130D01*
X025563Y033123D01*
X025513Y033120D01*
X025462Y033121D01*
X025413Y033126D01*
X025363Y033135D01*
X025315Y033148D01*
X025268Y033164D01*
X025222Y033185D01*
X025178Y033209D01*
X025136Y033236D01*
X025096Y033266D01*
X025059Y033300D01*
X025025Y033337D01*
X024993Y033376D01*
X024965Y033417D01*
X024940Y033461D01*
X024919Y033506D01*
X024902Y033553D01*
X024888Y033601D01*
X024878Y033650D01*
X024872Y033700D01*
X024870Y033750D01*
X024370Y036200D02*
X024372Y036250D01*
X024378Y036300D01*
X024388Y036349D01*
X024402Y036397D01*
X024419Y036444D01*
X024440Y036489D01*
X024465Y036533D01*
X024493Y036574D01*
X024525Y036613D01*
X024559Y036650D01*
X024596Y036684D01*
X024636Y036714D01*
X024678Y036741D01*
X024722Y036765D01*
X024768Y036786D01*
X024815Y036802D01*
X024863Y036815D01*
X024913Y036824D01*
X024962Y036829D01*
X025013Y036830D01*
X025063Y036827D01*
X025112Y036820D01*
X025161Y036809D01*
X025209Y036794D01*
X025255Y036776D01*
X025300Y036754D01*
X025343Y036728D01*
X025384Y036699D01*
X025423Y036667D01*
X025459Y036632D01*
X025491Y036594D01*
X025521Y036554D01*
X025548Y036511D01*
X025571Y036467D01*
X025590Y036421D01*
X025606Y036373D01*
X025618Y036324D01*
X025626Y036275D01*
X025630Y036225D01*
X025630Y036175D01*
X025626Y036125D01*
X025618Y036076D01*
X025606Y036027D01*
X025590Y035979D01*
X025571Y035933D01*
X025548Y035889D01*
X025521Y035846D01*
X025491Y035806D01*
X025459Y035768D01*
X025423Y035733D01*
X025384Y035701D01*
X025343Y035672D01*
X025300Y035646D01*
X025255Y035624D01*
X025209Y035606D01*
X025161Y035591D01*
X025112Y035580D01*
X025063Y035573D01*
X025013Y035570D01*
X024962Y035571D01*
X024913Y035576D01*
X024863Y035585D01*
X024815Y035598D01*
X024768Y035614D01*
X024722Y035635D01*
X024678Y035659D01*
X024636Y035686D01*
X024596Y035716D01*
X024559Y035750D01*
X024525Y035787D01*
X024493Y035826D01*
X024465Y035867D01*
X024440Y035911D01*
X024419Y035956D01*
X024402Y036003D01*
X024388Y036051D01*
X024378Y036100D01*
X024372Y036150D01*
X024370Y036200D01*
D11*
X033150Y033700D03*
X033450Y033700D03*
X033450Y033300D03*
X033150Y033300D03*
X033900Y033350D03*
X033900Y033650D03*
X033900Y032300D03*
X033900Y032000D03*
X033450Y031950D03*
X033150Y031950D03*
X033150Y032350D03*
X033450Y032350D03*
X033450Y031000D03*
X033150Y031000D03*
X033150Y030600D03*
X033450Y030600D03*
X033900Y030650D03*
X033900Y030950D03*
X033900Y029600D03*
X033900Y029300D03*
X033450Y029250D03*
X033150Y029250D03*
X033150Y029650D03*
X033450Y029650D03*
X032246Y027291D03*
X031946Y027291D03*
D12*
X031200Y027050D03*
X030000Y027050D03*
X030500Y035950D03*
X029300Y035950D03*
D13*
X023000Y037500D03*
X023000Y025500D03*
D14*
X024000Y025500D03*
X025000Y025500D03*
X026000Y025500D03*
X027000Y025500D03*
X028000Y025500D03*
X029000Y025500D03*
X030000Y025500D03*
X031000Y025500D03*
X032000Y025500D03*
X033000Y025500D03*
X034000Y025500D03*
X035000Y025500D03*
X036000Y025500D03*
X037000Y025500D03*
X038000Y025500D03*
X039000Y025500D03*
X040000Y025500D03*
X040000Y037500D03*
X039000Y037500D03*
X038000Y037500D03*
X037000Y037500D03*
X036000Y037500D03*
X035000Y037500D03*
X034000Y037500D03*
X033000Y037500D03*
X032000Y037500D03*
X031000Y037500D03*
X030000Y037500D03*
X029000Y037500D03*
X028000Y037500D03*
X027000Y037500D03*
X026000Y037500D03*
X025000Y037500D03*
X024000Y037500D03*
D15*
X032850Y036150D03*
X032850Y035550D03*
X033550Y035550D03*
X033550Y036150D03*
X034250Y036150D03*
X034250Y035550D03*
X034950Y035550D03*
X034950Y036150D03*
X035650Y036150D03*
X035650Y035550D03*
X036350Y035550D03*
X036350Y036150D03*
X037050Y036100D03*
X037050Y035500D03*
X037750Y035500D03*
X037750Y036100D03*
X038450Y036100D03*
X038450Y035500D03*
D16*
X032250Y036250D03*
X032250Y036750D03*
X031750Y036750D03*
X031750Y036250D03*
D17*
X032750Y036750D03*
X033250Y036750D03*
X033750Y036750D03*
X034250Y036750D03*
X034750Y036750D03*
X035250Y036750D03*
X035750Y036750D03*
X036250Y036750D03*
X036750Y036750D03*
X037250Y036750D03*
X037750Y036750D03*
X038250Y036750D03*
X038750Y036750D03*
X039250Y036750D03*
D18*
X031602Y032750D03*
X031602Y031750D03*
X031602Y030750D03*
X031602Y029750D03*
X030602Y030250D03*
X030602Y031250D03*
X030602Y032250D03*
X030602Y033250D03*
X029000Y032750D03*
X028000Y032250D03*
X029000Y031750D03*
X028000Y031250D03*
X029000Y030750D03*
X028000Y030250D03*
X029000Y029750D03*
X028000Y033250D03*
D19*
X031602Y034848D03*
X023701Y034848D03*
X023701Y028152D03*
X030000Y028152D03*
D20*
X033050Y029300D02*
X033100Y029250D01*
X033150Y029250D01*
X033450Y029250D02*
X033450Y029650D01*
X033500Y029600D01*
X033900Y029600D01*
X033150Y029650D02*
X033100Y029650D01*
X033050Y029600D01*
X033100Y030600D02*
X033050Y030650D01*
X033100Y030600D02*
X033150Y030600D01*
X033450Y030600D02*
X033500Y030650D01*
X033900Y030650D01*
X033450Y030600D02*
X033450Y031000D01*
X033150Y031000D02*
X033100Y031000D01*
X033050Y030950D01*
X033100Y031950D02*
X033050Y032000D01*
X033100Y031950D02*
X033150Y031950D01*
X033450Y031950D02*
X033450Y032350D01*
X033500Y032300D01*
X033900Y032300D01*
X033150Y032350D02*
X033100Y032350D01*
X033050Y032300D01*
X033100Y033300D02*
X033050Y033350D01*
X033100Y033300D02*
X033150Y033300D01*
X033450Y033300D02*
X033500Y033350D01*
X033900Y033350D01*
X033450Y033300D02*
X033450Y033700D01*
X033150Y033700D02*
X033100Y033700D01*
X033050Y033650D01*
D21*
X032919Y033779D02*
X032500Y033779D01*
X032500Y033827D02*
X032965Y033827D01*
X032965Y033824D02*
X032867Y033726D01*
X032867Y033574D01*
X032941Y033500D01*
X032867Y033426D01*
X032867Y033274D01*
X032965Y033176D01*
X032965Y033165D01*
X033015Y033115D01*
X033285Y033115D01*
X033300Y033130D01*
X033315Y033115D01*
X033585Y033115D01*
X033635Y033165D01*
X033635Y033215D01*
X033715Y033215D01*
X033715Y033215D01*
X033765Y033165D01*
X034035Y033165D01*
X034085Y033215D01*
X034085Y033485D01*
X034083Y033487D01*
X034097Y033510D01*
X034104Y033536D01*
X040377Y033536D01*
X040377Y033488D02*
X034084Y033488D01*
X034085Y033439D02*
X040377Y033439D01*
X040377Y033391D02*
X034085Y033391D01*
X034085Y033342D02*
X040377Y033342D01*
X040377Y033294D02*
X034085Y033294D01*
X034085Y033245D02*
X040377Y033245D01*
X040377Y033197D02*
X034067Y033197D01*
X033733Y033197D02*
X033635Y033197D01*
X033618Y033148D02*
X040377Y033148D01*
X040377Y033100D02*
X032500Y033100D01*
X032500Y033148D02*
X032982Y033148D01*
X032944Y033197D02*
X032500Y033197D01*
X032500Y033245D02*
X032896Y033245D01*
X032867Y033294D02*
X032500Y033294D01*
X032500Y033342D02*
X032867Y033342D01*
X032867Y033391D02*
X032500Y033391D01*
X032500Y033439D02*
X032880Y033439D01*
X032928Y033488D02*
X032500Y033488D01*
X032500Y033536D02*
X032905Y033536D01*
X032867Y033585D02*
X032500Y033585D01*
X032500Y033633D02*
X032867Y033633D01*
X032867Y033682D02*
X032500Y033682D01*
X032500Y033730D02*
X032871Y033730D01*
X032965Y033824D02*
X032965Y033835D01*
X033015Y033885D01*
X033285Y033885D01*
X033300Y033870D01*
X033315Y033885D01*
X033585Y033885D01*
X033635Y033835D01*
X033635Y033565D01*
X033585Y033515D01*
X033585Y033515D01*
X033585Y033485D01*
X033715Y033485D01*
X033715Y033485D01*
X033717Y033487D01*
X033703Y033510D01*
X033696Y033536D01*
X033606Y033536D01*
X033585Y033488D02*
X033716Y033488D01*
X033696Y033536D02*
X033696Y033625D01*
X033875Y033625D01*
X033875Y033675D01*
X033875Y033854D01*
X033786Y033854D01*
X033760Y033847D01*
X033736Y033833D01*
X033717Y033814D01*
X033703Y033790D01*
X033696Y033764D01*
X033696Y033675D01*
X033875Y033675D01*
X033925Y033675D01*
X033925Y033854D01*
X034014Y033854D01*
X034040Y033847D01*
X034064Y033833D01*
X034083Y033814D01*
X034097Y033790D01*
X034104Y033764D01*
X034104Y033675D01*
X033925Y033675D01*
X033925Y033625D01*
X034104Y033625D01*
X034104Y033536D01*
X034104Y033585D02*
X040377Y033585D01*
X040377Y033633D02*
X033925Y033633D01*
X033925Y033682D02*
X033875Y033682D01*
X033875Y033730D02*
X033925Y033730D01*
X033925Y033779D02*
X033875Y033779D01*
X033875Y033827D02*
X033925Y033827D01*
X034070Y033827D02*
X040377Y033827D01*
X040377Y033779D02*
X034100Y033779D01*
X034104Y033730D02*
X040377Y033730D01*
X040377Y033682D02*
X034104Y033682D01*
X033875Y033633D02*
X033635Y033633D01*
X033635Y033585D02*
X033696Y033585D01*
X033696Y033682D02*
X033635Y033682D01*
X033635Y033730D02*
X033696Y033730D01*
X033700Y033779D02*
X033635Y033779D01*
X033635Y033827D02*
X033730Y033827D01*
X033595Y033876D02*
X040377Y033876D01*
X040377Y033924D02*
X032500Y033924D01*
X032500Y033876D02*
X033005Y033876D01*
X033295Y033876D02*
X033305Y033876D01*
X032500Y033973D02*
X040377Y033973D01*
X040377Y034021D02*
X032500Y034021D01*
X032500Y034070D02*
X040377Y034070D01*
X040377Y034118D02*
X032500Y034118D01*
X032500Y034167D02*
X040377Y034167D01*
X040377Y034215D02*
X032500Y034215D01*
X032500Y034264D02*
X040377Y034264D01*
X040377Y034312D02*
X032500Y034312D01*
X032500Y034361D02*
X040377Y034361D01*
X040377Y034409D02*
X032500Y034409D01*
X032500Y034458D02*
X040377Y034458D01*
X040377Y034506D02*
X032500Y034506D01*
X032500Y034555D02*
X040377Y034555D01*
X040377Y034603D02*
X032500Y034603D01*
X032500Y034652D02*
X040377Y034652D01*
X040377Y034700D02*
X032500Y034700D01*
X032500Y034749D02*
X040377Y034749D01*
X040377Y034797D02*
X032500Y034797D01*
X032500Y034846D02*
X040377Y034846D01*
X040377Y034894D02*
X032500Y034894D01*
X032500Y034943D02*
X040377Y034943D01*
X040377Y034991D02*
X032500Y034991D01*
X032500Y035040D02*
X040377Y035040D01*
X040377Y035088D02*
X036815Y035088D01*
X036802Y035075D02*
X036942Y035215D01*
X037285Y035215D01*
X037335Y035265D01*
X037335Y035375D01*
X037465Y035375D01*
X037465Y035265D01*
X037515Y035215D01*
X037985Y035215D01*
X038035Y035265D01*
X038035Y035375D01*
X038165Y035375D01*
X038165Y035265D01*
X038215Y035215D01*
X038685Y035215D01*
X038735Y035265D01*
X038735Y035735D01*
X038685Y035785D01*
X038215Y035785D01*
X038165Y035735D01*
X038165Y035625D01*
X038035Y035625D01*
X038035Y035735D01*
X037985Y035785D01*
X037515Y035785D01*
X037465Y035735D01*
X037465Y035625D01*
X037335Y035625D01*
X037335Y035735D01*
X037285Y035785D01*
X036815Y035785D01*
X036765Y035735D01*
X036765Y035392D01*
X036698Y035325D01*
X036651Y035325D01*
X036654Y035336D01*
X036654Y035525D01*
X036375Y035525D01*
X036375Y035575D01*
X036325Y035575D01*
X036325Y035854D01*
X036136Y035854D01*
X036110Y035847D01*
X036086Y035833D01*
X036067Y035814D01*
X036053Y035790D01*
X036046Y035764D01*
X036046Y035575D01*
X036325Y035575D01*
X036325Y035525D01*
X036046Y035525D01*
X036046Y035336D01*
X036049Y035325D01*
X035951Y035325D01*
X035954Y035336D01*
X035954Y035525D01*
X035675Y035525D01*
X035675Y035575D01*
X035625Y035575D01*
X035625Y035854D01*
X035436Y035854D01*
X035410Y035847D01*
X035386Y035833D01*
X035367Y035814D01*
X035353Y035790D01*
X035346Y035764D01*
X035346Y035575D01*
X035625Y035575D01*
X035625Y035525D01*
X035346Y035525D01*
X035346Y035336D01*
X035349Y035325D01*
X035251Y035325D01*
X035254Y035336D01*
X035254Y035525D01*
X034975Y035525D01*
X034975Y035575D01*
X034925Y035575D01*
X034925Y035854D01*
X034736Y035854D01*
X034710Y035847D01*
X034686Y035833D01*
X034667Y035814D01*
X034653Y035790D01*
X034646Y035764D01*
X034646Y035575D01*
X034925Y035575D01*
X034925Y035525D01*
X034646Y035525D01*
X034646Y035336D01*
X034649Y035325D01*
X034551Y035325D01*
X034554Y035336D01*
X034554Y035525D01*
X034275Y035525D01*
X034275Y035575D01*
X034225Y035575D01*
X034225Y035854D01*
X034036Y035854D01*
X034010Y035847D01*
X033986Y035833D01*
X033967Y035814D01*
X033953Y035790D01*
X033946Y035764D01*
X033946Y035575D01*
X034225Y035575D01*
X034225Y035525D01*
X033946Y035525D01*
X033946Y035336D01*
X033949Y035325D01*
X033851Y035325D01*
X033854Y035336D01*
X033854Y035525D01*
X033575Y035525D01*
X033575Y035575D01*
X033525Y035575D01*
X033525Y035854D01*
X033431Y035854D01*
X033442Y035865D01*
X033785Y035865D01*
X033835Y035915D01*
X033835Y036238D01*
X033965Y036108D01*
X033965Y035915D01*
X034015Y035865D01*
X034485Y035865D01*
X034535Y035915D01*
X034535Y036325D01*
X034598Y036325D01*
X034665Y036258D01*
X034665Y035915D01*
X034715Y035865D01*
X035185Y035865D01*
X035235Y035915D01*
X035235Y036325D01*
X035298Y036325D01*
X035365Y036258D01*
X035365Y035915D01*
X035415Y035865D01*
X035885Y035865D01*
X035935Y035915D01*
X035935Y036385D01*
X035885Y036435D01*
X035542Y036435D01*
X035448Y036528D01*
X035460Y036540D01*
X035460Y036960D01*
X035410Y037010D01*
X035167Y037010D01*
X035125Y037052D01*
X035125Y037059D01*
X035258Y037114D01*
X035386Y037242D01*
X035455Y037409D01*
X035455Y037591D01*
X035386Y037758D01*
X035267Y037877D01*
X035733Y037877D01*
X035614Y037758D01*
X035545Y037591D01*
X035545Y037409D01*
X035614Y037242D01*
X035742Y037114D01*
X035875Y037059D01*
X035875Y037010D01*
X035590Y037010D01*
X035540Y036960D01*
X035540Y036540D01*
X035590Y036490D01*
X035833Y036490D01*
X036065Y036258D01*
X036065Y035915D01*
X036115Y035865D01*
X036585Y035865D01*
X036635Y035915D01*
X036635Y036338D01*
X036765Y036208D01*
X036765Y035865D01*
X036815Y035815D01*
X037285Y035815D01*
X037335Y035865D01*
X037335Y036335D01*
X037285Y036385D01*
X036942Y036385D01*
X036875Y036452D01*
X036875Y036490D01*
X036910Y036490D01*
X036960Y036540D01*
X036960Y036863D01*
X037040Y036783D01*
X037040Y036540D01*
X037090Y036490D01*
X037410Y036490D01*
X037460Y036540D01*
X037460Y036960D01*
X037410Y037010D01*
X037167Y037010D01*
X037125Y037052D01*
X037125Y037059D01*
X037258Y037114D01*
X037386Y037242D01*
X037455Y037409D01*
X037455Y037591D01*
X037386Y037758D01*
X037267Y037877D01*
X037733Y037877D01*
X037614Y037758D01*
X037545Y037591D01*
X037545Y037409D01*
X037614Y037242D01*
X037742Y037114D01*
X037875Y037059D01*
X037875Y037010D01*
X037590Y037010D01*
X037540Y036960D01*
X037540Y036540D01*
X037590Y036490D01*
X037625Y036490D01*
X037625Y036385D01*
X037515Y036385D01*
X037465Y036335D01*
X037465Y035865D01*
X037515Y035815D01*
X037985Y035815D01*
X038035Y035865D01*
X038035Y036335D01*
X037985Y036385D01*
X037875Y036385D01*
X037875Y036490D01*
X037910Y036490D01*
X037960Y036540D01*
X037960Y036863D01*
X038040Y036783D01*
X038040Y036540D01*
X038090Y036490D01*
X038410Y036490D01*
X038460Y036540D01*
X038460Y036960D01*
X038410Y037010D01*
X038167Y037010D01*
X038125Y037052D01*
X038125Y037059D01*
X038258Y037114D01*
X038386Y037242D01*
X038455Y037409D01*
X038455Y037591D01*
X038386Y037758D01*
X038267Y037877D01*
X038733Y037877D01*
X038614Y037758D01*
X038545Y037591D01*
X038545Y037409D01*
X038614Y037242D01*
X038742Y037114D01*
X038875Y037059D01*
X038875Y037010D01*
X038590Y037010D01*
X038540Y036960D01*
X038540Y036540D01*
X038590Y036490D01*
X038625Y036490D01*
X038625Y036452D01*
X038558Y036385D01*
X038215Y036385D01*
X038165Y036335D01*
X038165Y035865D01*
X038215Y035815D01*
X038685Y035815D01*
X038735Y035865D01*
X038735Y036208D01*
X038875Y036348D01*
X038875Y036490D01*
X038910Y036490D01*
X038960Y036540D01*
X038960Y036863D01*
X039040Y036783D01*
X039040Y036540D01*
X039090Y036490D01*
X039410Y036490D01*
X039460Y036540D01*
X039460Y036960D01*
X039410Y037010D01*
X039167Y037010D01*
X039125Y037052D01*
X039125Y037059D01*
X039258Y037114D01*
X039386Y037242D01*
X039455Y037409D01*
X039455Y037591D01*
X039386Y037758D01*
X039267Y037877D01*
X039712Y037877D01*
X039691Y037861D01*
X039639Y037809D01*
X039595Y037748D01*
X039561Y037682D01*
X039538Y037611D01*
X039526Y037537D01*
X039526Y037525D01*
X039975Y037525D01*
X039975Y037475D01*
X040025Y037475D01*
X040025Y037026D01*
X040037Y037026D01*
X040111Y037038D01*
X040182Y037061D01*
X040248Y037095D01*
X040309Y037139D01*
X040361Y037191D01*
X040377Y037212D01*
X040377Y025767D01*
X040258Y025886D01*
X040091Y025955D01*
X039909Y025955D01*
X039742Y025886D01*
X039614Y025758D01*
X039545Y025591D01*
X039545Y025409D01*
X039614Y025242D01*
X039733Y025123D01*
X039267Y025123D01*
X039386Y025242D01*
X039455Y025409D01*
X039455Y025591D01*
X039386Y025758D01*
X039258Y025886D01*
X039091Y025955D01*
X038909Y025955D01*
X038742Y025886D01*
X038614Y025758D01*
X038545Y025591D01*
X038545Y025409D01*
X038614Y025242D01*
X038733Y025123D01*
X038267Y025123D01*
X038386Y025242D01*
X038455Y025409D01*
X038455Y025591D01*
X038386Y025758D01*
X038258Y025886D01*
X038091Y025955D01*
X037909Y025955D01*
X037742Y025886D01*
X037614Y025758D01*
X037545Y025591D01*
X037545Y025409D01*
X037614Y025242D01*
X037733Y025123D01*
X037267Y025123D01*
X037386Y025242D01*
X037455Y025409D01*
X037455Y025591D01*
X037386Y025758D01*
X037258Y025886D01*
X037091Y025955D01*
X036909Y025955D01*
X036742Y025886D01*
X036614Y025758D01*
X036545Y025591D01*
X036545Y025409D01*
X036614Y025242D01*
X036733Y025123D01*
X036267Y025123D01*
X036386Y025242D01*
X036455Y025409D01*
X036455Y025591D01*
X036386Y025758D01*
X036258Y025886D01*
X036091Y025955D01*
X035909Y025955D01*
X035837Y025925D01*
X034389Y027373D01*
X034281Y027481D01*
X032444Y027481D01*
X032444Y027500D01*
X032500Y027500D01*
X032500Y035123D01*
X032548Y035075D01*
X036802Y035075D01*
X036863Y035137D02*
X040377Y035137D01*
X040377Y035185D02*
X036912Y035185D01*
X036752Y035379D02*
X036654Y035379D01*
X036652Y035331D02*
X036704Y035331D01*
X036654Y035428D02*
X036765Y035428D01*
X036765Y035476D02*
X036654Y035476D01*
X036654Y035525D02*
X036765Y035525D01*
X036765Y035573D02*
X036375Y035573D01*
X036375Y035575D02*
X036654Y035575D01*
X036654Y035764D01*
X036647Y035790D01*
X036633Y035814D01*
X036614Y035833D01*
X036590Y035847D01*
X036564Y035854D01*
X036375Y035854D01*
X036375Y035575D01*
X036375Y035622D02*
X036325Y035622D01*
X036325Y035670D02*
X036375Y035670D01*
X036375Y035719D02*
X036325Y035719D01*
X036325Y035767D02*
X036375Y035767D01*
X036375Y035816D02*
X036325Y035816D01*
X036325Y035573D02*
X035675Y035573D01*
X035675Y035575D02*
X035954Y035575D01*
X035954Y035764D01*
X035947Y035790D01*
X035933Y035814D01*
X035914Y035833D01*
X035890Y035847D01*
X035864Y035854D01*
X035675Y035854D01*
X035675Y035575D01*
X035675Y035622D02*
X035625Y035622D01*
X035625Y035670D02*
X035675Y035670D01*
X035675Y035719D02*
X035625Y035719D01*
X035625Y035767D02*
X035675Y035767D01*
X035675Y035816D02*
X035625Y035816D01*
X035625Y035573D02*
X034975Y035573D01*
X034975Y035575D02*
X035254Y035575D01*
X035254Y035764D01*
X035247Y035790D01*
X035233Y035814D01*
X035214Y035833D01*
X035190Y035847D01*
X035164Y035854D01*
X034975Y035854D01*
X034975Y035575D01*
X034975Y035622D02*
X034925Y035622D01*
X034925Y035670D02*
X034975Y035670D01*
X034975Y035719D02*
X034925Y035719D01*
X034925Y035767D02*
X034975Y035767D01*
X034975Y035816D02*
X034925Y035816D01*
X034925Y035573D02*
X034275Y035573D01*
X034275Y035575D02*
X034554Y035575D01*
X034554Y035764D01*
X034547Y035790D01*
X034533Y035814D01*
X034514Y035833D01*
X034490Y035847D01*
X034464Y035854D01*
X034275Y035854D01*
X034275Y035575D01*
X034275Y035622D02*
X034225Y035622D01*
X034225Y035670D02*
X034275Y035670D01*
X034275Y035719D02*
X034225Y035719D01*
X034225Y035767D02*
X034275Y035767D01*
X034275Y035816D02*
X034225Y035816D01*
X034225Y035573D02*
X033575Y035573D01*
X033575Y035575D02*
X033854Y035575D01*
X033854Y035764D01*
X033847Y035790D01*
X033833Y035814D01*
X033814Y035833D01*
X033790Y035847D01*
X033764Y035854D01*
X033575Y035854D01*
X033575Y035575D01*
X033575Y035622D02*
X033525Y035622D01*
X033525Y035575D02*
X033525Y035525D01*
X033246Y035525D01*
X033246Y035336D01*
X033249Y035325D01*
X033151Y035325D01*
X033154Y035336D01*
X033154Y035525D01*
X032875Y035525D01*
X032875Y035575D01*
X033154Y035575D01*
X033154Y035725D01*
X033246Y035725D01*
X033246Y035575D01*
X033525Y035575D01*
X033525Y035573D02*
X032875Y035573D01*
X033154Y035525D02*
X033246Y035525D01*
X033246Y035476D02*
X033154Y035476D01*
X033154Y035428D02*
X033246Y035428D01*
X033246Y035379D02*
X033154Y035379D01*
X033152Y035331D02*
X033248Y035331D01*
X033246Y035622D02*
X033154Y035622D01*
X033154Y035670D02*
X033246Y035670D01*
X033246Y035719D02*
X033154Y035719D01*
X033441Y035864D02*
X036766Y035864D01*
X036765Y035913D02*
X036633Y035913D01*
X036635Y035961D02*
X036765Y035961D01*
X036765Y036010D02*
X036635Y036010D01*
X036635Y036058D02*
X036765Y036058D01*
X036765Y036107D02*
X036635Y036107D01*
X036635Y036155D02*
X036765Y036155D01*
X036765Y036204D02*
X036635Y036204D01*
X036635Y036252D02*
X036721Y036252D01*
X036673Y036301D02*
X036635Y036301D01*
X036881Y036446D02*
X037625Y036446D01*
X037625Y036398D02*
X036929Y036398D01*
X036915Y036495D02*
X037085Y036495D01*
X037040Y036543D02*
X036960Y036543D01*
X036960Y036592D02*
X037040Y036592D01*
X037040Y036640D02*
X036960Y036640D01*
X036960Y036689D02*
X037040Y036689D01*
X037040Y036737D02*
X036960Y036737D01*
X036960Y036786D02*
X037038Y036786D01*
X036989Y036834D02*
X036960Y036834D01*
X037149Y037028D02*
X037875Y037028D01*
X037833Y037077D02*
X037167Y037077D01*
X037269Y037125D02*
X037731Y037125D01*
X037683Y037174D02*
X037317Y037174D01*
X037366Y037222D02*
X037634Y037222D01*
X037603Y037271D02*
X037397Y037271D01*
X037418Y037319D02*
X037582Y037319D01*
X037562Y037368D02*
X037438Y037368D01*
X037455Y037416D02*
X037545Y037416D01*
X037545Y037465D02*
X037455Y037465D01*
X037455Y037513D02*
X037545Y037513D01*
X037545Y037562D02*
X037455Y037562D01*
X037447Y037610D02*
X037553Y037610D01*
X037573Y037659D02*
X037427Y037659D01*
X037407Y037707D02*
X037593Y037707D01*
X037613Y037756D02*
X037387Y037756D01*
X037339Y037804D02*
X037661Y037804D01*
X037709Y037853D02*
X037291Y037853D01*
X037441Y036980D02*
X037559Y036980D01*
X037540Y036931D02*
X037460Y036931D01*
X037460Y036883D02*
X037540Y036883D01*
X037540Y036834D02*
X037460Y036834D01*
X037460Y036786D02*
X037540Y036786D01*
X037540Y036737D02*
X037460Y036737D01*
X037460Y036689D02*
X037540Y036689D01*
X037540Y036640D02*
X037460Y036640D01*
X037460Y036592D02*
X037540Y036592D01*
X037540Y036543D02*
X037460Y036543D01*
X037415Y036495D02*
X037585Y036495D01*
X037479Y036349D02*
X037321Y036349D01*
X037335Y036301D02*
X037465Y036301D01*
X037465Y036252D02*
X037335Y036252D01*
X037335Y036204D02*
X037465Y036204D01*
X037465Y036155D02*
X037335Y036155D01*
X037335Y036107D02*
X037465Y036107D01*
X037465Y036058D02*
X037335Y036058D01*
X037335Y036010D02*
X037465Y036010D01*
X037465Y035961D02*
X037335Y035961D01*
X037335Y035913D02*
X037465Y035913D01*
X037466Y035864D02*
X037334Y035864D01*
X037286Y035816D02*
X037514Y035816D01*
X037497Y035767D02*
X037303Y035767D01*
X037335Y035719D02*
X037465Y035719D01*
X037465Y035670D02*
X037335Y035670D01*
X037335Y035331D02*
X037465Y035331D01*
X037465Y035282D02*
X037335Y035282D01*
X037304Y035234D02*
X037496Y035234D01*
X038004Y035234D02*
X038196Y035234D01*
X038165Y035282D02*
X038035Y035282D01*
X038035Y035331D02*
X038165Y035331D01*
X038165Y035670D02*
X038035Y035670D01*
X038035Y035719D02*
X038165Y035719D01*
X038197Y035767D02*
X038003Y035767D01*
X037986Y035816D02*
X038214Y035816D01*
X038166Y035864D02*
X038034Y035864D01*
X038035Y035913D02*
X038165Y035913D01*
X038165Y035961D02*
X038035Y035961D01*
X038035Y036010D02*
X038165Y036010D01*
X038165Y036058D02*
X038035Y036058D01*
X038035Y036107D02*
X038165Y036107D01*
X038165Y036155D02*
X038035Y036155D01*
X038035Y036204D02*
X038165Y036204D01*
X038165Y036252D02*
X038035Y036252D01*
X038035Y036301D02*
X038165Y036301D01*
X038179Y036349D02*
X038021Y036349D01*
X037875Y036398D02*
X038571Y036398D01*
X038619Y036446D02*
X037875Y036446D01*
X037915Y036495D02*
X038085Y036495D01*
X038040Y036543D02*
X037960Y036543D01*
X037960Y036592D02*
X038040Y036592D01*
X038040Y036640D02*
X037960Y036640D01*
X037960Y036689D02*
X038040Y036689D01*
X038040Y036737D02*
X037960Y036737D01*
X037960Y036786D02*
X038038Y036786D01*
X037989Y036834D02*
X037960Y036834D01*
X038149Y037028D02*
X038875Y037028D01*
X038833Y037077D02*
X038167Y037077D01*
X038269Y037125D02*
X038731Y037125D01*
X038683Y037174D02*
X038317Y037174D01*
X038366Y037222D02*
X038634Y037222D01*
X038603Y037271D02*
X038397Y037271D01*
X038418Y037319D02*
X038582Y037319D01*
X038562Y037368D02*
X038438Y037368D01*
X038455Y037416D02*
X038545Y037416D01*
X038545Y037465D02*
X038455Y037465D01*
X038455Y037513D02*
X038545Y037513D01*
X038545Y037562D02*
X038455Y037562D01*
X038447Y037610D02*
X038553Y037610D01*
X038573Y037659D02*
X038427Y037659D01*
X038407Y037707D02*
X038593Y037707D01*
X038613Y037756D02*
X038387Y037756D01*
X038339Y037804D02*
X038661Y037804D01*
X038709Y037853D02*
X038291Y037853D01*
X039291Y037853D02*
X039683Y037853D01*
X039635Y037804D02*
X039339Y037804D01*
X039387Y037756D02*
X039600Y037756D01*
X039574Y037707D02*
X039407Y037707D01*
X039427Y037659D02*
X039553Y037659D01*
X039538Y037610D02*
X039447Y037610D01*
X039455Y037562D02*
X039530Y037562D01*
X039526Y037475D02*
X039526Y037463D01*
X039538Y037389D01*
X039561Y037318D01*
X039595Y037252D01*
X039639Y037191D01*
X039691Y037139D01*
X039752Y037095D01*
X039818Y037061D01*
X039889Y037038D01*
X039963Y037026D01*
X039975Y037026D01*
X039975Y037475D01*
X039526Y037475D01*
X039526Y037465D02*
X039455Y037465D01*
X039455Y037513D02*
X039975Y037513D01*
X039975Y037465D02*
X040025Y037465D01*
X040025Y037416D02*
X039975Y037416D01*
X039975Y037368D02*
X040025Y037368D01*
X040025Y037319D02*
X039975Y037319D01*
X039975Y037271D02*
X040025Y037271D01*
X040025Y037222D02*
X039975Y037222D01*
X039975Y037174D02*
X040025Y037174D01*
X040025Y037125D02*
X039975Y037125D01*
X039975Y037077D02*
X040025Y037077D01*
X040025Y037028D02*
X039975Y037028D01*
X039951Y037028D02*
X039149Y037028D01*
X039167Y037077D02*
X039788Y037077D01*
X039710Y037125D02*
X039269Y037125D01*
X039317Y037174D02*
X039656Y037174D01*
X039616Y037222D02*
X039366Y037222D01*
X039397Y037271D02*
X039585Y037271D01*
X039561Y037319D02*
X039418Y037319D01*
X039438Y037368D02*
X039545Y037368D01*
X039534Y037416D02*
X039455Y037416D01*
X039441Y036980D02*
X040377Y036980D01*
X040377Y037028D02*
X040049Y037028D01*
X040212Y037077D02*
X040377Y037077D01*
X040377Y037125D02*
X040290Y037125D01*
X040344Y037174D02*
X040377Y037174D01*
X040377Y036931D02*
X039460Y036931D01*
X039460Y036883D02*
X040377Y036883D01*
X040377Y036834D02*
X039460Y036834D01*
X039460Y036786D02*
X040377Y036786D01*
X040377Y036737D02*
X039460Y036737D01*
X039460Y036689D02*
X040377Y036689D01*
X040377Y036640D02*
X039460Y036640D01*
X039460Y036592D02*
X040377Y036592D01*
X040377Y036543D02*
X039460Y036543D01*
X039415Y036495D02*
X040377Y036495D01*
X040377Y036446D02*
X038875Y036446D01*
X038875Y036398D02*
X040377Y036398D01*
X040377Y036349D02*
X038875Y036349D01*
X038827Y036301D02*
X040377Y036301D01*
X040377Y036252D02*
X038779Y036252D01*
X038735Y036204D02*
X040377Y036204D01*
X040377Y036155D02*
X038735Y036155D01*
X038735Y036107D02*
X040377Y036107D01*
X040377Y036058D02*
X038735Y036058D01*
X038735Y036010D02*
X040377Y036010D01*
X040377Y035961D02*
X038735Y035961D01*
X038735Y035913D02*
X040377Y035913D01*
X040377Y035864D02*
X038734Y035864D01*
X038686Y035816D02*
X040377Y035816D01*
X040377Y035767D02*
X038703Y035767D01*
X038735Y035719D02*
X040377Y035719D01*
X040377Y035670D02*
X038735Y035670D01*
X038735Y035622D02*
X040377Y035622D01*
X040377Y035573D02*
X038735Y035573D01*
X038735Y035525D02*
X040377Y035525D01*
X040377Y035476D02*
X038735Y035476D01*
X038735Y035428D02*
X040377Y035428D01*
X040377Y035379D02*
X038735Y035379D01*
X038735Y035331D02*
X040377Y035331D01*
X040377Y035282D02*
X038735Y035282D01*
X038704Y035234D02*
X040377Y035234D01*
X039085Y036495D02*
X038915Y036495D01*
X038960Y036543D02*
X039040Y036543D01*
X039040Y036592D02*
X038960Y036592D01*
X038960Y036640D02*
X039040Y036640D01*
X039040Y036689D02*
X038960Y036689D01*
X038960Y036737D02*
X039040Y036737D01*
X039038Y036786D02*
X038960Y036786D01*
X038960Y036834D02*
X038989Y036834D01*
X038540Y036834D02*
X038460Y036834D01*
X038460Y036786D02*
X038540Y036786D01*
X038540Y036737D02*
X038460Y036737D01*
X038460Y036689D02*
X038540Y036689D01*
X038540Y036640D02*
X038460Y036640D01*
X038460Y036592D02*
X038540Y036592D01*
X038540Y036543D02*
X038460Y036543D01*
X038415Y036495D02*
X038585Y036495D01*
X038540Y036883D02*
X038460Y036883D01*
X038460Y036931D02*
X038540Y036931D01*
X038559Y036980D02*
X038441Y036980D01*
X036814Y035816D02*
X036631Y035816D01*
X036653Y035767D02*
X036797Y035767D01*
X036765Y035719D02*
X036654Y035719D01*
X036654Y035670D02*
X036765Y035670D01*
X036765Y035622D02*
X036654Y035622D01*
X036046Y035622D02*
X035954Y035622D01*
X035954Y035670D02*
X036046Y035670D01*
X036046Y035719D02*
X035954Y035719D01*
X035953Y035767D02*
X036047Y035767D01*
X036069Y035816D02*
X035931Y035816D01*
X035933Y035913D02*
X036067Y035913D01*
X036065Y035961D02*
X035935Y035961D01*
X035935Y036010D02*
X036065Y036010D01*
X036065Y036058D02*
X035935Y036058D01*
X035935Y036107D02*
X036065Y036107D01*
X036065Y036155D02*
X035935Y036155D01*
X035935Y036204D02*
X036065Y036204D01*
X036065Y036252D02*
X035935Y036252D01*
X035935Y036301D02*
X036023Y036301D01*
X035974Y036349D02*
X035935Y036349D01*
X035926Y036398D02*
X035923Y036398D01*
X035877Y036446D02*
X035531Y036446D01*
X035482Y036495D02*
X035585Y036495D01*
X035540Y036543D02*
X035460Y036543D01*
X035460Y036592D02*
X035540Y036592D01*
X035540Y036640D02*
X035460Y036640D01*
X035460Y036689D02*
X035540Y036689D01*
X035540Y036737D02*
X035460Y036737D01*
X035460Y036786D02*
X035540Y036786D01*
X035540Y036834D02*
X035460Y036834D01*
X035460Y036883D02*
X035540Y036883D01*
X035540Y036931D02*
X035460Y036931D01*
X035441Y036980D02*
X035559Y036980D01*
X035731Y037125D02*
X035269Y037125D01*
X035317Y037174D02*
X035683Y037174D01*
X035634Y037222D02*
X035366Y037222D01*
X035397Y037271D02*
X035603Y037271D01*
X035582Y037319D02*
X035418Y037319D01*
X035438Y037368D02*
X035562Y037368D01*
X035545Y037416D02*
X035455Y037416D01*
X035455Y037465D02*
X035545Y037465D01*
X035545Y037513D02*
X035455Y037513D01*
X035455Y037562D02*
X035545Y037562D01*
X035553Y037610D02*
X035447Y037610D01*
X035427Y037659D02*
X035573Y037659D01*
X035593Y037707D02*
X035407Y037707D01*
X035387Y037756D02*
X035613Y037756D01*
X035661Y037804D02*
X035339Y037804D01*
X035291Y037853D02*
X035709Y037853D01*
X035833Y037077D02*
X035167Y037077D01*
X035149Y037028D02*
X035875Y037028D01*
X035323Y036301D02*
X035235Y036301D01*
X035235Y036252D02*
X035365Y036252D01*
X035365Y036204D02*
X035235Y036204D01*
X035235Y036155D02*
X035365Y036155D01*
X035365Y036107D02*
X035235Y036107D01*
X035235Y036058D02*
X035365Y036058D01*
X035365Y036010D02*
X035235Y036010D01*
X035235Y035961D02*
X035365Y035961D01*
X035367Y035913D02*
X035233Y035913D01*
X035231Y035816D02*
X035369Y035816D01*
X035347Y035767D02*
X035253Y035767D01*
X035254Y035719D02*
X035346Y035719D01*
X035346Y035670D02*
X035254Y035670D01*
X035254Y035622D02*
X035346Y035622D01*
X035346Y035525D02*
X035254Y035525D01*
X035254Y035476D02*
X035346Y035476D01*
X035346Y035428D02*
X035254Y035428D01*
X035254Y035379D02*
X035346Y035379D01*
X035348Y035331D02*
X035252Y035331D01*
X034648Y035331D02*
X034552Y035331D01*
X034554Y035379D02*
X034646Y035379D01*
X034646Y035428D02*
X034554Y035428D01*
X034554Y035476D02*
X034646Y035476D01*
X034646Y035525D02*
X034554Y035525D01*
X034554Y035622D02*
X034646Y035622D01*
X034646Y035670D02*
X034554Y035670D01*
X034554Y035719D02*
X034646Y035719D01*
X034647Y035767D02*
X034553Y035767D01*
X034531Y035816D02*
X034669Y035816D01*
X034667Y035913D02*
X034533Y035913D01*
X034535Y035961D02*
X034665Y035961D01*
X034665Y036010D02*
X034535Y036010D01*
X034535Y036058D02*
X034665Y036058D01*
X034665Y036107D02*
X034535Y036107D01*
X034535Y036155D02*
X034665Y036155D01*
X034665Y036204D02*
X034535Y036204D01*
X034535Y036252D02*
X034665Y036252D01*
X034623Y036301D02*
X034535Y036301D01*
X033965Y036107D02*
X033835Y036107D01*
X033835Y036155D02*
X033918Y036155D01*
X033870Y036204D02*
X033835Y036204D01*
X033835Y036058D02*
X033965Y036058D01*
X033965Y036010D02*
X033835Y036010D01*
X033835Y035961D02*
X033965Y035961D01*
X033967Y035913D02*
X033833Y035913D01*
X033831Y035816D02*
X033969Y035816D01*
X033947Y035767D02*
X033853Y035767D01*
X033854Y035719D02*
X033946Y035719D01*
X033946Y035670D02*
X033854Y035670D01*
X033854Y035622D02*
X033946Y035622D01*
X033946Y035525D02*
X033854Y035525D01*
X033854Y035476D02*
X033946Y035476D01*
X033946Y035428D02*
X033854Y035428D01*
X033854Y035379D02*
X033946Y035379D01*
X033948Y035331D02*
X033852Y035331D01*
X033575Y035670D02*
X033525Y035670D01*
X033525Y035719D02*
X033575Y035719D01*
X033575Y035767D02*
X033525Y035767D01*
X033525Y035816D02*
X033575Y035816D01*
X032375Y035648D02*
X032375Y035500D01*
X030753Y035500D01*
X030765Y035503D01*
X030789Y035517D01*
X030808Y035536D01*
X030822Y035560D01*
X030829Y035586D01*
X030829Y035925D01*
X030525Y035925D01*
X030525Y035975D01*
X030475Y035975D01*
X030475Y036404D01*
X030300Y036404D01*
X030300Y037157D01*
X030383Y037240D01*
X030675Y036948D01*
X030748Y036875D01*
X031198Y036875D01*
X031325Y036748D01*
X031325Y036048D01*
X031425Y035948D01*
X031498Y035875D01*
X032148Y035875D01*
X032375Y035648D01*
X032375Y035622D02*
X030829Y035622D01*
X030829Y035670D02*
X032353Y035670D01*
X032305Y035719D02*
X030829Y035719D01*
X030829Y035767D02*
X032256Y035767D01*
X032208Y035816D02*
X030829Y035816D01*
X030829Y035864D02*
X032159Y035864D01*
X032375Y035573D02*
X030825Y035573D01*
X030796Y035525D02*
X032375Y035525D01*
X032500Y035088D02*
X032535Y035088D01*
X031461Y035913D02*
X030829Y035913D01*
X030829Y035975D02*
X030829Y036314D01*
X030822Y036340D01*
X030808Y036364D01*
X030789Y036383D01*
X030765Y036397D01*
X030739Y036404D01*
X030525Y036404D01*
X030525Y035975D01*
X030829Y035975D01*
X030829Y036010D02*
X031364Y036010D01*
X031325Y036058D02*
X030829Y036058D01*
X030829Y036107D02*
X031325Y036107D01*
X031325Y036155D02*
X030829Y036155D01*
X030829Y036204D02*
X031325Y036204D01*
X031325Y036252D02*
X030829Y036252D01*
X030829Y036301D02*
X031325Y036301D01*
X031325Y036349D02*
X030816Y036349D01*
X030762Y036398D02*
X031325Y036398D01*
X031325Y036446D02*
X030300Y036446D01*
X030300Y036495D02*
X031325Y036495D01*
X031325Y036543D02*
X030300Y036543D01*
X030300Y036592D02*
X031325Y036592D01*
X031325Y036640D02*
X030300Y036640D01*
X030300Y036689D02*
X031325Y036689D01*
X031325Y036737D02*
X030300Y036737D01*
X030300Y036786D02*
X031288Y036786D01*
X031239Y036834D02*
X030300Y036834D01*
X030300Y036883D02*
X030741Y036883D01*
X030692Y036931D02*
X030300Y036931D01*
X030300Y036980D02*
X030644Y036980D01*
X030595Y037028D02*
X030300Y037028D01*
X030300Y037077D02*
X030547Y037077D01*
X030498Y037125D02*
X030300Y037125D01*
X030317Y037174D02*
X030450Y037174D01*
X030401Y037222D02*
X030366Y037222D01*
X030475Y036398D02*
X030525Y036398D01*
X030525Y036349D02*
X030475Y036349D01*
X030475Y036301D02*
X030525Y036301D01*
X030525Y036252D02*
X030475Y036252D01*
X030475Y036204D02*
X030525Y036204D01*
X030525Y036155D02*
X030475Y036155D01*
X030475Y036107D02*
X030525Y036107D01*
X030525Y036058D02*
X030475Y036058D01*
X030475Y036010D02*
X030525Y036010D01*
X030525Y035961D02*
X031412Y035961D01*
X031425Y035948D02*
X031425Y035948D01*
X030525Y035925D02*
X030525Y035500D01*
X030475Y035500D01*
X030475Y035925D01*
X030525Y035925D01*
X030525Y035913D02*
X030475Y035913D01*
X030475Y035864D02*
X030525Y035864D01*
X030525Y035816D02*
X030475Y035816D01*
X030475Y035767D02*
X030525Y035767D01*
X030525Y035719D02*
X030475Y035719D01*
X030475Y035670D02*
X030525Y035670D01*
X030525Y035622D02*
X030475Y035622D01*
X030475Y035573D02*
X030525Y035573D01*
X030525Y035525D02*
X030475Y035525D01*
X032500Y033051D02*
X040377Y033051D01*
X040377Y033003D02*
X032500Y033003D01*
X032500Y032954D02*
X040377Y032954D01*
X040377Y032906D02*
X032500Y032906D01*
X032500Y032857D02*
X040377Y032857D01*
X040377Y032809D02*
X032500Y032809D01*
X032500Y032760D02*
X040377Y032760D01*
X040377Y032712D02*
X032500Y032712D01*
X032500Y032663D02*
X040377Y032663D01*
X040377Y032615D02*
X032500Y032615D01*
X032500Y032566D02*
X040377Y032566D01*
X040377Y032518D02*
X033603Y032518D01*
X033585Y032535D02*
X033315Y032535D01*
X033300Y032520D01*
X033285Y032535D01*
X033015Y032535D01*
X032965Y032485D01*
X032965Y032474D01*
X032867Y032376D01*
X032867Y032224D01*
X032941Y032150D01*
X032867Y032076D01*
X032867Y031924D01*
X032965Y031826D01*
X032965Y031815D01*
X033015Y031765D01*
X033285Y031765D01*
X033300Y031780D01*
X033315Y031765D01*
X033585Y031765D01*
X033635Y031815D01*
X033635Y032085D01*
X033585Y032135D01*
X033585Y032165D01*
X033715Y032165D01*
X033715Y032165D01*
X033717Y032163D01*
X033703Y032140D01*
X033696Y032114D01*
X033696Y032025D01*
X033875Y032025D01*
X033875Y031975D01*
X033925Y031975D01*
X033925Y032025D01*
X034104Y032025D01*
X034104Y032114D01*
X034097Y032140D01*
X034083Y032163D01*
X034085Y032165D01*
X034085Y032435D01*
X034035Y032485D01*
X033765Y032485D01*
X033715Y032435D01*
X033635Y032435D01*
X033635Y032485D01*
X033585Y032535D01*
X033635Y032469D02*
X033749Y032469D01*
X033715Y032435D02*
X033715Y032435D01*
X033701Y032130D02*
X033591Y032130D01*
X033585Y032135D02*
X033585Y032135D01*
X033635Y032081D02*
X033696Y032081D01*
X033696Y032033D02*
X033635Y032033D01*
X033635Y031984D02*
X033875Y031984D01*
X033875Y031975D02*
X033696Y031975D01*
X033696Y031886D01*
X033703Y031860D01*
X033717Y031836D01*
X033736Y031817D01*
X033760Y031803D01*
X033786Y031796D01*
X033875Y031796D01*
X033875Y031975D01*
X033875Y031936D02*
X033925Y031936D01*
X033925Y031975D02*
X033925Y031796D01*
X034014Y031796D01*
X034040Y031803D01*
X034064Y031817D01*
X034083Y031836D01*
X034097Y031860D01*
X034104Y031886D01*
X034104Y031975D01*
X033925Y031975D01*
X033925Y031984D02*
X040377Y031984D01*
X040377Y031936D02*
X034104Y031936D01*
X034104Y031887D02*
X040377Y031887D01*
X040377Y031839D02*
X034084Y031839D01*
X033925Y031839D02*
X033875Y031839D01*
X033875Y031887D02*
X033925Y031887D01*
X033716Y031839D02*
X033635Y031839D01*
X033635Y031887D02*
X033696Y031887D01*
X033696Y031936D02*
X033635Y031936D01*
X033610Y031790D02*
X040377Y031790D01*
X040377Y031742D02*
X032500Y031742D01*
X032500Y031790D02*
X032990Y031790D01*
X032952Y031839D02*
X032500Y031839D01*
X032500Y031887D02*
X032904Y031887D01*
X032867Y031936D02*
X032500Y031936D01*
X032500Y031984D02*
X032867Y031984D01*
X032867Y032033D02*
X032500Y032033D01*
X032500Y032081D02*
X032872Y032081D01*
X032920Y032130D02*
X032500Y032130D01*
X032500Y032178D02*
X032913Y032178D01*
X032867Y032227D02*
X032500Y032227D01*
X032500Y032275D02*
X032867Y032275D01*
X032867Y032324D02*
X032500Y032324D01*
X032500Y032372D02*
X032867Y032372D01*
X032911Y032421D02*
X032500Y032421D01*
X032500Y032469D02*
X032960Y032469D01*
X032997Y032518D02*
X032500Y032518D01*
X032500Y031693D02*
X040377Y031693D01*
X040377Y031645D02*
X032500Y031645D01*
X032500Y031596D02*
X040377Y031596D01*
X040377Y031548D02*
X032500Y031548D01*
X032500Y031499D02*
X040377Y031499D01*
X040377Y031451D02*
X032500Y031451D01*
X032500Y031402D02*
X040377Y031402D01*
X040377Y031354D02*
X032500Y031354D01*
X032500Y031305D02*
X040377Y031305D01*
X040377Y031257D02*
X032500Y031257D01*
X032500Y031208D02*
X040377Y031208D01*
X040377Y031160D02*
X033611Y031160D01*
X033635Y031135D02*
X033585Y031185D01*
X033315Y031185D01*
X033300Y031170D01*
X033285Y031185D01*
X033015Y031185D01*
X032965Y031135D01*
X032965Y031124D01*
X032867Y031026D01*
X032867Y030874D01*
X032941Y030800D01*
X032867Y030726D01*
X032867Y030574D01*
X032965Y030476D01*
X032965Y030465D01*
X033015Y030415D01*
X033285Y030415D01*
X033300Y030430D01*
X033315Y030415D01*
X033585Y030415D01*
X033635Y030465D01*
X033635Y030515D01*
X033715Y030515D01*
X033715Y030515D01*
X033765Y030465D01*
X034035Y030465D01*
X034085Y030515D01*
X034085Y030785D01*
X034083Y030787D01*
X034097Y030810D01*
X034104Y030836D01*
X034104Y030925D01*
X033925Y030925D01*
X033925Y030975D01*
X033875Y030975D01*
X033875Y031154D01*
X033786Y031154D01*
X033760Y031147D01*
X033736Y031133D01*
X033717Y031114D01*
X033703Y031090D01*
X033696Y031064D01*
X033696Y030975D01*
X033875Y030975D01*
X033875Y030925D01*
X033696Y030925D01*
X033696Y030836D01*
X033703Y030810D01*
X033717Y030787D01*
X033715Y030785D01*
X033585Y030785D01*
X033585Y030815D01*
X033585Y030815D01*
X033635Y030865D01*
X033635Y031135D01*
X033635Y031111D02*
X033715Y031111D01*
X033696Y031063D02*
X033635Y031063D01*
X033635Y031014D02*
X033696Y031014D01*
X033635Y030966D02*
X033875Y030966D01*
X033875Y031014D02*
X033925Y031014D01*
X033925Y030975D02*
X033925Y031154D01*
X034014Y031154D01*
X034040Y031147D01*
X034064Y031133D01*
X034083Y031114D01*
X034097Y031090D01*
X034104Y031064D01*
X034104Y030975D01*
X033925Y030975D01*
X033925Y030966D02*
X040377Y030966D01*
X040377Y031014D02*
X034104Y031014D01*
X034104Y031063D02*
X040377Y031063D01*
X040377Y031111D02*
X034085Y031111D01*
X033925Y031111D02*
X033875Y031111D01*
X033875Y031063D02*
X033925Y031063D01*
X034104Y030917D02*
X040377Y030917D01*
X040377Y030869D02*
X034104Y030869D01*
X034099Y030820D02*
X040377Y030820D01*
X040377Y030772D02*
X034085Y030772D01*
X034085Y030723D02*
X040377Y030723D01*
X040377Y030675D02*
X034085Y030675D01*
X034085Y030626D02*
X040377Y030626D01*
X040377Y030578D02*
X034085Y030578D01*
X034085Y030529D02*
X040377Y030529D01*
X040377Y030481D02*
X034051Y030481D01*
X033749Y030481D02*
X033635Y030481D01*
X033602Y030432D02*
X040377Y030432D01*
X040377Y030384D02*
X032500Y030384D01*
X032500Y030432D02*
X032998Y030432D01*
X032960Y030481D02*
X032500Y030481D01*
X032500Y030529D02*
X032912Y030529D01*
X032867Y030578D02*
X032500Y030578D01*
X032500Y030626D02*
X032867Y030626D01*
X032867Y030675D02*
X032500Y030675D01*
X032500Y030723D02*
X032867Y030723D01*
X032912Y030772D02*
X032500Y030772D01*
X032500Y030820D02*
X032921Y030820D01*
X032872Y030869D02*
X032500Y030869D01*
X032500Y030917D02*
X032867Y030917D01*
X032867Y030966D02*
X032500Y030966D01*
X032500Y031014D02*
X032867Y031014D01*
X032903Y031063D02*
X032500Y031063D01*
X032500Y031111D02*
X032952Y031111D01*
X032989Y031160D02*
X032500Y031160D01*
X032500Y030335D02*
X040377Y030335D01*
X040377Y030287D02*
X032500Y030287D01*
X032500Y030238D02*
X040377Y030238D01*
X040377Y030190D02*
X032500Y030190D01*
X032500Y030141D02*
X040377Y030141D01*
X040377Y030093D02*
X032500Y030093D01*
X032500Y030044D02*
X040377Y030044D01*
X040377Y029996D02*
X032500Y029996D01*
X032500Y029947D02*
X040377Y029947D01*
X040377Y029899D02*
X032500Y029899D01*
X032500Y029850D02*
X040377Y029850D01*
X040377Y029802D02*
X033619Y029802D01*
X033635Y029785D02*
X033585Y029835D01*
X033315Y029835D01*
X033300Y029820D01*
X033285Y029835D01*
X033015Y029835D01*
X032965Y029785D01*
X032965Y029774D01*
X032867Y029676D01*
X032867Y029524D01*
X032941Y029450D01*
X032867Y029376D01*
X032867Y029224D01*
X032965Y029126D01*
X032965Y029115D01*
X033015Y029065D01*
X033285Y029065D01*
X033300Y029080D01*
X033315Y029065D01*
X033585Y029065D01*
X033635Y029115D01*
X033635Y029385D01*
X033585Y029435D01*
X033585Y029465D01*
X033715Y029465D01*
X033715Y029465D01*
X033717Y029463D01*
X033703Y029440D01*
X033696Y029414D01*
X033696Y029325D01*
X033875Y029325D01*
X033875Y029275D01*
X033925Y029275D01*
X033925Y029325D01*
X034104Y029325D01*
X034104Y029414D01*
X034097Y029440D01*
X034083Y029463D01*
X034085Y029465D01*
X034085Y029735D01*
X034035Y029785D01*
X033765Y029785D01*
X033715Y029735D01*
X033635Y029735D01*
X033635Y029785D01*
X033635Y029753D02*
X033733Y029753D01*
X033715Y029735D02*
X033715Y029735D01*
X033716Y029462D02*
X033585Y029462D01*
X033585Y029435D02*
X033585Y029435D01*
X033607Y029414D02*
X033696Y029414D01*
X033696Y029365D02*
X033635Y029365D01*
X033635Y029317D02*
X033875Y029317D01*
X033875Y029275D02*
X033696Y029275D01*
X033696Y029186D01*
X033703Y029160D01*
X033717Y029136D01*
X033736Y029117D01*
X033760Y029103D01*
X033786Y029096D01*
X033875Y029096D01*
X033875Y029275D01*
X033875Y029268D02*
X033925Y029268D01*
X033925Y029275D02*
X033925Y029096D01*
X034014Y029096D01*
X034040Y029103D01*
X034064Y029117D01*
X034083Y029136D01*
X034097Y029160D01*
X034104Y029186D01*
X034104Y029275D01*
X033925Y029275D01*
X033925Y029317D02*
X040377Y029317D01*
X040377Y029365D02*
X034104Y029365D01*
X034104Y029414D02*
X040377Y029414D01*
X040377Y029462D02*
X034084Y029462D01*
X034085Y029511D02*
X040377Y029511D01*
X040377Y029559D02*
X034085Y029559D01*
X034085Y029608D02*
X040377Y029608D01*
X040377Y029656D02*
X034085Y029656D01*
X034085Y029705D02*
X040377Y029705D01*
X040377Y029753D02*
X034067Y029753D01*
X034104Y029268D02*
X040377Y029268D01*
X040377Y029220D02*
X034104Y029220D01*
X034100Y029171D02*
X040377Y029171D01*
X040377Y029123D02*
X034069Y029123D01*
X033925Y029123D02*
X033875Y029123D01*
X033875Y029171D02*
X033925Y029171D01*
X033925Y029220D02*
X033875Y029220D01*
X033731Y029123D02*
X033635Y029123D01*
X033635Y029171D02*
X033700Y029171D01*
X033696Y029220D02*
X033635Y029220D01*
X033635Y029268D02*
X033696Y029268D01*
X033594Y029074D02*
X040377Y029074D01*
X040377Y029026D02*
X032500Y029026D01*
X032500Y029074D02*
X033006Y029074D01*
X032965Y029123D02*
X032500Y029123D01*
X032500Y029171D02*
X032920Y029171D01*
X032871Y029220D02*
X032500Y029220D01*
X032500Y029268D02*
X032867Y029268D01*
X032867Y029317D02*
X032500Y029317D01*
X032500Y029365D02*
X032867Y029365D01*
X032904Y029414D02*
X032500Y029414D01*
X032500Y029462D02*
X032929Y029462D01*
X032880Y029511D02*
X032500Y029511D01*
X032500Y029559D02*
X032867Y029559D01*
X032867Y029608D02*
X032500Y029608D01*
X032500Y029656D02*
X032867Y029656D01*
X032895Y029705D02*
X032500Y029705D01*
X032500Y029753D02*
X032944Y029753D01*
X032981Y029802D02*
X032500Y029802D01*
X032500Y028977D02*
X040377Y028977D01*
X040377Y028929D02*
X032500Y028929D01*
X032500Y028880D02*
X040377Y028880D01*
X040377Y028832D02*
X032500Y028832D01*
X032500Y028783D02*
X040377Y028783D01*
X040377Y028735D02*
X032500Y028735D01*
X032500Y028686D02*
X040377Y028686D01*
X040377Y028638D02*
X032500Y028638D01*
X032500Y028589D02*
X040377Y028589D01*
X040377Y028541D02*
X032500Y028541D01*
X032500Y028492D02*
X040377Y028492D01*
X040377Y028444D02*
X032500Y028444D01*
X032500Y028395D02*
X040377Y028395D01*
X040377Y028347D02*
X032500Y028347D01*
X032500Y028298D02*
X040377Y028298D01*
X040377Y028250D02*
X032500Y028250D01*
X032500Y028201D02*
X040377Y028201D01*
X040377Y028153D02*
X032500Y028153D01*
X032500Y028104D02*
X040377Y028104D01*
X040377Y028056D02*
X032500Y028056D01*
X032500Y028007D02*
X040377Y028007D01*
X040377Y027959D02*
X032500Y027959D01*
X032500Y027910D02*
X040377Y027910D01*
X040377Y027862D02*
X032500Y027862D01*
X032500Y027813D02*
X040377Y027813D01*
X040377Y027765D02*
X032500Y027765D01*
X032500Y027716D02*
X040377Y027716D01*
X040377Y027668D02*
X032500Y027668D01*
X032500Y027619D02*
X040377Y027619D01*
X040377Y027571D02*
X032500Y027571D01*
X032500Y027522D02*
X040377Y027522D01*
X040377Y027474D02*
X034288Y027474D01*
X034337Y027425D02*
X040377Y027425D01*
X040377Y027377D02*
X034385Y027377D01*
X034434Y027328D02*
X040377Y027328D01*
X040377Y027280D02*
X034482Y027280D01*
X034531Y027231D02*
X040377Y027231D01*
X040377Y027183D02*
X034579Y027183D01*
X034628Y027134D02*
X040377Y027134D01*
X040377Y027086D02*
X034676Y027086D01*
X034725Y027037D02*
X040377Y027037D01*
X040377Y026989D02*
X034773Y026989D01*
X034822Y026940D02*
X040377Y026940D01*
X040377Y026892D02*
X034870Y026892D01*
X034919Y026843D02*
X040377Y026843D01*
X040377Y026795D02*
X034967Y026795D01*
X035016Y026746D02*
X040377Y026746D01*
X040377Y026698D02*
X035064Y026698D01*
X035113Y026649D02*
X040377Y026649D01*
X040377Y026601D02*
X035161Y026601D01*
X035210Y026552D02*
X040377Y026552D01*
X040377Y026504D02*
X035258Y026504D01*
X035307Y026455D02*
X040377Y026455D01*
X040377Y026407D02*
X035355Y026407D01*
X035404Y026358D02*
X040377Y026358D01*
X040377Y026310D02*
X035452Y026310D01*
X035501Y026261D02*
X040377Y026261D01*
X040377Y026213D02*
X035549Y026213D01*
X035598Y026164D02*
X040377Y026164D01*
X040377Y026116D02*
X035646Y026116D01*
X035695Y026067D02*
X040377Y026067D01*
X040377Y026019D02*
X035743Y026019D01*
X035792Y025970D02*
X040377Y025970D01*
X040377Y025922D02*
X040171Y025922D01*
X040270Y025873D02*
X040377Y025873D01*
X040377Y025825D02*
X040319Y025825D01*
X040367Y025776D02*
X040377Y025776D01*
X039829Y025922D02*
X039171Y025922D01*
X039270Y025873D02*
X039730Y025873D01*
X039681Y025825D02*
X039319Y025825D01*
X039367Y025776D02*
X039633Y025776D01*
X039602Y025728D02*
X039398Y025728D01*
X039418Y025679D02*
X039582Y025679D01*
X039562Y025631D02*
X039438Y025631D01*
X039455Y025582D02*
X039545Y025582D01*
X039545Y025534D02*
X039455Y025534D01*
X039455Y025485D02*
X039545Y025485D01*
X039545Y025437D02*
X039455Y025437D01*
X039446Y025388D02*
X039554Y025388D01*
X039574Y025340D02*
X039426Y025340D01*
X039406Y025291D02*
X039594Y025291D01*
X039614Y025243D02*
X039386Y025243D01*
X039337Y025194D02*
X039663Y025194D01*
X039711Y025146D02*
X039289Y025146D01*
X038711Y025146D02*
X038289Y025146D01*
X038337Y025194D02*
X038663Y025194D01*
X038614Y025243D02*
X038386Y025243D01*
X038406Y025291D02*
X038594Y025291D01*
X038574Y025340D02*
X038426Y025340D01*
X038446Y025388D02*
X038554Y025388D01*
X038545Y025437D02*
X038455Y025437D01*
X038455Y025485D02*
X038545Y025485D01*
X038545Y025534D02*
X038455Y025534D01*
X038455Y025582D02*
X038545Y025582D01*
X038562Y025631D02*
X038438Y025631D01*
X038418Y025679D02*
X038582Y025679D01*
X038602Y025728D02*
X038398Y025728D01*
X038367Y025776D02*
X038633Y025776D01*
X038681Y025825D02*
X038319Y025825D01*
X038270Y025873D02*
X038730Y025873D01*
X038829Y025922D02*
X038171Y025922D01*
X037829Y025922D02*
X037171Y025922D01*
X037270Y025873D02*
X037730Y025873D01*
X037681Y025825D02*
X037319Y025825D01*
X037367Y025776D02*
X037633Y025776D01*
X037602Y025728D02*
X037398Y025728D01*
X037418Y025679D02*
X037582Y025679D01*
X037562Y025631D02*
X037438Y025631D01*
X037455Y025582D02*
X037545Y025582D01*
X037545Y025534D02*
X037455Y025534D01*
X037455Y025485D02*
X037545Y025485D01*
X037545Y025437D02*
X037455Y025437D01*
X037446Y025388D02*
X037554Y025388D01*
X037574Y025340D02*
X037426Y025340D01*
X037406Y025291D02*
X037594Y025291D01*
X037614Y025243D02*
X037386Y025243D01*
X037337Y025194D02*
X037663Y025194D01*
X037711Y025146D02*
X037289Y025146D01*
X036711Y025146D02*
X036289Y025146D01*
X036337Y025194D02*
X036663Y025194D01*
X036614Y025243D02*
X036386Y025243D01*
X036406Y025291D02*
X036594Y025291D01*
X036574Y025340D02*
X036426Y025340D01*
X036446Y025388D02*
X036554Y025388D01*
X036545Y025437D02*
X036455Y025437D01*
X036455Y025485D02*
X036545Y025485D01*
X036545Y025534D02*
X036455Y025534D01*
X036455Y025582D02*
X036545Y025582D01*
X036562Y025631D02*
X036438Y025631D01*
X036418Y025679D02*
X036582Y025679D01*
X036602Y025728D02*
X036398Y025728D01*
X036367Y025776D02*
X036633Y025776D01*
X036681Y025825D02*
X036319Y025825D01*
X036270Y025873D02*
X036730Y025873D01*
X036829Y025922D02*
X036171Y025922D01*
X035575Y025663D02*
X035545Y025591D01*
X035545Y025409D01*
X035614Y025242D01*
X035733Y025123D01*
X035267Y025123D01*
X035386Y025242D01*
X035455Y025409D01*
X035455Y025591D01*
X035386Y025758D01*
X035258Y025886D01*
X035091Y025955D01*
X034909Y025955D01*
X034742Y025886D01*
X034614Y025758D01*
X034545Y025591D01*
X034545Y025409D01*
X034614Y025242D01*
X034733Y025123D01*
X034267Y025123D01*
X034386Y025242D01*
X034455Y025409D01*
X034455Y025591D01*
X034386Y025758D01*
X034258Y025886D01*
X034091Y025955D01*
X033909Y025955D01*
X033742Y025886D01*
X033614Y025758D01*
X033545Y025591D01*
X033545Y025409D01*
X033614Y025242D01*
X033733Y025123D01*
X033267Y025123D01*
X033386Y025242D01*
X033455Y025409D01*
X033455Y025591D01*
X033386Y025758D01*
X033258Y025886D01*
X033091Y025955D01*
X032909Y025955D01*
X032742Y025886D01*
X032614Y025758D01*
X032545Y025591D01*
X032545Y025409D01*
X032614Y025242D01*
X032733Y025123D01*
X032267Y025123D01*
X032386Y025242D01*
X032455Y025409D01*
X032455Y025591D01*
X032386Y025758D01*
X032258Y025886D01*
X032091Y025955D01*
X031909Y025955D01*
X031742Y025886D01*
X031614Y025758D01*
X031545Y025591D01*
X031545Y025409D01*
X031614Y025242D01*
X031733Y025123D01*
X031288Y025123D01*
X031309Y025139D01*
X031361Y025191D01*
X031405Y025252D01*
X031439Y025318D01*
X031462Y025389D01*
X031474Y025463D01*
X031474Y025475D01*
X031025Y025475D01*
X031025Y025525D01*
X030975Y025525D01*
X030975Y025974D01*
X030963Y025974D01*
X030889Y025962D01*
X030818Y025939D01*
X030752Y025905D01*
X030691Y025861D01*
X030639Y025809D01*
X030595Y025748D01*
X030561Y025682D01*
X030538Y025611D01*
X030526Y025537D01*
X030526Y025525D01*
X030975Y025525D01*
X030975Y025475D01*
X030526Y025475D01*
X030526Y025463D01*
X030538Y025389D01*
X030561Y025318D01*
X030595Y025252D01*
X030639Y025191D01*
X030691Y025139D01*
X030712Y025123D01*
X030450Y025123D01*
X030450Y025397D01*
X030455Y025409D01*
X030455Y025591D01*
X030450Y025603D01*
X030450Y026150D01*
X030915Y026615D01*
X030935Y026603D01*
X030961Y026596D01*
X031175Y026596D01*
X031175Y027025D01*
X031225Y027025D01*
X031225Y027075D01*
X031529Y027075D01*
X031529Y027414D01*
X031522Y027440D01*
X031508Y027464D01*
X031489Y027483D01*
X031465Y027497D01*
X031453Y027500D01*
X031988Y027500D01*
X031993Y027495D01*
X031971Y027495D01*
X031971Y027316D01*
X031921Y027316D01*
X031921Y027266D01*
X031971Y027266D01*
X031971Y027088D01*
X032060Y027088D01*
X032086Y027095D01*
X032109Y027108D01*
X032111Y027106D01*
X032381Y027106D01*
X032386Y027111D01*
X034127Y027111D01*
X035575Y025663D01*
X035559Y025679D02*
X035418Y025679D01*
X035398Y025728D02*
X035511Y025728D01*
X035462Y025776D02*
X035367Y025776D01*
X035414Y025825D02*
X035319Y025825D01*
X035365Y025873D02*
X035270Y025873D01*
X035317Y025922D02*
X035171Y025922D01*
X035220Y026019D02*
X030450Y026019D01*
X030450Y026067D02*
X035171Y026067D01*
X035123Y026116D02*
X030450Y026116D01*
X030464Y026164D02*
X035074Y026164D01*
X035026Y026213D02*
X030513Y026213D01*
X030561Y026261D02*
X034977Y026261D01*
X034929Y026310D02*
X030610Y026310D01*
X030658Y026358D02*
X034880Y026358D01*
X034832Y026407D02*
X030707Y026407D01*
X030755Y026455D02*
X034783Y026455D01*
X034735Y026504D02*
X030804Y026504D01*
X030852Y026552D02*
X034686Y026552D01*
X034638Y026601D02*
X031455Y026601D01*
X031465Y026603D02*
X031489Y026617D01*
X031508Y026636D01*
X031522Y026660D01*
X031529Y026686D01*
X031529Y027025D01*
X031225Y027025D01*
X031225Y026596D01*
X031439Y026596D01*
X031465Y026603D01*
X031515Y026649D02*
X034589Y026649D01*
X034541Y026698D02*
X031529Y026698D01*
X031529Y026746D02*
X034492Y026746D01*
X034444Y026795D02*
X031529Y026795D01*
X031529Y026843D02*
X034395Y026843D01*
X034347Y026892D02*
X031529Y026892D01*
X031529Y026940D02*
X034298Y026940D01*
X034250Y026989D02*
X031529Y026989D01*
X031529Y027086D02*
X034153Y027086D01*
X034201Y027037D02*
X031225Y027037D01*
X031225Y026989D02*
X031175Y026989D01*
X031175Y026940D02*
X031225Y026940D01*
X031225Y026892D02*
X031175Y026892D01*
X031175Y026843D02*
X031225Y026843D01*
X031225Y026795D02*
X031175Y026795D01*
X031175Y026746D02*
X031225Y026746D01*
X031225Y026698D02*
X031175Y026698D01*
X031175Y026649D02*
X031225Y026649D01*
X031225Y026601D02*
X031175Y026601D01*
X030945Y026601D02*
X030901Y026601D01*
X030939Y025970D02*
X030450Y025970D01*
X030450Y025922D02*
X030784Y025922D01*
X030707Y025873D02*
X030450Y025873D01*
X030450Y025825D02*
X030655Y025825D01*
X030615Y025776D02*
X030450Y025776D01*
X030450Y025728D02*
X030584Y025728D01*
X030560Y025679D02*
X030450Y025679D01*
X030450Y025631D02*
X030544Y025631D01*
X030533Y025582D02*
X030455Y025582D01*
X030455Y025534D02*
X030526Y025534D01*
X030455Y025485D02*
X030975Y025485D01*
X030975Y025534D02*
X031025Y025534D01*
X031025Y025525D02*
X031025Y025974D01*
X031037Y025974D01*
X031111Y025962D01*
X031182Y025939D01*
X031248Y025905D01*
X031309Y025861D01*
X031361Y025809D01*
X031405Y025748D01*
X031439Y025682D01*
X031462Y025611D01*
X031474Y025537D01*
X031474Y025525D01*
X031025Y025525D01*
X031025Y025485D02*
X031545Y025485D01*
X031545Y025437D02*
X031470Y025437D01*
X031462Y025388D02*
X031554Y025388D01*
X031574Y025340D02*
X031446Y025340D01*
X031425Y025291D02*
X031594Y025291D01*
X031614Y025243D02*
X031398Y025243D01*
X031363Y025194D02*
X031663Y025194D01*
X031711Y025146D02*
X031315Y025146D01*
X031474Y025534D02*
X031545Y025534D01*
X031545Y025582D02*
X031467Y025582D01*
X031456Y025631D02*
X031562Y025631D01*
X031582Y025679D02*
X031440Y025679D01*
X031416Y025728D02*
X031602Y025728D01*
X031633Y025776D02*
X031385Y025776D01*
X031345Y025825D02*
X031681Y025825D01*
X031730Y025873D02*
X031293Y025873D01*
X031216Y025922D02*
X031829Y025922D01*
X032171Y025922D02*
X032829Y025922D01*
X032730Y025873D02*
X032270Y025873D01*
X032319Y025825D02*
X032681Y025825D01*
X032633Y025776D02*
X032367Y025776D01*
X032398Y025728D02*
X032602Y025728D01*
X032582Y025679D02*
X032418Y025679D01*
X032438Y025631D02*
X032562Y025631D01*
X032545Y025582D02*
X032455Y025582D01*
X032455Y025534D02*
X032545Y025534D01*
X032545Y025485D02*
X032455Y025485D01*
X032455Y025437D02*
X032545Y025437D01*
X032554Y025388D02*
X032446Y025388D01*
X032426Y025340D02*
X032574Y025340D01*
X032594Y025291D02*
X032406Y025291D01*
X032386Y025243D02*
X032614Y025243D01*
X032663Y025194D02*
X032337Y025194D01*
X032289Y025146D02*
X032711Y025146D01*
X033289Y025146D02*
X033711Y025146D01*
X033663Y025194D02*
X033337Y025194D01*
X033386Y025243D02*
X033614Y025243D01*
X033594Y025291D02*
X033406Y025291D01*
X033426Y025340D02*
X033574Y025340D01*
X033554Y025388D02*
X033446Y025388D01*
X033455Y025437D02*
X033545Y025437D01*
X033545Y025485D02*
X033455Y025485D01*
X033455Y025534D02*
X033545Y025534D01*
X033545Y025582D02*
X033455Y025582D01*
X033438Y025631D02*
X033562Y025631D01*
X033582Y025679D02*
X033418Y025679D01*
X033398Y025728D02*
X033602Y025728D01*
X033633Y025776D02*
X033367Y025776D01*
X033319Y025825D02*
X033681Y025825D01*
X033730Y025873D02*
X033270Y025873D01*
X033171Y025922D02*
X033829Y025922D01*
X034171Y025922D02*
X034829Y025922D01*
X034730Y025873D02*
X034270Y025873D01*
X034319Y025825D02*
X034681Y025825D01*
X034633Y025776D02*
X034367Y025776D01*
X034398Y025728D02*
X034602Y025728D01*
X034582Y025679D02*
X034418Y025679D01*
X034438Y025631D02*
X034562Y025631D01*
X034545Y025582D02*
X034455Y025582D01*
X034455Y025534D02*
X034545Y025534D01*
X034545Y025485D02*
X034455Y025485D01*
X034455Y025437D02*
X034545Y025437D01*
X034554Y025388D02*
X034446Y025388D01*
X034426Y025340D02*
X034574Y025340D01*
X034594Y025291D02*
X034406Y025291D01*
X034386Y025243D02*
X034614Y025243D01*
X034663Y025194D02*
X034337Y025194D01*
X034289Y025146D02*
X034711Y025146D01*
X035289Y025146D02*
X035711Y025146D01*
X035663Y025194D02*
X035337Y025194D01*
X035386Y025243D02*
X035614Y025243D01*
X035594Y025291D02*
X035406Y025291D01*
X035426Y025340D02*
X035574Y025340D01*
X035554Y025388D02*
X035446Y025388D01*
X035455Y025437D02*
X035545Y025437D01*
X035545Y025485D02*
X035455Y025485D01*
X035455Y025534D02*
X035545Y025534D01*
X035545Y025582D02*
X035455Y025582D01*
X035438Y025631D02*
X035562Y025631D01*
X035268Y025970D02*
X031061Y025970D01*
X031025Y025970D02*
X030975Y025970D01*
X030975Y025922D02*
X031025Y025922D01*
X031025Y025873D02*
X030975Y025873D01*
X030975Y025825D02*
X031025Y025825D01*
X031025Y025776D02*
X030975Y025776D01*
X030975Y025728D02*
X031025Y025728D01*
X031025Y025679D02*
X030975Y025679D01*
X030975Y025631D02*
X031025Y025631D01*
X031025Y025582D02*
X030975Y025582D01*
X030530Y025437D02*
X030455Y025437D01*
X030450Y025388D02*
X030538Y025388D01*
X030554Y025340D02*
X030450Y025340D01*
X030450Y025291D02*
X030575Y025291D01*
X030602Y025243D02*
X030450Y025243D01*
X030450Y025194D02*
X030637Y025194D01*
X030685Y025146D02*
X030450Y025146D01*
X031529Y027134D02*
X031759Y027134D01*
X031763Y027128D02*
X031782Y027108D01*
X031806Y027095D01*
X031832Y027088D01*
X031921Y027088D01*
X031921Y027266D01*
X031742Y027266D01*
X031742Y027178D01*
X031749Y027151D01*
X031763Y027128D01*
X031742Y027183D02*
X031529Y027183D01*
X031529Y027231D02*
X031742Y027231D01*
X031742Y027316D02*
X031921Y027316D01*
X031921Y027495D01*
X031832Y027495D01*
X031806Y027488D01*
X031782Y027474D01*
X031763Y027455D01*
X031749Y027431D01*
X031742Y027405D01*
X031742Y027316D01*
X031742Y027328D02*
X031529Y027328D01*
X031529Y027280D02*
X031921Y027280D01*
X031921Y027328D02*
X031971Y027328D01*
X031971Y027377D02*
X031921Y027377D01*
X031921Y027425D02*
X031971Y027425D01*
X031971Y027474D02*
X031921Y027474D01*
X031782Y027474D02*
X031498Y027474D01*
X031526Y027425D02*
X031748Y027425D01*
X031742Y027377D02*
X031529Y027377D01*
X031921Y027231D02*
X031971Y027231D01*
X031971Y027183D02*
X031921Y027183D01*
X031921Y027134D02*
X031971Y027134D01*
X033294Y029074D02*
X033306Y029074D01*
X033715Y030785D02*
X033715Y030785D01*
X033701Y030820D02*
X033590Y030820D01*
X033635Y030869D02*
X033696Y030869D01*
X033696Y030917D02*
X033635Y030917D01*
X034104Y032033D02*
X040377Y032033D01*
X040377Y032081D02*
X034104Y032081D01*
X034099Y032130D02*
X040377Y032130D01*
X040377Y032178D02*
X034085Y032178D01*
X034085Y032227D02*
X040377Y032227D01*
X040377Y032275D02*
X034085Y032275D01*
X034085Y032324D02*
X040377Y032324D01*
X040377Y032372D02*
X034085Y032372D01*
X034085Y032421D02*
X040377Y032421D01*
X040377Y032469D02*
X034051Y032469D01*
X035952Y035331D02*
X036048Y035331D01*
X036046Y035379D02*
X035954Y035379D01*
X035954Y035428D02*
X036046Y035428D01*
X036046Y035476D02*
X035954Y035476D01*
X035954Y035525D02*
X036046Y035525D01*
D22*
X036500Y035000D03*
X035500Y035000D03*
X034500Y035000D03*
X034500Y034000D03*
X034500Y033000D03*
X035500Y033000D03*
X035500Y034000D03*
X036500Y034000D03*
X036500Y033000D03*
X036500Y032000D03*
X035500Y032000D03*
X036500Y031000D03*
X037500Y031000D03*
X038500Y031000D03*
X039500Y031000D03*
X039500Y030000D03*
X038500Y030000D03*
X037500Y030000D03*
X038500Y029000D03*
X039500Y029000D03*
X039500Y028000D03*
X038500Y027000D03*
X038500Y026000D03*
X036500Y026000D03*
X036500Y027000D03*
X035500Y027000D03*
X035500Y028000D03*
X036500Y028000D03*
X035500Y029000D03*
X033500Y028000D03*
X033500Y027000D03*
X033500Y026000D03*
X031500Y026000D03*
X031200Y026650D03*
X031500Y027050D03*
X033050Y029300D03*
X033050Y029600D03*
X033050Y030650D03*
X033050Y030950D03*
X033050Y032000D03*
X033050Y032300D03*
X033050Y033350D03*
X033050Y033650D03*
X033500Y034000D03*
X033500Y035000D03*
X030800Y035950D03*
X030500Y035600D03*
X030500Y036350D03*
X037500Y035000D03*
X038500Y035000D03*
X039500Y035000D03*
X039500Y034000D03*
X039500Y033000D03*
X038500Y033000D03*
X038500Y034000D03*
X037500Y034000D03*
X037500Y033000D03*
X037500Y032000D03*
X038500Y032000D03*
X039500Y032000D03*
X039500Y036000D03*
D23*
X031602Y034848D02*
X031601Y034850D01*
X031600Y034850D01*
X030750Y032750D02*
X031602Y031898D01*
X031602Y031750D01*
X030750Y032750D02*
X030400Y032750D01*
X030150Y032500D01*
X030150Y030702D01*
X030602Y030250D01*
X030600Y030248D01*
X030600Y029200D01*
X030550Y029150D01*
X029000Y029150D01*
X028000Y030150D01*
X028000Y030250D01*
X028000Y030500D01*
X029000Y031500D01*
X029000Y031750D01*
X030600Y029200D02*
X030600Y029150D01*
X032246Y027504D01*
X032259Y027491D01*
X032259Y027296D01*
X034204Y027296D01*
X036000Y025500D01*
X032246Y027291D02*
X032246Y027504D01*
D24*
X030000Y027050D02*
X030000Y028152D01*
X023701Y028152D01*
X023701Y034848D01*
X026900Y034848D01*
X026900Y034850D01*
X028000Y034850D01*
X028000Y033250D01*
X028000Y034850D02*
X029300Y034850D01*
X029300Y035950D01*
X029300Y034850D02*
X030602Y034850D01*
X030602Y033250D01*
X030602Y034850D02*
X031600Y034850D01*
X026900Y034850D02*
X026900Y034850D01*
X029988Y027062D02*
X030000Y027050D01*
D25*
X032600Y035200D02*
X036750Y035200D01*
X037050Y035500D01*
X037750Y035500D01*
X038450Y035500D01*
X038450Y036100D02*
X038750Y036400D01*
X038750Y036750D01*
X039000Y037000D02*
X039000Y037500D01*
X039000Y037000D02*
X039250Y036750D01*
X038250Y036750D02*
X038000Y037000D01*
X038000Y037500D01*
X037750Y036750D02*
X037750Y036100D01*
X037050Y036100D02*
X036750Y036400D01*
X036750Y036750D01*
X037000Y037000D02*
X037250Y036750D01*
X037000Y037000D02*
X037000Y037500D01*
X036000Y037500D02*
X036000Y037000D01*
X036250Y036750D01*
X035750Y036750D02*
X036350Y036150D01*
X035650Y036150D02*
X035350Y036450D01*
X035000Y036450D01*
X034750Y036700D01*
X034750Y036750D01*
X034650Y036450D02*
X034000Y036450D01*
X033750Y036700D01*
X033750Y036750D01*
X033800Y036450D02*
X033000Y036450D01*
X032750Y036700D01*
X032750Y036750D01*
X032500Y036500D02*
X032050Y036500D01*
X031800Y036250D01*
X031750Y036250D01*
X031550Y036000D02*
X031450Y036100D01*
X031450Y036800D01*
X031250Y037000D01*
X030800Y037000D01*
X030300Y037500D01*
X030000Y037500D01*
X031000Y037500D02*
X031750Y036750D01*
X032000Y037000D02*
X032250Y036750D01*
X032000Y037000D02*
X032000Y037500D01*
X033000Y037500D02*
X033000Y037000D01*
X033250Y036750D01*
X033800Y036450D02*
X034100Y036150D01*
X034250Y036150D01*
X034650Y036450D02*
X034950Y036150D01*
X035250Y036750D02*
X035000Y037000D01*
X035000Y037500D01*
X034000Y037500D02*
X034000Y037000D01*
X034250Y036750D01*
X033550Y036150D02*
X033250Y035850D01*
X032600Y035850D01*
X032250Y036200D01*
X032250Y036250D01*
X032200Y036000D02*
X032500Y035700D01*
X032500Y035300D01*
X032600Y035200D01*
X032200Y036000D02*
X031550Y036000D01*
X032500Y036500D02*
X032850Y036150D01*
M02*
