%
M48
M72
T01C0.0118
T02C0.0354
T03C0.0400
T04C0.0630
T05C0.1260
T06C0.1280
%
T01
X30500Y26000
X30500Y27000
X29850Y26950
X29600Y26700
X31500Y27000
X31500Y26000
X33500Y26000
X33500Y27000
X33500Y28000
X33050Y29300
X33050Y29600
X33050Y30650
X33050Y30950
X33050Y32000
X33050Y32300
X33050Y33350
X33050Y33650
X33500Y34000
X33500Y35000
X34500Y35000
X35500Y35000
X36500Y35000
X36800Y35500
X37500Y35000
X38500Y35000
X39500Y35000
X39500Y34000
X39500Y33000
X38500Y33000
X38500Y34000
X37500Y34000
X37500Y33000
X37500Y32000
X38500Y32000
X39500Y32000
X39500Y31000
X38500Y31000
X37500Y31000
X37500Y30000
X38500Y30000
X39500Y30000
X39500Y29000
X38500Y29000
X39500Y28000
X38500Y27000
X38500Y26000
X36500Y26000
X36500Y27000
X35500Y27000
X35500Y28000
X36500Y28000
X35500Y29000
X36500Y31000
X36500Y32000
X35500Y32000
X35500Y33000
X35500Y34000
X34500Y34000
X34500Y33000
X36500Y33000
X36500Y34000
X39500Y36000
X36600Y36750
X34600Y36750
X33300Y36250
X32450Y36250
X31050Y36250
X31050Y36650
X29950Y36050
X29700Y36200
X29500Y36000
X29200Y35600
T02
X29350Y32799
X28850Y32299
X28350Y32799
X27850Y32299
X27350Y32799
X26606Y32699
X25898Y32699
X25898Y31900
X26606Y31900
X26606Y31100
X25898Y31100
X25898Y30301
X26606Y30301
X27350Y30201
X27850Y30701
X28350Y30201
X28850Y30701
X29350Y30201
X29850Y30701
X30350Y30201
X30850Y30701
X31350Y30201
X31850Y30701
X31850Y32299
X31350Y32799
X30850Y32299
X30350Y32799
X29850Y32299
T03
X23000Y25500
X24000Y25500
X25000Y25500
X26000Y25500
X27000Y25500
X28000Y25500
X29000Y25500
X30000Y25500
X31000Y25500
X32000Y25500
X33000Y25500
X34000Y25500
X35000Y25500
X36000Y25500
X37000Y25500
X38000Y25500
X39000Y25500
X40000Y25500
X40000Y37500
X39000Y37500
X38000Y37500
X37000Y37500
X36000Y37500
X35000Y37500
X34000Y37500
X33000Y37500
X32000Y37500
X31000Y37500
X30000Y37500
X29000Y37500
X28000Y37500
X27000Y37500
X26000Y37500
X25000Y37500
X24000Y37500
X23000Y37500
T04
X23701Y34850
X31591Y34850
X29988Y28150
X23701Y28150
T05
X25000Y36200
T06
X25500Y33750
X25500Y29250
M30
